<svg id="Layer_1" data-name="Layer 1" xmlns="http://www.w3.org/2000/svg" viewBox="0 0 780 1051.14"><defs><style>.cls-1{fill:#fff171;stroke-width:0.3px;}.cls-1,.cls-2,.cls-5,.cls-7,.cls-8{stroke:#fff;stroke-miterlimit:10;}.cls-2{fill:#c6946f;}.cls-2,.cls-7{stroke-width:0.42px;}.cls-3{opacity:0.5;}.cls-4{fill:#b78662;}.cls-5,.cls-6,.cls-8{fill:#d4a47c;}.cls-5{stroke-width:0.27px;}.cls-7{fill:#005058;}.cls-8{stroke-width:0.36px;}.cls-9{font-size:24.66px;}.cls-13,.cls-9{font-family:ABCSansBold, ABCSans;}.cls-10{letter-spacing:-0.01em;}.cls-11{letter-spacing:-0.02em;}.cls-12{letter-spacing:-0.02em;}.cls-13{font-size:30px;}.cls-14{letter-spacing:-0.01em;}.cls-15{letter-spacing:0.03em;}.cls-16{letter-spacing:-0.04em;}.cls-17{letter-spacing:-0.02em;}.cls-18{font-size:38.5px;fill:#fff;font-family:ABCSerifBold, ABCSerif;}</style></defs><path class="cls-1" d="M479.12,457.19A104.73,104.73,0,0,1,475.58,447a95.69,95.69,0,0,1,.18,24.56c-1.11,9.89-3.41,19.85-7.6,28.27a38.88,38.88,0,0,1-3.49,5.81,31.31,31.31,0,0,1-2.1,2.55c-1.15,1.25-.67,3.14-1.15,4.86-.6,2.17,2,3.1,2.63.95a14.39,14.39,0,0,0,.43-3.28c5.41-5.89,8.87-14.5,11.13-23.11a111.39,111.39,0,0,0,3.52-30.07C479.13,457.45,479.13,457.32,479.12,457.19Z"/><path class="cls-1" d="M475.33,445.36l0,0a82.66,82.66,0,0,0-14.72-9.55c-2.4-1.27-4.81-2.69-7.53-3.13-10.23-1.66-20,3-27.65,9.34-2.51,2.07-5.07,4.48-6.47,7.47-.61,1.3-2.09,7.1,1.21,7.13.44,0,2.86-5.47,3.63-6.37,5.53-6.54,12.73-12.74,21.69-13.31,2.65-.17,5.54-.63,8.12.17a36.49,36.49,0,0,1,6.75,3.33c2.36,1.32,4.59,2.83,6.92,4.18a46.6,46.6,0,0,1,6.62,5c1.22,1,2.4,2.08,3.62,3.1C476.66,450.25,476,447.75,475.33,445.36Z"/><path class="cls-2" d="M491.94,616.5c3.48,9.31,5.95,19.75,3.08,29.56-1.23,4.22-3.87,7.64-6.49,11.91s-2.47,11.23-3.71,15.46c-.66,19.52,2.8,35.56,6.26,53.53,2,16.63,1.24,33.37,2.05,50.52l3.69,14.6a2.78,2.78,0,0,1,.25.77c.2.7.49,1.38.68,2.08,3.82,13.68,8.76,21.6,9.3,35.85.49,12.57-3.3,31.08-3.75,43.53-.25,6.92-2,13.42-1.27,21,.79,7.86-.63,14.93.79,22.59,1.11,6,1.2,12.18,3.22,18,.49,1.4,1.06,2.88.7,4.32-.56,2.16-2.95,3.24-5.1,3.84-7.38,2.07-18.16-.85-24.79,2.47-1.31.65-2.44,1.62-3.7,2.36a20.35,20.35,0,0,1-5.33,1.93,77.9,77.9,0,0,1-12.34,1.77c-3.37.27-6.58,1.69-9.92,1.79-1.2,0-2.34.26-3.54.34-.6,0-1.21,0-1.82,0a14.39,14.39,0,0,0-2.05.44c-.75.16-1.43.43-2.17.58-1.54.3-3.05,1-4.62,1.12-.51,0-.92.21-1.42.26-.76.07-1.44-.14-2.18-.14a17.13,17.13,0,0,1-5.87-1.12,9.44,9.44,0,0,1-3.74-2.16c-.16-.16-.23-.38-.4-.54s-.51-.37-.73-.58a3.63,3.63,0,0,1-1-1.59,2.42,2.42,0,0,1,.31-2.39,1.73,1.73,0,0,1,1.15-.41c7.06-.83,12.87-5.24,19-8.45,3.11-1.63,6.46-2.54,9.53-4.27,3.57-2,6.55-5.27,10.21-7,.34-.16,1.83-1.45,2.16-1.65,6.49-3.83,14.66-7.25,15.07-15.39.19-3.83,2.39-7.19,3-10.94,2.27-14.95-3.66-29.07-5.53-43.67-1.55-12-6.1-24.75-9-36.09-.42-1.63-.11-3.26-.41-4.88-1.44-8-4.57-16.13-7.26-23.8-1.79-5.1-8.64-7.93-11.14-12.72-2.3-4.41-1.33-10.94-1.3-16.16,0-2,.58-3.92.58-5.9,0-5-3.55-9.38-5.95-13.53-2.82-4.85-5.41-9.85-8.25-14.68-.9-1.52-1.62-3.2-2.6-4.66-2.08-3.1-3.41-6.8-5-10.19a30.35,30.35,0,0,1-1.83-5.68c-.37-1.62-1-3.27-1.28-4.9a19.37,19.37,0,0,0-.85-3.1,30.72,30.72,0,0,1-.62-3.84,44.23,44.23,0,0,0-1.44-5.88,39.65,39.65,0,0,1-1.2-6.65c-.29-2.37-1.58-4.6-1.76-7-.13-1.68-.51-3.28-.65-4.94a53.35,53.35,0,0,0-1-7.66c-.86-3.67-.53-7.84-.67-11.6-.11-2.95-.2-5.89-.33-8.84-.14-3.2.75-6.3.66-9.5l.23-3.17c.1-1.28.54-2.57.72-3.87a17.87,17.87,0,0,1,1.16-4.56c.74-1.75,1.88-3.31,2.59-5.07s1-3.65,1.66-5.41a23.09,23.09,0,0,1,2.28-4.05c1.28-1.95,2.44-4.27,4.09-5.91a26.52,26.52,0,0,1,9.09-6.29,70.31,70.31,0,0,1,9.09-2.94,59.43,59.43,0,0,1,10.13-1.16,32.09,32.09,0,0,1,7.13.33c4.22.78,8.06,2.94,11.65,5.32,2.25,1.49,4.44,3.08,6.71,4.53,1.17.75,2.41,1.37,3.59,2.09s1.95,1.52,3,2.17a32,32,0,0,1,5,4.19,9.82,9.82,0,0,1,2,2.67c.48.91,1.54,1.64,1.83,2.54Z"/><g class="cls-3"><path class="cls-4" d="M485.27,912c.93,2.57,5.69,4.85,8,3.59,1.33-.73,2.13-3.15,2.71-4.41.16-.33.28-.67.42-1a10.14,10.14,0,0,0,.55-2.85c0-.39-.06-.77-.11-1.15a1.34,1.34,0,0,0-2.48-.53,4.52,4.52,0,0,0-.48,1c-.61,1.91-1.42,4.52-3.49,4.82s-3-2.12-3.46-3.7a18.09,18.09,0,0,0-.51-1.82,9.53,9.53,0,0,0-.73,1.33c.13-.2-.36,1.3-.38,1.54A29.85,29.85,0,0,0,485.27,912Z"/></g><path class="cls-5" d="M427.47,433.39c-1.4.71-2.92,1.23-4.25,2.05a5.87,5.87,0,0,1-3.12,1.12q.51-1.37.87-2.7c1-3.89,1.6-9.65,0-13.53-2.69-6.66-10-2.37-14.94-1.59-2.84.45-7.23,1.87-10.09.95-2.12-.68-2.7-2.57-2.67-4.62,0-1.09,0-2.2,0-3.29-.05-1.51-1-1.75-2-2.91a18.28,18.28,0,0,1-2.88-4.76,19.86,19.86,0,0,1-.56-3,4.68,4.68,0,0,0-2.34-2.57,1.87,1.87,0,0,0-1.22-.32,3.41,3.41,0,0,1-3.63-3.84,28.29,28.29,0,0,1,1.12-5.06c.83-2.64,1.3-2.65,2.25-4.87a12.75,12.75,0,0,0,1-2.63c.07-.34.14-.47.19-.51a2.53,2.53,0,0,1-.18-.35,27.7,27.7,0,0,0-2-3.13,20,20,0,0,1-1.88-2.54c-.21-.5,0-.89-.06-1.37s-.37-.87-.46-1.36c-.17-1-.05-2-.22-3a13.89,13.89,0,0,1-.27-2.73c.05-1.9-.55-3.63-.53-5.52,0-2.83-.06-5.41,1.9-7.72a28.27,28.27,0,0,1,3.47-3.18c1-.85,1.62-2,2.62-2.79,2-1.55,4-2.85,5.57-4.92a25.2,25.2,0,0,1,6.46-6.36c2.58-1.61,5.34-2.43,8-3.72,3.63-1.73,8.14-3.32,12.2-3.42a72.34,72.34,0,0,1,10.82.48,42.14,42.14,0,0,1,7.2,1.8,19.48,19.48,0,0,1,8.19,4.87,24.47,24.47,0,0,1,4.95,8c1.09,2.73,2.34,5.46,3.3,8.22a31.13,31.13,0,0,0,1.31,3.73,24.16,24.16,0,0,0,1.48,2c.66,1,.63,2.35,1.29,3.4.86,1.36,2.33,1.49,3.83,2.12a28.21,28.21,0,0,0,5.12,1.7,19.13,19.13,0,0,1,3.28,1c-.93,3.64-3.11,6.92-2.8,10.81a2.67,2.67,0,0,0,.63,1.54,5.44,5.44,0,0,0-2,.73c-1.37,1-1.81,2.93-3.36,3.76a6.21,6.21,0,0,1-4.53.09,7.33,7.33,0,0,1-1.61-1.14c-.75-.51-1.63-.68-2.34-1.24-.86-.7-1.83-2.16-3-1.34s-1,3.53-1.06,4.75,0,2.16-.09,3.49a48.09,48.09,0,0,1-1.61,9,4.55,4.55,0,0,0,.39,2.68c.66,1.65,2.16,2.95,3.21,4.36,6.5,8.8,14.62,18,20.3,27.66,1.26,2.15,1.6,4.65,2.59,6.88.53,1.19.62,2.51,1.15,3.7.39.86.76,1.68,1.09,2.57,5.44,14.42,8.76,27.9,8.44,43.52-.34,15.94,2.17,36.1-2.62,51.36a16.66,16.66,0,0,0-.47,5c0,1.31-.44,2.47-.52,3.76-.18,2.74-.93,5.5-1,8.24a17.56,17.56,0,0,1-.36,2.81,20.85,20.85,0,0,0-.09,2.74c-.06,1.1-.49,2.06-.52,3.17s0,1.94,0,2.91c0,.73.31,1.79-.48,2.13s-2.2-.74-3-1.16c-2.41-1.28-4.92-2-7.24-3.54s-5.27-2.83-6.67-5.59c-1.19-2.36-2.06-4.28-2-7,.06-4.58-6.51-7.34-7.58-11.84-1.12-4.68-.46-10.54-3.68-14-2.5-2.66-4-7.81-4.81-11.85-1.7-8.61,5.81-17.82,3.86-26.38s-2.71-17.28-4.75-25.79c-1.26-5.24-2.5-10.71-5.54-15.29-.65-1-1.56-1.68-2.29-2.58s-1.18-2-2-2.86a18.78,18.78,0,0,1-3.32-4.75"/><path class="cls-6" d="M417.83,445a6.84,6.84,0,0,1-.51,2.21c-.5,1.61-1.59,3-2,4.62-.4,1.42-1,2.74-1.3,4.18a19.85,19.85,0,0,1-1.6,3.78,31.06,31.06,0,0,0-1.41,4.35c-.47,1.57-1.14,3.05-1.56,4.63a30.37,30.37,0,0,0-.65,4.94c-.37,4.13-.65,8.3-.66,12.44a11.87,11.87,0,0,0,.57,4.22,34.63,34.63,0,0,0,1.79,4.05,38.59,38.59,0,0,0,3,4.58A29,29,0,0,0,424,508.36a14.55,14.55,0,0,0,5.15,1.95,12.94,12.94,0,0,0,3.72.28,6.59,6.59,0,0,0,3.07-1.46,20.33,20.33,0,0,0,6.35-8.67,31.18,31.18,0,0,0,2.54-9.27,37.84,37.84,0,0,0-.59-9.85,29.3,29.3,0,0,0-1.17-5.13c-1.19-3.4,19.17-14.9,17.62-18.17-3.46-7.27-13.16-21.36-18.56-27.62-10.41-1-23.47,5.86-23.55,12.51a3.77,3.77,0,0,1-1.42,2.32"/><path class="cls-7" d="M418.55,438.15c-6.4,13.58-7.76,20-12,33.62-.48,1.53-1.59,2.87-1.94,4.37-1.32,3.13-2.42,6.36-3.53,9.57-1.76,5.09-3.59,10.23-4.08,15.6a23.86,23.86,0,0,0,1.29,10.76c1.37,3.6,3.93,6.71,5.63,10.18,3.48,7.1,4,15.3,4,23.08A138.87,138.87,0,0,0,409,561.65c.54,4.48,1.33,8.9.69,13.4-.67,4.78-2.37,9.33-3.38,14a49.62,49.62,0,0,0-1,12.75c.38,7.91,2.08,15.56,3.26,23.37.36,2.44.25,7.81,2.31,9.23,2.9-2.22,3.86-9,4.9-12.48,1.35-4.52,2.72-9.07,5.18-13.14,6.51-10.8,19.93-16.3,32.5-15.31,13.08,1,25.8,8.38,34.61,17.94,3.3,3.57,5.43,9.22,7.52,13.58a34.17,34.17,0,0,0-.36-4.16,82.12,82.12,0,0,0-3.31-12.82c-3.15-9.9-7.13-19.83-9.83-29.8-.56-2.06-.9-4.25-1.33-6.29s-1.05-1.77-2.76-2.62c-1.13-.57-2.06-1.2-3.22-1.68-4.36-1.8-7.57-6-9.73-9.95-1-1.93-1.33-4.08-2.31-6a27.29,27.29,0,0,1-1.42-3.75,29.61,29.61,0,0,1-1-3.48c-.32-1.5-.16-3.17-.53-4.64-.17-.69-.63-1.42-.85-2.11-.64-2-1.09-4.13-1.71-6.17-.83-2.77-1.4-5.67-2.1-8.48-1.05-4.2-1.85-8.48-3.29-12.58-1.53-4.34-4.32-7.89-6.9-11.69a3.26,3.26,0,0,0-.76-.89,3.62,3.62,0,0,0-1.78-.52,71.9,71.9,0,0,1-16.77-3.73c-9.9-3.65-14.38-11.43-13.76-22.05a34.19,34.19,0,0,1,1.24-6.65c.68-2.55,5.62-15.56,6.38-18.09Z"/><path d="M391.38,372c.35,0,.7.14,1.05.22s.62.16.73.37,0,.08,0,.13-.23,0-.3,0l-.33.06c-.42.1-.84.26-1.26.37a6.61,6.61,0,0,1-.73.2c-1.56.28-3.26.05-4.76.51a6.27,6.27,0,0,0-2.91,2.91c-.32-.4-1.94-1.54-1.65-2,.42-.7,2.53-1.53,3.19-2a6.57,6.57,0,0,1,4.35-1.23C389.62,371.56,390.49,371.85,391.38,372Z"/><path d="M469.07,364.14c-2.25-1.06-4.87-1.79-7-3.11-6.69-4.2-7.28-13.62-11.53-20.28-3.5-5.47-9.55-8.95-15.87-10.47s-12.92-1.26-19.38-.56c-6,.66-12,1.72-17.41,4.4-3.62,1.81-13.36,8.66-11.64,13.75s11.51,6.4,14.21,11.65c1.37,2.66,1.48,5.92,3.3,8.29a25.9,25.9,0,0,0,3.3,3.06c2,1.83,3.55,4.16,5.69,5.85s5.26,2.6,7.56,1.14a11.21,11.21,0,0,1-.18-5.77c.59-1.86,2.36-3.48,4.29-3.26,2.66.3,3.85,3.56,3.78,6.24s-.79,5.53.42,7.92c1.29,2.58,4.34,3.68,7.1,4.54L450,392c1.71-2.44-.56-6.3,1.3-8.64,1.4-1.76,4.09-1.41,6.34-1.3a18.43,18.43,0,0,0,11.93-3.69c3.18-2.41,5.62-6.72,3.93-10.34A8.34,8.34,0,0,0,469.07,364.14Z"/><path d="M386.65,348.84l.71-.59c0-.06-.1-.11-.14-.17A2.86,2.86,0,0,0,386.65,348.84Z"/><path class="cls-5" d="M419.49,378.21c-4.09-3.32,1.05-10,5-10.12a6.54,6.54,0,0,1,6.47,6c.14,3.38-2.4,6.39-2.48,9.78,0,1.79.6,3.69-.18,5.3s-4,1.49-3.7-.28"/><path d="M458.14,364.7a7.23,7.23,0,0,0,1.74-2.92,11.91,11.91,0,0,1,2.26-3.27,6.1,6.1,0,0,1,3.91-2.19,6.7,6.7,0,0,1,3.91.92,6.44,6.44,0,0,1,2.66,2.45c.46,1.21,0,3.28.05,4.56a6.66,6.66,0,0,1-1.87,4.16,6.05,6.05,0,0,1-4,2.48,19.67,19.67,0,0,1-10.25-2.63c-1.55-.81-2.39-3.06-2.73-4.71s-.41-4.49.36-6.05c1.46-3,5.61-3,8.36-2.34,1.65.4,3.27,1,4,2.63a9.78,9.78,0,0,1,.61,4.36,18.22,18.22,0,0,1-.36,5,6.58,6.58,0,0,1-.89,2.48,20.79,20.79,0,0,0-1.73,2.4,8.27,8.27,0,0,1-2.19,2.49,3.25,3.25,0,0,1-2.43.71,10.11,10.11,0,0,1-3-.43c-.62-.18-1.15-.58-1.75-.81-1-.38-1-.43-1.1-1.67"/><path d="M457.58,363.86c-.59-1.31-.1-2.5.49-3.68a5.78,5.78,0,0,0,.54-1.27,1.86,1.86,0,0,1,1.31-1.41c1.7-.71,3.81-.14,5.49.22a6.18,6.18,0,0,1,2.08.66c.59.36,1,.93,1.58,1.27.34.2.71.23,1,.52s.45.72.78,1,.57.38.8.84a9.58,9.58,0,0,1,.42,1.17,5,5,0,0,1,.44,2.21,14,14,0,0,1-.52,2.29,5.64,5.64,0,0,1-.48.95c-.2.39-.25.83-.45,1.22a6.28,6.28,0,0,1-2.7,2.21c-1.93,1.11-4.53,1-6.7.86a11.37,11.37,0,0,1-4.84-1.34,24.4,24.4,0,0,1-2.32-1.59,9.7,9.7,0,0,1-2-1.62A8.82,8.82,0,0,1,451,365.9a19.4,19.4,0,0,1-1-2.92,6.33,6.33,0,0,1,.27-3,7.64,7.64,0,0,0,.65-1.46,5.66,5.66,0,0,1,.4-1.62,6.57,6.57,0,0,1,4.22-3.76,21.15,21.15,0,0,1,4.24-.8c.92,0,1.85,0,2.77,0a6.07,6.07,0,0,1,2.85.73,4.23,4.23,0,0,1,1.42,1c.36.41.9.76,1.1,1.26.61,1.5.12,3,.44,4.49a5.06,5.06,0,0,1,.23.87c0,.48,0,1,0,1.45a10,10,0,0,1-.12,2.33,6.72,6.72,0,0,1-1,2.45,3.57,3.57,0,0,1-2.5,1.59,10.05,10.05,0,0,1-3.66.51,13,13,0,0,1-4.67-1.49,10,10,0,0,1-3.9-3.1,10.94,10.94,0,0,1-1.38-2.22,11.21,11.21,0,0,1-.35-2.32c-.18-1.67.83-3.22,1.56-4.61.15-.28.38-1,.66-1.18s.68,0,.92,0"/><path d="M454.78,377.88c-.6-1.31-.1-2.5.49-3.69a6.21,6.21,0,0,0,.54-1.26,1.86,1.86,0,0,1,1.31-1.42c1.69-.7,3.8-.14,5.49.22a6.34,6.34,0,0,1,2.08.67c.58.36,1,.92,1.58,1.26.33.21.7.24,1,.53s.45.71.78,1,.58.38.81.83a9.73,9.73,0,0,1,.42,1.18,4.93,4.93,0,0,1,.44,2.2,13.92,13.92,0,0,1-.52,2.3,6.51,6.51,0,0,1-.48,1c-.2.39-.25.82-.45,1.21a6.2,6.2,0,0,1-2.71,2.22c-1.93,1.11-4.52,1-6.69.86a11.6,11.6,0,0,1-4.85-1.34c-.82-.48-1.55-1-2.32-1.59a10,10,0,0,1-2-1.63,8.46,8.46,0,0,1-1.45-2.48,18.24,18.24,0,0,1-1-2.91,6.19,6.19,0,0,1,.27-3,7.73,7.73,0,0,0,.65-1.47,5.48,5.48,0,0,1,.39-1.62,6.64,6.64,0,0,1,4.23-3.76,21.13,21.13,0,0,1,4.24-.79c.92,0,1.85,0,2.77,0a5.89,5.89,0,0,1,2.84.73,4.18,4.18,0,0,1,1.43,1c.36.41.9.75,1.1,1.25.61,1.5.12,3,.44,4.5a5.83,5.83,0,0,1,.23.87c0,.47,0,1,0,1.44a10.16,10.16,0,0,1-.12,2.34,6.85,6.85,0,0,1-1,2.44,3.59,3.59,0,0,1-2.5,1.6,9.84,9.84,0,0,1-3.66.5,12.88,12.88,0,0,1-4.68-1.48,9.94,9.94,0,0,1-3.89-3.11,10.61,10.61,0,0,1-1.38-2.21,11.21,11.21,0,0,1-.36-2.33c-.18-1.66.83-3.21,1.57-4.61.14-.27.38-1,.65-1.17s.69,0,.93,0"/><path class="cls-8" d="M451.92,438.07a37.37,37.37,0,0,0-5.5-3.12,20,20,0,0,0-3-.84,8.93,8.93,0,0,0-2.73,0,16,16,0,0,0-6.15,1.32c-1,.41-1.9.81-2.82,1.31-4.88,2.61-7.73,6.07-10.15,11-2.11,4.3-4.16,8.63-5.9,13.09-.81,2.1-1.56,4.23-2.21,6.39-2.93,9.82-6.12,19.52-9,29.38s-6.93,20.23-9.63,30.7c-.73,2.41-1.37,4.79-1.85,5.84a69.22,69.22,0,0,1-6.23,10.22c-12.69,18.74-20.87,40.4-33.08,59.53a34.16,34.16,0,0,0-1.83,3.37,8.79,8.79,0,0,1-1.46,1.88,8.65,8.65,0,0,0-1.54,2.07c-.32.73-.82,1.3-1.16,2a14.55,14.55,0,0,1-1.84,2.84c-.42.52-.8,1.09-1.25,1.58l-.7.8-.23.14c-.42.53-.8,1.11-1.26,1.6a17.27,17.27,0,0,1-1.28,1.53,7.43,7.43,0,0,1-1.8,1.22c-.7.27-1.42.53-2.13.78-1.22.43-2.4.86-3.61,1.33a13.65,13.65,0,0,0-1.55.57c-.44.23-.86.6-1.31.8l-.49.53c-.5.28-1.05.47-1.54.78a8.16,8.16,0,0,0-1.27,1l-.48.46c-.27.25-.59.4-.85.66a9.91,9.91,0,0,0-1,1c-.32.4-.15.84-.12,1.3a1.55,1.55,0,0,1-.36,1.22c-.33.37-.62.78-.93,1.16s-.42.45-.61.7-.36.44-.53.66a13,13,0,0,1-1.27,1.3l-.65.64a4.86,4.86,0,0,1-.64.48,2.9,2.9,0,0,0-.48.51c-.17.21-.38.38-.54.59a3.56,3.56,0,0,0-.69,1.44,1.69,1.69,0,0,0-.08.5c0,.22.12.49.17.71a4,4,0,0,1,0,2.9c-.08.42-.17.84-.24,1.27s-.21.58-.28.88a3.84,3.84,0,0,1-.15.69c-.1.19-.15.41-.26.6a1.8,1.8,0,0,0-.24.48,9.83,9.83,0,0,0-.23,1.18c0,.58.48.74.93.92a1.91,1.91,0,0,0,.75.08A7.77,7.77,0,0,0,320,650a.42.42,0,0,0,.29-.14c.05-.06.06-.15.12-.2s.16,0,.25-.08a.54.54,0,0,0,.21-.16A8.57,8.57,0,0,0,322,647.9q.57-.92,1.08-1.86a.83.83,0,0,0,.07-.13c-.12.29-.23.58-.37.86a10.7,10.7,0,0,1-.93,1.61,11.42,11.42,0,0,0-1.16,1.44,2.48,2.48,0,0,1-.17.32c-.15.22-.3.45-.44.68s-.13.33-.21.5a2.89,2.89,0,0,1-.38.47,10.61,10.61,0,0,0-.77,1,7.27,7.27,0,0,0-1.05,2.08,2.16,2.16,0,0,1-.29.54,3.43,3.43,0,0,0-.22.56,2.28,2.28,0,0,1-.21.51,5.72,5.72,0,0,1-.45.53c-.28.33-.47.73-.77,1s-.55.68-.86,1a6.32,6.32,0,0,0-.77.94c-.11.16-.1.35-.18.51s-.17.29-.25.43c-.19.35-.33.69-.53,1s-.44.78-.64,1.17a21.38,21.38,0,0,1-1.08,1.92,6.31,6.31,0,0,0-.49,2,2.65,2.65,0,0,0,.71,2.16,2.8,2.8,0,0,0,1.78.95,1.62,1.62,0,0,0,.22,0l.27.19a1.08,1.08,0,0,0,.23-.29.73.73,0,0,0,.19-.07c-.15.11-.29.26-.43.38a1.89,1.89,0,0,0-.57,1.2,3,3,0,0,0-.07.52c0,.25,0,.45-.06.7a3.25,3.25,0,0,0,0,.7c.06.39.28.54.6.73a8.12,8.12,0,0,0,1.41.56,2.51,2.51,0,0,0,1.43.12,1.51,1.51,0,0,0,.53-.32h0s.11,0,.16-.14.38-.44.57-.65a18.21,18.21,0,0,0,1.28-1.62c.29-.44.58-.85.9-1.25a12.54,12.54,0,0,0,1.05-1.49c.35-.58,1-1,1.37-1.53.21-.29.38-.6.58-.89s.39-.43.54-.68a6,6,0,0,1,1.35-1.3,5.13,5.13,0,0,0,.72-.68,6.64,6.64,0,0,1,.51-.55l-5.73,6.78a.74.74,0,0,0-.33.47c0,.12-.11.16-.16.26a1.84,1.84,0,0,0,0,1.16,1.63,1.63,0,0,0,1.44,1.07.22.22,0,0,0,.14,0,6.34,6.34,0,0,0,.74,0,2.64,2.64,0,0,0,1.53-.52c.49-.35,1.05-.56,1.54-.89a4.38,4.38,0,0,0,1.09-1.1,8.52,8.52,0,0,1,1.06-1.26,21.88,21.88,0,0,0,1.84-2.71l.3-.41.15.19-.42.52c0,.2-.4.31-.28.51s.16.21.23.33.09.27.2.35a.62.62,0,0,0,.32.11c.43.07.82.27,1.24.36a2.14,2.14,0,0,0,1.2-.12,3.19,3.19,0,0,0,1.42-.88c.22-.21.48-.32.7-.52s.44-.47.67-.72a8,8,0,0,1,.53-.63,7.4,7.4,0,0,0,.56-.56c.2-.26.47-.45.66-.7a4,4,0,0,1,.52-.64,6.34,6.34,0,0,0,1.05-1.21c.25-.36.65-.63.91-1s.64-.68.92-1,.7-.85,1-1.27c.13-.17.18-.37.32-.53s.39-.33.55-.53c.3-.4.67-.74,1-1.14s.38-.82.64-1.2a8.45,8.45,0,0,1,.91-1.16,12,12,0,0,0,.67-1c.16-.21.38-.37.55-.58a8.23,8.23,0,0,1,.83-.84c.35-.32.64-.66,1-1a3.63,3.63,0,0,0,.61-1.19,1.76,1.76,0,0,1,.45-.6c.19-.2.33-.39.5-.6a2.37,2.37,0,0,0,.33-.38,3.31,3.31,0,0,1,.38-.72c.2-.23.57-.42.71-.69a13,13,0,0,0,.59-1.76c.07-.21.11-.43.17-.63a19.92,19.92,0,0,1,.94-2.11,11,11,0,0,0,.61-1.3,9.22,9.22,0,0,1,.29-1.15c.37-1,.54-2.06.92-3.06.12-.3.33-.58.44-.89.16-.46.18-.91.38-1.36,4.3-9.87,8.61-18.79,15.63-27.1,6.87-8.14,15.17-15.46,22.27-23a108.18,108.18,0,0,0,8.17-9.84,51.53,51.53,0,0,0,5.78-9.31,22.67,22.67,0,0,1,1.93-3.13c.95-1.47,1.47-3.29,2.29-4.77a27.82,27.82,0,0,0,1.37-3l1.89-3.19c.1-.47.21-.93.32-1.39,1.82-2.58,3.46-5.32,5.18-7.95l11.43-17.49q5.91-9.06,11.83-18.1,3.39-5.2,6.8-10.41a121.77,121.77,0,0,0,6.51-11.93,93.21,93.21,0,0,0,4.21-10.36M324.3,643.37a2.69,2.69,0,0,0-.38.8l-.14.32A2,2,0,0,1,324.3,643.37Zm-9.66,26.47a.71.71,0,0,0,.09-.07l0,0Zm1.78-2.78c.2-.22.43-.44.64-.66l-1.72,2.48A7.81,7.81,0,0,1,316.42,667.06Zm2-2.68a5,5,0,0,0,.28-.57c.16-.4.3-.8.46-1.21a5.9,5.9,0,0,1,.65-1.21,6.79,6.79,0,0,0,.62-1.12,3.7,3.7,0,0,1,1.1-1.2,9.47,9.47,0,0,0,1.06-1,25.23,25.23,0,0,1,2-2.66Zm11.33,2.29.19-.26.1-.11C330,666.47,329.84,666.6,329.78,666.67Zm1.32-1.22a2,2,0,0,0-.4.17c.35-.44.67-.88,1-1.33a5.26,5.26,0,0,1,.71-.78c.25-.22.44-.48.69-.68s.5-.47.75-.71ZM329,660.61a2.14,2.14,0,0,1,.13-.22c.15-.18.33-.3.46-.49a7.1,7.1,0,0,0,1.13-2c.11-.42.5-.44.82-.78s.8-.72,1.11-1.09c.62-.72.89-1.35,1.53-2.07.31-.35.41-.72.82-1,.14-.09.74-.69.82-.66l.49-.38Zm9-3.53a6.73,6.73,0,0,1,1.34-1.62Zm3.19-4.14c0-.07,0-.13.06-.15S341.28,652.84,341.22,652.94Z"/><path class="cls-1" d="M478.44,447.51a102.16,102.16,0,0,1-3.55-10.15,96.15,96.15,0,0,1,.19,24.56c-1.12,9.89-3.41,19.85-7.6,28.27A39.44,39.44,0,0,1,464,496c-.66.9-1.51,1.64-2.1,2.55-2.27,3.52-7.66,10.07-9.48,13.86-.26.73.85,3.33,1.94,6.19,2.52-7.36,6.86-13.29,11.21-19.61a66,66,0,0,0,9.37-21,111.4,111.4,0,0,0,3.53-30.07C478.44,447.77,478.44,447.64,478.44,447.51Z"/><path class="cls-1" d="M474.34,434.72a3.67,3.67,0,0,0-.47-.83c-1.49-2-4.94-3.88-7-5.24-14.45-9.59-28.28-9.31-41.59,1.67-2.51,2.07-7.61,7.83-8.42,12.33,1,.8,1.76,1.79,2.56,4.25.44,0,2.91-6.57,3.68-7.48,5.53-6.52,12.73-12.72,21.69-13.29,8.6-.54,14.68,3.57,21.81,7.67a47.18,47.18,0,0,1,6.62,5c1.21,1,2.4,2.08,3.62,3.09C475.36,440.66,475.3,436.92,474.34,434.72Z"/><path d="M180,222.9V230h6.9V222.9H190v17.26h-3.11v-7.34H180v7.34H176.9V222.9Z"/><path d="M204.32,236.61a5.76,5.76,0,0,1-5.57,3.7c-4.34,0-6.26-2.71-6.26-6.76s2.71-6.53,6.43-6.43c3,.07,5.75,2.34,5.45,6.46l-.05.39h-8.73c0,2.2.94,3.7,3.18,3.7a2.87,2.87,0,0,0,2.79-2Zm-3.13-4.21c.05-2-1-2.94-2.54-2.89a2.88,2.88,0,0,0-2.91,2.89Z"/><path d="M207.26,228.06a15.36,15.36,0,0,1,4.88-.94c3.9,0,5.33,1.92,5.33,4.93v5.23a.65.65,0,0,0,.61.74,2.48,2.48,0,0,0,1-.15v2a5.09,5.09,0,0,1-2,.39,2.33,2.33,0,0,1-2.34-1.75,5.67,5.67,0,0,1-3.9,1.75c-2.51,0-4.39-1.28-4.41-4s2-4.09,5.25-4.09a21.85,21.85,0,0,1,2.79.24v-.76c0-1.41-.89-2.17-2.67-2.15a10.39,10.39,0,0,0-4,.79Zm7.15,6a13,13,0,0,0-2.51-.15c-1.48.07-2.42.76-2.45,2.07a1.82,1.82,0,0,0,2.1,1.9,5.06,5.06,0,0,0,2.86-1Z"/><path d="M233.3,221.32v18.84h-2.56l-.35-2.22a4.49,4.49,0,0,1-4.12,2.37c-3.47.05-5.54-2.83-5.54-6.63,0-4.64,3-6.56,5.52-6.56a4.09,4.09,0,0,1,4,2.44v-7.84Zm-9.42,12.33c0,2.2.87,3.92,3.16,3.92s3.25-1.72,3.25-3.89c0-2.94-1.57-4-3.28-4S223.88,230.82,223.88,233.65Z"/><path d="M244,227.24l.45,2.3a4.33,4.33,0,0,1,4-2.45,3.77,3.77,0,0,1,3.85,2.4,4.55,4.55,0,0,1,4.17-2.4c3,0,4.21,2,4.21,4.64v8.43h-3.05v-7.44c0-2-.47-3-2.15-3-2.22,0-2.81,1.68-2.81,3.58v6.9h-3.06v-7.44c0-2-.47-3-2.14-3-2.37,0-2.84,1.9-2.84,4v6.51h-3.06V227.24Z"/><path d="M266.7,227.24v7.45c0,2,.79,3,2.59,3,2.34,0,3.3-2.41,3.3-4.86v-5.62h3.06v12.92h-2.44l-.44-2.81a4.72,4.72,0,0,1-4.47,3c-3.15,0-4.66-1.95-4.66-5.2v-7.87Z"/><path d="M279.16,236.46a6.68,6.68,0,0,0,4.19,1.43c1.48,0,2.34-.44,2.34-1.5,0-2.51-7.47-.84-7.22-5.57.09-2.32,1.8-3.7,5.22-3.7a10.49,10.49,0,0,1,4.66,1.21l-1.08,2.17a7.25,7.25,0,0,0-3.7-1.06c-1.21,0-2.22.39-2.17,1.4.15,2,7.32.47,7.32,5.45,0,2.66-2.39,4.05-5.45,4a8.78,8.78,0,0,1-5.3-1.68Z"/><path d="M295.19,223.59v3.78h3.25l-.42,2.46h-2.83v5.92c0,1.41.64,1.95,1.67,1.95a5.72,5.72,0,0,0,1.95-.57l.57,2.34a7.94,7.94,0,0,1-3.28.84c-3,0-4-2-4-4.14v-6.34h-1.8v-2.46h1.95l.37-3.43Z"/><path d="M309.54,221.32v8.22a4.4,4.4,0,0,1,4.32-2.42c2.44.07,5.05,1.73,5.05,6.48,0,3.9-2,6.71-5.45,6.71a4.28,4.28,0,0,1-4.07-2.37l-.42,2.22h-2.49V221.72Zm-.12,12.36c0,2.22.81,4,3.25,4,2,0,3.11-1.5,3.11-4,0-3-1.5-3.95-3.13-3.95S309.42,231.09,309.42,233.68Z"/><path d="M333,236.61a5.78,5.78,0,0,1-5.58,3.7c-4.34,0-6.26-2.71-6.26-6.76s2.71-6.53,6.43-6.43c3,.07,5.75,2.34,5.45,6.46l0,.39h-8.73c0,2.2.93,3.7,3.18,3.7a2.87,2.87,0,0,0,2.78-2Zm-3.14-4.21c.05-2-1-2.94-2.54-2.89a2.89,2.89,0,0,0-2.91,2.89Z"/><path d="M176,261.16v12.92H173V263.7h-1.8v-2.54Zm-1.55-5a1.65,1.65,0,0,1,1.83,1.55,1.83,1.83,0,0,1-3.63,0A1.59,1.59,0,0,1,174.48,256.13Z"/><path d="M181.61,261.16l.47,2.29a4.78,4.78,0,0,1,4.41-2.42c3,0,4.49,2,4.49,4.61v8.44h-3.06v-7.45c0-2-.74-3-2.42-3-2.34,0-3.25,1.9-3.25,4v6.51h-3.06V261.16Z"/><path d="M197.15,255.24v14.62c0,1.38.61,1.75,1.53,1.75a2.37,2.37,0,0,0,1.28-.47l.56,2.2a5.32,5.32,0,0,1-2.78.88c-2.57,0-3.65-1.72-3.65-4.06V255.61Z"/><path d="M206,261.16v12.92h-3.08V263.7h-1.8v-2.54Zm-1.55-5a1.65,1.65,0,0,1,1.82,1.55,1.82,1.82,0,0,1-3.62,0A1.59,1.59,0,0,1,204.45,256.13Z"/><path d="M211.57,261.16l.47,2.29a4.8,4.8,0,0,1,4.42-2.42c3,0,4.49,2,4.49,4.61v8.44h-3.06v-7.45c0-2-.74-3-2.42-3-2.34,0-3.25,1.9-3.25,4v6.51h-3.06V261.16Z"/><path d="M235.4,270.53a5.75,5.75,0,0,1-5.57,3.69c-4.34,0-6.27-2.71-6.27-6.75s2.71-6.54,6.44-6.44c3,.08,5.74,2.34,5.45,6.46l0,.4h-8.73c0,2.19.94,3.7,3.18,3.7a2.89,2.89,0,0,0,2.79-2Zm-3.13-4.22c0-2-1-2.94-2.54-2.89a2.88,2.88,0,0,0-2.91,2.89Z"/><path d="M245.24,261.16l2.52,9H248l2.52-9h3.16l2.54,9h.17l2.56-9h3.18l-4.34,12.92h-3l-2.64-8.73h-.19l-2.55,8.73h-3l-4.24-12.92Z"/><path d="M268.08,261.16v12.92H265V263.7h-1.8v-2.54Zm-1.55-5a1.65,1.65,0,0,1,1.82,1.55,1.82,1.82,0,0,1-3.62,0A1.59,1.59,0,0,1,266.53,256.13Z"/><path d="M275.21,257.51v3.77h3.25l-.42,2.46h-2.83v5.92c0,1.41.64,1.95,1.67,1.95a5.43,5.43,0,0,0,1.95-.57l.57,2.35a8.15,8.15,0,0,1-3.28.83c-3,0-4-2-4-4.14v-6.34h-1.8v-2.46h1.95l.37-3.43Z"/><path d="M284.41,255.24v8a4.81,4.81,0,0,1,4.24-2.2c3,0,4.49,2,4.49,4.61v8.44h-3.06v-7.45c0-2-.74-3-2.42-3-2.34,0-3.25,1.9-3.25,4v6.51h-3.06V255.61Z"/><path d="M305.32,257.51v3.77h3.26l-.42,2.46h-2.84v5.92c0,1.41.64,1.95,1.68,1.95A5.5,5.5,0,0,0,309,271l.56,2.35a8.14,8.14,0,0,1-3.27.83c-3,0-4-2-4-4.14v-6.34h-1.8v-2.46h1.94l.37-3.43Z"/><path d="M314.52,255.24v8a4.84,4.84,0,0,1,4.24-2.2c3,0,4.49,2,4.49,4.61v8.44h-3.06v-7.45c0-2-.74-3-2.41-3-2.34,0-3.26,1.9-3.26,4v6.51h-3.06V255.61Z"/><path d="M337.66,270.53a5.77,5.77,0,0,1-5.58,3.69c-4.34,0-6.26-2.71-6.26-6.75s2.71-6.54,6.44-6.44c3,.08,5.74,2.34,5.44,6.46l0,.4h-8.73c0,2.19.93,3.7,3.18,3.7a2.87,2.87,0,0,0,2.78-2Zm-3.14-4.22c.05-2-1-2.94-2.54-2.89a2.89,2.89,0,0,0-2.91,2.89Z"/><path d="M229.89,289.15v8.21A4.39,4.39,0,0,1,234.2,295c2.44.07,5.06,1.72,5.06,6.48,0,3.9-1.95,6.71-5.45,6.71a4.28,4.28,0,0,1-4.07-2.37l-.42,2.22h-2.49V289.55Zm-.12,12.36c0,2.21.81,4,3.25,4,2,0,3.11-1.5,3.11-4,0-3-1.51-3.95-3.13-3.95C231.22,297.51,229.77,298.92,229.77,301.51Z"/><path d="M247.77,295c3.23,0,6,2.19,6,6.6,0,3.63-2.14,6.59-6.16,6.59-4.37,0-6.17-3-6.17-6.59C241.48,297.14,244.27,295,247.77,295Zm-3.08,6.6c0,2.05.69,4,3,4,2.09,0,3-1.95,3-4,0-2.86-1.41-4-3-4C246.07,297.53,244.69,298.65,244.69,301.55Z"/><path d="M268.61,289.15V308H266l-.34-2.22a4.53,4.53,0,0,1-4.12,2.37c-3.48.05-5.55-2.84-5.55-6.63,0-4.64,3-6.56,5.53-6.56a4.1,4.1,0,0,1,4,2.44v-7.84Zm-9.42,12.33c0,2.2.86,3.92,3.16,3.92s3.25-1.72,3.25-3.89c0-2.94-1.58-4-3.28-4S259.19,298.65,259.19,301.48Z"/><path d="M273.94,295.07l3.18,9.12h.2l2.91-9.12h3.15l-4.78,13.12c-1.58,4.31-3.06,5.4-7.62,4.44l.54-2.59c2.91.71,3.31,0,4.22-2.49l-4.86-12.48Z"/><text class="cls-9" transform="translate(592.47 429.59)">S<tspan class="cls-10" x="14.95" y="0">t</tspan><tspan class="cls-11" x="24.89" y="0">r</tspan><tspan x="34.83" y="0">aight </tspan><tspan x="12.55" y="33.91">elb</tspan><tspan class="cls-12" x="49.65" y="33.91">o</tspan><tspan class="cls-11" x="63.61" y="33.91">w</tspan><tspan x="83.91" y="33.91">s</tspan></text><path d="M586.88,442.37c-9.62,5.72-19.3,11.39-29.1,16.81a59.28,59.28,0,0,1-5.47,2.87,1.51,1.51,0,0,0-.54,2.05,1.54,1.54,0,0,0,2.05.54c4.3-1.83,8.37-4.47,12.41-6.78q8.44-4.83,16.83-9.76c1.78-1,3.56-2.08,5.34-3.14a1.5,1.5,0,0,0-1.52-2.59Z"/><path d="M554.26,453.55c-1.67,3.57-3,7.27-4.38,10.94-.38,1,.58,1.8,1.45,1.9,1.87.22,3.73.52,5.59.76.94.12,1.87.23,2.81.31l.54.05.32,0h.06l1.3.18a1.54,1.54,0,0,0,1.84-1.05,1.5,1.5,0,0,0-1-1.84c-1.87-.26-3.75-.43-5.62-.67s-3.86-.57-5.8-.79l1.44,1.9c1.3-3.43,2.52-6.9,4.08-10.22a1.54,1.54,0,0,0-.54-2.05,1.51,1.51,0,0,0-2,.53Z"/><path d="M346.07,248.59a53.16,53.16,0,0,1,31.42,21.71,91.22,91.22,0,0,1,6.76,12.2c.85,1.8,3.53.23,2.68-1.57-3.31-7-7.24-13.84-12.59-19.53a54,54,0,0,0-16.28-11.83,62.37,62.37,0,0,0-11.17-4c-1.93-.49-2.76,2.5-.82,3Z"/><path d="M375.13,280.45c3.84,1.72,7.81,3.09,11.75,4.53,1,.38,1.88-.58,2-1.5.19-2.05.44-3.76.67-5.83.19-1.75.3-3.5.49-5.24a1.55,1.55,0,0,0-1.55-1.55,1.59,1.59,0,0,0-1.55,1.55c-.2,1.74-.31,3.49-.5,5.24-.21,1.94-.49,3.88-.67,5.83l2-1.49c-3.69-1.35-7.43-2.61-11-4.22a1.6,1.6,0,0,0-2.12.56,1.56,1.56,0,0,0,.56,2.12Z"/><text class="cls-13" transform="translate(123.84 75.39)">The s<tspan class="cls-14" x="73.14" y="0">t</tspan><tspan x="85.05" y="0">a</tspan><tspan class="cls-15" x="102.27" y="0">r</tspan><tspan x="115.68" y="0" xml:space="preserve">t position  is a</tspan><tspan class="cls-16" x="310.85" y="0">l</tspan><tspan x="319.34" y="0" xml:space="preserve">l about  pos</tspan><tspan class="cls-14" x="482.78" y="0">t</tspan><tspan x="494.69" y="0">u</tspan><tspan class="cls-17" x="512.93" y="0">r</tspan><tspan x="525.05" y="0">e</tspan></text><circle cx="79" cy="61.53" r="34.44"/><text class="cls-18" transform="translate(67.45 75.26)">1</text></svg>