<svg id="Layer_1" data-name="Layer 1" xmlns="http://www.w3.org/2000/svg" viewBox="0 0 780 1051.14"><defs><style>.cls-1,.cls-5{fill:#d4a47c;}.cls-1,.cls-2,.cls-3,.cls-4,.cls-5{stroke:#fff;stroke-miterlimit:10;}.cls-1{stroke-width:0.27px;}.cls-2{fill:#005058;stroke-width:0.47px;}.cls-3{fill:#c6946f;stroke-width:0.24px;}.cls-4{fill:#fff171;stroke-width:0.3px;}.cls-5{stroke-width:0.3px;}.cls-6{font-size:24.66px;}.cls-11,.cls-6{font-family:ABCSansBold, ABCSans;}.cls-7{letter-spacing:-0.01em;}.cls-8{letter-spacing:-0.02em;}.cls-9{letter-spacing:-0.02em;}.cls-10{letter-spacing:-0.03em;}.cls-11{font-size:30px;}.cls-12{letter-spacing:-0.01em;}.cls-13{letter-spacing:0.03em;}.cls-14{letter-spacing:-0.04em;}.cls-15{letter-spacing:-0.02em;}.cls-16{font-size:38.5px;fill:#fff;font-family:ABCSerifBold, ABCSerif;}</style></defs><path class="cls-1" d="M518.54,656c54,31.16-46.22-68-57-77.53-25.15-22.29-26.06-34.49-73.44-43.21-4.29-.79-8.6-1.5-12.87-2.38-1.07-.22-2.53-.41-4-.71-2.91-.56-6-1.52-6.91-3.86a47.92,47.92,0,0,0-3.67-8.37c-.69-1.14-1.15-1.83-1.87-3s-2.25-3.2-1.76-4.53,2.11-.64,3.22-.55c.9.08,1.73-.27,2.64-.26a7.63,7.63,0,0,0,2,0,6.22,6.22,0,0,0,3.71-2.59c.82-1.56.1-3.41.69-5a5.62,5.62,0,0,1,1.29-1.74,2.55,2.55,0,0,1-1.37-.93c-2.43-3.05-2.45-7-3.71-10.54a19.19,19.19,0,0,0-3.27,1,29.26,29.26,0,0,1-5.2,1.44c-1.6.31-2.89,1-4.36.37-1.13-.5-1.84-1.61-3-2.1-.8-.36-1.57-.41-2.35-.85a33.51,33.51,0,0,1-3.17-2.37c-2.33-1.75-4.88-3.33-7.31-5a24.39,24.39,0,0,0-8.56-3.87,19.52,19.52,0,0,0-9.51.51,44.86,44.86,0,0,0-7,2.52,74.11,74.11,0,0,0-9.25,5.63c-3.31,2.35-6.18,6.18-8.22,9.64-1.52,2.57-3.36,4.79-4.61,7.56a25.22,25.22,0,0,0-1.81,8.88c-.16,2.6-1.1,4.79-1.89,7.18-.4,1.21-.25,2.52-.63,3.79a29.11,29.11,0,0,0-1.1,4.56c-.35,3,1.17,5.11,2.72,7.48,1,1.58,2.5,2.68,3.51,4.29a14.08,14.08,0,0,0,1.75,2.12c.7.74,1.14,1.62,1.85,2.36.35.36.77.52,1.14.88s.36.8.81,1.1a19.81,19.81,0,0,0,3,1.07,26.15,26.15,0,0,1,3.37,1.5,2.21,2.21,0,0,0,.35.19,1,1,0,0,0,.12.53,11.67,11.67,0,0,1,.62,2.75c.46,2.38.07,2.64.86,5.3a26.27,26.27,0,0,0,1.88,4.82,3.4,3.4,0,0,0,5.15,1.17,1.81,1.81,0,0,1,1.2-.41,4.71,4.71,0,0,1,3.37.83c.81.71,1.16,1.52,2.12,2.16a18.48,18.48,0,0,0,5,2.34c1.47.41,2.39.09,3.27,1.32.63.88,1.23,1.82,1.82,2.73,1.12,1.72,2.65,3,4.8,2.35,2.88-.82,5.74-4.45,7.84-6.4s3.75-4.75,6.15-6.58c5.81-4.45,14.07,2.8,17.68,7.09s13.74,22.89,17.81,27c8.36,8.44-5.12,4,0,14.79,1.12,2.36,13.35,4,10.94,4a17.2,17.2,0,0,1-5.13-.61c1.27,2.28-.51,5.22-2.84,5.81l.69.83a3.41,3.41,0,0,1-.24,4.7c.7.87,1.41,1.74,2.11,2.62a3.27,3.27,0,0,1,.7,2.75c2.25,1,4.32,1.78,5.74,2.32,2.56,2.28,16.66-18.15,18.39-20a5.19,5.19,0,0,1,2.29-1.68,4.35,4.35,0,0,1,3.25.76c4.68,2.85,6.81,8.1,10.3,12.07,1.65,1.88,3.45,3.75,5.93,4.48,2.75.82,5.62-.61,8.13,1.48s2.75,6.25,5.7,7.45l-3.92,6c2.3,1.73,4.84.17,7.35.75,5,1.15,7.72,6.57,12.46,8.43,7.87,3.09,8.84-2.32,10.39-7.94C476.63,639.56,511.9,652.18,518.54,656Z"/><path d="M302.39,538.64c.32-.15.66-.28,1-.4s.6-.22.81-.1.09,0,0,.13-.19.13-.25.18a1.73,1.73,0,0,0-.24.23c-.29.32-.55.68-.84,1s-.31.4-.5.58c-1.13,1.09-2.67,1.85-3.67,3.06a7.17,7.17,0,0,0-1.26,4.23c-.49-.16-2.1-.63-2.13-1.2-.05-.81,1.34-2.43,1.62-3.23a6.51,6.51,0,0,1,2.93-3.44C300.69,539.27,301.58,539,302.39,538.64Z"/><path d="M361.15,487.21c-2.45.48-5,1.43-7.47,1.6-7.87.55-13.9-6.72-21.26-9.59-6.05-2.36-13-1.61-19,.89s-11.18,6.6-16,11c-4.45,4.06-8.7,8.47-11.47,13.82-1.86,3.59-5.69,14.87-1.31,18s13.08-1.62,18.35,1c2.67,1.34,4.69,3.91,7.55,4.75a24.81,24.81,0,0,0,4.47.53c2.71.29,5.32,1.27,8,1.37s5.79-1,6.79-3.52a11.31,11.31,0,0,1-3.55-4.56c-.62-1.85.6-2.17,2.29-3.13,2.33-1.33,4.47-1.43,6,.78s2.63,4.93,5,6.15c2.57,1.32,5.67.42,8.41-.51L362.12,521c-.05-3-4.16-4.77-4-7.75.09-2.25,2.48-3.55,4.36-4.79a18.42,18.42,0,0,0,7.46-10c1.15-3.83.58-8.75-2.92-10.68A8.4,8.4,0,0,0,361.15,487.21Z"/><path d="M284.88,523.73l.26-.89a1.17,1.17,0,0,1-.2-.06A2.53,2.53,0,0,0,284.88,523.73Z"/><path class="cls-1" d="M328.52,529.83c-5.26-.48-4.71-8.9-1.47-11.21a6.54,6.54,0,0,1,8.74,1.41c2,2.74,1.57,6.66,3.39,9.51,1,1.51,2.55,2.73,2.8,4.5s-2.49,3.46-3.22,1.83"/><path d="M353.09,497.08a7.1,7.1,0,0,0-.19-3.39,12,12,0,0,1,.06-4,6.14,6.14,0,0,1,2-4,6.74,6.74,0,0,1,3.76-1.42,6.44,6.44,0,0,1,3.57.56c1.06.74,1.86,2.71,2.59,3.76a6.75,6.75,0,0,1,.76,4.5,6.06,6.06,0,0,1-1.91,4.26,19.62,19.62,0,0,1-10,3.52c-1.74.19-3.68-1.2-4.89-2.39s-2.83-3.5-3.07-5.22c-.45-3.3,3-5.61,5.64-6.6,1.6-.59,3.26-1,4.82-.06a9.63,9.63,0,0,1,2.93,3.28,18,18,0,0,1,2.49,4.36,6.66,6.66,0,0,1,.64,2.55,19.64,19.64,0,0,0-.09,3,8.43,8.43,0,0,1-.44,3.29,3.23,3.23,0,0,1-1.62,1.94,10.26,10.26,0,0,1-2.73,1.31c-.61.2-1.27.16-1.89.3-1.08.26-1.11.22-1.85-.77"/><path d="M352.16,496.7c-1.23-.76-1.48-2-1.65-3.33a6,6,0,0,0-.25-1.36,1.83,1.83,0,0,1,.3-1.9c1-1.53,3.08-2.24,4.68-2.88a6.24,6.24,0,0,1,2.1-.6c.68,0,1.35.2,2,.17a4.26,4.26,0,0,1,1.13-.12c.42.08.77.34,1.21.4a2.46,2.46,0,0,1,1.13.25,8.92,8.92,0,0,1,1,.73,4.93,4.93,0,0,1,1.59,1.59,13,13,0,0,1,.84,2.2,5.3,5.3,0,0,1,.14,1c.05.44.25.83.3,1.26a6.26,6.26,0,0,1-1,3.35c-1,2-3.23,3.32-5.08,4.44a11.53,11.53,0,0,1-4.77,1.59c-.95.06-1.87,0-2.82,0a10.23,10.23,0,0,1-2.59-.21,8.89,8.89,0,0,1-2.59-1.26,18.68,18.68,0,0,1-2.46-1.86,6.18,6.18,0,0,1-1.44-2.63,7.82,7.82,0,0,0-.28-1.58,5.61,5.61,0,0,1-.57-1.56,6.62,6.62,0,0,1,1.41-5.48,20.93,20.93,0,0,1,3.08-3c.75-.54,1.54-1,2.3-1.54a5.89,5.89,0,0,1,2.77-1,4.09,4.09,0,0,1,1.74,0,5.1,5.1,0,0,1,1.61.42c1.34.91,1.77,2.43,2.87,3.49a5.34,5.34,0,0,1,.67.6c.3.37.54.81.8,1.2a10.27,10.27,0,0,1,1.2,2,6.55,6.55,0,0,1,.53,2.58,3.57,3.57,0,0,1-1.19,2.73,9.93,9.93,0,0,1-2.75,2.45,12.78,12.78,0,0,1-4.71,1.37,9.86,9.86,0,0,1-5-.41,10.63,10.63,0,0,1-2.38-1.07,11.91,11.91,0,0,1-1.59-1.73c-1.07-1.28-1.1-3.14-1.26-4.7,0-.31-.25-1.05-.11-1.34s.55-.41.75-.54"/><path d="M357.63,509.9c-1.22-.76-1.47-2-1.64-3.33a6.62,6.62,0,0,0-.25-1.36,1.83,1.83,0,0,1,.3-1.9c1-1.53,3.08-2.23,4.68-2.88a6.17,6.17,0,0,1,2.1-.6c.68,0,1.35.2,2,.17a4.26,4.26,0,0,1,1.13-.12c.42.08.77.34,1.21.4a2.46,2.46,0,0,1,1.13.25,7.18,7.18,0,0,1,1,.74,4.83,4.83,0,0,1,1.6,1.58,13.3,13.3,0,0,1,.84,2.2,6.16,6.16,0,0,1,.14,1.05c0,.44.25.83.3,1.26a6.16,6.16,0,0,1-1,3.35c-1,2-3.22,3.32-5.07,4.44a11.52,11.52,0,0,1-4.78,1.59c-.94.06-1.86,0-2.81,0a10.19,10.19,0,0,1-2.59-.21,8.42,8.42,0,0,1-2.59-1.26,17.84,17.84,0,0,1-2.46-1.86,6.18,6.18,0,0,1-1.44-2.63,7.94,7.94,0,0,0-.28-1.58,5.61,5.61,0,0,1-.57-1.56,6.62,6.62,0,0,1,1.41-5.48,21.44,21.44,0,0,1,3.08-3c.75-.54,1.54-1,2.3-1.54a6,6,0,0,1,2.77-1,4,4,0,0,1,1.73,0,4.85,4.85,0,0,1,1.62.43c1.34.9,1.77,2.42,2.87,3.49a4.57,4.57,0,0,1,.67.59c.29.38.53.81.8,1.2a10.57,10.57,0,0,1,1.2,2,6.93,6.93,0,0,1,.53,2.59,3.6,3.6,0,0,1-1.19,2.72,9.68,9.68,0,0,1-2.76,2.45,12.88,12.88,0,0,1-4.71,1.38,10,10,0,0,1-5-.42,10.63,10.63,0,0,1-2.38-1.07,11.91,11.91,0,0,1-1.59-1.73c-1.08-1.28-1.1-3.13-1.27-4.7a3.83,3.83,0,0,1-.11-1.34c.11-.23.56-.4.75-.54"/><path class="cls-2" d="M553.53,664.67c-1.23-1.47-2.35-2.8-3.21-3.9a64,64,0,0,0-10.1-10.3c-24.71-19.49-59.82-17-77.91-44.13-2.46-3.69-4.56-9.1-8.7-10.59-1.94-.69-4-.32-6,0-22.9,3.62-45,5.19-66.73-3.68a1.16,1.16,0,0,0-1.59,1.24c1.46,9.68-1.51,13.93.8,26.6-2,10.7,8.91,20.66,17.28,27.14a54.58,54.58,0,0,0,13.14,7.37c10.11,4.08,12.2,10.39,18.27,16.8,5,5.29,12.61,5.91,18.58,9.68a48.5,48.5,0,0,1,17,18.29c3,5.71,4.87,12,8.32,17.47,2.56,4,6.44,7.84,7.66,12.58,1.29,5-.83,9.78,3.42,14,2,1.94,18.37,6.65,21,6.33.76-4.31-16-11-17.53-15-2-5.18,8.72-10.71,7.86-16.35-2.28-15-8.29-30.26,2.3-39.23,11-9.35,26.1-12.63,39.61-10.83,4.76.64,10.08,8,13.16,11.12,4.41,4.5,8.74,10,13.7,13.86C560.87,683.42,558.17,673.71,553.53,664.67Z"/><path class="cls-3" d="M566.85,700a34.11,34.11,0,0,0-4.8-15.5c-.17-.44-.31-.88-.5-1.32-6.06-13.95-21.08-26.79-35.81-27.51-1.61-.08-5.6.23-7.2.38-10,1-19.22,4.46-25.62,12.49-4.25,5.31-11.88,17-18.22,29.06-13,8.05-25.55,16.83-36.65,27.42S418.52,748,409.68,760.26c-.54.75-1.1,1.48-1.69,2.19-4.7,7.92-10.53,14.89-16.11,22.55-3.18,4.36-5.89,9-6.84,14.4a31.88,31.88,0,0,0,.17,11c2.88,1.82,2.87,8.47,4.36,11.49,5.62,11.39,17.22,20.34,24.28,31.16l5.68,8.71c2.79,2.91,5.54,5.75,7.77,8.61,7.46,9.56,17.25,18.18,21.21,29.93,2.84,4.55,5.51,9.24,8.18,14.06.94,6,5.08,13.87,3,14.65-.35.13-2,1.12-2.36,1.21-3.79,1-7.25,3.64-11,4.95-3.23,1.13-6.56,1.4-9.81,2.42-6.4,2-12.76,5.27-19.54,4.78a1.64,1.64,0,0,0-1.16.19,2.54,2.54,0,0,0-.79,2.28,3.66,3.66,0,0,0,.57,1.73c.17.25.41.45.57.7s.14.42.25.6a8.88,8.88,0,0,0,3.06,2.79,15.51,15.51,0,0,0,5.26,2.17,19.35,19.35,0,0,0,2,.54c.48,0,.91-.05,1.38,0,1.5.19,3.06-.24,4.57-.25.72,0,1.42-.15,2.15-.17a13.5,13.5,0,0,1,2-.05c.58.07,1.15.21,1.72.28,1.13.14,2.25.14,3.38.32,3.15.52,6.45-.28,9.67.07a73.08,73.08,0,0,0,11.93.53c6.81-.38,13.49-2.63,20.35-2.19,2.54.17,6.22,1.47,9.67,2,5.6-1.37,8.26-7.57,9.13-13.51.08-1.57.14-3.15.19-4.73-4.39-6.94-8.35-14.15-12.46-21.27a118.2,118.2,0,0,1-12.65-16.2c-.41-.94-.85-1.93-1.38-3-1.55-3.16-4.09-5.9-5.43-9.14-1.82-4.38-2.63-9.46-4-14-5.32-17.33-12.42-33.17-20.5-49.36a91.67,91.67,0,0,0-9.63-14.93c16.42-9.39,33.8-17.24,50.24-26.6q19.54-11.13,38.49-23.28c10.83-7,23.34-13.39,31.08-24C564,723.72,567.73,711.4,566.85,700Z"/><path class="cls-4" d="M390.2,520.26c-1.45.19-1.36-1-2,0a7.67,7.67,0,0,0-.21,2.92c.46-.23.92-.45,1.38-.65a27.21,27.21,0,0,1,7.2-2.09A20.52,20.52,0,0,0,390.2,520.26Z"/><path class="cls-4" d="M453.83,595.21a.5.5,0,0,1,.55,0,7.51,7.51,0,0,1,2.07,2.33,10.6,10.6,0,0,1,1.8,2.16,4,4,0,0,0,0-2.15q-3.13-13.12-6-26.39c-.05-.22-.1-.43-.14-.65a64.61,64.61,0,0,1-5.07-5.27c.52,2.19,1,4.4,1.48,6.58Q451.06,583.59,453.83,595.21Z"/><path class="cls-1" d="M426.09,573c1.49-19.93,2.84-68,11.66-84.41a26.14,26.14,0,0,0,3.43-14.27c.84-3.8,1.5-7.39,2.11-10.18,4.27-19.57,5.72-33.08,6.22-53a40.49,40.49,0,0,0-.15-4.15,31,31,0,0,1,.43-3.57,54.28,54.28,0,0,1,1.52-5.3,33.06,33.06,0,0,1,1.2-3.38c.49-1.08,1.05-2.11,1.49-3.21.05-.13.11-.25.17-.38a4.84,4.84,0,0,0,1.56-.61,6.39,6.39,0,0,0,.88-.77c.17-.17.37-.3.55-.46s.27-.33.43-.48a11.91,11.91,0,0,0,.94-.94,3,3,0,0,1,.73-.53,4.57,4.57,0,0,0,1.61-1.77c.31-.68.53-1.4.82-2.08.21-.49.48-1,.65-1.47s.31-.88.47-1.31a11.64,11.64,0,0,0,.39-1.65,16,16,0,0,1,1.42-3.68,6.51,6.51,0,0,1,1-1.46,6.64,6.64,0,0,0,.94-1.52c.23-.46.54-.88.77-1.35s.51-.75.75-1.15a4.45,4.45,0,0,0,.66-1.37A5.74,5.74,0,0,0,469,367a5.67,5.67,0,0,0-.83-2c-.06-.12-.07-.25-.12-.37a1.12,1.12,0,0,0-.38-.4,3.08,3.08,0,0,0-.6-.42,3.41,3.41,0,0,0-1.41-.21,3,3,0,0,0-.66.14c-.13,0-.28.06-.42.1s-.23.18-.39.11a1.92,1.92,0,0,1,0-.54c0-.17,0-.36,0-.53,0-1.56,0-3.13,0-4.7,0-1,.25-2,.33-3a16.49,16.49,0,0,1,.32-2.22,3.68,3.68,0,0,0,.2-1.13c0-.34,0-.66,0-1a10.45,10.45,0,0,1,0-1.77,15.56,15.56,0,0,1,.17-1.66c.14-.59.18-1.18.3-1.77a18.36,18.36,0,0,0,.22-2c.05-.64.15-1.25.17-1.89,0-.24.06-.46.06-.7s0-.68,0-1c0-.94-.16-1.89-.15-2.83a9,9,0,0,0-.2-2.73,1,1,0,0,0-.54-.61,1.06,1.06,0,0,1-.47-.29c-.21-.21-.45-.55-.76-.56a.67.67,0,0,0-.47.19s.05-.05.06-.08c.11-.44.08-.88.19-1.32a1.21,1.21,0,0,0-.14-1.09,1.12,1.12,0,0,0-.84-.56,1.2,1.2,0,0,0-1.06.38,4.66,4.66,0,0,0-.93,2.09,10.56,10.56,0,0,0-.48,2.59,7,7,0,0,1-.08,1.13c-.05-.43-.1-.79-.64-.93-.22,0-.46-.14-.66,0a3.37,3.37,0,0,0-.32.33,1.18,1.18,0,0,0-.24.37l-.19.55a4.18,4.18,0,0,0-.21.93,2,2,0,0,1,0,.54c-.1.43-.2.87-.29,1.3-.2.89-.39,1.77-.59,2.65-.16.71-.31,1.42-.47,2.13-.12.52-.26,1.05-.35,1.58-.05.28,0,.56-.09.85a4.13,4.13,0,0,0-.14.7,8.49,8.49,0,0,1-.31,1.73,16.81,16.81,0,0,0-.25,2,7.23,7.23,0,0,0-.15.81,3.17,3.17,0,0,1-.05.53,2.36,2.36,0,0,0,0,.46,5.79,5.79,0,0,1-.12.6c-.05.43-.06.86-.08,1.28,0,.2-.11.41-.14.61a3.93,3.93,0,0,0,0,.49c0,.34-.17.67-.2,1a4.17,4.17,0,0,1-.08.71c-.11.47-.21.93-.31,1.39-.06.3-.13.59-.2.88s0,.48-.06.73c-.11.65-.2,1.3-.33,2s-.28,1.3-.43,2a8.16,8.16,0,0,1-.25.94,6.91,6.91,0,0,1-.68,1.29c-.19.3-.38.6-.56.91s-.3.62-.45.94c-.33.71-.61,1.44-.9,2.17a17.29,17.29,0,0,1-.91,2.18,10,10,0,0,1-1.46,2.12c-.59.59-1.15,1.21-1.79,1.76s-.88.91-1.35,1.35l0,.05c0,.45-.06.9-.09,1.34-.49.84-.92,1.72-1.4,2.56a20.25,20.25,0,0,0-1.14,2.16c-.35.87-.59,1.76-1,2.63-.3.67-.48,1.37-.75,2-6.76,16.92-12.89,32.75-17,50.53-2.08,9-4.51,17.65-7,26.28-4.36,4.31-14,20.75-17.63,25.81-7.51,10.41-13,23.6-20.36,34.4-.94,1.86-2,3.73-2.95,5.75"/><path class="cls-5" d="M462.88,333.82s0,.06-.05.09,0,0,0,0S462.87,333.84,462.88,333.82Z"/><path class="cls-5" d="M462.62,335.24a3.16,3.16,0,0,1-.2.45l.21-.94c0-.14.05-.32.09-.49,0,.09,0,.19-.06.32S462.65,335,462.62,335.24Z"/><path class="cls-5" d="M464.3,363.91a2.13,2.13,0,0,1-.51.61c-.38.37-.72.78-1.09,1.16a8.24,8.24,0,0,0-.75.91c-.28.36-.55.71-.79,1.09s-.34.57-.49.86a6.32,6.32,0,0,0-.32.86c-.22.64-.41,1.29-.61,1.94a4.26,4.26,0,0,1-.67,1.43c-.43.57-.93,1.07-1.35,1.65-.28.38-.5.77-.75,1.17a8.28,8.28,0,0,0-.45.83c-.16.33-.36.66-.51,1-.08.17-.21.34-.27.51s-.06.25-.1.36a2.54,2.54,0,0,0-.12.43,4.18,4.18,0,0,1-.22.86c0,.11-.06.46-.21.45"/><path class="cls-5" d="M466.64,369.19c.06-.1.13-.2.19-.31l1.08-1.79a2.9,2.9,0,0,0,.6-2.07,2.44,2.44,0,0,0-1.31-1.39,1.72,1.72,0,0,0-1.15-.27,1.81,1.81,0,0,0-.9.65,12.27,12.27,0,0,0-2.11,3.45,1.51,1.51,0,0,0-.11,1.19,1.48,1.48,0,0,0,.37.49,3.2,3.2,0,0,0,1.38.82,1.79,1.79,0,0,0,1.54-.29A2.16,2.16,0,0,0,466.64,369.19Z"/><path class="cls-5" d="M460.71,350.42a1.42,1.42,0,0,1-.35-.11c-.15-.09-.27-.2-.41-.3a3.88,3.88,0,0,0-.36-.15,1.64,1.64,0,0,0-.38-.1"/><path class="cls-5" d="M461.25,339.56a57.94,57.94,0,0,0-1.3,5.84l-.15.71c-.59,2.65-1.17,5.25-1.65,7.92a2.66,2.66,0,0,0-.09.63c0,.26-.17.55-.18.81-.06,1-.21,1.93-.27,2.94a4.16,4.16,0,0,1-.39,1.73c-.68.92-1.41,1.77-2.05,2.75a1.87,1.87,0,0,1-.78.92"/><path class="cls-5" d="M464.2,333.19c2.11,1.11.87,3.5.56,4.27-.53,1.31-1.08,2.31-2.39,2.26a6.51,6.51,0,0,1-1,.15"/><path class="cls-5" d="M460.26,334.92a3.56,3.56,0,0,0,1,.05c.18-.1.38-.16.56-.26a2.19,2.19,0,0,0,.71-.6,3.66,3.66,0,0,0,.42-1.52,3.06,3.06,0,0,0,.18-.89l-.09-.25a1.64,1.64,0,0,1,0-.22,2.17,2.17,0,0,0-.19-.54,2,2,0,0,0-.58-.87c-.23-.18-.87-.2-1.39,1.09Z"/><path class="cls-5" d="M457.18,340.13a3.51,3.51,0,0,0,1,.05c.18-.1.39-.16.56-.26a2.09,2.09,0,0,0,.71-.6,3.83,3.83,0,0,0,.43-1.52,3,3,0,0,0,.18-.88c0-.09-.07-.17-.1-.25s0-.16,0-.23a2.17,2.17,0,0,0-.19-.54,1.94,1.94,0,0,0-.58-.87c-.23-.18-.87-.2-1.39,1.09Z"/><path class="cls-4" d="M377.63,583.38c-2.31-5-5.56-9.61-7.64-14.92-3.45-8.82-4.05-19.35.14-28,1.54-3.18,4-5.49,6.39-7.85A23.17,23.17,0,0,0,372,532a8.54,8.54,0,0,1-.9-.1,24.08,24.08,0,0,0-3.41,4.16,33.35,33.35,0,0,0-4.53,14.34c-.75,7.71-2.09,13.85,1.63,20.76,4.16,7.76,7.05,13.43,11.93,19.67.37.47,2,2.88,2.59,3,.19-1.86,1-1.86,2.65-1.31C381.43,590.43,378.54,585.37,377.63,583.38Z"/><path d="M180,222.9V230h6.9V222.9H190v17.26h-3.11v-7.34H180v7.34H176.9V222.9Z"/><path d="M204.32,236.61a5.76,5.76,0,0,1-5.57,3.7c-4.34,0-6.26-2.71-6.26-6.76s2.71-6.53,6.43-6.43c3,.07,5.75,2.34,5.45,6.46l-.05.39h-8.73c0,2.2.94,3.7,3.18,3.7a2.87,2.87,0,0,0,2.79-2Zm-3.13-4.21c.05-2-1-2.94-2.54-2.89a2.88,2.88,0,0,0-2.91,2.89Z"/><path d="M207.26,228.06a15.36,15.36,0,0,1,4.88-.94c3.9,0,5.33,1.92,5.33,4.93v5.23a.65.65,0,0,0,.61.74,2.48,2.48,0,0,0,1-.15v2a5.09,5.09,0,0,1-2,.39,2.33,2.33,0,0,1-2.34-1.75,5.67,5.67,0,0,1-3.9,1.75c-2.52,0-4.39-1.28-4.41-4s2-4.09,5.25-4.09a22,22,0,0,1,2.79.24v-.76c0-1.41-.89-2.17-2.67-2.15a10.39,10.39,0,0,0-4,.79Zm7.15,6a13,13,0,0,0-2.51-.15c-1.48.07-2.42.76-2.45,2.07a1.82,1.82,0,0,0,2.1,1.9,5.06,5.06,0,0,0,2.86-1Z"/><path d="M233.3,221.32v18.84h-2.56l-.35-2.22a4.5,4.5,0,0,1-4.12,2.37c-3.47.05-5.54-2.83-5.54-6.63,0-4.64,3-6.56,5.52-6.56a4.09,4.09,0,0,1,4,2.44v-7.84Zm-9.42,12.33c0,2.2.87,3.92,3.16,3.92s3.25-1.72,3.25-3.89c0-2.94-1.57-4-3.28-4S223.88,230.82,223.88,233.65Z"/><path d="M244,227.24l.45,2.3a4.33,4.33,0,0,1,4-2.45,3.77,3.77,0,0,1,3.85,2.4,4.55,4.55,0,0,1,4.17-2.4c3,0,4.21,2,4.21,4.64v8.43h-3.06v-7.44c0-2-.46-3-2.14-3-2.22,0-2.81,1.68-2.81,3.58v6.9h-3.06v-7.44c0-2-.47-3-2.14-3-2.37,0-2.84,1.9-2.84,4v6.51h-3.06V227.24Z"/><path d="M266.7,227.24v7.45c0,2,.79,3,2.59,3,2.34,0,3.3-2.41,3.3-4.86v-5.62h3.06v12.92h-2.44l-.44-2.81a4.72,4.72,0,0,1-4.47,3c-3.15,0-4.66-1.95-4.66-5.2v-7.87Z"/><path d="M279.16,236.46a6.68,6.68,0,0,0,4.19,1.43c1.48,0,2.34-.44,2.34-1.5,0-2.51-7.47-.84-7.23-5.57.1-2.32,1.8-3.7,5.23-3.7a10.49,10.49,0,0,1,4.66,1.21l-1.08,2.17a7.25,7.25,0,0,0-3.7-1.06c-1.21,0-2.22.39-2.17,1.4.15,2,7.32.47,7.32,5.45,0,2.66-2.39,4.05-5.45,4a8.78,8.78,0,0,1-5.3-1.68Z"/><path d="M295.19,223.59v3.78h3.25l-.42,2.46h-2.83v5.92c0,1.41.64,1.95,1.67,1.95a5.72,5.72,0,0,0,1.95-.57l.57,2.34a7.94,7.94,0,0,1-3.28.84c-3,0-4-2-4-4.14v-6.34h-1.8v-2.46h1.95l.37-3.43Z"/><path d="M309.54,221.32v8.22a4.42,4.42,0,0,1,4.32-2.42c2.44.07,5.05,1.73,5.05,6.48,0,3.9-2,6.71-5.45,6.71a4.28,4.28,0,0,1-4.07-2.37l-.42,2.22h-2.49V221.72Zm-.12,12.36c0,2.22.81,4,3.25,4,2,0,3.11-1.5,3.11-4,0-3-1.5-3.95-3.13-3.95S309.42,231.09,309.42,233.68Z"/><path d="M333,236.61a5.78,5.78,0,0,1-5.58,3.7c-4.34,0-6.26-2.71-6.26-6.76s2.71-6.53,6.43-6.43c3,.07,5.75,2.34,5.45,6.46l0,.39h-8.73c0,2.2.93,3.7,3.18,3.7a2.87,2.87,0,0,0,2.78-2Zm-3.14-4.21c.05-2-1-2.94-2.54-2.89a2.89,2.89,0,0,0-2.91,2.89Z"/><path d="M176,261.16v12.92H173V263.7h-1.8v-2.54Zm-1.55-5a1.64,1.64,0,0,1,1.82,1.55,1.82,1.82,0,0,1-3.62,0A1.59,1.59,0,0,1,174.48,256.13Z"/><path d="M181.61,261.16l.47,2.29a4.78,4.78,0,0,1,4.41-2.42c3,0,4.49,2,4.49,4.61v8.44h-3.06v-7.45c0-2-.74-3-2.42-3-2.34,0-3.25,1.9-3.25,4v6.51h-3.06V261.16Z"/><path d="M197.15,255.24v14.62c0,1.38.61,1.75,1.52,1.75a2.38,2.38,0,0,0,1.29-.47l.56,2.2a5.32,5.32,0,0,1-2.78.88c-2.57,0-3.65-1.72-3.65-4.06V255.61Z"/><path d="M206,261.16v12.92h-3.08V263.7h-1.8v-2.54Zm-1.55-5a1.65,1.65,0,0,1,1.82,1.55,1.82,1.82,0,0,1-3.62,0A1.59,1.59,0,0,1,204.45,256.13Z"/><path d="M211.57,261.16l.47,2.29a4.8,4.8,0,0,1,4.42-2.42c3,0,4.48,2,4.48,4.61v8.44h-3.05v-7.45c0-2-.74-3-2.42-3-2.34,0-3.25,1.9-3.25,4v6.51h-3.06V261.16Z"/><path d="M235.4,270.53a5.75,5.75,0,0,1-5.57,3.69c-4.34,0-6.27-2.71-6.27-6.75s2.71-6.54,6.44-6.44c3,.08,5.74,2.35,5.45,6.46l0,.4h-8.73c0,2.19.94,3.7,3.18,3.7a2.89,2.89,0,0,0,2.79-2Zm-3.13-4.22c0-2-1-2.93-2.54-2.89a2.87,2.87,0,0,0-2.91,2.89Z"/><path d="M245.24,261.16l2.52,9H248l2.52-9h3.15l2.55,9h.17l2.56-9h3.18l-4.34,12.92h-3l-2.64-8.73h-.19l-2.55,8.73h-3l-4.24-12.92Z"/><path d="M268.08,261.16v12.92H265V263.7h-1.8v-2.54Zm-1.55-5a1.65,1.65,0,0,1,1.82,1.55,1.82,1.82,0,0,1-3.62,0A1.59,1.59,0,0,1,266.53,256.13Z"/><path d="M275.21,257.51v3.77h3.25l-.42,2.46h-2.83v5.92c0,1.41.64,1.95,1.67,1.95a5.5,5.5,0,0,0,1.95-.57l.57,2.35a8.15,8.15,0,0,1-3.28.83c-3,0-4-2-4-4.14v-6.34h-1.8v-2.46h1.95l.37-3.43Z"/><path d="M284.41,255.24v8a4.81,4.81,0,0,1,4.24-2.2c3,0,4.49,2,4.49,4.61v8.44h-3.06v-7.45c0-2-.74-3-2.42-3-2.34,0-3.25,1.9-3.25,4v6.51h-3.06V255.61Z"/><path d="M305.32,257.51v3.77h3.26l-.42,2.46h-2.84v5.92c0,1.41.64,1.95,1.68,1.95A5.5,5.5,0,0,0,309,271l.56,2.35a8.15,8.15,0,0,1-3.28.83c-3,0-4-2-4-4.14v-6.34h-1.8v-2.46h2l.37-3.43Z"/><path d="M314.52,255.24v8a4.83,4.83,0,0,1,4.24-2.2c3,0,4.49,2,4.49,4.61v8.44h-3.06v-7.45c0-2-.74-3-2.41-3-2.35,0-3.26,1.9-3.26,4v6.51h-3.06V255.61Z"/><path d="M337.66,270.53a5.77,5.77,0,0,1-5.58,3.69c-4.34,0-6.26-2.71-6.26-6.75s2.71-6.54,6.43-6.44c3,.08,5.75,2.35,5.45,6.46l0,.4h-8.73c0,2.19.93,3.7,3.18,3.7a2.87,2.87,0,0,0,2.78-2Zm-3.14-4.22c.05-2-1-2.93-2.54-2.89a2.89,2.89,0,0,0-2.91,2.89Z"/><path d="M229.89,289.15v8.21A4.39,4.39,0,0,1,234.2,295c2.44.07,5.06,1.72,5.06,6.48,0,3.9-1.95,6.71-5.45,6.71a4.27,4.27,0,0,1-4.07-2.37l-.42,2.22h-2.49V289.55Zm-.13,12.36c0,2.21.82,4,3.26,4,2,0,3.11-1.5,3.11-4,0-3-1.51-3.95-3.13-3.95C231.22,297.51,229.76,298.92,229.76,301.51Z"/><path d="M247.77,295c3.23,0,6,2.19,6,6.6,0,3.63-2.14,6.59-6.16,6.59-4.37,0-6.17-3-6.17-6.59C241.48,297.14,244.27,295,247.77,295Zm-3.08,6.6c0,2.05.69,4,3,4,2.09,0,3-1.95,3-4,0-2.86-1.41-4-3-4C246.07,297.54,244.69,298.65,244.69,301.55Z"/><path d="M268.61,289.15V308H266l-.34-2.22a4.53,4.53,0,0,1-4.12,2.37c-3.48.05-5.55-2.84-5.55-6.63,0-4.64,3-6.56,5.53-6.56a4.11,4.11,0,0,1,4,2.44v-7.84Zm-9.42,12.33c0,2.2.86,3.92,3.16,3.92s3.25-1.72,3.25-3.89c0-2.94-1.58-4-3.28-4S259.19,298.65,259.19,301.48Z"/><path d="M273.94,295.07l3.18,9.12h.2l2.91-9.12h3.15l-4.78,13.12c-1.58,4.31-3.06,5.4-7.62,4.44l.54-2.59c2.91.71,3.31,0,4.22-2.49l-4.86-12.48Z"/><text class="cls-6" transform="translate(592.47 429.59)">S<tspan class="cls-7" x="14.95" y="0">t</tspan><tspan class="cls-8" x="24.89" y="0">r</tspan><tspan x="34.83" y="0">aight </tspan><tspan x="12.55" y="33.91">elb</tspan><tspan class="cls-9" x="49.65" y="33.91">o</tspan><tspan class="cls-8" x="63.61" y="33.91">w</tspan><tspan x="83.91" y="33.91">s</tspan></text><text class="cls-6" transform="translate(284.85 870.06)"><tspan class="cls-10">F</tspan><tspan x="12.43" y="0">eet </tspan><tspan class="cls-9" x="0" y="33.91">t</tspan><tspan x="9.5" y="33.91">ogether </tspan></text><path d="M354.2,863.54A47.45,47.45,0,0,1,378.66,861c8.43,1.45,16,5.32,23.21,9.86,1.64,1,3.14-1.55,1.52-2.59-7.5-4.75-15.55-8.81-24.38-10.24a50.45,50.45,0,0,0-25.61,2.64c-1.79.66-1,3.56.8,2.89Z"/><path d="M394.2,874.11c3.74-.64,7.41-1.65,11.09-2.57a1.52,1.52,0,0,0,.9-2.21c-.91-1.69-1.74-3.42-2.63-5.13s-1.7-3.12-2.52-4.71a1.5,1.5,0,1,0-2.59,1.51c.82,1.59,1.7,3.14,2.52,4.72s1.72,3.44,2.63,5.13l.9-2.2c-3.69.92-7.35,1.92-11.1,2.57a1.5,1.5,0,1,0,.8,2.89Z"/><path d="M586.88,442.37c-9.62,5.72-19.3,11.39-29.1,16.81a59.28,59.28,0,0,1-5.47,2.87,1.51,1.51,0,0,0-.54,2.05,1.54,1.54,0,0,0,2.05.54c4.3-1.83,8.37-4.47,12.41-6.78q8.44-4.83,16.83-9.76c1.78-1,3.56-2.08,5.34-3.14a1.5,1.5,0,0,0-1.52-2.59Z"/><path d="M554.26,453.55c-1.67,3.57-3,7.27-4.38,10.94-.38,1,.58,1.8,1.45,1.9,1.87.22,3.73.52,5.59.76.94.12,1.87.23,2.81.31l.54.05.32,0h.06l1.3.18a1.54,1.54,0,0,0,1.84-1.05,1.5,1.5,0,0,0-1-1.84c-1.87-.26-3.75-.43-5.62-.67s-3.86-.57-5.8-.79l1.44,1.9c1.3-3.43,2.52-6.9,4.08-10.22a1.54,1.54,0,0,0-.54-2.05,1.51,1.51,0,0,0-2,.53Z"/><path d="M346.07,248.59a53.16,53.16,0,0,1,31.42,21.71,91.22,91.22,0,0,1,6.76,12.2c.85,1.8,3.53.23,2.68-1.57-3.31-7-7.24-13.84-12.59-19.53a54,54,0,0,0-16.28-11.83,62.37,62.37,0,0,0-11.17-4c-1.93-.49-2.76,2.5-.82,3Z"/><path d="M375.13,280.45c3.84,1.72,7.81,3.09,11.75,4.53,1,.38,1.88-.58,2-1.5.19-2.05.44-3.76.67-5.83.19-1.75.3-3.5.49-5.24a1.55,1.55,0,0,0-1.55-1.55,1.59,1.59,0,0,0-1.55,1.55c-.2,1.74-.31,3.49-.5,5.24-.21,1.94-.49,3.88-.67,5.83l2-1.49c-3.69-1.35-7.43-2.61-11-4.22a1.6,1.6,0,0,0-2.12.56,1.56,1.56,0,0,0,.56,2.12Z"/><text class="cls-11" transform="translate(123.84 75.39)">The s<tspan class="cls-12" x="73.14" y="0">t</tspan><tspan x="85.05" y="0">a</tspan><tspan class="cls-13" x="102.27" y="0">r</tspan><tspan x="115.68" y="0" xml:space="preserve">t position  is a</tspan><tspan class="cls-14" x="310.85" y="0">l</tspan><tspan x="319.34" y="0" xml:space="preserve">l about  pos</tspan><tspan class="cls-12" x="482.78" y="0">t</tspan><tspan x="494.69" y="0">u</tspan><tspan class="cls-15" x="512.93" y="0">r</tspan><tspan x="525.05" y="0">e</tspan></text><circle cx="79" cy="61.53" r="34.44"/><text class="cls-16" transform="translate(67.45 75.26)">1</text></svg>