<svg id="Layer_1" data-name="Layer 1" xmlns="http://www.w3.org/2000/svg" viewBox="0 0 780 1051.14"><defs><style>.cls-1{fill:#fff171;stroke-width:0.3px;}.cls-1,.cls-2,.cls-3,.cls-4,.cls-5,.cls-6,.cls-7{stroke:#fff;stroke-miterlimit:10;}.cls-2,.cls-3,.cls-5,.cls-6{fill:#d4a47c;}.cls-2{stroke-width:0.36px;}.cls-3{stroke-width:0.27px;}.cls-4{fill:#005058;stroke-width:0.47px;}.cls-5{stroke-width:0.31px;}.cls-6{stroke-width:0.42px;}.cls-7{fill:#c6946f;stroke-width:0.25px;}.cls-8{font-size:24.66px;}.cls-18,.cls-8{font-family:ABCSansBold, ABCSans;}.cls-9{letter-spacing:-0.01em;}.cls-10{letter-spacing:-0.03em;}.cls-11{letter-spacing:0.01em;}.cls-12{letter-spacing:-0.02em;}.cls-13{letter-spacing:-0.01em;}.cls-14{letter-spacing:-0.02em;}.cls-15{letter-spacing:-0.02em;}.cls-16,.cls-17{fill:#fff;}.cls-16{opacity:0.7;}.cls-17{font-size:38.5px;font-family:ABCSerifBold, ABCSerif;}.cls-18{font-size:30px;}.cls-19{letter-spacing:-0.01em;}.cls-20{letter-spacing:-0.02em;}.cls-21{letter-spacing:-0.01em;}.cls-22{letter-spacing:0em;}</style></defs><path class="cls-1" d="M398.33,403.47l-.05,0a82.22,82.22,0,0,0-14.71-9.55c-2.41-1.27-4.81-2.69-7.54-3.13-10.22-1.66-20,3-27.65,9.33-2.51,2.08-5.06,4.49-6.47,7.48-.61,1.3-2.09,7.09,1.22,7.13.43,0,2.86-5.47,3.63-6.38,5.53-6.53,12.73-12.74,21.68-13.3,2.66-.17,5.54-.63,8.13.17a36.81,36.81,0,0,1,6.75,3.33c2.35,1.32,4.59,2.83,6.92,4.18a46.6,46.6,0,0,1,6.62,5c1.21,1,2.4,2.08,3.62,3.1C399.65,408.36,399,405.86,398.33,403.47Z"/><path class="cls-2" d="M400.57,212.35a33.58,33.58,0,0,1-5.64-3.36c-.13,1.5-.24,3-.35,4.45C396.54,213,398.55,212.65,400.57,212.35Z"/><path class="cls-3" d="M396.74,342.31l8-24.21c.69-1.13-11.93-8.73-11.27-9.88s-2.75-5.42-1.35-5.6,1.55,1.57,2,2.59c.35.84,1,1.41,1.46,2.22a7.46,7.46,0,0,0,.87,1.77,6.15,6.15,0,0,0,4,2.09c1.77,0,3.07-1.49,4.76-1.7a5.68,5.68,0,0,1,2.13.34,2.63,2.63,0,0,1,.19-1.65c1.59-3.56,5.08-5.4,7.64-8.16a19.11,19.11,0,0,0-2.41-2.43,28.66,28.66,0,0,1-3.69-3.94c-1-1.28-2.24-2.1-2.34-3.7-.08-1.24.58-2.38.49-3.6a20.52,20.52,0,0,1-.33-2.48,30.17,30.17,0,0,1,.63-3.9c.48-2.89.69-5.88,1-8.79a24.29,24.29,0,0,0-.53-9.38,19.51,19.51,0,0,0-4.85-8.2,43.5,43.5,0,0,0-5.47-5,74.23,74.23,0,0,0-9.26-5.6c-3.62-1.85-8.34-2.62-12.35-2.83-3-.16-5.81-.76-8.84-.58a25.16,25.16,0,0,0-8.71,2.49c-2.38,1.07-4.76,1.25-7.24,1.65-1.26.2-2.35.94-3.65,1.2a27.38,27.38,0,0,0-4.56,1.13c-2.83,1.09-4,3.4-5.37,5.87-.92,1.64-1.22,3.46-2.17,5.1a14.38,14.38,0,0,0-1.08,2.52c-.33,1-.9,1.76-1.23,2.74-.16.48-.1.92-.25,1.42s-.55.69-.61,1.22a19.13,19.13,0,0,0,.44,3.14,27,27,0,0,1,.22,3.69c0,.19,0,.31,0,.39s-.19.09-.41.35a12.17,12.17,0,0,1-2.15,1.83c-1.9,1.5-2.31,1.28-4.3,3.2a28.16,28.16,0,0,0-3.41,3.9,3.41,3.41,0,0,0,1.35,5.11,1.84,1.84,0,0,1,.92.87,4.81,4.81,0,0,1,.83,3.38,11.9,11.9,0,0,0-.68,8.43c.31,1.5,1,2.15.33,3.5-.49,1-1,1.94-1.57,2.88-1,1.79-1.41,3.73.13,5.35,2.06,2.17,20.09,4.37,22.8,5.33,9.32,3.33,4.93,5.36,14.32,8.39a27.87,27.87,0,0,1,15.46,11.44"/><path d="M343.65,266.36c.29.21.55.46.82.7s.47.44.46.67,0,.1-.09.1-.21-.11-.28-.14a1.6,1.6,0,0,0-.31-.1c-.42-.12-.86-.18-1.29-.28a7.22,7.22,0,0,1-.74-.18c-1.49-.5-2.88-1.51-4.41-1.83a7.1,7.1,0,0,0-4.33.83c-.09-.5-.42-2.15.07-2.44.7-.42,2.78.06,3.61-.06a6.55,6.55,0,0,1,4.41,1C342.31,265.15,342.93,265.82,343.65,266.36Z"/><path d="M416.43,294.67c-1.55-1.95-3.58-3.77-4.87-5.88-4.14-6.73-.48-15.44-1.34-23.29-.7-6.45-4.58-12.26-9.57-16.43s-11-6.86-17.12-9.09c-5.65-2.07-11.54-3.8-17.56-3.78-4.05,0-15.81,1.83-16.53,7.15s7.48,10.85,7.57,16.74c0,3-1.3,6-.72,8.9a24.44,24.44,0,0,0,1.6,4.21c1,2.53,1.33,5.3,2.5,7.76s3.56,4.67,6.26,4.38a11.21,11.21,0,0,1,2.41-5.25c1.35-1.41,2.19-.47,3.83.58,2.25,1.45,3.33,3.3,2.07,5.67s-3.15,4.6-3.13,7.28c0,2.89,2.25,5.22,4.34,7.22,3.59,3.44,11.87,6.76,15.46,10.2,2.61-1.43,2.07-.57,4.77-1.84,2-1-.17-4.66,1.8-3.57a18.41,18.41,0,0,0,12.32,2c3.93-.75,8-3.53,8.12-7.53A8.38,8.38,0,0,0,416.43,294.67Z"/><path d="M348.77,243.94l.91-.18c0-.07,0-.14,0-.21A2.84,2.84,0,0,0,348.77,243.94Z"/><path class="cls-3" d="M363.55,285.45c-2-4.88,5.71-8.29,9.26-6.48a6.54,6.54,0,0,1,2.79,8.4c-1.5,3-5.18,4.46-6.86,7.4-.89,1.55-1.24,3.53-2.7,4.57s-4.22-.61-3.11-2"/><path d="M404,292.09a7.21,7.21,0,0,0,2.92-1.73,11.74,11.74,0,0,1,3.55-1.79,6.08,6.08,0,0,1,4.48-.05,6.61,6.61,0,0,1,3,2.68,6.42,6.42,0,0,1,1.17,3.42c-.17,1.29-1.54,2.9-2.14,4a6.72,6.72,0,0,1-3.64,2.76,6,6,0,0,1-4.66.28,19.7,19.7,0,0,1-7.74-7.22c-1-1.45-.63-3.82-.14-5.44s1.79-4.13,3.21-5.14c2.72-1.93,6.36.05,8.46,1.95,1.26,1.14,2.42,2.41,2.28,4.24a9.72,9.72,0,0,1-1.55,4.12,18.09,18.09,0,0,1-2.71,4.22,6.53,6.53,0,0,1-2,1.75,21.19,21.19,0,0,0-2.67,1.28,8,8,0,0,1-3.12,1.14,3.23,3.23,0,0,1-2.47-.54,10.41,10.41,0,0,1-2.42-1.81c-.46-.45-.73-1.06-1.15-1.54-.72-.84-.69-.88-.16-2"/><path d="M408.29,289.58c.1-1.44,1.11-2.25,2.19-3a6.28,6.28,0,0,0,1.09-.85,1.82,1.82,0,0,1,1.82-.62c1.83.19,3.41,1.7,4.72,2.82a6.3,6.3,0,0,1,1.51,1.58c.33.59.44,1.29.77,1.87.2.33.51.54.64.94s.05.84.2,1.26a2.43,2.43,0,0,1,.3,1.12,8.72,8.72,0,0,1-.19,1.23,4.8,4.8,0,0,1-.67,2.15,14.36,14.36,0,0,1-1.55,1.76,6.88,6.88,0,0,1-.88.61c-.36.24-.62.6-1,.85a6.22,6.22,0,0,1-3.43.65c-2.23.05-4.43-1.33-6.29-2.45a11.5,11.5,0,0,1-3.61-3.5,26.76,26.76,0,0,1-1.28-2.5,10,10,0,0,1-1-2.41,8.64,8.64,0,0,1-.08-2.87,18.21,18.21,0,0,1,.51-3,6,6,0,0,1,1.67-2.49,8.51,8.51,0,0,0,1.26-1,5.5,5.5,0,0,1,1.13-1.23,6.56,6.56,0,0,1,5.5-1.28,20.14,20.14,0,0,1,4.11,1.33c.82.42,1.62.89,2.43,1.33a5.81,5.81,0,0,1,2.15,2,4.28,4.28,0,0,1,.78,1.55,5.25,5.25,0,0,1,.36,1.63c-.18,1.61-1.33,2.69-1.76,4.15a5.66,5.66,0,0,1-.22.88c-.2.43-.47.84-.7,1.26a9.91,9.91,0,0,1-1.22,2,6.88,6.88,0,0,1-2.05,1.66,3.61,3.61,0,0,1-3,.21,10.06,10.06,0,0,1-3.45-1.31,13,13,0,0,1-3.4-3.54,10,10,0,0,1-1.93-4.6,10.82,10.82,0,0,1-.15-2.6,11.25,11.25,0,0,1,.8-2.21c.64-1.55,2.27-2.43,3.58-3.3.26-.17.81-.7,1.14-.71s.61.3.83.41"/><path d="M394.68,302.05c.11-1.44,1.12-2.24,2.2-3a6.61,6.61,0,0,0,1.08-.85,1.87,1.87,0,0,1,1.83-.62c1.82.19,3.41,1.7,4.71,2.82A6.12,6.12,0,0,1,406,302c.34.6.45,1.3.78,1.87.2.34.51.54.63.94s.06.84.21,1.26a2.43,2.43,0,0,1,.3,1.12,10.46,10.46,0,0,1-.19,1.23,5.06,5.06,0,0,1-.67,2.15,13.73,13.73,0,0,1-1.56,1.76,5.23,5.23,0,0,1-.87.61c-.36.24-.62.6-1,.85a6.25,6.25,0,0,1-3.43.65c-2.23.05-4.44-1.33-6.29-2.45a11.5,11.5,0,0,1-3.62-3.49c-.49-.82-.86-1.66-1.27-2.51a9.71,9.71,0,0,1-1-2.4,8.38,8.38,0,0,1-.08-2.87,19.4,19.4,0,0,1,.5-3.05,6.23,6.23,0,0,1,1.67-2.49,8.6,8.6,0,0,0,1.27-1,5.7,5.7,0,0,1,1.12-1.23,6.62,6.62,0,0,1,5.51-1.28,21.2,21.2,0,0,1,4.11,1.33c.82.42,1.62.9,2.43,1.33a5.9,5.9,0,0,1,2.15,2,4.11,4.11,0,0,1,.77,1.55,5,5,0,0,1,.37,1.63c-.18,1.61-1.33,2.69-1.77,4.16a4.59,4.59,0,0,1-.21.87c-.2.43-.47.85-.7,1.27a10.61,10.61,0,0,1-1.22,2,6.91,6.91,0,0,1-2,1.67,3.61,3.61,0,0,1-3,.2,9.78,9.78,0,0,1-3.45-1.31,12.87,12.87,0,0,1-3.4-3.54,9.9,9.9,0,0,1-1.93-4.59,10.44,10.44,0,0,1-.15-2.61,11.25,11.25,0,0,1,.8-2.21c.64-1.55,2.27-2.43,3.58-3.3.26-.17.81-.69,1.14-.71s.61.3.82.41"/><path class="cls-2" d="M371.25,325.48c-.91,1.27-19.86,9.5-21,10.54-2.17,2-4.5,3.87-6.06,6.36-5.13,8.27-10.36,29.36-8.3,38.85,1.72,9,8.65,16.84,11.14,26,2.53,9.34,3.57,19,4.81,28.59,2.3,17.79,6.27,37,19.93,48.62,8.79-28.66,27-54.13,32.86-83.52,3.64-18,2.45-36.45,1.08-54.9C388.06,342.3,388.51,330.78,371.25,325.48Z"/><path class="cls-4" d="M302.56,530.69c-1.23-5.74-4.3-10.8-5.67-16.47a112.64,112.64,0,0,0-3.58-11.88,59.46,59.46,0,0,1-2.59-8.33c-.61-3-.19-5.89-.19-8.94,0-2.62,0-5.24,0-7.85,0-3.62,2.23-7.06,3.1-10.65,3.75-15.44,10.46-30.08,12.69-45.86.9-6.37,1.52-13,3.23-19.29,1-3.65.54-7.12.72-10.91.15-3.05,1.2-6.09,1.78-9.08.44-2.25.23-3.82,1.18-5.95.83-1.85,1.66-3.8,2.57-5.6,2.16-4.29,5.58-7.94,8.8-11.44a42.51,42.51,0,0,1,4.86-3.92c1.66-1.35,3-3.06,4.61-4.44,2-1.67,3.84-2.8,5.36-4.93,1.27-1.79,2.74-4.11,5-4.64,1.34,1.77.37,7.73.37,9.89v8.76c0,4.14-.74,8.91.19,13,.85,3.69,2.63,8.92,4.94,11.77,5.17,6.38,10.31,12.7,15.86,18.73,3.51,3.8,2.53,5.82,1.44,10.4-.88,3.72-2.38,7.83-2.73,11.57-.83,8.85,0,18.21,0,27.1,0,8.47-1.73,17.59,4,24.54,2.42,3,4.46,5,5.92,8.77s4,7.2,5.65,10.93c3,6.52,7.77,17.06,6.87,24.69A29.28,29.28,0,0,0,376.74,511c-2.69-1.68-5.47-3.41-8.25-4.92-2.46-1.34-4.43-1.52-7-2.2-7-1.85-13.61-2.51-20.72-3.54-5.64-.82-11.52,1.33-16.51,3.92-4.35,2.27-5.18,5.14-7.18,9.66a59.05,59.05,0,0,0-3.75,13.59c-.57,3.23-4.12,7.23-5.76,10.12a44.76,44.76,0,0,1-2.39,4c-1,1.43-1.62,1.13-1.59-.7A45.94,45.94,0,0,0,302.56,530.69Z"/><path class="cls-5" d="M429.33,146l0,0a.83.83,0,0,0-1.11-.06c-1.12.88-2.92,1.69-3.68,2.93-.46.75-.68,1.62-1.21,2.33a9.54,9.54,0,0,0-1.34,2.09,1.9,1.9,0,0,1-.92,1.24,10.2,10.2,0,0,1-1.3.6c-.67.25-1.34.29-2,.53s-1.32.44-1.93.7a8.15,8.15,0,0,0-1,.5,38.06,38.06,0,0,0-6.32,4.52,10.61,10.61,0,0,0-2.49,3.51,30.74,30.74,0,0,1,.68,4.78l22.64-22.44A.84.84,0,0,0,429.33,146Z"/><path class="cls-6" d="M401.94,365.9a218.88,218.88,0,0,0,5.24-30.78c.54-6.36,1-12.77,1.44-19.18.22-6.1.4-12.19.29-18.25-.52-7.07-1.24-14.1-2.39-21.1,1.72-9.63,4-21.23,4.34-24.69.41-4.27.57-8.77.91-13.23-.21-4.53.72-9.07.84-13.61.17-6,.44-11.88.65-17.85.18-5,1.12-9.94,1.48-14.92.2-2.85.26-5.71.25-8.55l3.18-9.36c.85-.67,3.4-1.33,4.24-2s1.87-1.18,2.73-1.91a24.2,24.2,0,0,0,2.38-2.37c1.49-1.68,4.52-3.32,6-5,2.75-3.2,4.93-4.8,7.9-8,.33-.35,2.7-2.42,3.08-2.7a53.63,53.63,0,0,0,4.79-4.1l4.14-3.71,1.13-1a1.93,1.93,0,0,1,.51-.35,5.42,5.42,0,0,0,.8-.71l.44-.51a1.7,1.7,0,0,0,.24-.44c0-.14.13-.38.14-.5,0-.27-.2-.46-.37-.65-.44-.46-.82-.3-1.28-.11a7.19,7.19,0,0,1,1.08-.71,12.35,12.35,0,0,0,2.3-1.92A5.3,5.3,0,0,0,460,135.6a1.33,1.33,0,0,0-.21-1.26,1.25,1.25,0,0,0-1-.51,1.7,1.7,0,0,0-1.36.22c-.37.35-.83.55-1,1.16l0,0a.8.8,0,0,0-.09-.5c-.19-.31-.66-.35-1-.45a1.22,1.22,0,0,1-.55-.29,1.12,1.12,0,0,0-.91-.21,10.23,10.23,0,0,0-2.81,1.34c-.93.52-2,.86-2.89,1.42-.33.2-.66.41-1,.6s-.42.31-.65.45c-.62.37-1.17.82-1.77,1.22a19.94,19.94,0,0,0-1.82,1.3c-.33.29-.67.54-1,.8-1.21-.22-1.27-.78-2.48-.68-.32,0-1.82.84-2.13.94a3.9,3.9,0,0,0-.71.35c-5.1,2.92-9.1,7.35-13.74,10.89-1.52,1.17-3,.93-4.37,2.3s-4.05,3-5.56,4.19a68.63,68.63,0,0,0-5,4.83,17.75,17.75,0,0,0-4,5.55,1.89,1.89,0,0,0-.2.8c0,.12,0,.3,0,.49-2.08,2.09-3.08,5.33-4,7.86-1.05,3-1.85,6-2.93,9-.94,2.61-2.3,5-3,7.66-.86,3.05-1.72,6.13-2.82,9.14-5.27,14.41-11.44,29.09-12.41,44.59-1.26,20.21-6.54,41.61-12.62,60.88a81.66,81.66,0,0,1-5.08,13.49C358.51,327.61,356,332,355,337"/><path class="cls-5" d="M442.9,151.52c-.12-.14-.18-.29-.31-.43l-.34-.38"/><path class="cls-5" d="M442.49,151.75l-.46-.5"/><path class="cls-5" d="M441.3,152.54c-.19-.22-.39-.43-.58-.64a2.14,2.14,0,0,1-.39-.67"/><path class="cls-5" d="M455,140.32c-1,.88-5,4.59-6,5.46l-1.48,1.33-.74.66c-.27.24-.48.54-.74.79-.69.66-1.3,1.39-2,2l-.87.79c-.52.47-1.1.84-1.66,1.27s-.82.6-1.21.95l-1.05.94-4.24,3.8a16,16,0,0,0-1.68,1.89,16.81,16.81,0,0,1-1.54,1.92"/><path class="cls-5" d="M452.65,139a2.3,2.3,0,0,1-.51-1.44,2.19,2.19,0,0,1,.59-1.48,5,5,0,0,1,2.43-1.46,1.86,1.86,0,0,1,1.16.23.29.29,0,0,1,0,.46A211.06,211.06,0,0,1,440,150c-.88.79-2,1.36-2.89,2.11a1.78,1.78,0,0,1-.47.26l-3.83,3.3"/><path class="cls-5" d="M441.52,141c.1.08.11.26.14.38a.92.92,0,0,1-.05.52,3.7,3.7,0,0,1-1.18,1.34l-2.59,2.32c-.23.22-.51.37-.75.57s-.35.32-.53.48l-.91.82c-.8.71-1.62,1.42-2.41,2.15s-1.15,1.35-1.76,2c-.24.25-.52.45-.77.69a6.68,6.68,0,0,0-.72.94c-.23.31-.44.63-.69.91s-.54.43-.76.7-.21.34-.35.49a3.22,3.22,0,0,1-.28.24c-.15.14-.24.31-.39.45s-.2.12-.2.25c.09,0,.18-.13.24-.19s0,0,.08,0"/><path class="cls-1" d="M357.7,330.74c.11-.29.22-.58.32-.87-2.75,1.75-5.22,3.73-7.9,5.72-2.12,1.59-4.58,3.76-6.62,5.49a2.75,2.75,0,0,1,1.87,3l.49-.42c2.06-1.72,4.18-3.38,6.34-5,1-.73,2-1.44,3-2.14A38.28,38.28,0,0,1,357.7,330.74Z"/><path class="cls-1" d="M405,347.94a85.92,85.92,0,0,1-4.72,20.42c-2.44,6.6-7.52,13.36-16.42,21.91-5.26,5.06-10.95,9.67-16.47,14.47.07.13.16.25.22.38a7.43,7.43,0,0,1,.69,2.75,7.14,7.14,0,0,1,0,1.6s0,.06,0,.08c7.6-6.57,16-13,23.43-19.72,4.21-3.79,10.9-13.47,12.5-18.94C406.26,363.7,406.85,357.66,405,347.94Z"/><path class="cls-7" d="M423.68,814.83a8.33,8.33,0,0,0-4.71-4.54,32,32,0,0,1-5.1-2.11c-3.71-2.1-7.7-4-11-6.72-2.14-1.72-4.16-3.12-5.56-5.49-.46-.78-1.11-1.34-1.58-2.1a3.07,3.07,0,0,1-.25-.55l.55-.25c-4.32-5.57-7.38-12.48-10.26-18.49-5.81-12.11-11.07-24.29-16-36.71-2.09-4.49-4.22-9-6.49-13.35-9.18-17.79-22.12-33.08-35.84-46.78a50.76,50.76,0,0,0-4.36-3.85c9.56-18.07,21.21-35,31-52.95q11-20.09,20.95-40.78c5.68-11.84,13.09-24.07,14.22-37.63,1.07-12.94-2.16-26-8.91-36-4.26-6.29-10-11.38-16.72-13.61-9.3-3.08-29.83-5.27-38.74.06-13.41,8-6.06,22.54-13.66,36.56C300,550.33,288.7,571.61,282.56,595c-4,15.31-4.75,30.91-6,46.51A239.85,239.85,0,0,1,273.39,668a63.81,63.81,0,0,1-3,10.1c-.13,10.62,7.32,21.15,16.29,28.5,2.13,3,5.17,5.47,7.7,8.16l.42.23a21.57,21.57,0,0,1,4.21,3.91l25.6,28.4c6.12,6.79,12.25,14,19.23,19.72,12.72,10.43,22.29,24,32.1,37.57l.18-.13a9.78,9.78,0,0,1,1.1,2.35c.3,1,.3,2,.51,2.94,1.1,5,1.19,10.31,2.56,15.32,2.74,10,8.87,18.44,12.37,28.06.44,1.2.13,2.42.38,3.67.33,1.64.26,3.27.57,4.9,1.33,6.9,7.52,11.54,8.85,18.54.57,3,2.07,7.51,4.13,9.81,2.79,3.13,8.2,3.8,6.3-1.91-.49-1.46-1.27-2.87-1.32-4.4-.14-4,4.43-6.61,5.4-10.49a12.32,12.32,0,0,0-.11-4.91c-.85-5.46-2.22-11-2.92-16.43-.38-3,.49-5.53.54-8.43.1-5.61,4-10.71,6.51-15.58a50.36,50.36,0,0,0,3-7.21A6.77,6.77,0,0,0,423.68,814.83Z"/><text class="cls-8" transform="translate(542.32 205.54)"><tspan class="cls-9">H</tspan><tspan x="16.25" y="0">ead must s</tspan><tspan class="cls-9" x="142.16" y="0">t</tspan><tspan class="cls-10" x="151.96" y="0">a</tspan><tspan x="165.35" y="0">y</tspan><tspan x="2.21" y="33.91">a </tspan><tspan class="cls-11" x="21.52" y="33.91">s</tspan><tspan x="34.07" y="33.91">a</tspan><tspan class="cls-12" x="48.23" y="33.91">f</tspan><tspan x="56.3" y="33.91">e dis</tspan><tspan class="cls-9" x="110.33" y="33.91">t</tspan><tspan x="120.13" y="33.91">ance </tspan><tspan x="2.6" y="67.83">f</tspan><tspan class="cls-13" x="11.28" y="67.83">r</tspan><tspan x="21.4" y="67.83">om the boa</tspan><tspan class="cls-14" x="151.4" y="67.83">r</tspan><tspan x="161.36" y="67.83">d</tspan></text><path d="M703.55,293c4.16,3.35,8,7.08,11.88,10.73l.33-2.55c-2.56,1.18-5.07,2.46-7.61,3.68-2.36,1.12-4.76,2.16-7.12,3.3a1.64,1.64,0,0,0-.59,2.22,1.67,1.67,0,0,0,2.22.58c2.36-1.14,4.76-2.18,7.13-3.3,2.54-1.22,5.05-2.5,7.61-3.68a1.63,1.63,0,0,0,.32-2.55c-3.9-3.64-7.72-7.37-11.88-10.72a1.66,1.66,0,0,0-2.29,0,1.62,1.62,0,0,0,0,2.29Z"/><path d="M558.44,290.74c-4.16,3.35-8,7.08-11.88,10.72a1.63,1.63,0,0,0,.33,2.55c2.56,1.18,5.06,2.46,7.61,3.68,2.36,1.12,4.76,2.16,7.12,3.3a1.67,1.67,0,0,0,2.22-.58,1.63,1.63,0,0,0-.58-2.22c-2.36-1.14-4.76-2.18-7.13-3.3-2.54-1.22-5-2.5-7.6-3.68l.32,2.55c3.9-3.65,7.73-7.38,11.89-10.73a1.63,1.63,0,0,0,0-2.29,1.66,1.66,0,0,0-2.3,0Z"/><path d="M713.59,300H550.24a1.63,1.63,0,0,0,0,3.25H713.59a1.63,1.63,0,0,0,0-3.25Z"/><path d="M97.35,227.85a68.34,68.34,0,0,0,2.26,33.88,81.51,81.51,0,0,0,15.44,27A88.38,88.38,0,0,0,127,300.4c1.49,1.2,3.62-.91,2.12-2.12-15.47-12.49-27.31-30.61-29.53-50.65a65,65,0,0,1,.69-19c.35-1.89-2.54-2.69-2.89-.8Z"/><path d="M122.78,285.81c1.69,4.63,2.92,9.41,4.25,14.16l1.45-1.9c-2.49.06-5,.24-7.47.34-2.31.1-4.62.1-6.94.2-1.92.09-1.93,3.09,0,3,2.32-.1,4.63-.1,6.94-.2,2.49-.1,5-.28,7.47-.34a1.52,1.52,0,0,0,1.44-1.9c-1.33-4.75-2.56-9.52-4.24-14.16a1.55,1.55,0,0,0-1.85-1.05,1.52,1.52,0,0,0-1,1.85Z"/><text class="cls-8" transform="translate(70.61 165.83)">It must be bo<tspan class="cls-15" x="150.8" y="0">l</tspan><tspan x="158.22" y="0">d, high </tspan><tspan x="0" y="33.91">and confident</tspan></text><path class="cls-16" d="M95.79,61.4A36.74,36.74,0,0,1,104.16,38a34.44,34.44,0,1,0,.11,46.9A36.78,36.78,0,0,1,95.79,61.4ZM87.2,75.66H70.92L71,73.39l4.46-.58c.58,0,.81-.23.81-1,.08-10.05,0-19.6,0-19.6l-5.62,1.08c-.19-.31-1.12-2.46-.46-2.73l10.35-4,1,1s-.12,20.87,0,24.37c0,.77.19,1,.73,1l5.08.54Z"/><circle cx="130" cy="61.53" r="34.44"/><text class="cls-17" transform="translate(118.45 75.26)">2</text><text class="cls-18" transform="translate(177.42 73.13)"><tspan class="cls-19">N</tspan><tspan class="cls-20" x="20.46" y="0">e</tspan><tspan x="36.84" y="0">xt is </tspan><tspan class="cls-19" x="102.6" y="0">t</tspan><tspan x="114.51" y="0">a</tspan><tspan class="cls-21" x="131.73" y="0">k</tspan><tspan class="cls-22" x="147.45" y="0">e-off</tspan></text></svg>