<svg id="Layer_1" data-name="Layer 1" xmlns="http://www.w3.org/2000/svg" viewBox="0 0 780 1051.14"><defs><style>.cls-1{fill:#fff171;stroke-width:0.3px;}.cls-1,.cls-2,.cls-3,.cls-4{stroke:#fff;stroke-miterlimit:10;}.cls-2{fill:#d4a47c;stroke-width:0.27px;}.cls-3{fill:#005058;stroke-width:0.5px;}.cls-4{fill:#c6946f;stroke-width:0.27px;}.cls-5{font-size:24.66px;}.cls-15,.cls-5{font-family:ABCSansBold, ABCSans;}.cls-6{letter-spacing:-0.01em;}.cls-7{letter-spacing:-0.03em;}.cls-8{letter-spacing:0.01em;}.cls-9{letter-spacing:-0.02em;}.cls-10{letter-spacing:-0.01em;}.cls-11{letter-spacing:-0.02em;}.cls-12{letter-spacing:-0.02em;}.cls-13,.cls-14{fill:#fff;}.cls-13{opacity:0.7;}.cls-14{font-size:38.5px;font-family:ABCSerifBold, ABCSerif;}.cls-15{font-size:30px;}.cls-16{letter-spacing:-0.01em;}.cls-17{letter-spacing:-0.02em;}.cls-18{letter-spacing:-0.01em;}.cls-19{letter-spacing:0em;}</style></defs><path class="cls-1" d="M423.28,451.33a104.73,104.73,0,0,1-3.54-10.15,95.69,95.69,0,0,1,.18,24.56c-1.11,9.89-3.41,19.85-7.6,28.27a39.39,39.39,0,0,1-3.49,5.81,29.36,29.36,0,0,1-2.1,2.55c-1.15,1.24-.67,3.14-1.15,4.86-.59,2.17,2,3.1,2.63.95a13.85,13.85,0,0,0,.43-3.28c5.41-5.89,8.87-14.5,11.13-23.11a111.39,111.39,0,0,0,3.52-30.07C423.29,451.59,423.29,451.46,423.28,451.33Z"/><path class="cls-2" d="M465.4,366.29c-8-1.32-15.59-6.94-23.39-3.32-.84.85-7.92,4.42-8.84,5.23-7.31,6.51-14,1.53-20.93,18.2-5.17,7.94-9.19,17.35-9.32,23.47-.21,9.6,4.92,19.6,5,29.62.08,10.19-1.67,20.28-3.17,30.32-2.78,18.66-4,39.25,8.33,55.1,18.29-25.26,45.72-45,62-71.2,1.38-2.43,2.73-4.88,4-7.37,7.15-13.89,8.91-29.91,10.31-45.07a117.59,117.59,0,0,0,.42-12.42C483.19,379.24,477.89,368.34,465.4,366.29Z"/><path class="cls-3" d="M419.36,374.78c-1.58-.31-2.6.66-3.94,1.26s-2.73.73-4,1.42c-7.27,4-16,9.05-20.67,16.22-1.94,3-1.94,6.34-1.93,9.71,0,1.28.06,2.58,0,3.86-.08,2.52-.81,2.77-2,4.92-.74,1.32-1.18,2.7-1.94,4-3.57,6-8.75,10.9-10.36,18-.46,2-.61,4.08-1.19,6.06-1.73,5.91-6.95,10.06-10,15.38-2.88,4.94-7.11,8-10,12.51-3.58,5.63-8.24,12.34-9.6,19-.66,3.19-1,5.7-2.41,8.77-1.05,2.31-3.59,7.08-2.55,9.56,1.62-.59,2.87-1.86,4.5-2.41,8-2.72,16.32-.62,23.38,3.57,5.31,3.16,9.91,7.37,14.41,11.61,5.78,5.46,11.58,11.31,15.35,18.4a31.07,31.07,0,0,1,3.59,11c.41,3.55-.59,8,1.76,11-.17-.22,10.31-20.83,11-22.8a98.11,98.11,0,0,0,5.95-28c.35-5.94.11-11.92,1-17.8.93-6.2,4.21-10.26,6.39-15.83s3-11.43,5.49-16.83a24.29,24.29,0,0,1,3-4.73,25.66,25.66,0,0,0,3.21-5.92c3.86-8.33-2.34-11.21-6.88-18.41a74.41,74.41,0,0,1-10-24c-1.26-6-4.64-21.8.43-26.53Z"/><path class="cls-2" d="M477.64,338a6.79,6.79,0,0,1,.73,2.3,4.63,4.63,0,0,0,.71,2.39c3.7,6.59,4.34,14.27,5.31,21.62,1,7.68,4.62,15,5.23,22.59.5,6.28-3.68,11.34-10.35,10.25a14.51,14.51,0,0,1-8.51-4.91,52.23,52.23,0,0,1-5.25-7,51.25,51.25,0,0,1-3.61-6c-1-2-2-4.08-2.82-6.17-.34-.84-.5-1.76-.85-2.6s-1.11-1.7-1.48-2.64c-.48-1.25-.69-2.5-1.24-3.74s-1.14-2.49-1.76-3.71c-1.17-2.29-3.58-4.51-3.81-7.19-.19-2.2,2-4.33,3.69-5.39,2.92-1.79,6.46-2.88,9.59-4.26a64.29,64.29,0,0,0,6.87-3.5c1.37-.8,3.91-2.3,5.39-1.59Z"/><path class="cls-2" d="M481.3,328.66c.6-1.05,5.41,7.78,6.81,7.6s1.55,1.58,2,2.6c.35.84,1,1.41,1.46,2.22a7.59,7.59,0,0,0,.87,1.76,6.19,6.19,0,0,0,4,2.1c1.76,0,3.07-1.49,4.75-1.7a5.28,5.28,0,0,1,2.13.34,2.62,2.62,0,0,1,.19-1.65c1.59-3.57,5.08-5.41,7.64-8.16a19.2,19.2,0,0,0-2.41-2.44,29.28,29.28,0,0,1-3.69-3.94c-1-1.27-2.23-2.09-2.34-3.7-.08-1.23.58-2.37.49-3.6-.05-.87-.36-1.58-.33-2.47a30.32,30.32,0,0,1,.63-3.91c.48-2.88.69-5.87,1-8.79a24.29,24.29,0,0,0-.53-9.38,19.64,19.64,0,0,0-4.85-8.2,42,42,0,0,0-5.47-5,73.11,73.11,0,0,0-9.26-5.61c-3.62-1.85-8.34-2.61-12.35-2.82-3-.16-5.81-.76-8.84-.59a25.18,25.18,0,0,0-8.71,2.5c-2.38,1.06-4.76,1.24-7.24,1.64-1.26.21-2.35.94-3.64,1.2a29.62,29.62,0,0,0-4.57,1.13c-2.83,1.09-4,3.41-5.36,5.87-.93,1.65-1.23,3.46-2.18,5.1a14.48,14.48,0,0,0-1.08,2.53c-.33,1-.9,1.76-1.23,2.74-.16.47-.1.92-.25,1.42s-.55.68-.61,1.22a19.16,19.16,0,0,0,.44,3.13,27,27,0,0,1,.22,3.69c0,.2,0,.32,0,.4s-.19.08-.41.35a12.55,12.55,0,0,1-2.15,1.82c-1.89,1.5-2.31,1.29-4.3,3.21a27,27,0,0,0-3.41,3.9,3.41,3.41,0,0,0,1.35,5.11,1.8,1.8,0,0,1,.92.87,4.73,4.73,0,0,1,.83,3.37,19,19,0,0,0-.94,2.88,18.42,18.42,0,0,0,.26,5.55c.31,1.5,1,2.16.34,3.51-.5,1-1.05,1.93-1.58,2.88-1,1.78-1.41,3.72.13,5.34,2.06,2.17,6.6,3,9.31,4,9.32,3.33,18.42,6.71,27.81,9.73,6.42,2.07,7.58,1.51,11.25,7.22"/><path d="M439.67,300a9.06,9.06,0,0,1,.82.69c.16.14.47.44.46.68s0,.09-.09.1-.21-.11-.27-.15l-.32-.1c-.42-.11-.86-.17-1.29-.28-.24-.06-.49-.09-.74-.17-1.49-.5-2.88-1.51-4.41-1.84a7.11,7.11,0,0,0-4.33.84c-.09-.51-.42-2.16.07-2.45.7-.41,2.78.07,3.61-.05a6.53,6.53,0,0,1,4.41,1C438.33,298.79,439,299.47,439.67,300Z"/><path d="M512.45,328.32c-1.55-2-3.57-3.77-4.87-5.89-4.13-6.73-.48-15.43-1.34-23.28-.7-6.46-4.58-12.27-9.57-16.43s-11-6.86-17.12-9.1c-5.65-2.07-11.54-3.8-17.55-3.78-4.06,0-15.82,1.83-16.54,7.15s7.48,10.85,7.57,16.75c.05,3-1.3,6-.72,8.89a25,25,0,0,0,1.6,4.21c1,2.53,1.33,5.3,2.5,7.76s3.56,4.67,6.27,4.39a11.09,11.09,0,0,1,2.4-5.26c1.35-1.4,2.19-.47,3.83.59,2.25,1.44,3.33,3.3,2.08,5.66s-3.16,4.61-3.14,7.28c0,2.9,2.25,5.23,4.34,7.23,3.59,3.43,11.87,6.76,15.46,10.19,2.62-1.43,2.07-.56,4.77-1.84,2-1-.17-4.66,1.8-3.56a18.4,18.4,0,0,0,12.32,2c3.93-.75,8-3.53,8.12-7.52A8.36,8.36,0,0,0,512.45,328.32Z"/><path d="M444.79,277.58l.91-.18c0-.06,0-.13,0-.2A3.07,3.07,0,0,0,444.79,277.58Z"/><path class="cls-2" d="M459.57,319.1c-2-4.88,5.72-8.3,9.26-6.49a6.55,6.55,0,0,1,2.79,8.41c-1.5,3-5.18,4.46-6.86,7.39-.89,1.55-1.24,3.53-2.7,4.57s-4.22-.61-3.11-2"/><path d="M500,325.73a7.21,7.21,0,0,0,2.92-1.73,11.74,11.74,0,0,1,3.55-1.79,6.16,6.16,0,0,1,4.49,0,6.75,6.75,0,0,1,3,2.67,6.53,6.53,0,0,1,1.16,3.43c-.17,1.28-1.54,2.89-2.14,4a6.7,6.7,0,0,1-3.64,2.75,6,6,0,0,1-4.66.28,19.7,19.7,0,0,1-7.74-7.22c-1-1.45-.63-3.82-.14-5.44s1.79-4.13,3.21-5.13c2.72-1.93,6.36,0,8.46,1.95,1.26,1.13,2.42,2.4,2.28,4.24a9.59,9.59,0,0,1-1.55,4.12,18.09,18.09,0,0,1-2.71,4.22,6.81,6.81,0,0,1-2,1.75,21.19,21.19,0,0,0-2.67,1.28,8.14,8.14,0,0,1-3.11,1.13,3.29,3.29,0,0,1-2.48-.53,10.45,10.45,0,0,1-2.42-1.82,19.14,19.14,0,0,1-1.14-1.54c-.73-.83-.7-.88-.17-2"/><path d="M504.31,323.22c.11-1.43,1.11-2.24,2.19-3a5.83,5.83,0,0,0,1.09-.85,1.85,1.85,0,0,1,1.82-.62c1.83.2,3.41,1.7,4.72,2.82a6.34,6.34,0,0,1,1.51,1.59c.34.59.44,1.29.78,1.86.19.34.51.54.63.94s.05.85.2,1.26a2.43,2.43,0,0,1,.3,1.12,7.32,7.32,0,0,1-.19,1.23,4.76,4.76,0,0,1-.67,2.15,12.93,12.93,0,0,1-1.55,1.76,5.31,5.31,0,0,1-.88.61c-.36.24-.62.6-1,.85a6.27,6.27,0,0,1-3.44.65c-2.23.05-4.43-1.33-6.29-2.45a11.47,11.47,0,0,1-3.61-3.49c-.5-.82-.87-1.66-1.28-2.51a10.11,10.11,0,0,1-1-2.4,8.64,8.64,0,0,1-.08-2.87,18.32,18.32,0,0,1,.51-3.05,6.2,6.2,0,0,1,1.67-2.49,7.84,7.84,0,0,0,1.27-1,5.43,5.43,0,0,1,1.12-1.23,6.61,6.61,0,0,1,5.51-1.28,20.89,20.89,0,0,1,4.1,1.33c.82.42,1.62.9,2.43,1.33a5.9,5.9,0,0,1,2.15,2,4.2,4.2,0,0,1,.78,1.55,5,5,0,0,1,.36,1.63c-.18,1.61-1.33,2.7-1.76,4.16a6.87,6.87,0,0,1-.21.87c-.2.44-.48.85-.71,1.27a10.12,10.12,0,0,1-1.22,2,6.78,6.78,0,0,1-2.05,1.67,3.61,3.61,0,0,1-3,.2,9.67,9.67,0,0,1-3.45-1.31,13,13,0,0,1-3.4-3.54,10,10,0,0,1-1.93-4.59,10.94,10.94,0,0,1-.15-2.61,11.49,11.49,0,0,1,.8-2.21c.64-1.54,2.27-2.42,3.58-3.3.26-.17.82-.69,1.14-.71s.61.3.83.41"/><path d="M490.71,335.69c.1-1.43,1.11-2.24,2.19-3a6.11,6.11,0,0,0,1.08-.85,1.84,1.84,0,0,1,1.83-.61c1.82.19,3.41,1.69,4.71,2.82a6,6,0,0,1,1.51,1.58c.34.59.45,1.29.78,1.86.2.34.51.55.63.95s.06.84.21,1.26a2.36,2.36,0,0,1,.3,1.11,8.29,8.29,0,0,1-.19,1.23,5,5,0,0,1-.67,2.15,14.53,14.53,0,0,1-1.56,1.77,5.37,5.37,0,0,1-.87.6c-.36.25-.62.61-1,.85a6.08,6.08,0,0,1-3.43.65c-2.23.05-4.44-1.32-6.29-2.45a11.39,11.39,0,0,1-3.62-3.49,28.09,28.09,0,0,1-1.27-2.51,9.71,9.71,0,0,1-1-2.4,8.64,8.64,0,0,1-.08-2.87,19.4,19.4,0,0,1,.5-3,6.3,6.3,0,0,1,1.67-2.49,7.06,7.06,0,0,0,1.27-1,5.94,5.94,0,0,1,1.12-1.23,6.62,6.62,0,0,1,5.51-1.28,21.91,21.91,0,0,1,4.11,1.33c.82.42,1.62.9,2.43,1.33a6,6,0,0,1,2.15,2,4.15,4.15,0,0,1,.77,1.56,5,5,0,0,1,.37,1.62c-.18,1.61-1.33,2.7-1.77,4.16a4.59,4.59,0,0,1-.21.87c-.2.44-.47.85-.7,1.27a10.61,10.61,0,0,1-1.22,2,6.91,6.91,0,0,1-2.05,1.67,3.57,3.57,0,0,1-3,.2,9.67,9.67,0,0,1-3.45-1.31,12.87,12.87,0,0,1-3.4-3.54,9.9,9.9,0,0,1-1.93-4.59,10.33,10.33,0,0,1-.15-2.6,11.34,11.34,0,0,1,.8-2.22c.64-1.54,2.27-2.42,3.58-3.29.26-.17.81-.7,1.14-.72s.61.3.82.42"/><path class="cls-1" d="M483.16,435.14c.36-.79.36-1.63.74-2.42-6.08.75-12.17,1.15-18.24,1.93-6.33.82-12.65,1.67-19,2.21-2.81.24-5.71.38-8.59.69a6.83,6.83,0,0,1,1.06,2.43,7.06,7.06,0,0,1,.06,2.34c3-.27,6.09-.34,8.94-.65,11.38-1.26,22.78-2.48,34.14-3.85A10.69,10.69,0,0,1,483.16,435.14Zm-10.77-1.22a2.9,2.9,0,0,1,2.46,1.1A3.16,3.16,0,0,0,472.39,433.92Z"/><path class="cls-1" d="M436.87,368.61l-.12-.79c-.11-.79-.21-1.58-.29-2.38-3.82,2.22-7.65,4.42-11.49,6.48-1.82,1-3.7,1.93-5.57,2.94a2.18,2.18,0,0,1,.58.66c.38.77.8,1.51,1.24,2.24,2-1.07,4.12-2.08,6-3.15q4.86-2.72,9.68-5.5C436.9,368.88,436.79,368,436.87,368.61Z"/><path class="cls-1" d="M482.69,373.59l-.37-.38c-3.67-3.78-7.46-8.73-12.91-9.75a2.61,2.61,0,0,0-.37.65c4.61,5.66,10.12,10.42,13.77,16.83,6.23,10.93,6.82,23,4.9,35.17-.52,3.33-1.2,6.63-1.93,9.92-.33,1.54-.69,3.07-1,4.61,10.51-16.94,10.61-39.65-1.18-55.87C483.29,374.37,483,374,482.69,373.59Z"/><path class="cls-2" d="M485.53,420a34.38,34.38,0,0,0,4.12-11.64,51.91,51.91,0,0,0,.33-9.92c-.49-8.13-2.88-16.22-7.27-22.24-4-5.45-9.26-9.24-13.84-14-1.56-1.59-4.85-7.44-8.2-12.35-.05-3.33-.13-6.66-.44-10a117.16,117.16,0,0,0-4.74-22.38c-4.36-14.65-10.35-28.79-13.86-43.69-.3-1.26-.6-2.55-.95-3.82a4,4,0,0,1,.12-.62,6.61,6.61,0,0,1,.81-1.84c.41-.56.85-1.12,1.28-1.67.74-.94,1.46-1.86,2.17-2.82a10.8,10.8,0,0,0,.93-1.21c.24-.4.38-.89.64-1.27l.12-.66c.26-.46.59-.89.82-1.37a7,7,0,0,0,.5-1.41q.06-.3.15-.6c.09-.33.26-.61.34-.94a9.89,9.89,0,0,0,.29-1.31c0-.48-.3-.73-.55-1.08a1.4,1.4,0,0,1-.31-1.13c.06-.45.09-.91.15-1.37,0-.3.11-.56.13-.85s.06-.52.09-.78a11.68,11.68,0,0,1,.35-1.64c.07-.27.13-.55.19-.82a5.34,5.34,0,0,1,.27-.7,2.61,2.61,0,0,0,.13-.63c0-.24.11-.48.12-.72a3.35,3.35,0,0,0-.16-1.48,1.46,1.46,0,0,0-.19-.42c-.13-.16-.33-.33-.48-.48a7.19,7.19,0,0,1-1-1,6.51,6.51,0,0,1-.5-1.22c-.14-.37-.29-.74-.44-1.12s-.12-.55-.21-.82a2.9,2.9,0,0,1-.23-.62c0-.2-.08-.39-.09-.59a1.38,1.38,0,0,0-.05-.5,9.15,9.15,0,0,0-.4-1c-.27-.47-.74-.35-1.19-.26a1.62,1.62,0,0,0-.62.3,7.16,7.16,0,0,0-1,.67.42.42,0,0,0-.17.25.83.83,0,0,1,0,.22c0,.08-.1.12-.15.19a.36.36,0,0,0-.09.23,8,8,0,0,0-.14,1.76c0,.66,0,1.32.07,2,0,0,0,.09,0,.13-.05-.28-.1-.57-.13-.85a8.26,8.26,0,0,1-.06-1.72,12.31,12.31,0,0,0,.2-1.7c0-.14,0-.2,0-.34s0-.5,0-.75a4.17,4.17,0,0,0-.08-.49,3.43,3.43,0,0,1,.07-.56,9.52,9.52,0,0,0,.09-1.18,6.72,6.72,0,0,0-.2-2.15,1.83,1.83,0,0,1,0-.57,3.41,3.41,0,0,0-.1-.54,1.76,1.76,0,0,1-.09-.51,4.69,4.69,0,0,1,.09-.64c.06-.39,0-.8.09-1.19s.1-.8.18-1.2a7,7,0,0,0,.15-1.11,4.05,4.05,0,0,0-.12-.5c0-.14,0-.3,0-.45,0-.37-.09-.7-.09-1.07s0-.83-.09-1.23c-.06-.68-.09-1.35-.09-2a5.62,5.62,0,0,0-.61-1.81,2.46,2.46,0,0,0-1.62-1.34,2.5,2.5,0,0,0-1.86.14,1.34,1.34,0,0,0-.64.58,4.48,4.48,0,0,0,.16-.52,1.64,1.64,0,0,0-.15-1.21,3,3,0,0,0-.19-.45,4,4,0,0,1-.3-.58,2.77,2.77,0,0,0-.38-.52.88.88,0,0,0-.83-.28,8,8,0,0,0-1.38.26,2.17,2.17,0,0,0-1.18.61,2.85,2.85,0,0,0-.43,1.49,13.47,13.47,0,0,0-.21,1.9c0,.49,0,1-.09,1.43a10.52,10.52,0,0,0-.09,1.68c0,.62-.28,1.25-.32,1.88,0,.32,0,.65,0,1s-.08.54-.08.81a5.53,5.53,0,0,1-.42,1.68,5.28,5.28,0,0,0-.23.89,5.09,5.09,0,0,1-.12.68l1.14-8.14a.7.7,0,0,0,0-.53c0-.11,0-.18,0-.29a1.65,1.65,0,0,0-.57-.9c-.71-.64-1.69-.19-2.38.25a2.49,2.49,0,0,0-.94,1.16c-.22.52-.54,1-.77,1.46a4,4,0,0,0-.31,1.4,8.56,8.56,0,0,1-.2,1.51,19.19,19.19,0,0,0-.11,3c0,.28,0,.56-.07.85s-.11.42-.15.65c-.08.62-.11,1.23-.17,1.86a4.5,4.5,0,0,1-.17,1c-.08.29-.11.59-.2.88s-.16.61-.23.92l.82-6.35c-.07-.17.16-.44,0-.54s-.24-.08-.35-.14-.2-.17-.33-.18a.46.46,0,0,0-.3.08c-.37.15-.78.19-1.15.32a2,2,0,0,0-.88.69,2.93,2.93,0,0,0-.68,1.39c-.07.27-.22.48-.28.75s-.12.59-.18.89,0,.52-.1.76a5.8,5.8,0,0,0-.17.72c0,.3-.14.58-.17.87a3.85,3.85,0,0,1-.09.76,6.16,6.16,0,0,0-.23,1.46c0,.41-.19.82-.21,1.23s-.17.85-.21,1.28-.13,1-.18,1.51a5.42,5.42,0,0,1,0,.57c0,.24-.14.45-.16.69,0,.46-.16.91-.21,1.38s.11.82.1,1.25A8.71,8.71,0,0,1,421,244a10.79,10.79,0,0,0,0,1.14c0,.24-.12.47-.15.72a8.18,8.18,0,0,1-.23,1.07c-.11.42-.18.84-.26,1.27a3.14,3.14,0,0,0,.12,1.22,1.83,1.83,0,0,1-.06.7c-.06.25-.06.47-.1.71a2.54,2.54,0,0,0-.07.47,2.66,2.66,0,0,1,.06.75,4.82,4.82,0,0,0-.22.89,10.69,10.69,0,0,0,.41,1.67c.05.19.12.38.17.58a16.5,16.5,0,0,1,.31,2.11,9.71,9.71,0,0,0,.16,1.32,9.23,9.23,0,0,1,.35,1c.2,1,.58,1.87.78,2.84.06.3,0,.62.1.91.1.44.3.81.37,1.26a22.6,22.6,0,0,0,.72,2.43c.25.92.38,1.84.55,2.79l0,.07a9.39,9.39,0,0,0,3.06,3.64c-.06,1.06-.08,2.11-.07,3.14.06,11.2.81,22.46-.63,33.58-.58,4.51-1.53,9.1-.63,13.56s3.68,8,5.12,12.17,1.3,8.53,2.33,12.72c3.16,12.81-.74,46,3.46,58.78m6.2-164.33a2.34,2.34,0,0,0-.1-.82c0-.1,0-.21-.05-.31A1.79,1.79,0,0,1,442.85,243.27ZM425,242.17a3.53,3.53,0,0,1,0,.56C425,242.54,425,242.35,425,242.17Zm-.15,2c0,.06.06.11,0,.15S424.88,244.23,424.88,244.12Zm.2-2.88.25-1.94A6.09,6.09,0,0,1,425.08,241.24Zm12.2-22.37a6.77,6.77,0,0,1,.05,2c0,.27-.11.55-.17.83C437.21,220.51,437.25,219.54,437.28,218.87Zm.08-1.09a.32.32,0,0,0,0,.09v0A.11.11,0,0,1,437.36,217.78Zm-.29,6.15a3.8,3.8,0,0,0,.06.58c.08.4.16.78.23,1.17a5.44,5.44,0,0,1,.1,1.27,5.94,5.94,0,0,0,.06,1.19,3.51,3.51,0,0,1-.27,1.49,8.87,8.87,0,0,0-.32,1.33,22.89,22.89,0,0,1-.28,3.09C436.79,230.82,436.94,227,437.07,223.93Zm-6.39,8.15a1.76,1.76,0,0,1,0,.23c0,.22-.11.4-.11.61a6.22,6.22,0,0,0,.1,2.11c.11.39-.19.59-.27,1s-.27,1-.33,1.4c-.13.88,0,1.5-.18,2.38a3.72,3.72,0,0,1-.16,1.19c-.06.13-.23.9-.31.91s-.22.62-.2.55Z"/><path class="cls-2" d="M445.59,244.43a3.18,3.18,0,0,0,1.21.27c.27,0,.56-.06.83-.1s.47,0,.71,0c.39,0,.73.16,1-.22"/><path class="cls-2" d="M446,242.88a5,5,0,0,1,1.3-.61l.43-.17c.18-.07.44,0,.6-.13"/><path class="cls-2" d="M440.83,217.21A15,15,0,0,1,441,219a2.36,2.36,0,0,1-.31.86,2.2,2.2,0,0,1-.74.89,2.15,2.15,0,0,1-.93.32c-.76-.05-1-.94-1.2-1.53a4.56,4.56,0,0,1-.2-1c0-.15,0-.3,0-.45a3.35,3.35,0,0,1,0-1"/><path class="cls-2" d="M436.89,214.57c.11.29.15.92.22,1.22a1.54,1.54,0,0,1-.25,1.12c-.17.26-.39.49-.56.75,0,.06,0,.13-.09.21a2.66,2.66,0,0,1-1.43.65c-.3,0-.74,0-.92-.31a4.65,4.65,0,0,1-.37-1c-.09-.24-.8-2-.51-1.93a3.52,3.52,0,0,0,.4-.62"/><path class="cls-2" d="M432,218.53a10,10,0,0,1,0,1.1,3.62,3.62,0,0,1-.35,1.64,2.85,2.85,0,0,1-.41.44c-.15.11-.3.06-.48.1a1.75,1.75,0,0,1-.46,0,1.78,1.78,0,0,1-.4,0,1.14,1.14,0,0,1-.34-.19,1,1,0,0,1-.38-.71,4,4,0,0,1,.07-1c0-.17,0-.34,0-.51a3.92,3.92,0,0,1,.18-.77c.07.11.71-.52.74-.39"/><path class="cls-2" d="M435,231.53a4.17,4.17,0,0,1-1,.24,1.92,1.92,0,0,1-1.14-.11"/><path class="cls-2" d="M435.46,229.94a2.69,2.69,0,0,0-.57-.17,2.87,2.87,0,0,0-1.91,0,2.87,2.87,0,0,0-.4.18c-.11.07-.18.18-.32.2"/><path class="cls-2" d="M428.25,234l-.73.05a.47.47,0,0,1,.35,0"/><path class="cls-2" d="M428.53,234.94c-.48,0-1,0-1.45,0a1.43,1.43,0,0,1-.58-.11"/><path class="cls-2" d="M423.81,238.68a7.06,7.06,0,0,1-1.21.47c-.16,0-.43,0-.52.2"/><path class="cls-2" d="M441,231.85c-.25.06-1.61.25-1.87.25-.85.07-.14,0-.21,0"/><path class="cls-2" d="M441.52,232.88a5,5,0,0,1-3.58.47c-.24-.07-.47.1-.72.09"/><path class="cls-2" d="M427.08,227.64c0,.14-.11,1.15-.17,1.28a1.33,1.33,0,0,1-.36.49,4.26,4.26,0,0,1-1.23.6c-.33.13-.68.29-1,0a1.18,1.18,0,0,1-.34-1c0-.41.07-.79.12-1.19,0-.22.12-1,.3-1.14"/><path class="cls-2" d="M446.73,238.9c.28,1.2-1.06.57-1.43.21-.84-.81-2.62-2.49-1.46-3.77"/><path class="cls-4" d="M403.75,545.6c-1-10.71-23.33-36.57-32.63-43.65-14-10.66-24.71,4.47-42.23,2.08-25.93-3.55-37.59-5-63.91-2.31-13.58,1.39-26.76,5.06-39.85,8.88-11.31,3.29-24.83,5.2-35,11.24-12.29,7.31-12.48,17.89-12.17,30.44,0,1.1.06,2.25.09,3.4l-.16.61c.07.11.12.22.18.33.05,1.57.11,3.17.18,4.78l1.1,1.6c.18,4.53,2.44,8.75,3.88,13l.27.39a21.33,21.33,0,0,1,2.21,5.31l11.49,36.47c2.74,8.72,5.31,17.83,9.28,25.93,7,14.21,10.07,29.84,13.22,45.62a84.28,84.28,0,0,0,1.25,8.9c1.51,7.57,9,15.66,11.58,23.56,1.38,4.3,2,7.66,4.29,11.5s5.42,6.71,6.55,11.11c.76,3,2.56,7.35,4.75,9.52,3,2.94,8.44,3.26,6.17-2.32-.58-1.42-1.45-2.77-1.6-4.3-.4-4,4-6.88,4.71-10.82A12.32,12.32,0,0,0,257,732c-1.2-5.4-2.93-10.82-4-16.21-.57-3,.14-5.55,0-8.44-.26-5.61,3.32-11,5.49-16A49,49,0,0,0,261,684a6.79,6.79,0,0,0-.62-5.8,8.33,8.33,0,0,0-5-4.22,33.11,33.11,0,0,1-5.22-1.78c-2.87-1.39-5.88-2.68-8.68-4.27-.23-13.24,0-26.34.72-39.5,0-5-.12-9.91-.36-14.85A161.24,161.24,0,0,0,236.1,579c11.37,2.15,22.73,4.35,34.14,6q25.13,3.57,50.42,5.8c14.46,1.28,30.08,4.17,44.27.12,13.55-3.87,25.35-12.21,32.43-22.94C401.83,561.17,404.46,553.35,403.75,545.6Z"/><path d="M703.55,293c4.16,3.35,8,7.08,11.88,10.73l.33-2.55c-2.56,1.18-5.07,2.46-7.61,3.68-2.36,1.12-4.76,2.16-7.12,3.3a1.64,1.64,0,0,0-.59,2.22,1.67,1.67,0,0,0,2.22.58c2.36-1.14,4.76-2.18,7.13-3.3,2.54-1.22,5.05-2.5,7.61-3.68a1.63,1.63,0,0,0,.32-2.55c-3.9-3.64-7.72-7.37-11.88-10.72a1.66,1.66,0,0,0-2.29,0,1.62,1.62,0,0,0,0,2.29Z"/><path d="M558.44,290.74c-4.16,3.35-8,7.08-11.88,10.72a1.63,1.63,0,0,0,.33,2.55c2.56,1.18,5.06,2.46,7.61,3.68,2.36,1.12,4.76,2.16,7.12,3.3a1.67,1.67,0,0,0,2.22-.58,1.63,1.63,0,0,0-.58-2.22c-2.36-1.14-4.76-2.18-7.13-3.3-2.54-1.22-5-2.5-7.6-3.68l.32,2.55c3.9-3.65,7.73-7.38,11.89-10.73a1.63,1.63,0,0,0,0-2.29,1.66,1.66,0,0,0-2.3,0Z"/><path d="M713.59,300H550.24a1.63,1.63,0,0,0,0,3.25H713.59a1.63,1.63,0,0,0,0-3.25Z"/><text class="cls-5" transform="translate(542.32 205.54)"><tspan class="cls-6">H</tspan><tspan x="16.25" y="0">ead must s</tspan><tspan class="cls-6" x="142.16" y="0">t</tspan><tspan class="cls-7" x="151.96" y="0">a</tspan><tspan x="165.35" y="0">y</tspan><tspan x="2.21" y="33.91">a </tspan><tspan class="cls-8" x="21.52" y="33.91">s</tspan><tspan x="34.07" y="33.91">a</tspan><tspan class="cls-9" x="48.23" y="33.91">f</tspan><tspan x="56.3" y="33.91">e dis</tspan><tspan class="cls-6" x="110.33" y="33.91">t</tspan><tspan x="120.13" y="33.91">ance </tspan><tspan x="2.6" y="67.83">f</tspan><tspan class="cls-10" x="11.28" y="67.83">r</tspan><tspan x="21.4" y="67.83">om the boa</tspan><tspan class="cls-11" x="151.4" y="67.83">r</tspan><tspan x="161.36" y="67.83">d</tspan></text><path d="M97.35,227.85a68.34,68.34,0,0,0,2.26,33.88,81.51,81.51,0,0,0,15.44,27A88.38,88.38,0,0,0,127,300.4c1.49,1.2,3.62-.91,2.12-2.12-15.47-12.49-27.31-30.61-29.53-50.65a65,65,0,0,1,.69-19c.35-1.89-2.54-2.69-2.89-.8Z"/><path d="M122.78,285.81c1.69,4.63,2.92,9.41,4.25,14.16l1.45-1.9c-2.49.06-5,.24-7.47.34-2.31.1-4.62.1-6.94.2-1.92.09-1.93,3.09,0,3,2.32-.1,4.63-.1,6.94-.2,2.49-.1,5-.28,7.47-.34a1.52,1.52,0,0,0,1.44-1.9c-1.33-4.75-2.56-9.52-4.24-14.16a1.55,1.55,0,0,0-1.85-1.05,1.52,1.52,0,0,0-1,1.85Z"/><text class="cls-5" transform="translate(70.61 165.83)">It must be bo<tspan class="cls-12" x="150.8" y="0">l</tspan><tspan x="158.22" y="0">d, high </tspan><tspan x="0" y="33.91">and confident</tspan></text><path d="M97.35,227.85a68.34,68.34,0,0,0,2.26,33.88,81.51,81.51,0,0,0,15.44,27A88.38,88.38,0,0,0,127,300.4c1.49,1.2,3.62-.91,2.12-2.12-15.47-12.49-27.31-30.61-29.53-50.65a65,65,0,0,1,.69-19c.35-1.89-2.54-2.69-2.89-.8Z"/><path d="M122.78,285.81c1.69,4.63,2.92,9.41,4.25,14.16l1.45-1.9c-2.49.06-5,.24-7.47.34-2.31.1-4.62.1-6.94.2-1.92.09-1.93,3.09,0,3,2.32-.1,4.63-.1,6.94-.2,2.49-.1,5-.28,7.47-.34a1.52,1.52,0,0,0,1.44-1.9c-1.33-4.75-2.56-9.52-4.24-14.16a1.55,1.55,0,0,0-1.85-1.05,1.52,1.52,0,0,0-1,1.85Z"/><path class="cls-13" d="M95.79,61.4A36.74,36.74,0,0,1,104.16,38a34.44,34.44,0,1,0,.11,46.9A36.78,36.78,0,0,1,95.79,61.4ZM87.2,75.66H70.92L71,73.39l4.46-.58c.58,0,.81-.23.81-1,.08-10.05,0-19.6,0-19.6l-5.62,1.08c-.19-.31-1.12-2.46-.46-2.73l10.35-4,1,1s-.12,20.87,0,24.37c0,.77.19,1,.73,1l5.08.54Z"/><circle cx="130" cy="61.53" r="34.44"/><text class="cls-14" transform="translate(118.45 75.26)">2</text><text class="cls-15" transform="translate(177.42 73.13)"><tspan class="cls-16">N</tspan><tspan class="cls-17" x="20.46" y="0">e</tspan><tspan x="36.84" y="0">xt is </tspan><tspan class="cls-16" x="102.6" y="0">t</tspan><tspan x="114.51" y="0">a</tspan><tspan class="cls-18" x="131.73" y="0">k</tspan><tspan class="cls-19" x="147.45" y="0">e-off</tspan></text></svg>