<svg id="Layer_1" data-name="Layer 1" xmlns="http://www.w3.org/2000/svg" viewBox="0 0 780 1051.14"><defs><style>.cls-1{fill:#fff171;stroke-width:0.3px;}.cls-1,.cls-2,.cls-3,.cls-4,.cls-5,.cls-6,.cls-7{stroke:#fff;stroke-miterlimit:10;}.cls-2,.cls-3,.cls-6,.cls-7{fill:#d4a47c;}.cls-2{stroke-width:0.31px;}.cls-3{stroke-width:0.28px;}.cls-4{fill:#c6946f;stroke-width:0.27px;}.cls-5{fill:#005058;stroke-width:0.53px;}.cls-6{stroke-width:0.41px;}.cls-7{stroke-width:0.32px;}.cls-8{font-size:24.66px;}.cls-18,.cls-8{font-family:ABCSansBold, ABCSans;}.cls-9{letter-spacing:-0.01em;}.cls-10{letter-spacing:-0.03em;}.cls-11{letter-spacing:0.01em;}.cls-12{letter-spacing:-0.02em;}.cls-13{letter-spacing:-0.01em;}.cls-14{letter-spacing:-0.02em;}.cls-15{letter-spacing:-0.02em;}.cls-16,.cls-17{fill:#fff;}.cls-16{opacity:0.7;}.cls-17{font-size:38.5px;font-family:ABCSerifBold, ABCSerif;}.cls-18{font-size:30px;}.cls-19{letter-spacing:-0.01em;}.cls-20{letter-spacing:-0.02em;}.cls-21{letter-spacing:-0.01em;}.cls-22{letter-spacing:0em;}</style></defs><path class="cls-1" d="M461.4,427.44a102.16,102.16,0,0,1-3.55-10.15,96.15,96.15,0,0,1,.19,24.56c-1.11,9.89-3.41,19.85-7.6,28.27a39.44,39.44,0,0,1-3.5,5.81,27.65,27.65,0,0,1-2.1,2.55c-1.15,1.25-.67,3.14-1.14,4.86-.6,2.17,2,3.1,2.62,1a13.35,13.35,0,0,0,.43-3.28c5.42-5.89,8.87-14.5,11.13-23.11a111,111,0,0,0,3.53-30.07C461.41,427.7,461.4,427.57,461.4,427.44Z"/><path class="cls-2" d="M546.25,428.17c-1.45.71-2.92,0-4.41.1s-2.39.85-3.82,1.48c-3.15,1.39-6.43,3-9.67,4.15-3.46,1.2-8.21,3-10.05,6.51a63.89,63.89,0,0,0-2.45,6.53c-2.5-.14-5.19-.68-7.09-.76-3.06-.14-6.33.25-9.36-.15-1.89-.25-3.32-1.41-5.08-1.79s-3.05.08-4.71.15c-2.52.1-4.89-.48-7.39.08a48.28,48.28,0,0,0-6.5,2.48c-7.13,2.8-12.15,8.5-17.6,13.5-5.67,5.2-11.81,9.76-17.58,14.84-10.27,9-19.83,19.1-29.83,28.6-3.79,3.61-8.19,7.61-10.28,12.47-1.13,2.63-2,5.45-3,8.12-1.86,4.69-2.31,10.07-2.81,15.1-.26,2.51-28.06,13.13-27.18,15.46,1.13,3,14.16-.31,17.16-.4,30.88-.92,85.55-14.34,111.28-31.48,20.34-13.54,31.74-33.54,40.28-55.77l4.17-10.86c.55-1.43.91-3.23,1.84-4.45,1.23-1.63,5.84-4.55,7.81-3.44Z"/><path class="cls-3" d="M547.83,433.3c1.19-.44-.82,9.89.44,10.68s.2,2.3-.14,3.41c-.27.91-.09,1.83-.3,2.76a7.64,7.64,0,0,0-.47,2,6.51,6.51,0,0,0,1.84,4.37c1.42,1.17,3.47.84,5,1.79a5.8,5.8,0,0,1,1.5,1.7,2.77,2.77,0,0,1,1.25-1.21c3.66-1.82,7.7-1,11.6-1.49a19.78,19.78,0,0,0-.32-3.58,30.27,30.27,0,0,1-.35-5.63c0-1.7-.41-3.18.58-4.55.75-1.05,2.05-1.53,2.79-2.57a23,23,0,0,1,1.39-2.22,31.09,31.09,0,0,1,3.11-2.74c2.3-2,4.47-4.27,6.69-6.39a25.43,25.43,0,0,0,5.83-7.93,20.51,20.51,0,0,0,1.55-9.85,45.71,45.71,0,0,0-1.06-7.7A77.45,77.45,0,0,0,585,393.47c-1.68-3.91-5-7.67-8.08-10.52-2.3-2.11-4.17-4.48-6.74-6.36a26.47,26.47,0,0,0-8.69-3.79c-2.63-.73-4.67-2.16-7-3.5-1.14-.67-2.51-.8-3.73-1.46a30.67,30.67,0,0,0-4.44-2.13c-3-1-5.49.09-8.24,1.16-1.84.72-3.29,2-5.16,2.67a14.67,14.67,0,0,0-2.55,1.32c-.92.56-1.9.82-2.82,1.39-.45.27-.7.67-1.15,1s-.9.2-1.3.59a19.36,19.36,0,0,0-1.74,2.82,28.35,28.35,0,0,1-2.28,3.12,3.25,3.25,0,0,0-.27.32c-.06,0-.21-.06-.56,0a12.14,12.14,0,0,1-2.95,0c-2.53-.05-2.73-.5-5.62-.28a28.77,28.77,0,0,0-5.34.88,3.57,3.57,0,0,0-2.32,5,1.91,1.91,0,0,1,.16,1.31,4.92,4.92,0,0,1-1.58,3.27A19.64,19.64,0,0,0,500,392a19.11,19.11,0,0,0-3.5,4.66c-.74,1.41-.61,2.41-2.06,3.05-1,.45-2.13.86-3.19,1.27-2,.77-3.62,2.07-3.46,4.4a15.82,15.82,0,0,0,4.85,9.43c22.82,18.53,8.72,18.5,14.28,27.2,3.8,6,10.51,14.82,9.67,21.87"/><path d="M533.34,382.43c.09.37.14.74.2,1.11,0,.22.09.67-.08.85s-.06.09-.14,0-.09-.22-.13-.29a1.83,1.83,0,0,0-.18-.3c-.27-.37-.58-.71-.85-1.08-.16-.21-.34-.41-.49-.63-.87-1.4-1.31-3.14-2.34-4.43a7.46,7.46,0,0,0-4.05-2.21c.27-.47,1.1-2,1.69-1.93.84.13,2.2,1.91,2.95,2.37a6.78,6.78,0,0,1,2.89,3.74C533.07,380.56,533.12,381.52,533.34,382.43Z"/><path d="M573.2,453.79c0-2.62-.37-5.43,0-8,1.15-8.18,9.91-12.77,14.45-19.68,3.73-5.68,4.47-12.95,3.22-19.64s-4.32-12.88-7.75-18.75c-3.18-5.43-6.78-10.76-11.65-14.75-3.28-2.69-14-9.07-18.11-5.25s-1.19,13.74-5.05,18.56c-2,2.44-5,3.94-6.51,6.7a26,26,0,0,0-1.52,4.46c-.88,2.71-2.45,5.17-3.15,7.93s-.24,6.14,2.14,7.71a11.62,11.62,0,0,1,5.44-2.63c2-.24,2.08,1.08,2.7,3,.85,2.67.49,4.88-2.1,5.95s-5.62,1.62-7.39,3.79c-1.91,2.35-1.66,5.72-1.31,8.73.61,5.16,5.07,13.36,5.68,18.52,3.07.59,2.05.93,5.08,1.7,2.28.58,3-3.87,3.83-1.68a19.29,19.29,0,0,0,8.62,9.82c3.67,2,8.83,2.49,11.57-.67A8.71,8.71,0,0,0,573.2,453.79Z"/><path d="M552.42,367.75l.85.46.11-.19A3.28,3.28,0,0,0,552.42,367.75Z"/><path class="cls-3" d="M536.68,411.1c1.63-5.27,10.14-2.88,11.79.94a6.85,6.85,0,0,1-3.35,8.64c-3.23,1.46-7.15.15-10.47,1.4-1.75.66-3.35,2-5.22,1.89s-3-3.31-1.17-3.7"/><path d="M564.86,443.38a7.44,7.44,0,0,0,3.5.55,12.47,12.47,0,0,1,4.06.93,6.35,6.35,0,0,1,3.65,2.95,6.89,6.89,0,0,1,.63,4.15,6.72,6.72,0,0,1-1.34,3.54c-1,.92-3.18,1.31-4.41,1.83a7,7,0,0,1-4.77-.21,6.28,6.28,0,0,1-3.95-2.88,20.65,20.65,0,0,1-1.44-11c.19-1.82,2-3.51,3.52-4.48s4.19-2.15,6-2c3.48.26,5.1,4.28,5.53,7.21.26,1.76.34,3.56-1,4.95a10.39,10.39,0,0,1-4,2.29,19.11,19.11,0,0,1-5,1.59,6.74,6.74,0,0,1-2.75.1,22.38,22.38,0,0,0-3-.74,8.61,8.61,0,0,1-3.27-1.16,3.38,3.38,0,0,1-1.64-2.08,10.93,10.93,0,0,1-.75-3.08c-.06-.67.12-1.34.11-2,0-1.15,0-1.17,1.19-1.72"/><path d="M570,444.25c1-1.09,2.39-1.07,3.77-1a6.28,6.28,0,0,0,1.44,0,2,2,0,0,1,1.89.73c1.34,1.37,1.61,3.64,1.92,5.41a6.56,6.56,0,0,1,.17,2.29c-.12.7-.51,1.33-.62,2a4.31,4.31,0,0,1-.12,1.18c-.17.42-.52.72-.67,1.15a2.67,2.67,0,0,1-.5,1.11,10,10,0,0,1-1,.86,5.15,5.15,0,0,1-2,1.29,15.38,15.38,0,0,1-2.43.39,6.92,6.92,0,0,1-1.11-.09c-.46-.05-.9.07-1.35,0a6.47,6.47,0,0,1-3.21-1.77c-1.83-1.44-2.69-4-3.44-6.16a12,12,0,0,1-.59-5.23,28.48,28.48,0,0,1,.64-2.88,10.36,10.36,0,0,1,.79-2.61,8.84,8.84,0,0,1,1.84-2.37,20.37,20.37,0,0,1,2.44-2.12,6.52,6.52,0,0,1,3-.9,8.53,8.53,0,0,0,1.68.06,5.82,5.82,0,0,1,1.72-.25,6.93,6.93,0,0,1,5.3,2.64,22.76,22.76,0,0,1,2.43,3.81c.38.89.71,1.8,1.07,2.7a6.07,6.07,0,0,1,.4,3,4.32,4.32,0,0,1-.4,1.77,5.72,5.72,0,0,1-.79,1.56c-1.23,1.18-2.87,1.29-4.2,2.18a6.1,6.1,0,0,1-.75.56c-.45.22-.95.37-1.41.56a11.34,11.34,0,0,1-2.32.79,7.12,7.12,0,0,1-2.76,0,3.75,3.75,0,0,1-2.53-1.81,10.46,10.46,0,0,1-1.91-3.36,13.6,13.6,0,0,1-.38-5.12,10.42,10.42,0,0,1,1.5-5,11,11,0,0,1,1.62-2.21,11.71,11.71,0,0,1,2.12-1.25c1.54-.82,3.44-.44,5.08-.27a3.86,3.86,0,0,1,1.4.18c.21.16.29.65.39.89"/><path d="M550.74,445.25c1-1.09,2.39-1.07,3.77-1a6.28,6.28,0,0,0,1.44,0,2,2,0,0,1,1.89.72c1.34,1.38,1.61,3.65,1.92,5.42a6.56,6.56,0,0,1,.17,2.29c-.12.7-.51,1.33-.62,2a4.31,4.31,0,0,1-.12,1.18c-.17.42-.52.72-.67,1.15a2.67,2.67,0,0,1-.5,1.11,10,10,0,0,1-1,.86,5.15,5.15,0,0,1-2,1.29,15.38,15.38,0,0,1-2.43.39,8.3,8.3,0,0,1-1.11-.09c-.46-.05-.9.07-1.36,0a6.48,6.48,0,0,1-3.2-1.77c-1.83-1.44-2.69-4-3.44-6.16a12,12,0,0,1-.59-5.23,28.48,28.48,0,0,1,.64-2.88,10.36,10.36,0,0,1,.79-2.61,8.84,8.84,0,0,1,1.84-2.37,20.37,20.37,0,0,1,2.44-2.12,6.52,6.52,0,0,1,3-.9,8.53,8.53,0,0,0,1.68.06,5.82,5.82,0,0,1,1.72-.25,6.93,6.93,0,0,1,5.3,2.64,22.76,22.76,0,0,1,2.43,3.81c.38.89.7,1.8,1.07,2.7a6.07,6.07,0,0,1,.4,3,4.32,4.32,0,0,1-.4,1.77,5.72,5.72,0,0,1-.79,1.56c-1.23,1.18-2.87,1.29-4.2,2.18a6.1,6.1,0,0,1-.75.56c-.45.22-1,.37-1.41.56a11.34,11.34,0,0,1-2.32.79,7.12,7.12,0,0,1-2.76,0,3.75,3.75,0,0,1-2.53-1.81,10.46,10.46,0,0,1-1.91-3.36,13.6,13.6,0,0,1-.38-5.12,10.46,10.46,0,0,1,1.5-5,11.25,11.25,0,0,1,1.62-2.2,11.71,11.71,0,0,1,2.12-1.25c1.54-.82,3.44-.44,5.08-.27a3.86,3.86,0,0,1,1.4.18c.21.16.29.65.39.88"/><path class="cls-4" d="M382.22,480.65c4.72-25.74,6.7-37.33,5.21-63.74-.77-13.63-3.83-27-7.05-40.21-2.79-11.45-4.07-25-9.65-35.48-6.73-12.62-17.3-13.29-29.85-13.55-2.31-.05-4.73-.09-7.19-.11a24.72,24.72,0,0,0-4.36-1.44,8.28,8.28,0,0,1-5.26,1.43c-5.08-.36-9.76,2.24-14.46,3.81l-.4.28a21.26,21.26,0,0,1-5.31,2.18l-36.53,11.31c-8.73,2.7-17.86,5.24-26,9.17-14.8,7.17-31.13,10.16-47.57,13.36a.22.22,0,0,1,0,.08c-21.94,4.71-23.38,5.59-33.65,8.81-12.13,3.79-20.28,7.95-30.79,14.91a151.55,151.55,0,0,0-15.7,11.38c-4,3.44-10.56,6.13-13.49,10.46-2.34,3.47-1.67,8.88,3.4,5.63a16.37,16.37,0,0,1,3.94-2.35c3.84-1.12,7.5,2.67,11.5,2.66a12.45,12.45,0,0,0,4.73-1.31c5.09-2.16,10.11-4.85,15.21-6.87,2.8-1.1,5.48-.88,8.3-1.54,5.47-1.28,11.37,1.26,16.7,2.48a50.35,50.35,0,0,0,7.73,1.12,6.77,6.77,0,0,0,5.58-1.68,8.32,8.32,0,0,0,3.25-5.68,31.25,31.25,0,0,1,.79-5.46c.82-3,1.53-6.09,2.53-9,8.36-1.33,26.93-2,33-2.08,13.42-.19,26.69.16,40,.89,4.95,0,9.91-.07,14.84-.28A168.05,168.05,0,0,0,312,382.66c-2.81,11.89-5.71,23.76-8,35.72q-4.71,24.94-8.09,50.1c-1.94,14.39-5.54,29.86-2.13,44.22,3.24,13.71,11,25.88,21.44,33.44,6.56,4.78,14.26,7.76,22,7.4,10.74-.5,34.57-10.25,42-19.31C395.77,514,379,498,382.22,480.65Z"/><path class="cls-5" d="M468.33,463.24A10.7,10.7,0,0,0,465,461.7a21.91,21.91,0,0,1-4-2.21,35.35,35.35,0,0,1-7.25-6.1c-1.41-1.5-2.61-3.2-4.1-4.65-1.26-1.24-3-1.64-4.6-2.27l-.3-.66c-1-.4-2.37.69-3.24,1-1.86.73-3.79,1.16-5.62,2a40.93,40.93,0,0,0-3.62,2.29c-1.58.95-3.36,1.31-4.75,2.53a12.47,12.47,0,0,1-3.13,2.16c-1.59.72-3.07,1.76-4.67,2.44-3,1.27-6.27,1.74-9.22,3.16s-5.47,2.71-8.78,3.28c-1.44.24-2.8.7-4.23,1s-2.83.22-4.18.58-2.69,1.07-4,1.56a25.86,25.86,0,0,0-4.15,2.15c-.78.46-.3.47-1.88.66,0,3.86-3,7.89-3,11.74,1.22,20.44,5.27,42.59-9.66,57.31-9.54,9.4-20.78,13.09-35.06,12-2.44.4-10.43-1.44-13.07-1.32,24.91,8.54,37.39,8,55.1,6.47,17.46-1.53,11.4-2.93,15.32-7.17,1.28-1.38,2.63-2.54,3.88-3.92,2.62-2.9,6.33-5,9.59-7.07q5.46-3.57,11.1-6.84,9.09-5.28,18.58-9.77c5.91-2.79,11.6-6,17.51-8.82a58.32,58.32,0,0,1,5.36-2.54c1.33-.49,4.33-.6,5.21-1.78.71-1,0-3-.12-4.16-.11-1.4-.11-2.66-.11-4,0-3.39.68-6.69.55-10.05-.08-2,.51-3.5.7-5.39.15-1.48.31-2.88.56-4.36s.67-3,.93-4.55.68-2.68,1-4.08a34.65,34.65,0,0,0,.75-5.67C468.5,465.15,469.58,464.34,468.33,463.24Z"/><path class="cls-6" d="M522.22,474.61c5.84-5.77,2.27-18.76-1.25-25.08-4.34-7.78-11.81-13.24-19.55-17.32-6.81-3.6-12.94-6.38-20.69-6.17a57.9,57.9,0,0,1-15.84-1.56,63.12,63.12,0,0,1-14.56-5.79c-7.1-3.76-19.69-8.84-30.46-14.5a27.62,27.62,0,0,1-8.76-7.25c-24.08-30.17-37.33-40.78-54.54-67.59a9.52,9.52,0,0,1-.81-2.43c-.12-.9-.22-1.81-.31-2.72-.17-1.54-.34-3.05-.53-4.6a18,18,0,0,0-.23-2c-.13-.58-.41-1.17-.5-1.76l-.41-.71c-.16-.66-.24-1.36-.43-2a10,10,0,0,0-.72-1.75c-.12-.23-.23-.46-.34-.7s-.27-.8-.46-1.17a13.72,13.72,0,0,0-.79-1.47c-.33-.48-.78-.39-1.24-.47a1.49,1.49,0,0,1-1.1-.74c-.3-.48-.63-.92-.94-1.4-.2-.3-.34-.61-.55-.9s-.35-.53-.53-.78a16.17,16.17,0,0,1-1-1.84l-.49-.92a7.2,7.2,0,0,1-.33-.88,3.16,3.16,0,0,0-.39-.7c-.17-.25-.29-.55-.46-.79a3.85,3.85,0,0,0-1.26-1.19,1.37,1.37,0,0,0-.46-.21c-.22,0-.5,0-.73,0a6.36,6.36,0,0,1-1.51,0,7.26,7.26,0,0,1-1.31-.65l-1.18-.61c-.3-.15-.52-.39-.8-.56a2.66,2.66,0,0,1-.64-.35c-.16-.17-.36-.28-.53-.46s-.22-.3-.41-.4a7.18,7.18,0,0,0-1.1-.57c-.55-.19-.82.37-1.08.86a2.3,2.3,0,0,0-.24.86,9.46,9.46,0,0,0-.21,1.51.61.61,0,0,0,.07.38c.05.07.13.11.17.19s0,.21,0,.32a.79.79,0,0,0,.11.29,10.34,10.34,0,0,0,1.24,1.74c.52.6,1,1.18,1.58,1.75l.11.11c-.25-.21-.51-.42-.75-.65a11.07,11.07,0,0,1-1.37-1.52,15,15,0,0,0-1.15-1.74,1.85,1.85,0,0,1-.28-.28c-.18-.23-.37-.47-.57-.68a3.78,3.78,0,0,0-.43-.38,3.92,3.92,0,0,1-.39-.58,11,11,0,0,0-.83-1.16,8,8,0,0,0-1.8-1.78c-.21-.11-.29-.31-.46-.48a4.87,4.87,0,0,0-.5-.4,2,2,0,0,1-.45-.38,5.79,5.79,0,0,1-.42-.67c-.26-.41-.61-.74-.85-1.17s-.54-.83-.78-1.26a7.68,7.68,0,0,0-.75-1.16c-.13-.16-.32-.21-.46-.34s-.24-.28-.36-.4c-.3-.31-.6-.57-.89-.9a14.19,14.19,0,0,0-1-1.05c-.56-.55-1.1-1.14-1.63-1.77a5.69,5.69,0,0,0-1.84-1.08,2.21,2.21,0,0,0-2.24.29,3.22,3.22,0,0,0-1.3,1.85,2.13,2.13,0,0,0,0,1.12c-.07-.2-.19-.42-.28-.61a1.86,1.86,0,0,0-1-1,2.19,2.19,0,0,0-.49-.23,5.26,5.26,0,0,1-.66-.25,2.38,2.38,0,0,0-.69-.12c-.4,0-.58.18-.84.52a9.7,9.7,0,0,0-.84,1.52,3.35,3.35,0,0,0-.41,1.66,4,4,0,0,0,.81,1.76,20.33,20.33,0,0,0,1.3,1.93c.36.46.7.9,1,1.38a14.41,14.41,0,0,0,1.22,1.63c.49.55.75,1.4,1.2,2,.23.32.49.59.73.9s.35.57.55.82a7.24,7.24,0,0,1,1,1.92,6.94,6.94,0,0,0,.51,1,6.93,6.93,0,0,1,.43.75l-5.38-8.5a.86.86,0,0,0-.38-.51c-.11-.08-.14-.17-.23-.26a1.51,1.51,0,0,0-1.12-.29c-1,.08-1.41,1.4-1.6,2.44a3.86,3.86,0,0,0,.19,1.94c.23.67.32,1.38.54,2.05a5.38,5.38,0,0,0,.84,1.57,11.34,11.34,0,0,1,1,1.57,25.09,25.09,0,0,0,2.24,2.87l.61.84c.15.22.24.5.38.73.41.65.87,1.24,1.3,1.86a6.3,6.3,0,0,1,.61,1c.16.34.38.64.52,1s.35.71.53,1.06l-4.25-6.57c-.18-.09-.21-.55-.44-.46s-.23.14-.36.19-.28,0-.39.15a.77.77,0,0,0-.17.35c-.16.48-.43.89-.61,1.37a3.36,3.36,0,0,0-.14,1.45,4.56,4.56,0,0,0,.56,1.9c.16.3.21.64.36.95s.37.65.56,1,.36.52.5.79a7.91,7.91,0,0,0,.42.82c.21.3.34.66.54.95a4.55,4.55,0,0,1,.51.78,7.78,7.78,0,0,0,1,1.55c.3.38.48.92.78,1.32s.52.93.83,1.36.67,1,1,1.55c.13.19.32.31.45.52a8.2,8.2,0,0,0,.4.78c.32.46.57,1,.9,1.45s.71.65,1,1.05a12.19,12.19,0,0,1,.93,1.37,12.62,12.62,0,0,0,.84,1.06c.18.25.29.54.45.8a11.3,11.3,0,0,1,.65,1.19c.24.5.51.93.78,1.4a3.76,3.76,0,0,0,1,1,2.28,2.28,0,0,1,.49.69,7.84,7.84,0,0,0,.48.74,2,2,0,0,0,.3.49,3.43,3.43,0,0,1,.62.64,6.94,6.94,0,0,0,.51,1,10.83,10.83,0,0,0,1.59,1.13c.19.14.39.24.58.38a20.12,20.12,0,0,1,1.85,1.64,9.31,9.31,0,0,0,1.13,1.05c.37.24.7.35,1.06.63.88.69,1.88,1.17,2.77,1.88.27.22.49.54.77.74s.85.45,1.24.8a22.91,22.91,0,0,0,2.41,1.55c.89.6,1.69,1.33,2.54,2l.09,0c.31.12.61.2.92.29,5.79,14.05,11.28,28.34,18.53,41.39,5.61,10.1,8.64,23.09,16.31,31.83,6.47,7.38,10.08,7.84,17.89,13.33,3.94,2.77,7.36,6.4,11.87,8.19a141.91,141.91,0,0,1,26.48,14.51c6.6,4.42,13.19,8.95,20.46,12.23,7.53,3.39,15.85,4.88,23.05,9.06M320.51,292.65a6.28,6.28,0,0,1,1,1.08,6.58,6.58,0,0,0,1,1,4.78,4.78,0,0,1,.93,1.62,13.39,13.39,0,0,0,.78,1.51,30.33,30.33,0,0,1,2.16,3.08l-7.44-9.63a3.17,3.17,0,0,0,.49.48C319.79,292.09,320.14,292.37,320.51,292.65Zm-5.29-6.14a8,8,0,0,1,1.54,1.73c.18.3.34.62.51.93C316.43,288.07,315.72,287.15,315.22,286.51Zm6.72,29.85a8.63,8.63,0,0,1,1.26,1.94Zm1.93,2.85a3.85,3.85,0,0,1,.39.55Zm1.38,1.92c.07,0,.13,0,.13.1S325.34,321.22,325.25,321.13Zm-4.86-16.41c.06.07.13.14.18.21s.22.46.38.67a7.41,7.41,0,0,0,1.69,1.83c.38.24.31.71.57,1.17s.54,1.13.83,1.59c.57.92,1.12,1.4,1.69,2.33.27.46.61.68.78,1.24a7,7,0,0,1,.47,1.12c0-.08.31.77.27.69Zm17-1.77a3.22,3.22,0,0,0-.28-.24,2.06,2.06,0,0,1,1,.89C338,303.36,337.58,303.11,337.4,303Z"/><path class="cls-7" d="M341.05,302.1a3.2,3.2,0,0,0,1.11-.87c.2-.27.38-.58.56-.87s.33-.45.5-.68.68-.54.6-1.14"/><path class="cls-7" d="M340.16,300.32a7.57,7.57,0,0,1,.51-1.76c.07-.19.13-.38.2-.56s.3-.45.34-.68"/><path class="cls-7" d="M316.61,281.68a18.09,18.09,0,0,1,1.49,1.4,3.53,3.53,0,0,1,.43,1.08,3.62,3.62,0,0,1,.12,1.5,3.16,3.16,0,0,1-.45,1.16c-.61.67-1.47.06-2.07-.28a4.94,4.94,0,0,1-1-.76c-.13-.12-.21-.28-.34-.41a4.23,4.23,0,0,1-.76-.91"/><path class="cls-7" d="M311.63,282.94a13.38,13.38,0,0,1,1.11.91,2.2,2.2,0,0,1,.66,1.27c.08.39.08.8.16,1.19,0,.1.07.17.09.28a3.19,3.19,0,0,1-.06.53,2.42,2.42,0,0,1-.52,1.4c-.22.28-.57.66-.93.57a4.89,4.89,0,0,1-1-.53c-.25-.14-2.11-1.06-1.86-1.29a5,5,0,0,0-.18-.93"/><path class="cls-7" d="M311,291.14c.22.17.66.77.87,1a3.34,3.34,0,0,1,.7,1.09,3.92,3.92,0,0,1,.29.74,4.11,4.11,0,0,1,0,.78c0,.25-.18.35-.29.54a2.13,2.13,0,0,1-.31.47c-.11.13-.16.28-.29.37a1.27,1.27,0,0,1-.41.15,1,1,0,0,1-.83-.29,5.17,5.17,0,0,1-.75-1c-.12-.17-.25-.31-.37-.49a5.1,5.1,0,0,1-.46-.86c.14,0,.14-1.14.26-1"/><path class="cls-7" d="M323.19,300.21a4.9,4.9,0,0,1-.56,1.15,2.38,2.38,0,0,1-.94,1"/><path class="cls-7" d="M322.34,298.32a3.33,3.33,0,0,0-.56.36,2.91,2.91,0,0,0-.89.86,4.52,4.52,0,0,0-.68,1.5,1.51,1.51,0,0,1-.08.48"/><path class="cls-7" d="M320,308.7c-.18.23-.34.49-.52.72a.57.57,0,0,1,.27-.32"/><path class="cls-7" d="M321,309.33c-.35.46-.7.95-1.08,1.37a1.52,1.52,0,0,1-.52.43"/><path class="cls-7" d="M320.28,317.14a9.11,9.11,0,0,1-.55,1.57c-.08.18-.28.44-.23.66"/><path class="cls-7" d="M327.94,294.93c-.14.28-1,1.73-1.21,2-.59.87-.13.11-.17.2"/><path class="cls-7" d="M329.14,295.35a6.53,6.53,0,0,1-2.33,3.76c-.23.16-.28.54-.47.76"/><path class="cls-7" d="M314.28,304c.07.17.8,1.15.85,1.33a2.27,2.27,0,0,1,.11.78,7.15,7.15,0,0,1-.47,1.7c-.14.43-.29.89-.71,1a1.2,1.2,0,0,1-1-.61c-.29-.4-.55-.78-.82-1.2-.15-.23-.7-1-.65-1.33"/><path class="cls-7" d="M337.67,296c1.13.84-.36,1.5-.91,1.52-1.25.05-3.88.16-4-2.08"/><path class="cls-1" d="M469,507.5q-2.36-1.56-4.65-3.21a27,27,0,0,1,.2,3,2.87,2.87,0,0,1-.66,1.78,161.82,161.82,0,0,0,28.88,15.87c1.45-.83,2.7-1.91,4-2.86A161.07,161.07,0,0,1,469,507.5Z"/><path class="cls-1" d="M522.08,474.62c.08,8.91-1.33,17.87-3.05,26.58a70.39,70.39,0,0,1,5.77-8.69c.42-2.77.79-5.54,1.05-8.34a85,85,0,0,0-.53-20.84,36,36,0,0,0-1.18-5.19,31.16,31.16,0,0,1,.45,4.63,17,17,0,0,1-.39,3.73A21,21,0,0,1,522.08,474.62Z"/><path d="M699.81,396.51c3.6,3.38,6.85,7.09,10.18,10.73l.3-2.36c-2.2,1.18-4.33,2.46-6.51,3.68-2,1.12-4.09,2.16-6.1,3.3a1.5,1.5,0,0,0,1.51,2.59c2-1.14,4.08-2.18,6.1-3.3,2.18-1.22,4.32-2.5,6.51-3.68a1.52,1.52,0,0,0,.31-2.36c-3.33-3.63-6.58-7.34-10.17-10.72-1.41-1.32-3.54.8-2.13,2.12Z"/><path d="M633.29,393.51c-3.6,3.37-6.85,7.09-10.18,10.72a1.52,1.52,0,0,0,.31,2.36c2.19,1.18,4.33,2.46,6.51,3.67,2,1.13,4.08,2.17,6.1,3.3a1.5,1.5,0,0,0,1.51-2.59c-2-1.13-4.08-2.17-6.1-3.3-2.17-1.21-4.31-2.49-6.51-3.67l.31,2.35c3.32-3.63,6.57-7.34,10.17-10.72,1.41-1.33-.72-3.45-2.12-2.12Z"/><path d="M709.47,404c-2.45-.19-4.89-.52-7.34-.74-2.65-.24-5.3-.24-8-.24-5.37,0-10.74.05-16.11.05H628a1.5,1.5,0,0,0,0,3c21.39,0,42.79,0,64.18-.05,2.93,0,5.88-.07,8.81.14s5.64.62,8.48.84c1.92.14,1.91-2.86,0-3Z"/><text class="cls-8" transform="translate(542.32 205.54)"><tspan class="cls-9">H</tspan><tspan x="16.25" y="0">ead must s</tspan><tspan class="cls-9" x="142.16" y="0">t</tspan><tspan class="cls-10" x="151.96" y="0">a</tspan><tspan x="165.35" y="0">y</tspan><tspan x="2.21" y="33.91">a </tspan><tspan class="cls-11" x="21.52" y="33.91">s</tspan><tspan x="34.07" y="33.91">a</tspan><tspan class="cls-12" x="48.23" y="33.91">f</tspan><tspan x="56.3" y="33.91">e dis</tspan><tspan class="cls-9" x="110.33" y="33.91">t</tspan><tspan x="120.13" y="33.91">ance </tspan><tspan x="2.6" y="67.83">f</tspan><tspan class="cls-13" x="11.28" y="67.83">r</tspan><tspan x="21.4" y="67.83">om the boa</tspan><tspan class="cls-14" x="151.4" y="67.83">r</tspan><tspan x="161.36" y="67.83">d</tspan></text><path d="M97.35,227.85a68.34,68.34,0,0,0,2.26,33.88,81.51,81.51,0,0,0,15.44,27A88.38,88.38,0,0,0,127,300.4c1.49,1.2,3.62-.91,2.12-2.12-15.47-12.49-27.31-30.61-29.53-50.65a65,65,0,0,1,.69-19c.35-1.89-2.54-2.69-2.89-.8Z"/><path d="M122.78,285.81c1.69,4.63,2.92,9.41,4.25,14.16l1.45-1.9c-2.49.06-5,.24-7.47.34-2.31.1-4.62.1-6.94.2-1.92.09-1.93,3.09,0,3,2.32-.1,4.63-.1,6.94-.2,2.49-.1,5-.28,7.47-.34a1.52,1.52,0,0,0,1.44-1.9c-1.33-4.75-2.56-9.52-4.24-14.16a1.55,1.55,0,0,0-1.85-1.05,1.52,1.52,0,0,0-1,1.85Z"/><text class="cls-8" transform="translate(70.61 165.83)">It must be bo<tspan class="cls-15" x="150.8" y="0">l</tspan><tspan x="158.22" y="0">d, high </tspan><tspan x="0" y="33.91">and confident</tspan></text><path d="M97.35,227.85a68.34,68.34,0,0,0,2.26,33.88,81.51,81.51,0,0,0,15.44,27A88.38,88.38,0,0,0,127,300.4c1.49,1.2,3.62-.91,2.12-2.12-15.47-12.49-27.31-30.61-29.53-50.65a65,65,0,0,1,.69-19c.35-1.89-2.54-2.69-2.89-.8Z"/><path d="M122.78,285.81c1.69,4.63,2.92,9.41,4.25,14.16l1.45-1.9c-2.49.06-5,.24-7.47.34-2.31.1-4.62.1-6.94.2-1.92.09-1.93,3.09,0,3,2.32-.1,4.63-.1,6.94-.2,2.49-.1,5-.28,7.47-.34a1.52,1.52,0,0,0,1.44-1.9c-1.33-4.75-2.56-9.52-4.24-14.16a1.55,1.55,0,0,0-1.85-1.05,1.52,1.52,0,0,0-1,1.85Z"/><path class="cls-16" d="M95.79,61.4A36.74,36.74,0,0,1,104.16,38a34.44,34.44,0,1,0,.11,46.9A36.78,36.78,0,0,1,95.79,61.4ZM87.2,75.66H70.92L71,73.39l4.46-.58c.58,0,.81-.23.81-1,.08-10.05,0-19.6,0-19.6l-5.62,1.08c-.19-.31-1.12-2.46-.46-2.73l10.35-4,1,1s-.12,20.87,0,24.37c0,.77.19,1,.73,1l5.08.54Z"/><circle cx="130" cy="61.53" r="34.44"/><text class="cls-17" transform="translate(118.45 75.26)">2</text><text class="cls-18" transform="translate(177.42 73.13)"><tspan class="cls-19">N</tspan><tspan class="cls-20" x="20.46" y="0">e</tspan><tspan x="36.84" y="0">xt is </tspan><tspan class="cls-19" x="102.6" y="0">t</tspan><tspan x="114.51" y="0">a</tspan><tspan class="cls-21" x="131.73" y="0">k</tspan><tspan class="cls-22" x="147.45" y="0">e-off</tspan></text></svg>