<svg id="Layer_1" data-name="Layer 1" xmlns="http://www.w3.org/2000/svg" viewBox="0 0 780 1051.14"><defs><style>.cls-1{fill:#c6946f;stroke-width:0.23px;}.cls-1,.cls-2,.cls-4,.cls-5,.cls-6,.cls-7{stroke:#fff;stroke-miterlimit:10;}.cls-2,.cls-3,.cls-6,.cls-7{fill:#d4a47c;}.cls-2{stroke-width:0.28px;}.cls-4{fill:#005058;stroke-width:0.54px;}.cls-5{fill:#fff171;stroke-width:0.3px;}.cls-6{stroke-width:0.41px;}.cls-7{stroke-width:0.31px;}.cls-8{font-size:24.66px;}.cls-18,.cls-8{font-family:ABCSansBold, ABCSans;}.cls-9{letter-spacing:-0.01em;}.cls-10{letter-spacing:-0.03em;}.cls-11{letter-spacing:0.01em;}.cls-12{letter-spacing:-0.02em;}.cls-13{letter-spacing:-0.01em;}.cls-14{letter-spacing:-0.02em;}.cls-15{letter-spacing:-0.02em;}.cls-16,.cls-17{fill:#fff;}.cls-16{opacity:0.7;}.cls-17{font-size:38.5px;font-family:ABCSerifBold, ABCSerif;}.cls-18{font-size:30px;}.cls-19{letter-spacing:-0.01em;}.cls-20{letter-spacing:-0.02em;}.cls-21{letter-spacing:-0.01em;}.cls-22{letter-spacing:0em;}</style></defs><path class="cls-1" d="M478.23,520.57a1.09,1.09,0,0,0,0-.18l-2.66-31c-.8-9.33-1.34-19-3.49-28-3.62-15-3.44-30.6-3.09-46.36l.14.15a.67.67,0,0,1-.14-.34l0-1.37a.92.92,0,0,0,0-.16c.43-3.51,2.57-10.7,2.81-12.14,1.34-8,2.72-16.6,1.09-24.83-1.79-9.07-6.2-17.42-7.66-26.58-.95-5.93-6.1-10.06-7-16.08-.4-2.6-1.56-6.47-3.25-8.49-2.3-2.75-6.9-3.48-5.43,1.46a14.16,14.16,0,0,1,1,3.79c0,3.42-4,5.52-4.91,8.81a10.55,10.55,0,0,0,0,4.19c.57,4.69,1.59,9.45,2,14.12.24,2.56-.57,4.71-.7,7.18-.22,4.55-3.37,8.59-5.63,12.49a19.13,19.13,0,0,0-.91,1.81c-2.31,5.05-3.37,6.68-2.32,9.43a8.47,8.47,0,0,0,4.9,4.79,22.08,22.08,0,0,1,3.48,1.62l1.27.76c-.41,8.49-3.86,27.78-5.12,34-2.73,13.53-6,26.78-9.59,40l0,.08c-.19.9,2,13.76,1.8,14.66-4.61-9.52-5.22-20.15-11.39-29-8.7-12.43-17.77-24.56-26.83-36.73-8.83-11.53-17.25-25-29.83-32.71-12-7.38-26.13-10.44-38.82-8.41-8,1.28-15.56,4.63-20.79,10.4-7.23,8-17.14,31.73-15.94,43.36,2.7,26,25.8,25.38,35.87,39.91C342,492.83,340.63,490,360.4,507.59c10.2,9.07,27.7,20.67,39,30.79,8.71,7.78,23,19.61,34.23,23.09,12.58,6,36.8-4.31,41.18-17.4,2-6,1.49-12.53,2.86-18.71l.38-1.76a2.34,2.34,0,0,0,0-.26Z"/><path class="cls-2" d="M344.16,619.57c-.33,1.23-7.51-6.47-8.89-5.92s-2-1.19-2.68-2.11c-.58-.76-1.43-1.15-2.06-1.87a8,8,0,0,0-1.34-1.56,6.51,6.51,0,0,0-4.62-1.07c-1.79.46-2.73,2.31-4.37,3a5.74,5.74,0,0,1-2.26.22,2.7,2.7,0,0,1,.24,1.72c-.67,4-3.73,6.81-5.6,10.27a19.72,19.72,0,0,0,3.08,1.84,30,30,0,0,1,4.76,3c1.36,1,2.82,1.53,3.34,3.13.41,1.23,0,2.56.45,3.78a25.5,25.5,0,0,1,1,2.42,33.58,33.58,0,0,1,.39,4.12c.27,3.05.83,6.14,1.24,9.18a25.6,25.6,0,0,0,3,9.37,20.51,20.51,0,0,0,7.06,7,45.1,45.1,0,0,0,6.86,3.66A76.33,76.33,0,0,0,354.59,673c4.15.92,9.13.47,13.25-.37,3.06-.62,6.08-.75,9.11-1.72a26.25,26.25,0,0,0,8.17-4.81c2.14-1.7,4.5-2.5,6.91-3.56,1.22-.53,2.13-1.56,3.38-2.17a29.64,29.64,0,0,0,4.33-2.34c2.58-1.84,3.15-4.49,3.9-7.35.51-1.91.34-3.82.87-5.74a14.22,14.22,0,0,0,.43-2.84c.08-1.07.46-2,.54-3.1,0-.52-.14-1-.12-1.5s.37-.84.29-1.4a20,20,0,0,0-1.26-3.06,27.2,27.2,0,0,1-1.19-3.68,2.79,2.79,0,0,0-.1-.4c.07,0,.17-.14.33-.46a13,13,0,0,1,1.7-2.42c1.53-2,2-1.9,3.52-4.37a28.62,28.62,0,0,0,2.44-4.84,3.58,3.58,0,0,0-2.71-4.83,2,2,0,0,1-1.16-.64,5,5,0,0,1-1.72-3.21,12.47,12.47,0,0,0-1.52-8.72c-.7-1.43-1.6-1.91-1.25-3.46.24-1.11.55-2.23.84-3.33.55-2.07.45-4.14-1.53-5.38a15.76,15.76,0,0,0-10.48-1.61c-28.4,7.58-20.1-3.82-30.4-4.43-7.05-.41-18.17-.19-23.38-5"/><path d="M393.85,637.72c-.35-.14-.68-.32-1-.49-.19-.1-.59-.32-.64-.56s0-.1.07-.13.23.06.31.08l.35,0c.46,0,.92,0,1.38-.06.26,0,.52,0,.79,0,1.65.11,3.32.77,5,.7a7.44,7.44,0,0,0,4.17-2c.22.49,1,2.07.56,2.5-.59.6-2.83.66-3.64,1a6.81,6.81,0,0,1-4.73.13C395.52,638.6,394.72,638.08,393.85,637.72Z"/><path d="M312.69,628.07c2.08,1.58,4.6,2.89,6.47,4.69,5.95,5.74,4.52,15.52,7.45,23.25,2.4,6.36,7.85,11.23,14,14.15s13,4.07,19.73,4.73c6.27.62,12.69.84,18.79-.76,4.1-1.07,15.55-6,14.88-11.57s-10.42-9-12.05-15c-.83-3-.24-6.38-1.6-9.2a25.53,25.53,0,0,0-2.72-3.85c-1.67-2.3-2.74-5-4.56-7.21s-4.84-3.8-7.5-2.8a11.69,11.69,0,0,1-1.06,6c-1,1.78-2.1,1-4,.41-2.66-.88-4.24-2.47-3.58-5.2s2-5.49,1.27-8.2c-.77-2.93-3.65-4.7-6.29-6.18-4.54-2.55-13.79-3.75-18.33-6.29-2.28,2.13-2,1.11-4.35,3.11-1.82,1.51,1.38,4.68-.9,4.09a19.27,19.27,0,0,0-13,1.21c-3.78,1.79-7.2,5.68-6.26,9.75A8.78,8.78,0,0,0,312.69,628.07Z"/><path d="M394.52,661.78l-.87.42a1.89,1.89,0,0,1,.09.21A2.81,2.81,0,0,0,394.52,661.78Z"/><path d="M326,627.43a7.53,7.53,0,0,0-2.51,2.51,12.18,12.18,0,0,1-3.13,2.74,6.35,6.35,0,0,1-4.53,1.23,7.07,7.07,0,0,1-3.73-1.93,6.82,6.82,0,0,1-2.08-3.17c-.16-1.34.81-3.34,1.12-4.64a7,7,0,0,1,3-3.74c1.34-1,3-1.82,4.65-1.51a20.64,20.64,0,0,1,9.73,5.29c1.37,1.22,1.65,3.71,1.57,5.48s-.73,4.65-1.91,6c-2.25,2.67-6.46,1.61-9.08.24-1.58-.82-3.08-1.81-3.43-3.7a10.38,10.38,0,0,1,.5-4.58,18.76,18.76,0,0,1,1.65-5,6.85,6.85,0,0,1,1.54-2.29,21.76,21.76,0,0,0,2.36-2,8.44,8.44,0,0,1,2.86-2,3.35,3.35,0,0,1,2.65-.11,10.84,10.84,0,0,1,2.93,1.2c.58.34,1,.88,1.56,1.26.95.66.94.71.7,2"/><path d="M322.27,631.11c.27,1.48-.54,2.56-1.44,3.61a7.28,7.28,0,0,0-.88,1.15,1.93,1.93,0,0,1-1.69,1.1c-1.89.28-3.89-.83-5.51-1.62a6.47,6.47,0,0,1-1.94-1.21c-.5-.51-.79-1.2-1.28-1.69-.29-.29-.66-.42-.89-.79s-.27-.84-.53-1.22a2.44,2.44,0,0,1-.6-1.06,7.94,7.94,0,0,1-.13-1.29,5.22,5.22,0,0,1,.11-2.36,15.06,15.06,0,0,1,1.12-2.19,5.3,5.3,0,0,1,.73-.84c.3-.35.47-.78.76-1.12a6.44,6.44,0,0,1,3.32-1.56c2.24-.63,4.84.19,7,.84a12.09,12.09,0,0,1,4.58,2.59c.71.7,1.31,1.45,1.95,2.21a10.54,10.54,0,0,1,1.65,2.17,8.81,8.81,0,0,1,.83,2.89,19.37,19.37,0,0,1,.29,3.22,6.44,6.44,0,0,1-1.05,3,9.53,9.53,0,0,0-1,1.32,5.41,5.41,0,0,1-.81,1.54,6.9,6.9,0,0,1-5.25,2.74,22,22,0,0,1-4.51-.27c-.94-.21-1.87-.49-2.81-.71a6.27,6.27,0,0,1-2.7-1.47,4.34,4.34,0,0,1-1.19-1.37,5.32,5.32,0,0,1-.8-1.55c-.23-1.68.64-3.08.7-4.68a5.87,5.87,0,0,1,0-.94c.09-.49.26-1,.38-1.47a10.33,10.33,0,0,1,.72-2.33,7,7,0,0,1,1.64-2.23,3.77,3.77,0,0,1,2.95-1,10.44,10.44,0,0,1,3.84.42,13.75,13.75,0,0,1,4.36,2.7,10.36,10.36,0,0,1,3.16,4.15,6.38,6.38,0,0,1,.6,5.05c-.24,1.74-1.66,3.06-2.76,4.28-.22.24-.64.92-1,1s-.7-.14-.94-.2"/><path d="M332.79,614.91c.27,1.48-.54,2.56-1.44,3.61a6.68,6.68,0,0,0-.87,1.15,1.94,1.94,0,0,1-1.69,1.1c-1.9.28-3.9-.83-5.52-1.62a6.47,6.47,0,0,1-1.94-1.21c-.5-.51-.79-1.19-1.28-1.69-.29-.29-.66-.42-.89-.79s-.27-.84-.53-1.22a2.59,2.59,0,0,1-.6-1.06,9.24,9.24,0,0,1-.13-1.29,5.09,5.09,0,0,1,.12-2.36,14.07,14.07,0,0,1,1.11-2.19,5.78,5.78,0,0,1,.73-.84c.3-.35.47-.78.77-1.12a6.53,6.53,0,0,1,3.31-1.56c2.24-.63,4.84.19,7,.84a12,12,0,0,1,4.58,2.59c.71.7,1.31,1.45,2,2.21a10.54,10.54,0,0,1,1.65,2.17,8.81,8.81,0,0,1,.83,2.89,19.47,19.47,0,0,1,.29,3.22,6.54,6.54,0,0,1-1,3,7.87,7.87,0,0,0-1,1.33,5.8,5.8,0,0,1-.82,1.53,6.87,6.87,0,0,1-5.25,2.74,21.87,21.87,0,0,1-4.5-.27c-.95-.21-1.88-.49-2.82-.71a6.27,6.27,0,0,1-2.7-1.47,4.25,4.25,0,0,1-1.19-1.37,5.44,5.44,0,0,1-.8-1.55c-.23-1.68.65-3.08.71-4.68a5.85,5.85,0,0,1,0-.94c.09-.49.26-1,.38-1.46a10.25,10.25,0,0,1,.72-2.34,7,7,0,0,1,1.64-2.23,3.77,3.77,0,0,1,3-1,10.24,10.24,0,0,1,3.84.43,13.7,13.7,0,0,1,4.37,2.69,10.54,10.54,0,0,1,3.16,4.15,11.74,11.74,0,0,1,.83,2.6,11.89,11.89,0,0,1-.23,2.45c-.24,1.74-1.67,3.06-2.77,4.28-.22.24-.64.92-1,1s-.7-.15-.94-.21"/><path class="cls-2" d="M368.69,623.58c3.3,4.42-3.63,9.9-7.7,9a6.86,6.86,0,0,1-5-7.79c.73-3.47,4.08-5.88,5-9.29.5-1.81.33-3.9,1.54-5.33s4.44-.5,3.68,1.22"/><path class="cls-3" d="M357.13,611.28c2.33-2.84,2.74-18.51,3.85-22,1-3,.72-6.4.9-9.55.13-2.32-.58-4.49-.55-6.8,0-1.34-.32-2.57-.24-3.93a10.39,10.39,0,0,0-.4-3.08c-.47-1.9-.83-3.81-1.28-5.71-.28-1.17-.76-2.29-1-3.47-.55-3.41-2-6.54-2.95-9.86-.87-3-1.8-5.92-2.44-8.9-.49-2.31-1.66-4.19-2.6-6.31a9.41,9.41,0,0,0-2.23-3.72c-.82-.8-1.06-1.84-1.71-2.77a28.73,28.73,0,0,0-2.46-2.73c-2.1-2.31-4.11-4.71-6.18-7-3.08-3.47-5.36-7.63-8.09-11.36-2.41-3.28-4.89-6.53-7.09-9.95-3.13-4.83-6.8-9.19-10.12-13.9-5.19-7.39-11.62-13.62-18.28-19.67a57.11,57.11,0,0,0-5.77-5.11c-2-1.38-.45-18-2.68-19-9.07-3.8-10.47,20.45-10.86,25.06-.16,1.89-.37,3.78-.61,5.67-1.89,14.88-5.8,29.6-5.76,44.64a129.25,129.25,0,0,0,6.78,39.69,106,106,0,0,0,7.78,17.57c2.56,4.64,5.85,12,10,15.37,3.23,2.62,6.55,5.12,9.77,7.67a67.75,67.75,0,0,0,10.13,7.1c2.89,1.53,5.56,3.27,8.74,4.13a80.8,80.8,0,0,1,8,2.05c1.77.68-4.09-.88-2.11-.67"/><path class="cls-4" d="M361.12,497.25a33.92,33.92,0,0,1,.25-17.72,24.3,24.3,0,0,1,1.7-4.12c.47-.89.61-.86.09-1.66a8.86,8.86,0,0,0-1.47-1.53c-.59-.56-10.64,16.11-11.33,15.7-15.79-9.34-26.52-24.55-34.65-40.65-4-7.93-8.89-16.84-11.19-25.45-2.19-8.23,1-15.38,3.39-23.46a50,50,0,0,1,7.63-15.87c.23-.31.48-.58.73-.87-2.22.93-4.49,1.74-6.68,2.75a34,34,0,0,0-7.1,4.67c-4.42,3.58-5.32,6.11-9,10.43A66.48,66.48,0,0,0,283.27,417a84.12,84.12,0,0,0-5,19.94c-.18,1.34-1.53,8.73-1.32,10.07.26,1.65,2.15,4.45,2.89,5.93,10.91,21.56,12.57,46.79,19.65,70a5.25,5.25,0,0,0,1.55,2.8,5,5,0,0,0,2.82.72,162.33,162.33,0,0,1,45.76,9.3,7.6,7.6,0,0,1,3.36,1.93,3,3,0,0,1,.32,3.69q2.7-4.18,5.62-8.21"/><path d="M324.44,605.68c-1.77.19-3.46-.27-5.24,0a16.71,16.71,0,0,0-4.82,1.86,5.85,5.85,0,0,0-3.15,3.75c-.6,1.76-1.15,3.54-.37,5.26,1.67,3.7,4.16,6.16,8.31,7,1.38.29,11.3,1.54,9.81-1.86"/><path class="cls-5" d="M302.65,526.06c-.14,0-.29-.07-.42-.12a4.28,4.28,0,0,1-.77-.39,2.48,2.48,0,0,1-.26-.19,4.68,4.68,0,0,1-.55-.54,1.46,1.46,0,0,1-.32-.42,1.67,1.67,0,0,1-.27-.63q-.1-.3-.18-.6a1.65,1.65,0,0,1,0-.31c-5,5.79-9,14.09-11.64,24.66a123.53,123.53,0,0,0-3.29,22.61s-.28,2.77-.2,2.19c1.74,3,2,3.91,3.75,6.4.07-1,.39-3.8.47-4.72.1-1.31.2-2.52.26-3.56a119.67,119.67,0,0,1,3.16-21.78c1.82-7.35,5-16.23,10.41-22.58Z"/><path class="cls-6" d="M325.33,544.85c.32,6.73-.09,13.48,0,20.21.26,13.85,3.42,21.79,16.78,27.44a19.27,19.27,0,0,0,15.36.12,19.83,19.83,0,0,0,7.37-5.82,46.07,46.07,0,0,0,9.87-22.51c.94-7.65,1.37-14.37-1.57-21.54A57.88,57.88,0,0,1,369,527.39a63.72,63.72,0,0,1,.24-15.67,63.19,63.19,0,0,0,.4-13.87c28.88,2.61,52.37-4.34,78.42-3.23,3.58,2.9,6.74,6.3,10.14,9.4a85.07,85.07,0,0,0,6.56,5.89c2.48,1.85,4.62,2.22,7.43,3.08,2.4.73,4.2-.25,6.35,1.06a3.37,3.37,0,0,0,.73.32c.28.09.56.25.84.34a3.81,3.81,0,0,0,1.72.19,1.65,1.65,0,0,0,.5-.11c.19-.12.39-.32.57-.46a6.71,6.71,0,0,1,1.23-.88,6.58,6.58,0,0,1,1.43-.27,22.2,22.2,0,0,1,2.72-.32,10.31,10.31,0,0,0,2.78-.16c.55-.19.43-.79.34-1.35a2.52,2.52,0,0,0-.33-.82c-.16-.32-.32-.63-.5-.93-.4-.31-.79-.64-1.17-1a.8.8,0,0,1-.15-.17,10.36,10.36,0,0,0-2-.61c-.78-.17-1.55-.31-2.32-.44l-7-.52c.33,0,7.49.53,7.82.57a9.91,9.91,0,0,1,2,.37c.48.15.94.38,1.42.54a.66.66,0,0,1,0-.71,3.93,3.93,0,0,0,.4-3.61c-.4-1.16-.93-2.25-1.23-3.45a.72.72,0,0,1,.4-.75,2.7,2.7,0,0,0,1.81-2.93,7.56,7.56,0,0,0-1.65-3.31.57.57,0,0,1-.12-.26l-5-1.89c.08,0-5.86-2-2.49-1l7.5,2.73a.6.6,0,0,1,.39-.64,1.79,1.79,0,0,0,1.21-1.7c-.07-1.66-.76-1.48-1.09-2.23a2.65,2.65,0,0,1-.05-2.56,1.73,1.73,0,0,0,.22-1.84,8,8,0,0,0-.76-1.16c-.81-.3-1.63-.51-2.42-.85-1.73-.74-3.58-.93-5.35-1.52-1.94-.64-3.83-1.41-5.78-2.05-.74-.24-1.49-.49-2.25-.69-4.51-1.17-9.37-.68-14-.6-.51,0-.94.16-1.47.13a17.16,17.16,0,0,0-2.7.21c-11.41-3.79-22.83-7.54-34.39-9.84-16.74-3.35-34.27-3.81-51.12-.33-.7.14-1.39.31-2.07.49-3.75,1-7.22,2.5-10.93,3.75-2.51.85-4.8,2.36-7.11,2.41a11.79,11.79,0,0,0-6.32,1.9c-5.33,3.54-6.73,10.63-7.51,17C333.78,505.85,324.73,532,325.33,544.85Z"/><path class="cls-7" d="M480.56,510.43a3.23,3.23,0,0,0-.35,1.32c0,.32,0,.65.08,1s0,.54,0,.81c0,.45-.22.8.21,1.22"/><path class="cls-7" d="M482.33,511.26a7.15,7.15,0,0,1,.64,1.64c.06.18.13.36.18.54a5.12,5.12,0,0,0,.13.72"/><path class="cls-7" d="M486.59,512.77c-1.39,0-.35-1,.08-1.37,1-.77,2.95-2.39,4.37-.75"/><path class="cls-7" d="M489.36,488.25a32.9,32.9,0,0,0-5.38-1.57,7.66,7.66,0,0,0-.94-.25c-.36,0-2.87-.7-3.23-.79-.54-.13,9.38,2.18,8.89,2"/><path class="cls-7" d="M488.82,501.09c-.64-.27-2.14-.67-2.81-.87-.38-.12-7-2.45-7.42-2.57s10.19,3.13,9.81,3"/><path class="cls-5" d="M297.7,588.11l3.32,2.75c1,.83,2.06,1.53,3.09,2.31a97.83,97.83,0,0,0,43.24,2.54,24.35,24.35,0,0,0,8.59-2.79A13.78,13.78,0,0,1,350.4,594a14.6,14.6,0,0,1-3.6-.12,16.49,16.49,0,0,1-5.19-1.59c-2.78.33-5.59.57-8.37.66a96.08,96.08,0,0,1-32.85-5.16c-1.88-.62-3.94-1.41-5.79-2.14C295.21,586.17,296.87,587.42,297.7,588.11Z"/><path d="M699.81,618.27c3.6,3.38,6.85,7.09,10.18,10.73l.3-2.36c-2.2,1.18-4.33,2.47-6.51,3.68-2,1.13-4.09,2.17-6.1,3.3a1.5,1.5,0,0,0,1.51,2.59c2-1.13,4.08-2.17,6.1-3.3,2.18-1.21,4.32-2.5,6.51-3.68a1.51,1.51,0,0,0,.31-2.35c-3.33-3.64-6.58-7.35-10.17-10.73-1.41-1.32-3.54.8-2.13,2.12Z"/><path d="M633.29,615.27c-3.6,3.38-6.85,7.09-10.18,10.72a1.52,1.52,0,0,0,.31,2.36c2.19,1.18,4.33,2.46,6.51,3.68,2,1.12,4.08,2.16,6.1,3.3a1.5,1.5,0,0,0,1.51-2.59c-2-1.14-4.08-2.18-6.1-3.3-2.17-1.22-4.31-2.5-6.51-3.68l.31,2.35c3.32-3.63,6.57-7.34,10.17-10.72,1.41-1.32-.72-3.44-2.12-2.12Z"/><path d="M709.47,625.73c-2.45-.18-4.89-.52-7.34-.74-2.65-.24-5.3-.24-8-.24-5.37,0-10.74,0-16.11,0H628a1.5,1.5,0,0,0,0,3c21.39,0,42.79.05,64.18,0,2.93,0,5.88-.07,8.81.15s5.64.62,8.48.83c1.92.14,1.91-2.86,0-3Z"/><text class="cls-8" transform="translate(542.32 205.54)"><tspan class="cls-9">H</tspan><tspan x="16.25" y="0">ead must s</tspan><tspan class="cls-9" x="142.16" y="0">t</tspan><tspan class="cls-10" x="151.96" y="0">a</tspan><tspan x="165.35" y="0">y</tspan><tspan x="2.21" y="33.91">a </tspan><tspan class="cls-11" x="21.52" y="33.91">s</tspan><tspan x="34.07" y="33.91">a</tspan><tspan class="cls-12" x="48.23" y="33.91">f</tspan><tspan x="56.3" y="33.91">e dis</tspan><tspan class="cls-9" x="110.33" y="33.91">t</tspan><tspan x="120.13" y="33.91">ance </tspan><tspan x="2.6" y="67.83">f</tspan><tspan class="cls-13" x="11.28" y="67.83">r</tspan><tspan x="21.4" y="67.83">om the boa</tspan><tspan class="cls-14" x="151.4" y="67.83">r</tspan><tspan x="161.36" y="67.83">d</tspan></text><path d="M97.35,227.85a68.34,68.34,0,0,0,2.26,33.88,81.51,81.51,0,0,0,15.44,27A88.38,88.38,0,0,0,127,300.4c1.49,1.2,3.62-.91,2.12-2.12-15.47-12.49-27.31-30.61-29.53-50.65a65,65,0,0,1,.69-19c.35-1.89-2.54-2.69-2.89-.8Z"/><path d="M122.78,285.81c1.69,4.63,2.92,9.41,4.25,14.16l1.45-1.9c-2.49.06-5,.24-7.47.34-2.31.1-4.62.1-6.94.2-1.92.09-1.93,3.09,0,3,2.32-.1,4.63-.1,6.94-.2,2.49-.1,5-.28,7.47-.34a1.52,1.52,0,0,0,1.44-1.9c-1.33-4.75-2.56-9.52-4.24-14.16a1.55,1.55,0,0,0-1.85-1.05,1.52,1.52,0,0,0-1,1.85Z"/><text class="cls-8" transform="translate(70.61 165.83)">It must be bo<tspan class="cls-15" x="150.8" y="0">l</tspan><tspan x="158.22" y="0">d, high </tspan><tspan x="0" y="33.91">and confident</tspan></text><path d="M97.35,227.85a68.34,68.34,0,0,0,2.26,33.88,81.51,81.51,0,0,0,15.44,27A88.38,88.38,0,0,0,127,300.4c1.49,1.2,3.62-.91,2.12-2.12-15.47-12.49-27.31-30.61-29.53-50.65a65,65,0,0,1,.69-19c.35-1.89-2.54-2.69-2.89-.8Z"/><path d="M122.78,285.81c1.69,4.63,2.92,9.41,4.25,14.16l1.45-1.9c-2.49.06-5,.24-7.47.34-2.31.1-4.62.1-6.94.2-1.92.09-1.93,3.09,0,3,2.32-.1,4.63-.1,6.94-.2,2.49-.1,5-.28,7.47-.34a1.52,1.52,0,0,0,1.44-1.9c-1.33-4.75-2.56-9.52-4.24-14.16a1.55,1.55,0,0,0-1.85-1.05,1.52,1.52,0,0,0-1,1.85Z"/><path class="cls-16" d="M95.79,61.4A36.74,36.74,0,0,1,104.16,38a34.44,34.44,0,1,0,.11,46.9A36.78,36.78,0,0,1,95.79,61.4ZM87.2,75.66H70.92L71,73.39l4.46-.58c.58,0,.81-.23.81-1,.08-10.05,0-19.6,0-19.6l-5.62,1.08c-.19-.31-1.12-2.46-.46-2.73l10.35-4,1,1s-.12,20.87,0,24.37c0,.77.19,1,.73,1l5.08.54Z"/><circle cx="130" cy="61.53" r="34.44"/><text class="cls-17" transform="translate(118.45 75.26)">2</text><text class="cls-18" transform="translate(177.42 73.13)"><tspan class="cls-19">N</tspan><tspan class="cls-20" x="20.46" y="0">e</tspan><tspan x="36.84" y="0">xt is </tspan><tspan class="cls-19" x="102.6" y="0">t</tspan><tspan x="114.51" y="0">a</tspan><tspan class="cls-21" x="131.73" y="0">k</tspan><tspan class="cls-22" x="147.45" y="0">e-off</tspan></text></svg>