<svg id="Layer_1" data-name="Layer 1" xmlns="http://www.w3.org/2000/svg" viewBox="0 0 780 1051.14"><defs><style>.cls-1{fill:#c6946f;stroke-width:0.23px;}.cls-1,.cls-2,.cls-4,.cls-5,.cls-6,.cls-7{stroke:#fff;stroke-miterlimit:10;}.cls-2,.cls-3,.cls-6,.cls-7{fill:#d4a47c;}.cls-2{stroke-width:0.28px;}.cls-4{fill:#005058;stroke-width:0.54px;}.cls-5{fill:#fff171;stroke-width:0.3px;}.cls-6{stroke-width:0.41px;}.cls-7{stroke-width:0.31px;}.cls-8{font-size:24.66px;}.cls-18,.cls-8{font-family:ABCSansBold, ABCSans;}.cls-9{letter-spacing:-0.01em;}.cls-10{letter-spacing:-0.03em;}.cls-11{letter-spacing:0.01em;}.cls-12{letter-spacing:-0.02em;}.cls-13{letter-spacing:-0.01em;}.cls-14{letter-spacing:-0.02em;}.cls-15{letter-spacing:-0.02em;}.cls-16,.cls-17{fill:#fff;}.cls-16{opacity:0.7;}.cls-17{font-size:38.5px;font-family:ABCSerifBold, ABCSerif;}.cls-18{font-size:30px;}.cls-19{letter-spacing:-0.01em;}.cls-20{letter-spacing:-0.02em;}.cls-21{letter-spacing:-0.01em;}.cls-22{letter-spacing:0em;}</style></defs><path class="cls-1" d="M451.94,586a.53.53,0,0,0,.08-.15l13.31-28.12c4-8.46,8.41-17.11,11.05-25.93,4.43-14.8,12.44-28.18,20.67-41.62a1.77,1.77,0,0,1,0,.2.75.75,0,0,1,.06-.36l.72-1.17a.57.57,0,0,1,.08-.13c2.14-2.82,7.6-8,8.54-9.08,5.17-6.22,10.7-13,13.44-20.91,3-8.74,3.41-18.17,6.75-26.82,2.17-5.6-.21-11.77,2-17.44,1-2.45,1.9-6.38,1.46-9-.6-3.54-4.21-6.48-5.43-1.48a13.65,13.65,0,0,1-1,3.78c-1.71,3-6.21,2.78-8.67,5.15a10.52,10.52,0,0,0-2.16,3.6c-1.86,4.34-3.38,9-5.34,13.22-1.08,2.33-2.87,3.78-4.22,5.85-2.48,3.82-7.24,5.73-11.15,8-.59.34-1.15.71-1.7,1.1-4.54,3.21-6.27,4.08-6.75,7a8.45,8.45,0,0,0,1.83,6.6,23.62,23.62,0,0,1,2.18,3.15c.23.44.48.87.72,1.3-4.63,7.13-17.32,22.06-21.55,26.83-9.17,10.31-18.63,20.14-28.43,29.76l-.06.06c-.63.69-5.2,12.89-5.82,13.58.8-10.55,5.62-20,4.73-30.77-1.25-15.12-3-30.17-4.69-45.24-1.84-14.4-2.33-30.28-9.32-43.28-6.66-12.42-17.33-22.17-29.31-26.8-7.58-2.93-15.78-3.83-23.2-1.49-10.26,3.25-30.78,18.8-35.59,29.46-10.76,23.82,9.52,34.91,10.91,52.53,2.06,26.09,2.33,23,10.56,48.13,4.25,13,13.53,31.8,18.24,46.26,3.61,11.1,10,28.52,18,37.18,7.87,11.48,34,14.79,44.35,5.69,4.78-4.2,7.58-10.08,11.88-14.74l1.22-1.32a1.16,1.16,0,0,0,.16-.21Z"/><path class="cls-2" d="M286.27,604c-.91.89-3.24-9.37-4.71-9.59s-1.12-2-1.26-3.17c-.11-.95-.65-1.72-.83-2.65a7.91,7.91,0,0,0-.38-2,6.48,6.48,0,0,0-3.45-3.25c-1.77-.5-3.52.63-5.27.36a5.76,5.76,0,0,1-2.06-.94,2.73,2.73,0,0,1-.65,1.6c-2.62,3.15-6.65,4-10,6.06a20.11,20.11,0,0,0,1.73,3.14,30.06,30.06,0,0,1,2.59,5c.66,1.57,1.66,2.74,1.31,4.39-.26,1.27-1.25,2.23-1.52,3.49a20.94,20.94,0,0,1-.36,2.59,32,32,0,0,1-1.75,3.75c-1.29,2.77-2.36,5.72-3.54,8.56A25.44,25.44,0,0,0,254,631a20.44,20.44,0,0,0,2.56,9.64,44.52,44.52,0,0,0,4.08,6.61,76.64,76.64,0,0,0,7.74,8.28c3.12,2.89,7.66,5,11.64,6.36,2.95,1,5.63,2.41,8.73,3.09a26.32,26.32,0,0,0,9.49,0c2.7-.39,5.14.1,7.76.4,1.32.15,2.63-.28,4-.17a30,30,0,0,0,4.92.15c3.17-.29,5-2.29,7.07-4.38,1.4-1.4,2.22-3.14,3.64-4.52a15,15,0,0,0,1.81-2.24c.61-.89,1.41-1.52,2-2.41.29-.43.36-.9.65-1.36s.75-.54,1-1.06a20.41,20.41,0,0,0,.45-3.28,27.92,27.92,0,0,1,.82-3.78,2,2,0,0,0,.12-.4c.07,0,.22,0,.52-.23a12.77,12.77,0,0,1,2.68-1.23c2.34-1,2.7-.64,5.25-2a28.31,28.31,0,0,0,4.54-3,3.58,3.58,0,0,0,.09-5.53,1.94,1.94,0,0,1-.68-1.14,4.9,4.9,0,0,1,.13-3.63,21.51,21.51,0,0,0,1.76-2.63,19.25,19.25,0,0,0,1.31-5.67c.11-1.6-.41-2.46.66-3.63.77-.83,1.6-1.65,2.41-2.45,1.52-1.51,2.47-3.35,1.38-5.42a15.83,15.83,0,0,0-8.24-6.67c-28.36-7.74-15.45-13.41-24.05-19.12-5.88-3.91-15.6-9.31-17.67-16.11"/><path d="M320.06,644.72a10.1,10.1,0,0,1-.63-.93c-.11-.19-.35-.57-.27-.81s0-.1.12-.07.18.17.24.22l.28.19c.4.23.82.42,1.22.65a7.8,7.8,0,0,1,.7.38c1.36.93,2.47,2.34,3.93,3.1a7.35,7.35,0,0,0,4.6.39c-.06.54-.19,2.29-.77,2.45-.82.22-2.79-.86-3.65-1a6.85,6.85,0,0,1-4.16-2.27C321.07,646.33,320.64,645.47,320.06,644.72Z"/><path d="M254.79,595.54c1,2.41,2.53,4.81,3.23,7.31,2.26,7.95-3.9,15.68-5.26,23.84-1.13,6.7,1.13,13.65,5,19.26s9.16,10,14.67,14c5.1,3.69,10.54,7.11,16.61,8.79,4.08,1.14,16.45,2.65,18.69-2.51s-4.46-13-2.87-19c.8-3,3-5.64,3.25-8.76a26.47,26.47,0,0,0-.42-4.69c-.29-2.84.16-5.72-.32-8.53s-2.25-5.72-5.06-6.2a11.72,11.72,0,0,1-3.91,4.61c-1.76,1-2.35-.15-3.7-1.67-1.86-2.1-2.42-4.28-.48-6.3s4.49-3.74,5.23-6.45c.8-2.91-.79-5.9-2.33-8.51-2.64-4.48-10-10.18-12.67-14.66-3,.7-2.25,0-5.33.5-2.32.39-1.16,4.75-2.83,3.08a19.32,19.32,0,0,0-11.85-5.5c-4.16-.35-9.08,1.28-10.31,5.28A8.7,8.7,0,0,0,254.79,595.54Z"/><path d="M308.54,665.86l-1-.08c0,.07,0,.15,0,.22A3,3,0,0,0,308.54,665.86Z"/><path d="M266.63,601.69a7.45,7.45,0,0,0-3.44.91,12.28,12.28,0,0,1-4.08.79,6.43,6.43,0,0,1-4.54-1.22,7,7,0,0,1-2.25-3.55,6.79,6.79,0,0,1-.2-3.78c.54-1.24,2.38-2.48,3.3-3.45a7,7,0,0,1,4.45-1.74c1.64-.16,3.49-.08,4.77,1a20.56,20.56,0,0,1,5.75,9.47c.57,1.74-.45,4-1.41,5.52s-3,3.65-4.68,4.26c-3.29,1.17-6.4-1.86-8-4.36-.95-1.51-1.75-3.12-1.1-4.93A10.22,10.22,0,0,1,258,597a18.9,18.9,0,0,1,3.94-3.49,7,7,0,0,1,2.48-1.2,23.11,23.11,0,0,0,3.05-.53,8.4,8.4,0,0,1,3.46-.26,3.44,3.44,0,0,1,2.34,1.24,11,11,0,0,1,1.93,2.52c.33.58.43,1.27.71,1.87.49,1,.45,1.09-.4,2.06"/><path d="M261.54,603c-.51,1.42-1.76,1.95-3.06,2.4a6.92,6.92,0,0,0-1.33.55,1.91,1.91,0,0,1-2,.1c-1.78-.71-2.95-2.67-3.95-4.18a6.54,6.54,0,0,1-1.07-2c-.17-.69-.08-1.43-.26-2.1a4.66,4.66,0,0,1-.36-1.13c0-.45.18-.86.15-1.32a2.65,2.65,0,0,1,0-1.22,8.94,8.94,0,0,1,.54-1.18,5.23,5.23,0,0,1,1.29-2,14.89,14.89,0,0,1,2.07-1.33,5.9,5.9,0,0,1,1-.36c.43-.15.79-.44,1.22-.58a6.41,6.41,0,0,1,3.65.32c2.26.58,4.09,2.59,5.64,4.25a12,12,0,0,1,2.65,4.55,28.38,28.38,0,0,1,.57,2.89,10.69,10.69,0,0,1,.34,2.7,8.73,8.73,0,0,1-.74,2.92,19.42,19.42,0,0,1-1.37,2.92,6.54,6.54,0,0,1-2.39,2,9.05,9.05,0,0,0-1.56.62,5.49,5.49,0,0,1-1.48.92,6.91,6.91,0,0,1-5.91-.27,22.59,22.59,0,0,1-3.76-2.51c-.71-.65-1.37-1.36-2.07-2a6.06,6.06,0,0,1-1.59-2.62,4.4,4.4,0,0,1-.35-1.79,5.29,5.29,0,0,1,.1-1.74c.64-1.57,2.1-2.34,3-3.69a5.64,5.64,0,0,1,.46-.82c.32-.38.71-.71,1.06-1.07a10.85,10.85,0,0,1,1.8-1.66,7.11,7.11,0,0,1,2.54-1.1,3.74,3.74,0,0,1,3,.64,10.27,10.27,0,0,1,3.11,2.3,13.65,13.65,0,0,1,2.41,4.53,10.28,10.28,0,0,1,.64,5.17,11,11,0,0,1-.59,2.67,11.44,11.44,0,0,1-1.43,2c-1.08,1.38-3,1.8-4.54,2.3-.31.1-1,.48-1.35.4s-.54-.48-.72-.65"/><path d="M278.79,594.28c-.52,1.42-1.76,1.94-3.07,2.4a6.56,6.56,0,0,0-1.33.55,2,2,0,0,1-2,.1c-1.78-.71-2.94-2.68-3.94-4.18a6.57,6.57,0,0,1-1.08-2c-.17-.69-.08-1.43-.25-2.1-.1-.4-.36-.69-.37-1.13s.19-.86.16-1.33a2.48,2.48,0,0,1,0-1.21,8.94,8.94,0,0,1,.54-1.18,5.21,5.21,0,0,1,1.28-2,15.5,15.5,0,0,1,2.07-1.33,6.55,6.55,0,0,1,1-.37c.44-.14.8-.43,1.23-.57a6.43,6.43,0,0,1,3.65.32c2.25.58,4.09,2.59,5.63,4.25a11.9,11.9,0,0,1,2.65,4.55,28.79,28.79,0,0,1,.58,2.88,10.37,10.37,0,0,1,.33,2.71,9,9,0,0,1-.73,2.92,19.47,19.47,0,0,1-1.38,2.92,6.34,6.34,0,0,1-2.39,2,8,8,0,0,0-1.55.63,5.82,5.82,0,0,1-1.48.92,6.91,6.91,0,0,1-5.91-.27,22.19,22.19,0,0,1-3.76-2.51c-.71-.66-1.38-1.36-2.08-2a6.26,6.26,0,0,1-1.59-2.62,4.39,4.39,0,0,1-.34-1.79,5.58,5.58,0,0,1,.09-1.74c.64-1.57,2.11-2.34,3-3.69a6.08,6.08,0,0,1,.46-.82c.33-.38.72-.72,1.07-1.07a10.08,10.08,0,0,1,1.8-1.66,7,7,0,0,1,2.53-1.1,3.79,3.79,0,0,1,3.05.63,10.57,10.57,0,0,1,3.1,2.3,13.59,13.59,0,0,1,2.42,4.53,10.56,10.56,0,0,1,.64,5.18,6.44,6.44,0,0,1-2,4.67c-1.08,1.37-3,1.8-4.54,2.3-.31.1-1,.47-1.35.4s-.53-.48-.71-.65"/><path class="cls-2" d="M305.44,619.84c.63,5.49-8.12,6.74-11.18,3.9a6.85,6.85,0,0,1-.42-9.25c2.38-2.64,6.48-3,9-5.51,1.33-1.31,2.25-3.2,4-3.83s4.08,1.81,2.57,2.91"/><path class="cls-3" d="M301.64,603.4c3.44-1.29,11.69-14.62,14.38-17,2.36-2.13,3.85-5.16,5.59-7.79,1.28-1.94,1.75-4.17,2.94-6.15.7-1.15,1-2.39,1.77-3.52a10.05,10.05,0,0,0,1.21-2.86c.55-1.88,1.2-3.71,1.76-5.59.35-1.14.5-2.36.92-3.47,1.24-3.23,1.59-6.64,2.42-10,.74-3,1.42-6,2.37-8.92.74-2.24.67-4.46.92-6.76a9.35,9.35,0,0,0-.05-4.34,16.76,16.76,0,0,1-.08-3.25,27.93,27.93,0,0,0-.75-3.59c-.66-3.06-1.19-6.14-1.8-9.21-.91-4.55-.78-9.29-1.27-13.89-.43-4.05-.93-8.1-1.12-12.16-.27-5.75-1.25-11.37-1.74-17.11-.78-9-3.2-17.62-5.9-26.2a58.57,58.57,0,0,0-2.41-7.32c-1-2.19,8.68-15.8,7.22-17.73-5.92-7.85-19.34,12.4-22,16.19q-1.63,2.32-3.38,4.6c-9.12,11.91-19.9,22.65-27.44,35.67a129.38,129.38,0,0,0-14.12,37.71A106.58,106.58,0,0,0,259,529.74c-.12,5.31-1,13.32.92,18.33,1.47,3.88,3.07,7.72,4.58,11.54a68.46,68.46,0,0,0,5.18,11.24c1.73,2.77,3.16,5.62,5.47,8a81.69,81.69,0,0,1,5.84,5.78c1.2,1.48-3.09-2.82-1.48-1.64"/><path class="cls-4" d="M362.48,506.87a34.06,34.06,0,0,1,9.13-15.19,24.43,24.43,0,0,1,3.55-2.7c.85-.53,1-.44.91-1.39a8.93,8.93,0,0,0-.5-2.07c-.23-.78-17.3,8.57-17.69,7.87-8.94-16-10.56-34.56-9.49-52.56.53-8.87.8-19,3.15-27.63,2.25-8.21,8.6-12.79,14.74-18.57a50,50,0,0,1,14.58-9.87c.35-.15.7-.26,1.06-.38-2.39-.32-4.76-.76-7.16-1a34,34,0,0,0-8.48.47c-5.63.86-7.67,2.6-13,4.47a66.54,66.54,0,0,0-17.64,10A84.14,84.14,0,0,0,321.2,413c-.83,1.07-5.71,6.78-6.2,8-.61,1.56-.39,4.92-.49,6.58-1.42,24.12-12.69,46.76-18.27,70.41a5.31,5.31,0,0,0-.08,3.2,5.13,5.13,0,0,0,2.08,2.05,161.55,161.55,0,0,1,34.86,31.06,7.72,7.72,0,0,1,1.94,3.36,3,3,0,0,1-1.58,3.34q4.44-2.25,9-4.26"/><path d="M276.21,582.11c-1.62-.73-2.85-2-4.5-2.68a16.81,16.81,0,0,0-5.11-.81,5.85,5.85,0,0,0-4.61,1.65c-1.4,1.22-2.77,2.48-3,4.36-.42,4,.5,7.41,3.64,10.26,1.05.94,9,7,9.42,3.33"/><path class="cls-5" d="M297.46,502.33a3,3,0,0,1-.31-.31,3.66,3.66,0,0,1-.46-.72,2,2,0,0,1-.14-.3,6.21,6.21,0,0,1-.2-.74,1.88,1.88,0,0,1-.06-.53,1.57,1.57,0,0,1,.08-.68,6,6,0,0,1,.15-.61,2.33,2.33,0,0,1,.11-.28c-7.27,2.46-14.87,7.63-22.47,15.45a125.12,125.12,0,0,0-14.22,17.88s-1.63,2.25-1.27,1.79c0,3.46-.2,4.41,0,7.42.57-.84,2.25-3.08,2.78-3.85.75-1.08,1.44-2.07,2-2.94a119.77,119.77,0,0,1,13.69-17.23c5.28-5.43,12.5-11.5,20.36-14.27Z"/><path class="cls-6" d="M298.14,579.62a19.24,19.24,0,0,0,13.22,7.83,19.76,19.76,0,0,0,9.29-1.31,46,46,0,0,0,19.86-14.49c4.67-6.13,8.41-11.72,9.48-19.4a58.23,58.23,0,0,1,4.13-15.37,63.84,63.84,0,0,1,8.1-13.42,63.19,63.19,0,0,0,7.32-11.78c23.64,16.79,47.44,22.6,69.4,36.67,1.63,4.31,2.65,8.84,4,13.23a85.4,85.4,0,0,0,2.71,8.39c1.21,2.85,2.87,4.24,4.87,6.4,1.7,1.84,3.76,1.9,4.95,4.11a3.41,3.41,0,0,0,.47.64c.2.23.35.51.55.72a3.83,3.83,0,0,0,1.4,1,1.43,1.43,0,0,0,.48.16c.23,0,.5-.08.73-.11a6.26,6.26,0,0,1,1.5-.14,6.66,6.66,0,0,1,1.38.48,23.12,23.12,0,0,1,2.5,1.1,10.76,10.76,0,0,0,2.49,1.25c.58.12.77-.47,1-1a2.32,2.32,0,0,0,.13-.88q0-.53,0-1c-.19-.47-.36-1-.52-1.42a.87.87,0,0,1-.05-.22,10.28,10.28,0,0,0-1.41-1.53c-.59-.53-1.18-1-1.78-1.54l-5.77-4c.28.19,6.2,4.23,6.47,4.43a10.13,10.13,0,0,1,1.54,1.33c.34.36.62.8.95,1.18a.72.72,0,0,1,.39-.61,3.87,3.87,0,0,0,2.16-2.91c.24-1.2.33-2.41.68-3.6a.7.7,0,0,1,.72-.44,2.7,2.7,0,0,0,3-1.62,7.57,7.57,0,0,0,.25-3.69.7.7,0,0,1,0-.29l-3.39-4.17c0,.08-4.08-4.64-1.64-2.14l5.11,6.14a.61.61,0,0,1,.65-.36,1.77,1.77,0,0,0,1.9-.86c.78-1.47.1-1.65.19-2.47a2.66,2.66,0,0,1,1.24-2.24,1.73,1.73,0,0,0,1.12-1.47,8,8,0,0,0-.07-1.39c-.56-.67-1.15-1.26-1.67-2-1.12-1.51-2.62-2.6-3.85-4s-2.61-3.15-4-4.68c-.52-.58-1-1.17-1.6-1.73-3.3-3.28-7.75-5.3-11.76-7.54-.44-.25-.89-.34-1.33-.64a18.17,18.17,0,0,0-2.44-1.17c-8-9-15.94-18-24.76-25.81-12.79-11.32-27.71-20.54-44-26-.68-.23-1.36-.44-2-.62-3.74-1-7.49-1.47-11.33-2.26-2.59-.53-5.34-.38-7.36-1.5a11.82,11.82,0,0,0-6.42-1.54c-6.38.38-11.16,5.8-15,10.89-7.81,10.28-28.78,28.29-34.74,39.73"/><path class="cls-7" d="M459.06,578.38a3.14,3.14,0,0,0-1,1c-.15.28-.29.59-.42.89s-.27.47-.41.71c-.22.39-.58.58-.43,1.15"/><path class="cls-7" d="M460.16,580a7.25,7.25,0,0,1-.26,1.74l-.12.56a6.37,6.37,0,0,0-.25.69"/><path class="cls-7" d="M463.09,583.43c-1.21-.68.22-1.07.76-1.15,1.21-.18,3.75-.57,4.16,1.56"/><path class="cls-7" d="M477.83,563.63a34.37,34.37,0,0,0-3.86-4.06,7.49,7.49,0,0,0-.69-.69c-.29-.22-2.13-2-2.4-2.31s7,6.61,6.7,6.17"/><path class="cls-7" d="M470.9,574.46c-.42-.56-1.52-1.66-2-2.17-.27-.29-4.86-5.66-5.12-6s7.23,7.84,7,7.5"/><path class="cls-5" d="M261.94,553.47l1.49,4c.45,1.22,1,2.36,1.52,3.55A97.58,97.58,0,0,0,301,585a24.33,24.33,0,0,0,8.82,1.93,13.75,13.75,0,0,1-5.3-1.89,14.46,14.46,0,0,1-3.06-1.92,16.3,16.3,0,0,1-3.68-4c-2.57-1.12-5.12-2.32-7.57-3.65a95.78,95.78,0,0,1-25.79-21c-1.31-1.49-2.7-3.21-3.93-4.77C260.78,550.54,261.58,552.45,261.94,553.47Z"/><text class="cls-8" transform="translate(542.32 205.54)"><tspan class="cls-9">H</tspan><tspan x="16.25" y="0">ead must s</tspan><tspan class="cls-9" x="142.16" y="0">t</tspan><tspan class="cls-10" x="151.96" y="0">a</tspan><tspan x="165.35" y="0">y</tspan><tspan x="2.21" y="33.91">a </tspan><tspan class="cls-11" x="21.52" y="33.91">s</tspan><tspan x="34.07" y="33.91">a</tspan><tspan class="cls-12" x="48.23" y="33.91">f</tspan><tspan x="56.3" y="33.91">e dis</tspan><tspan class="cls-9" x="110.33" y="33.91">t</tspan><tspan x="120.13" y="33.91">ance </tspan><tspan x="2.6" y="67.83">f</tspan><tspan class="cls-13" x="11.28" y="67.83">r</tspan><tspan x="21.4" y="67.83">om the boa</tspan><tspan class="cls-14" x="151.4" y="67.83">r</tspan><tspan x="161.36" y="67.83">d</tspan></text><path d="M699.81,618.27c3.6,3.38,6.85,7.09,10.18,10.73l.3-2.36c-2.2,1.18-4.33,2.47-6.51,3.68-2,1.13-4.09,2.17-6.1,3.3a1.5,1.5,0,0,0,1.51,2.59c2-1.13,4.08-2.17,6.1-3.3,2.18-1.21,4.32-2.5,6.51-3.68a1.51,1.51,0,0,0,.31-2.35c-3.33-3.64-6.58-7.35-10.17-10.73-1.41-1.32-3.54.8-2.13,2.12Z"/><path d="M633.29,615.27c-3.6,3.38-6.85,7.09-10.18,10.72a1.52,1.52,0,0,0,.31,2.36c2.19,1.18,4.33,2.46,6.51,3.68,2,1.12,4.08,2.16,6.1,3.3a1.5,1.5,0,0,0,1.51-2.59c-2-1.14-4.08-2.18-6.1-3.3-2.17-1.22-4.31-2.5-6.51-3.68l.31,2.35c3.32-3.63,6.57-7.34,10.17-10.72,1.41-1.32-.72-3.44-2.12-2.12Z"/><path d="M709.47,625.73c-2.45-.18-4.89-.52-7.34-.74-2.65-.24-5.3-.24-8-.24-5.37,0-10.74,0-16.11,0H628a1.5,1.5,0,0,0,0,3c21.39,0,42.79.05,64.18,0,2.93,0,5.88-.07,8.81.15s5.64.62,8.48.83c1.92.14,1.91-2.86,0-3Z"/><path d="M97.35,227.85a68.34,68.34,0,0,0,2.26,33.88,81.51,81.51,0,0,0,15.44,27A88.38,88.38,0,0,0,127,300.4c1.49,1.2,3.62-.91,2.12-2.12-15.47-12.49-27.31-30.61-29.53-50.65a65,65,0,0,1,.69-19c.35-1.89-2.54-2.69-2.89-.8Z"/><path d="M122.78,285.81c1.69,4.63,2.92,9.41,4.25,14.16l1.45-1.9c-2.49.06-5,.24-7.47.34-2.31.1-4.62.1-6.94.2-1.92.09-1.93,3.09,0,3,2.32-.1,4.63-.1,6.94-.2,2.49-.1,5-.28,7.47-.34a1.52,1.52,0,0,0,1.44-1.9c-1.33-4.75-2.56-9.52-4.24-14.16a1.55,1.55,0,0,0-1.85-1.05,1.52,1.52,0,0,0-1,1.85Z"/><text class="cls-8" transform="translate(70.61 165.83)">It must be bo<tspan class="cls-15" x="150.8" y="0">l</tspan><tspan x="158.22" y="0">d, high </tspan><tspan x="0" y="33.91">and confident</tspan></text><path d="M97.35,227.85a68.34,68.34,0,0,0,2.26,33.88,81.51,81.51,0,0,0,15.44,27A88.38,88.38,0,0,0,127,300.4c1.49,1.2,3.62-.91,2.12-2.12-15.47-12.49-27.31-30.61-29.53-50.65a65,65,0,0,1,.69-19c.35-1.89-2.54-2.69-2.89-.8Z"/><path d="M122.78,285.81c1.69,4.63,2.92,9.41,4.25,14.16l1.45-1.9c-2.49.06-5,.24-7.47.34-2.31.1-4.62.1-6.94.2-1.92.09-1.93,3.09,0,3,2.32-.1,4.63-.1,6.94-.2,2.49-.1,5-.28,7.47-.34a1.52,1.52,0,0,0,1.44-1.9c-1.33-4.75-2.56-9.52-4.24-14.16a1.55,1.55,0,0,0-1.85-1.05,1.52,1.52,0,0,0-1,1.85Z"/><path class="cls-16" d="M95.79,61.4A36.74,36.74,0,0,1,104.16,38a34.44,34.44,0,1,0,.11,46.9A36.78,36.78,0,0,1,95.79,61.4ZM87.2,75.66H70.92L71,73.39l4.46-.58c.58,0,.81-.23.81-1,.08-10.05,0-19.6,0-19.6l-5.62,1.08c-.19-.31-1.12-2.46-.46-2.73l10.35-4,1,1s-.12,20.87,0,24.37c0,.77.19,1,.73,1l5.08.54Z"/><circle cx="130" cy="61.53" r="34.44"/><text class="cls-17" transform="translate(118.45 75.26)">2</text><text class="cls-18" transform="translate(177.42 73.13)"><tspan class="cls-19">N</tspan><tspan class="cls-20" x="20.46" y="0">e</tspan><tspan x="36.84" y="0">xt is </tspan><tspan class="cls-19" x="102.6" y="0">t</tspan><tspan x="114.51" y="0">a</tspan><tspan class="cls-21" x="131.73" y="0">k</tspan><tspan class="cls-22" x="147.45" y="0">e-off</tspan></text></svg>