<svg id="Layer_1" data-name="Layer 1" xmlns="http://www.w3.org/2000/svg" viewBox="0 0 780 1051.14"><defs><style>.cls-1{fill:#c6946f;stroke-width:0.23px;}.cls-1,.cls-2,.cls-4,.cls-5,.cls-6,.cls-7{stroke:#fff;stroke-miterlimit:10;}.cls-2,.cls-3,.cls-6,.cls-7{fill:#d4a47c;}.cls-2{stroke-width:0.28px;}.cls-4{fill:#005058;stroke-width:0.54px;}.cls-5{fill:#fff171;stroke-width:0.3px;}.cls-6{stroke-width:0.41px;}.cls-7{stroke-width:0.31px;}.cls-8{font-size:24.66px;}.cls-18,.cls-8{font-family:ABCSansBold, ABCSans;}.cls-9{letter-spacing:-0.01em;}.cls-10{letter-spacing:-0.03em;}.cls-11{letter-spacing:0.01em;}.cls-12{letter-spacing:-0.02em;}.cls-13{letter-spacing:-0.01em;}.cls-14{letter-spacing:-0.02em;}.cls-15{letter-spacing:-0.02em;}.cls-16,.cls-17{fill:#fff;}.cls-16{opacity:0.7;}.cls-17{font-size:38.5px;font-family:ABCSerifBold, ABCSerif;}.cls-18{font-size:30px;}.cls-19{letter-spacing:-0.01em;}.cls-20{letter-spacing:-0.02em;}.cls-21{letter-spacing:-0.01em;}.cls-22{letter-spacing:0em;}</style></defs><path class="cls-1" d="M306.37,562.2a.42.42,0,0,0,.14.09L333.94,577c8.25,4.42,16.67,9.25,25.35,12.33,14.56,5.16,27.53,13.82,40.54,22.71l-.21,0a.68.68,0,0,1,.37.07l1.13.77.13.1c2.71,2.28,7.56,8,8.64,9,5.95,5.47,12.43,11.34,20.21,14.47,8.58,3.44,18,4.31,26.45,8.08,5.49,2.44,11.77.37,17.32,2.88,2.4,1.08,6.27,2.22,8.89,1.9,3.56-.42,6.68-3.88,1.75-5.34a14.21,14.21,0,0,1-3.73-1.23c-2.87-1.86-2.46-6.34-4.71-8.92a10.64,10.64,0,0,0-3.48-2.33c-4.25-2.08-8.79-3.82-12.95-6-2.27-1.19-3.63-3.05-5.63-4.5-3.69-2.67-5.36-7.51-7.39-11.53-.31-.61-.66-1.18-1-1.76-3-4.69-3.76-6.46-6.64-7.09a8.52,8.52,0,0,0-6.69,1.5,23.12,23.12,0,0,1-3.25,2l-1.34.65c-6.89-5-21.17-18.4-25.72-22.86-9.84-9.67-19.19-19.61-28.31-29.88l-.06-.06c-.65-.66-12.61-5.83-13.27-6.49,10.5,1.33,19.74,6.62,30.49,6.26,15.17-.5,30.28-1.48,45.42-2.44,14.48-1.11,30.36-.82,43.69-7.15,12.74-6,23-16.2,28.23-27.94,3.3-7.42,4.61-15.57,2.64-23.1-2.73-10.41-17.24-31.68-27.65-37-23.26-11.93-35.34,7.77-53,8.28-26.16.76-23.07,1.19-48.59,8.16-13.17,3.59-32.44,11.93-47.12,15.91-11.27,3.06-29,8.57-38,16.08-11.85,7.29-16.47,33.19-7.89,44,4,5,9.69,8.08,14.13,12.6l1.26,1.29a.78.78,0,0,0,.2.16Z"/><path class="cls-2" d="M296.55,395.83c-.84-.95,9.52-2.77,9.81-4.22s2.08-1,3.24-1.09c.95-.07,1.74-.57,2.69-.71a7.94,7.94,0,0,0,2-.27,6.51,6.51,0,0,0,3.42-3.29c.59-1.75-.46-3.54-.1-5.28a5.72,5.72,0,0,1,1.05-2,2.71,2.71,0,0,1-1.58-.74c-3-2.76-3.67-6.83-5.54-10.29a20.58,20.58,0,0,0-3.23,1.57,29.3,29.3,0,0,1-5.13,2.34c-1.6.58-2.83,1.53-4.45,1.09-1.25-.33-2.17-1.36-3.41-1.69a22.39,22.39,0,0,1-2.57-.49,32.71,32.71,0,0,1-3.66-1.93c-2.7-1.44-5.6-2.65-8.37-4a25.41,25.41,0,0,0-9.49-2.61,20.42,20.42,0,0,0-9.75,2.08,45.11,45.11,0,0,0-6.81,3.74,76.27,76.27,0,0,0-8.65,7.32c-3,3-5.38,7.4-6.93,11.31-1.15,2.9-2.69,5.5-3.53,8.57a26.45,26.45,0,0,0-.43,9.47c.26,2.72-.35,5.14-.78,7.74-.22,1.31.15,2.64,0,4a30,30,0,0,0-.4,4.91c.14,3.17,2,5.09,4,7.28,1.33,1.46,3,2.37,4.34,3.86a15,15,0,0,0,2.14,1.91c.86.65,1.45,1.48,2.31,2.14.41.32.88.41,1.32.72s.5.77,1,1a21.13,21.13,0,0,0,3.26.62,27.69,27.69,0,0,1,3.73,1,2.82,2.82,0,0,0,.39.14c0,.07,0,.22.21.53a12.53,12.53,0,0,1,1.09,2.74c.86,2.38.51,2.72,1.75,5.34a28.89,28.89,0,0,0,2.73,4.68,3.57,3.57,0,0,0,5.52.37,2,2,0,0,1,1.17-.63,5,5,0,0,1,3.62.31,20.43,20.43,0,0,0,2.54,1.89,19.17,19.17,0,0,0,5.6,1.6c1.59.19,2.48-.3,3.59.83.8.82,1.57,1.68,2.33,2.53,1.44,1.59,3.22,2.64,5.34,1.65a15.7,15.7,0,0,0,7.07-7.9c9.14-27.94,14.17-14.76,20.3-23.06,4.19-5.68,10.07-15.12,17-16.86"/><path d="M254.23,427.56c.31-.21.64-.39,1-.58s.6-.32.83-.23.1,0,.06.13-.17.16-.23.22a2.83,2.83,0,0,0-.2.28c-.26.38-.46.79-.71,1.18-.14.23-.26.46-.42.68-1,1.31-2.46,2.35-3.29,3.77a7.39,7.39,0,0,0-.62,4.57c-.53-.08-2.28-.3-2.4-.88-.18-.84,1-2.75,1.15-3.61a6.77,6.77,0,0,1,2.47-4C252.58,428.49,253.45,428.1,254.23,427.56Z"/><path d="M306.6,364.82c-2.45.88-4.93,2.28-7.46,2.86-8.05,1.86-15.47-4.67-23.55-6.44-6.64-1.46-13.69.45-19.49,4s-10.48,8.64-14.73,13.95c-3.94,4.91-7.63,10.17-9.61,16.15-1.34,4-3.47,16.3,1.57,18.79s13.26-3.8,19.14-1.92c3,.95,5.48,3.28,8.58,3.69a26.56,26.56,0,0,0,4.71-.19c2.84-.14,5.71.45,8.53.11s5.83-2,6.45-4.75a11.64,11.64,0,0,1-4.41-4.14c-.95-1.81.26-2.33,1.85-3.61,2.19-1.75,4.39-2.2,6.32-.16s3.51,4.66,6.17,5.54c2.88,1,5.94-.49,8.62-1.9,4.61-2.41,10.66-9.51,15.27-11.93-.54-3.07.13-2.24-.23-5.34-.27-2.35-4.68-1.4-2.94-3A19.31,19.31,0,0,0,317.48,375c.56-4.15-.83-9.14-4.76-10.57A8.77,8.77,0,0,0,306.6,364.82Z"/><path d="M233.7,415l.12-1a1.66,1.66,0,0,1-.22,0A3,3,0,0,0,233.7,415Z"/><path d="M299.87,376.33a7.39,7.39,0,0,0-.74-3.47,12.49,12.49,0,0,1-.59-4.12,6.45,6.45,0,0,1,1.45-4.47,7,7,0,0,1,3.65-2.07,6.79,6.79,0,0,1,3.79,0c1.22.6,2.36,2.5,3.29,3.47a7,7,0,0,1,1.51,4.52A6.3,6.3,0,0,1,311,374.9a20.63,20.63,0,0,1-9.75,5.27c-1.76.48-4-.65-5.44-1.68s-3.5-3.15-4-4.89c-1-3.34,2.18-6.29,4.76-7.75,1.55-.87,3.2-1.59,5-.84a10.13,10.13,0,0,1,3.57,2.91,18.71,18.71,0,0,1,3.28,4.1,6.92,6.92,0,0,1,1.08,2.54,23.41,23.41,0,0,0,.38,3.07,8.45,8.45,0,0,1,.08,3.47,3.39,3.39,0,0,1-1.35,2.28,11.45,11.45,0,0,1-2.61,1.8c-.6.3-1.29.36-1.91.62-1.07.43-1.11.4-2-.5"/><path d="M298.83,371.19c-1.39-.58-1.85-1.85-2.24-3.18a6.75,6.75,0,0,0-.49-1.36,1.94,1.94,0,0,1,0-2c.8-1.75,2.82-2.82,4.37-3.74a6.81,6.81,0,0,1,2.08-1c.7-.14,1.43,0,2.11-.15a4.93,4.93,0,0,1,1.14-.31c.46,0,.86.23,1.32.22a2.48,2.48,0,0,1,1.21.07,8.49,8.49,0,0,1,1.16.6,5.35,5.35,0,0,1,1.91,1.38,15.51,15.51,0,0,1,1.23,2.13,6.56,6.56,0,0,1,.31,1.07c.12.45.39.82.51,1.26a6.35,6.35,0,0,1-.5,3.62c-.69,2.23-2.79,4-4.53,5.42a11.87,11.87,0,0,1-4.67,2.42,28.75,28.75,0,0,1-2.91.43,10.4,10.4,0,0,1-2.72.2,8.91,8.91,0,0,1-2.88-.88,19.88,19.88,0,0,1-2.85-1.51,6.56,6.56,0,0,1-1.91-2.49,9.36,9.36,0,0,0-.55-1.59,6.12,6.12,0,0,1-.85-1.52,6.92,6.92,0,0,1,.57-5.89,21.87,21.87,0,0,1,2.69-3.63c.69-.68,1.43-1.31,2.13-2a6.15,6.15,0,0,1,2.7-1.46,4.43,4.43,0,0,1,1.8-.26,5.54,5.54,0,0,1,1.74.18c1.53.72,2.23,2.22,3.53,3.14a6.67,6.67,0,0,1,.8.5c.36.35.68.76,1,1.12a11.19,11.19,0,0,1,1.57,1.88,7.19,7.19,0,0,1,1,2.59,3.78,3.78,0,0,1-.79,3,10.31,10.31,0,0,1-2.45,3,13.46,13.46,0,0,1-4.64,2.19,10.37,10.37,0,0,1-5.21.38,6.43,6.43,0,0,1-4.55-2.25c-1.33-1.15-1.65-3.06-2.08-4.65-.08-.31-.42-1-.33-1.37s.5-.51.69-.68"/><path d="M306.66,388.85c-1.38-.59-1.85-1.85-2.24-3.18a6.3,6.3,0,0,0-.48-1.36,1.93,1.93,0,0,1,0-2c.8-1.74,2.82-2.81,4.37-3.73a6.23,6.23,0,0,1,2.07-1c.7-.14,1.43,0,2.11-.15a4.08,4.08,0,0,1,1.15-.31c.45,0,.85.22,1.31.22a2.48,2.48,0,0,1,1.21.07,8.49,8.49,0,0,1,1.16.6,5,5,0,0,1,1.91,1.38,15.51,15.51,0,0,1,1.23,2.13,6.56,6.56,0,0,1,.31,1.07c.12.44.39.82.52,1.25a6.49,6.49,0,0,1-.51,3.63c-.69,2.22-2.79,3.95-4.52,5.42a12.18,12.18,0,0,1-4.68,2.42,28.34,28.34,0,0,1-2.91.43,10.78,10.78,0,0,1-2.72.2,8.78,8.78,0,0,1-2.87-.88,19.53,19.53,0,0,1-2.86-1.52,6.41,6.41,0,0,1-1.91-2.49,8.22,8.22,0,0,0-.55-1.58,5.69,5.69,0,0,1-.84-1.53,6.85,6.85,0,0,1,.57-5.89,22.09,22.09,0,0,1,2.68-3.63c.7-.67,1.43-1.3,2.14-2A6.3,6.3,0,0,1,305,375a4.37,4.37,0,0,1,1.79-.25,5.54,5.54,0,0,1,1.74.18c1.54.72,2.23,2.22,3.54,3.14a6.13,6.13,0,0,1,.79.5c.37.34.69.75,1,1.12a10.75,10.75,0,0,1,1.56,1.88,7,7,0,0,1,1,2.58,3.74,3.74,0,0,1-.78,3,10.25,10.25,0,0,1-2.46,3,13.56,13.56,0,0,1-4.64,2.19,10.45,10.45,0,0,1-5.2.38,11.33,11.33,0,0,1-2.64-.72,12.16,12.16,0,0,1-1.92-1.53c-1.32-1.15-1.65-3.06-2.08-4.66-.08-.31-.42-1-.33-1.36s.51-.51.69-.68"/><path class="cls-2" d="M279.81,414.2c-5.51.36-6.32-8.44-3.34-11.36a6.87,6.87,0,0,1,9.27,0c2.51,2.5,2.69,6.63,5,9.28,1.24,1.4,3.09,2.41,3.63,4.2s-2,4-3,2.41"/><path class="cls-3" d="M296.42,411.22c1.11,3.5,14,12.4,16.31,15.21,2,2.47,5,4.1,7.51,6,1.87,1.37,4.07,2,6,3.25,1.12.75,2.33,1.13,3.43,1.94a10.5,10.5,0,0,0,2.8,1.35c1.85.64,3.64,1.38,5.49,2,1.13.4,2.33.61,3.42,1.09,3.16,1.39,6.56,1.91,9.88,2.91,2.95.88,5.94,1.71,8.79,2.81,2.2.85,4.42.89,6.7,1.26,1.8.29,2.56.56,4.34.16a17.68,17.68,0,0,1,3.25.08,26.58,26.58,0,0,0,3.63-.57c3.08-.5,6.19-.88,9.28-1.34,4.59-.68,9.32-.32,13.94-.58,4.06-.22,8.14-.52,12.21-.51,5.75,0,11.41-.68,17.16-.89,9-.32,17.76-2.31,26.46-4.59a57.47,57.47,0,0,0,7.43-2c2.24-.92,15.36,9.46,17.36,8.1,8.13-5.53-11.43-19.93-15.08-22.78q-2.25-1.75-4.42-3.61c-11.44-9.7-21.64-21-34.27-29.18a129.31,129.31,0,0,0-37-16,105.74,105.74,0,0,0-19-3.08c-5.29-.38-13.25-1.64-18.35,0-3.95,1.27-7.86,2.69-11.75,4a67.62,67.62,0,0,0-11.49,4.62c-2.85,1.59-5.76,2.87-8.22,5.07-2,1.8-3.87,3.95-6.06,5.54-1.54,1.12,3-2.94,1.71-1.39"/><path class="cls-4" d="M389.8,476.79a33.9,33.9,0,0,1,14.72,9.88,23.63,23.63,0,0,1,2.52,3.67c.49.88.39,1,1.35,1a8.89,8.89,0,0,0,2.08-.4c.79-.19-7.69-17.7-7-18.05,16.45-8.14,35.05-8.84,53-6.87,8.83,1,19,1.74,27.43,4.52,8.09,2.65,12.35,9.22,17.81,15.64a50.07,50.07,0,0,1,9.14,15c.13.36.22.72.32,1.09.44-2.37,1-4.72,1.35-7.1a34.54,34.54,0,0,0,0-8.5c-.59-5.66-2.22-7.79-3.83-13.24a66.38,66.38,0,0,0-9.1-18.11,84,84,0,0,0-14-15.12c-1-.88-6.49-6-7.72-6.6-1.52-.68-4.9-.63-6.55-.81-24-2.62-46.07-15-69.41-21.75a5.26,5.26,0,0,0-3.19-.24,5,5,0,0,0-2.15,2,162.16,162.16,0,0,1-32.76,33.27,7.73,7.73,0,0,1-3.45,1.76,3,3,0,0,1-3.26-1.74q2,4.54,3.81,9.19"/><path d="M319,386.88c.81-1.58,2.12-2.75,2.9-4.36a16.55,16.55,0,0,0,1.06-5.06,5.83,5.83,0,0,0-1.42-4.69c-1.14-1.46-2.34-2.89-4.2-3.18-4-.61-7.43.13-10.43,3.13-1,1-7.45,8.63-3.79,9.24"/><path class="cls-5" d="M397.57,412.07l.32-.29a4.68,4.68,0,0,1,.75-.43,1.66,1.66,0,0,1,.31-.12,5.85,5.85,0,0,1,.75-.16,1.57,1.57,0,0,1,.53,0,1.69,1.69,0,0,1,.67.12,5.26,5.26,0,0,1,.6.18,1.43,1.43,0,0,1,.28.13c-2.09-7.39-6.88-15.24-14.31-23.22a124.71,124.71,0,0,0-17.16-15.09s-2.16-1.74-1.72-1.36c-3.45-.17-4.39-.42-7.41-.35.81.62,3,2.4,3.7,3,1.05.81,2,1.54,2.84,2.16a119.35,119.35,0,0,1,16.53,14.54c5.16,5.53,10.86,13.05,13.24,21Z"/><path class="cls-6" d="M320.34,408.91a19.25,19.25,0,0,0-8.48,12.81,19.85,19.85,0,0,0,.86,9.34,45.88,45.88,0,0,0,13.48,20.56c5.89,5,11.29,9,18.9,10.44A57.94,57.94,0,0,1,360.25,467a63.25,63.25,0,0,1,13,8.75,63.24,63.24,0,0,0,11.4,7.9c-17.95,22.78-24.94,46.26-40.08,67.48-4.38,1.42-9,2.21-13.41,3.36-2.84.74-5.75,1.27-8.51,2.29s-4.39,2.66-6.64,4.55c-1.92,1.61-2.09,3.66-4.35,4.74a3.37,3.37,0,0,0-.67.44c-.23.19-.52.33-.74.52a3.79,3.79,0,0,0-1.1,1.34,1.69,1.69,0,0,0-.18.47c0,.23.06.5.07.73a6.35,6.35,0,0,1,.07,1.51,6.49,6.49,0,0,1-.55,1.35,24.29,24.29,0,0,1-1.22,2.45,10.42,10.42,0,0,0-1.38,2.42c-.14.57.43.79.94,1a2.81,2.81,0,0,0,.87.18l1.05.08c.49-.17,1-.32,1.44-.46l.23,0a10.42,10.42,0,0,0,1.6-1.34c.56-.55,1.1-1.12,1.63-1.7,0,0,4.21-5.52,4.25-5.56-.2.27-4.54,6-4.75,6.24a10.84,10.84,0,0,1-1.41,1.47c-.38.32-.83.58-1.22.89a.69.69,0,0,1,.58.42,3.9,3.9,0,0,0,2.81,2.3c1.19.3,2.39.46,3.56.86a.72.72,0,0,1,.41.74,2.69,2.69,0,0,0,1.47,3.11,7.38,7.38,0,0,0,3.67.43.75.75,0,0,1,.29,0l4.33-3.18c-.08,0,4.83-3.85,2.21-1.53l-6.38,4.8a.6.6,0,0,1,.32.67,1.78,1.78,0,0,0,.77,1.94c1.43.85,1.65.17,2.46.31a2.62,2.62,0,0,1,2.17,1.35c.33.64.62,1.08,1.42,1.19a7.17,7.17,0,0,0,1.39,0c.69-.52,1.31-1.08,2-1.56,1.57-1,2.74-2.49,4.19-3.65s3.28-2.45,4.87-3.73c.61-.49,1.23-1,1.81-1.51,3.45-3.14,5.68-7.48,8.12-11.37.27-.43.38-.88.7-1.3a18.42,18.42,0,0,0,1.3-2.38c9.4-7.49,18.77-15,27-23.45,11.94-12.2,21.89-26.65,28.16-42.66.27-.66.5-1.33.72-2,1.21-3.69,1.84-7.41,2.82-11.2.66-2.57.65-5.32,1.86-7.28a11.77,11.77,0,0,0,1.86-6.34c0-6.39-5.24-11.43-10.13-15.55-9.87-8.32-26.82-30.15-37.95-36.67"/><path class="cls-7" d="M313.58,569.69a3.15,3.15,0,0,0-.91-1c-.27-.16-.57-.32-.86-.46a7.91,7.91,0,0,1-.68-.44c-.39-.24-.56-.62-1.14-.49"/><path class="cls-7" d="M311.93,570.71a7.18,7.18,0,0,1-1.73-.35l-.55-.14a5,5,0,0,0-.68-.29"/><path class="cls-7" d="M308.34,573.47c.73-1.18,1.05.27,1.1.81.12,1.22.39,3.78-1.76,4.07"/><path class="cls-7" d="M327.38,589.17a33.4,33.4,0,0,0,4.25-3.66,7.2,7.2,0,0,0,.71-.64c.24-.28,2.16-2,2.43-2.29s-6.94,6.68-6.49,6.38"/><path class="cls-7" d="M316.91,581.71c.57-.39,1.73-1.43,2.26-1.88l6.21-4.82c.32-.25-8.19,6.83-7.84,6.61"/><path class="cls-5" d="M348.27,374.06l-4.12,1.28c-1.23.39-2.4.9-3.62,1.34a97.64,97.64,0,0,0-25.72,34.84,24.24,24.24,0,0,0-2.35,8.72,13.58,13.58,0,0,1,2.14-5.2,14.13,14.13,0,0,1,2.07-3,16.47,16.47,0,0,1,4.16-3.48c1.25-2.51,2.57-5,4-7.38a96.17,96.17,0,0,1,22.24-24.71c1.55-1.24,3.34-2.54,5-3.69C351.25,373,349.3,373.74,348.27,374.06Z"/><text class="cls-8" transform="translate(542.32 205.54)"><tspan class="cls-9">H</tspan><tspan x="16.25" y="0">ead must s</tspan><tspan class="cls-9" x="142.16" y="0">t</tspan><tspan class="cls-10" x="151.96" y="0">a</tspan><tspan x="165.35" y="0">y</tspan><tspan x="2.21" y="33.91">a </tspan><tspan class="cls-11" x="21.52" y="33.91">s</tspan><tspan x="34.07" y="33.91">a</tspan><tspan class="cls-12" x="48.23" y="33.91">f</tspan><tspan x="56.3" y="33.91">e dis</tspan><tspan class="cls-9" x="110.33" y="33.91">t</tspan><tspan x="120.13" y="33.91">ance </tspan><tspan x="2.6" y="67.83">f</tspan><tspan class="cls-13" x="11.28" y="67.83">r</tspan><tspan x="21.4" y="67.83">om the boa</tspan><tspan class="cls-14" x="151.4" y="67.83">r</tspan><tspan x="161.36" y="67.83">d</tspan></text><path d="M699.81,618.27c3.6,3.38,6.85,7.09,10.18,10.73l.3-2.36c-2.2,1.18-4.33,2.47-6.51,3.68-2,1.13-4.09,2.17-6.1,3.3a1.5,1.5,0,0,0,1.51,2.59c2-1.13,4.08-2.17,6.1-3.3,2.18-1.21,4.32-2.5,6.51-3.68a1.51,1.51,0,0,0,.31-2.35c-3.33-3.64-6.58-7.35-10.17-10.73-1.41-1.32-3.54.8-2.13,2.12Z"/><path d="M633.29,615.27c-3.6,3.38-6.85,7.09-10.18,10.72a1.52,1.52,0,0,0,.31,2.36c2.19,1.18,4.33,2.46,6.51,3.68,2,1.12,4.08,2.16,6.1,3.3a1.5,1.5,0,0,0,1.51-2.59c-2-1.14-4.08-2.18-6.1-3.3-2.17-1.22-4.31-2.5-6.51-3.68l.31,2.35c3.32-3.63,6.57-7.34,10.17-10.72,1.41-1.32-.72-3.44-2.12-2.12Z"/><path d="M709.47,625.73c-2.45-.18-4.89-.52-7.34-.74-2.65-.24-5.3-.24-8-.24-5.37,0-10.74,0-16.11,0H628a1.5,1.5,0,0,0,0,3c21.39,0,42.79.05,64.18,0,2.93,0,5.88-.07,8.81.15s5.64.62,8.48.83c1.92.14,1.91-2.86,0-3Z"/><path d="M97.35,227.85a68.34,68.34,0,0,0,2.26,33.88,81.51,81.51,0,0,0,15.44,27A88.38,88.38,0,0,0,127,300.4c1.49,1.2,3.62-.91,2.12-2.12-15.47-12.49-27.31-30.61-29.53-50.65a65,65,0,0,1,.69-19c.35-1.89-2.54-2.69-2.89-.8Z"/><path d="M122.78,285.81c1.69,4.63,2.92,9.41,4.25,14.16l1.45-1.9c-2.49.06-5,.24-7.47.34-2.31.1-4.62.1-6.94.2-1.92.09-1.93,3.09,0,3,2.32-.1,4.63-.1,6.94-.2,2.49-.1,5-.28,7.47-.34a1.52,1.52,0,0,0,1.44-1.9c-1.33-4.75-2.56-9.52-4.24-14.16a1.55,1.55,0,0,0-1.85-1.05,1.52,1.52,0,0,0-1,1.85Z"/><text class="cls-8" transform="translate(70.61 165.83)">It must be bo<tspan class="cls-15" x="150.8" y="0">l</tspan><tspan x="158.22" y="0">d, high </tspan><tspan x="0" y="33.91">and confident</tspan></text><path d="M97.35,227.85a68.34,68.34,0,0,0,2.26,33.88,81.51,81.51,0,0,0,15.44,27A88.38,88.38,0,0,0,127,300.4c1.49,1.2,3.62-.91,2.12-2.12-15.47-12.49-27.31-30.61-29.53-50.65a65,65,0,0,1,.69-19c.35-1.89-2.54-2.69-2.89-.8Z"/><path d="M122.78,285.81c1.69,4.63,2.92,9.41,4.25,14.16l1.45-1.9c-2.49.06-5,.24-7.47.34-2.31.1-4.62.1-6.94.2-1.92.09-1.93,3.09,0,3,2.32-.1,4.63-.1,6.94-.2,2.49-.1,5-.28,7.47-.34a1.52,1.52,0,0,0,1.44-1.9c-1.33-4.75-2.56-9.52-4.24-14.16a1.55,1.55,0,0,0-1.85-1.05,1.52,1.52,0,0,0-1,1.85Z"/><path class="cls-16" d="M95.79,61.4A36.74,36.74,0,0,1,104.16,38a34.44,34.44,0,1,0,.11,46.9A36.78,36.78,0,0,1,95.79,61.4ZM87.2,75.66H70.92L71,73.39l4.46-.58c.58,0,.81-.23.81-1,.08-10.05,0-19.6,0-19.6l-5.62,1.08c-.19-.31-1.12-2.46-.46-2.73l10.35-4,1,1s-.12,20.87,0,24.37c0,.77.19,1,.73,1l5.08.54Z"/><circle cx="130" cy="61.53" r="34.44"/><text class="cls-17" transform="translate(118.45 75.26)">2</text><text class="cls-18" transform="translate(177.42 73.13)"><tspan class="cls-19">N</tspan><tspan class="cls-20" x="20.46" y="0">e</tspan><tspan x="36.84" y="0">xt is </tspan><tspan class="cls-19" x="102.6" y="0">t</tspan><tspan x="114.51" y="0">a</tspan><tspan class="cls-21" x="131.73" y="0">k</tspan><tspan class="cls-22" x="147.45" y="0">e-off</tspan></text></svg>