<svg id="Layer_1" data-name="Layer 1" xmlns="http://www.w3.org/2000/svg" viewBox="0 0 780 1051.14"><defs><style>.cls-1{fill:#c6946f;stroke-width:0.23px;}.cls-1,.cls-2,.cls-4,.cls-5,.cls-6,.cls-7{stroke:#fff;stroke-miterlimit:10;}.cls-2,.cls-3,.cls-6,.cls-7{fill:#d4a47c;}.cls-2{stroke-width:0.28px;}.cls-4{fill:#005058;stroke-width:0.54px;}.cls-5{fill:#fff171;stroke-width:0.3px;}.cls-6{stroke-width:0.41px;}.cls-7{stroke-width:0.31px;}.cls-8{font-size:24.66px;font-family:ABCSansBold, ABCSans;}.cls-9{letter-spacing:-0.02em;}.cls-10{letter-spacing:-0.04em;}.cls-11{letter-spacing:-0.01em;}.cls-12{letter-spacing:-0.02em;}.cls-13,.cls-14{fill:#fff;}.cls-13{opacity:0.7;}.cls-14{font-size:38.5px;font-family:ABCSerifBold, ABCSerif;}</style></defs><path class="cls-1" d="M419.89,371.73l-.16.06L391,383.71c-8.64,3.59-17.72,7-25.6,11.81-13.21,8-28.12,12.55-43.25,17l.11-.18a.72.72,0,0,1-.29.23l-1.31.39-.16,0c-3.48.66-11,.8-12.42,1-8,1.14-16.64,2.44-24,6.48-8.09,4.46-14.72,11.19-23,15.35-5.36,2.7-7.74,8.87-13.2,11.58-2.35,1.17-5.69,3.45-7.1,5.67-1.93,3-1.23,7.64,3,4.74a13.81,13.81,0,0,1,3.31-2.1c3.26-1,6.47,2.11,9.89,2a10.72,10.72,0,0,0,4-1.22c4.29-2,8.52-4.38,12.83-6.22,2.37-1,4.66-.88,7.06-1.51,4.4-1.16,9.21.61,13.6,1.58a20,20,0,0,0,2,.33c5.51.66,7.38,1.18,9.69-.65a8.48,8.48,0,0,0,3.08-6.12,21.71,21.71,0,0,1,.49-3.8c.12-.48.23-1,.34-1.45,8.21-2.18,27.65-4.73,34-5.42,13.72-1.5,27.33-2.44,41.05-3h.09c.92-.09,12.5-6.07,13.42-6.16C391,431.35,381,435.15,374.5,443.7c-9.22,12.06-18,24.37-26.88,36.7-8.31,11.91-18.59,24-22.14,38.34-3.39,13.67-2,28.06,3.75,39.54,3.65,7.25,9.13,13.43,16.21,16.67,9.78,4.48,35.43,6.72,46.15,2,24-10.45,16.37-32.28,27.16-46.28,16-20.73,13.7-18.6,24.46-42.77,5.56-12.47,11.31-32.66,17.53-46.54,4.77-10.65,11.72-27.85,11.64-39.61,1.86-13.79-15.26-33.76-29.07-34-6.36-.1-12.38,2.38-18.69,2.95l-1.8.16a1.11,1.11,0,0,0-.25.05Z"/><path class="cls-2" d="M554.86,469.5c1.27-.05-3.89,9.13-3,10.27s-.53,2.25-1.2,3.2c-.55.78-.67,1.71-1.16,2.53a8,8,0,0,0-1.08,1.75,6.53,6.53,0,0,0,.38,4.73c1,1.56,3,1.89,4.15,3.26a5.82,5.82,0,0,1,.89,2.09,2.73,2.73,0,0,1,1.57-.75c4-.58,7.61,1.49,11.48,2.23a20.09,20.09,0,0,0,.82-3.5,29.59,29.59,0,0,1,1.44-5.45c.57-1.61.61-3.15,2-4.14,1.05-.76,2.42-.81,3.46-1.56a23.22,23.22,0,0,1,2-1.68,33.43,33.43,0,0,1,3.81-1.61c2.83-1.18,5.6-2.66,8.37-4a25.42,25.42,0,0,0,8-5.69,20.49,20.49,0,0,0,4.57-8.86,44.71,44.71,0,0,0,1.41-7.64,76.55,76.55,0,0,0-.19-11.33c-.37-4.24-2.31-8.85-4.36-12.53-1.52-2.72-2.55-5.56-4.4-8.15a26.25,26.25,0,0,0-7.06-6.34c-2.26-1.52-3.75-3.52-5.49-5.5-.87-1-2.13-1.56-3.08-2.57a30.79,30.79,0,0,0-3.54-3.41c-2.55-1.91-5.24-1.64-8.19-1.5-2,.1-3.75.84-5.74.91a15.05,15.05,0,0,0-2.83.46c-1.05.24-2.07.17-3.12.42-.51.12-.87.43-1.4.57s-.91-.1-1.42.15a20.75,20.75,0,0,0-2.53,2.12,28.3,28.3,0,0,1-3.15,2.25,3.86,3.86,0,0,0-.36.22c0-.06-.18-.12-.53-.17a13.39,13.39,0,0,1-2.82-.89c-2.38-.85-2.42-1.34-5.24-2a28.39,28.39,0,0,0-5.35-.85,3.58,3.58,0,0,0-3.78,4.05,1.92,1.92,0,0,1-.25,1.29,5,5,0,0,1-2.54,2.61,12.52,12.52,0,0,0-7.85,4.09c-1.15,1.11-1.34,2.11-2.92,2.25-1.13.1-2.29.15-3.43.2-2.14.11-4.08.83-4.66,3.09a15.77,15.77,0,0,0,1.63,10.48c15.84,24.77,2.46,20.31,5,30.31,1.74,6.84,5.31,17.37,2.3,23.8"/><path d="M557.11,416.66a10.64,10.64,0,0,1-.17,1.11c0,.22-.12.66-.34.79s-.08.06-.14,0,0-.25,0-.32a1.89,1.89,0,0,0-.09-.34c-.13-.44-.32-.86-.47-1.3-.08-.25-.19-.49-.25-.75-.39-1.6-.27-3.39-.83-4.94a7.56,7.56,0,0,0-3.15-3.37c.4-.36,1.67-1.57,2.2-1.3.76.39,1.49,2.51,2.06,3.17a6.76,6.76,0,0,1,1.56,4.47C557.44,414.79,557.18,415.72,557.11,416.66Z"/><path d="M572.5,496.93c.86-2.47,1.35-5.27,2.5-7.59,3.67-7.41,13.42-9,19.9-14.14,5.33-4.22,8.33-10.89,9.24-17.63s0-13.59-1.46-20.24c-1.31-6.16-3-12.34-6.41-17.67-2.27-3.58-10.42-13-15.54-10.68s-5.46,12.67-10.64,16c-2.62,1.7-6,2.17-8.28,4.31a25.57,25.57,0,0,0-2.84,3.76c-1.69,2.29-4,4.13-5.49,6.54s-2.16,5.75-.4,8a11.68,11.68,0,0,1,6-.79c2,.41,1.64,1.68,1.62,3.72,0,2.8-1.08,4.79-3.87,5s-5.84-.23-8.21,1.27c-2.55,1.62-3.37,4.91-4,7.87-1,5.1.61,14.28-.44,19.37,2.72,1.53,1.65,1.52,4.28,3.21,2,1.27,4-2.74,4.17-.38a19.26,19.26,0,0,0,5.09,12c2.85,3.06,7.6,5.15,11.19,3A8.77,8.77,0,0,0,572.5,496.93Z"/><path d="M579.83,408.72l.67.71a1.14,1.14,0,0,1,.16-.15A3,3,0,0,0,579.83,408.72Z"/><path d="M567.84,484.42a7.47,7.47,0,0,0,3.16,1.63,12.45,12.45,0,0,1,3.56,2.15,6.36,6.36,0,0,1,2.54,3.95,7,7,0,0,1-.71,4.14,6.75,6.75,0,0,1-2.39,2.94c-1.23.56-3.42.25-4.76.35a7.05,7.05,0,0,1-4.47-1.7c-1.31-1-2.63-2.28-2.84-4A20.56,20.56,0,0,1,564,483c.74-1.67,3-2.69,4.74-3.15s4.66-.71,6.34,0c3.22,1.33,3.49,5.66,3,8.58-.31,1.76-.79,3.48-2.49,4.39a10.25,10.25,0,0,1-4.52.91,18.84,18.84,0,0,1-5.25-.06,6.84,6.84,0,0,1-2.65-.77,21.94,21.94,0,0,0-2.61-1.65,8.35,8.35,0,0,1-2.74-2.13,3.41,3.41,0,0,1-.91-2.49,11.2,11.2,0,0,1,.26-3.16c.15-.65.54-1.23.73-1.87.34-1.11.4-1.11,1.68-1.26"/><path d="M572.48,486.87c1.34-.7,2.61-.26,3.89.28a6.36,6.36,0,0,0,1.35.49,1.91,1.91,0,0,1,1.56,1.28c.85,1.72.39,4,.13,5.74a6.5,6.5,0,0,1-.57,2.22c-.33.63-.89,1.11-1.22,1.73-.19.36-.19.75-.48,1.08s-.72.52-1,.88-.36.63-.82.89a8.4,8.4,0,0,1-1.19.52,5.13,5.13,0,0,1-2.28.6,14.32,14.32,0,0,1-2.43-.4,6.49,6.49,0,0,1-1-.43c-.42-.19-.88-.21-1.3-.4a6.51,6.51,0,0,1-2.49-2.68c-1.28-1.95-1.29-4.67-1.33-6.94a12.18,12.18,0,0,1,1.09-5.15c.45-.89,1-1.68,1.51-2.52a10.3,10.3,0,0,1,1.57-2.23,8.76,8.76,0,0,1,2.5-1.67,20.42,20.42,0,0,1,3-1.25,6.54,6.54,0,0,1,3.14.1,8.52,8.52,0,0,0,1.58.58,5.66,5.66,0,0,1,1.71.31,6.91,6.91,0,0,1,4.2,4.17,22.13,22.13,0,0,1,1.1,4.38c.09,1,.11,1.93.18,2.89a6.28,6.28,0,0,1-.58,3,4.27,4.27,0,0,1-1,1.55c-.4.41-.72,1-1.23,1.23-1.53.74-3.13.32-4.67.75a6.33,6.33,0,0,1-.9.3c-.49.06-1,.05-1.51.08a10.49,10.49,0,0,1-2.44,0,7,7,0,0,1-2.62-.88,3.78,3.78,0,0,1-1.83-2.52,10.37,10.37,0,0,1-.76-3.79,13.69,13.69,0,0,1,1.25-5,10.29,10.29,0,0,1,3-4.26,11.12,11.12,0,0,1,2.22-1.59,12.92,12.92,0,0,1,2.41-.52c1.72-.29,3.41.67,4.91,1.35.3.13,1.08.33,1.27.6s.07.72.09,1"/><path d="M553.86,481.75c1.33-.7,2.61-.26,3.88.28a6.65,6.65,0,0,0,1.36.49,1.94,1.94,0,0,1,1.56,1.28c.84,1.72.39,4,.12,5.74a6.48,6.48,0,0,1-.56,2.22c-.34.63-.9,1.11-1.22,1.73-.19.36-.2.75-.49,1.08s-.71.52-1,.88-.36.63-.82.89a9.06,9.06,0,0,1-1.2.52,5.06,5.06,0,0,1-2.28.6,14.21,14.21,0,0,1-2.42-.4,6.22,6.22,0,0,1-1-.43c-.42-.19-.88-.21-1.3-.4a6.51,6.51,0,0,1-2.49-2.68c-1.28-1.95-1.29-4.67-1.32-6.94a11.88,11.88,0,0,1,1.09-5.15,28,28,0,0,1,1.51-2.52,10,10,0,0,1,1.57-2.23,8.49,8.49,0,0,1,2.5-1.67,19.37,19.37,0,0,1,3-1.25,6.38,6.38,0,0,1,3.13.1,8.79,8.79,0,0,0,1.58.58,5.55,5.55,0,0,1,1.71.31,6.86,6.86,0,0,1,4.2,4.17,22,22,0,0,1,1.11,4.38c.08,1,.1,1.93.17,2.89a6.16,6.16,0,0,1-.58,3,4.25,4.25,0,0,1-.94,1.55c-.4.41-.73,1-1.24,1.23-1.53.74-3.13.32-4.67.75a6.2,6.2,0,0,1-.89.3c-.5.06-1,.05-1.51.08a10.58,10.58,0,0,1-2.45,0,7.07,7.07,0,0,1-2.62-.88,3.78,3.78,0,0,1-1.83-2.52,10.36,10.36,0,0,1-.75-3.79,13.48,13.48,0,0,1,1.24-5,10.58,10.58,0,0,1,3-4.27,11.87,11.87,0,0,1,2.23-1.58,12.65,12.65,0,0,1,2.4-.52c1.73-.29,3.42.67,4.92,1.35.29.13,1.07.33,1.26.6s.08.72.1,1"/><path class="cls-2" d="M551.25,444.92c3.21-4.49,10.54.45,10.9,4.6a6.86,6.86,0,0,1-5.9,7.15c-3.52.36-6.83-2.11-10.37-2-1.87.07-3.82.87-5.55.15s-1.81-4.08,0-3.88"/><path class="cls-3" d="M543,459.66c-3.41-1.36-18.47,3-22.1,3-3.18,0-6.31,1.24-9.37,2-2.25.58-4.1,1.92-6.31,2.59-1.29.39-2.36,1.08-3.68,1.43a10.25,10.25,0,0,0-2.81,1.3c-1.67,1-3.38,1.95-5.06,3-1,.61-1.95,1.42-3,2-3.08,1.56-5.63,3.86-8.51,5.8-2.55,1.72-5.09,3.51-7.74,5-2.05,1.17-3.49,2.85-5.22,4.39-1.36,1.21-2.05,1.62-2.87,3.25a17.09,17.09,0,0,1-2.12,2.47,27.11,27.11,0,0,0-1.86,3.17c-1.56,2.7-3.24,5.35-4.84,8-2.38,4-5.66,7.41-8.38,11.15-2.4,3.29-4.75,6.63-7.34,9.77-3.66,4.44-6.69,9.27-10.18,13.85-5.47,7.19-9.46,15.21-13.21,23.38a57.45,57.45,0,0,0-3.12,7c-.71,2.31-17.05,5.89-17.26,8.3-.87,9.79,22.66,3.78,27.17,2.76,1.86-.42,3.72-.8,5.6-1.14,14.75-2.71,30-3.44,44.28-8a129.54,129.54,0,0,0,35.78-18.49,106.65,106.65,0,0,0,14.38-12.73c3.65-3.85,9.66-9.21,11.62-14.2,1.51-3.87,2.9-7.79,4.35-11.63a68.83,68.83,0,0,0,3.7-11.81c.57-3.22,1.42-6.29,1.28-9.58a80.3,80.3,0,0,1-.45-8.2c.11-1.9.39,4.16,0,2.21"/><path class="cls-4" d="M433.15,490.4a34,34,0,0,1-17,5.13,24.31,24.31,0,0,1-4.43-.37c-1-.18-1-.32-1.62.42a8.54,8.54,0,0,0-1,1.86c-.35.73,18.57,5.26,18.39,6-4.11,17.88-15.36,32.71-28.23,45.34-6.35,6.22-13.36,13.57-20.88,18.37-7.17,4.58-14.95,3.71-23.38,3.87a49.83,49.83,0,0,1-17.44-2.46c-.36-.12-.69-.28-1-.43,1.56,1.84,3,3.75,4.64,5.54a34.31,34.31,0,0,0,6.6,5.34c4.76,3.14,7.44,3.22,12.67,5.43a66.4,66.4,0,0,0,19.79,4.42,83.94,83.94,0,0,0,20.54-1.22c1.33-.24,8.78-1.19,10-1.8,1.49-.75,3.59-3.39,4.77-4.55,17.25-16.92,40.79-26.15,60.8-39.94a5.23,5.23,0,0,0,2.2-2.32,5,5,0,0,0-.16-2.91,161.64,161.64,0,0,1-5-46.43,7.7,7.7,0,0,1,.82-3.79,3,3,0,0,1,3.41-1.41q-4.8-1.32-9.52-2.88"/><path d="M547.6,492.51c.71,1.63.79,3.38,1.54,5a16.89,16.89,0,0,0,3.24,4,5.82,5.82,0,0,0,4.53,1.87c1.85,0,3.72,0,5.12-1.24,3-2.72,4.61-5.83,4.18-10.05-.14-1.4-2-11.23-4.74-8.79"/><path class="cls-5" d="M478.31,537.4a3.1,3.1,0,0,1,0,.43,4,4,0,0,1-.14.85,1.6,1.6,0,0,1-.1.31,5,5,0,0,1-.35.69,1.8,1.8,0,0,1-.31.43,1.52,1.52,0,0,1-.52.45c-.16.12-.34.24-.51.35l-.28.14c7,3.05,16.15,4.32,27,3.62A125,125,0,0,0,525.69,541s2.72-.57,2.15-.47c2.32-2.56,3.11-3.14,5-5.52-1,.24-3.74.78-4.64,1-1.28.3-2.46.57-3.47.83A120.53,120.53,0,0,1,503,540.37c-7.55.48-17,.13-24.66-3.09Z"/><path class="cls-6" d="M529.67,479.64A19.24,19.24,0,0,0,525.13,465a19.94,19.94,0,0,0-7.77-5.26,46,46,0,0,0-24.45-2.59c-7.57,1.42-14.1,3.05-20.05,8a57.65,57.65,0,0,1-13.38,8.63,63.14,63.14,0,0,1-15,4.51,63.76,63.76,0,0,0-13.34,3.82c-6.26-28.31-20-48.59-26.84-73.75,1.68-4.29,4-8.33,5.89-12.51a84.09,84.09,0,0,0,3.63-8c1-2.92.71-5.07.68-8,0-2.5-1.51-3.93-.91-6.37a3.53,3.53,0,0,0,.08-.79c0-.3.08-.61.07-.91a3.73,3.73,0,0,0-.34-1.69,1.66,1.66,0,0,0-.26-.45,6.41,6.41,0,0,0-.61-.4,7.6,7.6,0,0,1-1.21-.9,6.65,6.65,0,0,1-.69-1.29,21.62,21.62,0,0,1-1.12-2.5,10.18,10.18,0,0,0-1-2.59c-.35-.47-.88-.17-1.38.08a2.65,2.65,0,0,0-.69.56c-.25.25-.49.5-.72.76-.19.48-.37.95-.57,1.41a.76.76,0,0,1-.12.19,11.08,11.08,0,0,0,0,2.08c.07.79.17,1.57.28,2.35,0,.05,1.61,6.75,1.62,6.81-.09-.33-1.76-7.3-1.83-7.63a10.34,10.34,0,0,1-.25-2c0-.5.08-1,.09-1.51a.71.71,0,0,1-.7.19,3.86,3.86,0,0,0-3.55.71c-1,.73-1.87,1.56-2.92,2.21a.72.72,0,0,1-.83-.15,2.7,2.7,0,0,0-3.34-.84,7.61,7.61,0,0,0-2.66,2.57.67.67,0,0,1-.21.2l-.28,5.37c0-.09-.08,6.17-.22,2.68l.33-8a.62.62,0,0,1-.73-.17,1.77,1.77,0,0,0-2-.64c-1.57.57-1.18,1.16-1.8,1.71a2.65,2.65,0,0,1-2.42.83,1.72,1.72,0,0,0-1.82.34,7.68,7.68,0,0,0-.88,1.08c0,.86,0,1.7-.07,2.56-.19,1.87.19,3.7.17,5.56,0,2-.18,4.08-.2,6.13,0,.78,0,1.57,0,2.35.25,4.65,2.19,9.14,3.66,13.49.16.48.44.85.56,1.36a18.56,18.56,0,0,0,1,2.51c-.15,12-.26,24,1,35.76a129,129,0,0,0,15.17,48.81c.35.63.72,1.23,1.1,1.83,2.09,3.27,4.57,6.12,6.89,9.27,1.56,2.14,3.7,3.87,4.45,6.05a11.71,11.71,0,0,0,3.72,5.45c5,4,12.17,3.19,18.45,2,12.69-2.38,40.33-1.66,52.42-6.15"/><path class="cls-7" d="M409.53,372.57a3.14,3.14,0,0,0,1.36-.05c.3-.11.61-.25.91-.38s.51-.16.77-.25c.43-.14.83,0,1.1-.57"/><path class="cls-7" d="M409.78,370.64a7.66,7.66,0,0,1,1.37-1.11l.46-.33c.19-.14.48-.19.65-.35"/><path class="cls-7" d="M409.93,366.12c.44,1.32-.88.65-1.33.35-1-.69-3.17-2.1-2-4"/><path class="cls-7" d="M385.72,370.91a32.92,32.92,0,0,0,.13,5.61c0,.31,0,.65,0,1s.2,3,.23,3.32c0,.56-.77-9.6-.83-9.06"/><path class="cls-7" d="M398.12,367.53c-.06.7,0,2.25,0,3,0,.39-.19,7.45-.2,7.85s-.1-10.66-.15-10.25"/><path class="cls-5" d="M539,523.32l1.61-4c.48-1.2.82-2.43,1.26-3.65a97.7,97.7,0,0,0-10.68-42,24.36,24.36,0,0,0-5.26-7.35,13.6,13.6,0,0,1,2.67,5,14.21,14.21,0,0,1,1,3.47,16.38,16.38,0,0,1,.06,5.43c1.16,2.56,2.24,5.15,3.17,7.78a96,96,0,0,1,5,32.86c0,2-.15,4.19-.28,6.17C537.86,526.27,538.55,524.31,539,523.32Z"/><text class="cls-8" transform="translate(61.2 224.35)"><tspan class="cls-9">K</tspan><tspan x="15.29" y="0">nees must </tspan><tspan x="0" y="33.91">be pu</tspan><tspan class="cls-10" x="64.42" y="33.91">l</tspan><tspan class="cls-11" x="71.4" y="33.91">l</tspan><tspan x="78.97" y="33.91">ed in</tspan><tspan class="cls-12" x="135.5" y="33.91">t</tspan><tspan x="145" y="33.91">o </tspan><tspan x="0" y="67.83">the chest</tspan></text><path d="M90.78,323.31A68.38,68.38,0,0,0,105.37,354a80.71,80.71,0,0,0,24.29,19.46A89.76,89.76,0,0,0,145,379.84c1.85.58,2.64-2.31.8-2.89-19-6-36.51-18.64-45.91-36.51a64.71,64.71,0,0,1-6.23-17.93c-.37-1.89-3.26-1.09-2.89.8Z"/><path d="M135.73,367.88c3.18,3.6,6,7.49,8.9,11.32l.53-2.05c-2.34,1-4.63,2.08-6.95,3.11-2.07.91-4.18,1.74-6.25,2.66a1.51,1.51,0,0,0-.54,2.05,1.54,1.54,0,0,0,2.05.54c2.07-.92,4.18-1.75,6.25-2.66,2.33-1,4.62-2.12,7-3.11a1.5,1.5,0,0,0,.54-2.05c-3.06-4-6-8.14-9.37-11.93-1.28-1.45-3.39.67-2.12,2.12Z"/><path class="cls-13" d="M148.79,61.4a36.73,36.73,0,0,1,8.33-23.32,34.4,34.4,0,0,0-45.48-4.38A34.43,34.43,0,0,0,131.9,96a34.33,34.33,0,0,0,25.32-11.11A36.76,36.76,0,0,1,148.79,61.4ZM138,75.49s-3.7-.27-11.47-.27a25.63,25.63,0,0,0-4.93.31l-1.35-2.46c7.78-7.9,12.4-13.63,13-18.71.47-3.66-2-4.82-4.35-4.66a9.73,9.73,0,0,0-6.73,3.92c-.2-.23-1.93-2.07-1.47-2.65A12.43,12.43,0,0,1,130,46.12c5.89,0,9.09,3,8.74,8.51-.46,7-8,13.59-12.63,17.55l8.32-.08c1.77-.15,3-2.54,3.81-4.73,0,0,1.73.5,2,1C139.58,71.53,138.81,75.49,138,75.49Z"/><path class="cls-13" d="M95.79,61.4A36.74,36.74,0,0,1,104.16,38a34.44,34.44,0,1,0,.11,46.9A36.78,36.78,0,0,1,95.79,61.4ZM87.2,75.66H70.92L71,73.39l4.46-.58c.58,0,.81-.23.81-1,.08-10.05,0-19.6,0-19.6l-5.62,1.08c-.19-.31-1.12-2.46-.46-2.73l10.35-4,1,1s-.12,20.87,0,24.37c0,.77.19,1,.73,1l5.08.54Z"/><circle cx="184" cy="61.53" r="34.44"/><text class="cls-14" transform="translate(172.45 75.26)">3</text><path d="M243.45,38.34l-.27,3.12h-5.55V59.34h-3.75V41.46h-5.76V38.34Z"/><path d="M249.6,36.42v9.72a5.86,5.86,0,0,1,5.16-2.67c3.69,0,5.46,2.37,5.46,5.61V59.34H256.5V50.28c0-2.4-.9-3.69-2.94-3.69-2.85,0-4,2.31-4,4.83v7.92h-3.72V36.87Z"/><path d="M277.74,55a7,7,0,0,1-6.78,4.5c-5.28,0-7.62-3.3-7.62-8.22s3.3-7.95,7.83-7.83c3.69.09,7,2.85,6.63,7.86l-.06.48H267.12c0,2.67,1.14,4.5,3.87,4.5a3.5,3.5,0,0,0,3.39-2.49Zm-3.81-5.13c.06-2.43-1.26-3.57-3.09-3.51a3.5,3.5,0,0,0-3.54,3.51Z"/><path d="M284,43.62l.57,2.79A5.8,5.8,0,0,1,290,43.47c3.69,0,5.46,2.37,5.46,5.61V59.34h-3.72V50.28c0-2.4-.9-3.69-2.94-3.69-2.85,0-4,2.31-4,4.83v7.92h-3.72V43.62Z"/><path d="M310.29,39.18v4.59h4l-.51,3h-3.45V54c0,1.71.78,2.37,2,2.37a6.83,6.83,0,0,0,2.37-.69l.69,2.85a9.82,9.82,0,0,1-4,1c-3.69,0-4.83-2.46-4.83-5V46.77h-2.19v-3h2.37l.45-4.17Z"/><path d="M321.48,36.42v9.72a5.86,5.86,0,0,1,5.16-2.67c3.69,0,5.46,2.37,5.46,5.61V59.34h-3.72V50.28c0-2.4-.9-3.69-2.94-3.69-2.85,0-4,2.31-4,4.83v7.92h-3.72V36.87Z"/><path d="M349.62,55a7,7,0,0,1-6.78,4.5c-5.28,0-7.62-3.3-7.62-8.22s3.3-7.95,7.83-7.83c3.69.09,7,2.85,6.63,7.86l-.06.48H339c0,2.67,1.14,4.5,3.87,4.5a3.5,3.5,0,0,0,3.39-2.49Zm-3.81-5.13c.06-2.43-1.26-3.57-3.09-3.51a3.5,3.5,0,0,0-3.54,3.51Z"/><path d="M360.15,43.77V41.64c0-3.12,1.62-5.22,5.16-5.22a6.41,6.41,0,0,1,3.6,1.08v-.72l3.72-.36V54.21c0,1.68.72,2.13,1.83,2.13a2.81,2.81,0,0,0,1.56-.57l.72,2.67a6.6,6.6,0,0,1-3.42,1.08c-3.09,0-4.41-2.1-4.41-5V40.08a6,6,0,0,0-2.7-.69c-1.47,0-2.31.6-2.31,2.85v1.53h3.18l-.48,3h-2.7V59.34h-3.75V46.77h-2.46v-3Z"/><path d="M383.37,43.62V59.34h-3.75V46.71h-2.19V43.62Zm-1.89-6.12a2,2,0,0,1,2.22,1.89,2.22,2.22,0,0,1-4.41,0A1.93,1.93,0,0,1,381.48,37.5Z"/><path d="M401.85,43.62V57c0,5.22-2,8.37-7.8,8.37A16.38,16.38,0,0,1,387.63,64l.87-2.82a13.33,13.33,0,0,0,5.13,1.17c3.39,0,4.5-1.68,4.5-4.26V56.7a5.42,5.42,0,0,1-4.83,2.49c-4.23.09-6.66-3.12-6.66-7.74,0-5.64,3.6-8,6.72-8a5.2,5.2,0,0,1,5,2.85l.39-2.7Zm-11.34,7.8c0,2.67,1.05,4.77,3.84,4.77s3.9-2.1,3.9-4.74c0-3.57-1.89-4.86-3.93-4.86S390.51,48,390.51,51.42Z"/><path d="M409.41,36.42v9.72a5.86,5.86,0,0,1,5.16-2.67c3.69,0,5.46,2.37,5.46,5.61V59.34h-3.72V50.28c0-2.4-.9-3.69-2.94-3.69-2.85,0-4,2.31-4,4.83v7.92h-3.72V36.87Z"/><path d="M428.58,39.18v4.59h4l-.51,3h-3.45V54c0,1.71.78,2.37,2,2.37a6.83,6.83,0,0,0,2.37-.69l.69,2.85a9.82,9.82,0,0,1-4,1c-3.69,0-4.83-2.46-4.83-5V46.77h-2.19v-3H425l.45-4.17Z"/><path d="M445.29,43.62l.54,2.82a5.71,5.71,0,0,1,5.37-3c3,.09,6.18,2.1,6.18,7.89,0,4.74-2.37,8.16-6.66,8.16A4.88,4.88,0,0,1,446.07,57v8.37h-3.75V43.62Zm.51,7.83c0,2.7,1,4.86,4,4.86,2.43,0,3.78-1.83,3.78-4.92,0-3.66-1.83-4.8-3.81-4.8C447.6,46.59,445.8,48.3,445.8,51.45Z"/><path d="M464.37,36.42v9.72a5.86,5.86,0,0,1,5.16-2.67c3.69,0,5.46,2.37,5.46,5.61V59.34h-3.72V50.28c0-2.4-.9-3.69-2.94-3.69-2.85,0-4,2.31-4,4.83v7.92h-3.72V36.87Z"/><path d="M478.41,44.61a18.74,18.74,0,0,1,5.94-1.14c4.74,0,6.48,2.34,6.48,6v6.36a.79.79,0,0,0,.75.9,3,3,0,0,0,1.23-.18V59a6.08,6.08,0,0,1-2.49.48,2.84,2.84,0,0,1-2.85-2.13,6.87,6.87,0,0,1-4.74,2.13c-3.06,0-5.34-1.56-5.37-4.83s2.46-5,6.39-5a24.49,24.49,0,0,1,3.39.3v-.93c0-1.71-1.08-2.64-3.24-2.61a12.68,12.68,0,0,0-4.86,1Zm8.7,7.35a16.62,16.62,0,0,0-3.06-.18c-1.8.09-2.94.93-3,2.52a2.21,2.21,0,0,0,2.55,2.31,6.17,6.17,0,0,0,3.48-1.26Z"/><path d="M495.81,54.84a8.15,8.15,0,0,0,5.1,1.74c1.8,0,2.85-.54,2.85-1.83,0-3.06-9.09-1-8.79-6.78.12-2.82,2.19-4.5,6.36-4.5A12.78,12.78,0,0,1,507,44.94l-1.32,2.64a8.9,8.9,0,0,0-4.5-1.29c-1.47,0-2.7.48-2.64,1.71.18,2.49,8.91.57,8.91,6.63,0,3.24-2.91,4.92-6.63,4.89a10.76,10.76,0,0,1-6.45-2Z"/><path d="M524.28,55a7,7,0,0,1-6.78,4.5c-5.28,0-7.62-3.3-7.62-8.22s3.3-7.95,7.83-7.83c3.69.09,7,2.85,6.63,7.86l-.06.48H513.66c0,2.67,1.14,4.5,3.87,4.5a3.5,3.5,0,0,0,3.39-2.49Zm-3.81-5.13c.06-2.43-1.26-3.57-3.09-3.51a3.5,3.5,0,0,0-3.54,3.51Z"/><path d="M238,67.38l-.26,1.1a7.49,7.49,0,0,0-1.65-.2c-2.41,0-3.57.87-3.57,4.06V74.2h4.38l-.29,1.19h-4.09V89.25h-1.39V75.39h-3.05V74.2h3.05v-2c0-3.69,1.82-5.08,4.81-5.08A9.18,9.18,0,0,1,238,67.38Z"/><path d="M245.79,89.42c-4.58,0-6.58-3.48-6.58-7.74,0-5.19,3-7.77,6.7-7.77,3.39,0,6.47,2.58,6.47,7.77C252.38,85.94,250,89.42,245.79,89.42Zm0-1.18c3.48,0,5.19-3.17,5.19-6.56,0-4.67-2.46-6.58-5.07-6.58-2.82,0-5.28,1.79-5.28,6.58C240.63,85.05,241.93,88.24,245.79,88.24Z"/><path d="M258.84,80.38v8.87h-1.39V74.05h1.13l.26,3.08c.64-1.95,2.35-3.22,5.08-3.22a7.85,7.85,0,0,1,1.62.14l-.2,1.28a4.68,4.68,0,0,0-1.51-.21C260.38,75.12,258.84,77.65,258.84,80.38Z"/><path d="M287.32,85.45l1.1.67a6.94,6.94,0,0,1-6,3.3c-4.79,0-6.82-3.27-6.82-7.94,0-4.9,3-7.57,6.84-7.57,3.51,0,6.36,2.55,6,7.28l-.06.49H277c0,4,1.65,6.56,5.48,6.56A5.68,5.68,0,0,0,287.32,85.45Zm-10.24-5h10c0-3.86-2-5.39-4.65-5.39C279.69,75.1,277.34,76.75,277.08,80.49Z"/><path d="M303.18,89.25l-4.58-6.7-4.7,6.7h-1.6l5.51-7.71-5-7.49h1.62l4.21,6.44L303,74.05h1.59l-5.16,7.43,5.34,7.77Z"/><path d="M313.65,89.42c-3.08,0-5.4-1.47-5.4-4.75s2.82-4.76,6.15-4.76a19.84,19.84,0,0,1,4.76.64V79c0-2.52-1.57-3.85-4.64-3.85a11.33,11.33,0,0,0-5,1.16l-.32-1.19a13.82,13.82,0,0,1,5.31-1.16c4.52,0,6,2.32,6,5.25v8.21c0,.43.09.81.64.87a5.49,5.49,0,0,0,1.48-.18v1.08a4.79,4.79,0,0,1-1.63.28,2,2,0,0,1-1.88-2.14A9,9,0,0,1,313.65,89.42Zm0-1.21a9.43,9.43,0,0,0,5.51-2.12V81.62a26.39,26.39,0,0,0-5-.58c-2.9,0-4.52,1.16-4.52,3.66C309.65,86.9,311.1,88.21,313.65,88.21Z"/><path d="M327.83,74.05l.23,3a5.1,5.1,0,0,1,4.67-3.19c2.7-.09,4.09,1.19,4.7,3a5.45,5.45,0,0,1,5-3c3.83-.12,5.05,2.43,5.05,5.42v9.92h-1.4v-10c0-2.72-1.24-4.14-3.74-4.14-3.48,0-4.58,2.43-4.58,5v9.14h-1.39v-10c0-2.72-1.25-4.14-3.75-4.14-3.65,0-4.58,2.69-4.58,5.42v8.73h-1.39V74.05Z"/><path d="M354.33,74.05l.27,3.08a6.22,6.22,0,0,1,5.62-3.22c3.4,0,6.62,2.17,6.62,7.63,0,4.58-2.27,7.88-6.85,7.88a5.61,5.61,0,0,1-5.39-3.21v8.84h-1.43v-21Zm5.78,14.19c3.65,0,5.33-2.93,5.33-6.68,0-4.9-2.58-6.46-5.39-6.46-3.1,0-5.57,2.52-5.57,6.55C354.48,85,355.67,88.24,360.11,88.24Z"/><path d="M373.33,85.42c0,2.15.9,2.76,2.32,2.76a4.81,4.81,0,0,0,2.44-.87l.63,1.1a5.72,5.72,0,0,1-3.07,1c-2.9,0-3.71-1.74-3.71-4V67.35l1.39-.26Z"/><path d="M391.89,85.45l1.1.67a6.93,6.93,0,0,1-6,3.3c-4.79,0-6.82-3.27-6.82-7.94,0-4.9,3-7.57,6.85-7.57,3.51,0,6.35,2.55,6,7.28l-.06.49h-11.4c0,4,1.66,6.56,5.49,6.56A5.68,5.68,0,0,0,391.89,85.45Zm-10.24-5h10c0-3.86-2-5.39-4.64-5.39C384.26,75.1,381.91,76.75,381.65,80.49Z"/><path d="M397.66,89.4c0-.58-.75-.53-.75-.53a1.12,1.12,0,0,1,0-2.23c1.45,0,2,1.34,1.82,2.73a3.28,3.28,0,0,1-3.45,2.81v-.9A2.13,2.13,0,0,0,397.66,89.4Z"/><path d="M414.6,89.42c-3.08,0-5.4-1.47-5.4-4.75s2.81-4.76,6.15-4.76a19.84,19.84,0,0,1,4.76.64V79c0-2.52-1.57-3.85-4.64-3.85a11.27,11.27,0,0,0-5,1.16l-.32-1.19a13.76,13.76,0,0,1,5.31-1.16c4.52,0,6,2.32,6,5.25v8.21c0,.43.09.81.64.87a5.49,5.49,0,0,0,1.48-.18v1.08a4.84,4.84,0,0,1-1.63.28,2,2,0,0,1-1.88-2.14A9,9,0,0,1,414.6,89.42Zm0-1.21a9.43,9.43,0,0,0,5.51-2.12V81.62a26.5,26.5,0,0,0-5-.58c-2.9,0-4.53,1.16-4.53,3.66C410.59,86.9,412,88.21,414.6,88.21Z"/><path d="M435.59,75.39h-2.52V74.2h2.58l.2-4.24,1.13-.2V74.2h4.44l-.32,1.19H437v10c0,2.15.9,2.76,2.32,2.76a7,7,0,0,0,2.93-1.08l.64,1.11a7.8,7.8,0,0,1-3.57,1.21c-2.9,0-3.71-1.74-3.71-4Z"/><path d="M448.79,89.25h-1.43v-14h-2.49V74.05h3.92Zm-1.86-20a1.12,1.12,0,0,1,1.1-1.1,1.12,1.12,0,1,1,0,2.23A1.12,1.12,0,0,1,446.93,69.21Z"/><path d="M466.86,87.6c0,5-2.18,7.45-7,7.45a15.16,15.16,0,0,1-5.6-1l.43-1.22a15.14,15.14,0,0,0,5.28,1c4.15,0,5.51-2.69,5.51-5.85V86.21a6.29,6.29,0,0,1-5.57,3.21c-4.49.15-6.73-3.39-6.73-7.68,0-5.22,3-7.83,6.65-7.83a5.82,5.82,0,0,1,5.65,3.19l.24-3h1.16Zm-6.79.64c3.77,0,5.42-3.17,5.42-6.59,0-4.64-2.67-6.55-5.54-6.55-3,0-5.39,1.77-5.39,6.55C454.56,85.05,455.63,88.24,460.07,88.24Z"/><path d="M484.75,79.33v9.92h-1.39v-10c0-2.72-1.51-4.14-4-4.14-3.65,0-5.31,2.69-5.31,5.42v8.73h-1.39V67.35l1.39-.26V77.24a5.81,5.81,0,0,1,5.4-3.33C483.27,73.79,484.75,76.34,484.75,79.33Z"/><path d="M491.1,75.39h-2.53V74.2h2.58l.21-4.24,1.13-.2V74.2h4.44l-.32,1.19h-4.12v10c0,2.15.9,2.76,2.32,2.76a7,7,0,0,0,2.93-1.08l.64,1.11a7.86,7.86,0,0,1-3.57,1.21c-2.9,0-3.71-1.74-3.71-4Z"/><path d="M510.15,75.39h-2.53V74.2h2.59l.2-4.24,1.13-.2V74.2H516l-.32,1.19h-4.12v10c0,2.15.9,2.76,2.32,2.76a7,7,0,0,0,2.93-1.08l.64,1.11a7.86,7.86,0,0,1-3.57,1.21c-2.9,0-3.71-1.74-3.71-4Z"/><path d="M531.87,89.25l-.23-3.59A6,6,0,0,1,526,89.4c-3.83.11-5.34-2.44-5.34-5.43V74.05h1.4v10c0,2.73,1.53,4.15,4,4.15,3.65,0,5.51-3.37,5.51-6V74.05H533v15.2Z"/><path d="M550.84,85.94A6.34,6.34,0,0,1,545,89.42c-4.64,0-6.82-3.71-6.82-7.77,0-5,3.14-7.74,7-7.74a6,6,0,0,1,5.63,3.45l-1.25.55A4.64,4.64,0,0,0,545,75.1c-3,0-5.51,2.11-5.51,6.46,0,3.49,1.53,6.62,5.45,6.62a4.68,4.68,0,0,0,4.61-2.82Z"/><path d="M560.93,81.65l5.51,7.6h-1.77l-4.93-6.9h-2.87v6.9h-1.42V67.35l1.42-.26V81.16h2.81l4.67-7.11h1.8Z"/><path d="M578.5,74.05l.26,3.08a6.22,6.22,0,0,1,5.63-3.22c3.39,0,6.61,2.17,6.61,7.63,0,4.58-2.26,7.88-6.84,7.88a5.62,5.62,0,0,1-5.4-3.21v8.84h-1.42v-21Zm5.77,14.19c3.66,0,5.34-2.93,5.34-6.68,0-4.9-2.58-6.46-5.4-6.46-3.1,0-5.56,2.52-5.56,6.55C578.65,85,579.83,88.24,584.27,88.24Z"/><path d="M601.93,89.42c-4.58,0-6.58-3.48-6.58-7.74,0-5.19,3-7.77,6.7-7.77,3.39,0,6.47,2.58,6.47,7.77C608.52,85.94,606.17,89.42,601.93,89.42Zm0-1.18c3.48,0,5.2-3.17,5.2-6.56,0-4.67-2.47-6.58-5.08-6.58-2.81,0-5.28,1.79-5.28,6.58C596.77,85.05,598.08,88.24,601.93,88.24Z"/><path d="M623.45,75.3l-.58,1.16a8.51,8.51,0,0,0-4.61-1.36c-2.09,0-4.06.61-4,2.75.08,3.8,9.71,1.57,9.71,7.14,0,3-2.55,4.49-5.94,4.43a8.17,8.17,0,0,1-5.6-1.94l.78-1A6.65,6.65,0,0,0,618,88.24c2.75,0,4.55-1,4.55-3.22,0-4.56-9.6-2.06-9.66-7.08,0-2.55,1.89-4,5.43-4A11.23,11.23,0,0,1,623.45,75.3Z"/><path d="M630.93,89.25h-1.42v-14H627V74.05h3.91Zm-1.85-20a1.12,1.12,0,0,1,1.1-1.1,1.12,1.12,0,1,1,0,2.23A1.12,1.12,0,0,1,629.08,69.21Z"/><path d="M637.57,75.39h-2.52V74.2h2.58l.2-4.24,1.13-.2V74.2h4.44l-.32,1.19H639v10c0,2.15.9,2.76,2.33,2.76a7,7,0,0,0,2.92-1.08l.64,1.11a7.8,7.8,0,0,1-3.56,1.21c-2.91,0-3.72-1.74-3.72-4Z"/><path d="M650.77,89.25h-1.42v-14h-2.5V74.05h3.92Zm-1.86-20a1.12,1.12,0,0,1,1.1-1.1,1.12,1.12,0,1,1,0,2.23A1.12,1.12,0,0,1,648.91,69.21Z"/><path d="M662.46,89.42c-4.59,0-6.59-3.48-6.59-7.74,0-5.19,3-7.77,6.7-7.77,3.39,0,6.47,2.58,6.47,7.77C669,85.94,666.69,89.42,662.46,89.42Zm0-1.18c3.48,0,5.19-3.17,5.19-6.56,0-4.67-2.47-6.58-5.08-6.58-2.81,0-5.28,1.79-5.28,6.58C657.29,85.05,658.6,88.24,662.46,88.24Z"/><path d="M675.27,74.05l.23,3a5.68,5.68,0,0,1,5.4-3.19c3.83-.12,5.31,2.43,5.31,5.42v9.92h-1.4v-10c0-2.72-1.5-4.14-4-4.14-3.65,0-5.31,2.69-5.31,5.42v8.73h-1.39V74.05Z"/></svg>