<svg id="Layer_1" data-name="Layer 1" xmlns="http://www.w3.org/2000/svg" viewBox="0 0 780 1051.14"><defs><style>.cls-1{fill:#c6946f;stroke-width:0.23px;}.cls-1,.cls-2,.cls-4,.cls-5,.cls-6,.cls-7{stroke:#fff;stroke-miterlimit:10;}.cls-2,.cls-3,.cls-6,.cls-7{fill:#d4a47c;}.cls-2{stroke-width:0.28px;}.cls-4{fill:#005058;stroke-width:0.54px;}.cls-5{fill:#fff171;stroke-width:0.3px;}.cls-6{stroke-width:0.41px;}.cls-7{stroke-width:0.31px;}.cls-8{font-size:24.66px;font-family:ABCSansBold, ABCSans;}.cls-9{letter-spacing:-0.02em;}.cls-10{letter-spacing:-0.04em;}.cls-11{letter-spacing:-0.01em;}.cls-12{letter-spacing:-0.02em;}.cls-13,.cls-14{fill:#fff;}.cls-13{opacity:0.7;}.cls-14{font-size:38.5px;font-family:ABCSerifBold, ABCSerif;}</style></defs><path class="cls-1" d="M482.92,385.44l-.17-.06L453,376.27c-8.95-2.75-18.14-5.87-27.26-7.21-15.28-2.26-29.67-8.25-44.15-14.47l.19-.07a.65.65,0,0,1-.37,0l-1.26-.54-.14-.07c-3.1-1.71-9-6.37-10.21-7.14-6.9-4.22-14.39-8.72-22.63-10.29-9.08-1.72-18.47-.76-27.51-2.82-5.86-1.34-11.62,1.9-17.55.51-2.56-.59-6.58-1-9.09-.15-3.41,1.1-5.81,5.1-.68,5.58a14,14,0,0,1,3.89.49c3.18,1.27,3.64,5.75,6.34,7.84a10.44,10.44,0,0,0,3.87,1.61c4.57,1.22,9.36,2.06,13.86,3.39,2.46.73,4.15,2.29,6.4,3.33,4.13,1.91,6.71,6.34,9.48,9.89.41.53.87,1,1.34,1.53,3.82,4,4.93,5.61,7.88,5.67a8.48,8.48,0,0,0,6.27-2.76,22.92,22.92,0,0,1,2.8-2.61l1.19-.9c7.72,3.55,24.32,14,29.64,17.47,11.53,7.58,22.62,15.53,33.55,23.85l.07.05c.77.51,13.5,3.29,14.27,3.8-10.56.72-20.64-2.68-31.12-.26-14.79,3.42-29.43,7.3-44.1,11.16-14,3.89-29.63,6.66-41.49,15.45C305.16,447,297,458.94,294.18,471.46c-1.8,7.92-1.52,16.17,1.88,23.18,4.68,9.68,23,27.75,34.26,31,25.13,7.21,33.19-14.45,50.42-18.36,25.53-5.79,22.41-5.61,46.11-17.38,12.22-6.07,29.52-18,43.15-24.7,10.47-5.18,26.79-14,34.21-23.12,10.22-9.44,9.75-35.74-.75-44.7-4.85-4.14-11.07-6.06-16.29-9.64l-1.49-1a1.71,1.71,0,0,0-.23-.13Z"/><path class="cls-2" d="M524.65,546.79c1,.77-8.81,4.56-8.81,6s-1.85,1.39-3,1.7c-.92.25-1.61.89-2.5,1.21a8.09,8.09,0,0,0-2,.66,6.48,6.48,0,0,0-2.71,3.89c-.25,1.82,1.12,3.38,1.11,5.16a5.76,5.76,0,0,1-.64,2.17,2.72,2.72,0,0,1,1.69.42c3.48,2.13,4.92,6,7.42,9a19.29,19.29,0,0,0,2.86-2.16,29.76,29.76,0,0,1,4.59-3.29c1.46-.88,2.48-2,4.16-1.93,1.29.08,2.38.92,3.67,1a22.72,22.72,0,0,1,2.61,0,31.83,31.83,0,0,1,4,1.19c2.93.88,6,1.51,9,2.27a25.38,25.38,0,0,0,9.81.73A20.44,20.44,0,0,0,565.1,571a45,45,0,0,0,6-5,75.74,75.74,0,0,0,7.08-8.86c2.41-3.5,3.85-8.29,4.61-12.43.57-3.07,1.58-5.92,1.81-9.09a26.52,26.52,0,0,0-1.4-9.38c-.78-2.61-.65-5.1-.73-7.74,0-1.33-.65-2.56-.74-3.94a30.77,30.77,0,0,0-.56-4.89c-.74-3.09-3-4.6-5.36-6.37-1.58-1.18-3.42-1.74-5-2.95a14.58,14.58,0,0,0-2.47-1.46c-1-.48-1.7-1.18-2.68-1.65-.46-.24-.94-.23-1.43-.46s-.64-.66-1.19-.79a21.55,21.55,0,0,0-3.31,0,27.51,27.51,0,0,1-3.86-.27c-.2,0-.33-.05-.41-.06s-.06-.2-.31-.47a13.14,13.14,0,0,1-1.6-2.48c-1.3-2.17-1-2.57-2.74-4.9a28.07,28.07,0,0,0-3.58-4.07,3.57,3.57,0,0,0-5.49.71,2,2,0,0,1-1,.83,4.94,4.94,0,0,1-3.61.4,18.82,18.82,0,0,0-2.86-1.36,19.26,19.26,0,0,0-5.8-.49c-1.6.12-2.37.77-3.68-.13-.94-.64-1.86-1.34-2.78-2-1.71-1.28-3.67-2-5.56-.59a15.82,15.82,0,0,0-5.41,9.12c-3.58,29.18-11.05,17.22-15.46,26.55-3,6.38-7,16.77-13.4,19.81"/><path d="M560.05,507.49c-.26.27-.55.51-.83.76s-.52.43-.76.38-.11,0-.09-.11.14-.19.18-.26a2.2,2.2,0,0,0,.15-.31c.18-.43.3-.87.47-1.3a7.61,7.61,0,0,1,.28-.75c.72-1.48,2-2.78,2.5-4.33a7.49,7.49,0,0,0-.27-4.61c.53,0,2.29-.14,2.52.41.34.78-.44,2.88-.43,3.76a6.8,6.8,0,0,1-1.64,4.43C561.5,506.27,560.71,506.81,560.05,507.49Z"/><path d="M520.78,579.17c2.23-1.35,4.39-3.2,6.76-4.26,7.55-3.37,16.09,1.61,24.35,1.78,6.8.15,13.35-3.08,18.35-7.69s8.62-10.51,11.77-16.54c2.92-5.58,5.52-11.45,6.31-17.7.54-4.2.26-16.66-5.17-18.13s-12.28,6.28-18.41,5.58c-3.1-.36-6-2.16-9.13-2a26,26,0,0,0-4.58,1.08c-2.77.7-5.69.67-8.4,1.55s-5.33,3-5.4,5.9a11.65,11.65,0,0,1,5.12,3.21c1.28,1.59.19,2.34-1.12,3.9-1.81,2.14-3.88,3-6.17,1.38s-4.35-3.9-7.13-4.25c-3-.37-5.73,1.63-8.08,3.53-4.06,3.26-8.63,11.39-12.69,14.65,1.13,2.91.31,2.23,1.26,5.2.72,2.25,4.87.47,3.46,2.36a19.3,19.3,0,0,0-3.74,12.51c.25,4.18,2.58,8.81,6.71,9.46A8.79,8.79,0,0,0,520.78,579.17Z"/><path d="M582.63,515.85l.06,1h.22A3.3,3.3,0,0,0,582.63,515.85Z"/><path d="M525.16,566.57a7.5,7.5,0,0,0,1.39,3.26,12.41,12.41,0,0,1,1.38,3.93,6.44,6.44,0,0,1-.56,4.66,7,7,0,0,1-3.19,2.74,6.76,6.76,0,0,1-3.71.74c-1.31-.35-2.8-2-3.89-2.77a6.94,6.94,0,0,1-2.36-4.15,6.23,6.23,0,0,1,.34-4.87,20.57,20.57,0,0,1,8.54-7.05c1.64-.81,4.06-.14,5.67.6s4,2.41,4.89,4c1.63,3.09-.92,6.59-3.17,8.52-1.36,1.15-2.83,2.18-4.72,1.79a10.27,10.27,0,0,1-4.06-2.17,19,19,0,0,1-4-3.39,6.94,6.94,0,0,1-1.55-2.28,21.09,21.09,0,0,0-1-2.94,8.76,8.76,0,0,1-.75-3.39,3.4,3.4,0,0,1,.89-2.5,11.06,11.06,0,0,1,2.21-2.27c.53-.41,1.2-.61,1.76-1,1-.64,1-.61,2.1.09"/><path d="M527.17,571.41c1.48.31,2.18,1.46,2.82,2.69a6.59,6.59,0,0,0,.73,1.24,1.92,1.92,0,0,1,.39,2c-.45,1.86-2.22,3.3-3.57,4.5a6.61,6.61,0,0,1-1.84,1.36c-.66.27-1.4.28-2,.55a5.08,5.08,0,0,1-1.07.53c-.44.07-.88-.06-1.33,0a2.48,2.48,0,0,1-1.2.17,8.23,8.23,0,0,1-1.26-.37,5.16,5.16,0,0,1-2.14-1,15,15,0,0,1-1.61-1.86,5.78,5.78,0,0,1-.51-1c-.21-.41-.55-.72-.75-1.13a6.39,6.39,0,0,1-.21-3.65c.25-2.32,2-4.42,3.4-6.19A12,12,0,0,1,521.1,566c.91-.4,1.83-.67,2.77-1a10.07,10.07,0,0,1,2.63-.72,8.88,8.88,0,0,1,3,.3,20.08,20.08,0,0,1,3.09.94,6.54,6.54,0,0,1,2.36,2.07,7.86,7.86,0,0,0,.85,1.45,6,6,0,0,1,1.12,1.34,6.91,6.91,0,0,1,.58,5.89,22.76,22.76,0,0,1-1.94,4.08c-.55.79-1.15,1.55-1.71,2.34a6.23,6.23,0,0,1-2.37,1.95,4.21,4.21,0,0,1-1.72.6,5.19,5.19,0,0,1-1.74.16c-1.64-.41-2.61-1.75-4.07-2.4a5.31,5.31,0,0,1-.88-.34c-.42-.27-.81-.6-1.22-.9a10.5,10.5,0,0,1-1.9-1.54,7.12,7.12,0,0,1-1.45-2.35,3.77,3.77,0,0,1,.19-3.1,10.53,10.53,0,0,1,1.83-3.41,13.61,13.61,0,0,1,4.14-3,10.38,10.38,0,0,1,5-1.38,11.23,11.23,0,0,1,2.72.2,12,12,0,0,1,2.19,1.13c1.51.87,2.21,2.69,2.93,4.17.14.29.61.93.59,1.27s-.4.6-.54.8"/><path d="M516.08,555.6c1.47.3,2.17,1.46,2.81,2.68a6.07,6.07,0,0,0,.74,1.24,1.94,1.94,0,0,1,.39,2c-.45,1.87-2.23,3.31-3.57,4.51a6.29,6.29,0,0,1-1.85,1.35c-.66.27-1.4.29-2,.56-.38.16-.63.45-1.06.52s-.88-.06-1.34,0a2.56,2.56,0,0,1-1.2.17,10.57,10.57,0,0,1-1.25-.37,5.12,5.12,0,0,1-2.14-1,15.11,15.11,0,0,1-1.62-1.85,7.12,7.12,0,0,1-.51-1c-.2-.41-.54-.72-.75-1.13a6.48,6.48,0,0,1-.2-3.65c.25-2.32,2-4.42,3.39-6.2A12.17,12.17,0,0,1,510,550.2c.91-.4,1.83-.68,2.78-1a10.47,10.47,0,0,1,2.63-.72,8.92,8.92,0,0,1,3,.31,20.42,20.42,0,0,1,3.09.94,6.45,6.45,0,0,1,2.36,2.07,8.41,8.41,0,0,0,.84,1.45,6,6,0,0,1,1.12,1.33,6.88,6.88,0,0,1,.58,5.89,21.46,21.46,0,0,1-1.93,4.08c-.55.8-1.16,1.56-1.72,2.35a6.12,6.12,0,0,1-2.36,2,4.48,4.48,0,0,1-1.72.6,5.77,5.77,0,0,1-1.74.16c-1.65-.41-2.62-1.75-4.07-2.4a5.91,5.91,0,0,1-.88-.34c-.42-.27-.82-.61-1.22-.9a10.94,10.94,0,0,1-1.9-1.54,7.22,7.22,0,0,1-1.45-2.35,3.75,3.75,0,0,1,.19-3.11,10.3,10.3,0,0,1,1.83-3.4,13.45,13.45,0,0,1,4.13-3,10.41,10.41,0,0,1,5-1.38,6.45,6.45,0,0,1,4.91,1.33c1.52.87,2.21,2.68,2.94,4.16.14.29.61.94.58,1.28s-.39.6-.54.8"/><path class="cls-2" d="M537.54,525.54c5.33-1.41,7.83,7.06,5.46,10.5a6.86,6.86,0,0,1-9.1,1.75c-2.94-2-3.92-6-6.74-8.13-1.49-1.13-3.49-1.77-4.37-3.42s1.2-4.3,2.51-3"/><path class="cls-3" d="M521.81,531.67c-1.77-3.22-16.15-9.46-18.94-11.78-2.45-2-5.66-3.06-8.51-4.41-2.1-1-4.38-1.13-6.51-2-1.24-.52-2.51-.66-3.75-1.24a10.21,10.21,0,0,0-3-.78c-1.94-.28-3.84-.65-5.78-.95-1.18-.18-2.4-.14-3.57-.41-3.37-.75-6.8-.61-10.25-.94-3.07-.3-6.16-.54-9.17-1.07-2.32-.41-4.51,0-6.82.06a9.33,9.33,0,0,0-4.29.68,17,17,0,0,1-3.2.55,26.89,26.89,0,0,0-3.45,1.26c-2.93,1.09-5.91,2-8.85,3.1-4.37,1.56-9.08,2.12-13.57,3.26-3.94,1-7.88,2.09-11.87,2.86-5.65,1.09-11.07,2.87-16.68,4.18-8.79,2.06-17,5.7-25.07,9.61a58.36,58.36,0,0,0-6.9,3.44c-2,1.34-16.89-6.31-18.59-4.6-6.91,7,15.06,17.36,19.19,19.44q2.53,1.29,5,2.69c13.1,7.31,25.29,16.43,39.26,22a128.82,128.82,0,0,0,39.35,8.54,106.23,106.23,0,0,0,19.2-.64c5.26-.65,13.31-1,18-3.55,3.63-2,7.19-4.16,10.76-6.19A67.55,67.55,0,0,0,494.2,568c2.5-2.11,5.11-3.93,7.09-6.56,1.64-2.16,3-4.62,4.88-6.61,1.3-1.4-2.34,3.46-1.41,1.7"/><path class="cls-4" d="M417.53,485.36a34,34,0,0,1-16.34-6.86,24.05,24.05,0,0,1-3.19-3.11c-.65-.77-.57-.89-1.51-.71a9.22,9.22,0,0,0-2,.79c-.74.34,11,15.89,10.33,16.37-14.56,11.16-32.68,15.43-50.65,17-8.85.75-18.94,1.95-27.79.86-8.45-1-13.89-6.67-20.49-11.91a50,50,0,0,1-11.87-13c-.2-.33-.36-.67-.53-1,0,2.41-.07,4.82.05,7.22a34.32,34.32,0,0,0,1.68,8.33c1.67,5.44,3.68,7.22,6.31,12.25a66.65,66.65,0,0,0,12.43,16,83.94,83.94,0,0,0,16.61,12.14c1.17.67,7.53,4.68,8.84,5,1.64.38,4.93-.32,6.59-.46,24.07-2.06,48.1,5.83,72.3,7.95a5.33,5.33,0,0,0,3.18-.39,5.05,5.05,0,0,0,1.73-2.35,161.63,161.63,0,0,1,25.73-39,7.64,7.64,0,0,1,3-2.4,3,3,0,0,1,3.53,1.09q-2.87-4.08-5.51-8.29"/><path d="M504.4,559.9c-.49,1.71-1.54,3.1-2,4.84a16.58,16.58,0,0,0-.07,5.17,5.82,5.82,0,0,0,2.3,4.32c1.41,1.21,2.85,2.39,4.74,2.31,4-.17,7.27-1.56,9.62-5.08.79-1.17,5.65-9.91,2-9.8"/><path class="cls-5" d="M422.4,550.35c-.09.12-.17.24-.26.35a4.5,4.5,0,0,1-.66.57,1.78,1.78,0,0,1-.27.17,5.51,5.51,0,0,1-.7.31,1.91,1.91,0,0,1-.52.14,1.6,1.6,0,0,1-.69,0l-.62-.06a1.63,1.63,0,0,1-.3-.07c3.48,6.84,9.7,13.62,18.53,20a123.65,123.65,0,0,0,19.75,11.5s2.45,1.29,1.94,1c3.43-.49,4.4-.43,7.35-1.08-.92-.45-3.38-1.79-4.21-2.2-1.18-.59-2.26-1.13-3.2-1.57a120.19,120.19,0,0,1-19-11.08c-6.13-4.43-13.17-10.71-17-18.09Z"/><path class="cls-6" d="M498.79,538.56a19.29,19.29,0,0,0,5.84-14.21,19.76,19.76,0,0,0-2.64-9,46,46,0,0,0-17.19-17.57c-6.74-3.73-12.81-6.63-20.56-6.59a57.93,57.93,0,0,1-15.81-1.87A63.61,63.61,0,0,1,434,483.23a63.18,63.18,0,0,0-12.72-5.56c13.22-25.81,15.54-50.2,26.31-73.95,4-2.23,8.36-3.89,12.51-5.88A86.49,86.49,0,0,0,468,394c2.64-1.61,3.79-3.46,5.63-5.74,1.58-1.95,1.34-4,3.36-5.49a3.77,3.77,0,0,0,.57-.56c.19-.23.44-.42.63-.65A3.67,3.67,0,0,0,479,380a1.26,1.26,0,0,0,.09-.5c0-.22-.15-.48-.21-.7a6.86,6.86,0,0,1-.36-1.47,7.37,7.37,0,0,1,.28-1.43,24.61,24.61,0,0,1,.73-2.64,10.51,10.51,0,0,0,.88-2.64c0-.59-.57-.69-1.12-.82a2.66,2.66,0,0,0-.89,0c-.35,0-.7.07-1,.12-.45.25-.89.5-1.33.72a1,1,0,0,1-.22.08,10.37,10.37,0,0,0-1.3,1.62c-.45.65-.87,1.32-1.28,2,0,0-3.06,6.23-3.09,6.27.14-.3,3.29-6.74,3.45-7a10.13,10.13,0,0,1,1.1-1.71c.31-.39.7-.74,1-1.12a.69.69,0,0,1-.66-.29,3.86,3.86,0,0,0-3.19-1.72c-1.23-.07-2.44,0-3.66-.15a.7.7,0,0,1-.54-.65,2.71,2.71,0,0,0-2.05-2.77,7.43,7.43,0,0,0-3.68.29.57.57,0,0,1-.29,0l-3.64,4c.07-.05-4,4.71-1.88,1.93l5.34-5.94a.6.6,0,0,1-.45-.59A1.77,1.77,0,0,0,459.9,363c-1.57-.56-1.65.14-2.48.17a2.64,2.64,0,0,1-2.39-.9,1.74,1.74,0,0,0-1.62-.9,8.29,8.29,0,0,0-1.37.27c-.57.65-1.07,1.32-1.69,1.93-1.33,1.32-2.2,3-3.4,4.39s-2.74,3-4.06,4.6c-.51.6-1,1.2-1.48,1.83-2.78,3.74-4.14,8.44-5.78,12.72a14.28,14.28,0,0,1-.43,1.41,17.93,17.93,0,0,0-.82,2.58c-7.77,9.17-15.52,18.37-22,28.23-9.35,14.28-16.33,30.37-19.4,47.29-.13.71-.23,1.41-.32,2.11-.47,3.85-.38,7.62-.6,11.53-.16,2.65.39,5.34-.43,7.5a11.89,11.89,0,0,0-.6,6.58c1.29,6.26,7.35,10.2,12.94,13.3,11.3,6.26,32.14,24.41,44.32,28.67"/><path class="cls-7" d="M474.39,379.49a3.2,3.2,0,0,0,1.09.82c.3.11.62.2.94.29s.5.2.75.3c.42.16.67.5,1.21.26"/><path class="cls-7" d="M475.82,378.17a6.91,6.91,0,0,1,1.76,0l.57,0a4.86,4.86,0,0,0,.72.15"/><path class="cls-7" d="M478.81,374.77c-.49,1.3-1.09-.06-1.24-.58-.35-1.18-1.11-3.64.94-4.34"/><path class="cls-7" d="M457.1,363a33.19,33.19,0,0,0-3.47,4.41,7,7,0,0,0-.57.77c-.18.32-1.73,2.41-1.95,2.71s5.53-7.9,5.14-7.52"/><path class="cls-7" d="M468.81,368.34c-.49.49-1.42,1.74-1.86,2.28-.25.3-4.9,5.62-5.16,5.92s6.72-8.28,6.42-8"/><path class="cls-5" d="M478.11,578.14l3.79-2c1.14-.62,2.19-1.35,3.29-2a97.78,97.78,0,0,0,18.52-39.16,24.55,24.55,0,0,0,.63-9,13.65,13.65,0,0,1-1.11,5.52,13.89,13.89,0,0,1-1.45,3.3,16.28,16.28,0,0,1-3.42,4.22c-.73,2.71-1.55,5.4-2.51,8a96.14,96.14,0,0,1-17.06,28.53c-1.28,1.52-2.78,3.14-4.15,4.58C475.38,579.72,477.16,578.65,478.11,578.14Z"/><text class="cls-8" transform="translate(61.2 224.35)"><tspan class="cls-9">K</tspan><tspan x="15.29" y="0">nees must </tspan><tspan x="0" y="33.91">be pu</tspan><tspan class="cls-10" x="64.42" y="33.91">l</tspan><tspan class="cls-11" x="71.4" y="33.91">l</tspan><tspan x="78.97" y="33.91">ed in</tspan><tspan class="cls-12" x="135.5" y="33.91">t</tspan><tspan x="145" y="33.91">o </tspan><tspan x="0" y="67.83">the chest</tspan></text><path d="M90.78,323.31A68.38,68.38,0,0,0,105.37,354a80.71,80.71,0,0,0,24.29,19.46A89.76,89.76,0,0,0,145,379.84c1.85.58,2.64-2.31.8-2.89-19-6-36.51-18.64-45.91-36.51a64.71,64.71,0,0,1-6.23-17.93c-.37-1.89-3.26-1.09-2.89.8Z"/><path d="M135.73,367.88c3.18,3.6,6,7.49,8.9,11.32l.53-2.05c-2.34,1-4.63,2.08-6.95,3.11-2.07.91-4.18,1.74-6.25,2.66a1.51,1.51,0,0,0-.54,2.05,1.54,1.54,0,0,0,2.05.54c2.07-.92,4.18-1.75,6.25-2.66,2.33-1,4.62-2.12,7-3.11a1.5,1.5,0,0,0,.54-2.05c-3.06-4-6-8.14-9.37-11.93-1.28-1.45-3.39.67-2.12,2.12Z"/><path class="cls-13" d="M148.79,61.4a36.73,36.73,0,0,1,8.33-23.32,34.4,34.4,0,0,0-45.48-4.38A34.43,34.43,0,0,0,131.9,96a34.33,34.33,0,0,0,25.32-11.11A36.76,36.76,0,0,1,148.79,61.4ZM138,75.49s-3.7-.27-11.47-.27a25.63,25.63,0,0,0-4.93.31l-1.35-2.46c7.78-7.9,12.4-13.63,13-18.71.47-3.66-2-4.82-4.35-4.66a9.73,9.73,0,0,0-6.73,3.92c-.2-.23-1.93-2.07-1.47-2.65A12.43,12.43,0,0,1,130,46.12c5.89,0,9.09,3,8.74,8.51-.46,7-8,13.59-12.63,17.55l8.32-.08c1.77-.15,3-2.54,3.81-4.73,0,0,1.73.5,2,1C139.58,71.53,138.81,75.49,138,75.49Z"/><path class="cls-13" d="M95.79,61.4A36.74,36.74,0,0,1,104.16,38a34.44,34.44,0,1,0,.11,46.9A36.78,36.78,0,0,1,95.79,61.4ZM87.2,75.66H70.92L71,73.39l4.46-.58c.58,0,.81-.23.81-1,.08-10.05,0-19.6,0-19.6l-5.62,1.08c-.19-.31-1.12-2.46-.46-2.73l10.35-4,1,1s-.12,20.87,0,24.37c0,.77.19,1,.73,1l5.08.54Z"/><circle cx="184" cy="61.53" r="34.44"/><text class="cls-14" transform="translate(172.45 75.26)">3</text><path d="M243.45,38.34l-.27,3.12h-5.55V59.34h-3.75V41.46h-5.76V38.34Z"/><path d="M249.6,36.42v9.72a5.86,5.86,0,0,1,5.16-2.67c3.69,0,5.46,2.37,5.46,5.61V59.34H256.5V50.28c0-2.4-.9-3.69-2.94-3.69-2.85,0-4,2.31-4,4.83v7.92h-3.72V36.87Z"/><path d="M277.74,55a7,7,0,0,1-6.78,4.5c-5.28,0-7.62-3.3-7.62-8.22s3.3-7.95,7.83-7.83c3.69.09,7,2.85,6.63,7.86l-.06.48H267.12c0,2.67,1.14,4.5,3.87,4.5a3.5,3.5,0,0,0,3.39-2.49Zm-3.81-5.13c.06-2.43-1.26-3.57-3.09-3.51a3.5,3.5,0,0,0-3.54,3.51Z"/><path d="M284,43.62l.57,2.79A5.8,5.8,0,0,1,290,43.47c3.69,0,5.46,2.37,5.46,5.61V59.34h-3.72V50.28c0-2.4-.9-3.69-2.94-3.69-2.85,0-4,2.31-4,4.83v7.92h-3.72V43.62Z"/><path d="M310.29,39.18v4.59h4l-.51,3h-3.45V54c0,1.71.78,2.37,2,2.37a6.83,6.83,0,0,0,2.37-.69l.69,2.85a9.82,9.82,0,0,1-4,1c-3.69,0-4.83-2.46-4.83-5V46.77h-2.19v-3h2.37l.45-4.17Z"/><path d="M321.48,36.42v9.72a5.86,5.86,0,0,1,5.16-2.67c3.69,0,5.46,2.37,5.46,5.61V59.34h-3.72V50.28c0-2.4-.9-3.69-2.94-3.69-2.85,0-4,2.31-4,4.83v7.92h-3.72V36.87Z"/><path d="M349.62,55a7,7,0,0,1-6.78,4.5c-5.28,0-7.62-3.3-7.62-8.22s3.3-7.95,7.83-7.83c3.69.09,7,2.85,6.63,7.86l-.06.48H339c0,2.67,1.14,4.5,3.87,4.5a3.5,3.5,0,0,0,3.39-2.49Zm-3.81-5.13c.06-2.43-1.26-3.57-3.09-3.51a3.5,3.5,0,0,0-3.54,3.51Z"/><path d="M360.15,43.77V41.64c0-3.12,1.62-5.22,5.16-5.22a6.41,6.41,0,0,1,3.6,1.08v-.72l3.72-.36V54.21c0,1.68.72,2.13,1.83,2.13a2.81,2.81,0,0,0,1.56-.57l.72,2.67a6.6,6.6,0,0,1-3.42,1.08c-3.09,0-4.41-2.1-4.41-5V40.08a6,6,0,0,0-2.7-.69c-1.47,0-2.31.6-2.31,2.85v1.53h3.18l-.48,3h-2.7V59.34h-3.75V46.77h-2.46v-3Z"/><path d="M383.37,43.62V59.34h-3.75V46.71h-2.19V43.62Zm-1.89-6.12a2,2,0,0,1,2.22,1.89,2.22,2.22,0,0,1-4.41,0A1.93,1.93,0,0,1,381.48,37.5Z"/><path d="M401.85,43.62V57c0,5.22-2,8.37-7.8,8.37A16.38,16.38,0,0,1,387.63,64l.87-2.82a13.33,13.33,0,0,0,5.13,1.17c3.39,0,4.5-1.68,4.5-4.26V56.7a5.42,5.42,0,0,1-4.83,2.49c-4.23.09-6.66-3.12-6.66-7.74,0-5.64,3.6-8,6.72-8a5.2,5.2,0,0,1,5,2.85l.39-2.7Zm-11.34,7.8c0,2.67,1.05,4.77,3.84,4.77s3.9-2.1,3.9-4.74c0-3.57-1.89-4.86-3.93-4.86S390.51,48,390.51,51.42Z"/><path d="M409.41,36.42v9.72a5.86,5.86,0,0,1,5.16-2.67c3.69,0,5.46,2.37,5.46,5.61V59.34h-3.72V50.28c0-2.4-.9-3.69-2.94-3.69-2.85,0-4,2.31-4,4.83v7.92h-3.72V36.87Z"/><path d="M428.58,39.18v4.59h4l-.51,3h-3.45V54c0,1.71.78,2.37,2,2.37a6.83,6.83,0,0,0,2.37-.69l.69,2.85a9.82,9.82,0,0,1-4,1c-3.69,0-4.83-2.46-4.83-5V46.77h-2.19v-3H425l.45-4.17Z"/><path d="M445.29,43.62l.54,2.82a5.71,5.71,0,0,1,5.37-3c3,.09,6.18,2.1,6.18,7.89,0,4.74-2.37,8.16-6.66,8.16A4.88,4.88,0,0,1,446.07,57v8.37h-3.75V43.62Zm.51,7.83c0,2.7,1,4.86,4,4.86,2.43,0,3.78-1.83,3.78-4.92,0-3.66-1.83-4.8-3.81-4.8C447.6,46.59,445.8,48.3,445.8,51.45Z"/><path d="M464.37,36.42v9.72a5.86,5.86,0,0,1,5.16-2.67c3.69,0,5.46,2.37,5.46,5.61V59.34h-3.72V50.28c0-2.4-.9-3.69-2.94-3.69-2.85,0-4,2.31-4,4.83v7.92h-3.72V36.87Z"/><path d="M478.41,44.61a18.74,18.74,0,0,1,5.94-1.14c4.74,0,6.48,2.34,6.48,6v6.36a.79.79,0,0,0,.75.9,3,3,0,0,0,1.23-.18V59a6.08,6.08,0,0,1-2.49.48,2.84,2.84,0,0,1-2.85-2.13,6.87,6.87,0,0,1-4.74,2.13c-3.06,0-5.34-1.56-5.37-4.83s2.46-5,6.39-5a24.49,24.49,0,0,1,3.39.3v-.93c0-1.71-1.08-2.64-3.24-2.61a12.68,12.68,0,0,0-4.86,1Zm8.7,7.35a16.62,16.62,0,0,0-3.06-.18c-1.8.09-2.94.93-3,2.52a2.21,2.21,0,0,0,2.55,2.31,6.17,6.17,0,0,0,3.48-1.26Z"/><path d="M495.81,54.84a8.15,8.15,0,0,0,5.1,1.74c1.8,0,2.85-.54,2.85-1.83,0-3.06-9.09-1-8.79-6.78.12-2.82,2.19-4.5,6.36-4.5A12.78,12.78,0,0,1,507,44.94l-1.32,2.64a8.9,8.9,0,0,0-4.5-1.29c-1.47,0-2.7.48-2.64,1.71.18,2.49,8.91.57,8.91,6.63,0,3.24-2.91,4.92-6.63,4.89a10.76,10.76,0,0,1-6.45-2Z"/><path d="M524.28,55a7,7,0,0,1-6.78,4.5c-5.28,0-7.62-3.3-7.62-8.22s3.3-7.95,7.83-7.83c3.69.09,7,2.85,6.63,7.86l-.06.48H513.66c0,2.67,1.14,4.5,3.87,4.5a3.5,3.5,0,0,0,3.39-2.49Zm-3.81-5.13c.06-2.43-1.26-3.57-3.09-3.51a3.5,3.5,0,0,0-3.54,3.51Z"/><path d="M238,67.38l-.26,1.1a7.49,7.49,0,0,0-1.65-.2c-2.41,0-3.57.87-3.57,4.06V74.2h4.38l-.29,1.19h-4.09V89.25h-1.39V75.39h-3.05V74.2h3.05v-2c0-3.69,1.82-5.08,4.81-5.08A9.18,9.18,0,0,1,238,67.38Z"/><path d="M245.79,89.42c-4.58,0-6.58-3.48-6.58-7.74,0-5.19,3-7.77,6.7-7.77,3.39,0,6.47,2.58,6.47,7.77C252.38,85.94,250,89.42,245.79,89.42Zm0-1.18c3.48,0,5.19-3.17,5.19-6.56,0-4.67-2.46-6.58-5.07-6.58-2.82,0-5.28,1.79-5.28,6.58C240.63,85.05,241.93,88.24,245.79,88.24Z"/><path d="M258.84,80.38v8.87h-1.39V74.05h1.13l.26,3.08c.64-1.95,2.35-3.22,5.08-3.22a7.85,7.85,0,0,1,1.62.14l-.2,1.28a4.68,4.68,0,0,0-1.51-.21C260.38,75.12,258.84,77.65,258.84,80.38Z"/><path d="M287.32,85.45l1.1.67a6.94,6.94,0,0,1-6,3.3c-4.79,0-6.82-3.27-6.82-7.94,0-4.9,3-7.57,6.84-7.57,3.51,0,6.36,2.55,6,7.28l-.06.49H277c0,4,1.65,6.56,5.48,6.56A5.68,5.68,0,0,0,287.32,85.45Zm-10.24-5h10c0-3.86-2-5.39-4.65-5.39C279.69,75.1,277.34,76.75,277.08,80.49Z"/><path d="M303.18,89.25l-4.58-6.7-4.7,6.7h-1.6l5.51-7.71-5-7.49h1.62l4.21,6.44L303,74.05h1.59l-5.16,7.43,5.34,7.77Z"/><path d="M313.65,89.42c-3.08,0-5.4-1.47-5.4-4.75s2.82-4.76,6.15-4.76a19.84,19.84,0,0,1,4.76.64V79c0-2.52-1.57-3.85-4.64-3.85a11.33,11.33,0,0,0-5,1.16l-.32-1.19a13.82,13.82,0,0,1,5.31-1.16c4.52,0,6,2.32,6,5.25v8.21c0,.43.09.81.64.87a5.49,5.49,0,0,0,1.48-.18v1.08a4.79,4.79,0,0,1-1.63.28,2,2,0,0,1-1.88-2.14A9,9,0,0,1,313.65,89.42Zm0-1.21a9.43,9.43,0,0,0,5.51-2.12V81.62a26.39,26.39,0,0,0-5-.58c-2.9,0-4.52,1.16-4.52,3.66C309.65,86.9,311.1,88.21,313.65,88.21Z"/><path d="M327.83,74.05l.23,3a5.1,5.1,0,0,1,4.67-3.19c2.7-.09,4.09,1.19,4.7,3a5.45,5.45,0,0,1,5-3c3.83-.12,5.05,2.43,5.05,5.42v9.92h-1.4v-10c0-2.72-1.24-4.14-3.74-4.14-3.48,0-4.58,2.43-4.58,5v9.14h-1.39v-10c0-2.72-1.25-4.14-3.75-4.14-3.65,0-4.58,2.69-4.58,5.42v8.73h-1.39V74.05Z"/><path d="M354.33,74.05l.27,3.08a6.22,6.22,0,0,1,5.62-3.22c3.4,0,6.62,2.17,6.62,7.63,0,4.58-2.27,7.88-6.85,7.88a5.61,5.61,0,0,1-5.39-3.21v8.84h-1.43v-21Zm5.78,14.19c3.65,0,5.33-2.93,5.33-6.68,0-4.9-2.58-6.46-5.39-6.46-3.1,0-5.57,2.52-5.57,6.55C354.48,85,355.67,88.24,360.11,88.24Z"/><path d="M373.33,85.42c0,2.15.9,2.76,2.32,2.76a4.81,4.81,0,0,0,2.44-.87l.63,1.1a5.72,5.72,0,0,1-3.07,1c-2.9,0-3.71-1.74-3.71-4V67.35l1.39-.26Z"/><path d="M391.89,85.45l1.1.67a6.93,6.93,0,0,1-6,3.3c-4.79,0-6.82-3.27-6.82-7.94,0-4.9,3-7.57,6.85-7.57,3.51,0,6.35,2.55,6,7.28l-.06.49h-11.4c0,4,1.66,6.56,5.49,6.56A5.68,5.68,0,0,0,391.89,85.45Zm-10.24-5h10c0-3.86-2-5.39-4.64-5.39C384.26,75.1,381.91,76.75,381.65,80.49Z"/><path d="M397.66,89.4c0-.58-.75-.53-.75-.53a1.12,1.12,0,0,1,0-2.23c1.45,0,2,1.34,1.82,2.73a3.28,3.28,0,0,1-3.45,2.81v-.9A2.13,2.13,0,0,0,397.66,89.4Z"/><path d="M414.6,89.42c-3.08,0-5.4-1.47-5.4-4.75s2.81-4.76,6.15-4.76a19.84,19.84,0,0,1,4.76.64V79c0-2.52-1.57-3.85-4.64-3.85a11.27,11.27,0,0,0-5,1.16l-.32-1.19a13.76,13.76,0,0,1,5.31-1.16c4.52,0,6,2.32,6,5.25v8.21c0,.43.09.81.64.87a5.49,5.49,0,0,0,1.48-.18v1.08a4.84,4.84,0,0,1-1.63.28,2,2,0,0,1-1.88-2.14A9,9,0,0,1,414.6,89.42Zm0-1.21a9.43,9.43,0,0,0,5.51-2.12V81.62a26.5,26.5,0,0,0-5-.58c-2.9,0-4.53,1.16-4.53,3.66C410.59,86.9,412,88.21,414.6,88.21Z"/><path d="M435.59,75.39h-2.52V74.2h2.58l.2-4.24,1.13-.2V74.2h4.44l-.32,1.19H437v10c0,2.15.9,2.76,2.32,2.76a7,7,0,0,0,2.93-1.08l.64,1.11a7.8,7.8,0,0,1-3.57,1.21c-2.9,0-3.71-1.74-3.71-4Z"/><path d="M448.79,89.25h-1.43v-14h-2.49V74.05h3.92Zm-1.86-20a1.12,1.12,0,0,1,1.1-1.1,1.12,1.12,0,1,1,0,2.23A1.12,1.12,0,0,1,446.93,69.21Z"/><path d="M466.86,87.6c0,5-2.18,7.45-7,7.45a15.16,15.16,0,0,1-5.6-1l.43-1.22a15.14,15.14,0,0,0,5.28,1c4.15,0,5.51-2.69,5.51-5.85V86.21a6.29,6.29,0,0,1-5.57,3.21c-4.49.15-6.73-3.39-6.73-7.68,0-5.22,3-7.83,6.65-7.83a5.82,5.82,0,0,1,5.65,3.19l.24-3h1.16Zm-6.79.64c3.77,0,5.42-3.17,5.42-6.59,0-4.64-2.67-6.55-5.54-6.55-3,0-5.39,1.77-5.39,6.55C454.56,85.05,455.63,88.24,460.07,88.24Z"/><path d="M484.75,79.33v9.92h-1.39v-10c0-2.72-1.51-4.14-4-4.14-3.65,0-5.31,2.69-5.31,5.42v8.73h-1.39V67.35l1.39-.26V77.24a5.81,5.81,0,0,1,5.4-3.33C483.27,73.79,484.75,76.34,484.75,79.33Z"/><path d="M491.1,75.39h-2.53V74.2h2.58l.21-4.24,1.13-.2V74.2h4.44l-.32,1.19h-4.12v10c0,2.15.9,2.76,2.32,2.76a7,7,0,0,0,2.93-1.08l.64,1.11a7.86,7.86,0,0,1-3.57,1.21c-2.9,0-3.71-1.74-3.71-4Z"/><path d="M510.15,75.39h-2.53V74.2h2.59l.2-4.24,1.13-.2V74.2H516l-.32,1.19h-4.12v10c0,2.15.9,2.76,2.32,2.76a7,7,0,0,0,2.93-1.08l.64,1.11a7.86,7.86,0,0,1-3.57,1.21c-2.9,0-3.71-1.74-3.71-4Z"/><path d="M531.87,89.25l-.23-3.59A6,6,0,0,1,526,89.4c-3.83.11-5.34-2.44-5.34-5.43V74.05h1.4v10c0,2.73,1.53,4.15,4,4.15,3.65,0,5.51-3.37,5.51-6V74.05H533v15.2Z"/><path d="M550.84,85.94A6.34,6.34,0,0,1,545,89.42c-4.64,0-6.82-3.71-6.82-7.77,0-5,3.14-7.74,7-7.74a6,6,0,0,1,5.63,3.45l-1.25.55A4.64,4.64,0,0,0,545,75.1c-3,0-5.51,2.11-5.51,6.46,0,3.49,1.53,6.62,5.45,6.62a4.68,4.68,0,0,0,4.61-2.82Z"/><path d="M560.93,81.65l5.51,7.6h-1.77l-4.93-6.9h-2.87v6.9h-1.42V67.35l1.42-.26V81.16h2.81l4.67-7.11h1.8Z"/><path d="M578.5,74.05l.26,3.08a6.22,6.22,0,0,1,5.63-3.22c3.39,0,6.61,2.17,6.61,7.63,0,4.58-2.26,7.88-6.84,7.88a5.62,5.62,0,0,1-5.4-3.21v8.84h-1.42v-21Zm5.77,14.19c3.66,0,5.34-2.93,5.34-6.68,0-4.9-2.58-6.46-5.4-6.46-3.1,0-5.56,2.52-5.56,6.55C578.65,85,579.83,88.24,584.27,88.24Z"/><path d="M601.93,89.42c-4.58,0-6.58-3.48-6.58-7.74,0-5.19,3-7.77,6.7-7.77,3.39,0,6.47,2.58,6.47,7.77C608.52,85.94,606.17,89.42,601.93,89.42Zm0-1.18c3.48,0,5.2-3.17,5.2-6.56,0-4.67-2.47-6.58-5.08-6.58-2.81,0-5.28,1.79-5.28,6.58C596.77,85.05,598.08,88.24,601.93,88.24Z"/><path d="M623.45,75.3l-.58,1.16a8.51,8.51,0,0,0-4.61-1.36c-2.09,0-4.06.61-4,2.75.08,3.8,9.71,1.57,9.71,7.14,0,3-2.55,4.49-5.94,4.43a8.17,8.17,0,0,1-5.6-1.94l.78-1A6.65,6.65,0,0,0,618,88.24c2.75,0,4.55-1,4.55-3.22,0-4.56-9.6-2.06-9.66-7.08,0-2.55,1.89-4,5.43-4A11.23,11.23,0,0,1,623.45,75.3Z"/><path d="M630.93,89.25h-1.42v-14H627V74.05h3.91Zm-1.85-20a1.12,1.12,0,0,1,1.1-1.1,1.12,1.12,0,1,1,0,2.23A1.12,1.12,0,0,1,629.08,69.21Z"/><path d="M637.57,75.39h-2.52V74.2h2.58l.2-4.24,1.13-.2V74.2h4.44l-.32,1.19H639v10c0,2.15.9,2.76,2.33,2.76a7,7,0,0,0,2.92-1.08l.64,1.11a7.8,7.8,0,0,1-3.56,1.21c-2.91,0-3.72-1.74-3.72-4Z"/><path d="M650.77,89.25h-1.42v-14h-2.5V74.05h3.92Zm-1.86-20a1.12,1.12,0,0,1,1.1-1.1,1.12,1.12,0,1,1,0,2.23A1.12,1.12,0,0,1,648.91,69.21Z"/><path d="M662.46,89.42c-4.59,0-6.59-3.48-6.59-7.74,0-5.19,3-7.77,6.7-7.77,3.39,0,6.47,2.58,6.47,7.77C669,85.94,666.69,89.42,662.46,89.42Zm0-1.18c3.48,0,5.19-3.17,5.19-6.56,0-4.67-2.47-6.58-5.08-6.58-2.81,0-5.28,1.79-5.28,6.58C657.29,85.05,658.6,88.24,662.46,88.24Z"/><path d="M675.27,74.05l.23,3a5.68,5.68,0,0,1,5.4-3.19c3.83-.12,5.31,2.43,5.31,5.42v9.92h-1.4v-10c0-2.72-1.5-4.14-4-4.14-3.65,0-5.31,2.69-5.31,5.42v8.73h-1.39V74.05Z"/></svg>