<svg id="Layer_1" data-name="Layer 1" xmlns="http://www.w3.org/2000/svg" viewBox="0 0 780 1051.14"><defs><style>.cls-1{fill:#c6946f;stroke-width:0.23px;}.cls-1,.cls-2,.cls-4,.cls-5,.cls-6,.cls-7{stroke:#fff;stroke-miterlimit:10;}.cls-2,.cls-3,.cls-6,.cls-7{fill:#d4a47c;}.cls-2{stroke-width:0.28px;}.cls-4{fill:#005058;stroke-width:0.54px;}.cls-5{fill:#fff171;stroke-width:0.3px;}.cls-6{stroke-width:0.41px;}.cls-7{stroke-width:0.31px;}.cls-8{font-size:24.66px;font-family:ABCSansBold, ABCSans;}.cls-9{letter-spacing:-0.02em;}.cls-10{letter-spacing:-0.04em;}.cls-11{letter-spacing:-0.01em;}.cls-12{letter-spacing:-0.02em;}.cls-13,.cls-14{fill:#fff;}.cls-13{opacity:0.7;}.cls-14{font-size:38.5px;font-family:ABCSerifBold, ABCSerif;}</style></defs><path class="cls-1" d="M404.07,599.4h.18l30.92-3.45c9.3-1,19-1.82,27.87-4.21,14.92-4,30.51-4.21,46.27-4.26l-.15.14a.67.67,0,0,1,.34-.14H511c3.53.34,10.76,2.29,12.21,2.49,8,1.13,16.67,2.3,24.85.46,9-2,17.25-6.64,26.37-8.34,5.91-1.09,9.9-6.35,15.9-7.44,2.59-.47,6.43-1.73,8.4-3.47,2.7-2.37,3.31-7-1.59-5.39a13.76,13.76,0,0,1-3.77,1.09c-3.41.1-5.62-3.82-8.93-4.68a10.75,10.75,0,0,0-4.19.06c-4.68.7-9.41,1.84-14.06,2.4-2.55.31-4.72-.45-7.2-.51-4.55-.12-8.67-3.16-12.62-5.31a19.24,19.24,0,0,0-1.84-.87c-5.11-2.18-6.76-3.2-9.49-2.08a8.52,8.52,0,0,0-4.66,5,22.15,22.15,0,0,1-1.53,3.52c-.25.42-.49.86-.73,1.29-8.5-.19-27.87-3.16-34.15-4.26-13.59-2.38-26.92-5.27-40.26-8.56l-.08,0c-.91-.17-13.7,2.35-14.61,2.18,9.4-4.85,20-5.74,28.67-12.13,12.21-9,24.1-18.38,36-27.75,11.3-9.13,24.55-17.88,31.94-30.66,7.07-12.19,9.77-26.39,7.42-39-1.49-8-5-15.44-10.92-20.52-8.15-7-32.16-16.33-43.76-14.82-25.92,3.36-24.71,26.43-39,36.87-21.12,15.46-18.33,14.05-35.41,34.26-8.8,10.43-20,28.22-29.79,39.82-7.55,8.9-19,23.49-22.21,34.8-5.63,12.73,5.25,36.68,18.45,40.73,6.09,1.87,12.56,1.16,18.78,2.37l1.77.35.26,0Z"/><path class="cls-2" d="M301.68,467.91c-1.23-.31,6.28-7.68,5.69-9.05s1.14-2,2.05-2.73c.74-.59,1.11-1.46,1.81-2.11a7.68,7.68,0,0,0,1.53-1.38,6.47,6.47,0,0,0,.95-4.64c-.5-1.78-2.38-2.67-3.08-4.3a6,6,0,0,1-.27-2.24,2.81,2.81,0,0,1-1.71.28c-4-.57-6.9-3.55-10.41-5.34a20.38,20.38,0,0,0-1.76,3.12,29.82,29.82,0,0,1-2.91,4.85c-1,1.38-1.46,2.85-3,3.42-1.22.43-2.56.1-3.77.53a22.34,22.34,0,0,1-2.4,1.05,31.57,31.57,0,0,1-4.11.49c-3,.35-6.11,1-9.14,1.48a25.35,25.35,0,0,0-9.29,3.23A20.48,20.48,0,0,0,255,461.8a45.11,45.11,0,0,0-3.48,6.95,76.21,76.21,0,0,0-3,10.94c-.82,4.17-.24,9.14.7,13.24.7,3,.91,6.06,2,9.06a26.44,26.44,0,0,0,5,8.05c1.75,2.09,2.62,4.43,3.74,6.81.56,1.21,1.62,2.09,2.25,3.33a30,30,0,0,0,2.45,4.26c1.91,2.54,4.57,3,7.45,3.72,1.92.45,3.83.24,5.76.72a14.34,14.34,0,0,0,2.85.36c1.07.06,2,.4,3.11.46.52,0,1-.17,1.5-.16s.85.35,1.4.26a20.73,20.73,0,0,0,3-1.34,28.81,28.81,0,0,1,3.65-1.29l.4-.1c0,.06.14.16.47.31a12.55,12.55,0,0,1,2.46,1.64c2.05,1.48,2,2,4.46,3.41a29,29,0,0,0,4.9,2.31,3.57,3.57,0,0,0,4.76-2.83,1.91,1.91,0,0,1,.61-1.17,4.94,4.94,0,0,1,3.16-1.8,20.6,20.6,0,0,0,3.16.11,19.21,19.21,0,0,0,5.52-1.85c1.42-.75,1.87-1.65,3.43-1.35,1.12.22,2.24.49,3.35.76,2.09.5,4.15.35,5.34-1.67a15.78,15.78,0,0,0,1.35-10.51c-8.31-28.2,3.3-20.19,3.64-30.51.24-7.05-.27-18.16,4.43-23.5"/><path d="M284.8,518c.13-.35.31-.69.47-1s.3-.6.54-.66.1,0,.13.07-.05.24-.06.31a2.06,2.06,0,0,0,0,.35c0,.46.08.92.09,1.38,0,.26.05.52,0,.79-.07,1.65-.69,3.33-.58,5a7.51,7.51,0,0,0,2.09,4.12c-.49.24-2.05,1-2.48.63-.62-.58-.74-2.82-1.1-3.62a6.79,6.79,0,0,1-.25-4.72C284,519.73,284.47,518.92,284.8,518Z"/><path d="M292.38,436.66c-1.52,2.12-2.77,4.68-4.52,6.59-5.58,6.09-15.4,4.91-23.05,8-6.3,2.57-11,8.14-13.79,14.36s-3.73,13.06-4.23,19.84c-.46,6.29-.51,12.71,1.24,18.76,1.18,4.07,6.39,15.39,12,14.59s8.77-10.65,14.68-12.44c3-.9,6.37-.4,9.16-1.83a26.18,26.18,0,0,0,3.77-2.81c2.26-1.74,5-2.87,7.09-4.75s3.68-4.93,2.61-7.57a11.64,11.64,0,0,1-6-.91c-1.8-.95-1.11-2.07-.52-4,.81-2.68,2.37-4.29,5.11-3.71s5.54,1.85,8.23,1.07c2.91-.85,4.61-3.78,6-6.45,2.43-4.6,3.39-13.89,5.82-18.49-2.19-2.22-1.17-1.92-3.22-4.27-1.55-1.77-4.65,1.51-4.11-.79a19.27,19.27,0,0,0-1.54-13c-1.89-3.73-5.86-7.06-9.91-6A8.7,8.7,0,0,0,292.38,436.66Z"/><path d="M260.77,519.33l-.44-.87-.2.1A3,3,0,0,0,260.77,519.33Z"/><path d="M293.37,450a7.54,7.54,0,0,0-2.58-2.44,12.33,12.33,0,0,1-2.82-3.06,6.38,6.38,0,0,1-1.34-4.5,6.91,6.91,0,0,1,1.83-3.78,6.75,6.75,0,0,1,3.12-2.16c1.34-.19,3.35.72,4.67,1a7,7,0,0,1,3.81,2.87c1,1.31,1.9,2.93,1.62,4.61a20.67,20.67,0,0,1-5,9.86c-1.19,1.4-3.67,1.74-5.44,1.7s-4.67-.61-6.09-1.75c-2.72-2.18-1.78-6.41-.47-9.07.78-1.6,1.73-3.13,3.61-3.52a10.23,10.23,0,0,1,4.59.38,18.89,18.89,0,0,1,5,1.52,6.72,6.72,0,0,1,2.33,1.48,21.66,21.66,0,0,0,2.05,2.31,8.64,8.64,0,0,1,2,2.81,3.39,3.39,0,0,1,.17,2.65,10.65,10.65,0,0,1-1.13,3c-.32.58-.85,1-1.22,1.59-.63,1-.68,1-2,.74"/><path d="M289.59,446.31c-1.47.31-2.57-.47-3.65-1.34a6,6,0,0,0-1.17-.85,1.93,1.93,0,0,1-1.14-1.66c-.33-1.89.73-3.92,1.48-5.56a6.73,6.73,0,0,1,1.16-2c.5-.51,1.17-.82,1.65-1.32.29-.3.4-.67.77-.91s.83-.29,1.21-.56.52-.5,1-.63a9.28,9.28,0,0,1,1.29-.16,5.09,5.09,0,0,1,2.36.06,14.55,14.55,0,0,1,2.22,1.06,5.72,5.72,0,0,1,.86.7c.35.3.79.45,1.14.74a6.48,6.48,0,0,1,1.64,3.27c.69,2.23-.06,4.84-.66,7a12,12,0,0,1-2.48,4.65,29.07,29.07,0,0,1-2.15,2,11,11,0,0,1-2.13,1.71,9,9,0,0,1-2.87.9,19.25,19.25,0,0,1-3.21.37,6.45,6.45,0,0,1-3-1,8.46,8.46,0,0,0-1.36-1,6,6,0,0,1-1.56-.78,6.91,6.91,0,0,1-2.87-5.17,22.75,22.75,0,0,1,.16-4.52c.19-.94.44-1.88.64-2.83a6.2,6.2,0,0,1,1.4-2.73,4.26,4.26,0,0,1,1.34-1.23,5.23,5.23,0,0,1,1.53-.84c1.67-.27,3.09.57,4.69.59a4.86,4.86,0,0,1,.94,0c.49.08,1,.23,1.48.34a10.51,10.51,0,0,1,2.35.66,7.14,7.14,0,0,1,2.27,1.58,3.75,3.75,0,0,1,1.06,2.92,10.44,10.44,0,0,1-.33,3.85,13.5,13.5,0,0,1-2.59,4.44,10.42,10.42,0,0,1-4.07,3.26,10.91,10.91,0,0,1-2.57.9,11.36,11.36,0,0,1-2.46-.17c-1.74-.19-3.09-1.58-4.35-2.66-.24-.2-.93-.61-1-.93s.13-.71.18-.95"/><path d="M306.05,456.42c-1.47.3-2.57-.48-3.65-1.35a6.62,6.62,0,0,0-1.16-.84,1.94,1.94,0,0,1-1.15-1.67c-.33-1.89.73-3.91,1.48-5.55a6.61,6.61,0,0,1,1.16-2c.5-.52,1.17-.82,1.66-1.32.28-.3.4-.67.76-.91s.84-.3,1.21-.57.52-.49,1-.62a9.29,9.29,0,0,1,1.29-.17,5.22,5.22,0,0,1,2.36.06,15.06,15.06,0,0,1,2.22,1.06,6.41,6.41,0,0,1,.86.7c.35.3.79.45,1.14.75a6.45,6.45,0,0,1,1.64,3.27c.69,2.22-.06,4.84-.66,7a11.91,11.91,0,0,1-2.48,4.64,29.2,29.2,0,0,1-2.15,2,10.54,10.54,0,0,1-2.13,1.7,8.75,8.75,0,0,1-2.87.91,20.36,20.36,0,0,1-3.21.37,6.57,6.57,0,0,1-3-1,8.9,8.9,0,0,0-1.35-1,5.67,5.67,0,0,1-1.56-.77,6.87,6.87,0,0,1-2.87-5.18,21.94,21.94,0,0,1,.15-4.51c.19-.95.44-1.89.64-2.83a6.34,6.34,0,0,1,1.4-2.74,4.23,4.23,0,0,1,1.34-1.22,5.23,5.23,0,0,1,1.53-.84c1.67-.28,3.1.56,4.69.58a7.31,7.31,0,0,1,.94,0c.5.08,1,.24,1.48.34a11.79,11.79,0,0,1,2.36.66,7.21,7.21,0,0,1,2.26,1.58,3.79,3.79,0,0,1,1.06,2.93,10.46,10.46,0,0,1-.33,3.85,13.35,13.35,0,0,1-2.59,4.43,10.33,10.33,0,0,1-4.06,3.27,11.14,11.14,0,0,1-2.58.9,12,12,0,0,1-2.46-.17c-1.74-.2-3.09-1.59-4.34-2.66-.25-.21-.94-.62-1.05-.94s.13-.7.18-.95"/><path class="cls-2" d="M298.3,492.52c-4.34,3.42-10-3.36-9.19-7.46a6.86,6.86,0,0,1,7.66-5.22c3.48.64,6,3.93,9.41,4.78,1.82.46,3.91.24,5.37,1.4s.61,4.43-1.12,3.72"/><path class="cls-3" d="M310.3,480.65c2.9,2.26,18.57,2.28,22.05,3.29,3.06.89,6.42.57,9.57.66,2.32.08,4.47-.69,6.78-.72,1.34,0,2.57-.38,3.93-.35a10.08,10.08,0,0,0,3.07-.47c1.89-.51,3.78-.93,5.68-1.43,1.16-.3,2.26-.82,3.44-1,3.39-.64,6.48-2.14,9.78-3.2,2.94-.95,5.87-2,8.83-2.67,2.3-.55,4.15-1.77,6.24-2.76a9.39,9.39,0,0,0,3.67-2.32,16.54,16.54,0,0,1,2.72-1.78,29,29,0,0,0,2.67-2.53c2.25-2.16,4.6-4.23,6.88-6.36,3.4-3.17,7.5-5.55,11.16-8.38,3.22-2.49,6.41-5,9.76-7.34,4.76-3.25,9-7,13.64-10.47,7.26-5.38,13.32-12,19.2-18.78a56.82,56.82,0,0,0,5-5.89c1.33-2,18-.92,18.89-3.16,3.57-9.17-20.71-9.95-25.33-10.23-1.9-.11-3.79-.27-5.69-.46-14.92-1.51-29.73-5-44.77-4.62a129.65,129.65,0,0,0-39.51,7.79,106.35,106.35,0,0,0-17.36,8.22c-4.57,2.69-11.84,6.16-15.11,10.41-2.53,3.29-4.95,6.67-7.42,10a68.79,68.79,0,0,0-6.84,10.31c-1.45,2.92-3.12,5.64-3.9,8.84-.64,2.63-1,5.44-1.85,8-.63,1.8.78-4.11.62-2.12"/><path class="cls-4" d="M424.39,481.74a33.86,33.86,0,0,1,17.73-.2,23.79,23.79,0,0,1,4.16,1.59c.9.45.88.59,1.66.05a9.32,9.32,0,0,0,1.5-1.51c.54-.61-16.38-10.23-16-10.92,8.94-16,23.86-27.14,39.75-35.68,7.82-4.21,16.61-9.32,25.16-11.83,8.17-2.4,15.4.6,23.54,2.79A49.85,49.85,0,0,1,538,433.25c.31.22.59.47.88.7-1-2.19-1.85-4.44-2.92-6.61a33.74,33.74,0,0,0-4.85-7c-3.69-4.33-6.24-5.16-10.65-8.74a66.35,66.35,0,0,0-17.77-9.76,83.69,83.69,0,0,0-20.07-4.54c-1.34-.15-8.77-1.31-10.09-1.06-1.65.3-4.4,2.25-5.86,3-21.28,11.45-46.46,13.76-69.51,21.42a5.31,5.31,0,0,0-2.77,1.62,5,5,0,0,0-.65,2.84,162,162,0,0,1-8.13,46,7.83,7.83,0,0,1-1.84,3.41,3,3,0,0,1-3.68.4q4.26,2.61,8.35,5.42"/><path d="M315.06,447.84c-.23-1.77.18-3.47-.09-5.24a16.4,16.4,0,0,0-2-4.77,5.86,5.86,0,0,0-3.83-3.06c-1.77-.55-3.57-1.06-5.27-.24-3.65,1.77-6.05,4.32-6.81,8.49-.26,1.39-1.25,11.33,2.1,9.77"/><path class="cls-5" d="M394.11,424a2.86,2.86,0,0,1,.1-.42,5.08,5.08,0,0,1,.37-.78,1.85,1.85,0,0,1,.19-.27,5.48,5.48,0,0,1,.52-.56,1.5,1.5,0,0,1,.42-.33,1.54,1.54,0,0,1,.62-.29c.2-.07.4-.14.6-.19a1.57,1.57,0,0,1,.3-.05c-5.91-4.9-14.31-8.66-25-11a124.6,124.6,0,0,0-22.69-2.71s-2.77-.21-2.19-.15c-2.94,1.82-3.86,2.15-6.3,3.92,1,0,3.8.29,4.73.34,1.32.08,2.52.14,3.56.18a119,119,0,0,1,21.86,2.6c7.39,1.64,16.35,4.6,22.83,9.83Z"/><path class="cls-6" d="M328.69,465.19a19.24,19.24,0,0,0,.28,15.36,19.8,19.8,0,0,0,6,7.22,46,46,0,0,0,22.76,9.29c7.66.75,14.39,1,21.49-2.12a58.14,58.14,0,0,1,15.25-4.56,63.7,63.7,0,0,1,15.67-.15,63.07,63.07,0,0,0,13.87,0c-1.87,28.94,5.68,52.25,5.23,78.32-2.8,3.65-6.12,6.89-9.14,10.37a85.08,85.08,0,0,0-5.72,6.71c-1.78,2.53-2.1,4.67-2.88,7.51-.68,2.41.35,4.19-.9,6.37a3,3,0,0,0-.3.73c-.09.29-.25.57-.33.86a3.77,3.77,0,0,0-.14,1.72,2,2,0,0,0,.12.5c.12.18.33.38.48.56a6.77,6.77,0,0,1,.91,1.2,6.61,6.61,0,0,1,.31,1.43,21.82,21.82,0,0,1,.38,2.71,10.25,10.25,0,0,0,.24,2.77c.2.55.8.41,1.35.31a2.71,2.71,0,0,0,.82-.35c.31-.17.61-.35.91-.53.31-.41.62-.81.93-1.19a.64.64,0,0,1,.17-.16,10.34,10.34,0,0,0,.55-2c.15-.77.28-1.55.38-2.32,0-.06.34-6.94.35-7,0,.33-.34,7.49-.37,7.83a10.78,10.78,0,0,1-.32,2c-.14.48-.36,1-.51,1.43a.69.69,0,0,1,.72,0,3.86,3.86,0,0,0,3.61.31c1.15-.43,2.23-1,3.42-1.32a.72.72,0,0,1,.76.38,2.71,2.71,0,0,0,3,1.74,7.47,7.47,0,0,0,3.27-1.74.62.62,0,0,1,.26-.12l1.76-5.08c0,.08,1.81-5.91,1-2.51l-2.54,7.57a.6.6,0,0,1,.65.36,1.78,1.78,0,0,0,1.73,1.17c1.66-.11,1.46-.79,2.2-1.14a2.66,2.66,0,0,1,2.56-.12,1.75,1.75,0,0,0,1.84.18,7,7,0,0,0,1.15-.8c.27-.82.46-1.63.78-2.44.7-1.74.84-3.6,1.38-5.38.6-2,1.32-3.87,1.9-5.83.23-.75.46-1.51.64-2.27,1.06-4.54.44-9.39.24-14,0-.51-.18-.94-.16-1.47a18.3,18.3,0,0,0-.28-2.69c3.5-11.5,6.95-23,9-34.63a129,129,0,0,0-1-51.11c-.17-.7-.35-1.38-.55-2.06-1.1-3.72-2.68-7.15-4-10.83-.9-2.48-2.47-4.74-2.59-7a11.74,11.74,0,0,0-2.06-6.27c-3.67-5.24-10.79-6.45-17.16-7.07-12.85-1.26-39.19-9.64-52.05-8.7"/><path class="cls-7" d="M414.26,601.48a3.09,3.09,0,0,0-1.32-.32c-.32,0-.66.06-1,.1a7.4,7.4,0,0,1-.81,0c-.45,0-.81-.19-1.21.24"/><path class="cls-7" d="M413.48,603.26a7.18,7.18,0,0,1-1.62.69l-.54.19c-.22.08-.51.05-.72.15"/><path class="cls-7" d="M412.08,607.56c-.06-1.38,1-.37,1.37,0,.79.95,2.46,2.9.86,4.36"/><path class="cls-7" d="M436.67,609.71a34.29,34.29,0,0,0,1.43-5.42,8,8,0,0,0,.22-.94c0-.37.63-2.9.71-3.26.11-.54-1.94,9.44-1.73,8.94"/><path class="cls-7" d="M423.82,609.5c.25-.65.61-2.16.8-2.84.1-.38,2.26-7.1,2.38-7.48s-2.88,10.27-2.72,9.88"/><path class="cls-5" d="M331.94,420.65,329.28,424c-.8,1-1.47,2.11-2.22,3.15a97.57,97.57,0,0,0-1.44,43.29,24.39,24.39,0,0,0,3,8.52,13.67,13.67,0,0,1-1.18-5.51,14,14,0,0,1,0-3.6,16.34,16.34,0,0,1,1.45-5.23c-.4-2.78-.72-5.57-.87-8.36a96.11,96.11,0,0,1,4.31-33c.58-1.9,1.32-4,2-5.85C333.82,418.12,332.61,419.81,331.94,420.65Z"/><text class="cls-8" transform="translate(61.2 224.35)"><tspan class="cls-9">K</tspan><tspan x="15.29" y="0">nees must </tspan><tspan x="0" y="33.91">be pu</tspan><tspan class="cls-10" x="64.42" y="33.91">l</tspan><tspan class="cls-11" x="71.4" y="33.91">l</tspan><tspan x="78.97" y="33.91">ed in</tspan><tspan class="cls-12" x="135.5" y="33.91">t</tspan><tspan x="145" y="33.91">o </tspan><tspan x="0" y="67.83">the chest</tspan></text><path d="M90.78,323.31A68.38,68.38,0,0,0,105.37,354a80.71,80.71,0,0,0,24.29,19.46A89.76,89.76,0,0,0,145,379.84c1.85.58,2.64-2.31.8-2.89-19-6-36.51-18.64-45.91-36.51a64.71,64.71,0,0,1-6.23-17.93c-.37-1.89-3.26-1.09-2.89.8Z"/><path d="M135.73,367.88c3.18,3.6,6,7.49,8.9,11.32l.53-2.05c-2.34,1-4.63,2.08-6.95,3.11-2.07.91-4.18,1.74-6.25,2.66a1.51,1.51,0,0,0-.54,2.05,1.54,1.54,0,0,0,2.05.54c2.07-.92,4.18-1.75,6.25-2.66,2.33-1,4.62-2.12,7-3.11a1.5,1.5,0,0,0,.54-2.05c-3.06-4-6-8.14-9.37-11.93-1.28-1.45-3.39.67-2.12,2.12Z"/><path class="cls-13" d="M148.79,61.4a36.73,36.73,0,0,1,8.33-23.32,34.4,34.4,0,0,0-45.48-4.38A34.43,34.43,0,0,0,131.9,96a34.33,34.33,0,0,0,25.32-11.11A36.76,36.76,0,0,1,148.79,61.4ZM138,75.49s-3.7-.27-11.47-.27a25.63,25.63,0,0,0-4.93.31l-1.35-2.46c7.78-7.9,12.4-13.63,13-18.71.47-3.66-2-4.82-4.35-4.66a9.73,9.73,0,0,0-6.73,3.92c-.2-.23-1.93-2.07-1.47-2.65A12.43,12.43,0,0,1,130,46.12c5.89,0,9.09,3,8.74,8.51-.46,7-8,13.59-12.63,17.55l8.32-.08c1.77-.15,3-2.54,3.81-4.73,0,0,1.73.5,2,1C139.58,71.53,138.81,75.49,138,75.49Z"/><path class="cls-13" d="M95.79,61.4A36.74,36.74,0,0,1,104.16,38a34.44,34.44,0,1,0,.11,46.9A36.78,36.78,0,0,1,95.79,61.4ZM87.2,75.66H70.92L71,73.39l4.46-.58c.58,0,.81-.23.81-1,.08-10.05,0-19.6,0-19.6l-5.62,1.08c-.19-.31-1.12-2.46-.46-2.73l10.35-4,1,1s-.12,20.87,0,24.37c0,.77.19,1,.73,1l5.08.54Z"/><circle cx="184" cy="61.53" r="34.44"/><text class="cls-14" transform="translate(172.45 75.26)">3</text><path d="M243.45,38.34l-.27,3.12h-5.55V59.34h-3.75V41.46h-5.76V38.34Z"/><path d="M249.6,36.42v9.72a5.86,5.86,0,0,1,5.16-2.67c3.69,0,5.46,2.37,5.46,5.61V59.34H256.5V50.28c0-2.4-.9-3.69-2.94-3.69-2.85,0-4,2.31-4,4.83v7.92h-3.72V36.87Z"/><path d="M277.74,55a7,7,0,0,1-6.78,4.5c-5.28,0-7.62-3.3-7.62-8.22s3.3-7.95,7.83-7.83c3.69.09,7,2.85,6.63,7.86l-.06.48H267.12c0,2.67,1.14,4.5,3.87,4.5a3.5,3.5,0,0,0,3.39-2.49Zm-3.81-5.13c.06-2.43-1.26-3.57-3.09-3.51a3.5,3.5,0,0,0-3.54,3.51Z"/><path d="M284,43.62l.57,2.79A5.8,5.8,0,0,1,290,43.47c3.69,0,5.46,2.37,5.46,5.61V59.34h-3.72V50.28c0-2.4-.9-3.69-2.94-3.69-2.85,0-4,2.31-4,4.83v7.92h-3.72V43.62Z"/><path d="M310.29,39.18v4.59h4l-.51,3h-3.45V54c0,1.71.78,2.37,2,2.37a6.83,6.83,0,0,0,2.37-.69l.69,2.85a9.82,9.82,0,0,1-4,1c-3.69,0-4.83-2.46-4.83-5V46.77h-2.19v-3h2.37l.45-4.17Z"/><path d="M321.48,36.42v9.72a5.86,5.86,0,0,1,5.16-2.67c3.69,0,5.46,2.37,5.46,5.61V59.34h-3.72V50.28c0-2.4-.9-3.69-2.94-3.69-2.85,0-4,2.31-4,4.83v7.92h-3.72V36.87Z"/><path d="M349.62,55a7,7,0,0,1-6.78,4.5c-5.28,0-7.62-3.3-7.62-8.22s3.3-7.95,7.83-7.83c3.69.09,7,2.85,6.63,7.86l-.06.48H339c0,2.67,1.14,4.5,3.87,4.5a3.5,3.5,0,0,0,3.39-2.49Zm-3.81-5.13c.06-2.43-1.26-3.57-3.09-3.51a3.5,3.5,0,0,0-3.54,3.51Z"/><path d="M360.15,43.77V41.64c0-3.12,1.62-5.22,5.16-5.22a6.41,6.41,0,0,1,3.6,1.08v-.72l3.72-.36V54.21c0,1.68.72,2.13,1.83,2.13a2.81,2.81,0,0,0,1.56-.57l.72,2.67a6.6,6.6,0,0,1-3.42,1.08c-3.09,0-4.41-2.1-4.41-5V40.08a6,6,0,0,0-2.7-.69c-1.47,0-2.31.6-2.31,2.85v1.53h3.18l-.48,3h-2.7V59.34h-3.75V46.77h-2.46v-3Z"/><path d="M383.37,43.62V59.34h-3.75V46.71h-2.19V43.62Zm-1.89-6.12a2,2,0,0,1,2.22,1.89,2.22,2.22,0,0,1-4.41,0A1.93,1.93,0,0,1,381.48,37.5Z"/><path d="M401.85,43.62V57c0,5.22-2,8.37-7.8,8.37A16.38,16.38,0,0,1,387.63,64l.87-2.82a13.33,13.33,0,0,0,5.13,1.17c3.39,0,4.5-1.68,4.5-4.26V56.7a5.42,5.42,0,0,1-4.83,2.49c-4.23.09-6.66-3.12-6.66-7.74,0-5.64,3.6-8,6.72-8a5.2,5.2,0,0,1,5,2.85l.39-2.7Zm-11.34,7.8c0,2.67,1.05,4.77,3.84,4.77s3.9-2.1,3.9-4.74c0-3.57-1.89-4.86-3.93-4.86S390.51,48,390.51,51.42Z"/><path d="M409.41,36.42v9.72a5.86,5.86,0,0,1,5.16-2.67c3.69,0,5.46,2.37,5.46,5.61V59.34h-3.72V50.28c0-2.4-.9-3.69-2.94-3.69-2.85,0-4,2.31-4,4.83v7.92h-3.72V36.87Z"/><path d="M428.58,39.18v4.59h4l-.51,3h-3.45V54c0,1.71.78,2.37,2,2.37a6.83,6.83,0,0,0,2.37-.69l.69,2.85a9.82,9.82,0,0,1-4,1c-3.69,0-4.83-2.46-4.83-5V46.77h-2.19v-3H425l.45-4.17Z"/><path d="M445.29,43.62l.54,2.82a5.71,5.71,0,0,1,5.37-3c3,.09,6.18,2.1,6.18,7.89,0,4.74-2.37,8.16-6.66,8.16A4.88,4.88,0,0,1,446.07,57v8.37h-3.75V43.62Zm.51,7.83c0,2.7,1,4.86,4,4.86,2.43,0,3.78-1.83,3.78-4.92,0-3.66-1.83-4.8-3.81-4.8C447.6,46.59,445.8,48.3,445.8,51.45Z"/><path d="M464.37,36.42v9.72a5.86,5.86,0,0,1,5.16-2.67c3.69,0,5.46,2.37,5.46,5.61V59.34h-3.72V50.28c0-2.4-.9-3.69-2.94-3.69-2.85,0-4,2.31-4,4.83v7.92h-3.72V36.87Z"/><path d="M478.41,44.61a18.74,18.74,0,0,1,5.94-1.14c4.74,0,6.48,2.34,6.48,6v6.36a.79.79,0,0,0,.75.9,3,3,0,0,0,1.23-.18V59a6.08,6.08,0,0,1-2.49.48,2.84,2.84,0,0,1-2.85-2.13,6.87,6.87,0,0,1-4.74,2.13c-3.06,0-5.34-1.56-5.37-4.83s2.46-5,6.39-5a24.49,24.49,0,0,1,3.39.3v-.93c0-1.71-1.08-2.64-3.24-2.61a12.68,12.68,0,0,0-4.86,1Zm8.7,7.35a16.62,16.62,0,0,0-3.06-.18c-1.8.09-2.94.93-3,2.52a2.21,2.21,0,0,0,2.55,2.31,6.17,6.17,0,0,0,3.48-1.26Z"/><path d="M495.81,54.84a8.15,8.15,0,0,0,5.1,1.74c1.8,0,2.85-.54,2.85-1.83,0-3.06-9.09-1-8.79-6.78.12-2.82,2.19-4.5,6.36-4.5A12.78,12.78,0,0,1,507,44.94l-1.32,2.64a8.9,8.9,0,0,0-4.5-1.29c-1.47,0-2.7.48-2.64,1.71.18,2.49,8.91.57,8.91,6.63,0,3.24-2.91,4.92-6.63,4.89a10.76,10.76,0,0,1-6.45-2Z"/><path d="M524.28,55a7,7,0,0,1-6.78,4.5c-5.28,0-7.62-3.3-7.62-8.22s3.3-7.95,7.83-7.83c3.69.09,7,2.85,6.63,7.86l-.06.48H513.66c0,2.67,1.14,4.5,3.87,4.5a3.5,3.5,0,0,0,3.39-2.49Zm-3.81-5.13c.06-2.43-1.26-3.57-3.09-3.51a3.5,3.5,0,0,0-3.54,3.51Z"/><path d="M238,67.38l-.26,1.1a7.49,7.49,0,0,0-1.65-.2c-2.41,0-3.57.87-3.57,4.06V74.2h4.38l-.29,1.19h-4.09V89.25h-1.39V75.39h-3.05V74.2h3.05v-2c0-3.69,1.82-5.08,4.81-5.08A9.18,9.18,0,0,1,238,67.38Z"/><path d="M245.79,89.43c-4.58,0-6.58-3.48-6.58-7.75,0-5.19,3-7.77,6.7-7.77,3.39,0,6.46,2.58,6.46,7.77C252.37,86,250,89.43,245.79,89.43Zm0-1.19c3.48,0,5.19-3.17,5.19-6.56,0-4.67-2.46-6.58-5.07-6.58-2.82,0-5.28,1.8-5.28,6.58C240.63,85.05,241.93,88.24,245.79,88.24Z"/><path d="M258.84,80.38v8.87h-1.39V74.05h1.13l.26,3.08c.64-1.95,2.35-3.22,5.07-3.22a8.65,8.65,0,0,1,1.63.14l-.2,1.28a4.73,4.73,0,0,0-1.51-.2C260.38,75.13,258.84,77.65,258.84,80.38Z"/><path d="M287.32,85.45l1.1.67a7,7,0,0,1-6,3.31c-4.79,0-6.82-3.28-6.82-8,0-4.91,3-7.57,6.84-7.57,3.51,0,6.36,2.55,6,7.28l-.06.49H277c0,4,1.65,6.56,5.48,6.56A5.68,5.68,0,0,0,287.32,85.45Zm-10.24-5h10c0-3.86-2-5.39-4.65-5.39C279.69,75.1,277.34,76.75,277.08,80.49Z"/><path d="M303.18,89.25l-4.58-6.7-4.7,6.7h-1.6l5.51-7.71-5-7.49h1.62l4.21,6.44L303,74.05h1.59l-5.16,7.43,5.34,7.77Z"/><path d="M313.65,89.43c-3.08,0-5.4-1.48-5.4-4.76s2.82-4.76,6.15-4.76a19.84,19.84,0,0,1,4.76.64V79c0-2.52-1.57-3.85-4.64-3.85a11.33,11.33,0,0,0-5,1.16l-.32-1.19a13.82,13.82,0,0,1,5.31-1.16c4.52,0,6,2.32,6,5.25v8.21c0,.43.09.81.64.87a5.49,5.49,0,0,0,1.48-.18v1.08a4.75,4.75,0,0,1-1.62.29,2,2,0,0,1-1.89-2.15A9,9,0,0,1,313.65,89.43Zm0-1.22a9.43,9.43,0,0,0,5.51-2.12V81.62a26.39,26.39,0,0,0-5-.58c-2.9,0-4.52,1.16-4.52,3.66C309.65,86.9,311.1,88.21,313.65,88.21Z"/><path d="M327.83,74.05l.23,3a5.11,5.11,0,0,1,4.67-3.19c2.7-.09,4.09,1.19,4.7,3a5.46,5.46,0,0,1,5-3c3.83-.12,5.05,2.43,5.05,5.42v9.92h-1.4v-10c0-2.72-1.24-4.14-3.74-4.14-3.48,0-4.58,2.43-4.58,5v9.14h-1.39v-10c0-2.72-1.25-4.14-3.75-4.14-3.65,0-4.58,2.69-4.58,5.42v8.73h-1.39V74.05Z"/><path d="M354.33,74.05l.27,3.08a6.22,6.22,0,0,1,5.62-3.22c3.4,0,6.62,2.17,6.62,7.63,0,4.58-2.27,7.89-6.85,7.89a5.62,5.62,0,0,1-5.39-3.22v8.84h-1.43v-21Zm5.78,14.19c3.65,0,5.33-2.93,5.33-6.67,0-4.91-2.58-6.47-5.39-6.47-3.11,0-5.57,2.52-5.57,6.55C354.48,85,355.67,88.24,360.11,88.24Z"/><path d="M373.33,85.42c0,2.15.9,2.76,2.32,2.76a4.81,4.81,0,0,0,2.44-.87l.63,1.1a5.69,5.69,0,0,1-3.07,1c-2.9,0-3.71-1.74-3.71-4V67.35l1.39-.26Z"/><path d="M391.89,85.45l1.1.67a6.94,6.94,0,0,1-6,3.31c-4.79,0-6.82-3.28-6.82-8,0-4.91,3-7.57,6.85-7.57,3.51,0,6.35,2.55,6,7.28l-.06.49h-11.4c0,4,1.66,6.56,5.49,6.56A5.68,5.68,0,0,0,391.89,85.45Zm-10.24-5h10c0-3.86-2-5.39-4.64-5.39C384.26,75.1,381.91,76.75,381.65,80.49Z"/><path d="M397.66,89.4c0-.58-.75-.53-.75-.53a1.12,1.12,0,0,1,0-2.23c1.45,0,2,1.34,1.82,2.73a3.29,3.29,0,0,1-3.45,2.81v-.9A2.13,2.13,0,0,0,397.66,89.4Z"/><path d="M414.6,89.43c-3.08,0-5.4-1.48-5.4-4.76s2.81-4.76,6.15-4.76a19.84,19.84,0,0,1,4.76.64V79c0-2.52-1.57-3.85-4.64-3.85a11.27,11.27,0,0,0-5,1.16l-.32-1.19a13.76,13.76,0,0,1,5.31-1.16c4.52,0,6,2.32,6,5.25v8.21c0,.43.09.81.64.87a5.49,5.49,0,0,0,1.48-.18v1.08a4.81,4.81,0,0,1-1.63.29,2,2,0,0,1-1.88-2.15A9,9,0,0,1,414.6,89.43Zm0-1.22a9.43,9.43,0,0,0,5.51-2.12V81.62a26.5,26.5,0,0,0-5-.58c-2.9,0-4.53,1.16-4.53,3.66C410.59,86.9,412,88.21,414.6,88.21Z"/><path d="M435.59,75.39h-2.52V74.2h2.58l.2-4.24,1.13-.2V74.2h4.44l-.32,1.19H437v10c0,2.15.9,2.76,2.32,2.76a7.06,7.06,0,0,0,2.93-1.07l.64,1.1a7.77,7.77,0,0,1-3.57,1.22c-2.9,0-3.71-1.74-3.71-4Z"/><path d="M448.79,89.25h-1.43v-14h-2.49V74.05h3.92Zm-1.86-20a1.12,1.12,0,0,1,1.1-1.1,1.12,1.12,0,1,1,0,2.23A1.12,1.12,0,0,1,446.93,69.21Z"/><path d="M466.86,87.6c0,5-2.18,7.45-7,7.45a15.16,15.16,0,0,1-5.6-1l.43-1.22a15.14,15.14,0,0,0,5.28,1c4.15,0,5.51-2.69,5.51-5.85V86.21a6.32,6.32,0,0,1-5.57,3.22c-4.49.14-6.73-3.4-6.73-7.69,0-5.22,3-7.83,6.65-7.83a5.83,5.83,0,0,1,5.65,3.19l.24-3h1.16Zm-6.79.64c3.77,0,5.42-3.17,5.42-6.59,0-4.64-2.67-6.55-5.54-6.55-3,0-5.39,1.77-5.39,6.55C454.56,85.05,455.63,88.24,460.07,88.24Z"/><path d="M484.75,79.33v9.92h-1.39v-10c0-2.72-1.51-4.14-4-4.14-3.65,0-5.31,2.69-5.31,5.42v8.73h-1.39V67.35l1.39-.26V77.24a5.83,5.83,0,0,1,5.4-3.33C483.27,73.79,484.75,76.34,484.75,79.33Z"/><path d="M491.1,75.39h-2.53V74.2h2.58l.21-4.24,1.13-.2V74.2h4.44l-.32,1.19h-4.12v10c0,2.15.9,2.76,2.32,2.76a7.06,7.06,0,0,0,2.93-1.07l.64,1.1a7.82,7.82,0,0,1-3.57,1.22c-2.9,0-3.71-1.74-3.71-4Z"/><path d="M510.15,75.39h-2.53V74.2h2.59l.2-4.24,1.13-.2V74.2H516l-.32,1.19h-4.12v10c0,2.15.9,2.76,2.32,2.76a7.06,7.06,0,0,0,2.93-1.07l.64,1.1a7.82,7.82,0,0,1-3.57,1.22c-2.9,0-3.71-1.74-3.71-4Z"/><path d="M531.87,89.25l-.23-3.6A6,6,0,0,1,526,89.4c-3.83.11-5.34-2.44-5.34-5.43V74.05h1.4v10c0,2.73,1.53,4.15,4,4.15,3.65,0,5.51-3.37,5.51-6V74.05H533v15.2Z"/><path d="M550.84,86A6.35,6.35,0,0,1,545,89.43c-4.64,0-6.82-3.72-6.82-7.78,0-5,3.14-7.74,7-7.74a6,6,0,0,1,5.63,3.45l-1.25.55A4.64,4.64,0,0,0,545,75.1c-3,0-5.51,2.11-5.51,6.47,0,3.48,1.53,6.61,5.45,6.61a4.68,4.68,0,0,0,4.61-2.82Z"/><path d="M560.93,81.65l5.51,7.6h-1.77l-4.93-6.9h-2.87v6.9h-1.42V67.35l1.42-.26V81.16h2.81l4.67-7.11h1.8Z"/><path d="M578.5,74.05l.26,3.08a6.22,6.22,0,0,1,5.63-3.22c3.39,0,6.61,2.17,6.61,7.63,0,4.58-2.26,7.89-6.84,7.89a5.63,5.63,0,0,1-5.4-3.22v8.84h-1.42v-21Zm5.77,14.19c3.66,0,5.34-2.93,5.34-6.67,0-4.91-2.58-6.47-5.4-6.47-3.1,0-5.56,2.52-5.56,6.55C578.65,85,579.83,88.24,584.27,88.24Z"/><path d="M601.93,89.43c-4.58,0-6.58-3.48-6.58-7.75,0-5.19,3-7.77,6.7-7.77,3.39,0,6.47,2.58,6.47,7.77C608.52,86,606.17,89.43,601.93,89.43Zm0-1.19c3.48,0,5.2-3.17,5.2-6.56,0-4.67-2.47-6.58-5.08-6.58-2.81,0-5.28,1.8-5.28,6.58C596.77,85.05,598.08,88.24,601.93,88.24Z"/><path d="M623.45,75.3l-.58,1.16a8.51,8.51,0,0,0-4.61-1.36c-2.09,0-4.06.61-4,2.75.08,3.8,9.71,1.57,9.71,7.14,0,3-2.55,4.49-5.94,4.44a8.21,8.21,0,0,1-5.6-2l.78-1A6.65,6.65,0,0,0,618,88.24c2.75,0,4.55-1,4.55-3.22,0-4.56-9.6-2.06-9.66-7.08,0-2.55,1.89-4,5.43-4A11.23,11.23,0,0,1,623.45,75.3Z"/><path d="M630.93,89.25h-1.42v-14H627V74.05h3.91Zm-1.85-20a1.12,1.12,0,0,1,1.1-1.1,1.12,1.12,0,1,1,0,2.23A1.12,1.12,0,0,1,629.08,69.21Z"/><path d="M637.57,75.39h-2.52V74.2h2.58l.2-4.24,1.13-.2V74.2h4.44l-.32,1.19H639v10c0,2.15.9,2.76,2.33,2.76a7.05,7.05,0,0,0,2.92-1.07l.64,1.1a7.76,7.76,0,0,1-3.56,1.22c-2.91,0-3.72-1.74-3.72-4Z"/><path d="M650.77,89.25h-1.42v-14h-2.5V74.05h3.92Zm-1.86-20a1.12,1.12,0,0,1,1.1-1.1,1.12,1.12,0,1,1,0,2.23A1.12,1.12,0,0,1,648.91,69.21Z"/><path d="M662.46,89.43c-4.59,0-6.59-3.48-6.59-7.75,0-5.19,3-7.77,6.7-7.77,3.39,0,6.47,2.58,6.47,7.77C669,86,666.69,89.43,662.46,89.43Zm0-1.19c3.48,0,5.19-3.17,5.19-6.56,0-4.67-2.47-6.58-5.08-6.58-2.81,0-5.28,1.8-5.28,6.58C657.29,85.05,658.6,88.24,662.46,88.24Z"/><path d="M675.27,74.05l.23,3a5.7,5.7,0,0,1,5.4-3.19c3.83-.12,5.31,2.43,5.31,5.42v9.92h-1.4v-10c0-2.72-1.5-4.14-4-4.14-3.65,0-5.31,2.69-5.31,5.42v8.73h-1.39V74.05Z"/></svg>