<svg id="Layer_1" data-name="Layer 1" xmlns="http://www.w3.org/2000/svg" viewBox="0 0 780 1051.14"><defs><style>.cls-1,.cls-3,.cls-6{fill:#d4a47c;}.cls-1,.cls-2,.cls-3,.cls-4,.cls-5,.cls-6{stroke:#fff;stroke-miterlimit:10;}.cls-1{stroke-width:0.41px;}.cls-2{fill:#c6946f;stroke-width:0.27px;}.cls-3{stroke-width:0.28px;}.cls-4{fill:#005058;stroke-width:0.53px;}.cls-5{fill:#fff171;stroke-width:0.3px;}.cls-6{stroke-width:0.32px;}.cls-7{font-size:24.66px;font-family:ABCSansBold, ABCSans;}.cls-8{letter-spacing:-0.02em;}.cls-9{letter-spacing:-0.04em;}.cls-10{letter-spacing:-0.01em;}.cls-11{letter-spacing:-0.02em;}.cls-12,.cls-13{fill:#fff;}.cls-12{opacity:0.7;}.cls-13{font-size:38.5px;font-family:ABCSerifBold, ABCSerif;}</style></defs><path class="cls-1" d="M467.42,356.79c3.19-.58,6.39-1.37,9.6-1.77,2-.25,3.74.57,5.63.82a80.42,80.42,0,0,0,8.22.18c3.29.11,6.28,1.2,9.44,2,19.29,5,36.67,21.78,47.2,39.16,10.36,17.09,16,32,18.53,51.5,2.56,19.69,6.87,40-.21,59.32-.84,2.27-6.48-14.7-8.74-15.58a58.26,58.26,0,0,1-6.78-3.66c-7.86-4.37-15.55-9-22.3-15-4.3-3.83-8.87-7.23-13-11.22-2.93-2.83-6.08-5.42-9.17-8.07-3.52-3-6.69-6.54-10.48-9.21-2.55-1.81-5.06-3.68-7.63-5.45a27.56,27.56,0,0,1-3-2.1c-.84-.75-1.32-1.71-2.3-2.3a9.49,9.49,0,0,1-3-3.12c-1.39-1.84-3-3.4-4-5.54-1.3-2.76-2.89-5.42-4.41-8.1-1.71-3-3.81-5.74-5.13-8.93-.45-1.11-1.18-2.09-1.72-3.16-.87-1.75-1.67-3.52-2.56-5.27a10.22,10.22,0,0,1-1.08-2.91c-.24-1.34-.85-2.46-1.14-3.77-.5-2.25-1.69-4.21-2.09-6.49-.55-3.11-1.55-6.33-1.3-9.5.29-3.62.73-7.59,2.35-10.89.6-1.23,1.27-2.43,1.84-3.68a20.47,20.47,0,0,1,1.46-3.27c1.07-1.52,2.8-3.86,4.93-3.88"/><path class="cls-2" d="M536.07,504.35c-18.71-18.26-36.07-3-53.1-7.72-25.22-7-36.59-10-63-10.87-13.64-.45-27.2,1.42-40.68,3.45-11.65,1.75-25.3,1.82-36.2,6.44-8.9,3.78-12.51,9.79-14.34,17.14a7.9,7.9,0,0,1-1.34.74c-4.67,2-7.6,6.51-11.05,10.08-.07.14-.13.28-.21.42a21.46,21.46,0,0,1-3.71,4.41l-27.12,26.94c-6.48,6.44-13.4,12.92-18.76,20.16-8.64,11.65-19.82,21-31.32,30.18.09-.67.2-1.33.29-2-.66,4.87-15.64,10.68-19.31,12.59-8.15,4.26-15.79,7.89-21,15.91-5.94,9.12-13.1,18.48-18.51,27.68-2.71,4.61-3,10.15-6.69,14.29-2,2.3-4.68,6.23-5.25,9.26-.78,4.12,2,8.82,5.36,3.82.86-1.28,1.49-2.75,2.68-3.73,3.08-2.55,7.94-.52,11.61-2.12a12.53,12.53,0,0,0,3.82-3.07c3.81-4,7.35-8.47,11.24-12.34,2.13-2.13,4.68-3,7-4.72,4.51-3.34,10.94-3.35,16.32-4.34a51.74,51.74,0,0,0,7.53-2.05,6.8,6.8,0,0,0,4.46-3.75,8.3,8.3,0,0,0,.72-6.51,33.71,33.71,0,0,1-1.44-5.32c-.22-1.59-.49-3.2-.73-4.82,7.11-5.13,22.47-13.88,27.68-16.7,11.82-6.39,23.73-12.23,35.89-17.76,4.39-2.3,8.75-4.65,13-7.13,17.32-10,32-23.7,45-38.07a47.67,47.67,0,0,0,3-3.73c18.78,5.57,37.24,12.53,56.07,17.85q24.42,6.91,49.18,12.52c14.16,3.21,29.25,8.17,43.86,6.06,13.94-2,26.76-8.7,35.21-18.37,5.34-6.12,9-13.52,9.33-21.3C552,537.12,544.44,512.52,536.07,504.35Z"/><path class="cls-3" d="M471.55,344c.1-1.26,8.62,4.92,9.86,4.11s2.18.8,3,1.57,1.62.86,2.38,1.44a8.39,8.39,0,0,0,1.61,1.28,6.53,6.53,0,0,0,4.74.16c1.67-.78,2.23-2.78,3.73-3.74a5.63,5.63,0,0,1,2.17-.64,2.73,2.73,0,0,1-.57-1.65c-.1-4.08,2.36-7.39,3.54-11.14a20.15,20.15,0,0,0-3.37-1.22,30.37,30.37,0,0,1-5.26-2.06c-1.52-.75-3.05-1-3.87-2.44-.64-1.13-.53-2.51-1.16-3.63a22.87,22.87,0,0,1-1.43-2.19,32.73,32.73,0,0,1-1.16-4c-.85-2.94-2-5.86-3-8.77a25.34,25.34,0,0,0-4.72-8.63,20.44,20.44,0,0,0-8.27-5.56,45.61,45.61,0,0,0-7.43-2.29,76,76,0,0,0-11.28-1.12c-4.25-.12-9.06,1.28-12.94,2.88-2.89,1.2-5.83,1.9-8.61,3.43a26.33,26.33,0,0,0-7.11,6.28c-1.77,2.08-3.93,3.32-6.1,4.82-1.1.75-1.79,1.94-2.91,2.77a30.75,30.75,0,0,0-3.8,3.12c-2.18,2.31-2.23,5-2.43,8-.13,2,.41,3.82.24,5.8a16.19,16.19,0,0,0,.12,2.87c.13,1.07-.06,2.07.07,3.15.06.52.32.91.4,1.45s-.2.9,0,1.43a20.86,20.86,0,0,0,1.82,2.76,26.14,26.14,0,0,1,1.87,3.39,2.32,2.32,0,0,0,.18.38c-.06,0-.14.16-.24.51a12.43,12.43,0,0,1-1.2,2.69c-1.12,2.28-1.61,2.26-2.63,5a28.93,28.93,0,0,0-1.46,5.22,3.57,3.57,0,0,0,3.58,4.22,1.91,1.91,0,0,1,1.25.41,4.9,4.9,0,0,1,2.3,2.82,20.2,20.2,0,0,0,.41,3.13,19.27,19.27,0,0,0,2.75,5.14c1,1.27,1.93,1.57,1.9,3.16,0,1.13-.12,2.29-.2,3.43-.14,2.14.35,4.15,2.53,5a15.76,15.76,0,0,0,10.59-.42c26.44-12.86,20.46-.09,30.69-1.46,7-.94,17.87-3.27,23.91.47"/><path d="M419.32,335.69c.37.08.73.19,1.09.29.21.07.64.21.74.43s.05.09,0,.14a1.16,1.16,0,0,1-.32,0,1.86,1.86,0,0,0-.34,0c-.45.09-.89.23-1.34.32-.27.05-.52.14-.78.17-1.64.2-3.4-.13-5,.25a7.49,7.49,0,0,0-3.72,2.74c-.31-.44-1.36-1.85-1-2.34.47-.71,2.66-1.19,3.39-1.68a6.81,6.81,0,0,1,4.61-1C417.51,335.15,418.39,335.51,419.32,335.69Z"/><path d="M500.83,329.68c-2.35-1.15-5.07-1.95-7.25-3.37-6.94-4.49-7.4-14.37-11.75-21.4-3.57-5.78-9.85-9.52-16.43-11.21s-13.51-1.52-20.28-.89c-6.27.59-12.61,1.6-18.29,4.33C423,299,412.71,306,414.43,311.35s11.95,6.88,14.69,12.41c1.39,2.8,1.46,6.22,3.32,8.73a25.62,25.62,0,0,0,3.41,3.25c2.08,1.94,3.65,4.41,5.85,6.21s5.47,2.81,7.9,1.32a11.58,11.58,0,0,1-.09-6c.64-1.94,1.86-1.44,3.88-1.18,2.78.36,4.63,1.62,4.51,4.42s-.91,5.77.31,8.3c1.32,2.72,4.49,3.92,7.36,4.87,4.94,1.63,14.25,1,19.19,2.67,1.83-2.53,1.7-1.47,3.68-3.88,1.49-1.83-2.25-4.34.1-4.19a19.27,19.27,0,0,0,12.54-3.67c3.37-2.47,6-6.95,4.28-10.77A8.75,8.75,0,0,0,500.83,329.68Z"/><path d="M414.06,312.2l.78-.57c0-.07-.09-.12-.13-.18A2.93,2.93,0,0,0,414.06,312.2Z"/><path class="cls-3" d="M446.71,344.77c-4.09-3.7,1.67-10.41,5.84-10.29a6.84,6.84,0,0,1,6.41,6.68c0,3.55-2.88,6.55-3.15,10.08-.14,1.87.42,3.89-.49,5.53s-4.26,1.33-3.85-.5"/><path d="M487.87,332.86a7.54,7.54,0,0,0,2-2.95,12.72,12.72,0,0,1,2.55-3.29,6.46,6.46,0,0,1,4.22-2.07,7,7,0,0,1,4,1.19,6.74,6.74,0,0,1,2.64,2.71c.42,1.29-.15,3.43-.2,4.77a7,7,0,0,1-2.2,4.24,6.29,6.29,0,0,1-4.28,2.36,20.66,20.66,0,0,1-10.56-3.33c-1.57-.94-2.32-3.33-2.58-5.08s-.17-4.71.71-6.3c1.71-3,6-2.81,8.88-2,1.7.51,3.37,1.19,4.06,3a10.21,10.21,0,0,1,.39,4.6,19,19,0,0,1-.66,5.21,7,7,0,0,1-1.08,2.54,22,22,0,0,0-1.94,2.41,8.66,8.66,0,0,1-2.43,2.47,3.41,3.41,0,0,1-2.58.61,11.08,11.08,0,0,1-3.11-.62c-.63-.22-1.16-.68-1.77-.94-1.06-.47-1.06-.52-1.06-1.82"/><path d="M490.84,328.53c-.54-1.4,0-2.62.72-3.82a6.24,6.24,0,0,0,.65-1.29,1.91,1.91,0,0,1,1.45-1.41c1.81-.64,4,.07,5.72.54a6.78,6.78,0,0,1,2.14.82c.58.41,1,1,1.57,1.41.34.23.73.28,1,.61s.43.77.76,1.1.58.43.79.92a8.88,8.88,0,0,1,.38,1.24,5.21,5.21,0,0,1,.33,2.34,14.78,14.78,0,0,1-.67,2.36,6.26,6.26,0,0,1-.56,1c-.23.39-.31.85-.54,1.24a6.38,6.38,0,0,1-3,2.16c-2.08,1-4.79.75-7,.52a12,12,0,0,1-5-1.67c-.84-.55-1.57-1.18-2.34-1.8a10.32,10.32,0,0,1-2-1.81,8.84,8.84,0,0,1-1.37-2.68,19,19,0,0,1-.9-3.11,6.56,6.56,0,0,1,.46-3.1,8.8,8.8,0,0,0,.76-1.5,5.78,5.78,0,0,1,.5-1.66,6.9,6.9,0,0,1,4.63-3.69,21.94,21.94,0,0,1,4.48-.6c1,0,1.93.12,2.9.17a6.23,6.23,0,0,1,2.93.92,4.31,4.31,0,0,1,1.43,1.12c.36.44.9.83,1.08,1.37.55,1.6,0,3.14.2,4.72a5.56,5.56,0,0,1,.19.92c0,.5-.06,1-.09,1.52a10.4,10.4,0,0,1-.26,2.43,7,7,0,0,1-1.18,2.49,3.78,3.78,0,0,1-2.71,1.53,10.18,10.18,0,0,1-3.85.32,13.52,13.52,0,0,1-4.8-1.82,10.44,10.44,0,0,1-3.9-3.47,11.37,11.37,0,0,1-1.31-2.39,11.77,11.77,0,0,1-.24-2.45c-.09-1.75,1.05-3.32,1.9-4.73.17-.28.45-1,.75-1.19s.72,0,1,0"/><path d="M483.61,346.44c-.55-1.4,0-2.62.72-3.82a6.74,6.74,0,0,0,.64-1.29,1.93,1.93,0,0,1,1.45-1.41c1.81-.64,4,.07,5.72.54a6.47,6.47,0,0,1,2.14.82c.59.4,1,1,1.58,1.41.33.23.72.28,1,.61s.43.77.75,1.1.58.43.79.91a8.15,8.15,0,0,1,.38,1.25,5.21,5.21,0,0,1,.33,2.34,14.07,14.07,0,0,1-.67,2.36,7.12,7.12,0,0,1-.55,1c-.24.39-.32.85-.55,1.24a6.38,6.38,0,0,1-2.95,2.16c-2.08,1.05-4.79.74-7,.52a11.93,11.93,0,0,1-5-1.68c-.83-.54-1.56-1.17-2.34-1.79a10.61,10.61,0,0,1-2-1.81,8.84,8.84,0,0,1-1.37-2.68,20,20,0,0,1-.89-3.11,6.43,6.43,0,0,1,.45-3.1,8.12,8.12,0,0,0,.76-1.5,6,6,0,0,1,.51-1.67,6.87,6.87,0,0,1,4.63-3.68,21.84,21.84,0,0,1,4.47-.6c1,0,1.94.12,2.9.16a6.24,6.24,0,0,1,2.93.93,4.31,4.31,0,0,1,1.43,1.11c.36.45.9.84,1.08,1.38.55,1.6,0,3.14.2,4.72a5.57,5.57,0,0,1,.2.92c0,.5-.07,1-.09,1.51a11.61,11.61,0,0,1-.26,2.44,7.16,7.16,0,0,1-1.19,2.49,3.74,3.74,0,0,1-2.71,1.53,10.38,10.38,0,0,1-3.85.32,13.6,13.6,0,0,1-4.8-1.82,10.33,10.33,0,0,1-3.89-3.47,11.41,11.41,0,0,1-1.32-2.39,12.49,12.49,0,0,1-.24-2.45c-.09-1.75,1.06-3.32,1.9-4.73.17-.28.46-1,.75-1.19s.72,0,1,0"/><path class="cls-4" d="M469.6,426.26c-1.53,2.42.95,9.68-.33,12.28-1,2.13-2.37,4-3.25,6.31l-1,2.4c.93.52,1.41,1.64,2.13,2.39a24.29,24.29,0,0,1,2.2,2.54c1.3,1.81,2.54,3.79,3.71,5.68a16.84,16.84,0,0,0,2.26,3.08c.78.8,1.2,1.86,1.95,2.72,1.57,1.79,1.92,3.71,2.55,6a57.55,57.55,0,0,1,1.35,8.69,25,25,0,0,1-.54,5.7c-.16,1.3.75,10.76.33,12.05,8.35,2.61,12.58.44,23.47.57.34,0,.68-.06,1-.07,9.73-.25,21.45.38,28.68,8,3.43,3.59,5.2,8.42,6.56,13.19a139.69,139.69,0,0,1,4.75,28.21c.3,4.05.81,8-.32,11.88-.47,1.64-2.53,12.32-3.65,12.8l.32-.11.17-.16.83-.71c.08-.1.9-.91,1.1-1.14.53-.64,1-1.3,1.52-2,.14-.19.27-.4.4-.59.89-1.67,1.73-3.34,2.55-4.91,2.51-4.75,4.94-9.53,7.35-14.32,4.68-9.34,7.94-24.11,11.21-34,1.16-3.5,1.1-9.22,2.24-12.71.63-1.92,1.18-2,.08-3.68a48.73,48.73,0,0,0-3.1-4.33c-1.36-1.68-2.76-3.16-4-4.95-1.36-2-2.65-4-3.91-6.07-5.83-9.76-9.56-20.72-14.89-30.77-3.6-6.77-6.43-14.21-9.72-21.19-1-2.06-2.38-1.56-4.32-1.64-1.09-.05-2.21-.09-3.29-.11-5.66-.08-11.58,1.4-17.34,1.54-2.05.05-34.56.57-31.76-6.13C477.91,420.35,471,424.09,469.6,426.26Z"/><path class="cls-1" d="M493.55,370.09c-5.59-6-22.06-7.68-28.48-4.35-7.91,4.1-13.58,11.41-17.9,19-3.79,6.7-6.75,12.74-6.78,20.5a57.93,57.93,0,0,1-2,15.78,63,63,0,0,1-6.22,14.39,57.52,57.52,0,0,0-6.51,15.82c-25.1,24.49-43,53-66,73.79a20.75,20.75,0,0,1-2,1,51.64,51.64,0,0,1-5.71.62c-.91,0-1.83,0-2.74,0-1.55,0-3.07,0-4.63,0a18.71,18.71,0,0,0-2,0c-.6.06-1.21.26-1.81.28l-.76.32c-.68.08-1.38.07-2.05.18a10.06,10.06,0,0,0-1.83.49l-.73.26c-.4.14-.82.16-1.22.31a16,16,0,0,0-1.55.6c-.52.27-.48.73-.62,1.18a1.48,1.48,0,0,1-.87,1c-.51.24-1,.51-1.5.76-.33.16-.65.26-1,.44s-.57.28-.85.43a16.6,16.6,0,0,1-1.94.75l-1,.38a9.28,9.28,0,0,1-.91.22,3,3,0,0,0-.74.29c-.27.14-.58.22-.84.36a3.82,3.82,0,0,0-1.33,1.11,1.33,1.33,0,0,0-.28.43c0,.21,0,.5-.07.73a6.33,6.33,0,0,1-.23,1.49,7.11,7.11,0,0,1-.8,1.22c-.26.36-.51.73-.76,1.1s-.44.46-.64.72a2.75,2.75,0,0,1-.44.59c-.18.15-.31.33-.51.47a1.62,1.62,0,0,0-.45.36,7.4,7.4,0,0,0-.7,1c-.26.53.26.86.72,1.18a2.61,2.61,0,0,0,.82.35,12.23,12.23,0,0,0,1.47.39.57.57,0,0,0,.39,0c.08,0,.12-.12.21-.14s.21,0,.32,0a.73.73,0,0,0,.3-.07,10.34,10.34,0,0,0,1.88-1c.66-.43,1.3-.88,1.93-1.35l.13-.1c-.25.23-.49.46-.75.68a10.55,10.55,0,0,1-1.67,1.16,14.67,14.67,0,0,0-1.86.93,3.76,3.76,0,0,1-.31.25c-.26.15-.52.31-.76.48s-.27.26-.43.38a3.5,3.5,0,0,1-.61.31,11.65,11.65,0,0,0-1.26.69,7.6,7.6,0,0,0-2,1.57c-.14.19-.34.25-.53.39s-.32.3-.46.44a1.87,1.87,0,0,1-.43.41,5.93,5.93,0,0,1-.72.34c-.44.2-.81.51-1.27.69s-.88.44-1.34.62a8.9,8.9,0,0,0-1.24.6c-.18.11-.25.3-.4.42s-.3.2-.44.31c-.35.26-.63.53-1,.77s-.79.57-1.16.87a23.78,23.78,0,0,1-2,1.4,5.83,5.83,0,0,0-1.3,1.7,2.23,2.23,0,0,0,0,2.26,3.21,3.21,0,0,0,1.68,1.51,2.13,2.13,0,0,0,1.11.17c-.22,0-.44.14-.64.2a1.89,1.89,0,0,0-1.1.92,3,3,0,0,0-.28.45,5.54,5.54,0,0,1-.33.64,2.54,2.54,0,0,0-.21.66c-.07.39.12.6.42.9a8.91,8.91,0,0,0,1.4,1,3.34,3.34,0,0,0,1.6.62,4,4,0,0,0,1.85-.59,20.06,20.06,0,0,0,2.07-1c.5-.3,1-.59,1.5-.85a14.44,14.44,0,0,0,1.76-1c.61-.41,1.49-.57,2.14-.94.35-.19.66-.42,1-.62s.61-.27.88-.44a7.5,7.5,0,0,1,2-.74,5.86,5.86,0,0,0,1.09-.38,6.91,6.91,0,0,1,.79-.33l-9.1,4.3a.8.8,0,0,0-.55.31c-.09.1-.19.11-.29.19a1.52,1.52,0,0,0-.42,1.08c0,1,1.22,1.58,2.23,1.89a3.87,3.87,0,0,0,1.94.05c.7-.15,1.41-.15,2.1-.29a5.34,5.34,0,0,0,1.66-.63,10.42,10.42,0,0,1,1.68-.81,24,24,0,0,0,3.13-1.87l.9-.5c.24-.13.53-.17.78-.29.69-.33,1.33-.71,2-1.06a6.88,6.88,0,0,1,1.11-.48c.36-.11.68-.29,1-.39s.75-.26,1.12-.4l-7,3.41c-.11.17-.57.15-.51.38s.11.25.14.39,0,.28.1.4a.93.93,0,0,0,.33.21c.46.22.84.54,1.28.77a3.18,3.18,0,0,0,1.43.32,4.41,4.41,0,0,0,1.95-.32c.33-.12.67-.13,1-.24s.69-.28,1-.43.55-.3.84-.41a6.32,6.32,0,0,0,.86-.32c.32-.16.7-.25,1-.42a4.06,4.06,0,0,1,.84-.4,8,8,0,0,0,1.65-.76c.42-.25,1-.36,1.41-.62s1-.4,1.45-.65,1.12-.54,1.66-.81c.21-.11.35-.29.57-.39a7.26,7.26,0,0,0,.82-.3c.51-.26,1-.45,1.56-.71s.74-.63,1.17-.9a10.26,10.26,0,0,1,1.48-.75,12.24,12.24,0,0,0,1.15-.71c.26-.14.57-.22.84-.35a10.76,10.76,0,0,1,1.27-.49c.52-.18,1-.39,1.48-.6a3.75,3.75,0,0,0,1.13-.9,2.46,2.46,0,0,1,.75-.4c.29-.11.52-.25.79-.38a2.75,2.75,0,0,0,.52-.24,3.46,3.46,0,0,1,.71-.53,7.14,7.14,0,0,0,1.07-.39,12.2,12.2,0,0,0,1.33-1.44c.16-.17.28-.35.44-.52a19.34,19.34,0,0,1,1.85-1.64,9.61,9.61,0,0,0,1.19-1,9.91,9.91,0,0,1,.76-1c.79-.78,1.39-1.72,2.2-2.51.25-.25.59-.43.83-.68s.54-.78.94-1.14a22.12,22.12,0,0,0,1.83-2.19c.71-.81,1.53-1.52,2.34-2.28l0-.08a12.36,12.36,0,0,0,.79-1.7c1.16-.56,2.27-1.24,3.35-1.9,14.16-8.78,28.9-17,41.82-27.11,8.22-6.43,22.56-13.47,28.89-21.08,5.86-7,6.16-10.68,9.58-18.07,1-1.51,36.64-56.17,37.51-57.71M326.58,541.28c-.25.07-.56.45-.74.61l-.27.25A2.08,2.08,0,0,1,326.58,541.28ZM306.8,561.89a8,8,0,0,1,1.92-1.32c.31-.14.65-.26,1-.39Zm5.24-3.1a4.52,4.52,0,0,0,.53-.43l1-1a6.35,6.35,0,0,1,1.19-.91,7.26,7.26,0,0,0,1.13-.82,4.84,4.84,0,0,1,1.72-.73,12.21,12.21,0,0,0,1.6-.59,28.41,28.41,0,0,1,3.32-1.76Zm13.47.21.23-.16c.24-.12.49-.16.71-.29a7.77,7.77,0,0,0,2-1.45c.28-.36.74-.23,1.23-.43s1.18-.4,1.68-.62c1-.46,1.52-.95,2.52-1.4a5.55,5.55,0,0,1,1.32-.63,9.94,9.94,0,0,1,1.18-.33l.71-.18Zm11.68-.09a8.25,8.25,0,0,1,2.15-1Zm3.13-1.59a2.86,2.86,0,0,1,.6-.32Zm2.07-1.14c0-.07.06-.12.12-.12S342.5,556.11,342.39,556.18Z"/><path class="cls-5" d="M538.06,385a117,117,0,0,1-1.85,25,64.85,64.85,0,0,1-3.6,12.31c-.73,1.85-1.3,3.76-1.87,5.66a2.38,2.38,0,0,1,.53.05,3.17,3.17,0,0,1,1.09.64,6.35,6.35,0,0,1,1.61,2.18c.06.11.11.24.17.36.81-2.65,1.52-5.33,2.57-7.89a59.15,59.15,0,0,0,2-5.63,67.59,67.59,0,0,0,1.59-7,127.8,127.8,0,0,0,2-20.53C540.88,388.35,539.47,386.66,538.06,385Z"/><path class="cls-5" d="M524.05,370.44a32.68,32.68,0,0,0-4.16-2.77l-.17-.12c-2.44-.46-4.89-.87-7.36-1.17a113.28,113.28,0,0,0-21.4-.33,20.88,20.88,0,0,1,2.59,4,112.23,112.23,0,0,1,16.81.27,133.2,133.2,0,0,1,17.17,3.12l-1.23-1.17C525.56,371.68,524.82,371,524.05,370.44Z"/><path class="cls-6" d="M325.45,538.17a3.34,3.34,0,0,0-.73-1.22c-.25-.22-.52-.44-.79-.65s-.41-.39-.62-.59-.45-.73-1.06-.73"/><path class="cls-6" d="M323.58,538.83a7.68,7.68,0,0,1-1.69-.72l-.54-.26c-.22-.12-.41-.36-.63-.43"/><path class="cls-6" d="M302.18,559.91a19.1,19.1,0,0,1,1.58-1.3,3.29,3.29,0,0,1,1.11-.29,3.5,3.5,0,0,1,1.51.06,3.3,3.3,0,0,1,1.1.59c.59.69-.12,1.46-.53,2a4.79,4.79,0,0,1-.88.86c-.13.11-.3.17-.44.28a4.37,4.37,0,0,1-1,.65"/><path class="cls-6" d="M302.82,565c.2-.28.8-.72,1-1a2.11,2.11,0,0,1,1.34-.51c.39,0,.81,0,1.2,0a2.5,2.5,0,0,1,.29,0,2.31,2.31,0,0,1,.52.12,2.43,2.43,0,0,1,1.32.68c.25.26.6.65.46,1a5.27,5.27,0,0,1-.65.94c-.17.23-1.31,2-1.51,1.68a5.81,5.81,0,0,0-.95.07"/><path class="cls-6" d="M310.88,566.68a12,12,0,0,1,1.07-.75,3.34,3.34,0,0,1,1.17-.56,3.23,3.23,0,0,1,.77-.2,3.87,3.87,0,0,1,.77.07c.25.06.33.22.51.35a1.86,1.86,0,0,1,.42.37c.12.13.26.19.34.34a1.17,1.17,0,0,1,.09.42,1,1,0,0,1-.39.78,4.9,4.9,0,0,1-1.1.62l-.53.31a5.43,5.43,0,0,1-.92.35c.05-.13-1.11-.28-1-.39"/><path class="cls-6" d="M321.38,555.66a4.82,4.82,0,0,1,1.07.7,2.29,2.29,0,0,1,.85,1"/><path class="cls-6" d="M319.4,556.27a2.77,2.77,0,0,0,.29.6,3.17,3.17,0,0,0,.74,1,3.29,3.29,0,0,0,.9.63,4.67,4.67,0,0,0,.51.23,1.5,1.5,0,0,1,.47.14"/><path class="cls-6" d="M329.41,559.87c.21.2.45.4.65.6a.6.6,0,0,1-.29-.3"/><path class="cls-6" d="M330.16,559c.41.41.85.81,1.22,1.24a1.69,1.69,0,0,1,.37.57"/><path class="cls-6" d="M337.83,560.63a9.25,9.25,0,0,1,1.48.73c.18.11.41.34.63.32"/><path class="cls-6" d="M316.72,550.3c.27.17,1.59,1.22,1.8,1.44.79.69.1.14.18.19"/><path class="cls-6" d="M317.29,549.16a6.55,6.55,0,0,1,3.45,2.77c.12.25.49.34.69.56"/><path class="cls-6" d="M324.07,565c.17-.05,1.24-.65,1.42-.68a2.32,2.32,0,0,1,.79,0,7.29,7.29,0,0,1,1.63.68c.4.2.85.4.86.82a1.24,1.24,0,0,1-.73,1c-.43.23-.84.44-1.29.66-.25.12-1.12.56-1.4.48"/><path class="cls-6" d="M319,540.78c1-1,1.45.53,1.4,1.08-.11,1.25-.32,3.87-2.56,3.7"/><text class="cls-7" transform="translate(61.2 224.35)"><tspan class="cls-8">K</tspan><tspan x="15.29" y="0">nees must </tspan><tspan x="0" y="33.91">be pu</tspan><tspan class="cls-9" x="64.42" y="33.91">l</tspan><tspan class="cls-10" x="71.4" y="33.91">l</tspan><tspan x="78.97" y="33.91">ed in</tspan><tspan class="cls-11" x="135.5" y="33.91">t</tspan><tspan x="145" y="33.91">o </tspan><tspan x="0" y="67.83">the chest</tspan></text><path d="M90.78,323.31A68.38,68.38,0,0,0,105.37,354a80.71,80.71,0,0,0,24.29,19.46A89.76,89.76,0,0,0,145,379.84c1.85.58,2.64-2.31.8-2.89-19-6-36.51-18.64-45.91-36.51a64.71,64.71,0,0,1-6.23-17.93c-.37-1.89-3.26-1.09-2.89.8Z"/><path d="M135.73,367.88c3.18,3.6,6,7.49,8.9,11.32l.53-2.05c-2.34,1-4.63,2.08-6.95,3.11-2.07.91-4.18,1.74-6.25,2.66a1.51,1.51,0,0,0-.54,2.05,1.54,1.54,0,0,0,2.05.54c2.07-.92,4.18-1.75,6.25-2.66,2.33-1,4.62-2.12,7-3.11a1.5,1.5,0,0,0,.54-2.05c-3.06-4-6-8.14-9.37-11.93-1.28-1.45-3.39.67-2.12,2.12Z"/><path class="cls-12" d="M148.79,61.4a36.73,36.73,0,0,1,8.33-23.32,34.4,34.4,0,0,0-45.48-4.38A34.43,34.43,0,0,0,131.9,96a34.33,34.33,0,0,0,25.32-11.11A36.76,36.76,0,0,1,148.79,61.4ZM138,75.49s-3.7-.27-11.47-.27a25.63,25.63,0,0,0-4.93.31l-1.35-2.46c7.78-7.9,12.4-13.63,13-18.71.47-3.66-2-4.82-4.35-4.66a9.73,9.73,0,0,0-6.73,3.92c-.2-.23-1.93-2.07-1.47-2.65A12.43,12.43,0,0,1,130,46.12c5.89,0,9.09,3,8.74,8.51-.46,7-8,13.59-12.63,17.55l8.32-.08c1.77-.15,3-2.54,3.81-4.73,0,0,1.73.5,2,1C139.58,71.53,138.81,75.49,138,75.49Z"/><path class="cls-12" d="M95.79,61.4A36.74,36.74,0,0,1,104.16,38a34.44,34.44,0,1,0,.11,46.9A36.78,36.78,0,0,1,95.79,61.4ZM87.2,75.66H70.92L71,73.39l4.46-.58c.58,0,.81-.23.81-1,.08-10.05,0-19.6,0-19.6l-5.62,1.08c-.19-.31-1.12-2.46-.46-2.73l10.35-4,1,1s-.12,20.87,0,24.37c0,.77.19,1,.73,1l5.08.54Z"/><circle cx="184" cy="61.53" r="34.44"/><text class="cls-13" transform="translate(172.45 75.26)">3</text><path d="M243.45,38.34l-.27,3.12h-5.55V59.34h-3.75V41.46h-5.76V38.34Z"/><path d="M249.6,36.42v9.72a5.86,5.86,0,0,1,5.16-2.67c3.69,0,5.46,2.37,5.46,5.61V59.34H256.5V50.28c0-2.4-.9-3.69-2.94-3.69-2.85,0-4,2.31-4,4.83v7.92h-3.72V36.87Z"/><path d="M277.74,55a7,7,0,0,1-6.78,4.5c-5.28,0-7.62-3.3-7.62-8.22s3.3-7.95,7.83-7.83c3.69.09,7,2.85,6.63,7.86l-.06.48H267.12c0,2.67,1.14,4.5,3.87,4.5a3.5,3.5,0,0,0,3.39-2.49Zm-3.81-5.13c.06-2.43-1.26-3.57-3.09-3.51a3.5,3.5,0,0,0-3.54,3.51Z"/><path d="M284,43.62l.57,2.79A5.8,5.8,0,0,1,290,43.47c3.69,0,5.46,2.37,5.46,5.61V59.34h-3.72V50.28c0-2.4-.9-3.69-2.94-3.69-2.85,0-4,2.31-4,4.83v7.92h-3.72V43.62Z"/><path d="M310.29,39.18v4.59h4l-.51,3h-3.45V54c0,1.71.78,2.37,2,2.37a6.83,6.83,0,0,0,2.37-.69l.69,2.85a9.82,9.82,0,0,1-4,1c-3.69,0-4.83-2.46-4.83-5V46.77h-2.19v-3h2.37l.45-4.17Z"/><path d="M321.48,36.42v9.72a5.86,5.86,0,0,1,5.16-2.67c3.69,0,5.46,2.37,5.46,5.61V59.34h-3.72V50.28c0-2.4-.9-3.69-2.94-3.69-2.85,0-4,2.31-4,4.83v7.92h-3.72V36.87Z"/><path d="M349.62,55a7,7,0,0,1-6.78,4.5c-5.28,0-7.62-3.3-7.62-8.22s3.3-7.95,7.83-7.83c3.69.09,7,2.85,6.63,7.86l-.06.48H339c0,2.67,1.14,4.5,3.87,4.5a3.5,3.5,0,0,0,3.39-2.49Zm-3.81-5.13c.06-2.43-1.26-3.57-3.09-3.51a3.5,3.5,0,0,0-3.54,3.51Z"/><path d="M360.15,43.77V41.64c0-3.12,1.62-5.22,5.16-5.22a6.41,6.41,0,0,1,3.6,1.08v-.72l3.72-.36V54.21c0,1.68.72,2.13,1.83,2.13a2.81,2.81,0,0,0,1.56-.57l.72,2.67a6.6,6.6,0,0,1-3.42,1.08c-3.09,0-4.41-2.1-4.41-5V40.08a6,6,0,0,0-2.7-.69c-1.47,0-2.31.6-2.31,2.85v1.53h3.18l-.48,3h-2.7V59.34h-3.75V46.77h-2.46v-3Z"/><path d="M383.37,43.62V59.34h-3.75V46.71h-2.19V43.62Zm-1.89-6.12a2,2,0,0,1,2.22,1.89,2.22,2.22,0,0,1-4.41,0A1.93,1.93,0,0,1,381.48,37.5Z"/><path d="M401.85,43.62V57c0,5.22-2,8.37-7.8,8.37A16.38,16.38,0,0,1,387.63,64l.87-2.82a13.33,13.33,0,0,0,5.13,1.17c3.39,0,4.5-1.68,4.5-4.26V56.7a5.42,5.42,0,0,1-4.83,2.49c-4.23.09-6.66-3.12-6.66-7.74,0-5.64,3.6-8,6.72-8a5.2,5.2,0,0,1,5,2.85l.39-2.7Zm-11.34,7.8c0,2.67,1.05,4.77,3.84,4.77s3.9-2.1,3.9-4.74c0-3.57-1.89-4.86-3.93-4.86S390.51,48,390.51,51.42Z"/><path d="M409.41,36.42v9.72a5.86,5.86,0,0,1,5.16-2.67c3.69,0,5.46,2.37,5.46,5.61V59.34h-3.72V50.28c0-2.4-.9-3.69-2.94-3.69-2.85,0-4,2.31-4,4.83v7.92h-3.72V36.87Z"/><path d="M428.58,39.18v4.59h4l-.51,3h-3.45V54c0,1.71.78,2.37,2,2.37a6.83,6.83,0,0,0,2.37-.69l.69,2.85a9.82,9.82,0,0,1-4,1c-3.69,0-4.83-2.46-4.83-5V46.77h-2.19v-3H425l.45-4.17Z"/><path d="M445.29,43.62l.54,2.82a5.71,5.71,0,0,1,5.37-3c3,.09,6.18,2.1,6.18,7.89,0,4.74-2.37,8.16-6.66,8.16A4.88,4.88,0,0,1,446.07,57v8.37h-3.75V43.62Zm.51,7.83c0,2.7,1,4.86,4,4.86,2.43,0,3.78-1.83,3.78-4.92,0-3.66-1.83-4.8-3.81-4.8C447.6,46.59,445.8,48.3,445.8,51.45Z"/><path d="M464.37,36.42v9.72a5.86,5.86,0,0,1,5.16-2.67c3.69,0,5.46,2.37,5.46,5.61V59.34h-3.72V50.28c0-2.4-.9-3.69-2.94-3.69-2.85,0-4,2.31-4,4.83v7.92h-3.72V36.87Z"/><path d="M478.41,44.61a18.74,18.74,0,0,1,5.94-1.14c4.74,0,6.48,2.34,6.48,6v6.36a.79.79,0,0,0,.75.9,3,3,0,0,0,1.23-.18V59a6.08,6.08,0,0,1-2.49.48,2.84,2.84,0,0,1-2.85-2.13,6.87,6.87,0,0,1-4.74,2.13c-3.06,0-5.34-1.56-5.37-4.83s2.46-5,6.39-5a24.49,24.49,0,0,1,3.39.3v-.93c0-1.71-1.08-2.64-3.24-2.61a12.68,12.68,0,0,0-4.86,1Zm8.7,7.35a16.62,16.62,0,0,0-3.06-.18c-1.8.09-2.94.93-3,2.52a2.21,2.21,0,0,0,2.55,2.31,6.17,6.17,0,0,0,3.48-1.26Z"/><path d="M495.81,54.84a8.15,8.15,0,0,0,5.1,1.74c1.8,0,2.85-.54,2.85-1.83,0-3.06-9.09-1-8.79-6.78.12-2.82,2.19-4.5,6.36-4.5A12.78,12.78,0,0,1,507,44.94l-1.32,2.64a8.9,8.9,0,0,0-4.5-1.29c-1.47,0-2.7.48-2.64,1.71.18,2.49,8.91.57,8.91,6.63,0,3.24-2.91,4.92-6.63,4.89a10.76,10.76,0,0,1-6.45-2Z"/><path d="M524.28,55a7,7,0,0,1-6.78,4.5c-5.28,0-7.62-3.3-7.62-8.22s3.3-7.95,7.83-7.83c3.69.09,7,2.85,6.63,7.86l-.06.48H513.66c0,2.67,1.14,4.5,3.87,4.5a3.5,3.5,0,0,0,3.39-2.49Zm-3.81-5.13c.06-2.43-1.26-3.57-3.09-3.51a3.5,3.5,0,0,0-3.54,3.51Z"/><path d="M238,67.38l-.26,1.1a7.49,7.49,0,0,0-1.65-.2c-2.41,0-3.57.87-3.57,4.06V74.2h4.38l-.29,1.19h-4.09V89.25h-1.39V75.39h-3.05V74.2h3.05v-2c0-3.69,1.82-5.08,4.81-5.08A9.18,9.18,0,0,1,238,67.38Z"/><path d="M245.79,89.43c-4.58,0-6.58-3.48-6.58-7.75,0-5.19,3-7.77,6.7-7.77,3.39,0,6.46,2.58,6.46,7.77C252.37,86,250,89.43,245.79,89.43Zm0-1.19c3.48,0,5.19-3.17,5.19-6.56,0-4.67-2.46-6.58-5.07-6.58-2.82,0-5.28,1.8-5.28,6.58C240.63,85.05,241.93,88.24,245.79,88.24Z"/><path d="M258.84,80.38v8.87h-1.39V74.05h1.13l.26,3.08c.64-1.95,2.35-3.22,5.07-3.22a8.65,8.65,0,0,1,1.63.14l-.2,1.28a4.73,4.73,0,0,0-1.51-.2C260.38,75.13,258.84,77.65,258.84,80.38Z"/><path d="M287.32,85.45l1.1.67a7,7,0,0,1-6,3.31c-4.79,0-6.82-3.28-6.82-8,0-4.91,3-7.57,6.84-7.57,3.51,0,6.36,2.55,6,7.28l-.06.49H277c0,4,1.65,6.56,5.48,6.56A5.68,5.68,0,0,0,287.32,85.45Zm-10.24-5h10c0-3.86-2-5.39-4.65-5.39C279.69,75.1,277.34,76.75,277.08,80.49Z"/><path d="M303.18,89.25l-4.58-6.7-4.7,6.7h-1.6l5.51-7.71-5-7.49h1.62l4.21,6.44L303,74.05h1.59l-5.16,7.43,5.34,7.77Z"/><path d="M313.65,89.43c-3.08,0-5.4-1.48-5.4-4.76s2.82-4.76,6.15-4.76a19.84,19.84,0,0,1,4.76.64V79c0-2.52-1.57-3.85-4.64-3.85a11.33,11.33,0,0,0-5,1.16l-.32-1.19a13.82,13.82,0,0,1,5.31-1.16c4.52,0,6,2.32,6,5.25v8.21c0,.43.09.81.64.87a5.49,5.49,0,0,0,1.48-.18v1.08a4.75,4.75,0,0,1-1.62.29,2,2,0,0,1-1.89-2.15A9,9,0,0,1,313.65,89.43Zm0-1.22a9.43,9.43,0,0,0,5.51-2.12V81.62a26.39,26.39,0,0,0-5-.58c-2.9,0-4.52,1.16-4.52,3.66C309.65,86.9,311.1,88.21,313.65,88.21Z"/><path d="M327.83,74.05l.23,3a5.11,5.11,0,0,1,4.67-3.19c2.7-.09,4.09,1.19,4.7,3a5.46,5.46,0,0,1,5-3c3.83-.12,5.05,2.43,5.05,5.42v9.92h-1.4v-10c0-2.72-1.24-4.14-3.74-4.14-3.48,0-4.58,2.43-4.58,5v9.14h-1.39v-10c0-2.72-1.25-4.14-3.75-4.14-3.65,0-4.58,2.69-4.58,5.42v8.73h-1.39V74.05Z"/><path d="M354.33,74.05l.27,3.08a6.22,6.22,0,0,1,5.62-3.22c3.4,0,6.62,2.17,6.62,7.63,0,4.58-2.27,7.89-6.85,7.89a5.62,5.62,0,0,1-5.39-3.22v8.84h-1.43v-21Zm5.78,14.19c3.65,0,5.33-2.93,5.33-6.67,0-4.91-2.58-6.47-5.39-6.47-3.11,0-5.57,2.52-5.57,6.55C354.48,85,355.67,88.24,360.11,88.24Z"/><path d="M373.33,85.42c0,2.15.9,2.76,2.32,2.76a4.81,4.81,0,0,0,2.44-.87l.63,1.1a5.69,5.69,0,0,1-3.07,1c-2.9,0-3.71-1.74-3.71-4V67.35l1.39-.26Z"/><path d="M391.89,85.45l1.1.67a6.94,6.94,0,0,1-6,3.31c-4.79,0-6.82-3.28-6.82-8,0-4.91,3-7.57,6.85-7.57,3.51,0,6.35,2.55,6,7.28l-.06.49h-11.4c0,4,1.66,6.56,5.49,6.56A5.68,5.68,0,0,0,391.89,85.45Zm-10.24-5h10c0-3.86-2-5.39-4.64-5.39C384.26,75.1,381.91,76.75,381.65,80.49Z"/><path d="M397.66,89.4c0-.58-.75-.53-.75-.53a1.12,1.12,0,0,1,0-2.23c1.45,0,2,1.34,1.82,2.73a3.29,3.29,0,0,1-3.45,2.81v-.9A2.13,2.13,0,0,0,397.66,89.4Z"/><path d="M414.6,89.43c-3.08,0-5.4-1.48-5.4-4.76s2.81-4.76,6.15-4.76a19.84,19.84,0,0,1,4.76.64V79c0-2.52-1.57-3.85-4.64-3.85a11.27,11.27,0,0,0-5,1.16l-.32-1.19a13.76,13.76,0,0,1,5.31-1.16c4.52,0,6,2.32,6,5.25v8.21c0,.43.09.81.64.87a5.49,5.49,0,0,0,1.48-.18v1.08a4.81,4.81,0,0,1-1.63.29,2,2,0,0,1-1.88-2.15A9,9,0,0,1,414.6,89.43Zm0-1.22a9.43,9.43,0,0,0,5.51-2.12V81.62a26.5,26.5,0,0,0-5-.58c-2.9,0-4.53,1.16-4.53,3.66C410.59,86.9,412,88.21,414.6,88.21Z"/><path d="M435.59,75.39h-2.52V74.2h2.58l.2-4.24,1.13-.2V74.2h4.44l-.32,1.19H437v10c0,2.15.9,2.76,2.32,2.76a7.06,7.06,0,0,0,2.93-1.07l.64,1.1a7.77,7.77,0,0,1-3.57,1.22c-2.9,0-3.71-1.74-3.71-4Z"/><path d="M448.79,89.25h-1.43v-14h-2.49V74.05h3.92Zm-1.86-20a1.12,1.12,0,0,1,1.1-1.1,1.12,1.12,0,1,1,0,2.23A1.12,1.12,0,0,1,446.93,69.21Z"/><path d="M466.86,87.6c0,5-2.18,7.45-7,7.45a15.16,15.16,0,0,1-5.6-1l.43-1.22a15.14,15.14,0,0,0,5.28,1c4.15,0,5.51-2.69,5.51-5.85V86.21a6.32,6.32,0,0,1-5.57,3.22c-4.49.14-6.73-3.4-6.73-7.69,0-5.22,3-7.83,6.65-7.83a5.83,5.83,0,0,1,5.65,3.19l.24-3h1.16Zm-6.79.64c3.77,0,5.42-3.17,5.42-6.59,0-4.64-2.67-6.55-5.54-6.55-3,0-5.39,1.77-5.39,6.55C454.56,85.05,455.63,88.24,460.07,88.24Z"/><path d="M484.75,79.33v9.92h-1.39v-10c0-2.72-1.51-4.14-4-4.14-3.65,0-5.31,2.69-5.31,5.42v8.73h-1.39V67.35l1.39-.26V77.24a5.83,5.83,0,0,1,5.4-3.33C483.27,73.79,484.75,76.34,484.75,79.33Z"/><path d="M491.1,75.39h-2.53V74.2h2.58l.21-4.24,1.13-.2V74.2h4.44l-.32,1.19h-4.12v10c0,2.15.9,2.76,2.32,2.76a7.06,7.06,0,0,0,2.93-1.07l.64,1.1a7.82,7.82,0,0,1-3.57,1.22c-2.9,0-3.71-1.74-3.71-4Z"/><path d="M510.15,75.39h-2.53V74.2h2.59l.2-4.24,1.13-.2V74.2H516l-.32,1.19h-4.12v10c0,2.15.9,2.76,2.32,2.76a7.06,7.06,0,0,0,2.93-1.07l.64,1.1a7.82,7.82,0,0,1-3.57,1.22c-2.9,0-3.71-1.74-3.71-4Z"/><path d="M531.87,89.25l-.23-3.6A6,6,0,0,1,526,89.4c-3.83.11-5.34-2.44-5.34-5.43V74.05h1.4v10c0,2.73,1.53,4.15,4,4.15,3.65,0,5.51-3.37,5.51-6V74.05H533v15.2Z"/><path d="M550.84,86A6.35,6.35,0,0,1,545,89.43c-4.64,0-6.82-3.72-6.82-7.78,0-5,3.14-7.74,7-7.74a6,6,0,0,1,5.63,3.45l-1.25.55A4.64,4.64,0,0,0,545,75.1c-3,0-5.51,2.11-5.51,6.47,0,3.48,1.53,6.61,5.45,6.61a4.68,4.68,0,0,0,4.61-2.82Z"/><path d="M560.93,81.65l5.51,7.6h-1.77l-4.93-6.9h-2.87v6.9h-1.42V67.35l1.42-.26V81.16h2.81l4.67-7.11h1.8Z"/><path d="M578.5,74.05l.26,3.08a6.22,6.22,0,0,1,5.63-3.22c3.39,0,6.61,2.17,6.61,7.63,0,4.58-2.26,7.89-6.84,7.89a5.63,5.63,0,0,1-5.4-3.22v8.84h-1.42v-21Zm5.77,14.19c3.66,0,5.34-2.93,5.34-6.67,0-4.91-2.58-6.47-5.4-6.47-3.1,0-5.56,2.52-5.56,6.55C578.65,85,579.83,88.24,584.27,88.24Z"/><path d="M601.93,89.43c-4.58,0-6.58-3.48-6.58-7.75,0-5.19,3-7.77,6.7-7.77,3.39,0,6.47,2.58,6.47,7.77C608.52,86,606.17,89.43,601.93,89.43Zm0-1.19c3.48,0,5.2-3.17,5.2-6.56,0-4.67-2.47-6.58-5.08-6.58-2.81,0-5.28,1.8-5.28,6.58C596.77,85.05,598.08,88.24,601.93,88.24Z"/><path d="M623.45,75.3l-.58,1.16a8.51,8.51,0,0,0-4.61-1.36c-2.09,0-4.06.61-4,2.75.08,3.8,9.71,1.57,9.71,7.14,0,3-2.55,4.49-5.94,4.44a8.21,8.21,0,0,1-5.6-2l.78-1A6.65,6.65,0,0,0,618,88.24c2.75,0,4.55-1,4.55-3.22,0-4.56-9.6-2.06-9.66-7.08,0-2.55,1.89-4,5.43-4A11.23,11.23,0,0,1,623.45,75.3Z"/><path d="M630.93,89.25h-1.42v-14H627V74.05h3.91Zm-1.85-20a1.12,1.12,0,0,1,1.1-1.1,1.12,1.12,0,1,1,0,2.23A1.12,1.12,0,0,1,629.08,69.21Z"/><path d="M637.57,75.39h-2.52V74.2h2.58l.2-4.24,1.13-.2V74.2h4.44l-.32,1.19H639v10c0,2.15.9,2.76,2.33,2.76a7.05,7.05,0,0,0,2.92-1.07l.64,1.1a7.76,7.76,0,0,1-3.56,1.22c-2.91,0-3.72-1.74-3.72-4Z"/><path d="M650.77,89.25h-1.42v-14h-2.5V74.05h3.92Zm-1.86-20a1.12,1.12,0,0,1,1.1-1.1,1.12,1.12,0,1,1,0,2.23A1.12,1.12,0,0,1,648.91,69.21Z"/><path d="M662.46,89.43c-4.59,0-6.59-3.48-6.59-7.75,0-5.19,3-7.77,6.7-7.77,3.39,0,6.47,2.58,6.47,7.77C669,86,666.69,89.43,662.46,89.43Zm0-1.19c3.48,0,5.19-3.17,5.19-6.56,0-4.67-2.47-6.58-5.08-6.58-2.81,0-5.28,1.8-5.28,6.58C657.29,85.05,658.6,88.24,662.46,88.24Z"/><path d="M675.27,74.05l.23,3a5.7,5.7,0,0,1,5.4-3.19c3.83-.12,5.31,2.43,5.31,5.42v9.92h-1.4v-10c0-2.72-1.5-4.14-4-4.14-3.65,0-5.31,2.69-5.31,5.42v8.73h-1.39V74.05Z"/></svg>