<svg id="Layer_1" data-name="Layer 1" xmlns="http://www.w3.org/2000/svg" viewBox="0 0 780 1051.14"><defs><style>.cls-1,.cls-4{fill:#d4a47c;}.cls-1,.cls-2,.cls-3,.cls-4,.cls-5{stroke:#fff;stroke-miterlimit:10;}.cls-1{stroke-width:0.33px;}.cls-2{fill:#fff171;stroke-width:0.3px;}.cls-3{fill:#005058;stroke-width:0.52px;}.cls-4{stroke-width:0.28px;}.cls-5{fill:#c6946f;stroke-width:0.27px;}.cls-6,.cls-7{fill:#fff;}.cls-6{opacity:0.7;}.cls-7{font-size:38.5px;font-family:ABCSerifBold, ABCSerif;}.cls-8{font-size:30px;font-family:ABCSansBold, ABCSans;}.cls-9{letter-spacing:-0.02em;}.cls-10{letter-spacing:0em;}.cls-11{letter-spacing:-0.01em;}.cls-12{letter-spacing:-0.01em;}.cls-13{letter-spacing:0.03em;}</style></defs><path class="cls-1" d="M560.69,490.71c-2.67-3.34-4.28-7.34-6.91-10.72a57.25,57.25,0,0,0-9.18-9.23c-9.51-7.72-19.3-15.22-30-21.21-13.07-7.31-27.05-6.26-41.22-8.75-2.38-.42-4.89.2-7.28-.16a15,15,0,0,0-11.58,2.63c-.4.29-1.2.65-1.42,1.09s-.17.69-.4,1.1a7.24,7.24,0,0,0-1.1,3.19c-.16,1.91-.93,4.06.07,5.91.61,1.13,3,1.32,4,2.07L466,457.85c1.12.28,3.62.58,4.72.94,3.07,1,6.1,1.94,9.25,2.7a69.91,69.91,0,0,1,7.32,1.83c.81.29,1.59.6,2.39.82,13,11.19,26.45,21.9,39.55,33a39.43,39.43,0,0,0,6.74,4.92c4.81,2.56,10.87,1.91,16,.41a11.56,11.56,0,0,0,4.28-2.59c1.06-.86,2.34-1.42,3.38-2.32C561.71,495.72,562.47,492.93,560.69,490.71Z"/><path class="cls-2" d="M507.58,536.06a6.19,6.19,0,0,1-.51,1.25,3.35,3.35,0,0,1-1.56,1.46,41.09,41.09,0,0,0,11.71,9.87,46.63,46.63,0,0,0,8.22,3.84l3-1.46,1.51-.85.1-.07.08,0c.42-.24.85-.49,1.27-.75a15.76,15.76,0,0,1-5.65-1.26,43.62,43.62,0,0,1-6.68-3.21A36.16,36.16,0,0,1,507.89,535,9.91,9.91,0,0,1,507.58,536.06Z"/><path class="cls-1" d="M554,561.57a172.38,172.38,0,0,0,24.72-24.42c5.82-6.94,8.15-21.69,13.32-29.12,1.8-2.59,13.38-13,15.15-13.34-.61.12-1.2.27-1.68.4-2.41.65-3.8.85-5.93,2.27-8.34,5.55-16.2-9.58-24.1-3.43a5.78,5.78,0,0,1-3.06,1.52c-1.79.1,1,1.5,0,0-1.27-1.92-1.09.37-1.27-1.92-.28-3.81-1.81,7.91-3.18,4.6a9.64,9.64,0,0,1-1.35-.42l-.14,0a8.86,8.86,0,0,1-3.25-.17c-10.13,9.61-24,16.62-38.29,13.55a12.6,12.6,0,0,1-7.91-5c-14.52,4.73-33.81,22.41-43.28,32.56-13.34,14.3-46.27,45.23-43.12,65.64,29.41-9.49,82.07-16.78,109.26-33A128.42,128.42,0,0,0,554,561.57Z"/><path class="cls-3" d="M489.66,565.59c2.27-1,4.54-1.86,6.79-2.93,1.94-.92,4.36-2.31,6.45-2.77,4.65-1,9.17-2.77,13.92-3.45,3.89-.55,5-1.5,5-5.52a65.72,65.72,0,0,1,4.48-22c.6-1.6,1.42-3.12,1.92-4.75a15.38,15.38,0,0,1-1.25-1.49,40.4,40.4,0,0,0-16.06-13.17c-2.9-1.28-2.85-3.78.19-4.64,9.12-2.57-4.05-.38-5.57-1-1.31-.58,9.12-10.22,0-5,3.91-2.24-6.05,2-9,0-3.7,1.41-18.51,6.78-22,8.44-7.33,3.45-20.09,11.24-28.36,10.34-3.94-.42-7.43.72-11.36.2-7.15-.94-12.43,1.62-19.57,2.09-4.76.31-12.31.76-15.17,5.47,1,1.9,3.05,3.11,4.78,4.31a53.5,53.5,0,0,1,6.3,4.94c2.64,2.45,5.73,4.08,8.21,6.77a30.52,30.52,0,0,1,5.05,7.13c1.28,2.62,1.09,5.54,1.65,8.38a44.3,44.3,0,0,1,.44,9.06c0,5.21-1.72,10.31-3.23,15.24-1.45,4.76-5,9-8.37,12.53a26.65,26.65,0,0,1-3.24,2.47c-1.07.81-2.19,1.5-3.3,2.29a30,30,0,0,1-6.61,3.58c-5.22,2.06-10.94,3-16.55,3.85-2.42.35-4.75.74-7.14,1.26-1.8.4-3.25.68-4.49,2,7.59,4.9,21.15,3.39,29.75,2.1,14-2.09,27.56-6.89,40.94-11.35,7.37-2.45,9.47-7,14.34-12.4,1-1.12,2.16-2,3.13-3.16s1.53-2.62,2.5-3.75a21.63,21.63,0,0,1,5-4.21c2.79-1.64,5.56-3.52,8.4-5,1.23-.65,2.52-.87,3.74-1.54a17.15,17.15,0,0,1,1.93-1.18C485.42,567.68,487.5,566.57,489.66,565.59Z"/><path class="cls-4" d="M596.4,494.63c1.27,0-4,9.06-3.1,10.22s-.57,2.25-1.25,3.18c-.56.77-.69,1.7-1.19,2.51a7.47,7.47,0,0,0-1.11,1.74,6.43,6.43,0,0,0,.31,4.73c1,1.58,3,1.94,4.1,3.33a5.86,5.86,0,0,1,.85,2.09,2.74,2.74,0,0,1,1.58-.72c4-.52,7.59,1.6,11.45,2.4a20.84,20.84,0,0,0,.87-3.48,29.75,29.75,0,0,1,1.53-5.44c.58-1.59.65-3.14,2-4.1,1.06-.74,2.44-.77,3.49-1.51a21.62,21.62,0,0,1,2-1.65,32.63,32.63,0,0,1,3.83-1.55c2.84-1.14,5.63-2.57,8.43-3.85a25.44,25.44,0,0,0,8.11-5.56,20.37,20.37,0,0,0,4.7-8.79,44.92,44.92,0,0,0,1.53-7.62,76.65,76.65,0,0,0,0-11.34c-.31-4.24-2.18-8.88-4.17-12.58-1.48-2.75-2.47-5.61-4.28-8.23a26.39,26.39,0,0,0-7-6.44c-2.24-1.55-3.7-3.58-5.41-5.58-.86-1-2.11-1.59-3-2.61a30.9,30.9,0,0,0-3.49-3.47c-2.52-1.95-5.21-1.72-8.17-1.62-2,.07-3.76.79-5.75.82a15.2,15.2,0,0,0-2.84.41c-1.05.23-2.07.15-3.12.38-.51.12-.88.42-1.41.55s-.91-.11-1.42.12a20.81,20.81,0,0,0-2.57,2.09,27.39,27.39,0,0,1-3.18,2.21,2.66,2.66,0,0,0-.36.21c0-.06-.17-.13-.53-.18a12.64,12.64,0,0,1-2.8-.94c-2.37-.88-2.41-1.37-5.21-2.11a28.18,28.18,0,0,0-5.34-.93,3.58,3.58,0,0,0-3.84,4,1.89,1.89,0,0,1-.27,1.29,5,5,0,0,1-2.58,2.57,20.74,20.74,0,0,0-3.08.72,19.41,19.41,0,0,0-4.83,3.25c-1.17,1.09-1.37,2.09-2.95,2.21-1.14.08-2.3.11-3.43.15-2.15.07-4.1.76-4.71,3A15.66,15.66,0,0,0,550.32,459c15.45,25,2.14,20.35,4.53,30.39,1.64,6.87-27.74,19.26-30.85,25.64"/><path d="M599.44,441.82a10.27,10.27,0,0,1-.18,1.11c0,.22-.13.66-.35.78s-.08.06-.14,0,0-.24,0-.32a3.38,3.38,0,0,0-.08-.34c-.13-.44-.31-.86-.45-1.3-.08-.26-.19-.49-.25-.76-.36-1.6-.21-3.4-.75-4.95a7.51,7.51,0,0,0-3.1-3.42c.41-.35,1.7-1.54,2.23-1.26.75.4,1.45,2.53,2,3.2a6.77,6.77,0,0,1,1.49,4.49C599.8,440,599.53,440.88,599.44,441.82Z"/><path d="M613.62,522.31c.91-2.45,1.44-5.24,2.62-7.55,3.78-7.35,13.56-8.81,20.11-13.84,5.4-4.14,8.49-10.76,9.51-17.48s.15-13.59-1.16-20.26c-1.22-6.18-2.86-12.39-6.15-17.76-2.21-3.62-10.22-13.16-15.38-10.92s-5.64,12.59-10.87,15.87c-2.65,1.66-6,2.08-8.35,4.18a26.83,26.83,0,0,0-2.89,3.72c-1.73,2.27-4,4.07-5.59,6.45s-2.25,5.73-.52,8a11.69,11.69,0,0,1,6-.7c2,.44,1.62,1.71,1.56,3.75-.07,2.8-1.14,4.77-3.94,4.93s-5.84-.33-8.22,1.14c-2.58,1.59-3.45,4.86-4.11,7.81-1.12,5.08.4,14.29-.73,19.37,2.7,1.56,1.63,1.54,4.24,3.27,2,1.3,4.08-2.68,4.17-.32a19.26,19.26,0,0,0,4.91,12.1c2.8,3.1,7.52,5.26,11.14,3.18A8.72,8.72,0,0,0,613.62,522.31Z"/><path d="M622.28,434.23l.66.71c.06,0,.1-.1.16-.14A2.75,2.75,0,0,0,622.28,434.23Z"/><path class="cls-4" d="M593.16,470c3.28-4.44,10.53.61,10.83,4.77a6.85,6.85,0,0,1-6,7.06c-3.53.31-6.8-2.21-10.35-2.13-1.87.05-3.83.81-5.55.07s-1.75-4.11.11-3.88"/><path d="M609.16,509.74a7.62,7.62,0,0,0,3.13,1.68,12.34,12.34,0,0,1,3.53,2.2,6.41,6.41,0,0,1,2.48,4,7,7,0,0,1-.77,4.13,6.74,6.74,0,0,1-2.44,2.9c-1.24.54-3.43.19-4.76.28a7,7,0,0,1-4.44-1.77,6.25,6.25,0,0,1-2.78-4,20.6,20.6,0,0,1,2.25-10.85c.77-1.66,3.08-2.64,4.8-3.08s4.66-.64,6.33.08c3.21,1.39,3.41,5.72,2.85,8.63-.33,1.75-.84,3.47-2.55,4.35a10.3,10.3,0,0,1-4.53.85A19.21,19.21,0,0,1,607,519a7,7,0,0,1-2.64-.81,22.08,22.08,0,0,0-2.59-1.69,8.53,8.53,0,0,1-2.71-2.18,3.38,3.38,0,0,1-.86-2.5,10.77,10.77,0,0,1,.3-3.15c.16-.65.56-1.23.76-1.86.36-1.1.41-1.11,1.7-1.24"/><path d="M613.76,512.26c1.34-.68,2.61-.22,3.88.34a6.37,6.37,0,0,0,1.35.5,2,2,0,0,1,1.54,1.31c.82,1.73.33,4,0,5.74a6.42,6.42,0,0,1-.6,2.21c-.34.63-.91,1.1-1.24,1.71-.2.36-.21.75-.51,1.08s-.72.5-1,.86-.37.62-.84.88a7.8,7.8,0,0,1-1.2.5,5.1,5.1,0,0,1-2.29.57,14.3,14.3,0,0,1-2.42-.44,6.59,6.59,0,0,1-1-.45c-.41-.19-.88-.22-1.29-.41a6.51,6.51,0,0,1-2.45-2.72c-1.25-2-1.22-4.69-1.22-7a12.11,12.11,0,0,1,1.16-5.13c.46-.88,1-1.67,1.55-2.5a10.35,10.35,0,0,1,1.61-2.21,8.94,8.94,0,0,1,2.52-1.63,19.76,19.76,0,0,1,3-1.2,6.43,6.43,0,0,1,3.14.14,8.39,8.39,0,0,0,1.56.6,5.59,5.59,0,0,1,1.71.34,6.93,6.93,0,0,1,4.14,4.23,22.18,22.18,0,0,1,1,4.4c.07,1,.07,1.93.13,2.9a6.21,6.21,0,0,1-.63,3,4.26,4.26,0,0,1-1,1.54c-.41.4-.75,1-1.26,1.21-1.54.71-3.14.28-4.68.68a6.29,6.29,0,0,1-.9.28c-.49.06-1,0-1.51.07a11.14,11.14,0,0,1-2.45,0,7,7,0,0,1-2.6-.93,3.75,3.75,0,0,1-1.79-2.54,10.17,10.17,0,0,1-.7-3.8,13.63,13.63,0,0,1,1.32-5,10.48,10.48,0,0,1,3.06-4.22,11.41,11.41,0,0,1,2.25-1.55,12.11,12.11,0,0,1,2.41-.48c1.73-.27,3.41.71,4.9,1.41.29.14,1.06.35,1.26.63s.06.72.07,1"/><path d="M595.22,506.86c1.34-.68,2.61-.22,3.87.34a6.81,6.81,0,0,0,1.35.5A2,2,0,0,1,602,509c.81,1.73.32,4,0,5.74a6.42,6.42,0,0,1-.6,2.21c-.34.63-.91,1.1-1.24,1.71-.2.36-.21.75-.5,1.08s-.73.5-1,.87-.37.61-.83.87a7.91,7.91,0,0,1-1.21.5,5.1,5.1,0,0,1-2.29.57,14.3,14.3,0,0,1-2.42-.44,5.37,5.37,0,0,1-1-.45c-.42-.19-.88-.22-1.3-.41a6.49,6.49,0,0,1-2.44-2.72c-1.26-2-1.22-4.69-1.23-7a12,12,0,0,1,1.17-5.13c.46-.88,1-1.67,1.55-2.5a10.3,10.3,0,0,1,1.6-2.21,9,9,0,0,1,2.53-1.63,19.24,19.24,0,0,1,3-1.2,6.42,6.42,0,0,1,3.14.14,8.22,8.22,0,0,0,1.57.6,5.71,5.71,0,0,1,1.71.34,6.92,6.92,0,0,1,4.13,4.23,22.18,22.18,0,0,1,1,4.4c.07,1,.08,1.93.13,2.9a6.09,6.09,0,0,1-.62,3,4.42,4.42,0,0,1-1,1.54c-.41.4-.74,1-1.26,1.21-1.54.71-3.13.28-4.68.68a5.13,5.13,0,0,1-.89.28c-.5.06-1,0-1.52.07a11.05,11.05,0,0,1-2.44,0,7.21,7.21,0,0,1-2.61-.92,3.79,3.79,0,0,1-1.79-2.55,10.37,10.37,0,0,1-.7-3.8,13.63,13.63,0,0,1,1.32-5,10.41,10.41,0,0,1,3.07-4.22,11.34,11.34,0,0,1,2.24-1.55,12.06,12.06,0,0,1,2.42-.48c1.73-.27,3.4.71,4.89,1.41.29.14,1.07.35,1.26.63s.06.72.08,1"/><path class="cls-1" d="M534.68,535a37.22,37.22,0,0,1-6.59-1.92c-8.69-2.78-24.87-16.81-31.61-22.45-15-12.57-22.08-24.3-39.32-33.46-8.31-4.41-10.3-16.69-12.07-25.32l.1-1.62a19,19,0,0,1,3.49-3.22,13.59,13.59,0,0,1,6.77-2.1c2.32-.18,5.1,1.18,7.4,1.6A36,36,0,0,1,473.33,450c3.87,2,7.12,4.76,11.07,6.72,9.67,4.82,19.57,9.59,28.6,15.67,7.35,5,13.94,11.12,21.17,16.08a34.39,34.39,0,0,1,3.39,2.06c.76.67,1.37,1.43,2.16,2.07,1.6,1.29,4,2.2,5.44,3.63,3.16,3.23,2.69,8.08,2.69,12.22"/><path class="cls-5" d="M423,534c-14.77-21.57-34.78-10-50.56-18-23.37-11.8-33.92-17-59.69-23-13.29-3.11-26.94-3.93-40.56-4.58-5.46-.26-11.27-1-17.09-1.39a7.91,7.91,0,0,1-1.9-1.21c-3.84-3.34-9.14-4.07-13.84-5.65h-.48a21.43,21.43,0,0,1-5.56-1.45l-36-12.92c-8.6-3.08-17.42-6.55-26.26-8.28-14.07-2.76-27.15-8.75-40.25-15.09.22-.08.42-.15.54-.21C107.74,430,106.51,430,95.92,425.76c-11.79-4.75-20.73-6.7-33.28-8a154.49,154.49,0,0,0-19.35-1.15c-5.27.14-12-1.94-17.06-.45-4,1.2-6.93,5.82-.94,6.52,1.53.18,3.13.07,4.54.67,3.68,1.57,4.11,6.82,7.21,9.34a12.46,12.46,0,0,0,4.49,2c5.3,1.55,10.89,2.65,16.12,4.33,2.86.92,4.79,2.79,7.4,4.06,5,2.48,8,8.18,11.34,12.51a52.14,52.14,0,0,0,5.27,5.75A6.74,6.74,0,0,0,87,463.59a8.3,8.3,0,0,0,6.12-2.34,32.6,32.6,0,0,1,4.07-3.72c2.12-1.5,4.24-3.13,6.44-4.59,7.72,4.26,22.08,14.28,26.84,17.75,10.85,7.92,21.24,16.17,31.46,24.78,4,3,8,5.9,12,8.7A164.1,164.1,0,0,0,206.14,521c6.28,3.4,24.37,13.13,27.78,14.71,22.32,10.41,34.75,26.54,56.71,37.77q22.59,11.55,45.78,21.9c13.26,5.91,27.08,13.73,41.82,14.52,14.07.75,27.94-3.3,38.13-11.13,6.43-5,11.47-11.5,13.31-19.06C432.23,569.24,429.6,543.63,423,534Z"/><path class="cls-2" d="M568.14,539.55a71.22,71.22,0,0,0-3.34-18,66.67,66.67,0,0,0-7.6-15.74,74.29,74.29,0,0,0-4.63-6.22,10.63,10.63,0,0,0-3.24-2.84,2.09,2.09,0,0,1-.64.2c-.47.51-.94,1-1.37,1.57-.06.07-.15.12-.22.19s0,.17.07.26c.08.36.12.72.17,1.08,0,.09,0,.17,0,.26,1.18.32,2.56,2.64,3.24,3.51a62.06,62.06,0,0,1,10.73,20.69A68.48,68.48,0,0,1,564,540.06c.27,4.46.57,9.19-1.06,13.43,0,.09,0,.16-.06.24.89-.87,1.92-1.4,2.72-2.35a19.43,19.43,0,0,1,2.8-2.79A73.41,73.41,0,0,0,568.14,539.55Z"/><path class="cls-2" d="M541.71,570.05a2.31,2.31,0,0,0,.85-.38,8.15,8.15,0,0,0,.92-.61c.65-.46,1.24-1,2-1.52l.46-.32c-.25-.09-.5-.16-.75-.26a96.49,96.49,0,0,1-10.26-4.08c-3.11-1.55-6.15-3.2-9.12-5a37.22,37.22,0,0,1-4-3c-.23-.18-.45-.39-.67-.59a4.19,4.19,0,0,1-1.93,1.65,12.32,12.32,0,0,1-1.92.71c-.19.06-.39.1-.58.14a2.23,2.23,0,0,0,.63.23,20.41,20.41,0,0,1,2.65,2.18,37.93,37.93,0,0,0,4,2.87c3,1.79,6.06,3.46,9.21,5a83.1,83.1,0,0,0,7.95,3.22A2.37,2.37,0,0,1,541.71,570.05Z"/><path d="M127.67,678.73a68.37,68.37,0,0,0,25.22,22.81,81.79,81.79,0,0,0,30,8.72,88.41,88.41,0,0,0,16.43.06c1.91-.17,1.93-3.17,0-3-19.82,1.76-40.89-3.08-56.41-16a65,65,0,0,1-12.69-14.16c-1.06-1.6-3.66-.1-2.59,1.52Z"/><path d="M186.2,702.73c4.44,2.16,8.64,4.75,12.89,7.23l-.3-2.35c-1.75,1.78-3.41,3.63-5.13,5.43s-3.26,3.28-4.85,5c-1.33,1.41.79,3.53,2.12,2.12,1.59-1.68,3.25-3.28,4.85-5s3.38-3.66,5.13-5.44a1.52,1.52,0,0,0-.3-2.36c-4.26-2.48-8.46-5.07-12.89-7.23-1.73-.85-3.25,1.74-1.52,2.59Z"/><path d="M53.76,583.75c3.48,0,5.48,1.31,5.48,4.27a4,4,0,0,1-2.34,3.87A4,4,0,0,1,59.71,596c0,3-1.9,5-5.87,5H47V583.75Zm-3.69,7h3.52c1.58,0,2.57-.76,2.57-2.31s-.87-2.08-2.45-2.08H50.07Zm0,7.67h3.79c1.68,0,2.72-.79,2.76-2.46s-1.18-2.54-3-2.54H50.07Z"/><path d="M67.87,588c3.23,0,6,2.19,6,6.6,0,3.63-2.14,6.59-6.16,6.59-4.37,0-6.17-3-6.17-6.59C61.58,590.16,64.37,588,67.87,588Zm-3.08,6.6c0,2,.69,4,3,4,2.09,0,3-2,3-4,0-2.86-1.4-4-3-4S64.79,591.66,64.79,594.57Z"/><path d="M88.71,582.17V601H86.15l-.35-2.22a4.52,4.52,0,0,1-4.12,2.37c-3.47.05-5.54-2.84-5.54-6.63,0-4.64,3-6.56,5.52-6.56a4.09,4.09,0,0,1,4,2.44v-7.84ZM79.29,594.5c0,2.2.87,3.92,3.16,3.92s3.25-1.72,3.25-3.89c0-2.94-1.58-4-3.28-4S79.29,591.66,79.29,594.5Z"/><path d="M94,588.09l3.18,9.12h.2l2.91-9.12h3.16L98.7,601.21c-1.58,4.31-3.06,5.4-7.62,4.44l.54-2.59c2.92.71,3.31.05,4.22-2.49L91,588.09Z"/><path d="M111.18,597.31a6.73,6.73,0,0,0,4.2,1.43c1.48,0,2.34-.44,2.34-1.5,0-2.52-7.47-.84-7.23-5.58.1-2.31,1.8-3.69,5.23-3.69a10.55,10.55,0,0,1,4.66,1.2l-1.08,2.17a7.41,7.41,0,0,0-3.7-1.06c-1.21,0-2.22.4-2.17,1.41.15,2,7.32.47,7.32,5.45,0,2.66-2.39,4-5.45,4a8.86,8.86,0,0,1-5.3-1.68Z"/><path d="M126.3,582.17v8a4.82,4.82,0,0,1,4.24-2.19c3,0,4.49,1.94,4.49,4.61V601H132v-7.45c0-2-.74-3-2.41-3-2.35,0-3.26,1.9-3.26,4V601h-3.06V582.54Z"/><path d="M143.91,588c3.23,0,6,2.19,6,6.6,0,3.63-2.14,6.59-6.16,6.59-4.37,0-6.17-3-6.17-6.59C137.62,590.16,140.41,588,143.91,588Zm-3.08,6.6c0,2,.69,4,3,4,2.09,0,3-2,3-4,0-2.86-1.41-4-3-4S140.83,591.66,140.83,594.57Z"/><path d="M155.55,588.09v7.45c0,2,.79,3,2.59,3,2.35,0,3.31-2.42,3.31-4.86v-5.62h3.05V601h-2.44l-.44-2.81a4.71,4.71,0,0,1-4.46,3c-3.16,0-4.66-1.95-4.66-5.2v-7.87Z"/><path d="M170.72,582.17v14.62c0,1.38.62,1.75,1.53,1.75a2.43,2.43,0,0,0,1.28-.46l.57,2.19a5.35,5.35,0,0,1-2.79.89c-2.56,0-3.65-1.73-3.65-4.07V582.54Z"/><path d="M187.17,582.17V601h-2.56l-.35-2.22a4.52,4.52,0,0,1-4.12,2.37c-3.47.05-5.55-2.84-5.55-6.63,0-4.64,3-6.56,5.53-6.56a4.1,4.1,0,0,1,4,2.44v-7.84Zm-9.42,12.33c0,2.2.86,3.92,3.16,3.92s3.25-1.72,3.25-3.89c0-2.94-1.58-4-3.28-4S177.75,591.66,177.75,594.5Z"/><path d="M49.87,616.08v8.22a4.4,4.4,0,0,1,4.31-2.42c2.44.07,5.06,1.73,5.06,6.48,0,3.9-2,6.71-5.45,6.71a4.28,4.28,0,0,1-4.07-2.37l-.42,2.22H46.81V616.48Zm-.12,12.36c0,2.22.81,4,3.25,4,2,0,3.11-1.5,3.11-4,0-3-1.51-3.95-3.14-3.95S49.75,625.85,49.75,628.44Z"/><path d="M73.27,631.37a5.76,5.76,0,0,1-5.57,3.7c-4.34,0-6.26-2.71-6.26-6.75s2.71-6.54,6.43-6.44c3,.07,5.75,2.34,5.45,6.46l0,.4H64.54c0,2.19.94,3.69,3.18,3.69a2.87,2.87,0,0,0,2.79-2Zm-3.13-4.21c0-2-1-2.94-2.54-2.89a2.88,2.88,0,0,0-2.91,2.89Z"/><path d="M87.26,631.3c-.84,2.64-3,3.77-5.63,3.77-4.24,0-6.06-3.15-6.06-6.61,0-4.21,2.61-6.51,6.14-6.58,3.11-.07,5,1.53,5.5,3.8l-2.84.91a2.54,2.54,0,0,0-2.61-2.12c-1.78,0-3.13,1.31-3.13,3.94,0,2.1.79,4,3.08,4a2.6,2.6,0,0,0,2.71-2Z"/><path d="M95.55,621.88c3.23,0,6,2.19,6,6.61,0,3.62-2.15,6.58-6.17,6.58-4.36,0-6.16-3-6.16-6.58C89.26,624.07,92,621.88,95.55,621.88Zm-3.09,6.61c0,2,.69,4,3,4,2.1,0,3-2,3-4,0-2.86-1.4-4-3-4C93.84,624.47,92.46,625.58,92.46,628.49Z"/><path d="M106.74,622l.45,2.3a4.3,4.3,0,0,1,4-2.44,3.77,3.77,0,0,1,3.85,2.39,4.52,4.52,0,0,1,4.17-2.39c3,0,4.21,2,4.21,4.63v8.43h-3v-7.44c0-2-.47-3-2.15-3-2.22,0-2.81,1.68-2.81,3.58v6.9h-3.06v-7.44c0-2-.47-3-2.14-3-2.37,0-2.84,1.9-2.84,4v6.51H104.3V622Z"/><path d="M137.87,631.37a5.77,5.77,0,0,1-5.58,3.7c-4.33,0-6.26-2.71-6.26-6.75s2.71-6.54,6.44-6.44c3,.07,5.74,2.34,5.45,6.46l0,.4h-8.73c0,2.19.94,3.69,3.18,3.69a2.89,2.89,0,0,0,2.79-2Zm-3.13-4.21c0-2-1-2.94-2.54-2.89a2.87,2.87,0,0,0-2.91,2.89Z"/><path d="M147.81,622l3.11,9.37h.19L154.2,622h3.13l-4.81,12.92h-3.08L144.75,622Z"/><path d="M170.15,631.37a5.76,5.76,0,0,1-5.57,3.7c-4.34,0-6.26-2.71-6.26-6.75s2.71-6.54,6.43-6.44c3,.07,5.75,2.34,5.45,6.46l0,.4h-8.73c0,2.19.94,3.69,3.19,3.69a2.87,2.87,0,0,0,2.78-2ZM167,627.16c0-2-1-2.94-2.54-2.89a2.88,2.88,0,0,0-2.91,2.89Z"/><path d="M175.31,622l.57,2.67c.59-2,2.09-2.84,4.19-2.79a4.85,4.85,0,0,1,1.33.22l-.47,2.69a5.48,5.48,0,0,0-1.85-.25c-2.27.08-3.13,1.83-3.13,3.9v6.48h-3.06V622Z"/><path d="M187.89,618.35v3.78h3.25l-.42,2.46h-2.83v5.92c0,1.41.64,2,1.67,2a5.43,5.43,0,0,0,1.95-.57l.57,2.34a7.94,7.94,0,0,1-3.28.84c-3,0-4-2-4-4.14v-6.34H183v-2.46H185l.37-3.43Z"/><path d="M198.05,622v12.92H195V624.54h-1.8V622Zm-1.55-5a1.66,1.66,0,0,1,1.82,1.56,1.82,1.82,0,0,1-3.62,0A1.59,1.59,0,0,1,196.5,617Z"/><path d="M212.45,631.3c-.84,2.64-3,3.77-5.62,3.77-4.24,0-6.07-3.15-6.07-6.61,0-4.21,2.62-6.51,6.14-6.58,3.11-.07,5,1.53,5.5,3.8l-2.83.91a2.55,2.55,0,0,0-2.62-2.12c-1.77,0-3.13,1.31-3.13,3.94,0,2.1.79,4,3.08,4a2.61,2.61,0,0,0,2.72-2Z"/><path d="M215.12,622.82a15.36,15.36,0,0,1,4.88-.94c3.9,0,5.33,1.92,5.33,4.93V632a.65.65,0,0,0,.61.74,2.41,2.41,0,0,0,1-.15v2a5,5,0,0,1-2,.39,2.34,2.34,0,0,1-2.35-1.75,5.62,5.62,0,0,1-3.89,1.75c-2.52,0-4.39-1.28-4.42-4s2-4.09,5.26-4.09a19.84,19.84,0,0,1,2.78.25v-.77c0-1.4-.88-2.17-2.66-2.14a10.5,10.5,0,0,0-4,.78Zm7.15,6a13.07,13.07,0,0,0-2.52-.15c-1.48.07-2.41.76-2.44,2.07a1.81,1.81,0,0,0,2.1,1.9,5.09,5.09,0,0,0,2.86-1Z"/><path d="M232.14,616.08v14.63c0,1.38.61,1.75,1.52,1.75A2.46,2.46,0,0,0,235,632l.56,2.19a5.22,5.22,0,0,1-2.78.89c-2.57,0-3.65-1.72-3.65-4.07V616.45Z"/><path class="cls-6" d="M148.79,61.4a36.73,36.73,0,0,1,8.33-23.32,34.4,34.4,0,0,0-45.48-4.38A34.43,34.43,0,0,0,131.9,96a34.33,34.33,0,0,0,25.32-11.11A36.76,36.76,0,0,1,148.79,61.4ZM138,75.49s-3.7-.27-11.47-.27a25.63,25.63,0,0,0-4.93.31l-1.35-2.46c7.78-7.9,12.4-13.63,13-18.71.47-3.66-2-4.82-4.35-4.66a9.73,9.73,0,0,0-6.73,3.92c-.2-.23-1.93-2.07-1.47-2.65A12.43,12.43,0,0,1,130,46.12c5.89,0,9.09,3,8.74,8.51-.46,7-8,13.59-12.63,17.55l8.32-.08c1.77-.15,3-2.54,3.81-4.73,0,0,1.73.5,2,1C139.58,71.53,138.81,75.49,138,75.49Z"/><path class="cls-6" d="M95.79,61.4A36.74,36.74,0,0,1,104.16,38a34.44,34.44,0,1,0,.11,46.9A36.78,36.78,0,0,1,95.79,61.4ZM87.2,75.66H70.92L71,73.39l4.46-.58c.58,0,.81-.23.81-1,.08-10.05,0-19.6,0-19.6l-5.62,1.08c-.19-.31-1.12-2.46-.46-2.73l10.35-4,1,1s-.12,20.87,0,24.37c0,.77.19,1,.73,1l5.08.54Z"/><path class="cls-6" d="M201.79,61.4A36.74,36.74,0,0,1,210.16,38a34.43,34.43,0,0,0-47.76-2.48A34.8,34.8,0,0,0,172,93.43a34.41,34.41,0,0,0,38.24-8.51A36.78,36.78,0,0,1,201.79,61.4ZM181.35,75.49a15.64,15.64,0,0,1-7.86-2.19l1-2.89a21.48,21.48,0,0,0,7,1.66c3.35,0,5.51-1.74,5.55-5.24,0-2.46-1.43-4.35-4.47-4.74a17.82,17.82,0,0,0-5,.24c-.5.11-.89-3-.42-3.08,3-.54,7.62-1.08,8.39-4.89.73-3.62-2-4.82-4.35-4.66A8.43,8.43,0,0,0,175,52.82c-.2-.23-1.7-2.12-1-3a10.43,10.43,0,0,1,8.16-3.69c5.89,0,9.12,3,8.74,8.51a6,6,0,0,1-4,4.5c3.47.62,5.47,2.93,5.66,6.7C192.9,71.83,188,75.49,181.35,75.49Z"/><circle cx="236" cy="61.53" r="34.44"/><text class="cls-7" transform="translate(224.45 75.26)">4</text><text class="cls-8" transform="translate(280.41 71.34)">The n<tspan class="cls-9" x="76.17" y="0">e</tspan><tspan class="cls-10" x="92.55" y="0">xt e</tspan><tspan class="cls-11" x="145.35" y="0">l</tspan><tspan x="154.56" y="0">ement is the en</tspan><tspan class="cls-12" x="371.64" y="0">t</tspan><tspan class="cls-13" x="383.73" y="0">r</tspan><tspan x="397.32" y="0">y</tspan></text></svg>