<svg id="Layer_1" data-name="Layer 1" xmlns="http://www.w3.org/2000/svg" viewBox="0 0 780 1051.14"><defs><style>.cls-1,.cls-2,.cls-7,.cls-9{fill:#d4a47c;}.cls-1,.cls-2,.cls-3,.cls-5,.cls-6,.cls-7,.cls-8,.cls-9{stroke:#fff;stroke-miterlimit:10;}.cls-1{stroke-width:0.28px;}.cls-2,.cls-3,.cls-6,.cls-8{stroke-width:0.42px;}.cls-10,.cls-3{fill:#b58362;}.cls-4{fill:#221913;}.cls-5{fill:#fff171;stroke-width:0.3px;}.cls-6{fill:#005058;}.cls-7{stroke-width:0.43px;}.cls-8{fill:#c6946f;}.cls-9{stroke-width:0.33px;}.cls-11,.cls-12{fill:#fff;}.cls-11{opacity:0.7;}.cls-12{font-size:38.5px;font-family:ABCSerifBold, ABCSerif;}.cls-13{font-size:30px;font-family:ABCSansBold, ABCSans;}.cls-14{letter-spacing:-0.02em;}.cls-15{letter-spacing:0em;}.cls-16{letter-spacing:-0.01em;}.cls-17{letter-spacing:-0.01em;}.cls-18{letter-spacing:0.03em;}</style></defs><path class="cls-1" d="M644.81,602.1c0-1-.07-1.92-.14-2.88l-.27-1.87a33.93,33.93,0,0,1-1.6-4.26,14.84,14.84,0,0,0-1-2.7c-.44-1-.56-2-1-3-.22-.48-.58-.78-.83-1.27s-.07-.91-.41-1.36A21.27,21.27,0,0,0,637,582.7a28.27,28.27,0,0,1-2.81-2.65,2.53,2.53,0,0,0-.28-.31c.05-.06.08-.2.07-.56a12.6,12.6,0,0,1,.33-2.93c.38-2.51.85-2.64,1-5.54a28.39,28.39,0,0,0-.19-5.41,3.58,3.58,0,0,0-4.69-2.94,1.86,1.86,0,0,1-1.32,0,4.93,4.93,0,0,1-3.05-2,12.5,12.5,0,0,0-5.51-6.93c-1.31-.92-2.32-.92-2.77-2.44-.31-1.09-.58-2.22-.85-3.32-.51-2.09-1.59-3.86-3.92-4a15.76,15.76,0,0,0-10,3.6c-5.46,2.23-8,8.73-13.52,12.76l-2.16,1.57c-2.6-3.45-8-4.4-12.17-5.94-12.49-4.57-23.5-10-32.9-19.21a.3.3,0,0,0-.49.33c1.48,3.38,1.2,7.51,2.57,10.92,2.16,5.38-10.36-.93-6,2.78,3.86,3.28,24.44,17.61,28.51,20.53-2.52,1-4.26,1.81-4.21,2.13,1.62,10,6.57,12.06,9.85,21.72.66,2-.9,6.09.2,7.87s10.62,8.75,11.62,10.47,14.36-2.88,16-1.64a54.7,54.7,0,0,0,5,3.37c4.55,2.68,10.14,3.13,15.21,3.45s10.71,1,15.34-1.55c2.32-1.26,2.93-3.32,3.75-5.75.49.27,1,.56,1.48.83l.43.19a6.23,6.23,0,0,1,.64-1.12,30,30,0,0,0,2.67-4.13,3.47,3.47,0,0,0,.2-.5C644.92,605,644.83,603.53,644.81,602.1Z"/><path d="M630,591.83a10.55,10.55,0,0,1-1.13.06c-.22,0-.67,0-.83-.19s-.08-.07,0-.14.24-.06.31-.09l.31-.14c.41-.22.79-.49,1.19-.71a7.76,7.76,0,0,1,.69-.4c1.5-.68,3.28-.9,4.68-1.76a7.5,7.5,0,0,0,2.72-3.73c.43.32,1.85,1.34,1.69,1.92-.24.81-2.17,1.94-2.72,2.63a6.82,6.82,0,0,1-4.09,2.38C631.85,591.8,630.9,591.73,630,591.83Z"/><path class="cls-2" d="M577.72,575.72c-13.12-6.77-29.34-17.43-34-18.78-3-.87-7,1-9.77,1.72a16.39,16.39,0,0,0-2.57.83,18.42,18.42,0,0,0-3.58,2.32,202.91,202.91,0,0,1-22.7,14.44c-4.55,2.59-13.24,7-13.42,13.13a8.87,8.87,0,0,0,.19,1.74c-4.07-1-8.16-1.86-12.29-2.47-5.1-.75-10.26.81-15.5.38-4.85-.39-9.79.58-14.72.28a25.8,25.8,0,0,0-7.64.5c-1.6.43-3.52.82-5.07,1.35-.71.24-1.26.81-1.93,1-4.35,1.44-31.61-2.91-38.33-1.31.45.83-12.67,13.38-7.21,14.94a21.59,21.59,0,0,0,2.79.43c14.51,2,29.18,3.28,43.75,4.87,7.49.81,15.08,1.42,22.54,2.4,12.9,1.69,25.16,5.07,38.35,5.11,3.67,0,7.33-.11,11-.3,13.2,2.93,22.07-2.74,34.25.54,8.81,2.38,19.22-5.63,28.83-6.45.68-1.3,1.39-2.58,2.19-3.81a92.09,92.09,0,0,0,4.73-8.29,119,119,0,0,0,3.65-13v-.23C580.19,583.3,578.91,579.54,577.72,575.72Z"/><path class="cls-2" d="M395.42,591.25a4.08,4.08,0,0,1,1-.36C396.36,590.78,396.06,590.87,395.42,591.25Z"/><path class="cls-3" d="M95.72,469.61a22.5,22.5,0,0,1,20.39,1.06c13,7.29,23.3,16.76,34.27,26.39l7.66,6.71c1.83,1.6,3.65,4.16,5.89,5.23,6.13,2.92,14.34,8.12,20.45,11.09,5.77,2.81,23.39,9.55,29.47,11.62,2.75.94,5.55,1.95,8.36,2.68.78.2,4.43.63,9,1.14,11.66,1.32,21.56-7,21.42-17.95l-.08-6.56c-.08-7-4.92-13.4-12-15.81-4.51-1.52-9-3-13.56-4.51-7.3-2.44-26.41-9.12-33.78-11.33-2.65-.79-5.29-1.61-7.89-2.54-1.88-.66-3.62-1.61-5.47-2.33-11.29-4.43-22.19-9.75-33-15.13-10.34-5.14-20.33-10.07-29.58-17A153.67,153.67,0,0,0,97.37,430c-6.66-3.54-13.67-5.09-20.61-7.93-2.69-1.11-5.27-2.49-8-3.58-4.62-1.88-12-4.83-17-4.76-1.53,0-3.17-.24-4.68-.07a33.73,33.73,0,0,0-4.57,1.2c-1.45.37-3.07.74-3.72,2.19a6.92,6.92,0,0,0-.28,3.41c.16,1.6,1.24,2.26,2.65,3.25,2.63,1.83,5.34,3.52,8.1,5.16a21.85,21.85,0,0,1,1.9,1.37c5.18,4,10.63,7.46,15.52,11.87a22.51,22.51,0,0,1,3.49,3.69,22.64,22.64,0,0,1,2.61,5.76c1.68,4.93,2.8,10.31,5.09,15A12.11,12.11,0,0,0,81.16,471c1.49,1.26,3.44,1.13,5.25.94A31.75,31.75,0,0,0,95.72,469.61Z"/><path class="cls-4" d="M642,604.55c-7.35,4.44-13.23,2.71-21.79,3.31-13.87,1-26.91,3.18-40.32.77a15.53,15.53,0,0,0-4.3-.38c-4,.41-7.38,4.15-8,8.06s1,7.79,3.5,10.73c4.82,5.62,13.21,9.56,20.63,11.12,1.87.4,3.73,1,5.61,1.28a22.9,22.9,0,0,0,6-.27c3.64-.37,7.27-.64,10.79-1.9a44.46,44.46,0,0,0,8.35-4.07c2.55-1.56,5.32-2.39,7.84-4s5.22-3,7.36-5.25c1.63-1.71,3.32-3.25,4.86-5.1a22,22,0,0,0,2.29-4.2c1-1.87,1-3.15.9-5.2-.1-2.45.15-8.13-3.65-5"/><path class="cls-4" d="M552.36,594.53c-2,1.2-5.09,2.26-6.59,4-1.66,1.89-1.37,11.57-1.44,14.23-.12,4.35,3,8.84,7.38,10.75,4.69,2.07,12.59,1.77,17-.19,2.52-1.12,10.37-5.73,6.92-9.65-3.62-.55-4.52,5.37-4.68,8.22-.15,2.62,2.81,7.42,5.19,8.63,3.33,1.71,5.87-.07,8.46-1.65,2.33-1.42,5.25-2.55,6.86-4.83,1.46-2.06,3.36-5.86,3.31-8.55,0-1.74-2.78-8.55-4.53-9.75-1.49-1-1.82-.18-3.08.49a5.87,5.87,0,0,1-3.57,1c-1.06,0-2.43.42-3.28-.23a6.54,6.54,0,0,0-.81-3.18,3.78,3.78,0,0,0-2.44-2"/><path class="cls-5" d="M548.81,556.53a8.53,8.53,0,0,1,0,1.24c-.11.56-.08.46-1.14,1.1a6.85,6.85,0,0,1-2.25.78c5.64,2.61,11.25,5.28,16.9,7.89s11,5.39,16.87,7.27c3.69,1.19,5.37,1.68,9.1,2.74-.06,0,.29-.55.23-.59a30.19,30.19,0,0,1-6.09-3.44,59.3,59.3,0,0,0-6.82-3.63C573.33,568.74,548.88,556.37,548.81,556.53Z"/><path class="cls-5" d="M491.49,591.22a6.58,6.58,0,0,1-1,.91c-.59.43-3.19.5-3.92.48,1.24,5,5.3,14.83,8.3,19.06a46.9,46.9,0,0,0,5.81,7l3.33,0,1.73-.13.12,0a.22.22,0,0,1,.08,0l1.47-.14c-1.76-.77-3.36-4.12-4.67-5.43-1.73-1.76-3.18-6.8-4.6-8.82a36.13,36.13,0,0,1-5.94-13.63A9,9,0,0,1,491.49,591.22Z"/><path class="cls-6" d="M552,543.55c-2.36-3.24-16.72-14.76-20.19-16.46-13.11-6.41-28.28-9.81-42-3.1a21.22,21.22,0,0,1-5.89,2.37c-3.12.47-6.7-1.09-9.76-1.65q-6.12-1.12-12.32-1.69c-11.27-1-22.48.21-33.74-.5q-21.66-1.37-43.36-1.67c-13.8-.18-29.06,0-41.21,7.39l-1.2,2.33c1.3.31,2.74.1,4.07.32,1.57.26,3.1-.15,4.68.08a142,142,0,0,1,23.11,5.28c7.5,2.46,15.89,5.28,21.21,11.3a17.55,17.55,0,0,1,1.76,2.69c2,3.37,4.57,5.79,5.93,9.66,3.86,11,.06,23.13-7.73,31.35a65.51,65.51,0,0,1-11.48,9.31c-2.48,1.64-27.26,3.55-30,5.15,1.6,0,5.65,4.08,7.26,4.08,6.05,3.2,22.94-1.29,26.46-2,30.3-5.93,58.35-19.28,90.13-16.63,3.2.27,9.51,2.43,12.44.94,3.22-1.65,3.11-6.56,5.94-8.65q5.43-4,11.14-7.66a142.74,142.74,0,0,1,24-12.27q4.85-1.89,9.83-3.38c2.16-.64,6-.48,7.45-2.2C548.21,549.12,550.92,546.09,552,543.55Z"/><path class="cls-7" d="M522.69,617c2.16,2.1,24.6,2.75,27.57,2.32,1.54-.22,8-1.29,15.6-2.86.93-.43,1.85-.87,2.77-1.33,6.86-3.44,13.9-7.83,18.33-14.27,4-5.82,6.31-12.65,9.28-19,2.24-21.8,4.65-44,3.89-65.4-.34-9.57-6.9-35-9.3-44.26h0c-7.16-20.86-31.2-36.39-41.34-42l-3.39-3.1-.93-.85a1.75,1.75,0,0,1-.33-.39,4.63,4.63,0,0,0-.65-.6l-.45-.32a1.11,1.11,0,0,0-.39-.16,3.43,3.43,0,0,0-.42-.08c-.23,0-.37.2-.5.36-.35.4-.13.75.06,1.11a3.85,3.85,0,0,1-.72-.88,10.8,10.8,0,0,0-1.77-1.74,4.54,4.54,0,0,0-1.85-1.1,1.13,1.13,0,0,0-1,.28,1,1,0,0,0-.34.89c0,.43,0,.82.3,1.09s.58.32,1,.73a.69.69,0,0,0-.37.14c-.23.18-.23.57-.29.84a1,1,0,0,1-.19.48.88.88,0,0,0-.1.76,8.45,8.45,0,0,0,1.33,2.21c.51.72.87,1.55,1.4,2.26.2.25.4.51.58.77s.29.32.43.5c.35.49.77.9,1.15,1.36a14.79,14.79,0,0,0,1.22,1.39c.26.25.49.51.74.76-.08,1-.54,1.13-.36,2.11.05.27.85,1.44,1,1.68a4,4,0,0,0,.34.56,45.22,45.22,0,0,0,6.09,6.51,103.83,103.83,0,0,1,7.07,8.05,52,52,0,0,0,8,7.43,12.69,12.69,0,0,0,3.76,1.9c3.27,1.2.11,13.88,1.95,16.66h0c0,3.79-.06,9.59-.35,15.8-1.16,24.9-5.11,48.78-13.93,72.18"/><path class="cls-8" d="M406.06,546c-10.88-20.54-24-18.41-40.69-24.78-21.9-8.35-34.71-7-57.4-14.5-19.87-6.58-41.24-10.57-62.26-9.12a18.24,18.24,0,0,0-7.89-4.67c-4.57-1.33-9.16-2.61-13.75-3.92-7.39-2.11-26.78-7.94-34.24-9.82-2.68-.68-5.35-1.38-8-2.19-1.91-.58-3.69-1.45-5.58-2.09-11.47-3.92-22.59-8.76-33.66-13.66-10.56-4.68-20.75-9.16-30.3-15.63A152.11,152.11,0,0,0,92,434.16c-6.81-3.24-13.88-4.48-20.93-7-2.75-1-5.38-2.24-8.12-3.22-4.7-1.67-12.21-4.29-17.19-4-1.53.09-3.18-.1-4.68.13a33.22,33.22,0,0,0-4.51,1.41c-1.43.43-3,.87-3.62,2.35a6.83,6.83,0,0,0-.13,3.42c.23,1.59,1.34,2.2,2.8,3.12,2.7,1.72,5.49,3.29,8.32,4.81a19.85,19.85,0,0,1,2,1.28c5.35,3.75,11,7,16,11.17a23.1,23.1,0,0,1,3.65,3.54,22.36,22.36,0,0,1,2.86,5.64c1.9,4.85,3.25,10.17,5.75,14.79a12.14,12.14,0,0,0,3.44,4.22c1.55,1.19,3.49,1,5.28.7a31.68,31.68,0,0,0,9.21-2.73,22.46,22.46,0,0,1,20.41.16c13.27,6.7,24,15.71,35.4,24.85a149.26,149.26,0,0,0,35,21.51c5.89,2.55,23.79,8.51,30,10.31,2.79.81,5.63,1.7,8.47,2.3.51.1,2.25.26,4.64.44l.22.14c19.05,11.16,36.39,25.12,55,37q19.17,12.21,39,23.4c11.35,6.4,23,14.54,36.28,16.46,12.69,1.85,25.78-.64,36-6.82,6.43-3.9,11.77-9.35,14.34-16C410.3,578.39,410.93,555.22,406.06,546Z"/><path class="cls-9" d="M552.07,438.26c-.19.2-.36.42-.56.6a.46.46,0,0,1-.29.13,1.34,1.34,0,0,1-.38-.1"/><path class="cls-9" d="M550.84,438.21c.11-.13.23-.25.35-.38s.2-.16.29-.26"/><path class="cls-9" d="M550.39,438l.35-.37c.06-.07.12-.13.17-.2s.14-.1.21-.16"/><path class="cls-9" d="M549.55,437.83a1.09,1.09,0,0,0,.21-.27,3.39,3.39,0,0,0,.15-.45,2,2,0,0,1,.2-.31,2.17,2.17,0,0,1,.24-.29"/><path class="cls-9" d="M551.32,435.4c.12-.13.16-.3.28-.43l.14-.15c0-.06.18-.11.22-.18"/><path class="cls-9" d="M552.65,435.16c-.1.12-.22.18-.32.29s-.2.21-.29.32"/><path class="cls-9" d="M552.88,435.49l-.38.41"/><path class="cls-9" d="M553.62,436.4l-.48.53a1.38,1.38,0,0,1-.52.37"/><path class="cls-9" d="M542.44,426.09l5,4.51,1.21,1.11.61.56c.22.2.48.35.7.54.61.52,1.26,1,1.85,1.5l.71.65a15.7,15.7,0,0,1,1.18,1.27c.3.31.57.62.89.92l.86.78,3.48,3.18a13.85,13.85,0,0,0,1.69,1.24,13.83,13.83,0,0,1,1.71,1.1"/><path class="cls-9" d="M541.51,428.16a1.9,1.9,0,0,1-1.14.54,1.86,1.86,0,0,1-1.27-.36,4.14,4.14,0,0,1-1.4-1.88,1.59,1.59,0,0,1,.1-1,.25.25,0,0,1,.38-.05,175.29,175.29,0,0,1,13.46,12.25c.72.66,1.28,1.51,2,2.2a1.5,1.5,0,0,1,.26.38c.14.13,2.88,2.73,3,2.88"/><path class="cls-9" d="M544.07,437.16c.06-.08.21-.11.31-.14a.75.75,0,0,1,.42,0,3.13,3.13,0,0,1,1.21.86c.7.65,1.4,1.3,2.12,1.94.19.18.34.39.53.58l.44.39.74.69c.66.6,1.31,1.22,2,1.81s1.2.83,1.76,1.28c.22.18.41.4.63.58a6.43,6.43,0,0,0,.83.52c.27.16.56.31.81.49s.4.41.63.57.31.15.44.24.15.15.22.21.28.18.41.29.11.15.22.14a.62.62,0,0,0-.18-.18,0,0,0,0,0,0-.06"/><path class="cls-9" d="M551.93,443.38c0,.16-.52,1.39-.67,1.26"/><path class="cls-9" d="M551.46,443.45a7.31,7.31,0,0,0-.43.65"/><path class="cls-9" d="M551,442.83c-.17,0-.32.44-.38.55l-.22.41c0,.07-.12.17-.11.26"/><path class="cls-9" d="M541.32,424.78c-.11.1-.42.46-.56.47s-.31.06-.46.07a1.68,1.68,0,0,1-.92-.15,8.58,8.58,0,0,1-1.06-.85,1.56,1.56,0,0,1-.28-.23s-.09-.11-.14-.17a4.89,4.89,0,0,1-.61-.92c-.09-.25.06-.31.11-.58s.4-.5,1.39.1Z"/><path class="cls-9" d="M545.41,426.36c-.1.1-.41.46-.53.49s-.26.1-.4.13a1.08,1.08,0,0,1-.73,0c-.3-.12-.5-.42-.76-.6a.87.87,0,0,1-.21-.17l-.09-.13a3,3,0,0,1-.38-.73c0-.21.1-.29.18-.53s.39-.5,1.13-.11Z"/><path class="cls-9" d="M547,438.81c-.11.1-.42.46-.53.49s-.27.1-.4.13a1.24,1.24,0,0,1-.74,0c-.3-.13-.49-.42-.76-.61a.78.78,0,0,1-.2-.16,1,1,0,0,1-.09-.13,3,3,0,0,1-.38-.73c0-.21.09-.29.17-.54s.4-.49,1.14-.1Z"/><path class="cls-10" d="M575.62,546v1c0,.32-.17.67.39.92a14.8,14.8,0,0,0,5.62.76,18.14,18.14,0,0,0,2.27-.24c.74-.09,1.44-.16,2.15-.29a20.35,20.35,0,0,0,2.1-.46c.36-.1,1-.2,1.05-.37s0-.66,0-.94-.28-.52-.64-.79a4.86,4.86,0,0,0-1.48.37c-.56.13-1.08.34-1.67.44s-1.12.14-1.63.17c-.28,0-.6,0-.87,0s-.45.07-.7.08a11,11,0,0,1-1.52,0c-.23,0-.41-.1-.61-.14s-.48-.09-.76-.13a13.61,13.61,0,0,1-1.63-.36,10.3,10.3,0,0,0-1.67-.34"/><path d="M127.67,678.73a68.37,68.37,0,0,0,25.22,22.81,81.79,81.79,0,0,0,30,8.72,88.41,88.41,0,0,0,16.43.06c1.91-.17,1.93-3.17,0-3-19.82,1.76-40.89-3.08-56.41-16a65,65,0,0,1-12.69-14.16c-1.06-1.6-3.66-.1-2.59,1.52Z"/><path d="M186.2,702.73c4.44,2.16,8.64,4.75,12.89,7.23l-.3-2.35c-1.75,1.78-3.41,3.63-5.13,5.43s-3.26,3.28-4.85,5c-1.33,1.41.79,3.53,2.12,2.12,1.59-1.68,3.25-3.28,4.85-5s3.38-3.66,5.13-5.44a1.52,1.52,0,0,0-.3-2.36c-4.26-2.48-8.46-5.07-12.89-7.23-1.73-.85-3.25,1.74-1.52,2.59Z"/><path d="M53.76,583.75c3.48,0,5.48,1.31,5.48,4.27a4,4,0,0,1-2.34,3.87A4,4,0,0,1,59.71,596c0,3-1.9,5-5.87,5H47V583.75Zm-3.69,7h3.52c1.58,0,2.57-.76,2.57-2.31s-.87-2.08-2.45-2.08H50.07Zm0,7.67h3.79c1.68,0,2.72-.79,2.76-2.46s-1.18-2.54-3-2.54H50.07Z"/><path d="M67.87,588c3.23,0,6,2.19,6,6.6,0,3.63-2.14,6.59-6.16,6.59-4.37,0-6.17-3-6.17-6.59C61.58,590.16,64.37,588,67.87,588Zm-3.08,6.6c0,2,.69,4,3,4,2.09,0,3-2,3-4,0-2.86-1.4-4-3-4S64.79,591.66,64.79,594.57Z"/><path d="M88.71,582.17V601H86.15l-.35-2.22a4.52,4.52,0,0,1-4.12,2.37c-3.47.05-5.54-2.84-5.54-6.63,0-4.64,3-6.56,5.52-6.56a4.09,4.09,0,0,1,4,2.44v-7.84ZM79.29,594.5c0,2.2.87,3.92,3.16,3.92s3.25-1.72,3.25-3.89c0-2.94-1.58-4-3.28-4S79.29,591.66,79.29,594.5Z"/><path d="M94,588.09l3.18,9.12h.2l2.91-9.12h3.16L98.7,601.21c-1.58,4.31-3.06,5.4-7.62,4.44l.54-2.59c2.92.71,3.31.05,4.22-2.49L91,588.09Z"/><path d="M111.18,597.31a6.73,6.73,0,0,0,4.2,1.43c1.48,0,2.34-.44,2.34-1.5,0-2.52-7.47-.84-7.23-5.58.1-2.31,1.8-3.69,5.23-3.69a10.55,10.55,0,0,1,4.66,1.2l-1.08,2.17a7.41,7.41,0,0,0-3.7-1.06c-1.21,0-2.22.4-2.17,1.41.15,2,7.32.47,7.32,5.45,0,2.66-2.39,4-5.45,4a8.86,8.86,0,0,1-5.3-1.68Z"/><path d="M126.3,582.17v8a4.82,4.82,0,0,1,4.24-2.19c3,0,4.49,1.94,4.49,4.61V601H132v-7.45c0-2-.74-3-2.41-3-2.35,0-3.26,1.9-3.26,4V601h-3.06V582.54Z"/><path d="M143.91,588c3.23,0,6,2.19,6,6.6,0,3.63-2.14,6.59-6.16,6.59-4.37,0-6.17-3-6.17-6.59C137.62,590.16,140.41,588,143.91,588Zm-3.08,6.6c0,2,.69,4,3,4,2.09,0,3-2,3-4,0-2.86-1.41-4-3-4S140.83,591.66,140.83,594.57Z"/><path d="M155.55,588.09v7.45c0,2,.79,3,2.59,3,2.35,0,3.31-2.42,3.31-4.86v-5.62h3.05V601h-2.44l-.44-2.81a4.71,4.71,0,0,1-4.46,3c-3.16,0-4.66-1.95-4.66-5.2v-7.87Z"/><path d="M170.72,582.17v14.62c0,1.38.62,1.75,1.53,1.75a2.43,2.43,0,0,0,1.28-.46l.57,2.19a5.35,5.35,0,0,1-2.79.89c-2.56,0-3.65-1.73-3.65-4.07V582.54Z"/><path d="M187.17,582.17V601h-2.56l-.35-2.22a4.52,4.52,0,0,1-4.12,2.37c-3.47.05-5.55-2.84-5.55-6.63,0-4.64,3-6.56,5.53-6.56a4.1,4.1,0,0,1,4,2.44v-7.84Zm-9.42,12.33c0,2.2.86,3.92,3.16,3.92s3.25-1.72,3.25-3.89c0-2.94-1.58-4-3.28-4S177.75,591.66,177.75,594.5Z"/><path d="M49.87,616.08v8.22a4.4,4.4,0,0,1,4.31-2.42c2.44.07,5.06,1.73,5.06,6.48,0,3.9-2,6.71-5.45,6.71a4.28,4.28,0,0,1-4.07-2.37l-.42,2.22H46.81V616.48Zm-.12,12.36c0,2.22.81,4,3.25,4,2,0,3.11-1.5,3.11-4,0-3-1.51-3.95-3.14-3.95S49.75,625.85,49.75,628.44Z"/><path d="M73.27,631.37a5.76,5.76,0,0,1-5.57,3.7c-4.34,0-6.26-2.71-6.26-6.75s2.71-6.54,6.43-6.44c3,.07,5.75,2.34,5.45,6.46l0,.4H64.54c0,2.19.94,3.69,3.18,3.69a2.87,2.87,0,0,0,2.79-2Zm-3.13-4.21c0-2-1-2.94-2.54-2.89a2.88,2.88,0,0,0-2.91,2.89Z"/><path d="M87.26,631.3c-.84,2.64-3,3.77-5.63,3.77-4.24,0-6.06-3.15-6.06-6.61,0-4.21,2.61-6.51,6.14-6.58,3.11-.07,5,1.53,5.5,3.8l-2.84.91a2.54,2.54,0,0,0-2.61-2.12c-1.78,0-3.13,1.31-3.13,3.94,0,2.1.79,4,3.08,4a2.6,2.6,0,0,0,2.71-2Z"/><path d="M95.55,621.88c3.23,0,6,2.19,6,6.61,0,3.62-2.15,6.58-6.17,6.58-4.36,0-6.16-3-6.16-6.58C89.26,624.07,92,621.88,95.55,621.88Zm-3.09,6.61c0,2,.69,4,3,4,2.1,0,3-2,3-4,0-2.86-1.4-4-3-4C93.84,624.47,92.46,625.58,92.46,628.49Z"/><path d="M106.74,622l.45,2.3a4.3,4.3,0,0,1,4-2.44,3.77,3.77,0,0,1,3.85,2.39,4.52,4.52,0,0,1,4.17-2.39c3,0,4.21,2,4.21,4.63v8.43h-3v-7.44c0-2-.47-3-2.15-3-2.22,0-2.81,1.68-2.81,3.58v6.9h-3.06v-7.44c0-2-.47-3-2.14-3-2.37,0-2.84,1.9-2.84,4v6.51H104.3V622Z"/><path d="M137.87,631.37a5.77,5.77,0,0,1-5.58,3.7c-4.33,0-6.26-2.71-6.26-6.75s2.71-6.54,6.44-6.44c3,.07,5.74,2.34,5.45,6.46l0,.4h-8.73c0,2.19.94,3.69,3.18,3.69a2.89,2.89,0,0,0,2.79-2Zm-3.13-4.21c0-2-1-2.94-2.54-2.89a2.87,2.87,0,0,0-2.91,2.89Z"/><path d="M147.81,622l3.11,9.37h.19L154.2,622h3.13l-4.81,12.92h-3.08L144.75,622Z"/><path d="M170.15,631.37a5.76,5.76,0,0,1-5.57,3.7c-4.34,0-6.26-2.71-6.26-6.75s2.71-6.54,6.43-6.44c3,.07,5.75,2.34,5.45,6.46l0,.4h-8.73c0,2.19.94,3.69,3.19,3.69a2.87,2.87,0,0,0,2.78-2ZM167,627.16c0-2-1-2.94-2.54-2.89a2.88,2.88,0,0,0-2.91,2.89Z"/><path d="M175.31,622l.57,2.67c.59-2,2.09-2.84,4.19-2.79a4.85,4.85,0,0,1,1.33.22l-.47,2.69a5.48,5.48,0,0,0-1.85-.25c-2.27.08-3.13,1.83-3.13,3.9v6.48h-3.06V622Z"/><path d="M187.89,618.35v3.78h3.25l-.42,2.46h-2.83v5.92c0,1.41.64,2,1.67,2a5.43,5.43,0,0,0,1.95-.57l.57,2.34a7.94,7.94,0,0,1-3.28.84c-3,0-4-2-4-4.14v-6.34H183v-2.46H185l.37-3.43Z"/><path d="M198.05,622v12.92H195V624.54h-1.8V622Zm-1.55-5a1.66,1.66,0,0,1,1.82,1.56,1.82,1.82,0,0,1-3.62,0A1.59,1.59,0,0,1,196.5,617Z"/><path d="M212.45,631.3c-.84,2.64-3,3.77-5.62,3.77-4.24,0-6.07-3.15-6.07-6.61,0-4.21,2.62-6.51,6.14-6.58,3.11-.07,5,1.53,5.5,3.8l-2.83.91a2.55,2.55,0,0,0-2.62-2.12c-1.77,0-3.13,1.31-3.13,3.94,0,2.1.79,4,3.08,4a2.61,2.61,0,0,0,2.72-2Z"/><path d="M215.12,622.82a15.36,15.36,0,0,1,4.88-.94c3.9,0,5.33,1.92,5.33,4.93V632a.65.65,0,0,0,.61.74,2.41,2.41,0,0,0,1-.15v2a5,5,0,0,1-2,.39,2.34,2.34,0,0,1-2.35-1.75,5.62,5.62,0,0,1-3.89,1.75c-2.52,0-4.39-1.28-4.42-4s2-4.09,5.26-4.09a19.84,19.84,0,0,1,2.78.25v-.77c0-1.4-.88-2.17-2.66-2.14a10.5,10.5,0,0,0-4,.78Zm7.15,6a13.07,13.07,0,0,0-2.52-.15c-1.48.07-2.41.76-2.44,2.07a1.81,1.81,0,0,0,2.1,1.9,5.09,5.09,0,0,0,2.86-1Z"/><path d="M232.14,616.08v14.63c0,1.38.61,1.75,1.52,1.75A2.46,2.46,0,0,0,235,632l.56,2.19a5.22,5.22,0,0,1-2.78.89c-2.57,0-3.65-1.72-3.65-4.07V616.45Z"/><path class="cls-11" d="M148.79,61.4a36.73,36.73,0,0,1,8.33-23.32,34.4,34.4,0,0,0-45.48-4.38A34.43,34.43,0,0,0,131.9,96a34.33,34.33,0,0,0,25.32-11.11A36.76,36.76,0,0,1,148.79,61.4ZM138,75.49s-3.7-.27-11.47-.27a25.63,25.63,0,0,0-4.93.31l-1.35-2.46c7.78-7.9,12.4-13.63,13-18.71.47-3.66-2-4.82-4.35-4.66a9.73,9.73,0,0,0-6.73,3.92c-.2-.23-1.93-2.07-1.47-2.65A12.43,12.43,0,0,1,130,46.12c5.89,0,9.09,3,8.74,8.51-.46,7-8,13.59-12.63,17.55l8.32-.08c1.77-.15,3-2.54,3.81-4.73,0,0,1.73.5,2,1C139.58,71.53,138.81,75.49,138,75.49Z"/><path class="cls-11" d="M95.79,61.4A36.74,36.74,0,0,1,104.16,38a34.44,34.44,0,1,0,.11,46.9A36.78,36.78,0,0,1,95.79,61.4ZM87.2,75.66H70.92L71,73.39l4.46-.58c.58,0,.81-.23.81-1,.08-10.05,0-19.6,0-19.6l-5.62,1.08c-.19-.31-1.12-2.46-.46-2.73l10.35-4,1,1s-.12,20.87,0,24.37c0,.77.19,1,.73,1l5.08.54Z"/><path class="cls-11" d="M201.79,61.4A36.74,36.74,0,0,1,210.16,38a34.43,34.43,0,0,0-47.76-2.48A34.8,34.8,0,0,0,172,93.43a34.41,34.41,0,0,0,38.24-8.51A36.78,36.78,0,0,1,201.79,61.4ZM181.35,75.49a15.64,15.64,0,0,1-7.86-2.19l1-2.89a21.48,21.48,0,0,0,7,1.66c3.35,0,5.51-1.74,5.55-5.24,0-2.46-1.43-4.35-4.47-4.74a17.82,17.82,0,0,0-5,.24c-.5.11-.89-3-.42-3.08,3-.54,7.62-1.08,8.39-4.89.73-3.62-2-4.82-4.35-4.66A8.43,8.43,0,0,0,175,52.82c-.2-.23-1.7-2.12-1-3a10.43,10.43,0,0,1,8.16-3.69c5.89,0,9.12,3,8.74,8.51a6,6,0,0,1-4,4.5c3.47.62,5.47,2.93,5.66,6.7C192.9,71.83,188,75.49,181.35,75.49Z"/><circle cx="236" cy="61.53" r="34.44"/><text class="cls-12" transform="translate(224.45 75.26)">4</text><text class="cls-13" transform="translate(280.41 71.34)">The n<tspan class="cls-14" x="76.17" y="0">e</tspan><tspan class="cls-15" x="92.55" y="0">xt e</tspan><tspan class="cls-16" x="145.35" y="0">l</tspan><tspan x="154.56" y="0">ement is the en</tspan><tspan class="cls-17" x="371.64" y="0">t</tspan><tspan class="cls-18" x="383.73" y="0">r</tspan><tspan x="397.32" y="0">y</tspan></text></svg>