<svg id="Layer_1" data-name="Layer 1" xmlns="http://www.w3.org/2000/svg" viewBox="0 0 780 1051.14"><defs><style>.cls-1,.cls-2,.cls-7{fill:#d4a47c;}.cls-1,.cls-2,.cls-3,.cls-4,.cls-5,.cls-7{stroke:#fff;stroke-miterlimit:10;}.cls-1,.cls-5{stroke-width:0.27px;}.cls-2{stroke-width:0.28px;}.cls-3{fill:#fff171;stroke-width:0.3px;}.cls-4{fill:#005058;stroke-width:0.42px;}.cls-5{fill:#c6946f;}.cls-6{fill:#b78662;opacity:0.5;}.cls-7{stroke-width:0.36px;}.cls-8{fill:#fff;}</style></defs><path class="cls-1" d="M418.62,422.94c-1.37.76-2.87,1.33-4.17,2.21a5.86,5.86,0,0,1-3.07,1.23,26.62,26.62,0,0,0,.76-2.73c.88-3.93,1.25-9.7-.46-13.52-2.93-6.56-10.06-2-15-1-2.82.55-7.16,2.14-10,1.32-2.15-.6-2.8-2.47-2.84-4.52,0-1.09-.05-2.2-.12-3.29-.1-1.5-1.05-1.71-2.08-2.83a18.19,18.19,0,0,1-3.06-4.65,19.86,19.86,0,0,1-.67-2.95,4.75,4.75,0,0,0-2.43-2.48,1.85,1.85,0,0,0-1.23-.27,3.42,3.42,0,0,1-3.78-3.71,27.3,27.3,0,0,1,.94-5.09c.73-2.67,1.19-2.7,2.06-5a12.12,12.12,0,0,0,.91-2.66c.06-.34.13-.47.18-.51a2.61,2.61,0,0,1-.2-.35,25.66,25.66,0,0,0-2.08-3,20.5,20.5,0,0,1-2-2.47c-.22-.5,0-.89-.11-1.36s-.4-.86-.5-1.35c-.22-1-.13-2-.34-3a13.91,13.91,0,0,1-.37-2.72c0-1.9-.69-3.61-.74-5.5-.07-2.82-.26-5.4,1.62-7.78a28.22,28.22,0,0,1,3.34-3.31c1-.88,1.55-2.07,2.52-2.89,1.93-1.61,3.88-3,5.39-5.12A25,25,0,0,1,387.3,327c2.51-1.7,5.25-2.63,7.89-4,3.56-1.86,8-3.62,12.06-3.88a73.84,73.84,0,0,1,10.83.08,43.7,43.7,0,0,1,7.27,1.53,19.62,19.62,0,0,1,8.36,4.57,24.44,24.44,0,0,1,5.25,7.79c1.19,2.68,2.53,5.37,3.59,8.09a30.47,30.47,0,0,0,1.46,3.67,19.62,19.62,0,0,0,1.55,2c.7,1,.72,2.33,1.42,3.35.91,1.33,2.38,1.4,3.9,2a28.41,28.41,0,0,0,5.18,1.5,19.17,19.17,0,0,1,3.32.87c-.8,3.67-2.86,7-2.4,10.91a2.68,2.68,0,0,0,.68,1.52,5.73,5.73,0,0,0-2,.8c-1.33,1-1.69,3-3.21,3.89a6.17,6.17,0,0,1-4.52.25,7.66,7.66,0,0,1-1.65-1.07c-.78-.49-1.66-.62-2.39-1.16-.89-.66-1.92-2.09-3-1.23s-.9,3.57-.88,4.79,0,2.16,0,3.49a47.84,47.84,0,0,1-1.27,9.05,4.63,4.63,0,0,0,.49,2.67c.73,1.62,2.28,2.87,3.37,4.24,6.82,8.55,15.28,17.41,21.32,26.87,1.34,2.11,1.77,4.6,2.85,6.79.57,1.16.71,2.48,1.28,3.65.42.84.82,1.65,1.19,2.53,6,14.21,9.79,27.56,10,43.17.25,15.95,3.51,36-.7,51.43a16.33,16.33,0,0,0-.29,5c0,1.31-.35,2.49-.38,3.78-.07,2.75-.72,5.53-.65,8.27A17.6,17.6,0,0,1,477,547a20.88,20.88,0,0,0,0,2.74c0,1.1-.41,2.08-.4,3.19s.07,1.94.12,2.9c0,.73.37,1.78-.4,2.15s-2.23-.66-3-1c-2.45-1.19-5-1.86-7.37-3.27s-5.37-2.63-6.87-5.34c-1.28-2.32-2.22-4.2-2.28-6.91-.05-2.1-2.43-4-2.57-6.08-.09-1.43-3.48-2.38-3.72-3.81-.56-3.39-3.23-6-3.89-9.27-.47-2.38-7.73-4.07-8.15-6.48-.62-3.62.48-5.3-.37-8.87-1.11-4.69-1-9.27-2.78-13.73s7.71-12.54,6.4-17.27c-2.15-7.76-3-15.86-5.21-23.63-1.46-5.19-2.9-10.6-6.11-15.07-.68-1-1.62-1.62-2.38-2.49s-1.26-1.95-2.08-2.79a18.59,18.59,0,0,1-3.5-4.62"/><path class="cls-2" d="M408.29,431.28a6.89,6.89,0,0,1-.43,2.23c-.44,1.63-1.48,3.05-1.87,4.69-.34,1.43-.87,2.78-1.13,4.23a19.48,19.48,0,0,1-1.47,3.84,31,31,0,0,0-1.24,4.4c-.41,1.58-1,3.09-1.39,4.68a30.61,30.61,0,0,0-.46,5c-.22,4.14-.34,8.32-.2,12.46a12,12,0,0,0,.72,4.19,34.89,34.89,0,0,0,1.95,4,38,38,0,0,0,3.15,4.47,28.86,28.86,0,0,0,10.85,8.93A14.67,14.67,0,0,0,422,496.1a13,13,0,0,0,3.74.14,6.51,6.51,0,0,0,3-1.58c2.89-2.24,4.72-5.55,6-8.9a31,31,0,0,0,2.19-9.35,38.29,38.29,0,0,0-1-9.83,28.75,28.75,0,0,0-1.36-5.07c-1.31-3.36,18.61-15.61,16.93-18.82-3.72-7.13-5.83-19-10.45-25-2.88-2.72-30.07.8-29.9,7.45,0,.92-3,5.73-3.62,6.42"/><path class="cls-3" d="M409.91,433.51c.88-5.55,3.9-12,9.31-14.06s14.47-2.05,20-.63c12.25,3.1,21.51,10.55,28.45,21.49a71.41,71.41,0,0,1,6.91,14.13c1.67,4.66,4.37,10.92,4.42,15.9.7.23-.56-.17,0,0-.13-2.79-.73-5.58-.67-8.38,0-.72-.07-1.44-.11-2.17-.37-1.93-.7-3.87-1-5.83-.45-1.46-.84-2.91-1.17-4.39a84,84,0,0,0-4.1-8.16c-3.8-6.66-10.66-14.88-17.11-19-8.87-5.72-18.47-7.87-29.2-7.38a21.33,21.33,0,0,0-12.57,4.5c-3,2.47-5.06,7.56-5.93,11.36Z"/><path class="cls-4" d="M407.32,430.26c-1.75,3.75-2,6.13-6.08,15.43-.64,1.48-5.33,14.21-5.62,15.73-1.2,3.18-2.4,7-3.39,10.24a72.47,72.47,0,0,0-2.64,16.64,24,24,0,0,0,1.69,10.7c1.51,3.55,4.17,6.57,6,10,3.74,7,4.59,15.14,4.87,22.92a138.65,138.65,0,0,0,1.66,16.26c.7,4.46,1.66,8.84,1.19,13.37-.5,4.8-2,9.41-2.85,14.15a49.75,49.75,0,0,0-.57,12.78c.68,7.89,2.67,15.48,4.13,23.23.46,2.43.55,7.8,2.66,9.14,2.81-2.32,3.52-9.15,4.43-12.65,1.18-4.57,2.38-9.17,4.68-13.32,6.11-11,19.31-17,31.91-16.51,13.12.54,26.1,7.41,35.26,16.63,3.43,3.45,5.77,9,8,13.3a35.92,35.92,0,0,0-.52-4.15,80.66,80.66,0,0,0-3.79-12.69c-3.5-9.78-7.85-19.55-10.92-29.41-.64-2-.2-4.21-.71-6.24s-2-1.73-3.71-2.51c-1.16-.52-2.1-1.12-3.28-1.56-4.43-1.64-7.79-5.67-10.1-9.58-3.91-6.62-5.48-15-7.7-22.32q-3-10-6-20a33.38,33.38,0,0,0-3.19-8.13c-1-1.65-5.44-5.9-5.44-7.64a3.42,3.42,0,0,0-.79-.86,3.61,3.61,0,0,0-1.81-.46,71.42,71.42,0,0,1-16.9-3.1c-10-3.28-14.79-10.88-14.56-21.52a33.65,33.65,0,0,1,1-6.69c.59-2.58,5-15.76,5.71-18.32Z"/><path class="cls-5" d="M490.11,601.5c3.48,9.31,6,19.75,3.09,29.56-1.24,4.22-3.88,7.64-6.5,11.92s-2.47,11.23-3.7,15.45C482.33,678,485.79,694,489.25,712c2,16.64,1.24,33.37,2.06,50.52l3.68,14.6a2.49,2.49,0,0,1,.25.77c.2.7.49,1.39.68,2.09,3.82,13.67,8.76,21.59,9.31,35.84.48,12.58-3.31,31.08-3.76,43.53-.24,6.93-2,13.43-1.27,21,.79,7.85-.63,14.93.79,22.58,1.06,5.71,1.47,11.42,2.92,17.06s1.27,10.91-4.23,13.78c-8.07,4.21-16.26,5.24-26.38,10.43-3.26,1.67-5.12,5.34-8.29,7.18-8.87,5.15-21.51,2.81-31.37,4.84-5.24,1.08-12.05,2-16.24-2.32-.16-.16-.24-.38-.4-.54s-.51-.37-.73-.58a3.63,3.63,0,0,1-1-1.59,2.42,2.42,0,0,1,.31-2.39,1.79,1.79,0,0,1,1.15-.42c9.1-1.06,18.35-7.85,26.43-11.88a10.74,10.74,0,0,0,3.63-2.51,19.13,19.13,0,0,0,1.7-3c3-5.62,9.54-8.39,13.28-13.52,4-5.45,7.12-12.77,7.46-19.57.19-3.83,4.76-8.54,5.33-12.29,2.27-15-3.65-29.08-5.53-43.68-1.55-12-6.1-24.75-9-36.09-.41-1.63-.11-3.25-.4-4.88-1.45-8-4.57-16.13-7.27-23.8-1.79-5.1-8.64-7.93-11.14-12.72-2.3-4.41-1.33-10.93-1.3-16.16,0-2,.58-3.92.59-5.89,0-5-3.56-9.39-6-13.53-2.82-4.85-5.41-9.86-8.25-14.69-.9-1.52-1.62-3.2-2.6-4.66-2.08-3.1-3.4-6.8-5-10.18a30.45,30.45,0,0,1-1.83-5.69c-.37-1.62-1.05-3.27-1.28-4.9a18.64,18.64,0,0,0-.85-3.1,30.56,30.56,0,0,1-.62-3.83,46,46,0,0,0-1.43-5.89,37.4,37.4,0,0,1-1.2-6.65c-.3-2.37-1.59-4.6-1.77-7-.13-1.68-.51-3.28-.65-4.94a52,52,0,0,0-1-7.66c-.85-3.66-.53-7.84-.67-11.6-.11-2.94-.2-5.89-.33-8.84-.14-3.2.76-6.29.66-9.5l.24-3.17c.09-1.28.53-2.57.72-3.87a18,18,0,0,1,1.15-4.56c.74-1.75,1.88-3.31,2.59-5.07s1-3.65,1.66-5.4a22.82,22.82,0,0,1,2.28-4.06c1.28-1.95,2.44-4.27,4.09-5.91a26.45,26.45,0,0,1,9.09-6.28,71.37,71.37,0,0,1,9.09-3,59.54,59.54,0,0,1,10.14-1.16,32,32,0,0,1,7.12.33c4.23.78,8.07,2.95,11.65,5.32,2.25,1.49,4.44,3.08,6.72,4.53,1.17.75,2.4,1.37,3.58,2.09s1.95,1.52,3,2.18a31.43,31.43,0,0,1,5,4.19,9.81,9.81,0,0,1,2.05,2.66c.47.91,1.53,1.64,1.82,2.54Z"/><path d="M380.4,363.08c.36,0,.71.11,1.06.18s.63.14.75.34.05.08,0,.14a1.46,1.46,0,0,1-.3,0,1.65,1.65,0,0,0-.32.07c-.43.12-.83.29-1.25.42-.25.07-.48.17-.73.22-1.54.34-3.25.18-4.73.68a6.33,6.33,0,0,0-2.8,3c-.33-.39-2-1.46-1.72-2,.39-.71,2.46-1.63,3.11-2.16a6.53,6.53,0,0,1,4.3-1.39C378.63,362.72,379.51,363,380.4,363.08Z"/><path d="M457.62,350.79c-2.3-1-4.94-1.61-7.09-2.85-6.84-3.95-7.78-13.34-12.27-19.83-3.7-5.34-9.88-8.6-16.25-9.88s-13-.78-19.39.17c-5.95.87-11.95,2.15-17.23,5-3.56,1.94-13,9.15-11.13,14.18s11.75,6,14.64,11.1c1.47,2.61,1.7,5.86,3.61,8.17a25.2,25.2,0,0,0,3.41,2.93c2.09,1.75,3.7,4,5.9,5.63s5.36,2.41,7.6.87a11.15,11.15,0,0,1-.39-5.77c.51-1.87,2,1.07,4,1.21,2.67.2,4.16-1.21,4.19,1.47s-.58,5.55.71,7.9c1.4,2.53,4.48,3.51,7.27,4.28l14.38,3.92c1.62-2.5-.79-6.28,1-8.68,1.33-1.82,4-1.56,6.29-1.54A18.42,18.42,0,0,0,458.6,365c3.09-2.53,5.37-6.93,3.55-10.48A8.32,8.32,0,0,0,457.62,350.79Z"/><path d="M374.68,338.57l.69-.62c0-.06-.1-.1-.14-.16A2.83,2.83,0,0,0,374.68,338.57Z"/><path class="cls-1" d="M407.2,369.5c-4.22-3.18.67-10.06,4.65-10.31a6.56,6.56,0,0,1,6.69,5.8c.26,3.37-2.17,6.48-2.12,9.86,0,1.79.74,3.67,0,5.3s-3.94,1.64-3.71-.13"/><path d="M445.31,354.55a7.14,7.14,0,0,0,1.63-3,11.77,11.77,0,0,1,2.14-3.35,6.1,6.1,0,0,1,3.83-2.33,6.6,6.6,0,0,1,3.94.77A6.45,6.45,0,0,1,459.6,349c.51,1.19.15,3.28.22,4.56a6.67,6.67,0,0,1-1.72,4.22,6,6,0,0,1-3.86,2.62,19.63,19.63,0,0,1-10.34-2.24c-1.58-.75-2.5-3-2.9-4.61s-.58-4.46.13-6.05c1.35-3.05,5.49-3.21,8.27-2.65,1.66.33,3.3.83,4.13,2.48a9.8,9.8,0,0,1,.77,4.33,18.33,18.33,0,0,1-.18,5,6.55,6.55,0,0,1-.8,2.51,20.14,20.14,0,0,0-1.63,2.46,8.39,8.39,0,0,1-2.1,2.57,3.27,3.27,0,0,1-2.4.8,10.15,10.15,0,0,1-3-.32c-.62-.15-1.17-.54-1.77-.74-1.05-.35-1.05-.4-1.17-1.63"/><path d="M444.72,353.74c-.64-1.29-.19-2.5.36-3.7a6,6,0,0,0,.49-1.29,1.85,1.85,0,0,1,1.26-1.46c1.66-.77,3.79-.28,5.49,0a6.38,6.38,0,0,1,2.11.59c.59.34,1,.89,1.62,1.21.34.19.72.2,1,.49s.48.69.82,1,.59.35.83.8a9.07,9.07,0,0,1,.47,1.16,4.9,4.9,0,0,1,.52,2.19,13.91,13.91,0,0,1-.43,2.3,6.54,6.54,0,0,1-.44,1c-.19.4-.23.84-.41,1.23a6.19,6.19,0,0,1-2.62,2.32c-1.89,1.18-4.49,1.12-6.66,1.11a11.53,11.53,0,0,1-4.89-1.16c-.84-.45-1.59-1-2.38-1.5a9.69,9.69,0,0,1-2.09-1.55,8.35,8.35,0,0,1-1.54-2.43,19,19,0,0,1-1.12-2.87,6.1,6.1,0,0,1,.16-3,7.71,7.71,0,0,0,.59-1.49,5.39,5.39,0,0,1,.34-1.63,6.56,6.56,0,0,1,4.08-3.91,21,21,0,0,1,4.2-1c.93-.06,1.85-.06,2.78-.1a6,6,0,0,1,2.86.62,4.17,4.17,0,0,1,1.46.94c.38.39.93.72,1.15,1.21.67,1.48.23,3,.61,4.48a4.54,4.54,0,0,1,.26.86c.05.47,0,1,.05,1.44a10.16,10.16,0,0,1,0,2.34,6.76,6.76,0,0,1-.91,2.48,3.59,3.59,0,0,1-2.44,1.69,9.94,9.94,0,0,1-3.64.64,12.8,12.8,0,0,1-4.72-1.31,9.93,9.93,0,0,1-4-3,10.66,10.66,0,0,1-1.46-2.16A11.1,11.1,0,0,1,438,350c-.25-1.66.71-3.25,1.39-4.67.13-.27.34-1,.61-1.19s.68-.06.92-.07"/><path d="M442.44,367.85c-.64-1.29-.19-2.5.36-3.7a6,6,0,0,0,.49-1.29,1.85,1.85,0,0,1,1.26-1.46c1.67-.77,3.79-.28,5.49,0a6.38,6.38,0,0,1,2.11.59c.59.34,1,.89,1.62,1.21.34.19.72.2,1,.49s.48.69.82,1,.59.35.83.8a7.82,7.82,0,0,1,.47,1.16,4.9,4.9,0,0,1,.52,2.19,14.22,14.22,0,0,1-.43,2.31,6.92,6.92,0,0,1-.44,1c-.19.4-.23.84-.41,1.23a6.19,6.19,0,0,1-2.62,2.32c-1.89,1.18-4.49,1.12-6.66,1.11A11.53,11.53,0,0,1,442,375.6c-.84-.45-1.59-1-2.38-1.5a9.69,9.69,0,0,1-2.09-1.55,8.35,8.35,0,0,1-1.54-2.43,19,19,0,0,1-1.12-2.87,6.1,6.1,0,0,1,.16-3,7.71,7.71,0,0,0,.59-1.49,5.39,5.39,0,0,1,.34-1.63,6.59,6.59,0,0,1,4.08-3.91,21.11,21.11,0,0,1,4.2-1c.93-.06,1.85-.06,2.78-.1a6,6,0,0,1,2.86.62,4.17,4.17,0,0,1,1.46.94c.38.39.93.72,1.15,1.21.67,1.48.23,3,.61,4.48a4.54,4.54,0,0,1,.26.86c.05.47,0,1,.05,1.44a10.16,10.16,0,0,1,0,2.34,6.92,6.92,0,0,1-.9,2.48,3.63,3.63,0,0,1-2.45,1.69,9.92,9.92,0,0,1-3.63.64,12.8,12.8,0,0,1-4.73-1.31,9.93,9.93,0,0,1-4-3,10.66,10.66,0,0,1-1.46-2.16,11.1,11.1,0,0,1-.44-2.31c-.25-1.66.71-3.25,1.39-4.67.14-.27.34-1,.61-1.19s.69-.06.92-.07"/><path class="cls-3" d="M469,431.89c0-.13,0-.26,0-.39a100.25,100.25,0,0,1-3.92-10,96,96,0,0,1,1.1,24.53c-.75,9.93-2.67,20-6.55,28.53a39,39,0,0,1-3.27,5.94,28,28,0,0,1-2,2.63c-.81.95-7.19,7.14-10.59,11a7.41,7.41,0,0,1,1.27,2.1c.09.13.15.28.24.41,2.82-2.92,11.09-10.09,11.09-11,5.19-6.09,8.32-14.83,10.26-23.52A111.3,111.3,0,0,0,469,431.89Z"/><path class="cls-6" d="M483.44,897c.93,2.58,5.7,4.85,8,3.59,1.33-.73,2.13-3.15,2.71-4.41.16-.33.28-.67.42-1a9.8,9.8,0,0,0,.55-2.85c0-.38-.06-.77-.1-1.15a1.35,1.35,0,0,0-2.49-.53,5.24,5.24,0,0,0-.48,1c-.61,1.91-1.41,4.52-3.48,4.82s-3-2.12-3.47-3.7a17.19,17.19,0,0,0-.51-1.81,10.57,10.57,0,0,0-.73,1.32,15.29,15.29,0,0,1-.38,1.54A29.88,29.88,0,0,0,483.44,897Z"/><path class="cls-7" d="M445,420.87a22,22,0,0,0-2.85-1.15,9.59,9.59,0,0,0-2.72-.3,16,16,0,0,0-6.25.67c-1,.31-2,.61-2.95,1-5.12,2.09-8.32,5.24-11.25,9.9-2.54,4.05-5,8.15-7.22,12.4-1,2-2,4-2.87,6.13-3.94,9.46-8.12,18.77-12,28.28s-9,19.4-12.78,29.52c-1,2.32-1.87,4.63-2.45,5.62a68.48,68.48,0,0,1-7.26,9.51c-14.58,17.32-25,38-39.11,55.75a31.14,31.14,0,0,0-2.17,3.17,9.53,9.53,0,0,1-1.65,1.71,8.51,8.51,0,0,0-1.75,1.9c-.4.7-1,1.21-1.37,1.88a14.92,14.92,0,0,1-2.12,2.62c-.47.48-.91,1-1.41,1.45l-.78.72-.24.12c-.47.48-.92,1-1.42,1.46a17,17,0,0,1-1.44,1.38,6.91,6.91,0,0,1-1.91,1c-.73.2-1.47.38-2.21.56-1.25.3-2.47.61-3.72.94a13.88,13.88,0,0,0-1.6.41c-.47.19-.92.51-1.39.66l-.55.47c-.52.23-1.09.37-1.61.62a7.84,7.84,0,0,0-1.36.87l-.53.41c-.3.22-.63.33-.92.56a14.43,14.43,0,0,0-1.12.92c-.36.37-.23.82-.25,1.29a1.53,1.53,0,0,1-.49,1.17c-.36.34-.69.71-1.05,1.06s-.46.4-.68.63-.4.4-.59.6a11.2,11.2,0,0,1-1.4,1.16l-.71.57a4.82,4.82,0,0,1-.69.41,3.82,3.82,0,0,0-.53.45c-.18.2-.41.34-.59.54a3.57,3.57,0,0,0-.84,1.36,1.37,1.37,0,0,0-.13.48c0,.23.07.5.09.73a8.59,8.59,0,0,1,.13,1.52,7.27,7.27,0,0,1-.39,1.36c-.13.42-.26.83-.38,1.25s-.26.55-.36.84a3.2,3.2,0,0,1-.23.68c-.11.18-.19.38-.31.56a1.32,1.32,0,0,0-.29.46,7.87,7.87,0,0,0-.35,1.14c-.09.58.39.79.83,1a1.82,1.82,0,0,0,.73.17,8.93,8.93,0,0,0,1.27.07.4.4,0,0,0,.3-.11,1.33,1.33,0,0,1,.14-.19c.07,0,.17,0,.26,0a.76.76,0,0,0,.23-.13,9.07,9.07,0,0,0,1.29-1.41c.44-.57.86-1.14,1.27-1.73l.08-.13c-.15.27-.29.55-.46.82a10.08,10.08,0,0,1-1.09,1.5,11.58,11.58,0,0,0-1.31,1.31,2,2,0,0,1-.2.3c-.17.21-.34.42-.5.64s-.17.31-.27.46a3,3,0,0,1-.43.44,9.68,9.68,0,0,0-.87.94,7.37,7.37,0,0,0-1.26,2c-.07.22-.22.32-.35.5a4.53,4.53,0,0,0-.27.54,2.3,2.3,0,0,1-.26.49c-.16.19-.34.31-.51.48s-.54.67-.87.95-.62.61-1,.89a7.76,7.76,0,0,0-.86.86c-.13.14-.14.34-.24.49s-.2.26-.29.4c-.22.32-.39.65-.64,1s-.51.74-.75,1.11a20.14,20.14,0,0,1-1.28,1.79,6.31,6.31,0,0,0-.69,1.94,2.66,2.66,0,0,0,.48,2.22,2.75,2.75,0,0,0,1.67,1.13,1.41,1.41,0,0,0,.93-.07l-.48.33a3.27,3.27,0,0,0-.81,1.64c0,.25-.09.45-.14.69a3.38,3.38,0,0,0,0,.71c0,.39.22.56.53.79a7.38,7.38,0,0,0,1.34.69,2.32,2.32,0,0,0,1.41.27,3,3,0,0,0,1.36-1,16.88,16.88,0,0,0,1.45-1.48c.34-.4.66-.78,1-1.15A13.07,13.07,0,0,0,296,641c.4-.53,1.07-.88,1.52-1.37.24-.27.44-.56.67-.82s.42-.4.61-.63a5.89,5.89,0,0,1,1.47-1.15,5.67,5.67,0,0,0,.79-.6,6.33,6.33,0,0,1,.56-.49l-6.4,6.14a.72.72,0,0,0-.38.43c-.06.12-.13.15-.19.25a1.74,1.74,0,0,0-.11,1.15c.17,1,1.3,1.29,2.18,1.38a2.63,2.63,0,0,0,1.57-.37c.53-.29,1.1-.44,1.63-.72a4.2,4.2,0,0,0,1.2-1,9.08,9.08,0,0,1,1.18-1.14,21.31,21.31,0,0,0,2.12-2.51l.63-.68c.16-.17.38-.28.56-.45.49-.47.92-1,1.38-1.47a5.9,5.9,0,0,1,.8-.7c.26-.19.48-.43.75-.61s.55-.41.82-.62l-4.95,4.84c-.05.19-.42.26-.33.48s.15.22.2.35a1.22,1.22,0,0,0,.16.37.68.68,0,0,0,.31.14c.42.11.79.35,1.19.49a2.17,2.17,0,0,0,1.21,0,3.26,3.26,0,0,0,1.51-.72c.23-.19.5-.27.74-.45s.49-.42.74-.64.39-.41.59-.58a5.05,5.05,0,0,0,.63-.49c.22-.24.51-.4.73-.63a3.18,3.18,0,0,1,.58-.58,6.41,6.41,0,0,0,1.17-1.09c.29-.34.71-.57,1-.91s.71-.61,1-1,.79-.76,1.16-1.15c.15-.15.23-.35.39-.49s.41-.29.59-.48c.35-.36.75-.66,1.1-1s.46-.77.76-1.12a8.52,8.52,0,0,1,1-1.06,10,10,0,0,0,.78-.94c.18-.19.41-.33.61-.52a8.24,8.24,0,0,1,.91-.75c.38-.29.71-.6,1.06-.91a3.61,3.61,0,0,0,.73-1.12,1.9,1.9,0,0,1,.51-.55A7.14,7.14,0,0,0,326,624a2.44,2.44,0,0,0,.37-.35,3.74,3.74,0,0,1,.45-.67c.22-.21.61-.36.78-.61a11.88,11.88,0,0,0,.77-1.69c.09-.2.15-.41.24-.61a18.84,18.84,0,0,1,1.15-2,9.12,9.12,0,0,0,.74-1.23c.16-.39.22-.73.41-1.12.47-.94.76-2,1.24-2.93.15-.3.39-.55.53-.85s.27-.88.51-1.31c5.32-9.37,10.54-17.79,18.38-25.33,7.69-7.37,16.7-13.79,24.55-20.57a108.78,108.78,0,0,0,9.16-8.93,52.22,52.22,0,0,0,6.71-8.66,23.7,23.7,0,0,1,2.26-2.92c1.09-1.35,1.79-3.11,2.76-4.5a27.63,27.63,0,0,0,1.69-2.89l2.21-3c.15-.46.3-.91.47-1.35,2.08-2.38,4-4.93,6-7.37l13.2-16.2,13.65-16.77,7.85-9.64a122,122,0,0,0,7.72-11.18,90.57,90.57,0,0,0,5.27-9.87,51.16,51.16,0,0,0,2.74-6M289.47,640.69l-.06,0a.31.31,0,0,0,.09-.07Zm.74-.85a7.21,7.21,0,0,1,1.26-1.7c.22-.2.47-.39.7-.59Zm3.56-4.15a6.1,6.1,0,0,0,.34-.54c.19-.39.38-.76.58-1.15a5.57,5.57,0,0,1,.77-1.14,6.8,6.8,0,0,0,.73-1.05,3.77,3.77,0,0,1,1.23-1.08,9.37,9.37,0,0,0,1.16-.92,25.31,25.31,0,0,1,2.3-2.44Zm7.54-19.53-.16.3a2,2,0,0,1,.63-1.06C301.59,615.52,301.42,616,301.31,616.16ZM304.63,633a1.56,1.56,0,0,1,.16-.2c.16-.17.35-.26.51-.44a7.1,7.1,0,0,0,1.32-1.85c.16-.41.55-.38.9-.69s.87-.63,1.22-1c.69-.66,1-1.26,1.73-1.9.35-.32.49-.68.93-.91a7.11,7.11,0,0,1,.88-.57l.53-.33Zm9.37-2.56a6.59,6.59,0,0,1,1.51-1.47Zm3.61-3.79c0-.07,0-.13.07-.14S317.68,626.59,317.61,626.68Z"/><path class="cls-7" d="M300.22,612.59a3.27,3.27,0,0,0-.84-1c-.25-.17-.52-.32-.77-.48a5.35,5.35,0,0,1-.62-.44c-.34-.24-.52-.62-1-.49"/><path class="cls-7" d="M298.85,613.64a5.71,5.71,0,0,1-1.51-.35l-.48-.15c-.2-.06-.4-.26-.6-.29"/><path class="cls-7" d="M286.08,638.88a18.19,18.19,0,0,1,1-1.61,2.74,2.74,0,0,1,.84-.53,2.39,2.39,0,0,1,1.23-.25,2.29,2.29,0,0,1,1,.34c.62.55.21,1.46,0,2.1a4.94,4.94,0,0,1-.53,1c-.08.14-.2.24-.3.38a3.4,3.4,0,0,1-.67.84"/><path class="cls-7" d="M287.66,643.76a10.46,10.46,0,0,1,.64-1.19,1.64,1.64,0,0,1,1-.79c.31-.11.66-.15,1-.26.08,0,.13-.08.21-.11a1.69,1.69,0,0,1,.45,0,1.82,1.82,0,0,1,1.21.4c.25.19.61.51.57.88a5.86,5.86,0,0,1-.32,1.06c-.09.26-.65,2.2-.86,2a4.09,4.09,0,0,0-.75.27"/><path class="cls-7" d="M294.49,643.68c.11-.24.55-.73.7-1a2.72,2.72,0,0,1,.82-.8,2.94,2.94,0,0,1,.58-.36,3.41,3.41,0,0,1,.64-.1c.21,0,.3.15.48.24a1.82,1.82,0,0,1,.41.27c.12.1.25.13.34.26a1.55,1.55,0,0,1,.17.4,1.12,1.12,0,0,1-.15.85,4.37,4.37,0,0,1-.76.85c-.12.13-.23.28-.36.41a4.11,4.11,0,0,1-.66.54c0-.14-.95,0-.89-.17"/><path class="cls-7" d="M300.62,630.63a3.77,3.77,0,0,1,1,.46,2.27,2.27,0,0,1,.91.85"/><path class="cls-7" d="M299.15,631.66a3,3,0,0,0,.36.52,2.72,2.72,0,0,0,.81.81,2.68,2.68,0,0,0,.84.43,2.7,2.7,0,0,0,.47.12.9.9,0,0,1,.4,0"/><path class="cls-7" d="M308,633.06c.22.16.44.3.65.46a.52.52,0,0,1-.29-.24"/><path class="cls-7" d="M308.37,632c.41.32.85.61,1.24,1a1.49,1.49,0,0,1,.42.48"/><path class="cls-7" d="M314.87,632a7,7,0,0,1,1.35.41c.16.06.4.24.57.17"/><path class="cls-7" d="M295.75,626.35c.25.12,1.54.87,1.75,1,.77.51.1.12.18.15"/><path class="cls-7" d="M296,625.11a5.4,5.4,0,0,1,3.36,2c.15.21.46.23.67.4"/><path class="cls-7" d="M304.73,639.21c.13-.09.86-.91,1-1a1.53,1.53,0,0,1,.63-.18,5.24,5.24,0,0,1,1.45.32c.37.11.76.21.86.63a1.28,1.28,0,0,1-.38,1.09c-.3.32-.59.61-.9.92s-.78.79-1,.77"/><path class="cls-7" d="M295.57,616.52c.56-1.2,1.27.22,1.35.77.17,1.25.55,3.87-1.28,4.18"/><path d="M180,222.9V230h6.9V222.9H190v17.26h-3.11v-7.34H180v7.34H176.9V222.9Z"/><path d="M204.32,236.61a5.76,5.76,0,0,1-5.57,3.7c-4.34,0-6.26-2.71-6.26-6.76s2.71-6.53,6.43-6.43c3,.07,5.75,2.34,5.45,6.46l-.05.39h-8.73c0,2.2.94,3.7,3.18,3.7a2.87,2.87,0,0,0,2.79-2Zm-3.13-4.21c.05-2-1-2.94-2.54-2.89a2.88,2.88,0,0,0-2.91,2.89Z"/><path d="M207.26,228.06a15.36,15.36,0,0,1,4.88-.94c3.9,0,5.33,1.92,5.33,4.93v5.23a.65.65,0,0,0,.61.74,2.48,2.48,0,0,0,1-.15v2a5.09,5.09,0,0,1-2,.39,2.33,2.33,0,0,1-2.34-1.75,5.67,5.67,0,0,1-3.9,1.75c-2.51,0-4.39-1.28-4.41-4s2-4.09,5.25-4.09a21.85,21.85,0,0,1,2.79.24v-.76c0-1.41-.89-2.17-2.67-2.15a10.39,10.39,0,0,0-4,.79Zm7.15,6a13,13,0,0,0-2.51-.15c-1.48.07-2.42.76-2.45,2.07a1.82,1.82,0,0,0,2.1,1.9,5.06,5.06,0,0,0,2.86-1Z"/><path d="M233.3,221.32v18.84h-2.56l-.35-2.22a4.49,4.49,0,0,1-4.12,2.37c-3.47.05-5.54-2.83-5.54-6.63,0-4.64,3-6.56,5.52-6.56a4.09,4.09,0,0,1,4,2.44v-7.84Zm-9.42,12.33c0,2.2.87,3.92,3.16,3.92s3.25-1.72,3.25-3.89c0-2.94-1.57-4-3.28-4S223.88,230.82,223.88,233.65Z"/><path d="M244,227.24l.45,2.3a4.33,4.33,0,0,1,4-2.45,3.77,3.77,0,0,1,3.85,2.4,4.55,4.55,0,0,1,4.17-2.4c3,0,4.21,2,4.21,4.64v8.43h-3.05v-7.44c0-2-.47-3-2.15-3-2.22,0-2.81,1.68-2.81,3.58v6.9h-3.06v-7.44c0-2-.47-3-2.14-3-2.37,0-2.84,1.9-2.84,4v6.51h-3.06V227.24Z"/><path d="M266.7,227.24v7.45c0,2,.79,3,2.59,3,2.34,0,3.3-2.41,3.3-4.86v-5.62h3.06v12.92h-2.44l-.44-2.81a4.72,4.72,0,0,1-4.47,3c-3.15,0-4.66-1.95-4.66-5.2v-7.87Z"/><path d="M279.16,236.46a6.68,6.68,0,0,0,4.19,1.43c1.48,0,2.34-.44,2.34-1.5,0-2.51-7.47-.84-7.22-5.57.09-2.32,1.8-3.7,5.22-3.7a10.49,10.49,0,0,1,4.66,1.21l-1.08,2.17a7.25,7.25,0,0,0-3.7-1.06c-1.21,0-2.22.39-2.17,1.4.15,2,7.32.47,7.32,5.45,0,2.66-2.39,4.05-5.45,4a8.78,8.78,0,0,1-5.3-1.68Z"/><path d="M295.19,223.59v3.78h3.25l-.42,2.46h-2.83v5.92c0,1.41.64,1.95,1.67,1.95a5.72,5.72,0,0,0,1.95-.57l.57,2.34a7.94,7.94,0,0,1-3.28.84c-3,0-4-2-4-4.14v-6.34h-1.8v-2.46h1.95l.37-3.43Z"/><path d="M309.54,221.32v8.22a4.4,4.4,0,0,1,4.32-2.42c2.44.07,5.05,1.73,5.05,6.48,0,3.9-2,6.71-5.45,6.71a4.28,4.28,0,0,1-4.07-2.37l-.42,2.22h-2.49V221.72Zm-.12,12.36c0,2.22.81,4,3.25,4,2,0,3.11-1.5,3.11-4,0-3-1.5-3.95-3.13-3.95S309.42,231.09,309.42,233.68Z"/><path d="M333,236.61a5.78,5.78,0,0,1-5.58,3.7c-4.34,0-6.26-2.71-6.26-6.76s2.71-6.53,6.44-6.43c3,.07,5.74,2.34,5.44,6.46l0,.39h-8.73c0,2.2.93,3.7,3.18,3.7a2.87,2.87,0,0,0,2.78-2Zm-3.14-4.21c.05-2-1-2.94-2.54-2.89a2.89,2.89,0,0,0-2.91,2.89Z"/><path d="M173.46,261.16v12.92h-3.09V263.7h-1.8v-2.54Zm-1.56-5a1.65,1.65,0,0,1,1.83,1.55,1.83,1.83,0,0,1-3.63,0A1.59,1.59,0,0,1,171.9,256.13Z"/><path d="M179,261.16l.47,2.29a4.78,4.78,0,0,1,4.41-2.42c3,0,4.49,2,4.49,4.61v8.44h-3.06v-7.45c0-2-.74-3-2.41-3-2.35,0-3.26,1.9-3.26,4v6.51h-3.06V261.16Z"/><path d="M199.72,255.24v14.62c0,1.38.62,1.75,1.53,1.75a2.42,2.42,0,0,0,1.29-.47l.56,2.2a5.32,5.32,0,0,1-2.78.88c-2.57,0-3.65-1.72-3.65-4.06V255.61Z"/><path d="M208.58,261.16v12.92H205.5V263.7h-1.8v-2.54Zm-1.56-5a1.65,1.65,0,0,1,1.83,1.55,1.83,1.83,0,0,1-3.63,0A1.59,1.59,0,0,1,207,256.13Z"/><path d="M214.15,261.16l.47,2.29A4.79,4.79,0,0,1,219,261c3,0,4.49,2,4.49,4.61v8.44h-3.06v-7.45c0-2-.73-3-2.41-3-2.34,0-3.26,1.9-3.26,4v6.51h-3V261.16Z"/><path d="M238,270.53a5.77,5.77,0,0,1-5.58,3.69c-4.34,0-6.26-2.71-6.26-6.75s2.71-6.54,6.44-6.44c3,.08,5.74,2.34,5.45,6.46l-.05.4h-8.73c0,2.19.93,3.7,3.18,3.7a2.87,2.87,0,0,0,2.78-2Zm-3.14-4.22c0-2-1-2.94-2.54-2.89a2.89,2.89,0,0,0-2.91,2.89Z"/><path d="M247.82,261.16l2.51,9h.2l2.52-9h3.15l2.54,9h.18l2.56-9h3.18l-4.34,12.92h-3l-2.64-8.73h-.2l-2.54,8.73h-3l-4.24-12.92Z"/><path d="M270.66,261.16v12.92h-3.08V263.7h-1.8v-2.54Zm-1.56-5a1.65,1.65,0,0,1,1.83,1.55,1.83,1.83,0,0,1-3.63,0A1.59,1.59,0,0,1,269.1,256.13Z"/><path d="M277.79,257.51v3.77H281l-.42,2.46h-2.83v5.92c0,1.41.64,1.95,1.67,1.95a5.5,5.5,0,0,0,2-.57l.57,2.35a8.15,8.15,0,0,1-3.28.83c-3,0-4-2-4-4.14v-6.34h-1.8v-2.46h1.95l.37-3.43Z"/><path d="M287,255.24v8a4.81,4.81,0,0,1,4.24-2.2c3,0,4.48,2,4.48,4.61v8.44h-3v-7.45c0-2-.74-3-2.42-3-2.34,0-3.25,1.9-3.25,4v6.51h-3.06V255.61Z"/><path d="M307.9,257.51v3.77h3.26l-.42,2.46H307.9v5.92c0,1.41.64,1.95,1.68,1.95a5.5,5.5,0,0,0,1.95-.57l.56,2.35a8.15,8.15,0,0,1-3.28.83c-3,0-4-2-4-4.14v-6.34H303v-2.46H305l.37-3.43Z"/><path d="M317.1,255.24v8a4.83,4.83,0,0,1,4.24-2.2c3,0,4.49,2,4.49,4.61v8.44h-3.06v-7.45c0-2-.74-3-2.42-3-2.34,0-3.25,1.9-3.25,4v6.51H314V255.61Z"/><path d="M340.23,270.53a5.75,5.75,0,0,1-5.57,3.69c-4.34,0-6.26-2.71-6.26-6.75s2.71-6.54,6.43-6.44c3,.08,5.75,2.34,5.45,6.46l0,.4H331.5c0,2.19.94,3.7,3.19,3.7a2.87,2.87,0,0,0,2.78-2Zm-3.13-4.22c0-2-1-2.94-2.54-2.89a2.88,2.88,0,0,0-2.91,2.89Z"/><path d="M229.89,289.15v8.21A4.39,4.39,0,0,1,234.2,295c2.44.07,5.06,1.72,5.06,6.48,0,3.9-1.95,6.71-5.45,6.71a4.28,4.28,0,0,1-4.07-2.37l-.42,2.22h-2.49V289.55Zm-.12,12.36c0,2.21.81,4,3.25,4,2,0,3.11-1.5,3.11-4,0-3-1.51-3.95-3.13-3.95C231.22,297.51,229.77,298.92,229.77,301.51Z"/><path d="M247.77,295c3.23,0,6,2.19,6,6.6,0,3.63-2.14,6.59-6.16,6.59-4.37,0-6.17-3-6.17-6.59C241.48,297.14,244.27,295,247.77,295Zm-3.08,6.6c0,2.05.69,4,3,4,2.09,0,3-1.95,3-4,0-2.86-1.41-4-3-4C246.07,297.53,244.69,298.65,244.69,301.55Z"/><path d="M268.61,289.15V308H266l-.34-2.22a4.53,4.53,0,0,1-4.12,2.37c-3.48.05-5.55-2.84-5.55-6.63,0-4.64,3-6.56,5.53-6.56a4.1,4.1,0,0,1,4,2.44v-7.84Zm-9.42,12.33c0,2.2.86,3.92,3.16,3.92s3.25-1.72,3.25-3.89c0-2.94-1.58-4-3.28-4S259.19,298.65,259.19,301.48Z"/><path d="M273.94,295.07l3.18,9.12h.2l2.91-9.12h3.15l-4.78,13.12c-1.58,4.31-3.06,5.4-7.62,4.44l.54-2.59c2.91.71,3.31,0,4.22-2.49l-4.86-12.48Z"/><path d="M604.85,416.25a12.61,12.61,0,0,0-4.91-1.43c-1.72,0-2.86.52-2.86,1.92,0,3.31,9.23,1.8,9.23,7.65,0,3.55-2.74,5.35-6.34,5.35a10.66,10.66,0,0,1-6.63-2.12l1.52-2.32a8.5,8.5,0,0,0,5,1.82c2.1,0,3.35-.91,3.35-2.39,0-3.43-9.17-2.19-9.17-7.84,0-3.16,2.44-4.68,5.89-4.68a13.68,13.68,0,0,1,6.12,1.67Z"/><path d="M613,413v3.77h3.25l-.42,2.47H613v5.92c0,1.4.64,1.94,1.67,1.94a5.76,5.76,0,0,0,2-.56l.57,2.34a8.1,8.1,0,0,1-3.28.84c-3,0-4-2-4-4.15v-6.33h-1.8v-2.47h1.95l.37-3.43Z"/><path d="M621.35,416.67l.57,2.66c.59-2,2.1-2.83,4.19-2.78a4.78,4.78,0,0,1,1.33.22l-.46,2.68a5.33,5.33,0,0,0-1.85-.24c-2.27.07-3.14,1.82-3.14,3.89v6.49h-3V416.67Z"/><path d="M629.07,417.48a15.46,15.46,0,0,1,4.89-.93c3.89,0,5.32,1.92,5.32,4.93v5.22a.65.65,0,0,0,.62.74,2.5,2.5,0,0,0,1-.14v2a5.05,5.05,0,0,1-2,.4,2.34,2.34,0,0,1-2.34-1.75,5.65,5.65,0,0,1-3.9,1.75c-2.51,0-4.38-1.29-4.41-4s2-4.1,5.25-4.1a19.85,19.85,0,0,1,2.79.25v-.76c0-1.41-.89-2.17-2.66-2.15a10.41,10.41,0,0,0-4,.79Zm7.15,6a14,14,0,0,0-2.51-.14c-1.48.07-2.42.76-2.44,2.07a1.8,1.8,0,0,0,2.09,1.89,5,5,0,0,0,2.86-1Z"/><path d="M647.05,416.67v12.92H644V419.21h-1.8v-2.54Zm-1.55-5a1.64,1.64,0,0,1,1.82,1.55,1.82,1.82,0,0,1-3.62,0A1.59,1.59,0,0,1,645.5,411.64Z"/><path d="M662.24,416.67v11c0,4.29-1.67,6.88-6.41,6.88a13.48,13.48,0,0,1-5.27-1.11l.71-2.32a11,11,0,0,0,4.22,1c2.78,0,3.7-1.38,3.7-3.5v-1.13a4.47,4.47,0,0,1-4,2.05c-3.48.07-5.48-2.57-5.48-6.37,0-4.63,3-6.55,5.53-6.55a4.27,4.27,0,0,1,4.09,2.34l.32-2.22Zm-9.32,6.41c0,2.19.87,3.92,3.16,3.92s3.21-1.73,3.21-3.9c0-2.93-1.56-4-3.24-4S652.92,420.24,652.92,423.08Z"/><path d="M668.46,410.75v8a4.82,4.82,0,0,1,4.24-2.19c3,0,4.49,1.94,4.49,4.61v8.43h-3.06v-7.45c0-2-.74-3-2.41-3-2.35,0-3.26,1.9-3.26,4v6.51H665.4V411.12Z"/><path d="M684.22,413v3.77h3.26l-.42,2.47h-2.84v5.92c0,1.4.64,1.94,1.68,1.94a5.76,5.76,0,0,0,2-.56l.56,2.34a8.1,8.1,0,0,1-3.28.84c-3,0-4-2-4-4.15v-6.33h-1.8v-2.47h1.95l.37-3.43Z"/><path d="M618,460a5.77,5.77,0,0,1-5.58,3.7c-4.34,0-6.26-2.71-6.26-6.76s2.71-6.53,6.44-6.43c3,.07,5.74,2.34,5.45,6.46l0,.39h-8.73c0,2.2.93,3.7,3.18,3.7a2.89,2.89,0,0,0,2.79-2Zm-3.13-4.21c0-2-1-2.94-2.54-2.89a2.87,2.87,0,0,0-2.91,2.89Z"/><path d="M623.75,444.66v14.63c0,1.38.61,1.75,1.52,1.75a2.46,2.46,0,0,0,1.29-.47l.56,2.19a5.31,5.31,0,0,1-2.78.89c-2.57,0-3.65-1.73-3.65-4.07V445Z"/><path d="M631.64,444.66v8.22a4.39,4.39,0,0,1,4.31-2.42c2.44.07,5.06,1.72,5.06,6.48,0,3.9-2,6.71-5.45,6.71a4.27,4.27,0,0,1-4.07-2.37l-.42,2.22h-2.49V445.06ZM631.51,457c0,2.22.82,4,3.26,4,2,0,3.11-1.5,3.11-4,0-3-1.51-4-3.14-4S631.51,454.43,631.51,457Z"/><path d="M649.52,450.46c3.23,0,6,2.19,6,6.61,0,3.62-2.15,6.58-6.16,6.58-4.37,0-6.17-3-6.17-6.58C643.23,452.65,646,450.46,649.52,450.46Zm-3.08,6.61c0,2,.69,4,3,4,2.1,0,3-1.95,3-4,0-2.86-1.41-4-3-4S646.44,454.16,646.44,457.07Z"/><path d="M659.61,450.58l2.51,9h.2l2.51-9H668l2.54,9h.17l2.57-9h3.18l-4.34,12.92h-3l-2.64-8.73h-.2l-2.54,8.73h-3l-4.24-12.92Z"/><path d="M678.3,459.8a6.73,6.73,0,0,0,4.2,1.43c1.47,0,2.34-.44,2.34-1.5,0-2.51-7.47-.84-7.23-5.57.1-2.32,1.8-3.7,5.23-3.7a10.49,10.49,0,0,1,4.66,1.21l-1.08,2.17a7.3,7.3,0,0,0-3.7-1.06c-1.21,0-2.22.39-2.17,1.4.14,2.05,7.32.47,7.32,5.45,0,2.66-2.39,4.05-5.45,4a8.78,8.78,0,0,1-5.3-1.68Z"/><path d="M586.88,442.37c-9.62,5.72-19.3,11.39-29.1,16.81a59.28,59.28,0,0,1-5.47,2.87,1.51,1.51,0,0,0-.54,2.05,1.54,1.54,0,0,0,2.05.54c4.3-1.83,8.37-4.47,12.41-6.78q8.44-4.83,16.83-9.76c1.78-1,3.56-2.08,5.34-3.14a1.5,1.5,0,0,0-1.52-2.59Z"/><path d="M554.26,453.55c-1.67,3.57-3,7.27-4.38,10.94-.38,1,.58,1.8,1.45,1.9,1.87.22,3.73.52,5.59.76.94.12,1.87.23,2.81.31l.54.05.32,0h.06l1.3.18a1.54,1.54,0,0,0,1.84-1.05,1.5,1.5,0,0,0-1-1.84c-1.87-.26-3.75-.43-5.62-.67s-3.86-.57-5.8-.79l1.44,1.9c1.3-3.43,2.52-6.9,4.08-10.22a1.54,1.54,0,0,0-.54-2.05,1.51,1.51,0,0,0-2,.53Z"/><path d="M346.07,248.59a53.16,53.16,0,0,1,31.42,21.71,91.22,91.22,0,0,1,6.76,12.2c.85,1.8,3.53.23,2.68-1.57-3.31-7-7.24-13.84-12.59-19.53a54,54,0,0,0-16.28-11.83,62.37,62.37,0,0,0-11.17-4c-1.93-.49-2.76,2.5-.82,3Z"/><path d="M375.13,280.45c3.84,1.72,7.81,3.09,11.75,4.53,1,.38,1.88-.58,2-1.5.19-2.05.44-3.76.67-5.83.19-1.75.3-3.5.49-5.24a1.55,1.55,0,0,0-1.55-1.55,1.59,1.59,0,0,0-1.55,1.55c-.2,1.74-.31,3.49-.5,5.24-.21,1.94-.49,3.88-.67,5.83l2-1.49c-3.69-1.35-7.43-2.61-11-4.22a1.6,1.6,0,0,0-2.12.56,1.56,1.56,0,0,0,.56,2.12Z"/><circle cx="79" cy="61.53" r="34.44"/><path class="cls-8" d="M82.51,47.08s-.12,20.87,0,24.37c0,.77.19,1,.73,1l5.08.54-.08,2.23H71.92L72,73l4.46-.58c.58,0,.81-.23.81-1,.08-10,0-19.6,0-19.6l-5.62,1.08c-.19-.31-1.12-2.46-.46-2.73l10.35-4Z"/><path d="M146.19,54.39l-.27,3.12h-5.55V75.39h-3.75V57.51h-5.76V54.39Z"/><path d="M152.34,52.47v9.72a5.86,5.86,0,0,1,5.16-2.67c3.69,0,5.46,2.37,5.46,5.61V75.39h-3.72V66.33c0-2.4-.9-3.69-2.94-3.69-2.85,0-4,2.31-4,4.83v7.92h-3.72V52.92Z"/><path d="M180.48,71.07a7,7,0,0,1-6.78,4.5c-5.28,0-7.62-3.3-7.62-8.22s3.3-7.95,7.83-7.83c3.69.09,7,2.85,6.63,7.86l-.06.48H169.86c0,2.67,1.14,4.5,3.87,4.5a3.5,3.5,0,0,0,3.39-2.49Zm-3.81-5.13c.06-2.43-1.26-3.57-3.09-3.51A3.5,3.5,0,0,0,170,65.94Z"/><path d="M190.5,70.89a8.15,8.15,0,0,0,5.1,1.74c1.8,0,2.85-.54,2.85-1.83,0-3.06-9.09-1-8.79-6.78.12-2.82,2.19-4.5,6.36-4.5A12.78,12.78,0,0,1,201.69,61l-1.32,2.64a8.9,8.9,0,0,0-4.5-1.29c-1.47,0-2.7.48-2.64,1.71.18,2.49,8.91.57,8.91,6.63,0,3.24-2.91,4.92-6.63,4.89a10.76,10.76,0,0,1-6.45-2Z"/><path d="M210,55.23v4.59h4l-.51,3H210V70c0,1.71.78,2.37,2,2.37a6.83,6.83,0,0,0,2.37-.69l.69,2.85a9.82,9.82,0,0,1-4,1c-3.69,0-4.83-2.46-4.83-5V62.82h-2.19v-3h2.37l.45-4.17Z"/><path d="M217.32,60.66a18.74,18.74,0,0,1,5.94-1.14c4.74,0,6.48,2.34,6.48,6v6.36a.79.79,0,0,0,.75.9,3,3,0,0,0,1.23-.18v2.49a6.08,6.08,0,0,1-2.49.48,2.84,2.84,0,0,1-2.85-2.13,6.87,6.87,0,0,1-4.74,2.13c-3.06,0-5.34-1.56-5.37-4.83s2.46-5,6.39-5a24.49,24.49,0,0,1,3.39.3v-.93c0-1.71-1.08-2.64-3.24-2.61a12.68,12.68,0,0,0-4.86,1ZM226,68a16.62,16.62,0,0,0-3.06-.18c-1.8.09-2.94.93-3,2.52a2.21,2.21,0,0,0,2.55,2.31A6.17,6.17,0,0,0,226,71.4Z"/><path d="M237.24,59.67l.69,3.24c.72-2.4,2.55-3.45,5.1-3.39a6.19,6.19,0,0,1,1.62.27l-.57,3.27a6.48,6.48,0,0,0-2.25-.3C239.07,62.85,238,65,238,67.5v7.89H234.3V59.67Z"/><path d="M252.54,55.23v4.59h4l-.51,3h-3.45V70c0,1.71.78,2.37,2,2.37A6.83,6.83,0,0,0,257,71.7l.69,2.85a9.82,9.82,0,0,1-4,1c-3.69,0-4.83-2.46-4.83-5V62.82h-2.19v-3H249l.45-4.17Z"/><path d="M269.25,59.67l.54,2.82a5.71,5.71,0,0,1,5.37-3c3,.09,6.18,2.1,6.18,7.89,0,4.74-2.37,8.16-6.66,8.16A4.88,4.88,0,0,1,270,73v8.37h-3.75V59.67Zm.51,7.83c0,2.7,1,4.86,4,4.86,2.43,0,3.78-1.83,3.78-4.92,0-3.66-1.83-4.8-3.81-4.8C271.56,62.64,269.76,64.35,269.76,67.5Z"/><path d="M291.69,59.52c3.93,0,7.35,2.67,7.35,8,0,4.41-2.61,8-7.5,8-5.31,0-7.5-3.6-7.5-8C284,62.19,287.43,59.52,291.69,59.52Zm-3.75,8c0,2.49.84,4.86,3.66,4.86,2.55,0,3.69-2.37,3.69-4.86,0-3.48-1.71-4.89-3.6-4.89C289.62,62.67,287.94,64,287.94,67.56Z"/><path d="M302.76,70.89a8.15,8.15,0,0,0,5.1,1.74c1.8,0,2.85-.54,2.85-1.83,0-3.06-9.09-1-8.79-6.78.12-2.82,2.19-4.5,6.36-4.5A12.78,12.78,0,0,1,314,61l-1.32,2.64a8.9,8.9,0,0,0-4.5-1.29c-1.47,0-2.7.48-2.64,1.71.18,2.49,8.91.57,8.91,6.63,0,3.24-2.91,4.92-6.63,4.89a10.76,10.76,0,0,1-6.45-2Z"/><path d="M322.32,59.67V75.39h-3.75V62.76h-2.19V59.67Zm-1.89-6.12a2,2,0,0,1,2.22,1.89,2.22,2.22,0,0,1-4.41,0A1.93,1.93,0,0,1,320.43,53.55Z"/><path d="M331,55.23v4.59h4l-.51,3H331V70c0,1.71.78,2.37,2,2.37a6.83,6.83,0,0,0,2.37-.69l.69,2.85a9.82,9.82,0,0,1-4,1c-3.69,0-4.83-2.46-4.83-5V62.82h-2.19v-3h2.37l.45-4.17Z"/><path d="M343.35,59.67V75.39H339.6V62.76h-2.19V59.67Zm-1.89-6.12a2,2,0,0,1,2.22,1.89,2.22,2.22,0,0,1-4.41,0A1.93,1.93,0,0,1,341.46,53.55Z"/><path d="M354.27,59.52c3.93,0,7.35,2.67,7.35,8,0,4.41-2.61,8-7.5,8-5.31,0-7.5-3.6-7.5-8C346.62,62.19,350,59.52,354.27,59.52Zm-3.75,8c0,2.49.84,4.86,3.66,4.86,2.55,0,3.69-2.37,3.69-4.86,0-3.48-1.71-4.89-3.6-4.89C352.2,62.67,350.52,64,350.52,67.56Z"/><path d="M367.86,59.67l.57,2.79a5.8,5.8,0,0,1,5.37-2.94c3.69,0,5.46,2.37,5.46,5.61V75.39h-3.72V66.33c0-2.4-.9-3.69-2.94-3.69-2.85,0-4,2.31-4,4.83v7.92h-3.72V59.67Z"/><path d="M394.2,59.67V75.39h-3.75V62.76h-2.19V59.67Zm-1.89-6.12a2,2,0,0,1,2.22,1.89,2.22,2.22,0,0,1-4.41,0A1.93,1.93,0,0,1,392.31,53.55Z"/><path d="M398.46,70.89a8.15,8.15,0,0,0,5.1,1.74c1.8,0,2.85-.54,2.85-1.83,0-3.06-9.09-1-8.79-6.78.12-2.82,2.19-4.5,6.36-4.5A12.78,12.78,0,0,1,409.65,61l-1.32,2.64a8.9,8.9,0,0,0-4.5-1.29c-1.47,0-2.7.48-2.64,1.71.18,2.49,8.91.57,8.91,6.63,0,3.24-2.91,4.92-6.63,4.89a10.76,10.76,0,0,1-6.45-2Z"/><path d="M419.64,60.66a18.74,18.74,0,0,1,5.94-1.14c4.74,0,6.48,2.34,6.48,6v6.36a.79.79,0,0,0,.75.9A3,3,0,0,0,434,72.6v2.49a6.08,6.08,0,0,1-2.49.48,2.84,2.84,0,0,1-2.85-2.13A6.87,6.87,0,0,1,424,75.57c-3.06,0-5.34-1.56-5.37-4.83s2.46-5,6.39-5a24.49,24.49,0,0,1,3.39.3v-.93c0-1.71-1.08-2.64-3.24-2.61a12.68,12.68,0,0,0-4.86,1Zm8.7,7.35a16.62,16.62,0,0,0-3.06-.18c-1.8.09-2.94.93-3,2.52a2.21,2.21,0,0,0,2.55,2.31,6.17,6.17,0,0,0,3.48-1.26Z"/><path d="M440.34,52.47V70.26c0,1.68.75,2.13,1.86,2.13a2.93,2.93,0,0,0,1.56-.57l.69,2.67a6.47,6.47,0,0,1-3.39,1.08c-3.12,0-4.44-2.1-4.44-4.95V52.92Z"/><path d="M448.83,52.47V70.26c0,1.68.75,2.13,1.86,2.13a2.93,2.93,0,0,0,1.56-.57l.69,2.67a6.47,6.47,0,0,1-3.39,1.08c-3.12,0-4.44-2.1-4.44-4.95V52.92Z"/><path d="M461.22,60.66a18.74,18.74,0,0,1,5.94-1.14c4.74,0,6.48,2.34,6.48,6v6.36a.79.79,0,0,0,.75.9,3,3,0,0,0,1.23-.18v2.49a6.1,6.1,0,0,1-2.5.48,2.84,2.84,0,0,1-2.84-2.13,6.87,6.87,0,0,1-4.74,2.13c-3.06,0-5.34-1.56-5.37-4.83s2.46-5,6.39-5a24.49,24.49,0,0,1,3.39.3v-.93c0-1.71-1.08-2.64-3.24-2.61a12.68,12.68,0,0,0-4.86,1Zm8.7,7.35a16.62,16.62,0,0,0-3.06-.18c-1.8.09-2.94.93-3,2.52a2.21,2.21,0,0,0,2.55,2.31,6.17,6.17,0,0,0,3.48-1.26Z"/><path d="M481.92,52.47v10a5.37,5.37,0,0,1,5.25-2.94c3,.09,6.14,2.1,6.14,7.89,0,4.74-2.36,8.16-6.62,8.16a5.2,5.2,0,0,1-4.95-2.88l-.51,2.7h-3V53Zm-.15,15c0,2.7,1,4.86,4,4.86,2.46,0,3.77-1.83,3.77-4.92,0-3.66-1.82-4.8-3.8-4.8C483.54,62.64,481.77,64.35,481.77,67.5Z"/><path d="M503.67,59.52c3.92,0,7.34,2.67,7.34,8,0,4.41-2.61,8-7.5,8-5.3,0-7.49-3.6-7.49-8C496,62.19,499.41,59.52,503.67,59.52Zm-3.75,8c0,2.49.83,4.86,3.66,4.86,2.54,0,3.68-2.37,3.68-4.86,0-3.48-1.71-4.89-3.59-4.89C501.59,62.67,499.92,64,499.92,67.56Z"/><path d="M517.82,59.67v9.06c0,2.4,1,3.69,3.15,3.69,2.85,0,4-2.94,4-5.91V59.67h3.72V75.39h-3L525.2,72a5.73,5.73,0,0,1-5.43,3.6c-3.84,0-5.67-2.37-5.67-6.33V59.67Z"/><path d="M537.38,55.23v4.59h4l-.51,3h-3.45V70c0,1.71.78,2.37,2,2.37a6.83,6.83,0,0,0,2.37-.69l.69,2.85a9.82,9.82,0,0,1-4,1c-3.69,0-4.83-2.46-4.83-5V62.82h-2.19v-3h2.37l.45-4.17Z"/><path d="M554.09,59.67l.54,2.82a5.71,5.71,0,0,1,5.37-3c3,.09,6.18,2.1,6.18,7.89,0,4.74-2.37,8.16-6.66,8.16A4.88,4.88,0,0,1,554.87,73v8.37h-3.75V59.67Zm.51,7.83c0,2.7,1,4.86,4,4.86,2.43,0,3.78-1.83,3.78-4.92,0-3.66-1.83-4.8-3.81-4.8C556.4,62.64,554.6,64.35,554.6,67.5Z"/><path d="M576.53,59.52c3.93,0,7.35,2.67,7.35,8,0,4.41-2.61,8-7.5,8-5.31,0-7.5-3.6-7.5-8C568.88,62.19,572.27,59.52,576.53,59.52Zm-3.75,8c0,2.49.84,4.86,3.66,4.86,2.55,0,3.69-2.37,3.69-4.86,0-3.48-1.71-4.89-3.6-4.89C574.46,62.67,572.78,64,572.78,67.56Z"/><path d="M587.6,70.89a8.15,8.15,0,0,0,5.1,1.74c1.8,0,2.85-.54,2.85-1.83,0-3.06-9.09-1-8.79-6.78.12-2.82,2.19-4.5,6.36-4.5A12.78,12.78,0,0,1,598.79,61l-1.32,2.64a8.9,8.9,0,0,0-4.5-1.29c-1.47,0-2.7.48-2.64,1.71.18,2.49,8.91.57,8.91,6.63,0,3.24-2.91,4.92-6.63,4.89a10.76,10.76,0,0,1-6.45-2Z"/><path d="M607.1,55.23v4.59h4l-.51,3H607.1V70c0,1.71.78,2.37,2,2.37a6.83,6.83,0,0,0,2.37-.69l.69,2.85a9.82,9.82,0,0,1-4,1c-3.69,0-4.83-2.46-4.83-5V62.82h-2.19v-3h2.37l.45-4.17Z"/><path d="M617.69,59.67v9.06c0,2.4,1,3.69,3.15,3.69,2.85,0,4-2.94,4-5.91V59.67h3.72V75.39h-3L625.07,72a5.73,5.73,0,0,1-5.43,3.6c-3.84,0-5.67-2.37-5.67-6.33V59.67Z"/><path d="M635.36,59.67l.69,3.24c.72-2.4,2.55-3.45,5.1-3.39a6.19,6.19,0,0,1,1.62.27l-.57,3.27a6.48,6.48,0,0,0-2.25-.3c-2.76.09-3.81,2.22-3.81,4.74v7.89h-3.72V59.67Z"/><path d="M658.34,71.07a7,7,0,0,1-6.78,4.5c-5.28,0-7.62-3.3-7.62-8.22s3.3-7.95,7.83-7.83c3.69.09,7,2.85,6.63,7.86l-.06.48H647.72c0,2.67,1.14,4.5,3.87,4.5A3.5,3.5,0,0,0,655,69.87Zm-3.81-5.13c.06-2.43-1.26-3.57-3.09-3.51a3.5,3.5,0,0,0-3.54,3.51Z"/></svg>