<svg id="Layer_1" data-name="Layer 1" xmlns="http://www.w3.org/2000/svg" viewBox="0 0 780 1051.14"><defs><style>.cls-1{fill:#fff171;stroke-width:0.3px;}.cls-1,.cls-3,.cls-4,.cls-5,.cls-6{stroke:#fff;stroke-miterlimit:10;}.cls-2,.cls-3,.cls-6{fill:#d4a47c;}.cls-3,.cls-4{stroke-width:0.27px;}.cls-4{fill:#c6946f;}.cls-5{fill:#005058;stroke-width:0.42px;}.cls-6{stroke-width:0.36px;}.cls-7{fill:#fff;}</style></defs><path class="cls-1" d="M478.29,451.12A105.68,105.68,0,0,1,474.75,441a95.69,95.69,0,0,1,.18,24.56c-1.11,9.89-3.41,19.85-7.6,28.27a39.39,39.39,0,0,1-3.49,5.81q-1,1.35-2.1,2.55c-1.15,1.24-.67,3.13-1.15,4.86-.6,2.17,2,3.1,2.63,1a14.39,14.39,0,0,0,.43-3.28c5.41-5.89,8.87-14.51,11.13-23.11a111.39,111.39,0,0,0,3.52-30.07C478.3,451.38,478.29,451.25,478.29,451.12Z"/><path class="cls-1" d="M474.5,439.29l0,0a82.11,82.11,0,0,0-14.72-9.55c-2.4-1.27-4.81-2.69-7.53-3.13-10.23-1.66-20,3-27.65,9.33-2.51,2.07-5.07,4.48-6.47,7.48-.61,1.3-2.09,7.09,1.21,7.13.44,0,2.86-5.47,3.63-6.38,5.53-6.53,12.73-12.74,21.69-13.31,2.65-.16,5.54-.62,8.12.18a36.49,36.49,0,0,1,6.75,3.33c2.36,1.32,4.59,2.83,6.92,4.18a46.6,46.6,0,0,1,6.62,5c1.22,1,2.4,2.08,3.62,3.1C475.83,444.18,475.15,441.68,474.5,439.29Z"/><path class="cls-2" d="M454.43,402.89c-6.37-4.06-30.06.8-29.89,7.45,0,.92-3,5.73-3.62,6.42"/><path class="cls-2" d="M421.62,416.51a6.89,6.89,0,0,1-.43,2.23c-.44,1.63-1.48,3.05-1.87,4.69-.34,1.43-.87,2.78-1.13,4.23a19.72,19.72,0,0,1-1.47,3.84,32.24,32.24,0,0,0-1.25,4.39c-.4,1.59-1,3.1-1.38,4.69a29.33,29.33,0,0,0-.46,5c-.22,4.14-.34,8.31-.2,12.45a12,12,0,0,0,.72,4.2,34.06,34.06,0,0,0,2,4,36,36,0,0,0,3.15,4.46,28.61,28.61,0,0,0,10.85,8.93,14.47,14.47,0,0,0,5.22,1.76,12.62,12.62,0,0,0,3.73.15,6.68,6.68,0,0,0,3-1.58c2.89-2.24,12,1.34,13.27-2,1.16-3,9.47-10,9.66-13.16s.65-10.3,0-13.55c-.34-1.74,4.34-6.42,3.69-8.09-1.32-3.36-2.11-11.95-3.79-15.16"/><path class="cls-3" d="M442.26,378.87c-1.51-1.09-3-2.18-4.45-3.27s-3.21-1.88-4.31-3.27a4.51,4.51,0,0,1-1.14-2.46,47.73,47.73,0,0,0-1-9.08c-.31-1.29-.55-2.09-.9-3.38s-1.2-3.72-.33-4.85,2.21,0,3.23.43c.84.35,1.74.26,2.6.53a7.51,7.51,0,0,0,1.87.64,6.21,6.21,0,0,0,4.32-1.38c1.24-1.24,1.11-3.22,2.14-4.56a5.83,5.83,0,0,1,1.75-1.28,2.56,2.56,0,0,1-1-1.29c-1.41-3.65-.26-7.41-.4-11.17a19.69,19.69,0,0,0-3.43,0,28.56,28.56,0,0,1-5.39-.16c-1.61-.18-3.06.11-4.27-.95-.93-.81-1.28-2.08-2.21-2.89a22.16,22.16,0,0,1-2-1.51,31.37,31.37,0,0,1-2.32-3.2c-1.71-2.37-3.68-4.64-5.5-6.94a24.22,24.22,0,0,0-7-6.24,19.48,19.48,0,0,0-9.23-2.35,43.9,43.9,0,0,0-7.42.33,72.73,72.73,0,0,0-10.51,2.62c-3.86,1.25-7.73,4.06-10.71,6.75-2.22,2-4.64,3.58-6.65,5.85a25.29,25.29,0,0,0-4.38,7.94c-.92,2.43-2.47,4.25-3.94,6.29-.74,1-1,2.32-1.72,3.43a28.87,28.87,0,0,0-2.42,4c-1.23,2.78-.4,5.23.37,7.94.52,1.82,1.59,3.31,2.08,5.14a13.79,13.79,0,0,0,1,2.55c.45.92.61,1.88,1.07,2.81.22.45.58.72.82,1.18s.11.87.45,1.29a20.26,20.26,0,0,0,2.52,1.9,27,27,0,0,1,2.77,2.44,2.7,2.7,0,0,0,.28.29c0,.05-.07.19,0,.54a12.13,12.13,0,0,1-.23,2.81c-.27,2.4-.72,2.54-.76,5.31a27.29,27.29,0,0,0,.36,5.17,3.41,3.41,0,0,0,4.58,2.64,1.87,1.87,0,0,1,1.26,0,4.77,4.77,0,0,1,3,1.8,19,19,0,0,0,1.38,2.69,18.28,18.28,0,0,0,4.12,3.74c1.28.83,2.25.8,2.72,2.23.34,1,.63,2.11.93,3.15.56,2,1.64,3.63,3.88,3.68,3,.07,6.8-2.54,9.39-3.78,4.54-2.16,10.31-8.35,14.78-2.73l1.15.55c-1.15-.55,7.88,7.55,7.83,9-.07,2,1,4.55.67,6.22-.21.89,4.77-2.81,4.47-1.89,1.15,0,.45-2.84,1.44-3.5,1.3-.88,2.8-1.45,4.17-2.21l3.81,4.32a18.23,18.23,0,0,0,3.5,4.62c.82.84,1.31,1.89,2.08,2.79s1.69,1.54,2.38,2.49c3.21,4.47,4.65,9.88,6.1,15.08,2.18,7.76-17,23.64-14.84,31.39,1.31,4.73,11.83,4.91,13.66,9.5s1.67,9,2.78,13.73c.84,3.58-.26,5.25.37,8.87.42,2.41,7.68,4.1,8.15,6.49.66,3.32,3.33,5.88,3.89,9.26.24,1.43,6,2.17,6.06,3.6.13,2.1.18,4.19.23,6.29.06,2.71,1,4.6,2.28,6.91,1.5,2.71,4.35,3.84,6.87,5.34s4.92,2.08,7.37,3.27c.79.38,2.19,1.43,3,1s.44-1.42.4-2.14c-.05-1-.1-1.94-.12-2.91s.39-2.08.4-3.18a21,21,0,0,1,0-2.75,17.58,17.58,0,0,0,.26-2.81c-.07-2.75.58-5.53.64-8.28,0-1.29.42-2.47.39-3.77a16.42,16.42,0,0,1,.29-5c4.21-15.43.95-35.48.69-51.43a102.15,102.15,0,0,0-4.39-27.65,114,114,0,0,0-5.53-15.58c-4.47-9.57-12.11-16.66-19.69-23.75-3.39-3.18-6.64-6.53-10.17-9.57-1.05-.91-8.44-4.4-9.57-5.3Z"/><path d="M370.15,362.36c.35-.05.71-.06,1.07-.09.21,0,.64,0,.8.15s.08.07,0,.14a.89.89,0,0,1-.29.09l-.3.15c-.38.23-.73.49-1.11.72a6.89,6.89,0,0,1-.64.4c-1.41.71-3.1,1-4.42,1.84a6.29,6.29,0,0,0-2,3.62c-.42-.3-2.29-.92-2.15-1.48.2-.78,2-2.19,2.47-2.86a6.54,6.54,0,0,1,3.83-2.42C368.34,362.46,369.26,362.5,370.15,362.36Z"/><path d="M441.56,330.76c-2.48-.28-5.2-.13-7.61-.7-7.68-1.82-11.28-10.55-17.45-15.48-5.07-4.06-11.92-5.41-18.39-4.81s-12.64,3-18.53,5.72c-5.45,2.54-10.83,5.49-15.06,9.77-2.85,2.88-9.86,12.5-6.6,16.77s13,2.35,17.21,6.44c2.15,2.08,3.31,5.13,5.8,6.79a24.78,24.78,0,0,0,4.1,1.84c2.5,1.07,4.71,2.79,7.27,3.7s5.83.77,7.53-1.35a11.21,11.21,0,0,1-2-5.41c0-2,1.22-1.89,3.12-2.3,2.61-.58,4.69,0,5.48,2.52s1,5.49,2.94,7.37c2.07,2,5.3,2.08,8.19,2l14.9-.36c.84-2.86-2.56-5.79-1.55-8.6.75-2.12,3.42-2.65,5.59-3.27a18.38,18.38,0,0,0,10.09-7.33c2.24-3.31,3.16-8.18.4-11.07A8.38,8.38,0,0,0,441.56,330.76Z"/><path d="M357.87,342.92l.51-.77a1.77,1.77,0,0,0-.17-.12A2.74,2.74,0,0,0,357.87,342.92Z"/><path class="cls-3" d="M397.72,361.73c-4.88-2-1.85-9.9,1.94-11.14a6.56,6.56,0,0,1,7.92,4c1.09,3.21-.49,6.82.4,10.09.47,1.72,1.63,3.36,1.33,5.13s-3.4,2.56-3.62.79"/><path d="M430.92,337.78a7.16,7.16,0,0,0,.83-3.29,12.07,12.07,0,0,1,1.24-3.78,6.13,6.13,0,0,1,3.13-3.21,6.64,6.64,0,0,1,4-.23,6.35,6.35,0,0,1,3.25,1.59c.79,1,1,3.14,1.35,4.36a6.75,6.75,0,0,1-.62,4.52,6,6,0,0,1-3.09,3.5,19.71,19.71,0,0,1-10.58.39c-1.71-.33-3.15-2.25-3.95-3.74s-1.67-4.18-1.38-5.89c.55-3.29,4.52-4.47,7.35-4.63,1.7-.09,3.41,0,4.62,1.38a9.73,9.73,0,0,1,1.82,4,18.23,18.23,0,0,1,1.08,4.91,6.44,6.44,0,0,1-.15,2.63,21,21,0,0,0-1,2.79,8.2,8.2,0,0,1-1.4,3,3.29,3.29,0,0,1-2.12,1.38,10.46,10.46,0,0,1-3,.43c-.64,0-1.26-.23-1.89-.27-1.11-.08-1.12-.13-1.54-1.29"/><path d="M430.14,337.14c-.94-1.09-.8-2.37-.58-3.67a6.19,6.19,0,0,0,.17-1.37,1.84,1.84,0,0,1,.85-1.73c1.42-1.16,3.61-1.22,5.32-1.35a6.44,6.44,0,0,1,2.19,0c.66.18,1.23.6,1.87.77a4.63,4.63,0,0,1,1.11.21c.39.21.64.56,1,.75s.66.2,1,.57a10.46,10.46,0,0,1,.74,1,5,5,0,0,1,1.05,2,15.25,15.25,0,0,1,.15,2.34,6.25,6.25,0,0,1-.19,1.05c-.08.43,0,.87-.09,1.29a6.26,6.26,0,0,1-2,2.9c-1.53,1.61-4.07,2.2-6.17,2.73a11.55,11.55,0,0,1-5,.09,27.67,27.67,0,0,1-2.67-.86,10.41,10.41,0,0,1-2.42-1,8.51,8.51,0,0,1-2.09-2,19.16,19.16,0,0,1-1.8-2.51,6.09,6.09,0,0,1-.59-2.94,8.33,8.33,0,0,0,.2-1.59,5.42,5.42,0,0,1-.08-1.66,6.61,6.61,0,0,1,3-4.81,20.78,20.78,0,0,1,3.84-2c.88-.28,1.77-.51,2.66-.78a5.82,5.82,0,0,1,2.93-.11,4.22,4.22,0,0,1,1.65.54,5.36,5.36,0,0,1,1.41.89c1,1.26,1,2.84,1.7,4.18a6.59,6.59,0,0,1,.47.77c.16.45.27.93.4,1.39a10.16,10.16,0,0,1,.55,2.27,6.89,6.89,0,0,1-.26,2.63,3.57,3.57,0,0,1-1.95,2.24,9.75,9.75,0,0,1-3.36,1.52,12.88,12.88,0,0,1-4.91-.09,9.87,9.87,0,0,1-4.62-1.87,11.08,11.08,0,0,1-2-1.73,11.55,11.55,0,0,1-1-2.13c-.65-1.54-.12-3.32.19-4.86.06-.3.08-1.07.3-1.31s.64-.22.87-.29"/><path d="M431.44,351.37c-.94-1.09-.8-2.37-.57-3.67a6.76,6.76,0,0,0,.16-1.37,1.85,1.85,0,0,1,.85-1.73c1.42-1.15,3.61-1.21,5.32-1.35a6.19,6.19,0,0,1,2.19.05c.66.17,1.23.59,1.87.76a4.2,4.2,0,0,1,1.11.22c.39.2.64.55,1,.74a2.5,2.5,0,0,1,1,.58,9.23,9.23,0,0,1,.74,1,5.1,5.1,0,0,1,1,2,15.38,15.38,0,0,1,.15,2.35,6.32,6.32,0,0,1-.19,1c-.08.43,0,.87-.09,1.3a6.18,6.18,0,0,1-2,2.89c-1.53,1.61-4.07,2.21-6.17,2.73a11.55,11.55,0,0,1-5,.1c-.92-.23-1.78-.56-2.67-.87a9.6,9.6,0,0,1-2.42-1,8.32,8.32,0,0,1-2.09-2,19.06,19.06,0,0,1-1.8-2.5,6.11,6.11,0,0,1-.59-2.94,8.54,8.54,0,0,0,.2-1.59,5.49,5.49,0,0,1-.08-1.67,6.59,6.59,0,0,1,3-4.8,20.78,20.78,0,0,1,3.84-2c.88-.29,1.78-.52,2.66-.79a5.94,5.94,0,0,1,2.93-.11,4.22,4.22,0,0,1,1.65.54,5.36,5.36,0,0,1,1.41.89c1,1.27,1,2.85,1.7,4.19a5.72,5.72,0,0,1,.47.76c.17.45.27.94.4,1.39a10.11,10.11,0,0,1,.55,2.28,6.85,6.85,0,0,1-.26,2.62,3.61,3.61,0,0,1-1.95,2.25,9.94,9.94,0,0,1-3.36,1.52,12.88,12.88,0,0,1-4.91-.09,10,10,0,0,1-4.61-1.87,11.19,11.19,0,0,1-2-1.73,12.2,12.2,0,0,1-1-2.13c-.64-1.54-.12-3.32.19-4.87.06-.3.08-1.06.3-1.31s.64-.22.87-.29"/><path class="cls-1" d="M481.66,415.14c-.65-1.53-1.5-3.5-1.5-3.58-1.47-3.23-4.16-3.79-5.32-7.24,1.51,8,5.3,18.66,4.69,26.77-.75,10-2.68,20-6.56,28.63a40.67,40.67,0,0,1-3.29,6,29.41,29.41,0,0,1-2,2.63c-.82,1-7.22,7.17-10.63,11a7.33,7.33,0,0,1,1.27,2.11c.09.13.16.27.24.41,2.83-2.94,11.13-10.12,11.13-11.06,5.21-6.11,8.35-14.88,10.29-23.59a111.67,111.67,0,0,0,2.41-30.28c0-.05-.32-.83-.72-1.77"/><path class="cls-4" d="M483.76,881.41c.14-3,.44-6.06.82-9.19,1.6-13.39,1.39-27.14,1.48-40.46a17.51,17.51,0,0,1-.2-2.39c.09-.7.44-1,.47-1.85,0-1.15-.53-2.12-.21-3.27a9.66,9.66,0,0,0,.75-2.43,73.85,73.85,0,0,0,.1-9.29c-.22-3.23.28-6.6.41-9.84.21-5-.77-10.27-1.29-15.27-.45-4.41-.82-8.84-1.35-13.24-.67-5.55-4.7-10.14-6-15.61-1.66-6.94,2.27-14.79,3.43-21.61a231.68,231.68,0,0,0,3.5-41.81c-.2-13.91-1.82-28.42,3.61-41.23,3.53-8.34,9.8-15.23,13.86-23.32a49.1,49.1,0,0,0-17.81-63.7c-6.47-4.06-14.05-6.59-21.69-6.29-10.56.43-20.34,6.23-27.66,13.85-11,11.48-10.58,20.82-13.63,35.58-4.51,21.87-8.9,44.2-7.3,66.64,1,14.69,5.55,28.53,9.57,42.55a191.58,191.58,0,0,1,5.64,24.15c1,6.86-.47,9.58.94,16.44,2.85,13.88,12.94,11.71,16.37,39.86,1.26,10.33,3.71,21.55,5.83,31.74A111.8,111.8,0,0,1,456,854.18c0,2.85-.63,5.61-.78,8.43-.6,12-.89,24.78-3.39,36.6-1.38,6.55-6.17,11.25-8.21,17.44-.56,1.71-1.31,3.31-1.89,5a60.53,60.53,0,0,1-2.61,6.22,24.32,24.32,0,0,1-4.15,5.35c-3.08,3.49-5.87,8.21-10.14,10.45-2,1-4,1.93-5.93,3.06-1.29.75-3.5,2.37-4.1,3.83-.75,1.83,2.2,3.53,3.69,4,1.72.51,4.54.26,6.35.12,1.31-.11,1.55-.77,2.64-1.48a8.8,8.8,0,0,1,2.87-1.18,14.85,14.85,0,0,1,4.51-.14,25,25,0,0,0,3.28.59c1.11,0,2.24,0,3.36,0a22.56,22.56,0,0,0,7.13-1.68c2.36-.87,3.81-2.76,5.58-4.5s2.82-3.9,5.39-4.83c3.85-1.41,7-4.31,10.84-5.91a35.49,35.49,0,0,1,6.39-2.38,21.29,21.29,0,0,0,5.06-1.95,36.81,36.81,0,0,0,4.39-2.65,33.44,33.44,0,0,0,3.88-2.63,6.42,6.42,0,0,0,1.85-4.77c-.29-2.33-1.73-4-2.64-6.07a31.55,31.55,0,0,1-1.65-5.38c-.46-1.9-.61-3.82-1.23-5.66a51.67,51.67,0,0,1-1.59-5.69A64.93,64.93,0,0,1,483.76,881.41Z"/><path class="cls-5" d="M422.28,417.23c-1.54,10.13-6.87,17.11-10.92,26.42a23.09,23.09,0,0,0-1.77,4.44c-1.2,3.18-2.18,6.44-3.17,9.69-1.57,5.16-3.21,10.36-3.51,15.74a24.31,24.31,0,0,0,1.69,10.71c1.52,3.55,4.18,6.56,6,10,3.74,7,4.59,15.15,4.87,22.92a138.61,138.61,0,0,0,1.66,16.27c.7,4.45,1.65,8.84,1.19,13.37-.5,4.8-2,9.41-2.85,14.15a49.75,49.75,0,0,0-.57,12.78c.68,7.89,2.67,15.47,4.13,23.23.46,2.42.55,7.79,2.66,9.14,2.81-2.32,3.52-9.15,4.43-12.66,1.18-4.56,3.94-8.64,6.24-12.79a33,33,0,0,1,30.35-17c13.11.55,26.1,7.41,35.26,16.64,3.43,3.45,5.77,9,8,13.29a36,36,0,0,0-.52-4.14,80.46,80.46,0,0,0-3.79-12.7c-3.51-9.77-7.85-19.54-10.92-29.4-.64-2-.21-4.22-.71-6.24s-2-1.73-3.71-2.52c-1.16-.52-2.1-1.11-3.28-1.55-4.43-1.64-7.79-5.67-10.1-9.59-1.12-1.89-1.48-4-2.53-5.88a27.28,27.28,0,0,1-1.55-3.7c-4.64-12-6.18-25.1-10.9-37.08-1.69-4.28-4.62-7.73-7.33-11.43a3.84,3.84,0,0,0-.8-.86,3.64,3.64,0,0,0-1.8-.45,71.93,71.93,0,0,1-16.9-3.1c-10-3.28-14.79-10.89-14.56-21.53a33.87,33.87,0,0,1,1-6.69c.59-2.57,5-15.76,5.71-18.31Z"/><path class="cls-1" d="M423.24,418.73c.88-5.55,3.9-12,9.31-14.05S447,402.63,452.6,404c12.25,3.11,21.51,10.56,28.45,21.5A71.15,71.15,0,0,1,488,439.67a44.31,44.31,0,0,1,3,14.51,1.38,1.38,0,0,0,1,1.38c-.12-2.79-.28-5.58-.21-8.37,0-.72-.07-1.45-.11-2.17-.37-1.94-.71-3.88-1-5.83-.45-1.46-.84-2.92-1.17-4.39a85.34,85.34,0,0,0-4.1-8.17c-3.8-6.65-10.66-14.87-17.11-19-8.87-5.71-18.47-7.86-29.2-7.37a21.33,21.33,0,0,0-12.57,4.5c-3,2.47-5.06,11.3-5.93,15.09Z"/><path class="cls-6" d="M436.31,404.46c-5.22,1.86-8.55,4.85-11.7,9.37-2.72,3.93-5.4,7.91-7.78,12.05-1.13,2-2.19,3.95-3.15,6-4.38,9.27-9,18.38-13.28,27.7-6,13.08-14.61,26.82-18.42,41.08-16.74,14.11-30.42,31.79-47,46.14a33,33,0,0,0-2.72,2.7,9.26,9.26,0,0,1-1.94,1.39,8.27,8.27,0,0,0-2.07,1.54c-.52.61-1.16,1-1.69,1.59a14.41,14.41,0,0,1-2.57,2.18c-.55.38-1.08.83-1.65,1.17l-.9.56-.26.07c-.55.39-1.09.83-1.66,1.18a17.69,17.69,0,0,1-1.67,1.09,7.11,7.11,0,0,1-2.07.65c-.75.06-1.52.1-2.27.14-1.29.07-2.55.14-3.84.24a12.66,12.66,0,0,0-1.64.11c-.5.09-1,.33-1.49.39l-.62.36c-.56.12-1.15.16-1.7.31a8.1,8.1,0,0,0-1.5.6l-.6.31c-.33.16-.68.21-1,.38a11.26,11.26,0,0,0-1.28.7c-.42.3-.38.76-.48,1.21a1.51,1.51,0,0,1-.7,1.06c-.41.27-.81.58-1.22.85s-.53.31-.79.5-.46.32-.69.48a11.7,11.7,0,0,1-1.59.88l-.8.43a5.71,5.71,0,0,1-.75.28,2.8,2.8,0,0,0-.61.34c-.22.16-.47.26-.68.42a3.48,3.48,0,0,0-1.08,1.18,1.7,1.7,0,0,0-.22.45c0,.22,0,.51,0,.74a8.49,8.49,0,0,1-.15,1.51,7.55,7.55,0,0,1-.64,1.27l-.6,1.15c-.15.29-.36.5-.52.77a3.74,3.74,0,0,1-.34.62c-.15.15-.26.34-.42.5s-.26.2-.36.39a9,9,0,0,0-.56,1.06c-.2.55.24.85.63,1.15a1.75,1.75,0,0,0,.69.29,7.38,7.38,0,0,0,1.23.31.44.44,0,0,0,.32,0c.06,0,.1-.13.17-.16a.57.57,0,0,1,.26,0,.45.45,0,0,0,.25-.09,8.12,8.12,0,0,0,1.53-1.14c.54-.47,1.06-1,1.57-1.47l.11-.11c-.2.24-.4.49-.61.72a9,9,0,0,1-1.35,1.27,12.42,12.42,0,0,0-1.52,1,3.19,3.19,0,0,1-.26.26l-.61.53c-.14.13-.22.28-.35.41a2.81,2.81,0,0,1-.5.35,10.93,10.93,0,0,0-1,.76,7.37,7.37,0,0,0-1.6,1.7c-.11.2-.28.27-.43.43a3.32,3.32,0,0,0-.37.47,1.83,1.83,0,0,1-.35.43,5.36,5.36,0,0,1-.59.38c-.36.24-.65.57-1,.78s-.72.49-1.1.7a7.13,7.13,0,0,0-1,.68c-.15.12-.2.31-.32.44s-.25.22-.36.34c-.28.28-.51.57-.81.83s-.64.63-.94,1c-.51.53-1,1-1.59,1.52a6.31,6.31,0,0,0-1,1.78,2.66,2.66,0,0,0,.06,2.27,2.74,2.74,0,0,0,1.44,1.42,1.39,1.39,0,0,0,.92.1c-.18.07-.36.17-.53.24a1.82,1.82,0,0,0-.88,1,2.86,2.86,0,0,0-.22.47c-.08.24-.17.42-.26.66a2.69,2.69,0,0,0-.16.68,1,1,0,0,0,.37.88,7.76,7.76,0,0,0,1.19.93,2.34,2.34,0,0,0,1.33.52,3,3,0,0,0,1.52-.7,18.36,18.36,0,0,0,1.7-1.18c.4-.34.79-.65,1.22-1a12,12,0,0,0,1.43-1.12c.5-.45,1.22-.67,1.75-1.07.29-.22.54-.46.81-.69s.49-.3.72-.5a5.55,5.55,0,0,1,1.66-.85,5.61,5.61,0,0,0,.88-.45,6.11,6.11,0,0,1,.65-.38l-7.43,4.86a.72.72,0,0,0-.46.35c-.07.1-.15.12-.23.21a1.79,1.79,0,0,0-.32,1.11c0,1,1,1.5,1.89,1.75a2.64,2.64,0,0,0,1.62-.06c.57-.19,1.16-.24,1.73-.41a4.5,4.5,0,0,0,1.36-.74,9.05,9.05,0,0,1,1.37-.91,21.77,21.77,0,0,0,2.55-2.07c.24-.19.49-.37.74-.55s.43-.21.63-.34c.57-.37,1.09-.79,1.63-1.19a6.47,6.47,0,0,1,.91-.55c.3-.13.56-.33.86-.45s.61-.31.92-.47l-5.76,3.85c-.09.18-.46.18-.41.41s.1.25.13.38a1.11,1.11,0,0,0,.09.4.63.63,0,0,0,.28.19c.38.19.7.49,1.08.7a2.21,2.21,0,0,0,1.19.23,3.27,3.27,0,0,0,1.61-.44c.26-.13.55-.17.81-.3s.56-.32.85-.5.45-.33.69-.45a5.83,5.83,0,0,0,.7-.37c.27-.19.57-.3.83-.49a4.28,4.28,0,0,1,.68-.46,6.49,6.49,0,0,0,1.36-.85c.34-.28.8-.43,1.15-.71s.81-.46,1.18-.74.92-.61,1.36-.92c.17-.12.28-.31.47-.42s.46-.2.67-.35c.41-.29.85-.51,1.27-.81s.6-.67.95-1a8.33,8.33,0,0,1,1.2-.84,8.93,8.93,0,0,0,.94-.79c.22-.15.47-.24.69-.39a9.55,9.55,0,0,1,1-.58c.42-.2.81-.45,1.21-.69a3.5,3.5,0,0,0,.92-1,1.83,1.83,0,0,1,.61-.45c.24-.13.42-.28.65-.43a3,3,0,0,0,.42-.27,2.9,2.9,0,0,1,.58-.58c.25-.17.66-.24.87-.46a10.82,10.82,0,0,0,1.07-1.52l.35-.55a17.76,17.76,0,0,1,1.5-1.75,9.87,9.87,0,0,0,1-1.08,11.81,11.81,0,0,1,.6-1c.64-.84,1.11-1.81,1.76-2.66.2-.26.48-.46.67-.73s.44-.82.76-1.19c6.95-8.23,13.63-15.54,22.74-21.5,8.91-5.83,19-10.47,27.92-15.69A106.92,106.92,0,0,0,388.22,534a51.48,51.48,0,0,0,8.2-7.27,22.73,22.73,0,0,1,2.75-2.45c1.32-1.13,2.35-2.73,3.55-3.91a26.3,26.3,0,0,0,2.19-2.53l2.73-2.52a23.06,23.06,0,0,1,1.79-2.88c1.89-2.53,3.19-5.52,5.19-8a71.77,71.77,0,0,0,5-7.08,9.05,9.05,0,0,0,1-3.35l2-2.25L437,475.67l8.29-9.27a121.68,121.68,0,0,0,8.23-10.81,94.68,94.68,0,0,0,5.72-9.61,51.3,51.3,0,0,0,3-5.85M460,412.78m-181.59,187-.05,0,.1,0Zm.89-.7a7.8,7.8,0,0,1,1.55-1.43c.26-.16.54-.31.81-.46Zm4.26-3.42a4.89,4.89,0,0,0,.44-.47l.78-1a6.42,6.42,0,0,1,1-1,7,7,0,0,0,.91-.9,3.93,3.93,0,0,1,1.41-.83,10.2,10.2,0,0,0,1.31-.69,23.7,23.7,0,0,1,2.71-2Zm11-17.8-.22.27a2.06,2.06,0,0,1,.81-.93C294.93,577.24,294.68,577.64,294.54,577.81Zm.14,17.2a1.51,1.51,0,0,1,.2-.17c.19-.14.39-.19.57-.34a6.88,6.88,0,0,0,1.65-1.58c.23-.37.61-.27,1-.51s1-.46,1.37-.72c.81-.52,1.25-1,2.06-1.55.4-.24.6-.57,1.08-.71a5.9,5.9,0,0,1,1-.4l.58-.23Zm9.68-.79a6.75,6.75,0,0,1,1.76-1.17Zm4.25-3.06c0-.06,0-.12.09-.12S308.69,591.09,308.61,591.16Z"/><path class="cls-6" d="M294.12,574.1a3.45,3.45,0,0,0-.63-1.18c-.21-.21-.45-.41-.67-.61a5.53,5.53,0,0,1-.53-.55c-.29-.3-.39-.71-.9-.67"/><path class="cls-6" d="M292.58,574.88a5.39,5.39,0,0,1-1.41-.63l-.45-.23c-.19-.1-.35-.33-.54-.39"/><path class="cls-6" d="M275.37,597.33c.17-.21,1.08-1.26,1.27-1.4a2.69,2.69,0,0,1,.92-.37,2.56,2.56,0,0,1,1.26,0,2.45,2.45,0,0,1,.92.52c.51.66-.07,1.48-.39,2.07a4.75,4.75,0,0,1-.71.91c-.11.12-.24.19-.36.31a3.66,3.66,0,0,1-.81.71"/><path class="cls-6" d="M276,602.41a10.44,10.44,0,0,1,.84-1,1.65,1.65,0,0,1,1.09-.59c.33,0,.67,0,1-.08.08,0,.14-.06.23-.07a1.33,1.33,0,0,1,.44.09,1.79,1.79,0,0,1,1.11.61c.22.23.51.61.41,1a6.13,6.13,0,0,1-.52,1c-.14.24-1,2.05-1.21,1.78a4.62,4.62,0,0,0-.79.12"/><path class="cls-6" d="M282.75,603.6a9.58,9.58,0,0,1,.87-.81,2.54,2.54,0,0,1,.95-.64,2.85,2.85,0,0,1,.63-.25,2.81,2.81,0,0,1,.65,0c.2,0,.27.2.42.32a1.46,1.46,0,0,1,.36.34c.1.12.22.18.29.32a1.16,1.16,0,0,1-.21,1.23,4.67,4.67,0,0,1-.9.69l-.43.34a5.56,5.56,0,0,1-.75.41c0-.14-.93-.22-.85-.33"/><path class="cls-6" d="M291.18,591.91a4,4,0,0,1,.9.63,2.13,2.13,0,0,1,.73,1"/><path class="cls-6" d="M289.55,592.64a2.51,2.51,0,0,0,.26.58,2.8,2.8,0,0,0,.64.95,2.65,2.65,0,0,0,.75.58,3.49,3.49,0,0,0,.44.2c.13,0,.27,0,.39.11"/><path class="cls-6" d="M297.94,595.65c.18.19.38.37.55.57a.54.54,0,0,1-.24-.29"/><path class="cls-6" d="M298.54,594.72c.34.39.73.76,1,1.18a1.45,1.45,0,0,1,.32.55"/><path class="cls-6" d="M304.93,595.9a6.72,6.72,0,0,1,1.25.65c.15.1.35.32.53.28"/><path class="cls-6" d="M287.19,586.8a19.41,19.41,0,0,1,1.52,1.34c.67.65.08.14.15.18"/><path class="cls-6" d="M287.62,585.62a5.38,5.38,0,0,1,2.93,2.58c.12.24.42.32.59.52"/><path class="cls-6" d="M293.64,601.1c.14-.07,1-.74,1.16-.78a1.59,1.59,0,0,1,.65-.06,5,5,0,0,1,1.37.58c.34.17.71.35.73.77a1.27,1.27,0,0,1-.58,1c-.35.27-.69.5-1.05.75s-.92.63-1.15.57"/><path class="cls-6" d="M288.82,577.11c.78-1.09,1.22.45,1.19,1-.06,1.27-.17,3.91-2,3.87"/><path d="M180,222.9V230h6.9V222.9H190v17.26h-3.11v-7.34H180v7.34H176.9V222.9Z"/><path d="M204.32,236.61a5.76,5.76,0,0,1-5.57,3.7c-4.34,0-6.26-2.71-6.26-6.76s2.71-6.53,6.43-6.43c3,.07,5.75,2.34,5.45,6.46l-.05.39h-8.73c0,2.2.94,3.7,3.18,3.7a2.87,2.87,0,0,0,2.79-2Zm-3.13-4.21c.05-2-1-2.94-2.54-2.89a2.88,2.88,0,0,0-2.91,2.89Z"/><path d="M207.26,228.06a15.42,15.42,0,0,1,4.88-.94c3.9,0,5.33,1.92,5.33,4.93v5.23a.65.65,0,0,0,.62.74,2.45,2.45,0,0,0,1-.15v2a5.09,5.09,0,0,1-2,.39,2.33,2.33,0,0,1-2.34-1.75,5.67,5.67,0,0,1-3.9,1.75c-2.51,0-4.39-1.28-4.41-4s2-4.09,5.25-4.09a21.85,21.85,0,0,1,2.79.24v-.76c0-1.41-.89-2.17-2.67-2.15a10.39,10.39,0,0,0-4,.79Zm7.15,6a13,13,0,0,0-2.51-.15c-1.48.07-2.42.76-2.44,2.07a1.81,1.81,0,0,0,2.09,1.9,5.06,5.06,0,0,0,2.86-1Z"/><path d="M233.3,221.32v18.84h-2.56l-.35-2.22a4.49,4.49,0,0,1-4.11,2.37c-3.48.05-5.55-2.83-5.55-6.63,0-4.64,3-6.56,5.52-6.56a4.09,4.09,0,0,1,4,2.44v-7.84Zm-9.42,12.33c0,2.2.87,3.92,3.16,3.92s3.25-1.72,3.25-3.89c0-2.94-1.57-4-3.27-4S223.88,230.82,223.88,233.65Z"/><path d="M244,227.24l.45,2.3a4.33,4.33,0,0,1,4-2.45,3.77,3.77,0,0,1,3.85,2.4,4.55,4.55,0,0,1,4.17-2.4c3,0,4.21,2,4.21,4.64v8.43h-3.05v-7.44c0-2-.47-3-2.15-3-2.22,0-2.81,1.68-2.81,3.58v6.9h-3.06v-7.44c0-2-.47-3-2.14-3-2.37,0-2.84,1.9-2.84,4v6.51h-3.06V227.24Z"/><path d="M266.7,227.24v7.45c0,2,.79,3,2.59,3,2.34,0,3.3-2.41,3.3-4.86v-5.62h3.06v12.92h-2.44l-.44-2.81a4.72,4.72,0,0,1-4.47,3c-3.15,0-4.66-1.95-4.66-5.2v-7.87Z"/><path d="M279.16,236.46a6.68,6.68,0,0,0,4.19,1.43c1.48,0,2.34-.44,2.34-1.5,0-2.51-7.47-.84-7.22-5.57.09-2.32,1.8-3.7,5.22-3.7a10.49,10.49,0,0,1,4.66,1.21l-1.08,2.17a7.25,7.25,0,0,0-3.7-1.06c-1.21,0-2.22.39-2.17,1.4.15,2,7.32.47,7.32,5.45,0,2.66-2.39,4.05-5.45,4a8.82,8.82,0,0,1-5.3-1.68Z"/><path d="M295.19,223.59v3.78h3.25l-.42,2.46h-2.83v5.92c0,1.41.64,1.95,1.67,1.95a5.72,5.72,0,0,0,1.95-.57l.57,2.34a7.94,7.94,0,0,1-3.28.84c-3,0-4-2-4-4.14v-6.34h-1.8v-2.46h1.95l.37-3.43Z"/><path d="M309.54,221.32v8.22a4.4,4.4,0,0,1,4.32-2.42c2.44.07,5.05,1.73,5.05,6.48,0,3.9-2,6.71-5.45,6.71a4.28,4.28,0,0,1-4.07-2.37l-.42,2.22h-2.49V221.72Zm-.12,12.36c0,2.22.81,4,3.25,4,2,0,3.11-1.5,3.11-4,0-3-1.5-3.95-3.13-3.95S309.42,231.09,309.42,233.68Z"/><path d="M333,236.61a5.78,5.78,0,0,1-5.58,3.7c-4.34,0-6.26-2.71-6.26-6.76s2.71-6.53,6.44-6.43c3,.07,5.74,2.34,5.45,6.46L333,234h-8.73c0,2.2.93,3.7,3.18,3.7a2.87,2.87,0,0,0,2.78-2Zm-3.14-4.21c.05-2-1-2.94-2.54-2.89a2.89,2.89,0,0,0-2.91,2.89Z"/><path d="M173.46,261.16v12.92h-3.08V263.7h-1.8v-2.54Zm-1.56-5a1.65,1.65,0,0,1,1.83,1.55,1.83,1.83,0,0,1-3.63,0A1.59,1.59,0,0,1,171.9,256.13Z"/><path d="M179,261.16l.47,2.29a4.78,4.78,0,0,1,4.41-2.42c3,0,4.49,2,4.49,4.61v8.44h-3.06v-7.45c0-2-.74-3-2.41-3-2.35,0-3.26,1.9-3.26,4v6.51h-3V261.16Z"/><path d="M199.72,255.24v14.62c0,1.38.62,1.75,1.53,1.75a2.38,2.38,0,0,0,1.29-.47l.56,2.2a5.32,5.32,0,0,1-2.78.88c-2.57,0-3.65-1.72-3.65-4.06V255.61Z"/><path d="M208.58,261.16v12.92H205.5V263.7h-1.8v-2.54Zm-1.55-5a1.65,1.65,0,0,1,1.82,1.55,1.82,1.82,0,0,1-3.62,0A1.59,1.59,0,0,1,207,256.13Z"/><path d="M214.15,261.16l.47,2.29A4.8,4.8,0,0,1,219,261c3,0,4.48,2,4.48,4.61v8.44h-3.05v-7.45c0-2-.74-3-2.42-3-2.34,0-3.26,1.9-3.26,4v6.51h-3V261.16Z"/><path d="M238,270.53a5.77,5.77,0,0,1-5.58,3.69c-4.34,0-6.26-2.71-6.26-6.75s2.71-6.54,6.44-6.44c3,.08,5.74,2.34,5.45,6.46l-.05.4h-8.73c0,2.19.93,3.7,3.18,3.7a2.87,2.87,0,0,0,2.78-2Zm-3.14-4.22c0-2-1-2.94-2.54-2.89a2.87,2.87,0,0,0-2.9,2.89Z"/><path d="M247.82,261.16l2.51,9h.2l2.52-9h3.15l2.54,9h.18l2.56-9h3.18l-4.34,12.92h-3l-2.64-8.73h-.2l-2.54,8.73h-3l-4.24-12.92Z"/><path d="M270.66,261.16v12.92h-3.08V263.7h-1.8v-2.54Zm-1.56-5a1.65,1.65,0,0,1,1.83,1.55,1.83,1.83,0,0,1-3.63,0A1.59,1.59,0,0,1,269.1,256.13Z"/><path d="M277.79,257.51v3.77H281l-.42,2.46h-2.83v5.92c0,1.41.64,1.95,1.67,1.95a5.5,5.5,0,0,0,2-.57l.57,2.35a8.15,8.15,0,0,1-3.28.83c-3,0-4-2-4-4.14v-6.34h-1.8v-2.46h1.95l.37-3.43Z"/><path d="M287,255.24v8a4.81,4.81,0,0,1,4.24-2.2c3,0,4.48,2,4.48,4.61v8.44h-3v-7.45c0-2-.74-3-2.42-3-2.34,0-3.25,1.9-3.25,4v6.51h-3.06V255.61Z"/><path d="M307.9,257.51v3.77h3.26l-.42,2.46H307.9v5.92c0,1.41.64,1.95,1.68,1.95a5.5,5.5,0,0,0,1.95-.57l.56,2.35a8.15,8.15,0,0,1-3.28.83c-3,0-4-2-4-4.14v-6.34H303v-2.46H305l.37-3.43Z"/><path d="M317.1,255.24v8a4.83,4.83,0,0,1,4.24-2.2c3,0,4.49,2,4.49,4.61v8.44h-3.06v-7.45c0-2-.74-3-2.41-3-2.35,0-3.26,1.9-3.26,4v6.51H314V255.61Z"/><path d="M340.23,270.53a5.75,5.75,0,0,1-5.57,3.69c-4.34,0-6.26-2.71-6.26-6.75s2.71-6.54,6.43-6.44c3,.08,5.75,2.34,5.45,6.46l0,.4H331.5c0,2.19.94,3.7,3.19,3.7a2.87,2.87,0,0,0,2.78-2Zm-3.13-4.22c0-2-1-2.94-2.54-2.89a2.88,2.88,0,0,0-2.91,2.89Z"/><path d="M229.89,289.15v8.21A4.39,4.39,0,0,1,234.2,295c2.45.07,5.06,1.72,5.06,6.48,0,3.9-1.95,6.71-5.45,6.71a4.28,4.28,0,0,1-4.07-2.37l-.42,2.22h-2.49V289.55Zm-.12,12.36c0,2.21.81,4,3.25,4,2,0,3.11-1.5,3.11-4,0-3-1.51-3.95-3.13-3.95C231.22,297.51,229.77,298.92,229.77,301.51Z"/><path d="M247.77,295c3.23,0,6,2.19,6,6.6,0,3.63-2.14,6.59-6.16,6.59-4.37,0-6.17-3-6.17-6.59C241.48,297.14,244.27,295,247.77,295Zm-3.08,6.6c0,2.05.69,4,3,4,2.09,0,3-1.95,3-4,0-2.86-1.41-4-3-4C246.07,297.53,244.69,298.65,244.69,301.55Z"/><path d="M268.61,289.15V308H266l-.34-2.22a4.52,4.52,0,0,1-4.12,2.37c-3.48.05-5.55-2.84-5.55-6.63,0-4.64,3-6.56,5.53-6.56a4.1,4.1,0,0,1,4,2.44v-7.84Zm-9.42,12.33c0,2.2.86,3.92,3.16,3.92s3.25-1.72,3.25-3.89c0-2.94-1.58-4-3.28-4S259.19,298.65,259.19,301.48Z"/><path d="M273.94,295.07l3.18,9.12h.2l2.91-9.12h3.15l-4.78,13.12c-1.58,4.31-3.06,5.4-7.62,4.44l.54-2.59c2.91.71,3.31,0,4.22-2.49l-4.86-12.48Z"/><path d="M604.85,416.25a12.61,12.61,0,0,0-4.91-1.43c-1.72,0-2.86.52-2.86,1.92,0,3.31,9.23,1.8,9.23,7.65,0,3.55-2.74,5.35-6.34,5.35a10.66,10.66,0,0,1-6.63-2.12l1.52-2.32a8.5,8.5,0,0,0,5,1.82c2.1,0,3.35-.91,3.35-2.39,0-3.43-9.17-2.19-9.17-7.84,0-3.16,2.44-4.68,5.89-4.68a13.68,13.68,0,0,1,6.12,1.67Z"/><path d="M613,413v3.77h3.25l-.42,2.47H613v5.92c0,1.4.64,1.94,1.67,1.94a5.76,5.76,0,0,0,2-.56l.57,2.34a8.1,8.1,0,0,1-3.28.84c-3,0-4-2-4-4.15v-6.33h-1.8v-2.47h1.95l.37-3.43Z"/><path d="M621.35,416.67l.57,2.66c.59-2,2.1-2.83,4.19-2.78a4.78,4.78,0,0,1,1.33.22l-.46,2.68a5.33,5.33,0,0,0-1.85-.24c-2.27.07-3.14,1.82-3.14,3.89v6.49h-3V416.67Z"/><path d="M629.07,417.48a15.46,15.46,0,0,1,4.89-.93c3.89,0,5.32,1.92,5.32,4.93v5.22a.65.65,0,0,0,.62.74,2.5,2.5,0,0,0,1-.14v2a5.05,5.05,0,0,1-2,.4,2.34,2.34,0,0,1-2.34-1.75,5.65,5.65,0,0,1-3.9,1.75c-2.51,0-4.38-1.29-4.41-4s2-4.1,5.25-4.1a19.85,19.85,0,0,1,2.79.25v-.76c0-1.41-.89-2.17-2.66-2.15a10.41,10.41,0,0,0-4,.79Zm7.15,6a14,14,0,0,0-2.51-.14c-1.48.07-2.42.76-2.44,2.07a1.8,1.8,0,0,0,2.09,1.89,5,5,0,0,0,2.86-1Z"/><path d="M647.05,416.67v12.92H644V419.21h-1.8v-2.54Zm-1.55-5a1.64,1.64,0,0,1,1.82,1.55,1.82,1.82,0,0,1-3.62,0A1.59,1.59,0,0,1,645.5,411.64Z"/><path d="M662.24,416.67v11c0,4.29-1.67,6.88-6.41,6.88a13.48,13.48,0,0,1-5.27-1.11l.71-2.32a11,11,0,0,0,4.22,1c2.78,0,3.7-1.38,3.7-3.5v-1.13a4.47,4.47,0,0,1-4,2.05c-3.48.07-5.48-2.57-5.48-6.37,0-4.63,3-6.55,5.53-6.55a4.27,4.27,0,0,1,4.09,2.34l.32-2.22Zm-9.32,6.41c0,2.19.87,3.92,3.16,3.92s3.21-1.73,3.21-3.9c0-2.93-1.56-4-3.24-4S652.92,420.24,652.92,423.08Z"/><path d="M668.46,410.75v8a4.82,4.82,0,0,1,4.24-2.19c3,0,4.49,1.94,4.49,4.61v8.43h-3.06v-7.45c0-2-.74-3-2.41-3-2.35,0-3.26,1.9-3.26,4v6.51H665.4V411.12Z"/><path d="M684.22,413v3.77h3.26l-.42,2.47h-2.84v5.92c0,1.4.64,1.94,1.68,1.94a5.76,5.76,0,0,0,2-.56l.56,2.34a8.1,8.1,0,0,1-3.28.84c-3,0-4-2-4-4.15v-6.33h-1.8v-2.47h1.95l.37-3.43Z"/><path d="M618,460a5.77,5.77,0,0,1-5.58,3.7c-4.34,0-6.26-2.71-6.26-6.76s2.71-6.53,6.44-6.43c3,.07,5.74,2.34,5.45,6.46l0,.39h-8.73c0,2.2.93,3.7,3.18,3.7a2.89,2.89,0,0,0,2.79-2Zm-3.13-4.21c0-2-1-2.94-2.54-2.89a2.87,2.87,0,0,0-2.91,2.89Z"/><path d="M623.75,444.66v14.63c0,1.38.61,1.75,1.52,1.75a2.46,2.46,0,0,0,1.29-.47l.56,2.19a5.31,5.31,0,0,1-2.78.89c-2.57,0-3.65-1.73-3.65-4.07V445Z"/><path d="M631.64,444.66v8.22a4.39,4.39,0,0,1,4.31-2.42c2.44.07,5.06,1.72,5.06,6.48,0,3.9-2,6.71-5.45,6.71a4.27,4.27,0,0,1-4.07-2.37l-.42,2.22h-2.49V445.06ZM631.51,457c0,2.22.82,4,3.26,4,2,0,3.11-1.5,3.11-4,0-3-1.51-4-3.14-4S631.51,454.43,631.51,457Z"/><path d="M649.52,450.46c3.23,0,6,2.19,6,6.61,0,3.62-2.15,6.58-6.16,6.58-4.37,0-6.17-3-6.17-6.58C643.23,452.65,646,450.46,649.52,450.46Zm-3.08,6.61c0,2,.69,4,3,4,2.1,0,3-1.95,3-4,0-2.86-1.41-4-3-4S646.44,454.16,646.44,457.07Z"/><path d="M659.61,450.58l2.51,9h.2l2.51-9H668l2.54,9h.17l2.57-9h3.18l-4.34,12.92h-3l-2.64-8.73h-.2l-2.54,8.73h-3l-4.24-12.92Z"/><path d="M678.3,459.8a6.73,6.73,0,0,0,4.2,1.43c1.47,0,2.34-.44,2.34-1.5,0-2.51-7.47-.84-7.23-5.57.1-2.32,1.8-3.7,5.23-3.7a10.49,10.49,0,0,1,4.66,1.21l-1.08,2.17a7.3,7.3,0,0,0-3.7-1.06c-1.21,0-2.22.39-2.17,1.4.14,2.05,7.32.47,7.32,5.45,0,2.66-2.39,4.05-5.45,4a8.78,8.78,0,0,1-5.3-1.68Z"/><path d="M586.88,442.37c-9.62,5.72-19.3,11.39-29.1,16.81a59.28,59.28,0,0,1-5.47,2.87,1.51,1.51,0,0,0-.54,2.05,1.54,1.54,0,0,0,2.05.54c4.3-1.83,8.37-4.47,12.41-6.78q8.44-4.83,16.83-9.76c1.78-1,3.56-2.08,5.34-3.14a1.5,1.5,0,0,0-1.52-2.59Z"/><path d="M554.26,453.55c-1.67,3.57-3,7.27-4.38,10.94-.38,1,.58,1.8,1.45,1.9,1.87.22,3.73.52,5.59.76.94.12,1.87.23,2.81.31l.54.05.32,0h.06l1.3.18a1.54,1.54,0,0,0,1.84-1.05,1.5,1.5,0,0,0-1-1.84c-1.87-.26-3.75-.43-5.62-.67s-3.86-.57-5.8-.79l1.44,1.9c1.3-3.43,2.52-6.9,4.08-10.22a1.54,1.54,0,0,0-.54-2.05,1.51,1.51,0,0,0-2,.53Z"/><path d="M346.07,248.59a53.16,53.16,0,0,1,31.42,21.71,91.22,91.22,0,0,1,6.76,12.2c.85,1.8,3.53.23,2.68-1.57-3.31-7-7.24-13.84-12.59-19.53a54,54,0,0,0-16.28-11.83,62.37,62.37,0,0,0-11.17-4c-1.93-.49-2.76,2.5-.82,3Z"/><path d="M375.13,280.45c3.84,1.72,7.81,3.09,11.75,4.53,1,.38,1.88-.58,2-1.5.19-2.05.44-3.76.67-5.83.19-1.75.3-3.5.49-5.24a1.55,1.55,0,0,0-1.55-1.55,1.59,1.59,0,0,0-1.55,1.55c-.2,1.74-.31,3.49-.5,5.24-.21,1.94-.49,3.88-.67,5.83l2-1.49c-3.69-1.35-7.43-2.61-11-4.22a1.6,1.6,0,0,0-2.12.56,1.56,1.56,0,0,0,.56,2.12Z"/><path d="M297.2,852.8l-.34,2.56h-7.2v4.84h6.9l-.05,2.63h-6.85v7.23H286.6V852.8Z"/><path d="M310.2,866.51a5.76,5.76,0,0,1-5.57,3.7c-4.34,0-6.27-2.72-6.27-6.76s2.72-6.53,6.44-6.44c3,.08,5.75,2.35,5.45,6.47l-.05.39h-8.73c0,2.19.94,3.7,3.18,3.7a2.88,2.88,0,0,0,2.79-2.05Zm-3.13-4.22c.05-2-1-2.93-2.54-2.88a2.87,2.87,0,0,0-2.91,2.88Z"/><path d="M324.28,866.51a5.76,5.76,0,0,1-5.57,3.7c-4.34,0-6.26-2.72-6.26-6.76s2.71-6.53,6.43-6.44c3,.08,5.75,2.35,5.45,6.47l-.05.39h-8.72c0,2.19.93,3.7,3.18,3.7a2.87,2.87,0,0,0,2.78-2.05Zm-3.13-4.22c.05-2-1-2.93-2.54-2.88a2.88,2.88,0,0,0-2.91,2.88Z"/><path d="M331,853.49v3.77h3.26l-.42,2.47H331v5.92c0,1.4.65,1.94,1.68,1.94a5.76,5.76,0,0,0,1.95-.56l.57,2.34a8.1,8.1,0,0,1-3.28.84c-3,0-4-2-4-4.15v-6.33h-1.8v-2.47h1.94l.38-3.43Z"/><path d="M290.4,887.4v3.77h3.25l-.42,2.47H290.4v5.92c0,1.4.64,2,1.67,2a5.72,5.72,0,0,0,1.95-.57l.57,2.34a7.94,7.94,0,0,1-3.28.84c-3,0-4-2-4-4.14v-6.34h-1.8v-2.47h1.95l.37-3.42Z"/><path d="M301.74,890.93c3.23,0,6,2.19,6,6.61,0,3.62-2.14,6.58-6.16,6.58-4.37,0-6.17-3-6.17-6.58C295.45,893.12,298.24,890.93,301.74,890.93Zm-3.08,6.61c0,2,.69,4,3,4,2.09,0,3-1.95,3-4,0-2.86-1.4-4-3-4S298.66,894.63,298.66,897.54Z"/><path d="M322.53,891.05v11c0,4.3-1.67,6.88-6.41,6.88a13.36,13.36,0,0,1-5.28-1.11l.72-2.31a11.13,11.13,0,0,0,4.22,1c2.78,0,3.69-1.38,3.69-3.5V901.8a4.45,4.45,0,0,1-4,2.05c-3.47.07-5.47-2.57-5.47-6.36,0-4.64,3-6.56,5.52-6.56a4.28,4.28,0,0,1,4.1,2.34l.32-2.22Zm-9.32,6.41c0,2.2.86,3.92,3.16,3.92s3.2-1.72,3.2-3.89c0-2.94-1.55-4-3.23-4S313.21,894.63,313.21,897.46Z"/><path d="M337,900.42a5.78,5.78,0,0,1-5.58,3.7c-4.34,0-6.26-2.71-6.26-6.76s2.71-6.53,6.44-6.43c3,.07,5.74,2.34,5.44,6.46l0,.39h-8.73c0,2.2.93,3.7,3.18,3.7a2.87,2.87,0,0,0,2.78-2Zm-3.14-4.22c.05-2-1-2.93-2.54-2.88a2.88,2.88,0,0,0-2.91,2.88Z"/><path d="M343.75,887.4v3.77H347l-.42,2.47h-2.83v5.92c0,1.4.64,2,1.67,2a5.72,5.72,0,0,0,1.95-.57l.57,2.34a7.94,7.94,0,0,1-3.28.84c-3,0-4-2-4-4.14v-6.34h-1.8v-2.47h1.95l.37-3.42Z"/><path d="M353,885.13v8a4.81,4.81,0,0,1,4.24-2.19c3,0,4.48,2,4.48,4.61V904h-3.05v-7.44c0-2-.74-3-2.42-3-2.34,0-3.25,1.9-3.25,4V904h-3.06V885.5Z"/><path d="M376.08,900.42a5.76,5.76,0,0,1-5.57,3.7c-4.34,0-6.27-2.71-6.27-6.76s2.72-6.53,6.44-6.43c3,.07,5.74,2.34,5.45,6.46l-.05.39h-8.73c0,2.2.94,3.7,3.18,3.7a2.89,2.89,0,0,0,2.79-2ZM373,896.2c.05-2-1-2.93-2.54-2.88a2.87,2.87,0,0,0-2.91,2.88Z"/><path d="M381.24,891.05l.56,2.66c.59-2,2.1-2.83,4.19-2.78a4.94,4.94,0,0,1,1.34.22l-.47,2.69a5.27,5.27,0,0,0-1.85-.25c-2.27.08-3.13,1.83-3.13,3.9V904h-3.06V891.05Z"/><path d="M354.2,863.54A47.45,47.45,0,0,1,378.66,861c8.43,1.45,16,5.32,23.21,9.86,1.64,1,3.14-1.55,1.52-2.59-7.5-4.75-15.55-8.81-24.38-10.24a50.45,50.45,0,0,0-25.61,2.64c-1.79.66-1,3.56.8,2.89Z"/><path d="M394.2,874.11c3.74-.64,7.41-1.65,11.09-2.57a1.52,1.52,0,0,0,.9-2.21c-.91-1.69-1.74-3.42-2.63-5.13s-1.7-3.12-2.52-4.71a1.5,1.5,0,1,0-2.59,1.51c.82,1.59,1.7,3.14,2.52,4.72s1.72,3.44,2.63,5.13l.9-2.2c-3.69.92-7.35,1.92-11.1,2.57a1.5,1.5,0,1,0,.8,2.89Z"/><circle cx="79" cy="61.53" r="34.44"/><path class="cls-7" d="M82.51,47.08s-.12,20.87,0,24.37c0,.77.19,1,.73,1l5.08.54-.08,2.23H71.92L72,73l4.46-.58c.58,0,.81-.23.81-1,.08-10,0-19.6,0-19.6l-5.62,1.08c-.19-.31-1.12-2.46-.46-2.73l10.35-4Z"/><path d="M146.19,54.39l-.27,3.12h-5.55V75.39h-3.75V57.51h-5.76V54.39Z"/><path d="M152.34,52.47v9.72a5.86,5.86,0,0,1,5.16-2.67c3.69,0,5.46,2.37,5.46,5.61V75.39h-3.72V66.33c0-2.4-.9-3.69-2.94-3.69-2.85,0-4,2.31-4,4.83v7.92h-3.72V52.92Z"/><path d="M180.48,71.07a7,7,0,0,1-6.78,4.5c-5.28,0-7.62-3.3-7.62-8.22s3.3-7.95,7.83-7.83c3.69.09,7,2.85,6.63,7.86l-.06.48H169.86c0,2.67,1.14,4.5,3.87,4.5a3.5,3.5,0,0,0,3.39-2.49Zm-3.81-5.13c.06-2.43-1.26-3.57-3.09-3.51A3.5,3.5,0,0,0,170,65.94Z"/><path d="M190.5,70.89a8.15,8.15,0,0,0,5.1,1.74c1.8,0,2.85-.54,2.85-1.83,0-3.06-9.09-1-8.79-6.78.12-2.82,2.19-4.5,6.36-4.5A12.78,12.78,0,0,1,201.69,61l-1.32,2.64a8.9,8.9,0,0,0-4.5-1.29c-1.47,0-2.7.48-2.64,1.71.18,2.49,8.91.57,8.91,6.63,0,3.24-2.91,4.92-6.63,4.89a10.76,10.76,0,0,1-6.45-2Z"/><path d="M210,55.23v4.59h4l-.51,3H210V70c0,1.71.78,2.37,2,2.37a6.83,6.83,0,0,0,2.37-.69l.69,2.85a9.82,9.82,0,0,1-4,1c-3.69,0-4.83-2.46-4.83-5V62.82h-2.19v-3h2.37l.45-4.17Z"/><path d="M217.32,60.66a18.74,18.74,0,0,1,5.94-1.14c4.74,0,6.48,2.34,6.48,6v6.36a.79.79,0,0,0,.75.9,3,3,0,0,0,1.23-.18v2.49a6.08,6.08,0,0,1-2.49.48,2.84,2.84,0,0,1-2.85-2.13,6.87,6.87,0,0,1-4.74,2.13c-3.06,0-5.34-1.56-5.37-4.83s2.46-5,6.39-5a24.49,24.49,0,0,1,3.39.3v-.93c0-1.71-1.08-2.64-3.24-2.61a12.68,12.68,0,0,0-4.86,1ZM226,68a16.62,16.62,0,0,0-3.06-.18c-1.8.09-2.94.93-3,2.52a2.21,2.21,0,0,0,2.55,2.31A6.17,6.17,0,0,0,226,71.4Z"/><path d="M237.24,59.67l.69,3.24c.72-2.4,2.55-3.45,5.1-3.39a6.19,6.19,0,0,1,1.62.27l-.57,3.27a6.48,6.48,0,0,0-2.25-.3C239.07,62.85,238,65,238,67.5v7.89H234.3V59.67Z"/><path d="M252.54,55.23v4.59h4l-.51,3h-3.45V70c0,1.71.78,2.37,2,2.37A6.83,6.83,0,0,0,257,71.7l.69,2.85a9.82,9.82,0,0,1-4,1c-3.69,0-4.83-2.46-4.83-5V62.82h-2.19v-3H249l.45-4.17Z"/><path d="M269.25,59.67l.54,2.82a5.71,5.71,0,0,1,5.37-3c3,.09,6.18,2.1,6.18,7.89,0,4.74-2.37,8.16-6.66,8.16A4.88,4.88,0,0,1,270,73v8.37h-3.75V59.67Zm.51,7.83c0,2.7,1,4.86,4,4.86,2.43,0,3.78-1.83,3.78-4.92,0-3.66-1.83-4.8-3.81-4.8C271.56,62.64,269.76,64.35,269.76,67.5Z"/><path d="M291.69,59.52c3.93,0,7.35,2.67,7.35,8,0,4.41-2.61,8-7.5,8-5.31,0-7.5-3.6-7.5-8C284,62.19,287.43,59.52,291.69,59.52Zm-3.75,8c0,2.49.84,4.86,3.66,4.86,2.55,0,3.69-2.37,3.69-4.86,0-3.48-1.71-4.89-3.6-4.89C289.62,62.67,287.94,64,287.94,67.56Z"/><path d="M302.76,70.89a8.15,8.15,0,0,0,5.1,1.74c1.8,0,2.85-.54,2.85-1.83,0-3.06-9.09-1-8.79-6.78.12-2.82,2.19-4.5,6.36-4.5A12.78,12.78,0,0,1,314,61l-1.32,2.64a8.9,8.9,0,0,0-4.5-1.29c-1.47,0-2.7.48-2.64,1.71.18,2.49,8.91.57,8.91,6.63,0,3.24-2.91,4.92-6.63,4.89a10.76,10.76,0,0,1-6.45-2Z"/><path d="M322.32,59.67V75.39h-3.75V62.76h-2.19V59.67Zm-1.89-6.12a2,2,0,0,1,2.22,1.89,2.22,2.22,0,0,1-4.41,0A1.93,1.93,0,0,1,320.43,53.55Z"/><path d="M331,55.23v4.59h4l-.51,3H331V70c0,1.71.78,2.37,2,2.37a6.83,6.83,0,0,0,2.37-.69l.69,2.85a9.82,9.82,0,0,1-4,1c-3.69,0-4.83-2.46-4.83-5V62.82h-2.19v-3h2.37l.45-4.17Z"/><path d="M343.35,59.67V75.39H339.6V62.76h-2.19V59.67Zm-1.89-6.12a2,2,0,0,1,2.22,1.89,2.22,2.22,0,0,1-4.41,0A1.93,1.93,0,0,1,341.46,53.55Z"/><path d="M354.27,59.52c3.93,0,7.35,2.67,7.35,8,0,4.41-2.61,8-7.5,8-5.31,0-7.5-3.6-7.5-8C346.62,62.19,350,59.52,354.27,59.52Zm-3.75,8c0,2.49.84,4.86,3.66,4.86,2.55,0,3.69-2.37,3.69-4.86,0-3.48-1.71-4.89-3.6-4.89C352.2,62.67,350.52,64,350.52,67.56Z"/><path d="M367.86,59.67l.57,2.79a5.8,5.8,0,0,1,5.37-2.94c3.69,0,5.46,2.37,5.46,5.61V75.39h-3.72V66.33c0-2.4-.9-3.69-2.94-3.69-2.85,0-4,2.31-4,4.83v7.92h-3.72V59.67Z"/><path d="M394.2,59.67V75.39h-3.75V62.76h-2.19V59.67Zm-1.89-6.12a2,2,0,0,1,2.22,1.89,2.22,2.22,0,0,1-4.41,0A1.93,1.93,0,0,1,392.31,53.55Z"/><path d="M398.46,70.89a8.15,8.15,0,0,0,5.1,1.74c1.8,0,2.85-.54,2.85-1.83,0-3.06-9.09-1-8.79-6.78.12-2.82,2.19-4.5,6.36-4.5A12.78,12.78,0,0,1,409.65,61l-1.32,2.64a8.9,8.9,0,0,0-4.5-1.29c-1.47,0-2.7.48-2.64,1.71.18,2.49,8.91.57,8.91,6.63,0,3.24-2.91,4.92-6.63,4.89a10.76,10.76,0,0,1-6.45-2Z"/><path d="M419.64,60.66a18.74,18.74,0,0,1,5.94-1.14c4.74,0,6.48,2.34,6.48,6v6.36a.79.79,0,0,0,.75.9A3,3,0,0,0,434,72.6v2.49a6.08,6.08,0,0,1-2.49.48,2.84,2.84,0,0,1-2.85-2.13A6.87,6.87,0,0,1,424,75.57c-3.06,0-5.34-1.56-5.37-4.83s2.46-5,6.39-5a24.49,24.49,0,0,1,3.39.3v-.93c0-1.71-1.08-2.64-3.24-2.61a12.68,12.68,0,0,0-4.86,1Zm8.7,7.35a16.62,16.62,0,0,0-3.06-.18c-1.8.09-2.94.93-3,2.52a2.21,2.21,0,0,0,2.55,2.31,6.17,6.17,0,0,0,3.48-1.26Z"/><path d="M440.34,52.47V70.26c0,1.68.75,2.13,1.86,2.13a2.93,2.93,0,0,0,1.56-.57l.69,2.67a6.47,6.47,0,0,1-3.39,1.08c-3.12,0-4.44-2.1-4.44-4.95V52.92Z"/><path d="M448.83,52.47V70.26c0,1.68.75,2.13,1.86,2.13a2.93,2.93,0,0,0,1.56-.57l.69,2.67a6.47,6.47,0,0,1-3.39,1.08c-3.12,0-4.44-2.1-4.44-4.95V52.92Z"/><path d="M461.22,60.66a18.74,18.74,0,0,1,5.94-1.14c4.74,0,6.48,2.34,6.48,6v6.36a.79.79,0,0,0,.75.9,3,3,0,0,0,1.23-.18v2.49a6.1,6.1,0,0,1-2.5.48,2.84,2.84,0,0,1-2.84-2.13,6.87,6.87,0,0,1-4.74,2.13c-3.06,0-5.34-1.56-5.37-4.83s2.46-5,6.39-5a24.49,24.49,0,0,1,3.39.3v-.93c0-1.71-1.08-2.64-3.24-2.61a12.68,12.68,0,0,0-4.86,1Zm8.7,7.35a16.62,16.62,0,0,0-3.06-.18c-1.8.09-2.94.93-3,2.52a2.21,2.21,0,0,0,2.55,2.31,6.17,6.17,0,0,0,3.48-1.26Z"/><path d="M481.92,52.47v10a5.37,5.37,0,0,1,5.25-2.94c3,.09,6.14,2.1,6.14,7.89,0,4.74-2.36,8.16-6.62,8.16a5.2,5.2,0,0,1-4.95-2.88l-.51,2.7h-3V53Zm-.15,15c0,2.7,1,4.86,4,4.86,2.46,0,3.77-1.83,3.77-4.92,0-3.66-1.82-4.8-3.8-4.8C483.54,62.64,481.77,64.35,481.77,67.5Z"/><path d="M503.67,59.52c3.92,0,7.34,2.67,7.34,8,0,4.41-2.61,8-7.5,8-5.3,0-7.49-3.6-7.49-8C496,62.19,499.41,59.52,503.67,59.52Zm-3.75,8c0,2.49.83,4.86,3.66,4.86,2.54,0,3.68-2.37,3.68-4.86,0-3.48-1.71-4.89-3.59-4.89C501.59,62.67,499.92,64,499.92,67.56Z"/><path d="M517.82,59.67v9.06c0,2.4,1,3.69,3.15,3.69,2.85,0,4-2.94,4-5.91V59.67h3.72V75.39h-3L525.2,72a5.73,5.73,0,0,1-5.43,3.6c-3.84,0-5.67-2.37-5.67-6.33V59.67Z"/><path d="M537.38,55.23v4.59h4l-.51,3h-3.45V70c0,1.71.78,2.37,2,2.37a6.83,6.83,0,0,0,2.37-.69l.69,2.85a9.82,9.82,0,0,1-4,1c-3.69,0-4.83-2.46-4.83-5V62.82h-2.19v-3h2.37l.45-4.17Z"/><path d="M554.09,59.67l.54,2.82a5.71,5.71,0,0,1,5.37-3c3,.09,6.18,2.1,6.18,7.89,0,4.74-2.37,8.16-6.66,8.16A4.88,4.88,0,0,1,554.87,73v8.37h-3.75V59.67Zm.51,7.83c0,2.7,1,4.86,4,4.86,2.43,0,3.78-1.83,3.78-4.92,0-3.66-1.83-4.8-3.81-4.8C556.4,62.64,554.6,64.35,554.6,67.5Z"/><path d="M576.53,59.52c3.93,0,7.35,2.67,7.35,8,0,4.41-2.61,8-7.5,8-5.31,0-7.5-3.6-7.5-8C568.88,62.19,572.27,59.52,576.53,59.52Zm-3.75,8c0,2.49.84,4.86,3.66,4.86,2.55,0,3.69-2.37,3.69-4.86,0-3.48-1.71-4.89-3.6-4.89C574.46,62.67,572.78,64,572.78,67.56Z"/><path d="M587.6,70.89a8.15,8.15,0,0,0,5.1,1.74c1.8,0,2.85-.54,2.85-1.83,0-3.06-9.09-1-8.79-6.78.12-2.82,2.19-4.5,6.36-4.5A12.78,12.78,0,0,1,598.79,61l-1.32,2.64a8.9,8.9,0,0,0-4.5-1.29c-1.47,0-2.7.48-2.64,1.71.18,2.49,8.91.57,8.91,6.63,0,3.24-2.91,4.92-6.63,4.89a10.76,10.76,0,0,1-6.45-2Z"/><path d="M607.1,55.23v4.59h4l-.51,3H607.1V70c0,1.71.78,2.37,2,2.37a6.83,6.83,0,0,0,2.37-.69l.69,2.85a9.82,9.82,0,0,1-4,1c-3.69,0-4.83-2.46-4.83-5V62.82h-2.19v-3h2.37l.45-4.17Z"/><path d="M617.69,59.67v9.06c0,2.4,1,3.69,3.15,3.69,2.85,0,4-2.94,4-5.91V59.67h3.72V75.39h-3L625.07,72a5.73,5.73,0,0,1-5.43,3.6c-3.84,0-5.67-2.37-5.67-6.33V59.67Z"/><path d="M635.36,59.67l.69,3.24c.72-2.4,2.55-3.45,5.1-3.39a6.19,6.19,0,0,1,1.62.27l-.57,3.27a6.48,6.48,0,0,0-2.25-.3c-2.76.09-3.81,2.22-3.81,4.74v7.89h-3.72V59.67Z"/><path d="M658.34,71.07a7,7,0,0,1-6.78,4.5c-5.28,0-7.62-3.3-7.62-8.22s3.3-7.95,7.83-7.83c3.69.09,7,2.85,6.63,7.86l-.06.48H647.72c0,2.67,1.14,4.5,3.87,4.5A3.5,3.5,0,0,0,655,69.87Zm-3.81-5.13c.06-2.43-1.26-3.57-3.09-3.51a3.5,3.5,0,0,0-3.54,3.51Z"/></svg>