<svg id="Layer_1" data-name="Layer 1" xmlns="http://www.w3.org/2000/svg" viewBox="0 0 780 1051.14"><defs><style>.cls-1{fill:#fff171;stroke-width:0.3px;}.cls-1,.cls-2,.cls-4,.cls-5,.cls-6,.cls-7{stroke:#fff;stroke-miterlimit:10;}.cls-2{fill:#c6946f;}.cls-2,.cls-4{stroke-width:0.27px;}.cls-3,.cls-4,.cls-6,.cls-7{fill:#d4a47c;}.cls-5{fill:#005058;stroke-width:0.42px;}.cls-6{stroke-width:0.27px;}.cls-7{stroke-width:0.33px;}.cls-8{fill:#fff;}</style></defs><path class="cls-1" d="M470.67,452.28a104.73,104.73,0,0,1-3.54-10.15,95.69,95.69,0,0,1,.18,24.56c-1.11,9.89-3.41,19.85-7.6,28.27a39.39,39.39,0,0,1-3.49,5.81,31.31,31.31,0,0,1-2.1,2.55c-1.15,1.24-.67,3.13-1.15,4.86-.59,2.17,2,3.1,2.63.95a14.39,14.39,0,0,0,.43-3.28c5.41-5.89,8.87-14.5,11.13-23.11a111.39,111.39,0,0,0,3.52-30.07C470.68,452.54,470.68,452.41,470.67,452.28Z"/><path class="cls-1" d="M466.88,440.45l0,0a82.66,82.66,0,0,0-14.72-9.55c-2.4-1.27-4.81-2.69-7.53-3.13-10.23-1.66-20,3-27.65,9.33-2.51,2.08-5.07,4.49-6.47,7.48-.61,1.3-2.09,7.09,1.21,7.13.44,0,2.86-5.47,3.63-6.38C420.84,438.76,428,432.55,437,432c2.65-.17,5.54-.63,8.12.17a36.49,36.49,0,0,1,6.75,3.33c2.36,1.32,4.59,2.83,6.92,4.18a46.6,46.6,0,0,1,6.62,5c1.22,1,2.4,2.08,3.62,3.1C468.21,445.34,467.53,442.84,466.88,440.45Z"/><path class="cls-2" d="M502.93,597.57a49.61,49.61,0,0,0-20.47-29c-6.37-4.23-15-9.5-22.6-9.39-10.57.14-20,6.07-27.56,13.49-11.32,11.18-10.51,22.67-13.95,37.36-5.09,21.74-10.08,43.93-9.08,66.41.66,14.71,4.8,28.67,8.44,42.79a191.72,191.72,0,0,1,5,24.3c.86,6.88-.72,9.56.51,16.46a23,23,0,0,0,2.21,6.67,18.57,18.57,0,0,0,.12,2.58c.41,3.25,2.62,5.31,3.94,8.18a19,19,0,0,1,1.27,5.17q2.6,17.36,5.17,34.7c1.24,8.29,2.25,16.9,4.77,24.92,4.21,13.39,5.06,26.29,5.23,39.78h-.08q.12,2.4.12,4.83v.29a113.8,113.8,0,0,1-1.09,15.25c-.82,6-4.83,10.53-6.26,16.24-.4,1.58-1,3.06-1.39,4.62a54.88,54.88,0,0,1-1.94,5.76,22.42,22.42,0,0,1-3.39,5.1c-2.55,3.34-4.76,7.77-8.46,10.07-1.71,1.06-3.46,2-5.14,3.13-1.12.77-3,2.37-3.45,3.72-.56,1.7,2.21,3,3.58,3.34a18.47,18.47,0,0,0,5.73-.3c1.17-.18,1.35-.79,2.28-1.5a8,8,0,0,1,2.51-1.25,13.53,13.53,0,0,1,4.05-.42,22.78,22.78,0,0,0,3,.32c1-.06,2-.11,3-.21a20.62,20.62,0,0,0,6.31-2c4.92-2.24,7.77-7,11.8-10.31,5-4.17,11.43-6,16.9-9.48a35.23,35.23,0,0,0,3.78-2.66,31.7,31.7,0,0,0,3.32-2.63,5.7,5.7,0,0,0,1.35-4.41c-.4-2.08-1.81-3.49-2.76-5.3a29.05,29.05,0,0,1-1.84-4.74c-.54-1.68-.79-3.4-1.48-5a46.35,46.35,0,0,1-1.79-5,58.68,58.68,0,0,1-2.16-15.17c0-1.65,0-3.33,0-5,.14-2.71-.57-7.31-.23-10.14,1.44-12.09,7.57-27,7.65-39.06a19.66,19.66,0,0,1-.18-2.16c.08-.63.4-.93.43-1.67,0-1-.48-1.92-.19-3a9.13,9.13,0,0,0,.68-2.19,67.12,67.12,0,0,0,.09-8.39,82.6,82.6,0,0,1,.37-8.89c.46-11.3-2.27-22.93-4.53-33.9-1.23-6-3.61-10.73-5.87-16,.75-5.2,3.12-10.52,4.08-15.36a232,232,0,0,0,4.61-41.7c.18-13.91-1.06-28.46,4.7-41.12,3.76-8.24,10.2-15,14.49-22.94A49.64,49.64,0,0,0,502.93,597.57Z"/><path class="cls-3" d="M409.75,417.11a7,7,0,0,1-.31,2.25c-.34,1.65-1.3,3.13-1.61,4.79-.26,1.44-.71,2.82-.9,4.28a19.21,19.21,0,0,1-1.25,3.92,31.08,31.08,0,0,0-1,4.45c-.32,1.61-.85,3.15-1.12,4.76a28.55,28.55,0,0,0-.19,5c0,4.14.11,8.32.48,12.44a12.07,12.07,0,0,0,.95,4.15A35.7,35.7,0,0,0,407,467a37.55,37.55,0,0,0,3.4,4.28,28.84,28.84,0,0,0,11.33,8.32,14.25,14.25,0,0,0,5.31,1.47,13,13,0,0,0,3.73-.05,6.77,6.77,0,0,0,2.92-1.75c2.75-2.4,12,.68,13.13-2.74,1-3,8.91-10.47,8.93-13.67s.08-10.31-.75-13.52c-.44-1.72,4-6.66,3.24-8.28-1.5-3.29-2.77-11.83-4.62-14.94-4.11-6.92-4.6-20.36-11.82-24.42-6.58-3.7-30,2.46-29.43,9.09.07.92-2.68,5.88-3.27,6.61"/><path class="cls-4" d="M428.29,378.39c-1.57-1-3.12-2-4.62-3s-3.31-1.7-4.49-3a4.58,4.58,0,0,1-1.27-2.4,47.93,47.93,0,0,0-1.52-9c-.38-1.27-.66-2.06-1.08-3.32s-1.4-3.66-.6-4.83,2.21-.1,3.25.26c.86.29,1.75.15,2.63.38a7.28,7.28,0,0,0,1.89.53,6.17,6.17,0,0,0,4.24-1.61c1.18-1.31.93-3.28,1.89-4.67a5.48,5.48,0,0,1,1.68-1.37,2.66,2.66,0,0,1-1.11-1.24c-1.6-3.56-.66-7.39-1-11.13a18.27,18.27,0,0,0-3.42.18,29.41,29.41,0,0,1-5.39.13c-1.62-.1-3.05.27-4.32-.72-1-.76-1.39-2-2.36-2.76a22.1,22.1,0,0,1-2.07-1.4,31.9,31.9,0,0,1-2.5-3.07c-1.83-2.27-3.92-4.42-5.87-6.62a24.25,24.25,0,0,0-7.35-5.85,19.46,19.46,0,0,0-9.35-1.83,42.84,42.84,0,0,0-7.39.73,74.48,74.48,0,0,0-10.35,3.19c-3.78,1.47-7.5,4.48-10.32,7.34-2.1,2.11-4.43,3.82-6.32,6.2a25,25,0,0,0-3.93,8.17c-.79,2.48-2.24,4.38-3.59,6.5-.69,1.07-.86,2.37-1.53,3.51a29,29,0,0,0-2.2,4.16c-1.07,2.84-.11,5.24.81,7.91.62,1.79,1.77,3.22,2.36,5a14.14,14.14,0,0,0,1.17,2.49c.51.89.71,1.84,1.22,2.74.25.44.63.69.9,1.13s.15.87.51,1.27a20.3,20.3,0,0,0,2.62,1.76,25.07,25.07,0,0,1,2.91,2.29,2,2,0,0,0,.29.27c0,.05-.06.19,0,.54a12,12,0,0,1-.06,2.81c-.15,2.42-.58,2.59-.47,5.35a26.66,26.66,0,0,0,.64,5.14,3.4,3.4,0,0,0,4.71,2.39,1.88,1.88,0,0,1,1.26-.11,4.75,4.75,0,0,1,3.07,1.63,19.33,19.33,0,0,0,1.52,2.62,18.64,18.64,0,0,0,4.33,3.5c1.32.76,2.28.67,2.83,2.08.4,1,.75,2.07,1.1,3.09.67,1.94,1.85,3.53,4.08,3.46,3-.09,6.65-2.91,9.17-4.29,4.41-2.41,9.83-8.91,14.61-3.54l1.17.49c-1.17-.49,8.29,7.11,8.32,8.58,0,2,1.29,4.49,1,6.17-.16.91,4.61-3.06,4.36-2.13,1.14-.1.29-2.85,1.25-3.57,1.25-.95,2.71-1.6,4-2.43l4,4.1A18.48,18.48,0,0,0,427.4,417c.88.8,1.42,1.82,2.24,2.67s1.78,1.44,2.51,2.36c3.45,4.28,5.19,9.61,6.93,14.71,2.6,7.64-15.67,24.54-13.1,32.17,1.57,4.65,12.08,4.25,14.16,8.73s2.17,8.94,3.53,13.56c1,3.52,0,5.26.86,8.84.55,2.38,7.89,3.67,8.5,6,.84,3.28,3.64,5.69,4.39,9,.32,1.41,6.07,1.83,6.25,3.26.25,2.09.41,4.18.57,6.27.21,2.7,1.25,4.53,2.66,6.77,1.65,2.63,4.56,3.6,7.15,5s5,1.81,7.54,2.86c.81.34,2.27,1.32,3.07.88s.37-1.44.29-2.16c-.11-1-.21-1.94-.28-2.9s.27-2.1.22-3.2a21.09,21.09,0,0,1-.16-2.74,17.82,17.82,0,0,0,.1-2.83c-.22-2.73.27-5.55.19-8.29,0-1.29.28-2.5.18-3.8a16.37,16.37,0,0,1,0-5c3.36-15.63-1-35.47-2.13-51.39a102.2,102.2,0,0,0-5.91-27.36,115.2,115.2,0,0,0-6.37-15.26c-5-9.31-13-16-21-22.63-3.57-3-7-6.15-10.68-9-1.1-.85-8.67-3.93-9.85-4.78Z"/><path d="M355.38,365.88c.35-.07.71-.11,1.06-.15s.64-.06.81.1.08.06,0,.14-.21.08-.28.11a2.69,2.69,0,0,0-.29.16c-.36.25-.7.53-1.06.78a7.07,7.07,0,0,1-.63.44c-1.36.78-3,1.14-4.3,2.07a6.25,6.25,0,0,0-1.76,3.73c-.44-.27-2.34-.8-2.23-1.36.15-.79,1.85-2.29,2.31-3a6.47,6.47,0,0,1,3.68-2.62C353.58,366.07,354.49,366.06,355.38,365.88Z"/><path d="M424.94,330.39c-2.49-.14-5.19.16-7.63-.28-7.78-1.39-11.84-9.91-18.27-14.5-5.29-3.77-12.21-4.74-18.63-3.79s-12.46,3.67-18.19,6.73c-5.3,2.85-10.51,6.09-14.5,10.59-2.69,3-9.16,13-5.67,17.11s13.08,1.63,17.54,5.49c2.26,1.95,3.58,4.93,6.16,6.45a24.45,24.45,0,0,0,4.2,1.61c2.56.94,4.85,2.53,7.46,3.3s5.86.45,7.44-1.76a11.14,11.14,0,0,1-2.32-5.29c-.15-1.94,1.11-2,3-2.48,2.58-.71,4.68-.28,5.61,2.23s1.34,5.42,3.34,7.19c2.17,1.91,5.41,1.79,8.29,1.56l14.86-1.18c.67-2.91-2.87-5.64-2-8.5.64-2.16,3.27-2.84,5.4-3.58a18.43,18.43,0,0,0,9.68-7.87c2.05-3.43,2.71-8.34-.21-11.07A8.34,8.34,0,0,0,424.94,330.39Z"/><path d="M342.05,347.14l.47-.8-.18-.11A2.85,2.85,0,0,0,342.05,347.14Z"/><path class="cls-4" d="M382.87,363.73c-5-1.75-2.39-9.79,1.32-11.23a6.56,6.56,0,0,1,8.13,3.51c1.27,3.14-.11,6.83,1,10.05.56,1.69,1.81,3.27,1.61,5.05s-3.26,2.74-3.57,1"/><path d="M414.7,338a7.17,7.17,0,0,0,.66-3.33,11.77,11.77,0,0,1,1-3.84,6.17,6.17,0,0,1,2.95-3.38,6.72,6.72,0,0,1,4-.46,6.5,6.5,0,0,1,3.33,1.42c.85,1,1.14,3.08,1.59,4.28a6.68,6.68,0,0,1-.37,4.54,6,6,0,0,1-2.89,3.67,19.73,19.73,0,0,1-10.54,1c-1.73-.24-3.27-2.07-4.15-3.52s-1.9-4.08-1.7-5.81c.37-3.31,4.27-4.71,7.08-5,1.69-.18,3.41-.2,4.69,1.12a9.81,9.81,0,0,1,2,3.9,18.26,18.26,0,0,1,1.35,4.84,6.65,6.65,0,0,1,0,2.63,20.18,20.18,0,0,0-.81,2.84,8.26,8.26,0,0,1-1.24,3.08,3.2,3.2,0,0,1-2,1.5,10.67,10.67,0,0,1-3,.6c-.63,0-1.27-.16-1.91-.17-1.1,0-1.12-.07-1.6-1.21"/><path d="M413.9,337.39c-1-1-.94-2.32-.78-3.63a6.29,6.29,0,0,0,.08-1.38,1.84,1.84,0,0,1,.76-1.77c1.36-1.24,3.53-1.41,5.24-1.64a6,6,0,0,1,2.19-.08c.66.14,1.26.53,1.91.66a4.33,4.33,0,0,1,1.12.16c.39.18.66.52,1.07.69a2.42,2.42,0,0,1,1,.51,8.94,8.94,0,0,1,.79,1,4.92,4.92,0,0,1,1.16,1.93,13.12,13.12,0,0,1,.28,2.34,4.71,4.71,0,0,1-.13,1.05c-.06.44,0,.87,0,1.3a6.32,6.32,0,0,1-1.8,3c-1.45,1.69-3.94,2.42-6,3.06a11.53,11.53,0,0,1-5,.37,27.85,27.85,0,0,1-2.72-.71,10.1,10.1,0,0,1-2.46-.85,8.33,8.33,0,0,1-2.2-1.85,19.22,19.22,0,0,1-1.94-2.4,6.3,6.3,0,0,1-.75-2.91,7.69,7.69,0,0,0,.12-1.6,5.36,5.36,0,0,1-.17-1.65,6.57,6.57,0,0,1,2.71-5,20.46,20.46,0,0,1,3.72-2.18c.86-.34,1.75-.62,2.61-.94a6,6,0,0,1,2.92-.27,4.25,4.25,0,0,1,1.68.46,5.15,5.15,0,0,1,1.46.8c1.08,1.21,1.12,2.79,1.92,4.09a4.9,4.9,0,0,1,.52.74c.19.44.31.92.48,1.37a10.32,10.32,0,0,1,.67,2.24,6.87,6.87,0,0,1-.12,2.63,3.58,3.58,0,0,1-1.82,2.35,10,10,0,0,1-3.27,1.7,12.69,12.69,0,0,1-4.91.18,9.87,9.87,0,0,1-4.71-1.61,11.17,11.17,0,0,1-2-1.62,11.74,11.74,0,0,1-1.11-2.07c-.73-1.51-.3-3.31-.08-4.87,0-.3,0-1.07.22-1.32s.64-.26.86-.34"/><path d="M416,351.53c-1-1-.94-2.32-.78-3.63a6.29,6.29,0,0,0,.08-1.38,1.86,1.86,0,0,1,.76-1.77c1.36-1.24,3.53-1.41,5.24-1.64a6.45,6.45,0,0,1,2.19-.08c.66.14,1.26.53,1.91.66a4.33,4.33,0,0,1,1.12.16c.39.18.66.52,1.08.69a2.44,2.44,0,0,1,1,.51,8.94,8.94,0,0,1,.79,1,4.92,4.92,0,0,1,1.16,1.93,13.12,13.12,0,0,1,.28,2.34,5.37,5.37,0,0,1-.12,1.05c-.06.44,0,.87,0,1.3a6.24,6.24,0,0,1-1.8,3c-1.45,1.69-3.94,2.42-6,3.06a11.57,11.57,0,0,1-5,.37c-.93-.17-1.81-.45-2.72-.71a9.69,9.69,0,0,1-2.46-.85,8.3,8.3,0,0,1-2.2-1.85,20.16,20.16,0,0,1-1.94-2.4,6.13,6.13,0,0,1-.74-2.9,8.6,8.6,0,0,0,.11-1.61,5.36,5.36,0,0,1-.17-1.65,6.57,6.57,0,0,1,2.71-5,20.46,20.46,0,0,1,3.72-2.18c.86-.34,1.75-.61,2.61-.93a5.93,5.93,0,0,1,2.92-.28,4.25,4.25,0,0,1,1.68.46,4.94,4.94,0,0,1,1.46.81c1.08,1.21,1.13,2.78,1.93,4.08a5.69,5.69,0,0,1,.51.74c.19.44.32.92.48,1.37a10.32,10.32,0,0,1,.67,2.24,6.67,6.67,0,0,1-.12,2.63,3.55,3.55,0,0,1-1.82,2.35,9.93,9.93,0,0,1-3.27,1.71,12.88,12.88,0,0,1-4.91.17,9.87,9.87,0,0,1-4.71-1.61,10.77,10.77,0,0,1-2-1.62,11.16,11.16,0,0,1-1.12-2.07c-.73-1.5-.3-3.31-.08-4.87.05-.3,0-1.07.22-1.32s.64-.26.86-.34"/><path class="cls-1" d="M469.62,412.44c-.73-1.49-1.68-3.41-1.69-3.49-1.65-3.15-4.37-3.55-5.71-6.93,1.95,7.93,6.31,18.34,6.15,26.47-.19,10-1.57,20.14-5,28.94a39.89,39.89,0,0,1-2.95,6.13,29.9,29.9,0,0,1-1.86,2.74c-.77,1-6.82,7.55-10,11.58a7.63,7.63,0,0,1,1.39,2l.26.4c2.66-3.09,10.56-10.72,10.5-11.66,4.86-6.38,7.52-15.31,9-24.12a111.64,111.64,0,0,0,.74-30.36c0-.05-.37-.81-.82-1.73"/><path class="cls-5" d="M410.45,417.8c-1,10.19-5.93,17.46-9.45,27a23.48,23.48,0,0,0-1.53,4.53c-1,3.25-1.82,6.56-2.63,9.86-1.29,5.23-2.64,10.52-2.63,15.91a24,24,0,0,0,2.27,10.59c1.71,3.46,4.54,6.33,6.55,9.62,4.12,6.75,5.41,14.87,6.12,22.62a139.47,139.47,0,0,0,2.55,16.15c.95,4.41,2.14,8.74,1.92,13.28-.23,4.82-1.5,9.51-2.07,14.29a49.79,49.79,0,0,0,.15,12.79c1.11,7.84,3.51,15.31,5.39,23,.59,2.4,1,7.75,3.16,9,2.68-2.47,3-9.33,3.73-12.88.93-4.62,3.45-8.85,5.52-13.12a33,33,0,0,1,29.37-18.68c13.13-.18,21.95,7.9,31.6,16.6,3.61,3.26,10,15.14,12.46,19.29-1.07-9.18-.75-16.26-4.42-25-4-9.57-8.92-19.09-12.53-28.76-.74-2-.43-4.2-1.05-6.19s-2.07-1.62-3.84-2.31c-1.18-.46-2.16-1-3.36-1.37-4.51-1.4-8.09-5.24-10.62-9-1.21-1.82-1.69-3.93-2.84-5.74a27.26,27.26,0,0,1-1.76-3.6c-5.29-11.74-7.55-24.72-12.92-36.42-1.92-4.19-5-7.47-7.95-11A2.64,2.64,0,0,0,439,467a71.88,71.88,0,0,1-17-2.16c-10.2-2.73-15.37-10.06-15.73-20.7a33.78,33.78,0,0,1,.61-6.73c.45-2.61,4.17-16,4.7-18.6Z"/><path class="cls-1" d="M477.26,436.58a49.38,49.38,0,0,1,3.3,10.67c.44,1,.89,1.93,1.32,2.9-.2-2.08-.39-4.17-.46-6.26-.07-.72-.15-1.44-.23-2.16-.47-1.91-.92-3.83-1.27-5.77-.54-1.43-1-2.87-1.42-4.32a83.76,83.76,0,0,0-4.54-7.93c-4.16-6.43-11.46-14.26-18.13-18.06-9.17-5.21-18.87-6.83-29.56-5.75A21.28,21.28,0,0,0,414,405.08c-2.86,2.63-4.43,11.56-5.09,15.4l2.61-1.24c.58-5.59,3.24-12.17,8.53-14.54s14.34-2.84,20-1.74c12.41,2.43,22.06,9.36,29.59,19.9A71,71,0,0,1,477.26,436.58Z"/><path class="cls-6" d="M386.7,452.25a5,5,0,0,0-2.12-2.19c-1-.35,31.58-3.62,30.53-4-1.82-.6,3.91-29.42,2-29.42-1.63,0-7.85,1.11-9.36,2.26-2.48,1.88-45.7,36-47.16,40.2-9.76,5.06-18.78,11.37-27.85,17.54-8.63,5.87-20.47,16.68-30.31,20.33,1,4.92,4.9,5.64,5.93,10.56,5.64-4.34,11.13-8.09,17.73-10.61,7.21-2.76,15-4.38,22.08-6.65a72.24,72.24,0,0,0,8.64-3.38,36.86,36.86,0,0,0,7-4,16.76,16.76,0,0,1,2.35-1.35c1.13-.62,2.14-1.65,3.19-2.33a22.27,22.27,0,0,0,2-1.52l2.35-1.41a18.71,18.71,0,0,1,1.78-1.88c1.79-1.58,3.26-3.63,5.11-5.15a55.91,55.91,0,0,0,4.76-4.5,12,12,0,0,0,1.7-3.13,6.79,6.79,0,0,0,1.11-2.84A11,11,0,0,0,386.7,452.25Z"/><path class="cls-7" d="M302.41,497l-1,.42c-.76.31-1.52.6-2.3.86-.48.17-1,.32-1.46.47s-1,.24-1.52.43-1.32.39-2,.57a7.52,7.52,0,0,1-2.11.2,15.78,15.78,0,0,1-1.94-.22c-.64-.09-1.28-.19-1.93-.23-.28,0-.57-.06-.85-.06l-.88,0a6.12,6.12,0,0,1-1.21,0,7.44,7.44,0,0,1-.78-.2c-.52-.16-1.05-.31-1.57-.48s-1-.36-1.55-.54a5.29,5.29,0,0,0-.54-.25l-.72-.22c-.37-.11-.74-.23-1.12-.33a5.31,5.31,0,0,1-.55-.23c-.26-.13-.56-.15-.82-.27a3.9,3.9,0,0,0-.35-.19,4.1,4.1,0,0,1-.5-.14,10.4,10.4,0,0,0-.95-.46,2.7,2.7,0,0,1-.48-.16,1.77,1.77,0,0,0-.34-.16,2.46,2.46,0,0,1-.4-.19c-.21-.1-.43-.13-.64-.21a14.8,14.8,0,0,0-1.55-.63,7.15,7.15,0,0,1-1.37-.47,2.81,2.81,0,0,0-.56-.18c-.23-.07-.42-.21-.65-.29-.42-.14-.85-.25-1.28-.38l-1.72-.52-2.14-.64-1.06-.32a1.89,1.89,0,0,1-.41-.18,3.18,3.18,0,0,0-.74-.23l-.48-.08a1.09,1.09,0,0,0-.36,0,3.29,3.29,0,0,0-.37.1c-.18.08-.21.3-.26.47-.12.45.12.63.41.83a4.56,4.56,0,0,1-.84-.39,9.18,9.18,0,0,0-2.07-.7,3.76,3.76,0,0,0-1.88-.17,1,1,0,0,0-.7.61.91.91,0,0,0,.07.83,1,1,0,0,0,.73.54c.35.1.66.3,1,.39h.06a.5.5,0,0,0-.3.24c-.12.23,0,.54.09.78a.86.86,0,0,1,0,.45.81.81,0,0,0,.21.64,7.08,7.08,0,0,0,1.9,1.24c.67.38,1.27.9,2,1.25l.75.4c.17.09.35.14.52.23.47.25.95.42,1.43.64a14,14,0,0,0,1.5.63c.48.15.91.36,1.4.5s.84.38,1.26.55a8.44,8.44,0,0,1,1.29.69c.24.14.48.27.71.43a3.48,3.48,0,0,0,.89.31,12.86,12.86,0,0,1,1.73.66c.77.36,1.57.55,2.3,1,1.12.66,2.26,1.27,3.38,1.9.12.07.25.17.37.25a1.81,1.81,0,0,1,.37.24c0,.14-.15.15-.23.23s-.16.19-.25.27a2.47,2.47,0,0,0-.37.42,2.87,2.87,0,0,0-.41,1.1,2.45,2.45,0,0,0,.06.6,1.08,1.08,0,0,0,.13.43c.07.09.16.15.22.24a2.81,2.81,0,0,0,2.39,1.84,3.73,3.73,0,0,0,1.25.07,10.71,10.71,0,0,1,1.13-.07c.43,0,.86,0,1.28,0a5.56,5.56,0,0,0,1.47-.07,5.83,5.83,0,0,1,1.44-.11,13.47,13.47,0,0,1,3.23.46,9.29,9.29,0,0,0,1.34.39l1.13.19c.43.07.89.07,1.33.12.61.07,1.21.2,1.82.25a3.67,3.67,0,0,0,1.92-.44,2.43,2.43,0,0,1,.68-.31,9.05,9.05,0,0,0,1.05-.3c.18-.06.35-.07.53-.12s.36-.15.55-.21a5,5,0,0,0,.91-.33,3.57,3.57,0,0,0,1.47-1.46,8.62,8.62,0,0,0,.54-1.2c.06-.19.12-.49.31-.59a6.32,6.32,0,0,1,1-.3c.42-.15.8-.41,1.22-.58l1.1-.46A80.69,80.69,0,0,0,302.41,497Zm-44-3.05h-.13Zm1.07.39c-.16,0-.33-.18-.49-.23l-.25-.09c.14.05.27.1.39.13l.76.23A1.58,1.58,0,0,1,259.53,494.34Z"/><path class="cls-7" d="M298.13,502.15c.27,0,.49.56.6.77a3.4,3.4,0,0,0,.53.77l.52.49c.26.25.41.58.65.83a1.19,1.19,0,0,1,.23.31c.09.19.18.38.26.58a8.92,8.92,0,0,0,.52,1.08,3.21,3.21,0,0,1,.39.91,3.9,3.9,0,0,0,.25.8"/><path class="cls-7" d="M299.93,502.37c.37,0,.56.77.75,1a4,4,0,0,1,.35.56,5.12,5.12,0,0,0,.4.52c.12.17.18.38.29.55s.21.5.34.74.27.39.38.6.15.37.25.56"/><path class="cls-7" d="M300.86,501.68a4,4,0,0,1,1.33.49,2.4,2.4,0,0,1,.64.74c.2.34.43.65.61,1s.19.45.28.67.21.47.29.71a4.87,4.87,0,0,1,.06.76,1.87,1.87,0,0,0,.08.59"/><path class="cls-7" d="M279.5,507.12a1.78,1.78,0,0,0,.64-.13c.42-.12.85-.2,1.27-.32s.64-.12,1-.17a10.18,10.18,0,0,1,1.11-.12,7.3,7.3,0,0,1,.81,0,4.85,4.85,0,0,1,.75.11c.55.1,1.09.22,1.64.35a3.79,3.79,0,0,0,1.3.09c.58-.08,1.15-.24,1.73-.31.39-.05.76-.05,1.15-.07a6.6,6.6,0,0,1,.77,0c.31,0,.62,0,.93,0s.33,0,.48,0l.3.08a2.09,2.09,0,0,1,.36.08,3.58,3.58,0,0,0,.71.2c.09,0,.35.13.4,0"/><path class="cls-7" d="M282.36,510.92l-.3,0-1.73.05a2.34,2.34,0,0,1-1.73-.4,2,2,0,0,1-.47-1.5,1.34,1.34,0,0,1,.27-.94,1.42,1.42,0,0,1,.82-.38,10.14,10.14,0,0,1,3.34-.13,1.27,1.27,0,0,1,.9.39,1.36,1.36,0,0,1,.2.48,2.68,2.68,0,0,1,0,1.32,1.5,1.5,0,0,1-.83,1A1.78,1.78,0,0,1,282.36,510.92Z"/><path class="cls-7" d="M274.13,498.78c-.07.22-.12.47-.2.69a.48.48,0,0,1-.19.21,1.2,1.2,0,0,1-.33.06"/><path class="cls-7" d="M272.61,499.11c0-.15.09-.29.13-.44s.1-.2.13-.31"/><path class="cls-7" d="M272.19,499.06l.13-.43.06-.21a1.51,1.51,0,0,1,.11-.22"/><path class="cls-7" d="M271.23,499.09a1,1,0,0,0,.06-.3c0-.14,0-.27-.05-.41a3.11,3.11,0,0,1,0-.32,1.25,1.25,0,0,1,.08-.32"/><path class="cls-7" d="M271.85,496.9c0-.15,0-.3,0-.45l.06-.17c0-.07.1-.16.1-.22"/><path class="cls-7" d="M272.81,496.2c0,.13-.11.23-.15.36s-.07.24-.1.36"/><path class="cls-7" d="M273.12,496.37l-.15.47"/><path class="cls-7" d="M274.05,496.81l-.18.6a1.24,1.24,0,0,1-.27.49"/><path class="cls-7" d="M263.19,495.1a48.53,48.53,0,0,1,4.73,1.42l.58.18c2.14.64,4.25,1.28,6.37,2a2.18,2.18,0,0,1,.48.19c.19.11.47.1.66.2.75.36,1.48.63,2.22,1a3.45,3.45,0,0,0,1.4.42c.94-.12,1.85-.3,2.81-.37a1.63,1.63,0,0,0,1-.19"/><path class="cls-7" d="M263.81,493.84c.91.28,2.22.47,3.13.74l1.38.42.7.21c.25.08.51.09.76.16.68.18,1.36.28,2,.48l.82.25a14.19,14.19,0,0,1,1.41.55c.36.13.69.28,1,.39l1,.29,4,1.19a10.89,10.89,0,0,0,1.81.33,13,13,0,0,1,1.77.22"/><path class="cls-7" d="M257.43,494.66c-.06,2,2.16,2,2.84,2.12,1.16.15,2.09.15,2.59-.8.08-.16.44-.47.5-.65"/><path class="cls-7" d="M260.25,492.52a3.09,3.09,0,0,1-.37.75c-.14.09-.27.21-.42.3a1.77,1.77,0,0,1-.71.27,3.08,3.08,0,0,1-1.27-.31,2.46,2.46,0,0,1-.71-.23l-.14-.16-.17-.08a1.73,1.73,0,0,1-.31-.35,1.66,1.66,0,0,1-.39-.77c0-.24.2-.71,1.34-.56Z"/><path class="cls-7" d="M265.25,492.4a3.49,3.49,0,0,1-.37.75c-.15.09-.28.21-.42.3a1.77,1.77,0,0,1-.71.27,3.08,3.08,0,0,1-1.27-.31,2.46,2.46,0,0,1-.71-.23c0-.05-.09-.11-.14-.17l-.17-.07a1.47,1.47,0,0,1-.31-.35,1.76,1.76,0,0,1-.4-.78c0-.23.21-.7,1.35-.55Z"/><path class="cls-7" d="M440.3,405a21.85,21.85,0,0,0-2.61-1.62,9.25,9.25,0,0,0-2.63-.77,16,16,0,0,0-6.27-.42c-1,.14-2.05.26-3.08.48-5.4,1.18-9.09,3.73-12.78,7.81-3.21,3.55-6.37,7.16-9.26,11-1.36,1.79-2.66,3.64-3.88,5.54-5.52,8.64-11.24,17.09-16.68,25.79-8.63,13.79-20.59,28-25.4,43.79-12.85,10.62-24.62,23.14-37.91,33.1a31.21,31.21,0,0,0-2.62,2.28,7.73,7.73,0,0,1-1.81,1.11,7,7,0,0,0-1.95,1.23c-.51.53-1.1.84-1.62,1.33a12.75,12.75,0,0,1-2.44,1.81c-.51.3-1,.66-1.54.92l-.83.44-.23,0c-.52.31-1,.67-1.56.93a11.78,11.78,0,0,1-1.55.85,5.45,5.45,0,0,1-1.84.38c-.65,0-1.31-.09-2-.14-1.11-.1-2.2-.18-3.31-.25a9.92,9.92,0,0,0-1.43-.1c-.43,0-.89.2-1.31.19l-.58.28c-.49.05-1,0-1.48.09a5.82,5.82,0,0,0-1.35.4l-.55.22c-.3.11-.61.12-.9.25a9.4,9.4,0,0,0-1.17.51c-.4.24-.41.7-.55,1.12a1.46,1.46,0,0,1-.71.94c-.39.21-.76.46-1.14.68s-.49.23-.73.38l-.65.38a8.93,8.93,0,0,1-1.45.65l-.74.33a5.2,5.2,0,0,1-.68.17,2,2,0,0,0-.55.26c-.21.12-.43.19-.63.31a3.33,3.33,0,0,0-1.06,1,1.66,1.66,0,0,0-.23.41c-.06.21-.08.49-.12.71a4.13,4.13,0,0,1-1,2.59l-.64,1c-.15.26-.36.43-.53.67a3,3,0,0,1-.36.56c-.14.13-.26.3-.41.43a1.46,1.46,0,0,0-.36.34,9.51,9.51,0,0,0-.59,1c-.23.51.12.85.41,1.19a1.71,1.71,0,0,0,.56.37,7,7,0,0,0,1,.45.36.36,0,0,0,.29,0c.05,0,.09-.11.16-.13s.15,0,.22,0a.46.46,0,0,0,.23,0,7.25,7.25,0,0,0,1.43-.92c.52-.39,1-.8,1.51-1.23l.1-.09c-.2.21-.39.42-.6.62a7.73,7.73,0,0,1-1.3,1.06,12,12,0,0,0-1.42.83,1.75,1.75,0,0,1-.24.23,6.22,6.22,0,0,0-.58.43c-.13.11-.22.24-.35.36a2.64,2.64,0,0,1-.46.27,8.79,8.79,0,0,0-1,.61,6.92,6.92,0,0,0-1.56,1.45c-.12.18-.27.23-.42.36a4.79,4.79,0,0,0-.36.41,2.13,2.13,0,0,1-.35.38,4.74,4.74,0,0,1-.54.29c-.34.19-.63.47-1,.63s-.68.38-1,.54a6.56,6.56,0,0,0-.93.53c-.14.1-.21.28-.33.39s-.23.19-.34.28c-.27.24-.5.49-.78.71s-.62.53-.92.8a18.38,18.38,0,0,1-1.52,1.28,6,6,0,0,0-1.09,1.6,2.91,2.91,0,0,0-.19,2.21,2.66,2.66,0,0,0,1.07,1.55,1.11,1.11,0,0,0,.78.21c-.16,0-.33.12-.48.17a1.67,1.67,0,0,0-.87.85,3,3,0,0,0-.24.43,6.63,6.63,0,0,1-.29.6,3.69,3.69,0,0,0-.21.64,1,1,0,0,0,.22.9,7.06,7.06,0,0,0,.92,1,2,2,0,0,0,1.08.67,2.42,2.42,0,0,0,1.38-.49,12.65,12.65,0,0,0,1.58-.94c.39-.27.75-.52,1.15-.76a11.11,11.11,0,0,0,1.36-.91,16.23,16.23,0,0,1,1.61-.82c.27-.18.51-.38.77-.56s.45-.24.67-.4a4.66,4.66,0,0,1,1.51-.63,4,4,0,0,0,.81-.32,4.6,4.6,0,0,1,.59-.29L269.86,577a.61.61,0,0,0-.43.28c-.07.1-.14.1-.22.18a1.84,1.84,0,0,0-.4,1c-.13,1,.73,1.59,1.43,1.94a2,2,0,0,0,1.39.13c.51-.1,1-.08,1.53-.18a3.28,3.28,0,0,0,1.24-.55,8.87,8.87,0,0,1,1.28-.71,17.75,17.75,0,0,0,2.41-1.69l.69-.44a6,6,0,0,1,.58-.25c.53-.29,1-.63,1.53-1a4.71,4.71,0,0,1,.84-.42c.27-.09.51-.25.78-.33s.56-.22.84-.34l-5.35,3c-.1.17-.42.12-.4.35s.06.26.07.38a1.3,1.3,0,0,0,0,.4.66.66,0,0,0,.22.22c.31.24.55.57.85.82a1.75,1.75,0,0,0,1,.37,2.53,2.53,0,0,0,1.43-.23c.24-.1.49-.09.73-.19a7,7,0,0,0,.78-.38c.22-.1.42-.26.64-.35a5.24,5.24,0,0,0,.65-.27c.24-.15.52-.22.76-.37a3.3,3.3,0,0,1,.63-.36,5.81,5.81,0,0,0,1.26-.66c.32-.23.73-.32,1.06-.54s.74-.36,1.1-.58.85-.47,1.26-.72c.16-.09.28-.26.44-.34s.42-.14.62-.26c.38-.24.79-.39,1.18-.63s.58-.58.92-.82a7.54,7.54,0,0,1,1.12-.67c.33-.16.58-.45.89-.64s.43-.19.64-.31a8.06,8.06,0,0,1,.95-.42c.38-.15.74-.34,1.11-.52a3.16,3.16,0,0,0,.89-.82,1.45,1.45,0,0,1,.57-.36c.22-.1.4-.22.61-.34a2.1,2.1,0,0,0,.39-.21,2.63,2.63,0,0,1,.56-.49c.23-.13.59-.15.8-.33a12.38,12.38,0,0,0,1.08-1.34c.12-.16.23-.34.36-.5a19.07,19.07,0,0,1,1.47-1.51,9.06,9.06,0,0,0,.94-.92c.23-.32.37-.62.63-.92.64-.73,1.15-1.61,1.8-2.35.2-.23.46-.39.66-.63s.46-.74.77-1.07c6.86-7.11,13.39-13.36,21.84-18,8.27-4.55,17.38-7.8,25.64-11.74a90.89,90.89,0,0,0,9.9-5.55,45,45,0,0,0,7.82-6,20,20,0,0,1,2.62-2c1.26-.94,2.31-2.36,3.48-3.35a26.18,26.18,0,0,0,2.15-2.19l2.61-2.1a22.66,22.66,0,0,1,1.85-2.57c1.89-2.22,3.34-4.95,5.32-7.1a69.52,69.52,0,0,0,5-6.24,8.48,8.48,0,0,0,1.16-2.85l2.18-1.88,16.34-14.17,9.4-8.14a124.36,124.36,0,0,0,9.53-9.68,90.63,90.63,0,0,0,6.89-8.81,49.64,49.64,0,0,0,3.73-5.42M265.53,573.94h0l.09,0Zm.84-.57a6.59,6.59,0,0,1,1.48-1.21l.74-.34Zm4-2.8a3.08,3.08,0,0,0,.42-.39l.79-.9a5.22,5.22,0,0,1,.93-.83,5.71,5.71,0,0,0,.89-.75,3.13,3.13,0,0,1,1.29-.64,7.41,7.41,0,0,0,1.2-.5,19.76,19.76,0,0,1,2.54-1.57Zm12-16.44c-.19,0-.44.42-.59.56l-.21.23C281.8,554.6,282,554.23,282.37,554.13ZM280,571.38a1.82,1.82,0,0,1,.19-.14c.18-.11.36-.14.53-.26a5.89,5.89,0,0,0,1.58-1.33c.24-.33.56-.18.92-.36s.89-.33,1.26-.53c.75-.4,1.18-.86,1.93-1.25.37-.19.58-.48,1-.56.13,0,.81-.32.87-.26l.52-.15Zm8.38.44a5.44,5.44,0,0,1,1.64-.92Zm4-2.44c0-.07.06-.12.1-.11S292.46,569.31,292.37,569.38Z"/><path class="cls-7" d="M281.84,551a3.68,3.68,0,0,0-.42-1.22c-.16-.22-.33-.45-.51-.67s-.25-.4-.39-.6-.25-.74-.69-.76"/><path class="cls-7" d="M280.43,551.61a4.81,4.81,0,0,1-1.14-.78l-.36-.29c-.15-.12-.26-.36-.42-.44"/><path class="cls-7" d="M263.23,571.23c.16-.18,1.06-1.08,1.24-1.2a2.23,2.23,0,0,1,.83-.24,1.91,1.91,0,0,1,1.08.14,2.07,2.07,0,0,1,.73.62c.36.7-.22,1.42-.56,2a4.82,4.82,0,0,1-.7.79c-.11.11-.24.16-.35.26a3,3,0,0,1-.78.59"/><path class="cls-7" d="M263.23,576.24c.17-.27.64-.67.84-.92a1.39,1.39,0,0,1,1-.43c.29,0,.58.05.86,0,.07,0,.13,0,.21,0a2.34,2.34,0,0,1,1.25.87,1.22,1.22,0,0,1,.24,1,5.75,5.75,0,0,1-.55.89c-.14.22-1.11,1.86-1.23,1.58a3.32,3.32,0,0,0-.69,0"/><path class="cls-7" d="M268.86,578.23a7.69,7.69,0,0,1,.83-.68,2.15,2.15,0,0,1,.89-.5,1.68,1.68,0,0,1,.57-.16,2.05,2.05,0,0,1,.55.1c.17.07.21.23.33.36a1.74,1.74,0,0,1,.27.38c.07.13.17.2.21.35a1.39,1.39,0,0,1,0,.41,1.1,1.1,0,0,1-.35.75,3.62,3.62,0,0,1-.84.56c-.14.08-.27.19-.41.28a4.06,4.06,0,0,1-.69.29c0-.12-.77-.32-.69-.42"/><path class="cls-7" d="M277.37,567.94a3.48,3.48,0,0,1,.7.73,2.1,2.1,0,0,1,.51,1.06"/><path class="cls-7" d="M275.89,568.45a3,3,0,0,0,.16.59,2.83,2.83,0,0,0,.44,1,2.42,2.42,0,0,0,.58.65,3.79,3.79,0,0,0,.35.25c.11.06.23.06.32.16"/><path class="cls-7" d="M282.74,572.41c.14.2.29.4.42.61a.51.51,0,0,1-.18-.31"/><path class="cls-7" d="M283.36,571.58c.25.42.54.83.77,1.27a1.63,1.63,0,0,1,.21.57"/><path class="cls-7" d="M288.71,573.51a6.32,6.32,0,0,1,1,.79c.11.11.26.35.42.33"/><path class="cls-7" d="M274.5,562.49a16.54,16.54,0,0,1,1.16,1.49c.51.71.06.14.11.2"/><path class="cls-7" d="M275,561.4a5.06,5.06,0,0,1,2.22,2.87c.07.25.33.35.45.57"/><path class="cls-7" d="M278.46,577.15c.13,0,1-.59,1.08-.61a1.37,1.37,0,0,1,.57,0,4.44,4.44,0,0,1,1.11.73c.27.21.57.43.54.85a1.25,1.25,0,0,1-.61.89c-.33.22-.64.4-1,.59s-.85.51-1.05.41"/><path class="cls-7" d="M277,553.3c.78-.95,1,.59.9,1.12-.19,1.22-.57,3.76-2.16,3.5"/><path d="M180,222.9V230h6.9V222.9H190v17.26h-3.11v-7.34H180v7.34H176.9V222.9Z"/><path d="M204.32,236.61a5.76,5.76,0,0,1-5.57,3.7c-4.34,0-6.26-2.71-6.26-6.76s2.71-6.53,6.43-6.43c3,.07,5.75,2.34,5.45,6.46l-.05.39h-8.73c0,2.2.94,3.7,3.18,3.7a2.87,2.87,0,0,0,2.79-2Zm-3.13-4.21c.05-2-1-2.94-2.54-2.89a2.88,2.88,0,0,0-2.91,2.89Z"/><path d="M207.26,228.06a15.42,15.42,0,0,1,4.88-.94c3.9,0,5.33,1.92,5.33,4.93v5.23a.65.65,0,0,0,.62.74,2.45,2.45,0,0,0,1-.15v2a5.09,5.09,0,0,1-2,.39,2.33,2.33,0,0,1-2.34-1.75,5.67,5.67,0,0,1-3.9,1.75c-2.51,0-4.39-1.28-4.41-4s2-4.09,5.25-4.09a21.85,21.85,0,0,1,2.79.24v-.76c0-1.41-.89-2.17-2.67-2.15a10.39,10.39,0,0,0-4,.79Zm7.15,6a13,13,0,0,0-2.51-.15c-1.48.07-2.42.76-2.44,2.07a1.81,1.81,0,0,0,2.09,1.9,5.06,5.06,0,0,0,2.86-1Z"/><path d="M233.3,221.32v18.84h-2.56l-.35-2.22a4.49,4.49,0,0,1-4.11,2.37c-3.48.05-5.55-2.83-5.55-6.63,0-4.64,3-6.56,5.52-6.56a4.09,4.09,0,0,1,4,2.44v-7.84Zm-9.42,12.33c0,2.2.87,3.92,3.16,3.92s3.25-1.72,3.25-3.89c0-2.94-1.57-4-3.27-4S223.88,230.82,223.88,233.65Z"/><path d="M244,227.24l.45,2.3a4.33,4.33,0,0,1,4-2.45,3.77,3.77,0,0,1,3.85,2.4,4.55,4.55,0,0,1,4.17-2.4c3,0,4.21,2,4.21,4.64v8.43h-3.05v-7.44c0-2-.47-3-2.15-3-2.22,0-2.81,1.68-2.81,3.58v6.9h-3.06v-7.44c0-2-.47-3-2.14-3-2.37,0-2.84,1.9-2.84,4v6.51h-3.06V227.24Z"/><path d="M266.7,227.24v7.45c0,2,.79,3,2.59,3,2.34,0,3.3-2.41,3.3-4.86v-5.62h3.06v12.92h-2.44l-.44-2.81a4.72,4.72,0,0,1-4.47,3c-3.15,0-4.66-1.95-4.66-5.2v-7.87Z"/><path d="M279.16,236.46a6.68,6.68,0,0,0,4.19,1.43c1.48,0,2.34-.44,2.34-1.5,0-2.51-7.47-.84-7.22-5.57.09-2.32,1.8-3.7,5.22-3.7a10.49,10.49,0,0,1,4.66,1.21l-1.08,2.17a7.25,7.25,0,0,0-3.7-1.06c-1.21,0-2.22.39-2.17,1.4.15,2,7.32.47,7.32,5.45,0,2.66-2.39,4.05-5.45,4a8.82,8.82,0,0,1-5.3-1.68Z"/><path d="M295.19,223.59v3.78h3.25l-.42,2.46h-2.83v5.92c0,1.41.64,1.95,1.67,1.95a5.72,5.72,0,0,0,1.95-.57l.57,2.34a7.94,7.94,0,0,1-3.28.84c-3,0-4-2-4-4.14v-6.34h-1.8v-2.46h1.95l.37-3.43Z"/><path d="M309.54,221.32v8.22a4.4,4.4,0,0,1,4.32-2.42c2.44.07,5.05,1.73,5.05,6.48,0,3.9-2,6.71-5.45,6.71a4.28,4.28,0,0,1-4.07-2.37l-.42,2.22h-2.49V221.72Zm-.12,12.36c0,2.22.81,4,3.25,4,2,0,3.11-1.5,3.11-4,0-3-1.5-3.95-3.13-3.95S309.42,231.09,309.42,233.68Z"/><path d="M333,236.61a5.78,5.78,0,0,1-5.58,3.7c-4.34,0-6.26-2.71-6.26-6.76s2.71-6.53,6.44-6.43c3,.07,5.74,2.34,5.45,6.46L333,234h-8.73c0,2.2.93,3.7,3.18,3.7a2.87,2.87,0,0,0,2.78-2Zm-3.14-4.21c.05-2-1-2.94-2.54-2.89a2.89,2.89,0,0,0-2.91,2.89Z"/><path d="M173.46,261.16v12.92h-3.08V263.7h-1.8v-2.54Zm-1.56-5a1.65,1.65,0,0,1,1.83,1.55,1.83,1.83,0,0,1-3.63,0A1.59,1.59,0,0,1,171.9,256.13Z"/><path d="M179,261.16l.47,2.29a4.78,4.78,0,0,1,4.41-2.42c3,0,4.49,2,4.49,4.61v8.44h-3.06v-7.45c0-2-.74-3-2.41-3-2.35,0-3.26,1.9-3.26,4v6.51h-3V261.16Z"/><path d="M199.72,255.24v14.62c0,1.38.62,1.75,1.53,1.75a2.38,2.38,0,0,0,1.29-.47l.56,2.2a5.32,5.32,0,0,1-2.78.88c-2.57,0-3.65-1.72-3.65-4.06V255.61Z"/><path d="M208.58,261.16v12.92H205.5V263.7h-1.8v-2.54Zm-1.55-5a1.65,1.65,0,0,1,1.82,1.55,1.82,1.82,0,0,1-3.62,0A1.59,1.59,0,0,1,207,256.13Z"/><path d="M214.15,261.16l.47,2.29A4.8,4.8,0,0,1,219,261c3,0,4.48,2,4.48,4.61v8.44h-3.05v-7.45c0-2-.74-3-2.42-3-2.34,0-3.26,1.9-3.26,4v6.51h-3V261.16Z"/><path d="M238,270.53a5.77,5.77,0,0,1-5.58,3.69c-4.34,0-6.26-2.71-6.26-6.75s2.71-6.54,6.44-6.44c3,.08,5.74,2.34,5.45,6.46l-.05.4h-8.73c0,2.19.93,3.7,3.18,3.7a2.87,2.87,0,0,0,2.78-2Zm-3.14-4.22c0-2-1-2.94-2.54-2.89a2.87,2.87,0,0,0-2.9,2.89Z"/><path d="M247.82,261.16l2.51,9h.2l2.52-9h3.15l2.54,9h.18l2.56-9h3.18l-4.34,12.92h-3l-2.64-8.73h-.2l-2.54,8.73h-3l-4.24-12.92Z"/><path d="M270.66,261.16v12.92h-3.08V263.7h-1.8v-2.54Zm-1.56-5a1.65,1.65,0,0,1,1.83,1.55,1.83,1.83,0,0,1-3.63,0A1.59,1.59,0,0,1,269.1,256.13Z"/><path d="M277.79,257.51v3.77H281l-.42,2.46h-2.83v5.92c0,1.41.64,1.95,1.67,1.95a5.5,5.5,0,0,0,2-.57l.57,2.35a8.15,8.15,0,0,1-3.28.83c-3,0-4-2-4-4.14v-6.34h-1.8v-2.46h1.95l.37-3.43Z"/><path d="M287,255.24v8a4.81,4.81,0,0,1,4.24-2.2c3,0,4.48,2,4.48,4.61v8.44h-3v-7.45c0-2-.74-3-2.42-3-2.34,0-3.25,1.9-3.25,4v6.51h-3.06V255.61Z"/><path d="M307.9,257.51v3.77h3.26l-.42,2.46H307.9v5.92c0,1.41.64,1.95,1.68,1.95a5.5,5.5,0,0,0,1.95-.57l.56,2.35a8.15,8.15,0,0,1-3.28.83c-3,0-4-2-4-4.14v-6.34H303v-2.46H305l.37-3.43Z"/><path d="M317.1,255.24v8a4.83,4.83,0,0,1,4.24-2.2c3,0,4.49,2,4.49,4.61v8.44h-3.06v-7.45c0-2-.74-3-2.41-3-2.35,0-3.26,1.9-3.26,4v6.51H314V255.61Z"/><path d="M340.23,270.53a5.75,5.75,0,0,1-5.57,3.69c-4.34,0-6.26-2.71-6.26-6.75s2.71-6.54,6.43-6.44c3,.08,5.75,2.34,5.45,6.46l0,.4H331.5c0,2.19.94,3.7,3.19,3.7a2.87,2.87,0,0,0,2.78-2Zm-3.13-4.22c0-2-1-2.94-2.54-2.89a2.88,2.88,0,0,0-2.91,2.89Z"/><path d="M229.89,289.15v8.21A4.39,4.39,0,0,1,234.2,295c2.45.07,5.06,1.72,5.06,6.48,0,3.9-1.95,6.71-5.45,6.71a4.28,4.28,0,0,1-4.07-2.37l-.42,2.22h-2.49V289.55Zm-.12,12.36c0,2.21.81,4,3.25,4,2,0,3.11-1.5,3.11-4,0-3-1.51-3.95-3.13-3.95C231.22,297.51,229.77,298.92,229.77,301.51Z"/><path d="M247.77,295c3.23,0,6,2.19,6,6.6,0,3.63-2.14,6.59-6.16,6.59-4.37,0-6.17-3-6.17-6.59C241.48,297.14,244.27,295,247.77,295Zm-3.08,6.6c0,2.05.69,4,3,4,2.09,0,3-1.95,3-4,0-2.86-1.41-4-3-4C246.07,297.53,244.69,298.65,244.69,301.55Z"/><path d="M268.61,289.15V308H266l-.34-2.22a4.52,4.52,0,0,1-4.12,2.37c-3.48.05-5.55-2.84-5.55-6.63,0-4.64,3-6.56,5.53-6.56a4.1,4.1,0,0,1,4,2.44v-7.84Zm-9.42,12.33c0,2.2.86,3.92,3.16,3.92s3.25-1.72,3.25-3.89c0-2.94-1.58-4-3.28-4S259.19,298.65,259.19,301.48Z"/><path d="M273.94,295.07l3.18,9.12h.2l2.91-9.12h3.15l-4.78,13.12c-1.58,4.31-3.06,5.4-7.62,4.44l.54-2.59c2.91.71,3.31,0,4.22-2.49l-4.86-12.48Z"/><path d="M604.85,416.25a12.61,12.61,0,0,0-4.91-1.43c-1.72,0-2.86.52-2.86,1.92,0,3.31,9.23,1.8,9.23,7.65,0,3.55-2.74,5.35-6.34,5.35a10.66,10.66,0,0,1-6.63-2.12l1.52-2.32a8.5,8.5,0,0,0,5,1.82c2.1,0,3.35-.91,3.35-2.39,0-3.43-9.17-2.19-9.17-7.84,0-3.16,2.44-4.68,5.89-4.68a13.68,13.68,0,0,1,6.12,1.67Z"/><path d="M613,413v3.77h3.25l-.42,2.47H613v5.92c0,1.4.64,1.94,1.67,1.94a5.76,5.76,0,0,0,2-.56l.57,2.34a8.1,8.1,0,0,1-3.28.84c-3,0-4-2-4-4.15v-6.33h-1.8v-2.47h1.95l.37-3.43Z"/><path d="M621.35,416.67l.57,2.66c.59-2,2.1-2.83,4.19-2.78a4.78,4.78,0,0,1,1.33.22l-.46,2.68a5.33,5.33,0,0,0-1.85-.24c-2.27.07-3.14,1.82-3.14,3.89v6.49h-3V416.67Z"/><path d="M629.07,417.48a15.46,15.46,0,0,1,4.89-.93c3.89,0,5.32,1.92,5.32,4.93v5.22a.65.65,0,0,0,.62.74,2.5,2.5,0,0,0,1-.14v2a5.05,5.05,0,0,1-2,.4,2.34,2.34,0,0,1-2.34-1.75,5.65,5.65,0,0,1-3.9,1.75c-2.51,0-4.38-1.29-4.41-4s2-4.1,5.25-4.1a19.85,19.85,0,0,1,2.79.25v-.76c0-1.41-.89-2.17-2.66-2.15a10.41,10.41,0,0,0-4,.79Zm7.15,6a14,14,0,0,0-2.51-.14c-1.48.07-2.42.76-2.44,2.07a1.8,1.8,0,0,0,2.09,1.89,5,5,0,0,0,2.86-1Z"/><path d="M647.05,416.67v12.92H644V419.21h-1.8v-2.54Zm-1.55-5a1.64,1.64,0,0,1,1.82,1.55,1.82,1.82,0,0,1-3.62,0A1.59,1.59,0,0,1,645.5,411.64Z"/><path d="M662.24,416.67v11c0,4.29-1.67,6.88-6.41,6.88a13.48,13.48,0,0,1-5.27-1.11l.71-2.32a11,11,0,0,0,4.22,1c2.78,0,3.7-1.38,3.7-3.5v-1.13a4.47,4.47,0,0,1-4,2.05c-3.48.07-5.48-2.57-5.48-6.37,0-4.63,3-6.55,5.53-6.55a4.27,4.27,0,0,1,4.09,2.34l.32-2.22Zm-9.32,6.41c0,2.19.87,3.92,3.16,3.92s3.21-1.73,3.21-3.9c0-2.93-1.56-4-3.24-4S652.92,420.24,652.92,423.08Z"/><path d="M668.46,410.75v8a4.82,4.82,0,0,1,4.24-2.19c3,0,4.49,1.94,4.49,4.61v8.43h-3.06v-7.45c0-2-.74-3-2.41-3-2.35,0-3.26,1.9-3.26,4v6.51H665.4V411.12Z"/><path d="M684.22,413v3.77h3.26l-.42,2.47h-2.84v5.92c0,1.4.64,1.94,1.68,1.94a5.76,5.76,0,0,0,2-.56l.56,2.34a8.1,8.1,0,0,1-3.28.84c-3,0-4-2-4-4.15v-6.33h-1.8v-2.47h1.95l.37-3.43Z"/><path d="M618,460a5.77,5.77,0,0,1-5.58,3.7c-4.34,0-6.26-2.71-6.26-6.76s2.71-6.53,6.44-6.43c3,.07,5.74,2.34,5.45,6.46l0,.39h-8.73c0,2.2.93,3.7,3.18,3.7a2.89,2.89,0,0,0,2.79-2Zm-3.13-4.21c0-2-1-2.94-2.54-2.89a2.87,2.87,0,0,0-2.91,2.89Z"/><path d="M623.75,444.66v14.63c0,1.38.61,1.75,1.52,1.75a2.46,2.46,0,0,0,1.29-.47l.56,2.19a5.31,5.31,0,0,1-2.78.89c-2.57,0-3.65-1.73-3.65-4.07V445Z"/><path d="M631.64,444.66v8.22a4.39,4.39,0,0,1,4.31-2.42c2.44.07,5.06,1.72,5.06,6.48,0,3.9-2,6.71-5.45,6.71a4.27,4.27,0,0,1-4.07-2.37l-.42,2.22h-2.49V445.06ZM631.51,457c0,2.22.82,4,3.26,4,2,0,3.11-1.5,3.11-4,0-3-1.51-4-3.14-4S631.51,454.43,631.51,457Z"/><path d="M649.52,450.46c3.23,0,6,2.19,6,6.61,0,3.62-2.15,6.58-6.16,6.58-4.37,0-6.17-3-6.17-6.58C643.23,452.65,646,450.46,649.52,450.46Zm-3.08,6.61c0,2,.69,4,3,4,2.1,0,3-1.95,3-4,0-2.86-1.41-4-3-4S646.44,454.16,646.44,457.07Z"/><path d="M659.61,450.58l2.51,9h.2l2.51-9H668l2.54,9h.17l2.57-9h3.18l-4.34,12.92h-3l-2.64-8.73h-.2l-2.54,8.73h-3l-4.24-12.92Z"/><path d="M678.3,459.8a6.73,6.73,0,0,0,4.2,1.43c1.47,0,2.34-.44,2.34-1.5,0-2.51-7.47-.84-7.23-5.57.1-2.32,1.8-3.7,5.23-3.7a10.49,10.49,0,0,1,4.66,1.21l-1.08,2.17a7.3,7.3,0,0,0-3.7-1.06c-1.21,0-2.22.39-2.17,1.4.14,2.05,7.32.47,7.32,5.45,0,2.66-2.39,4.05-5.45,4a8.78,8.78,0,0,1-5.3-1.68Z"/><path d="M297.2,852.8l-.34,2.56h-7.2v4.84h6.9l-.05,2.63h-6.85v7.23H286.6V852.8Z"/><path d="M310.2,866.51a5.76,5.76,0,0,1-5.57,3.7c-4.34,0-6.27-2.72-6.27-6.76s2.72-6.53,6.44-6.44c3,.08,5.75,2.35,5.45,6.47l-.05.39h-8.73c0,2.19.94,3.7,3.18,3.7a2.88,2.88,0,0,0,2.79-2.05Zm-3.13-4.22c.05-2-1-2.93-2.54-2.88a2.87,2.87,0,0,0-2.91,2.88Z"/><path d="M324.28,866.51a5.76,5.76,0,0,1-5.57,3.7c-4.34,0-6.26-2.72-6.26-6.76s2.71-6.53,6.43-6.44c3,.08,5.75,2.35,5.45,6.47l-.05.39h-8.72c0,2.19.93,3.7,3.18,3.7a2.87,2.87,0,0,0,2.78-2.05Zm-3.13-4.22c.05-2-1-2.93-2.54-2.88a2.88,2.88,0,0,0-2.91,2.88Z"/><path d="M331,853.49v3.77h3.26l-.42,2.47H331v5.92c0,1.4.65,1.94,1.68,1.94a5.76,5.76,0,0,0,1.95-.56l.57,2.34a8.1,8.1,0,0,1-3.28.84c-3,0-4-2-4-4.15v-6.33h-1.8v-2.47h1.94l.38-3.43Z"/><path d="M290.4,887.4v3.77h3.25l-.42,2.47H290.4v5.92c0,1.4.64,2,1.67,2a5.72,5.72,0,0,0,1.95-.57l.57,2.34a7.94,7.94,0,0,1-3.28.84c-3,0-4-2-4-4.14v-6.34h-1.8v-2.47h1.95l.37-3.42Z"/><path d="M301.74,890.93c3.23,0,6,2.19,6,6.61,0,3.62-2.14,6.58-6.16,6.58-4.37,0-6.17-3-6.17-6.58C295.45,893.12,298.24,890.93,301.74,890.93Zm-3.08,6.61c0,2,.69,4,3,4,2.09,0,3-1.95,3-4,0-2.86-1.4-4-3-4S298.66,894.63,298.66,897.54Z"/><path d="M322.53,891.05v11c0,4.3-1.67,6.88-6.41,6.88a13.36,13.36,0,0,1-5.28-1.11l.72-2.31a11.13,11.13,0,0,0,4.22,1c2.78,0,3.69-1.38,3.69-3.5V901.8a4.45,4.45,0,0,1-4,2.05c-3.47.07-5.47-2.57-5.47-6.36,0-4.64,3-6.56,5.52-6.56a4.28,4.28,0,0,1,4.1,2.34l.32-2.22Zm-9.32,6.41c0,2.2.86,3.92,3.16,3.92s3.2-1.72,3.2-3.89c0-2.94-1.55-4-3.23-4S313.21,894.63,313.21,897.46Z"/><path d="M337,900.42a5.78,5.78,0,0,1-5.58,3.7c-4.34,0-6.26-2.71-6.26-6.76s2.71-6.53,6.44-6.43c3,.07,5.74,2.34,5.44,6.46l0,.39h-8.73c0,2.2.93,3.7,3.18,3.7a2.87,2.87,0,0,0,2.78-2Zm-3.14-4.22c.05-2-1-2.93-2.54-2.88a2.88,2.88,0,0,0-2.91,2.88Z"/><path d="M343.75,887.4v3.77H347l-.42,2.47h-2.83v5.92c0,1.4.64,2,1.67,2a5.72,5.72,0,0,0,1.95-.57l.57,2.34a7.94,7.94,0,0,1-3.28.84c-3,0-4-2-4-4.14v-6.34h-1.8v-2.47h1.95l.37-3.42Z"/><path d="M353,885.13v8a4.81,4.81,0,0,1,4.24-2.19c3,0,4.48,2,4.48,4.61V904h-3.05v-7.44c0-2-.74-3-2.42-3-2.34,0-3.25,1.9-3.25,4V904h-3.06V885.5Z"/><path d="M376.08,900.42a5.76,5.76,0,0,1-5.57,3.7c-4.34,0-6.27-2.71-6.27-6.76s2.72-6.53,6.44-6.43c3,.07,5.74,2.34,5.45,6.46l-.05.39h-8.73c0,2.2.94,3.7,3.18,3.7a2.89,2.89,0,0,0,2.79-2ZM373,896.2c.05-2-1-2.93-2.54-2.88a2.87,2.87,0,0,0-2.91,2.88Z"/><path d="M381.24,891.05l.56,2.66c.59-2,2.1-2.83,4.19-2.78a4.94,4.94,0,0,1,1.34.22l-.47,2.69a5.27,5.27,0,0,0-1.85-.25c-2.27.08-3.13,1.83-3.13,3.9V904h-3.06V891.05Z"/><path d="M354.2,863.54A47.45,47.45,0,0,1,378.66,861c8.43,1.45,16,5.32,23.21,9.86,1.64,1,3.14-1.55,1.52-2.59-7.5-4.75-15.55-8.81-24.38-10.24a50.45,50.45,0,0,0-25.61,2.64c-1.79.66-1,3.56.8,2.89Z"/><path d="M394.2,874.11c3.74-.64,7.41-1.65,11.09-2.57a1.52,1.52,0,0,0,.9-2.21c-.91-1.69-1.74-3.42-2.63-5.13s-1.7-3.12-2.52-4.71a1.5,1.5,0,1,0-2.59,1.51c.82,1.59,1.7,3.14,2.52,4.72s1.72,3.44,2.63,5.13l.9-2.2c-3.69.92-7.35,1.92-11.1,2.57a1.5,1.5,0,1,0,.8,2.89Z"/><path d="M586.88,442.37c-9.62,5.72-19.3,11.39-29.1,16.81a59.28,59.28,0,0,1-5.47,2.87,1.51,1.51,0,0,0-.54,2.05,1.54,1.54,0,0,0,2.05.54c4.3-1.83,8.37-4.47,12.41-6.78q8.44-4.83,16.83-9.76c1.78-1,3.56-2.08,5.34-3.14a1.5,1.5,0,0,0-1.52-2.59Z"/><path d="M554.26,453.55c-1.67,3.57-3,7.27-4.38,10.94-.38,1,.58,1.8,1.45,1.9,1.87.22,3.73.52,5.59.76.94.12,1.87.23,2.81.31l.54.05.32,0h.06l1.3.18a1.54,1.54,0,0,0,1.84-1.05,1.5,1.5,0,0,0-1-1.84c-1.87-.26-3.75-.43-5.62-.67s-3.86-.57-5.8-.79l1.44,1.9c1.3-3.43,2.52-6.9,4.08-10.22a1.54,1.54,0,0,0-.54-2.05,1.51,1.51,0,0,0-2,.53Z"/><path d="M346.07,248.59a53.16,53.16,0,0,1,31.42,21.71,91.22,91.22,0,0,1,6.76,12.2c.85,1.8,3.53.23,2.68-1.57-3.31-7-7.24-13.84-12.59-19.53a54,54,0,0,0-16.28-11.83,62.37,62.37,0,0,0-11.17-4c-1.93-.49-2.76,2.5-.82,3Z"/><path d="M375.13,280.45c3.84,1.72,7.81,3.09,11.75,4.53,1,.38,1.88-.58,2-1.5.19-2.05.44-3.76.67-5.83.19-1.75.3-3.5.49-5.24a1.55,1.55,0,0,0-1.55-1.55,1.59,1.59,0,0,0-1.55,1.55c-.2,1.74-.31,3.49-.5,5.24-.21,1.94-.49,3.88-.67,5.83l2-1.49c-3.69-1.35-7.43-2.61-11-4.22a1.6,1.6,0,0,0-2.12.56,1.56,1.56,0,0,0,.56,2.12Z"/><circle cx="79" cy="61.53" r="34.44"/><path class="cls-8" d="M82.51,47.08s-.12,20.87,0,24.37c0,.77.19,1,.73,1l5.08.54-.08,2.23H71.92L72,73l4.46-.58c.58,0,.81-.23.81-1,.08-10,0-19.6,0-19.6l-5.62,1.08c-.19-.31-1.12-2.46-.46-2.73l10.35-4Z"/><path d="M146.19,54.39l-.27,3.12h-5.55V75.39h-3.75V57.51h-5.76V54.39Z"/><path d="M152.34,52.47v9.72a5.86,5.86,0,0,1,5.16-2.67c3.69,0,5.46,2.37,5.46,5.61V75.39h-3.72V66.33c0-2.4-.9-3.69-2.94-3.69-2.85,0-4,2.31-4,4.83v7.92h-3.72V52.92Z"/><path d="M180.48,71.07a7,7,0,0,1-6.78,4.5c-5.28,0-7.62-3.3-7.62-8.22s3.3-7.95,7.83-7.83c3.69.09,7,2.85,6.63,7.86l-.06.48H169.86c0,2.67,1.14,4.5,3.87,4.5a3.5,3.5,0,0,0,3.39-2.49Zm-3.81-5.13c.06-2.43-1.26-3.57-3.09-3.51A3.5,3.5,0,0,0,170,65.94Z"/><path d="M190.5,70.89a8.15,8.15,0,0,0,5.1,1.74c1.8,0,2.85-.54,2.85-1.83,0-3.06-9.09-1-8.79-6.78.12-2.82,2.19-4.5,6.36-4.5A12.78,12.78,0,0,1,201.69,61l-1.32,2.64a8.9,8.9,0,0,0-4.5-1.29c-1.47,0-2.7.48-2.64,1.71.18,2.49,8.91.57,8.91,6.63,0,3.24-2.91,4.92-6.63,4.89a10.76,10.76,0,0,1-6.45-2Z"/><path d="M210,55.23v4.59h4l-.51,3H210V70c0,1.71.78,2.37,2,2.37a6.83,6.83,0,0,0,2.37-.69l.69,2.85a9.82,9.82,0,0,1-4,1c-3.69,0-4.83-2.46-4.83-5V62.82h-2.19v-3h2.37l.45-4.17Z"/><path d="M217.32,60.66a18.74,18.74,0,0,1,5.94-1.14c4.74,0,6.48,2.34,6.48,6v6.36a.79.79,0,0,0,.75.9,3,3,0,0,0,1.23-.18v2.49a6.08,6.08,0,0,1-2.49.48,2.84,2.84,0,0,1-2.85-2.13,6.87,6.87,0,0,1-4.74,2.13c-3.06,0-5.34-1.56-5.37-4.83s2.46-5,6.39-5a24.49,24.49,0,0,1,3.39.3v-.93c0-1.71-1.08-2.64-3.24-2.61a12.68,12.68,0,0,0-4.86,1ZM226,68a16.62,16.62,0,0,0-3.06-.18c-1.8.09-2.94.93-3,2.52a2.21,2.21,0,0,0,2.55,2.31A6.17,6.17,0,0,0,226,71.4Z"/><path d="M237.24,59.67l.69,3.24c.72-2.4,2.55-3.45,5.1-3.39a6.19,6.19,0,0,1,1.62.27l-.57,3.27a6.48,6.48,0,0,0-2.25-.3C239.07,62.85,238,65,238,67.5v7.89H234.3V59.67Z"/><path d="M252.54,55.23v4.59h4l-.51,3h-3.45V70c0,1.71.78,2.37,2,2.37A6.83,6.83,0,0,0,257,71.7l.69,2.85a9.82,9.82,0,0,1-4,1c-3.69,0-4.83-2.46-4.83-5V62.82h-2.19v-3H249l.45-4.17Z"/><path d="M269.25,59.67l.54,2.82a5.71,5.71,0,0,1,5.37-3c3,.09,6.18,2.1,6.18,7.89,0,4.74-2.37,8.16-6.66,8.16A4.88,4.88,0,0,1,270,73v8.37h-3.75V59.67Zm.51,7.83c0,2.7,1,4.86,4,4.86,2.43,0,3.78-1.83,3.78-4.92,0-3.66-1.83-4.8-3.81-4.8C271.56,62.64,269.76,64.35,269.76,67.5Z"/><path d="M291.69,59.52c3.93,0,7.35,2.67,7.35,8,0,4.41-2.61,8-7.5,8-5.31,0-7.5-3.6-7.5-8C284,62.19,287.43,59.52,291.69,59.52Zm-3.75,8c0,2.49.84,4.86,3.66,4.86,2.55,0,3.69-2.37,3.69-4.86,0-3.48-1.71-4.89-3.6-4.89C289.62,62.67,287.94,64,287.94,67.56Z"/><path d="M302.76,70.89a8.15,8.15,0,0,0,5.1,1.74c1.8,0,2.85-.54,2.85-1.83,0-3.06-9.09-1-8.79-6.78.12-2.82,2.19-4.5,6.36-4.5A12.78,12.78,0,0,1,314,61l-1.32,2.64a8.9,8.9,0,0,0-4.5-1.29c-1.47,0-2.7.48-2.64,1.71.18,2.49,8.91.57,8.91,6.63,0,3.24-2.91,4.92-6.63,4.89a10.76,10.76,0,0,1-6.45-2Z"/><path d="M322.32,59.67V75.39h-3.75V62.76h-2.19V59.67Zm-1.89-6.12a2,2,0,0,1,2.22,1.89,2.22,2.22,0,0,1-4.41,0A1.93,1.93,0,0,1,320.43,53.55Z"/><path d="M331,55.23v4.59h4l-.51,3H331V70c0,1.71.78,2.37,2,2.37a6.83,6.83,0,0,0,2.37-.69l.69,2.85a9.82,9.82,0,0,1-4,1c-3.69,0-4.83-2.46-4.83-5V62.82h-2.19v-3h2.37l.45-4.17Z"/><path d="M343.35,59.67V75.39H339.6V62.76h-2.19V59.67Zm-1.89-6.12a2,2,0,0,1,2.22,1.89,2.22,2.22,0,0,1-4.41,0A1.93,1.93,0,0,1,341.46,53.55Z"/><path d="M354.27,59.52c3.93,0,7.35,2.67,7.35,8,0,4.41-2.61,8-7.5,8-5.31,0-7.5-3.6-7.5-8C346.62,62.19,350,59.52,354.27,59.52Zm-3.75,8c0,2.49.84,4.86,3.66,4.86,2.55,0,3.69-2.37,3.69-4.86,0-3.48-1.71-4.89-3.6-4.89C352.2,62.67,350.52,64,350.52,67.56Z"/><path d="M367.86,59.67l.57,2.79a5.8,5.8,0,0,1,5.37-2.94c3.69,0,5.46,2.37,5.46,5.61V75.39h-3.72V66.33c0-2.4-.9-3.69-2.94-3.69-2.85,0-4,2.31-4,4.83v7.92h-3.72V59.67Z"/><path d="M394.2,59.67V75.39h-3.75V62.76h-2.19V59.67Zm-1.89-6.12a2,2,0,0,1,2.22,1.89,2.22,2.22,0,0,1-4.41,0A1.93,1.93,0,0,1,392.31,53.55Z"/><path d="M398.46,70.89a8.15,8.15,0,0,0,5.1,1.74c1.8,0,2.85-.54,2.85-1.83,0-3.06-9.09-1-8.79-6.78.12-2.82,2.19-4.5,6.36-4.5A12.78,12.78,0,0,1,409.65,61l-1.32,2.64a8.9,8.9,0,0,0-4.5-1.29c-1.47,0-2.7.48-2.64,1.71.18,2.49,8.91.57,8.91,6.63,0,3.24-2.91,4.92-6.63,4.89a10.76,10.76,0,0,1-6.45-2Z"/><path d="M419.64,60.66a18.74,18.74,0,0,1,5.94-1.14c4.74,0,6.48,2.34,6.48,6v6.36a.79.79,0,0,0,.75.9A3,3,0,0,0,434,72.6v2.49a6.08,6.08,0,0,1-2.49.48,2.84,2.84,0,0,1-2.85-2.13A6.87,6.87,0,0,1,424,75.57c-3.06,0-5.34-1.56-5.37-4.83s2.46-5,6.39-5a24.49,24.49,0,0,1,3.39.3v-.93c0-1.71-1.08-2.64-3.24-2.61a12.68,12.68,0,0,0-4.86,1Zm8.7,7.35a16.62,16.62,0,0,0-3.06-.18c-1.8.09-2.94.93-3,2.52a2.21,2.21,0,0,0,2.55,2.31,6.17,6.17,0,0,0,3.48-1.26Z"/><path d="M440.34,52.47V70.26c0,1.68.75,2.13,1.86,2.13a2.93,2.93,0,0,0,1.56-.57l.69,2.67a6.47,6.47,0,0,1-3.39,1.08c-3.12,0-4.44-2.1-4.44-4.95V52.92Z"/><path d="M448.83,52.47V70.26c0,1.68.75,2.13,1.86,2.13a2.93,2.93,0,0,0,1.56-.57l.69,2.67a6.47,6.47,0,0,1-3.39,1.08c-3.12,0-4.44-2.1-4.44-4.95V52.92Z"/><path d="M461.22,60.66a18.74,18.74,0,0,1,5.94-1.14c4.74,0,6.48,2.34,6.48,6v6.36a.79.79,0,0,0,.75.9,3,3,0,0,0,1.23-.18v2.49a6.1,6.1,0,0,1-2.5.48,2.84,2.84,0,0,1-2.84-2.13,6.87,6.87,0,0,1-4.74,2.13c-3.06,0-5.34-1.56-5.37-4.83s2.46-5,6.39-5a24.49,24.49,0,0,1,3.39.3v-.93c0-1.71-1.08-2.64-3.24-2.61a12.68,12.68,0,0,0-4.86,1Zm8.7,7.35a16.62,16.62,0,0,0-3.06-.18c-1.8.09-2.94.93-3,2.52a2.21,2.21,0,0,0,2.55,2.31,6.17,6.17,0,0,0,3.48-1.26Z"/><path d="M481.92,52.47v10a5.37,5.37,0,0,1,5.25-2.94c3,.09,6.14,2.1,6.14,7.89,0,4.74-2.36,8.16-6.62,8.16a5.2,5.2,0,0,1-4.95-2.88l-.51,2.7h-3V53Zm-.15,15c0,2.7,1,4.86,4,4.86,2.46,0,3.77-1.83,3.77-4.92,0-3.66-1.82-4.8-3.8-4.8C483.54,62.64,481.77,64.35,481.77,67.5Z"/><path d="M503.67,59.52c3.92,0,7.34,2.67,7.34,8,0,4.41-2.61,8-7.5,8-5.3,0-7.49-3.6-7.49-8C496,62.19,499.41,59.52,503.67,59.52Zm-3.75,8c0,2.49.83,4.86,3.66,4.86,2.54,0,3.68-2.37,3.68-4.86,0-3.48-1.71-4.89-3.59-4.89C501.59,62.67,499.92,64,499.92,67.56Z"/><path d="M517.82,59.67v9.06c0,2.4,1,3.69,3.15,3.69,2.85,0,4-2.94,4-5.91V59.67h3.72V75.39h-3L525.2,72a5.73,5.73,0,0,1-5.43,3.6c-3.84,0-5.67-2.37-5.67-6.33V59.67Z"/><path d="M537.38,55.23v4.59h4l-.51,3h-3.45V70c0,1.71.78,2.37,2,2.37a6.83,6.83,0,0,0,2.37-.69l.69,2.85a9.82,9.82,0,0,1-4,1c-3.69,0-4.83-2.46-4.83-5V62.82h-2.19v-3h2.37l.45-4.17Z"/><path d="M554.09,59.67l.54,2.82a5.71,5.71,0,0,1,5.37-3c3,.09,6.18,2.1,6.18,7.89,0,4.74-2.37,8.16-6.66,8.16A4.88,4.88,0,0,1,554.87,73v8.37h-3.75V59.67Zm.51,7.83c0,2.7,1,4.86,4,4.86,2.43,0,3.78-1.83,3.78-4.92,0-3.66-1.83-4.8-3.81-4.8C556.4,62.64,554.6,64.35,554.6,67.5Z"/><path d="M576.53,59.52c3.93,0,7.35,2.67,7.35,8,0,4.41-2.61,8-7.5,8-5.31,0-7.5-3.6-7.5-8C568.88,62.19,572.27,59.52,576.53,59.52Zm-3.75,8c0,2.49.84,4.86,3.66,4.86,2.55,0,3.69-2.37,3.69-4.86,0-3.48-1.71-4.89-3.6-4.89C574.46,62.67,572.78,64,572.78,67.56Z"/><path d="M587.6,70.89a8.15,8.15,0,0,0,5.1,1.74c1.8,0,2.85-.54,2.85-1.83,0-3.06-9.09-1-8.79-6.78.12-2.82,2.19-4.5,6.36-4.5A12.78,12.78,0,0,1,598.79,61l-1.32,2.64a8.9,8.9,0,0,0-4.5-1.29c-1.47,0-2.7.48-2.64,1.71.18,2.49,8.91.57,8.91,6.63,0,3.24-2.91,4.92-6.63,4.89a10.76,10.76,0,0,1-6.45-2Z"/><path d="M607.1,55.23v4.59h4l-.51,3H607.1V70c0,1.71.78,2.37,2,2.37a6.83,6.83,0,0,0,2.37-.69l.69,2.85a9.82,9.82,0,0,1-4,1c-3.69,0-4.83-2.46-4.83-5V62.82h-2.19v-3h2.37l.45-4.17Z"/><path d="M617.69,59.67v9.06c0,2.4,1,3.69,3.15,3.69,2.85,0,4-2.94,4-5.91V59.67h3.72V75.39h-3L625.07,72a5.73,5.73,0,0,1-5.43,3.6c-3.84,0-5.67-2.37-5.67-6.33V59.67Z"/><path d="M635.36,59.67l.69,3.24c.72-2.4,2.55-3.45,5.1-3.39a6.19,6.19,0,0,1,1.62.27l-.57,3.27a6.48,6.48,0,0,0-2.25-.3c-2.76.09-3.81,2.22-3.81,4.74v7.89h-3.72V59.67Z"/><path d="M658.34,71.07a7,7,0,0,1-6.78,4.5c-5.28,0-7.62-3.3-7.62-8.22s3.3-7.95,7.83-7.83c3.69.09,7,2.85,6.63,7.86l-.06.48H647.72c0,2.67,1.14,4.5,3.87,4.5A3.5,3.5,0,0,0,655,69.87Zm-3.81-5.13c.06-2.43-1.26-3.57-3.09-3.51a3.5,3.5,0,0,0-3.54,3.51Z"/></svg>