<svg id="Layer_1" data-name="Layer 1" xmlns="http://www.w3.org/2000/svg" viewBox="0 0 780 1051.14"><defs><style>.cls-1{fill:#fff171;stroke-width:0.3px;}.cls-1,.cls-3,.cls-4,.cls-5,.cls-6,.cls-7,.cls-8{stroke:#fff;stroke-miterlimit:10;}.cls-2,.cls-3,.cls-6,.cls-7,.cls-8{fill:#d4a47c;}.cls-3{stroke-width:0.27px;}.cls-4{fill:#005058;stroke-width:0.42px;}.cls-5{fill:#c6946f;stroke-width:0.25px;}.cls-6{stroke-width:0.35px;}.cls-7{stroke-width:0.19px;}.cls-8{stroke-width:0.39px;}.cls-9{font-size:38.5px;fill:#fff;font-family:ABCSerifBold, ABCSerif;}</style></defs><path class="cls-1" d="M461.15,444.9a102,102,0,0,1-3.55-10.14,96.14,96.14,0,0,1,.19,24.56c-1.12,9.89-3.42,19.85-7.6,28.27a39.44,39.44,0,0,1-3.5,5.81,29,29,0,0,1-2.1,2.55c-1.15,1.24-.67,3.13-1.14,4.86-.6,2.16,2,3.1,2.62.95a13.92,13.92,0,0,0,.43-3.28c5.42-5.89,8.87-14.51,11.13-23.12a111.35,111.35,0,0,0,3.53-30.07C461.15,445.16,461.15,445,461.15,444.9Z"/><path class="cls-1" d="M457.36,433.08l-.05,0a81.22,81.22,0,0,0-14.72-9.55c-2.4-1.27-4.81-2.69-7.53-3.13-10.22-1.66-20,3-27.65,9.33-2.51,2.07-5.07,4.48-6.47,7.47-.61,1.31-2.09,7.1,1.21,7.13.44,0,2.87-5.46,3.63-6.37,5.53-6.53,12.73-12.74,21.69-13.31,2.66-.17,5.54-.62,8.13.18a37.12,37.12,0,0,1,6.75,3.33c2.35,1.31,4.58,2.83,6.92,4.18a47.18,47.18,0,0,1,6.62,5c1.21,1,2.4,2.08,3.62,3.1C458.68,438,458,435.47,457.36,433.08Z"/><path class="cls-2" d="M382.22,417.82c.2.75,3.14.91,3.09,1.68-.11,1.68,0,4-.1,5.71-.06,1.47-4.19,2.74-4.16,4.22a19.51,19.51,0,0,1-.69,4.05A31.69,31.69,0,0,0,380,438c-.09,1.64-.4,3.24-.44,4.87a29.49,29.49,0,0,0,.52,5c.6,4.1,1.3,8.21,2.25,12.25a11.89,11.89,0,0,0,1.54,4,32.45,32.45,0,0,0,2.69,3.52,38.13,38.13,0,0,0,4,3.76,37.73,37.73,0,0,0,5.54,3.94,36.46,36.46,0,0,0,6.86,2.68,14.62,14.62,0,0,0,5.47.7,13.23,13.23,0,0,0,3.69-.59,6.7,6.7,0,0,0,2.63-2.14c2.39-2.77,12-1,12.61-4.58.56-3.17,7.33-11.64,6.89-14.8s-1.38-10.23-2.66-13.29c-.68-1.64,3-7.15,2-8.66-1.94-3-4.42-11.3-6.69-14.12-5.06-6.26-.7-14.76-8.42-17.75-7-2.72-25.87-2-24.39,4.45.2.9-12,10.2-12.5,11"/><path class="cls-3" d="M408.28,381.49c-2.5-1.6-5-3.64-5-6.13a48.33,48.33,0,0,0-.34-9.14c-.21-1.31-.39-2.13-.64-3.43s-.91-3.81,0-4.87,2.21.18,3.19.68c.82.4,1.71.38,2.56.72a7.26,7.26,0,0,0,1.81.77,6.17,6.17,0,0,0,4.41-1c1.34-1.15,1.35-3.14,2.48-4.39a5.57,5.57,0,0,1,1.84-1.14,2.64,2.64,0,0,1-.93-1.38c-1.14-3.73.3-7.4.44-11.16a19.21,19.21,0,0,0-3.42-.27,29.29,29.29,0,0,1-5.36-.57c-1.6-.31-3.06-.12-4.19-1.27-.87-.88-1.12-2.17-2-3.05a21,21,0,0,1-1.87-1.65,30.84,30.84,0,0,1-2.08-3.37c-1.52-2.49-3.32-4.9-5-7.33a24.13,24.13,0,0,0-6.53-6.75,19.46,19.46,0,0,0-9-3,42.76,42.76,0,0,0-7.42-.23,71.79,71.79,0,0,0-10.68,1.82c-3.95,1-8,3.47-11.19,5.93-2.36,1.83-4.89,3.22-7.07,5.33a24.91,24.91,0,0,0-5,7.59c-1.11,2.36-2.79,4.05-4.4,6-.82,1-1.16,2.24-2,3.28a28.32,28.32,0,0,0-2.71,3.84c-1.43,2.68-.79,5.19-.23,7.95.38,1.85,1.34,3.42,1.69,5.29a14.18,14.18,0,0,0,.84,2.61c.38.95.47,1.92.86,2.88.18.46.52.76.73,1.24s0,.88.35,1.32a20,20,0,0,0,2.37,2.09,26.75,26.75,0,0,1,2.58,2.64,2.85,2.85,0,0,0,.26.31c-.05,0-.09.18-.09.53a11.92,11.92,0,0,1-.43,2.78c-.45,2.38-.91,2.49-1.16,5.25a27.11,27.11,0,0,0,0,5.17,3.42,3.42,0,0,0,4.37,3,1.84,1.84,0,0,1,1.26.05,4.76,4.76,0,0,1,2.83,2,18.57,18.57,0,0,0,1.17,2.79,18.34,18.34,0,0,0,3.83,4c1.21.93,2.18,1,2.54,2.43.26,1.06.48,2.15.69,3.21.41,2,1.37,3.74,3.6,4,3,.3,7-2,9.65-3.06s5.24-3,8.14-3.86c3.32-.94,4.75.32,7.2,2.36a1.68,1.68,0,0,1,.58.69,1.49,1.49,0,0,1,0,.63c-.2,3.93.5,7.82.41,11.75,0,.92,4.13-3.7,4-2.73,1.12-.26-.11-2.87.73-3.72,1.11-1.11,2.46-2,3.66-3l4.58,3.49a18.45,18.45,0,0,0,4.34,3.84c1,.66,1.66,1.6,2.59,2.32s2,1.18,2.82,2c4,3.75-18.32,18-15.87,22.81,3.66,7.19,12.81,17.29,16.44,24.47,2.22,4.38,12.56,2.49,15.26,6.63s3.42,8.54,5.42,12.92c1.53,3.33.79,5.19,2.11,8.62.88,2.28,8.34,2.51,9.27,4.76,1.3,3.12,4.42,5.11,5.63,8.31.52,1.36,6.28.95,6.65,2.35.54,2,1,4.07,1.46,6.12.6,2.64,1.89,4.31,3.6,6.32,2,2.36,5,2.91,7.78,3.89s5.23,1.07,7.87,1.75c.86.22,2.43,1,3.16.43s.16-1.48,0-2.18c-.24-.94-.48-1.88-.69-2.83s0-2.12-.23-3.2a22.54,22.54,0,0,1-.56-2.69,16.76,16.76,0,0,0-.3-2.81c-.6-2.67-.51-5.53-1-8.24-.22-1.27-.07-2.5-.36-3.78a16.48,16.48,0,0,1-.7-4.94c1.1-16-6-35-9.43-50.56a102.2,102.2,0,0,0-9.74-26.25,115,115,0,0,0-8.48-14.19c-5.14-7-12.26-12-19.5-16.6-3.69-2.33-7.45-4.56-11.09-6.95C410.87,383,409.58,382.32,408.28,381.49Z"/><path d="M341.82,363.2a9.53,9.53,0,0,1,1.07,0c.21,0,.64,0,.79.21s.07.07,0,.13-.22.05-.29.08a1.66,1.66,0,0,0-.31.12c-.39.2-.76.43-1.16.63a7.12,7.12,0,0,1-.67.36c-1.46.59-3.17.73-4.54,1.49a7.11,7.11,0,0,0-2.73,3.47c-.4-.33-1.73-1.36-1.55-1.9.26-.77,2.15-1.77,2.7-2.4a6.46,6.46,0,0,1,4-2.12C340,363.15,340.92,363.26,341.82,363.2Z"/><path d="M415.39,337c-2.45-.46-5.16-.52-7.53-1.27-7.52-2.39-10.45-11.37-16.23-16.74-4.76-4.43-11.49-6.29-18-6.18s-12.83,2-18.91,4.31c-5.63,2.13-11.21,4.67-15.75,8.62-3.06,2.65-10.78,11.72-7.84,16.22s12.75,3.32,16.67,7.72c2,2.23,2.92,5.36,5.28,7.2a23.87,23.87,0,0,0,3.95,2.14c2.42,1.26,4.48,3.14,7,4.24s5.75,1.21,7.61-.78A11.08,11.08,0,0,1,370,357c.1-2,1.35-1.8,3.28-2.07,2.65-.38,4.67.32,5.27,2.93s.62,5.55,2.39,7.56c1.9,2.18,5.12,2.48,8,2.63l14.89.76c1-2.8-2.12-6-.91-8.69.91-2.06,3.61-2.39,5.82-2.85a18.41,18.41,0,0,0,10.62-6.55c2.48-3.14,3.76-7.92,1.22-11A8.39,8.39,0,0,0,415.39,337Z"/><path d="M331,342.88l.57-.73-.17-.13A3.06,3.06,0,0,0,331,342.88Z"/><path class="cls-3" d="M369.35,364.63c-4.7-2.38-1.1-10,2.77-11a6.56,6.56,0,0,1,7.61,4.54c.85,3.28-1,6.76-.36,10.08.34,1.76,1.37,3.48.95,5.22s-3.6,2.3-3.67.51"/><path d="M404.26,343.24a7.25,7.25,0,0,0,1.08-3.21,11.86,11.86,0,0,1,1.52-3.68,6.12,6.12,0,0,1,3.36-3,6.76,6.76,0,0,1,4,.07,6.48,6.48,0,0,1,3.12,1.83c.71,1.09.73,3.2,1,4.45a6.69,6.69,0,0,1-.95,4.46,6,6,0,0,1-3.35,3.26,19.67,19.67,0,0,1-10.57-.4c-1.69-.46-3-2.48-3.67-4s-1.34-4.29-.93-6c.8-3.24,4.85-4.12,7.68-4.06,1.7,0,3.4.25,4.5,1.72a9.79,9.79,0,0,1,1.52,4.13,18,18,0,0,1,.7,5,6.48,6.48,0,0,1-.34,2.61,20.6,20.6,0,0,0-1.18,2.71,8.08,8.08,0,0,1-1.62,2.9,3.23,3.23,0,0,1-2.22,1.22,10.94,10.94,0,0,1-3,.21c-.64-.05-1.24-.33-1.87-.42-1.09-.16-1.11-.21-1.44-1.41"/><path d="M403.54,342.55c-.86-1.16-.63-2.43-.31-3.71a6,6,0,0,0,.27-1.35,1.83,1.83,0,0,1,1-1.66c1.5-1.05,3.69-.94,5.41-.95a6.4,6.4,0,0,1,2.18.21c.64.23,1.18.69,1.8.9a4.86,4.86,0,0,1,1.1.3c.36.23.59.61,1,.83s.64.24,1,.64a7.28,7.28,0,0,1,.67,1.06,4.8,4.8,0,0,1,.89,2.06,13.18,13.18,0,0,1,0,2.35,7.06,7.06,0,0,1-.26,1c-.12.42-.08.86-.19,1.28a6.15,6.15,0,0,1-2.17,2.74c-1.66,1.5-4.23,1.9-6.36,2.26a11.46,11.46,0,0,1-5-.28,26.89,26.89,0,0,1-2.61-1.06A9.94,9.94,0,0,1,399.5,348a8.52,8.52,0,0,1-1.94-2.12,18.81,18.81,0,0,1-1.61-2.64,6.14,6.14,0,0,1-.36-3,8.25,8.25,0,0,0,.32-1.57,5.5,5.5,0,0,1,0-1.67,6.62,6.62,0,0,1,3.33-4.57,20.7,20.7,0,0,1,4-1.67c.9-.22,1.81-.38,2.71-.59a5.94,5.94,0,0,1,2.93.11,4.2,4.2,0,0,1,1.6.67c.44.32,1,.54,1.34,1,.92,1.34.76,2.91,1.39,4.3a6.68,6.68,0,0,1,.41.8c.13.46.19.95.29,1.42a10.14,10.14,0,0,1,.38,2.3,6.83,6.83,0,0,1-.46,2.6,3.59,3.59,0,0,1-2.11,2.1,9.77,9.77,0,0,1-3.47,1.26,12.79,12.79,0,0,1-4.88-.46,10,10,0,0,1-4.47-2.21,11,11,0,0,1-1.81-1.87,11.23,11.23,0,0,1-.84-2.2c-.53-1.59.13-3.32.55-4.84.09-.29.16-1.06.4-1.28s.66-.17.89-.23"/><path d="M403.76,356.84c-.85-1.16-.62-2.43-.3-3.71a6.59,6.59,0,0,0,.27-1.35,1.84,1.84,0,0,1,1-1.66c1.5-1.05,3.68-.94,5.41-.95a6.32,6.32,0,0,1,2.17.21c.65.23,1.18.69,1.81.9a4.86,4.86,0,0,1,1.1.3c.36.24.59.61,1,.83s.64.25,1,.64a8.93,8.93,0,0,1,.66,1.06,4.94,4.94,0,0,1,.9,2.06,13.17,13.17,0,0,1,0,2.35,6,6,0,0,1-.27,1c-.11.43-.07.87-.18,1.29a6.13,6.13,0,0,1-2.18,2.73c-1.65,1.5-4.22,1.9-6.35,2.26a11.51,11.51,0,0,1-5-.28,27.78,27.78,0,0,1-2.6-1.06,9.94,9.94,0,0,1-2.33-1.16,8.33,8.33,0,0,1-1.94-2.12,17.82,17.82,0,0,1-1.61-2.63,6.19,6.19,0,0,1-.36-3,7.53,7.53,0,0,0,.31-1.57,5.52,5.52,0,0,1,.05-1.67,6.58,6.58,0,0,1,3.33-4.56,20.74,20.74,0,0,1,4-1.68c.89-.22,1.81-.38,2.71-.59a5.94,5.94,0,0,1,2.93.11,4.26,4.26,0,0,1,1.6.67c.44.32,1,.54,1.34,1,.92,1.34.76,2.91,1.38,4.3a5.52,5.52,0,0,1,.42.8c.13.46.19,1,.29,1.42a10.13,10.13,0,0,1,.38,2.31,6.83,6.83,0,0,1-.46,2.6,3.6,3.6,0,0,1-2.11,2.09,9.84,9.84,0,0,1-3.47,1.26,12.77,12.77,0,0,1-4.88-.46,10,10,0,0,1-4.47-2.21,11,11,0,0,1-1.81-1.87,11.23,11.23,0,0,1-.84-2.2c-.53-1.59.13-3.32.55-4.83.09-.3.16-1.06.39-1.29s.67-.17.9-.23"/><path class="cls-1" d="M440.81,404.67c-.93-1.37-2.15-3.13-2.17-3.21-2.07-2.88-4.82-2.89-6.63-6,3.05,7.57,8.86,17.25,9.86,25.33,1.22,9.9,1.31,20.16-.81,29.35a38.4,38.4,0,0,1-2.06,6.49,27.36,27.36,0,0,1-1.45,3c-.61,1.1-5.67,8.45-8.25,12.88a7.57,7.57,0,0,1,1.66,1.82c.11.11.2.24.31.36,2.2-3.44,8.93-12.12,8.74-13,3.91-7,5.26-16.22,5.46-25.15a111.83,111.83,0,0,0-3.59-30.16s-.49-.75-1.07-1.6"/><path class="cls-4" d="M383,418.4c.48,10.23-3.38,18.13-5.52,28.05a23.89,23.89,0,0,0-.86,4.7c-.55,3.36-.87,6.75-1.2,10.13-.53,5.36-1.11,10.79-.34,16.12a24,24,0,0,0,3.76,10.16c2.18,3.19,5.39,5.62,7.85,8.6,5,6.09,7.47,13.94,9.28,21.51a139.53,139.53,0,0,0,4.82,15.62c1.57,4.23,3.36,8.35,3.8,12.88.45,4.8-.14,9.62,0,14.43a50.16,50.16,0,0,0,2,12.64c2.22,7.61,5.66,14.65,8.62,22,.92,2.29,2.06,7.53,4.4,8.44,2.3-2.83,1.65-9.67,1.85-13.28.27-4.71,2.17-9.25,3.6-13.77a33,33,0,0,1,26.42-22.67c13-2,22.84,4.69,33.64,11.93,4,2.71,12,13.56,15.08,17.32-.36-1.35-1.21-11.08-1.72-12.38a82,82,0,0,0-6.22-11.7c-5.36-8.89-11.54-17.62-16.49-26.69-1-1.87-1-4.09-1.92-6s-2.28-1.31-4.14-1.74c-1.23-.28-2.27-.68-3.52-.88-4.66-.74-8.75-4-11.78-7.41-1.47-1.64-2.24-3.65-3.64-5.28a28.76,28.76,0,0,1-2.25-3.31c-6.91-10.87-11-23.4-18-34.22-2.49-3.87-6-6.67-9.43-9.76a3.31,3.31,0,0,0-.94-.69,3.55,3.55,0,0,0-1.86-.09,71.56,71.56,0,0,1-17.18.28c-10.47-1.24-16.64-7.76-18.51-18.24a33.12,33.12,0,0,1-.35-6.75c.06-2.64,1.84-16.45,2-19.08Z"/><path class="cls-1" d="M454.74,432.93a33.45,33.45,0,0,1,2.79,3.94c-.2-.91-.4-1.82-.56-2.74-.17-.71-.35-1.41-.53-2.11-.74-1.83-1.45-3.66-2.08-5.53-.73-1.34-1.41-2.69-2-4.08a84.27,84.27,0,0,0-5.63-7.19c-5-5.78-13.37-12.49-20.51-15.3-9.82-3.86-19.66-4.08-30.08-1.49a21.38,21.38,0,0,0-11.44,6.88c-2.46,3-2.74,12.08-2.85,16l2.41-1.6c-.23-5.61,1.47-12.5,6.37-15.61s13.79-4.85,19.53-4.56c12.63.63,23.17,6.12,32.12,15.48a71.25,71.25,0,0,1,9.56,12.5A58,58,0,0,1,454.74,432.93Z"/><path class="cls-5" d="M501.36,587.42a49.75,49.75,0,0,0-17.12-31.06c-5.86-4.91-13-8.46-20.63-9.21-10.51-1-21,3.37-29.3,9.91-12.49,9.85-13.35,19.15-18.4,33.36-7.48,21-14.91,42.55-16.42,65-1,14.69,1.57,29,3.62,43.47a192,192,0,0,1,2.26,24.7c.08,6.93-1.79,9.42-1.34,16.41.54,8.34,4.33,11.51,7.26,18.51,0,.46,0,.92.11,1.38.4,3.25,2.61,5.31,3.93,8.18a19,19,0,0,1,1.27,5.18q2.59,17.34,5.18,34.69c1.23,8.29,2.24,16.9,4.76,24.92,4.77,15.14,5.23,29.64,5.27,45.07h.41a109.66,109.66,0,0,1,2.94,19.68c.38,6-2.66,11.28-2.94,17.16-.08,1.62-.35,3.19-.45,4.8a58.11,58.11,0,0,1-.77,6,22.72,22.72,0,0,1-2.32,5.67c-1.85,3.77-3.14,8.55-6.32,11.53-1.47,1.38-3,2.64-4.42,4.09-.95,1-2.48,2.91-2.65,4.32-.22,1.77,2.76,2.54,4.16,2.57a18.73,18.73,0,0,0,5.57-1.42c1.11-.41,1.15-1,1.93-1.93a8,8,0,0,1,2.22-1.71,13.33,13.33,0,0,1,3.89-1.21,21.71,21.71,0,0,0,3-.27c1-.26,2-.51,2.93-.81a20.73,20.73,0,0,0,5.8-3.17c4.38-3.17,6.24-8.37,9.54-12.44,4.11-5.07,10-8.11,14.7-12.61a33.78,33.78,0,0,0,3.19-3.36,30,30,0,0,0,2.74-3.23,5.72,5.72,0,0,0,.46-4.59c-.81-2-2.46-3.06-3.76-4.65a28.58,28.58,0,0,1-2.73-4.29c-.86-1.54-1.45-3.17-2.43-4.62a44.42,44.42,0,0,1-2.75-4.58,58.24,58.24,0,0,1-5.1-14.45c-.17-.75-.33-1.52-.47-2.28.06-.72.11-1.46.15-2.27.14-2.72-.57-7.32-.23-10.15,1.45-12.09,7.58-27,7.66-39a17.83,17.83,0,0,1-.19-2.17c.09-.63.41-.92.43-1.67,0-1-.48-1.91-.19-3a8.58,8.58,0,0,0,.68-2.19,65.26,65.26,0,0,0,.09-8.39,85.26,85.26,0,0,1,.37-8.89c.46-11.3-2.27-22.92-4.53-33.9-1.41-6.85-4.31-12.07-6.84-18.38a15.44,15.44,0,0,0-3.09-4.89c1.47-4.42,3.89-8.78,5.19-12.9a231.87,231.87,0,0,0,9.23-40.92c1.72-13.8,2.11-28.4,9.25-40.34,4.65-7.77,11.8-13.73,17-21.19A49.65,49.65,0,0,0,501.36,587.42Z"/><path class="cls-5" d="M332.57,450.62q-4.49.72-9,1.07c-8.3.62-16.32-1.69-24.46-2.87a7.36,7.36,0,0,1-3.34-1.28c-2.19-.19-4.36-.41-6.58-.64l-3.51-.35-.95-.1a1,1,0,0,1-.38-.12,2.62,2.62,0,0,0-.68-.07l-.43,0a.65.65,0,0,0-.31.13,1.78,1.78,0,0,0-.31.23,1.09,1.09,0,0,0-.18.66.8.8,0,0,0,.45.93,3.09,3.09,0,0,1-.78-.25,5.45,5.45,0,0,0-1.88-.3,2.63,2.63,0,0,0-1.67.33,1.47,1.47,0,0,0-.55,1,1.5,1.5,0,0,0,.15,1c.19.38.34.74.65.76s.6.21,1-.08a.71.71,0,0,0-.22.38c-.65,2.65,2.72,2.64,4.66,3.05,2.94.63,9.2,2.54,12.15,3.12,14.28,2.79,16.77,7.32,26.87,5.85,2.41-.36,17.49,1.34,19.93,1.45,4.09.2,8.08-1.11,12.13-1.67,3.28-.46,6.64-.43,9.87-1.14a13.2,13.2,0,0,0,6.34-3.11c1.67-1.64,2.64-3.86,4.91-5,4.09-2,4.49-4.33,5.75-8.65.36-1.25,1.21-2.26,1.68-3.46a21,21,0,0,0,1.09-3.79,70.34,70.34,0,0,0,1.42-8.14c.19-2.73,1.44-5.17,2-7.81a55.66,55.66,0,0,1,1.34-5.85c.41-1.21,1.15-2.82,1-4.1l1.35-4.05c-1.07-.14-2.58,1-3.36,1.56-9.1,7-16.32,16.54-21.57,26.17-3.64,6.65-8.84,8.33-16.22,10.68A128.33,128.33,0,0,1,332.57,450.62Z"/><path class="cls-6" d="M284.28,450.45h0Z"/><path class="cls-6" d="M293,452.22c0,.31-.06.63-.1.93a.77.77,0,0,1-.13.32c-.07.09-.19.11-.27.18"/><path class="cls-6" d="M292.24,453.05l.06-.58c0-.16.06-.28.08-.44"/><path class="cls-6" d="M291.88,453.16l.06-.58a2.54,2.54,0,0,0,0-.29A2.47,2.47,0,0,1,292,452"/><path class="cls-6" d="M291.31,453.62a1.71,1.71,0,0,0,0-.39c0-.17-.06-.33-.08-.5a2.94,2.94,0,0,1,0-.42,2.83,2.83,0,0,1,0-.41"/><path class="cls-6" d="M291.45,450.23c0-.2,0-.38,0-.58l0-.23c0-.09.06-.22.06-.31"/><path class="cls-6" d="M292.16,449.08c0,.18-.07.32-.08.49l-.06.48"/><path class="cls-6" d="M292.42,449.21l-.07.63"/><path class="cls-6" d="M293.22,449.49l-.09.81a2.58,2.58,0,0,1-.16.69"/><path class="cls-6" d="M282.52,448.25c.76.09,4,.39,4.74.48l1.16.12.58.07c.21,0,.42,0,.63,0,.56,0,1.13,0,1.69,0l.68.07a8.39,8.39,0,0,1,1.2.29,8.79,8.79,0,0,0,.89.19l.81.09,3.33.36a6.3,6.3,0,0,0,1.49-.1,6.16,6.16,0,0,1,1.46-.23"/><path class="cls-6" d="M282.75,450.73a2.83,2.83,0,0,1-.48,1.28,1.21,1.21,0,0,1-.9.57,2,2,0,0,1-1.57-.67,2,2,0,0,1-.32-.93c0-.17.11-.33.21-.31A75.79,75.79,0,0,1,292.52,452c.69.07,1.35.43,2,.56a.75.75,0,0,1,.3.14l2.93.42"/><path class="cls-6" d="M281.18,447.83c.22.33,0,.8-.12.9s-.17.26-.27.37a1.37,1.37,0,0,1-.48.4c-.28.15-.64,0-.93,0a1.18,1.18,0,0,1-.53-.07l-.12-.13-.13,0a1.07,1.07,0,0,1-.26-.26,1.69,1.69,0,0,1-.36-.65c0-.22.08-.71.9-.81Z"/><path class="cls-6" d="M285.53,446.53a1.9,1.9,0,0,1-.15.51l-.25.24a1.27,1.27,0,0,1-.61.28,6.25,6.25,0,0,1-1-.1,2.13,2.13,0,0,1-.25,0l-.15-.05a3.93,3.93,0,0,1-.72-.32c-.15-.12-.08-.23-.15-.41s0-.48.87-.51Z"/><path class="cls-5" d="M307.68,459.76c-2.88,0-8.59,3.57-8.29,6.75a1.6,1.6,0,0,0,.25.78,1.54,1.54,0,0,0,2.09,0c.62-.46,1-1.15,1.66-1.61a6.18,6.18,0,0,1,3-.85c1.3-.15,2.58-.34,3.86-.57a7.09,7.09,0,0,0,4.52-2.5"/><path class="cls-7" d="M303.29,465.67c-.18,0-.79.73-.92.83s-.3.29-.45.44a5,5,0,0,1-.46.46l-.21.18a.6.6,0,0,1-.21.08.68.68,0,0,1-.23,0,.86.86,0,0,1-.23-.13,1.12,1.12,0,0,0-.24-.19,1.8,1.8,0,0,1-.21-.08c-.07,0-.1,0-.12-.12a.89.89,0,0,1,0-.23c0-.11.08-.15.14-.24a1.38,1.38,0,0,1,.17-.25c.29-.3.51-.66.79-1a3,3,0,0,1,1-.71,1.34,1.34,0,0,1,.49,0,2.1,2.1,0,0,1,.56,0,.39.39,0,0,1,.17.11c.1.09.23.18.32.28s-.19.14-.26.22Z"/><path class="cls-8" d="M420.75,408.16a27.93,27.93,0,0,0-5.07-2.84,22.29,22.29,0,0,0-2.19-1.08l-2.73-1.07a59.44,59.44,0,0,0-5.89-2.06c-.95-.27-2-.41-3-.6a14.66,14.66,0,0,0-2.64-.07,20.07,20.07,0,0,0-5.71.66c-.85.23-1.69.45-2.49.73-4.24,1.49-6.36,3.55-7.8,6.54a60.94,60.94,0,0,0-3.3,7.91,29.1,29.1,0,0,0-1,3.89c-1,6-2.34,11.88-3.28,17.89a63.5,63.5,0,0,0-.7,6.53c-2.16,2-4.46,3.94-6.61,5.73-5.26,4.36-10.94,8.33-16.6,12.14a79.93,79.93,0,0,1-9.49,5.58c-3,1.47-6.74,3.31-10,3.84a6.91,6.91,0,0,1-2.26.1c-.77-.15-1.54-.33-2.3-.51-1.3-.3-2.57-.59-3.89-.86a13.81,13.81,0,0,0-1.67-.36c-.52,0-1.09.07-1.6,0l-.73.21c-.59,0-1.18-.16-1.78-.16a7.29,7.29,0,0,0-1.67.22l-.69.15c-.38.08-.75,0-1.12.13a12.35,12.35,0,0,0-1.48.38c-.51.2-.61.72-.86,1.18a1.73,1.73,0,0,1-1,.94c-.5.17-1,.39-1.48.57-.32.11-.62.17-.94.31l-.83.32a13.23,13.23,0,0,1-1.85.48l-.94.24a5.69,5.69,0,0,1-.83.08,2.58,2.58,0,0,0-.71.19c-.26.11-.54.14-.8.25a3.9,3.9,0,0,0-1.44,1,1.61,1.61,0,0,0-.35.43c-.11.22-.18.54-.27.78a9,9,0,0,1-.62,1.59,7.72,7.72,0,0,1-1,1.19l-.95,1.08c-.23.26-.51.43-.75.67a3.61,3.61,0,0,1-.53.57c-.2.13-.37.3-.57.43a1.6,1.6,0,0,0-.49.32,10.25,10.25,0,0,0-.88,1c-.36.54,0,1,.28,1.43a2,2,0,0,0,.59.52,7.7,7.7,0,0,0,1.13.68.46.46,0,0,0,.34.05.92.92,0,0,1,.21-.13c.1,0,.18,0,.27.07a.62.62,0,0,0,.27,0,9.62,9.62,0,0,0,1.88-.79q1-.54,2-1.14l.13-.09c-.27.21-.54.42-.82.61a10.23,10.23,0,0,1-1.73,1,13.11,13.11,0,0,0-1.84.69,2.66,2.66,0,0,1-.33.21c-.26.12-.52.26-.77.39s-.31.24-.48.35a3.37,3.37,0,0,1-.6.23,9.32,9.32,0,0,0-1.26.53,8.1,8.1,0,0,0-2.12,1.37c-.17.19-.36.21-.56.33a6.54,6.54,0,0,0-.51.41,2.8,2.8,0,0,1-.48.37c-.23.11-.46.15-.7.24-.43.15-.83.42-1.26.54s-.87.32-1.32.44a6.75,6.75,0,0,0-1.21.44c-.18.08-.29.27-.45.38s-.31.17-.46.26c-.37.22-.69.47-1.06.67s-.83.49-1.23.75a23.15,23.15,0,0,1-2.05,1.18,7.21,7.21,0,0,0-1.58,1.63,3.23,3.23,0,0,0-.63,2.48,3,3,0,0,0,1,1.95,1.4,1.4,0,0,0,.89.38,5.78,5.78,0,0,0-.6.11,2,2,0,0,0-1.18.81,3.28,3.28,0,0,0-.37.45,5.64,5.64,0,0,1-.46.63,3.78,3.78,0,0,0-.36.69,1.2,1.2,0,0,0,.09,1.06,8.9,8.9,0,0,0,.9,1.36,2.4,2.4,0,0,0,1.17.95,3,3,0,0,0,1.73-.32,16.79,16.79,0,0,0,2-.78c.51-.25,1-.47,1.51-.67a12.79,12.79,0,0,0,1.77-.8,20.72,20.72,0,0,1,2.07-.65c.35-.15.67-.35,1-.51s.59-.19.87-.33a5.77,5.77,0,0,1,1.91-.44,6,6,0,0,0,1-.23,5.07,5.07,0,0,1,.76-.22l-8.88,3.09a.75.75,0,0,0-.56.25,2.88,2.88,0,0,1-.29.16,2.12,2.12,0,0,0-.67,1.11c-.33,1.11.58,1.93,1.34,2.45a2.54,2.54,0,0,0,1.63.4c.63,0,1.23.09,1.85.06a4.39,4.39,0,0,0,1.58-.4,8.67,8.67,0,0,1,1.64-.59,22.3,22.3,0,0,0,3.17-1.5l.9-.38c.24-.1.5-.1.74-.19.68-.23,1.32-.53,2-.8a5.09,5.09,0,0,1,1.07-.33c.33-.06.66-.2,1-.25s.7-.15,1.05-.23l-6.9,2.48c-.14.17-.52.07-.54.33s0,.3,0,.45a1.43,1.43,0,0,0,0,.46.77.77,0,0,0,.22.29c.33.32.55.73.86,1.07a2.08,2.08,0,0,0,1.11.59,3.12,3.12,0,0,0,1.74,0c.3-.07.59,0,.9-.09s.66-.19,1-.29.55-.23.82-.29a8,8,0,0,0,.81-.2c.32-.12.66-.16,1-.28a3.83,3.83,0,0,1,.82-.3,7.09,7.09,0,0,0,1.61-.54c.42-.2.92-.22,1.36-.42s.94-.27,1.4-.46,1.1-.39,1.64-.6c.2-.08.37-.25.59-.32s.52-.08.77-.18c.5-.2,1-.31,1.52-.51s.8-.56,1.24-.77a9.21,9.21,0,0,1,1.46-.57,11.45,11.45,0,0,0,1.17-.57c.26-.11.54-.14.81-.23a10.11,10.11,0,0,1,1.2-.32,14.46,14.46,0,0,0,1.43-.4,3.91,3.91,0,0,0,1.2-.77,2,2,0,0,1,.74-.31,6.55,6.55,0,0,0,.78-.28,2.35,2.35,0,0,0,.51-.17,3,3,0,0,1,.75-.46c.3-.11.73-.07,1-.24a13.35,13.35,0,0,0,1.53-1.33c.18-.16.34-.34.52-.5a20.27,20.27,0,0,1,2-1.46,11.29,11.29,0,0,0,1.29-.88c.33-.32.55-.64.91-.94.89-.72,1.66-1.63,2.57-2.36.28-.23.62-.36.89-.59s.68-.77,1.12-1.08c9.5-6.93,21-8.33,31.55-13,12-5.3,24.16-8.24,35.49-15.17,2.44-5.37,4.84-10.65,6.12-12.36l6.06-8.11,4.67-6.24M282,502.63a8.07,8.07,0,0,1,2-1.1l.93-.26C283.67,501.84,282.65,502.31,282,502.63Zm22.52-19.07c-.23,0-.6.4-.8.55l-.3.22A2.27,2.27,0,0,1,304.47,483.56Zm-17.23,16.61a4.35,4.35,0,0,0,.57-.38l1.1-.88a6.59,6.59,0,0,1,1.26-.78,7.14,7.14,0,0,0,1.19-.7,3.87,3.87,0,0,1,1.65-.5,8.52,8.52,0,0,0,1.51-.36,26.12,26.12,0,0,1,3.31-1.35Zm11.29,2.6.24-.13a6.75,6.75,0,0,0,.68-.2,7.17,7.17,0,0,0,2.12-1.23c.34-.33.7-.11,1.16-.25s1.11-.22,1.59-.38c1-.33,1.56-.77,2.52-1.08.48-.15.78-.45,1.3-.46.16,0,1-.23,1.08-.15s.73-.09.65-.07Zm9.86,2a6.77,6.77,0,0,1,2.11-.76Z"/><path class="cls-8" d="M280.79,503.14l.11,0,0,0Z"/><path class="cls-8" d="M313.69,502.56s0,.05-.14.1C313.6,502.6,313.64,502.54,313.69,502.56Z"/><path class="cls-8" d="M311.48,503.54a3.13,3.13,0,0,1,.6-.24Z"/><path class="cls-8" d="M304.4,480a3.93,3.93,0,0,0-.27-1.45c-.14-.29-.31-.58-.48-.86s-.23-.49-.35-.75-.17-.88-.69-1"/><path class="cls-8" d="M302.63,480.36a5.41,5.41,0,0,1-1.21-1.09l-.38-.38c-.15-.16-.24-.46-.41-.58"/><path class="cls-8" d="M278.62,499.66c.23-.18,1.46-1,1.69-1.15a2.68,2.68,0,0,1,1-.12,2.31,2.31,0,0,1,1.25.34,2.5,2.5,0,0,1,.76.83c.3.86-.52,1.58-1,2.12a5.19,5.19,0,0,1-1,.78c-.15.1-.31.14-.46.24a4.16,4.16,0,0,1-1,.52"/><path class="cls-8" d="M277.71,505.36a14.23,14.23,0,0,1,1.15-.9,1.71,1.71,0,0,1,1.27-.32c.34,0,.68.16,1,.2.09,0,.16,0,.26,0a2.12,2.12,0,0,1,.41.23,1.86,1.86,0,0,1,.91,1,1.34,1.34,0,0,1,.1,1.17,6.43,6.43,0,0,1-.81.92c-.21.22-1.67,1.91-1.75,1.57a4.26,4.26,0,0,0-.82-.1"/><path class="cls-8" d="M284,508.6c.22-.19.87-.47,1.12-.63a2.71,2.71,0,0,1,1.14-.41,2.46,2.46,0,0,1,.71-.08,2.34,2.34,0,0,1,.63.21c.19.11.21.3.33.47a2,2,0,0,1,.25.48c.06.16.16.25.18.43a1.56,1.56,0,0,1,0,.48,1.27,1.27,0,0,1-.55.79,4.48,4.48,0,0,1-1.1.48c-.19.07-.35.17-.54.25a4.83,4.83,0,0,1-.87.22c.08-.14-.86-.5-.74-.6"/><path class="cls-8" d="M296,498.39a3.89,3.89,0,0,1,.7.95,2.48,2.48,0,0,1,.42,1.31"/><path class="cls-8" d="M294.16,498.71a4.27,4.27,0,0,0,.07.71,3.32,3.32,0,0,0,.35,1.21,2.71,2.71,0,0,0,.57.84,2.44,2.44,0,0,0,.37.35c.12.08.26.1.35.23"/><path class="cls-8" d="M301.57,504.42c.12.25.27.51.38.77a.58.58,0,0,1-.16-.39"/><path class="cls-8" d="M302.45,503.58c.23.52.49,1,.68,1.58a1.77,1.77,0,0,1,.14.69"/><path class="cls-8" d="M308.45,506.72a8.1,8.1,0,0,1,1,1.07c.12.15.25.44.44.46"/><path class="cls-8" d="M293.6,491.7a20,20,0,0,1,1.11,1.9c.46.89,0,.17.09.24"/><path class="cls-8" d="M294.4,490.55a5.84,5.84,0,0,1,2.12,3.65c0,.29.32.46.43.73"/><path class="cls-8" d="M295.62,509.06c.16,0,1.23-.5,1.39-.5a1.4,1.4,0,0,1,.67.12,5.22,5.22,0,0,1,1.18,1c.29.29.6.59.49,1.06a1.47,1.47,0,0,1-.88.91c-.43.19-.84.34-1.28.5-.24.09-1.1.42-1.31.28"/><path class="cls-8" d="M298.21,481.68c1.11-.95,1.07.84.87,1.43-.45,1.35-1.37,4.18-3.21,3.6"/><path d="M180,222.9V230h6.9V222.9H190v17.26h-3.11v-7.34H180v7.34H176.9V222.9Z"/><path d="M204.32,236.61a5.76,5.76,0,0,1-5.57,3.7c-4.34,0-6.26-2.71-6.26-6.76s2.71-6.53,6.43-6.43c3,.07,5.75,2.34,5.45,6.46l-.05.39h-8.73c0,2.2.94,3.7,3.18,3.7a2.87,2.87,0,0,0,2.79-2Zm-3.13-4.21c.05-2-1-2.94-2.54-2.89a2.88,2.88,0,0,0-2.91,2.89Z"/><path d="M207.26,228.06a15.42,15.42,0,0,1,4.88-.94c3.9,0,5.33,1.92,5.33,4.93v5.23a.65.65,0,0,0,.62.74,2.45,2.45,0,0,0,1-.15v2a5.09,5.09,0,0,1-2,.39,2.33,2.33,0,0,1-2.34-1.75,5.67,5.67,0,0,1-3.9,1.75c-2.51,0-4.39-1.28-4.41-4s2-4.09,5.25-4.09a21.85,21.85,0,0,1,2.79.24v-.76c0-1.41-.89-2.17-2.67-2.15a10.39,10.39,0,0,0-4,.79Zm7.15,6a13,13,0,0,0-2.51-.15c-1.48.07-2.42.76-2.44,2.07a1.81,1.81,0,0,0,2.09,1.9,5.06,5.06,0,0,0,2.86-1Z"/><path d="M233.3,221.32v18.84h-2.56l-.35-2.22a4.49,4.49,0,0,1-4.11,2.37c-3.48.05-5.55-2.83-5.55-6.63,0-4.64,3-6.56,5.52-6.56a4.09,4.09,0,0,1,4,2.44v-7.84Zm-9.42,12.33c0,2.2.87,3.92,3.16,3.92s3.25-1.72,3.25-3.89c0-2.94-1.57-4-3.27-4S223.88,230.82,223.88,233.65Z"/><path d="M244,227.24l.45,2.3a4.33,4.33,0,0,1,4-2.45,3.77,3.77,0,0,1,3.85,2.4,4.55,4.55,0,0,1,4.17-2.4c3,0,4.21,2,4.21,4.64v8.43h-3.05v-7.44c0-2-.47-3-2.15-3-2.22,0-2.81,1.68-2.81,3.58v6.9h-3.06v-7.44c0-2-.47-3-2.14-3-2.37,0-2.84,1.9-2.84,4v6.51h-3.06V227.24Z"/><path d="M266.7,227.24v7.45c0,2,.79,3,2.59,3,2.34,0,3.3-2.41,3.3-4.86v-5.62h3.06v12.92h-2.44l-.44-2.81a4.72,4.72,0,0,1-4.47,3c-3.15,0-4.66-1.95-4.66-5.2v-7.87Z"/><path d="M279.16,236.46a6.68,6.68,0,0,0,4.19,1.43c1.48,0,2.34-.44,2.34-1.5,0-2.51-7.47-.84-7.22-5.57.09-2.32,1.8-3.7,5.22-3.7a10.49,10.49,0,0,1,4.66,1.21l-1.08,2.17a7.25,7.25,0,0,0-3.7-1.06c-1.21,0-2.22.39-2.17,1.4.15,2,7.32.47,7.32,5.45,0,2.66-2.39,4.05-5.45,4a8.82,8.82,0,0,1-5.3-1.68Z"/><path d="M295.19,223.59v3.78h3.25l-.42,2.46h-2.83v5.92c0,1.41.64,1.95,1.67,1.95a5.72,5.72,0,0,0,1.95-.57l.57,2.34a7.94,7.94,0,0,1-3.28.84c-3,0-4-2-4-4.14v-6.34h-1.8v-2.46h1.95l.37-3.43Z"/><path d="M309.54,221.32v8.22a4.4,4.4,0,0,1,4.32-2.42c2.44.07,5.05,1.73,5.05,6.48,0,3.9-2,6.71-5.45,6.71a4.28,4.28,0,0,1-4.07-2.37l-.42,2.22h-2.49V221.72Zm-.12,12.36c0,2.22.81,4,3.25,4,2,0,3.11-1.5,3.11-4,0-3-1.5-3.95-3.13-3.95S309.42,231.09,309.42,233.68Z"/><path d="M333,236.61a5.78,5.78,0,0,1-5.58,3.7c-4.34,0-6.26-2.71-6.26-6.76s2.71-6.53,6.44-6.43c3,.07,5.74,2.34,5.45,6.46L333,234h-8.73c0,2.2.93,3.7,3.18,3.7a2.87,2.87,0,0,0,2.78-2Zm-3.14-4.21c.05-2-1-2.94-2.54-2.89a2.89,2.89,0,0,0-2.91,2.89Z"/><path d="M173.46,261.16v12.92h-3.08V263.7h-1.8v-2.54Zm-1.56-5a1.65,1.65,0,0,1,1.83,1.55,1.83,1.83,0,0,1-3.63,0A1.59,1.59,0,0,1,171.9,256.13Z"/><path d="M179,261.16l.47,2.29a4.78,4.78,0,0,1,4.41-2.42c3,0,4.49,2,4.49,4.61v8.44h-3.06v-7.45c0-2-.74-3-2.41-3-2.35,0-3.26,1.9-3.26,4v6.51h-3V261.16Z"/><path d="M199.72,255.24v14.62c0,1.38.62,1.75,1.53,1.75a2.38,2.38,0,0,0,1.29-.47l.56,2.2a5.32,5.32,0,0,1-2.78.88c-2.57,0-3.65-1.72-3.65-4.06V255.61Z"/><path d="M208.58,261.16v12.92H205.5V263.7h-1.8v-2.54Zm-1.55-5a1.65,1.65,0,0,1,1.82,1.55,1.82,1.82,0,0,1-3.62,0A1.59,1.59,0,0,1,207,256.13Z"/><path d="M214.15,261.16l.47,2.29A4.8,4.8,0,0,1,219,261c3,0,4.48,2,4.48,4.61v8.44h-3.05v-7.45c0-2-.74-3-2.42-3-2.34,0-3.26,1.9-3.26,4v6.51h-3V261.16Z"/><path d="M238,270.53a5.77,5.77,0,0,1-5.58,3.69c-4.34,0-6.26-2.71-6.26-6.75s2.71-6.54,6.44-6.44c3,.08,5.74,2.34,5.45,6.46l-.05.4h-8.73c0,2.19.93,3.7,3.18,3.7a2.87,2.87,0,0,0,2.78-2Zm-3.14-4.22c0-2-1-2.94-2.54-2.89a2.87,2.87,0,0,0-2.9,2.89Z"/><path d="M247.82,261.16l2.51,9h.2l2.52-9h3.15l2.54,9h.18l2.56-9h3.18l-4.34,12.92h-3l-2.64-8.73h-.2l-2.54,8.73h-3l-4.24-12.92Z"/><path d="M270.66,261.16v12.92h-3.08V263.7h-1.8v-2.54Zm-1.56-5a1.65,1.65,0,0,1,1.83,1.55,1.83,1.83,0,0,1-3.63,0A1.59,1.59,0,0,1,269.1,256.13Z"/><path d="M277.79,257.51v3.77H281l-.42,2.46h-2.83v5.92c0,1.41.64,1.95,1.67,1.95a5.5,5.5,0,0,0,2-.57l.57,2.35a8.15,8.15,0,0,1-3.28.83c-3,0-4-2-4-4.14v-6.34h-1.8v-2.46h1.95l.37-3.43Z"/><path d="M287,255.24v8a4.81,4.81,0,0,1,4.24-2.2c3,0,4.48,2,4.48,4.61v8.44h-3v-7.45c0-2-.74-3-2.42-3-2.34,0-3.25,1.9-3.25,4v6.51h-3.06V255.61Z"/><path d="M307.9,257.51v3.77h3.26l-.42,2.46H307.9v5.92c0,1.41.64,1.95,1.68,1.95a5.5,5.5,0,0,0,1.95-.57l.56,2.35a8.15,8.15,0,0,1-3.28.83c-3,0-4-2-4-4.14v-6.34H303v-2.46H305l.37-3.43Z"/><path d="M317.1,255.24v8a4.83,4.83,0,0,1,4.24-2.2c3,0,4.49,2,4.49,4.61v8.44h-3.06v-7.45c0-2-.74-3-2.41-3-2.35,0-3.26,1.9-3.26,4v6.51H314V255.61Z"/><path d="M340.23,270.53a5.75,5.75,0,0,1-5.57,3.69c-4.34,0-6.26-2.71-6.26-6.75s2.71-6.54,6.43-6.44c3,.08,5.75,2.34,5.45,6.46l0,.4H331.5c0,2.19.94,3.7,3.19,3.7a2.87,2.87,0,0,0,2.78-2Zm-3.13-4.22c0-2-1-2.94-2.54-2.89a2.88,2.88,0,0,0-2.91,2.89Z"/><path d="M229.89,289.15v8.21A4.39,4.39,0,0,1,234.2,295c2.45.07,5.06,1.72,5.06,6.48,0,3.9-1.95,6.71-5.45,6.71a4.28,4.28,0,0,1-4.07-2.37l-.42,2.22h-2.49V289.55Zm-.12,12.36c0,2.21.81,4,3.25,4,2,0,3.11-1.5,3.11-4,0-3-1.51-3.95-3.13-3.95C231.22,297.51,229.77,298.92,229.77,301.51Z"/><path d="M247.77,295c3.23,0,6,2.19,6,6.6,0,3.63-2.14,6.59-6.16,6.59-4.37,0-6.17-3-6.17-6.59C241.48,297.14,244.27,295,247.77,295Zm-3.08,6.6c0,2.05.69,4,3,4,2.09,0,3-1.95,3-4,0-2.86-1.41-4-3-4C246.07,297.53,244.69,298.65,244.69,301.55Z"/><path d="M268.61,289.15V308H266l-.34-2.22a4.52,4.52,0,0,1-4.12,2.37c-3.48.05-5.55-2.84-5.55-6.63,0-4.64,3-6.56,5.53-6.56a4.1,4.1,0,0,1,4,2.44v-7.84Zm-9.42,12.33c0,2.2.86,3.92,3.16,3.92s3.25-1.72,3.25-3.89c0-2.94-1.58-4-3.28-4S259.19,298.65,259.19,301.48Z"/><path d="M273.94,295.07l3.18,9.12h.2l2.91-9.12h3.15l-4.78,13.12c-1.58,4.31-3.06,5.4-7.62,4.44l.54-2.59c2.91.71,3.31,0,4.22-2.49l-4.86-12.48Z"/><path d="M604.85,416.25a12.61,12.61,0,0,0-4.91-1.43c-1.72,0-2.86.52-2.86,1.92,0,3.31,9.23,1.8,9.23,7.65,0,3.55-2.74,5.35-6.34,5.35a10.66,10.66,0,0,1-6.63-2.12l1.52-2.32a8.5,8.5,0,0,0,5,1.82c2.1,0,3.35-.91,3.35-2.39,0-3.43-9.17-2.19-9.17-7.84,0-3.16,2.44-4.68,5.89-4.68a13.68,13.68,0,0,1,6.12,1.67Z"/><path d="M613,413v3.77h3.25l-.42,2.47H613v5.92c0,1.4.64,1.94,1.67,1.94a5.76,5.76,0,0,0,2-.56l.57,2.34a8.1,8.1,0,0,1-3.28.84c-3,0-4-2-4-4.15v-6.33h-1.8v-2.47h1.95l.37-3.43Z"/><path d="M621.35,416.67l.57,2.66c.59-2,2.1-2.83,4.19-2.78a4.78,4.78,0,0,1,1.33.22l-.46,2.68a5.33,5.33,0,0,0-1.85-.24c-2.27.07-3.14,1.82-3.14,3.89v6.49h-3V416.67Z"/><path d="M629.07,417.48a15.46,15.46,0,0,1,4.89-.93c3.89,0,5.32,1.92,5.32,4.93v5.22a.65.65,0,0,0,.62.74,2.5,2.5,0,0,0,1-.14v2a5.05,5.05,0,0,1-2,.4,2.34,2.34,0,0,1-2.34-1.75,5.65,5.65,0,0,1-3.9,1.75c-2.51,0-4.38-1.29-4.41-4s2-4.1,5.25-4.1a19.85,19.85,0,0,1,2.79.25v-.76c0-1.41-.89-2.17-2.66-2.15a10.41,10.41,0,0,0-4,.79Zm7.15,6a14,14,0,0,0-2.51-.14c-1.48.07-2.42.76-2.44,2.07a1.8,1.8,0,0,0,2.09,1.89,5,5,0,0,0,2.86-1Z"/><path d="M647.05,416.67v12.92H644V419.21h-1.8v-2.54Zm-1.55-5a1.64,1.64,0,0,1,1.82,1.55,1.82,1.82,0,0,1-3.62,0A1.59,1.59,0,0,1,645.5,411.64Z"/><path d="M662.24,416.67v11c0,4.29-1.67,6.88-6.41,6.88a13.48,13.48,0,0,1-5.27-1.11l.71-2.32a11,11,0,0,0,4.22,1c2.78,0,3.7-1.38,3.7-3.5v-1.13a4.47,4.47,0,0,1-4,2.05c-3.48.07-5.48-2.57-5.48-6.37,0-4.63,3-6.55,5.53-6.55a4.27,4.27,0,0,1,4.09,2.34l.32-2.22Zm-9.32,6.41c0,2.19.87,3.92,3.16,3.92s3.21-1.73,3.21-3.9c0-2.93-1.56-4-3.24-4S652.92,420.24,652.92,423.08Z"/><path d="M668.46,410.75v8a4.82,4.82,0,0,1,4.24-2.19c3,0,4.49,1.94,4.49,4.61v8.43h-3.06v-7.45c0-2-.74-3-2.41-3-2.35,0-3.26,1.9-3.26,4v6.51H665.4V411.12Z"/><path d="M684.22,413v3.77h3.26l-.42,2.47h-2.84v5.92c0,1.4.64,1.94,1.68,1.94a5.76,5.76,0,0,0,2-.56l.56,2.34a8.1,8.1,0,0,1-3.28.84c-3,0-4-2-4-4.15v-6.33h-1.8v-2.47h1.95l.37-3.43Z"/><path d="M618,460a5.77,5.77,0,0,1-5.58,3.7c-4.34,0-6.26-2.71-6.26-6.76s2.71-6.53,6.44-6.43c3,.07,5.74,2.34,5.45,6.46l0,.39h-8.73c0,2.2.93,3.7,3.18,3.7a2.89,2.89,0,0,0,2.79-2Zm-3.13-4.21c0-2-1-2.94-2.54-2.89a2.87,2.87,0,0,0-2.91,2.89Z"/><path d="M623.75,444.66v14.63c0,1.38.61,1.75,1.52,1.75a2.46,2.46,0,0,0,1.29-.47l.56,2.19a5.31,5.31,0,0,1-2.78.89c-2.57,0-3.65-1.73-3.65-4.07V445Z"/><path d="M631.64,444.66v8.22a4.39,4.39,0,0,1,4.31-2.42c2.44.07,5.06,1.72,5.06,6.48,0,3.9-2,6.71-5.45,6.71a4.27,4.27,0,0,1-4.07-2.37l-.42,2.22h-2.49V445.06ZM631.51,457c0,2.22.82,4,3.26,4,2,0,3.11-1.5,3.11-4,0-3-1.51-4-3.14-4S631.51,454.43,631.51,457Z"/><path d="M649.52,450.46c3.23,0,6,2.19,6,6.61,0,3.62-2.15,6.58-6.16,6.58-4.37,0-6.17-3-6.17-6.58C643.23,452.65,646,450.46,649.52,450.46Zm-3.08,6.61c0,2,.69,4,3,4,2.1,0,3-1.95,3-4,0-2.86-1.41-4-3-4S646.44,454.16,646.44,457.07Z"/><path d="M659.61,450.58l2.51,9h.2l2.51-9H668l2.54,9h.17l2.57-9h3.18l-4.34,12.92h-3l-2.64-8.73h-.2l-2.54,8.73h-3l-4.24-12.92Z"/><path d="M678.3,459.8a6.73,6.73,0,0,0,4.2,1.43c1.47,0,2.34-.44,2.34-1.5,0-2.51-7.47-.84-7.23-5.57.1-2.32,1.8-3.7,5.23-3.7a10.49,10.49,0,0,1,4.66,1.21l-1.08,2.17a7.3,7.3,0,0,0-3.7-1.06c-1.21,0-2.22.39-2.17,1.4.14,2.05,7.32.47,7.32,5.45,0,2.66-2.39,4.05-5.45,4a8.78,8.78,0,0,1-5.3-1.68Z"/><path d="M297.2,852.8l-.34,2.56h-7.2v4.84h6.9l-.05,2.63h-6.85v7.23H286.6V852.8Z"/><path d="M310.2,866.51a5.76,5.76,0,0,1-5.57,3.7c-4.34,0-6.27-2.72-6.27-6.76s2.72-6.53,6.44-6.44c3,.08,5.75,2.35,5.45,6.47l-.05.39h-8.73c0,2.19.94,3.7,3.18,3.7a2.88,2.88,0,0,0,2.79-2.05Zm-3.13-4.22c.05-2-1-2.93-2.54-2.88a2.87,2.87,0,0,0-2.91,2.88Z"/><path d="M324.28,866.51a5.76,5.76,0,0,1-5.57,3.7c-4.34,0-6.26-2.72-6.26-6.76s2.71-6.53,6.43-6.44c3,.08,5.75,2.35,5.45,6.47l-.05.39h-8.72c0,2.19.93,3.7,3.18,3.7a2.87,2.87,0,0,0,2.78-2.05Zm-3.13-4.22c.05-2-1-2.93-2.54-2.88a2.88,2.88,0,0,0-2.91,2.88Z"/><path d="M331,853.49v3.77h3.26l-.42,2.47H331v5.92c0,1.4.65,1.94,1.68,1.94a5.76,5.76,0,0,0,1.95-.56l.57,2.34a8.1,8.1,0,0,1-3.28.84c-3,0-4-2-4-4.15v-6.33h-1.8v-2.47h1.94l.38-3.43Z"/><path d="M290.4,887.4v3.77h3.25l-.42,2.47H290.4v5.92c0,1.4.64,2,1.67,2a5.72,5.72,0,0,0,1.95-.57l.57,2.34a7.94,7.94,0,0,1-3.28.84c-3,0-4-2-4-4.14v-6.34h-1.8v-2.47h1.95l.37-3.42Z"/><path d="M301.74,890.93c3.23,0,6,2.19,6,6.61,0,3.62-2.14,6.58-6.16,6.58-4.37,0-6.17-3-6.17-6.58C295.45,893.12,298.24,890.93,301.74,890.93Zm-3.08,6.61c0,2,.69,4,3,4,2.09,0,3-1.95,3-4,0-2.86-1.4-4-3-4S298.66,894.63,298.66,897.54Z"/><path d="M322.53,891.05v11c0,4.3-1.67,6.88-6.41,6.88a13.36,13.36,0,0,1-5.28-1.11l.72-2.31a11.13,11.13,0,0,0,4.22,1c2.78,0,3.69-1.38,3.69-3.5V901.8a4.45,4.45,0,0,1-4,2.05c-3.47.07-5.47-2.57-5.47-6.36,0-4.64,3-6.56,5.52-6.56a4.28,4.28,0,0,1,4.1,2.34l.32-2.22Zm-9.32,6.41c0,2.2.86,3.92,3.16,3.92s3.2-1.72,3.2-3.89c0-2.94-1.55-4-3.23-4S313.21,894.63,313.21,897.46Z"/><path d="M337,900.42a5.78,5.78,0,0,1-5.58,3.7c-4.34,0-6.26-2.71-6.26-6.76s2.71-6.53,6.44-6.43c3,.07,5.74,2.34,5.44,6.46l0,.39h-8.73c0,2.2.93,3.7,3.18,3.7a2.87,2.87,0,0,0,2.78-2Zm-3.14-4.22c.05-2-1-2.93-2.54-2.88a2.88,2.88,0,0,0-2.91,2.88Z"/><path d="M343.75,887.4v3.77H347l-.42,2.47h-2.83v5.92c0,1.4.64,2,1.67,2a5.72,5.72,0,0,0,1.95-.57l.57,2.34a7.94,7.94,0,0,1-3.28.84c-3,0-4-2-4-4.14v-6.34h-1.8v-2.47h1.95l.37-3.42Z"/><path d="M353,885.13v8a4.81,4.81,0,0,1,4.24-2.19c3,0,4.48,2,4.48,4.61V904h-3.05v-7.44c0-2-.74-3-2.42-3-2.34,0-3.25,1.9-3.25,4V904h-3.06V885.5Z"/><path d="M376.08,900.42a5.76,5.76,0,0,1-5.57,3.7c-4.34,0-6.27-2.71-6.27-6.76s2.72-6.53,6.44-6.43c3,.07,5.74,2.34,5.45,6.46l-.05.39h-8.73c0,2.2.94,3.7,3.18,3.7a2.89,2.89,0,0,0,2.79-2ZM373,896.2c.05-2-1-2.93-2.54-2.88a2.87,2.87,0,0,0-2.91,2.88Z"/><path d="M381.24,891.05l.56,2.66c.59-2,2.1-2.83,4.19-2.78a4.94,4.94,0,0,1,1.34.22l-.47,2.69a5.27,5.27,0,0,0-1.85-.25c-2.27.08-3.13,1.83-3.13,3.9V904h-3.06V891.05Z"/><path d="M354.2,863.54A47.45,47.45,0,0,1,378.66,861c8.43,1.45,16,5.32,23.21,9.86,1.64,1,3.14-1.55,1.52-2.59-7.5-4.75-15.55-8.81-24.38-10.24a50.45,50.45,0,0,0-25.61,2.64c-1.79.66-1,3.56.8,2.89Z"/><path d="M394.2,874.11c3.74-.64,7.41-1.65,11.09-2.57a1.52,1.52,0,0,0,.9-2.21c-.91-1.69-1.74-3.42-2.63-5.13s-1.7-3.12-2.52-4.71a1.5,1.5,0,1,0-2.59,1.51c.82,1.59,1.7,3.14,2.52,4.72s1.72,3.44,2.63,5.13l.9-2.2c-3.69.92-7.35,1.92-11.1,2.57a1.5,1.5,0,1,0,.8,2.89Z"/><path d="M586.88,442.37c-9.62,5.72-19.3,11.39-29.1,16.81a59.28,59.28,0,0,1-5.47,2.87,1.51,1.51,0,0,0-.54,2.05,1.54,1.54,0,0,0,2.05.54c4.3-1.83,8.37-4.47,12.41-6.78q8.44-4.83,16.83-9.76c1.78-1,3.56-2.08,5.34-3.14a1.5,1.5,0,0,0-1.52-2.59Z"/><path d="M554.26,453.55c-1.67,3.57-3,7.27-4.38,10.94-.38,1,.58,1.8,1.45,1.9,1.87.22,3.73.52,5.59.76.94.12,1.87.23,2.81.31l.54.05.32,0h.06l1.3.18a1.54,1.54,0,0,0,1.84-1.05,1.5,1.5,0,0,0-1-1.84c-1.87-.26-3.75-.43-5.62-.67s-3.86-.57-5.8-.79l1.44,1.9c1.3-3.43,2.52-6.9,4.08-10.22a1.54,1.54,0,0,0-.54-2.05,1.51,1.51,0,0,0-2,.53Z"/><path d="M346.07,248.59a53.16,53.16,0,0,1,31.42,21.71,91.22,91.22,0,0,1,6.76,12.2c.85,1.8,3.53.23,2.68-1.57-3.31-7-7.24-13.84-12.59-19.53a54,54,0,0,0-16.28-11.83,62.37,62.37,0,0,0-11.17-4c-1.93-.49-2.76,2.5-.82,3Z"/><path d="M375.13,280.45c3.84,1.72,7.81,3.09,11.75,4.53,1,.38,1.88-.58,2-1.5.19-2.05.44-3.76.67-5.83.19-1.75.3-3.5.49-5.24a1.55,1.55,0,0,0-1.55-1.55,1.59,1.59,0,0,0-1.55,1.55c-.2,1.74-.31,3.49-.5,5.24-.21,1.94-.49,3.88-.67,5.83l2-1.49c-3.69-1.35-7.43-2.61-11-4.22a1.6,1.6,0,0,0-2.12.56,1.56,1.56,0,0,0,.56,2.12Z"/><circle cx="79" cy="61.53" r="34.44"/><text class="cls-9" transform="translate(67.45 75.26)">1</text><path d="M146.19,54.39l-.27,3.12h-5.55V75.39h-3.75V57.51h-5.76V54.39Z"/><path d="M152.34,52.47v9.72a5.86,5.86,0,0,1,5.16-2.67c3.69,0,5.46,2.37,5.46,5.61V75.39h-3.72V66.33c0-2.4-.9-3.69-2.94-3.69-2.85,0-4,2.31-4,4.83v7.92h-3.72V52.92Z"/><path d="M180.48,71.07a7,7,0,0,1-6.78,4.5c-5.28,0-7.62-3.3-7.62-8.22s3.3-7.95,7.83-7.83c3.69.09,7,2.85,6.63,7.86l-.06.48H169.86c0,2.67,1.14,4.5,3.87,4.5a3.5,3.5,0,0,0,3.39-2.49Zm-3.81-5.13c.06-2.43-1.26-3.57-3.09-3.51A3.5,3.5,0,0,0,170,65.94Z"/><path d="M190.5,70.89a8.15,8.15,0,0,0,5.1,1.74c1.8,0,2.85-.54,2.85-1.83,0-3.06-9.09-1-8.79-6.78.12-2.82,2.19-4.5,6.36-4.5A12.78,12.78,0,0,1,201.69,61l-1.32,2.64a8.9,8.9,0,0,0-4.5-1.29c-1.47,0-2.7.48-2.64,1.71.18,2.49,8.91.57,8.91,6.63,0,3.24-2.91,4.92-6.63,4.89a10.76,10.76,0,0,1-6.45-2Z"/><path d="M210,55.23v4.59h4l-.51,3H210V70c0,1.71.78,2.37,2,2.37a6.83,6.83,0,0,0,2.37-.69l.69,2.85a9.82,9.82,0,0,1-4,1c-3.69,0-4.83-2.46-4.83-5V62.82h-2.19v-3h2.37l.45-4.17Z"/><path d="M217.32,60.66a18.74,18.74,0,0,1,5.94-1.14c4.74,0,6.48,2.34,6.48,6v6.36a.79.79,0,0,0,.75.9,3,3,0,0,0,1.23-.18v2.49a6.08,6.08,0,0,1-2.49.48,2.84,2.84,0,0,1-2.85-2.13,6.87,6.87,0,0,1-4.74,2.13c-3.06,0-5.34-1.56-5.37-4.83s2.46-5,6.39-5a24.49,24.49,0,0,1,3.39.3v-.93c0-1.71-1.08-2.64-3.24-2.61a12.68,12.68,0,0,0-4.86,1ZM226,68a16.62,16.62,0,0,0-3.06-.18c-1.8.09-2.94.93-3,2.52a2.21,2.21,0,0,0,2.55,2.31A6.17,6.17,0,0,0,226,71.4Z"/><path d="M237.24,59.67l.69,3.24c.72-2.4,2.55-3.45,5.1-3.39a6.19,6.19,0,0,1,1.62.27l-.57,3.27a6.48,6.48,0,0,0-2.25-.3C239.07,62.85,238,65,238,67.5v7.89H234.3V59.67Z"/><path d="M252.54,55.23v4.59h4l-.51,3h-3.45V70c0,1.71.78,2.37,2,2.37A6.83,6.83,0,0,0,257,71.7l.69,2.85a9.82,9.82,0,0,1-4,1c-3.69,0-4.83-2.46-4.83-5V62.82h-2.19v-3H249l.45-4.17Z"/><path d="M269.25,59.67l.54,2.82a5.71,5.71,0,0,1,5.37-3c3,.09,6.18,2.1,6.18,7.89,0,4.74-2.37,8.16-6.66,8.16A4.88,4.88,0,0,1,270,73v8.37h-3.75V59.67Zm.51,7.83c0,2.7,1,4.86,4,4.86,2.43,0,3.78-1.83,3.78-4.92,0-3.66-1.83-4.8-3.81-4.8C271.56,62.64,269.76,64.35,269.76,67.5Z"/><path d="M291.69,59.52c3.93,0,7.35,2.67,7.35,8,0,4.41-2.61,8-7.5,8-5.31,0-7.5-3.6-7.5-8C284,62.19,287.43,59.52,291.69,59.52Zm-3.75,8c0,2.49.84,4.86,3.66,4.86,2.55,0,3.69-2.37,3.69-4.86,0-3.48-1.71-4.89-3.6-4.89C289.62,62.67,287.94,64,287.94,67.56Z"/><path d="M302.76,70.89a8.15,8.15,0,0,0,5.1,1.74c1.8,0,2.85-.54,2.85-1.83,0-3.06-9.09-1-8.79-6.78.12-2.82,2.19-4.5,6.36-4.5A12.78,12.78,0,0,1,314,61l-1.32,2.64a8.9,8.9,0,0,0-4.5-1.29c-1.47,0-2.7.48-2.64,1.71.18,2.49,8.91.57,8.91,6.63,0,3.24-2.91,4.92-6.63,4.89a10.76,10.76,0,0,1-6.45-2Z"/><path d="M322.32,59.67V75.39h-3.75V62.76h-2.19V59.67Zm-1.89-6.12a2,2,0,0,1,2.22,1.89,2.22,2.22,0,0,1-4.41,0A1.93,1.93,0,0,1,320.43,53.55Z"/><path d="M331,55.23v4.59h4l-.51,3H331V70c0,1.71.78,2.37,2,2.37a6.83,6.83,0,0,0,2.37-.69l.69,2.85a9.82,9.82,0,0,1-4,1c-3.69,0-4.83-2.46-4.83-5V62.82h-2.19v-3h2.37l.45-4.17Z"/><path d="M343.35,59.67V75.39H339.6V62.76h-2.19V59.67Zm-1.89-6.12a2,2,0,0,1,2.22,1.89,2.22,2.22,0,0,1-4.41,0A1.93,1.93,0,0,1,341.46,53.55Z"/><path d="M354.27,59.52c3.93,0,7.35,2.67,7.35,8,0,4.41-2.61,8-7.5,8-5.31,0-7.5-3.6-7.5-8C346.62,62.19,350,59.52,354.27,59.52Zm-3.75,8c0,2.49.84,4.86,3.66,4.86,2.55,0,3.69-2.37,3.69-4.86,0-3.48-1.71-4.89-3.6-4.89C352.2,62.67,350.52,64,350.52,67.56Z"/><path d="M367.86,59.67l.57,2.79a5.8,5.8,0,0,1,5.37-2.94c3.69,0,5.46,2.37,5.46,5.61V75.39h-3.72V66.33c0-2.4-.9-3.69-2.94-3.69-2.85,0-4,2.31-4,4.83v7.92h-3.72V59.67Z"/><path d="M394.2,59.67V75.39h-3.75V62.76h-2.19V59.67Zm-1.89-6.12a2,2,0,0,1,2.22,1.89,2.22,2.22,0,0,1-4.41,0A1.93,1.93,0,0,1,392.31,53.55Z"/><path d="M398.46,70.89a8.15,8.15,0,0,0,5.1,1.74c1.8,0,2.85-.54,2.85-1.83,0-3.06-9.09-1-8.79-6.78.12-2.82,2.19-4.5,6.36-4.5A12.78,12.78,0,0,1,409.65,61l-1.32,2.64a8.9,8.9,0,0,0-4.5-1.29c-1.47,0-2.7.48-2.64,1.71.18,2.49,8.91.57,8.91,6.63,0,3.24-2.91,4.92-6.63,4.89a10.76,10.76,0,0,1-6.45-2Z"/><path d="M419.64,60.66a18.74,18.74,0,0,1,5.94-1.14c4.74,0,6.48,2.34,6.48,6v6.36a.79.79,0,0,0,.75.9A3,3,0,0,0,434,72.6v2.49a6.08,6.08,0,0,1-2.49.48,2.84,2.84,0,0,1-2.85-2.13A6.87,6.87,0,0,1,424,75.57c-3.06,0-5.34-1.56-5.37-4.83s2.46-5,6.39-5a24.49,24.49,0,0,1,3.39.3v-.93c0-1.71-1.08-2.64-3.24-2.61a12.68,12.68,0,0,0-4.86,1Zm8.7,7.35a16.62,16.62,0,0,0-3.06-.18c-1.8.09-2.94.93-3,2.52a2.21,2.21,0,0,0,2.55,2.31,6.17,6.17,0,0,0,3.48-1.26Z"/><path d="M440.34,52.47V70.26c0,1.68.75,2.13,1.86,2.13a2.93,2.93,0,0,0,1.56-.57l.69,2.67a6.47,6.47,0,0,1-3.39,1.08c-3.12,0-4.44-2.1-4.44-4.95V52.92Z"/><path d="M448.83,52.47V70.26c0,1.68.75,2.13,1.86,2.13a2.93,2.93,0,0,0,1.56-.57l.69,2.67a6.47,6.47,0,0,1-3.39,1.08c-3.12,0-4.44-2.1-4.44-4.95V52.92Z"/><path d="M461.22,60.66a18.74,18.74,0,0,1,5.94-1.14c4.74,0,6.48,2.34,6.48,6v6.36a.79.79,0,0,0,.75.9,3,3,0,0,0,1.23-.18v2.49a6.08,6.08,0,0,1-2.49.48,2.84,2.84,0,0,1-2.85-2.13,6.87,6.87,0,0,1-4.74,2.13c-3.06,0-5.34-1.56-5.37-4.83s2.46-5,6.39-5a24.49,24.49,0,0,1,3.39.3v-.93c0-1.71-1.08-2.64-3.24-2.61a12.68,12.68,0,0,0-4.86,1Zm8.7,7.35a16.62,16.62,0,0,0-3.06-.18c-1.8.09-2.94.93-3,2.52a2.21,2.21,0,0,0,2.55,2.31,6.17,6.17,0,0,0,3.48-1.26Z"/><path d="M481.92,52.47v10a5.37,5.37,0,0,1,5.25-2.94c3,.09,6.14,2.1,6.14,7.89,0,4.74-2.36,8.16-6.62,8.16a5.2,5.2,0,0,1-4.95-2.88l-.51,2.7h-3V53Zm-.15,15c0,2.7,1,4.86,4,4.86,2.46,0,3.77-1.83,3.77-4.92,0-3.66-1.82-4.8-3.8-4.8C483.54,62.64,481.77,64.35,481.77,67.5Z"/><path d="M503.67,59.52c3.92,0,7.34,2.67,7.34,8,0,4.41-2.61,8-7.5,8-5.3,0-7.49-3.6-7.49-8C496,62.19,499.41,59.52,503.67,59.52Zm-3.75,8c0,2.49.83,4.86,3.66,4.86,2.55,0,3.68-2.37,3.68-4.86,0-3.48-1.71-4.89-3.59-4.89C501.59,62.67,499.92,64,499.92,67.56Z"/><path d="M517.82,59.67v9.06c0,2.4,1,3.69,3.15,3.69,2.85,0,4-2.94,4-5.91V59.67h3.72V75.39h-3L525.2,72a5.73,5.73,0,0,1-5.43,3.6c-3.84,0-5.67-2.37-5.67-6.33V59.67Z"/><path d="M537.38,55.23v4.59h4l-.51,3h-3.45V70c0,1.71.78,2.37,2,2.37a6.83,6.83,0,0,0,2.37-.69l.69,2.85a9.82,9.82,0,0,1-4,1c-3.69,0-4.83-2.46-4.83-5V62.82h-2.19v-3h2.37l.45-4.17Z"/><path d="M554.09,59.67l.54,2.82a5.71,5.71,0,0,1,5.37-3c3,.09,6.18,2.1,6.18,7.89,0,4.74-2.37,8.16-6.66,8.16A4.88,4.88,0,0,1,554.87,73v8.37h-3.75V59.67Zm.51,7.83c0,2.7,1,4.86,4,4.86,2.43,0,3.78-1.83,3.78-4.92,0-3.66-1.83-4.8-3.81-4.8C556.4,62.64,554.6,64.35,554.6,67.5Z"/><path d="M576.53,59.52c3.93,0,7.35,2.67,7.35,8,0,4.41-2.61,8-7.5,8-5.31,0-7.5-3.6-7.5-8C568.88,62.19,572.27,59.52,576.53,59.52Zm-3.75,8c0,2.49.84,4.86,3.66,4.86,2.55,0,3.69-2.37,3.69-4.86,0-3.48-1.71-4.89-3.6-4.89C574.46,62.67,572.78,64,572.78,67.56Z"/><path d="M587.6,70.89a8.15,8.15,0,0,0,5.1,1.74c1.8,0,2.85-.54,2.85-1.83,0-3.06-9.09-1-8.79-6.78.12-2.82,2.19-4.5,6.36-4.5A12.78,12.78,0,0,1,598.79,61l-1.32,2.64a8.9,8.9,0,0,0-4.5-1.29c-1.47,0-2.7.48-2.64,1.71.18,2.49,8.91.57,8.91,6.63,0,3.24-2.91,4.92-6.63,4.89a10.76,10.76,0,0,1-6.45-2Z"/><path d="M607.1,55.23v4.59h4l-.51,3H607.1V70c0,1.71.78,2.37,2,2.37a6.83,6.83,0,0,0,2.37-.69l.69,2.85a9.82,9.82,0,0,1-4,1c-3.69,0-4.83-2.46-4.83-5V62.82h-2.19v-3h2.37l.45-4.17Z"/><path d="M617.69,59.67v9.06c0,2.4,1,3.69,3.15,3.69,2.85,0,4-2.94,4-5.91V59.67h3.72V75.39h-3L625.07,72a5.73,5.73,0,0,1-5.43,3.6c-3.84,0-5.67-2.37-5.67-6.33V59.67Z"/><path d="M635.36,59.67l.69,3.24c.72-2.4,2.55-3.45,5.1-3.39a6.19,6.19,0,0,1,1.62.27l-.57,3.27a6.48,6.48,0,0,0-2.25-.3c-2.76.09-3.81,2.22-3.81,4.74v7.89h-3.72V59.67Z"/><path d="M658.34,71.07a7,7,0,0,1-6.78,4.5c-5.28,0-7.62-3.3-7.62-8.22s3.3-7.95,7.83-7.83c3.69.09,7,2.85,6.63,7.86l-.06.48H647.72c0,2.67,1.14,4.5,3.87,4.5A3.5,3.5,0,0,0,655,69.87Zm-3.81-5.13c.06-2.43-1.26-3.57-3.09-3.51a3.5,3.5,0,0,0-3.54,3.51Z"/></svg>