<svg id="Layer_1" data-name="Layer 1" xmlns="http://www.w3.org/2000/svg" viewBox="0 0 780 1051.14"><defs><style>.cls-1{fill:#c6946f;stroke-width:0.25px;}.cls-1,.cls-2,.cls-3,.cls-4,.cls-5,.cls-6,.cls-7{stroke:#fff;stroke-miterlimit:10;}.cls-2,.cls-5,.cls-6,.cls-7{fill:#d4a47c;}.cls-2{stroke-width:0.27px;}.cls-3{fill:#fff171;stroke-width:0.3px;}.cls-4{fill:#005058;stroke-width:0.42px;}.cls-5{stroke-width:0.11px;}.cls-6{stroke-width:0.12px;}.cls-7{stroke-width:0.13px;}.cls-8{fill:#fff;}</style></defs><path class="cls-1" d="M360.52,429.2c-.14.07-.23,0-.34-.09s-.51-.18-.76-.27a21.61,21.61,0,0,1-2.15-.95c-.6-.3-1.2-.6-1.8-.92s-1.45-.57-2.15-.91a3.56,3.56,0,0,0-.61-.25,5.59,5.59,0,0,1-.65-.32c-.52-.25-1.08-.37-1.6-.64l-.81-.41a1.84,1.84,0,0,0-.77-.31,3.23,3.23,0,0,0-1,.15,15.41,15.41,0,0,1-2.7.47,8.24,8.24,0,0,1-3.35-.19,8.81,8.81,0,0,1-.87-.28c-.28-.13-.55-.29-.83-.43a6.41,6.41,0,0,1-1.13-.73,12.54,12.54,0,0,0-2.14-1.29l-.8-.48a2.27,2.27,0,0,0-.69,0,2,2,0,0,1-.69,0c-.19,0-.4,0-.6-.06s-.35,0-.53,0a1.25,1.25,0,0,1-.58-.1,1.6,1.6,0,0,1-.52-.3,2.28,2.28,0,0,1-.32-.85l-.07-.14a.53.53,0,0,1,0-.25,1.28,1.28,0,0,1,.06-.34,2.08,2.08,0,0,1,.34-.6,1.65,1.65,0,0,1,.24-.22c.05,0,.09-.1.15-.14s.11,0,.14-.12a.67.67,0,0,0-.14-.15l-.14-.16c-.43-.41-.87-.81-1.3-1.23a8.68,8.68,0,0,0-.93-.66,4.1,4.1,0,0,0-.71-.46,1.17,1.17,0,0,1-.37-.22,2.29,2.29,0,0,0-.27-.27,3.51,3.51,0,0,0-.5-.45,3.68,3.68,0,0,0-.51-.37c-.2-.1-.38-.24-.58-.35a5,5,0,0,1-.6-.42c-.19-.15-.39-.27-.58-.43s-.14-.1-.21-.16a3.47,3.47,0,0,0-.29-.25c-.27-.24-.48-.56-.74-.8a2.8,2.8,0,0,1-.7-.79.47.47,0,0,1,0-.37.6.6,0,0,0,.05-.26c0-.13,0-.32.07-.44a.33.33,0,0,1,.24-.15c.08,0,.11,0,.19,0s.2.05.33.11.13.12.2.16.28,0,.36.08,1.1.45,1.23.52c-.11-.07-1.09-.39-1.2-.45l-.53-.27a1.11,1.11,0,0,0-.31-.15c-.12,0-.25.06-.37,0s-.26-.2-.41-.27a.41.41,0,0,1-.27-.34.62.62,0,0,1,.09-.47.59.59,0,0,1,.41-.31,1.44,1.44,0,0,1,.85.18,3.08,3.08,0,0,1,.86.5,2.92,2.92,0,0,0,.7.46c.24.12.41.31.64.43l-.48-.24a1.17,1.17,0,0,1-.44-.29c-.13-.19-.3-.28-.16-.59.05-.1.1-.22.19-.26l.19,0a.49.49,0,0,1,.17,0l.21.07a1.51,1.51,0,0,1,.31.16.7.7,0,0,0,.17.13l.44.22.91.47.72.37c.18.09.37.18.54.28s.17.14.27.19a1.34,1.34,0,0,1,.23.13,2.92,2.92,0,0,0,.57.33,5.31,5.31,0,0,1,.63.42c.08.06.19.09.27.16a.67.67,0,0,0,.16.12.47.47,0,0,1,.13.11,2,2,0,0,0,.2.11,3.86,3.86,0,0,1,.38.3,2.12,2.12,0,0,0,.21.11,1.49,1.49,0,0,1,.14.12c.1.08.24.11.34.19a1.43,1.43,0,0,0,.22.15l.48.25c.31.15.56.37.86.53a9,9,0,0,0,1,.43c.4.17.77.38,1.16.57a20.72,20.72,0,0,0,4.79,1.31,7.77,7.77,0,0,1,1.18.27,8.68,8.68,0,0,0,1,.33c.61.17,1.16.47,1.77.63a18.94,18.94,0,0,1,4,1.4c.23.12.46.26.7.36s.38.11.56.2.25.14.39.19c.31.1.6.25.92.32s.81.23,1.23.35c.7.2,1.42.24,2.13.38.43.09.81.26,1.23.38l1.23.31a16.66,16.66,0,0,1,2.34.71c.36.17.7.36,1.05.54l25,0c3.14.19,8.44-.85,10.71,1.39s2.43,6.29.22,8.18c-5.87,5-16.49,2-23.37,2.19Z"/><path class="cls-1" d="M332.93,418.21a.6.6,0,0,0,.32,0c.21-.05.42-.07.64-.11a2.52,2.52,0,0,1,.47-.06l.53,0,.38,0a1.39,1.39,0,0,1,.33.1c.24.08.48.17.71.27a1.32,1.32,0,0,0,.59.11c.29,0,.57-.08.85-.09a5.06,5.06,0,0,1,.55,0,2,2,0,0,1,.35,0c.15,0,.29,0,.43.06s.16,0,.22,0a.75.75,0,0,0,.13.06.67.67,0,0,1,.15.06,1.77,1.77,0,0,0,.31.15s.14.09.18,0"/><path class="cls-1" d="M334.31,420.65h-.14l-.81,0c-.28,0-.6-.06-.74-.31a1.18,1.18,0,0,1,0-.87,1.07,1.07,0,0,1,.26-.52.81.81,0,0,1,.43-.18,4.09,4.09,0,0,1,1.57.09.46.46,0,0,1,.37.27.6.6,0,0,1,0,.27,1.82,1.82,0,0,1-.17.75,1.05,1.05,0,0,1-.52.52A.77.77,0,0,1,334.31,420.65Z"/><path class="cls-1" d="M331.62,413.26c-.06.12-.12.26-.19.38a.32.32,0,0,1-.12.11.88.88,0,0,1-.16,0"/><path class="cls-1" d="M330.87,413.37l.12-.23c0-.07.08-.11.11-.18"/><path class="cls-1" d="M330.68,413.33l.12-.24.06-.12a.76.76,0,0,1,.08-.11"/><path class="cls-1" d="M330.23,413.3a.61.61,0,0,0,.07-.17c0-.07,0-.15,0-.23a1,1,0,0,1,.06-.18.89.89,0,0,1,.08-.17"/><path class="cls-1" d="M330.83,412.09c0-.08.05-.17.09-.25a.41.41,0,0,1,.05-.09s.07-.08.08-.12"/><path class="cls-1" d="M331.37,411.74c0,.08-.08.13-.11.2s-.07.13-.11.2"/><path class="cls-1" d="M331.49,411.86l-.13.25"/><path class="cls-1" d="M331.86,412.15l-.16.33a1.28,1.28,0,0,1-.2.26"/><path class="cls-1" d="M327.06,410.67a15.11,15.11,0,0,1,2,1l.24.12c.91.47,1.79.92,2.67,1.43a.86.86,0,0,1,.2.13c.08.07.21.08.28.15.3.23.6.42.89.65a1.16,1.16,0,0,0,.6.31c.45,0,.9-.08,1.35-.08a.67.67,0,0,0,.49-.06"/><path class="cls-1" d="M327.52,410c.39.2,1,.37,1.36.57l.58.3.29.15c.11.05.23.07.33.12.29.13.6.23.88.37l.34.18a5.72,5.72,0,0,1,.58.37,4,4,0,0,0,.44.27l.41.21,1.67.86a4.36,4.36,0,0,0,.79.28,4.26,4.26,0,0,1,.8.2"/><path class="cls-1" d="M324.44,410.15c-.3,1.1.72,1.25,1,1.33.52.14,1,.19,1.32-.33.06-.09.27-.24.32-.34"/><path class="cls-1" d="M326.06,409.08c-.06.08-.21.37-.28.4l-.24.15a.74.74,0,0,1-.37.12c-.19,0-.38-.15-.54-.23s-.23-.08-.3-.16,0-.07,0-.11l-.07-.05a.67.67,0,0,1-.09-.21.93.93,0,0,1-.08-.45c0-.14.2-.39.71-.26Z"/><path class="cls-1" d="M328.4,409.24a2.67,2.67,0,0,1-.28.41l-.24.15a.85.85,0,0,1-.37.12c-.19,0-.38-.15-.54-.24a.67.67,0,0,1-.3-.16l0-.1-.07-.05a.56.56,0,0,1-.09-.21,1,1,0,0,1-.08-.46c0-.13.2-.39.71-.25Z"/><path class="cls-2" d="M418.9,397.09c-2.65-1.34-5.38-3.1-5.6-5.59a49,49,0,0,0-1.27-9.05c-.36-1.28-.61-2.08-1-3.35s-1.3-3.69-.47-4.84,2.21-.05,3.25.34c.85.32,1.74.2,2.61.46a8.19,8.19,0,0,0,1.88.58,6.21,6.21,0,0,0,4.28-1.5c1.21-1.28,1-3.25,2-4.62a5.46,5.46,0,0,1,1.71-1.32,2.72,2.72,0,0,1-1.07-1.27c-1.51-3.6-.46-7.4-.71-11.15a17.6,17.6,0,0,0-3.42.08,28.65,28.65,0,0,1-5.4,0c-1.62-.13-3.06.2-4.3-.82-1-.79-1.33-2-2.28-2.83a20.86,20.86,0,0,1-2-1.46,31.84,31.84,0,0,1-2.42-3.13c-1.77-2.32-3.8-4.53-5.68-6.78a24.36,24.36,0,0,0-7.2-6.05,19.57,19.57,0,0,0-9.29-2.08,42.83,42.83,0,0,0-7.41.53,74.38,74.38,0,0,0-10.43,2.91c-3.83,1.37-7.62,4.28-10.52,7.06-2.16,2.06-4.53,3.7-6.48,6a25.23,25.23,0,0,0-4.16,8.06c-.85,2.46-2.35,4.31-3.76,6.4-.71,1.05-.92,2.35-1.62,3.47a29.07,29.07,0,0,0-2.31,4.1c-1.15,2.81-.25,5.24.6,7.93.56,1.8,1.68,3.26,2.22,5.08a14.8,14.8,0,0,0,1.1,2.52c.48.9.67,1.86,1.15,2.77.24.45.6.71.86,1.16s.13.87.48,1.28a20.54,20.54,0,0,0,2.58,1.83,26.93,26.93,0,0,1,2.84,2.36,2.34,2.34,0,0,0,.28.28c0,.05-.07.2,0,.54a12,12,0,0,1-.14,2.81c-.21,2.41-.65,2.57-.62,5.34a27.54,27.54,0,0,0,.51,5.15,3.42,3.42,0,0,0,4.65,2.52,1.85,1.85,0,0,1,1.26-.07,4.69,4.69,0,0,1,3,1.71,20.86,20.86,0,0,0,1.45,2.65,18.46,18.46,0,0,0,4.23,3.62c1.3.8,2.27.73,2.78,2.15.37,1,.69,2.09,1,3.13.61,1.95,1.74,3.57,4,3.56,3,0,6.73-2.73,9.28-4s4.9-3.56,7.71-4.67c3.21-1.28,4.75-.17,7.4,1.6a1.71,1.71,0,0,1,.65.63,1.84,1.84,0,0,1,.11.62c.2,3.94,1.3,7.72,1.61,11.65.08.91,3.73-4.1,3.71-3.13,1.09-.38,7.19,1.51,7.94.58,1-1.23-2.63-3.87-1.54-5l2.19.31a18.65,18.65,0,0,0,4.71,3.38c1,.55,1.82,1.41,2.82,2s2.07,1,3,1.67c4.39,3.32-26.42,17.74-23.49,22.26,4.38,6.77,12.89,38.19,17.25,45,2.65,4.13,24.43-19.06,27.54-15.22s4.27,8.14,6.72,12.29c1.87,3.16,1.31,5.08,3,8.36,1.11,2.17,8.54,1.63,9.7,3.77,1.62,3,4.92,4.63,6.47,7.7.65,1.29,6.33.29,6.85,1.64.75,2,1.41,3.95,2.08,5.94.87,2.57,2.32,4.09,4.23,5.92,2.24,2.14,5.3,2.38,8.14,3.06s5.32.53,8,.94c.87.13,2.52.72,3.19.1s0-1.49-.24-2.17c-.34-.91-.68-1.82-1-2.74s-.25-2.1-.57-3.16a22.66,22.66,0,0,1-.82-2.62,17.63,17.63,0,0,0-.59-2.76c-.88-2.6-1.09-5.45-1.83-8.1-.36-1.24-.34-2.48-.76-3.72a16.52,16.52,0,0,1-1.2-4.84c-.55-16-9.61-34.17-14.58-49.32a102.5,102.5,0,0,0-12.4-25.11,114.8,114.8,0,0,0-9.9-13.24c-5.83-6.41-13.43-10.7-21.11-14.5-3.91-1.94-7.87-3.77-11.74-5.78C421.63,398.36,420.28,397.78,418.9,397.09Z"/><path d="M350.9,385.74a9.46,9.46,0,0,1,1.07-.12c.21,0,.64,0,.81.12s.07.07,0,.14-.21.07-.28.1a2,2,0,0,0-.29.16c-.38.23-.72.51-1.09.75-.21.14-.41.3-.63.42-1.39.74-3.08,1.06-4.37,2a7.09,7.09,0,0,0-2.36,3.72c-.43-.28-1.85-1.17-1.73-1.73.18-.79,2-2,2.44-2.67a6.51,6.51,0,0,1,3.75-2.52C349.1,385.88,350,385.89,350.9,385.74Z"/><path d="M421.39,352.14c-2.48-.21-5.19,0-7.62-.48-7.73-1.61-11.57-10.24-17.87-15-5.19-3.91-12.07-5.07-18.52-4.29s-12.55,3.32-18.36,6.24c-5.38,2.69-10.68,5.79-14.79,10.19-2.76,3-9.5,12.77-6.12,16.94s13,2,17.38,6c2.21,2,3.45,5,6,6.63a25.18,25.18,0,0,0,4.15,1.72c2.53,1,4.78,2.65,7.37,3.49s5.84.61,7.49-1.56a11.11,11.11,0,0,1-2.18-5.35c-.1-1.94,1.16-1.92,3.05-2.39,2.6-.65,4.69-.16,5.55,2.38s1.19,5.45,3.15,7.27c2.12,2,5.35,1.94,8.24,1.79l14.89-.78c.75-2.89-2.72-5.71-1.8-8.55.7-2.14,3.35-2.75,5.5-3.43a18.45,18.45,0,0,0,9.88-7.61c2.15-3.38,2.93-8.27.09-11.08A8.36,8.36,0,0,0,421.39,352.14Z"/><path d="M338.08,366.64l.49-.78-.18-.12A3.2,3.2,0,0,0,338.08,366.64Z"/><path class="cls-2" d="M378.44,384.33c-4.93-1.88-2.12-9.85,1.63-11.19a6.56,6.56,0,0,1,8,3.73c1.18,3.17-.3,6.83.68,10.07.52,1.71,1.72,3.32,1.48,5.09s-3.34,2.66-3.6.89"/><path d="M411,359.46a7.23,7.23,0,0,0,.74-3.31,11.75,11.75,0,0,1,1.13-3.81,6.12,6.12,0,0,1,3-3.31,6.79,6.79,0,0,1,4-.34,6.43,6.43,0,0,1,3.29,1.5c.82,1,1,3.11,1.47,4.32a6.71,6.71,0,0,1-.49,4.54,6,6,0,0,1-3,3.58,19.67,19.67,0,0,1-10.56.69c-1.72-.28-3.22-2.16-4.06-3.62s-1.78-4.14-1.54-5.86c.46-3.3,4.4-4.6,7.22-4.83,1.69-.13,3.41-.1,4.65,1.25a9.75,9.75,0,0,1,1.94,3.95,18.11,18.11,0,0,1,1.21,4.87,6.68,6.68,0,0,1-.07,2.64,21.3,21.3,0,0,0-.9,2.81,8,8,0,0,1-1.31,3.05,3.27,3.27,0,0,1-2.08,1.44,10.42,10.42,0,0,1-3,.52c-.64,0-1.27-.2-1.91-.22-1.1-.05-1.12-.1-1.57-1.25"/><path d="M410.17,358.84c-1-1.06-.87-2.35-.69-3.66a6.07,6.07,0,0,0,.13-1.37,1.84,1.84,0,0,1,.8-1.75c1.39-1.2,3.57-1.32,5.29-1.5a6.38,6.38,0,0,1,2.18,0c.67.16,1.25.57,1.89.72a4.23,4.23,0,0,1,1.12.18c.39.19.65.54,1.06.72a2.4,2.4,0,0,1,1,.54,10.37,10.37,0,0,1,.77,1,5.06,5.06,0,0,1,1.1,2,14,14,0,0,1,.22,2.34,5.45,5.45,0,0,1-.16,1.05c-.07.43,0,.86,0,1.29a6.1,6.1,0,0,1-1.88,2.95c-1.49,1.66-4,2.32-6.09,2.9a11.54,11.54,0,0,1-5,.24,27.84,27.84,0,0,1-2.7-.79,10,10,0,0,1-2.44-.91,8.51,8.51,0,0,1-2.15-1.91,19.12,19.12,0,0,1-1.87-2.45,6.23,6.23,0,0,1-.67-2.93,7.65,7.65,0,0,0,.15-1.59,5.76,5.76,0,0,1-.12-1.66,6.57,6.57,0,0,1,2.84-4.89,21.42,21.42,0,0,1,3.78-2.08c.87-.31,1.76-.56,2.64-.86a5.94,5.94,0,0,1,2.93-.19,4.2,4.2,0,0,1,1.66.49,5.42,5.42,0,0,1,1.44.85c1,1.24,1,2.82,1.81,4.14a4.21,4.21,0,0,1,.49.75c.18.44.3.93.45,1.38a10.5,10.5,0,0,1,.61,2.26,6.88,6.88,0,0,1-.19,2.63,3.61,3.61,0,0,1-1.88,2.3,9.94,9.94,0,0,1-3.32,1.61,13.08,13.08,0,0,1-4.91.05,9.92,9.92,0,0,1-4.67-1.74,10.74,10.74,0,0,1-2-1.68,11.48,11.48,0,0,1-1.06-2.1c-.69-1.52-.21-3.31.06-4.86.05-.31,0-1.07.25-1.32s.64-.24.87-.32"/><path d="M411.87,373c-1-1.06-.88-2.35-.69-3.65a6.22,6.22,0,0,0,.13-1.38,1.84,1.84,0,0,1,.8-1.75c1.39-1.19,3.57-1.31,5.28-1.5a6.2,6.2,0,0,1,2.19,0c.66.16,1.25.56,1.89.71a4.29,4.29,0,0,1,1.12.18c.39.2.65.54,1.06.72a2.4,2.4,0,0,1,1,.54,9.35,9.35,0,0,1,.77,1,5,5,0,0,1,1.1,2,14,14,0,0,1,.22,2.34,6.35,6.35,0,0,1-.16,1.05c-.07.43,0,.86-.05,1.29a6.1,6.1,0,0,1-1.88,3c-1.49,1.66-4,2.32-6.09,2.9a11.39,11.39,0,0,1-5,.24,27.84,27.84,0,0,1-2.7-.79,10,10,0,0,1-2.44-.91,8.34,8.34,0,0,1-2.15-1.91,18.25,18.25,0,0,1-1.87-2.45,6.21,6.21,0,0,1-.67-2.93,8.4,8.4,0,0,0,.15-1.59,5.76,5.76,0,0,1-.12-1.66,6.57,6.57,0,0,1,2.84-4.89,21.07,21.07,0,0,1,3.78-2.08c.87-.31,1.76-.56,2.64-.86a5.94,5.94,0,0,1,2.93-.19,4.05,4.05,0,0,1,1.66.5,5.14,5.14,0,0,1,1.44.84c1,1.24,1.05,2.82,1.81,4.14a5.7,5.7,0,0,1,.49.75c.18.45.3.93.45,1.38a10.5,10.5,0,0,1,.61,2.26,6.88,6.88,0,0,1-.19,2.63,3.59,3.59,0,0,1-1.88,2.3,9.75,9.75,0,0,1-3.32,1.61,12.68,12.68,0,0,1-4.91.05,9.92,9.92,0,0,1-4.67-1.74,10.74,10.74,0,0,1-2-1.68,11.71,11.71,0,0,1-1.06-2.09c-.69-1.53-.21-3.32.05-4.87.06-.3.05-1.07.26-1.32s.64-.24.87-.32"/><path class="cls-3" d="M460.2,423.84c-.94-1.37-2.15-3.14-2.17-3.21-2.08-2.89-4.83-2.9-6.64-6.05,3.06,7.57,8.86,17.25,9.86,25.32,1.23,9.91,1.31,20.17-.81,29.36a39.92,39.92,0,0,1-2.05,6.49,31.6,31.6,0,0,1-1.45,3c-.62,1.1-5.68,8.44-8.26,12.88a7.33,7.33,0,0,1,1.66,1.81c.12.12.21.25.32.36,2.19-3.43,8.92-12.11,8.73-13,3.91-7,5.26-16.23,5.46-25.16a111.88,111.88,0,0,0-3.59-30.16c0-.05-.48-.74-1.06-1.59"/><path class="cls-4" d="M396.91,441.8c.7,11.21-1.79,22.35-2.8,33.54s-.33,23.19,5.94,32.51c3,4.39,7,7.92,10.51,11.85,11,12.3,17.07,28.23,21.71,44.09,5.82,19.88,10.39,41.31,24.66,56.32.82-7.88-.06-15.89,1.1-23.73,1.77-12,9.05-23.66,20.27-28.3,9.62-4,20.85-2.36,30.27,2.08a72.09,72.09,0,0,1,13.48,8.55c3.3,2.58,7.68,8.23,11.42,9.24.12-8.67-6.83-17.46-12.2-23.7-6-7-12.88-13.53-17.37-21.64-1.21-2.17-2.6-5.3-4.89-6.56-2.53-1.4-5.41.08-7.62-1.94a11.71,11.71,0,0,1-2.69-4.65q-5.82-14.87-11.63-29.73c-3.11-7.94-6.09-17.42-14.25-21.64-12-6.23-27.41,3.75-40-1.28a25,25,0,0,1-6.13-3.7C406.83,465.38,400.84,453.69,396.91,441.8Z"/><path class="cls-3" d="M471.2,446.65c.15.25.3.5.44.75a25.33,25.33,0,0,1,3.41,4.09,19.65,19.65,0,0,1,1.43,2.46c0-.22-.09-.44-.13-.66-.17-.7-.35-1.41-.53-2.11-.74-1.82-1.45-3.66-2.08-5.52-.73-1.35-1.41-2.7-2-4.08a82.8,82.8,0,0,0-5.62-7.2c-5-5.78-13.38-12.49-20.52-15.3-9.81-3.85-19.65-4.07-30.08-1.48a21.31,21.31,0,0,0-11.44,6.88c-2.45,3-2.74,12.07-2.84,16l2.4-1.59c-.22-5.62,1.48-12.51,6.37-15.61s13.79-4.85,19.54-4.57c12.62.64,23.16,6.13,32.12,15.49A71.12,71.12,0,0,1,471.2,446.65Z"/><path class="cls-1" d="M528.35,577.15c-4.68-6-10.92-11-18.19-13.39-10.06-3.24-21.23-1.17-30.74,3.46-14.3,7-17.12,15.88-25.07,28.69-11.78,19-23.61,38.4-29.86,60-4.09,14.15-4.64,28.7-5.7,43.24a193.19,193.19,0,0,1-3.05,24.62c-1.39,6.79-3.74,8.83-4.79,15.75-1.5,9.92,3.18,13.55,3.74,24.62a11.58,11.58,0,0,0,1.52,2.18c.11.49.23,1,.38,1.48,1,3.12,3.53,4.75,5.34,7.34a19.2,19.2,0,0,1,2.19,4.86q5.65,16.59,11.33,33.2c2.7,7.93,5.24,16.21,9.17,23.65,7.4,14,10.46,28.22,13.28,43.39l.47-.07v.07c.08,3.79-1.06,13.44-.61,17.24a21.07,21.07,0,0,1-7.32,19.2c-.28.25-1.46,1.77-1.76,2-3.15,2.32-5.42,6-8.44,8.63-2.6,2.23-5.6,3.71-8.25,5.85-5.21,4.22-9.94,9.56-16.43,11.59a1.68,1.68,0,0,0-1,.6,2.56,2.56,0,0,0,.1,2.42,3.58,3.58,0,0,0,1.17,1.39c.24.17.54.27.78.45s.29.34.46.47a8.82,8.82,0,0,0,3.87,1.48,15.78,15.78,0,0,0,5.69.09,18.23,18.23,0,0,0,2.07-.24c.46-.13.82-.38,1.29-.5a32.32,32.32,0,0,0,4.16-1.9c.67-.27,1.27-.66,1.94-.94a13.31,13.31,0,0,1,1.86-.79c.56-.14,1.14-.22,1.7-.36,1.1-.29,2.14-.7,3.26-.94,3.12-.67,5.9-2.63,9-3.47a72.48,72.48,0,0,0,11.3-3.88,18.58,18.58,0,0,0,4.68-2.82c1.07-.94,2-2.09,3.09-3,5.69-4.41,16.29-3.39,22.88-6.7,1.92-1,4-2.43,4.15-4.66a7.94,7.94,0,0,0-1.36-4.14c-2.85-5.35-3.95-11.45-6-17.14-1.71-4.83-4.4-13.4-6.3-20.31l.34,0c-1.81-4.65-1.55-7.61-2.17-12.36-.36-2.7-1.88-7.09-2.06-9.94-.75-12.15,2.59-27.95.51-39.79a17.66,17.66,0,0,1-.57-2.1,11.32,11.32,0,0,0,.12-1.72c-.16-1-.81-1.8-.71-2.87a9.07,9.07,0,0,0,.27-2.28,66.16,66.16,0,0,0-1.42-8.27,80.82,80.82,0,0,1-1.23-8.81c-1.58-11.19-6.36-22.14-10.56-32.53-2-5-4.71-8.85-7.49-13,2.32-3.68,5.29-7.16,7.28-10.62a231.78,231.78,0,0,0,17.72-38c4.61-13.12,8.1-27.31,17.61-37.45,6.2-6.61,14.46-10.91,21.07-17.1a49.12,49.12,0,0,0,5.27-65.94Z"/><path class="cls-5" d="M450.73,426.36c-2.32-4.2-7-9.86-11.56-11.42a35.92,35.92,0,0,0-20.94-.28c-6.42,2-11.18,9.46-13.3,15.56l-.05,0a4.49,4.49,0,0,1-.44.17c-6.79,1.89-14,2.23-20.58,4.75-3.13,1.2-6.08,2.56-9.19,3.45a11.24,11.24,0,0,0-2.66-.19l-6.42.14-3.21.07a19.33,19.33,0,0,0-2.28.22c-.62.09-1.2.34-1.81.46s-1.08.08-1.62.21l-8.34,2.12a39.76,39.76,0,0,0-5.94,2.68q-3.4,1.77-6.75,3.63a3.21,3.21,0,0,0-1.65,1.5,2.06,2.06,0,0,0,.67,2c.53.57,7.15-2.47,7.68-1.9,1,1.06-4.57,6-3.39,6.91s3.27,1.09,5,1.06a50.85,50.85,0,0,0,17.17-3.08,40.52,40.52,0,0,1,6.39-2.3,26.91,26.91,0,0,0,4.12-.87,7.2,7.2,0,0,0,3.66-3.29c4.2,1.13,10.94,4.77,13.7,5.85a30.84,30.84,0,0,0,11.33,1.89c5.26,0,15.9,3.06,21,1.8,2.45-.6,8.48,0,10.77-1s7.58,0,9.65-4.75"/><path class="cls-6" d="M350.62,440.65c-1.61,0-4.2.5-5.8.5a12,12,0,0,0-2.24.05,2.76,2.76,0,0,0-1.09.49c-.91.58-1.7,1.32-2.58,1.94a22.75,22.75,0,0,1-3.56,2.12c-.38.17-.76.38-1.15.54s-.59.14-.87.25a9.35,9.35,0,0,0-1.75.83,7.94,7.94,0,0,0-2.86,2.81c-.37.69-.8,1.37-1.13,2.08s-.49,1.28-.73,1.92l-.59,1.59c-.14.34-.33.67-.44,1a5.07,5.07,0,0,1-.53,1.44,7.61,7.61,0,0,0-1,2.4,13.06,13.06,0,0,0-.41,3.57c0,.52.63.9,1,1.15a3.81,3.81,0,0,0,1.36.44,2.52,2.52,0,0,0,1.31-.17,10.35,10.35,0,0,0,1.59-1,4.37,4.37,0,0,0,1.37-1.16,4.91,4.91,0,0,1,.37-.67c.17-.2,4.72-10,4.67-10.27l8.13-3.6Z"/><path class="cls-7" d="M356.67,439.46c-.2.26-5.35.62-5.61.81s-.66.64-1,.93-1,.67-1.52,1.05-1.18,1-1.77,1.46-1.34,1-2,1.59-1.27,1.2-1.91,1.8c-1.28,1.19-2.59,2.43-3.76,3.72-.57.62-1.07,1.3-1.58,2-.33.42-.68.82-1,1.25-.5.7-.92,1.45-1.45,2.13s-1.12,1.68-1.69,2.51-1.2,1.49-1.78,2.24c-.79,1-1.64,2-2.46,3a2.67,2.67,0,0,0-.46,1.25,2.58,2.58,0,0,0,0,.62,1.4,1.4,0,0,0,.41.69,11.44,11.44,0,0,0,2.25,1.92,2.73,2.73,0,0,0,1.24.52,3.65,3.65,0,0,0,2.85-.74c.36-.37.8-.64,1.17-1s1-.86,1.5-1.26c.21-.16.35-.35.58-.5a7.36,7.36,0,0,0,.74-.62c.18-.15.36-.27.53-.42"/><path class="cls-6" d="M361.86,445.46c-.86,1.2-2.06,2.05-3,3.2s-1.89,2.73-2.9,4a36.72,36.72,0,0,1-2.56,2.89c0,.39-1.58,1.69-1.89,2-.6.59-1.3,1-1.93,1.55l-1.08.89c-.2.17-.43.3-.64.46s-.55.52-.86.75c-.61.45-1.15.87-1.71,1.37a5.22,5.22,0,0,1-1.09.91c-.33.15-.57.41-.88.57a9.39,9.39,0,0,1-1.36.54,3.65,3.65,0,0,1-2.07,0,2.39,2.39,0,0,1-.72-.5,6.23,6.23,0,0,1-.93-.66,1.86,1.86,0,0,1-.41-1.4,3,3,0,0,1,.54-1.86,9.62,9.62,0,0,1,1.51-1.55c1-.9,2-1.89,3-2.86s1.94-2.09,3-3.08c.48-.46,1-.89,1.49-1.34s1.17-1.22,1.77-1.82,1.34-1.38,2.06-2c.48-.39,1-.79,1.41-1.22s.84-.76,1.29-1.13a.92.92,0,0,1,.22-.17.47.47,0,0,0,.27-.12.53.53,0,0,1,.12-.22"/><path class="cls-6" d="M364.73,443.41a10.41,10.41,0,0,0-1.35,1.76,16.46,16.46,0,0,1-1.23,1.53,8.47,8.47,0,0,1-.93,1.13,10.33,10.33,0,0,0-1.75,2.76c-.22.46-.37.93-.59,1.37s-.35.76-.51,1.17-.29.67-.44,1a7.15,7.15,0,0,1-.49.73,10.48,10.48,0,0,0-.51,1.07c-.17.35-.23.74-.41,1.08s-.28.95-.51,1.4a3.48,3.48,0,0,0-.52,1.65,3.36,3.36,0,0,0,.1,1.52c.16.27.49.43.72.63a1.74,1.74,0,0,0,1,.51,3,3,0,0,0,1.33,0c.1,0,.21,0,.31,0a2.08,2.08,0,0,0,.49-.3c.21-.13.43-.24.64-.38a5.62,5.62,0,0,0,1.36-1.26c.2-.26.41-.51.59-.79s.47-.56.64-.87c1-1.86,2-3.72,3-5.6.71-1.35,2.56-3.76,2.4-5.36"/><path class="cls-6" d="M326.41,458.24c.53.05,1.08-.1,1.62,0a1.89,1.89,0,0,1,.85.3,1.31,1.31,0,0,1,.43,1c0,.6.24,1.19.23,1.8a5.62,5.62,0,0,1-.06.81,3.57,3.57,0,0,1-.79,1.57,2.47,2.47,0,0,1-.62.74,4.76,4.76,0,0,1-.91.63,3.49,3.49,0,0,1-1,.2,6.67,6.67,0,0,1-.88.13,5,5,0,0,1-.79-.13,1.37,1.37,0,0,1-.85-.72,1.09,1.09,0,0,1-.09-.9,7.56,7.56,0,0,1,.39-1.83,11.61,11.61,0,0,1,.67-1.53c.22-.35.45-.69.64-1.05l.49-.92a.35.35,0,0,1,.19-.17.5.5,0,0,1,.17,0Z"/><path class="cls-6" d="M331.77,462.16a3.52,3.52,0,0,1,1.39-.47,3.28,3.28,0,0,1,3.47,2.77,2.1,2.1,0,0,1,0,.79c-.22.87-1.4,1.53-2,2.09a3.5,3.5,0,0,1-.78.51,2,2,0,0,1-1.3.22,9.44,9.44,0,0,1-1.21-.37,2.77,2.77,0,0,1-1.95-1.42,2.43,2.43,0,0,1,.55-2A5.72,5.72,0,0,1,331.77,462.16Z"/><path class="cls-6" d="M338.75,460.91c.33-.44.68-.87,1-1.31a5,5,0,0,1,.42-.5,2.45,2.45,0,0,1,1.7-.53,5.78,5.78,0,0,1,.6.08,2.43,2.43,0,0,1,.37.16,1.5,1.5,0,0,1,.43.18,2,2,0,0,0,.31.19,2.08,2.08,0,0,1,.88.91,2.23,2.23,0,0,1,.22.61,1.15,1.15,0,0,1-.23.73,4.19,4.19,0,0,1-.47.66l-.26.3a2.94,2.94,0,0,1-.37.32c-.14.11-.27.24-.42.35a5.34,5.34,0,0,0-.48.35,3.92,3.92,0,0,1-.89.52,2.66,2.66,0,0,1-.73.21,4.8,4.8,0,0,1-1,0,1.3,1.3,0,0,1-.59-.28,1.62,1.62,0,0,1-.3-.62,4.21,4.21,0,0,1-.32-.79c0-.12-.05-.24-.06-.37a1,1,0,0,0,0-.31Z"/><path class="cls-6" d="M355.83,460.56a3.36,3.36,0,0,1,0-.84c.05-.17.16-.32.22-.49a9.34,9.34,0,0,1,.46-.89,6.34,6.34,0,0,1,.69-1,2.75,2.75,0,0,1,.84-.72,2,2,0,0,1,1.62-.05,2.26,2.26,0,0,1,.63.37,1.47,1.47,0,0,1,.55.53,2.83,2.83,0,0,1,.16.36c0,.11,0,.21,0,.31a4.83,4.83,0,0,1,0,.93,4.27,4.27,0,0,1-.25,1.27,8.61,8.61,0,0,1-.66,1.45,3.59,3.59,0,0,1-.42.6,1.22,1.22,0,0,1-.7.36,3.76,3.76,0,0,1-1.7-.07,2.27,2.27,0,0,1-1.37-1.07c-.05-.14-.13-.27-.19-.4a.91.91,0,0,1,0-.33,1.61,1.61,0,0,0,0-.38,1.09,1.09,0,0,1,0-.26"/><path d="M180,222.9V230h6.9V222.9H190v17.26h-3.11v-7.34H180v7.34H176.9V222.9Z"/><path d="M204.32,236.61a5.76,5.76,0,0,1-5.57,3.7c-4.34,0-6.26-2.71-6.26-6.76s2.71-6.53,6.43-6.43c3,.07,5.75,2.34,5.45,6.46l-.05.39h-8.73c0,2.2.94,3.7,3.18,3.7a2.87,2.87,0,0,0,2.79-2Zm-3.13-4.21c.05-2-1-2.94-2.54-2.89a2.88,2.88,0,0,0-2.91,2.89Z"/><path d="M207.26,228.06a15.36,15.36,0,0,1,4.88-.94c3.9,0,5.33,1.92,5.33,4.93v5.23a.65.65,0,0,0,.61.74,2.48,2.48,0,0,0,1-.15v2a5.09,5.09,0,0,1-2,.39,2.33,2.33,0,0,1-2.34-1.75,5.67,5.67,0,0,1-3.9,1.75c-2.51,0-4.39-1.28-4.41-4s2-4.09,5.25-4.09a21.85,21.85,0,0,1,2.79.24v-.76c0-1.41-.89-2.17-2.67-2.15a10.39,10.39,0,0,0-4,.79Zm7.15,6a13,13,0,0,0-2.51-.15c-1.48.07-2.42.76-2.44,2.07a1.81,1.81,0,0,0,2.09,1.9,5.06,5.06,0,0,0,2.86-1Z"/><path d="M233.3,221.32v18.84h-2.56l-.35-2.22a4.49,4.49,0,0,1-4.11,2.37c-3.48.05-5.55-2.83-5.55-6.63,0-4.64,3-6.56,5.52-6.56a4.09,4.09,0,0,1,4,2.44v-7.84Zm-9.42,12.33c0,2.2.87,3.92,3.16,3.92s3.25-1.72,3.25-3.89c0-2.94-1.57-4-3.28-4S223.88,230.82,223.88,233.65Z"/><path d="M244,227.24l.45,2.3a4.33,4.33,0,0,1,4-2.45,3.77,3.77,0,0,1,3.85,2.4,4.55,4.55,0,0,1,4.17-2.4c3,0,4.21,2,4.21,4.64v8.43h-3.06v-7.44c0-2-.46-3-2.14-3-2.22,0-2.81,1.68-2.81,3.58v6.9h-3.06v-7.44c0-2-.47-3-2.14-3-2.37,0-2.84,1.9-2.84,4v6.51h-3.06V227.24Z"/><path d="M266.7,227.24v7.45c0,2,.79,3,2.59,3,2.34,0,3.3-2.41,3.3-4.86v-5.62h3.06v12.92h-2.44l-.44-2.81a4.72,4.72,0,0,1-4.47,3c-3.15,0-4.66-1.95-4.66-5.2v-7.87Z"/><path d="M279.16,236.46a6.68,6.68,0,0,0,4.19,1.43c1.48,0,2.34-.44,2.34-1.5,0-2.51-7.47-.84-7.23-5.57.1-2.32,1.81-3.7,5.23-3.7a10.49,10.49,0,0,1,4.66,1.21l-1.08,2.17a7.25,7.25,0,0,0-3.7-1.06c-1.21,0-2.22.39-2.17,1.4.15,2,7.32.47,7.32,5.45,0,2.66-2.39,4.05-5.45,4a8.78,8.78,0,0,1-5.3-1.68Z"/><path d="M295.19,223.59v3.78h3.25l-.42,2.46h-2.83v5.92c0,1.41.64,1.95,1.67,1.95a5.72,5.72,0,0,0,1.95-.57l.57,2.34a7.94,7.94,0,0,1-3.28.84c-3,0-4-2-4-4.14v-6.34h-1.8v-2.46h1.95l.37-3.43Z"/><path d="M309.54,221.32v8.22a4.42,4.42,0,0,1,4.32-2.42c2.44.07,5.05,1.73,5.05,6.48,0,3.9-2,6.71-5.45,6.71a4.28,4.28,0,0,1-4.07-2.37l-.42,2.22h-2.49V221.72Zm-.12,12.36c0,2.22.81,4,3.25,4,2,0,3.11-1.5,3.11-4,0-3-1.5-3.95-3.13-3.95S309.42,231.09,309.42,233.68Z"/><path d="M333,236.61a5.78,5.78,0,0,1-5.58,3.7c-4.34,0-6.26-2.71-6.26-6.76s2.71-6.53,6.43-6.43c3,.07,5.75,2.34,5.45,6.46l0,.39h-8.73c0,2.2.93,3.7,3.18,3.7a2.87,2.87,0,0,0,2.78-2Zm-3.14-4.21c.05-2-1-2.94-2.54-2.89a2.89,2.89,0,0,0-2.91,2.89Z"/><path d="M173.46,261.16v12.92h-3.08V263.7h-1.81v-2.54Zm-1.56-5a1.65,1.65,0,0,1,1.83,1.55,1.83,1.83,0,0,1-3.63,0A1.59,1.59,0,0,1,171.9,256.13Z"/><path d="M179,261.16l.47,2.29a4.78,4.78,0,0,1,4.41-2.42c3,0,4.49,2,4.49,4.61v8.44h-3.06v-7.45c0-2-.74-3-2.41-3-2.35,0-3.26,1.9-3.26,4v6.51h-3V261.16Z"/><path d="M199.72,255.24v14.62c0,1.38.62,1.75,1.53,1.75a2.42,2.42,0,0,0,1.29-.47l.56,2.2a5.32,5.32,0,0,1-2.78.88c-2.57,0-3.65-1.72-3.65-4.06V255.61Z"/><path d="M208.58,261.16v12.92H205.5V263.7h-1.8v-2.54Zm-1.56-5a1.65,1.65,0,0,1,1.83,1.55,1.83,1.83,0,0,1-3.63,0A1.59,1.59,0,0,1,207,256.13Z"/><path d="M214.15,261.16l.47,2.29A4.8,4.8,0,0,1,219,261c3,0,4.48,2,4.48,4.61v8.44h-3.06v-7.45c0-2-.73-3-2.41-3-2.34,0-3.26,1.9-3.26,4v6.51h-3V261.16Z"/><path d="M238,270.53a5.77,5.77,0,0,1-5.58,3.69c-4.34,0-6.26-2.71-6.26-6.75s2.71-6.54,6.44-6.44c3,.08,5.74,2.35,5.45,6.46l-.05.4h-8.73c0,2.19.93,3.7,3.18,3.7a2.87,2.87,0,0,0,2.78-2Zm-3.14-4.22c0-2-1-2.93-2.54-2.89a2.89,2.89,0,0,0-2.91,2.89Z"/><path d="M247.82,261.16l2.51,9h.2l2.52-9h3.15l2.54,9h.18l2.56-9h3.18l-4.34,12.92h-3l-2.64-8.73h-.2l-2.54,8.73h-3l-4.24-12.92Z"/><path d="M270.66,261.16v12.92h-3.08V263.7h-1.8v-2.54Zm-1.56-5a1.65,1.65,0,0,1,1.83,1.55,1.83,1.83,0,0,1-3.63,0A1.59,1.59,0,0,1,269.1,256.13Z"/><path d="M277.79,257.51v3.77H281l-.42,2.46h-2.83v5.92c0,1.41.64,1.95,1.67,1.95a5.5,5.5,0,0,0,2-.57l.57,2.35a8.15,8.15,0,0,1-3.28.83c-3,0-4-2-4-4.14v-6.34h-1.8v-2.46h1.95l.37-3.43Z"/><path d="M287,255.24v8a4.81,4.81,0,0,1,4.24-2.2c3,0,4.48,2,4.48,4.61v8.44h-3v-7.45c0-2-.74-3-2.42-3-2.34,0-3.25,1.9-3.25,4v6.51h-3.06V255.61Z"/><path d="M307.9,257.51v3.77h3.26l-.42,2.46H307.9v5.92c0,1.41.64,1.95,1.68,1.95a5.5,5.5,0,0,0,1.95-.57l.56,2.35a8.15,8.15,0,0,1-3.28.83c-3,0-4-2-4-4.14v-6.34H303v-2.46H305l.37-3.43Z"/><path d="M317.1,255.24v8a4.83,4.83,0,0,1,4.24-2.2c3,0,4.49,2,4.49,4.61v8.44h-3.06v-7.45c0-2-.74-3-2.41-3-2.35,0-3.26,1.9-3.26,4v6.51H314V255.61Z"/><path d="M340.23,270.53a5.75,5.75,0,0,1-5.57,3.69c-4.34,0-6.26-2.71-6.26-6.75s2.71-6.54,6.43-6.44c3,.08,5.75,2.35,5.45,6.46l0,.4H331.5c0,2.19.94,3.7,3.18,3.7a2.87,2.87,0,0,0,2.79-2Zm-3.13-4.22c0-2-1-2.93-2.54-2.89a2.88,2.88,0,0,0-2.91,2.89Z"/><path d="M229.89,289.15v8.21A4.39,4.39,0,0,1,234.2,295c2.44.07,5.06,1.72,5.06,6.48,0,3.9-1.95,6.71-5.45,6.71a4.28,4.28,0,0,1-4.07-2.37l-.42,2.22h-2.49V289.55Zm-.12,12.36c0,2.21.81,4,3.25,4,2,0,3.11-1.5,3.11-4,0-3-1.51-3.95-3.13-3.95C231.22,297.51,229.77,298.92,229.77,301.51Z"/><path d="M247.77,295c3.23,0,6,2.19,6,6.6,0,3.63-2.14,6.59-6.16,6.59-4.37,0-6.17-3-6.17-6.59C241.48,297.14,244.27,295,247.77,295Zm-3.08,6.6c0,2.05.69,4,3,4,2.09,0,3-1.95,3-4,0-2.86-1.41-4-3-4C246.07,297.54,244.69,298.65,244.69,301.55Z"/><path d="M268.61,289.15V308H266l-.34-2.22a4.53,4.53,0,0,1-4.12,2.37c-3.48.05-5.55-2.84-5.55-6.63,0-4.64,3-6.56,5.53-6.56a4.1,4.1,0,0,1,4,2.44v-7.84Zm-9.42,12.33c0,2.2.86,3.92,3.16,3.92s3.25-1.72,3.25-3.89c0-2.94-1.58-4-3.28-4S259.19,298.65,259.19,301.48Z"/><path d="M273.94,295.07l3.18,9.12h.2l2.91-9.12h3.15l-4.78,13.12c-1.58,4.31-3.06,5.4-7.62,4.44l.54-2.59c2.91.71,3.31,0,4.22-2.49l-4.86-12.48Z"/><path d="M604.85,416.25a12.61,12.61,0,0,0-4.91-1.43c-1.72,0-2.86.52-2.86,1.92,0,3.31,9.23,1.8,9.23,7.65,0,3.55-2.74,5.35-6.34,5.35a10.66,10.66,0,0,1-6.63-2.12l1.52-2.32a8.5,8.5,0,0,0,5,1.82c2.1,0,3.35-.91,3.35-2.39,0-3.43-9.17-2.19-9.17-7.84,0-3.16,2.44-4.68,5.89-4.68a13.68,13.68,0,0,1,6.12,1.67Z"/><path d="M613,413v3.77h3.25l-.42,2.47H613v5.92c0,1.4.64,1.94,1.67,1.94a5.76,5.76,0,0,0,2-.56l.57,2.34a8.1,8.1,0,0,1-3.28.84c-3,0-4-2-4-4.15v-6.33h-1.8v-2.47h1.95l.37-3.43Z"/><path d="M621.35,416.67l.57,2.66c.59-2,2.1-2.83,4.19-2.78a4.78,4.78,0,0,1,1.33.22l-.46,2.68a5.33,5.33,0,0,0-1.85-.24c-2.27.07-3.14,1.82-3.14,3.89v6.49h-3V416.67Z"/><path d="M629.07,417.48a15.46,15.46,0,0,1,4.89-.93c3.89,0,5.32,1.92,5.32,4.93v5.22a.65.65,0,0,0,.62.74,2.5,2.5,0,0,0,1-.14v2a5.05,5.05,0,0,1-2,.4,2.34,2.34,0,0,1-2.34-1.75,5.64,5.64,0,0,1-3.89,1.75c-2.52,0-4.39-1.29-4.42-4s2-4.1,5.25-4.1a19.85,19.85,0,0,1,2.79.25v-.76c0-1.41-.89-2.17-2.66-2.15a10.41,10.41,0,0,0-4,.79Zm7.15,6a14,14,0,0,0-2.51-.14c-1.48.07-2.42.76-2.44,2.07a1.8,1.8,0,0,0,2.09,1.89,5,5,0,0,0,2.86-1Z"/><path d="M647.05,416.67v12.92H644V419.21h-1.8v-2.54Zm-1.55-5a1.64,1.64,0,0,1,1.82,1.55,1.82,1.82,0,0,1-3.62,0A1.59,1.59,0,0,1,645.5,411.64Z"/><path d="M662.24,416.67v11c0,4.29-1.67,6.88-6.41,6.88a13.48,13.48,0,0,1-5.27-1.11l.71-2.32a11,11,0,0,0,4.22,1c2.78,0,3.7-1.38,3.7-3.5v-1.13a4.47,4.47,0,0,1-4,2.05c-3.48.07-5.48-2.57-5.48-6.37,0-4.63,3-6.55,5.53-6.55a4.27,4.27,0,0,1,4.09,2.34l.32-2.22Zm-9.32,6.41c0,2.19.87,3.92,3.16,3.92s3.21-1.73,3.21-3.9c0-2.93-1.56-4-3.24-4S652.92,420.24,652.92,423.08Z"/><path d="M668.46,410.75v8a4.82,4.82,0,0,1,4.24-2.19c3,0,4.49,1.94,4.49,4.61v8.43h-3.06v-7.45c0-2-.74-3-2.41-3-2.35,0-3.26,1.9-3.26,4v6.51H665.4V411.12Z"/><path d="M684.22,413v3.77h3.26l-.42,2.47h-2.84v5.92c0,1.4.64,1.94,1.68,1.94a5.76,5.76,0,0,0,2-.56l.56,2.34a8.1,8.1,0,0,1-3.28.84c-3,0-4-2-4-4.15v-6.33h-1.8v-2.47h1.95l.37-3.43Z"/><path d="M618,460a5.77,5.77,0,0,1-5.58,3.7c-4.34,0-6.26-2.71-6.26-6.76s2.71-6.53,6.44-6.43c3,.07,5.74,2.34,5.45,6.46l0,.39h-8.73c0,2.2.94,3.7,3.18,3.7a2.89,2.89,0,0,0,2.79-2Zm-3.13-4.21c0-2-1-2.94-2.54-2.89a2.87,2.87,0,0,0-2.91,2.89Z"/><path d="M623.75,444.66v14.63c0,1.38.61,1.75,1.52,1.75a2.46,2.46,0,0,0,1.29-.47l.56,2.19a5.31,5.31,0,0,1-2.78.89c-2.57,0-3.65-1.73-3.65-4.07V445Z"/><path d="M631.64,444.66v8.22a4.39,4.39,0,0,1,4.31-2.42c2.44.07,5.06,1.72,5.06,6.48,0,3.9-2,6.71-5.45,6.71a4.27,4.27,0,0,1-4.07-2.37l-.42,2.22h-2.49V445.06ZM631.51,457c0,2.22.82,4,3.26,4,2,0,3.11-1.5,3.11-4,0-3-1.51-4-3.14-4S631.51,454.43,631.51,457Z"/><path d="M649.52,450.46c3.23,0,6,2.19,6,6.61,0,3.62-2.15,6.58-6.17,6.58-4.36,0-6.16-3-6.16-6.58C643.23,452.65,646,450.46,649.52,450.46Zm-3.08,6.61c0,2,.69,4,3,4,2.1,0,3-1.95,3-4,0-2.86-1.41-4-3-4S646.44,454.16,646.44,457.07Z"/><path d="M659.61,450.58l2.51,9h.2l2.51-9H668l2.54,9h.17l2.57-9h3.18l-4.34,12.92h-3l-2.64-8.73h-.2l-2.54,8.73h-3l-4.24-12.92Z"/><path d="M678.3,459.8a6.73,6.73,0,0,0,4.2,1.43c1.47,0,2.34-.44,2.34-1.5,0-2.51-7.47-.84-7.23-5.57.1-2.32,1.8-3.7,5.23-3.7a10.49,10.49,0,0,1,4.66,1.21l-1.08,2.17a7.3,7.3,0,0,0-3.7-1.06c-1.21,0-2.22.39-2.17,1.4.15,2.05,7.32.47,7.32,5.45,0,2.66-2.39,4.05-5.45,4a8.78,8.78,0,0,1-5.3-1.68Z"/><path d="M297.2,852.8l-.34,2.56h-7.2v4.84h6.9l-.05,2.63h-6.85v7.23H286.6V852.8Z"/><path d="M310.2,866.51a5.76,5.76,0,0,1-5.57,3.7c-4.34,0-6.26-2.72-6.26-6.76s2.71-6.53,6.43-6.44c3,.08,5.75,2.35,5.45,6.47l-.05.39h-8.73c0,2.19.94,3.7,3.18,3.7a2.88,2.88,0,0,0,2.79-2.05Zm-3.13-4.22c.05-2-1-2.93-2.54-2.88a2.87,2.87,0,0,0-2.91,2.88Z"/><path d="M324.28,866.51a5.76,5.76,0,0,1-5.57,3.7c-4.34,0-6.26-2.72-6.26-6.76s2.71-6.53,6.43-6.44c3,.08,5.75,2.35,5.45,6.47l-.05.39h-8.73c0,2.19.94,3.7,3.19,3.7a2.87,2.87,0,0,0,2.78-2.05Zm-3.13-4.22c.05-2-1-2.93-2.54-2.88a2.88,2.88,0,0,0-2.91,2.88Z"/><path d="M331,853.49v3.77h3.25l-.42,2.47H331v5.92c0,1.4.64,1.94,1.67,1.94a5.76,5.76,0,0,0,1.95-.56l.57,2.34a8.1,8.1,0,0,1-3.28.84c-3,0-4-2-4-4.15v-6.33h-1.8v-2.47h1.94l.38-3.43Z"/><path d="M290.4,887.4v3.77h3.25l-.42,2.47H290.4v5.92c0,1.4.64,2,1.67,2a5.72,5.72,0,0,0,1.95-.57l.57,2.34a7.94,7.94,0,0,1-3.28.84c-3,0-4-2-4-4.14v-6.34h-1.8v-2.47h1.95l.37-3.42Z"/><path d="M301.74,890.93c3.23,0,6,2.19,6,6.61,0,3.62-2.14,6.58-6.16,6.58-4.37,0-6.17-3-6.17-6.58C295.45,893.12,298.24,890.93,301.74,890.93Zm-3.08,6.61c0,2,.69,4,3,4,2.09,0,3-1.95,3-4,0-2.86-1.4-4-3-4S298.66,894.63,298.66,897.54Z"/><path d="M322.53,891.05v11c0,4.3-1.67,6.88-6.41,6.88a13.36,13.36,0,0,1-5.28-1.11l.72-2.31a11.13,11.13,0,0,0,4.22,1c2.78,0,3.69-1.38,3.69-3.5V901.8a4.45,4.45,0,0,1-4,2.05c-3.47.07-5.47-2.57-5.47-6.36,0-4.64,3-6.56,5.52-6.56a4.28,4.28,0,0,1,4.1,2.34l.32-2.22Zm-9.32,6.41c0,2.2.86,3.92,3.16,3.92s3.2-1.72,3.2-3.89c0-2.94-1.55-4-3.23-4S313.21,894.63,313.21,897.46Z"/><path d="M337,900.42a5.78,5.78,0,0,1-5.58,3.7c-4.34,0-6.26-2.71-6.26-6.76s2.71-6.53,6.43-6.43c3,.07,5.75,2.34,5.45,6.46l0,.39h-8.73c0,2.2.93,3.7,3.18,3.7a2.87,2.87,0,0,0,2.78-2Zm-3.14-4.22c.05-2-1-2.93-2.54-2.88a2.88,2.88,0,0,0-2.91,2.88Z"/><path d="M343.75,887.4v3.77H347l-.42,2.47h-2.83v5.92c0,1.4.64,2,1.67,2a5.72,5.72,0,0,0,1.95-.57l.57,2.34a7.94,7.94,0,0,1-3.28.84c-3,0-4-2-4-4.14v-6.34h-1.8v-2.47h1.95l.37-3.42Z"/><path d="M353,885.13v8a4.81,4.81,0,0,1,4.24-2.19c3,0,4.48,2,4.48,4.61V904h-3.05v-7.44c0-2-.74-3-2.42-3-2.34,0-3.25,1.9-3.25,4V904h-3.06V885.5Z"/><path d="M376.08,900.42a5.76,5.76,0,0,1-5.57,3.7c-4.34,0-6.27-2.71-6.27-6.76s2.72-6.53,6.44-6.43c3,.07,5.74,2.34,5.45,6.46l-.05.39h-8.73c0,2.2.94,3.7,3.18,3.7a2.89,2.89,0,0,0,2.79-2ZM373,896.2c.05-2-1-2.93-2.54-2.88a2.87,2.87,0,0,0-2.91,2.88Z"/><path d="M381.24,891.05l.56,2.66c.59-2,2.1-2.83,4.19-2.78a4.94,4.94,0,0,1,1.34.22l-.47,2.69a5.27,5.27,0,0,0-1.85-.25c-2.27.08-3.13,1.83-3.13,3.9V904h-3.06V891.05Z"/><path d="M354.2,863.54A47.45,47.45,0,0,1,378.66,861c8.43,1.45,16,5.32,23.21,9.86,1.64,1,3.14-1.55,1.52-2.59-7.5-4.75-15.55-8.81-24.38-10.24a50.45,50.45,0,0,0-25.61,2.64c-1.79.66-1,3.56.8,2.89Z"/><path d="M394.2,874.11c3.74-.64,7.41-1.65,11.09-2.57a1.52,1.52,0,0,0,.9-2.21c-.91-1.69-1.74-3.42-2.63-5.13s-1.7-3.12-2.52-4.71a1.5,1.5,0,1,0-2.59,1.51c.82,1.59,1.7,3.14,2.52,4.72s1.72,3.44,2.63,5.13l.9-2.2c-3.69.92-7.35,1.92-11.1,2.57a1.5,1.5,0,1,0,.8,2.89Z"/><path d="M586.88,442.37c-9.62,5.72-19.3,11.39-29.1,16.81a59.28,59.28,0,0,1-5.47,2.87,1.51,1.51,0,0,0-.54,2.05,1.54,1.54,0,0,0,2.05.54c4.3-1.83,8.37-4.47,12.41-6.78q8.44-4.83,16.83-9.76c1.78-1,3.56-2.08,5.34-3.14a1.5,1.5,0,0,0-1.52-2.59Z"/><path d="M554.26,453.55c-1.67,3.57-3,7.27-4.38,10.94-.38,1,.58,1.8,1.45,1.9,1.87.22,3.73.52,5.59.76.94.12,1.87.23,2.81.31l.54.05.32,0h.06l1.3.18a1.54,1.54,0,0,0,1.84-1.05,1.5,1.5,0,0,0-1-1.84c-1.87-.26-3.75-.43-5.62-.67s-3.86-.57-5.8-.79l1.44,1.9c1.3-3.43,2.52-6.9,4.08-10.22a1.54,1.54,0,0,0-.54-2.05,1.51,1.51,0,0,0-2,.53Z"/><path d="M346.07,248.59a53.16,53.16,0,0,1,31.42,21.71,91.22,91.22,0,0,1,6.76,12.2c.85,1.8,3.53.23,2.68-1.57-3.31-7-7.24-13.84-12.59-19.53a54,54,0,0,0-16.28-11.83,62.37,62.37,0,0,0-11.17-4c-1.93-.49-2.76,2.5-.82,3Z"/><path d="M375.13,280.45c3.84,1.72,7.81,3.09,11.75,4.53,1,.38,1.88-.58,2-1.5.19-2.05.44-3.76.67-5.83.19-1.75.3-3.5.49-5.24a1.55,1.55,0,0,0-1.55-1.55,1.59,1.59,0,0,0-1.55,1.55c-.2,1.74-.31,3.49-.5,5.24-.21,1.94-.49,3.88-.67,5.83l2-1.49c-3.69-1.35-7.43-2.61-11-4.22a1.6,1.6,0,0,0-2.12.56,1.56,1.56,0,0,0,.56,2.12Z"/><circle cx="79" cy="61.53" r="34.44"/><path class="cls-8" d="M82.51,47.08s-.12,20.87,0,24.37c0,.77.19,1,.73,1l5.08.54-.08,2.23H71.92L72,73l4.46-.58c.58,0,.81-.23.81-1,.08-10,0-19.6,0-19.6l-5.62,1.08c-.19-.31-1.12-2.46-.46-2.73l10.35-4Z"/><path d="M146.19,54.39l-.27,3.12h-5.55V75.39h-3.75V57.51h-5.76V54.39Z"/><path d="M152.34,52.47v9.72a5.86,5.86,0,0,1,5.16-2.67c3.69,0,5.46,2.37,5.46,5.61V75.39h-3.72V66.33c0-2.4-.9-3.69-2.94-3.69-2.85,0-4,2.31-4,4.83v7.92h-3.72V52.92Z"/><path d="M180.48,71.07a7,7,0,0,1-6.78,4.5c-5.28,0-7.62-3.3-7.62-8.22s3.3-7.95,7.83-7.83c3.69.09,7,2.85,6.63,7.86l-.06.48H169.86c0,2.67,1.14,4.5,3.87,4.5a3.5,3.5,0,0,0,3.39-2.49Zm-3.81-5.13c.06-2.43-1.26-3.57-3.09-3.51A3.5,3.5,0,0,0,170,65.94Z"/><path d="M190.5,70.89a8.15,8.15,0,0,0,5.1,1.74c1.8,0,2.85-.54,2.85-1.83,0-3.06-9.09-1-8.79-6.78.12-2.82,2.19-4.5,6.36-4.5A12.78,12.78,0,0,1,201.69,61l-1.32,2.64a8.9,8.9,0,0,0-4.5-1.29c-1.47,0-2.7.48-2.64,1.71.18,2.49,8.91.57,8.91,6.63,0,3.24-2.91,4.92-6.63,4.89a10.76,10.76,0,0,1-6.45-2Z"/><path d="M210,55.23v4.59h4l-.51,3H210V70c0,1.71.78,2.37,2,2.37a6.83,6.83,0,0,0,2.37-.69l.69,2.85a9.82,9.82,0,0,1-4,1c-3.69,0-4.83-2.46-4.83-5V62.82h-2.19v-3h2.37l.45-4.17Z"/><path d="M217.32,60.66a18.74,18.74,0,0,1,5.94-1.14c4.74,0,6.48,2.34,6.48,6v6.36a.79.79,0,0,0,.75.9,3,3,0,0,0,1.23-.18v2.49a6.08,6.08,0,0,1-2.49.48,2.84,2.84,0,0,1-2.85-2.13,6.87,6.87,0,0,1-4.74,2.13c-3.06,0-5.34-1.56-5.37-4.83s2.46-5,6.39-5a24.49,24.49,0,0,1,3.39.3v-.93c0-1.71-1.08-2.64-3.24-2.61a12.68,12.68,0,0,0-4.86,1ZM226,68a16.62,16.62,0,0,0-3.06-.18c-1.8.09-2.94.93-3,2.52a2.21,2.21,0,0,0,2.55,2.31A6.17,6.17,0,0,0,226,71.4Z"/><path d="M237.24,59.67l.69,3.24c.72-2.4,2.55-3.45,5.1-3.39a6.19,6.19,0,0,1,1.62.27l-.57,3.27a6.48,6.48,0,0,0-2.25-.3C239.07,62.85,238,65,238,67.5v7.89H234.3V59.67Z"/><path d="M252.54,55.23v4.59h4l-.51,3h-3.45V70c0,1.71.78,2.37,2,2.37A6.83,6.83,0,0,0,257,71.7l.69,2.85a9.82,9.82,0,0,1-4,1c-3.69,0-4.83-2.46-4.83-5V62.82h-2.19v-3H249l.45-4.17Z"/><path d="M269.25,59.67l.54,2.82a5.71,5.71,0,0,1,5.37-3c3,.09,6.18,2.1,6.18,7.89,0,4.74-2.37,8.16-6.66,8.16A4.88,4.88,0,0,1,270,73v8.37h-3.75V59.67Zm.51,7.83c0,2.7,1,4.86,4,4.86,2.43,0,3.78-1.83,3.78-4.92,0-3.66-1.83-4.8-3.81-4.8C271.56,62.64,269.76,64.35,269.76,67.5Z"/><path d="M291.69,59.52c3.93,0,7.35,2.67,7.35,8,0,4.41-2.61,8-7.5,8-5.31,0-7.5-3.6-7.5-8C284,62.19,287.43,59.52,291.69,59.52Zm-3.75,8c0,2.49.84,4.86,3.66,4.86,2.55,0,3.69-2.37,3.69-4.86,0-3.48-1.71-4.89-3.6-4.89C289.62,62.67,287.94,64,287.94,67.56Z"/><path d="M302.76,70.89a8.15,8.15,0,0,0,5.1,1.74c1.8,0,2.85-.54,2.85-1.83,0-3.06-9.09-1-8.79-6.78.12-2.82,2.19-4.5,6.36-4.5A12.78,12.78,0,0,1,314,61l-1.32,2.64a8.9,8.9,0,0,0-4.5-1.29c-1.47,0-2.7.48-2.64,1.71.18,2.49,8.91.57,8.91,6.63,0,3.24-2.91,4.92-6.63,4.89a10.76,10.76,0,0,1-6.45-2Z"/><path d="M322.32,59.67V75.39h-3.75V62.76h-2.19V59.67Zm-1.89-6.12a2,2,0,0,1,2.22,1.89,2.22,2.22,0,0,1-4.41,0A1.93,1.93,0,0,1,320.43,53.55Z"/><path d="M331,55.23v4.59h4l-.51,3H331V70c0,1.71.78,2.37,2,2.37a6.83,6.83,0,0,0,2.37-.69l.69,2.85a9.82,9.82,0,0,1-4,1c-3.69,0-4.83-2.46-4.83-5V62.82h-2.19v-3h2.37l.45-4.17Z"/><path d="M343.35,59.67V75.39H339.6V62.76h-2.19V59.67Zm-1.89-6.12a2,2,0,0,1,2.22,1.89,2.22,2.22,0,0,1-4.41,0A1.93,1.93,0,0,1,341.46,53.55Z"/><path d="M354.27,59.52c3.93,0,7.35,2.67,7.35,8,0,4.41-2.61,8-7.5,8-5.31,0-7.5-3.6-7.5-8C346.62,62.19,350,59.52,354.27,59.52Zm-3.75,8c0,2.49.84,4.86,3.66,4.86,2.55,0,3.69-2.37,3.69-4.86,0-3.48-1.71-4.89-3.6-4.89C352.2,62.67,350.52,64,350.52,67.56Z"/><path d="M367.86,59.67l.57,2.79a5.8,5.8,0,0,1,5.37-2.94c3.69,0,5.46,2.37,5.46,5.61V75.39h-3.72V66.33c0-2.4-.9-3.69-2.94-3.69-2.85,0-4,2.31-4,4.83v7.92h-3.72V59.67Z"/><path d="M394.2,59.67V75.39h-3.75V62.76h-2.19V59.67Zm-1.89-6.12a2,2,0,0,1,2.22,1.89,2.22,2.22,0,0,1-4.41,0A1.93,1.93,0,0,1,392.31,53.55Z"/><path d="M398.46,70.89a8.15,8.15,0,0,0,5.1,1.74c1.8,0,2.85-.54,2.85-1.83,0-3.06-9.09-1-8.79-6.78.12-2.82,2.19-4.5,6.36-4.5A12.78,12.78,0,0,1,409.65,61l-1.32,2.64a8.9,8.9,0,0,0-4.5-1.29c-1.47,0-2.7.48-2.64,1.71.18,2.49,8.91.57,8.91,6.63,0,3.24-2.91,4.92-6.63,4.89a10.76,10.76,0,0,1-6.45-2Z"/><path d="M419.64,60.66a18.74,18.74,0,0,1,5.94-1.14c4.74,0,6.48,2.34,6.48,6v6.36a.79.79,0,0,0,.75.9A3,3,0,0,0,434,72.6v2.49a6.1,6.1,0,0,1-2.5.48,2.84,2.84,0,0,1-2.84-2.13A6.87,6.87,0,0,1,424,75.57c-3.06,0-5.34-1.56-5.37-4.83s2.46-5,6.39-5a24.49,24.49,0,0,1,3.39.3v-.93c0-1.71-1.08-2.64-3.24-2.61a12.68,12.68,0,0,0-4.86,1Zm8.7,7.35a16.62,16.62,0,0,0-3.06-.18c-1.8.09-2.94.93-3,2.52a2.21,2.21,0,0,0,2.55,2.31,6.17,6.17,0,0,0,3.48-1.26Z"/><path d="M440.34,52.47V70.26c0,1.68.75,2.13,1.86,2.13a2.93,2.93,0,0,0,1.56-.57l.69,2.67a6.47,6.47,0,0,1-3.39,1.08c-3.12,0-4.44-2.1-4.44-4.95V52.92Z"/><path d="M448.83,52.47V70.26c0,1.68.75,2.13,1.86,2.13a2.93,2.93,0,0,0,1.56-.57l.69,2.67a6.47,6.47,0,0,1-3.39,1.08c-3.12,0-4.44-2.1-4.44-4.95V52.92Z"/><path d="M461.22,60.66a18.74,18.74,0,0,1,5.94-1.14c4.74,0,6.47,2.34,6.47,6v6.36a.8.8,0,0,0,.75.9,3,3,0,0,0,1.24-.18v2.49a6.08,6.08,0,0,1-2.49.48,2.84,2.84,0,0,1-2.85-2.13,6.89,6.89,0,0,1-4.74,2.13c-3.06,0-5.34-1.56-5.37-4.83s2.46-5,6.39-5a24.49,24.49,0,0,1,3.39.3v-.93c0-1.71-1.08-2.64-3.24-2.61a12.68,12.68,0,0,0-4.86,1Zm8.7,7.35a16.62,16.62,0,0,0-3.06-.18c-1.8.09-2.94.93-3,2.52a2.21,2.21,0,0,0,2.55,2.31,6.17,6.17,0,0,0,3.48-1.26Z"/><path d="M481.92,52.47v10a5.37,5.37,0,0,1,5.25-2.94c3,.09,6.14,2.1,6.14,7.89,0,4.74-2.36,8.16-6.62,8.16a5.2,5.2,0,0,1-4.95-2.88l-.51,2.7h-3V53Zm-.15,15c0,2.7,1,4.86,4,4.86,2.46,0,3.77-1.83,3.77-4.92,0-3.66-1.82-4.8-3.8-4.8C483.54,62.64,481.77,64.35,481.77,67.5Z"/><path d="M503.67,59.52c3.92,0,7.34,2.67,7.34,8,0,4.41-2.61,8-7.5,8-5.3,0-7.49-3.6-7.49-8C496,62.19,499.41,59.52,503.67,59.52Zm-3.75,8c0,2.49.83,4.86,3.66,4.86,2.55,0,3.68-2.37,3.68-4.86,0-3.48-1.71-4.89-3.59-4.89C501.59,62.67,499.92,64,499.92,67.56Z"/><path d="M517.82,59.67v9.06c0,2.4,1,3.69,3.15,3.69,2.85,0,4-2.94,4-5.91V59.67h3.72V75.39h-3L525.21,72a5.75,5.75,0,0,1-5.44,3.6c-3.84,0-5.66-2.37-5.66-6.33V59.67Z"/><path d="M537.38,55.23v4.59h4l-.51,3h-3.45V70c0,1.71.78,2.37,2,2.37a6.83,6.83,0,0,0,2.37-.69l.69,2.85a9.82,9.82,0,0,1-4,1c-3.69,0-4.83-2.46-4.83-5V62.82h-2.19v-3h2.37l.45-4.17Z"/><path d="M554.09,59.67l.54,2.82a5.71,5.71,0,0,1,5.37-3c3,.09,6.18,2.1,6.18,7.89,0,4.74-2.37,8.16-6.66,8.16A4.88,4.88,0,0,1,554.87,73v8.37h-3.75V59.67Zm.51,7.83c0,2.7,1,4.86,4,4.86,2.43,0,3.78-1.83,3.78-4.92,0-3.66-1.83-4.8-3.81-4.8C556.4,62.64,554.6,64.35,554.6,67.5Z"/><path d="M576.53,59.52c3.93,0,7.35,2.67,7.35,8,0,4.41-2.61,8-7.5,8-5.31,0-7.5-3.6-7.5-8C568.88,62.19,572.27,59.52,576.53,59.52Zm-3.75,8c0,2.49.84,4.86,3.66,4.86,2.55,0,3.69-2.37,3.69-4.86,0-3.48-1.71-4.89-3.6-4.89C574.46,62.67,572.78,64,572.78,67.56Z"/><path d="M587.6,70.89a8.15,8.15,0,0,0,5.1,1.74c1.8,0,2.85-.54,2.85-1.83,0-3.06-9.09-1-8.79-6.78.12-2.82,2.19-4.5,6.36-4.5A12.78,12.78,0,0,1,598.79,61l-1.32,2.64a8.9,8.9,0,0,0-4.5-1.29c-1.47,0-2.7.48-2.64,1.71.18,2.49,8.91.57,8.91,6.63,0,3.24-2.91,4.92-6.63,4.89a10.76,10.76,0,0,1-6.45-2Z"/><path d="M607.1,55.23v4.59h4l-.51,3H607.1V70c0,1.71.78,2.37,2,2.37a6.83,6.83,0,0,0,2.37-.69l.69,2.85a9.82,9.82,0,0,1-4,1c-3.69,0-4.83-2.46-4.83-5V62.82h-2.19v-3h2.37l.45-4.17Z"/><path d="M617.69,59.67v9.06c0,2.4,1,3.69,3.15,3.69,2.85,0,4-2.94,4-5.91V59.67h3.72V75.39h-3L625.07,72a5.73,5.73,0,0,1-5.43,3.6c-3.84,0-5.67-2.37-5.67-6.33V59.67Z"/><path d="M635.36,59.67l.69,3.24c.72-2.4,2.55-3.45,5.1-3.39a6.19,6.19,0,0,1,1.62.27l-.57,3.27a6.48,6.48,0,0,0-2.25-.3c-2.76.09-3.81,2.22-3.81,4.74v7.89h-3.72V59.67Z"/><path d="M658.34,71.07a7,7,0,0,1-6.78,4.5c-5.28,0-7.62-3.3-7.62-8.22s3.3-7.95,7.83-7.83c3.69.09,7,2.85,6.63,7.86l-.06.48H647.72c0,2.67,1.14,4.5,3.87,4.5A3.5,3.5,0,0,0,655,69.87Zm-3.81-5.13c.06-2.43-1.26-3.57-3.09-3.51a3.5,3.5,0,0,0-3.54,3.51Z"/></svg>