<svg id="Layer_1" data-name="Layer 1" xmlns="http://www.w3.org/2000/svg" viewBox="0 0 780 1051.14"><defs><style>.cls-1{fill:#fff171;stroke-width:0.3px;}.cls-1,.cls-2,.cls-3,.cls-4,.cls-5{stroke:#fff;stroke-miterlimit:10;}.cls-2,.cls-4{fill:#d4a47c;}.cls-2{stroke-width:0.27px;}.cls-3{fill:#005058;}.cls-3,.cls-4{stroke-width:0.42px;}.cls-5{fill:#c6946f;stroke-width:0.23px;}.cls-6{fill:#fff;}</style></defs><path class="cls-1" d="M460.73,449.05a32.46,32.46,0,0,1,1.3,5.63c1.29,10.42,1.38,21.21-.85,30.88a41.41,41.41,0,0,1-2.16,6.82,31.47,31.47,0,0,1-1.53,3.14c-.65,1.16-6,8.88-8.68,13.55a7.77,7.77,0,0,1,1.75,1.91c.12.12.21.25.33.37,2.31-3.61,9.39-12.74,9.18-13.71,4.11-7.37,5.54-17.06,5.75-26.45a115.11,115.11,0,0,0-1.06-17.7A11.39,11.39,0,0,1,460.73,449.05Z"/><path class="cls-2" d="M394.74,481.8c5.5,5.9,19.36,35.36,24.83,41.26,3.33,3.61,20.73-23,24.46-19.79s5.63,7.28,8.77,10.93c2.38,2.79,2.17,4.78,4.39,7.72,1.47,1.94,8.7.12,10.22,2,2,2.54,1.45,8.33,4.82,8,1.34-.13.23,2.93-1,3.55-9.6,5,4.91,4,5.14,4.52,1.42,3.2,2,4.8,4.87,6.79a23.09,23.09,0,0,0,16.38,3.78c-6.25-8.48-6.42-19.6-7.38-29.59-1.83-19-6.12-36.53-15.17-53.4A102.22,102.22,0,0,0,458.52,445a115.57,115.57,0,0,0-12.06-11.31c-6.85-5.3-15.09-8.2-23.31-10.6-4.19-1.23-8.41-2.34-12.57-3.64-1-.33-2.47-.66-3.95-1.1-2.84-.86-5.84-2.12-6.49-4.53a47.89,47.89,0,0,0-2.83-8.69c-.57-1.2-1-1.94-1.56-3.13s-1.93-3.41-1.31-4.68,2.17-.44,3.26-.23c.89.16,1.74-.11,2.65,0a7.09,7.09,0,0,0,1.95.24,6.16,6.16,0,0,0,4-2.21c1-1.47.43-3.39,1.18-4.91a5.72,5.72,0,0,1,1.45-1.6,2.61,2.61,0,0,1-1.27-1.06c-2.12-3.28-1.75-7.21-2.65-10.86a19.29,19.29,0,0,0-3.35.68,29.05,29.05,0,0,1-5.32.93c-1.62.14-3,.72-4.38-.07-1.07-.61-1.67-1.79-2.74-2.39a23.15,23.15,0,0,1-2.25-1.07,32.21,32.21,0,0,1-2.92-2.67c-2.15-2-4.54-3.8-6.79-5.69a24.17,24.17,0,0,0-8.13-4.69,19.56,19.56,0,0,0-9.52-.44,43.9,43.9,0,0,0-7.2,1.82,74.07,74.07,0,0,0-9.76,4.68c-3.53,2-6.76,5.54-9.14,8.78-1.76,2.41-3.81,4.44-5.33,7.07a25.31,25.31,0,0,0-2.68,8.66,27.73,27.73,0,0,1-2.59,7c-.52,1.16-.5,2.47-1,3.7a29.57,29.57,0,0,0-1.55,4.44c-.64,3,.66,5.2,2,7.71.87,1.67,2.22,2.91,3.07,4.61a13.36,13.36,0,0,0,1.53,2.28c.63.82,1,1.73,1.61,2.54.31.39.72.59,1.05,1s.28.83.69,1.17a20.33,20.33,0,0,0,2.86,1.36,26.62,26.62,0,0,1,3.21,1.83,2.26,2.26,0,0,0,.33.22c0,.06,0,.21.06.54a11.86,11.86,0,0,1,.35,2.8c.22,2.4-.19,2.63.33,5.35a26.6,26.6,0,0,0,1.39,5,3.42,3.42,0,0,0,5,1.67,1.82,1.82,0,0,1,1.23-.29,4.68,4.68,0,0,1,3.27,1.16,21.71,21.71,0,0,0,1.89,2.36,18.46,18.46,0,0,0,4.8,2.82c1.42.56,2.36.33,3.11,1.64.54.94,1,1.93,1.55,2.9.94,1.82,2.34,3.22,4.54,2.82,2.94-.54,6.15-3.86,8.44-5.6s4.2-4.36,6.76-6c2.94-1.81,4.66-1,7.57.29a1.65,1.65,0,0,1,.75.51,1.68,1.68,0,0,1,.22.59c.89,3.84,2.62,7.38,3.62,11.19.23.89,2.61,7.34,3.86,12.9Z"/><path d="M337.69,419.06c.34-.13.69-.21,1-.31s.63-.15.82,0,.09,0,0,.13-.2.11-.26.15a1.33,1.33,0,0,0-.26.21c-.33.29-.62.62-.94.92s-.35.37-.55.53c-1.24,1-2.85,1.58-4,2.68a7.1,7.1,0,0,0-1.67,4.08c-.47-.2-2-.83-2-1.39,0-.82,1.58-2.3,1.93-3.06a6.49,6.49,0,0,1,3.26-3.13C335.94,419.51,336.85,419.37,337.69,419.06Z"/><path d="M401.25,373.69c-2.48.23-5.11.92-7.59.85-7.89-.23-13.17-8.06-20.21-11.64-5.79-2.95-12.77-2.89-19-1s-11.78,5.46-17,9.34c-4.82,3.6-9.5,7.57-12.78,12.61-2.21,3.4-7.14,14.24-3.08,17.76s13.18-.32,18.16,2.84c2.52,1.6,4.28,4.35,7.05,5.48a24.88,24.88,0,0,0,4.39,1c2.66.55,5.17,1.79,7.86,2.16s5.86-.41,7.1-2.84a11.23,11.23,0,0,1-3.07-4.88c-.44-1.9.81-2.1,2.59-2.89,2.44-1.09,4.58-1,5.87,1.37s2.13,5.16,4.37,6.61c2.43,1.57,5.61,1,8.43.33l14.52-3.37c.24-3-3.67-5.15-3.26-8.1.31-2.23,2.82-3.29,4.81-4.34a18.41,18.41,0,0,0,8.42-9.22c1.52-3.69,1.44-8.64-1.85-10.91A8.35,8.35,0,0,0,401.25,373.69Z"/><path d="M321.74,402.49l.35-.86-.2-.08A3,3,0,0,0,321.74,402.49Z"/><path class="cls-2" d="M364.57,412.87c-5.18-1-3.81-9.32-.35-11.3a6.55,6.55,0,0,1,8.55,2.27c1.72,2.92.9,6.78,2.43,9.8.81,1.59,2.27,3,2.35,4.75s-2.83,3.2-3.39,1.51"/><path d="M392.25,382.71a7.19,7.19,0,0,0,.16-3.39,11.91,11.91,0,0,1,.44-3.95,6.17,6.17,0,0,1,2.42-3.78,6.73,6.73,0,0,1,3.88-1,6.44,6.44,0,0,1,3.5.9c1,.85,1.58,2.88,2.2,4a6.63,6.63,0,0,1,.31,4.55,6,6,0,0,1-2.32,4.05,19.66,19.66,0,0,1-10.28,2.52c-1.74,0-3.54-1.56-4.62-2.86s-2.48-3.76-2.54-5.5c-.13-3.33,3.52-5.29,6.26-6,1.65-.43,3.34-.7,4.8.42a9.68,9.68,0,0,1,2.6,3.55,17.94,17.94,0,0,1,2,4.59,6.51,6.51,0,0,1,.39,2.6,20,20,0,0,0-.39,2.93,8.26,8.26,0,0,1-.76,3.23,3.24,3.24,0,0,1-1.8,1.78,10.69,10.69,0,0,1-2.85,1c-.63.13-1.28,0-1.92.11-1.09.15-1.12.11-1.76-.95"/><path d="M391.36,382.24c-1.14-.87-1.26-2.16-1.31-3.48a5.85,5.85,0,0,0-.11-1.37,1.88,1.88,0,0,1,.48-1.87c1.16-1.42,3.29-1.91,4.94-2.39a6.21,6.21,0,0,1,2.16-.4c.68,0,1.32.34,2,.37a4.35,4.35,0,0,1,1.14,0c.41.12.73.42,1.16.52a2.28,2.28,0,0,1,1.1.36,9.18,9.18,0,0,1,.93.83,4.9,4.9,0,0,1,1.43,1.74,13.6,13.6,0,0,1,.62,2.27,5.35,5.35,0,0,1,0,1.06c0,.44.17.85.18,1.28a6.22,6.22,0,0,1-1.34,3.23c-1.18,1.89-3.54,3-5.5,3.92a11.53,11.53,0,0,1-4.9,1.11c-1,0-1.86-.18-2.8-.3a9.66,9.66,0,0,1-2.56-.48,8.59,8.59,0,0,1-2.45-1.5,20.45,20.45,0,0,1-2.27-2.09,6.14,6.14,0,0,1-1.16-2.76,7.8,7.8,0,0,0-.13-1.6,5.29,5.29,0,0,1-.41-1.62,6.56,6.56,0,0,1,1.94-5.3,20.85,20.85,0,0,1,3.37-2.71c.8-.46,1.63-.86,2.44-1.31a6,6,0,0,1,2.85-.7,4.33,4.33,0,0,1,1.72.2,5.1,5.1,0,0,1,1.57.59c1.24,1,1.52,2.59,2.51,3.75a5.48,5.48,0,0,1,.61.66c.25.41.45.86.68,1.28a10.2,10.2,0,0,1,1,2.12,6.8,6.8,0,0,1,.28,2.62,3.6,3.6,0,0,1-1.46,2.59,9.9,9.9,0,0,1-3,2.17,12.9,12.9,0,0,1-4.83.9,10,10,0,0,1-4.9-.9,10.78,10.78,0,0,1-2.26-1.3,11,11,0,0,1-1.41-1.88c-.94-1.38-.79-3.23-.79-4.8a3.6,3.6,0,0,1,0-1.35c.13-.22.59-.35.8-.46"/><path d="M395.51,395.92c-1.14-.88-1.27-2.16-1.31-3.48a5.86,5.86,0,0,0-.12-1.37,1.86,1.86,0,0,1,.49-1.87c1.16-1.42,3.29-1.92,4.94-2.4a6.1,6.1,0,0,1,2.15-.39c.68,0,1.33.33,2,.37a4.27,4.27,0,0,1,1.13,0c.42.12.74.41,1.17.52a2.31,2.31,0,0,1,1.1.36,10.41,10.41,0,0,1,.93.83,5.12,5.12,0,0,1,1.43,1.74,14.83,14.83,0,0,1,.62,2.26,7.61,7.61,0,0,1,0,1.07c0,.44.16.85.17,1.28a6.14,6.14,0,0,1-1.34,3.23c-1.17,1.89-3.54,3-5.49,3.92a11.57,11.57,0,0,1-4.9,1.11,26.06,26.06,0,0,1-2.8-.31,10.06,10.06,0,0,1-2.56-.47,8.46,8.46,0,0,1-2.45-1.5,18.11,18.11,0,0,1-2.27-2.1,6.18,6.18,0,0,1-1.17-2.76,8.69,8.69,0,0,0-.12-1.6,5.46,5.46,0,0,1-.42-1.61,6.64,6.64,0,0,1,2-5.31,21.26,21.26,0,0,1,3.36-2.7c.8-.46,1.64-.86,2.45-1.31a6,6,0,0,1,2.85-.7,4.35,4.35,0,0,1,1.72.2,5,5,0,0,1,1.56.59c1.25,1,1.53,2.59,2.51,3.75.21.25.44.36.62.66s.45.86.67,1.28a9.93,9.93,0,0,1,1,2.11,6.68,6.68,0,0,1,.27,2.63,3.59,3.59,0,0,1-1.45,2.59,9.94,9.94,0,0,1-3,2.17,12.85,12.85,0,0,1-4.82.9,9.91,9.91,0,0,1-4.9-.9,10.72,10.72,0,0,1-2.26-1.3,11.39,11.39,0,0,1-1.41-1.88c-.95-1.38-.79-3.23-.8-4.81,0-.3-.14-1.06,0-1.34s.59-.35.8-.46"/><path class="cls-3" d="M392,464.63c-1.07,5.09-6.64,29.06-6.12,40.28s2.84,23,10.33,31.39c3.52,3.94,8,6.89,12,10.31,12.62,10.67,20.77,25.64,27.53,40.71,8.48,18.9,15.93,39.5,32.11,52.42-.25-7.91-2.22-15.73-2.15-23.65.12-12.14,5.74-24.68,16.22-30.8,9-5.25,20.34-5.19,30.27-2.07a71.92,71.92,0,0,1,14.53,6.63c3.62,2.1,8.73,7.1,12.57,7.59-3.8-.48-9.24-18.23-11.57-21.17-9.2-11.58-18.32-14.51-29.65-25.54-2.07-2-5.35.82-7.82-.88a12,12,0,0,1-3.3-4.24l-15.58-27.86c-4.16-7.45-8.4-16.44-17.06-19.5-12.78-4.53-16.49-3.83-29.64-7.1-2.33-.57-12.94-1.47-15-2.68C398.89,482.15,397.54,475.87,392,464.63Z"/><path class="cls-1" d="M453.3,439.72l-1.56-2.29c-2.08-1.63-4.17-3.27-6.32-4.82,3.17,7.2,8,15.85,8.93,23.17,1.23,9.91,1.32,20.17-.8,29.36a39,39,0,0,1-2.06,6.49,27.36,27.36,0,0,1-1.45,3c-.18.33-.78,1.23-1.58,2.45a4.33,4.33,0,0,1,3.65.54,2.36,2.36,0,0,0,.39-1c3.91-7,5.26-16.23,5.46-25.16a112.28,112.28,0,0,0-3.59-30.16C454.35,441.26,453.88,440.57,453.3,439.72Z"/><path class="cls-1" d="M470.67,460.76a40,40,0,0,1,1.8,4,47,47,0,0,0,3.41,4.63c-.79-2.85-1.57-5.95-2.07-7.69a11.18,11.18,0,0,0-.4-1.27c-5.54-12.44-17.22-22.19-30-26.57-10.66-3.66-21.42-3.66-32.9-.81-4.8,1.19-10.51,2.86-12.69,7.17-6.13,12.12-6.75,20.43-5.77,24.43L394.1,469c-.12-5.64,1.3-25.74,10.22-30.15,5.73-2.83,15.21-5.2,21.5-5a53.17,53.17,0,0,1,32.89,13A60.58,60.58,0,0,1,470.67,460.76Z"/><path class="cls-4" d="M408.9,482.47c-9.26-3.86-9-15.87-10.53-23.56-1.15-5.75-2.81-11.24-4.24-16.91s-6.09-8.69-9.66-12.82a95.83,95.83,0,0,1-10.84-15c-1-1.78,3.89,6.22,4.55,4.43.87-2.33-2.62-6.6-1.65-8.89.8-1.92,6.06-4.08,9-1.79l.06,0c1.33,1.05,1.92,2.79,3.19,4a31.5,31.5,0,0,0,5,3.67c4.35,2.65,9.1,4.53,13.73,6.62,6.79,3.07,16.64,5,21.82,10.73,5.48,6,10,17.64,10.9,27.63"/><path class="cls-4" d="M361.21,411c.3-.27.68-.45,1-.7s.63-.63,1-.9a16.22,16.22,0,0,1,1.44-.94l2.14-1.21,4.29-2.41c1.1-.62,2.46-1.28,3.63-1,2.78.67,5.32-1.36,7.69.77,5.64,5.05-2.82,4.05-5.45,7a20.25,20.25,0,0,1-2.38,1.94,27.21,27.21,0,0,0-3.23,3.52,38.39,38.39,0,0,1-10.17,7.84,7.74,7.74,0,0,1-3.92,1.29c-1.23,0,.19-4.62-1-4.82-.62-.1-3.67,3.88-4.29,3.79s-1.24-.35-1.41-.8.12-.93.41-1.38q1.38-2.17,2.84-4.34a25.83,25.83,0,0,1,2.75-3.55Z"/><path class="cls-4" d="M364.84,411.38c-1.24.38-3.07,1.28-4.31,1.66a13.65,13.65,0,0,0-1.71.55,2.36,2.36,0,0,0-.69.55c-.51.55-.89,1.18-1.38,1.75a16.35,16.35,0,0,1-2.08,2.08l-.72.59c-.18.13-.41.22-.6.35a6.87,6.87,0,0,0-1.09.9,4.66,4.66,0,0,0-1.33,2.32c-.08.5-.2,1-.23,1.49s0,.87,0,1.31,0,.71,0,1.07,0,.47,0,.7a2.5,2.5,0,0,1,0,1,3.63,3.63,0,0,0,0,1.64,6.88,6.88,0,0,0,.77,2.2c.17.31.77.38,1.15.44a4.24,4.24,0,0,0,1.18-.07,2.3,2.3,0,0,0,1-.4,8.38,8.38,0,0,0,.9-1,2.65,2.65,0,0,0,.69-1,2.67,2.67,0,0,1,.08-.48c.07-.16.57-7,.45-7.14l5.14-4Z"/><path class="cls-4" d="M369.12,409.26c-.07.2-3.92,1.63-4.06,1.8s-.31.53-.49.78-.59.64-.85,1-.6.86-.91,1.28-.72.92-1,1.4-.61,1-.92,1.5c-.62,1-1.24,2-1.75,3.08-.24.49-.42,1-.61,1.52-.12.32-.27.64-.38,1-.16.53-.26,1.07-.46,1.6s-.35,1.24-.53,1.87-.47,1.16-.68,1.73c-.29.79-.65,1.55-1,2.32a1.3,1.3,0,0,0,0,.85,2.53,2.53,0,0,0,.18.37,1.2,1.2,0,0,0,.53.31,11.61,11.61,0,0,0,2.32.6,2.77,2.77,0,0,0,1.11,0,3.11,3.11,0,0,0,2-1.1c.16-.3.42-.57.6-.86a10.22,10.22,0,0,1,.77-1.09c.11-.14.16-.29.29-.43s.24-.36.38-.54l.28-.38"/><path class="cls-4" d="M375,411.58c-.29.9-.95,1.69-1.32,2.58s-.61,2-1,3.06a20,20,0,0,1-1.08,2.3c.12.24-.7,1.37-.85,1.62-.28.49-.69.9-1,1.37l-.55.78c-.11.14-.24.27-.35.41s-.27.44-.44.65c-.32.4-.61.78-.89,1.2a3,3,0,0,1-.56.8c-.21.17-.31.37-.5.54a7.07,7.07,0,0,1-.88.64,3.5,3.5,0,0,1-1.58.5,2.78,2.78,0,0,1-.71-.12,8.81,8.81,0,0,1-.92-.17,1.3,1.3,0,0,1-.74-.73,1.51,1.51,0,0,1-.16-1.22,5.61,5.61,0,0,1,.69-1.27c.53-.77,1-1.58,1.42-2.39s.84-1.68,1.33-2.5c.23-.39.49-.76.74-1.14s.53-1,.8-1.49.61-1.12,1-1.65c.24-.35.49-.69.7-1.05s.41-.65.64-1c0-.06.07-.1.12-.15A.3.3,0,0,0,369,413a.27.27,0,0,1,0-.15"/><path class="cls-4" d="M376.53,409.7a4.9,4.9,0,0,0-.5,1.35,9.18,9.18,0,0,1-.47,1.19,6.09,6.09,0,0,1-.37.88,5.1,5.1,0,0,0-.5,2c0,.32,0,.63,0,.94a5.49,5.49,0,0,0,0,.81,5.17,5.17,0,0,1,0,.68,3.75,3.75,0,0,1-.15.55,6.17,6.17,0,0,0-.07.74,6.1,6.1,0,0,1,0,.74c-.05.32.07.62,0,.94a1.77,1.77,0,0,0,.1,1.09c.14.26.25.7.54.87a3.79,3.79,0,0,0,.75.21,1.82,1.82,0,0,0,.95,0,2.92,2.92,0,0,0,1-.29l.23-.1a1.28,1.28,0,0,0,.28-.29c.13-.13.26-.24.38-.37a3.41,3.41,0,0,0,.66-1.06c.07-.21.15-.4.21-.61s.19-.44.23-.66c.2-1.33.42-2.67.6-4,.13-1,.59-6.65,0-7.55"/><path class="cls-4" d="M351.62,427.42c.43-.1.8-.31,1.24-.39a2.1,2.1,0,0,1,.75,0,1,1,0,0,1,.65.5c.2.34.54.64.72,1a3.37,3.37,0,0,1,.2.49,2.26,2.26,0,0,1,0,.58,2.18,2.18,0,0,1-.15.54,1.55,1.55,0,0,1-.25.58,3.08,3.08,0,0,1-.51.58,2.64,2.64,0,0,1-.67.34c-.21.09-.42.22-.64.29s-.45.07-.65.11a1.39,1.39,0,0,1-.87-.23.67.67,0,0,1-.35-.51,3.67,3.67,0,0,1-.26-1.16,4.68,4.68,0,0,1,.05-1.06c.06-.26.13-.52.17-.77l.09-.66a.2.2,0,0,1,.1-.14.31.31,0,0,1,.13,0Z"/><path class="cls-4" d="M357,428.47a2.67,2.67,0,0,1,.92-.6,3.2,3.2,0,0,1,3.51.81,1.17,1.17,0,0,1,.24.47c.11.56-.6,1.23-.92,1.71a2.86,2.86,0,0,1-.45.48,1.71,1.71,0,0,1-.93.43,9.08,9.08,0,0,1-1,.07,2.77,2.77,0,0,1-1.93-.38c-.41-.38-.28-.85-.19-1.3A3.16,3.16,0,0,1,357,428.47Z"/><path class="cls-4" d="M361.93,426.09c.12-.33.25-.67.38-1a2.2,2.2,0,0,1,.17-.39,1.35,1.35,0,0,1,.26-.28,1.78,1.78,0,0,1,.88-.43l.48-.09c.12,0,.23,0,.34,0a1.68,1.68,0,0,1,.39,0l.3,0a2,2,0,0,1,.95.33,1.5,1.5,0,0,1,.35.31.56.56,0,0,1,.05.48,2.07,2.07,0,0,1-.16.5c0,.08-.07.15-.1.23a2.31,2.31,0,0,1-.19.28l-.22.3c-.08.11-.19.21-.26.32a2.56,2.56,0,0,1-.52.52,2.25,2.25,0,0,1-.5.29,4.62,4.62,0,0,1-.79.21,1.21,1.21,0,0,1-.54,0,1.43,1.43,0,0,1-.42-.29,2.72,2.72,0,0,1-.48-.39l-.17-.21c0-.05-.06-.13-.12-.18Z"/><path class="cls-4" d="M374.94,421.88a2,2,0,0,1-.23-.5c0-.12,0-.23,0-.34s.06-.42.08-.64a3.38,3.38,0,0,1,.22-.75,1.83,1.83,0,0,1,.43-.62,2,2,0,0,1,1.22-.41,2.4,2.4,0,0,1,.6.07,1.58,1.58,0,0,1,.59.19,2.49,2.49,0,0,1,.24.17c.05.06.06.12.11.18a2.43,2.43,0,0,1,.31.54,2,2,0,0,1,.19.8,3.44,3.44,0,0,1-.06,1,1.81,1.81,0,0,1-.14.45.83.83,0,0,1-.42.38,3.91,3.91,0,0,1-1.33.36,2.3,2.3,0,0,1-1.38-.31,2.61,2.61,0,0,0-.27-.19.47.47,0,0,1-.12-.19.71.71,0,0,0-.13-.22.76.76,0,0,1-.11-.14"/><path class="cls-5" d="M520.83,579.81c-7-2.76-14.73-2.31-22.16-1.43-6.29.74-12.66,1.79-18.37,4.53-7.71,3.7-12.72,10.57-14.75,18.82a33.3,33.3,0,0,1-1.1,4.4c-1.64,4.91-1.33,10.84-1.2,16.08l0,1.3c0,.71.08,1.46.14,2.24-11.87,15.21-23.42,31-31.13,48.77-5.65,13-8.12,26.78-11.06,40.47a194.42,194.42,0,0,1-6.11,23.06c-2.2,6.32-4.61,8-6.51,14.5-.18.64-.34,1.26-.46,1.85q-.64,1.05-1.17,2.13a54.86,54.86,0,0,0-.69,11.72,93,93,0,0,0,3.9,10.77,9.62,9.62,0,0,0,2.76,2.49,26.77,26.77,0,0,1,1.69,3.39Q421.71,801,428.75,817c3.37,7.68,6.6,15.72,11.14,22.8,8.57,13.35,12.83,27.22,16.93,42.1.52-.14-.15,2,.36,1.91a102.58,102.58,0,0,0,.57,13.41,21,21,0,0,1-7.32,19.19c-.28.25-1.46,1.78-1.76,2-3.15,2.32-5.42,6-8.44,8.64-2.6,2.23-5.6,3.7-8.25,5.84-5.21,4.22-9.94,9.57-16.43,11.59a1.7,1.7,0,0,0-1,.61,2.54,2.54,0,0,0,.1,2.41,3.61,3.61,0,0,0,1.17,1.4c.24.17.54.27.78.44s.29.34.46.47a8.7,8.7,0,0,0,3.87,1.48,15.55,15.55,0,0,0,5.69.09,18.2,18.2,0,0,0,2.07-.23c.46-.14.82-.38,1.29-.5,1.47-.37,2.76-1.34,4.16-1.9.67-.27,1.27-.66,1.94-1a13.27,13.27,0,0,1,1.86-.78c.56-.15,1.14-.22,1.7-.37,1.1-.28,2.14-.69,3.26-.94,3.12-.67,5.9-2.62,9-3.47a73.13,73.13,0,0,0,11.3-3.87,18.88,18.88,0,0,0,4.68-2.82c1.07-.94,2-2.09,3.09-3,5.69-4.41,16.29-3.39,22.88-6.7,1.92-1,4-2.44,4.15-4.66a7.91,7.91,0,0,0-1.36-4.14c-2.85-5.36-3.95-11.45-6-17.15-2.33-6.57-7.28-17-8.76-23.75-.45,0-.09-3.21-.52-3.22-.36-1.77-.62-3.58-1.1-5.78-.58-2.66-2.47-6.9-2.89-9.72-1.77-12.05.21-28.07-2.87-39.7a19.15,19.15,0,0,1-.74-2c-.09-.63.15-1,0-1.72-.24-1-1-1.73-.95-2.8a9.22,9.22,0,0,0,.08-2.29,66.34,66.34,0,0,0-2.12-8.12,82,82,0,0,1-2-8.68c-2.52-11-8.21-21.52-13.27-31.52-.15-.29-.31-.55-.46-.83a73.31,73.31,0,0,0,4.84-5.65c8-10.86,23.08-24.08,29.1-36.18s7.59-18.14,17.64-26.87c6.53-5.68,10.31-14.19,17.17-19.44a50.53,50.53,0,0,0,18.35-28.85,48.3,48.3,0,0,0,1.15-10.7q.13-1.19.21-2.37C544.58,612.36,538.81,586.93,520.83,579.81Z"/><path d="M180,222.9V230h6.9V222.9H190v17.26h-3.11v-7.34H180v7.34H176.9V222.9Z"/><path d="M204.32,236.61a5.76,5.76,0,0,1-5.57,3.7c-4.34,0-6.26-2.71-6.26-6.76s2.71-6.53,6.43-6.43c3,.07,5.75,2.34,5.45,6.46l-.05.39h-8.73c0,2.2.94,3.7,3.18,3.7a2.87,2.87,0,0,0,2.79-2Zm-3.13-4.21c.05-2-1-2.94-2.54-2.89a2.88,2.88,0,0,0-2.91,2.89Z"/><path d="M207.26,228.06a15.36,15.36,0,0,1,4.88-.94c3.9,0,5.33,1.92,5.33,4.93v5.23a.65.65,0,0,0,.61.74,2.48,2.48,0,0,0,1-.15v2a5.09,5.09,0,0,1-2,.39,2.33,2.33,0,0,1-2.34-1.75,5.67,5.67,0,0,1-3.9,1.75c-2.52,0-4.39-1.28-4.41-4s2-4.09,5.25-4.09a22,22,0,0,1,2.79.24v-.76c0-1.41-.89-2.17-2.67-2.15a10.39,10.39,0,0,0-4,.79Zm7.15,6a13,13,0,0,0-2.51-.15c-1.48.07-2.42.76-2.45,2.07a1.82,1.82,0,0,0,2.1,1.9,5.06,5.06,0,0,0,2.86-1Z"/><path d="M233.3,221.32v18.84h-2.56l-.35-2.22a4.5,4.5,0,0,1-4.12,2.37c-3.47.05-5.54-2.83-5.54-6.63,0-4.64,3-6.56,5.52-6.56a4.09,4.09,0,0,1,4,2.44v-7.84Zm-9.42,12.33c0,2.2.87,3.92,3.16,3.92s3.25-1.72,3.25-3.89c0-2.94-1.57-4-3.28-4S223.88,230.82,223.88,233.65Z"/><path d="M244,227.24l.45,2.3a4.33,4.33,0,0,1,4-2.45,3.77,3.77,0,0,1,3.85,2.4,4.55,4.55,0,0,1,4.17-2.4c3,0,4.21,2,4.21,4.64v8.43h-3.06v-7.44c0-2-.46-3-2.14-3-2.22,0-2.81,1.68-2.81,3.58v6.9h-3.06v-7.44c0-2-.47-3-2.14-3-2.37,0-2.84,1.9-2.84,4v6.51h-3.06V227.24Z"/><path d="M266.7,227.24v7.45c0,2,.79,3,2.59,3,2.34,0,3.3-2.41,3.3-4.86v-5.62h3.06v12.92h-2.44l-.44-2.81a4.72,4.72,0,0,1-4.47,3c-3.15,0-4.66-1.95-4.66-5.2v-7.87Z"/><path d="M279.16,236.46a6.68,6.68,0,0,0,4.19,1.43c1.48,0,2.34-.44,2.34-1.5,0-2.51-7.47-.84-7.23-5.57.1-2.32,1.8-3.7,5.23-3.7a10.49,10.49,0,0,1,4.66,1.21l-1.08,2.17a7.25,7.25,0,0,0-3.7-1.06c-1.21,0-2.22.39-2.17,1.4.15,2,7.32.47,7.32,5.45,0,2.66-2.39,4.05-5.45,4a8.78,8.78,0,0,1-5.3-1.68Z"/><path d="M295.19,223.59v3.78h3.25l-.42,2.46h-2.83v5.92c0,1.41.64,1.95,1.67,1.95a5.72,5.72,0,0,0,1.95-.57l.57,2.34a7.94,7.94,0,0,1-3.28.84c-3,0-4-2-4-4.14v-6.34h-1.8v-2.46h1.95l.37-3.43Z"/><path d="M309.54,221.32v8.22a4.42,4.42,0,0,1,4.32-2.42c2.44.07,5.05,1.73,5.05,6.48,0,3.9-2,6.71-5.45,6.71a4.28,4.28,0,0,1-4.07-2.37l-.42,2.22h-2.49V221.72Zm-.12,12.36c0,2.22.81,4,3.25,4,2,0,3.11-1.5,3.11-4,0-3-1.5-3.95-3.13-3.95S309.42,231.09,309.42,233.68Z"/><path d="M333,236.61a5.78,5.78,0,0,1-5.58,3.7c-4.34,0-6.26-2.71-6.26-6.76s2.71-6.53,6.43-6.43c3,.07,5.75,2.34,5.45,6.46l0,.39h-8.73c0,2.2.93,3.7,3.18,3.7a2.87,2.87,0,0,0,2.78-2Zm-3.14-4.21c.05-2-1-2.94-2.54-2.89a2.89,2.89,0,0,0-2.91,2.89Z"/><path d="M173.46,261.16v12.92h-3.09V263.7h-1.8v-2.54Zm-1.56-5a1.65,1.65,0,0,1,1.83,1.55,1.83,1.83,0,0,1-3.63,0A1.59,1.59,0,0,1,171.9,256.13Z"/><path d="M179,261.16l.47,2.29a4.78,4.78,0,0,1,4.41-2.42c3,0,4.49,2,4.49,4.61v8.44h-3.06v-7.45c0-2-.74-3-2.41-3-2.35,0-3.26,1.9-3.26,4v6.51h-3.06V261.16Z"/><path d="M199.72,255.24v14.62c0,1.38.62,1.75,1.53,1.75a2.42,2.42,0,0,0,1.29-.47l.56,2.2a5.32,5.32,0,0,1-2.78.88c-2.57,0-3.65-1.72-3.65-4.06V255.61Z"/><path d="M208.58,261.16v12.92H205.5V263.7h-1.8v-2.54Zm-1.56-5a1.65,1.65,0,0,1,1.83,1.55,1.83,1.83,0,0,1-3.63,0A1.59,1.59,0,0,1,207,256.13Z"/><path d="M214.15,261.16l.47,2.29A4.78,4.78,0,0,1,219,261c3,0,4.49,2,4.49,4.61v8.44h-3.06v-7.45c0-2-.74-3-2.41-3-2.34,0-3.26,1.9-3.26,4v6.51h-3V261.16Z"/><path d="M238,270.53a5.77,5.77,0,0,1-5.58,3.69c-4.34,0-6.26-2.71-6.26-6.75s2.71-6.54,6.44-6.44c3,.08,5.74,2.35,5.44,6.46l0,.4h-8.73c0,2.19.93,3.7,3.18,3.7a2.87,2.87,0,0,0,2.78-2Zm-3.14-4.22c0-2-1-2.93-2.54-2.89a2.89,2.89,0,0,0-2.91,2.89Z"/><path d="M247.82,261.16l2.51,9h.2l2.52-9h3.15l2.54,9h.18l2.56-9h3.18l-4.34,12.92h-3l-2.64-8.73h-.2l-2.54,8.73h-3l-4.24-12.92Z"/><path d="M270.66,261.16v12.92h-3.08V263.7h-1.8v-2.54Zm-1.56-5a1.65,1.65,0,0,1,1.83,1.55,1.83,1.83,0,0,1-3.63,0A1.59,1.59,0,0,1,269.1,256.13Z"/><path d="M277.79,257.51v3.77H281l-.42,2.46h-2.83v5.92c0,1.41.64,1.95,1.67,1.95a5.5,5.5,0,0,0,2-.57l.57,2.35a8.15,8.15,0,0,1-3.28.83c-3,0-4-2-4-4.14v-6.34h-1.8v-2.46h1.95l.37-3.43Z"/><path d="M287,255.24v8a4.84,4.84,0,0,1,4.25-2.2c3,0,4.48,2,4.48,4.61v8.44h-3v-7.45c0-2-.74-3-2.42-3-2.34,0-3.26,1.9-3.26,4v6.51h-3.05V255.61Z"/><path d="M307.9,257.51v3.77h3.25l-.41,2.46H307.9v5.92c0,1.41.64,1.95,1.68,1.95a5.36,5.36,0,0,0,1.94-.57l.57,2.35a8.15,8.15,0,0,1-3.28.83c-3,0-4-2-4-4.14v-6.34H303v-2.46H305l.37-3.43Z"/><path d="M317.1,255.24v8a4.83,4.83,0,0,1,4.24-2.2c3,0,4.49,2,4.49,4.61v8.44h-3.06v-7.45c0-2-.74-3-2.42-3-2.34,0-3.25,1.9-3.25,4v6.51H314V255.61Z"/><path d="M340.23,270.53a5.75,5.75,0,0,1-5.57,3.69c-4.34,0-6.26-2.71-6.26-6.75s2.71-6.54,6.43-6.44c3,.08,5.75,2.35,5.45,6.46l0,.4H331.5c0,2.19.94,3.7,3.18,3.7a2.87,2.87,0,0,0,2.79-2Zm-3.13-4.22c0-2-1-2.93-2.54-2.89a2.88,2.88,0,0,0-2.91,2.89Z"/><path d="M229.89,289.15v8.21A4.39,4.39,0,0,1,234.2,295c2.44.07,5.06,1.72,5.06,6.48,0,3.9-1.95,6.71-5.45,6.71a4.27,4.27,0,0,1-4.07-2.37l-.42,2.22h-2.49V289.55Zm-.13,12.36c0,2.21.82,4,3.26,4,2,0,3.11-1.5,3.11-4,0-3-1.51-3.95-3.13-3.95C231.22,297.51,229.76,298.92,229.76,301.51Z"/><path d="M247.77,295c3.23,0,6,2.19,6,6.6,0,3.63-2.14,6.59-6.16,6.59-4.37,0-6.17-3-6.17-6.59C241.48,297.14,244.27,295,247.77,295Zm-3.08,6.6c0,2.05.69,4,3,4,2.09,0,3-1.95,3-4,0-2.86-1.41-4-3-4C246.07,297.54,244.69,298.65,244.69,301.55Z"/><path d="M268.61,289.15V308H266l-.34-2.22a4.53,4.53,0,0,1-4.12,2.37c-3.48.05-5.55-2.84-5.55-6.63,0-4.64,3-6.56,5.53-6.56a4.11,4.11,0,0,1,4,2.44v-7.84Zm-9.42,12.33c0,2.2.86,3.92,3.16,3.92s3.25-1.72,3.25-3.89c0-2.94-1.58-4-3.28-4S259.19,298.65,259.19,301.48Z"/><path d="M273.94,295.07l3.18,9.12h.2l2.91-9.12h3.15l-4.78,13.12c-1.58,4.31-3.06,5.4-7.62,4.44l.54-2.59c2.91.71,3.31,0,4.22-2.49l-4.86-12.48Z"/><path d="M604.85,416.25a12.61,12.61,0,0,0-4.91-1.43c-1.72,0-2.86.52-2.86,1.92,0,3.31,9.23,1.8,9.23,7.65,0,3.55-2.74,5.35-6.34,5.35a10.66,10.66,0,0,1-6.63-2.12l1.52-2.32a8.5,8.5,0,0,0,5,1.82c2.1,0,3.35-.91,3.35-2.39,0-3.43-9.17-2.19-9.17-7.84,0-3.16,2.44-4.68,5.89-4.68a13.68,13.68,0,0,1,6.12,1.67Z"/><path d="M613,413v3.77h3.25l-.42,2.47H613v5.92c0,1.4.64,1.94,1.67,1.94a5.76,5.76,0,0,0,2-.56l.57,2.34a8.1,8.1,0,0,1-3.28.84c-3,0-4-2-4-4.15v-6.33h-1.8v-2.47h1.95l.37-3.43Z"/><path d="M621.35,416.67l.57,2.66c.59-2,2.1-2.83,4.19-2.78a4.78,4.78,0,0,1,1.33.22l-.46,2.68a5.33,5.33,0,0,0-1.85-.24c-2.27.07-3.14,1.82-3.14,3.89v6.49h-3V416.67Z"/><path d="M629.07,417.48a15.46,15.46,0,0,1,4.89-.93c3.89,0,5.32,1.92,5.32,4.93v5.22a.65.65,0,0,0,.62.74,2.5,2.5,0,0,0,1-.14v2a5.05,5.05,0,0,1-2,.4,2.34,2.34,0,0,1-2.34-1.75,5.65,5.65,0,0,1-3.9,1.75c-2.51,0-4.38-1.29-4.41-4s2-4.1,5.25-4.1a19.85,19.85,0,0,1,2.79.25v-.76c0-1.41-.89-2.17-2.66-2.15a10.41,10.41,0,0,0-4,.79Zm7.15,6a14,14,0,0,0-2.51-.14c-1.48.07-2.42.76-2.44,2.07a1.8,1.8,0,0,0,2.09,1.89,5,5,0,0,0,2.86-1Z"/><path d="M647.05,416.67v12.92H644V419.21h-1.8v-2.54Zm-1.55-5a1.64,1.64,0,0,1,1.82,1.55,1.82,1.82,0,0,1-3.62,0A1.59,1.59,0,0,1,645.5,411.64Z"/><path d="M662.24,416.67v11c0,4.29-1.67,6.88-6.41,6.88a13.48,13.48,0,0,1-5.27-1.11l.71-2.32a11,11,0,0,0,4.22,1c2.78,0,3.7-1.38,3.7-3.5v-1.13a4.47,4.47,0,0,1-4,2.05c-3.48.07-5.48-2.57-5.48-6.37,0-4.63,3-6.55,5.53-6.55a4.27,4.27,0,0,1,4.09,2.34l.32-2.22Zm-9.32,6.41c0,2.19.87,3.92,3.16,3.92s3.21-1.73,3.21-3.9c0-2.93-1.56-4-3.24-4S652.92,420.24,652.92,423.08Z"/><path d="M668.46,410.75v8a4.82,4.82,0,0,1,4.24-2.19c3,0,4.49,1.94,4.49,4.61v8.43h-3.06v-7.45c0-2-.74-3-2.41-3-2.35,0-3.26,1.9-3.26,4v6.51H665.4V411.12Z"/><path d="M684.22,413v3.77h3.26l-.42,2.47h-2.84v5.92c0,1.4.64,1.94,1.68,1.94a5.76,5.76,0,0,0,2-.56l.56,2.34a8.1,8.1,0,0,1-3.28.84c-3,0-4-2-4-4.15v-6.33h-1.8v-2.47h1.95l.37-3.43Z"/><path d="M618,460a5.77,5.77,0,0,1-5.58,3.7c-4.34,0-6.26-2.71-6.26-6.76s2.71-6.53,6.44-6.43c3,.07,5.74,2.34,5.45,6.46l0,.39h-8.73c0,2.2.94,3.7,3.18,3.7a2.89,2.89,0,0,0,2.79-2Zm-3.13-4.21c0-2-1-2.94-2.54-2.89a2.87,2.87,0,0,0-2.91,2.89Z"/><path d="M623.75,444.66v14.63c0,1.38.61,1.75,1.52,1.75a2.46,2.46,0,0,0,1.29-.47l.56,2.19a5.31,5.31,0,0,1-2.78.89c-2.57,0-3.65-1.73-3.65-4.07V445Z"/><path d="M631.64,444.66v8.22a4.39,4.39,0,0,1,4.31-2.42c2.44.07,5.06,1.72,5.06,6.48,0,3.9-2,6.71-5.45,6.71a4.27,4.27,0,0,1-4.07-2.37l-.42,2.22h-2.49V445.06ZM631.51,457c0,2.22.82,4,3.26,4,2,0,3.11-1.5,3.11-4,0-3-1.51-4-3.14-4S631.51,454.43,631.51,457Z"/><path d="M649.52,450.46c3.23,0,6,2.19,6,6.61,0,3.62-2.15,6.58-6.17,6.58-4.36,0-6.16-3-6.16-6.58C643.23,452.65,646,450.46,649.52,450.46Zm-3.08,6.61c0,2,.69,4,3,4,2.1,0,3-1.95,3-4,0-2.86-1.41-4-3-4S646.44,454.16,646.44,457.07Z"/><path d="M659.61,450.58l2.51,9h.2l2.51-9H668l2.54,9h.17l2.57-9h3.18l-4.34,12.92h-3l-2.64-8.73h-.2l-2.54,8.73h-3l-4.24-12.92Z"/><path d="M678.3,459.8a6.73,6.73,0,0,0,4.2,1.43c1.47,0,2.34-.44,2.34-1.5,0-2.51-7.47-.84-7.23-5.57.1-2.32,1.8-3.7,5.23-3.7a10.49,10.49,0,0,1,4.66,1.21l-1.08,2.17a7.3,7.3,0,0,0-3.7-1.06c-1.21,0-2.22.39-2.17,1.4.15,2.05,7.32.47,7.32,5.45,0,2.66-2.39,4.05-5.45,4a8.78,8.78,0,0,1-5.3-1.68Z"/><path d="M297.2,852.8l-.34,2.56h-7.2v4.84h6.9l-.05,2.63h-6.85v7.23H286.6V852.8Z"/><path d="M310.2,866.51a5.76,5.76,0,0,1-5.57,3.7c-4.34,0-6.27-2.72-6.27-6.76s2.72-6.53,6.44-6.44c3,.08,5.75,2.35,5.45,6.47l-.05.39h-8.73c0,2.19.94,3.7,3.18,3.7a2.88,2.88,0,0,0,2.79-2.05Zm-3.13-4.22c.05-2-1-2.93-2.54-2.88a2.87,2.87,0,0,0-2.91,2.88Z"/><path d="M324.28,866.51a5.76,5.76,0,0,1-5.57,3.7c-4.34,0-6.26-2.72-6.26-6.76s2.71-6.53,6.43-6.44c3,.08,5.75,2.35,5.45,6.47l-.05.39h-8.73c0,2.19.94,3.7,3.19,3.7a2.87,2.87,0,0,0,2.78-2.05Zm-3.13-4.22c.05-2-1-2.93-2.54-2.88a2.87,2.87,0,0,0-2.91,2.88Z"/><path d="M331,853.49v3.77h3.26l-.42,2.47H331v5.92c0,1.4.65,1.94,1.68,1.94a5.76,5.76,0,0,0,1.95-.56l.57,2.34a8.16,8.16,0,0,1-3.28.84c-3,0-4-2-4-4.15v-6.33h-1.8v-2.47h1.94l.37-3.43Z"/><path d="M290.4,887.4v3.77h3.25l-.42,2.47H290.4v5.92c0,1.4.64,2,1.67,2a5.72,5.72,0,0,0,1.95-.57l.57,2.34a7.94,7.94,0,0,1-3.28.84c-3,0-4-2-4-4.14v-6.34h-1.8v-2.47h1.95l.37-3.42Z"/><path d="M301.74,890.93c3.23,0,6,2.19,6,6.61,0,3.62-2.14,6.58-6.16,6.58-4.37,0-6.17-3-6.17-6.58C295.45,893.12,298.24,890.93,301.74,890.93Zm-3.08,6.61c0,2,.69,4,3,4,2.09,0,3-1.95,3-4,0-2.86-1.41-4-3-4S298.66,894.63,298.66,897.54Z"/><path d="M322.53,891.05v11c0,4.3-1.67,6.88-6.41,6.88a13.36,13.36,0,0,1-5.28-1.11l.72-2.31a11.13,11.13,0,0,0,4.22,1c2.78,0,3.69-1.38,3.69-3.5V901.8a4.45,4.45,0,0,1-4,2.05c-3.47.07-5.47-2.57-5.47-6.36,0-4.64,3-6.56,5.52-6.56a4.28,4.28,0,0,1,4.1,2.34l.32-2.22Zm-9.32,6.41c0,2.2.86,3.92,3.16,3.92s3.2-1.72,3.2-3.89c0-2.94-1.55-4-3.23-4S313.21,894.63,313.21,897.46Z"/><path d="M337,900.42a5.78,5.78,0,0,1-5.58,3.7c-4.34,0-6.26-2.71-6.26-6.76s2.71-6.53,6.43-6.43c3,.07,5.75,2.34,5.45,6.46l0,.39h-8.73c0,2.2.93,3.7,3.18,3.7a2.87,2.87,0,0,0,2.78-2Zm-3.14-4.22c.05-2-1-2.93-2.54-2.88a2.88,2.88,0,0,0-2.91,2.88Z"/><path d="M343.75,887.4v3.77H347l-.42,2.47h-2.83v5.92c0,1.4.64,2,1.67,2a5.72,5.72,0,0,0,1.95-.57l.57,2.34a7.94,7.94,0,0,1-3.28.84c-3,0-4-2-4-4.14v-6.34h-1.8v-2.47h1.95l.37-3.42Z"/><path d="M353,885.13v8a4.81,4.81,0,0,1,4.24-2.19c3,0,4.48,2,4.48,4.61V904h-3.05v-7.44c0-2-.74-3-2.42-3-2.34,0-3.25,1.9-3.25,4V904h-3.06V885.5Z"/><path d="M376.08,900.42a5.77,5.77,0,0,1-5.58,3.7c-4.33,0-6.26-2.71-6.26-6.76s2.71-6.53,6.44-6.43c3,.07,5.74,2.34,5.45,6.46l-.05.39h-8.73c0,2.2.94,3.7,3.18,3.7a2.89,2.89,0,0,0,2.79-2ZM373,896.2c.05-2-1-2.93-2.54-2.88a2.87,2.87,0,0,0-2.91,2.88Z"/><path d="M381.24,891.05l.56,2.66c.59-2,2.1-2.83,4.19-2.78a4.94,4.94,0,0,1,1.34.22l-.47,2.69a5.27,5.27,0,0,0-1.85-.25c-2.27.08-3.13,1.83-3.13,3.9V904h-3.06V891.05Z"/><path d="M354.2,863.54A47.45,47.45,0,0,1,378.66,861c8.43,1.45,16,5.32,23.21,9.86,1.64,1,3.14-1.55,1.52-2.59-7.5-4.75-15.55-8.81-24.38-10.24a50.45,50.45,0,0,0-25.61,2.64c-1.79.66-1,3.56.8,2.89Z"/><path d="M394.2,874.11c3.74-.64,7.41-1.65,11.09-2.57a1.52,1.52,0,0,0,.9-2.21c-.91-1.69-1.74-3.42-2.63-5.13s-1.7-3.12-2.52-4.71a1.5,1.5,0,1,0-2.59,1.51c.82,1.59,1.7,3.14,2.52,4.72s1.72,3.44,2.63,5.13l.9-2.2c-3.69.92-7.35,1.92-11.1,2.57a1.5,1.5,0,1,0,.8,2.89Z"/><path d="M586.88,442.37c-9.62,5.72-19.3,11.39-29.1,16.81a59.28,59.28,0,0,1-5.47,2.87,1.51,1.51,0,0,0-.54,2.05,1.54,1.54,0,0,0,2.05.54c4.3-1.83,8.37-4.47,12.41-6.78q8.44-4.83,16.83-9.76c1.78-1,3.56-2.08,5.34-3.14a1.5,1.5,0,0,0-1.52-2.59Z"/><path d="M554.26,453.55c-1.67,3.57-3,7.27-4.38,10.94-.38,1,.58,1.8,1.45,1.9,1.87.22,3.73.52,5.59.76.94.12,1.87.23,2.81.31l.54.05.32,0h.06l1.3.18a1.54,1.54,0,0,0,1.84-1.05,1.5,1.5,0,0,0-1-1.84c-1.87-.26-3.75-.43-5.62-.67s-3.86-.57-5.8-.79l1.44,1.9c1.3-3.43,2.52-6.9,4.08-10.22a1.54,1.54,0,0,0-.54-2.05,1.51,1.51,0,0,0-2,.53Z"/><path d="M346.07,248.59a53.16,53.16,0,0,1,31.42,21.71,91.22,91.22,0,0,1,6.76,12.2c.85,1.8,3.53.23,2.68-1.57-3.31-7-7.24-13.84-12.59-19.53a54,54,0,0,0-16.28-11.83,62.37,62.37,0,0,0-11.17-4c-1.93-.49-2.76,2.5-.82,3Z"/><path d="M375.13,280.45c3.84,1.72,7.81,3.09,11.75,4.53,1,.38,1.88-.58,2-1.5.19-2.05.44-3.76.67-5.83.19-1.75.3-3.5.49-5.24a1.55,1.55,0,0,0-1.55-1.55,1.59,1.59,0,0,0-1.55,1.55c-.2,1.74-.31,3.49-.5,5.24-.21,1.94-.49,3.88-.67,5.83l2-1.49c-3.69-1.35-7.43-2.61-11-4.22a1.6,1.6,0,0,0-2.12.56,1.56,1.56,0,0,0,.56,2.12Z"/><circle cx="79" cy="61.53" r="34.44"/><path class="cls-6" d="M82.51,47.08s-.12,20.87,0,24.37c0,.77.19,1,.73,1l5.08.54-.08,2.23H71.92L72,73l4.46-.58c.58,0,.81-.23.81-1,.08-10,0-19.6,0-19.6l-5.62,1.08c-.19-.31-1.12-2.46-.46-2.73l10.35-4Z"/><path d="M146.19,54.39l-.27,3.12h-5.55V75.39h-3.75V57.51h-5.76V54.39Z"/><path d="M152.34,52.47v9.72a5.86,5.86,0,0,1,5.16-2.67c3.69,0,5.46,2.37,5.46,5.61V75.39h-3.72V66.33c0-2.4-.9-3.69-2.94-3.69-2.85,0-4,2.31-4,4.83v7.92h-3.72V52.92Z"/><path d="M180.48,71.07a7,7,0,0,1-6.78,4.5c-5.28,0-7.62-3.3-7.62-8.22s3.3-7.95,7.83-7.83c3.69.09,7,2.85,6.63,7.86l-.06.48H169.86c0,2.67,1.14,4.5,3.87,4.5a3.5,3.5,0,0,0,3.39-2.49Zm-3.81-5.13c.06-2.43-1.26-3.57-3.09-3.51A3.5,3.5,0,0,0,170,65.94Z"/><path d="M190.5,70.89a8.15,8.15,0,0,0,5.1,1.74c1.8,0,2.85-.54,2.85-1.83,0-3.06-9.09-1-8.79-6.78.12-2.82,2.19-4.5,6.36-4.5A12.78,12.78,0,0,1,201.69,61l-1.32,2.64a8.9,8.9,0,0,0-4.5-1.29c-1.47,0-2.7.48-2.64,1.71.18,2.49,8.91.57,8.91,6.63,0,3.24-2.91,4.92-6.63,4.89a10.76,10.76,0,0,1-6.45-2Z"/><path d="M210,55.23v4.59h4l-.51,3H210V70c0,1.71.78,2.37,2,2.37a6.83,6.83,0,0,0,2.37-.69l.69,2.85a9.82,9.82,0,0,1-4,1c-3.69,0-4.83-2.46-4.83-5V62.82h-2.19v-3h2.37l.45-4.17Z"/><path d="M217.32,60.66a18.74,18.74,0,0,1,5.94-1.14c4.74,0,6.48,2.34,6.48,6v6.36a.79.79,0,0,0,.75.9,3,3,0,0,0,1.23-.18v2.49a6.08,6.08,0,0,1-2.49.48,2.84,2.84,0,0,1-2.85-2.13,6.87,6.87,0,0,1-4.74,2.13c-3.06,0-5.34-1.56-5.37-4.83s2.46-5,6.39-5a24.49,24.49,0,0,1,3.39.3v-.93c0-1.71-1.08-2.64-3.24-2.61a12.68,12.68,0,0,0-4.86,1ZM226,68a16.62,16.62,0,0,0-3.06-.18c-1.8.09-2.94.93-3,2.52a2.21,2.21,0,0,0,2.55,2.31A6.17,6.17,0,0,0,226,71.4Z"/><path d="M237.24,59.67l.69,3.24c.72-2.4,2.55-3.45,5.1-3.39a6.19,6.19,0,0,1,1.62.27l-.57,3.27a6.48,6.48,0,0,0-2.25-.3C239.07,62.85,238,65,238,67.5v7.89H234.3V59.67Z"/><path d="M252.54,55.23v4.59h4l-.51,3h-3.45V70c0,1.71.78,2.37,2,2.37A6.83,6.83,0,0,0,257,71.7l.69,2.85a9.82,9.82,0,0,1-4,1c-3.69,0-4.83-2.46-4.83-5V62.82h-2.19v-3H249l.45-4.17Z"/><path d="M269.25,59.67l.54,2.82a5.71,5.71,0,0,1,5.37-3c3,.09,6.18,2.1,6.18,7.89,0,4.74-2.37,8.16-6.66,8.16A4.88,4.88,0,0,1,270,73v8.37h-3.75V59.67Zm.51,7.83c0,2.7,1,4.86,4,4.86,2.43,0,3.78-1.83,3.78-4.92,0-3.66-1.83-4.8-3.81-4.8C271.56,62.64,269.76,64.35,269.76,67.5Z"/><path d="M291.69,59.52c3.93,0,7.35,2.67,7.35,8,0,4.41-2.61,8-7.5,8-5.31,0-7.5-3.6-7.5-8C284,62.19,287.43,59.52,291.69,59.52Zm-3.75,8c0,2.49.84,4.86,3.66,4.86,2.55,0,3.69-2.37,3.69-4.86,0-3.48-1.71-4.89-3.6-4.89C289.62,62.67,287.94,64,287.94,67.56Z"/><path d="M302.76,70.89a8.15,8.15,0,0,0,5.1,1.74c1.8,0,2.85-.54,2.85-1.83,0-3.06-9.09-1-8.79-6.78.12-2.82,2.19-4.5,6.36-4.5A12.78,12.78,0,0,1,314,61l-1.32,2.64a8.9,8.9,0,0,0-4.5-1.29c-1.47,0-2.7.48-2.64,1.71.18,2.49,8.91.57,8.91,6.63,0,3.24-2.91,4.92-6.63,4.89a10.76,10.76,0,0,1-6.45-2Z"/><path d="M322.32,59.67V75.39h-3.75V62.76h-2.19V59.67Zm-1.89-6.12a2,2,0,0,1,2.22,1.89,2.22,2.22,0,0,1-4.41,0A1.93,1.93,0,0,1,320.43,53.55Z"/><path d="M331,55.23v4.59h4l-.51,3H331V70c0,1.71.78,2.37,2,2.37a6.83,6.83,0,0,0,2.37-.69l.69,2.85a9.82,9.82,0,0,1-4,1c-3.69,0-4.83-2.46-4.83-5V62.82h-2.19v-3h2.37l.45-4.17Z"/><path d="M343.35,59.67V75.39H339.6V62.76h-2.19V59.67Zm-1.89-6.12a2,2,0,0,1,2.22,1.89,2.22,2.22,0,0,1-4.41,0A1.93,1.93,0,0,1,341.46,53.55Z"/><path d="M354.27,59.52c3.93,0,7.35,2.67,7.35,8,0,4.41-2.61,8-7.5,8-5.31,0-7.5-3.6-7.5-8C346.62,62.19,350,59.52,354.27,59.52Zm-3.75,8c0,2.49.84,4.86,3.66,4.86,2.55,0,3.69-2.37,3.69-4.86,0-3.48-1.71-4.89-3.6-4.89C352.2,62.67,350.52,64,350.52,67.56Z"/><path d="M367.86,59.67l.57,2.79a5.8,5.8,0,0,1,5.37-2.94c3.69,0,5.46,2.37,5.46,5.61V75.39h-3.72V66.33c0-2.4-.9-3.69-2.94-3.69-2.85,0-4,2.31-4,4.83v7.92h-3.72V59.67Z"/><path d="M394.2,59.67V75.39h-3.75V62.76h-2.19V59.67Zm-1.89-6.12a2,2,0,0,1,2.22,1.89,2.22,2.22,0,0,1-4.41,0A1.93,1.93,0,0,1,392.31,53.55Z"/><path d="M398.46,70.89a8.15,8.15,0,0,0,5.1,1.74c1.8,0,2.85-.54,2.85-1.83,0-3.06-9.09-1-8.79-6.78.12-2.82,2.19-4.5,6.36-4.5A12.78,12.78,0,0,1,409.65,61l-1.32,2.64a8.9,8.9,0,0,0-4.5-1.29c-1.47,0-2.7.48-2.64,1.71.18,2.49,8.91.57,8.91,6.63,0,3.24-2.91,4.92-6.63,4.89a10.76,10.76,0,0,1-6.45-2Z"/><path d="M419.64,60.66a18.74,18.74,0,0,1,5.94-1.14c4.74,0,6.48,2.34,6.48,6v6.36a.79.79,0,0,0,.75.9A3,3,0,0,0,434,72.6v2.49a6.1,6.1,0,0,1-2.5.48,2.84,2.84,0,0,1-2.84-2.13A6.87,6.87,0,0,1,424,75.57c-3.06,0-5.34-1.56-5.37-4.83s2.46-5,6.39-5a24.49,24.49,0,0,1,3.39.3v-.93c0-1.71-1.08-2.64-3.24-2.61a12.68,12.68,0,0,0-4.86,1Zm8.7,7.35a16.62,16.62,0,0,0-3.06-.18c-1.8.09-2.94.93-3,2.52a2.21,2.21,0,0,0,2.55,2.31,6.17,6.17,0,0,0,3.48-1.26Z"/><path d="M440.34,52.47V70.26c0,1.68.75,2.13,1.86,2.13a2.93,2.93,0,0,0,1.56-.57l.69,2.67a6.47,6.47,0,0,1-3.39,1.08c-3.12,0-4.44-2.1-4.44-4.95V52.92Z"/><path d="M448.83,52.47V70.26c0,1.68.75,2.13,1.86,2.13a2.93,2.93,0,0,0,1.56-.57l.69,2.67a6.47,6.47,0,0,1-3.39,1.08c-3.12,0-4.44-2.1-4.44-4.95V52.92Z"/><path d="M461.22,60.66a18.74,18.74,0,0,1,5.94-1.14c4.74,0,6.47,2.34,6.47,6v6.36a.8.8,0,0,0,.75.9,3,3,0,0,0,1.24-.18v2.49a6.1,6.1,0,0,1-2.5.48,2.83,2.83,0,0,1-2.84-2.13,6.89,6.89,0,0,1-4.74,2.13c-3.06,0-5.34-1.56-5.37-4.83s2.46-5,6.39-5a24.49,24.49,0,0,1,3.39.3v-.93c0-1.71-1.08-2.64-3.24-2.61a12.68,12.68,0,0,0-4.86,1Zm8.7,7.35a16.62,16.62,0,0,0-3.06-.18c-1.8.09-2.94.93-3,2.52a2.21,2.21,0,0,0,2.55,2.31,6.17,6.17,0,0,0,3.48-1.26Z"/><path d="M481.92,52.47v10a5.37,5.37,0,0,1,5.25-2.94c3,.09,6.14,2.1,6.14,7.89,0,4.74-2.36,8.16-6.62,8.16a5.2,5.2,0,0,1-4.95-2.88l-.51,2.7h-3V53Zm-.15,15c0,2.7,1,4.86,4,4.86,2.46,0,3.77-1.83,3.77-4.92,0-3.66-1.82-4.8-3.8-4.8C483.54,62.64,481.77,64.35,481.77,67.5Z"/><path d="M503.67,59.52c3.92,0,7.34,2.67,7.34,8,0,4.41-2.61,8-7.5,8-5.3,0-7.49-3.6-7.49-8C496,62.19,499.41,59.52,503.67,59.52Zm-3.75,8c0,2.49.83,4.86,3.66,4.86,2.54,0,3.68-2.37,3.68-4.86,0-3.48-1.71-4.89-3.59-4.89C501.59,62.67,499.92,64,499.92,67.56Z"/><path d="M517.82,59.67v9.06c0,2.4,1,3.69,3.15,3.69,2.85,0,4-2.94,4-5.91V59.67h3.72V75.39h-3L525.21,72a5.75,5.75,0,0,1-5.44,3.6c-3.84,0-5.66-2.37-5.66-6.33V59.67Z"/><path d="M537.38,55.23v4.59h4l-.51,3h-3.45V70c0,1.71.78,2.37,2,2.37a6.83,6.83,0,0,0,2.37-.69l.69,2.85a9.82,9.82,0,0,1-4,1c-3.69,0-4.83-2.46-4.83-5V62.82h-2.19v-3h2.37l.45-4.17Z"/><path d="M554.09,59.67l.54,2.82a5.71,5.71,0,0,1,5.37-3c3,.09,6.18,2.1,6.18,7.89,0,4.74-2.37,8.16-6.66,8.16A4.88,4.88,0,0,1,554.87,73v8.37h-3.75V59.67Zm.51,7.83c0,2.7,1,4.86,4,4.86,2.43,0,3.78-1.83,3.78-4.92,0-3.66-1.83-4.8-3.81-4.8C556.4,62.64,554.6,64.35,554.6,67.5Z"/><path d="M576.53,59.52c3.93,0,7.35,2.67,7.35,8,0,4.41-2.61,8-7.5,8-5.31,0-7.5-3.6-7.5-8C568.88,62.19,572.27,59.52,576.53,59.52Zm-3.75,8c0,2.49.84,4.86,3.66,4.86,2.55,0,3.69-2.37,3.69-4.86,0-3.48-1.71-4.89-3.6-4.89C574.46,62.67,572.78,64,572.78,67.56Z"/><path d="M587.6,70.89a8.15,8.15,0,0,0,5.1,1.74c1.8,0,2.85-.54,2.85-1.83,0-3.06-9.09-1-8.79-6.78.12-2.82,2.19-4.5,6.36-4.5A12.78,12.78,0,0,1,598.79,61l-1.32,2.64a8.9,8.9,0,0,0-4.5-1.29c-1.47,0-2.7.48-2.64,1.71.18,2.49,8.91.57,8.91,6.63,0,3.24-2.91,4.92-6.63,4.89a10.76,10.76,0,0,1-6.45-2Z"/><path d="M607.1,55.23v4.59h4l-.51,3H607.1V70c0,1.71.78,2.37,2,2.37a6.83,6.83,0,0,0,2.37-.69l.69,2.85a9.82,9.82,0,0,1-4,1c-3.69,0-4.83-2.46-4.83-5V62.82h-2.19v-3h2.37l.45-4.17Z"/><path d="M617.69,59.67v9.06c0,2.4,1,3.69,3.15,3.69,2.85,0,4-2.94,4-5.91V59.67h3.72V75.39h-3L625.07,72a5.73,5.73,0,0,1-5.43,3.6c-3.84,0-5.67-2.37-5.67-6.33V59.67Z"/><path d="M635.36,59.67l.69,3.24c.72-2.4,2.55-3.45,5.1-3.39a6.19,6.19,0,0,1,1.62.27l-.57,3.27a6.48,6.48,0,0,0-2.25-.3c-2.76.09-3.81,2.22-3.81,4.74v7.89h-3.72V59.67Z"/><path d="M658.34,71.07a7,7,0,0,1-6.78,4.5c-5.28,0-7.62-3.3-7.62-8.22s3.3-7.95,7.83-7.83c3.69.09,7,2.85,6.63,7.86l-.06.48H647.72c0,2.67,1.14,4.5,3.87,4.5A3.5,3.5,0,0,0,655,69.87Zm-3.81-5.13c.06-2.43-1.26-3.57-3.09-3.51a3.5,3.5,0,0,0-3.54,3.51Z"/></svg>