<svg id="Layer_1" data-name="Layer 1" xmlns="http://www.w3.org/2000/svg" viewBox="0 0 780 1051.14"><defs><style>.cls-1{fill:#c6946f;stroke-width:0.24px;}.cls-1,.cls-2,.cls-3,.cls-4{stroke:#fff;stroke-miterlimit:10;}.cls-2{fill:#d4a47c;stroke-width:0.27px;}.cls-3{fill:#fff171;stroke-width:0.3px;}.cls-4{fill:#005058;stroke-width:0.42px;}.cls-5{font-size:38.5px;fill:#fff;font-family:ABCSerifBold, ABCSerif;}</style></defs><path class="cls-1" d="M552,633.94a34,34,0,0,0-8.22-14.22c-6.94-12.35-20.49-22.94-33.83-23.59-1.6-.08-5.6.23-7.2.38-10,.94-19.21,4.46-25.62,12.48-7.54,9.45-8.47,22.14-6.56,34.08-14.18,13.24-28,27.13-38.82,43.37-8.54,12.78-14,26.76-20,40.62a228.19,228.19,0,0,1-11.2,23.16c-.38.65-.74,1.24-1.1,1.8a4.6,4.6,0,0,1-1.36,3.16c-11.27,11.74-7.24,33,2.52,44.48a5,5,0,0,1,1.17,2.49l18.67,29.42c4.5,7.08,8.91,14.53,14.47,20.84,10.49,11.9,16.8,25,23.1,39.05.18,10.88-.23,24.55-4.31,27.53-.3.22-1.63,1.62-1.95,1.8-3.37,2-6,5.47-9.26,7.75-2.81,2-5.94,3.12-8.79,5-5.61,3.67-10.85,8.52-17.51,9.88a1.73,1.73,0,0,0-1.08.5,2.58,2.58,0,0,0-.14,2.41,3.65,3.65,0,0,0,1,1.51c.23.19.52.32.74.52s.25.37.41.51a8.76,8.76,0,0,0,3.7,1.86,15.69,15.69,0,0,0,5.65.67,20.86,20.86,0,0,0,2.09,0c.47-.09.85-.3,1.33-.37a32.39,32.39,0,0,0,4.32-1.48c.7-.2,1.33-.52,2-.74a14.37,14.37,0,0,1,1.93-.6c.57-.09,1.15-.1,1.73-.19,1.13-.17,2.2-.48,3.34-.61,3.17-.35,6.13-2,9.32-2.55a71.9,71.9,0,0,0,11.63-2.72c6.46-2.2,12.27-6.17,19-7.61,4.79-1,14.8.9,16.8-5.13a7.83,7.83,0,0,0-.26-4.33c-1.53-6-2.58-12.41-4.71-18.28a38.54,38.54,0,0,0-2.37-5.37c-2.3-4.23-9.44-10.54-12.33-16l1-.14a50.53,50.53,0,0,1-6.44-20.25q-.15-.39-.27-.75c-3.58-11.63-4-27.78-8.84-38.8a18.74,18.74,0,0,1-1.05-1.91c-.18-.6,0-1-.29-1.69-.39-1-1.21-1.56-1.36-2.63a9.41,9.41,0,0,0-.27-2.28,67.94,67.94,0,0,0-3.32-7.7,80,80,0,0,1-3.27-8.28c-3.69-9.32-9.78-17.86-15.66-26,.53-.47,1.05-.93,1.53-1.41,10.42-10.18,28.53-21.78,37.25-33.53s10.74-17.37,22.77-25c7.83-5,14.37-13.77,22.42-18.25a58.81,58.81,0,0,0,24.81-27.43C554.38,657.76,555.33,644.92,552,633.94Z"/><path class="cls-2" d="M375.93,512.55a22.36,22.36,0,0,1,1,3.32c1.43,13.07,1,19.34,4.92,26.48,2.23,4.06,13.05,9.7,17.45,11.9,2.32,2.52,18.37-16.42,20.28-18.12a5.09,5.09,0,0,1,2.45-1.44,4.29,4.29,0,0,1,3.15,1.07c4.38,3.29,6,8.73,9.06,13,1.46,2,3.07,4.07,5.46,5,2.66,1.09,5.65-.05,7.94,2.28s2.13,6.49,4.94,8c-1.5,1.85-3,3.69-4.49,5.54,2.11,1.94,4.8.65,7.24,1.48,4.81,1.62,7,7.29,11.56,9.61,7.54,3.86,9-1.44,11.13-6.87,2.7-7,29.93,17,28.48,9.47-1.39-7.17-31.93-62.6-36.17-68.54-19.52-27.35-21.15-47.09-67.43-60.46-4.2-1.21-8.41-2.33-12.58-3.64-1-.32-2.47-.65-3.94-1.1-2.85-.85-5.85-2.11-6.49-4.53a48.4,48.4,0,0,0-2.84-8.69c-.57-1.2-1-1.93-1.56-3.12s-1.92-3.41-1.3-4.69,2.16-.43,3.25-.23c.89.17,1.75-.1,2.65,0a8,8,0,0,0,2,.24,6.2,6.2,0,0,0,4-2.21c1-1.47.44-3.39,1.18-4.91a5.61,5.61,0,0,1,1.46-1.6,2.63,2.63,0,0,1-1.28-1.06c-2.11-3.28-1.74-7.21-2.64-10.86a18.69,18.69,0,0,0-3.36.68,28.1,28.1,0,0,1-5.31.92c-1.62.15-3,.73-4.38-.06-1.08-.61-1.67-1.79-2.74-2.39a21.26,21.26,0,0,1-2.26-1.08,30.71,30.71,0,0,1-2.92-2.66c-2.15-2-4.53-3.8-6.78-5.69a24.31,24.31,0,0,0-8.14-4.7,19.52,19.52,0,0,0-9.51-.43,43.64,43.64,0,0,0-7.2,1.82,74.81,74.81,0,0,0-9.77,4.68c-3.53,2-6.76,5.54-9.13,8.78-1.76,2.41-3.82,4.44-5.33,7.07a25.26,25.26,0,0,0-2.69,8.66c-.41,2.57-1.56,4.66-2.59,7-.51,1.16-.5,2.47-1,3.7a28.14,28.14,0,0,0-1.55,4.44c-.65,3,.66,5.2,2,7.7.87,1.68,2.23,2.92,3.08,4.62a13.92,13.92,0,0,0,1.52,2.28c.63.81,1,1.72,1.62,2.54.3.39.71.58,1,1s.27.84.69,1.18a18.34,18.34,0,0,0,2.86,1.35,26.56,26.56,0,0,1,3.2,1.84,3,3,0,0,0,.33.22c0,.06,0,.21.07.54a12.39,12.39,0,0,1,.35,2.79c.21,2.41-.19,2.64.32,5.36a27.55,27.55,0,0,0,1.4,5,3.41,3.41,0,0,0,5,1.67,1.79,1.79,0,0,1,1.23-.29,4.74,4.74,0,0,1,3.28,1.15A18.1,18.1,0,0,0,330,479.9a18.44,18.44,0,0,0,4.79,2.83c1.42.56,2.36.33,3.11,1.64.55.94,1.05,1.93,1.55,2.9.94,1.82,2.34,3.21,4.54,2.81,3-.53,6.15-3.86,8.44-5.59s4.2-4.36,6.77-5.95c2.94-1.82,4.65-1,7.57.29a1.71,1.71,0,0,1,.75.51,1.49,1.49,0,0,1,.21.59c.89,3.84,2.63,7.38,3.62,11.18C373.17,498.18,374,505.52,375.93,512.55Z"/><path d="M317.35,449.21c.34-.12.69-.21,1-.3s.63-.16.82,0,.09.05,0,.13-.2.11-.26.16a1.79,1.79,0,0,0-.26.2c-.33.29-.62.63-.94.93s-.35.36-.55.52c-1.24,1-2.85,1.58-4,2.69a7.07,7.07,0,0,0-1.67,4.08c-.47-.2-2-.83-2-1.4,0-.81,1.58-2.29,1.93-3.05a6.47,6.47,0,0,1,3.26-3.14C315.6,449.67,316.51,449.52,317.35,449.21Z"/><path d="M380.91,403.84c-2.48.23-5.11.93-7.59.85-7.89-.22-13.17-8.05-20.21-11.64-5.79-2.95-12.77-2.88-19-1s-11.77,5.47-17,9.35c-4.82,3.59-9.5,7.56-12.78,12.61-2.21,3.39-7.13,14.23-3.08,17.75s13.18-.31,18.16,2.84c2.52,1.6,4.28,4.36,7.05,5.48a24.9,24.9,0,0,0,4.39,1c2.66.55,5.17,1.78,7.86,2.16s5.86-.42,7.1-2.84a11.2,11.2,0,0,1-3.07-4.89c-.44-1.9.81-2.1,2.59-2.89,2.44-1.09,4.58-1,5.87,1.37s2.13,5.16,4.37,6.62c2.43,1.57,5.61,1,8.43.32l14.52-3.36c.24-3-3.67-5.15-3.26-8.11.32-2.23,2.82-3.29,4.82-4.33a18.47,18.47,0,0,0,8.41-9.22c1.52-3.7,1.44-8.65-1.85-10.92A8.4,8.4,0,0,0,380.91,403.84Z"/><path d="M301.4,432.64l.35-.85c-.06,0-.13-.05-.2-.09A3,3,0,0,0,301.4,432.64Z"/><path class="cls-2" d="M344.23,443c-5.18-1-3.81-9.33-.35-11.31a6.54,6.54,0,0,1,8.55,2.28c1.72,2.91.9,6.77,2.43,9.79.81,1.6,2.27,3,2.35,4.76s-2.82,3.2-3.39,1.5"/><path d="M371.91,412.87a7.19,7.19,0,0,0,.16-3.39,11.88,11.88,0,0,1,.44-4,6.12,6.12,0,0,1,2.42-3.78,6.66,6.66,0,0,1,3.88-1,6.45,6.45,0,0,1,3.5.91c1,.84,1.58,2.87,2.2,4a6.66,6.66,0,0,1,.31,4.56,6,6,0,0,1-2.32,4.05,19.75,19.75,0,0,1-10.28,2.52c-1.74,0-3.54-1.57-4.62-2.87s-2.48-3.76-2.54-5.5c-.13-3.33,3.52-5.29,6.26-6,1.65-.44,3.34-.71,4.8.41a9.76,9.76,0,0,1,2.6,3.55,17.94,17.94,0,0,1,2,4.59,6.56,6.56,0,0,1,.39,2.61,19.79,19.79,0,0,0-.39,2.93,8.21,8.21,0,0,1-.76,3.22,3.21,3.21,0,0,1-1.8,1.78,10.37,10.37,0,0,1-2.85,1c-.63.13-1.28,0-1.91.11-1.1.14-1.12.1-1.77-1"/><path d="M371,412.4c-1.14-.88-1.26-2.16-1.31-3.48a5.89,5.89,0,0,0-.11-1.38,1.86,1.86,0,0,1,.48-1.86c1.16-1.42,3.29-1.92,4.95-2.4a6.35,6.35,0,0,1,2.15-.4c.68,0,1.32.34,2,.37a4.83,4.83,0,0,1,1.14,0c.41.12.73.42,1.16.52a2.51,2.51,0,0,1,1.1.36,8.2,8.2,0,0,1,.93.84,4.78,4.78,0,0,1,1.43,1.73,13.6,13.6,0,0,1,.62,2.27,5.37,5.37,0,0,1,0,1.06c0,.44.17.85.18,1.29a6.26,6.26,0,0,1-1.34,3.23c-1.18,1.89-3.54,3-5.5,3.92a11.53,11.53,0,0,1-4.9,1.11c-.95,0-1.86-.19-2.8-.31a10.06,10.06,0,0,1-2.56-.47,8.63,8.63,0,0,1-2.45-1.51,19.53,19.53,0,0,1-2.27-2.09,6.14,6.14,0,0,1-1.16-2.76,7.85,7.85,0,0,0-.13-1.6,5.23,5.23,0,0,1-.41-1.61,6.58,6.58,0,0,1,1.94-5.31,21.4,21.4,0,0,1,3.37-2.71c.8-.45,1.63-.86,2.44-1.3a5.92,5.92,0,0,1,2.85-.7,4.06,4.06,0,0,1,1.73.2,5.4,5.4,0,0,1,1.56.58c1.24,1,1.52,2.59,2.51,3.76a5.39,5.39,0,0,1,.61.65c.26.41.45.86.68,1.28a10.2,10.2,0,0,1,1,2.12,6.82,6.82,0,0,1,.28,2.62,3.62,3.62,0,0,1-1.46,2.6,9.7,9.7,0,0,1-3,2.16,12.91,12.91,0,0,1-4.83.91,10.06,10.06,0,0,1-4.9-.9,10.82,10.82,0,0,1-2.26-1.31,11,11,0,0,1-1.41-1.88c-.94-1.38-.78-3.23-.79-4.8a3.54,3.54,0,0,1,0-1.34c.13-.22.59-.35.8-.47"/><path d="M375.17,426.07c-1.14-.87-1.27-2.15-1.31-3.48a5.37,5.37,0,0,0-.12-1.37,1.84,1.84,0,0,1,.49-1.86c1.16-1.42,3.29-1.92,4.94-2.4a6.35,6.35,0,0,1,2.15-.4c.68,0,1.33.34,2,.37a4.27,4.27,0,0,1,1.13,0c.42.12.74.42,1.17.52a2.55,2.55,0,0,1,1.1.36,9.18,9.18,0,0,1,.93.83,5.12,5.12,0,0,1,1.43,1.74,14.64,14.64,0,0,1,.62,2.27,7.51,7.51,0,0,1,0,1.06c0,.44.16.85.17,1.29a6.18,6.18,0,0,1-1.34,3.23c-1.17,1.89-3.54,3-5.49,3.91a11.27,11.27,0,0,1-4.9,1.11c-1,0-1.86-.18-2.8-.3a10.06,10.06,0,0,1-2.56-.47,8.49,8.49,0,0,1-2.45-1.51,18.81,18.81,0,0,1-2.27-2.09,6.27,6.27,0,0,1-1.17-2.76,8.56,8.56,0,0,0-.12-1.6,5.54,5.54,0,0,1-.42-1.61,6.62,6.62,0,0,1,1.95-5.31,20.77,20.77,0,0,1,3.36-2.71c.8-.46,1.64-.86,2.45-1.31a5.89,5.89,0,0,1,2.85-.69,4,4,0,0,1,1.72.2,4.79,4.79,0,0,1,1.56.58c1.25,1,1.53,2.59,2.51,3.76.21.25.44.36.62.65s.45.86.67,1.28a10.24,10.24,0,0,1,1,2.12,6.61,6.61,0,0,1,.27,2.62,3.57,3.57,0,0,1-1.45,2.59,9.61,9.61,0,0,1-3,2.17,12.85,12.85,0,0,1-4.82.9,9.82,9.82,0,0,1-4.9-.9,10.54,10.54,0,0,1-2.26-1.3,11,11,0,0,1-1.41-1.88c-.95-1.38-.79-3.23-.8-4.8,0-.31-.14-1.06,0-1.34s.59-.35.8-.47"/><path class="cls-3" d="M445.54,478.4c-3.68-4-8-7.21-11-11.86l0,0c-6.21-4-13.12-6.95-20.49-7.6-4-.35-8.63,0-12.28,1.71-2.72,1.3-5.13,3.49-7.45,5.37-3,2.44-5.95,5-8.84,7.59a38,38,0,0,0-6.76,7.28,16.5,16.5,0,0,0-2.74,8.4,36.31,36.31,0,0,0,1.08,7.95c1,5.21,2.87,10.38,6.48,14.36a3.65,3.65,0,0,1,3.2-1.67,4.46,4.46,0,0,1,.91.09,2.22,2.22,0,0,0-.44-.62c-3.29-3.27-4.86-7.64-5.85-12.09s-2-8.94.29-13.13a27.64,27.64,0,0,1,6.06-6.93q3.78-3.45,7.71-6.73a69,69,0,0,1,7.29-5.58,8.52,8.52,0,0,1,3.31-1.27,23.12,23.12,0,0,1,6-.63c8.56.14,16.65,4.31,23.47,9.17a75.41,75.41,0,0,1,19.16,19.66,2,2,0,0,0,1.38.94C452.43,488.07,449.52,482.78,445.54,478.4Z"/><path class="cls-3" d="M461.67,522.27c-2-11.55-4.45-24-9.42-34.83a76.67,76.67,0,0,0-6.71-9c-3.43-3.77-7.28-8.37-11.18-11.52-4.63-3.73-10.95-6.27-16.54-8.11a2.45,2.45,0,0,0,.36,3.19,8.1,8.1,0,0,0,3.09,1.65c16.1,5.93,26.6,20.94,31.26,36.93a204.39,204.39,0,0,1,4.57,20,2.36,2.36,0,0,0-.26.36,4,4,0,0,1,1.06-.17,4.1,4.1,0,0,1,2.85,1.18,8.3,8.3,0,0,1,.59.77,3.61,3.61,0,0,1,.33.44A2.36,2.36,0,0,0,461.67,522.27Z"/><path class="cls-2" d="M380.26,372.37a71.91,71.91,0,0,1,9.09-15.7c.83-1.11,1.71-2.19,2.53-3.3.43-.57.84-1.15,1.23-1.75s.46-1,1-1.31a3.74,3.74,0,0,1,1.29-.35,4.54,4.54,0,0,1,3.25.48,1.34,1.34,0,0,1,.64.95,3.16,3.16,0,0,1-.88,2c-.57.77-1.13,1.54-1.68,2.32-1.63,2.3-3.14,4.67-4.58,7.1-.72,1.22-1.42,2.44-2.11,3.68s-1.47,2.34-1.38,3.71v-.07"/><path class="cls-4" d="M377.9,500.64c.32.23,3.67-1.56,4-1.35s.55,2.25.74,2.69a23,23,0,0,0,1.51,3c2.48,4.16,5.95,6.77,10.26,8.86a78.1,78.1,0,0,0,12.89,4.5,113.46,113.46,0,0,0,21.21,3.36c9.23.75,18.63-.19,27.8-1.12,5.71-.58,13.59,19.63,16.06,24.15,3.43,6.29,7.13,12.48,12,17.8,4.49,4.94,10.36,8.24,16,11.81,9.71,6.15,19.66,12.24,27.81,20.46,7.93,8,15.58,16,18.55,27.33-4-6.06-10.72-9.65-17.37-12.53-10-4.33-20.78-7.7-31.54-6.28s-21.35,8.71-23.7,19.31c-.93,4.25-.53,8.67-1.11,13a28.71,28.71,0,0,1-1.75,6.71,4.09,4.09,0,0,1-1.33,2,3.8,3.8,0,0,1-2.28.43c-6.78-.41-11.81-6.2-16-11.54C438,616,432.6,598,419.51,580.41c-9.48-12.76-24.74-19.35-34.08-32.19a39.65,39.65,0,0,1-6-12.47c-1.45-5-.79-10-.49-15.19a73.19,73.19,0,0,0-.19-11.08c-.14-1.52-.3-3-.44-4.55C378.24,504.38,378.22,500.87,377.9,500.64Z"/><path class="cls-2" d="M420.77,482.65c1.55-7.67-4.78-16.17-3-23.74a98.06,98.06,0,0,0,5.92-12.14,23.05,23.05,0,0,0,1.7-7.32c.3-4.61-.73-9.1-1.77-14.24A26.65,26.65,0,0,0,421,417c-6.46-11.2-17.81-18.77-26.17-28.41-.06-1.53-.08-3.07-.1-4.59,0-1.81,0-3.62,0-5.44a36.65,36.65,0,0,1,.17-4.06c.07-.6.26-1.18.31-1.79s0-1.3.09-1.95a13.64,13.64,0,0,1,.69-3.73,8,8,0,0,1,1.76-2.94,5.47,5.47,0,0,1,.5-.47c.51-.49,1.09-.88,1.61-1.36,1-.9,2.5-2.11,2.86-3.39a1.17,1.17,0,0,0-.52-1.42c-.63-.34-1.4-.19-2.06-.51a1,1,0,0,0-.53-.17.66.66,0,0,0-.3.12,23.47,23.47,0,0,0-2.08,1.31,7.46,7.46,0,0,0-.87.6c-.27.26-1.21.78-2.18,1.67l-12.12,11.75c.23-.17.24-.85.33-1.12s.19-.63.29-.95a15.37,15.37,0,0,1,.85-2.16,6,6,0,0,1,.72-1c.38-.43.64-1,1.06-1.35s.6-.8,1-1.17.69-.74,1-1.15c.59-.72,1.28-1.37,1.88-2.09s1.15-1.49,1.83-2.17,1.24-1.13,1.9-1.67a7,7,0,0,0,.71-.94,3.2,3.2,0,0,0,.59-.93c.23-.5-1-.7-1.23-.82s-.41-.24-.27-.52a3.28,3.28,0,0,1,.2-.31A1.15,1.15,0,0,0,393,353a1.65,1.65,0,0,0-.51-.81,1.54,1.54,0,0,0-.74-.4,2.35,2.35,0,0,0-1.11.19c-.34.1-.7.14-1,.23a4.12,4.12,0,0,0-1.66,1.11c-.94.85-2,1.6-2.91,2.43a13.52,13.52,0,0,0-1.93,2,25.26,25.26,0,0,0-1.51,2.43,19.37,19.37,0,0,1-1.68,2.52A15.14,15.14,0,0,0,378.3,365c-.22.42-.37.84-.62,1.23a18.76,18.76,0,0,0-2.24,5.9,15.59,15.59,0,0,0,0,6.93,12.88,12.88,0,0,0,3.76,6.11c2.12-.25,4,1.33,5.91,2.63a9,9,0,0,0-1,5.8c2.26,12.32,5.87,22.31,9.61,34.3.37,1.2.71,2.53,1,3.9l-.54.54a46.11,46.11,0,0,1-5.89,5.23c-1.85,1.32-3.09,3.34-4.84,4.84a23.34,23.34,0,0,0-4.41,5.89c-1.36,2.3-3.34,4.58-3.37,7.24-.05,4.51-1.75,8.41-1.32,13a55.44,55.44,0,0,0,8.44,23.84"/><path class="cls-2" d="M392.62,395.11a7.51,7.51,0,0,0,.27-2.76c-.11-.75-.64-1.4-.68-2.17-.19-4,1-8.37,1.92-12.46a2,2,0,0,0-2.85-2.21,7.94,7.94,0,0,0-2.29,1.82,16.32,16.32,0,0,0-2.92,5.81c-.31.94-.82,2.07-1.81,2.13s-1.61-1-1.91-1.93c-1.18-3.69-.65-7.71.14-11.5a88.38,88.38,0,0,1,5.69-17.69c.55-1.24,1.07-2.88-.12-3.74a2.33,2.33,0,0,0-2.88.31c-4.22,3.76-6.34,9.18-8.11,14.5-1.6,4.81-3,9.87-2.31,14.89a25.2,25.2,0,0,0,4.95,11.06c1.81,2.5,4.75,7.29,7.47,8.7,4.42,2.29,5.48-5.08,5.57-7.87"/><text/><path d="M180,222.9V230h6.9V222.9H190v17.26h-3.11v-7.34H180v7.34H176.9V222.9Z"/><path d="M204.32,236.61a5.76,5.76,0,0,1-5.57,3.7c-4.34,0-6.26-2.71-6.26-6.76s2.71-6.53,6.43-6.43c3,.07,5.75,2.34,5.45,6.46l-.05.39h-8.73c0,2.2.94,3.7,3.18,3.7a2.87,2.87,0,0,0,2.79-2Zm-3.13-4.21c.05-2-1-2.94-2.54-2.89a2.88,2.88,0,0,0-2.91,2.89Z"/><path d="M207.26,228.06a15.36,15.36,0,0,1,4.88-.94c3.9,0,5.33,1.92,5.33,4.93v5.23a.65.65,0,0,0,.61.74,2.48,2.48,0,0,0,1-.15v2a5.09,5.09,0,0,1-2,.39,2.33,2.33,0,0,1-2.34-1.75,5.67,5.67,0,0,1-3.9,1.75c-2.52,0-4.39-1.28-4.41-4s2-4.09,5.25-4.09a22,22,0,0,1,2.79.24v-.76c0-1.41-.89-2.17-2.67-2.15a10.39,10.39,0,0,0-4,.79Zm7.15,6a13,13,0,0,0-2.51-.15c-1.48.07-2.42.76-2.45,2.07a1.82,1.82,0,0,0,2.1,1.9,5.06,5.06,0,0,0,2.86-1Z"/><path d="M233.3,221.32v18.84h-2.56l-.35-2.22a4.5,4.5,0,0,1-4.12,2.37c-3.47.05-5.54-2.83-5.54-6.63,0-4.64,3-6.56,5.52-6.56a4.09,4.09,0,0,1,4,2.44v-7.84Zm-9.42,12.33c0,2.2.87,3.92,3.16,3.92s3.25-1.72,3.25-3.89c0-2.94-1.57-4-3.28-4S223.88,230.82,223.88,233.65Z"/><path d="M244,227.24l.45,2.3a4.33,4.33,0,0,1,4-2.45,3.77,3.77,0,0,1,3.85,2.4,4.55,4.55,0,0,1,4.17-2.4c3,0,4.21,2,4.21,4.64v8.43h-3.06v-7.44c0-2-.46-3-2.14-3-2.22,0-2.81,1.68-2.81,3.58v6.9h-3.06v-7.44c0-2-.47-3-2.14-3-2.37,0-2.84,1.9-2.84,4v6.51h-3.06V227.24Z"/><path d="M266.7,227.24v7.45c0,2,.79,3,2.59,3,2.34,0,3.3-2.41,3.3-4.86v-5.62h3.06v12.92h-2.44l-.44-2.81a4.72,4.72,0,0,1-4.47,3c-3.15,0-4.66-1.95-4.66-5.2v-7.87Z"/><path d="M279.16,236.46a6.68,6.68,0,0,0,4.19,1.43c1.48,0,2.34-.44,2.34-1.5,0-2.51-7.47-.84-7.23-5.57.1-2.32,1.8-3.7,5.23-3.7a10.49,10.49,0,0,1,4.66,1.21l-1.08,2.17a7.25,7.25,0,0,0-3.7-1.06c-1.21,0-2.22.39-2.17,1.4.15,2,7.32.47,7.32,5.45,0,2.66-2.39,4.05-5.45,4a8.78,8.78,0,0,1-5.3-1.68Z"/><path d="M295.19,223.59v3.78h3.25l-.42,2.46h-2.83v5.92c0,1.41.64,1.95,1.67,1.95a5.72,5.72,0,0,0,1.95-.57l.57,2.34a7.94,7.94,0,0,1-3.28.84c-3,0-4-2-4-4.14v-6.34h-1.8v-2.46h1.95l.37-3.43Z"/><path d="M309.54,221.32v8.22a4.42,4.42,0,0,1,4.32-2.42c2.44.07,5.05,1.73,5.05,6.48,0,3.9-2,6.71-5.45,6.71a4.28,4.28,0,0,1-4.07-2.37l-.42,2.22h-2.49V221.72Zm-.12,12.36c0,2.22.81,4,3.25,4,2,0,3.11-1.5,3.11-4,0-3-1.5-3.95-3.13-3.95S309.42,231.09,309.42,233.68Z"/><path d="M333,236.61a5.78,5.78,0,0,1-5.58,3.7c-4.34,0-6.26-2.71-6.26-6.76s2.71-6.53,6.43-6.43c3,.07,5.75,2.34,5.45,6.46l0,.39h-8.73c0,2.2.93,3.7,3.18,3.7a2.87,2.87,0,0,0,2.78-2Zm-3.14-4.21c.05-2-1-2.94-2.54-2.89a2.89,2.89,0,0,0-2.91,2.89Z"/><path d="M173.46,261.16v12.92h-3.09V263.7h-1.8v-2.54Zm-1.56-5a1.65,1.65,0,0,1,1.83,1.55,1.83,1.83,0,0,1-3.63,0A1.59,1.59,0,0,1,171.9,256.13Z"/><path d="M179,261.16l.47,2.29a4.78,4.78,0,0,1,4.41-2.42c3,0,4.49,2,4.49,4.61v8.44h-3.06v-7.45c0-2-.74-3-2.41-3-2.35,0-3.26,1.9-3.26,4v6.51h-3.06V261.16Z"/><path d="M199.72,255.24v14.62c0,1.38.62,1.75,1.53,1.75a2.42,2.42,0,0,0,1.29-.47l.56,2.2a5.32,5.32,0,0,1-2.78.88c-2.57,0-3.65-1.72-3.65-4.06V255.61Z"/><path d="M208.58,261.16v12.92H205.5V263.7h-1.8v-2.54Zm-1.56-5a1.65,1.65,0,0,1,1.83,1.55,1.83,1.83,0,0,1-3.63,0A1.59,1.59,0,0,1,207,256.13Z"/><path d="M214.15,261.16l.47,2.29A4.78,4.78,0,0,1,219,261c3,0,4.49,2,4.49,4.61v8.44h-3.06v-7.45c0-2-.74-3-2.41-3-2.34,0-3.26,1.9-3.26,4v6.51h-3V261.16Z"/><path d="M238,270.53a5.77,5.77,0,0,1-5.58,3.69c-4.34,0-6.26-2.71-6.26-6.75s2.71-6.54,6.44-6.44c3,.08,5.74,2.35,5.44,6.46l0,.4h-8.73c0,2.19.93,3.7,3.18,3.7a2.87,2.87,0,0,0,2.78-2Zm-3.14-4.22c0-2-1-2.93-2.54-2.89a2.89,2.89,0,0,0-2.91,2.89Z"/><path d="M247.82,261.16l2.51,9h.2l2.52-9h3.15l2.54,9h.18l2.56-9h3.18l-4.34,12.92h-3l-2.64-8.73h-.2l-2.54,8.73h-3l-4.24-12.92Z"/><path d="M270.66,261.16v12.92h-3.08V263.7h-1.8v-2.54Zm-1.56-5a1.65,1.65,0,0,1,1.83,1.55,1.83,1.83,0,0,1-3.63,0A1.59,1.59,0,0,1,269.1,256.13Z"/><path d="M277.79,257.51v3.77H281l-.42,2.46h-2.83v5.92c0,1.41.64,1.95,1.67,1.95a5.5,5.5,0,0,0,2-.57l.57,2.35a8.15,8.15,0,0,1-3.28.83c-3,0-4-2-4-4.14v-6.34h-1.8v-2.46h1.95l.37-3.43Z"/><path d="M287,255.24v8a4.84,4.84,0,0,1,4.25-2.2c3,0,4.48,2,4.48,4.61v8.44h-3v-7.45c0-2-.74-3-2.42-3-2.34,0-3.26,1.9-3.26,4v6.51h-3.05V255.61Z"/><path d="M307.9,257.51v3.77h3.25l-.41,2.46H307.9v5.92c0,1.41.64,1.95,1.68,1.95a5.36,5.36,0,0,0,1.94-.57l.57,2.35a8.15,8.15,0,0,1-3.28.83c-3,0-4-2-4-4.14v-6.34H303v-2.46H305l.37-3.43Z"/><path d="M317.1,255.24v8a4.83,4.83,0,0,1,4.24-2.2c3,0,4.49,2,4.49,4.61v8.44h-3.06v-7.45c0-2-.74-3-2.42-3-2.34,0-3.25,1.9-3.25,4v6.51H314V255.61Z"/><path d="M340.23,270.53a5.75,5.75,0,0,1-5.57,3.69c-4.34,0-6.26-2.71-6.26-6.75s2.71-6.54,6.43-6.44c3,.08,5.75,2.35,5.45,6.46l0,.4H331.5c0,2.19.94,3.7,3.18,3.7a2.87,2.87,0,0,0,2.79-2Zm-3.13-4.22c0-2-1-2.93-2.54-2.89a2.88,2.88,0,0,0-2.91,2.89Z"/><path d="M229.89,289.15v8.21A4.39,4.39,0,0,1,234.2,295c2.44.07,5.06,1.72,5.06,6.48,0,3.9-1.95,6.71-5.45,6.71a4.27,4.27,0,0,1-4.07-2.37l-.42,2.22h-2.49V289.55Zm-.13,12.36c0,2.21.82,4,3.26,4,2,0,3.11-1.5,3.11-4,0-3-1.51-3.95-3.13-3.95C231.22,297.51,229.76,298.92,229.76,301.51Z"/><path d="M247.77,295c3.23,0,6,2.19,6,6.6,0,3.63-2.14,6.59-6.16,6.59-4.37,0-6.17-3-6.17-6.59C241.48,297.14,244.27,295,247.77,295Zm-3.08,6.6c0,2.05.69,4,3,4,2.09,0,3-1.95,3-4,0-2.86-1.41-4-3-4C246.07,297.54,244.69,298.65,244.69,301.55Z"/><path d="M268.61,289.15V308H266l-.34-2.22a4.53,4.53,0,0,1-4.12,2.37c-3.48.05-5.55-2.84-5.55-6.63,0-4.64,3-6.56,5.53-6.56a4.11,4.11,0,0,1,4,2.44v-7.84Zm-9.42,12.33c0,2.2.86,3.92,3.16,3.92s3.25-1.72,3.25-3.89c0-2.94-1.58-4-3.28-4S259.19,298.65,259.19,301.48Z"/><path d="M273.94,295.07l3.18,9.12h.2l2.91-9.12h3.15l-4.78,13.12c-1.58,4.31-3.06,5.4-7.62,4.44l.54-2.59c2.91.71,3.31,0,4.22-2.49l-4.86-12.48Z"/><path d="M604.85,416.25a12.61,12.61,0,0,0-4.91-1.43c-1.72,0-2.86.52-2.86,1.92,0,3.31,9.23,1.8,9.23,7.65,0,3.55-2.74,5.35-6.34,5.35a10.66,10.66,0,0,1-6.63-2.12l1.52-2.32a8.5,8.5,0,0,0,5,1.82c2.1,0,3.35-.91,3.35-2.39,0-3.43-9.17-2.19-9.17-7.84,0-3.16,2.44-4.68,5.89-4.68a13.68,13.68,0,0,1,6.12,1.67Z"/><path d="M613,413v3.77h3.25l-.42,2.47H613v5.92c0,1.4.64,1.94,1.67,1.94a5.76,5.76,0,0,0,2-.56l.57,2.34a8.1,8.1,0,0,1-3.28.84c-3,0-4-2-4-4.15v-6.33h-1.8v-2.47h1.95l.37-3.43Z"/><path d="M621.35,416.67l.57,2.66c.59-2,2.1-2.83,4.19-2.78a4.78,4.78,0,0,1,1.33.22l-.46,2.68a5.33,5.33,0,0,0-1.85-.24c-2.27.07-3.14,1.82-3.14,3.89v6.49h-3V416.67Z"/><path d="M629.07,417.48a15.46,15.46,0,0,1,4.89-.93c3.89,0,5.32,1.92,5.32,4.93v5.22a.65.65,0,0,0,.62.74,2.5,2.5,0,0,0,1-.14v2a5.05,5.05,0,0,1-2,.4,2.34,2.34,0,0,1-2.34-1.75,5.65,5.65,0,0,1-3.9,1.75c-2.51,0-4.38-1.29-4.41-4s2-4.1,5.25-4.1a19.85,19.85,0,0,1,2.79.25v-.76c0-1.41-.89-2.17-2.66-2.15a10.41,10.41,0,0,0-4,.79Zm7.15,6a14,14,0,0,0-2.51-.14c-1.48.07-2.42.76-2.44,2.07a1.8,1.8,0,0,0,2.09,1.89,5,5,0,0,0,2.86-1Z"/><path d="M647.05,416.67v12.92H644V419.21h-1.8v-2.54Zm-1.55-5a1.64,1.64,0,0,1,1.82,1.55,1.82,1.82,0,0,1-3.62,0A1.59,1.59,0,0,1,645.5,411.64Z"/><path d="M662.24,416.67v11c0,4.29-1.67,6.88-6.41,6.88a13.48,13.48,0,0,1-5.27-1.11l.71-2.32a11,11,0,0,0,4.22,1c2.78,0,3.7-1.38,3.7-3.5v-1.13a4.47,4.47,0,0,1-4,2.05c-3.48.07-5.48-2.57-5.48-6.37,0-4.63,3-6.55,5.53-6.55a4.27,4.27,0,0,1,4.09,2.34l.32-2.22Zm-9.32,6.41c0,2.19.87,3.92,3.16,3.92s3.21-1.73,3.21-3.9c0-2.93-1.56-4-3.24-4S652.92,420.24,652.92,423.08Z"/><path d="M668.46,410.75v8a4.82,4.82,0,0,1,4.24-2.19c3,0,4.49,1.94,4.49,4.61v8.43h-3.06v-7.45c0-2-.74-3-2.41-3-2.35,0-3.26,1.9-3.26,4v6.51H665.4V411.12Z"/><path d="M684.22,413v3.77h3.26l-.42,2.47h-2.84v5.92c0,1.4.64,1.94,1.68,1.94a5.76,5.76,0,0,0,2-.56l.56,2.34a8.1,8.1,0,0,1-3.28.84c-3,0-4-2-4-4.15v-6.33h-1.8v-2.47h1.95l.37-3.43Z"/><path d="M618,460a5.77,5.77,0,0,1-5.58,3.7c-4.34,0-6.26-2.71-6.26-6.76s2.71-6.53,6.44-6.43c3,.07,5.74,2.34,5.45,6.46l0,.39h-8.73c0,2.2.94,3.7,3.18,3.7a2.89,2.89,0,0,0,2.79-2Zm-3.13-4.21c0-2-1-2.94-2.54-2.89a2.87,2.87,0,0,0-2.91,2.89Z"/><path d="M623.75,444.66v14.63c0,1.38.61,1.75,1.52,1.75a2.46,2.46,0,0,0,1.29-.47l.56,2.19a5.31,5.31,0,0,1-2.78.89c-2.57,0-3.65-1.73-3.65-4.07V445Z"/><path d="M631.64,444.66v8.22a4.39,4.39,0,0,1,4.31-2.42c2.44.07,5.06,1.72,5.06,6.48,0,3.9-2,6.71-5.45,6.71a4.27,4.27,0,0,1-4.07-2.37l-.42,2.22h-2.49V445.06ZM631.51,457c0,2.22.82,4,3.26,4,2,0,3.11-1.5,3.11-4,0-3-1.51-4-3.14-4S631.51,454.43,631.51,457Z"/><path d="M649.52,450.46c3.23,0,6,2.19,6,6.61,0,3.62-2.15,6.58-6.17,6.58-4.36,0-6.16-3-6.16-6.58C643.23,452.65,646,450.46,649.52,450.46Zm-3.08,6.61c0,2,.69,4,3,4,2.1,0,3-1.95,3-4,0-2.86-1.41-4-3-4S646.44,454.16,646.44,457.07Z"/><path d="M659.61,450.58l2.51,9h.2l2.51-9H668l2.54,9h.17l2.57-9h3.18l-4.34,12.92h-3l-2.64-8.73h-.2l-2.54,8.73h-3l-4.24-12.92Z"/><path d="M678.3,459.8a6.73,6.73,0,0,0,4.2,1.43c1.47,0,2.34-.44,2.34-1.5,0-2.51-7.47-.84-7.23-5.57.1-2.32,1.8-3.7,5.23-3.7a10.49,10.49,0,0,1,4.66,1.21l-1.08,2.17a7.3,7.3,0,0,0-3.7-1.06c-1.21,0-2.22.39-2.17,1.4.15,2.05,7.32.47,7.32,5.45,0,2.66-2.39,4.05-5.45,4a8.78,8.78,0,0,1-5.3-1.68Z"/><path d="M297.2,852.8l-.34,2.56h-7.2v4.84h6.9l-.05,2.63h-6.85v7.23H286.6V852.8Z"/><path d="M310.2,866.51a5.76,5.76,0,0,1-5.57,3.7c-4.34,0-6.26-2.72-6.26-6.76s2.71-6.53,6.43-6.44c3,.08,5.75,2.35,5.45,6.47l-.05.39h-8.73c0,2.19.94,3.7,3.18,3.7a2.88,2.88,0,0,0,2.79-2.05Zm-3.13-4.22c.05-2-1-2.93-2.54-2.88a2.87,2.87,0,0,0-2.91,2.88Z"/><path d="M324.28,866.51a5.76,5.76,0,0,1-5.57,3.7c-4.34,0-6.26-2.72-6.26-6.76s2.71-6.53,6.43-6.44c3,.08,5.75,2.35,5.45,6.47l-.05.39h-8.73c0,2.19.94,3.7,3.19,3.7a2.87,2.87,0,0,0,2.78-2.05Zm-3.13-4.22c.05-2-1-2.93-2.54-2.88a2.88,2.88,0,0,0-2.91,2.88Z"/><path d="M331,853.49v3.77h3.25l-.42,2.47H331v5.92c0,1.4.64,1.94,1.67,1.94a5.76,5.76,0,0,0,1.95-.56l.57,2.34a8.1,8.1,0,0,1-3.28.84c-3,0-4-2-4-4.15v-6.33h-1.8v-2.47h1.94l.38-3.43Z"/><path d="M290.4,887.4v3.78h3.25l-.42,2.46H290.4v5.92c0,1.4.64,2,1.67,2a5.72,5.72,0,0,0,1.95-.57l.57,2.34a7.94,7.94,0,0,1-3.28.84c-3,0-4-2-4-4.14v-6.34h-1.8v-2.46h1.95l.37-3.43Z"/><path d="M301.74,890.93c3.23,0,6,2.19,6,6.61,0,3.62-2.14,6.58-6.16,6.58-4.37,0-6.17-3-6.17-6.58C295.45,893.12,298.24,890.93,301.74,890.93Zm-3.08,6.61c0,2,.69,4,3,4,2.09,0,3-1.95,3-4,0-2.86-1.4-4-3-4S298.66,894.63,298.66,897.54Z"/><path d="M322.53,891.05v11c0,4.3-1.67,6.88-6.41,6.88a13.55,13.55,0,0,1-5.28-1.1l.72-2.32a10.93,10.93,0,0,0,4.22,1c2.78,0,3.69-1.38,3.69-3.5V901.8a4.45,4.45,0,0,1-4,2.05c-3.47.07-5.47-2.56-5.47-6.36,0-4.64,3-6.56,5.52-6.56a4.28,4.28,0,0,1,4.1,2.34l.32-2.22Zm-9.32,6.41c0,2.2.86,3.92,3.16,3.92s3.2-1.72,3.2-3.89c0-2.94-1.55-4-3.23-4S313.21,894.63,313.21,897.46Z"/><path d="M337,900.42a5.78,5.78,0,0,1-5.58,3.7c-4.34,0-6.26-2.71-6.26-6.76s2.71-6.53,6.43-6.43c3,.07,5.75,2.34,5.45,6.46l0,.39h-8.73c0,2.2.93,3.7,3.18,3.7a2.87,2.87,0,0,0,2.78-2Zm-3.14-4.21c.05-2-1-2.94-2.54-2.89a2.88,2.88,0,0,0-2.91,2.89Z"/><path d="M343.75,887.4v3.78H347l-.42,2.46h-2.83v5.92c0,1.4.64,2,1.67,2a5.72,5.72,0,0,0,1.95-.57l.57,2.34a7.94,7.94,0,0,1-3.28.84c-3,0-4-2-4-4.14v-6.34h-1.8v-2.46h1.95l.37-3.43Z"/><path d="M353,885.13v8a4.81,4.81,0,0,1,4.24-2.19c3,0,4.48,2,4.48,4.61V904h-3.05v-7.44c0-2-.74-3-2.42-3-2.34,0-3.25,1.9-3.25,4V904h-3.06V885.5Z"/><path d="M376.08,900.42a5.76,5.76,0,0,1-5.57,3.7c-4.34,0-6.27-2.71-6.27-6.76s2.72-6.53,6.44-6.43c3,.07,5.74,2.34,5.45,6.46l-.05.39h-8.73c0,2.2.94,3.7,3.18,3.7a2.89,2.89,0,0,0,2.79-2ZM373,896.21c.05-2-1-2.94-2.54-2.89a2.87,2.87,0,0,0-2.91,2.89Z"/><path d="M381.24,891.05l.56,2.67c.59-2,2.1-2.84,4.19-2.79a4.94,4.94,0,0,1,1.34.22l-.47,2.69a5.53,5.53,0,0,0-1.85-.25c-2.27.08-3.13,1.83-3.13,3.9V904h-3.06V891.05Z"/><path d="M354.2,863.54A47.45,47.45,0,0,1,378.66,861c8.43,1.45,16,5.32,23.21,9.86,1.64,1,3.14-1.55,1.52-2.59-7.5-4.75-15.55-8.81-24.38-10.24a50.45,50.45,0,0,0-25.61,2.64c-1.79.66-1,3.56.8,2.89Z"/><path d="M394.2,874.11c3.74-.64,7.41-1.65,11.09-2.57a1.52,1.52,0,0,0,.9-2.21c-.91-1.69-1.74-3.42-2.63-5.13s-1.7-3.12-2.52-4.71a1.5,1.5,0,1,0-2.59,1.51c.82,1.59,1.7,3.14,2.52,4.72s1.72,3.44,2.63,5.13l.9-2.2c-3.69.92-7.35,1.92-11.1,2.57a1.5,1.5,0,1,0,.8,2.89Z"/><path d="M586.88,442.37c-9.62,5.72-19.3,11.39-29.1,16.81a59.28,59.28,0,0,1-5.47,2.87,1.51,1.51,0,0,0-.54,2.05,1.54,1.54,0,0,0,2.05.54c4.3-1.83,8.37-4.47,12.41-6.78q8.44-4.83,16.83-9.76c1.78-1,3.56-2.08,5.34-3.14a1.5,1.5,0,0,0-1.52-2.59Z"/><path d="M554.26,453.55c-1.67,3.57-3,7.27-4.38,10.94-.38,1,.58,1.8,1.45,1.9,1.87.22,3.73.52,5.59.76.94.12,1.87.23,2.81.31l.54.05.32,0h.06l1.3.18a1.54,1.54,0,0,0,1.84-1.05,1.5,1.5,0,0,0-1-1.84c-1.87-.26-3.75-.43-5.62-.67s-3.86-.57-5.8-.79l1.44,1.9c1.3-3.43,2.52-6.9,4.08-10.22a1.54,1.54,0,0,0-.54-2.05,1.51,1.51,0,0,0-2,.53Z"/><path d="M346.07,248.59a53.16,53.16,0,0,1,31.42,21.71,91.22,91.22,0,0,1,6.76,12.2c.85,1.8,3.53.23,2.68-1.57-3.31-7-7.24-13.84-12.59-19.53a54,54,0,0,0-16.28-11.83,62.37,62.37,0,0,0-11.17-4c-1.93-.49-2.76,2.5-.82,3Z"/><path d="M375.13,280.45c3.84,1.72,7.81,3.09,11.75,4.53,1,.38,1.88-.58,2-1.5.19-2.05.44-3.76.67-5.83.19-1.75.3-3.5.49-5.24a1.55,1.55,0,0,0-1.55-1.55,1.59,1.59,0,0,0-1.55,1.55c-.2,1.74-.31,3.49-.5,5.24-.21,1.94-.49,3.88-.67,5.83l2-1.49c-3.69-1.35-7.43-2.61-11-4.22a1.6,1.6,0,0,0-2.12.56,1.56,1.56,0,0,0,.56,2.12Z"/><circle cx="79" cy="61.53" r="34.44"/><text class="cls-5" transform="translate(67.45 75.26)">1</text><path d="M146.19,54.39l-.27,3.12h-5.55V75.39h-3.75V57.51h-5.76V54.39Z"/><path d="M152.34,52.47v9.72a5.86,5.86,0,0,1,5.16-2.67c3.69,0,5.46,2.37,5.46,5.61V75.39h-3.72V66.33c0-2.4-.9-3.69-2.94-3.69-2.85,0-4,2.31-4,4.83v7.92h-3.72V52.92Z"/><path d="M180.48,71.07a7,7,0,0,1-6.78,4.5c-5.28,0-7.62-3.3-7.62-8.22s3.3-7.95,7.83-7.83c3.69.09,7,2.85,6.63,7.86l-.06.48H169.86c0,2.67,1.14,4.5,3.87,4.5a3.5,3.5,0,0,0,3.39-2.49Zm-3.81-5.13c.06-2.43-1.26-3.57-3.09-3.51A3.5,3.5,0,0,0,170,65.94Z"/><path d="M190.5,70.89a8.15,8.15,0,0,0,5.1,1.74c1.8,0,2.85-.54,2.85-1.83,0-3.06-9.09-1-8.79-6.78.12-2.82,2.19-4.5,6.36-4.5A12.78,12.78,0,0,1,201.69,61l-1.32,2.64a8.9,8.9,0,0,0-4.5-1.29c-1.47,0-2.7.48-2.64,1.71.18,2.49,8.91.57,8.91,6.63,0,3.24-2.91,4.92-6.63,4.89a10.76,10.76,0,0,1-6.45-2Z"/><path d="M210,55.23v4.59h4l-.51,3H210V70c0,1.71.78,2.37,2,2.37a6.83,6.83,0,0,0,2.37-.69l.69,2.85a9.82,9.82,0,0,1-4,1c-3.69,0-4.83-2.46-4.83-5V62.82h-2.19v-3h2.37l.45-4.17Z"/><path d="M217.32,60.66a18.74,18.74,0,0,1,5.94-1.14c4.74,0,6.48,2.34,6.48,6v6.36a.79.79,0,0,0,.75.9,3,3,0,0,0,1.23-.18v2.49a6.08,6.08,0,0,1-2.49.48,2.84,2.84,0,0,1-2.85-2.13,6.87,6.87,0,0,1-4.74,2.13c-3.06,0-5.34-1.56-5.37-4.83s2.46-5,6.39-5a24.49,24.49,0,0,1,3.39.3v-.93c0-1.71-1.08-2.64-3.24-2.61a12.68,12.68,0,0,0-4.86,1ZM226,68a16.62,16.62,0,0,0-3.06-.18c-1.8.09-2.94.93-3,2.52a2.21,2.21,0,0,0,2.55,2.31A6.17,6.17,0,0,0,226,71.4Z"/><path d="M237.24,59.67l.69,3.24c.72-2.4,2.55-3.45,5.1-3.39a6.19,6.19,0,0,1,1.62.27l-.57,3.27a6.48,6.48,0,0,0-2.25-.3C239.07,62.85,238,65,238,67.5v7.89H234.3V59.67Z"/><path d="M252.54,55.23v4.59h4l-.51,3h-3.45V70c0,1.71.78,2.37,2,2.37A6.83,6.83,0,0,0,257,71.7l.69,2.85a9.82,9.82,0,0,1-4,1c-3.69,0-4.83-2.46-4.83-5V62.82h-2.19v-3H249l.45-4.17Z"/><path d="M269.25,59.67l.54,2.82a5.71,5.71,0,0,1,5.37-3c3,.09,6.18,2.1,6.18,7.89,0,4.74-2.37,8.16-6.66,8.16A4.88,4.88,0,0,1,270,73v8.37h-3.75V59.67Zm.51,7.83c0,2.7,1,4.86,4,4.86,2.43,0,3.78-1.83,3.78-4.92,0-3.66-1.83-4.8-3.81-4.8C271.56,62.64,269.76,64.35,269.76,67.5Z"/><path d="M291.69,59.52c3.93,0,7.35,2.67,7.35,8,0,4.41-2.61,8-7.5,8-5.31,0-7.5-3.6-7.5-8C284,62.19,287.43,59.52,291.69,59.52Zm-3.75,8c0,2.49.84,4.86,3.66,4.86,2.55,0,3.69-2.37,3.69-4.86,0-3.48-1.71-4.89-3.6-4.89C289.62,62.67,287.94,64,287.94,67.56Z"/><path d="M302.76,70.89a8.15,8.15,0,0,0,5.1,1.74c1.8,0,2.85-.54,2.85-1.83,0-3.06-9.09-1-8.79-6.78.12-2.82,2.19-4.5,6.36-4.5A12.78,12.78,0,0,1,314,61l-1.32,2.64a8.9,8.9,0,0,0-4.5-1.29c-1.47,0-2.7.48-2.64,1.71.18,2.49,8.91.57,8.91,6.63,0,3.24-2.91,4.92-6.63,4.89a10.76,10.76,0,0,1-6.45-2Z"/><path d="M322.32,59.67V75.39h-3.75V62.76h-2.19V59.67Zm-1.89-6.12a2,2,0,0,1,2.22,1.89,2.22,2.22,0,0,1-4.41,0A1.93,1.93,0,0,1,320.43,53.55Z"/><path d="M331,55.23v4.59h4l-.51,3H331V70c0,1.71.78,2.37,2,2.37a6.83,6.83,0,0,0,2.37-.69l.69,2.85a9.82,9.82,0,0,1-4,1c-3.69,0-4.83-2.46-4.83-5V62.82h-2.19v-3h2.37l.45-4.17Z"/><path d="M343.35,59.67V75.39H339.6V62.76h-2.19V59.67Zm-1.89-6.12a2,2,0,0,1,2.22,1.89,2.22,2.22,0,0,1-4.41,0A1.93,1.93,0,0,1,341.46,53.55Z"/><path d="M354.27,59.52c3.93,0,7.35,2.67,7.35,8,0,4.41-2.61,8-7.5,8-5.31,0-7.5-3.6-7.5-8C346.62,62.19,350,59.52,354.27,59.52Zm-3.75,8c0,2.49.84,4.86,3.66,4.86,2.55,0,3.69-2.37,3.69-4.86,0-3.48-1.71-4.89-3.6-4.89C352.2,62.67,350.52,64,350.52,67.56Z"/><path d="M367.86,59.67l.57,2.79a5.8,5.8,0,0,1,5.37-2.94c3.69,0,5.46,2.37,5.46,5.61V75.39h-3.72V66.33c0-2.4-.9-3.69-2.94-3.69-2.85,0-4,2.31-4,4.83v7.92h-3.72V59.67Z"/><path d="M394.2,59.67V75.39h-3.75V62.76h-2.19V59.67Zm-1.89-6.12a2,2,0,0,1,2.22,1.89,2.22,2.22,0,0,1-4.41,0A1.93,1.93,0,0,1,392.31,53.55Z"/><path d="M398.46,70.89a8.15,8.15,0,0,0,5.1,1.74c1.8,0,2.85-.54,2.85-1.83,0-3.06-9.09-1-8.79-6.78.12-2.82,2.19-4.5,6.36-4.5A12.78,12.78,0,0,1,409.65,61l-1.32,2.64a8.9,8.9,0,0,0-4.5-1.29c-1.47,0-2.7.48-2.64,1.71.18,2.49,8.91.57,8.91,6.63,0,3.24-2.91,4.92-6.63,4.89a10.76,10.76,0,0,1-6.45-2Z"/><path d="M419.64,60.66a18.74,18.74,0,0,1,5.94-1.14c4.74,0,6.48,2.34,6.48,6v6.36a.79.79,0,0,0,.75.9A3,3,0,0,0,434,72.6v2.49a6.1,6.1,0,0,1-2.5.48,2.84,2.84,0,0,1-2.84-2.13A6.87,6.87,0,0,1,424,75.57c-3.06,0-5.34-1.56-5.37-4.83s2.46-5,6.39-5a24.49,24.49,0,0,1,3.39.3v-.93c0-1.71-1.08-2.64-3.24-2.61a12.68,12.68,0,0,0-4.86,1Zm8.7,7.35a16.62,16.62,0,0,0-3.06-.18c-1.8.09-2.94.93-3,2.52a2.21,2.21,0,0,0,2.55,2.31,6.17,6.17,0,0,0,3.48-1.26Z"/><path d="M440.34,52.47V70.26c0,1.68.75,2.13,1.86,2.13a2.93,2.93,0,0,0,1.56-.57l.69,2.67a6.47,6.47,0,0,1-3.39,1.08c-3.12,0-4.44-2.1-4.44-4.95V52.92Z"/><path d="M448.83,52.47V70.26c0,1.68.75,2.13,1.86,2.13a2.93,2.93,0,0,0,1.56-.57l.69,2.67a6.47,6.47,0,0,1-3.39,1.08c-3.12,0-4.44-2.1-4.44-4.95V52.92Z"/><path d="M461.22,60.66a18.74,18.74,0,0,1,5.94-1.14c4.74,0,6.47,2.34,6.47,6v6.36a.8.8,0,0,0,.75.9,3,3,0,0,0,1.24-.18v2.49a6.1,6.1,0,0,1-2.5.48,2.83,2.83,0,0,1-2.84-2.13,6.89,6.89,0,0,1-4.74,2.13c-3.06,0-5.34-1.56-5.37-4.83s2.46-5,6.39-5a24.49,24.49,0,0,1,3.39.3v-.93c0-1.71-1.08-2.64-3.24-2.61a12.68,12.68,0,0,0-4.86,1Zm8.7,7.35a16.62,16.62,0,0,0-3.06-.18c-1.8.09-2.94.93-3,2.52a2.21,2.21,0,0,0,2.55,2.31,6.17,6.17,0,0,0,3.48-1.26Z"/><path d="M481.92,52.47v10a5.37,5.37,0,0,1,5.25-2.94c3,.09,6.14,2.1,6.14,7.89,0,4.74-2.36,8.16-6.62,8.16a5.2,5.2,0,0,1-4.95-2.88l-.51,2.7h-3V53Zm-.15,15c0,2.7,1,4.86,4,4.86,2.46,0,3.77-1.83,3.77-4.92,0-3.66-1.82-4.8-3.8-4.8C483.54,62.64,481.77,64.35,481.77,67.5Z"/><path d="M503.67,59.52c3.92,0,7.34,2.67,7.34,8,0,4.41-2.61,8-7.5,8-5.3,0-7.49-3.6-7.49-8C496,62.19,499.41,59.52,503.67,59.52Zm-3.75,8c0,2.49.83,4.86,3.66,4.86,2.54,0,3.68-2.37,3.68-4.86,0-3.48-1.71-4.89-3.59-4.89C501.59,62.67,499.92,64,499.92,67.56Z"/><path d="M517.82,59.67v9.06c0,2.4,1,3.69,3.15,3.69,2.85,0,4-2.94,4-5.91V59.67h3.72V75.39h-3L525.21,72a5.75,5.75,0,0,1-5.44,3.6c-3.84,0-5.66-2.37-5.66-6.33V59.67Z"/><path d="M537.38,55.23v4.59h4l-.51,3h-3.45V70c0,1.71.78,2.37,2,2.37a6.83,6.83,0,0,0,2.37-.69l.69,2.85a9.82,9.82,0,0,1-4,1c-3.69,0-4.83-2.46-4.83-5V62.82h-2.19v-3h2.37l.45-4.17Z"/><path d="M554.09,59.67l.54,2.82a5.71,5.71,0,0,1,5.37-3c3,.09,6.18,2.1,6.18,7.89,0,4.74-2.37,8.16-6.66,8.16A4.88,4.88,0,0,1,554.87,73v8.37h-3.75V59.67Zm.51,7.83c0,2.7,1,4.86,4,4.86,2.43,0,3.78-1.83,3.78-4.92,0-3.66-1.83-4.8-3.81-4.8C556.4,62.64,554.6,64.35,554.6,67.5Z"/><path d="M576.53,59.52c3.93,0,7.35,2.67,7.35,8,0,4.41-2.61,8-7.5,8-5.31,0-7.5-3.6-7.5-8C568.88,62.19,572.27,59.52,576.53,59.52Zm-3.75,8c0,2.49.84,4.86,3.66,4.86,2.55,0,3.69-2.37,3.69-4.86,0-3.48-1.71-4.89-3.6-4.89C574.46,62.67,572.78,64,572.78,67.56Z"/><path d="M587.6,70.89a8.15,8.15,0,0,0,5.1,1.74c1.8,0,2.85-.54,2.85-1.83,0-3.06-9.09-1-8.79-6.78.12-2.82,2.19-4.5,6.36-4.5A12.78,12.78,0,0,1,598.79,61l-1.32,2.64a8.9,8.9,0,0,0-4.5-1.29c-1.47,0-2.7.48-2.64,1.71.18,2.49,8.91.57,8.91,6.63,0,3.24-2.91,4.92-6.63,4.89a10.76,10.76,0,0,1-6.45-2Z"/><path d="M607.1,55.23v4.59h4l-.51,3H607.1V70c0,1.71.78,2.37,2,2.37a6.83,6.83,0,0,0,2.37-.69l.69,2.85a9.82,9.82,0,0,1-4,1c-3.69,0-4.83-2.46-4.83-5V62.82h-2.19v-3h2.37l.45-4.17Z"/><path d="M617.69,59.67v9.06c0,2.4,1,3.69,3.15,3.69,2.85,0,4-2.94,4-5.91V59.67h3.72V75.39h-3L625.07,72a5.73,5.73,0,0,1-5.43,3.6c-3.84,0-5.67-2.37-5.67-6.33V59.67Z"/><path d="M635.36,59.67l.69,3.24c.72-2.4,2.55-3.45,5.1-3.39a6.19,6.19,0,0,1,1.62.27l-.57,3.27a6.48,6.48,0,0,0-2.25-.3c-2.76.09-3.81,2.22-3.81,4.74v7.89h-3.72V59.67Z"/><path d="M658.34,71.07a7,7,0,0,1-6.78,4.5c-5.28,0-7.62-3.3-7.62-8.22s3.3-7.95,7.83-7.83c3.69.09,7,2.85,6.63,7.86l-.06.48H647.72c0,2.67,1.14,4.5,3.87,4.5A3.5,3.5,0,0,0,655,69.87Zm-3.81-5.13c.06-2.43-1.26-3.57-3.09-3.51a3.5,3.5,0,0,0-3.54,3.51Z"/></svg>