<svg id="Layer_1" data-name="Layer 1" xmlns="http://www.w3.org/2000/svg" viewBox="0 0 780 1051.14"><defs><style>.cls-1{fill:#d4a47c;stroke-width:0.27px;}.cls-1,.cls-2,.cls-3,.cls-4,.cls-5{stroke:#fff;stroke-miterlimit:10;}.cls-2{fill:#005058;stroke-width:0.47px;}.cls-3{fill:#c6946f;stroke-width:0.24px;}.cls-4,.cls-5{fill:#fff171;}.cls-4{stroke-width:0.3px;}.cls-5{stroke-width:0.32px;}.cls-6{font-size:24.66px;}.cls-11,.cls-6{font-family:ABCSansBold, ABCSans;}.cls-7{letter-spacing:-0.01em;}.cls-8{letter-spacing:-0.02em;}.cls-9{letter-spacing:-0.02em;}.cls-10{letter-spacing:-0.03em;}.cls-11{font-size:30px;}.cls-12{letter-spacing:-0.01em;}.cls-13{letter-spacing:0.03em;}.cls-14{letter-spacing:-0.04em;}.cls-15{letter-spacing:-0.02em;}.cls-16{font-size:38.5px;fill:#fff;font-family:ABCSerifBold, ABCSerif;}</style></defs><path class="cls-1" d="M515.1,608.23c-1.63-7.12-44.41-58.63-48.85-64.42-20.45-26.67-22.75-46.34-69.47-58.11-4.23-1.07-8.48-2.05-12.69-3.21-1-.29-2.49-.57-4-1-2.87-.76-5.92-1.92-6.65-4.31a47.31,47.31,0,0,0-3.12-8.58c-.61-1.18-1-1.91-1.67-3.07s-2-3.34-1.47-4.64,2.15-.51,3.25-.34c.89.13,1.74-.16,2.65-.1a7.54,7.54,0,0,0,2,.18,6.27,6.27,0,0,0,3.88-2.35c.91-1.51.32-3.4,1-4.95a5.47,5.47,0,0,1,1.4-1.64,2.64,2.64,0,0,1-1.31-1c-2.23-3.21-2-7.15-3-10.76a19.28,19.28,0,0,0-3.33.79,28.83,28.83,0,0,1-5.28,1.11c-1.61.2-3,.82-4.38.08-1.09-.57-1.73-1.73-2.82-2.29a21.15,21.15,0,0,1-2.29-1,30.8,30.8,0,0,1-3-2.56c-2.22-1.91-4.66-3.64-7-5.45a24.29,24.29,0,0,0-8.3-4.42,19.54,19.54,0,0,0-9.52-.11,43.77,43.77,0,0,0-7.14,2.07,73.46,73.46,0,0,0-9.59,5c-3.46,2.13-6.57,5.77-8.83,9.09-1.68,2.46-3.66,4.57-5.08,7.25a25,25,0,0,0-2.39,8.74c-.33,2.59-1.4,4.71-2.35,7.05-.48,1.17-.42,2.49-.87,3.73a28.79,28.79,0,0,0-1.4,4.49c-.54,3,.84,5.17,2.23,7.63.93,1.65,2.32,2.84,3.23,4.51a14.15,14.15,0,0,0,1.6,2.23c.66.79,1,1.69,1.7,2.48.33.38.74.56,1.09.95s.3.82.73,1.15a20,20,0,0,0,2.9,1.26,25.41,25.41,0,0,1,3.27,1.72c.16.11.27.17.34.21s0,.21.08.53a12.41,12.41,0,0,1,.45,2.79c.29,2.4-.1,2.64.5,5.34a27.82,27.82,0,0,0,1.57,4.94,3.41,3.41,0,0,0,5.07,1.49,1.89,1.89,0,0,1,1.22-.33,4.73,4.73,0,0,1,3.31,1c.76.76,1.06,1.6,2,2.3a18.31,18.31,0,0,0,4.89,2.66c1.44.51,2.37.24,3.17,1.53.57.92,1.11,1.89,1.64,2.84,1,1.79,2.45,3.14,4.64,2.66,2.92-.63,6-4.07,8.24-5.88s4.05-4.5,6.56-6.17c6.08-4.07,13.86,3.71,17.18,8.21s6.66,9.21,10.46,13.58c7.79,9,14.74,17.8,19.16,28.95,1,2.42-1.48,5.17-3.89,5.09a16.71,16.71,0,0,1-5.08-.94c1.12,2.35-.85,5.18-3.21,5.62.21.29.43.58.63.87a3.4,3.4,0,0,1-.54,4.67l1.94,2.75A3.31,3.31,0,0,1,391,583c2.18,1.12,4.19,2.06,5.57,2.69,2.41,2.44,17.8-17,19.65-18.81a5.14,5.14,0,0,1,2.4-1.52,4.31,4.31,0,0,1,3.19,1c4.48,3.14,6.27,8.51,9.5,12.7,1.52,2,3.2,4,5.63,4.86,2.69,1,5.64-.25,8,2s2.35,6.41,5.21,7.8l-4.3,5.7c2.18,1.87,4.82.48,7.29,1.22,4.87,1.47,7.28,7,11.88,9.22,7.67,3.59,9-1.75,10.89-7.25C478.42,595.5,516.81,615.7,515.1,608.23Z"/><path d="M311.07,483.52c.33-.13.68-.23,1-.33s.62-.18.82-.05.09.05,0,.13-.2.12-.26.16l-.25.22c-.31.3-.59.64-.91,1s-.33.38-.53.55c-1.2,1-2.78,1.67-3.86,2.82a7.16,7.16,0,0,0-1.53,4.14c-.48-.19-2.06-.76-2.05-1.33,0-.82,1.5-2.35,1.82-3.12a6.51,6.51,0,0,1,3.15-3.25C309.34,484,310.24,483.86,311.07,483.52Z"/><path d="M373,436c-2.48.32-5.08,1.1-7.56,1.11-7.89.05-13.44-7.6-20.6-10.94-5.88-2.74-12.86-2.44-19-.34s-11.58,5.86-16.66,9.92c-4.7,3.75-9.23,7.88-12.34,13-2.09,3.47-6.64,14.47-2.47,17.85s13.16-.77,18.25,2.21c2.57,1.52,4.42,4.21,7.23,5.24a25.13,25.13,0,0,0,4.42.81c2.68.46,5.23,1.61,7.93,1.89s5.85-.62,7-3.08a11.14,11.14,0,0,1-3.24-4.78c-.5-1.88.74-2.12,2.49-3,2.41-1.17,4.55-1.13,5.92,1.17s2.3,5.09,4.59,6.47c2.49,1.48,5.64.78,8.44,0l14.39-3.86c.14-3-3.84-5-3.53-8,.24-2.24,2.7-3.38,4.66-4.5a18.39,18.39,0,0,0,8.09-9.5c1.39-3.74,1.14-8.69-2.22-10.85A8.4,8.4,0,0,0,373,436Z"/><path d="M294.56,467.51l.32-.87-.2-.07A3,3,0,0,0,294.56,467.51Z"/><path class="cls-1" d="M337.72,476.42c-5.21-.82-4.13-9.19-.74-11.28a6.55,6.55,0,0,1,8.63,2c1.82,2.85,1.13,6.74,2.76,9.7.87,1.57,2.38,2.89,2.51,4.68s-2.71,3.29-3.34,1.61"/><path d="M364.35,445.33a7.19,7.19,0,0,0,0-3.39,11.87,11.87,0,0,1,.31-4,6.15,6.15,0,0,1,2.29-3.87,6.67,6.67,0,0,1,3.84-1.16,6.42,6.42,0,0,1,3.53.78c1,.81,1.68,2.82,2.34,3.92a6.66,6.66,0,0,1,.46,4.54,6,6,0,0,1-2.18,4.13,19.76,19.76,0,0,1-10.18,2.87c-1.75.08-3.6-1.44-4.73-2.71s-2.6-3.67-2.72-5.4c-.24-3.33,3.34-5.41,6-6.22,1.63-.49,3.32-.82,4.81.25a9.72,9.72,0,0,1,2.72,3.46,18.12,18.12,0,0,1,2.2,4.51,6.35,6.35,0,0,1,.47,2.59,21.32,21.32,0,0,0-.28,2.94,8.36,8.36,0,0,1-.65,3.26,3.31,3.31,0,0,1-1.74,1.84,10.89,10.89,0,0,1-2.81,1.13c-.62.15-1.28.07-1.91.17-1.09.19-1.12.14-1.8-.89"/><path d="M363.45,444.89c-1.17-.84-1.34-2.11-1.43-3.43a6,6,0,0,0-.16-1.37,1.84,1.84,0,0,1,.42-1.88c1.11-1.46,3.22-2,4.86-2.57a6.27,6.27,0,0,1,2.13-.47c.68,0,1.34.29,2,.3a4.74,4.74,0,0,1,1.13-.05c.42.11.75.4,1.19.49a2.33,2.33,0,0,1,1.11.32,7.9,7.9,0,0,1,.95.8,4.84,4.84,0,0,1,1.49,1.69,14.54,14.54,0,0,1,.7,2.24,6.23,6.23,0,0,1,.07,1.06c0,.44.19.84.21,1.28a6.1,6.1,0,0,1-1.22,3.27c-1.11,1.93-3.44,3.1-5.36,4.11a11.44,11.44,0,0,1-4.86,1.27,26.56,26.56,0,0,1-2.81-.21,9.68,9.68,0,0,1-2.57-.38,8.6,8.6,0,0,1-2.5-1.42,19.65,19.65,0,0,1-2.34-2,6.18,6.18,0,0,1-1.26-2.72,8.71,8.71,0,0,0-.18-1.6,5.41,5.41,0,0,1-.47-1.59,6.64,6.64,0,0,1,1.76-5.38,21.44,21.44,0,0,1,3.27-2.82c.79-.48,1.61-.91,2.4-1.39a6,6,0,0,1,2.82-.79,4,4,0,0,1,1.73.14,5.08,5.08,0,0,1,1.58.53c1.29,1,1.62,2.54,2.64,3.67.22.24.45.34.64.63s.48.84.72,1.26a11.06,11.06,0,0,1,1.07,2.08,7,7,0,0,1,.36,2.61,3.63,3.63,0,0,1-1.37,2.64,9.82,9.82,0,0,1-2.91,2.27,13,13,0,0,1-4.79,1.07,10,10,0,0,1-4.92-.73,10.88,10.88,0,0,1-2.31-1.23,11.44,11.44,0,0,1-1.47-1.83c-1-1.35-.9-3.2-1-4.77,0-.31-.18-1.06,0-1.34s.58-.37.79-.5"/><path d="M368.06,458.42c-1.17-.84-1.34-2.12-1.43-3.43a5.82,5.82,0,0,0-.16-1.37,1.85,1.85,0,0,1,.42-1.88c1.11-1.46,3.22-2,4.86-2.57a6.27,6.27,0,0,1,2.13-.47c.69,0,1.34.29,2,.3A4.8,4.8,0,0,1,377,449c.41.11.74.39,1.18.48a2.58,2.58,0,0,1,1.11.32,8.13,8.13,0,0,1,.95.81,4.71,4.71,0,0,1,1.49,1.68,13.34,13.34,0,0,1,.7,2.25,6.23,6.23,0,0,1,.07,1.06c0,.44.19.84.22,1.28a6.19,6.19,0,0,1-1.23,3.27c-1.11,1.93-3.43,3.1-5.36,4.11a11.59,11.59,0,0,1-4.86,1.27c-1,0-1.86-.12-2.8-.21a10.12,10.12,0,0,1-2.58-.38,8.6,8.6,0,0,1-2.5-1.42,19.61,19.61,0,0,1-2.34-2,6.2,6.2,0,0,1-1.26-2.71,7.85,7.85,0,0,0-.18-1.6,5.47,5.47,0,0,1-.47-1.6,6.59,6.59,0,0,1,1.77-5.37,20.82,20.82,0,0,1,3.26-2.82c.79-.48,1.61-.92,2.4-1.39a6,6,0,0,1,2.83-.79,4.06,4.06,0,0,1,1.73.14,5.26,5.26,0,0,1,1.58.53c1.28,1,1.61,2.53,2.63,3.67.22.24.45.34.64.63s.48.84.72,1.26a9.75,9.75,0,0,1,1.07,2.08,7,7,0,0,1,.36,2.61,3.58,3.58,0,0,1-1.36,2.64,10.08,10.08,0,0,1-2.91,2.27,13,13,0,0,1-4.79,1.07,9.87,9.87,0,0,1-4.93-.74,10.84,10.84,0,0,1-2.31-1.22,11.44,11.44,0,0,1-1.47-1.83c-1-1.35-.9-3.2-1-4.77,0-.31-.18-1.06,0-1.35s.58-.36.78-.49"/><path class="cls-2" d="M558.16,630.35c-4.77-9.35-12.38-16.43-21-22.2-5.51-3.68-11.29-6.95-16.73-10.72-4.58-3.17-10.83-5.72-14.88-9.44-.91-.84-1.45-1-2.08-.89-2.09.66-9.61-3.53-11.46-4.72-8.59-5.52-10-7-17.4-14.41a72.65,72.65,0,0,1-10.09-12.41c-2.38-3.74-4.36-9.2-8.47-10.78-1.92-.74-4-.41-6-.14a102,102,0,0,1-65.82-13.82c-.15,6.77.88,13.42.77,20.11-.14,8.07-1.82,14.86.1,22.9,2.09,8.76,7.16,17.36,14.12,21.89,3.51,2.28,7.65,3.21,11.33,5.13,7.54,3.91,13.44,11.11,18.63,18.33,3.93,5.49,13.26,7,18.72,10.59a48.47,48.47,0,0,1,16.6,18.66c2.88,5.78,4.59,12.13,7.93,17.66,2.46,4.08,6.25,8,7.37,12.74,1.18,5-1,9.76,3.11,14,1.92,2,18.22,7.06,20.83,6.8.86-4.29-15.71-11.34-17.19-15.35-1.92-5.23,9-10.52,8.22-16.17-1.95-15-7.62-30.44,3.17-39.18,11.23-9.1,26.38-12.05,39.85-10,5,.79,17.9,21.25,22.5,23.69C559.3,641.44,564.53,642.87,558.16,630.35Z"/><path class="cls-3" d="M567.6,652.72a40.3,40.3,0,0,0-1.62-5.66,32,32,0,0,0-1.45-4.19c-6.06-14-21.08-26.79-35.81-27.51-1.6-.08-5.59.23-7.19.38-10,1-19.22,4.46-25.63,12.49C491,634.38,481.54,649,474.8,663c-11.45,9.38-22.39,19.43-31.74,31-9.67,12-16.43,25.37-23.63,38.62a226.15,226.15,0,0,1-13.28,22c-.34.49-.68.94-1,1.37a36.41,36.41,0,0,0-6.78,6.91c-2.9,7.9-3.23,17.76.09,25.12,2.9,6.44,7.4,11.73,10.65,17.81l14.79,23.3c4.5,7.07,8.91,14.53,14.47,20.84,10.48,11.88,16.78,24.93,23.07,39,2.81,6.27,2.19,30.2-4.72,34-.33.18-1.82,1.41-2.16,1.55-3.59,1.57-6.62,4.69-10.14,6.55-3,1.6-6.29,2.37-9.35,3.87-6,3-11.81,7.11-18.59,7.65a1.62,1.62,0,0,0-1.13.37,2.56,2.56,0,0,0-.44,2.37,3.69,3.69,0,0,0,.83,1.62c.2.22.47.39.67.61s.2.39.34.56a8.88,8.88,0,0,0,3.44,2.3,15.7,15.7,0,0,0,5.53,1.35,17.64,17.64,0,0,0,2.08.23c.47,0,.88-.19,1.36-.2,1.51,0,3-.69,4.48-.93.71-.11,1.38-.36,2.1-.49a13.47,13.47,0,0,1,2-.35c.58,0,1.17,0,1.75,0,1.14,0,2.24-.21,3.38-.19,3.2,0,6.34-1.25,9.57-1.39a71,71,0,0,0,11.88-1.27c6.68-1.38,12.94-4.61,19.79-5.2,4.88-.43,14.58,2.71,17.31-3a7.74,7.74,0,0,0,.27-4.33c-.78-6.12-1-12.63-2.42-18.72a38.72,38.72,0,0,0-1.69-5.62C491.31,894.47,483.1,878,478.1,861.8c-3.58-11.64-4-27.78-8.84-38.8a17,17,0,0,1-1.05-1.91c-.18-.61,0-1-.29-1.69-.39-1-1.21-1.56-1.36-2.63a9.29,9.29,0,0,0-.27-2.28,67.17,67.17,0,0,0-3.32-7.7,80.9,80.9,0,0,1-3.27-8.28c-2.72-6.85-6.73-13.28-11-19.46,16.09-12.61,33.76-23.35,50.11-35.67q18-13.53,35.2-28c9.85-8.28,21.44-16.26,27.76-27.75C567.81,676.66,569.94,664,567.6,652.72Z"/><path class="cls-4" d="M385.94,533.75c.06-.16.1-.32.17-.48,0-.33.12-.61.35-.68s.2-.24.3-.36c-2.08-6.59-5.36-12.54-4.81-19.26.69-8.5,2.69-17.54,10.44-23.46a18.15,18.15,0,0,1,9.2-3.7,5.07,5.07,0,0,1-1.7-3.75,23.31,23.31,0,0,0-5.3,1.45c-10.47,4.17-15,14.25-16.54,23.43-1.33,8,1.35,17.76,6.53,29A4.42,4.42,0,0,1,385.94,533.75Z"/><path class="cls-5" d="M454.75,526.72c-1.46-2-2.88-3.93-4.37-5.85,0,2.29-.28,4.61-.31,6.87-.05,4.84.15,12.07.35,16.9l1.68-.21c1.18-.33,1.49.21,2.14-.11a1.71,1.71,0,0,1,1.48.12c-.2-4.87-1-10.88-1-15.76C454.72,528,454.73,527.37,454.75,526.72Z"/><path class="cls-1" d="M420.42,518.46c4.72-8.4-8.15-15.63-5.62-24.33,2.11-7.27,3.85-14.69,5.35-22,.74-3.55,4.46-7.94,5.84-11.5,3.59-9.21,7.18-22.52,6-32.58-.56-4.66-4.9-10.7-6-15.29-1.85-8.11-5.87-11.3-9.74-19.78l.28-.24c3.17-2.7,3.49-7.09,2.18-10.55-6-16,2.59-19.53,2.26-22.15-.65-5.24-4.52,3.83-5.16-1.41l-.36-1.09a11.06,11.06,0,0,1-2.73,3.48c-.91.89-2,1.52-2.95,2.37-.66.59-1.32,1.22-2,1.79a14.44,14.44,0,0,0-4.78,8.66,44.86,44.86,0,0,0-.11,14.94,7,7,0,0,0,1.2,3.07,7.43,7.43,0,0,0-.21,1c-1.69,12.41-1.37,23-1.56,35.58-.1,6.62-1.91,15.77-1,22.51a101.22,101.22,0,0,0-18,9.23C378.54,463.34,373.85,467,371,472c-4.6,8.11-3.59,18.19-1.45,27.27,1.57,6.64,3.71,13.25,7.49,18.94a34.16,34.16,0,0,0,10.7,10.37"/><path class="cls-1" d="M411.51,397a7.51,7.51,0,0,0,1.11-2.54c.14-.75-.17-1.53,0-2.28.86-3.09,3.2-5.43,4-8.59.18-.68,3.36-4.42,3.15-5.09-.39-1.23-3.58-.38-4.85-.15-3.13.56-4.76,4.38-7,6.28a2,2,0,0,1-1.06.55c-1,.06-1.47-1.25-1.49-2.26-.11-4.64,2.17-9.23,4.8-12.93,3.49-4.9,5.74-10,10.83-14.29,1-.81.43-2.88-.76-3.3a2.26,2.26,0,0,0-1.36,0,14.1,14.1,0,0,0-5.14,2.76,45.31,45.31,0,0,0-8.67,9.7c-3.52,5-6.72,10.72-6.36,16.83.28,4.86,2.78,9.27,4.17,13.93a9.71,9.71,0,0,0,1.9,4.17c3.48,3.55,6.79-3.12,7.75-5.75"/><path d="M180,222.9V230h6.9V222.9H190v17.26h-3.11v-7.34H180v7.34H176.9V222.9Z"/><path d="M204.32,236.61a5.76,5.76,0,0,1-5.57,3.7c-4.34,0-6.26-2.71-6.26-6.76s2.71-6.53,6.43-6.43c3,.07,5.75,2.34,5.45,6.46l-.05.39h-8.73c0,2.2.94,3.7,3.18,3.7a2.87,2.87,0,0,0,2.79-2Zm-3.13-4.21c.05-2-1-2.94-2.54-2.89a2.88,2.88,0,0,0-2.91,2.89Z"/><path d="M207.26,228.06a15.36,15.36,0,0,1,4.88-.94c3.9,0,5.33,1.92,5.33,4.93v5.23a.65.65,0,0,0,.61.74,2.48,2.48,0,0,0,1-.15v2a5.09,5.09,0,0,1-2,.39,2.33,2.33,0,0,1-2.34-1.75,5.67,5.67,0,0,1-3.9,1.75c-2.52,0-4.39-1.28-4.41-4s2-4.09,5.25-4.09a22,22,0,0,1,2.79.24v-.76c0-1.41-.89-2.17-2.67-2.15a10.39,10.39,0,0,0-4,.79Zm7.15,6a13,13,0,0,0-2.51-.15c-1.48.07-2.42.76-2.45,2.07a1.82,1.82,0,0,0,2.1,1.9,5.06,5.06,0,0,0,2.86-1Z"/><path d="M233.3,221.32v18.84h-2.56l-.35-2.22a4.5,4.5,0,0,1-4.12,2.37c-3.47.05-5.54-2.83-5.54-6.63,0-4.64,3-6.56,5.52-6.56a4.09,4.09,0,0,1,4,2.44v-7.84Zm-9.42,12.33c0,2.2.87,3.92,3.16,3.92s3.25-1.72,3.25-3.89c0-2.94-1.57-4-3.28-4S223.88,230.82,223.88,233.65Z"/><path d="M244,227.24l.45,2.3a4.33,4.33,0,0,1,4-2.45,3.77,3.77,0,0,1,3.85,2.4,4.55,4.55,0,0,1,4.17-2.4c3,0,4.21,2,4.21,4.64v8.43h-3.06v-7.44c0-2-.46-3-2.14-3-2.22,0-2.81,1.68-2.81,3.58v6.9h-3.06v-7.44c0-2-.47-3-2.14-3-2.37,0-2.84,1.9-2.84,4v6.51h-3.06V227.24Z"/><path d="M266.7,227.24v7.45c0,2,.79,3,2.59,3,2.34,0,3.3-2.41,3.3-4.86v-5.62h3.06v12.92h-2.44l-.44-2.81a4.72,4.72,0,0,1-4.47,3c-3.15,0-4.66-1.95-4.66-5.2v-7.87Z"/><path d="M279.16,236.46a6.68,6.68,0,0,0,4.19,1.43c1.48,0,2.34-.44,2.34-1.5,0-2.51-7.47-.84-7.23-5.57.1-2.32,1.8-3.7,5.23-3.7a10.49,10.49,0,0,1,4.66,1.21l-1.08,2.17a7.25,7.25,0,0,0-3.7-1.06c-1.21,0-2.22.39-2.17,1.4.15,2,7.32.47,7.32,5.45,0,2.66-2.39,4.05-5.45,4a8.78,8.78,0,0,1-5.3-1.68Z"/><path d="M295.19,223.59v3.78h3.25l-.42,2.46h-2.83v5.92c0,1.41.64,1.95,1.67,1.95a5.72,5.72,0,0,0,1.95-.57l.57,2.34a7.94,7.94,0,0,1-3.28.84c-3,0-4-2-4-4.14v-6.34h-1.8v-2.46h1.95l.37-3.43Z"/><path d="M309.54,221.32v8.22a4.42,4.42,0,0,1,4.32-2.42c2.44.07,5.05,1.73,5.05,6.48,0,3.9-2,6.71-5.45,6.71a4.28,4.28,0,0,1-4.07-2.37l-.42,2.22h-2.49V221.72Zm-.12,12.36c0,2.22.81,4,3.25,4,2,0,3.11-1.5,3.11-4,0-3-1.5-3.95-3.13-3.95S309.42,231.09,309.42,233.68Z"/><path d="M333,236.61a5.78,5.78,0,0,1-5.58,3.7c-4.34,0-6.26-2.71-6.26-6.76s2.71-6.53,6.43-6.43c3,.07,5.75,2.34,5.45,6.46l0,.39h-8.73c0,2.2.93,3.7,3.18,3.7a2.87,2.87,0,0,0,2.78-2Zm-3.14-4.21c.05-2-1-2.94-2.54-2.89a2.89,2.89,0,0,0-2.91,2.89Z"/><path d="M176,261.16v12.92H173V263.7h-1.8v-2.54Zm-1.55-5a1.64,1.64,0,0,1,1.82,1.55,1.82,1.82,0,0,1-3.62,0A1.59,1.59,0,0,1,174.48,256.13Z"/><path d="M181.61,261.16l.47,2.29a4.78,4.78,0,0,1,4.41-2.42c3,0,4.49,2,4.49,4.61v8.44h-3.06v-7.45c0-2-.74-3-2.42-3-2.34,0-3.25,1.9-3.25,4v6.51h-3.06V261.16Z"/><path d="M197.15,255.24v14.62c0,1.38.61,1.75,1.52,1.75a2.38,2.38,0,0,0,1.29-.47l.56,2.2a5.32,5.32,0,0,1-2.78.88c-2.57,0-3.65-1.72-3.65-4.06V255.61Z"/><path d="M206,261.16v12.92h-3.08V263.7h-1.8v-2.54Zm-1.55-5a1.65,1.65,0,0,1,1.82,1.55,1.82,1.82,0,0,1-3.62,0A1.59,1.59,0,0,1,204.45,256.13Z"/><path d="M211.57,261.16l.47,2.29a4.8,4.8,0,0,1,4.42-2.42c3,0,4.48,2,4.48,4.61v8.44h-3.05v-7.45c0-2-.74-3-2.42-3-2.34,0-3.25,1.9-3.25,4v6.51h-3.06V261.16Z"/><path d="M235.4,270.53a5.75,5.75,0,0,1-5.57,3.69c-4.34,0-6.27-2.71-6.27-6.75s2.71-6.54,6.44-6.44c3,.08,5.74,2.35,5.45,6.46l0,.4h-8.73c0,2.19.94,3.7,3.18,3.7a2.89,2.89,0,0,0,2.79-2Zm-3.13-4.22c0-2-1-2.93-2.54-2.89a2.87,2.87,0,0,0-2.91,2.89Z"/><path d="M245.24,261.16l2.52,9H248l2.52-9h3.15l2.55,9h.17l2.56-9h3.18l-4.34,12.92h-3l-2.64-8.73h-.19l-2.55,8.73h-3l-4.24-12.92Z"/><path d="M268.08,261.16v12.92H265V263.7h-1.8v-2.54Zm-1.55-5a1.65,1.65,0,0,1,1.82,1.55,1.82,1.82,0,0,1-3.62,0A1.59,1.59,0,0,1,266.53,256.13Z"/><path d="M275.21,257.51v3.77h3.25l-.42,2.46h-2.83v5.92c0,1.41.64,1.95,1.67,1.95a5.5,5.5,0,0,0,1.95-.57l.57,2.35a8.15,8.15,0,0,1-3.28.83c-3,0-4-2-4-4.14v-6.34h-1.8v-2.46h1.95l.37-3.43Z"/><path d="M284.41,255.24v8a4.81,4.81,0,0,1,4.24-2.2c3,0,4.49,2,4.49,4.61v8.44h-3.06v-7.45c0-2-.74-3-2.42-3-2.34,0-3.25,1.9-3.25,4v6.51h-3.06V255.61Z"/><path d="M305.32,257.51v3.77h3.26l-.42,2.46h-2.84v5.92c0,1.41.64,1.95,1.68,1.95A5.5,5.5,0,0,0,309,271l.56,2.35a8.15,8.15,0,0,1-3.28.83c-3,0-4-2-4-4.14v-6.34h-1.8v-2.46h2l.37-3.43Z"/><path d="M314.52,255.24v8a4.83,4.83,0,0,1,4.24-2.2c3,0,4.49,2,4.49,4.61v8.44h-3.06v-7.45c0-2-.74-3-2.41-3-2.35,0-3.26,1.9-3.26,4v6.51h-3.06V255.61Z"/><path d="M337.66,270.53a5.77,5.77,0,0,1-5.58,3.69c-4.34,0-6.26-2.71-6.26-6.75s2.71-6.54,6.43-6.44c3,.08,5.75,2.35,5.45,6.46l0,.4h-8.73c0,2.19.93,3.7,3.18,3.7a2.87,2.87,0,0,0,2.78-2Zm-3.14-4.22c.05-2-1-2.93-2.54-2.89a2.89,2.89,0,0,0-2.91,2.89Z"/><path d="M229.89,289.15v8.21A4.39,4.39,0,0,1,234.2,295c2.44.07,5.06,1.72,5.06,6.48,0,3.9-1.95,6.71-5.45,6.71a4.27,4.27,0,0,1-4.07-2.37l-.42,2.22h-2.49V289.55Zm-.13,12.36c0,2.21.82,4,3.26,4,2,0,3.11-1.5,3.11-4,0-3-1.51-3.95-3.13-3.95C231.22,297.51,229.76,298.92,229.76,301.51Z"/><path d="M247.77,295c3.23,0,6,2.19,6,6.6,0,3.63-2.14,6.59-6.16,6.59-4.37,0-6.17-3-6.17-6.59C241.48,297.14,244.27,295,247.77,295Zm-3.08,6.6c0,2.05.69,4,3,4,2.09,0,3-1.95,3-4,0-2.86-1.41-4-3-4C246.07,297.54,244.69,298.65,244.69,301.55Z"/><path d="M268.61,289.15V308H266l-.34-2.22a4.53,4.53,0,0,1-4.12,2.37c-3.48.05-5.55-2.84-5.55-6.63,0-4.64,3-6.56,5.53-6.56a4.11,4.11,0,0,1,4,2.44v-7.84Zm-9.42,12.33c0,2.2.86,3.92,3.16,3.92s3.25-1.72,3.25-3.89c0-2.94-1.58-4-3.28-4S259.19,298.65,259.19,301.48Z"/><path d="M273.94,295.07l3.18,9.12h.2l2.91-9.12h3.15l-4.78,13.12c-1.58,4.31-3.06,5.4-7.62,4.44l.54-2.59c2.91.71,3.31,0,4.22-2.49l-4.86-12.48Z"/><text class="cls-6" transform="translate(592.47 429.59)">S<tspan class="cls-7" x="14.95" y="0">t</tspan><tspan class="cls-8" x="24.89" y="0">r</tspan><tspan x="34.83" y="0">aight </tspan><tspan x="12.55" y="33.91">elb</tspan><tspan class="cls-9" x="49.65" y="33.91">o</tspan><tspan class="cls-8" x="63.61" y="33.91">w</tspan><tspan x="83.91" y="33.91">s</tspan></text><text class="cls-6" transform="translate(284.85 870.06)"><tspan class="cls-10">F</tspan><tspan x="12.43" y="0">eet </tspan><tspan class="cls-9" x="0" y="33.91">t</tspan><tspan x="9.5" y="33.91">ogether </tspan></text><path d="M354.2,863.54A47.45,47.45,0,0,1,378.66,861c8.43,1.45,16,5.32,23.21,9.86,1.64,1,3.14-1.55,1.52-2.59-7.5-4.75-15.55-8.81-24.38-10.24a50.45,50.45,0,0,0-25.61,2.64c-1.79.66-1,3.56.8,2.89Z"/><path d="M394.2,874.11c3.74-.64,7.41-1.65,11.09-2.57a1.52,1.52,0,0,0,.9-2.21c-.91-1.69-1.74-3.42-2.63-5.13s-1.7-3.12-2.52-4.71a1.5,1.5,0,1,0-2.59,1.51c.82,1.59,1.7,3.14,2.52,4.72s1.72,3.44,2.63,5.13l.9-2.2c-3.69.92-7.35,1.92-11.1,2.57a1.5,1.5,0,1,0,.8,2.89Z"/><path d="M586.88,442.37c-9.62,5.72-19.3,11.39-29.1,16.81a59.28,59.28,0,0,1-5.47,2.87,1.51,1.51,0,0,0-.54,2.05,1.54,1.54,0,0,0,2.05.54c4.3-1.83,8.37-4.47,12.41-6.78q8.44-4.83,16.83-9.76c1.78-1,3.56-2.08,5.34-3.14a1.5,1.5,0,0,0-1.52-2.59Z"/><path d="M554.26,453.55c-1.67,3.57-3,7.27-4.38,10.94-.38,1,.58,1.8,1.45,1.9,1.87.22,3.73.52,5.59.76.94.12,1.87.23,2.81.31l.54.05.32,0h.06l1.3.18a1.54,1.54,0,0,0,1.84-1.05,1.5,1.5,0,0,0-1-1.84c-1.87-.26-3.75-.43-5.62-.67s-3.86-.57-5.8-.79l1.44,1.9c1.3-3.43,2.52-6.9,4.08-10.22a1.54,1.54,0,0,0-.54-2.05,1.51,1.51,0,0,0-2,.53Z"/><path d="M346.07,248.59a53.16,53.16,0,0,1,31.42,21.71,91.22,91.22,0,0,1,6.76,12.2c.85,1.8,3.53.23,2.68-1.57-3.31-7-7.24-13.84-12.59-19.53a54,54,0,0,0-16.28-11.83,62.37,62.37,0,0,0-11.17-4c-1.93-.49-2.76,2.5-.82,3Z"/><path d="M375.13,280.45c3.84,1.72,7.81,3.09,11.75,4.53,1,.38,1.88-.58,2-1.5.19-2.05.44-3.76.67-5.83.19-1.75.3-3.5.49-5.24a1.55,1.55,0,0,0-1.55-1.55,1.59,1.59,0,0,0-1.55,1.55c-.2,1.74-.31,3.49-.5,5.24-.21,1.94-.49,3.88-.67,5.83l2-1.49c-3.69-1.35-7.43-2.61-11-4.22a1.6,1.6,0,0,0-2.12.56,1.56,1.56,0,0,0,.56,2.12Z"/><text class="cls-11" transform="translate(123.84 75.39)">The s<tspan class="cls-12" x="73.14" y="0">t</tspan><tspan x="85.05" y="0">a</tspan><tspan class="cls-13" x="102.27" y="0">r</tspan><tspan x="115.68" y="0" xml:space="preserve">t position  is a</tspan><tspan class="cls-14" x="310.85" y="0">l</tspan><tspan x="319.34" y="0" xml:space="preserve">l about  pos</tspan><tspan class="cls-12" x="482.78" y="0">t</tspan><tspan x="494.69" y="0">u</tspan><tspan class="cls-15" x="512.93" y="0">r</tspan><tspan x="525.05" y="0">e</tspan></text><circle cx="79" cy="61.53" r="34.44"/><text class="cls-16" transform="translate(67.45 75.26)">1</text></svg>