<svg id="Layer_1" data-name="Layer 1" xmlns="http://www.w3.org/2000/svg" viewBox="0 0 780 1051.14"><defs><style>.cls-1{fill:none;stroke-width:1.4px;}.cls-1,.cls-2,.cls-3,.cls-4,.cls-5,.cls-6{stroke:#fff;stroke-miterlimit:10;}.cls-2,.cls-5{fill:#d4a47c;}.cls-2{stroke-width:0.27px;}.cls-3{fill:#fff171;stroke-width:0.3px;}.cls-4{fill:#005058;stroke-width:0.47px;}.cls-5{stroke-width:0.3px;}.cls-6{fill:#c6946f;stroke-width:0.42px;}.cls-7,.cls-8{fill:#fff;}.cls-7{opacity:0.7;}</style></defs><path class="cls-1" d="M370,601.66c.64,1.81,1.6,3.39,2.08,5.25.27,1.08.48,2.18.75,3.24.52,2,.72,4.31,1,6.41A42,42,0,0,0,375.3,624c.81,2.33,2.06,4.79,2.07,7.28,0,1.17.33,2.12.44,3.26a22.87,22.87,0,0,0,.08,2.34,31.59,31.59,0,0,0,2.38,7.52c1.15,2.38,2.81,4.55,4.07,6.86s2.44,4.51,5.13,5.49a.86.86,0,0,0,.06-.72"/><path class="cls-1" d="M369.1,599.92l-.43.44"/><path class="cls-2" d="M526.57,665.41c-.22-1.42-1.38-2.49-2.47-3.43-21.16-18.38-42.35-36.77-65-53.24-14.9-10.82-30.88-21-48.88-24.89-12.27-2.67-25.71-1.93-37.09,3l-1.33-.7c-2.61-1.42-5.29-3.28-5.43-5.77a48,48,0,0,0-1-9.09c-.31-1.29-.54-2.09-.89-3.38s-1.18-3.73-.31-4.85,2.21,0,3.23.44c.84.35,1.73.26,2.6.54a7.31,7.31,0,0,0,1.86.64,6.18,6.18,0,0,0,4.32-1.35c1.25-1.24,1.13-3.22,2.17-4.56a5.42,5.42,0,0,1,1.75-1.27,2.63,2.63,0,0,1-1-1.3c-1.4-3.65-.23-7.41-.36-11.17a19.6,19.6,0,0,0-3.42,0,28.57,28.57,0,0,1-5.39-.18c-1.62-.19-3.07.1-4.27-1-.93-.81-1.27-2.09-2.2-2.89a22.58,22.58,0,0,1-2-1.52,29.94,29.94,0,0,1-2.31-3.21c-1.7-2.38-3.66-4.65-5.47-7a24.52,24.52,0,0,0-7-6.27,19.59,19.59,0,0,0-9.23-2.38,43.92,43.92,0,0,0-7.42.3,73.59,73.59,0,0,0-10.51,2.58c-3.87,1.24-7.76,4-10.75,6.72-2.21,2-4.64,3.56-6.67,5.82a25.33,25.33,0,0,0-4.4,7.92c-.94,2.43-2.49,4.24-4,6.28-.74,1-1,2.32-1.73,3.42a29.43,29.43,0,0,0-2.43,4c-1.24,2.78-.42,5.23.34,8,.51,1.82,1.58,3.31,2.06,5.15a14.75,14.75,0,0,0,1,2.55c.46.92.61,1.88,1.06,2.81.22.45.58.72.83,1.18s.1.87.43,1.29a19.38,19.38,0,0,0,2.52,1.91,28.28,28.28,0,0,1,2.77,2.46,2.89,2.89,0,0,0,.27.29c0,.05-.07.19,0,.53a12.09,12.09,0,0,1-.24,2.81c-.28,2.4-.73,2.55-.78,5.31a27.87,27.87,0,0,0,.34,5.17,3.41,3.41,0,0,0,4.57,2.66,1.82,1.82,0,0,1,1.26,0,4.74,4.74,0,0,1,3,1.81,18.36,18.36,0,0,0,1.36,2.69,18.79,18.79,0,0,0,4.11,3.76c1.28.83,2.25.8,2.71,2.24.34,1,.63,2.1.92,3.15.55,2,1.63,3.63,3.87,3.69,3,.08,6.81-2.51,9.41-3.74s5-3.4,7.84-4.43c4.49-1.63,11.84,2.52,15.63,6.75a17.93,17.93,0,0,0,1.59,2.11h0a32.87,32.87,0,0,0,6.23,5.3,63.85,63.85,0,0,1,18,18l10,6.72c.71,2,3.45,3.44,4.89,4.87,10.6,10.62,26.79,5.52,40,5.81,12.17.27,23.73,5,35.54,7.89,15.65,3.88,31.93,4.65,48,4.09C522.47,670.34,527.1,668.81,526.57,665.41Z"/><path d="M304.26,571.59c.36-.05.72-.06,1.07-.08s.65,0,.81.15.07.06,0,.14-.22.06-.29.09a1.68,1.68,0,0,0-.3.15c-.38.22-.73.48-1.11.71a6.89,6.89,0,0,1-.64.4c-1.41.7-3.11,1-4.43,1.82a7.1,7.1,0,0,0-2.47,3.65c-.42-.3-1.82-1.23-1.68-1.78.2-.79,2-1.92,2.52-2.6a6.5,6.5,0,0,1,3.83-2.39C302.46,571.68,303.37,571.72,304.26,571.59Z"/><path d="M375.79,540.25c-2.48-.29-5.2-.15-7.61-.73-7.67-1.84-11.24-10.59-17.39-15.54-5.06-4.08-11.9-5.45-18.37-4.88s-12.65,2.93-18.55,5.65c-5.46,2.53-10.85,5.46-15.1,9.72-2.86,2.87-9.91,12.47-6.66,16.74s13,2.4,17.18,6.51c2.15,2.09,3.3,5.14,5.78,6.81a24.46,24.46,0,0,0,4.1,1.85c2.49,1.09,4.69,2.81,7.25,3.73s5.82.8,7.53-1.32a11.1,11.1,0,0,1-2-5.42c0-1.94,1.22-1.88,3.12-2.29,2.62-.57,4.69,0,5.47,2.55s1,5.49,2.92,7.37c2.06,2,5.29,2.11,8.18,2l14.9-.31c.85-2.86-2.53-5.8-1.52-8.6.76-2.12,3.43-2.64,5.6-3.26a18.4,18.4,0,0,0,10.13-7.29c2.24-3.3,3.18-8.17.43-11.07A8.4,8.4,0,0,0,375.79,540.25Z"/><path d="M292.06,552.1l.51-.77a1.77,1.77,0,0,1-.17-.12A2.69,2.69,0,0,0,292.06,552.1Z"/><path class="cls-2" d="M331.83,571.06c-4.86-2-1.81-9.91,2-11.13a6.55,6.55,0,0,1,7.91,4c1.09,3.21-.51,6.82.37,10.09.46,1.72,1.61,3.37,1.31,5.13s-3.42,2.55-3.62.78"/><path d="M365.12,547.23A7.18,7.18,0,0,0,366,544a11.84,11.84,0,0,1,1.25-3.78,6.1,6.1,0,0,1,3.14-3.2,6.8,6.8,0,0,1,4-.22,6.46,6.46,0,0,1,3.24,1.61c.79,1,1,3.14,1.34,4.36a6.7,6.7,0,0,1-.64,4.52,6,6,0,0,1-3.1,3.49,19.81,19.81,0,0,1-10.58.36c-1.71-.35-3.15-2.26-3.94-3.76s-1.65-4.19-1.35-5.9c.56-3.29,4.54-4.45,7.37-4.6,1.69-.08,3.41,0,4.61,1.4a9.82,9.82,0,0,1,1.81,4,18.1,18.1,0,0,1,1.05,4.91,6.39,6.39,0,0,1-.15,2.62,21.62,21.62,0,0,0-1,2.79,8.07,8.07,0,0,1-1.41,3,3.24,3.24,0,0,1-2.12,1.37,10.45,10.45,0,0,1-3,.42c-.64,0-1.26-.23-1.9-.28-1.1-.08-1.11-.13-1.53-1.3"/><path d="M364.35,546.59c-.94-1.09-.79-2.37-.57-3.68a5.51,5.51,0,0,0,.17-1.36,1.86,1.86,0,0,1,.86-1.73c1.43-1.15,3.61-1.2,5.33-1.33a6.2,6.2,0,0,1,2.19,0c.65.18,1.22.6,1.86.77a4.38,4.38,0,0,1,1.12.23c.38.2.63.55,1,.75a2.28,2.28,0,0,1,1,.57,9,9,0,0,1,.74,1,4.83,4.83,0,0,1,1,2,13.19,13.19,0,0,1,.14,2.35,5.37,5.37,0,0,1-.18,1c-.09.43,0,.86-.1,1.29a6.18,6.18,0,0,1-2,2.89c-1.54,1.6-4.08,2.19-6.18,2.7a11.4,11.4,0,0,1-5,.08c-.92-.23-1.78-.56-2.67-.87a10.19,10.19,0,0,1-2.41-1,8.56,8.56,0,0,1-2.09-2,18.2,18.2,0,0,1-1.79-2.51,6.25,6.25,0,0,1-.58-2.94,7.79,7.79,0,0,0,.21-1.6,5.11,5.11,0,0,1-.07-1.66,6.56,6.56,0,0,1,3-4.79,21.14,21.14,0,0,1,3.85-2c.88-.28,1.78-.51,2.66-.78a6.05,6.05,0,0,1,2.93-.1,4.35,4.35,0,0,1,1.65.55,5.14,5.14,0,0,1,1.41.9c1,1.27,1,2.85,1.68,4.19a4.52,4.52,0,0,1,.47.77c.16.44.26.93.4,1.39a10.71,10.71,0,0,1,.54,2.27,6.9,6.9,0,0,1-.28,2.63,3.62,3.62,0,0,1-1.95,2.24,9.76,9.76,0,0,1-3.37,1.5,12.82,12.82,0,0,1-4.9-.1,10,10,0,0,1-4.62-1.89,11.11,11.11,0,0,1-1.94-1.74,10.87,10.87,0,0,1-1-2.13c-.65-1.55-.11-3.32.2-4.87.07-.3.09-1.06.3-1.3s.65-.22.88-.29"/><path d="M365.6,560.83c-.94-1.09-.8-2.38-.57-3.68a5.51,5.51,0,0,0,.17-1.36,1.84,1.84,0,0,1,.86-1.73c1.43-1.15,3.61-1.2,5.33-1.33a6.14,6.14,0,0,1,2.18,0c.66.18,1.23.6,1.87.77a4.83,4.83,0,0,1,1.12.22c.38.21.63.56,1,.75a2.53,2.53,0,0,1,1,.58,8.18,8.18,0,0,1,.74,1,5,5,0,0,1,1,2,13.19,13.19,0,0,1,.14,2.35,5.29,5.29,0,0,1-.19,1c-.08.43,0,.87-.09,1.3a6.17,6.17,0,0,1-2,2.88c-1.54,1.61-4.08,2.19-6.18,2.71a11.7,11.7,0,0,1-5,.08,26.9,26.9,0,0,1-2.67-.88,10.16,10.16,0,0,1-2.41-1,8.56,8.56,0,0,1-2.09-2,18.2,18.2,0,0,1-1.79-2.51,6.26,6.26,0,0,1-.58-3,8.34,8.34,0,0,0,.21-1.59,5.42,5.42,0,0,1-.08-1.66,6.62,6.62,0,0,1,3-4.8,20.47,20.47,0,0,1,3.85-2c.87-.29,1.77-.51,2.66-.78a6.05,6.05,0,0,1,2.93-.1,4.24,4.24,0,0,1,1.65.55,5.14,5.14,0,0,1,1.4.89c1,1.28,1,2.85,1.69,4.2a5.72,5.72,0,0,1,.47.76c.16.45.26.94.39,1.4a10,10,0,0,1,.55,2.27A6.92,6.92,0,0,1,376,561a3.57,3.57,0,0,1-1.95,2.23,9.68,9.68,0,0,1-3.37,1.51,12.68,12.68,0,0,1-4.91-.11,9.91,9.91,0,0,1-4.61-1.88,11.11,11.11,0,0,1-1.94-1.74,11.51,11.51,0,0,1-1-2.13c-.64-1.55-.1-3.32.21-4.87.06-.3.08-1.06.3-1.31s.65-.22.88-.29"/><path class="cls-3" d="M445.86,599.51l-1.11-.91-1-.63a.94.94,0,0,0-.12-.09,1.72,1.72,0,0,1-.38-.17,3.29,3.29,0,0,0-.54,0h-.23c5.6,10.81,6.74,23.18,6.38,35.18-.09,3,4.61,3,4.7,0,.3-10.17-.53-20.51-3.86-30.11C448.4,601.78,447.14,600.62,445.86,599.51Z"/><path class="cls-3" d="M407.76,573.77c4.77,1.67,9.88,3,14.27,5.11a2.39,2.39,0,0,0,3.21-.84,2.36,2.36,0,0,0-.84-3.21c-4.95-2.35-10.24-3.78-15.39-5.59a2.36,2.36,0,0,0-2.89,1.64,2.41,2.41,0,0,0,1.64,2.89Z"/><path class="cls-3" d="M367.08,599.36c-5.32,15.29,5.89,29.41,11.25,42.92,1,2.48,5.05,1.4,4.05-1.12-2.71-6.82-6.47-13.15-9.26-19.94s-4.43-13.75-2-20.74c.89-2.56-3.17-3.66-4.05-1.12Z"/><path class="cls-4" d="M465.62,714.62c10.46-4.22,20-10.47,30.59-14.4,4.76-1.76,9.26-3.21,13.43-6.23,3.4-2.46,6.3-5.62,9.84-7.93,11.55-7.52,42.4,19.26,54.22,27.31-2.33-1.59-2.84-7.51-3.59-9.94a26.31,26.31,0,0,0-7.42-12.08c-4.21-4.13-8.88-9.19-13.69-12.57s-9.32-7.11-14-10.58c-4.46-3.28-8.91-7.12-13.84-9.66-4.15-2.11-17.33-2.88-21.83-3.82A123.67,123.67,0,0,1,486,651.24c-8.47-2.79-16.58-6.91-23.06-13.14-3.19-3.07-6.42-7.9-10.78-8.46-2-.26-4,.55-5.88,1.29-21.59,8.47-42.86,14.77-66,10.79a1.15,1.15,0,0,0-1.28,1.54c3.51,9.15,1.52,13.94,6.52,25.81.31,10.89,13.14,18.26,22.72,22.78a54.46,54.46,0,0,0,14.41,4.37c10.75,1.81,14.15,7.52,21.46,12.46,6.06,4.09,13.59,3.07,20.22,5.46C464.82,714.29,465.22,714.46,465.62,714.62Z"/><path class="cls-2" d="M422.72,608.33c4.59-19.45,13.45-66.73,24.73-81.55a26.18,26.18,0,0,0,5.62-13.56c1.42-3.62,2.63-7.06,3.67-9.73,7.28-18.65,10.83-31.77,14.43-51.35a38.86,38.86,0,0,0,.51-4.11,28.45,28.45,0,0,1,1-3.47c.64-1.7,1.53-3.36,2.33-5a32.2,32.2,0,0,1,1.72-3.16c.64-1,1.36-1.92,2-2.94l.22-.34a4.67,4.67,0,0,0,1.64-.36,6.82,6.82,0,0,0,1-.62c.2-.14.42-.24.61-.37s.33-.29.51-.41a10.07,10.07,0,0,0,1.07-.78,3.25,3.25,0,0,1,.81-.41,4.54,4.54,0,0,0,1.86-1.5c.41-.61.74-1.29,1.14-1.92.28-.45.62-.89.87-1.35s.44-.82.67-1.22a10.76,10.76,0,0,0,.64-1.57,16.27,16.27,0,0,1,2-3.42,6.93,6.93,0,0,1,1.19-1.29,6.73,6.73,0,0,0,1.16-1.34c.3-.42.67-.79,1-1.22s.63-.66.92-1a4.26,4.26,0,0,0,.87-1.25,5.25,5.25,0,0,0,.54-1.51,5.66,5.66,0,0,0-.49-2.13c-.05-.13,0-.26-.07-.39a1.07,1.07,0,0,0-.31-.45,2.55,2.55,0,0,0-.53-.51,3.4,3.4,0,0,0-1.35-.43,3.11,3.11,0,0,0-.68,0c-.14,0-.29,0-.44,0s-.25.14-.4,0a1.92,1.92,0,0,1,.06-.53c0-.18,0-.37,0-.54.24-1.54.51-3.08.72-4.63a29.48,29.48,0,0,1,.8-2.93,14.73,14.73,0,0,1,.67-2.14,3.92,3.92,0,0,0,.36-1.08c0-.35.08-.67.13-1a11.11,11.11,0,0,1,.31-1.74c.16-.53.22-1.09.43-1.61s.36-1.14.57-1.71a15.22,15.22,0,0,0,.52-1.9c.15-.62.35-1.21.47-1.84,0-.23.13-.44.17-.68s.12-.67.19-1c.18-.92.14-1.89.29-2.81a9.3,9.3,0,0,0,.24-2.73,1,1,0,0,0-.45-.69,1,1,0,0,1-.41-.36c-.18-.23-.36-.61-.67-.67a.64.64,0,0,0-.49.12s.05,0,.07-.08c.18-.41.22-.85.39-1.26a1.19,1.19,0,0,0,0-1.1,1.13,1.13,0,0,0-.73-.7,1.2,1.2,0,0,0-1.11.22,4.64,4.64,0,0,0-1.25,1.91,11.55,11.55,0,0,0-.88,2.49,5.87,5.87,0,0,1-.26,1.1c0-.43,0-.79-.48-1-.21-.09-.43-.22-.65-.11a4.33,4.33,0,0,0-.37.27,1.3,1.3,0,0,0-.29.33l-.28.52a4.14,4.14,0,0,0-.35.88,1.65,1.65,0,0,1-.13.53c-.16.41-.32.83-.49,1.24l-1,2.53c-.27.67-.53,1.35-.8,2-.2.5-.42,1-.6,1.51-.09.27-.11.55-.21.82a4.55,4.55,0,0,0-.25.67,8.48,8.48,0,0,1-.58,1.67,18.5,18.5,0,0,0-.56,1.93c-.08.27-.22.5-.28.78a2.44,2.44,0,0,1-.12.52,1.73,1.73,0,0,0-.1.45c0,.2-.15.37-.21.57-.12.41-.2.84-.28,1.25a4.17,4.17,0,0,1-.24.58c0,.16,0,.31-.09.48-.08.34-.28.64-.36,1a3.37,3.37,0,0,1-.19.69c-.18.44-.35.88-.52,1.32-.11.28-.22.57-.33.84s-.09.47-.18.71c-.21.63-.4,1.26-.64,1.88s-.48,1.24-.72,1.86a7.11,7.11,0,0,1-.4.89,6.24,6.24,0,0,1-.87,1.17c-.23.27-.47.53-.69.81s-.4.57-.6.86c-.44.65-.83,1.33-1.23,2a16,16,0,0,1-1.24,2,9.19,9.19,0,0,1-1.77,1.86c-.67.5-1.33,1-2,1.47-.55.33-1,.76-1.54,1.13l0,0c-.09.45-.2.88-.31,1.32-.61.75-1.17,1.55-1.77,2.3a18.55,18.55,0,0,0-1.47,2c-.48.8-.86,1.65-1.36,2.44-.4.62-.69,1.28-1.06,1.91-9.33,15.64-17.86,30.32-24.7,47.24-3.45,8.54-7.21,16.73-11.07,24.85-5,3.58-17.05,18.31-21.45,22.74-10.05,10.12-18.2,24-28.52,33.88-8.32,7.94-14.86,16.67-16.53,28.35a18.9,18.9,0,0,0,1.54,11.38c.87,1.67,2.07,3.15,3,4.78,2.57,4.42,3.25,9.88,6.48,13.84"/><path class="cls-5" d="M496.49,377.83l-.07.08s0,0,0,0Z"/><path class="cls-5" d="M496,379.19a1.78,1.78,0,0,1-.27.41l.36-.89.17-.47c0,.09-.07.18-.11.3S496.07,379,496,379.19Z"/><path class="cls-5" d="M493.18,407.77a2.19,2.19,0,0,1-.61.52c-.43.31-.82.66-1.25,1a11,11,0,0,0-.89.78c-.32.31-.64.61-.94,1a8.94,8.94,0,0,0-.62.76,6.3,6.3,0,0,0-.45.8c-.32.6-.61,1.21-.91,1.82a4.14,4.14,0,0,1-.88,1.31c-.51.5-1.09.92-1.6,1.42-.33.33-.61.68-.92,1a7,7,0,0,0-.57.75c-.22.3-.46.59-.67.9s-.25.31-.34.47-.09.23-.16.34a2.13,2.13,0,0,0-.18.41,4.83,4.83,0,0,1-.35.81c-.06.1-.14.44-.28.41"/><path class="cls-5" d="M494.66,413.35l.24-.27,1.34-1.6a2.89,2.89,0,0,0,.92-2,2.42,2.42,0,0,0-1.08-1.58,1.71,1.71,0,0,0-1.09-.45,1.81,1.81,0,0,0-1,.5,12.72,12.72,0,0,0-2.63,3.08,1.56,1.56,0,0,0-.29,1.15,1.48,1.48,0,0,0,.3.55,3.15,3.15,0,0,0,1.23,1,1.78,1.78,0,0,0,1.56-.05A1.91,1.91,0,0,0,494.66,413.35Z"/><path class="cls-5" d="M491.74,393.88a1.44,1.44,0,0,1-.33-.16c-.13-.11-.23-.24-.35-.36a3.79,3.79,0,0,0-.34-.2,2.26,2.26,0,0,0-.35-.17"/><path class="cls-5" d="M494,383.24a57,57,0,0,0-2.2,5.57l-.27.68c-1,2.52-2,5-2.86,7.56a2.15,2.15,0,0,0-.18.61c-.05.26-.26.51-.31.77-.22,1-.51,1.88-.73,2.86a4.14,4.14,0,0,1-.65,1.65c-.82.8-1.67,1.53-2.46,2.4a1.87,1.87,0,0,1-.92.78"/><path class="cls-5" d="M497.88,377.42c1.91,1.42.32,3.59-.11,4.3-.73,1.21-1.43,2.11-2.71,1.86a8,8,0,0,1-1,0"/><path class="cls-5" d="M493.73,378.5a4.22,4.22,0,0,0,1,.22c.2-.07.41-.11.6-.18a2.18,2.18,0,0,0,.79-.48,3.75,3.75,0,0,0,.66-1.43,3,3,0,0,0,.31-.85c0-.09,0-.17-.05-.26s0-.15.05-.22a1.58,1.58,0,0,0-.1-.56,1.85,1.85,0,0,0-.44-.95c-.19-.21-.82-.34-1.54.86Z"/><path class="cls-5" d="M489.87,383.17a3.66,3.66,0,0,0,1,.21c.19-.07.4-.1.59-.17a2.1,2.1,0,0,0,.79-.48,3.73,3.73,0,0,0,.66-1.44,2.7,2.7,0,0,0,.32-.84,2.56,2.56,0,0,1-.05-.27,2.25,2.25,0,0,1,.05-.22,2.2,2.2,0,0,0-.1-.56,2.12,2.12,0,0,0-.44-.95c-.2-.21-.83-.33-1.54.86Z"/><path class="cls-6" d="M576,716.38A29,29,0,0,0,566.59,698c-7.74-6.83-24.57-16.37-36.57-16.62C512,681,508.58,693.5,493.1,700.49c-22.93,10.36-46.2,21.07-65.39,35.88-15.18,11.71-17.51,17.55-33,28.7-3.29,2.37-14.53,15.58-17.59,18.22-5.16,4.44-3,13.47-3.78,20.35a22,22,0,0,0,4.26,15.56c3.49,4.72,6,8.92,10.39,12.8,4.54,4,3.91,6.26,8.12,10.64,7.26,7.58,15.5,14.36,21.45,23.12a119.1,119.1,0,0,0,15.09,18.14c11.59,11.37,19.15,24.22,26.82,38.1l.13-.07c1.63,3.85,3.09,7.11,1.8,7.59-.35.13-3.58.74-3.94.83-3.78,1-7.25,3.64-11,4.95-3.23,1.13-6.57,1.4-9.82,2.42-6.39,2-12.75,5.27-19.53,4.78a1.66,1.66,0,0,0-1.17.19,2.57,2.57,0,0,0-.79,2.28,3.66,3.66,0,0,0,.57,1.73c.17.25.42.45.57.7s.15.42.26.6a7.45,7.45,0,0,0,2.18,2.22,17.59,17.59,0,0,0,8.16,3.28c.47,0,.9,0,1.38,0a34.94,34.94,0,0,0,4.56-.25c.73,0,1.42-.15,2.15-.17a13.63,13.63,0,0,1,2-.05c.58.07,1.14.21,1.72.28,1.13.14,2.25.14,3.38.32,3.15.52,6.45-.29,9.66.07a73.13,73.13,0,0,0,11.93.53c5.89-.32,11.78-1.23,17.67-1.36,5.23-.12,11.52,1.47,16.23-1.49,2.62-1.65,1.34-6.17,1.9-9.22,1.95-10.69-3.61-17.78-10.47-24.69-1.42-1.42-2.85-2.85-4.26-4.29l-.1-.11c-.45-.57-.85-1.12-1.22-1.66-.48-.36-.94-.73-1.39-1.11l-.14-.13c-5.22-5.73-9.59-11.95-10.75-20a1.72,1.72,0,0,0-.43.65c-.79-3.95-1.25-8-2.44-11.92a12.68,12.68,0,0,1-.54-4.49,1.16,1.16,0,0,0-.05-.45c-4.47-13.5-9.67-26.83-16.55-39.3-6.11-11.1-15.42-16.79-23.25-26a1.21,1.21,0,0,1,.64-2c11.78-2.86,31.59-6.48,42.39-9.35,23.19-6.17,39.69-11.51,59.18-25.49C548.4,758.68,579.18,741.86,576,716.38Z"/><path d="M97.35,227.85a68.34,68.34,0,0,0,2.26,33.88,81.51,81.51,0,0,0,15.44,27A88.38,88.38,0,0,0,127,300.4c1.49,1.2,3.62-.91,2.12-2.12-15.47-12.49-27.31-30.61-29.53-50.65a65,65,0,0,1,.69-19c.35-1.89-2.54-2.69-2.89-.8Z"/><path d="M122.78,285.81c1.69,4.63,2.92,9.41,4.25,14.16l1.45-1.9c-2.49.06-5,.24-7.47.34-2.31.1-4.62.1-6.94.2-1.92.09-1.93,3.09,0,3,2.32-.1,4.63-.1,6.94-.2,2.49-.1,5-.28,7.47-.34a1.52,1.52,0,0,0,1.44-1.9c-1.33-4.75-2.56-9.52-4.24-14.16a1.55,1.55,0,0,0-1.85-1.05,1.52,1.52,0,0,0-1,1.85Z"/><path d="M75.44,148.57v17.26H72.36V148.57Z"/><path d="M82.74,149.26V153H86l-.42,2.47H82.74v5.92c0,1.4.64,2,1.68,2a5.72,5.72,0,0,0,2-.57l.56,2.34a8.09,8.09,0,0,1-3.27.84c-3,0-4-2-4-4.14V155.5h-1.8V153h1.94l.37-3.42Z"/><path d="M96.48,152.91l.44,2.29a4.34,4.34,0,0,1,4-2.44,3.77,3.77,0,0,1,3.85,2.39,4.55,4.55,0,0,1,4.16-2.39c3,0,4.22,2,4.22,4.64v8.43h-3.06v-7.45c0-2-.47-3-2.14-3-2.22,0-2.81,1.68-2.81,3.58v6.9h-3.06v-7.45c0-2-.47-3-2.15-3-2.36,0-2.83,1.9-2.83,4v6.51H94V152.91Z"/><path d="M119.15,152.91v7.45c0,2,.79,3,2.59,3,2.34,0,3.3-2.42,3.3-4.86v-5.62h3.06v12.92h-2.44l-.45-2.81a4.71,4.71,0,0,1-4.46,3c-3.16,0-4.66-1.95-4.66-5.2v-7.87Z"/><path d="M131.6,162.13a6.72,6.72,0,0,0,4.19,1.43c1.48,0,2.35-.44,2.35-1.5,0-2.52-7.47-.84-7.23-5.57.1-2.32,1.8-3.7,5.23-3.7A10.49,10.49,0,0,1,140.8,154l-1.08,2.17a7.36,7.36,0,0,0-3.7-1.07c-1.21,0-2.22.4-2.17,1.41.14,2.05,7.32.47,7.32,5.45,0,2.66-2.39,4-5.45,4a8.86,8.86,0,0,1-5.3-1.68Z"/><path d="M147.63,149.26V153h3.26l-.42,2.47h-2.84v5.92c0,1.4.64,2,1.68,2a5.72,5.72,0,0,0,1.95-.57l.57,2.34a8.21,8.21,0,0,1-3.28.84c-3,0-4-2-4-4.14V155.5h-1.8V153h1.94l.37-3.42Z"/><path d="M162,147v8.21a4.39,4.39,0,0,1,4.31-2.41c2.44.07,5.06,1.72,5.06,6.48,0,3.9-2,6.71-5.45,6.71a4.28,4.28,0,0,1-4.07-2.37l-.42,2.22h-2.49V147.39Zm-.13,12.36c0,2.21.82,4,3.26,4,2,0,3.11-1.5,3.11-4,0-3-1.51-4-3.13-4C163.32,155.35,161.86,156.76,161.86,159.35Z"/><path d="M185.39,162.28a5.76,5.76,0,0,1-5.57,3.7c-4.34,0-6.26-2.71-6.26-6.76s2.71-6.53,6.43-6.43c3,.07,5.75,2.34,5.45,6.46l-.05.39h-8.73c0,2.2.94,3.7,3.18,3.7a2.87,2.87,0,0,0,2.79-2.05Zm-3.13-4.22c.05-2-1-2.93-2.54-2.88a2.87,2.87,0,0,0-2.91,2.88Z"/><path d="M196.35,147v8.21a4.39,4.39,0,0,1,4.31-2.41c2.44.07,5.06,1.72,5.06,6.48,0,3.9-1.95,6.71-5.45,6.71a4.27,4.27,0,0,1-4.07-2.37l-.42,2.22h-2.49V147.39Zm-.13,12.36c0,2.21.82,4,3.26,4,2,0,3.1-1.5,3.1-4,0-3-1.5-4-3.13-4S196.22,156.76,196.22,159.35Z"/><path d="M214.23,152.79c3.23,0,6,2.19,6,6.6,0,3.63-2.15,6.59-6.17,6.59-4.36,0-6.16-3-6.16-6.59C207.94,155,210.72,152.79,214.23,152.79Zm-3.09,6.6c0,2.05.69,4,3,4,2.1,0,3-1.95,3-4,0-2.86-1.41-4-3-4C212.52,155.38,211.14,156.49,211.14,159.39Z"/><path d="M226,147v14.62c0,1.39.62,1.76,1.53,1.76a2.42,2.42,0,0,0,1.28-.47l.57,2.19a5.35,5.35,0,0,1-2.79.89c-2.56,0-3.65-1.73-3.65-4.07V147.36Z"/><path d="M242.49,147v18.84h-2.56l-.35-2.22a4.52,4.52,0,0,1-4.12,2.37c-3.47.05-5.55-2.84-5.55-6.63,0-4.64,3-6.56,5.53-6.56a4.1,4.1,0,0,1,4,2.44v-7.84Zm-9.42,12.33c0,2.2.86,3.92,3.16,3.92s3.25-1.72,3.25-3.89c0-2.94-1.58-4-3.28-4S233.07,156.49,233.07,159.32Z"/><path d="M246.61,165.49a1.42,1.42,0,0,1-1.63-1.58,1.6,1.6,0,0,1,1.73-1.53c1.7,0,2.37,1.33,2.24,2.91-.19,2.34-2,3.28-4,3.3v-1.33c1.16,0,2-.62,2-1.36C246.91,165.71,246.61,165.49,246.61,165.49Z"/><path d="M259.73,147v8a4.82,4.82,0,0,1,4.24-2.19c3,0,4.49,1.94,4.49,4.61v8.43H265.4v-7.45c0-2-.74-3-2.41-3-2.35,0-3.26,1.9-3.26,4v6.51h-3.06V147.36Z"/><path d="M275.54,152.91v12.92h-3.08V155.45h-1.8v-2.54Zm-1.55-5a1.6,1.6,0,1,1,0,3.16,1.63,1.63,0,0,1-1.8-1.63A1.59,1.59,0,0,1,274,147.88Z"/><path d="M290.73,152.91v11c0,4.29-1.67,6.88-6.41,6.88a13.36,13.36,0,0,1-5.28-1.11l.72-2.31a11.13,11.13,0,0,0,4.22,1c2.78,0,3.69-1.38,3.69-3.5v-1.14a4.45,4.45,0,0,1-4,2.05c-3.47.07-5.47-2.57-5.47-6.36,0-4.64,3-6.56,5.52-6.56a4.28,4.28,0,0,1,4.1,2.34l.32-2.22Zm-9.32,6.41c0,2.2.86,3.92,3.16,3.92s3.2-1.72,3.2-3.89c0-2.94-1.55-4-3.23-4S281.41,156.49,281.41,159.32Z"/><path d="M297,147v8a4.82,4.82,0,0,1,4.24-2.19c3,0,4.49,1.94,4.49,4.61v8.43h-3.06v-7.45c0-2-.74-3-2.42-3-2.34,0-3.25,1.9-3.25,4v6.51h-3.06V147.36Z"/><path d="M72.38,187.64a15.49,15.49,0,0,1,4.89-.94c3.89,0,5.32,1.92,5.32,4.93v5.23a.65.65,0,0,0,.62.74,2.41,2.41,0,0,0,1-.15v2.05a5,5,0,0,1-2,.39,2.34,2.34,0,0,1-2.34-1.75,5.64,5.64,0,0,1-3.89,1.75c-2.52,0-4.39-1.28-4.42-4s2-4.09,5.25-4.09a19.85,19.85,0,0,1,2.79.25v-.77c0-1.4-.89-2.17-2.66-2.14a10.41,10.41,0,0,0-4,.79Zm7.16,6a13.13,13.13,0,0,0-2.52-.15c-1.48.07-2.42.77-2.44,2.07a1.81,1.81,0,0,0,2.1,1.9,5.1,5.1,0,0,0,2.86-1Z"/><path d="M88.76,186.82l.47,2.3a4.76,4.76,0,0,1,4.41-2.42c3,0,4.49,2,4.49,4.61v8.43H95.07V192.3c0-2-.74-3-2.41-3-2.35,0-3.26,1.89-3.26,4v6.51H86.34V186.82Z"/><path d="M113.32,180.91v18.83h-2.56l-.35-2.21a4.5,4.5,0,0,1-4.11,2.36c-3.48.05-5.55-2.83-5.55-6.63,0-4.64,3-6.56,5.52-6.56a4.09,4.09,0,0,1,4,2.44V181.3Zm-9.42,12.32c0,2.2.87,3.93,3.16,3.93s3.26-1.73,3.26-3.9c0-2.93-1.58-4-3.28-4S103.9,190.4,103.9,193.23Z"/><path d="M132.86,196.12c-.84,2.64-3,3.77-5.62,3.77-4.24,0-6.07-3.15-6.07-6.61,0-4.21,2.61-6.51,6.14-6.58,3.11-.07,5,1.53,5.5,3.8l-2.84.91a2.54,2.54,0,0,0-2.61-2.12c-1.78,0-3.13,1.31-3.13,3.94,0,2.1.79,4,3.08,4a2.6,2.6,0,0,0,2.71-2Z"/><path d="M141.15,186.7c3.23,0,6,2.19,6,6.61,0,3.62-2.15,6.58-6.17,6.58-4.36,0-6.16-3-6.16-6.58C134.86,188.89,137.65,186.7,141.15,186.7Zm-3.09,6.61c0,2.05.7,4,3,4,2.1,0,3-1.94,3-4,0-2.86-1.41-4-3-4C139.45,189.29,138.06,190.4,138.06,193.31Z"/><path d="M152.32,186.82l.47,2.3a4.76,4.76,0,0,1,4.41-2.42c3,0,4.49,2,4.49,4.61v8.43h-3.06V192.3c0-2-.74-3-2.41-3-2.35,0-3.26,1.89-3.26,4v6.51H149.9V186.82Z"/><path d="M165.66,187V185.2c0-2.64,1.38-4.29,4.25-4.29a6.9,6.9,0,0,1,2.12.32l-.47,2.19c-.1,0-.5-.07-.89-.07-1.36,0-1.92.56-1.92,2.34V187H176v12.79h-3.06V189.41h-4.16v10.33h-3.09V189.41h-2V187Zm8.81-5.16a1.65,1.65,0,0,1,1.8,1.56,1.62,1.62,0,0,1-1.8,1.6,1.64,1.64,0,0,1-1.83-1.63C172.64,182.48,173.28,181.79,174.47,181.79Z"/><path d="M191.21,180.91v18.83h-2.56l-.35-2.21a4.5,4.5,0,0,1-4.11,2.36c-3.48.05-5.55-2.83-5.55-6.63,0-4.64,3-6.56,5.52-6.56a4.09,4.09,0,0,1,4,2.44V181.3Zm-9.42,12.32c0,2.2.87,3.93,3.16,3.93s3.26-1.73,3.26-3.9c0-2.93-1.58-4-3.28-4S181.79,190.4,181.79,193.23Z"/><path d="M205.69,196.19a5.75,5.75,0,0,1-5.57,3.7c-4.34,0-6.26-2.71-6.26-6.75s2.71-6.54,6.43-6.44c3,.07,5.75,2.34,5.45,6.46l-.05.4H197c0,2.19.94,3.69,3.18,3.69a2.87,2.87,0,0,0,2.79-2ZM202.56,192c.05-2-1-2.94-2.54-2.89a2.88,2.88,0,0,0-2.91,2.89Z"/><path d="M210.85,186.82l.47,2.3a4.76,4.76,0,0,1,4.41-2.42c3,0,4.49,2,4.49,4.61v8.43h-3.06V192.3c0-2-.74-3-2.42-3-2.34,0-3.25,1.89-3.25,4v6.51h-3.06V186.82Z"/><path d="M227.3,183.17V187h3.25l-.42,2.46H227.3v5.92c0,1.41.64,1.95,1.68,1.95a5.43,5.43,0,0,0,1.94-.57l.57,2.34a7.94,7.94,0,0,1-3.28.84c-3,0-4-2-4-4.14v-6.34h-1.8V187h1.95l.37-3.43Z"/><path class="cls-7" d="M95.79,61.4A36.74,36.74,0,0,1,104.16,38a34.44,34.44,0,1,0,.11,46.9A36.78,36.78,0,0,1,95.79,61.4ZM87.2,75.66H70.92L71,73.39l4.46-.58c.58,0,.81-.23.81-1,.08-10.05,0-19.6,0-19.6l-5.62,1.08c-.19-.31-1.12-2.46-.46-2.73l10.35-4,1,1s-.12,20.87,0,24.37c0,.77.19,1,.73,1l5.08.54Z"/><circle cx="130" cy="61.53" r="34.44"/><path class="cls-8" d="M120.65,51a12.41,12.41,0,0,1,9.24-4.85c5.89,0,9.08,3,8.74,8.51-.47,7-8,13.59-12.63,17.55l8.31-.08c1.78-.15,3-2.54,3.82-4.73,0,0,1.73.5,2,1-.66,3.16-1.43,7.12-2.2,7.12,0,0-3.69-.27-11.47-.27a25.63,25.63,0,0,0-4.93.31l-1.34-2.46c7.77-7.9,12.39-13.63,13-18.71.46-3.66-2-4.82-4.35-4.66a9.73,9.73,0,0,0-6.74,3.92C121.92,53.39,120.19,51.55,120.65,51Z"/><path d="M184,52.13l8.43,15.27V52.13h3.75v21h-4.59L183.3,58.34V73.13h-3.75v-21Z"/><path d="M213.6,68.81a7,7,0,0,1-6.78,4.5c-5.28,0-7.62-3.3-7.62-8.22s3.3-8,7.83-7.83c3.69.09,7,2.85,6.63,7.86l-.06.48H203c0,2.67,1.14,4.5,3.87,4.5a3.5,3.5,0,0,0,3.39-2.49Zm-3.81-5.13c.06-2.43-1.26-3.57-3.09-3.51a3.5,3.5,0,0,0-3.54,3.51Z"/><path d="M219.69,57.41l3.15,6.18,3.3-6.18h4l-4.35,7.8,4.53,7.92h-4.26L222.78,67l-3.45,6.12h-4.14L220,65.27l-4.29-7.86Z"/><path d="M238.11,53v4.59h4l-.51,3h-3.45v7.2c0,1.71.78,2.37,2,2.37a6.83,6.83,0,0,0,2.37-.69l.69,2.85a9.82,9.82,0,0,1-4,1c-3.69,0-4.83-2.46-4.83-5V60.56H232.2v-3h2.37l.45-4.17Z"/><path d="M256.74,57.41V73.13H253V60.5H250.8V57.41Zm-1.89-6.12a2,2,0,0,1,2.22,1.89,2.22,2.22,0,0,1-4.41,0A1.93,1.93,0,0,1,254.85,51.29Z"/><path d="M261,68.63a8.15,8.15,0,0,0,5.1,1.74c1.8,0,2.85-.54,2.85-1.83,0-3.06-9.09-1-8.79-6.78.12-2.82,2.19-4.5,6.36-4.5a12.78,12.78,0,0,1,5.67,1.47l-1.32,2.64a8.9,8.9,0,0,0-4.5-1.29c-1.47,0-2.7.48-2.64,1.71.18,2.49,8.91.57,8.91,6.63,0,3.24-2.91,4.92-6.63,4.89a10.76,10.76,0,0,1-6.45-2Z"/><path d="M286.77,53v4.59h4l-.51,3h-3.45v7.2c0,1.71.78,2.37,2,2.37a6.83,6.83,0,0,0,2.37-.69l.69,2.85a9.82,9.82,0,0,1-4,1c-3.69,0-4.83-2.46-4.83-5V60.56h-2.19v-3h2.37l.45-4.17Z"/><path d="M294.09,58.4A18.74,18.74,0,0,1,300,57.26c4.74,0,6.48,2.34,6.48,6v6.36a.79.79,0,0,0,.75.9,3,3,0,0,0,1.23-.18v2.49a6.08,6.08,0,0,1-2.49.48,2.84,2.84,0,0,1-2.85-2.13,6.87,6.87,0,0,1-4.74,2.13c-3.06,0-5.34-1.56-5.37-4.83s2.46-5,6.39-5a24.49,24.49,0,0,1,3.39.3v-.93c0-1.71-1.08-2.64-3.24-2.61a12.68,12.68,0,0,0-4.86,1Zm8.7,7.35a16.62,16.62,0,0,0-3.06-.18c-1.8.09-2.94.93-3,2.52a2.21,2.21,0,0,0,2.55,2.31,6.17,6.17,0,0,0,3.48-1.26Z"/><path d="M314.79,50.21V64h1.74l3.66-6.45h4.2l-4.71,7.77,5.13,7.86h-4.29l-4-6.09h-1.77v6.09h-3.72V50.66Z"/><path d="M340.59,68.81a7,7,0,0,1-6.78,4.5c-5.28,0-7.62-3.3-7.62-8.22s3.3-8,7.83-7.83c3.69.09,7,2.85,6.63,7.86l-.06.48H330c0,2.67,1.14,4.5,3.87,4.5a3.5,3.5,0,0,0,3.39-2.49Zm-3.81-5.13c.06-2.43-1.26-3.57-3.09-3.51a3.5,3.5,0,0,0-3.54,3.51Z"/><path d="M349.68,63.56v3h-7.44v-3Z"/><path d="M359,57.26c3.93,0,7.35,2.67,7.35,8,0,4.41-2.61,8-7.5,8-5.31,0-7.5-3.6-7.5-8C351.33,59.93,354.72,57.26,359,57.26Zm-3.75,8c0,2.49.84,4.86,3.66,4.86,2.55,0,3.69-2.37,3.69-4.86,0-3.48-1.71-4.89-3.6-4.89C356.91,60.41,355.23,61.76,355.23,65.3Z"/><path d="M370.56,57.56V55.43c0-3.21,1.68-5.22,5.19-5.22a8.28,8.28,0,0,1,3,.54l-.48,2.61a7.71,7.71,0,0,0-1.59-.18c-1.65,0-2.34.69-2.34,2.85v1.53h3.42l-.48,3h-2.94V73.13h-3.75V60.56H368.1v-3Z"/><path d="M381.12,57.56V55.43c0-3.21,1.68-5.22,5.19-5.22a8.28,8.28,0,0,1,3,.54l-.48,2.61a7.71,7.71,0,0,0-1.59-.18c-1.65,0-2.34.69-2.34,2.85v1.53h3.42l-.48,3h-2.94V73.13h-3.75V60.56h-2.46v-3Z"/></svg>