<svg id="Layer_1" data-name="Layer 1" xmlns="http://www.w3.org/2000/svg" viewBox="0 0 780 1051.14"><defs><style>.cls-1,.cls-7{fill:#c6946f;}.cls-1,.cls-3,.cls-4,.cls-5,.cls-6,.cls-7{stroke:#fff;}.cls-1,.cls-2,.cls-3,.cls-4,.cls-5,.cls-6,.cls-7{stroke-miterlimit:10;}.cls-1{stroke-width:0.27px;}.cls-2{fill:none;stroke:#ffea00;stroke-width:1.4px;}.cls-3,.cls-6{fill:#d4a47c;}.cls-3,.cls-7{stroke-width:0.27px;}.cls-4{fill:#005058;stroke-width:0.47px;}.cls-5{fill:#fff171;stroke-width:0.3px;}.cls-6{stroke-width:0.3px;}.cls-8,.cls-9{fill:#fff;}.cls-8{opacity:0.7;}.cls-9{font-size:38.5px;font-family:ABCSerifBold, ABCSerif;}</style></defs><path class="cls-1" d="M484.38,910.94a36.19,36.19,0,0,1-14.55-15.84c-3.52,3.93-9.44,8.59-11.19,15.51-1.45,5.7,7.15,18,4.55,18.93-.34.13-3.58.74-3.94.83-3.78,1-7.25,3.64-11,5-3.23,1.13-6.57,1.4-9.82,2.43-6.39,2-12.75,5.26-19.53,4.77a1.66,1.66,0,0,0-1.17.19,2.6,2.6,0,0,0-.79,2.28,3.53,3.53,0,0,0,.58,1.73c.16.25.41.45.56.7s.15.42.26.6a8.82,8.82,0,0,0,3.06,2.8,15.69,15.69,0,0,0,5.26,2.16,17.15,17.15,0,0,0,2,.54c.47.05.9,0,1.38,0a34.85,34.85,0,0,0,4.56-.25c.73,0,1.42-.15,2.15-.17a13.63,13.63,0,0,1,2-.05c.58.07,1.14.21,1.72.28,1.13.14,2.25.14,3.38.32,3.15.52,6.45-.28,9.66.07a72.1,72.1,0,0,0,11.94.53c5.89-.32,11.77-1.23,17.67-1.36,5.22-.12,11.51,1.47,16.22-1.49,2.62-1.64,1.34-6.17,1.9-9.22,2-10.69-3.61-17.78-10.47-24.68C488.63,915.33,486.45,913.17,484.38,910.94Z"/><path class="cls-2" d="M410.68,618.42c4.21,1.19,8.36,2.45,10.76,3a51.84,51.84,0,0,1,8.05,2.88A38.64,38.64,0,0,1,446,637.27c6.35,8.76,8,19.81,7.57,30.39"/><path class="cls-2" d="M367.42,636.2c3.68,16.76,10.11,27.16,15.23,40.23"/><path class="cls-3" d="M531.71,682c-21.16-18.37-47.66-22-70.33-38.5-14.9-10.83-30.88-21-48.88-24.9-15.78-3.42-33.5-1.23-46.27,8.26-2.66-1.78-5.65-3.75-5.21-5.34,1-3.38,5.06-1.37,5.35-4.44.12-1.32-7.51-6.8-7.42-8.13s-4.86-3.65-3.67-4.44,2.08.74,2.91,1.47,1.56.8,2.29,1.35a7.36,7.36,0,0,0,1.56,1.2,6.17,6.17,0,0,0,4.53.11c1.58-.77,2.1-2.68,3.52-3.61a5.53,5.53,0,0,1,2.06-.64,2.6,2.6,0,0,1-.55-1.56c-.15-3.9,2.18-7.09,3.26-10.69a18.83,18.83,0,0,0-3.23-1.13,29.19,29.19,0,0,1-5-1.91c-1.47-.7-2.93-.9-3.73-2.29-.62-1.08-.53-2.39-1.14-3.46a20.77,20.77,0,0,1-1.39-2.07,31.83,31.83,0,0,1-1.16-3.79c-.84-2.8-2-5.58-2.93-8.35a24.21,24.21,0,0,0-4.6-8.19,19.56,19.56,0,0,0-8-5.23,43.8,43.8,0,0,0-7.12-2.11,73.44,73.44,0,0,0-10.79-1c-4.06-.07-8.64,1.32-12.33,2.89-2.75,1.17-5.55,1.87-8.2,3.36a25.13,25.13,0,0,0-6.72,6.08c-1.67,2-3.72,3.21-5.78,4.66-1,.74-1.69,1.88-2.75,2.68a28.84,28.84,0,0,0-3.59,3c-2.07,2.23-2.09,4.81-2.24,7.63-.11,1.89.42,3.65.29,5.54a14,14,0,0,0,.14,2.74c.13,1,0,2,.1,3,.06.49.31.87.4,1.38s-.19.86,0,1.37a19.76,19.76,0,0,0,1.77,2.62,26.16,26.16,0,0,1,1.82,3.21,2.55,2.55,0,0,0,.17.36c-.06,0-.13.16-.22.5a12.52,12.52,0,0,1-1.12,2.58c-1.05,2.18-1.51,2.17-2.46,4.77a27.43,27.43,0,0,0-1.34,5,3.41,3.41,0,0,0,3.46,4,1.85,1.85,0,0,1,1.21.37,4.75,4.75,0,0,1,2.22,2.67,18.69,18.69,0,0,0,.43,3,18.3,18.3,0,0,0,2.67,4.87c.94,1.21,1.87,1.49,1.85,3,0,1.09-.09,2.2-.15,3.28-.12,2,.37,4,2.47,4.74,2.8,1,7.25-.18,10.11-.5a25,25,0,0,0,3.4-.69,6.93,6.93,0,0,1,1-.27l.17,0a19.73,19.73,0,0,1,4.24-.68,6.82,6.82,0,0,1,1.1.1c.53,0,1.05,0,1.58,0,2.12.2,4.23.52,6.33.91,10.48-.46,21.23-1.6,31.69-.71,1.27,1.18,2.92,2.75,3.14,3a116.78,116.78,0,0,1,12.67,18.77c3.3,5.88,6.61,11.91,12.36,15.78l7.18,4.83c.71,2,3.45,3.44,4.89,4.88,10.6,10.62,26.79,5.51,40,5.81,12.17.27,23.73,5,35.54,7.89,15.65,3.87,31.93,4.65,48,4.08,3.44-.12,8.07-1.65,7.54-5C528.64,698.7,532.79,682.91,531.71,682Z"/><path d="M295.83,593.22c.35.07.69.17,1,.27.2.06.61.18.71.4s.05.09,0,.13-.23,0-.31,0a1.86,1.86,0,0,0-.33,0c-.43.09-.85.22-1.28.32-.25,0-.48.13-.74.17-1.56.2-3.25-.09-4.77.29a7,7,0,0,0-3.52,2.65c-.31-.41-1.33-1.74-1-2.22.44-.68,2.52-1.17,3.21-1.64a6.54,6.54,0,0,1,4.41-1C294.09,592.72,294.94,593.06,295.83,593.22Z"/><path d="M373.64,586.63c-2.26-1.07-4.87-1.81-7-3.14-6.67-4.22-7.22-13.65-11.44-20.32-3.47-5.49-9.51-9-15.82-10.55S326.49,551.31,320,552c-6,.63-12,1.66-17.43,4.32-3.63,1.8-13.4,8.6-11.7,13.7s11.49,6.45,14.16,11.71c1.36,2.66,1.46,5.92,3.27,8.3a24.55,24.55,0,0,0,3.28,3.08c2,1.83,3.54,4.17,5.67,5.87s5.25,2.63,7.55,1.18a11.2,11.2,0,0,1-.15-5.77c.59-1.86,1.76-1.39,3.7-1.17,2.66.31,4.44,1.5,4.35,4.18s-.8,5.52.39,7.92c1.29,2.59,4.32,3.7,7.08,4.57,4.73,1.51,13.63.85,18.36,2.36,1.72-2.44,1.61-1.42,3.48-3.75,1.4-1.76-2.2-4.11,0-4A18.49,18.49,0,0,0,374,600.86c3.19-2.4,5.65-6.7,4-10.33A8.45,8.45,0,0,0,373.64,586.63Z"/><path d="M290.56,570.84l.74-.56-.13-.18A2.91,2.91,0,0,0,290.56,570.84Z"/><path class="cls-3" d="M322.09,601.61c-3.94-3.5,1.49-10,5.47-9.89a6.55,6.55,0,0,1,6.2,6.32c0,3.38-2.69,6.28-2.91,9.66-.12,1.78.44,3.71-.41,5.29s-4.06,1.31-3.68-.44"/><path d="M361.29,589.8a7,7,0,0,0,1.86-2.83,11.8,11.8,0,0,1,2.4-3.17,6.11,6.11,0,0,1,4-2,6.57,6.57,0,0,1,3.86,1.09,6.5,6.5,0,0,1,2.56,2.56c.41,1.23-.12,3.28-.15,4.56a6.66,6.66,0,0,1-2.06,4.07,6,6,0,0,1-4.06,2.31,19.69,19.69,0,0,1-10.13-3.08c-1.51-.88-2.25-3.16-2.51-4.83s-.22-4.49.62-6c1.59-2.93,5.73-2.75,8.45-2,1.64.47,3.23,1.1,3.92,2.8a9.86,9.86,0,0,1,.42,4.39,18.45,18.45,0,0,1-.58,5,6.84,6.84,0,0,1-1,2.44,19.81,19.81,0,0,0-1.83,2.32,8.31,8.31,0,0,1-2.3,2.39,3.25,3.25,0,0,1-2.46.61,10.4,10.4,0,0,1-3-.56c-.61-.21-1.12-.63-1.71-.88-1-.44-1-.49-1-1.73"/><path d="M360.77,588.94c-.54-1.33,0-2.5.65-3.66A6.19,6.19,0,0,0,362,584a1.81,1.81,0,0,1,1.37-1.35c1.72-.63,3.8,0,5.47.45a6.18,6.18,0,0,1,2.05.76c.57.38,1,1,1.52,1.33.33.22.7.27,1,.57s.42.73.74,1.05.55.4.76.86a8.6,8.6,0,0,1,.37,1.19,5,5,0,0,1,.35,2.23,13.87,13.87,0,0,1-.62,2.27,6.4,6.4,0,0,1-.52.92c-.22.38-.29.82-.51,1.2a6.15,6.15,0,0,1-2.8,2.09c-2,1-4.56.76-6.72.57a11.47,11.47,0,0,1-4.78-1.55,26.41,26.41,0,0,1-2.25-1.69,9.71,9.71,0,0,1-2-1.71,8.48,8.48,0,0,1-1.34-2.54,19.7,19.7,0,0,1-.89-3,6.15,6.15,0,0,1,.41-3,8,8,0,0,0,.71-1.44,5.64,5.64,0,0,1,.46-1.6,6.61,6.61,0,0,1,4.39-3.57,20.55,20.55,0,0,1,4.27-.61c.92,0,1.85.09,2.77.12a6.06,6.06,0,0,1,2.81.85,4.32,4.32,0,0,1,1.38,1.06c.34.42.86.79,1,1.3.55,1.52,0,3,.24,4.51a5,5,0,0,1,.2.87c0,.48-.05,1-.07,1.45a10.65,10.65,0,0,1-.23,2.33,6.75,6.75,0,0,1-1.1,2.39,3.6,3.6,0,0,1-2.57,1.49,9.7,9.7,0,0,1-3.68.34,12.86,12.86,0,0,1-4.61-1.68,9.9,9.9,0,0,1-3.75-3.28,10.4,10.4,0,0,1-1.28-2.27,10.69,10.69,0,0,1-.25-2.34c-.11-1.67,1-3.18,1.76-4.53.16-.27.42-1,.71-1.15s.68,0,.92,0"/><path d="M357.35,602.82c-.53-1.33,0-2.5.65-3.66a5.69,5.69,0,0,0,.6-1.24,1.87,1.87,0,0,1,1.37-1.36c1.73-.62,3.81,0,5.48.46a6.18,6.18,0,0,1,2.05.76c.56.38,1,1,1.52,1.33.33.22.7.27,1,.57s.42.73.74,1.05.55.4.76.86a8.6,8.6,0,0,1,.37,1.19,5,5,0,0,1,.35,2.23,15,15,0,0,1-.63,2.27,5.52,5.52,0,0,1-.51.92c-.22.38-.29.82-.51,1.2a6.15,6.15,0,0,1-2.8,2.09c-2,1-4.56.76-6.72.57a11.56,11.56,0,0,1-4.79-1.55,26.26,26.26,0,0,1-2.24-1.69,9.77,9.77,0,0,1-2-1.71,8.69,8.69,0,0,1-1.33-2.54,19.7,19.7,0,0,1-.89-3,6.15,6.15,0,0,1,.41-3,8,8,0,0,0,.7-1.44,6,6,0,0,1,.47-1.6,6.62,6.62,0,0,1,4.38-3.57,20.74,20.74,0,0,1,4.28-.61c.92,0,1.84.09,2.77.12a6,6,0,0,1,2.8.85,4.11,4.11,0,0,1,1.38,1.06c.35.42.87.79,1.05,1.3.54,1.52,0,3,.24,4.51a6.12,6.12,0,0,1,.2.87c0,.48-.06,1-.08,1.45a10.06,10.06,0,0,1-.22,2.33,6.93,6.93,0,0,1-1.1,2.39,3.6,3.6,0,0,1-2.58,1.49,9.65,9.65,0,0,1-3.67.34,12.86,12.86,0,0,1-4.61-1.68,10,10,0,0,1-3.75-3.28,10.4,10.4,0,0,1-1.28-2.27,10.69,10.69,0,0,1-.26-2.34c-.11-1.67,1-3.18,1.77-4.53.15-.27.42-1,.7-1.15s.69,0,.93,0"/><path class="cls-4" d="M486.52,730.37c14.74-3.07,14.49-11.1,25.05-19.47,8.77-7,14-13.85,25.73-13.7,10,.12,25.67,5,33.64,11.35-14.47-16.95-24.09-21.31-38.24-29.3-3.57-2-7.32-4.73-11.16-6.18-4.34-1.68-17.53-1.1-22.1-1.59a124.27,124.27,0,0,1-13.55-2.11c-8.71-1.92-17.19-5.2-24.26-10.73-3.5-2.74-7.19-7.22-11.59-7.33-2.06-.06-3.92,1-5.72,1.88-20.62,10.62-41.14,19-64.53,17.42a1.16,1.16,0,0,0-1.12,1.67c2.09,4.12,3.07,8.52,4.26,13a81.48,81.48,0,0,0,4.25,11.61c1.46,3.32,2.78,7,5.35,9.63,4.91,5.08,11.77,8.09,18.29,10.51l1.86.67a55.17,55.17,0,0,0,14.79,2.89c10.88.7,13.81,9.54,22.61,10.22C474.94,732.69,479.2,731.9,486.52,730.37Z"/><path class="cls-5" d="M378.89,672.05c-.1-.26-.11-.47.09-.52a6.42,6.42,0,0,1,1.41-.21,5.45,5.45,0,0,1,.94-.14,72.62,72.62,0,0,1-7.17-11.54,70.88,70.88,0,0,1-5.42-15.08,55.36,55.36,0,0,1-1.25-6.58c-1.77-.51-2.93-4.44-3.75-6.21,0,0-.27,2.58-.29,2.54l-.13-.27a11,11,0,0,0-.16,2.56,47.74,47.74,0,0,0,1.24,7.78,74.94,74.94,0,0,0,5.07,15.15c1.84,4.05,5.94,9.09,8.91,13A5.79,5.79,0,0,1,378.89,672.05Z"/><path class="cls-5" d="M449.86,651.2a7,7,0,0,1,2.22.23,6,6,0,0,1,2,1c.06-4,.05-8-.18-12,0-.64-.09-1.29-.13-1.94a59.52,59.52,0,0,1-4.53-4c.19,2.2.39,4.4.5,6.61C449.88,644.43,449.89,647.82,449.86,651.2Z"/><path class="cls-6" d="M410.68,631.77c7.12-5.64,49.89-44.15,59.85-52.95,2.09-1.48,4.07-3.09,5.89-4.62.9-.57,1.18-.83,1.06-.89,1.22-1,2.36-2,3.36-2.84,12.42-10.13,26.68-24.16,36.27-36.81.73-.57,1.33-1.31,2-1.93,1.26-1.13,2.32-2.49,3.62-3.58.82-.68,1.54-1.44,2.31-2.17,1-.91,1.8-2,2.82-2.82a15,15,0,0,1,1.44-1.2c.42-.29.82-.62,1.24-.91s1-.56,1.37-.9a7.27,7.27,0,0,1,.93-.83c.23-.13.57,0,.81,0a11.76,11.76,0,0,0,1.58.2,4.44,4.44,0,0,0,2.44-.61,6.4,6.4,0,0,0,.91-.74c.18-.16.38-.29.56-.44s.29-.32.45-.47a10.45,10.45,0,0,0,1-.9,3.1,3.1,0,0,1,.75-.51,4.47,4.47,0,0,0,1.66-1.71c.34-.66.58-1.37.89-2.05.23-.48.52-.95.71-1.45s.34-.86.52-1.29a12.62,12.62,0,0,0,.44-1.63,15.69,15.69,0,0,1,1.55-3.63,6.89,6.89,0,0,1,1-1.43,6.38,6.38,0,0,0,1-1.48c.25-.45.57-.86.82-1.32s.53-.73.79-1.13a4.32,4.32,0,0,0,.71-1.34,6.14,6.14,0,0,0,.35-1.57,5.75,5.75,0,0,0-.75-2.06c-.06-.12-.07-.25-.12-.37a1.09,1.09,0,0,0-.36-.41,2.88,2.88,0,0,0-.59-.45,3.33,3.33,0,0,0-1.39-.25,3,3,0,0,0-.67.11c-.14.05-.29.05-.43.09s-.23.17-.39.09a1.88,1.88,0,0,1,0-.53,5,5,0,0,1,0-.54c0-1.56.12-3.13.15-4.69,0-1,.32-2,.43-3a15.06,15.06,0,0,1,.4-2.21,4,4,0,0,0,.23-1.12c0-.34,0-.67,0-1a11.53,11.53,0,0,1,.09-1.77c.1-.55.09-1.11.23-1.65s.22-1.18.36-1.77a15.64,15.64,0,0,0,.29-1.94c.07-.64.2-1.25.24-1.89,0-.23.08-.45.08-.69s0-.68.07-1c.07-.94-.09-1.9-.06-2.83a9,9,0,0,0-.09-2.74,1,1,0,0,0-.53-.63,1,1,0,0,1-.45-.31c-.21-.21-.43-.56-.75-.58a.62.62,0,0,0-.47.18s.05-.06.06-.09c.13-.44.12-.88.23-1.31a1.17,1.17,0,0,0-.1-1.09,1.11,1.11,0,0,0-.81-.6,1.18,1.18,0,0,0-1.07.35,4.65,4.65,0,0,0-1,2.05,10.66,10.66,0,0,0-.57,2.58,7,7,0,0,1-.12,1.12c0-.43-.07-.79-.61-.94-.21-.07-.45-.17-.65,0a3.28,3.28,0,0,0-.34.31,1.34,1.34,0,0,0-.25.37l-.21.55a4.07,4.07,0,0,0-.24.91,2,2,0,0,1-.06.54c-.12.43-.23.86-.34,1.29l-.68,2.63-.54,2.11c-.14.52-.3,1-.41,1.56-.06.29-.05.57-.12.85a5.47,5.47,0,0,0-.16.7,9.43,9.43,0,0,1-.37,1.72,16.85,16.85,0,0,0-.33,2c0,.27-.15.52-.17.8a3.21,3.21,0,0,1-.07.53,2.38,2.38,0,0,0,0,.46,4.34,4.34,0,0,1-.14.6c-.07.42-.09.85-.12,1.27a5.87,5.87,0,0,1-.16.6,4,4,0,0,0,0,.49c0,.35-.2.67-.23,1a4.36,4.36,0,0,1-.11.71l-.36,1.37c-.07.3-.15.59-.23.88s0,.47-.08.72c-.14.65-.25,1.3-.41,1.94s-.32,1.3-.49,1.94a7.69,7.69,0,0,1-.29.93,6.12,6.12,0,0,1-.72,1.27c-.2.29-.4.58-.59.89a10,10,0,0,0-.48.92c-.36.7-.67,1.42-1,2.14a15.36,15.36,0,0,1-1,2.14,9.4,9.4,0,0,1-1.53,2.07c-.61.58-1.19,1.18-1.85,1.7-.5.4-.91.88-1.39,1.31s-.93.82-1.41,1.22c-.76.64-1.54,1.24-2.34,1.83a17.7,17.7,0,0,1-2.18,1.47c-.51.28-1,.6-1.52.89a9.13,9.13,0,0,0-1,.64,12.45,12.45,0,0,1-1.72,1.09,19.17,19.17,0,0,0-1.92,1c-.43.28-.83.63-1.26.9s-.94.53-1.42.8-.75.31-1.11.49-.59.38-.89.56c-.66.38-1.38.7-2.07,1-2.06,1-4,2.35-5.93,3.53l.34-.64c-6.6,4.79-12.92,10-19.45,14.87q-11.78,9-23.64,17.79c-5.82,4.33-11.65,8.69-17.62,12.82l.37.26c-1.23.24-2.45.5-3.62.82-5.9,1.63-11.39,5.72-17,8.36-12.94,6-26.5,10.52-39.58,16.2-12.56,5.44-25.25,13.76-22.49,29.29,1.2,6.76,5.86,12.33,8.14,18.8m179.1-177.66-.06.09a0,0,0,0,0,0,0Zm-.32,1.41a1.93,1.93,0,0,1-.21.45l.24-.93c0-.15.07-.32.11-.49,0,.09,0,.19-.07.31S546.56,463.69,546.51,463.89Z"/><path class="cls-6" d="M530.33,508.79c-.14.29.27.86.42,1.11a3.71,3.71,0,0,1,.46,1c.07.28.13.56.19.84a11.24,11.24,0,0,0,.45,1.19,1.33,1.33,0,0,0,.17.43c.14.22.29.44.44.64a12.05,12.05,0,0,1,.8,1.21,4.19,4.19,0,0,0,.68,1,4.41,4.41,0,0,1,.68.76"/><path class="cls-6" d="M529.43,510.79c-.21.41.44,1.07.59,1.44a6.61,6.61,0,0,0,.36.7,6.83,6.83,0,0,1,.29.75c.1.23.27.42.39.64s.38.54.55.82.24.53.38.77.3.39.42.61"/><path class="cls-6" d="M528.12,511.33a4.92,4.92,0,0,0-.32,1.69,3,3,0,0,0,.36,1.12c.22.42.4.86.66,1.26.15.24.34.48.51.71s.35.52.56.75a4.46,4.46,0,0,0,.75.54c.16.12.46.28.55.46"/><path class="cls-6" d="M547.2,492.61a2.33,2.33,0,0,1-.54.59c-.4.35-.75.75-1.13,1.12a9.26,9.26,0,0,0-.78.88c-.29.35-.57.69-.83,1.07s-.36.55-.52.83a6.91,6.91,0,0,0-.35.85c-.24.63-.46,1.28-.67,1.92a4.48,4.48,0,0,1-.72,1.41c-.45.55-1,1-1.42,1.6-.29.37-.52.75-.78,1.14s-.33.54-.48.81-.38.65-.55,1c-.09.17-.22.34-.29.51s-.06.24-.11.36a2.25,2.25,0,0,0-.13.42,4.24,4.24,0,0,1-.25.86c0,.1-.08.45-.23.43"/><path class="cls-6" d="M549.34,498l.2-.3,1.15-1.76a2.89,2.89,0,0,0,.67-2.05,2.43,2.43,0,0,0-1.26-1.43,1.77,1.77,0,0,0-1.14-.31,1.83,1.83,0,0,0-.92.61,12.67,12.67,0,0,0-2.24,3.38,1.58,1.58,0,0,0-.15,1.18,1.68,1.68,0,0,0,.36.51,3.15,3.15,0,0,0,1.35.87,1.8,1.8,0,0,0,1.55-.24A2.08,2.08,0,0,0,549.34,498Z"/><path class="cls-6" d="M541.93,481.81c.28.07.56.17.84.22a.51.51,0,0,0,.34-.06c.11-.06.18-.21.28-.31"/><path class="cls-6" d="M543.23,480.44l-.53-.14c-.14,0-.28,0-.42-.06"/><path class="cls-6" d="M543.44,480l-.52-.14-.27-.06a1.33,1.33,0,0,0-.28,0"/><path class="cls-6" d="M544.08,479a1.33,1.33,0,0,1-.35-.13c-.14-.08-.26-.21-.4-.3a1.62,1.62,0,0,0-.35-.17,2.4,2.4,0,0,0-.38-.12"/><path class="cls-6" d="M541.42,478.26c-.18-.05-.32-.17-.5-.22l-.21-.06c-.09,0-.23,0-.3,0"/><path class="cls-6" d="M540.09,478.82c.16,0,.3,0,.46.07l.44.11"/><path class="cls-6" d="M540.08,479.24l.57.15"/><path class="cls-6" d="M539.94,480.49l.74.19a1.56,1.56,0,0,0,.68,0"/><path class="cls-6" d="M545,468.16a55.29,55.29,0,0,0-1.5,5.79l-.19.71c-.68,2.63-1.34,5.21-1.92,7.86a2.6,2.6,0,0,0-.11.62c0,.27-.19.54-.21.81-.09,1-.28,1.92-.37,2.92a4.11,4.11,0,0,1-.45,1.72c-.72.89-1.47,1.72-2.15,2.68a1.88,1.88,0,0,1-.81.89"/><path class="cls-6" d="M543.31,468c-.29,1.13-.92,2.6-1.21,3.72-.14.56-.29,1.13-.44,1.69l-.21.86c-.08.31-.23.58-.32.89-.24.81-.56,1.58-.78,2.4-.08.33-.17.67-.25,1-.16.6-.22,1.21-.32,1.81s-.15.89-.26,1.34-.21.79-.31,1.19L538,487.76a13.46,13.46,0,0,1-.79,2.08,14.62,14.62,0,0,0-.89,2"/><path class="cls-6" d="M548.16,461.91c2.07,1.18.76,3.52.42,4.28-.58,1.29-1.16,2.26-2.47,2.18-.22,0-.76.16-1,.11"/><path class="cls-6" d="M544.17,463.49a3.61,3.61,0,0,0,1,.09c.19-.09.4-.15.58-.24a2.17,2.17,0,0,0,.72-.58,3.63,3.63,0,0,0,.48-1.5,3.05,3.05,0,0,0,.21-.88,2.41,2.41,0,0,1-.08-.25,1.64,1.64,0,0,1,0-.23,2.09,2.09,0,0,0-.16-.54,2,2,0,0,0-.56-.89c-.22-.19-.86-.24-1.42,1Z"/><path class="cls-6" d="M540.91,468.59a3.58,3.58,0,0,0,1,.09c.18-.09.39-.15.57-.24a2.17,2.17,0,0,0,.72-.57,3.72,3.72,0,0,0,.48-1.51,3.07,3.07,0,0,0,.22-.88,2.5,2.5,0,0,1-.09-.25l0-.23a2.12,2.12,0,0,0-.17-.54,2.08,2.08,0,0,0-.55-.89c-.22-.19-.86-.23-1.43,1Z"/><path class="cls-7" d="M580,726.65a29,29,0,0,0-9.44-18.42C562.85,701.4,546,691.86,534,691.61c-18.06-.38-21.44,12.16-36.92,19.15-22.93,10.36-46.2,21.07-65.39,35.88-12.56,9.69-21.95,21.19-31.83,32.47a31.17,31.17,0,0,1-3.42,3.29,4.83,4.83,0,0,1-1.7,1.93c-11.16,7.49-19.45,17.87-16.39,31.76,8.51,13.54,16.84,27.18,26.88,39.68,7.77,9.66,15.3,19.71,23.66,28.86,4.06,4.45,8.72,8.9,12.09,14,8,8.12,14.51,17.12,21.12,26.68l.54-.35c.95,2.4,1.46,4.18.53,4.53-.34.13-3.58.74-3.94.83-3.78,1-7.25,3.64-11,5-3.23,1.13-6.57,1.4-9.82,2.43-6.39,2-12.75,5.26-19.53,4.77a1.66,1.66,0,0,0-1.17.19,2.6,2.6,0,0,0-.79,2.28,3.53,3.53,0,0,0,.58,1.73c.16.25.41.45.56.7s.15.42.26.6a8.82,8.82,0,0,0,3.06,2.8,15.69,15.69,0,0,0,5.26,2.16,17.15,17.15,0,0,0,2,.54c.47.05.9,0,1.38,0a34.85,34.85,0,0,0,4.56-.25c.73,0,1.42-.15,2.15-.17a13.63,13.63,0,0,1,2-.05c.58.07,1.14.21,1.72.28,1.13.14,2.25.14,3.38.32,3.15.52,6.45-.28,9.66.07a72.1,72.1,0,0,0,11.94.53c5.89-.32,11.77-1.23,17.67-1.36,5.22-.12,11.51,1.47,16.22-1.49,2.62-1.64,1.34-6.17,1.9-9.22,2-10.69-3.61-17.78-10.47-24.68-5.94-6-15-13.34-19.86-21.54-3.91-9-5.22-19.1-9.61-28a370.67,370.67,0,0,0-19.2-33.61c-2.19-3.46-12.27-14.39-15-17.53,13.5-4,33.95-11.74,47.61-15.38,23.18-6.17,49.31-11.38,68.8-25.36C561.85,763,583.17,752.13,580,726.65Z"/><path d="M97.35,227.85a68.34,68.34,0,0,0,2.26,33.88,81.51,81.51,0,0,0,15.44,27A88.38,88.38,0,0,0,127,300.4c1.49,1.2,3.62-.91,2.12-2.12-15.47-12.49-27.31-30.61-29.53-50.65a65,65,0,0,1,.69-19c.35-1.89-2.54-2.69-2.89-.8Z"/><path d="M122.78,285.81c1.69,4.63,2.92,9.41,4.25,14.16l1.45-1.9c-2.49.06-5,.24-7.47.34-2.31.1-4.62.1-6.94.2-1.92.09-1.93,3.09,0,3,2.32-.1,4.63-.1,6.94-.2,2.49-.1,5-.28,7.47-.34a1.52,1.52,0,0,0,1.44-1.9c-1.33-4.75-2.56-9.52-4.24-14.16a1.55,1.55,0,0,0-1.85-1.05,1.52,1.52,0,0,0-1,1.85Z"/><path d="M75.44,148.57v17.26H72.36V148.57Z"/><path d="M82.74,149.26V153H86l-.42,2.47H82.74v5.92c0,1.4.64,2,1.68,2a5.72,5.72,0,0,0,2-.57l.56,2.34a8.09,8.09,0,0,1-3.27.84c-3,0-4-2-4-4.14V155.5h-1.8V153h1.94l.37-3.42Z"/><path d="M96.48,152.91l.44,2.29a4.34,4.34,0,0,1,4-2.44,3.77,3.77,0,0,1,3.85,2.39,4.55,4.55,0,0,1,4.16-2.39c3,0,4.22,2,4.22,4.64v8.43h-3.06v-7.45c0-2-.47-3-2.14-3-2.22,0-2.81,1.68-2.81,3.58v6.9h-3.06v-7.45c0-2-.47-3-2.15-3-2.36,0-2.83,1.9-2.83,4v6.51H94V152.91Z"/><path d="M119.15,152.91v7.45c0,2,.79,3,2.59,3,2.34,0,3.3-2.42,3.3-4.86v-5.62h3.06v12.92h-2.44l-.45-2.81a4.7,4.7,0,0,1-4.46,3c-3.16,0-4.66-1.95-4.66-5.2v-7.87Z"/><path d="M131.6,162.13a6.72,6.72,0,0,0,4.19,1.43c1.48,0,2.35-.44,2.35-1.5,0-2.52-7.47-.84-7.23-5.57.1-2.32,1.8-3.7,5.23-3.7A10.49,10.49,0,0,1,140.8,154l-1.08,2.17a7.36,7.36,0,0,0-3.7-1.07c-1.21,0-2.22.4-2.17,1.41.15,2.05,7.32.47,7.32,5.45,0,2.66-2.39,4-5.45,4a8.86,8.86,0,0,1-5.3-1.68Z"/><path d="M147.63,149.26V153h3.26l-.42,2.47h-2.84v5.92c0,1.4.64,2,1.68,2a5.72,5.72,0,0,0,1.95-.57l.57,2.34a8.21,8.21,0,0,1-3.28.84c-3,0-4-2-4-4.14V155.5h-1.8V153h1.94l.37-3.42Z"/><path d="M162,147v8.21a4.39,4.39,0,0,1,4.31-2.41c2.44.07,5.06,1.72,5.06,6.48,0,3.9-2,6.71-5.45,6.71a4.28,4.28,0,0,1-4.07-2.37l-.42,2.22h-2.49V147.39Zm-.12,12.36c0,2.21.81,4,3.25,4,2,0,3.11-1.5,3.11-4,0-3-1.51-4-3.13-4C163.32,155.35,161.87,156.76,161.87,159.35Z"/><path d="M185.39,162.28a5.76,5.76,0,0,1-5.57,3.7c-4.34,0-6.26-2.71-6.26-6.76s2.71-6.53,6.43-6.43c3,.07,5.75,2.34,5.45,6.46l-.05.39h-8.73c0,2.2.94,3.7,3.18,3.7a2.87,2.87,0,0,0,2.79-2.05Zm-3.13-4.22c.05-2-1-2.93-2.54-2.88a2.87,2.87,0,0,0-2.91,2.88Z"/><path d="M196.35,147v8.21a4.39,4.39,0,0,1,4.31-2.41c2.44.07,5.06,1.72,5.06,6.48,0,3.9-1.95,6.71-5.45,6.71a4.27,4.27,0,0,1-4.07-2.37l-.42,2.22h-2.49V147.39Zm-.13,12.36c0,2.21.82,4,3.26,4,2,0,3.1-1.5,3.1-4,0-3-1.5-4-3.13-4S196.22,156.76,196.22,159.35Z"/><path d="M214.23,152.79c3.23,0,6,2.19,6,6.6,0,3.63-2.15,6.59-6.17,6.59-4.36,0-6.16-3-6.16-6.59C207.94,155,210.72,152.79,214.23,152.79Zm-3.09,6.6c0,2.05.69,4,3,4,2.1,0,3-1.95,3-4,0-2.86-1.41-4-3-4C212.52,155.38,211.14,156.49,211.14,159.39Z"/><path d="M226,147v14.62c0,1.39.62,1.76,1.53,1.76a2.42,2.42,0,0,0,1.28-.47l.57,2.19a5.35,5.35,0,0,1-2.79.89c-2.56,0-3.65-1.73-3.65-4.07V147.36Z"/><path d="M242.49,147v18.84h-2.56l-.35-2.22a4.52,4.52,0,0,1-4.12,2.37c-3.47.05-5.55-2.84-5.55-6.63,0-4.64,3-6.56,5.53-6.56a4.1,4.1,0,0,1,4,2.44v-7.84Zm-9.42,12.33c0,2.2.86,3.92,3.16,3.92s3.25-1.72,3.25-3.89c0-2.94-1.58-4-3.28-4S233.07,156.49,233.07,159.32Z"/><path d="M246.61,165.49a1.42,1.42,0,0,1-1.63-1.58,1.6,1.6,0,0,1,1.73-1.53c1.7,0,2.37,1.33,2.24,2.91-.19,2.34-2,3.28-4,3.3v-1.33c1.16,0,2-.62,2-1.36C246.91,165.71,246.61,165.49,246.61,165.49Z"/><path d="M259.73,147v8a4.82,4.82,0,0,1,4.24-2.19c3,0,4.49,1.94,4.49,4.61v8.43H265.4v-7.45c0-2-.74-3-2.41-3-2.35,0-3.26,1.9-3.26,4v6.51h-3.06V147.36Z"/><path d="M275.54,152.91v12.92h-3.08V155.45h-1.8v-2.54Zm-1.55-5a1.6,1.6,0,1,1,0,3.16,1.63,1.63,0,0,1-1.8-1.63A1.59,1.59,0,0,1,274,147.88Z"/><path d="M290.73,152.91v11c0,4.29-1.67,6.88-6.41,6.88a13.36,13.36,0,0,1-5.28-1.11l.72-2.31a11.13,11.13,0,0,0,4.22,1c2.78,0,3.69-1.38,3.69-3.5v-1.14a4.44,4.44,0,0,1-4,2.05c-3.48.07-5.48-2.57-5.48-6.36,0-4.64,3-6.56,5.52-6.56a4.28,4.28,0,0,1,4.1,2.34l.32-2.22Zm-9.32,6.41c0,2.2.86,3.92,3.16,3.92s3.2-1.72,3.2-3.89c0-2.94-1.55-4-3.23-4S281.41,156.49,281.41,159.32Z"/><path d="M297,147v8a4.81,4.81,0,0,1,4.24-2.19c3,0,4.49,1.94,4.49,4.61v8.43h-3.06v-7.45c0-2-.74-3-2.41-3-2.35,0-3.26,1.9-3.26,4v6.51h-3.06V147.36Z"/><path d="M72.38,187.64a15.49,15.49,0,0,1,4.89-.94c3.89,0,5.32,1.92,5.32,4.93v5.23a.65.65,0,0,0,.62.74,2.41,2.41,0,0,0,1-.15v2.05a5,5,0,0,1-2,.39,2.34,2.34,0,0,1-2.34-1.75,5.64,5.64,0,0,1-3.89,1.75c-2.52,0-4.39-1.28-4.42-4s2-4.09,5.25-4.09a19.85,19.85,0,0,1,2.79.25v-.77c0-1.4-.89-2.17-2.66-2.14a10.41,10.41,0,0,0-4,.79Zm7.16,6a13.13,13.13,0,0,0-2.52-.15c-1.48.07-2.42.77-2.44,2.07a1.81,1.81,0,0,0,2.1,1.9,5.1,5.1,0,0,0,2.86-1Z"/><path d="M88.76,186.82l.47,2.3a4.76,4.76,0,0,1,4.41-2.42c3,0,4.49,2,4.49,4.61v8.43H95.07V192.3c0-2-.74-3-2.41-3-2.35,0-3.26,1.89-3.26,4v6.51H86.34V186.82Z"/><path d="M113.32,180.91v18.83h-2.56l-.35-2.21a4.5,4.5,0,0,1-4.11,2.36c-3.48.05-5.55-2.83-5.55-6.63,0-4.64,3-6.56,5.52-6.56a4.09,4.09,0,0,1,4,2.44V181.3Zm-9.42,12.32c0,2.2.87,3.93,3.16,3.93s3.26-1.73,3.26-3.9c0-2.93-1.58-4-3.28-4S103.9,190.4,103.9,193.23Z"/><path d="M132.86,196.12c-.84,2.64-3,3.77-5.62,3.77-4.24,0-6.07-3.15-6.07-6.61,0-4.21,2.61-6.51,6.14-6.58,3.11-.07,5,1.53,5.5,3.8l-2.84.91a2.54,2.54,0,0,0-2.61-2.12c-1.78,0-3.13,1.31-3.13,3.94,0,2.1.79,4,3.08,4a2.6,2.6,0,0,0,2.71-2Z"/><path d="M141.15,186.7c3.23,0,6,2.19,6,6.61,0,3.62-2.15,6.58-6.17,6.58-4.36,0-6.16-3-6.16-6.58C134.86,188.89,137.65,186.7,141.15,186.7Zm-3.09,6.61c0,2.05.69,4,3,4,2.1,0,3-1.94,3-4,0-2.86-1.41-4-3-4C139.45,189.29,138.06,190.4,138.06,193.31Z"/><path d="M152.32,186.82l.47,2.3a4.76,4.76,0,0,1,4.41-2.42c3,0,4.49,2,4.49,4.61v8.43h-3.06V192.3c0-2-.74-3-2.41-3-2.35,0-3.26,1.89-3.26,4v6.51H149.9V186.82Z"/><path d="M165.66,187V185.2c0-2.64,1.38-4.29,4.25-4.29a6.9,6.9,0,0,1,2.12.32l-.47,2.19c-.1,0-.5-.07-.89-.07-1.36,0-1.92.56-1.92,2.34V187H176v12.79h-3.06V189.41h-4.16v10.33h-3.09V189.41h-2V187Zm8.81-5.16a1.65,1.65,0,0,1,1.8,1.56,1.62,1.62,0,0,1-1.8,1.6,1.64,1.64,0,0,1-1.83-1.63C172.64,182.48,173.28,181.79,174.47,181.79Z"/><path d="M191.21,180.91v18.83h-2.56l-.35-2.21a4.5,4.5,0,0,1-4.11,2.36c-3.48.05-5.55-2.83-5.55-6.63,0-4.64,3-6.56,5.52-6.56a4.09,4.09,0,0,1,4,2.44V181.3Zm-9.42,12.32c0,2.2.87,3.93,3.16,3.93s3.26-1.73,3.26-3.9c0-2.93-1.58-4-3.28-4S181.79,190.4,181.79,193.23Z"/><path d="M205.69,196.19a5.75,5.75,0,0,1-5.57,3.7c-4.34,0-6.26-2.71-6.26-6.75s2.71-6.54,6.43-6.44c3,.07,5.75,2.34,5.45,6.46l-.05.4H197c0,2.19.94,3.69,3.18,3.69a2.87,2.87,0,0,0,2.79-2ZM202.56,192c.05-2-1-2.94-2.54-2.89a2.88,2.88,0,0,0-2.91,2.89Z"/><path d="M210.85,186.82l.47,2.3a4.76,4.76,0,0,1,4.41-2.42c3,0,4.49,2,4.49,4.61v8.43h-3.06V192.3c0-2-.74-3-2.42-3-2.34,0-3.25,1.89-3.25,4v6.51h-3.06V186.82Z"/><path d="M227.3,183.17V187h3.25l-.42,2.46H227.3v5.92c0,1.41.64,1.95,1.68,1.95a5.43,5.43,0,0,0,1.94-.57l.57,2.34a7.94,7.94,0,0,1-3.28.84c-3,0-4-2-4-4.14v-6.34h-1.8V187h1.95l.37-3.43Z"/><path class="cls-8" d="M95.79,61.4A36.74,36.74,0,0,1,104.16,38a34.44,34.44,0,1,0,.11,46.9A36.78,36.78,0,0,1,95.79,61.4ZM87.2,75.66H70.92L71,73.39l4.46-.58c.58,0,.81-.23.81-1,.08-10.05,0-19.6,0-19.6l-5.62,1.08c-.19-.31-1.12-2.46-.46-2.73l10.35-4,1,1s-.12,20.87,0,24.37c0,.77.19,1,.73,1l5.08.54Z"/><circle cx="130" cy="61.53" r="34.44"/><text class="cls-9" transform="translate(118.45 75.26)">2</text><path d="M184,52.13l8.43,15.27V52.13h3.75v21h-4.59L183.3,58.34V73.13h-3.75v-21Z"/><path d="M213.6,68.81a7,7,0,0,1-6.78,4.5c-5.28,0-7.62-3.3-7.62-8.22s3.3-8,7.83-7.83c3.69.09,7,2.85,6.63,7.86l-.06.48H203c0,2.67,1.14,4.5,3.87,4.5a3.5,3.5,0,0,0,3.39-2.49Zm-3.81-5.13c.06-2.43-1.26-3.57-3.09-3.51a3.5,3.5,0,0,0-3.54,3.51Z"/><path d="M219.69,57.41l3.15,6.18,3.3-6.18h4l-4.35,7.8,4.53,7.92h-4.26L222.78,67l-3.45,6.12h-4.14L220,65.27l-4.29-7.86Z"/><path d="M238.11,53v4.59h4l-.51,3h-3.45v7.2c0,1.71.78,2.37,2,2.37a6.83,6.83,0,0,0,2.37-.69l.69,2.85a9.82,9.82,0,0,1-4,1c-3.69,0-4.83-2.46-4.83-5V60.56H232.2v-3h2.37l.45-4.17Z"/><path d="M256.74,57.41V73.13H253V60.5H250.8V57.41Zm-1.89-6.12a2,2,0,0,1,2.22,1.89,2.22,2.22,0,0,1-4.41,0A1.93,1.93,0,0,1,254.85,51.29Z"/><path d="M261,68.63a8.15,8.15,0,0,0,5.1,1.74c1.8,0,2.85-.54,2.85-1.83,0-3.06-9.09-1-8.79-6.78.12-2.82,2.19-4.5,6.36-4.5a12.78,12.78,0,0,1,5.67,1.47l-1.32,2.64a8.9,8.9,0,0,0-4.5-1.29c-1.47,0-2.7.48-2.64,1.71.18,2.49,8.91.57,8.91,6.63,0,3.24-2.91,4.92-6.63,4.89a10.76,10.76,0,0,1-6.45-2Z"/><path d="M286.77,53v4.59h4l-.51,3h-3.45v7.2c0,1.71.78,2.37,2,2.37a6.83,6.83,0,0,0,2.37-.69l.69,2.85a9.82,9.82,0,0,1-4,1c-3.69,0-4.83-2.46-4.83-5V60.56h-2.19v-3h2.37l.45-4.17Z"/><path d="M294.09,58.4A18.74,18.74,0,0,1,300,57.26c4.74,0,6.48,2.34,6.48,6v6.36a.79.79,0,0,0,.75.9,3,3,0,0,0,1.23-.18v2.49a6.08,6.08,0,0,1-2.49.48,2.84,2.84,0,0,1-2.85-2.13,6.87,6.87,0,0,1-4.74,2.13c-3.06,0-5.34-1.56-5.37-4.83s2.46-5,6.39-5a24.49,24.49,0,0,1,3.39.3v-.93c0-1.71-1.08-2.64-3.24-2.61a12.68,12.68,0,0,0-4.86,1Zm8.7,7.35a16.62,16.62,0,0,0-3.06-.18c-1.8.09-2.94.93-3,2.52a2.21,2.21,0,0,0,2.55,2.31,6.17,6.17,0,0,0,3.48-1.26Z"/><path d="M314.79,50.21V64h1.74l3.66-6.45h4.2l-4.71,7.77,5.13,7.86h-4.29l-4-6.09h-1.77v6.09h-3.72V50.66Z"/><path d="M340.59,68.81a7,7,0,0,1-6.78,4.5c-5.28,0-7.62-3.3-7.62-8.22s3.3-8,7.83-7.83c3.69.09,7,2.85,6.63,7.86l-.06.48H330c0,2.67,1.14,4.5,3.87,4.5a3.5,3.5,0,0,0,3.39-2.49Zm-3.81-5.13c.06-2.43-1.26-3.57-3.09-3.51a3.5,3.5,0,0,0-3.54,3.51Z"/><path d="M349.68,63.56v3h-7.44v-3Z"/><path d="M359,57.26c3.93,0,7.35,2.67,7.35,8,0,4.41-2.61,8-7.5,8-5.31,0-7.5-3.6-7.5-8C351.33,59.93,354.72,57.26,359,57.26Zm-3.75,8c0,2.49.84,4.86,3.66,4.86,2.55,0,3.69-2.37,3.69-4.86,0-3.48-1.71-4.89-3.6-4.89C356.91,60.41,355.23,61.76,355.23,65.3Z"/><path d="M370.56,57.56V55.43c0-3.21,1.68-5.22,5.19-5.22a8.28,8.28,0,0,1,3,.54l-.48,2.61a7.71,7.71,0,0,0-1.59-.18c-1.65,0-2.34.69-2.34,2.85v1.53h3.42l-.48,3h-2.94V73.13h-3.75V60.56H368.1v-3Z"/><path d="M381.12,57.56V55.43c0-3.21,1.68-5.22,5.19-5.22a8.28,8.28,0,0,1,3,.54l-.48,2.61a7.71,7.71,0,0,0-1.59-.18c-1.65,0-2.34.69-2.34,2.85v1.53h3.42l-.48,3h-2.94V73.13h-3.75V60.56h-2.46v-3Z"/></svg>