<svg id="Layer_1" data-name="Layer 1" xmlns="http://www.w3.org/2000/svg" viewBox="0 0 780 1051.14"><defs><style>.cls-1,.cls-5{fill:#d4a47c;}.cls-1,.cls-3,.cls-4,.cls-5,.cls-6{stroke:#fff;}.cls-1,.cls-2,.cls-3,.cls-4,.cls-5,.cls-6{stroke-miterlimit:10;}.cls-1,.cls-6{stroke-width:0.27px;}.cls-2{fill:none;stroke:#ffea00;stroke-width:1.4px;}.cls-3{fill:#fff171;stroke-width:0.3px;}.cls-4{fill:#005058;stroke-width:0.48px;}.cls-5{stroke-width:0.36px;}.cls-6{fill:#c6946f;}.cls-7{font-size:24.66px;}.cls-11,.cls-7{font-family:ABCSansBold, ABCSans;}.cls-8{letter-spacing:-0.02em;}.cls-10,.cls-9{fill:#fff;}.cls-9{opacity:0.7;}.cls-10{font-size:38.5px;font-family:ABCSerifBold, ABCSerif;}.cls-11{font-size:30px;}.cls-12{letter-spacing:-0.01em;}.cls-13{letter-spacing:-0.02em;}.cls-14{letter-spacing:-0.01em;}.cls-15{letter-spacing:0em;}</style></defs><path class="cls-1" d="M538.86,708.56c-12.45-9.87-22.21-19.66-34.38-29.89C480.66,660.2,478.71,666,465.85,659.1c-3.14-2-6.33-3.86-9.57-5.65-2.21-1.44-4.4-3-6.54-4.64-14.57-11.27-30.23-21.91-48.11-26.36a66.11,66.11,0,0,0-21.45-1.74,32,32,0,0,0,1.76-3.51,19.2,19.2,0,0,0-3.12-1.42A28.59,28.59,0,0,1,374,613.4c-1.4-.83-2.84-1.16-3.5-2.62-.52-1.13-.31-2.43-.82-3.54a22.17,22.17,0,0,1-1.19-2.2,32,32,0,0,1-.8-3.87c-.58-2.87-1.44-5.74-2.15-8.59A24.2,24.2,0,0,0,361.7,584a19.54,19.54,0,0,0-7.45-5.94,42,42,0,0,0-6.89-2.76,73.64,73.64,0,0,0-10.65-1.95c-4-.44-8.73.51-12.55,1.74-2.84.91-5.7,1.35-8.47,2.59a25.2,25.2,0,0,0-7.26,5.43c-1.85,1.84-4,2.85-6.18,4.11-1.1.63-1.86,1.71-3,2.41a28.06,28.06,0,0,0-3.87,2.68c-2.26,2-2.52,4.59-2.93,7.39-.28,1.87.08,3.67-.23,5.54a14,14,0,0,0-.1,2.74c0,1-.23,2-.19,3,0,.5.24.9.27,1.42s-.26.83-.13,1.36a19.35,19.35,0,0,0,1.52,2.77,27.41,27.41,0,0,1,1.52,3.37,2.33,2.33,0,0,0,.13.37c-.06,0-.14.15-.26.47a11.9,11.9,0,0,1-1.36,2.47c-1.24,2.08-1.71,2-2.89,4.53a28.25,28.25,0,0,0-1.8,4.85,3.41,3.41,0,0,0,3.08,4.3,1.87,1.87,0,0,1,1.17.49,4.77,4.77,0,0,1,2,2.86,19.31,19.31,0,0,0,.14,3,18.34,18.34,0,0,0,2.22,5.11c.82,1.28,1.72,1.65,1.55,3.15-.11,1.08-.28,2.18-.45,3.25-.3,2,0,4,2,5,2.7,1.3,7.25.49,10.12.43a25.23,25.23,0,0,0,3.45-.36,6.71,6.71,0,0,1,1.06-.18h.17a18.7,18.7,0,0,1,4.29-.28,6.08,6.08,0,0,1,1.09.19c.52,0,1,.11,1.56.2,2.09.39,4.17.91,6.22,1.49,10.6.52,21.54.37,32,2.29.19.36.39.72.58,1.09a67.66,67.66,0,0,0,6.83,11.3c3.08,3.82,7.45,6.18,11.05,9.44,4.47,4.08,8.39,8.24,13.65,10.61a26.69,26.69,0,0,0,6.13,5.29l7.4,4.5c.79,2,3.6,3.29,5.09,4.66,11.07,10.13,27,4.31,40.22,4,12.16-.28,23.92,3.9,35.86,6.29,15.8,3.17,32.1,3.22,48.17,1.93,3.43-.27,8-2,7.3-5.38C542.59,715.82,540,709.45,538.86,708.56Z"/><path d="M303.14,611c.34.1.68.24,1,.36s.59.25.67.47,0,.09-.05.13a1.15,1.15,0,0,1-.31,0,1.83,1.83,0,0,0-.33,0c-.44,0-.87.14-1.3.19-.25,0-.5.09-.75.1-1.58.07-3.23-.39-4.79-.15a7.19,7.19,0,0,0-3.75,2.32c-.26-.44-1.15-1.86-.8-2.31.51-.64,2.63-.93,3.36-1.33a6.46,6.46,0,0,1,4.48-.63C301.45,610.35,302.27,610.77,303.14,611Z"/><path d="M381.22,611.64c-2.14-1.27-4.68-2.25-6.64-3.77-6.25-4.82-5.93-14.26-9.51-21.29-3-5.79-8.64-9.84-14.78-12s-12.74-2.51-19.24-2.43c-6,.07-12.13.54-17.75,2.7-3.79,1.45-14.14,7.32-12.92,12.56s10.84,7.48,13,13c1.1,2.78.9,6,2.48,8.57a25.12,25.12,0,0,0,3,3.37c1.83,2,3.13,4.48,5.09,6.37s5,3.1,7.42,1.87a11.11,11.11,0,0,1,.38-5.76c.76-1.8,1.89-1.22,3.79-.82,2.62.56,4.28,1.91,3.95,4.56s-1.31,5.43-.35,7.93c1,2.69,4,4.08,6.63,5.21,4.58,1.93,13.49,2.1,18.07,4,1.94-2.27,1.73-1.27,3.8-3.41,1.57-1.62-1.81-4.3.42-4a18.47,18.47,0,0,0,12.23-2.51c3.4-2.1,6.24-6.16,4.92-9.92A8.39,8.39,0,0,0,381.22,611.64Z"/><path d="M300,588.24l.79-.5c0-.06-.08-.11-.11-.18A2.93,2.93,0,0,0,300,588.24Z"/><path class="cls-1" d="M328.51,621.8c-3.6-3.85,2.4-9.79,6.36-9.35a6.54,6.54,0,0,1,5.59,6.86c-.32,3.38-3.25,6-3.79,9.36-.28,1.76.1,3.73-.9,5.22s-4.16.93-3.62-.77"/><path d="M368.64,613.66a7.2,7.2,0,0,0,2.11-2.65,12.06,12.06,0,0,1,2.69-2.94,6.12,6.12,0,0,1,4.18-1.63,6.68,6.68,0,0,1,3.74,1.43,6.42,6.42,0,0,1,2.3,2.8c.3,1.26-.41,3.25-.56,4.52a6.75,6.75,0,0,1-2.43,3.87,6,6,0,0,1-4.25,1.91,19.55,19.55,0,0,1-9.8-4c-1.43-1-1.95-3.35-2.06-5s.2-4.5,1.17-5.94c1.86-2.77,6-2.21,8.6-1.19,1.59.62,3.12,1.4,3.64,3.16a9.62,9.62,0,0,1,0,4.4,17.69,17.69,0,0,1-1,4.91,6.54,6.54,0,0,1-1.22,2.34,20.38,20.38,0,0,0-2,2.14,8.07,8.07,0,0,1-2.52,2.16,3.24,3.24,0,0,1-2.5.39,10.66,10.66,0,0,1-2.91-.84c-.58-.26-1.05-.73-1.61-1-1-.53-1-.58-.87-1.81"/><path d="M368.2,612.75c-.41-1.37.24-2.49,1-3.58a6.06,6.06,0,0,0,.71-1.18,1.86,1.86,0,0,1,1.49-1.22c1.78-.47,3.79.38,5.41,1a6.07,6.07,0,0,1,2,.94c.53.44.88,1.05,1.39,1.47.31.25.67.33.93.66s.35.77.63,1.1.52.46.68.94a7.15,7.15,0,0,1,.26,1.22,4.77,4.77,0,0,1,.14,2.25,13.49,13.49,0,0,1-.83,2.19,5.93,5.93,0,0,1-.6.88c-.25.36-.36.79-.61,1.14a6.17,6.17,0,0,1-3,1.83c-2.07.84-4.62.34-6.75-.05a11.53,11.53,0,0,1-4.62-2,26.64,26.64,0,0,1-2.08-1.89,9.77,9.77,0,0,1-1.8-1.89,8.43,8.43,0,0,1-1.09-2.65,17.68,17.68,0,0,1-.61-3,6.17,6.17,0,0,1,.67-2.92,7.09,7.09,0,0,0,.84-1.37A5.53,5.53,0,0,1,363,605a6.61,6.61,0,0,1,4.69-3.16,21.45,21.45,0,0,1,4.31-.21c.92.1,1.83.26,2.75.38a5.84,5.84,0,0,1,2.71,1.11,4.1,4.1,0,0,1,1.28,1.17,5.09,5.09,0,0,1,.92,1.39c.4,1.57-.29,3-.17,4.52a6.19,6.19,0,0,1,.11.89c0,.48-.14,1-.21,1.43a10.49,10.49,0,0,1-.43,2.3,6.8,6.8,0,0,1-1.33,2.28,3.61,3.61,0,0,1-2.7,1.25,10.17,10.17,0,0,1-3.69,0,13,13,0,0,1-4.43-2.11,9.92,9.92,0,0,1-3.44-3.61,11,11,0,0,1-1.06-2.38,10.84,10.84,0,0,1,0-2.35c0-1.67,1.25-3.07,2.17-4.35.18-.25.51-.94.81-1.07s.68.06.92.09"/><path d="M363.51,626.26c-.41-1.38.25-2.49,1-3.58a6.06,6.06,0,0,0,.71-1.18,1.87,1.87,0,0,1,1.49-1.23c1.77-.47,3.79.38,5.41,1a6.42,6.42,0,0,1,2,.95c.53.43.88,1.05,1.39,1.46.31.25.67.33.93.66s.35.77.63,1.11.52.45.68.94a7.25,7.25,0,0,1,.26,1.21,4.91,4.91,0,0,1,.14,2.25,14.6,14.6,0,0,1-.83,2.2,6.51,6.51,0,0,1-.6.88c-.25.35-.36.78-.61,1.14a6.25,6.25,0,0,1-3,1.83c-2.07.83-4.62.33-6.75-.06a11.51,11.51,0,0,1-4.62-2c-.75-.59-1.4-1.24-2.08-1.89a9.76,9.76,0,0,1-1.8-1.89,8.75,8.75,0,0,1-1.1-2.66,18.55,18.55,0,0,1-.6-3,6.11,6.11,0,0,1,.67-2.92,7.75,7.75,0,0,0,.84-1.37,5.76,5.76,0,0,1,.61-1.55,6.61,6.61,0,0,1,4.7-3.15,21.45,21.45,0,0,1,4.31-.22c.92.11,1.83.27,2.75.38a6,6,0,0,1,2.71,1.11,4.25,4.25,0,0,1,1.28,1.18,5,5,0,0,1,.92,1.39c.4,1.57-.29,3-.18,4.51a5.29,5.29,0,0,1,.12.89c0,.48-.14,1-.21,1.44a10.31,10.31,0,0,1-.44,2.29,6.75,6.75,0,0,1-1.32,2.29,3.6,3.6,0,0,1-2.7,1.24,9.74,9.74,0,0,1-3.69,0,13,13,0,0,1-4.43-2.1,10,10,0,0,1-3.44-3.61,11.24,11.24,0,0,1-1.06-2.38,10.85,10.85,0,0,1,0-2.35c0-1.68,1.26-3.08,2.18-4.36.18-.25.51-.94.81-1.07s.68.06.92.09"/><path class="cls-2" d="M415.26,626.07c4.21,1.19,8.36,2.45,10.76,3a51.84,51.84,0,0,1,8.05,2.88,38.7,38.7,0,0,1,16.47,12.95c6.35,8.76,8,19.81,7.57,30.39"/><path class="cls-3" d="M415.41,616.34a6.09,6.09,0,0,0-1.92-.61,4.62,4.62,0,0,1-1.13-.33c-7.4.34-14.9,1.76-21.16,5.48a28,28,0,0,0-12,14.39c-4.29,11.48-2.12,24.57,1.19,36a117.59,117.59,0,0,0,4.81,13.48c1,2.28,5,1.29,4.05-1a100,100,0,0,1-7.68-27c-1.31-10.91-.28-23.68,9.7-31.13,7-5.26,16.67-6.45,25.46-6.39a2,2,0,0,0,1.62-.73C417.35,617.78,416.37,617.07,415.41,616.34Z"/><path class="cls-4" d="M492.2,752.84c16.06-1.27,16.8-9.13,29.08-16.06,10.2-5.77,16.58-11.88,29.09-10.36,12.18,1.48,22.5,8,32,15.22a75,75,0,0,0-38.47-39.06c-12.18-5.36-25.42-7.23-38.58-8.31-11-.9-22.53-6.91-30.69-14.36-3.38-3.07-6.75-7.88-11.42-8.51-2.18-.29-4.28.47-6.32,1.17-23.25,7.95-46.14,13.77-70.83,9.44a1.17,1.17,0,0,0-1.39,1.5c1.7,4.27,2.19,8.67,2.91,13.13a75.19,75.19,0,0,0,3.07,11.84c1.14,3.41,2.1,7.14,4.49,10,4.6,5.53,11.52,9.27,18.16,12.39l1.9.88a62.68,62.68,0,0,0,15.36,4.55c11.49,2,13.51,10.93,22.8,12.63C479.59,753.75,484.22,753.48,492.2,752.84Z"/><path class="cls-5" d="M426.27,667.65c8.73,1.28,40.92-1.68,49.72-1.41,5.74.18,11.59-.48,17.31.19,4.88.57,9.63,1.67,14.58,2,3.48.24,7,.43,10.44.59,6.77.31,13.54.51,20.3.75l47.07,3.06c1.19.15,2.37.11,3.56.18a24.47,24.47,0,0,1,3.76.81,35.15,35.15,0,0,0,4.1.42,38.06,38.06,0,0,1,5.88,1.1c2.37.6,4.46,1,6.41,2.64,1.44,1.19,2.67,2.61,4,3.88a23.51,23.51,0,0,0,5.65,3.82,9.59,9.59,0,0,0,3.18,1.25c.9,0,1.51-.87,2.47-.61.48.13,1,.22,1.45.34.31.08.58.18.9.24s.54.14.82.19a13.29,13.29,0,0,1,1.71.59c.28.11.57.2.86.3a7.74,7.74,0,0,1,.7.37,2.7,2.7,0,0,0,.66.22c.26.06.51.18.77.23a3.75,3.75,0,0,0,1.6,0,1.84,1.84,0,0,0,.47-.15c.19-.12.39-.32.57-.46a8.92,8.92,0,0,1,1.22-.9,7.93,7.93,0,0,1,1.37-.38c.42-.11.84-.21,1.25-.33s.61-.06.91-.13a4.3,4.3,0,0,1,.69-.16c.22,0,.43,0,.65,0a1.41,1.41,0,0,0,.54,0A7.47,7.47,0,0,0,643,686c.54-.22.47-.74.43-1.23a2,2,0,0,0-.24-.71,7.07,7.07,0,0,0-.61-1.11.44.44,0,0,0-.24-.21,1,1,0,0,1-.24,0c-.08,0-.12-.13-.18-.19a.53.53,0,0,0-.23-.13,8.47,8.47,0,0,0-1.87-.36c-.71-.08-1.42-.14-2.14-.18a19.63,19.63,0,0,0-2.86.19c3.92-.81,7.92.67,11.93.85a21.92,21.92,0,0,1,6.19.75,8,8,0,0,0,1.17.29,3.31,3.31,0,0,0,.55-.06c.15,0,.32,0,.48,0,.4,0,.77,0,1.16,0s.89,0,1.33.06c.73,0,1.46.07,2.19.15a5.92,5.92,0,0,0,2-.42,2.65,2.65,0,0,0,1.64-1.57,2.79,2.79,0,0,0,.09-2,1.46,1.46,0,0,0-.54-.75,5,5,0,0,0,.53.23,1.82,1.82,0,0,0,1.32,0,2.91,2.91,0,0,0,.5-.16,5.07,5.07,0,0,1,.65-.24,2.62,2.62,0,0,0,.61-.35.94.94,0,0,0,.4-.85,8.52,8.52,0,0,0-.1-1.51,2.41,2.41,0,0,0-.51-1.34,3.13,3.13,0,0,0-1.54-.65,15.39,15.39,0,0,0-2-.46c-.52-.08-1-.15-1.51-.27a13.82,13.82,0,0,0-1.8-.31c-.66-.06-1.3-.45-2-.57-.35-.07-.7-.09-1-.14s-.56-.16-.85-.2A5.78,5.78,0,0,1,654,672a5.12,5.12,0,0,0-.92-.35,6,6,0,0,1-.72-.23l6.84,1.79a10,10,0,0,1,1.73.45.71.71,0,0,0,.56.1c.13,0,.19,0,.31,0a1.79,1.79,0,0,0,1-.5c.77-.68.41-1.78,0-2.58a2.59,2.59,0,0,0-1.13-1.14c-.52-.3-1-.71-1.47-1a4.12,4.12,0,0,0-1.45-.51,9.51,9.51,0,0,1-1.59-.41,21.63,21.63,0,0,0-3.24-.49l-.9-.18c-.24,0-.44-.18-.68-.24-.65-.17-1.31-.28-2-.41a6.18,6.18,0,0,1-1-.31c-.3-.12-.62-.19-.91-.32s-.63-.25-1-.37l1.77.44,3.53.89a6.74,6.74,0,0,0,1.39.35c.19-.06.45.22.58,0s.12-.24.19-.35.21-.2.24-.34a.76.76,0,0,0,0-.33c-.12-.42-.11-.85-.21-1.27a2.11,2.11,0,0,0-.62-1c-2.2-2.39-7.32-2.83-10.3-3.59q-3.86-1-7.76-1.86c-1.88-.42-4.33-.47-6.09-1.19-.26-.09-.5-.12-.76-.19a2,2,0,0,0-.48-.13,3.25,3.25,0,0,1-.82,0c-.29-.07-.62-.33-.92-.34a12.17,12.17,0,0,0-1.84.23c-7.44.93-12.13-.23-19.63.17.15-.53-3.37,1.16-3.92,1.14-4-.12-7.92-.37-11.88-.54a7.83,7.83,0,0,1-1.73-.36l-35.31-11.81A108.57,108.57,0,0,0,540.58,642a51.56,51.56,0,0,0-10.87-1.19,22.28,22.28,0,0,1-3.65-.4c-1.73-.22-3.59.1-5.27,0a28.6,28.6,0,0,0-3.34.07c-1.34.09-2.33-.52-3.67-.44a9.79,9.79,0,0,1-2.29-.18c-2.34-1.33-4.43-3.4-6.87-4.53A64.83,64.83,0,0,0,492,631.47q-20.23-4.71-40.59-8.93c-13-2.7-27.49-7.38-40.8-7.13a33.45,33.45,0,0,0-16.12,5.09c-1.46.87-9,6.85-10.36,14.25m257,28.93a5.89,5.89,0,0,1-1.6-.36C640.12,663.44,640.66,663.55,641.19,663.68Zm-3.84,3.81a19.54,19.54,0,0,1,3.85,1l2.66.7,3.93,1c-1.85-.36-3.71-.67-5.54-1.12A25.22,25.22,0,0,1,637.35,667.49Zm18.23,10.66-1.28.11a5.7,5.7,0,0,1-1.37-.06,6.83,6.83,0,0,0-1.28-.08,3.93,3.93,0,0,1-1.55-.47,8.93,8.93,0,0,0-1.39-.51,25.3,25.3,0,0,1-3.27-.69l10.37,1.65.4.06C656,678.15,655.8,678.14,655.58,678.15Zm3.92.68c-.29-.08-.58-.19-.87-.28l2.12.33.67.14A6.56,6.56,0,0,1,659.5,678.83Z"/><path class="cls-5" d="M637.94,662.94l.18,0a3.07,3.07,0,0,1-.42-.07Z"/><path class="cls-5" d="M638.77,675.32l.14,0h0Z"/><path class="cls-5" d="M633.21,684.73a3.28,3.28,0,0,0-.44,1.25c0,.3,0,.61,0,.91s0,.5,0,.75c0,.42-.27.77.1,1.12"/><path class="cls-5" d="M634.82,685.34a5.3,5.3,0,0,1,.49,1.47c0,.16.09.32.13.48s0,.48.07.66"/><path class="cls-5" d="M662.94,683c-.27,0-1.65,0-1.89,0a2.79,2.79,0,0,1-.88-.44,2.42,2.42,0,0,1-.86-.91,2.39,2.39,0,0,1-.23-1c.14-.81,1.13-.93,1.79-1.08a4.36,4.36,0,0,1,1.14-.09c.16,0,.31,0,.48,0a3.8,3.8,0,0,1,1.06.13"/><path class="cls-5" d="M666.26,679.14c-.33.08-1,0-1.34.08a1.68,1.68,0,0,1-1.17-.41c-.26-.21-.47-.48-.73-.68-.06-.06-.14-.07-.21-.13a2.4,2.4,0,0,1-.23-.38,1.85,1.85,0,0,1-.29-1.23c0-.32.12-.79.45-.95a6.22,6.22,0,0,1,1.07-.28c.27-.06,2.21-.6,2.13-.3,0,0,.54.52.61.5"/><path class="cls-5" d="M662.63,673.38c-.26,0-.91-.09-1.18-.1a2.64,2.64,0,0,1-1.11-.28,3.06,3.06,0,0,1-.6-.3,3.21,3.21,0,0,1-.42-.49c-.1-.19,0-.34-.05-.53a1.68,1.68,0,0,1,0-.5,1.53,1.53,0,0,1,0-.43,1.66,1.66,0,0,1,.25-.34,1.11,1.11,0,0,1,.8-.32,4.32,4.32,0,0,1,1.12.2c.17,0,.36.05.54.09a5,5,0,0,1,.8.28c-.12.07.46.83.32.85"/><path class="cls-5" d="M648.34,675a3.92,3.92,0,0,1-.13-1.09,2.18,2.18,0,0,1,.26-1.21"/><path class="cls-5" d="M650,675.68a2.56,2.56,0,0,0,.26-.58,2.78,2.78,0,0,0,.27-1.1,2.73,2.73,0,0,0-.08-.94,3.5,3.5,0,0,0-.14-.46c-.06-.12-.17-.22-.18-.36"/><path class="cls-5" d="M646.59,667.47c0-.26,0-.53,0-.79a.47.47,0,0,1,0,.38"/><path class="cls-5" d="M645.5,667.65c0-.51.07-1,.17-1.56a1.56,1.56,0,0,1,.19-.6"/><path class="cls-5" d="M642.09,662.13a6.34,6.34,0,0,1-.36-1.36c0-.17,0-.46-.15-.57"/><path class="cls-5" d="M647.25,681.35a19.7,19.7,0,0,1,0-2c0-.93,0-.15,0-.23"/><path class="cls-5" d="M646.08,681.81a5.35,5.35,0,0,1-.05-3.89c.1-.25,0-.52,0-.78"/><path class="cls-5" d="M653.18,666.69c-.13-.08-1.1-.38-1.22-.49a1.88,1.88,0,0,1-.46-.54A7.61,7.61,0,0,1,651,664c-.11-.43-.25-.89,0-1.21a.87.87,0,0,1,1-.2c.39.13.75.26,1.14.42.21.08,1,.36,1.09.62"/><path class="cls-5" d="M639,686.63c-1.31.15-.47-1.2,0-1.55,1-.8,3-2.49,4.21-1.09"/><path class="cls-6" d="M588.45,754.33c-.33-.53-.7-1.08-1.1-1.64-.34-1.26-.77-2.5-1.09-3.77-1.31-5.19-5.44-10.49-9.59-14a39.26,39.26,0,0,0-6.15-4c-12-6.73-23.37-10.94-37.06-6.43-28,9.23-56.07,19-82.17,32.87-12.81,6.82-24.19,15-35.83,23.58-8.84,6.5-25.55,16.56-28.12,28.41-2.71,12.5,3.29,19.29,9.5,29.46,2.31,3.8,4.2,7.82,6.45,11.65a74.16,74.16,0,0,0,6.29,9.15,28.87,28.87,0,0,1,2.77,4,86,86,0,0,1,6.73,6.8c5.76,6.67,11.49,13.73,18.28,19.52,9.21,7.87,16.22,16.56,22.67,25.87,1.78,5.79,5.82,12.5,3.93,13.2-.35.13-3.59.74-3.94.84-3.78,1-7.25,3.64-11,5-3.24,1.12-6.57,1.4-9.82,2.42-6.39,2-12.75,5.26-19.53,4.78a1.66,1.66,0,0,0-1.17.19,2.54,2.54,0,0,0-.79,2.28,3.7,3.7,0,0,0,.57,1.73c.17.24.41.45.57.7s.14.42.26.6a8.76,8.76,0,0,0,3,2.79,15.68,15.68,0,0,0,5.27,2.17,19.85,19.85,0,0,0,2,.54c.48,0,.91-.06,1.38,0,1.5.19,3.06-.24,4.57-.25.72,0,1.42-.15,2.15-.17a12.37,12.37,0,0,1,2,0c.57.06,1.14.21,1.72.28,1.13.14,2.24.13,3.37.32,3.16.51,6.46-.29,9.67.07a73.07,73.07,0,0,0,11.93.52c5.89-.32,11.77-1.23,17.67-1.36,3.67-.08,7.86.68,11.66.11a15.78,15.78,0,0,1,4.88-4.07c0-.4,0-.81-.06-1.22-.25-1.24-.62-3-.64-3.09-.48-2-1-4-1.66-6-2.1-6.85-8.06-14.81-11.25-21.54-4.06-8.56-7.9-17.27-10.37-26.46-5.22-19.49-10.53-39-24.08-54-2.33-2.58-4.85-4.6-6.85-8.05-1.45-2-1.89-2.65-.91-2.78-.32-.43-.15-.22,0,0,8.38-.59,24-2.25,30.17-2.3,23.36-.2,43.11-1.24,65.06-9.91,20.62-8.14,48.79-13.14,52.57-38.56A29.11,29.11,0,0,0,588.45,754.33ZM412.07,798a4.22,4.22,0,0,0,.09-.8c0,.3.08.59.11.89Z"/><path d="M97.35,227.85a68.34,68.34,0,0,0,2.26,33.88,81.51,81.51,0,0,0,15.44,27A88.38,88.38,0,0,0,127,300.4c1.49,1.2,3.62-.91,2.12-2.12-15.47-12.49-27.31-30.61-29.53-50.65a65,65,0,0,1,.69-19c.35-1.89-2.54-2.69-2.89-.8Z"/><path d="M122.78,285.81c1.69,4.63,2.92,9.41,4.25,14.16l1.45-1.9c-2.49.06-5,.24-7.47.34-2.31.1-4.62.1-6.94.2-1.92.09-1.93,3.09,0,3,2.32-.1,4.63-.1,6.94-.2,2.49-.1,5-.28,7.47-.34a1.52,1.52,0,0,0,1.44-1.9c-1.33-4.75-2.56-9.52-4.24-14.16a1.55,1.55,0,0,0-1.85-1.05,1.52,1.52,0,0,0-1,1.85Z"/><text class="cls-7" transform="translate(70.61 165.83)">It must be bo<tspan class="cls-8" x="150.8" y="0">l</tspan><tspan x="158.22" y="0">d, high </tspan><tspan x="0" y="33.91">and confident</tspan></text><path class="cls-9" d="M95.79,61.4A36.74,36.74,0,0,1,104.16,38a34.44,34.44,0,1,0,.11,46.9A36.78,36.78,0,0,1,95.79,61.4ZM87.2,75.66H70.92L71,73.39l4.46-.58c.58,0,.81-.23.81-1,.08-10.05,0-19.6,0-19.6l-5.62,1.08c-.19-.31-1.12-2.46-.46-2.73l10.35-4,1,1s-.12,20.87,0,24.37c0,.77.19,1,.73,1l5.08.54Z"/><circle cx="130" cy="61.53" r="34.44"/><text class="cls-10" transform="translate(118.45 75.26)">2</text><text class="cls-11" transform="translate(177.42 73.13)"><tspan class="cls-12">N</tspan><tspan class="cls-13" x="20.46" y="0">e</tspan><tspan x="36.84" y="0">xt is </tspan><tspan class="cls-12" x="102.6" y="0">t</tspan><tspan x="114.51" y="0">a</tspan><tspan class="cls-14" x="131.73" y="0">k</tspan><tspan class="cls-15" x="147.45" y="0">e-off</tspan></text></svg>