<svg id="Layer_1" data-name="Layer 1" xmlns="http://www.w3.org/2000/svg" viewBox="0 0 780 1051.14"><defs><style>.cls-1,.cls-5{fill:#d4a47c;}.cls-1,.cls-2,.cls-3,.cls-4,.cls-5{stroke:#fff;stroke-miterlimit:10;}.cls-1{stroke-width:0.27px;}.cls-2{fill:#005058;stroke-width:0.47px;}.cls-3{fill:#c6946f;stroke-width:0.25px;}.cls-4{fill:#fff171;stroke-width:0.3px;}.cls-5{stroke-width:0.36px;}.cls-6,.cls-7{fill:#fff;}.cls-6{opacity:0.7;}</style></defs><path class="cls-1" d="M523.39,644.71c-9.74-9-41.1-29.2-52.21-36.43-23.58-15.34-22.35-17.2-48.49-27.14-3.83-1.46-37.66-8.75-41.81-8.75a18.66,18.66,0,0,0-4,.62c1-2.54,2.8-4.74,4-7.25a19.19,19.19,0,0,0-3.05-1.57,28,28,0,0,1-4.74-2.59c-1.35-.89-2.78-1.28-3.38-2.78-.46-1.14-.19-2.43-.66-3.57A24.59,24.59,0,0,1,368,553a32.29,32.29,0,0,1-.62-3.9c-.45-2.89-1.18-5.8-1.76-8.68a24.22,24.22,0,0,0-3.44-8.74,19.51,19.51,0,0,0-7.17-6.27,43.78,43.78,0,0,0-6.76-3.07,74.46,74.46,0,0,0-10.56-2.42c-4-.62-8.74.12-12.61,1.18-2.88.78-5.75,1.09-8.58,2.21A25.1,25.1,0,0,0,309,528.4c-1.93,1.76-4.13,2.67-6.37,3.83-1.12.59-1.93,1.63-3.08,2.28a28.63,28.63,0,0,0-4,2.5c-2.35,1.92-2.72,4.48-3.26,7.25-.36,1.85-.08,3.67-.47,5.53a14.74,14.74,0,0,0-.24,2.73c0,1-.3,2-.31,3,0,.5.19.91.2,1.43s-.3.82-.19,1.35a20.12,20.12,0,0,0,1.39,2.84,27.24,27.24,0,0,1,1.37,3.43,3,3,0,0,0,.12.38c-.06,0-.16.14-.29.46a12,12,0,0,1-1.47,2.41c-1.33,2-1.79,1.94-3.08,4.39a27.22,27.22,0,0,0-2,4.77,3.42,3.42,0,0,0,2.89,4.43,1.8,1.8,0,0,1,1.14.54,4.73,4.73,0,0,1,1.84,2.95,17.93,17.93,0,0,0,0,3,18.7,18.7,0,0,0,2,5.2c.77,1.32,1.65,1.72,1.42,3.22-.17,1.07-.39,2.16-.6,3.23-.4,2-.17,4,1.8,5,2.64,1.42,7.21.81,10.09.88,9.89.24,19.59.61,29.45.54a27.89,27.89,0,0,1,18.27,6c12.38,10,18.84,27.43,28.88,39.64a46,46,0,0,0-1.1-6.42c1.3,1.88,4.16,1,6.33,2.8s1.51,9.27,4.41,9.75c10.49,1.73,21.12,2.41,31.71,3.37,18.18,1.66,36.32,4.16,54.57,4.39a219.21,219.21,0,0,0,48.13-4.72C526.7,661.24,526.43,647.51,523.39,644.71ZM362.81,580.23c.25-1.19-4.31-4.29-3-4.9s2,1,2.69,1.85c.59.68,1.43,1,2.08,1.65.5.49.74,1,1.37,1.4a6.34,6.34,0,0,0,1.82.71c-.28.44-.53.88-.77,1.32C364.58,581.45,362.71,580.71,362.81,580.23Z"/><path d="M302.43,556c.34.12.67.27,1,.41s.59.27.65.49,0,.1-.06.13a1.17,1.17,0,0,1-.3-.05h-.33c-.44,0-.87.1-1.31.14a6.32,6.32,0,0,1-.76.06c-1.57,0-3.21-.53-4.77-.36a7.19,7.19,0,0,0-3.85,2.15c-.24-.45-1.07-1.91-.7-2.34.54-.62,2.67-.81,3.42-1.19a6.54,6.54,0,0,1,4.5-.42C300.78,555.31,301.57,555.76,302.43,556Z"/><path d="M380.41,560.17c-2.09-1.37-4.58-2.46-6.47-4.06-6-5.1-5.28-14.52-8.55-21.71-2.69-5.91-8.19-10.21-14.23-12.61s-12.61-3.07-19.11-3.28c-6-.2-12.14,0-17.86,1.9-3.84,1.28-14.45,6.68-13.46,12s10.5,8,12.42,13.53c1,2.83.64,6.07,2.1,8.68a24.21,24.21,0,0,0,2.84,3.49c1.74,2.09,2.92,4.62,4.8,6.59s4.84,3.33,7.32,2.21a11.13,11.13,0,0,1,.64-5.74c.84-1.76,1.94-1.14,3.83-.65,2.59.67,4.19,2.09,3.74,4.73s-1.56,5.36-.71,7.9c.93,2.74,3.78,4.26,6.39,5.5,4.49,2.14,13.39,2.71,17.87,4.85,2-2.18,1.79-1.18,3.95-3.24,1.64-1.55-1.61-4.37.6-4a18.37,18.37,0,0,0,12.33-2c3.49-1.94,6.51-5.86,5.36-9.69A8.38,8.38,0,0,0,380.41,560.17Z"/><path d="M300.28,533.15l.8-.46c0-.06-.07-.12-.1-.19A2.88,2.88,0,0,0,300.28,533.15Z"/><path class="cls-1" d="M327.3,568c-3.43-4,2.83-9.67,6.77-9.05a6.54,6.54,0,0,1,5.27,7.11c-.47,3.35-3.52,5.85-4.2,9.17-.36,1.75-.07,3.74-1.13,5.18s-4.2.74-3.59-.94"/><path d="M367.75,561.62a7.17,7.17,0,0,0,2.23-2.56,11.71,11.71,0,0,1,2.81-2.81A6.12,6.12,0,0,1,377,554.8a6.7,6.7,0,0,1,3.67,1.61,6.41,6.41,0,0,1,2.18,2.89c.24,1.27-.56,3.23-.77,4.5a6.71,6.71,0,0,1-2.59,3.75,6,6,0,0,1-4.34,1.72,19.59,19.59,0,0,1-9.61-4.43c-1.38-1.07-1.8-3.43-1.84-5.13s.41-4.48,1.44-5.88c2-2.68,6.06-1.94,8.65-.79,1.56.69,3.05,1.53,3.49,3.31a9.78,9.78,0,0,1-.18,4.4,18.31,18.31,0,0,1-1.26,4.86,6.72,6.72,0,0,1-1.32,2.28,19.74,19.74,0,0,0-2.13,2.05,8.17,8.17,0,0,1-2.61,2,3.3,3.3,0,0,1-2.52.27,10.46,10.46,0,0,1-2.87-1c-.57-.29-1-.78-1.56-1.1-.95-.57-.94-.62-.79-1.85"/><path d="M367.34,560.7c-.34-1.4.36-2.48,1.15-3.54a6.2,6.2,0,0,0,.76-1.15,1.84,1.84,0,0,1,1.55-1.15c1.79-.39,3.76.54,5.36,1.2a6.25,6.25,0,0,1,1.92,1c.51.46.83,1.09,1.33,1.53.29.26.65.36.89.7s.32.78.59,1.13a2.57,2.57,0,0,1,.64,1,9.86,9.86,0,0,1,.2,1.23,4.89,4.89,0,0,1,0,2.25,14.65,14.65,0,0,1-.93,2.16,5.73,5.73,0,0,1-.64.85c-.27.34-.4.76-.66,1.11a6.23,6.23,0,0,1-3.06,1.69c-2.1.75-4.63.13-6.74-.36a11.45,11.45,0,0,1-4.53-2.19,24.78,24.78,0,0,1-2-2,9.63,9.63,0,0,1-1.71-2,8.48,8.48,0,0,1-1-2.71,18.59,18.59,0,0,1-.47-3,6.09,6.09,0,0,1,.81-2.88,8.57,8.57,0,0,0,.89-1.33,5.64,5.64,0,0,1,.69-1.52,6.6,6.6,0,0,1,4.83-2.94,21.41,21.41,0,0,1,4.31,0c.91.14,1.82.34,2.73.5A6,6,0,0,1,377,551.5a4.24,4.24,0,0,1,1.23,1.23,5,5,0,0,1,.85,1.43c.33,1.59-.42,3-.37,4.5a5.37,5.37,0,0,1,.07.9c-.06.47-.18,1-.27,1.42a10.38,10.38,0,0,1-.54,2.28,7,7,0,0,1-1.42,2.22,3.59,3.59,0,0,1-2.75,1.12,10,10,0,0,1-3.69-.16,13,13,0,0,1-4.33-2.3,10,10,0,0,1-3.28-3.76,10.94,10.94,0,0,1-1-2.43,10.31,10.31,0,0,1,.07-2.35c.12-1.67,1.39-3,2.37-4.25.19-.24.55-.92.85-1s.68.1.92.14"/><path d="M362.06,574c-.34-1.4.36-2.48,1.15-3.54a6.2,6.2,0,0,0,.76-1.15,1.86,1.86,0,0,1,1.55-1.15c1.79-.39,3.76.55,5.35,1.2a6.18,6.18,0,0,1,1.93,1c.51.46.83,1.09,1.33,1.53.29.26.65.36.89.7s.31.78.59,1.13.49.48.63,1a8.54,8.54,0,0,1,.21,1.23,4.89,4.89,0,0,1,0,2.25,15.8,15.8,0,0,1-.93,2.16,6.52,6.52,0,0,1-.64.85c-.27.34-.4.77-.66,1.11A6.23,6.23,0,0,1,371.2,584c-2.1.75-4.63.13-6.74-.36a11.43,11.43,0,0,1-4.53-2.18c-.72-.62-1.34-1.3-2-2a9.62,9.62,0,0,1-1.7-2,8.51,8.51,0,0,1-1-2.7,18.71,18.71,0,0,1-.47-3.06,6.2,6.2,0,0,1,.8-2.88,8,8,0,0,0,.9-1.33,5.76,5.76,0,0,1,.68-1.52,6.63,6.63,0,0,1,4.84-2.94,21.41,21.41,0,0,1,4.31,0c.91.14,1.82.35,2.73.5a6,6,0,0,1,2.66,1.23,4.37,4.37,0,0,1,1.23,1.23,5.25,5.25,0,0,1,.85,1.43c.33,1.59-.42,3-.37,4.51a6.42,6.42,0,0,1,.07.89c-.06.48-.19.95-.27,1.42a10.24,10.24,0,0,1-.54,2.28,7,7,0,0,1-1.42,2.22,3.59,3.59,0,0,1-2.76,1.12,9.93,9.93,0,0,1-3.68-.16,13,13,0,0,1-4.34-2.3,10,10,0,0,1-3.27-3.76,10.94,10.94,0,0,1-.95-2.43,10.31,10.31,0,0,1,.07-2.35c.12-1.67,1.39-3,2.37-4.25.19-.24.55-.92.85-1s.68.1.92.14"/><path class="cls-2" d="M488.37,702c14.74-3.07,14.49-11.09,25-19.47,8.77-7,14-13.85,25.73-13.7,10,.12,26.06,4.54,34,10.9-2.86-2.29-5.38-5-8.22-7.27s-6-4.4-9.12-6.47c-3.53-2.36-6.28-5.66-9.64-8.24-3.58-2.75-7.73-4.66-11.65-6.87-3.57-2-7.32-4.73-11.16-6.18-4.33-1.68-17.52-1.1-22.09-1.59A124.07,124.07,0,0,1,487.74,641c-8.71-1.92-17.19-5.19-24.26-10.73-3.5-2.74-7.19-7.21-11.59-7.33-2.06-.05-3.92.95-5.72,1.88-20.61,10.62-39.85,19.12-63.24,17.5-.89-.06-4.09,2.15-3.68,2.95,2.08,4.12,4.34,7.16,5.53,11.59A81.48,81.48,0,0,0,389,668.48c1.46,3.32,2.79,7,5.35,9.63,4.92,5.08,11.77,8.09,18.29,10.51l1.86.67a54.47,54.47,0,0,0,14.79,2.89c10.88.7,13.81,9.54,22.62,10.22C476.79,704.33,481.05,703.54,488.37,702Z"/><path class="cls-3" d="M581.82,693.17a28.94,28.94,0,0,0-11.74-17c-8.57-5.77-26.5-13-38.43-11.73-18,2-19.68,14.83-34.12,23.78-21.39,13.24-43.07,26.88-60.18,44.05-11.2,11.24-19,23.87-27.35,36.33-3.72,5.56-9,9.26-13.95,13.84-2.37,6.94-4.19,14.14-3.63,21.47a33.15,33.15,0,0,0,2,8.84q6.25,7.95,12.21,16.16a318.35,318.35,0,0,1,21.67,34.07c2,3.65,4,7.34,6,11a7.49,7.49,0,0,1,.59.65c9.59,13.1,16.64,19.35,27.26,44.89,1.86,4.62,4.05,8.89,2.56,9.44-.35.13-3.59.74-3.94.84-3.78,1-7.25,3.63-11,4.94-3.24,1.13-6.57,1.4-9.82,2.43-6.39,2-12.75,5.26-19.53,4.77a1.66,1.66,0,0,0-1.17.2,2.54,2.54,0,0,0-.79,2.28,3.63,3.63,0,0,0,.57,1.72c.17.25.41.46.57.71s.14.41.26.6a8.76,8.76,0,0,0,3.05,2.79,15.68,15.68,0,0,0,5.27,2.17,19.35,19.35,0,0,0,2,.54c.47,0,.9-.06,1.37,0,1.5.2,3.07-.23,4.57-.24.72,0,1.42-.15,2.15-.17a13.6,13.6,0,0,1,2-.06c.57.07,1.14.22,1.72.29,1.13.14,2.25.13,3.37.32,3.16.51,6.46-.29,9.67.06a72,72,0,0,0,11.93.53c5.89-.32,11.77-1.23,17.67-1.36,5-.11,10.93,1.32,15.56-1.11,3.46-9.73.73-22.35-5-31.19q-1.41-1.56-2.94-3.09c-.59-.6-1.23-1.22-1.88-1.85a37.76,37.76,0,0,1-3-5,35.14,35.14,0,0,1-5.25-8.79c-2.83-6.78-2.7-14.09-4.62-21.13a14.46,14.46,0,0,1-.48-5.08c-5-16.67-11.4-32.16-18.62-47.94A101,101,0,0,0,448.19,810c13.49-6.25,28.11-10.46,41.93-16.15a199.15,199.15,0,0,0,60.17-38.77C566.73,739.72,588.25,718,581.82,693.17Z"/><path class="cls-4" d="M442.15,592.39c-.52-1-1.72-3.09-2.27-4.07-2.53-1.16-4.59-2.07-6.75-3-.74-.33.33,1,.33,1,.87,1.3,1.7,2.33,2.48,3.64a134.11,134.11,0,0,1,11.2,25.22c1,2.78,1.86,5.59,2.72,8.41,2.15.45,2.65.55,4.05-1.12A177.2,177.2,0,0,0,442.15,592.39Z"/><path class="cls-5" d="M384.63,615.84C386.47,630.68,396,640.53,403,653c2.68,4.81,4.75,9.93,7.34,14.79,4.15,7.79,9.54,14.79,14.54,22,4.68,6.81,10.66,13.06,13.41,20.88,1.08,3.08,2.48,5.93,3.69,8.94,1.52,3.77,2.08,7.87,3.17,11.77.65,2.35,1.65,4.57,2.34,6.9l12.1,45.58c.24,1.18.65,2.29,1,3.43a24.79,24.79,0,0,1,.42,3.84,37.47,37.47,0,0,0,.92,4,38,38,0,0,1,.82,5.93c.19,2.43.44,4.56-.45,6.91-.67,1.75-1.63,3.36-2.39,5.07A23.1,23.1,0,0,0,458,819.7a9.66,9.66,0,0,0-.18,3.42c.28.85,1.31,1.15,1.37,2.14,0,.5.1,1,.14,1.48,0,.32,0,.61.05.93s.05.56.08.84a12,12,0,0,1,0,1.8c0,.31,0,.61,0,.92a7.22,7.22,0,0,1-.13.79,2.66,2.66,0,0,0,0,.69c0,.27,0,.54,0,.8a3.66,3.66,0,0,0,.51,1.51,1.52,1.52,0,0,0,.29.41c.17.14.43.27.62.4a8.07,8.07,0,0,1,1.24.86,7.36,7.36,0,0,1,.79,1.18l.71,1.08c.18.27.26.55.42.82a3.73,3.73,0,0,1,.37.6c.06.21.17.4.23.61a1.46,1.46,0,0,0,.17.51,8.15,8.15,0,0,0,.65,1c.38.44.85.2,1.3,0a1.63,1.63,0,0,0,.59-.45,8.48,8.48,0,0,0,.87-.93.43.43,0,0,0,.11-.3c0-.08-.06-.15-.05-.23s.08-.15.12-.23a.57.57,0,0,0,0-.26,8.1,8.1,0,0,0-.25-1.89c-.15-.7-.32-1.39-.51-2.08a18.51,18.51,0,0,0-1.1-2.65c2,3.45,1.89,7.72,3,11.58a22,22,0,0,1,1.27,6.1,7,7,0,0,0,.1,1.21c0,.19.17.32.22.49s.08.32.12.48c.11.38.25.72.33,1.11s.24.86.37,1.28c.22.7.39,1.4.55,2.12a6.24,6.24,0,0,0,1,1.77,2.65,2.65,0,0,0,2,1,2.78,2.78,0,0,0,1.94-.55,1.52,1.52,0,0,0,.61-.94,1.9,1.9,0,0,0-.1-1.13,8.57,8.57,0,0,1-.55-2.23c0-.46,0-1,0-1.41s-.15-.79-.23-1.18a6.77,6.77,0,0,0-.35-1.34l-.51-1.18a5.54,5.54,0,0,1-.38-1.32,6.39,6.39,0,0,0-.34-1.23,3.89,3.89,0,0,1,0-1.63,9.18,9.18,0,0,0,0-1.48,18.14,18.14,0,0,1-.39-3.66,2.55,2.55,0,0,0,0-.83c0-.24,0-.46,0-.7a8.71,8.71,0,0,0-.15-1.69c-.14-.54-.36-1-.53-1.57-.08-.27-.11-.55-.17-.83a2,2,0,0,0-.15-.62s.1-.59,0-.77l-.19-.08a8.16,8.16,0,0,1,.27,1.71c.22,1.41.46,2.81.69,4.21.66,4,1.34,7.91,2,11.87.28,1.64.56,3.29.83,4.93a14.05,14.05,0,0,0,.32,2,1.78,1.78,0,0,1-.09.33c0,.19,0,.43-.06.63a1.88,1.88,0,0,0,.43,1.25,2.61,2.61,0,0,0,.31.43c.17.18.28.34.44.54a2.91,2.91,0,0,0,.52.47,1,1,0,0,0,.94.11,7.7,7.7,0,0,0,1.39-.58,2.42,2.42,0,0,0,1.11-.91,3,3,0,0,0,.12-1.67,15.8,15.8,0,0,0-.2-2.05c-.09-.51-.18-1-.22-1.52a12.27,12.27,0,0,0-.29-1.8c-.15-.65,0-1.38-.07-2-.05-.35-.15-.69-.21-1s0-.58-.08-.86a5.6,5.6,0,0,1,.06-1.87,5.43,5.43,0,0,0,0-1c0-.45,0-.87,0-1.32,0-3.26-.78-6.48-1-9.74a25.25,25.25,0,0,1-.08-5.14,18.7,18.7,0,0,1,.32,3.95l.18,2.75.4,5.75.69,10.06a9.69,9.69,0,0,1,.12,1.78.74.74,0,0,0,.09.57c.06.11,0,.19.07.3a1.74,1.74,0,0,0,.81.82c.88.52,1.82-.18,2.45-.79a2.61,2.61,0,0,0,.72-1.44c.12-.59.37-1.12.49-1.71a4.19,4.19,0,0,0,0-1.54,8.93,8.93,0,0,1-.12-1.64,21.08,21.08,0,0,0-.56-3.22l-.12-.91c0-.24,0-.48,0-.72-.05-.67-.16-1.33-.24-2a6.23,6.23,0,0,1,0-1.06c0-.32,0-.64,0-1a12.49,12.49,0,0,0-.1-3.56c-.22-1.21,0-2.72-.35-3.88a6.71,6.71,0,0,1-.19-2.19c0-.72-.34-1.26-.19-2,.07-.34,0-.43,0-.77,0-.16-.41-.34-.33-.49a8.79,8.79,0,0,0,.31,2c.14,1.14.24,2.28.34,3.42.24,2.75.43,5.51.66,8.25.1,1.21.19,2.42.28,3.63a6.74,6.74,0,0,0,.11,1.43c.12.17-.06.5.16.57s.27,0,.39.07a1.2,1.2,0,0,0,.4.11.61.61,0,0,0,.3-.15c.35-.24.77-.37,1.13-.6a2.11,2.11,0,0,0,.78-.92c1.56-2.85.35-7.84.13-10.9q-.3-4-.72-8c-.2-1.92-.93-4.26-.81-6.16,0-.27,0-.51-.06-.77a2.85,2.85,0,0,0,0-.51,2.93,2.93,0,0,1-.23-.78,5.47,5.47,0,0,0,0-1,12.67,12.67,0,0,0-.81-1.66c-3.26-6.76-3.65-11.58-6.42-18.55.55,0-2.17-2.83-2.33-3.36-1.15-3.8-2.17-7.62-3.27-11.44a8.54,8.54,0,0,1-.21-1.75l-.05-37.23a108.09,108.09,0,0,0-1-12.72,52.23,52.23,0,0,0-2.33-10.68,22.24,22.24,0,0,1-.79-3.58c-.35-1.71-1.24-3.38-1.68-5a26.68,26.68,0,0,0-1.13-3.14c-.51-1.24-.25-2.37-.75-3.63-1.3-3.24-.33-7.21-1-10.7a64.8,64.8,0,0,0-4.33-12.44q-8.2-19.1-16.86-38c-5.55-12.11-7.71-25.8-14.76-41.3"/><path class="cls-5" d="M463.42,832.78a3.31,3.31,0,0,0-1.33,0c-.29.08-.58.19-.86.29s-.49.12-.73.19c-.41.1-.81,0-1,.45"/><path class="cls-5" d="M463.35,834.5a5.61,5.61,0,0,1-1.23.93l-.43.28c-.17.11-.45.14-.6.27"/><path class="cls-5" d="M474.5,860.42c-.1-.25-.56-1.55-.6-1.79a2.63,2.63,0,0,1,.13-1,2.41,2.41,0,0,1,.59-1.1,2.47,2.47,0,0,1,.91-.55c.81-.12,1.25.77,1.6,1.34a4.69,4.69,0,0,1,.45,1.06c.05.15.05.31.1.47a3.71,3.71,0,0,1,.22,1"/><path class="cls-5" d="M479.25,862.32a11.14,11.14,0,0,1-.51-1.24,1.66,1.66,0,0,1,0-1.24c.11-.31.3-.6.41-.91,0-.08,0-.15.05-.24a2.36,2.36,0,0,1,.3-.34,1.82,1.82,0,0,1,1.07-.67c.31-.07.78-.14,1,.13a5.28,5.28,0,0,1,.6.93c.15.23,1.28,1.9,1,1.92a3.39,3.39,0,0,0-.28.74"/><path class="cls-5" d="M483.55,857.05c-.11-.24-.2-.89-.28-1.15a2.6,2.6,0,0,1-.09-1.14,2.93,2.93,0,0,1,.09-.67,2.54,2.54,0,0,1,.34-.55c.14-.16.3-.14.48-.22a1.56,1.56,0,0,1,.48-.14,2,2,0,0,1,.42-.1,1.62,1.62,0,0,1,.41.13,1.1,1.1,0,0,1,.55.66,4.21,4.21,0,0,1,.16,1.12c0,.18.07.36.09.54a4.8,4.8,0,0,1,0,.85c-.11-.09-.64.7-.7.58"/><path class="cls-5" d="M477.48,844a4,4,0,0,1,1-.48,2.18,2.18,0,0,1,1.23-.15"/><path class="cls-5" d="M477.33,845.79a3.28,3.28,0,0,0,.63.06,3.16,3.16,0,0,0,2-.47,3.37,3.37,0,0,0,.38-.28c.1-.1.16-.23.29-.28"/><path class="cls-5" d="M484,840c.25-.07.5-.15.76-.21a.52.52,0,0,1-.37.07"/><path class="cls-5" d="M483.52,839c.5-.11,1-.26,1.53-.33a1.49,1.49,0,0,1,.63,0"/><path class="cls-5" d="M487.66,834a6.65,6.65,0,0,1,1.18-.77c.15-.08.44-.15.5-.32"/><path class="cls-5" d="M471.1,845c.24-.11,1.64-.62,1.91-.67.88-.27.15,0,.23,0"/><path class="cls-5" d="M470.28,844.05a5.38,5.38,0,0,1,3.68-1.29c.26,0,.47-.21.73-.26"/><path class="cls-5" d="M486.88,846c0-.15,0-1.17.07-1.32a2,2,0,0,1,.37-.61,8.13,8.13,0,0,1,1.37-1c.37-.25.77-.52,1.15-.39a.88.88,0,0,1,.5.87c0,.41,0,.79,0,1.21,0,.23,0,1-.24,1.23"/><path class="cls-5" d="M463.46,838.86c-.57-1.21,1-.84,1.45-.55,1.07.67,3.31,2.05,2.38,3.66"/><path class="cls-4" d="M397.82,575.24l-3.75,2.33c-2.8,1.73-5.32,3.87-8,5.79s-5.18,3.75-7.65,5.78a22.68,22.68,0,0,0-5.77,6.46,21.92,21.92,0,0,0-2.34,9.1,33.21,33.21,0,0,0,1.07,9.87q1.31,5.5,2.65,11c1,3.8,2,7.58,3.32,11.27.64,1.82,1.44,3.58,2.08,5.4.06.16,1,3.83.42,1.45.67-.26,1.63-1.12,2.49-1.12s1.15-.37,1.78-.16a23,23,0,0,0-1.45-3.32,94.27,94.27,0,0,1-3.24-9.56c-.92-3.23-1.7-6.49-2.48-9.76s-1.79-6.64-2.26-10a22.75,22.75,0,0,1,.54-9.29,14.52,14.52,0,0,1,4.48-6.9,74.57,74.57,0,0,1,6.93-5.46c2.54-1.83,5-3.81,7.55-5.59,2.83-2,5.87-3.67,8.8-5.49l.2-.12C401.41,576.31,399.62,575.74,397.82,575.24Z"/><path d="M97.35,227.85a68.34,68.34,0,0,0,2.26,33.88,81.51,81.51,0,0,0,15.44,27A88.38,88.38,0,0,0,127,300.4c1.49,1.2,3.62-.91,2.12-2.12-15.47-12.49-27.31-30.61-29.53-50.65a65,65,0,0,1,.69-19c.35-1.89-2.54-2.69-2.89-.8Z"/><path d="M122.78,285.81c1.69,4.63,2.92,9.41,4.25,14.16l1.45-1.9c-2.49.06-5,.24-7.47.34-2.31.1-4.62.1-6.94.2-1.92.09-1.93,3.09,0,3,2.32-.1,4.63-.1,6.94-.2,2.49-.1,5-.28,7.47-.34a1.52,1.52,0,0,0,1.44-1.9c-1.33-4.75-2.56-9.52-4.24-14.16a1.55,1.55,0,0,0-1.85-1.05,1.52,1.52,0,0,0-1,1.85Z"/><path d="M75.44,148.57v17.26H72.36V148.57Z"/><path d="M82.74,149.26V153H86l-.42,2.47H82.74v5.92c0,1.4.64,2,1.68,2a5.72,5.72,0,0,0,2-.57l.56,2.34a8.09,8.09,0,0,1-3.27.84c-3,0-4-2-4-4.14V155.5h-1.8V153h1.94l.37-3.42Z"/><path d="M96.48,152.91l.44,2.29a4.34,4.34,0,0,1,4-2.44,3.77,3.77,0,0,1,3.85,2.39,4.55,4.55,0,0,1,4.16-2.39c3,0,4.22,2,4.22,4.64v8.43h-3.06v-7.45c0-2-.47-3-2.14-3-2.22,0-2.81,1.68-2.81,3.58v6.9h-3.06v-7.45c0-2-.47-3-2.15-3-2.36,0-2.83,1.9-2.83,4v6.51H94V152.91Z"/><path d="M119.15,152.91v7.45c0,2,.79,3,2.59,3,2.34,0,3.3-2.42,3.3-4.86v-5.62h3.06v12.92h-2.44l-.45-2.81a4.7,4.7,0,0,1-4.46,3c-3.16,0-4.66-1.95-4.66-5.2v-7.87Z"/><path d="M131.6,162.13a6.72,6.72,0,0,0,4.19,1.43c1.48,0,2.35-.44,2.35-1.5,0-2.52-7.47-.84-7.23-5.57.1-2.32,1.8-3.7,5.23-3.7A10.49,10.49,0,0,1,140.8,154l-1.08,2.17a7.36,7.36,0,0,0-3.7-1.07c-1.21,0-2.22.4-2.17,1.41.15,2.05,7.32.47,7.32,5.45,0,2.66-2.39,4-5.45,4a8.86,8.86,0,0,1-5.3-1.68Z"/><path d="M147.63,149.26V153h3.26l-.42,2.47h-2.84v5.92c0,1.4.64,2,1.68,2a5.72,5.72,0,0,0,1.95-.57l.57,2.34a8.21,8.21,0,0,1-3.28.84c-3,0-4-2-4-4.14V155.5h-1.8V153h1.94l.37-3.42Z"/><path d="M162,147v8.21a4.39,4.39,0,0,1,4.31-2.41c2.44.07,5.06,1.72,5.06,6.48,0,3.9-2,6.71-5.45,6.71a4.28,4.28,0,0,1-4.07-2.37l-.42,2.22h-2.49V147.39Zm-.12,12.36c0,2.21.81,4,3.25,4,2,0,3.11-1.5,3.11-4,0-3-1.51-4-3.13-4C163.32,155.35,161.87,156.76,161.87,159.35Z"/><path d="M185.39,162.28a5.76,5.76,0,0,1-5.57,3.7c-4.34,0-6.26-2.71-6.26-6.76s2.71-6.53,6.43-6.43c3,.07,5.75,2.34,5.45,6.46l-.05.39h-8.73c0,2.2.94,3.7,3.18,3.7a2.87,2.87,0,0,0,2.79-2.05Zm-3.13-4.22c.05-2-1-2.93-2.54-2.88a2.87,2.87,0,0,0-2.91,2.88Z"/><path d="M196.35,147v8.21a4.39,4.39,0,0,1,4.31-2.41c2.44.07,5.06,1.72,5.06,6.48,0,3.9-1.95,6.71-5.45,6.71a4.27,4.27,0,0,1-4.07-2.37l-.42,2.22h-2.49V147.39Zm-.13,12.36c0,2.21.82,4,3.26,4,2,0,3.1-1.5,3.1-4,0-3-1.5-4-3.13-4S196.22,156.76,196.22,159.35Z"/><path d="M214.23,152.79c3.23,0,6,2.19,6,6.6,0,3.63-2.15,6.59-6.17,6.59-4.36,0-6.16-3-6.16-6.59C207.94,155,210.72,152.79,214.23,152.79Zm-3.09,6.6c0,2.05.69,4,3,4,2.1,0,3-1.95,3-4,0-2.86-1.41-4-3-4C212.52,155.38,211.14,156.49,211.14,159.39Z"/><path d="M226,147v14.62c0,1.39.62,1.76,1.53,1.76a2.42,2.42,0,0,0,1.28-.47l.57,2.19a5.35,5.35,0,0,1-2.79.89c-2.56,0-3.65-1.73-3.65-4.07V147.36Z"/><path d="M242.49,147v18.84h-2.56l-.35-2.22a4.52,4.52,0,0,1-4.12,2.37c-3.47.05-5.55-2.84-5.55-6.63,0-4.64,3-6.56,5.53-6.56a4.1,4.1,0,0,1,4,2.44v-7.84Zm-9.42,12.33c0,2.2.86,3.92,3.16,3.92s3.25-1.72,3.25-3.89c0-2.94-1.58-4-3.28-4S233.07,156.49,233.07,159.32Z"/><path d="M246.61,165.49a1.42,1.42,0,0,1-1.63-1.58,1.6,1.6,0,0,1,1.73-1.53c1.7,0,2.37,1.33,2.24,2.91-.19,2.34-2,3.28-4,3.3v-1.33c1.16,0,2-.62,2-1.36C246.91,165.71,246.61,165.49,246.61,165.49Z"/><path d="M259.73,147v8a4.82,4.82,0,0,1,4.24-2.19c3,0,4.49,1.94,4.49,4.61v8.43H265.4v-7.45c0-2-.74-3-2.41-3-2.35,0-3.26,1.9-3.26,4v6.51h-3.06V147.36Z"/><path d="M275.54,152.91v12.92h-3.08V155.45h-1.8v-2.54Zm-1.55-5a1.6,1.6,0,1,1,0,3.16,1.63,1.63,0,0,1-1.8-1.63A1.59,1.59,0,0,1,274,147.88Z"/><path d="M290.73,152.91v11c0,4.29-1.67,6.88-6.41,6.88a13.36,13.36,0,0,1-5.28-1.11l.72-2.31a11.13,11.13,0,0,0,4.22,1c2.78,0,3.69-1.38,3.69-3.5v-1.14a4.44,4.44,0,0,1-4,2.05c-3.48.07-5.48-2.57-5.48-6.36,0-4.64,3-6.56,5.52-6.56a4.28,4.28,0,0,1,4.1,2.34l.32-2.22Zm-9.32,6.41c0,2.2.86,3.92,3.16,3.92s3.2-1.72,3.2-3.89c0-2.94-1.55-4-3.23-4S281.41,156.49,281.41,159.32Z"/><path d="M297,147v8a4.81,4.81,0,0,1,4.24-2.19c3,0,4.49,1.94,4.49,4.61v8.43h-3.06v-7.45c0-2-.74-3-2.41-3-2.35,0-3.26,1.9-3.26,4v6.51h-3.06V147.36Z"/><path d="M72.38,187.64a15.49,15.49,0,0,1,4.89-.94c3.89,0,5.32,1.92,5.32,4.93v5.23a.65.65,0,0,0,.62.74,2.41,2.41,0,0,0,1-.15v2.05a5,5,0,0,1-2,.39,2.34,2.34,0,0,1-2.34-1.75,5.64,5.64,0,0,1-3.89,1.75c-2.52,0-4.39-1.28-4.42-4s2-4.09,5.25-4.09a19.85,19.85,0,0,1,2.79.25v-.77c0-1.4-.89-2.17-2.66-2.14a10.41,10.41,0,0,0-4,.79Zm7.16,6a13.13,13.13,0,0,0-2.52-.15c-1.48.07-2.42.77-2.44,2.07a1.81,1.81,0,0,0,2.1,1.9,5.1,5.1,0,0,0,2.86-1Z"/><path d="M88.76,186.82l.47,2.3a4.76,4.76,0,0,1,4.41-2.42c3,0,4.49,2,4.49,4.61v8.43H95.07V192.3c0-2-.74-3-2.41-3-2.35,0-3.26,1.89-3.26,4v6.51H86.34V186.82Z"/><path d="M113.32,180.91v18.83h-2.56l-.35-2.21a4.5,4.5,0,0,1-4.11,2.36c-3.48.05-5.55-2.83-5.55-6.63,0-4.64,3-6.56,5.52-6.56a4.09,4.09,0,0,1,4,2.44V181.3Zm-9.42,12.32c0,2.2.87,3.93,3.16,3.93s3.26-1.73,3.26-3.9c0-2.93-1.58-4-3.28-4S103.9,190.4,103.9,193.23Z"/><path d="M132.86,196.12c-.84,2.64-3,3.77-5.62,3.77-4.24,0-6.07-3.15-6.07-6.61,0-4.21,2.61-6.51,6.14-6.58,3.11-.07,5,1.53,5.5,3.8l-2.84.91a2.54,2.54,0,0,0-2.61-2.12c-1.78,0-3.13,1.31-3.13,3.94,0,2.1.79,4,3.08,4a2.6,2.6,0,0,0,2.71-2Z"/><path d="M141.15,186.7c3.23,0,6,2.19,6,6.61,0,3.62-2.15,6.58-6.17,6.58-4.36,0-6.16-3-6.16-6.58C134.86,188.89,137.65,186.7,141.15,186.7Zm-3.09,6.61c0,2.05.69,4,3,4,2.1,0,3-1.94,3-4,0-2.86-1.41-4-3-4C139.45,189.29,138.06,190.4,138.06,193.31Z"/><path d="M152.32,186.82l.47,2.3a4.76,4.76,0,0,1,4.41-2.42c3,0,4.49,2,4.49,4.61v8.43h-3.06V192.3c0-2-.74-3-2.41-3-2.35,0-3.26,1.89-3.26,4v6.51H149.9V186.82Z"/><path d="M165.66,187V185.2c0-2.64,1.38-4.29,4.25-4.29a6.9,6.9,0,0,1,2.12.32l-.47,2.19c-.1,0-.5-.07-.89-.07-1.36,0-1.92.56-1.92,2.34V187H176v12.79h-3.06V189.41h-4.16v10.33h-3.09V189.41h-2V187Zm8.81-5.16a1.65,1.65,0,0,1,1.8,1.56,1.62,1.62,0,0,1-1.8,1.6,1.64,1.64,0,0,1-1.83-1.63C172.64,182.48,173.28,181.79,174.47,181.79Z"/><path d="M191.21,180.91v18.83h-2.56l-.35-2.21a4.5,4.5,0,0,1-4.11,2.36c-3.48.05-5.55-2.83-5.55-6.63,0-4.64,3-6.56,5.52-6.56a4.09,4.09,0,0,1,4,2.44V181.3Zm-9.42,12.32c0,2.2.87,3.93,3.16,3.93s3.26-1.73,3.26-3.9c0-2.93-1.58-4-3.28-4S181.79,190.4,181.79,193.23Z"/><path d="M205.69,196.19a5.75,5.75,0,0,1-5.57,3.7c-4.34,0-6.26-2.71-6.26-6.75s2.71-6.54,6.43-6.44c3,.07,5.75,2.34,5.45,6.46l-.05.4H197c0,2.19.94,3.69,3.18,3.69a2.87,2.87,0,0,0,2.79-2ZM202.56,192c.05-2-1-2.94-2.54-2.89a2.88,2.88,0,0,0-2.91,2.89Z"/><path d="M210.85,186.82l.47,2.3a4.76,4.76,0,0,1,4.41-2.42c3,0,4.49,2,4.49,4.61v8.43h-3.06V192.3c0-2-.74-3-2.42-3-2.34,0-3.25,1.89-3.25,4v6.51h-3.06V186.82Z"/><path d="M227.3,183.17V187h3.25l-.42,2.46H227.3v5.92c0,1.41.64,1.95,1.68,1.95a5.43,5.43,0,0,0,1.94-.57l.57,2.34a7.94,7.94,0,0,1-3.28.84c-3,0-4-2-4-4.14v-6.34h-1.8V187h1.95l.37-3.43Z"/><path class="cls-6" d="M95.79,61.4A36.74,36.74,0,0,1,104.16,38a34.44,34.44,0,1,0,.11,46.9A36.78,36.78,0,0,1,95.79,61.4ZM87.2,75.66H70.92L71,73.39l4.46-.58c.58,0,.81-.23.81-1,.08-10.05,0-19.6,0-19.6l-5.62,1.08c-.19-.31-1.12-2.46-.46-2.73l10.35-4,1,1s-.12,20.87,0,24.37c0,.77.19,1,.73,1l5.08.54Z"/><circle cx="130" cy="61.53" r="34.44"/><path class="cls-7" d="M120.65,51a12.41,12.41,0,0,1,9.24-4.85c5.89,0,9.08,3,8.74,8.51-.47,7-8,13.59-12.63,17.55l8.31-.08c1.78-.15,3-2.54,3.82-4.73,0,0,1.73.5,2,1-.66,3.16-1.43,7.12-2.2,7.12,0,0-3.69-.27-11.47-.27a25.63,25.63,0,0,0-4.93.31l-1.34-2.46c7.77-7.9,12.39-13.63,13-18.71.46-3.66-2-4.82-4.35-4.66a9.73,9.73,0,0,0-6.74,3.92C121.92,53.39,120.19,51.55,120.65,51Z"/><path d="M184,52.13l8.43,15.27V52.13h3.75v21h-4.59L183.3,58.34V73.13h-3.75v-21Z"/><path d="M213.6,68.81a7,7,0,0,1-6.78,4.5c-5.28,0-7.62-3.3-7.62-8.22s3.3-8,7.83-7.83c3.69.09,7,2.85,6.63,7.86l-.06.48H203c0,2.67,1.14,4.5,3.87,4.5a3.5,3.5,0,0,0,3.39-2.49Zm-3.81-5.13c.06-2.43-1.26-3.57-3.09-3.51a3.5,3.5,0,0,0-3.54,3.51Z"/><path d="M219.69,57.41l3.15,6.18,3.3-6.18h4l-4.35,7.8,4.53,7.92h-4.26L222.78,67l-3.45,6.12h-4.14L220,65.27l-4.29-7.86Z"/><path d="M238.11,53v4.59h4l-.51,3h-3.45v7.2c0,1.71.78,2.37,2,2.37a6.83,6.83,0,0,0,2.37-.69l.69,2.85a9.82,9.82,0,0,1-4,1c-3.69,0-4.83-2.46-4.83-5V60.56H232.2v-3h2.37l.45-4.17Z"/><path d="M256.74,57.41V73.13H253V60.5H250.8V57.41Zm-1.89-6.12a2,2,0,0,1,2.22,1.89,2.22,2.22,0,0,1-4.41,0A1.93,1.93,0,0,1,254.85,51.29Z"/><path d="M261,68.63a8.15,8.15,0,0,0,5.1,1.74c1.8,0,2.85-.54,2.85-1.83,0-3.06-9.09-1-8.79-6.78.12-2.82,2.19-4.5,6.36-4.5a12.78,12.78,0,0,1,5.67,1.47l-1.32,2.64a8.9,8.9,0,0,0-4.5-1.29c-1.47,0-2.7.48-2.64,1.71.18,2.49,8.91.57,8.91,6.63,0,3.24-2.91,4.92-6.63,4.89a10.76,10.76,0,0,1-6.45-2Z"/><path d="M286.77,53v4.59h4l-.51,3h-3.45v7.2c0,1.71.78,2.37,2,2.37a6.83,6.83,0,0,0,2.37-.69l.69,2.85a9.82,9.82,0,0,1-4,1c-3.69,0-4.83-2.46-4.83-5V60.56h-2.19v-3h2.37l.45-4.17Z"/><path d="M294.09,58.4A18.74,18.74,0,0,1,300,57.26c4.74,0,6.48,2.34,6.48,6v6.36a.79.79,0,0,0,.75.9,3,3,0,0,0,1.23-.18v2.49a6.08,6.08,0,0,1-2.49.48,2.84,2.84,0,0,1-2.85-2.13,6.87,6.87,0,0,1-4.74,2.13c-3.06,0-5.34-1.56-5.37-4.83s2.46-5,6.39-5a24.49,24.49,0,0,1,3.39.3v-.93c0-1.71-1.08-2.64-3.24-2.61a12.68,12.68,0,0,0-4.86,1Zm8.7,7.35a16.62,16.62,0,0,0-3.06-.18c-1.8.09-2.94.93-3,2.52a2.21,2.21,0,0,0,2.55,2.31,6.17,6.17,0,0,0,3.48-1.26Z"/><path d="M314.79,50.21V64h1.74l3.66-6.45h4.2l-4.71,7.77,5.13,7.86h-4.29l-4-6.09h-1.77v6.09h-3.72V50.66Z"/><path d="M340.59,68.81a7,7,0,0,1-6.78,4.5c-5.28,0-7.62-3.3-7.62-8.22s3.3-8,7.83-7.83c3.69.09,7,2.85,6.63,7.86l-.06.48H330c0,2.67,1.14,4.5,3.87,4.5a3.5,3.5,0,0,0,3.39-2.49Zm-3.81-5.13c.06-2.43-1.26-3.57-3.09-3.51a3.5,3.5,0,0,0-3.54,3.51Z"/><path d="M349.68,63.56v3h-7.44v-3Z"/><path d="M359,57.26c3.93,0,7.35,2.67,7.35,8,0,4.41-2.61,8-7.5,8-5.31,0-7.5-3.6-7.5-8C351.33,59.93,354.72,57.26,359,57.26Zm-3.75,8c0,2.49.84,4.86,3.66,4.86,2.55,0,3.69-2.37,3.69-4.86,0-3.48-1.71-4.89-3.6-4.89C356.91,60.41,355.23,61.76,355.23,65.3Z"/><path d="M370.56,57.56V55.43c0-3.21,1.68-5.22,5.19-5.22a8.28,8.28,0,0,1,3,.54l-.48,2.61a7.71,7.71,0,0,0-1.59-.18c-1.65,0-2.34.69-2.34,2.85v1.53h3.42l-.48,3h-2.94V73.13h-3.75V60.56H368.1v-3Z"/><path d="M381.12,57.56V55.43c0-3.21,1.68-5.22,5.19-5.22a8.28,8.28,0,0,1,3,.54l-.48,2.61a7.71,7.71,0,0,0-1.59-.18c-1.65,0-2.34.69-2.34,2.85v1.53h3.42l-.48,3h-2.94V73.13h-3.75V60.56h-2.46v-3Z"/></svg>