<svg id="Layer_1" data-name="Layer 1" xmlns="http://www.w3.org/2000/svg" viewBox="0 0 780 1051.14"><defs><style>.cls-1,.cls-3{fill:#d4a47c;}.cls-1,.cls-2,.cls-3,.cls-4,.cls-5{stroke:#fff;stroke-miterlimit:10;}.cls-1{stroke-width:0.27px;}.cls-2{fill:#005058;stroke-width:0.47px;}.cls-3{stroke-width:0.36px;}.cls-4{fill:#c6946f;stroke-width:0.27px;}.cls-5{fill:#fff171;stroke-width:0.3px;}.cls-6,.cls-7{fill:#fff;}.cls-6{opacity:0.7;}.cls-7{font-size:38.5px;font-family:ABCSerifBold, ABCSerif;}</style></defs><path class="cls-1" d="M505,612.86a236,236,0,0,0-31.35-24.38c-23.58-15.34-22.35-17.2-48.49-27.15-5.1-1.93-19-4.81-34.19-7.61a50.34,50.34,0,0,0,3.31-3.84,19.38,19.38,0,0,0-2.69-2.12,28,28,0,0,1-4.15-3.46c-1.16-1.13-2.48-1.8-2.78-3.38-.23-1.21.28-2.43.05-3.63a20,20,0,0,1-.64-2.42,30.62,30.62,0,0,1,.14-4c.12-2.92,0-5.91-.05-8.85a24.39,24.39,0,0,0-1.69-9.25,19.55,19.55,0,0,0-5.82-7.53,43.08,43.08,0,0,0-6.05-4.31,73.06,73.06,0,0,0-9.89-4.42c-3.82-1.39-8.6-1.57-12.6-1.28-3,.21-5.85,0-8.84.51a25.24,25.24,0,0,0-8.34,3.55c-2.23,1.35-4.56,1.83-7,2.54-1.22.35-2.21,1.21-3.47,1.63a28.43,28.43,0,0,0-4.39,1.69c-2.67,1.43-3.53,3.87-4.6,6.49-.71,1.74-.78,3.58-1.53,5.33a14,14,0,0,0-.75,2.64c-.21,1-.68,1.85-.89,2.87-.1.49,0,.92-.07,1.44s-.46.75-.45,1.28a19.22,19.22,0,0,0,.81,3.06,25.47,25.47,0,0,1,.68,3.63,2.08,2.08,0,0,0,.05.4c-.07,0-.18.1-.37.39a12.13,12.13,0,0,1-1.91,2.08c-1.69,1.72-2.13,1.56-3.87,3.71a27,27,0,0,0-2.9,4.29,3.41,3.41,0,0,0,2,4.91,1.84,1.84,0,0,1,1,.75,4.75,4.75,0,0,1,1.24,3.25,18.68,18.68,0,0,0-.58,3,18.44,18.44,0,0,0,.94,5.49c.5,1.44,1.28,2,.77,3.43-.37,1-.8,2-1.21,3-.78,1.9-.94,3.87.79,5.29,2.32,1.9,6.93,2.19,9.73,2.81,9.67,2.15,19.11,4.38,28.8,6.22a27.89,27.89,0,0,1,16.76,9.45c10.21,12.23,13.19,30.55,20.68,44.47.31-.36.13-11.87,0-22.58,1.47,4,2.9,8.05,4.22,12.26,1,3.07,4.3,1.62,6.75,3.7,2.24,1.9,1.51,9.27,4.41,9.74,10.49,1.73,21.12,2.41,31.72,3.38,18.17,1.65,36.31,4.16,54.56,4.39A219.83,219.83,0,0,0,531,641.05C529.18,641.44,508,615.66,505,612.86ZM371.74,555.2c1-.27,1.5.67,1.9,1.55-.36.39-.7.78-1,1.17C371.8,556.64,371,555.39,371.74,555.2Z"/><path d="M319.19,525.2c.31.18.6.39.9.59s.52.38.54.62,0,.09-.08.11-.22-.09-.29-.11a1.8,1.8,0,0,0-.32-.06c-.44-.06-.88-.07-1.32-.12-.25,0-.5,0-.75-.08-1.55-.31-3.05-1.15-4.61-1.28a7.19,7.19,0,0,0-4.2,1.36c-.15-.49-.68-2.08-.23-2.43.64-.5,2.77-.28,3.58-.5a6.49,6.49,0,0,1,4.5.45C317.71,524.16,318.4,524.76,319.19,525.2Z"/><path d="M394.9,544.31c-1.78-1.75-4-3.3-5.56-5.24-4.93-6.17-2.38-15.26-4.2-22.94-1.5-6.32-6.06-11.61-11.52-15.12s-11.79-5.45-18.12-6.91c-5.86-1.36-11.92-2.35-17.89-1.59-4,.51-15.47,3.77-15.52,9.14s8.76,9.84,9.58,15.68c.41,3-.55,6.08.38,8.92a24.88,24.88,0,0,0,2.11,4c1.3,2.39,2,5.09,3.44,7.39s4.11,4.2,6.76,3.58a11.1,11.1,0,0,1,1.74-5.51c1.16-1.56,2.12-.74,3.87.1,2.42,1.16,3.71,2.87,2.76,5.37s-2.56,5-2.22,7.61c.38,2.87,2.89,4.91,5.21,6.64,4,3,12.61,5.24,16.59,8.2,2.43-1.74,2-.82,4.51-2.41,1.9-1.21-.74-4.61,1.35-3.76a18.49,18.49,0,0,0,12.47.45c3.8-1.24,7.53-4.5,7.13-8.48A8.33,8.33,0,0,0,394.9,544.31Z"/><path d="M321.5,502.32l.88-.29c0-.07-.05-.13-.07-.2A2.92,2.92,0,0,0,321.5,502.32Z"/><path class="cls-1" d="M341.29,541.69c-2.59-4.59,4.65-8.94,8.39-7.58a6.56,6.56,0,0,1,3.81,8c-1.11,3.2-4.59,5.06-5.9,8.19-.69,1.64-.79,3.65-2.11,4.86s-4.26-.08-3.34-1.61"/><path d="M382.2,543.28a7,7,0,0,0,2.68-2.07,11.86,11.86,0,0,1,3.31-2.22,6.15,6.15,0,0,1,4.44-.6,6.67,6.67,0,0,1,3.3,2.29,6.4,6.4,0,0,1,1.58,3.25c0,1.3-1.17,3.07-1.62,4.27a6.72,6.72,0,0,1-3.28,3.18,6,6,0,0,1-4.58.85,19.69,19.69,0,0,1-8.58-6.2c-1.14-1.32-1.1-3.72-.81-5.39s1.27-4.32,2.55-5.49c2.46-2.25,6.32-.73,8.64.89,1.39,1,2.69,2.09,2.79,3.93a9.91,9.91,0,0,1-1,4.28,18.14,18.14,0,0,1-2.18,4.52,6.4,6.4,0,0,1-1.74,2,20.24,20.24,0,0,0-2.48,1.6,8.07,8.07,0,0,1-3,1.51,3.25,3.25,0,0,1-2.52-.22,10.9,10.9,0,0,1-2.63-1.5c-.5-.4-.85-1-1.32-1.39-.82-.74-.8-.79-.41-2"/><path d="M382,542.3c-.08-1.44.82-2.36,1.8-3.25a5.93,5.93,0,0,0,1-1,1.84,1.84,0,0,1,1.74-.84c1.83,0,3.59,1.26,5,2.21a6.47,6.47,0,0,1,1.69,1.39c.41.54.6,1.22,1,1.75.24.31.57.48.74.86s.16.83.36,1.23a2.41,2.41,0,0,1,.44,1.07,7.35,7.35,0,0,1,0,1.24,4.82,4.82,0,0,1-.4,2.22,14.11,14.11,0,0,1-1.32,1.94,6.67,6.67,0,0,1-.79.71c-.33.29-.54.67-.87,1a6.15,6.15,0,0,1-3.33,1.07c-2.2.33-4.56-.77-6.54-1.65a11.59,11.59,0,0,1-4-3c-.59-.75-1.06-1.54-1.57-2.33a9.81,9.81,0,0,1-1.3-2.26,8.56,8.56,0,0,1-.44-2.84,19.92,19.92,0,0,1,.13-3.09,6.16,6.16,0,0,1,1.35-2.67c.37-.41.84-.65,1.14-1.13a5.16,5.16,0,0,1,1-1.36,6.58,6.58,0,0,1,5.3-1.95,20.9,20.9,0,0,1,4.24.81c.87.32,1.72.69,2.58,1a6,6,0,0,1,2.38,1.72,4.09,4.09,0,0,1,1,1.44,5.31,5.31,0,0,1,.57,1.57c0,1.62-1,2.84-1.24,4.35a5.55,5.55,0,0,1-.11.89c-.14.46-.36.9-.53,1.34a10.54,10.54,0,0,1-1,2.13,6.93,6.93,0,0,1-1.83,1.91,3.6,3.6,0,0,1-2.91.57,9.81,9.81,0,0,1-3.59-.88,12.8,12.8,0,0,1-3.81-3.09,9.94,9.94,0,0,1-2.48-4.32,10.38,10.38,0,0,1-.47-2.57,10.83,10.83,0,0,1,.52-2.29c.44-1.61,1.95-2.69,3.15-3.71.23-.2.72-.8,1-.85s.65.22.88.31"/><path d="M374.24,554.31c-.07-1.43.83-2.36,1.81-3.25a6.35,6.35,0,0,0,1-1,1.82,1.82,0,0,1,1.73-.84c1.84,0,3.59,1.26,5,2.22a6,6,0,0,1,1.69,1.38c.41.55.6,1.23,1,1.75.23.32.57.48.74.86s.16.83.36,1.23a2.4,2.4,0,0,1,.43,1.07,8.56,8.56,0,0,1,0,1.24,4.93,4.93,0,0,1-.4,2.22,14.18,14.18,0,0,1-1.33,1.94,6,6,0,0,1-.79.71c-.33.29-.54.68-.86,1a6.1,6.1,0,0,1-3.33,1.07c-2.21.33-4.57-.76-6.55-1.65a11.43,11.43,0,0,1-4-3,25.78,25.78,0,0,1-1.58-2.33,10.19,10.19,0,0,1-1.3-2.26,8.3,8.3,0,0,1-.43-2.84,18.59,18.59,0,0,1,.12-3.08,6.25,6.25,0,0,1,1.35-2.68c.37-.4.84-.64,1.14-1.13a5.78,5.78,0,0,1,1-1.36,6.6,6.6,0,0,1,5.31-1.95,21,21,0,0,1,4.24.81c.86.32,1.71.69,2.58,1a6,6,0,0,1,2.37,1.72,4.3,4.3,0,0,1,1,1.45,5.19,5.19,0,0,1,.56,1.57c0,1.62-1,2.84-1.24,4.34a5.51,5.51,0,0,1-.1.89c-.15.46-.37.9-.54,1.35a10.17,10.17,0,0,1-1,2.12,6.75,6.75,0,0,1-1.82,1.91,3.62,3.62,0,0,1-2.92.57,10,10,0,0,1-3.59-.87,13,13,0,0,1-3.8-3.1,10,10,0,0,1-2.49-4.32,10.69,10.69,0,0,1-.47-2.56,11.74,11.74,0,0,1,.52-2.3c.44-1.61,1.95-2.68,3.15-3.71.23-.2.72-.79,1-.85s.65.22.87.31"/><path class="cls-2" d="M488.44,685.18c15-1.63,15.5-9.64,26.82-16.95,9.4-6.08,15.23-12.43,26.94-11.14,10,1.09,25.5,7,32.81,14.15-2.63-2.56-4.87-5.47-7.48-8s-5.57-5-8.45-7.32c-3.28-2.7,9.23,3.33,6.49.1-10-11.81-23.21-17.11-26.89-19.69-3.36-2.36-19.43-8.39-23.11-10.21-4.15-2.09-3.94-.87-8.52-.81s-9,.55-13.32-.86c-8.49-2.76-14.88-9.45-23.11-13-7.55-3.29-11.05-4.93-14.52-7.92-1.56-1.34-1.21-1-2.18.82-2,3.7-41.52,15.18-64.64,11.29-.88-.15-4.28,1.74-3.95,2.58,1.67,4.31,3.62,7.55,4.38,12.07a82.19,82.19,0,0,0,3.1,12c1.14,3.45,2.1,7.22,4.4,10.11,4.4,5.53,10.93,9.18,17.18,12.23l1.79.85a55.41,55.41,0,0,0,14.44,4.31c10.76,1.75,12.82,10.83,21.52,12.36C476.69,686.37,481,686,488.44,685.18Z"/><path class="cls-3" d="M388.89,577.16c-9.06,11.91-9.12,25.62-12.88,39.42-1.45,5.31-3.54,10.42-5.09,15.71-2.47,8.47-3.51,17.25-5,25.92-1.4,8.15-1.49,16.8-5,24.31-1.38,3-2.37,6-3.61,9-1.55,3.76-4,7.08-6,10.63-1.17,2.14-2,4.43-3.14,6.58L325,749.77c-.65,1-1.13,2.09-1.71,3.13a23.87,23.87,0,0,1-2.37,3,35.8,35.8,0,0,0-2.15,3.51,38.84,38.84,0,0,1-3.55,4.82c-1.57,1.87-2.87,3.57-5.16,4.62-1.69.79-3.51,1.27-5.25,2a23.46,23.46,0,0,0-5.89,3.43,9.48,9.48,0,0,0-2.51,2.33c-.4.79.12,1.73-.53,2.48-.32.38-.61.78-.93,1.16s-.42.44-.61.7-.35.44-.52.66a11.9,11.9,0,0,1-1.28,1.28c-.22.21-.43.43-.64.65s-.43.3-.64.47a2.58,2.58,0,0,0-.49.5c-.16.21-.38.38-.53.59a3.58,3.58,0,0,0-.7,1.44,1.67,1.67,0,0,0-.08.49c0,.22.12.49.17.72a8.22,8.22,0,0,1,.28,1.48,7.35,7.35,0,0,1-.26,1.4l-.24,1.27c-.06.31-.21.57-.28.88a3.29,3.29,0,0,1-.16.69c-.09.19-.14.4-.25.59a1.35,1.35,0,0,0-.24.48,8.06,8.06,0,0,0-.23,1.17c0,.58.47.75.92.92a1.7,1.7,0,0,0,.74.09,6.72,6.72,0,0,0,1.27-.06.38.38,0,0,0,.29-.13c.05-.06.06-.15.12-.2s.16-.06.25-.08a.54.54,0,0,0,.21-.16,8.38,8.38,0,0,0,1.14-1.52c.38-.61.75-1.23,1.09-1.85a19.31,19.31,0,0,0,1.07-2.67c-1,3.89-4.05,6.85-5.95,10.38a21.7,21.7,0,0,1-3.35,5.25,6.38,6.38,0,0,0-.78.94c-.11.15-.1.35-.18.51s-.17.28-.25.42c-.19.35-.33.69-.54,1s-.43.78-.63,1.17c-.33.65-.7,1.28-1.09,1.9a6.38,6.38,0,0,0-.49,2,2.62,2.62,0,0,0,.7,2.15,2.79,2.79,0,0,0,1.77,1,1.49,1.49,0,0,0,1.1-.25,1.87,1.87,0,0,0,.72-.87,8.36,8.36,0,0,1,1.16-2c.31-.35.69-.66,1-1s.45-.67.66-1a6.3,6.3,0,0,0,.69-1.21l.46-1.2A6.42,6.42,0,0,1,291,808a6.7,6.7,0,0,0,.62-1.11,3.85,3.85,0,0,1,1.11-1.2,10.26,10.26,0,0,0,1.06-1,18.38,18.38,0,0,1,2.27-2.9,2.74,2.74,0,0,0,.56-.62c.13-.2.33-.32.48-.51a9.64,9.64,0,0,0,1.08-1.31c.27-.49.46-1,.71-1.5.13-.25.31-.47.46-.71a2,2,0,0,0,.33-.55c-.05,0,.48-.35.54-.53l-.07-.19c.05.14-.92,1.28-1,1.41-.82,1.16-1.63,2.33-2.44,3.5q-3.43,4.93-6.86,9.89l-2.85,4.1a13,13,0,0,0-1.15,1.63,2.19,2.19,0,0,1-.29.17,4.72,4.72,0,0,0-.48.41,1.77,1.77,0,0,0-.57,1.19,2.34,2.34,0,0,0-.08.52c0,.25,0,.45-.06.7a3.25,3.25,0,0,0,0,.7c.06.39.27.54.6.73a7.72,7.72,0,0,0,1.4.56,2.34,2.34,0,0,0,1.43.12,3.07,3.07,0,0,0,1.25-1.1,15.41,15.41,0,0,0,1.29-1.61c.29-.43.57-.84.9-1.24a13.91,13.91,0,0,0,1.06-1.49c.34-.57,1-1,1.37-1.52.21-.28.38-.59.58-.88s.38-.43.54-.68a6.31,6.31,0,0,1,1.34-1.29,4.65,4.65,0,0,0,.73-.67c.28-.36.61-.63.92-1,2.27-2.34,4-5.17,6.06-7.69a25,25,0,0,1,3.54-3.73,19,19,0,0,1-2.54,3l-1.78,2.09-3.74,4.4-6.53,7.67a9.55,9.55,0,0,1-1.16,1.37.7.7,0,0,0-.33.46c0,.12-.11.16-.16.26a1.71,1.71,0,0,0,0,1.16c.27,1,1.42,1.14,2.3,1.14a2.64,2.64,0,0,0,1.53-.52c.5-.34,1.05-.55,1.54-.88a4.18,4.18,0,0,0,1.09-1.09,9.69,9.69,0,0,1,1.06-1.26,21,21,0,0,0,1.85-2.69l.55-.74c.15-.19.36-.32.51-.51.44-.51.82-1.06,1.23-1.59a4.83,4.83,0,0,1,.72-.78c.24-.21.44-.48.68-.68a12.3,12.3,0,0,0,2.42-2.62c.69-1,1.92-1.92,2.46-3a6.33,6.33,0,0,1,1.4-1.7c.51-.5.63-1.14,1.23-1.55.29-.19.27-.33.57-.51.15-.09-.05-.54.1-.59-.24.08-1,1.37-1.16,1.63-.69.92-1.42,1.8-2.14,2.69-1.75,2.14-3.54,4.24-5.3,6.36-.77.94-1.55,1.87-2.33,2.8a6,6,0,0,0-.92,1.1c0,.2-.39.31-.28.51s.17.21.23.33a1.33,1.33,0,0,0,.2.35.62.62,0,0,0,.32.11c.43.07.82.27,1.24.36a2.24,2.24,0,0,0,1.2-.11c3.1-.95,5.72-5.37,7.7-7.72,1.72-2,3.4-4.1,5.05-6.19,1.19-1.51,2.3-3.69,3.71-5a5.68,5.68,0,0,0,.5-.6,2,2,0,0,0,.33-.38,3.53,3.53,0,0,1,.39-.71c.19-.23.56-.42.71-.69a11.23,11.23,0,0,0,.59-1.75c2.39-7.11,5.48-10.83,8.37-17.76.42.37.42-3.53.68-4,1.83-3.53,3.77-7,5.65-10.47a8.11,8.11,0,0,1,1.07-1.4l26-26.68a107.51,107.51,0,0,0,8.18-9.78,51.6,51.6,0,0,0,5.79-9.27,23.3,23.3,0,0,1,1.95-3.12c.94-1.45,1.47-3.27,2.29-4.74a28.62,28.62,0,0,0,1.38-3c.51-1.25,1.48-1.87,2-3.12,1.33-3.23,4.81-5.39,6.74-8.38a63.51,63.51,0,0,0,5.59-11.92q7.49-19.39,14.48-39c4.49-12.54,11.14-26.2,12.73-39.41"/><path class="cls-3" d="M293.68,787.42a3.24,3.24,0,0,0-.94-.94c-.26-.15-.54-.27-.81-.4a5.38,5.38,0,0,1-.66-.38c-.36-.2-.58-.57-1-.39"/><path class="cls-3" d="M292.43,788.6a5.32,5.32,0,0,1-1.53-.2l-.5-.09c-.2,0-.42-.22-.62-.23"/><path class="cls-3" d="M282.3,814.93c.1-.25.68-1.5.82-1.7a3,3,0,0,1,.78-.6,2.19,2.19,0,0,1,2.23-.14c.66.48.34,1.43.2,2.09a4.59,4.59,0,0,1-.42,1.06c-.07.15-.18.26-.25.41a3.55,3.55,0,0,1-.58.9"/><path class="cls-3" d="M284.36,819.61c.07-.33.4-.92.51-1.24a1.68,1.68,0,0,1,.88-.88c.3-.14.63-.21.93-.35.08,0,.12-.1.2-.14a2.28,2.28,0,0,1,.45,0,1.87,1.87,0,0,1,1.24.27c.27.17.65.45.65.82a5.73,5.73,0,0,1-.21,1.08c-.06.27-.42,2.26-.66,2,0,0-.7.26-.71.34"/><path class="cls-3" d="M291.13,818.85a9.7,9.7,0,0,1,.6-1,2.61,2.61,0,0,1,.73-.88,2.41,2.41,0,0,1,.54-.41,2.87,2.87,0,0,1,.62-.17c.21,0,.32.12.5.19a1.85,1.85,0,0,1,.44.23,2.26,2.26,0,0,1,.37.22,1.72,1.72,0,0,1,.2.38,1.17,1.17,0,0,1-.06.86,4.28,4.28,0,0,1-.67.91c-.11.15-.2.31-.31.45a4.92,4.92,0,0,1-.61.6c0-.14-1,.06-.9-.07"/><path class="cls-3" d="M295.89,805.28a4.08,4.08,0,0,1,1.05.36,2.23,2.23,0,0,1,1,.75"/><path class="cls-3" d="M294.55,806.45a2.61,2.61,0,0,0,.41.48,2.78,2.78,0,0,0,.87.73,2.74,2.74,0,0,0,.89.34,2.52,2.52,0,0,0,.47.06c.14,0,.27,0,.4,0"/><path class="cls-3" d="M303.42,807c.22.13.47.25.69.39a.57.57,0,0,1-.32-.21"/><path class="cls-3" d="M303.73,805.9c.44.27.91.52,1.33.83a1.61,1.61,0,0,1,.46.44"/><path class="cls-3" d="M310.18,805.23a6,6,0,0,1,1.38.27c.16,0,.42.2.58.11"/><path class="cls-3" d="M290.63,801.53c.26.09,1.61.7,1.84.85.82.43.12.11.2.13"/><path class="cls-3" d="M290.72,800.28a5.37,5.37,0,0,1,3.53,1.64c.17.2.49.18.71.33"/><path class="cls-3" d="M301.26,813.24c.13-.08.82-.83,1-.89a1.9,1.9,0,0,1,.69-.18,8.25,8.25,0,0,1,1.7.22c.43.09.91.17,1.09.53a.88.88,0,0,1-.25,1c-.28.3-.56.56-.87.84s-.75.73-1,.72"/><path class="cls-3" d="M289.46,791.79c.44-1.25,1.29.09,1.42.63.3,1.23.94,3.78-.85,4.28"/><path class="cls-4" d="M574.48,668.1a29,29,0,0,0-13.92-15.32c-9.26-4.57-28-9.38-39.65-6.48-17.53,4.35-17.52,17.33-30.64,28.13-19.42,16-39.08,32.4-53.74,51.71-9.59,12.64-15.65,26.2-22.24,39.66-3.6,7.36-10.42,12.64-14.56,19.78-5.94,10.24-2.2,20.2,3.2,30.79,8.06,15.83,15.15,28.08,23,43.89l1.29,2.6c4.32,6.57,8.23,13.41,12.87,19.8,3.82,5.27,8.61,11.39,11.44,17.83a115.15,115.15,0,0,1,9,17c.27.79.58,1.58.89,2.37a45.52,45.52,0,0,1,2.39,9.75c-.87.2-3.36.67-3.66.76-3.79,1-7.25,3.63-11,4.94-3.23,1.13-6.57,1.4-9.81,2.43-6.4,2-12.76,5.26-19.54,4.77a1.64,1.64,0,0,0-1.16.2,2.57,2.57,0,0,0-.8,2.28,3.64,3.64,0,0,0,.58,1.72c.16.25.41.46.56.71s.15.41.26.6a8.79,8.79,0,0,0,3.06,2.79,15.72,15.72,0,0,0,5.26,2.17,17.12,17.12,0,0,0,2,.53c.47,0,.9-.05,1.38,0,1.5.2,3.06-.23,4.57-.25.72,0,1.42-.14,2.14-.16a13.64,13.64,0,0,1,2-.06c.58.07,1.15.22,1.72.29,1.13.14,2.25.13,3.38.32,3.15.51,6.45-.29,9.67.06a71.93,71.93,0,0,0,11.93.53c5.89-.32,11.77-1.23,17.67-1.36,5.22-.12,11.51,1.48,16.22-1.48,2.62-1.65,1.35-6.18,1.9-9.22,2.59-14.2-12.88-31-19-43.12-5.44-10.84-5-21.5-7.31-33.15-2.62-13.51-6.12-26.84-10-40a117.7,117.7,0,0,0-9.94-22.9c12.95-8.56,27.57-14.92,41.09-22.74a199.33,199.33,0,0,0,54.44-46.48C565.75,716.25,584.17,691.87,574.48,668.1Z"/><path class="cls-5" d="M411.49,557.57l-2.71-.76-1-.25h0a4.11,4.11,0,0,1-.47,0c-.12,0-.23,0-.36,0-1.43,1.15-3.39,3.94-4.72,4.83a38.2,38.2,0,0,0-7.57,7,146.37,146.37,0,0,0-17.11,23.87,24.78,24.78,0,0,0-3.06,8.52,85.39,85.39,0,0,0-.62,10.08,40.24,40.24,0,0,0,.54,8.27c1.11-2.68,2.5-5.27,3.82-8,.07-.18.13-.36.2-.53a66.52,66.52,0,0,1,.47-7,20.7,20.7,0,0,1,2.44-7.2,1.59,1.59,0,0,1,0-.84,65.84,65.84,0,0,1,11.56-16.86c6.06-6.82,12.46-14.75,19.06-20.95l-.2-.06Z"/><path class="cls-5" d="M445.47,582.89c-3.51-6.23-7.26-12.31-11.2-18.23-1.38-.51-2.77-1-4.21-1.58-.85-.31-1.71-.6-2.57-.9,5.25,7.55,10.18,15.37,14.71,23.45,3.64,6.52,6.88,13.25,10.26,19.91a5.6,5.6,0,0,1,3.77-1.84C452.69,596.74,449.31,589.69,445.47,582.89Z"/><path d="M97.35,227.85a68.34,68.34,0,0,0,2.26,33.88,81.51,81.51,0,0,0,15.44,27A88.38,88.38,0,0,0,127,300.4c1.49,1.2,3.62-.91,2.12-2.12-15.47-12.49-27.31-30.61-29.53-50.65a65,65,0,0,1,.69-19c.35-1.89-2.54-2.69-2.89-.8Z"/><path d="M122.78,285.81c1.69,4.63,2.92,9.41,4.25,14.16l1.45-1.9c-2.49.06-5,.24-7.47.34-2.31.1-4.62.1-6.94.2-1.92.09-1.93,3.09,0,3,2.32-.1,4.63-.1,6.94-.2,2.49-.1,5-.28,7.47-.34a1.52,1.52,0,0,0,1.44-1.9c-1.33-4.75-2.56-9.52-4.24-14.16a1.55,1.55,0,0,0-1.85-1.05,1.52,1.52,0,0,0-1,1.85Z"/><path d="M75.44,148.57v17.26H72.36V148.57Z"/><path d="M82.74,149.26V153H86l-.42,2.47H82.74v5.92c0,1.4.64,2,1.68,2a5.72,5.72,0,0,0,2-.57l.56,2.34a8.09,8.09,0,0,1-3.27.84c-3,0-4-2-4-4.14V155.5h-1.8V153h1.94l.37-3.42Z"/><path d="M96.48,152.91l.44,2.29a4.34,4.34,0,0,1,4-2.44,3.77,3.77,0,0,1,3.85,2.39,4.55,4.55,0,0,1,4.16-2.39c3,0,4.22,2,4.22,4.64v8.43h-3.06v-7.45c0-2-.47-3-2.14-3-2.22,0-2.81,1.68-2.81,3.58v6.9h-3.06v-7.45c0-2-.47-3-2.15-3-2.36,0-2.83,1.9-2.83,4v6.51H94V152.91Z"/><path d="M119.15,152.91v7.45c0,2,.79,3,2.59,3,2.34,0,3.3-2.42,3.3-4.86v-5.62h3.06v12.92h-2.44l-.45-2.81a4.7,4.7,0,0,1-4.46,3c-3.16,0-4.66-1.95-4.66-5.2v-7.87Z"/><path d="M131.6,162.13a6.72,6.72,0,0,0,4.19,1.43c1.48,0,2.35-.44,2.35-1.5,0-2.52-7.47-.84-7.23-5.57.1-2.32,1.8-3.7,5.23-3.7A10.49,10.49,0,0,1,140.8,154l-1.08,2.17a7.36,7.36,0,0,0-3.7-1.07c-1.21,0-2.22.4-2.17,1.41.15,2.05,7.32.47,7.32,5.45,0,2.66-2.39,4-5.45,4a8.86,8.86,0,0,1-5.3-1.68Z"/><path d="M147.63,149.26V153h3.26l-.42,2.47h-2.84v5.92c0,1.4.64,2,1.68,2a5.72,5.72,0,0,0,1.95-.57l.57,2.34a8.21,8.21,0,0,1-3.28.84c-3,0-4-2-4-4.14V155.5h-1.8V153h1.94l.37-3.42Z"/><path d="M162,147v8.21a4.39,4.39,0,0,1,4.31-2.41c2.44.07,5.06,1.72,5.06,6.48,0,3.9-2,6.71-5.45,6.71a4.28,4.28,0,0,1-4.07-2.37l-.42,2.22h-2.49V147.39Zm-.12,12.36c0,2.21.81,4,3.25,4,2,0,3.11-1.5,3.11-4,0-3-1.51-4-3.13-4C163.32,155.35,161.87,156.76,161.87,159.35Z"/><path d="M185.39,162.28a5.76,5.76,0,0,1-5.57,3.7c-4.34,0-6.26-2.71-6.26-6.76s2.71-6.53,6.43-6.43c3,.07,5.75,2.34,5.45,6.46l-.05.39h-8.73c0,2.2.94,3.7,3.18,3.7a2.87,2.87,0,0,0,2.79-2.05Zm-3.13-4.22c.05-2-1-2.93-2.54-2.88a2.87,2.87,0,0,0-2.91,2.88Z"/><path d="M196.35,147v8.21a4.39,4.39,0,0,1,4.31-2.41c2.44.07,5.06,1.72,5.06,6.48,0,3.9-1.95,6.71-5.45,6.71a4.27,4.27,0,0,1-4.07-2.37l-.42,2.22h-2.49V147.39Zm-.13,12.36c0,2.21.82,4,3.26,4,2,0,3.1-1.5,3.1-4,0-3-1.5-4-3.13-4S196.22,156.76,196.22,159.35Z"/><path d="M214.23,152.79c3.23,0,6,2.19,6,6.6,0,3.63-2.15,6.59-6.17,6.59-4.36,0-6.16-3-6.16-6.59C207.94,155,210.72,152.79,214.23,152.79Zm-3.09,6.6c0,2.05.69,4,3,4,2.1,0,3-1.95,3-4,0-2.86-1.41-4-3-4C212.52,155.38,211.14,156.49,211.14,159.39Z"/><path d="M226,147v14.62c0,1.39.62,1.76,1.53,1.76a2.42,2.42,0,0,0,1.28-.47l.57,2.19a5.35,5.35,0,0,1-2.79.89c-2.56,0-3.65-1.73-3.65-4.07V147.36Z"/><path d="M242.49,147v18.84h-2.56l-.35-2.22a4.52,4.52,0,0,1-4.12,2.37c-3.47.05-5.55-2.84-5.55-6.63,0-4.64,3-6.56,5.53-6.56a4.1,4.1,0,0,1,4,2.44v-7.84Zm-9.42,12.33c0,2.2.86,3.92,3.16,3.92s3.25-1.72,3.25-3.89c0-2.94-1.58-4-3.28-4S233.07,156.49,233.07,159.32Z"/><path d="M246.61,165.49a1.42,1.42,0,0,1-1.63-1.58,1.6,1.6,0,0,1,1.73-1.53c1.7,0,2.37,1.33,2.24,2.91-.19,2.34-2,3.28-4,3.3v-1.33c1.16,0,2-.62,2-1.36C246.91,165.71,246.61,165.49,246.61,165.49Z"/><path d="M259.73,147v8a4.82,4.82,0,0,1,4.24-2.19c3,0,4.49,1.94,4.49,4.61v8.43H265.4v-7.45c0-2-.74-3-2.41-3-2.35,0-3.26,1.9-3.26,4v6.51h-3.06V147.36Z"/><path d="M275.54,152.91v12.92h-3.08V155.45h-1.8v-2.54Zm-1.55-5a1.6,1.6,0,1,1,0,3.16,1.63,1.63,0,0,1-1.8-1.63A1.59,1.59,0,0,1,274,147.88Z"/><path d="M290.73,152.91v11c0,4.29-1.67,6.88-6.41,6.88a13.36,13.36,0,0,1-5.28-1.11l.72-2.31a11.13,11.13,0,0,0,4.22,1c2.78,0,3.69-1.38,3.69-3.5v-1.14a4.44,4.44,0,0,1-4,2.05c-3.48.07-5.48-2.57-5.48-6.36,0-4.64,3-6.56,5.52-6.56a4.28,4.28,0,0,1,4.1,2.34l.32-2.22Zm-9.32,6.41c0,2.2.86,3.92,3.16,3.92s3.2-1.72,3.2-3.89c0-2.94-1.55-4-3.23-4S281.41,156.49,281.41,159.32Z"/><path d="M297,147v8a4.81,4.81,0,0,1,4.24-2.19c3,0,4.49,1.94,4.49,4.61v8.43h-3.06v-7.45c0-2-.74-3-2.41-3-2.35,0-3.26,1.9-3.26,4v6.51h-3.06V147.36Z"/><path d="M72.38,187.64a15.49,15.49,0,0,1,4.89-.94c3.89,0,5.32,1.92,5.32,4.93v5.23a.65.65,0,0,0,.62.74,2.41,2.41,0,0,0,1-.15v2.05a5,5,0,0,1-2,.39,2.34,2.34,0,0,1-2.34-1.75,5.64,5.64,0,0,1-3.89,1.75c-2.52,0-4.39-1.28-4.42-4s2-4.09,5.25-4.09a19.85,19.85,0,0,1,2.79.25v-.77c0-1.4-.89-2.17-2.66-2.14a10.41,10.41,0,0,0-4,.79Zm7.16,6a13.13,13.13,0,0,0-2.52-.15c-1.48.07-2.42.77-2.44,2.07a1.81,1.81,0,0,0,2.1,1.9,5.1,5.1,0,0,0,2.86-1Z"/><path d="M88.76,186.82l.47,2.3a4.76,4.76,0,0,1,4.41-2.42c3,0,4.49,2,4.49,4.61v8.43H95.07V192.3c0-2-.74-3-2.41-3-2.35,0-3.26,1.89-3.26,4v6.51H86.34V186.82Z"/><path d="M113.32,180.91v18.83h-2.56l-.35-2.21a4.5,4.5,0,0,1-4.11,2.36c-3.48.05-5.55-2.83-5.55-6.63,0-4.64,3-6.56,5.52-6.56a4.09,4.09,0,0,1,4,2.44V181.3Zm-9.42,12.32c0,2.2.87,3.93,3.16,3.93s3.26-1.73,3.26-3.9c0-2.93-1.58-4-3.28-4S103.9,190.4,103.9,193.23Z"/><path d="M132.86,196.12c-.84,2.64-3,3.77-5.62,3.77-4.24,0-6.07-3.15-6.07-6.61,0-4.21,2.61-6.51,6.14-6.58,3.11-.07,5,1.53,5.5,3.8l-2.84.91a2.54,2.54,0,0,0-2.61-2.12c-1.78,0-3.13,1.31-3.13,3.94,0,2.1.79,4,3.08,4a2.6,2.6,0,0,0,2.71-2Z"/><path d="M141.15,186.7c3.23,0,6,2.19,6,6.61,0,3.62-2.15,6.58-6.17,6.58-4.36,0-6.16-3-6.16-6.58C134.86,188.89,137.65,186.7,141.15,186.7Zm-3.09,6.61c0,2.05.69,4,3,4,2.1,0,3-1.94,3-4,0-2.86-1.41-4-3-4C139.45,189.29,138.06,190.4,138.06,193.31Z"/><path d="M152.32,186.82l.47,2.3a4.76,4.76,0,0,1,4.41-2.42c3,0,4.49,2,4.49,4.61v8.43h-3.06V192.3c0-2-.74-3-2.41-3-2.35,0-3.26,1.89-3.26,4v6.51H149.9V186.82Z"/><path d="M165.66,187V185.2c0-2.64,1.38-4.29,4.25-4.29a6.9,6.9,0,0,1,2.12.32l-.47,2.19c-.1,0-.5-.07-.89-.07-1.36,0-1.92.56-1.92,2.34V187H176v12.79h-3.06V189.41h-4.16v10.33h-3.09V189.41h-2V187Zm8.81-5.16a1.65,1.65,0,0,1,1.8,1.56,1.62,1.62,0,0,1-1.8,1.6,1.64,1.64,0,0,1-1.83-1.63C172.64,182.48,173.28,181.79,174.47,181.79Z"/><path d="M191.21,180.91v18.83h-2.56l-.35-2.21a4.5,4.5,0,0,1-4.11,2.36c-3.48.05-5.55-2.83-5.55-6.63,0-4.64,3-6.56,5.52-6.56a4.09,4.09,0,0,1,4,2.44V181.3Zm-9.42,12.32c0,2.2.87,3.93,3.16,3.93s3.26-1.73,3.26-3.9c0-2.93-1.58-4-3.28-4S181.79,190.4,181.79,193.23Z"/><path d="M205.69,196.19a5.75,5.75,0,0,1-5.57,3.7c-4.34,0-6.26-2.71-6.26-6.75s2.71-6.54,6.43-6.44c3,.07,5.75,2.34,5.45,6.46l-.05.4H197c0,2.19.94,3.69,3.18,3.69a2.87,2.87,0,0,0,2.79-2ZM202.56,192c.05-2-1-2.94-2.54-2.89a2.88,2.88,0,0,0-2.91,2.89Z"/><path d="M210.85,186.82l.47,2.3a4.76,4.76,0,0,1,4.41-2.42c3,0,4.49,2,4.49,4.61v8.43h-3.06V192.3c0-2-.74-3-2.42-3-2.34,0-3.25,1.89-3.25,4v6.51h-3.06V186.82Z"/><path d="M227.3,183.17V187h3.25l-.42,2.46H227.3v5.92c0,1.41.64,1.95,1.68,1.95a5.43,5.43,0,0,0,1.94-.57l.57,2.34a7.94,7.94,0,0,1-3.28.84c-3,0-4-2-4-4.14v-6.34h-1.8V187h1.95l.37-3.43Z"/><path class="cls-6" d="M95.79,61.4A36.74,36.74,0,0,1,104.16,38a34.44,34.44,0,1,0,.11,46.9A36.78,36.78,0,0,1,95.79,61.4ZM87.2,75.66H70.92L71,73.39l4.46-.58c.58,0,.81-.23.81-1,.08-10.05,0-19.6,0-19.6l-5.62,1.08c-.19-.31-1.12-2.46-.46-2.73l10.35-4,1,1s-.12,20.87,0,24.37c0,.77.19,1,.73,1l5.08.54Z"/><circle cx="130" cy="61.53" r="34.44"/><text class="cls-7" transform="translate(118.45 75.26)">2</text><path d="M184,52.13l8.43,15.27V52.13h3.75v21h-4.59L183.3,58.34V73.13h-3.75v-21Z"/><path d="M213.6,68.81a7,7,0,0,1-6.78,4.5c-5.28,0-7.62-3.3-7.62-8.22s3.3-8,7.83-7.83c3.69.09,7,2.85,6.63,7.86l-.06.48H203c0,2.67,1.14,4.5,3.87,4.5a3.5,3.5,0,0,0,3.39-2.49Zm-3.81-5.13c.06-2.43-1.26-3.57-3.09-3.51a3.5,3.5,0,0,0-3.54,3.51Z"/><path d="M219.69,57.41l3.15,6.18,3.3-6.18h4l-4.35,7.8,4.53,7.92h-4.26L222.78,67l-3.45,6.12h-4.14L220,65.27l-4.29-7.86Z"/><path d="M238.11,53v4.59h4l-.51,3h-3.45v7.2c0,1.71.78,2.37,2,2.37a6.83,6.83,0,0,0,2.37-.69l.69,2.85a9.82,9.82,0,0,1-4,1c-3.69,0-4.83-2.46-4.83-5V60.56H232.2v-3h2.37l.45-4.17Z"/><path d="M256.74,57.41V73.13H253V60.5H250.8V57.41Zm-1.89-6.12a2,2,0,0,1,2.22,1.89,2.22,2.22,0,0,1-4.41,0A1.93,1.93,0,0,1,254.85,51.29Z"/><path d="M261,68.63a8.15,8.15,0,0,0,5.1,1.74c1.8,0,2.85-.54,2.85-1.83,0-3.06-9.09-1-8.79-6.78.12-2.82,2.19-4.5,6.36-4.5a12.78,12.78,0,0,1,5.67,1.47l-1.32,2.64a8.9,8.9,0,0,0-4.5-1.29c-1.47,0-2.7.48-2.64,1.71.18,2.49,8.91.57,8.91,6.63,0,3.24-2.91,4.92-6.63,4.89a10.76,10.76,0,0,1-6.45-2Z"/><path d="M286.77,53v4.59h4l-.51,3h-3.45v7.2c0,1.71.78,2.37,2,2.37a6.83,6.83,0,0,0,2.37-.69l.69,2.85a9.82,9.82,0,0,1-4,1c-3.69,0-4.83-2.46-4.83-5V60.56h-2.19v-3h2.37l.45-4.17Z"/><path d="M294.09,58.4A18.74,18.74,0,0,1,300,57.26c4.74,0,6.48,2.34,6.48,6v6.36a.79.79,0,0,0,.75.9,3,3,0,0,0,1.23-.18v2.49a6.08,6.08,0,0,1-2.49.48,2.84,2.84,0,0,1-2.85-2.13,6.87,6.87,0,0,1-4.74,2.13c-3.06,0-5.34-1.56-5.37-4.83s2.46-5,6.39-5a24.49,24.49,0,0,1,3.39.3v-.93c0-1.71-1.08-2.64-3.24-2.61a12.68,12.68,0,0,0-4.86,1Zm8.7,7.35a16.62,16.62,0,0,0-3.06-.18c-1.8.09-2.94.93-3,2.52a2.21,2.21,0,0,0,2.55,2.31,6.17,6.17,0,0,0,3.48-1.26Z"/><path d="M314.79,50.21V64h1.74l3.66-6.45h4.2l-4.71,7.77,5.13,7.86h-4.29l-4-6.09h-1.77v6.09h-3.72V50.66Z"/><path d="M340.59,68.81a7,7,0,0,1-6.78,4.5c-5.28,0-7.62-3.3-7.62-8.22s3.3-8,7.83-7.83c3.69.09,7,2.85,6.63,7.86l-.06.48H330c0,2.67,1.14,4.5,3.87,4.5a3.5,3.5,0,0,0,3.39-2.49Zm-3.81-5.13c.06-2.43-1.26-3.57-3.09-3.51a3.5,3.5,0,0,0-3.54,3.51Z"/><path d="M349.68,63.56v3h-7.44v-3Z"/><path d="M359,57.26c3.93,0,7.35,2.67,7.35,8,0,4.41-2.61,8-7.5,8-5.31,0-7.5-3.6-7.5-8C351.33,59.93,354.72,57.26,359,57.26Zm-3.75,8c0,2.49.84,4.86,3.66,4.86,2.55,0,3.69-2.37,3.69-4.86,0-3.48-1.71-4.89-3.6-4.89C356.91,60.41,355.23,61.76,355.23,65.3Z"/><path d="M370.56,57.56V55.43c0-3.21,1.68-5.22,5.19-5.22a8.28,8.28,0,0,1,3,.54l-.48,2.61a7.71,7.71,0,0,0-1.59-.18c-1.65,0-2.34.69-2.34,2.85v1.53h3.42l-.48,3h-2.94V73.13h-3.75V60.56H368.1v-3Z"/><path d="M381.12,57.56V55.43c0-3.21,1.68-5.22,5.19-5.22a8.28,8.28,0,0,1,3,.54l-.48,2.61a7.71,7.71,0,0,0-1.59-.18c-1.65,0-2.34.69-2.34,2.85v1.53h3.42l-.48,3h-2.94V73.13h-3.75V60.56h-2.46v-3Z"/></svg>