<svg id="Layer_1" data-name="Layer 1" xmlns="http://www.w3.org/2000/svg" viewBox="0 0 780 1051.14"><defs><style>.cls-1,.cls-3{fill:#d4a47c;}.cls-1,.cls-2,.cls-3,.cls-4,.cls-5,.cls-6{stroke:#fff;stroke-miterlimit:10;}.cls-1{stroke-width:0.27px;}.cls-2{fill:#005058;stroke-width:0.47px;}.cls-3{stroke-width:0.36px;}.cls-4{fill:#c6946f;stroke-width:0.27px;}.cls-5,.cls-6{fill:#fff171;}.cls-5{stroke-width:0.32px;}.cls-6{stroke-width:0.3px;}.cls-7,.cls-8{fill:#fff;}.cls-7{opacity:0.7;}</style></defs><path class="cls-1" d="M515.85,588.05a237.63,237.63,0,0,0-31.35-24.38l-1-.66c-8.79-4-17.55-8-26.79-11-7.68-2.47-15.79-4.07-23.37-6.64-9.79-3.32-17.74-7.24-28.1-7.21-4.41,0-9.09-1-13.44-.09a13.13,13.13,0,0,1-4,.24c-1.94-1.13-3.36-2.09-3.18-2.5.47-1.12-3.41-5-2-5.39s1.73,1.37,2.28,2.33c.45.78,1.21,1.26,1.72,2a7.05,7.05,0,0,0,1.08,1.64,6.13,6.13,0,0,0,4.25,1.58c1.75-.21,2.86-1.85,4.5-2.27a5.67,5.67,0,0,1,2.16.07,2.61,2.61,0,0,1,0-1.66c1.13-3.73,4.37-6,6.57-9a19.38,19.38,0,0,0-2.69-2.12,28.57,28.57,0,0,1-4.15-3.45c-1.16-1.14-2.48-1.8-2.78-3.38-.23-1.22.28-2.43.05-3.64a20.38,20.38,0,0,1-.64-2.41,30.56,30.56,0,0,1,.14-3.95c.12-2.92,0-5.92-.05-8.85a24.35,24.35,0,0,0-1.69-9.25,19.38,19.38,0,0,0-5.82-7.53,43.14,43.14,0,0,0-6.05-4.32,74.27,74.27,0,0,0-9.89-4.41c-3.82-1.39-8.6-1.57-12.6-1.28-3,.21-5.85,0-8.84.51a25,25,0,0,0-8.34,3.55c-2.23,1.35-4.56,1.83-7,2.53-1.22.36-2.21,1.22-3.47,1.64a29.44,29.44,0,0,0-4.39,1.68c-2.67,1.44-3.53,3.87-4.6,6.49-.71,1.75-.78,3.58-1.53,5.33a14.2,14.2,0,0,0-.75,2.64c-.21,1-.68,1.86-.89,2.87-.1.49,0,.93-.07,1.44s-.46.75-.45,1.29a20.23,20.23,0,0,0,.81,3.05,25.6,25.6,0,0,1,.68,3.64c0,.19,0,.31,0,.39s-.17.11-.36.4a11.71,11.71,0,0,1-1.91,2.07c-1.69,1.73-2.13,1.57-3.87,3.72a26.57,26.57,0,0,0-2.9,4.29,3.42,3.42,0,0,0,2,4.91,1.81,1.81,0,0,1,1,.74,4.75,4.75,0,0,1,1.24,3.25,18.81,18.81,0,0,0-.58,3,18.43,18.43,0,0,0,.94,5.48c.5,1.45,1.28,2,.77,3.44-.37,1-.8,2-1.21,3.05-.78,1.9-.94,3.87.79,5.29,2.32,1.9,6.93,2.19,9.73,2.81,9.67,2.14,19.11,4.37,28.8,6.22a27.88,27.88,0,0,1,16.76,9.44c10.21,12.23,13.19,30.56,20.68,44.48.31-.36.13-11.87,0-22.59,1.47,4,2.9,8.06,4.22,12.26,1,3.08,4.3,1.62,6.75,3.7,2.24,1.9,1.51,9.27,4.41,9.75,10.49,1.73,21.12,2.41,31.72,3.37,18.17,1.66,36.31,4.16,54.56,4.39,16.15.21,39.46,8.31,55.27,5C547.15,626.32,518.88,590.85,515.85,588.05Z"/><path d="M330,500.4c.31.18.6.39.9.59s.52.38.54.61,0,.1-.08.11-.22-.08-.29-.1a1.83,1.83,0,0,0-.32-.07c-.44-.06-.88-.06-1.32-.12-.25,0-.5,0-.75-.08-1.55-.31-3-1.14-4.61-1.27a7.12,7.12,0,0,0-4.2,1.36c-.15-.49-.68-2.08-.23-2.43.64-.5,2.77-.28,3.58-.51a6.55,6.55,0,0,1,4.5.46C328.55,499.36,329.24,500,330,500.4Z"/><path d="M405.74,519.5c-1.78-1.74-4-3.3-5.56-5.23-4.93-6.17-2.38-15.26-4.2-22.95-1.5-6.32-6.06-11.6-11.52-15.12s-11.79-5.44-18.12-6.91c-5.86-1.35-11.92-2.35-17.89-1.58-4,.51-15.47,3.77-15.52,9.14s8.76,9.84,9.58,15.68c.41,3-.55,6.08.38,8.92a25.22,25.22,0,0,0,2.11,4c1.3,2.39,2,5.1,3.44,7.39s4.11,4.2,6.76,3.58a11.16,11.16,0,0,1,1.74-5.51c1.16-1.56,2.12-.74,3.87.11,2.42,1.16,3.71,2.86,2.76,5.36s-2.56,5-2.22,7.62c.38,2.87,2.89,4.9,5.21,6.63,4,3,12.61,5.24,16.6,8.21,2.42-1.75,2-.82,4.5-2.42,1.9-1.2-.74-4.6,1.35-3.76a18.37,18.37,0,0,0,12.47.45c3.8-1.23,7.53-4.5,7.13-8.47A8.34,8.34,0,0,0,405.74,519.5Z"/><path d="M332.34,477.52l.88-.29-.07-.21A3,3,0,0,0,332.34,477.52Z"/><path class="cls-1" d="M352.13,516.89c-2.59-4.6,4.65-8.94,8.39-7.58a6.55,6.55,0,0,1,3.81,8c-1.11,3.2-4.59,5.07-5.9,8.19-.69,1.65-.79,3.65-2.11,4.86s-4.26-.07-3.34-1.6"/><path d="M393,518.48a7.16,7.16,0,0,0,2.68-2.08,12.05,12.05,0,0,1,3.31-2.21,6,6,0,0,1,4.44-.6,6.66,6.66,0,0,1,3.3,2.28,6.39,6.39,0,0,1,1.58,3.26c0,1.29-1.17,3.06-1.62,4.26a6.68,6.68,0,0,1-3.28,3.18,6,6,0,0,1-4.58.86,19.72,19.72,0,0,1-8.58-6.21c-1.14-1.32-1.1-3.71-.81-5.38s1.27-4.32,2.55-5.49c2.46-2.25,6.32-.74,8.64.89,1.39,1,2.69,2.09,2.79,3.92a9.84,9.84,0,0,1-1,4.28,18.21,18.21,0,0,1-2.18,4.53,6.4,6.4,0,0,1-1.74,2,20.24,20.24,0,0,0-2.48,1.6,8.05,8.05,0,0,1-3,1.5,3.21,3.21,0,0,1-2.52-.22,10.28,10.28,0,0,1-2.63-1.5c-.5-.39-.85-1-1.32-1.39-.82-.74-.8-.78-.41-2"/><path d="M392.83,517.5c-.08-1.44.82-2.37,1.8-3.25a6,6,0,0,0,1-1,1.88,1.88,0,0,1,1.74-.84c1.83,0,3.59,1.27,5,2.22a6.44,6.44,0,0,1,1.69,1.38c.41.55.6,1.23,1,1.76.24.31.57.47.74.85s.16.83.36,1.23a2.41,2.41,0,0,1,.44,1.07,7.47,7.47,0,0,1,0,1.25,4.78,4.78,0,0,1-.4,2.21,12.75,12.75,0,0,1-1.32,1.94,5.89,5.89,0,0,1-.79.71c-.33.29-.54.68-.87,1a6.24,6.24,0,0,1-3.33,1.07c-2.2.32-4.56-.77-6.54-1.66a11.47,11.47,0,0,1-4-3,26.37,26.37,0,0,1-1.57-2.33,9.41,9.41,0,0,1-1.3-2.26A8.48,8.48,0,0,1,386,517a19.79,19.79,0,0,1,.13-3.08,6.14,6.14,0,0,1,1.35-2.68c.37-.4.84-.64,1.14-1.13a5.51,5.51,0,0,1,1-1.36,6.61,6.61,0,0,1,5.3-2,20.92,20.92,0,0,1,4.24.82c.87.31,1.72.69,2.58,1a5.82,5.82,0,0,1,2.38,1.72,4,4,0,0,1,1,1.44,5.22,5.22,0,0,1,.57,1.57c0,1.62-1,2.84-1.24,4.34a5.67,5.67,0,0,1-.11.9c-.14.45-.36.89-.53,1.34a10.79,10.79,0,0,1-1,2.13,6.89,6.89,0,0,1-1.83,1.9,3.56,3.56,0,0,1-2.91.57,10,10,0,0,1-3.59-.87,13,13,0,0,1-3.81-3.09,10,10,0,0,1-2.48-4.32,10.38,10.38,0,0,1-.47-2.57,10.83,10.83,0,0,1,.52-2.29c.44-1.62,1.95-2.69,3.15-3.72.23-.2.72-.79,1-.85s.65.23.88.31"/><path d="M385.08,529.51c-.07-1.44.83-2.36,1.81-3.25a6,6,0,0,0,1-1,1.83,1.83,0,0,1,1.73-.83c1.84,0,3.59,1.26,5,2.21a6.16,6.16,0,0,1,1.69,1.39c.41.54.6,1.22,1,1.75.23.31.57.48.74.86s.16.83.36,1.22a2.49,2.49,0,0,1,.43,1.07,8.66,8.66,0,0,1,0,1.25,5,5,0,0,1-.4,2.22,14.82,14.82,0,0,1-1.33,1.94,6,6,0,0,1-.79.71c-.33.28-.54.67-.86,1a6.27,6.27,0,0,1-3.33,1.07c-2.21.32-4.57-.77-6.55-1.65a11.67,11.67,0,0,1-4-3A27.27,27.27,0,0,1,380,534.1a10.19,10.19,0,0,1-1.3-2.26,8.3,8.3,0,0,1-.43-2.84,18.71,18.71,0,0,1,.12-3.09,6.27,6.27,0,0,1,1.35-2.67c.37-.41.84-.65,1.14-1.14a5.53,5.53,0,0,1,1-1.35,6.57,6.57,0,0,1,5.31-2,21,21,0,0,1,4.24.81c.86.31,1.71.69,2.58,1a5.79,5.79,0,0,1,2.37,1.72,4.16,4.16,0,0,1,1,1.44,5.19,5.19,0,0,1,.56,1.57c0,1.62-1,2.84-1.24,4.35a5.51,5.51,0,0,1-.1.89c-.15.45-.37.9-.54,1.34a10,10,0,0,1-1,2.13,6.75,6.75,0,0,1-1.82,1.91,3.58,3.58,0,0,1-2.92.56,9.61,9.61,0,0,1-3.59-.87,12.92,12.92,0,0,1-3.8-3.09,10,10,0,0,1-2.49-4.32,10.86,10.86,0,0,1-.47-2.57,11.49,11.49,0,0,1,.52-2.29c.44-1.61,2-2.69,3.15-3.71.23-.21.72-.8,1-.86s.65.23.87.31"/><path class="cls-2" d="M566,640.58a90.07,90.07,0,0,0-25.41-22.33c-5.66-3.32-11.82-6-18.44-6.33a51.38,51.38,0,0,0-6.17.19c-.49-.19-.92-.53-1.43-.68a13.94,13.94,0,0,1-2.8-.8c-.78-.4-1.56-.76-2.35-1.15-3.1-1.53-6.06-3.51-9.27-4.81-3.63-1.47-7-3.7-10.77-4.8s-7.44-2.27-11.17-3.36c-2.44-.72-5.08-1.39-7.59-1.86-2-.36-3.65-1.06-5.51-1.59s-3.69-1.21-5.51-1.71c-.7-.19-1.42-.1-2.13-.28s-1.49-.53-2.24-.79a12.47,12.47,0,0,0-4.47-.76c-1.6,0-2.83,1-4.17,1.76-1.83,1.1-3.76,2.14-5.6,3.26s-3.84,1.82-5.75,2.84c-1.32.7-2.6,1.49-3.9,2.26a193.53,193.53,0,0,0-22.88-4.26c.93,3.93,2.08,7.22,2.09,11.37s-25.24,1.82-24.63,5.89,5.83,9.71,8.14,13c3.44,5,7.5,9.66,12.86,12.62,11.87,6.56,26.62,4.07,38.81,9.68,4.29,2,5.88,8.7,9.06,12.12,5.13,5.5,11.18,9.6,16.89,14.4,4.34,3.65,8.49,9.76,14.19,11.43,6,1.75,7-9.35,13.26-9,15,.81,16.85-7,29.2-12.4,10.26-4.48,17-9.81,28.38-6.66,12.09,3.36.88,23.3,10.29,31.13-1.83-1.53,7-10.55,7.93-11.69,2.66-3.19,4.28-5.89,4.59-9C580.42,659.17,571.35,647.41,566,640.58Z"/><path class="cls-3" d="M411.7,557.25c-14.59,3.31-11.45,10.81-23.2,19-4.52,3.14-9.41,5.71-14,8.77-7.34,4.9-13.78,11-20.49,16.66-6.3,5.34-11.93,11.92-19.44,15.43-2.95,1.38-5.65,3.06-8.53,4.56-3.6,1.89-7.62,2.86-11.39,4.33-2.27.88-4.39,2.1-6.63,3l-44.16,16.58c-1.14.35-2.2.87-3.31,1.3a24.09,24.09,0,0,1-3.77.81,36.61,36.61,0,0,0-3.91,1.31,38.44,38.44,0,0,1-5.81,1.41c-2.4.42-4.49.89-6.93.23-1.8-.48-3.5-1.28-5.28-1.87a23.22,23.22,0,0,0-6.72-1.15,9.27,9.27,0,0,0-3.41.17c-.83.35-1,1.41-2,1.57-.49.08-1,.2-1.46.29-.32.05-.61.07-.92.14l-.82.16a12.18,12.18,0,0,1-1.8.17l-.91.08a5.29,5.29,0,0,1-.8-.05,2.66,2.66,0,0,0-.69.08c-.26,0-.53,0-.79.1a3.53,3.53,0,0,0-1.46.66,2,2,0,0,0-.38.32c-.12.19-.22.46-.33.66a7.8,7.8,0,0,1-.74,1.32,7.41,7.41,0,0,1-1.09.91l-1,.81c-.25.21-.53.31-.78.5a4,4,0,0,1-.56.43c-.2.08-.37.21-.58.29a1.65,1.65,0,0,0-.49.21,8.47,8.47,0,0,0-.93.75c-.4.42-.12.87.11,1.3a1.91,1.91,0,0,0,.52.54,7.39,7.39,0,0,0,1,.77.48.48,0,0,0,.32.09c.07,0,.14-.08.22-.08s.16.06.24.1a.57.57,0,0,0,.26,0,8.51,8.51,0,0,0,1.86-.43c.68-.22,1.35-.46,2-.72a19.27,19.27,0,0,0,2.53-1.36c-3.24,2.36-7.5,2.65-11.22,4.14a22,22,0,0,1-5.95,1.87,6.58,6.58,0,0,0-1.19.22c-.19,0-.31.2-.47.27s-.32.11-.46.17c-.37.14-.7.32-1.07.44a11.82,11.82,0,0,0-1.24.49c-.68.29-1.36.53-2.06.76A6.25,6.25,0,0,0,190,667a2.7,2.7,0,0,0-.85,2.11,2.75,2.75,0,0,0,.75,1.87,1.46,1.46,0,0,0,1,.51,2,2,0,0,0,1.11-.2,8.34,8.34,0,0,1,2.16-.78c.46-.06,1-.06,1.41-.16s.77-.22,1.15-.34a6.71,6.71,0,0,0,1.29-.49l1.13-.62a5.43,5.43,0,0,1,1.28-.51,6.65,6.65,0,0,0,1.19-.46,3.83,3.83,0,0,1,1.62-.2,10.28,10.28,0,0,0,1.47-.11,18.61,18.61,0,0,1,3.6-.76,2.47,2.47,0,0,0,.82-.12c.23-.06.46,0,.7-.08a9.45,9.45,0,0,0,1.67-.31c.52-.2,1-.47,1.51-.69.25-.11.53-.16.8-.25a2,2,0,0,0,.61-.21s.59,0,.76-.06l.06-.19a8,8,0,0,1-1.67.43l-4.12,1.11-11.61,3.18L193,671a12.66,12.66,0,0,0-1.92.52,3.23,3.23,0,0,1-.33-.06,4.56,4.56,0,0,0-.64,0,1.89,1.89,0,0,0-1.2.55,3.16,3.16,0,0,0-.39.35,5.78,5.78,0,0,1-.5.49,3.3,3.3,0,0,0-.41.57,1,1,0,0,0,0,.94,8.12,8.12,0,0,0,.72,1.33,2.37,2.37,0,0,0,1,1,3.07,3.07,0,0,0,1.67,0,15.72,15.72,0,0,0,2-.41c.5-.14,1-.27,1.49-.37a13.39,13.39,0,0,0,1.76-.46c.63-.22,1.37-.12,2-.28.34-.08.67-.21,1-.3s.58-.09.86-.18a6.1,6.1,0,0,1,1.86-.12,4.71,4.71,0,0,0,1-.06,11.57,11.57,0,0,1,1.32-.13c3.24-.34,6.37-1.42,9.58-2a25.91,25.91,0,0,1,5.11-.59,18.59,18.59,0,0,1-3.9.71l-2.71.46-5.69,1-9.94,1.69a10.62,10.62,0,0,1-1.76.3.7.7,0,0,0-.55.14c-.11.07-.19,0-.3.1a1.71,1.71,0,0,0-.73.88c-.43.94.35,1.8,1,2.36a2.62,2.62,0,0,0,1.51.58c.6.06,1.15.25,1.75.32a4.15,4.15,0,0,0,1.53-.14,9,9,0,0,1,1.62-.28,20.79,20.79,0,0,0,3.15-.88l.9-.21c.23-.06.47,0,.71-.06.67-.11,1.31-.29,2-.43a5.3,5.3,0,0,1,1-.14c.32,0,.64-.08,1-.08a12.83,12.83,0,0,0,3.54-.45c1.17-.34,2.7-.24,3.81-.74a6.41,6.41,0,0,1,2.17-.4c.71,0,1.21-.47,1.93-.39.36,0,.43-.09.78,0,.16,0,.3-.45.45-.39a8.88,8.88,0,0,0-1.94.51c-1.11.25-2.24.47-3.37.68-2.71.52-5.43,1-8.14,1.47-1.2.23-2.39.44-3.59.65a6.15,6.15,0,0,0-1.41.26c-.15.13-.5,0-.54.21s0,.27,0,.4a1.1,1.1,0,0,0-.08.4.64.64,0,0,0,.18.28c.28.33.45.73.71,1.07a2.18,2.18,0,0,0,1,.69c3,1.27,7.83-.44,10.86-1q3.93-.69,7.84-1.5c1.89-.4,4.14-1.35,6-1.43a6.51,6.51,0,0,0,.77-.13,2.17,2.17,0,0,0,.5-.08,3.09,3.09,0,0,1,.75-.3,5.26,5.26,0,0,0,1-.07,11.9,11.9,0,0,0,1.58-1c6.4-3.92,11.16-4.79,17.82-8.24.09.54,2.6-2.44,3.11-2.65,3.67-1.53,7.37-2.92,11.05-4.4a7.78,7.78,0,0,1,1.72-.38l37.05-3.77a106,106,0,0,0,12.55-2.24,51.59,51.59,0,0,0,10.4-3.38,21.56,21.56,0,0,1,3.49-1.14c1.66-.51,3.23-1.57,4.8-2.17a26.83,26.83,0,0,0,3-1.44c1.19-.63,2.34-.48,3.53-1.11,3.1-1.62,7.16-1,10.55-2.09a64.2,64.2,0,0,0,12-5.55q18.18-10.07,36.12-20.56c11.49-6.73,25.36-12.93,35.07-22A33.4,33.4,0,0,0,445.16,581"/><path class="cls-3" d="M215.68,654.29a3.27,3.27,0,0,0-.12-1.32c-.11-.28-.24-.56-.37-.83s-.17-.47-.26-.71-.07-.81-.55-1"/><path class="cls-3" d="M214,654.4a5.43,5.43,0,0,1-1.05-1.14l-.32-.39c-.13-.17-.18-.44-.33-.57"/><path class="cls-3" d="M189.28,668.08a18.82,18.82,0,0,1,1.73-.78,2.72,2.72,0,0,1,1,0,2.48,2.48,0,0,1,1.16.48,2.45,2.45,0,0,1,.63.85c.2.8-.65,1.32-1.18,1.73a5.1,5.1,0,0,1-1,.55c-.15.07-.31.08-.46.14a3.34,3.34,0,0,1-1,.32"/><path class="cls-3" d="M187.86,673a10.39,10.39,0,0,1,1.19-.63,1.64,1.64,0,0,1,1.23-.11c.32.09.63.24.95.33.08,0,.15,0,.24,0a1.9,1.9,0,0,1,.37.26,1.87,1.87,0,0,1,.77,1c.1.3.22.77,0,1a5.78,5.78,0,0,1-.86.69c-.22.17-1.77,1.46-1.82,1.15a3.59,3.59,0,0,0-.76-.2"/><path class="cls-3" d="M193.53,676.75a10.63,10.63,0,0,1,1.12-.4,2.6,2.6,0,0,1,1.13-.2,2.51,2.51,0,0,1,.67,0,2.91,2.91,0,0,1,.59.28c.16.13.16.29.26.46a2.62,2.62,0,0,1,.19.46c0,.15.13.25.13.41a1.25,1.25,0,0,1-.08.42,1.14,1.14,0,0,1-.6.62,4.54,4.54,0,0,1-1.1.27l-.53.14a4.08,4.08,0,0,1-.84.07c.08-.11-.77-.56-.65-.63"/><path class="cls-3" d="M205.9,669.41a3.58,3.58,0,0,1,.57.94,2.17,2.17,0,0,1,.27,1.21"/><path class="cls-3" d="M204.12,669.43a3.42,3.42,0,0,0,0,.64,2.86,2.86,0,0,0,.21,1.12,2.62,2.62,0,0,0,.46.83,3.49,3.49,0,0,0,.32.35c.1.09.24.13.31.26"/><path class="cls-3" d="M210.59,675.52c.09.25.2.49.28.74a.55.55,0,0,1-.11-.36"/><path class="cls-3" d="M211.51,674.91c.16.49.36,1,.48,1.49a1.37,1.37,0,0,1,.08.63"/><path class="cls-3" d="M216.89,678.54a7.12,7.12,0,0,1,.88,1.09c.1.14.19.43.37.46"/><path class="cls-3" d="M204.28,663.15c.14.23.78,1.57.86,1.83.36.86,0,.16.07.23"/><path class="cls-3" d="M205.15,662.25a5.39,5.39,0,0,1,1.65,3.52c0,.27.26.45.33.71"/><path class="cls-3" d="M204.9,679c.16,0,1.16-.11,1.32-.06a2.07,2.07,0,0,1,.64.3,8.26,8.26,0,0,1,1.16,1.27c.28.35.59.71.5,1.1a.88.88,0,0,1-.82.59c-.4,0-.79.07-1.2.09-.23,0-1,.07-1.25-.12"/><path class="cls-3" d="M209.63,654.94c1.15-.68.93.89.69,1.39-.56,1.13-1.71,3.5-3.4,2.73"/><path class="cls-4" d="M579.54,661.93a29,29,0,0,0-13.92-15.32c-9.26-4.57-28-9.38-39.65-6.48-17.53,4.35-17.52,17.33-30.63,28.13-19.43,16-39.09,32.41-53.74,51.71-9.6,12.64-15.65,26.2-22.25,39.67-12.1,24.72-23.16,31-9,59.66,6,12.05,11.95,28,17.9,40l1.28,2.61c4.33,6.61,8.24,13.49,12.87,19.91,3.82,5.3,8.61,11.46,11.44,17.93a116.47,116.47,0,0,1,8.86,16.74c.35,1,.76,2.11,1.18,3.16a44.72,44.72,0,0,1,2.24,9.34c-.88.21-3.36.68-3.67.76-3.78,1-7.25,3.64-11,5-3.24,1.13-6.57,1.4-9.82,2.43-6.39,2-12.75,5.26-19.53,4.77a1.71,1.71,0,0,0-1.17.19,2.55,2.55,0,0,0-.79,2.28,3.63,3.63,0,0,0,.57,1.73c.17.25.41.45.57.7s.14.42.26.61a8.76,8.76,0,0,0,3,2.79,15.89,15.89,0,0,0,5.27,2.17,19.13,19.13,0,0,0,2,.53c.48,0,.91-.05,1.38,0,1.5.2,3.06-.23,4.57-.25.72,0,1.42-.15,2.15-.17a15.1,15.1,0,0,1,2,0c.57.07,1.14.22,1.71.29,1.14.14,2.25.13,3.38.31,3.16.52,6.46-.28,9.67.07a72,72,0,0,0,11.93.53c5.89-.32,11.77-1.23,17.67-1.36,5.23-.12,11.52,1.48,16.23-1.49,2.62-1.64,1.34-6.17,1.89-9.21,1.84-10-3-16.92-9.24-23.44-9.13-9.48-13.16-24.37-14.92-37a399.48,399.48,0,0,0-12.07-56.44c-2.56-8.86-6.73-17.21-11.15-25.24,13.89-10,30.13-16.84,45.06-25.47a199.43,199.43,0,0,0,54.43-46.48C570.82,710.08,589.23,685.7,579.54,661.93Z"/><path class="cls-5" d="M428,543.48c-3.9,1.18-7.78,2.48-11.64,3.79a165.36,165.36,0,0,0-19.72,7.64,24.9,24.9,0,0,0-7,4.8,65,65,0,0,0-5.5,6.77c-2,2.68-3.88,5.66-4.47,9a33.75,33.75,0,0,0-.34,6.74,4.07,4.07,0,0,1,.48-.33,21.42,21.42,0,0,0,2.43-1.46,12.22,12.22,0,0,0,1.23-1.26,4.12,4.12,0,0,1,.31-.28c0-.39,0-.78.05-1.17a16.25,16.25,0,0,1,3.41-8,60.88,60.88,0,0,1,5.18-6.49,21.38,21.38,0,0,1,6.49-4.47,155.67,155.67,0,0,1,18.67-7.19c5.79-2,11.6-4,17.53-5.47A27.34,27.34,0,0,0,428,543.48Z"/><path class="cls-6" d="M452.9,550.39c-1.48-.22-2.95-.53-4.4-.87a157,157,0,0,1,2.59,22.79c.23,6-.09,12-.15,18a7,7,0,0,1,4.19.36c.05-6.33.41-12.67.13-19A162.93,162.93,0,0,0,452.9,550.39Z"/><path d="M97.35,227.85a68.34,68.34,0,0,0,2.26,33.88,81.51,81.51,0,0,0,15.44,27A88.38,88.38,0,0,0,127,300.4c1.49,1.2,3.62-.91,2.12-2.12-15.47-12.49-27.31-30.61-29.53-50.65a65,65,0,0,1,.69-19c.35-1.89-2.54-2.69-2.89-.8Z"/><path d="M122.78,285.81c1.69,4.63,2.92,9.41,4.25,14.16l1.45-1.9c-2.49.06-5,.24-7.47.34-2.31.1-4.62.1-6.94.2-1.92.09-1.93,3.09,0,3,2.32-.1,4.63-.1,6.94-.2,2.49-.1,5-.28,7.47-.34a1.52,1.52,0,0,0,1.44-1.9c-1.33-4.75-2.56-9.52-4.24-14.16a1.55,1.55,0,0,0-1.85-1.05,1.52,1.52,0,0,0-1,1.85Z"/><path d="M75.44,148.57v17.26H72.36V148.57Z"/><path d="M82.74,149.26V153H86l-.42,2.47H82.74v5.92c0,1.4.64,2,1.68,2a5.72,5.72,0,0,0,2-.57l.56,2.34a8.1,8.1,0,0,1-3.28.84c-3,0-4-2-4-4.14V155.5h-1.8V153h2l.37-3.42Z"/><path d="M96.48,152.91l.44,2.29a4.34,4.34,0,0,1,4-2.44,3.77,3.77,0,0,1,3.85,2.39,4.55,4.55,0,0,1,4.16-2.39c3,0,4.22,2,4.22,4.64v8.43h-3.06v-7.45c0-2-.47-3-2.14-3-2.22,0-2.81,1.68-2.81,3.58v6.9h-3.06v-7.45c0-2-.47-3-2.15-3-2.36,0-2.83,1.9-2.83,4v6.51H94V152.91Z"/><path d="M119.15,152.91v7.45c0,2,.79,3,2.59,3,2.34,0,3.3-2.42,3.3-4.86v-5.62h3.06v12.92h-2.44l-.45-2.81a4.71,4.71,0,0,1-4.46,3c-3.16,0-4.66-1.95-4.66-5.2v-7.87Z"/><path d="M131.6,162.13a6.72,6.72,0,0,0,4.19,1.43c1.48,0,2.35-.44,2.35-1.5,0-2.52-7.47-.84-7.23-5.57.1-2.32,1.8-3.7,5.23-3.7A10.49,10.49,0,0,1,140.8,154l-1.09,2.17A7.31,7.31,0,0,0,136,155.1c-1.21,0-2.22.4-2.17,1.41.14,2.05,7.32.47,7.32,5.45,0,2.66-2.39,4-5.45,4a8.86,8.86,0,0,1-5.3-1.68Z"/><path d="M147.63,149.26V153h3.26l-.42,2.47h-2.84v5.92c0,1.4.64,2,1.68,2a5.72,5.72,0,0,0,1.95-.57l.57,2.34a8.21,8.21,0,0,1-3.28.84c-3,0-4-2-4-4.14V155.5h-1.8V153h1.94l.37-3.42Z"/><path d="M162,147v8.21a4.39,4.39,0,0,1,4.31-2.41c2.44.07,5.06,1.72,5.06,6.48,0,3.9-2,6.71-5.45,6.71a4.28,4.28,0,0,1-4.07-2.37l-.42,2.22h-2.49V147.39Zm-.13,12.36c0,2.21.82,4,3.26,4,2,0,3.11-1.5,3.11-4,0-3-1.51-4-3.14-4S161.86,156.76,161.86,159.35Z"/><path d="M185.39,162.28a5.76,5.76,0,0,1-5.57,3.7c-4.34,0-6.26-2.71-6.26-6.76s2.71-6.53,6.43-6.43c3,.07,5.75,2.34,5.45,6.46l-.05.39h-8.73c0,2.2.94,3.7,3.18,3.7a2.87,2.87,0,0,0,2.79-2.05Zm-3.13-4.22c.05-2-1-2.93-2.54-2.88a2.87,2.87,0,0,0-2.91,2.88Z"/><path d="M196.34,147v8.21a4.42,4.42,0,0,1,4.32-2.41c2.44.07,5.05,1.72,5.05,6.48,0,3.9-1.94,6.71-5.44,6.71a4.27,4.27,0,0,1-4.07-2.37l-.42,2.22h-2.49V147.39Zm-.12,12.36c0,2.21.82,4,3.26,4,2,0,3.1-1.5,3.1-4,0-3-1.5-4-3.13-4S196.22,156.76,196.22,159.35Z"/><path d="M214.23,152.79c3.23,0,6,2.19,6,6.6,0,3.63-2.15,6.59-6.17,6.59-4.36,0-6.16-3-6.16-6.59C207.94,155,210.72,152.79,214.23,152.79Zm-3.09,6.6c0,2.05.69,4,3,4,2.1,0,3-1.95,3-4,0-2.86-1.4-4-3-4C212.52,155.38,211.14,156.49,211.14,159.39Z"/><path d="M226,147v14.62c0,1.39.62,1.76,1.53,1.76a2.42,2.42,0,0,0,1.28-.47l.57,2.19a5.35,5.35,0,0,1-2.79.89c-2.56,0-3.65-1.73-3.65-4.07V147.36Z"/><path d="M242.49,147v18.84h-2.57l-.34-2.22a4.52,4.52,0,0,1-4.12,2.37c-3.48.05-5.55-2.84-5.55-6.63,0-4.64,3-6.56,5.53-6.56a4.1,4.1,0,0,1,4,2.44v-7.84Zm-9.42,12.33c0,2.2.86,3.92,3.16,3.92s3.25-1.72,3.25-3.89c0-2.94-1.58-4-3.28-4S233.07,156.49,233.07,159.32Z"/><path d="M246.61,165.49a1.42,1.42,0,0,1-1.63-1.58,1.6,1.6,0,0,1,1.73-1.53c1.7,0,2.37,1.33,2.24,2.91-.19,2.34-2,3.28-4,3.3v-1.33c1.16,0,2-.62,2-1.36C246.91,165.71,246.61,165.49,246.61,165.49Z"/><path d="M259.73,147v8a4.82,4.82,0,0,1,4.24-2.19c3,0,4.49,1.94,4.49,4.61v8.43H265.4v-7.45c0-2-.74-3-2.41-3-2.35,0-3.26,1.9-3.26,4v6.51h-3.06V147.36Z"/><path d="M275.54,152.91v12.92h-3.08V155.45h-1.8v-2.54Zm-1.55-5a1.6,1.6,0,1,1,0,3.16,1.63,1.63,0,0,1-1.8-1.63A1.59,1.59,0,0,1,274,147.88Z"/><path d="M290.73,152.91v11c0,4.29-1.68,6.88-6.41,6.88a13.36,13.36,0,0,1-5.28-1.11l.72-2.31a11.13,11.13,0,0,0,4.22,1c2.78,0,3.69-1.38,3.69-3.5v-1.14a4.45,4.45,0,0,1-4,2.05c-3.47.07-5.47-2.57-5.47-6.36,0-4.64,3-6.56,5.52-6.56a4.28,4.28,0,0,1,4.1,2.34l.32-2.22Zm-9.32,6.41c0,2.2.86,3.92,3.16,3.92s3.2-1.72,3.2-3.89c0-2.94-1.55-4-3.23-4S281.41,156.49,281.41,159.32Z"/><path d="M297,147v8a4.81,4.81,0,0,1,4.24-2.19c3,0,4.49,1.94,4.49,4.61v8.43h-3.06v-7.45c0-2-.74-3-2.42-3-2.34,0-3.25,1.9-3.25,4v6.51h-3.06V147.36Z"/><path d="M72.38,187.64a15.43,15.43,0,0,1,4.89-.94c3.89,0,5.32,1.92,5.32,4.93v5.23a.65.65,0,0,0,.62.74,2.41,2.41,0,0,0,1-.15v2.05a5.09,5.09,0,0,1-2,.39,2.34,2.34,0,0,1-2.34-1.75,5.64,5.64,0,0,1-3.89,1.75c-2.52,0-4.39-1.28-4.42-4s2-4.09,5.25-4.09a19.85,19.85,0,0,1,2.79.25v-.77c0-1.4-.89-2.17-2.66-2.14a10.41,10.41,0,0,0-4,.79Zm7.16,6a13.13,13.13,0,0,0-2.52-.15c-1.48.07-2.42.77-2.44,2.07a1.81,1.81,0,0,0,2.09,1.9,5.1,5.1,0,0,0,2.87-1Z"/><path d="M88.76,186.82l.47,2.3a4.76,4.76,0,0,1,4.41-2.42c3,0,4.49,2,4.49,4.61v8.43H95.07V192.3c0-2-.74-3-2.41-3-2.35,0-3.26,1.89-3.26,4v6.51H86.34V186.82Z"/><path d="M113.32,180.91v18.83h-2.56l-.35-2.21a4.5,4.5,0,0,1-4.11,2.36c-3.48.05-5.55-2.83-5.55-6.63,0-4.64,3-6.56,5.52-6.56a4.09,4.09,0,0,1,4,2.44V181.3Zm-9.42,12.32c0,2.2.87,3.93,3.16,3.93s3.26-1.73,3.26-3.9c0-2.93-1.58-4-3.28-4S103.9,190.4,103.9,193.23Z"/><path d="M132.86,196.12c-.84,2.64-3,3.77-5.62,3.77-4.25,0-6.07-3.15-6.07-6.61,0-4.21,2.61-6.51,6.14-6.58,3.11-.07,5,1.53,5.5,3.8l-2.84.91a2.54,2.54,0,0,0-2.61-2.12c-1.78,0-3.13,1.31-3.13,3.94,0,2.1.79,4,3.08,4a2.6,2.6,0,0,0,2.71-2Z"/><path d="M141.15,186.7c3.23,0,6,2.19,6,6.61,0,3.62-2.15,6.58-6.17,6.58-4.36,0-6.16-3-6.16-6.58C134.86,188.89,137.64,186.7,141.15,186.7Zm-3.09,6.61c0,2.05.69,4,3,4,2.1,0,3-1.94,3-4,0-2.86-1.41-4-3-4C139.45,189.29,138.06,190.4,138.06,193.31Z"/><path d="M152.32,186.82l.47,2.3a4.76,4.76,0,0,1,4.41-2.42c3,0,4.49,2,4.49,4.61v8.43h-3.06V192.3c0-2-.74-3-2.41-3-2.35,0-3.26,1.89-3.26,4v6.51H149.9V186.82Z"/><path d="M165.66,187V185.2c0-2.64,1.38-4.29,4.24-4.29a6.92,6.92,0,0,1,2.13.32l-.47,2.19c-.1,0-.5-.07-.89-.07-1.36,0-1.92.56-1.92,2.34V187H176v12.79h-3.06V189.41h-4.16v10.33h-3.09V189.41h-2V187Zm8.81-5.16a1.65,1.65,0,0,1,1.8,1.56,1.62,1.62,0,0,1-1.8,1.6,1.64,1.64,0,0,1-1.83-1.63C172.64,182.48,173.28,181.79,174.47,181.79Z"/><path d="M191.21,180.91v18.83h-2.56l-.35-2.21a4.5,4.5,0,0,1-4.11,2.36c-3.48.05-5.55-2.83-5.55-6.63,0-4.64,3-6.56,5.52-6.56a4.09,4.09,0,0,1,4,2.44V181.3Zm-9.42,12.32c0,2.2.87,3.93,3.16,3.93s3.26-1.73,3.26-3.9c0-2.93-1.58-4-3.29-4S181.79,190.4,181.79,193.23Z"/><path d="M205.69,196.19a5.75,5.75,0,0,1-5.57,3.7c-4.34,0-6.26-2.71-6.26-6.75s2.71-6.54,6.43-6.44c3,.07,5.75,2.34,5.45,6.46l-.05.4H197c0,2.19.94,3.69,3.18,3.69a2.87,2.87,0,0,0,2.79-2ZM202.56,192c.05-2-1-2.94-2.54-2.89a2.88,2.88,0,0,0-2.91,2.89Z"/><path d="M210.85,186.82l.47,2.3a4.75,4.75,0,0,1,4.41-2.42c3,0,4.49,2,4.49,4.61v8.43h-3.06V192.3c0-2-.74-3-2.42-3-2.34,0-3.25,1.89-3.25,4v6.51h-3.06V186.82Z"/><path d="M227.3,183.17V187h3.25l-.42,2.46H227.3v5.92c0,1.41.64,1.95,1.67,1.95a5.43,5.43,0,0,0,1.95-.57l.57,2.34a7.94,7.94,0,0,1-3.28.84c-3,0-4-2-4-4.14v-6.34h-1.8V187h1.95l.37-3.43Z"/><path class="cls-7" d="M95.79,61.4A36.74,36.74,0,0,1,104.16,38a34.44,34.44,0,1,0,.11,46.9A36.78,36.78,0,0,1,95.79,61.4ZM87.2,75.66H70.92L71,73.39l4.46-.58c.58,0,.81-.23.81-1,.08-10.05,0-19.6,0-19.6l-5.62,1.08c-.19-.31-1.12-2.46-.46-2.73l10.35-4,1,1s-.12,20.87,0,24.37c0,.77.19,1,.73,1l5.08.54Z"/><circle cx="130" cy="61.53" r="34.44"/><path class="cls-8" d="M120.65,51a12.41,12.41,0,0,1,9.24-4.85c5.89,0,9.08,3,8.74,8.51-.47,7-8,13.59-12.63,17.55l8.31-.08c1.77-.15,3-2.54,3.82-4.73,0,0,1.73.5,2,1-.66,3.16-1.43,7.12-2.2,7.12,0,0-3.69-.27-11.47-.27a25.63,25.63,0,0,0-4.93.31l-1.34-2.46c7.77-7.9,12.39-13.63,13-18.71.46-3.66-2-4.82-4.35-4.66a9.73,9.73,0,0,0-6.74,3.92C121.92,53.39,120.19,51.55,120.65,51Z"/><path d="M184,52.13l8.43,15.27V52.13h3.75v21h-4.59L183.3,58.34V73.13h-3.75v-21Z"/><path d="M213.6,68.81a7,7,0,0,1-6.78,4.5c-5.28,0-7.62-3.3-7.62-8.22s3.3-8,7.83-7.83c3.69.09,7,2.85,6.63,7.86l-.06.48H203c0,2.67,1.14,4.5,3.87,4.5a3.5,3.5,0,0,0,3.39-2.49Zm-3.81-5.13c.06-2.43-1.26-3.57-3.09-3.51a3.5,3.5,0,0,0-3.54,3.51Z"/><path d="M219.69,57.41l3.15,6.18,3.3-6.18h4l-4.35,7.8,4.53,7.92h-4.26L222.78,67l-3.45,6.12h-4.14L220,65.27l-4.29-7.86Z"/><path d="M238.11,53v4.59h4l-.51,3h-3.45v7.2c0,1.71.78,2.37,2,2.37a6.83,6.83,0,0,0,2.37-.69l.69,2.85a9.82,9.82,0,0,1-4,1c-3.69,0-4.83-2.46-4.83-5V60.56H232.2v-3h2.37l.45-4.17Z"/><path d="M256.74,57.41V73.13H253V60.5H250.8V57.41Zm-1.89-6.12a2,2,0,0,1,2.22,1.89,2.22,2.22,0,0,1-4.41,0A1.93,1.93,0,0,1,254.85,51.29Z"/><path d="M261,68.63a8.15,8.15,0,0,0,5.1,1.74c1.8,0,2.85-.54,2.85-1.83,0-3.06-9.09-1-8.79-6.78.12-2.82,2.19-4.5,6.36-4.5a12.78,12.78,0,0,1,5.67,1.47l-1.32,2.64a8.9,8.9,0,0,0-4.5-1.29c-1.47,0-2.7.48-2.64,1.71.18,2.49,8.91.57,8.91,6.63,0,3.24-2.91,4.92-6.63,4.89a10.76,10.76,0,0,1-6.45-2Z"/><path d="M286.77,53v4.59h4l-.51,3h-3.45v7.2c0,1.71.78,2.37,2,2.37a6.83,6.83,0,0,0,2.37-.69l.69,2.85a9.82,9.82,0,0,1-4,1c-3.69,0-4.83-2.46-4.83-5V60.56h-2.19v-3h2.37l.45-4.17Z"/><path d="M294.09,58.4A18.74,18.74,0,0,1,300,57.26c4.74,0,6.48,2.34,6.48,6v6.36a.79.79,0,0,0,.75.9,3,3,0,0,0,1.23-.18v2.49a6.08,6.08,0,0,1-2.49.48,2.84,2.84,0,0,1-2.85-2.13,6.87,6.87,0,0,1-4.74,2.13c-3.06,0-5.34-1.56-5.37-4.83s2.46-5,6.39-5a24.49,24.49,0,0,1,3.39.3v-.93c0-1.71-1.08-2.64-3.24-2.61a12.68,12.68,0,0,0-4.86,1Zm8.7,7.35a16.62,16.62,0,0,0-3.06-.18c-1.8.09-2.94.93-3,2.52a2.21,2.21,0,0,0,2.55,2.31,6.17,6.17,0,0,0,3.48-1.26Z"/><path d="M314.79,50.21V64h1.74l3.66-6.45h4.2l-4.71,7.77,5.13,7.86h-4.29l-4-6.09h-1.77v6.09h-3.72V50.66Z"/><path d="M340.59,68.81a7,7,0,0,1-6.78,4.5c-5.28,0-7.62-3.3-7.62-8.22s3.3-8,7.83-7.83c3.69.09,7,2.85,6.63,7.86l-.06.48H330c0,2.67,1.14,4.5,3.87,4.5a3.5,3.5,0,0,0,3.39-2.49Zm-3.81-5.13c.06-2.43-1.26-3.57-3.09-3.51a3.5,3.5,0,0,0-3.54,3.51Z"/><path d="M349.68,63.56v3h-7.44v-3Z"/><path d="M359,57.26c3.93,0,7.35,2.67,7.35,8,0,4.41-2.61,8-7.5,8-5.31,0-7.5-3.6-7.5-8C351.33,59.93,354.72,57.26,359,57.26Zm-3.75,8c0,2.49.84,4.86,3.66,4.86,2.55,0,3.69-2.37,3.69-4.86,0-3.48-1.71-4.89-3.6-4.89C356.91,60.41,355.23,61.76,355.23,65.3Z"/><path d="M370.56,57.56V55.43c0-3.21,1.68-5.22,5.19-5.22a8.28,8.28,0,0,1,3,.54l-.48,2.61a7.71,7.71,0,0,0-1.59-.18c-1.65,0-2.34.69-2.34,2.85v1.53h3.42l-.48,3h-2.94V73.13h-3.75V60.56H368.1v-3Z"/><path d="M381.12,57.56V55.43c0-3.21,1.68-5.22,5.19-5.22a8.28,8.28,0,0,1,3,.54l-.48,2.61a7.71,7.71,0,0,0-1.59-.18c-1.65,0-2.34.69-2.34,2.85v1.53h3.42l-.48,3h-2.94V73.13h-3.75V60.56h-2.46v-3Z"/></svg>