<svg id="Layer_1" data-name="Layer 1" xmlns="http://www.w3.org/2000/svg" viewBox="0 0 780 1051.14"><defs><style>.cls-1,.cls-2,.cls-5{fill:#d4a47c;}.cls-1,.cls-2,.cls-3,.cls-4,.cls-5,.cls-6{stroke:#fff;stroke-miterlimit:10;}.cls-1{stroke-width:0.33px;}.cls-2{stroke-width:0.27px;}.cls-3{fill:#fff171;stroke-width:0.3px;}.cls-4{fill:#005058;stroke-width:0.47px;}.cls-5{stroke-width:0.36px;}.cls-6{fill:#c6946f;stroke-width:0.27px;}.cls-7,.cls-8{fill:#fff;}.cls-7{opacity:0.7;}.cls-8{font-size:38.5px;font-family:ABCSerifBold, ABCSerif;}</style></defs><path class="cls-1" d="M492.63,568.41a214.63,214.63,0,0,0-22.41-29.55l-.74-.82c-6.8-5.41-13.55-10.83-20.91-15.24-9.08-5.44-18.29-10.76-28-14.85-5.85-2.45-12.34-6.47-18.72-6.7a6.59,6.59,0,0,1-5-2.4c-.38,0-.76,0-1.14,0a9.06,9.06,0,0,1-8.39-3.94c-4,4.79-5.44,10-4.74,18.28,1.43,17,4.49,32.22,5.92,49.26.27,3.27,3.38,2.29,5.11,4.78,1.57,2.27-.37,9.67,2,10.59,8.65,3.33,17.61,5.62,26.48,8.18,15.22,4.41,30.26,9.68,45.8,12.64,13.51,2.58,58.74,13,47,13.32C553.26,611.56,494.71,571.7,492.63,568.41Z"/><path class="cls-2" d="M394.13,517c.54-1.21-12.93-7.19-12.41-8.41s-3.4-5-2-5.4,1.73,1.38,2.28,2.34c.45.78,1.21,1.26,1.72,2a8,8,0,0,0,1.08,1.64,6.16,6.16,0,0,0,4.25,1.58c1.75-.21,2.86-1.85,4.51-2.27a5.67,5.67,0,0,1,2.16.07,2.6,2.6,0,0,1,0-1.66c1.13-3.73,4.37-6,6.57-9a19.38,19.38,0,0,0-2.69-2.12,28.49,28.49,0,0,1-4.14-3.45c-1.16-1.14-2.48-1.8-2.79-3.38-.23-1.22.28-2.43.05-3.64a22.52,22.52,0,0,1-.64-2.41,32.69,32.69,0,0,1,.14-4c.12-2.92,0-5.91-.05-8.85a24.52,24.52,0,0,0-1.68-9.24,19.5,19.5,0,0,0-5.83-7.53,42.34,42.34,0,0,0-6.05-4.32,73.44,73.44,0,0,0-9.88-4.41c-3.82-1.39-8.6-1.57-12.61-1.28-3,.21-5.85,0-8.84.51a25,25,0,0,0-8.33,3.55c-2.23,1.35-4.57,1.82-7,2.53-1.22.36-2.21,1.22-3.46,1.64a29,29,0,0,0-4.39,1.68c-2.68,1.44-3.54,3.87-4.6,6.49-.72,1.75-.79,3.58-1.53,5.33a14.23,14.23,0,0,0-.76,2.64c-.21,1-.68,1.86-.89,2.87-.1.49,0,.93-.07,1.44s-.45.75-.45,1.29a20.61,20.61,0,0,0,.82,3.05,27.09,27.09,0,0,1,.68,3.64,2.32,2.32,0,0,0,0,.39c-.07,0-.18.11-.37.4a11.65,11.65,0,0,1-1.9,2.07c-1.7,1.73-2.14,1.57-3.88,3.72a27.24,27.24,0,0,0-2.9,4.29,3.41,3.41,0,0,0,2,4.9,1.89,1.89,0,0,1,1,.75,4.75,4.75,0,0,1,1.24,3.25,18.81,18.81,0,0,0-.58,3,18.44,18.44,0,0,0,1,5.48c.49,1.45,1.28,2,.77,3.43-.37,1-.8,2.05-1.21,3.06-.78,1.9-.94,3.87.79,5.28,2.31,1.91,6.92,2.19,9.73,2.82,9.66,2.14,19.11,4.37,28.79,6.21a27.94,27.94,0,0,1,16.77,9.45c10.2,12.23,13.18,30.56,20.67,44.48.58-.67-.54-40.23,0-40.88Z"/><path d="M327.14,473.2a10.71,10.71,0,0,1,.9.59c.17.12.52.37.54.61s0,.1-.08.11-.22-.08-.29-.1a1.65,1.65,0,0,0-.32-.07c-.44-.06-.88-.07-1.31-.12-.26,0-.51,0-.76-.08-1.54-.31-3-1.14-4.61-1.27a7.09,7.09,0,0,0-4.19,1.36c-.15-.49-.68-2.08-.23-2.43.64-.5,2.77-.28,3.57-.51a6.54,6.54,0,0,1,4.5.46C325.66,472.16,326.36,472.75,327.14,473.2Z"/><path d="M402.86,492.3c-1.78-1.74-4-3.3-5.56-5.23-4.93-6.17-2.38-15.26-4.2-22.95-1.5-6.32-6.07-11.6-11.53-15.12s-11.78-5.45-18.11-6.91c-5.87-1.35-11.92-2.35-17.89-1.58-4,.51-15.47,3.77-15.53,9.14s8.77,9.84,9.58,15.68c.42,3-.55,6.08.39,8.92a25.16,25.16,0,0,0,2.1,4c1.31,2.39,2,5.1,3.44,7.39s4.11,4.2,6.76,3.58a11.26,11.26,0,0,1,1.74-5.51c1.16-1.56,2.12-.74,3.88.11,2.41,1.16,3.71,2.86,2.75,5.36s-2.56,5-2.21,7.62c.37,2.87,2.88,4.9,5.2,6.63,4,3,12.61,5.24,16.6,8.21,2.42-1.75,2-.82,4.5-2.42,1.91-1.2-.73-4.6,1.36-3.76a18.37,18.37,0,0,0,12.47.45c3.8-1.23,7.52-4.5,7.13-8.47A8.43,8.43,0,0,0,402.86,492.3Z"/><path d="M329.45,450.32l.88-.29c0-.07-.05-.14-.06-.21A3,3,0,0,0,329.45,450.32Z"/><path class="cls-2" d="M349.25,489.68c-2.6-4.59,4.64-8.93,8.39-7.57a6.55,6.55,0,0,1,3.8,8c-1.11,3.2-4.58,5.07-5.89,8.19-.7,1.65-.8,3.65-2.11,4.86s-4.27-.08-3.34-1.61"/><path d="M390.15,491.28a7.19,7.19,0,0,0,2.69-2.08,12,12,0,0,1,3.3-2.21,6.07,6.07,0,0,1,4.45-.6,6.7,6.7,0,0,1,3.3,2.28,6.46,6.46,0,0,1,1.57,3.26c0,1.29-1.17,3.06-1.62,4.26a6.66,6.66,0,0,1-3.27,3.18,6,6,0,0,1-4.59.86,19.69,19.69,0,0,1-8.57-6.21c-1.15-1.32-1.11-3.72-.81-5.38s1.26-4.32,2.54-5.49c2.46-2.25,6.32-.74,8.64.88,1.39,1,2.7,2.1,2.79,3.93a9.74,9.74,0,0,1-1,4.28,18.54,18.54,0,0,1-2.17,4.53,6.92,6.92,0,0,1-1.74,2,21.16,21.16,0,0,0-2.49,1.6,8.09,8.09,0,0,1-2.95,1.5,3.2,3.2,0,0,1-2.52-.22,10.54,10.54,0,0,1-2.63-1.5c-.51-.39-.85-1-1.33-1.39-.82-.74-.8-.78-.41-2"/><path d="M389.94,490.3c-.07-1.44.83-2.37,1.81-3.25a6.43,6.43,0,0,0,1-1,1.84,1.84,0,0,1,1.73-.84c1.84,0,3.59,1.27,5,2.22a6,6,0,0,1,1.69,1.38c.41.55.6,1.23,1,1.76.23.31.57.47.74.85s.16.83.36,1.23a2.4,2.4,0,0,1,.43,1.07,8.73,8.73,0,0,1,0,1.25,4.91,4.91,0,0,1-.4,2.21,14.18,14.18,0,0,1-1.33,1.94,5.34,5.34,0,0,1-.79.71c-.33.29-.54.68-.86,1a6.27,6.27,0,0,1-3.33,1.07c-2.21.32-4.57-.77-6.55-1.66a11.56,11.56,0,0,1-4-3,26.37,26.37,0,0,1-1.57-2.33,9.76,9.76,0,0,1-1.3-2.26,8.23,8.23,0,0,1-.43-2.84,18.59,18.59,0,0,1,.12-3.08,6.25,6.25,0,0,1,1.35-2.68c.37-.4.84-.64,1.14-1.13a5.78,5.78,0,0,1,1-1.36,6.63,6.63,0,0,1,5.31-1.95,21,21,0,0,1,4.24.82c.86.31,1.71.68,2.58,1a5.9,5.9,0,0,1,2.37,1.73,4.16,4.16,0,0,1,1,1.44,5.19,5.19,0,0,1,.56,1.57c0,1.62-1,2.84-1.24,4.34a5.63,5.63,0,0,1-.1.9c-.15.45-.37.89-.54,1.34a10.25,10.25,0,0,1-1,2.13,6.72,6.72,0,0,1-1.82,1.9,3.58,3.58,0,0,1-2.92.57,10,10,0,0,1-3.59-.87,12.79,12.79,0,0,1-3.8-3.1,10,10,0,0,1-2.49-4.32,10.69,10.69,0,0,1-.47-2.56,11.49,11.49,0,0,1,.52-2.29c.44-1.62,2-2.69,3.15-3.72.23-.2.72-.79,1-.85s.65.23.87.31"/><path d="M382.19,502.31c-.07-1.44.83-2.36,1.81-3.25a6,6,0,0,0,1-1,1.88,1.88,0,0,1,1.74-.84c1.83,0,3.59,1.27,5,2.22a6.52,6.52,0,0,1,1.7,1.38c.41.55.6,1.23,1,1.76.24.31.57.48.74.86s.16.83.36,1.22a2.46,2.46,0,0,1,.44,1.07,8.66,8.66,0,0,1,0,1.25,4.91,4.91,0,0,1-.4,2.21,13.53,13.53,0,0,1-1.32,1.94,6,6,0,0,1-.79.72c-.34.28-.54.67-.87,1a6.24,6.24,0,0,1-3.33,1.07c-2.2.32-4.56-.77-6.54-1.65a11.61,11.61,0,0,1-4-3c-.59-.74-1.06-1.53-1.58-2.33a9.87,9.87,0,0,1-1.29-2.25,8.56,8.56,0,0,1-.44-2.84,17.68,17.68,0,0,1,.13-3.09,6.14,6.14,0,0,1,1.35-2.68c.36-.4.83-.64,1.13-1.13a5.82,5.82,0,0,1,1-1.35,6.58,6.58,0,0,1,5.31-1.95,20.9,20.9,0,0,1,4.24.81c.87.31,1.72.69,2.58,1a5.88,5.88,0,0,1,2.38,1.72,4.14,4.14,0,0,1,1,1.44,4.93,4.93,0,0,1,.56,1.57c0,1.62-1,2.84-1.24,4.34a4.59,4.59,0,0,1-.1.9c-.14.45-.36.9-.54,1.34a10.51,10.51,0,0,1-1,2.13,6.93,6.93,0,0,1-1.83,1.91,3.61,3.61,0,0,1-2.92.56,9.75,9.75,0,0,1-3.58-.87,13,13,0,0,1-3.81-3.09,9.89,9.89,0,0,1-2.48-4.32,6.07,6.07,0,0,1,.05-4.86c.44-1.62,1.95-2.69,3.14-3.72.24-.2.72-.79,1-.85s.65.23.87.31"/><path class="cls-3" d="M413.9,505l-.91-.32a18.31,18.31,0,0,1-4.06-1.78,35.15,35.15,0,0,0-8.64,3.14c-3.44,1.81-5.64,4.56-7.62,7.85a69,69,0,0,0-6.46,14.89c-5.08,16.14-5.6,33.89-.28,50,.84,2.56,4.9,1.46,4.05-1.11A77.21,77.21,0,0,1,388.84,535a74.57,74.57,0,0,1,5.57-15.49c1.5-3,3.22-6.35,5.84-8.52l.07-.06.18-.11c.55-.36,1.13-.69,1.71-1a27.7,27.7,0,0,1,3.87-1.7,35.59,35.59,0,0,1,8.53-1.84c.62-.06,1.24-.09,1.86-.11A25.58,25.58,0,0,1,413.9,505Z"/><path class="cls-3" d="M458.66,535.88a84.83,84.83,0,0,0-4.08-10.16c-2.49-1.44-4.93-2.94-7.35-4.47a62.06,62.06,0,0,1,6.62,13.55c5.08,14.23,7.06,29.36,10.54,44,.62,2.63,4.67,1.52,4.05-1.11C465.13,563.78,463.16,549.49,458.66,535.88Z"/><path class="cls-4" d="M558.61,626.62c-.44-.49-7.91-9.57-8.4-10-11.14-10.82-11.85-7.75-23.89-17.54-3.28-2.67-12.36-1-16.46-1.88a50.32,50.32,0,0,1-18.25-8,89.6,89.6,0,0,1-24.53-24.9c-2.38-3.75-4.36-9.2-8.47-10.78-1.92-.74-4-.41-6-.14a102,102,0,0,1-65.82-13.82c-.15,6.77.88,13.42.77,20.11-.14,8.07-1.82,14.86.1,22.9,2.09,8.76,7.16,17.36,14.12,21.89,3.51,2.28,7.65,3.21,11.33,5.12,7.54,3.92,13.44,11.12,18.63,18.34,3.94,5.49,13.26,7,18.72,10.58A48.57,48.57,0,0,1,467,657.17c2.88,5.78,4.59,12.12,7.93,17.65,2.47,4.09,6.25,8,7.37,12.75,1.18,5-1,9.75,3.11,14,1.92,2,18.22,7,20.83,6.79.86-4.28-15.71-11.33-17.18-15.34-1.93-5.23,8.95-10.52,8.21-16.18-1.95-15-7.62-30.43,3.17-39.17,11.23-9.1,26.38-12.05,39.85-10,4.7.74,20.7,26.46,26.55,31.89.31.29.56,0,.72-.4C571.78,649.27,565.54,634.27,558.61,626.62Z"/><path class="cls-5" d="M424.65,523.25c-14.41-4-12.95,2.43-27.17,4-5.47.61-11,.56-16.47,1.07-8.79.82-17.33,3.09-25.95,4.91-8.08,1.7-16.16,4.8-24.43,4.32-3.26-.19-6.43,0-9.68,0-4.07,0-8.06-1.11-12.08-1.61-2.42-.31-4.85-.24-7.27-.5L254.88,529c-1.18-.24-2.36-.29-3.54-.43a24.12,24.12,0,0,1-3.7-1.09,36.64,36.64,0,0,0-4.06-.71,37.55,37.55,0,0,1-5.78-1.52c-2.32-.77-4.38-1.35-6.2-3.09-1.36-1.28-2.48-2.8-3.76-4.16a23.51,23.51,0,0,0-5.36-4.21,9.78,9.78,0,0,0-3.09-1.48c-.89-.08-1.56.76-2.5.43-.47-.16-.95-.28-1.42-.44-.31-.1-.57-.22-.88-.31s-.53-.17-.8-.24a14.28,14.28,0,0,1-1.66-.71l-.84-.37a4.79,4.79,0,0,1-.68-.42A2.53,2.53,0,0,0,210,510c-.26-.08-.49-.21-.75-.28a3.58,3.58,0,0,0-1.59-.12,1.66,1.66,0,0,0-.49.11,7.28,7.28,0,0,0-.6.42,8.07,8.07,0,0,1-1.28.8,6.59,6.59,0,0,1-1.39.28l-1.27.24c-.32.07-.61,0-.92.07a3.29,3.29,0,0,1-.7.11c-.21,0-.43,0-.65,0a1.36,1.36,0,0,0-.53,0,7.66,7.66,0,0,0-1.18.21c-.55.18-.51.71-.51,1.2a1.79,1.79,0,0,0,.19.72,7.09,7.09,0,0,0,.52,1.16.49.49,0,0,0,.23.22,1.75,1.75,0,0,1,.24,0c.07,0,.1.14.16.2a.61.61,0,0,0,.23.15,8.85,8.85,0,0,0,1.83.5c.71.13,1.41.24,2.12.32a19.64,19.64,0,0,0,2.87,0c-4,.53-7.85-1.24-11.83-1.71a21.21,21.21,0,0,1-6.12-1.18,7.15,7.15,0,0,0-1.16-.38,4.87,4.87,0,0,0-.54,0c-.16,0-.33,0-.49-.07-.39-.05-.76-.05-1.15-.12s-.88-.12-1.32-.16c-.73-.07-1.45-.18-2.17-.31a6,6,0,0,0-2,.28,2.66,2.66,0,0,0-1.74,1.44,2.78,2.78,0,0,0-.24,2,1.55,1.55,0,0,0,.64.94,1.91,1.91,0,0,0,1.07.34,8.27,8.27,0,0,1,2.27.35c.44.16.87.4,1.31.53s.79.17,1.18.24a7.06,7.06,0,0,0,1.37.19h1.29a5.17,5.17,0,0,1,1.36.16,7.88,7.88,0,0,0,1.27.16,3.89,3.89,0,0,1,1.52.59,10,10,0,0,0,1.34.61,17.53,17.53,0,0,1,3.53,1.05,2.81,2.81,0,0,0,.78.28c.24,0,.43.19.66.26a9.16,9.16,0,0,0,1.61.52c.56.08,1.1.06,1.66.12a7.4,7.4,0,0,1,.82.15,1.84,1.84,0,0,0,.64.11s.5.32.7.31l.14-.14a8.09,8.09,0,0,1-1.68-.42l-4.15-1-11.72-2.73-4.87-1.14a13.19,13.19,0,0,0-1.93-.46,1.94,1.94,0,0,1-.27-.21,5,5,0,0,0-.56-.3,1.83,1.83,0,0,0-1.32-.08,3.1,3.1,0,0,0-.51.11c-.23.09-.43.13-.67.2a2.81,2.81,0,0,0-.63.3,1,1,0,0,0-.47.82,8.46,8.46,0,0,0,0,1.51,2.48,2.48,0,0,0,.41,1.38,3.11,3.11,0,0,0,1.49.75,15.45,15.45,0,0,0,2,.61,14.77,14.77,0,0,1,1.49.38,13.82,13.82,0,0,0,1.77.43c.66.11,1.27.55,1.92.72.34.09.69.13,1,.21s.54.2.83.26a5.67,5.67,0,0,1,1.7.77,5.15,5.15,0,0,0,.89.42,13.26,13.26,0,0,1,1.23.51c3,1.25,6.28,1.79,9.38,2.79a26.09,26.09,0,0,1,4.78,1.92,19.79,19.79,0,0,1-3.77-1.23l-2.61-.89-5.46-1.86-9.54-3.24a10,10,0,0,1-1.7-.57.7.7,0,0,0-.55-.14c-.13,0-.19,0-.31,0a1.74,1.74,0,0,0-1.07.43c-.81.62-.54,1.74-.21,2.56a2.6,2.6,0,0,0,1,1.23c.5.33.9.77,1.39,1.11a4.59,4.59,0,0,0,1.42.61,8.93,8.93,0,0,1,1.56.52,21.09,21.09,0,0,0,3.19.72l.88.24c.24.07.43.22.66.29.64.22,1.29.37,1.94.56a5.9,5.9,0,0,1,1,.37c.28.15.6.24.88.39A12.44,12.44,0,0,0,195,533c1.2.26,2.5,1.07,3.71,1.17a6.39,6.39,0,0,1,2.09.67c.66.3,1.3.17,1.9.58.29.2.41.13.69.34s.48-.25.58-.12a9.17,9.17,0,0,0-1.94-.48c-1.11-.31-2.2-.65-3.29-1-2.63-.84-5.24-1.73-7.87-2.58l-3.46-1.14a6.57,6.57,0,0,0-1.36-.45c-.2,0-.43-.25-.58-.07s-.13.23-.22.34-.21.18-.25.32a.63.63,0,0,0,0,.33c.09.42.05.86.12,1.28a2.26,2.26,0,0,0,.54,1.08c2,2.53,7.1,3.34,10,4.31q3.78,1.28,7.61,2.41c1.85.55,4.29.78,6,1.62.25.11.48.16.74.25a2.48,2.48,0,0,0,.48.17,2.73,2.73,0,0,1,.8.09,5.56,5.56,0,0,0,.9.41,11.73,11.73,0,0,0,1.85-.1c7.49-.4,12.08,1.1,19.59,1.24-.18.51,3.44-.91,4-.86,4,.4,7.87.94,11.82,1.39a8.19,8.19,0,0,1,1.69.49L285.56,559a110,110,0,0,0,12.11,4,51.55,51.55,0,0,0,10.75,2,22.94,22.94,0,0,1,3.61.65c1.71.34,3.59.16,5.26.38a26.59,26.59,0,0,0,3.34.17c1.34,0,2.28.69,3.63.71,3.49,0,6.78,2.48,10.27,3.18a65,65,0,0,0,13.15.8q20.77-.21,41.55-.9c13.31-.45,28.46.69,41.33-2.7,5.48-1.44,24-9.74,28.05-13.69"/><path class="cls-5" d="M208.33,513.72a3.57,3.57,0,0,0,.53-1.22c0-.3,0-.61.06-.91s.08-.49.11-.75.32-.74,0-1.12"/><path class="cls-5" d="M206.77,513a5.09,5.09,0,0,1-.38-1.5c0-.16-.07-.33-.1-.49s.05-.48,0-.66"/><path class="cls-5" d="M178.55,513.28c.27,0,1.65.08,1.89.14a2.67,2.67,0,0,1,.85.5,2.5,2.5,0,0,1,.79,1,2.4,2.4,0,0,1,.15,1.05c-.2.79-1.19.85-1.86.95a4.83,4.83,0,0,1-1.14,0c-.17,0-.31-.07-.47-.09a3.84,3.84,0,0,1-1.06-.21"/><path class="cls-5" d="M175,516.92c.33-.06,1,0,1.34,0a1.7,1.7,0,0,1,1.14.5c.24.23.43.51.67.73.06.06.14.08.2.14a1.66,1.66,0,0,1,.2.4,1.82,1.82,0,0,1,.21,1.25c-.06.32-.18.78-.52.91a5,5,0,0,1-1.09.2c-.27.05-2.24.45-2.14.15,0,0-.5-.55-.58-.54"/><path class="cls-5" d="M178.17,522.93c.26,0,.9.15,1.17.18a2.6,2.6,0,0,1,1.09.36,2.89,2.89,0,0,1,.58.35,2.48,2.48,0,0,1,.38.52c.09.18,0,.33,0,.53a1.63,1.63,0,0,1-.05.49,1.84,1.84,0,0,1-.08.42,1.22,1.22,0,0,1-.27.33,1.1,1.1,0,0,1-.82.26,4.68,4.68,0,0,1-1.1-.28l-.53-.13a4.59,4.59,0,0,1-.78-.34c.13-.06-.4-.86-.26-.86"/><path class="cls-5" d="M192.54,522.36a4,4,0,0,1,.05,1.1,2.12,2.12,0,0,1-.34,1.19"/><path class="cls-5" d="M191,521.53a3,3,0,0,0-.3.56,2.81,2.81,0,0,0-.36,1.09,2.7,2.7,0,0,0,0,.94,2.47,2.47,0,0,0,.11.47c0,.13.15.23.15.37"/><path class="cls-5" d="M193.75,530c0,.26-.05.53-.1.78a.55.55,0,0,1,.07-.37"/><path class="cls-5" d="M194.85,529.87c-.09.51-.15,1-.28,1.54a1.53,1.53,0,0,1-.24.59"/><path class="cls-5" d="M197.86,535.62a6.45,6.45,0,0,1,.25,1.38c0,.17,0,.46.11.58"/><path class="cls-5" d="M194.09,516.08a19.57,19.57,0,0,1-.12,2c-.09.92-.05.15-.05.23"/><path class="cls-5" d="M195.28,515.7a5.41,5.41,0,0,1-.22,3.89c-.12.24,0,.52-.05.78"/><path class="cls-5" d="M187.12,530.28c.12.09,1.07.46,1.18.57a2,2,0,0,1,.42.57,7.3,7.3,0,0,1,.42,1.67c.08.44.19.9-.08,1.21a.89.89,0,0,1-1,.12c-.38-.15-.73-.31-1.1-.49-.21-.1-1-.43-1-.7"/><path class="cls-5" d="M202.71,511.41c1.32-.06.39,1.23-.07,1.55-1,.73-3.16,2.27-4.28.78"/><path class="cls-6" d="M568.18,654.5a44.59,44.59,0,0,0-1.8-6.86c-2.4-6.85-6.54-13-12.41-16.67a28.09,28.09,0,0,0-11-3.9,32.55,32.55,0,0,0-11.66-3c-1.61-.08-5.6.23-7.2.38-10,.95-19.22,4.46-25.63,12.48-4.09,5.13-11.33,16.15-17.53,27.78-12,12.44-23.47,25.52-32.51,40.37-8,13.12-12.91,27.32-18.29,41.42a224.61,224.61,0,0,1-10.22,23.61,61.93,61.93,0,0,1-5.64,8.56,24.17,24.17,0,0,0-.74,10.11,9.37,9.37,0,0,0,.54,3.09,39.92,39.92,0,0,0,2.21,6.77c.72,2.38,1.46,4.75,2.24,7.1,5.45,16.48,13.67,31.84,20.87,47.59q9.32,20.34,18.62,40.69c4.12,9,8.4,18.17,10.2,27.88a11.52,11.52,0,0,1-1.61,4.73c.33,1.19.34,2-.26,2.25-.21.08-1.48.33-2.53.54-.2.13-.38.27-.6.39a4.88,4.88,0,0,1-2.7.55c-3.07,1.22-6,3.21-9.12,4.3s-6.57,1.4-9.82,2.43c-6.39,2-12.75,5.26-19.53,4.77a1.71,1.71,0,0,0-1.17.19,2.58,2.58,0,0,0-.79,2.28,3.53,3.53,0,0,0,.58,1.73c.16.25.41.45.56.7s.15.42.26.6a8.74,8.74,0,0,0,3.06,2.8,15.53,15.53,0,0,0,5.26,2.16,17.15,17.15,0,0,0,2,.54c.47.05.9,0,1.38,0a34.85,34.85,0,0,0,4.56-.25c.73,0,1.42-.15,2.15-.17a13.63,13.63,0,0,1,2-.05c.58.07,1.14.21,1.72.28,1.13.14,2.25.14,3.38.32,3.15.52,6.45-.28,9.66.07a72,72,0,0,0,11.93.53c5.89-.32,11.78-1.23,17.67-1.36,5.23-.12,11.52,1.47,16.23-1.49,2.62-1.64,1.34-6.17,1.9-9.21,1.93-10.64-5.05-17.48-9.37-26.16-13.51-27.17-9.78-62.29-14.83-91.92-2.25-13.2-7.57-25.63-12.33-37.48,13.62-13.59,28.66-25.86,42.35-39.37q16-15.81,31.16-32.45c8.67-9.51,19.09-19,23.83-31.19.21-.55.4-1.1.6-1.65A36.53,36.53,0,0,0,568.18,654.5Z"/><path d="M97.35,227.85a68.34,68.34,0,0,0,2.26,33.88,81.51,81.51,0,0,0,15.44,27A88.38,88.38,0,0,0,127,300.4c1.49,1.2,3.62-.91,2.12-2.12-15.47-12.49-27.31-30.61-29.53-50.65a65,65,0,0,1,.69-19c.35-1.89-2.54-2.69-2.89-.8Z"/><path d="M122.78,285.81c1.69,4.63,2.92,9.41,4.25,14.16l1.45-1.9c-2.49.06-5,.24-7.47.34-2.31.1-4.62.1-6.94.2-1.92.09-1.93,3.09,0,3,2.32-.1,4.63-.1,6.94-.2,2.49-.1,5-.28,7.47-.34a1.52,1.52,0,0,0,1.44-1.9c-1.33-4.75-2.56-9.52-4.24-14.16a1.55,1.55,0,0,0-1.85-1.05,1.52,1.52,0,0,0-1,1.85Z"/><path d="M75.44,148.57v17.26H72.36V148.57Z"/><path d="M82.74,149.26V153H86l-.42,2.47H82.74v5.92c0,1.4.64,2,1.68,2a5.72,5.72,0,0,0,2-.57l.56,2.34a8.1,8.1,0,0,1-3.28.84c-3,0-4-2-4-4.14V155.5h-1.8V153h2l.37-3.42Z"/><path d="M96.48,152.91l.44,2.29a4.34,4.34,0,0,1,4-2.44,3.77,3.77,0,0,1,3.85,2.39,4.55,4.55,0,0,1,4.16-2.39c3,0,4.22,2,4.22,4.64v8.43h-3.06v-7.45c0-2-.47-3-2.14-3-2.22,0-2.81,1.68-2.81,3.58v6.9h-3.06v-7.45c0-2-.47-3-2.15-3-2.36,0-2.83,1.9-2.83,4v6.51H94V152.91Z"/><path d="M119.15,152.91v7.45c0,2,.79,3,2.59,3,2.34,0,3.3-2.42,3.3-4.86v-5.62h3.06v12.92h-2.44l-.45-2.81a4.71,4.71,0,0,1-4.46,3c-3.16,0-4.66-1.95-4.66-5.2v-7.87Z"/><path d="M131.6,162.13a6.72,6.72,0,0,0,4.19,1.43c1.48,0,2.35-.44,2.35-1.5,0-2.52-7.47-.84-7.23-5.57.1-2.32,1.8-3.7,5.23-3.7A10.49,10.49,0,0,1,140.8,154l-1.09,2.17A7.31,7.31,0,0,0,136,155.1c-1.21,0-2.22.4-2.17,1.41.14,2.05,7.32.47,7.32,5.45,0,2.66-2.39,4-5.45,4a8.86,8.86,0,0,1-5.3-1.68Z"/><path d="M147.63,149.26V153h3.26l-.42,2.47h-2.84v5.92c0,1.4.64,2,1.68,2a5.72,5.72,0,0,0,1.95-.57l.57,2.34a8.21,8.21,0,0,1-3.28.84c-3,0-4-2-4-4.14V155.5h-1.8V153h1.94l.37-3.42Z"/><path d="M162,147v8.21a4.39,4.39,0,0,1,4.31-2.41c2.44.07,5.06,1.72,5.06,6.48,0,3.9-2,6.71-5.45,6.71a4.28,4.28,0,0,1-4.07-2.37l-.42,2.22h-2.49V147.39Zm-.13,12.36c0,2.21.82,4,3.26,4,2,0,3.11-1.5,3.11-4,0-3-1.51-4-3.14-4S161.86,156.76,161.86,159.35Z"/><path d="M185.39,162.28a5.76,5.76,0,0,1-5.57,3.7c-4.34,0-6.26-2.71-6.26-6.76s2.71-6.53,6.43-6.43c3,.07,5.75,2.34,5.45,6.46l-.05.39h-8.73c0,2.2.94,3.7,3.18,3.7a2.87,2.87,0,0,0,2.79-2.05Zm-3.13-4.22c.05-2-1-2.93-2.54-2.88a2.87,2.87,0,0,0-2.91,2.88Z"/><path d="M196.34,147v8.21a4.42,4.42,0,0,1,4.32-2.41c2.44.07,5.05,1.72,5.05,6.48,0,3.9-1.94,6.71-5.44,6.71a4.27,4.27,0,0,1-4.07-2.37l-.42,2.22h-2.49V147.39Zm-.12,12.36c0,2.21.82,4,3.26,4,2,0,3.1-1.5,3.1-4,0-3-1.5-4-3.13-4S196.22,156.76,196.22,159.35Z"/><path d="M214.23,152.79c3.23,0,6,2.19,6,6.6,0,3.63-2.15,6.59-6.17,6.59-4.36,0-6.16-3-6.16-6.59C207.94,155,210.72,152.79,214.23,152.79Zm-3.09,6.6c0,2.05.69,4,3,4,2.1,0,3-1.95,3-4,0-2.86-1.4-4-3-4C212.52,155.38,211.14,156.49,211.14,159.39Z"/><path d="M226,147v14.62c0,1.39.62,1.76,1.53,1.76a2.42,2.42,0,0,0,1.28-.47l.57,2.19a5.35,5.35,0,0,1-2.79.89c-2.56,0-3.65-1.73-3.65-4.07V147.36Z"/><path d="M242.49,147v18.84h-2.57l-.34-2.22a4.52,4.52,0,0,1-4.12,2.37c-3.48.05-5.55-2.84-5.55-6.63,0-4.64,3-6.56,5.53-6.56a4.1,4.1,0,0,1,4,2.44v-7.84Zm-9.42,12.33c0,2.2.86,3.92,3.16,3.92s3.25-1.72,3.25-3.89c0-2.94-1.58-4-3.28-4S233.07,156.49,233.07,159.32Z"/><path d="M246.61,165.49a1.42,1.42,0,0,1-1.63-1.58,1.6,1.6,0,0,1,1.73-1.53c1.7,0,2.37,1.33,2.24,2.91-.19,2.34-2,3.28-4,3.3v-1.33c1.16,0,2-.62,2-1.36C246.91,165.71,246.61,165.49,246.61,165.49Z"/><path d="M259.73,147v8a4.82,4.82,0,0,1,4.24-2.19c3,0,4.49,1.94,4.49,4.61v8.43H265.4v-7.45c0-2-.74-3-2.41-3-2.35,0-3.26,1.9-3.26,4v6.51h-3.06V147.36Z"/><path d="M275.54,152.91v12.92h-3.08V155.45h-1.8v-2.54Zm-1.55-5a1.6,1.6,0,1,1,0,3.16,1.63,1.63,0,0,1-1.8-1.63A1.59,1.59,0,0,1,274,147.88Z"/><path d="M290.73,152.91v11c0,4.29-1.68,6.88-6.41,6.88a13.36,13.36,0,0,1-5.28-1.11l.72-2.31a11.13,11.13,0,0,0,4.22,1c2.78,0,3.69-1.38,3.69-3.5v-1.14a4.45,4.45,0,0,1-4,2.05c-3.47.07-5.47-2.57-5.47-6.36,0-4.64,3-6.56,5.52-6.56a4.28,4.28,0,0,1,4.1,2.34l.32-2.22Zm-9.32,6.41c0,2.2.86,3.92,3.16,3.92s3.2-1.72,3.2-3.89c0-2.94-1.55-4-3.23-4S281.41,156.49,281.41,159.32Z"/><path d="M297,147v8a4.81,4.81,0,0,1,4.24-2.19c3,0,4.49,1.94,4.49,4.61v8.43h-3.06v-7.45c0-2-.74-3-2.42-3-2.34,0-3.25,1.9-3.25,4v6.51h-3.06V147.36Z"/><path d="M72.38,187.64a15.43,15.43,0,0,1,4.89-.94c3.89,0,5.32,1.92,5.32,4.93v5.23a.65.65,0,0,0,.62.74,2.41,2.41,0,0,0,1-.15v2.05a5.09,5.09,0,0,1-2,.39,2.34,2.34,0,0,1-2.34-1.75,5.64,5.64,0,0,1-3.89,1.75c-2.52,0-4.39-1.28-4.42-4s2-4.09,5.25-4.09a19.85,19.85,0,0,1,2.79.25v-.77c0-1.4-.89-2.17-2.66-2.14a10.41,10.41,0,0,0-4,.79Zm7.16,6a13.13,13.13,0,0,0-2.52-.15c-1.48.07-2.42.77-2.44,2.07a1.81,1.81,0,0,0,2.09,1.9,5.1,5.1,0,0,0,2.87-1Z"/><path d="M88.76,186.82l.47,2.3a4.76,4.76,0,0,1,4.41-2.42c3,0,4.49,2,4.49,4.61v8.43H95.07V192.3c0-2-.74-3-2.41-3-2.35,0-3.26,1.89-3.26,4v6.51H86.34V186.82Z"/><path d="M113.32,180.91v18.83h-2.56l-.35-2.21a4.5,4.5,0,0,1-4.11,2.36c-3.48.05-5.55-2.83-5.55-6.63,0-4.64,3-6.56,5.52-6.56a4.09,4.09,0,0,1,4,2.44V181.3Zm-9.42,12.32c0,2.2.87,3.93,3.16,3.93s3.26-1.73,3.26-3.9c0-2.93-1.58-4-3.28-4S103.9,190.4,103.9,193.23Z"/><path d="M132.86,196.12c-.84,2.64-3,3.77-5.62,3.77-4.25,0-6.07-3.15-6.07-6.61,0-4.21,2.61-6.51,6.14-6.58,3.11-.07,5,1.53,5.5,3.8l-2.84.91a2.54,2.54,0,0,0-2.61-2.12c-1.78,0-3.13,1.31-3.13,3.94,0,2.1.79,4,3.08,4a2.6,2.6,0,0,0,2.71-2Z"/><path d="M141.15,186.7c3.23,0,6,2.19,6,6.61,0,3.62-2.15,6.58-6.17,6.58-4.36,0-6.16-3-6.16-6.58C134.86,188.89,137.64,186.7,141.15,186.7Zm-3.09,6.61c0,2.05.69,4,3,4,2.1,0,3-1.94,3-4,0-2.86-1.41-4-3-4C139.45,189.29,138.06,190.4,138.06,193.31Z"/><path d="M152.32,186.82l.47,2.3a4.76,4.76,0,0,1,4.41-2.42c3,0,4.49,2,4.49,4.61v8.43h-3.06V192.3c0-2-.74-3-2.41-3-2.35,0-3.26,1.89-3.26,4v6.51H149.9V186.82Z"/><path d="M165.66,187V185.2c0-2.64,1.38-4.29,4.24-4.29a6.92,6.92,0,0,1,2.13.32l-.47,2.19c-.1,0-.5-.07-.89-.07-1.36,0-1.92.56-1.92,2.34V187H176v12.79h-3.06V189.41h-4.16v10.33h-3.09V189.41h-2V187Zm8.81-5.16a1.65,1.65,0,0,1,1.8,1.56,1.62,1.62,0,0,1-1.8,1.6,1.64,1.64,0,0,1-1.83-1.63C172.64,182.48,173.28,181.79,174.47,181.79Z"/><path d="M191.21,180.91v18.83h-2.56l-.35-2.21a4.5,4.5,0,0,1-4.11,2.36c-3.48.05-5.55-2.83-5.55-6.63,0-4.64,3-6.56,5.52-6.56a4.09,4.09,0,0,1,4,2.44V181.3Zm-9.42,12.32c0,2.2.87,3.93,3.16,3.93s3.26-1.73,3.26-3.9c0-2.93-1.58-4-3.29-4S181.79,190.4,181.79,193.23Z"/><path d="M205.69,196.19a5.75,5.75,0,0,1-5.57,3.7c-4.34,0-6.26-2.71-6.26-6.75s2.71-6.54,6.43-6.44c3,.07,5.75,2.34,5.45,6.46l-.05.4H197c0,2.19.94,3.69,3.18,3.69a2.87,2.87,0,0,0,2.79-2ZM202.56,192c.05-2-1-2.94-2.54-2.89a2.88,2.88,0,0,0-2.91,2.89Z"/><path d="M210.85,186.82l.47,2.3a4.75,4.75,0,0,1,4.41-2.42c3,0,4.49,2,4.49,4.61v8.43h-3.06V192.3c0-2-.74-3-2.42-3-2.34,0-3.25,1.89-3.25,4v6.51h-3.06V186.82Z"/><path d="M227.3,183.17V187h3.25l-.42,2.46H227.3v5.92c0,1.41.64,1.95,1.67,1.95a5.43,5.43,0,0,0,1.95-.57l.57,2.34a7.94,7.94,0,0,1-3.28.84c-3,0-4-2-4-4.14v-6.34h-1.8V187h1.95l.37-3.43Z"/><path class="cls-7" d="M95.79,61.4A36.74,36.74,0,0,1,104.16,38a34.44,34.44,0,1,0,.11,46.9A36.78,36.78,0,0,1,95.79,61.4ZM87.2,75.66H70.92L71,73.39l4.46-.58c.58,0,.81-.23.81-1,.08-10.05,0-19.6,0-19.6l-5.62,1.08c-.19-.31-1.12-2.46-.46-2.73l10.35-4,1,1s-.12,20.87,0,24.37c0,.77.19,1,.73,1l5.08.54Z"/><circle cx="130" cy="61.53" r="34.44"/><text class="cls-8" transform="translate(118.45 75.26)">2</text><path d="M184,52.13l8.43,15.27V52.13h3.75v21h-4.59L183.3,58.34V73.13h-3.75v-21Z"/><path d="M213.6,68.81a7,7,0,0,1-6.78,4.5c-5.28,0-7.62-3.3-7.62-8.22s3.3-8,7.83-7.83c3.69.09,7,2.85,6.63,7.86l-.06.48H203c0,2.67,1.14,4.5,3.87,4.5a3.5,3.5,0,0,0,3.39-2.49Zm-3.81-5.13c.06-2.43-1.26-3.57-3.09-3.51a3.5,3.5,0,0,0-3.54,3.51Z"/><path d="M219.69,57.41l3.15,6.18,3.3-6.18h4l-4.35,7.8,4.53,7.92h-4.26L222.78,67l-3.45,6.12h-4.14L220,65.27l-4.29-7.86Z"/><path d="M238.11,53v4.59h4l-.51,3h-3.45v7.2c0,1.71.78,2.37,2,2.37a6.83,6.83,0,0,0,2.37-.69l.69,2.85a9.82,9.82,0,0,1-4,1c-3.69,0-4.83-2.46-4.83-5V60.56H232.2v-3h2.37l.45-4.17Z"/><path d="M256.74,57.41V73.13H253V60.5H250.8V57.41Zm-1.89-6.12a2,2,0,0,1,2.22,1.89,2.22,2.22,0,0,1-4.41,0A1.93,1.93,0,0,1,254.85,51.29Z"/><path d="M261,68.63a8.15,8.15,0,0,0,5.1,1.74c1.8,0,2.85-.54,2.85-1.83,0-3.06-9.09-1-8.79-6.78.12-2.82,2.19-4.5,6.36-4.5a12.78,12.78,0,0,1,5.67,1.47l-1.32,2.64a8.9,8.9,0,0,0-4.5-1.29c-1.47,0-2.7.48-2.64,1.71.18,2.49,8.91.57,8.91,6.63,0,3.24-2.91,4.92-6.63,4.89a10.76,10.76,0,0,1-6.45-2Z"/><path d="M286.77,53v4.59h4l-.51,3h-3.45v7.2c0,1.71.78,2.37,2,2.37a6.83,6.83,0,0,0,2.37-.69l.69,2.85a9.82,9.82,0,0,1-4,1c-3.69,0-4.83-2.46-4.83-5V60.56h-2.19v-3h2.37l.45-4.17Z"/><path d="M294.09,58.4A18.74,18.74,0,0,1,300,57.26c4.74,0,6.48,2.34,6.48,6v6.36a.79.79,0,0,0,.75.9,3,3,0,0,0,1.23-.18v2.49a6.08,6.08,0,0,1-2.49.48,2.84,2.84,0,0,1-2.85-2.13,6.87,6.87,0,0,1-4.74,2.13c-3.06,0-5.34-1.56-5.37-4.83s2.46-5,6.39-5a24.49,24.49,0,0,1,3.39.3v-.93c0-1.71-1.08-2.64-3.24-2.61a12.68,12.68,0,0,0-4.86,1Zm8.7,7.35a16.62,16.62,0,0,0-3.06-.18c-1.8.09-2.94.93-3,2.52a2.21,2.21,0,0,0,2.55,2.31,6.17,6.17,0,0,0,3.48-1.26Z"/><path d="M314.79,50.21V64h1.74l3.66-6.45h4.2l-4.71,7.77,5.13,7.86h-4.29l-4-6.09h-1.77v6.09h-3.72V50.66Z"/><path d="M340.59,68.81a7,7,0,0,1-6.78,4.5c-5.28,0-7.62-3.3-7.62-8.22s3.3-8,7.83-7.83c3.69.09,7,2.85,6.63,7.86l-.06.48H330c0,2.67,1.14,4.5,3.87,4.5a3.5,3.5,0,0,0,3.39-2.49Zm-3.81-5.13c.06-2.43-1.26-3.57-3.09-3.51a3.5,3.5,0,0,0-3.54,3.51Z"/><path d="M349.68,63.56v3h-7.44v-3Z"/><path d="M359,57.26c3.93,0,7.35,2.67,7.35,8,0,4.41-2.61,8-7.5,8-5.31,0-7.5-3.6-7.5-8C351.33,59.93,354.72,57.26,359,57.26Zm-3.75,8c0,2.49.84,4.86,3.66,4.86,2.55,0,3.69-2.37,3.69-4.86,0-3.48-1.71-4.89-3.6-4.89C356.91,60.41,355.23,61.76,355.23,65.3Z"/><path d="M370.56,57.56V55.43c0-3.21,1.68-5.22,5.19-5.22a8.28,8.28,0,0,1,3,.54l-.48,2.61a7.71,7.71,0,0,0-1.59-.18c-1.65,0-2.34.69-2.34,2.85v1.53h3.42l-.48,3h-2.94V73.13h-3.75V60.56H368.1v-3Z"/><path d="M381.12,57.56V55.43c0-3.21,1.68-5.22,5.19-5.22a8.28,8.28,0,0,1,3,.54l-.48,2.61a7.71,7.71,0,0,0-1.59-.18c-1.65,0-2.34.69-2.34,2.85v1.53h3.42l-.48,3h-2.94V73.13h-3.75V60.56h-2.46v-3Z"/></svg>