<svg id="Layer_1" data-name="Layer 1" xmlns="http://www.w3.org/2000/svg" viewBox="0 0 780 1051.14"><defs><style>.cls-1{fill:none;stroke-width:1.4px;}.cls-1,.cls-2,.cls-3,.cls-4,.cls-5,.cls-6{stroke:#fff;stroke-miterlimit:10;}.cls-2,.cls-3{fill:#d4a47c;}.cls-2{stroke-width:0.36px;}.cls-3{stroke-width:0.27px;}.cls-4{fill:#005058;stroke-width:0.47px;}.cls-5{fill:#c6946f;stroke-width:0.24px;}.cls-6{fill:#fff171;stroke-width:0.3px;}.cls-7{font-size:24.66px;}.cls-11,.cls-7{font-family:ABCSansBold, ABCSans;}.cls-8{letter-spacing:-0.02em;}.cls-10,.cls-9{fill:#fff;}.cls-9{opacity:0.7;}.cls-10{font-size:38.5px;font-family:ABCSerifBold, ABCSerif;}.cls-11{font-size:30px;}.cls-12{letter-spacing:-0.01em;}.cls-13{letter-spacing:-0.02em;}.cls-14{letter-spacing:-0.01em;}.cls-15{letter-spacing:0em;}</style></defs><path class="cls-1" d="M440.17,548.23c5.08,2.48,9.07,6.68,13.36,10.26,1.54,1.29,3.15,2.55,4.8,3.71a37.89,37.89,0,0,0,3.81,1.95c.65.35,1.17.83,1.8,1.2.83.49,1.76.81,2.6,1.28a45.68,45.68,0,0,0,4.61,2c1.49.64,3,1,4.49,1.59,2.36.87,4.79,1.24,7.2,1.9,2.68.73,5.25,1.76,7.89,2.58,1.92.6,3.93.85,5.83,1.5,2.43.83,4.86,1.63,7.3,2.43,1.28.42,2.49.94,3.79,1.31.53.15,1.07.29,1.59.47s1,.63,1.62.64"/><path class="cls-2" d="M371.69,531.54a7.73,7.73,0,0,1-.2-1,15.28,15.28,0,0,1,.05-3.7c.45-4.94.92-9.88,1.35-14.82.33-3.65.05-7.15,1.27-10.68a32.49,32.49,0,0,1,5.79-9.85,29.45,29.45,0,0,1,5.44-5.32,28.2,28.2,0,0,1,8.94-4c12.91-3.61,24.75,1.31,34.65,9.62,17.14,14.36,35.07,28.09,50.74,44.09,15.09,15.4,26.37,34.11,35.83,53.47a17.75,17.75,0,0,1,2.18,6.58c.39,6.65-7.18,8.32-12.25,8.74-2.5.21-4.4,1-6.89,1a41.73,41.73,0,0,1-13.15-2c-12-3.78-22.72-9.18-33.62-15.37a62.48,62.48,0,0,0-8.53-4.1c-3.36-1.3-6.07-3.47-9.31-4.91-2.92-1.3-5.19-2.83-8-4.33-4.32-2.3-9.1-4-13.57-6a108.82,108.82,0,0,1-12.62-7.23c-2.56-1.6-5.4-2.47-7.82-4.3a66.25,66.25,0,0,1-7-5.91c-3.24-3.24-4.3-7.44-7-11C375.74,537.67,372.64,535.12,371.69,531.54Z"/><path class="cls-3" d="M396.84,508.36l9.29-23.73c.75-1.09-11.43-9.37-10.71-10.48s-2.45-5.57-1-5.67,1.47,1.66,1.83,2.7c.31.85,1,1.46,1.34,2.29a7.27,7.27,0,0,0,.77,1.82,6.21,6.21,0,0,0,3.9,2.31c1.75.1,3.14-1.32,4.83-1.44a5.38,5.38,0,0,1,2.12.46,2.59,2.59,0,0,1,.28-1.64c1.78-3.47,5.36-5.12,8.07-7.73a18.84,18.84,0,0,0-2.27-2.56,29.1,29.1,0,0,1-3.46-4.14c-.94-1.32-2.12-2.21-2.14-3.82,0-1.24.71-2.34.69-3.57a22.8,22.8,0,0,1-.2-2.49,31.62,31.62,0,0,1,.85-3.86c.63-2.86,1-5.83,1.52-8.72a24.37,24.37,0,0,0,0-9.4,19.49,19.49,0,0,0-4.39-8.45,43.36,43.36,0,0,0-5.18-5.32,73.12,73.12,0,0,0-8.95-6.1c-3.51-2.05-8.18-3.07-12.17-3.51-3-.32-5.75-1.07-8.79-1.06a25,25,0,0,0-8.84,2c-2.43.93-4.81,1-7.32,1.25-1.26.13-2.39.8-3.7,1a29,29,0,0,0-4.62.88c-2.89.93-4.17,3.18-5.68,5.56-1,1.6-1.41,3.39-2.45,5a14.08,14.08,0,0,0-1.22,2.46c-.38.95-1,1.71-1.38,2.67-.19.46-.15.91-.33,1.4s-.58.66-.67,1.19a20.07,20.07,0,0,0,.26,3.15,25.39,25.39,0,0,1,0,3.7c0,.19,0,.31,0,.39s-.19.08-.43.33a12.47,12.47,0,0,1-2.24,1.7c-2,1.4-2.38,1.16-4.48,3a27.31,27.31,0,0,0-3.61,3.7,3.4,3.4,0,0,0,1.07,5.18,1.81,1.81,0,0,1,.86.92,4.68,4.68,0,0,1,.64,3.41,19.4,19.4,0,0,0-1.09,2.82,18.58,18.58,0,0,0,0,5.57c.23,1.51.9,2.2.15,3.51-.55.94-1.15,1.87-1.74,2.79-1.1,1.73-1.61,3.64-.16,5.34,1.94,2.29,6.42,3.39,9.08,4.5,9.12,3.83,18,7.71,27.23,11.24a27.94,27.94,0,0,1,14.81,12.28"/><path d="M348,429.61c.27.23.53.49.78.74s.44.47.42.7,0,.1-.1.1a1,1,0,0,1-.26-.16,1.66,1.66,0,0,0-.31-.12c-.42-.13-.85-.22-1.27-.35-.25-.07-.49-.12-.73-.21-1.46-.58-2.79-1.67-4.31-2.08a7.12,7.12,0,0,0-4.37.6c-.06-.51-.3-2.17.21-2.44.72-.38,2.77.22,3.61.14a6.54,6.54,0,0,1,4.34,1.25C346.74,428.33,347.32,429,348,429.61Z"/><path d="M419.12,461.88c-1.44-2-3.36-4-4.54-6.14-3.76-6.95.37-15.44-.05-23.33-.36-6.48-3.91-12.49-8.66-16.92s-10.63-7.46-16.59-10C383.75,403.09,378,401,372,400.72c-4-.21-15.89,1-16.9,6.24s6.87,11.24,6.64,17.13c-.12,3-1.62,5.88-1.21,8.84a24.59,24.59,0,0,0,1.37,4.29c.85,2.58,1,5.37,2.07,7.89s3.3,4.86,6,4.72a11.17,11.17,0,0,1,2.69-5.11c1.43-1.33,2.22-.35,3.8.79,2.17,1.57,3.14,3.48,1.76,5.77s-3.41,4.43-3.54,7.1c-.14,2.89,2,5.34,3.95,7.45,3.39,3.63,11.47,7.4,14.87,11,2.69-1.28,2.09-.45,4.86-1.57,2.09-.85.09-4.67,2-3.46a18.45,18.45,0,0,0,12.19,2.65c4-.53,8.21-3.08,8.52-7.07A8.39,8.39,0,0,0,419.12,461.88Z"/><path d="M354.35,407.51l.92-.13a1.52,1.52,0,0,1,0-.21A2.93,2.93,0,0,0,354.35,407.51Z"/><path class="cls-3" d="M366.83,449.77c-1.74-5,6.16-8,9.6-6a6.54,6.54,0,0,1,2.32,8.54c-1.66,2.95-5.41,4.17-7.25,7-1,1.5-1.44,3.45-2.95,4.41s-4.18-.84-3-2.18"/><path d="M406.8,458.61a7.07,7.07,0,0,0,3-1.56,11.78,11.78,0,0,1,3.64-1.59,6.11,6.11,0,0,1,4.49.2,6.61,6.61,0,0,1,2.83,2.83,6.44,6.44,0,0,1,1,3.49c-.24,1.27-1.7,2.8-2.36,3.9a6.65,6.65,0,0,1-3.78,2.55,6,6,0,0,1-4.67,0,19.69,19.69,0,0,1-7.33-7.63c-.89-1.51-.43-3.86.16-5.45s2-4,3.48-4.95c2.82-1.77,6.35.4,8.34,2.41,1.2,1.21,2.28,2.54,2.05,4.36a9.68,9.68,0,0,1-1.78,4,18,18,0,0,1-2.94,4.07,6.73,6.73,0,0,1-2.06,1.64,20.05,20.05,0,0,0-2.73,1.13,8.17,8.17,0,0,1-3.18,1,3.28,3.28,0,0,1-2.44-.67,10.78,10.78,0,0,1-2.32-1.94c-.43-.48-.67-1.1-1.06-1.61-.67-.87-.65-.91-.05-2"/><path d="M406.76,457.61c.19-1.43,1.24-2.18,2.36-2.88a5.62,5.62,0,0,0,1.13-.79,1.86,1.86,0,0,1,1.86-.51c1.81.29,3.3,1.88,4.55,3.07a6.3,6.3,0,0,1,1.42,1.67c.3.61.37,1.31.67,1.9.18.35.48.57.58,1s0,.84.13,1.27a2.43,2.43,0,0,1,.25,1.13,10.18,10.18,0,0,1-.26,1.22,5,5,0,0,1-.79,2.11,13.7,13.7,0,0,1-1.65,1.67,6.43,6.43,0,0,1-.9.56c-.38.22-.66.57-1,.79a6.21,6.21,0,0,1-3.46.47c-2.23-.08-4.36-1.57-6.15-2.8a11.55,11.55,0,0,1-3.42-3.68c-.44-.84-.77-1.7-1.13-2.58a9.83,9.83,0,0,1-.88-2.45,8.64,8.64,0,0,1,.08-2.87,19.38,19.38,0,0,1,.67-3,6.16,6.16,0,0,1,1.81-2.39,7.76,7.76,0,0,0,1.32-.91,5.41,5.41,0,0,1,1.18-1.16,6.57,6.57,0,0,1,5.57-1,21.12,21.12,0,0,1,4,1.55c.8.47,1.57,1,2.36,1.46a6,6,0,0,1,2,2.12,4.19,4.19,0,0,1,.69,1.59,5,5,0,0,1,.28,1.65c-.27,1.6-1.48,2.62-2,4.05a5.27,5.27,0,0,1-.25.86c-.23.42-.52.82-.77,1.23a10.76,10.76,0,0,1-1.33,1.92,7,7,0,0,1-2.14,1.55,3.58,3.58,0,0,1-3,0,9.63,9.63,0,0,1-3.37-1.5,12.83,12.83,0,0,1-3.2-3.72,10,10,0,0,1-1.68-4.69,10.36,10.36,0,0,1,0-2.61,10.71,10.71,0,0,1,.92-2.16c.72-1.51,2.4-2.3,3.75-3.1.27-.15.85-.65,1.18-.65s.6.34.8.46"/><path d="M397,468.05c.19-1.42,1.24-2.18,2.36-2.87a6.06,6.06,0,0,0,1.13-.79,1.84,1.84,0,0,1,1.86-.52c1.81.3,3.3,1.89,4.55,3.08a6.26,6.26,0,0,1,1.42,1.66c.3.61.37,1.31.67,1.9.18.35.48.58.58,1s0,.84.13,1.27a2.43,2.43,0,0,1,.25,1.13,9.78,9.78,0,0,1-.26,1.22,4.92,4.92,0,0,1-.79,2.11,13,13,0,0,1-1.65,1.67,5.62,5.62,0,0,1-.9.56c-.38.23-.65.57-1,.8a6.21,6.21,0,0,1-3.46.46c-2.23-.07-4.36-1.57-6.15-2.79a11.43,11.43,0,0,1-3.41-3.69,27.92,27.92,0,0,1-1.14-2.57,10.32,10.32,0,0,1-.88-2.46,8.65,8.65,0,0,1,.08-2.87,19,19,0,0,1,.67-3,6.12,6.12,0,0,1,1.81-2.4,7.76,7.76,0,0,0,1.32-.91,5.24,5.24,0,0,1,1.19-1.16,6.63,6.63,0,0,1,5.57-1,20.66,20.66,0,0,1,4,1.56c.8.46,1.57,1,2.36,1.46a6,6,0,0,1,2,2.11,4.33,4.33,0,0,1,.69,1.59,5.06,5.06,0,0,1,.28,1.65c-.27,1.6-1.48,2.62-2,4.05a5.75,5.75,0,0,1-.26.87c-.23.42-.52.81-.77,1.22A10.76,10.76,0,0,1,406,474.3a6.83,6.83,0,0,1-2.14,1.55,3.58,3.58,0,0,1-3,0,10.1,10.1,0,0,1-3.37-1.5,13,13,0,0,1-3.2-3.72,10,10,0,0,1-1.68-4.7,10.85,10.85,0,0,1,0-2.61,10.71,10.71,0,0,1,.92-2.16c.72-1.51,2.4-2.3,3.76-3.09.26-.16.84-.66,1.17-.66s.6.34.8.46"/><path class="cls-2" d="M424.61,488.44c-4.49-2.18-12.12-3.5-16.78-5.27-2.2-.84-4.43-1.61-6.7-2.26-3.76-1.09-7.63-1.89-11.24-3.39-6.41-2.65-11.68-7.28-17.5-10.93-5.6-3.53-11.3-4.27-17.4-6.34a50.38,50.38,0,0,0-5-1.24c-2.35-.51-4.83-.65-7.21-1l-.53-.05c-1.05-1-2.35-1.93-3.44-2.83A138.56,138.56,0,0,0,320,442c-6-3.51-10.55-8.86-15.91-13.2-6-4.9-11.95-9.86-18-14.81-5-4.13-9.43-8.93-14.31-13.22-2-1.74-4-3.42-6.06-5.06a14.14,14.14,0,0,0,.84-2h0a20.94,20.94,0,0,1-.36-2.59,9.15,9.15,0,0,1,.38-2.82c.35-.93.73-1.85,1.11-2.77.64-1.56,1.26-3.1,1.86-4.68a17.16,17.16,0,0,0,.8-2c.16-.64.16-1.37.37-2l-.09-.94c.17-.73.46-1.44.59-2.18a9.37,9.37,0,0,0,.12-2.12c0-.29,0-.58,0-.88,0-.48.13-.92.1-1.4a14.92,14.92,0,0,0-.11-1.9c-.12-.67-.69-.88-1.17-1.26a2,2,0,0,1-.86-1.41c-.09-.65-.23-1.29-.33-1.93-.06-.42-.06-.8-.15-1.21s-.11-.74-.18-1.09a17.09,17.09,0,0,1-.15-2.38l-.06-1.19a7.32,7.32,0,0,1,.09-1.05,3.5,3.5,0,0,0-.07-.91c-.06-.35,0-.7-.11-1a4.5,4.5,0,0,0-.8-1.94,1.84,1.84,0,0,0-.41-.51c-.24-.17-.59-.31-.85-.46a10.84,10.84,0,0,1-1.7-1,9.68,9.68,0,0,1-1.15-1.47l-1-1.35c-.26-.34-.39-.71-.62-1a4.38,4.38,0,0,1-.54-.76c-.1-.26-.27-.5-.36-.77a2.39,2.39,0,0,0-.26-.66,11.74,11.74,0,0,0-.95-1.25c-.54-.54-1.14-.19-1.71.1a2.57,2.57,0,0,0-.74.65,11,11,0,0,0-1.05,1.3.59.59,0,0,0-.12.4c0,.1.1.19.1.29s-.1.21-.14.32a.65.65,0,0,0,0,.34,11.55,11.55,0,0,0,.5,2.46c.26.9.55,1.8.86,2.68l.07.18c-.17-.37-.36-.73-.51-1.11a11.85,11.85,0,0,1-.75-2.32,15.88,15.88,0,0,0-.39-2.39c-.06-.18-.12-.26-.17-.45s-.18-.69-.28-1-.21-.42-.3-.64a5.34,5.34,0,0,1-.13-.8,14.85,14.85,0,0,0-.32-1.64,9.91,9.91,0,0,0-1.12-2.85,2.57,2.57,0,0,1-.26-.75,6.76,6.76,0,0,0-.36-.71,3,3,0,0,1-.32-.65,7.09,7.09,0,0,1-.12-.91c-.07-.56-.3-1.09-.34-1.66s-.17-1.13-.21-1.7a9.16,9.16,0,0,0-.24-1.57c-.06-.25-.26-.41-.35-.63s-.12-.42-.19-.62c-.18-.48-.39-.92-.54-1.42s-.38-1.11-.59-1.65a28.23,28.23,0,0,1-.92-2.73,8.06,8.06,0,0,0-1.53-2.23,3.48,3.48,0,0,0-2.72-1.2,3.62,3.62,0,0,0-2.49.91,1.78,1.78,0,0,0-.63.91c0-.21,0-.43,0-.64a2.36,2.36,0,0,0-.67-1.6,4.42,4.42,0,0,0-.44-.53c-.24-.22-.41-.43-.63-.67a4,4,0,0,0-.72-.57,1.27,1.27,0,0,0-1.24-.05,9.55,9.55,0,0,0-1.78.89,3.11,3.11,0,0,0-1.37,1.29,4,4,0,0,0,0,2.19,20.11,20.11,0,0,0,.45,2.67c.17.67.32,1.31.43,2a18.69,18.69,0,0,0,.53,2.33c.26.84.11,1.81.29,2.68.1.45.25.88.36,1.33s.09.76.19,1.13a7.46,7.46,0,0,1,.09,2.45,7,7,0,0,0,0,1.3,8.09,8.09,0,0,1,.08,1l-1.59-11.53a1,1,0,0,0-.17-.73c-.08-.15-.05-.25-.11-.39a2.34,2.34,0,0,0-1.14-1c-1.21-.59-2.37.4-3.14,1.26a3.44,3.44,0,0,0-.82,1.95c-.11.78-.38,1.51-.49,2.29a5.5,5.5,0,0,0,.12,2,11.74,11.74,0,0,1,.3,2.14,29.18,29.18,0,0,0,1,4.17l.24,1.19c.06.31,0,.63.05.94.12.88.33,1.73.49,2.6a7.12,7.12,0,0,1,.14,1.39c0,.42.08.84.07,1.26s0,.71,0,1.07l-1.29-8.69c-.17-.21,0-.66-.26-.73s-.35,0-.52-.05a1.69,1.69,0,0,0-.53-.12.89.89,0,0,0-.38.23c-.44.35-1,.56-1.43.89a2.81,2.81,0,0,0-.94,1.28,4.19,4.19,0,0,0-.39,2.15c0,.39-.1.74-.09,1.14s.06.84.11,1.28.14.72.15,1.07a7.25,7.25,0,0,0,0,1c.07.42,0,.85.11,1.26a4.77,4.77,0,0,1,.16,1.06,8.55,8.55,0,0,0,.26,2.09c.14.56.05,1.18.19,1.76s.1,1.21.22,1.81.2,1.43.32,2.13c0,.27.21.51.24.78s0,.67,0,1c.12.65.13,1.3.25,2s.47,1.08.61,1.67a10.94,10.94,0,0,1,.33,1.9,14.11,14.11,0,0,0,.4,1.55c.07.34,0,.69.09,1a11.42,11.42,0,0,1,.1,1.55c0,.62.08,1.21.14,1.83a4.64,4.64,0,0,0,.63,1.62,2.5,2.5,0,0,1,.19,1c0,.36.1.66.15,1a2.84,2.84,0,0,0,.08.66,4.36,4.36,0,0,1,.37,1,6.93,6.93,0,0,0,0,1.29,15,15,0,0,0,1.21,2.11c.14.25.32.48.46.73a23.51,23.51,0,0,1,1.24,2.76,11.5,11.5,0,0,0,.73,1.73c.3.47.62.79.88,1.29.64,1.23,1.52,2.33,2.16,3.58.2.38.28.83.49,1.2.31.56.73,1,1,1.57a13.54,13.54,0,0,0,1.28,2.07c.7,3.43,3.2,6.78,5.08,9.51,2.28,3.32,4.81,6.47,7.08,9.81,2,2.93,3.46,6.08,5.62,8.84,2.52,3.23,5.05,6.47,7.34,9.87,14,20.86,33.27,52.56,59.4,59.63l14.3,9.35,18.85,12.35,10.84,7.09c4,2.61,24.82,10.58,29.08,12.72M234.33,360.92l-.15-.78A3.37,3.37,0,0,1,234.33,360.92Zm-.84-4.81a8.75,8.75,0,0,1,.41,2.74Zm1.25,6.74c.07.07.12.13.09.19S234.78,363,234.74,362.85Zm5.41-6.12a8.11,8.11,0,0,1-.07,1.37c0-.1-.06.92-.06.82l-2-14.73c0,.12.07.23.09.33.06.3,0,.57.08.88a9.45,9.45,0,0,0,.95,2.83c.31.48,0,.87,0,1.48s0,1.41.08,2c.17,1.25.54,2.06.69,3.31A5.55,5.55,0,0,1,240.15,356.73Zm18.29-3.08c-.06-.14-.12-.27-.19-.41a2.61,2.61,0,0,1,.64,1.49C258.91,354.44,258.56,353.92,258.44,353.65ZM244.6,332.9a7.29,7.29,0,0,1,.62,1.69,9.06,9.06,0,0,0,.55,1.59,5.09,5.09,0,0,1,.21,2.13,11.41,11.41,0,0,0,.08,1.94,33.56,33.56,0,0,1,.82,4.32l-3.36-13.95a5.63,5.63,0,0,0,.31.77Zm-1.92-6.61c0,.4.06.81.09,1.21l-.92-3.85A9.77,9.77,0,0,1,242.68,326.29Z"/><path class="cls-4" d="M510.69,581a2.31,2.31,0,0,1,.35.18c22.25,18.24,22.58,19.2,33.28,29.21,4.25,4,7.42,9.67,10.42,14.63.57.94.78,2.13,1.27,3.12a13.89,13.89,0,0,1,1,3.92,24.74,24.74,0,0,1,.37,3.1,15,15,0,0,0,.41,2.38c.12.5.39.91.21,1.43a8.58,8.58,0,0,1-1.57-1.82c-.82-1-1.73-1.86-2.55-2.83-1.16-1.38-2.53-2.6-3.8-3.87a28.91,28.91,0,0,1-2.87-3.19,18.43,18.43,0,0,0-3.2-3.52,32.47,32.47,0,0,0-9.23-5.72c-1.79-.63-3.46-1.56-5.26-2.15a51.54,51.54,0,0,0-5.61-1.37,55.5,55.5,0,0,0-9.87-1.14c-4.77-.13-8-.39-11.72.83-9.24,3-17.11,8-22.9,16-3.28,4.56-1.71,10.66-3.86,15.82-1,2.31,0,10.54-9.32,5.32-2.27-1.27-2.57-4.56-4.13-6.6-.95-1.23-2.12-2.27-3.06-3.53-.69-.93-1.28-1.94-1.9-2.93-1.5-2.44-4-6.44-5.37-9-.75-1.35-1.66-2.61-2.34-4a18.12,18.12,0,0,0-1.41-2.69,16,16,0,0,0-2.89-2.81c-10.23-8.94-20.11-18.23-30.18-27.33-4.43-4-17.74-12.09-17.74-18.77-2.49,0-4.76-1.05-7-2a27.24,27.24,0,0,1-6.59-3.68,11.91,11.91,0,0,1-2.69-3.56c-2.48-4.67-3.6-10.25-5.17-15.3-1.76-5.69-3.38-11.54-3.38-17.54a12.64,12.64,0,0,0-.25-2.48,8.9,8.9,0,0,1-.39-2.54l1-.32a6.91,6.91,0,0,0,1.27,3.88,14,14,0,0,0,3.16,4.42,16.22,16.22,0,0,1,2.05,2c8.35,10.15,27.91,12.71,40.23,12.63,1.49,0,3,0,4.49,0,1.11,0,2.09-.3,3.19-.33,1.3,0,2.61,0,3.92,0a20.23,20.23,0,0,0,3.48,0c.39-.08.7-.28,1.09-.35s1,.09,1.52,0,1-.16,1.51-.23a4.12,4.12,0,0,1,2.29.36Z"/><path class="cls-5" d="M556.6,636a48.73,48.73,0,0,0-9.54-10.23,30.72,30.72,0,0,0-13.77-12.23,28.42,28.42,0,0,0-12.71-1.95,29.75,29.75,0,0,0-10.79-1c-1.6.2-5.48,1.17-7,1.59-9.69,2.61-18.2,7.62-23.17,16.61-3.17,5.74-8.46,17.82-12.62,30.32-9.74,14.29-18.84,29.11-25.26,45.26-5.68,14.28-8.13,29.11-11.07,43.9a224.81,224.81,0,0,1-6.11,25,62.32,62.32,0,0,1-4.12,9.39c-.89,6.86,1.68,14,5.93,20.25,1,3.52,2,7.23,2.3,8.31,3.94,13.51,12.23,27.78,16.18,41.3.28,1,.56,2,.85,2.93,3.06,7.48,5.75,15.24,9.1,22.55,2.76,6,6.26,13.07,8.07,20.3,1,2.59,2,5.28,2.9,8a38.38,38.38,0,0,1,1.05,4.82c.73,5.15,1.93,11.55-.88,16,.33,1.2.34,2-.26,2.25-.21.08-1.48.34-2.53.55-.2.13-.39.26-.6.38a4.81,4.81,0,0,1-2.7.55c-3.07,1.22-6,3.21-9.12,4.3s-6.57,1.4-9.82,2.43c-6.39,2-12.75,5.26-19.53,4.77a1.66,1.66,0,0,0-1.17.2,2.53,2.53,0,0,0-.79,2.28,3.63,3.63,0,0,0,.57,1.72c.17.25.41.46.57.7s.15.42.26.61a8.76,8.76,0,0,0,3,2.79,15.68,15.68,0,0,0,5.27,2.17,17.48,17.48,0,0,0,2,.53c.48.05.91,0,1.38,0a31.83,31.83,0,0,0,4.57-.25c.72,0,1.42-.15,2.15-.16a13.6,13.6,0,0,1,2-.06c.57.07,1.14.22,1.72.29,1.13.14,2.25.13,3.37.32,3.16.51,6.46-.29,9.67.06a72,72,0,0,0,11.93.53c5.89-.32,11.77-1.23,17.67-1.36,5.23-.12,11.52,1.48,16.23-1.48,2.62-1.65,1.34-6.18,1.9-9.22,1.66-9.12-2.15-15.62-7.57-21.63-2.6-11.87-9.23-27-9.34-37.21a21.45,21.45,0,0,1,.72-5.94,544.68,544.68,0,0,0-5.47-59.38c-1.67-12.1-5.5-23.56-9.28-34.53,11.53-16.62,25-32,36.84-48.41q13.13-18.27,25.27-37.21c3.08-4.81,6.5-9.67,9.58-14.7h0C553.28,671.17,564.64,648.31,556.6,636Z"/><path class="cls-2" d="M263.08,355.24a4.31,4.31,0,0,0,1.75-.1c.36-.13.74-.29,1.1-.45a9.44,9.44,0,0,1,.94-.32c.53-.17,1.06-.06,1.3-.68"/><path class="cls-2" d="M263,353a7.26,7.26,0,0,1,1.54-1.33c.17-.14.35-.27.53-.4s.58-.23.76-.42"/><path class="cls-2" d="M246,320a24.83,24.83,0,0,1,1,2.3,3.58,3.58,0,0,1-.08,1.29,3.31,3.31,0,0,1-.68,1.5,3,3,0,0,1-1.14.8c-1.05.23-1.7-.9-2.22-1.62a6.53,6.53,0,0,1-.69-1.34c-.08-.2-.09-.41-.16-.61a4.93,4.93,0,0,1-.39-1.36"/><path class="cls-2" d="M239.65,317.93c.27.36.56,1.2.78,1.59a2.24,2.24,0,0,1,.08,1.63c-.12.41-.34.81-.46,1.22,0,.11,0,.21-.05.32s-.26.35-.35.47a2.41,2.41,0,0,1-1.34,1c-.41.12-1,.25-1.38-.07a7.22,7.22,0,0,1-.88-1.16c-.2-.29-1.84-2.38-1.43-2.43a6.08,6.08,0,0,0,.3-1"/><path class="cls-2" d="M234.48,325.24a14.18,14.18,0,0,1,.47,1.48,3.32,3.32,0,0,1,.22,1.49,3,3,0,0,1-.06.89,4.06,4.06,0,0,1-.38.75c-.18.21-.39.21-.63.33a2.41,2.41,0,0,1-.6.23,1.1,1.1,0,0,1-1.09,0,1.46,1.46,0,0,1-.79-.81,6,6,0,0,1-.31-1.46c-.05-.23-.12-.46-.17-.7a6,6,0,0,1-.06-1.11c.15.11.77-1,.86-.82"/><path class="cls-2" d="M243.62,341.78a4.6,4.6,0,0,1-1.26.71,2.84,2.84,0,0,1-1.6.31"/><path class="cls-2" d="M243.66,339.44a3.36,3.36,0,0,0-.84,0,3.73,3.73,0,0,0-1.48.22,3.63,3.63,0,0,0-1.1.58,3.09,3.09,0,0,0-.48.4c-.13.13-.18.31-.36.4"/><path class="cls-2" d="M235.39,347.69c-.32.12-.65.25-1,.35a.68.68,0,0,1,.48-.13"/><path class="cls-2" d="M236.16,348.93c-.65.19-1.31.43-2,.58a2.11,2.11,0,0,1-.83.06"/><path class="cls-2" d="M231.18,355.85a8.73,8.73,0,0,1-1.47,1.11c-.19.12-.57.24-.63.48"/><path class="cls-2" d="M251.91,339.91c-.32.17-2.1,1-2.45,1.06-1.14.43-.21,0-.3.07"/><path class="cls-2" d="M253.06,341.08a7.06,7.06,0,0,1-4.7,2c-.35,0-.61.32-1,.41"/><path class="cls-2" d="M231.35,339.55c0,.2.3,1.61.26,1.81a2,2,0,0,1-.29.81,6.88,6.88,0,0,1-1.45,1.29c-.39.31-.81.65-1.33.44a1.69,1.69,0,0,1-.86-1.25c-.12-.57-.21-1.1-.29-1.66,0-.32-.24-1.44,0-1.68"/><path class="cls-2" d="M262.48,347.27c.85,1.53-1.21,1.19-1.86.85-1.46-.78-4.53-2.39-3.45-4.58"/><path class="cls-6" d="M416.64,486a82.71,82.71,0,0,1,10,3.95,46.75,46.75,0,0,0-5.75-3.6,43.83,43.83,0,0,0-4.44-.39Z"/><path class="cls-6" d="M372.9,527.58q1.64,2.92,3.29,5.85c-.28-1-.69-1.91-.89-2.92a27,27,0,0,1-.21-3.6c-.09-1.28-.39-2.53-.56-3.79,0-.33-.07-.66-.09-1a11.27,11.27,0,0,1-3.45-1.87l-.57-.2-.31-.08a53.55,53.55,0,0,0,.52,6c.23,1.51.1,3,.29,4.56.22,1.68,1,3.18,1.27,4.84a1.8,1.8,0,0,0,.85,1.32c0-.76-.08-1.52-.15-2.27-.34-2.18-1.14-4.32-1.3-6.53A.71.71,0,0,1,372.9,527.58Z"/><path class="cls-6" d="M443.75,533.71a55,55,0,0,0-.28-9.43c-1-6.12-1.37-12.28-2.41-18.39-.31-1.81-.75-3.56-1.22-5.31-1.94-1.52-3.85-3.13-5.75-4.73.11.57.23,1.14.39,1.71.71,2.65,1.61,5.24,2.11,7.94,1,5.47,1.31,11,2.14,16.47a51.35,51.35,0,0,1,.74,9.75c-.12,3.21.29,6.31.47,9.51.13,2.31.14,4.63.14,6.95a7.59,7.59,0,0,1,2.84.8,8.13,8.13,0,0,1,1.51.9c0-2.34,0-4.69-.07-7C444.25,539.8,443.72,536.76,443.75,533.71Z"/><path d="M97.35,227.85a68.34,68.34,0,0,0,2.26,33.88,81.51,81.51,0,0,0,15.44,27A88.38,88.38,0,0,0,127,300.4c1.49,1.2,3.62-.91,2.12-2.12-15.47-12.49-27.31-30.61-29.53-50.65a65,65,0,0,1,.69-19c.35-1.89-2.54-2.69-2.89-.8Z"/><path d="M122.78,285.81c1.69,4.63,2.92,9.41,4.25,14.16l1.45-1.9c-2.49.06-5,.24-7.47.34-2.31.1-4.62.1-6.94.2-1.92.09-1.93,3.09,0,3,2.32-.1,4.63-.1,6.94-.2,2.49-.1,5-.28,7.47-.34a1.52,1.52,0,0,0,1.44-1.9c-1.33-4.75-2.56-9.52-4.24-14.16a1.55,1.55,0,0,0-1.85-1.05,1.52,1.52,0,0,0-1,1.85Z"/><text class="cls-7" transform="translate(70.61 165.83)">It must be bo<tspan class="cls-8" x="150.8" y="0">l</tspan><tspan x="158.22" y="0">d, high </tspan><tspan x="0" y="33.91">and confident</tspan></text><path class="cls-9" d="M95.79,61.4A36.74,36.74,0,0,1,104.16,38a34.44,34.44,0,1,0,.11,46.9A36.78,36.78,0,0,1,95.79,61.4ZM87.2,75.66H70.92L71,73.39l4.46-.58c.58,0,.81-.23.81-1,.08-10.05,0-19.6,0-19.6l-5.62,1.08c-.19-.31-1.12-2.46-.46-2.73l10.35-4,1,1s-.12,20.87,0,24.37c0,.77.19,1,.73,1l5.08.54Z"/><circle cx="130" cy="61.53" r="34.44"/><text class="cls-10" transform="translate(118.45 75.26)">2</text><text class="cls-11" transform="translate(177.42 73.13)"><tspan class="cls-12">N</tspan><tspan class="cls-13" x="20.46" y="0">e</tspan><tspan x="36.84" y="0">xt is </tspan><tspan class="cls-12" x="102.6" y="0">t</tspan><tspan x="114.51" y="0">a</tspan><tspan class="cls-14" x="131.73" y="0">k</tspan><tspan class="cls-15" x="147.45" y="0">e-off</tspan></text></svg>