<svg id="Layer_1" data-name="Layer 1" xmlns="http://www.w3.org/2000/svg" viewBox="0 0 780 1051.14"><defs><style>.cls-1,.cls-2,.cls-5{fill:#d4a47c;}.cls-1,.cls-2,.cls-3,.cls-4,.cls-5,.cls-6{stroke:#fff;stroke-miterlimit:10;}.cls-1{stroke-width:0.36px;}.cls-2{stroke-width:0.27px;}.cls-3{fill:#005058;stroke-width:0.47px;}.cls-4{fill:#c6946f;stroke-width:0.24px;}.cls-5{stroke-width:0.31px;}.cls-6{fill:#fff171;stroke-width:0.3px;}.cls-7,.cls-8{fill:#fff;}.cls-7{opacity:0.7;}.cls-8{font-size:38.5px;font-family:ABCSerifBold, ABCSerif;}</style></defs><path class="cls-1" d="M367.89,471.7a8.59,8.59,0,0,1,.08-1,15.72,15.72,0,0,1,1-3.55c1.77-4.63,3.56-9.26,5.31-13.9,1.29-3.43,2-6.88,4.1-9.95a32.49,32.49,0,0,1,8.24-7.92,29.64,29.64,0,0,1,6.67-3.65,28.16,28.16,0,0,1,9.69-1.47c13.41,0,23.48,7.95,30.77,18.61,12.63,18.45,26.18,36.52,37,56.15,10.37,18.91,16.18,40,20.07,61.16a17.59,17.59,0,0,1,.32,6.92c-1.42,6.51-9.15,6.07-14.15,5.11-2.47-.47-4.52-.19-6.91-.89a41.39,41.39,0,0,1-12.12-5.5c-10.49-6.87-19.39-15-28.22-23.87a63,63,0,0,0-7.1-6.25c-2.89-2.16-4.92-5-7.65-7.24-2.46-2-4.23-4.13-6.54-6.33-3.53-3.38-7.67-6.33-11.44-9.47a107.4,107.4,0,0,1-10.2-10.37c-2-2.23-4.53-3.83-6.37-6.25a66.13,66.13,0,0,1-5.19-7.6c-2.24-4-2.13-8.31-3.78-12.42C370.14,478.7,367.84,475.4,367.89,471.7Z"/><path class="cls-2" d="M398.37,456.17l15.35-20.34c1-.85-8.49-12.11-7.49-13s-.85-6,.54-5.74,1,2,1,3.1c.06.9.53,1.67.66,2.57a7.69,7.69,0,0,0,.26,2,6.2,6.2,0,0,0,3.13,3.28c1.66.57,3.38-.42,5-.08a5.53,5.53,0,0,1,1.91,1,2.6,2.6,0,0,1,.72-1.5c2.65-2.87,6.54-3.48,9.85-5.26a18.81,18.81,0,0,0-1.49-3.09,29,29,0,0,1-2.22-4.92c-.55-1.52-1.44-2.7-1-4.25.33-1.19,1.32-2.06,1.63-3.25a22.59,22.59,0,0,1,.49-2.45,30.76,30.76,0,0,1,1.85-3.5c1.38-2.57,2.55-5.33,3.82-8a24.29,24.29,0,0,0,2.52-9.05,19.48,19.48,0,0,0-1.95-9.32,43.45,43.45,0,0,0-3.55-6.53,76.27,76.27,0,0,0-7-8.29c-2.83-2.91-7.05-5.16-10.78-6.65-2.76-1.11-5.24-2.59-8.17-3.41a25.27,25.27,0,0,0-9-.44c-2.6.24-4.91-.35-7.39-.78-1.25-.21-2.52.14-3.83,0a28.46,28.46,0,0,0-4.69-.4c-3,.12-4.87,1.94-7,3.83-1.4,1.26-2.27,2.88-3.7,4.12a13.76,13.76,0,0,0-1.84,2.05c-.63.81-1.42,1.37-2.05,2.19-.3.4-.39.84-.69,1.27s-.74.47-1,1a20.48,20.48,0,0,0-.6,3.1,26.47,26.47,0,0,1-1,3.57,3.49,3.49,0,0,0-.13.37c-.07,0-.21,0-.5.2a12.18,12.18,0,0,1-2.63,1c-2.28.81-2.6.48-5.11,1.65a27.81,27.81,0,0,0-4.48,2.59,3.42,3.42,0,0,0-.37,5.28,1.79,1.79,0,0,1,.59,1.12,4.71,4.71,0,0,1-.3,3.46A18.66,18.66,0,0,0,346,387a18.34,18.34,0,0,0-1.54,5.34c-.19,1.52.27,2.37-.81,3.42-.78.76-1.61,1.5-2.43,2.22-1.52,1.37-2.53,3.07-1.59,5.1,1.25,2.72,5.27,5,7.52,6.78,7.76,6.16,15.28,12.29,23.19,18.18a27.85,27.85,0,0,1,10.95,15.82"/><path d="M372.6,367.17c.2.29.37.61.55.92s.3.56.22.79,0,.09-.12.06-.16-.17-.22-.22a1.64,1.64,0,0,0-.26-.2c-.37-.24-.76-.44-1.13-.68-.21-.14-.44-.25-.64-.4-1.26-1-2.24-2.36-3.59-3.16a7,7,0,0,0-4.37-.61c.08-.51.3-2.17.85-2.29.8-.17,2.62,1,3.44,1.11a6.5,6.5,0,0,1,3.85,2.37C371.72,365.58,372.09,366.42,372.6,367.17Z"/><path d="M432.36,417.42c-.84-2.34-2.16-4.72-2.71-7.13-1.74-7.71,4.52-14.77,6.24-22.48,1.41-6.34-.38-13.09-3.76-18.63s-8.22-10.05-13.28-14.13c-4.68-3.78-9.69-7.32-15.4-9.24-3.83-1.3-15.56-3.37-18,1.44s3.59,12.68,1.77,18.29c-.92,2.84-3.15,5.22-3.55,8.19a25,25,0,0,0,.16,4.49c.13,2.72-.44,5.45-.13,8.16s1.86,5.57,4.52,6.17a11.12,11.12,0,0,1,4-4.2c1.73-.9,2.23.26,3.44,1.79,1.67,2.09,2.09,4.2.14,6s-4.47,3.34-5.32,5.88c-.92,2.74.45,5.67,1.79,8.24,2.29,4.41,9.05,10.22,11.34,14.63,2.94-.51,2.14.13,5.11-.2,2.24-.25,1.35-4.47,2.86-2.79a18.42,18.42,0,0,0,11,5.85c4,.55,8.73-.76,10.11-4.51A8.35,8.35,0,0,0,432.36,417.42Z"/><path d="M384.67,347.59l.92.12a1.77,1.77,0,0,1,0-.21A3.07,3.07,0,0,0,384.67,347.59Z"/><path class="cls-2" d="M385.28,391.65c-.32-5.26,8.08-6,10.86-3.15a6.55,6.55,0,0,1-.07,8.85c-2.4,2.4-6.34,2.56-8.88,4.79-1.35,1.18-2.31,2.94-4,3.46s-3.8-1.94-2.3-2.91"/><path d="M421.38,411a7.24,7.24,0,0,0,3.32-.7,12,12,0,0,1,3.94-.55,6.13,6.13,0,0,1,4.26,1.4,6.66,6.66,0,0,1,2,3.5,6.46,6.46,0,0,1,0,3.62c-.58,1.16-2.4,2.24-3.32,3.12a6.72,6.72,0,0,1-4.34,1.44,6,6,0,0,1-4.5-1.24,19.73,19.73,0,0,1-5-9.33c-.45-1.69.63-3.82,1.63-5.19s3-3.34,4.69-3.83c3.19-.95,6,2.1,7.38,4.57.82,1.49,1.51,3.06.79,4.75a9.67,9.67,0,0,1-2.8,3.4,18.12,18.12,0,0,1-3.93,3.12,6.41,6.41,0,0,1-2.43,1,20.05,20.05,0,0,0-2.93.36,8.24,8.24,0,0,1-3.32.06,3.22,3.22,0,0,1-2.17-1.3,10.45,10.45,0,0,1-1.71-2.5c-.28-.57-.34-1.23-.58-1.82-.42-1-.38-1.06.48-1.95"/><path d="M426.3,410c.56-1.33,1.78-1.77,3-2.14a5.73,5.73,0,0,0,1.3-.45,1.86,1.86,0,0,1,1.93,0c1.67.77,2.68,2.71,3.56,4.19a6.19,6.19,0,0,1,.91,2c.13.67,0,1.36.14,2a4.15,4.15,0,0,1,.29,1.1c0,.43-.22.81-.21,1.26a2.36,2.36,0,0,1-.07,1.15,9,9,0,0,1-.58,1.11,4.91,4.91,0,0,1-1.33,1.82,13.61,13.61,0,0,1-2,1.16,6,6,0,0,1-1,.3c-.42.11-.78.37-1.2.49a6.15,6.15,0,0,1-3.46-.5c-2.13-.67-3.77-2.68-5.17-4.34a11.51,11.51,0,0,1-2.29-4.48,25.84,25.84,0,0,1-.4-2.78,9.88,9.88,0,0,1-.18-2.6,8.48,8.48,0,0,1,.85-2.74,17.73,17.73,0,0,1,1.46-2.72,6.08,6.08,0,0,1,2.38-1.82,7.58,7.58,0,0,0,1.52-.52,5.6,5.6,0,0,1,1.46-.8,6.6,6.6,0,0,1,5.62.56,20.9,20.9,0,0,1,3.46,2.58c.64.67,1.24,1.37,1.88,2.05a5.94,5.94,0,0,1,1.38,2.58,4.23,4.23,0,0,1,.24,1.72,5.36,5.36,0,0,1-.18,1.66c-.69,1.47-2.13,2.12-3,3.37a6.38,6.38,0,0,1-.48.76c-.33.34-.72.64-1.08,1a10.26,10.26,0,0,1-1.8,1.49,6.71,6.71,0,0,1-2.47.92,3.58,3.58,0,0,1-2.87-.77,9.74,9.74,0,0,1-2.85-2.35,12.89,12.89,0,0,1-2.07-4.44,9.92,9.92,0,0,1-.35-5,10.74,10.74,0,0,1,.7-2.51,10.63,10.63,0,0,1,1.47-1.83c1.1-1.26,2.93-1.57,4.45-2,.3-.08,1-.4,1.31-.31s.48.48.65.66"/><path d="M409.4,417.4c.57-1.32,1.78-1.76,3.05-2.13a6.13,6.13,0,0,0,1.3-.46,1.84,1.84,0,0,1,1.93,0c1.66.77,2.67,2.7,3.55,4.18a6.44,6.44,0,0,1,.92,2c.13.67,0,1.37.13,2a4.39,4.39,0,0,1,.3,1.09c0,.43-.22.82-.22,1.26a2.41,2.41,0,0,1-.07,1.16,9.63,9.63,0,0,1-.58,1.1,5,5,0,0,1-1.32,1.82,13.73,13.73,0,0,1-2,1.16,6.08,6.08,0,0,1-1,.3c-.42.11-.78.37-1.2.49a6.17,6.17,0,0,1-3.46-.5c-2.12-.67-3.77-2.68-5.16-4.34a11.56,11.56,0,0,1-2.3-4.47c-.2-.93-.28-1.85-.4-2.79a10.33,10.33,0,0,1-.18-2.6,8.56,8.56,0,0,1,.85-2.74,19.18,19.18,0,0,1,1.46-2.72,6.15,6.15,0,0,1,2.38-1.82,7.58,7.58,0,0,0,1.52-.52,5.6,5.6,0,0,1,1.46-.8,6.62,6.62,0,0,1,5.63.56,21.84,21.84,0,0,1,3.45,2.58c.65.67,1.25,1.38,1.88,2a6,6,0,0,1,1.39,2.58,4.4,4.4,0,0,1,.23,1.72,4.79,4.79,0,0,1-.18,1.66c-.69,1.47-2.12,2.12-3,3.37a5.66,5.66,0,0,1-.48.76c-.33.34-.72.65-1.07,1a10.64,10.64,0,0,1-1.8,1.49,6.82,6.82,0,0,1-2.48.92A3.61,3.61,0,0,1,411,426a9.89,9.89,0,0,1-2.84-2.36,12.91,12.91,0,0,1-2.08-4.44,10,10,0,0,1-.35-5,11.34,11.34,0,0,1,.7-2.52,11.67,11.67,0,0,1,1.47-1.83c1.1-1.26,2.93-1.57,4.46-2,.29-.08,1-.4,1.3-.31s.49.49.65.66"/><path class="cls-3" d="M388.32,536.11a77.28,77.28,0,0,1,9.48,13.1c5.3,9.5,12.15,18.26,17.14,27.84L417,595.18a16.78,16.78,0,0,0,2.27,6.69c4.39,7.37,11.72,21.7,15.83,25.77.69-.4,7.57-18.73,8-19.42,6.85-11.51,13.28-21,26.38-21.47,15.31-.59,30.66,7.85,39.43,20.17a18.86,18.86,0,0,1,2.13,4.26A29.77,29.77,0,0,0,513,615c.88,1.57,1.87,3.12,2.61,4.75.53,1.16,1.16,2.26,1.7,3.41a8.37,8.37,0,0,0,1,2.18c.31-.45.16-.92.18-1.43,0-.77-.35,2.18-.18,1.43,2.14-9.54,3.36-21.14-.87-29.55-4.11-8.18-13.11-19.08-18.83-26.24-3.32-4.15-6.07-8.75-9.89-12.52l-.29-.26-58.53-49.9a4.08,4.08,0,0,0-2.11-1c-.49-.07-1-.11-1.51-.19s-1-.39-1.46-.44-.75.08-1.14,0a19.69,19.69,0,0,1-3.35-1c-1.26-.35-2.51-.73-3.77-1.06-1.07-.27-2.1-.24-3.16-.55-1.44-.41-2.89-.81-4.33-1.2-11.81-3.23-30-10.91-35.33-23a15.65,15.65,0,0,0-1.43-2.48,14,14,0,0,1-1.85-5.11,7,7,0,0,1-.18-4.08l-1,.05a8.34,8.34,0,0,0-.31,2.55,13.12,13.12,0,0,1-.43,2.45c-4.6,16.44-11.8,33.56,3.41,47.14,2.78,2.49,6.05,4.46,8.37,7.37.94,1.18,1.71,2.49,2.7,3.61C384.83,532.15,386.61,534.13,388.32,536.11Z"/><path class="cls-4" d="M513.59,598.08a44.66,44.66,0,0,0-3.7-6.07c-4.25-5.87-9.91-10.54-16.5-12.44a27.69,27.69,0,0,0-12.36-.5,32.3,32.3,0,0,0-11.56.61c-1.56.39-5.29,1.85-6.78,2.45-9.27,3.81-17.09,9.85-20.89,19.39-2.72,6.82-7.07,21.83-9.58,36.27-6.53,13.56-12.33,27.52-16,42.27s-4.08,29.74-5,44.72a236.19,236.19,0,0,1-2.39,23.62c-.16,1-2.31,2.83-2.93,3.78a14.43,14.43,0,0,0-2.32,5.22c-1.06,6,1.51,14.68,5.29,19.43.09.12.19.23.29.35a19.12,19.12,0,0,1,2.32,4.79l12.3,32.86c2.94,7.85,5.72,16.06,9.86,23.38,5.69,10.06,9.34,21,12.1,32.22,1.66,6.73,3.68,13.37,5.08,20.16a80.75,80.75,0,0,1,1.57,10.72c.26,3.64,1.15,6.42-1.14,9.57-2.46,3.37-4.8,6.88-7.4,10.15-2.21,2.79-5.21,4.77-7.64,7.37-4.59,4.89-8.54,10.83-14.69,13.73a1.65,1.65,0,0,0-.92.74,2.53,2.53,0,0,0,.42,2.37,3.62,3.62,0,0,0,1.35,1.23c.27.13.58.19.84.33s.33.3.52.4a8.87,8.87,0,0,0,4,.94c.49,0,1,0,1.46,0a4.13,4.13,0,0,1,3.82-2.08c.85,0,1.69,0,2.54.09a4.69,4.69,0,0,1,1.69-.26c3.85.1,8.37.5,12.53,0,.57-.27,1.13-.54,1.73-.76,6.79-2.48,9.63-9.91,14.53-14.87,5.63-5.68,13.28-11.78,21.19-13.76a5,5,0,0,1,1.17-.16c4.8-1.35,10.85-2.78,11.25-7.62.25-3-2.79-7.68-4.33-10.17-3-4.9-7.76-7.36-11.75-11.27a35.59,35.59,0,0,1-8.17-11.53c-.6-1.42-1.1-2.88-1.6-4.34-6.15-17.89-.66-35.26-4.38-53.28a17.7,17.7,0,0,1-.63-2.08,11.75,11.75,0,0,0,.07-1.72c-.19-1-.87-1.78-.8-2.85a8.73,8.73,0,0,0,.21-2.29,67.59,67.59,0,0,0-1.66-8.22,85.4,85.4,0,0,1-1.5-8.77c-1.87-11-6.85-21.64-11.31-31.77.3-.55.59-1.1.85-1.64,9.36-19.39,21.54-37.38,31.61-56.42q10.37-19.59,19.68-39.75c5.33-11.53,12.33-23.49,13.18-36.5.06-.89.09-1.77.11-2.65A36.39,36.39,0,0,0,513.59,598.08Z"/><path class="cls-5" d="M368.42,253.3h0Z"/><path class="cls-5" d="M374.3,251.27c-.54,0-.63-.58-.62-.75s0-.38,0-.57a2.24,2.24,0,0,1,.23-.84c.21-.44.77-.79,1.14-1.12a3.49,3.49,0,0,1,.68-.6,1.22,1.22,0,0,0,.26-.06l.18-.13a1.94,1.94,0,0,1,.54-.13,1.78,1.78,0,0,1,1,0c.24.08.52.56-.39,1.63Z"/><path class="cls-6" d="M369.33,475.38c.17-.36.31-.73.48-1.09l-.05.12h0l.06-.14c.09-.23.19-.47.28-.71s.11-.29.16-.44a14.72,14.72,0,0,1,.68-1.89,28.76,28.76,0,0,1,.61-4.72,3.52,3.52,0,0,1-.24-.38,17.32,17.32,0,0,0-2.72-4.17l-.06-.08a33.59,33.59,0,0,0-1.18,16.93A27.76,27.76,0,0,0,369.33,475.38Z"/><path class="cls-6" d="M431,445.45A80.7,80.7,0,0,0,416.18,439l-.43-.13a30.25,30.25,0,0,1,11.79,9.49c3,1.56,6.58,3.47,9.47,5.14A87.28,87.28,0,0,0,431,445.45Z"/><path class="cls-6" d="M443.66,462.52c-1.3,4.34-3.66,10.9-5.21,15-3.49,9.16-7.29,18.18-13.82,25.66-.55.63-1.15,1.24-1.77,1.85l1.33.25c.53.11,1.06.23,1.59.33l.28.06.75.08a3.78,3.78,0,0,1,.91.21c.27-.31.56-.61.83-.93a67,67,0,0,0,8.08-12.44,133.94,133.94,0,0,0,5.6-13.24c1.24-3.28,3.14-8.86,4.26-12.19A36.27,36.27,0,0,1,443.66,462.52Z"/><path class="cls-5" d="M346.65,258.27l0,0a.84.84,0,0,0-1.11-.07c-1.13.89-2.93,1.69-3.68,2.93-.46.75-.69,1.62-1.21,2.34a8.8,8.8,0,0,0-1.34,2.08,1.9,1.9,0,0,1-.92,1.24,10.1,10.1,0,0,1-1.3.6c-.68.25-1.35.3-2,.54s-1.32.43-1.94.7a5.89,5.89,0,0,0-1,.5,37.76,37.76,0,0,0-6.32,4.51,10.74,10.74,0,0,0-2.5,3.51,28.78,28.78,0,0,1,.68,4.79l22.64-22.45A.84.84,0,0,0,346.65,258.27Z"/><path class="cls-5" d="M350.43,262c-.18-.06-1.6-.79-1.43-.95"/><path class="cls-5" d="M350.41,261.39a8.3,8.3,0,0,0-.73-.6"/><path class="cls-5" d="M351.21,260.87c0-.21-.48-.44-.62-.52l-.46-.31a.59.59,0,0,0-.3-.16"/><path class="cls-5" d="M426.32,447.28c-3.53-3.52-7.12-7-10.94-10.21-1.8-1.51-3.66-3-5.59-4.32-3.2-2.26-6.6-4.28-9.52-6.87-5.19-4.6-8.66-10.69-13-16.05-4.15-5.16-9.3-7.73-14.39-11.67a47.86,47.86,0,0,0-4.33-2.81c-2.05-1.25-4.36-2.19-6.49-3.3l-.2-.1c-.23-1-.51-2-.71-3a140.14,140.14,0,0,0-6.76-21.94c-2.59-6.47-2.88-13.47-4.44-20.19-1.76-7.57-3.38-15.12-5.08-22.72-1.42-6.34-2-12.84-3.18-19.23q-1.41-7.41-3.49-14.67c-.36-1.28-.68-2.47-1.05-3.57l2.56-2c.87-.68,1.87-1.18,2.72-1.91a24.2,24.2,0,0,0,2.39-2.36c1.49-1.68,4.52-3.33,6-5,2.75-3.19,4.94-4.8,7.91-8,.32-.35,2.69-2.42,3.08-2.71a53.16,53.16,0,0,0,4.79-4.1l4.13-3.7,1.13-1a2.39,2.39,0,0,1,.51-.34,4.57,4.57,0,0,0,.8-.72l.44-.5a1.36,1.36,0,0,0,.24-.44c0-.14.13-.38.15-.51s-.2-.46-.38-.64c-.44-.46-.82-.31-1.27-.11a6,6,0,0,1,1.07-.71,12.87,12.87,0,0,0,2.31-1.93,5.27,5.27,0,0,0,1.54-2.08,1.38,1.38,0,0,0-.21-1.27,1.27,1.27,0,0,0-1-.51c-.52,0-1-.11-1.35.23s-.84.54-1,1.16c0,0,0,0,0,0a.69.69,0,0,0-.09-.5c-.19-.3-.66-.35-1-.44a1.23,1.23,0,0,1-.55-.3,1.1,1.1,0,0,0-.9-.2,10,10,0,0,0-2.82,1.33c-.92.53-2,.86-2.88,1.42-.33.2-.66.41-1,.6s-.42.31-.66.45c-.62.38-1.17.82-1.77,1.23a19.26,19.26,0,0,0-1.81,1.3c-.33.28-.67.53-1,.8h0c-1.2-.21-1.26-.78-2.47-.68-.32,0-1.83.85-2.13,1a3.65,3.65,0,0,0-.72.34c-5.09,2.93-9.1,7.35-13.74,10.9-1.52,1.16-3,.92-4.36,2.29s-4.06,3-5.56,4.2a58.38,58.38,0,0,0-5.79,5.89,1,1,0,0,0-.24,0c-.59.19-1.65,2-2,2.62-2,3.19-2.06,7.84-2.27,11.43-.24,4-.17,8.07-.44,12.09-.23,3.53-1,6.93-1,10.44,0,4.09,0,8.2-.26,12.29-1.36,19.43-4.23,45.92,2.11,66.92-.18,2.35.79,4.76,1.7,6.83,2.26,5.13,6,9.42,9.45,13.8a8.3,8.3,0,0,0,.71,1l.29.28,12.95,16.74,13.79,17.82,7.93,10.25c2.92,3.77,1.87,13,5.2,16.41"/><path class="cls-5" d="M356.58,262.74c-.22-.24-.46-.48-.66-.74a.61.61,0,0,1-.12-.37c0-.14.12-.3.16-.44"/><path class="cls-5" d="M356.78,261.27l.42.46c.11.12.16.27.27.39"/><path class="cls-5" d="M357.11,260.76l.41.46.21.23a2.68,2.68,0,0,1,.18.28"/><path class="cls-5" d="M357.39,259.76a1.42,1.42,0,0,0,.31.29c.16.1.34.15.51.24a1.91,1.91,0,0,1,.35.27,1.62,1.62,0,0,1,.32.32"/><path class="cls-5" d="M360.1,262.18c.14.16.34.23.49.39l.16.18c.07.08.11.23.19.29"/><path class="cls-5" d="M360.23,263.81c-.13-.13-.19-.29-.31-.42l-.35-.39"/><path class="cls-5" d="M359.81,264.05l-.45-.51"/><path class="cls-5" d="M358.62,264.83l-.57-.64a1.74,1.74,0,0,1-.39-.67"/><path class="cls-5" d="M372.36,252.62c-1,.87-5,4.58-6,5.46l-1.48,1.32-.75.67c-.27.24-.47.53-.73.78-.69.67-1.31,1.4-2,2l-.87.78c-.52.47-1.11.84-1.67,1.27-.41.32-.82.61-1.21,1l-1,.93-4.25,3.8a16.8,16.8,0,0,0-1.68,1.89,15.81,15.81,0,0,1-1.53,1.93"/><path class="cls-5" d="M370,251.25a2.28,2.28,0,0,1-.51-1.43,2.23,2.23,0,0,1,.58-1.48,5.14,5.14,0,0,1,2.44-1.47,1.94,1.94,0,0,1,1.16.24.3.3,0,0,1,0,.46,207.26,207.26,0,0,1-16.35,14.72c-.88.79-2,1.36-2.88,2.11a2,2,0,0,1-.48.27L350.13,268"/><path class="cls-5" d="M358.85,253.25a.68.68,0,0,1,.13.39.82.82,0,0,1-.05.51,3.73,3.73,0,0,1-1.18,1.35c-.86.77-1.73,1.53-2.58,2.31-.24.22-.51.37-.76.58l-.53.47-.91.82c-.8.72-1.62,1.42-2.41,2.16-.64.6-1.15,1.34-1.76,2-.23.24-.52.45-.76.68a6.15,6.15,0,0,0-.73.95c-.22.3-.44.62-.69.91s-.54.42-.76.69-.21.35-.34.49l-.28.25c-.15.13-.25.31-.39.45s-.2.12-.2.25a.63.63,0,0,0,.23-.2.08.08,0,0,0,.08,0"/><path class="cls-5" d="M355.77,257.19c0-.09-.27-.36-.23-.49s0-.28.09-.42a2.51,2.51,0,0,1,.45-.85,13.68,13.68,0,0,1,1.13-1,2.62,2.62,0,0,1,.3-.28l.2-.13a8.76,8.76,0,0,1,1-.61c.26-.1.26,0,.49.08s.31.34-.57,1.28Z"/><path class="cls-5" d="M370.24,257.44c-.05-.1-.29-.4-.25-.53s.05-.31.1-.47a2.4,2.4,0,0,1,.48-.92,15.93,15.93,0,0,1,1.22-1.1c.11-.1.21-.21.32-.3l.22-.14a9.45,9.45,0,0,1,1.13-.66c.27-.1.28.05.53.09s.34.37-.61,1.39Z"/><path d="M97.35,227.85a68.34,68.34,0,0,0,2.26,33.88,81.51,81.51,0,0,0,15.44,27A88.38,88.38,0,0,0,127,300.4c1.49,1.2,3.62-.91,2.12-2.12-15.47-12.49-27.31-30.61-29.53-50.65a65,65,0,0,1,.69-19c.35-1.89-2.54-2.69-2.89-.8Z"/><path d="M122.78,285.81c1.69,4.63,2.92,9.41,4.25,14.16l1.45-1.9c-2.49.06-5,.24-7.47.34-2.31.1-4.62.1-6.94.2-1.92.09-1.93,3.09,0,3,2.32-.1,4.63-.1,6.94-.2,2.49-.1,5-.28,7.47-.34a1.52,1.52,0,0,0,1.44-1.9c-1.33-4.75-2.56-9.52-4.24-14.16a1.55,1.55,0,0,0-1.85-1.05,1.52,1.52,0,0,0-1,1.85Z"/><path d="M75.44,148.57v17.26H72.36V148.57Z"/><path d="M82.74,149.26V153H86l-.42,2.47H82.74v5.92c0,1.4.64,2,1.68,2a5.72,5.72,0,0,0,2-.57l.56,2.34a8.09,8.09,0,0,1-3.27.84c-3,0-4-2-4-4.14V155.5H77.88V153h2l.37-3.42Z"/><path d="M96.48,152.91l.44,2.29a4.34,4.34,0,0,1,4-2.44,3.77,3.77,0,0,1,3.85,2.39,4.55,4.55,0,0,1,4.16-2.39c3,0,4.22,2,4.22,4.64v8.43h-3.06v-7.45c0-2-.47-3-2.14-3-2.22,0-2.81,1.68-2.81,3.58v6.9h-3.06v-7.45c0-2-.47-3-2.15-3-2.36,0-2.83,1.9-2.83,4v6.51H94V152.91Z"/><path d="M119.15,152.91v7.45c0,2,.79,3,2.59,3,2.34,0,3.3-2.42,3.3-4.86v-5.62h3.06v12.92h-2.44l-.45-2.81a4.7,4.7,0,0,1-4.46,3c-3.16,0-4.66-1.95-4.66-5.2v-7.87Z"/><path d="M131.6,162.13a6.72,6.72,0,0,0,4.19,1.43c1.48,0,2.35-.44,2.35-1.5,0-2.52-7.47-.84-7.23-5.57.1-2.32,1.8-3.7,5.23-3.7A10.49,10.49,0,0,1,140.8,154l-1.08,2.17a7.36,7.36,0,0,0-3.7-1.07c-1.21,0-2.22.4-2.17,1.41.15,2.05,7.32.47,7.32,5.45,0,2.66-2.39,4-5.45,4a8.86,8.86,0,0,1-5.3-1.68Z"/><path d="M147.63,149.26V153h3.26l-.42,2.47h-2.84v5.92c0,1.4.65,2,1.68,2a5.72,5.72,0,0,0,1.95-.57l.57,2.34a8.21,8.21,0,0,1-3.28.84c-3,0-4-2-4-4.14V155.5h-1.8V153h1.94l.37-3.42Z"/><path d="M162,147v8.21a4.39,4.39,0,0,1,4.31-2.41c2.44.07,5.06,1.72,5.06,6.48,0,3.9-2,6.71-5.45,6.71a4.28,4.28,0,0,1-4.07-2.37l-.42,2.22h-2.49V147.39Zm-.12,12.36c0,2.21.81,4,3.25,4,2,0,3.11-1.5,3.11-4,0-3-1.51-4-3.13-4C163.32,155.35,161.87,156.76,161.87,159.35Z"/><path d="M185.39,162.28a5.76,5.76,0,0,1-5.57,3.7c-4.34,0-6.26-2.71-6.26-6.76s2.71-6.53,6.43-6.43c3,.07,5.75,2.34,5.45,6.46l-.05.39h-8.73c0,2.2.94,3.7,3.18,3.7a2.87,2.87,0,0,0,2.79-2.05Zm-3.13-4.22c.05-2-1-2.93-2.54-2.88a2.87,2.87,0,0,0-2.91,2.88Z"/><path d="M196.35,147v8.21a4.39,4.39,0,0,1,4.31-2.41c2.44.07,5.06,1.72,5.06,6.48,0,3.9-1.95,6.71-5.45,6.71a4.27,4.27,0,0,1-4.07-2.37l-.42,2.22h-2.49V147.39Zm-.13,12.36c0,2.21.82,4,3.26,4,2,0,3.1-1.5,3.1-4,0-3-1.5-4-3.13-4S196.22,156.76,196.22,159.35Z"/><path d="M214.23,152.79c3.23,0,6,2.19,6,6.6,0,3.63-2.15,6.59-6.17,6.59-4.36,0-6.16-3-6.16-6.59C207.94,155,210.72,152.79,214.23,152.79Zm-3.09,6.6c0,2.05.69,4,3,4,2.1,0,3-1.95,3-4,0-2.86-1.41-4-3-4S211.14,156.49,211.14,159.39Z"/><path d="M226,147v14.62c0,1.39.62,1.76,1.53,1.76a2.42,2.42,0,0,0,1.28-.47l.57,2.19a5.35,5.35,0,0,1-2.79.89c-2.56,0-3.65-1.73-3.65-4.07V147.36Z"/><path d="M242.49,147v18.84h-2.56l-.35-2.22a4.52,4.52,0,0,1-4.12,2.37c-3.47.05-5.55-2.84-5.55-6.63,0-4.64,3-6.56,5.53-6.56a4.1,4.1,0,0,1,4,2.44v-7.84Zm-9.42,12.33c0,2.2.86,3.92,3.16,3.92s3.25-1.72,3.25-3.89c0-2.94-1.58-4-3.28-4S233.07,156.49,233.07,159.32Z"/><path d="M246.61,165.49a1.42,1.42,0,0,1-1.63-1.58,1.6,1.6,0,0,1,1.73-1.53c1.7,0,2.37,1.33,2.24,2.91-.19,2.34-2,3.28-4,3.3v-1.33c1.16,0,2-.62,2-1.36C246.91,165.71,246.61,165.49,246.61,165.49Z"/><path d="M259.73,147v8a4.82,4.82,0,0,1,4.24-2.19c3,0,4.49,1.94,4.49,4.61v8.43H265.4v-7.45c0-2-.74-3-2.41-3-2.35,0-3.26,1.9-3.26,4v6.51h-3.06V147.36Z"/><path d="M275.54,152.91v12.92h-3.08V155.45h-1.8v-2.54Zm-1.55-5a1.6,1.6,0,1,1,0,3.16,1.63,1.63,0,0,1-1.8-1.63A1.59,1.59,0,0,1,274,147.88Z"/><path d="M290.73,152.91v11c0,4.29-1.67,6.88-6.41,6.88a13.36,13.36,0,0,1-5.28-1.11l.72-2.31a11.13,11.13,0,0,0,4.22,1c2.78,0,3.69-1.38,3.69-3.5v-1.14a4.44,4.44,0,0,1-4,2.05c-3.48.07-5.48-2.57-5.48-6.36,0-4.64,3-6.56,5.52-6.56a4.28,4.28,0,0,1,4.1,2.34l.32-2.22Zm-9.32,6.41c0,2.2.86,3.92,3.16,3.92s3.2-1.72,3.2-3.89c0-2.94-1.55-4-3.23-4S281.41,156.49,281.41,159.32Z"/><path d="M297,147v8a4.81,4.81,0,0,1,4.24-2.19c3,0,4.49,1.94,4.49,4.61v8.43h-3.06v-7.45c0-2-.74-3-2.41-3-2.35,0-3.26,1.9-3.26,4v6.51h-3.06V147.36Z"/><path d="M72.38,187.64a15.49,15.49,0,0,1,4.89-.94c3.89,0,5.32,1.92,5.32,4.93v5.23a.65.65,0,0,0,.62.74,2.41,2.41,0,0,0,1-.15v2.05a5,5,0,0,1-2,.39,2.34,2.34,0,0,1-2.34-1.75,5.64,5.64,0,0,1-3.89,1.75c-2.52,0-4.39-1.28-4.42-4s2-4.09,5.25-4.09a19.85,19.85,0,0,1,2.79.25v-.77c0-1.4-.89-2.17-2.66-2.14a10.41,10.41,0,0,0-4,.79Zm7.16,6a13.13,13.13,0,0,0-2.52-.15c-1.48.07-2.42.77-2.44,2.07a1.81,1.81,0,0,0,2.1,1.9,5.1,5.1,0,0,0,2.86-1Z"/><path d="M88.76,186.82l.47,2.3a4.76,4.76,0,0,1,4.41-2.42c3,0,4.49,2,4.49,4.61v8.43H95.07V192.3c0-2-.74-3-2.41-3-2.35,0-3.26,1.89-3.26,4v6.51H86.34V186.82Z"/><path d="M113.32,180.91v18.83h-2.56l-.35-2.21a4.5,4.5,0,0,1-4.11,2.36c-3.48.05-5.55-2.83-5.55-6.63,0-4.64,3-6.56,5.52-6.56a4.09,4.09,0,0,1,4,2.44V181.3Zm-9.42,12.32c0,2.2.87,3.93,3.16,3.93s3.26-1.73,3.26-3.9c0-2.93-1.58-4-3.28-4S103.9,190.4,103.9,193.23Z"/><path d="M132.86,196.12c-.84,2.64-3,3.77-5.62,3.77-4.24,0-6.07-3.15-6.07-6.61,0-4.21,2.61-6.51,6.14-6.58,3.11-.07,5,1.53,5.5,3.8l-2.84.91a2.54,2.54,0,0,0-2.61-2.12c-1.78,0-3.13,1.31-3.13,3.94,0,2.1.79,4,3.08,4a2.6,2.6,0,0,0,2.71-2Z"/><path d="M141.15,186.7c3.23,0,6,2.19,6,6.61,0,3.62-2.15,6.58-6.17,6.58-4.36,0-6.16-3-6.16-6.58C134.86,188.89,137.65,186.7,141.15,186.7Zm-3.09,6.61c0,2.05.69,4,3,4,2.1,0,3-1.94,3-4,0-2.86-1.41-4-3-4C139.45,189.29,138.06,190.4,138.06,193.31Z"/><path d="M152.32,186.82l.47,2.3a4.76,4.76,0,0,1,4.41-2.42c3,0,4.49,2,4.49,4.61v8.43h-3.06V192.3c0-2-.74-3-2.41-3-2.35,0-3.26,1.89-3.26,4v6.51H149.9V186.82Z"/><path d="M165.66,187V185.2c0-2.64,1.38-4.29,4.25-4.29a6.9,6.9,0,0,1,2.12.32l-.47,2.19c-.1,0-.5-.07-.89-.07-1.36,0-1.92.56-1.92,2.34V187H176v12.79h-3.06V189.41h-4.16v10.33h-3.09V189.41h-2V187Zm8.81-5.16a1.65,1.65,0,0,1,1.8,1.56,1.62,1.62,0,0,1-1.8,1.6,1.64,1.64,0,0,1-1.83-1.63C172.64,182.48,173.28,181.79,174.47,181.79Z"/><path d="M191.21,180.91v18.83h-2.56l-.35-2.21a4.5,4.5,0,0,1-4.11,2.36c-3.48.05-5.55-2.83-5.55-6.63,0-4.64,3-6.56,5.52-6.56a4.09,4.09,0,0,1,4,2.44V181.3Zm-9.42,12.32c0,2.2.87,3.93,3.16,3.93s3.26-1.73,3.26-3.9c0-2.93-1.58-4-3.28-4S181.79,190.4,181.79,193.23Z"/><path d="M205.69,196.19a5.75,5.75,0,0,1-5.57,3.7c-4.34,0-6.26-2.71-6.26-6.75s2.71-6.54,6.43-6.44c3,.07,5.75,2.34,5.45,6.46l-.05.4H197c0,2.19.94,3.69,3.18,3.69a2.87,2.87,0,0,0,2.79-2ZM202.56,192c.05-2-1-2.94-2.54-2.89a2.88,2.88,0,0,0-2.91,2.89Z"/><path d="M210.85,186.82l.47,2.3a4.76,4.76,0,0,1,4.41-2.42c3,0,4.49,2,4.49,4.61v8.43h-3.06V192.3c0-2-.74-3-2.42-3-2.34,0-3.25,1.89-3.25,4v6.51h-3.06V186.82Z"/><path d="M227.3,183.17V187h3.25l-.42,2.46H227.3v5.92c0,1.41.64,1.95,1.68,1.95a5.43,5.43,0,0,0,1.94-.57l.57,2.34a7.94,7.94,0,0,1-3.28.84c-3,0-4-2-4-4.14v-6.34h-1.8V187h1.95l.37-3.43Z"/><path class="cls-7" d="M95.79,61.4A36.74,36.74,0,0,1,104.16,38a34.44,34.44,0,1,0,.11,46.9A36.78,36.78,0,0,1,95.79,61.4ZM87.2,75.66H70.92L71,73.39l4.46-.58c.58,0,.81-.23.81-1,.08-10.05,0-19.6,0-19.6l-5.62,1.08c-.19-.31-1.12-2.46-.46-2.73l10.35-4,1,1s-.12,20.87,0,24.37c0,.77.19,1,.73,1l5.08.54Z"/><circle cx="130" cy="61.53" r="34.44"/><text class="cls-8" transform="translate(118.45 75.26)">2</text><path d="M184,52.13l8.43,15.27V52.13h3.75v21h-4.59L183.3,58.34V73.13h-3.75v-21Z"/><path d="M213.6,68.81a7,7,0,0,1-6.78,4.5c-5.28,0-7.62-3.3-7.62-8.22s3.3-8,7.83-7.83c3.69.09,7,2.85,6.63,7.86l-.06.48H203c0,2.67,1.14,4.5,3.87,4.5a3.5,3.5,0,0,0,3.39-2.49Zm-3.81-5.13c.06-2.43-1.26-3.57-3.09-3.51a3.5,3.5,0,0,0-3.54,3.51Z"/><path d="M219.69,57.41l3.15,6.18,3.3-6.18h4l-4.35,7.8,4.53,7.92h-4.26L222.78,67l-3.45,6.12h-4.14L220,65.27l-4.29-7.86Z"/><path d="M238.11,53v4.59h4l-.51,3h-3.45v7.2c0,1.71.78,2.37,2,2.37a6.83,6.83,0,0,0,2.37-.69l.69,2.85a9.82,9.82,0,0,1-4,1c-3.69,0-4.83-2.46-4.83-5V60.56H232.2v-3h2.37l.45-4.17Z"/><path d="M256.74,57.41V73.13H253V60.5H250.8V57.41Zm-1.89-6.12a2,2,0,0,1,2.22,1.89,2.22,2.22,0,0,1-4.41,0A1.93,1.93,0,0,1,254.85,51.29Z"/><path d="M261,68.63a8.15,8.15,0,0,0,5.1,1.74c1.8,0,2.85-.54,2.85-1.83,0-3.06-9.09-1-8.79-6.78.12-2.82,2.19-4.5,6.36-4.5a12.78,12.78,0,0,1,5.67,1.47l-1.32,2.64a8.9,8.9,0,0,0-4.5-1.29c-1.47,0-2.7.48-2.64,1.71.18,2.49,8.91.57,8.91,6.63,0,3.24-2.91,4.92-6.63,4.89a10.76,10.76,0,0,1-6.45-2Z"/><path d="M286.77,53v4.59h4l-.51,3h-3.45v7.2c0,1.71.78,2.37,2,2.37a6.83,6.83,0,0,0,2.37-.69l.69,2.85a9.82,9.82,0,0,1-4,1c-3.69,0-4.83-2.46-4.83-5V60.56h-2.19v-3h2.37l.45-4.17Z"/><path d="M294.09,58.4A18.74,18.74,0,0,1,300,57.26c4.74,0,6.48,2.34,6.48,6v6.36a.79.79,0,0,0,.75.9,3,3,0,0,0,1.23-.18v2.49a6.08,6.08,0,0,1-2.49.48,2.84,2.84,0,0,1-2.85-2.13,6.87,6.87,0,0,1-4.74,2.13c-3.06,0-5.34-1.56-5.37-4.83s2.46-5,6.39-5a24.49,24.49,0,0,1,3.39.3v-.93c0-1.71-1.08-2.64-3.24-2.61a12.68,12.68,0,0,0-4.86,1Zm8.7,7.35a16.62,16.62,0,0,0-3.06-.18c-1.8.09-2.94.93-3,2.52a2.21,2.21,0,0,0,2.55,2.31,6.17,6.17,0,0,0,3.48-1.26Z"/><path d="M314.79,50.21V64h1.74l3.66-6.45h4.2l-4.71,7.77,5.13,7.86h-4.29l-4-6.09h-1.77v6.09h-3.72V50.66Z"/><path d="M340.59,68.81a7,7,0,0,1-6.78,4.5c-5.28,0-7.62-3.3-7.62-8.22s3.3-8,7.83-7.83c3.69.09,7,2.85,6.63,7.86l-.06.48H330c0,2.67,1.14,4.5,3.87,4.5a3.5,3.5,0,0,0,3.39-2.49Zm-3.81-5.13c.06-2.43-1.26-3.57-3.09-3.51a3.5,3.5,0,0,0-3.54,3.51Z"/><path d="M349.68,63.56v3h-7.44v-3Z"/><path d="M359,57.26c3.93,0,7.35,2.67,7.35,8,0,4.41-2.61,8-7.5,8-5.31,0-7.5-3.6-7.5-8C351.33,59.93,354.72,57.26,359,57.26Zm-3.75,8c0,2.49.84,4.86,3.66,4.86,2.55,0,3.69-2.37,3.69-4.86,0-3.48-1.71-4.89-3.6-4.89C356.91,60.41,355.23,61.76,355.23,65.3Z"/><path d="M370.56,57.56V55.43c0-3.21,1.68-5.22,5.19-5.22a8.28,8.28,0,0,1,3,.54l-.48,2.61a7.71,7.71,0,0,0-1.59-.18c-1.65,0-2.34.69-2.34,2.85v1.53h3.42l-.48,3h-2.94V73.13h-3.75V60.56H368.1v-3Z"/><path d="M381.12,57.56V55.43c0-3.21,1.68-5.22,5.19-5.22a8.28,8.28,0,0,1,3,.54l-.48,2.61a7.71,7.71,0,0,0-1.59-.18c-1.65,0-2.34.69-2.34,2.85v1.53h3.42l-.48,3h-2.94V73.13h-3.75V60.56h-2.46v-3Z"/></svg>