<svg id="Layer_1" data-name="Layer 1" xmlns="http://www.w3.org/2000/svg" viewBox="0 0 780 1051.14"><defs><style>.cls-1,.cls-2,.cls-4{fill:#d4a47c;}.cls-1,.cls-2,.cls-3,.cls-4,.cls-5,.cls-6{stroke:#fff;stroke-miterlimit:10;}.cls-1{stroke-width:0.36px;}.cls-2{stroke-width:0.27px;}.cls-3{fill:#005058;stroke-width:0.47px;}.cls-4{stroke-width:0.31px;}.cls-5{fill:#c6946f;stroke-width:0.25px;}.cls-6{fill:#fff171;stroke-width:0.3px;}.cls-7,.cls-8{fill:#fff;}.cls-7{opacity:0.7;}</style></defs><path class="cls-1" d="M434.9,507.86c0-14,5.84-28.27,7.11-42.43a194.28,194.28,0,0,0-1.53-47.33c-3.14-20-3.89-44.72-19-60.08,0,0-.33-.44-.71-1,.17-.28-.48-1.08-1.55-2.13l-.24-.32a1.26,1.26,0,0,0-.28-.19c-3.41-3.25-9.76-8.35-9.28-9.17.6-1.05-2.75-5.42-1.35-5.6s1.55,1.57,2,2.59c.35.84,1,1.41,1.46,2.22a7.43,7.43,0,0,0,.86,1.77,6.2,6.2,0,0,0,4,2.09c1.76,0,3.07-1.49,4.75-1.7a5.69,5.69,0,0,1,2.14.34,2.62,2.62,0,0,1,.19-1.65c1.59-3.57,5.07-5.41,7.63-8.16a19.13,19.13,0,0,0-2.4-2.44,28.1,28.1,0,0,1-3.69-3.94c-1-1.27-2.24-2.09-2.34-3.69-.08-1.24.58-2.38.49-3.6a20.79,20.79,0,0,1-.33-2.48,30.32,30.32,0,0,1,.63-3.91c.47-2.88.69-5.87,1-8.78a24.36,24.36,0,0,0-.53-9.39,19.54,19.54,0,0,0-4.85-8.19,43.5,43.5,0,0,0-5.47-5,73.63,73.63,0,0,0-9.27-5.6c-3.61-1.85-8.33-2.62-12.34-2.83-3-.16-5.81-.76-8.84-.59a25.33,25.33,0,0,0-8.71,2.5,27.73,27.73,0,0,1-7.24,1.65c-1.26.2-2.35.94-3.65,1.19a28.43,28.43,0,0,0-4.56,1.14c-2.83,1.09-4,3.4-5.37,5.86-.92,1.65-1.22,3.46-2.17,5.11a14.06,14.06,0,0,0-1.08,2.52c-.33,1-.9,1.76-1.23,2.74-.16.47-.1.92-.25,1.42s-.55.69-.61,1.22a20.11,20.11,0,0,0,.43,3.13,27,27,0,0,1,.23,3.69,1.88,1.88,0,0,0,0,.4c-.06,0-.19.09-.41.35a12.12,12.12,0,0,1-2.15,1.82c-1.9,1.5-2.31,1.29-4.3,3.21a27,27,0,0,0-3.41,3.9,3.41,3.41,0,0,0,1.35,5.11,1.84,1.84,0,0,1,.92.87,4.74,4.74,0,0,1,.82,3.38,19.66,19.66,0,0,0-.93,2.87,18.49,18.49,0,0,0,.26,5.56c.31,1.49,1,2.15.33,3.5-.49,1-1,1.93-1.57,2.88-1,1.79-1.41,3.72.13,5.34,2.06,2.18,6.6,3,9.31,4,9.32,3.32,18.42,6.7,27.8,9.72a27.92,27.92,0,0,1,15.47,11.45l2.91.88c-.72,1.68-1.52,3.33-2.24,4.95s-1.14,3.71-2,5.17-2.25,2.5-3.34,3.87c-1.43,1.8-2.25,4-3.53,5.85-2.46,3.64-6.52,6.57-9.59,9.72s-3.75,5.47-3.72,9.78c0,3.46-.9,8.13.49,11.29.63,1.45,1.74,2.57,2.36,4.05a72.81,72.81,0,0,1,3.13,7.87c1.41,5,5,9,7.26,13.69,1.28,2.61,2.87,4.91,3.86,7.62.62,1.71,1,3.55,1.7,5.26,1.76,4.45,2.89,9.59,5.1,13.8a100.1,100.1,0,0,0,9.1,13.75c1.66,2.17,3.72,3.86,5.32,6.09a57.54,57.54,0,0,0,5.1,6.71,52,52,0,0,1,8.13,11c2.83,5.2,7.08,10.4,12.87,12.25,1-1.54-.08-2.9-.42-4.41a24.4,24.4,0,0,1-.2-5.34C434.91,514,434.9,510.92,434.9,507.86Z"/><path d="M359.62,303.38c.29.21.55.46.82.69s.47.44.46.68,0,.1-.09.1-.21-.11-.28-.14a1.63,1.63,0,0,0-.31-.11c-.42-.11-.86-.17-1.29-.27-.25-.07-.49-.1-.74-.18-1.49-.5-2.88-1.51-4.41-1.83a7.15,7.15,0,0,0-4.34.83c-.08-.51-.41-2.15.08-2.44.69-.42,2.78.06,3.61-.06a6.49,6.49,0,0,1,4.41,1C358.28,302.16,358.9,302.84,359.62,303.38Z"/><path d="M432.4,331.69c-1.56-1.95-3.58-3.77-4.87-5.88-4.14-6.73-.48-15.44-1.34-23.29-.71-6.46-4.58-12.27-9.57-16.43s-11-6.86-17.12-9.09c-5.65-2.07-11.54-3.81-17.56-3.79-4.05,0-15.81,1.83-16.53,7.16s7.48,10.84,7.57,16.74c0,3-1.3,6-.72,8.9a24,24,0,0,0,1.6,4.2c1,2.53,1.33,5.3,2.5,7.76s3.56,4.68,6.26,4.39a11.12,11.12,0,0,1,2.41-5.25c1.35-1.41,2.19-.48,3.83.58,2.25,1.45,3.33,3.3,2.07,5.67s-3.15,4.6-3.14,7.28c0,2.89,2.26,5.22,4.35,7.22,3.59,3.44,11.87,6.76,15.46,10.2,2.61-1.43,2.07-.57,4.76-1.84,2-1-.16-4.67,1.81-3.57a18.41,18.41,0,0,0,12.32,2c3.92-.76,8-3.54,8.12-7.53A8.38,8.38,0,0,0,432.4,331.69Z"/><path d="M364.74,281l.91-.18c0-.07,0-.14,0-.21A2.84,2.84,0,0,0,364.74,281Z"/><path class="cls-2" d="M379.52,322.47c-2-4.88,5.71-8.3,9.26-6.48a6.54,6.54,0,0,1,2.79,8.4c-1.5,3-5.18,4.46-6.86,7.4-.89,1.55-1.24,3.52-2.7,4.56s-4.22-.6-3.11-2"/><path d="M419.92,329.1a7.18,7.18,0,0,0,2.92-1.72,11.74,11.74,0,0,1,3.55-1.79,6.08,6.08,0,0,1,4.48,0,6.64,6.64,0,0,1,3,2.67,6.54,6.54,0,0,1,1.17,3.43c-.17,1.28-1.55,2.9-2.14,4a6.66,6.66,0,0,1-3.64,2.75,6,6,0,0,1-4.66.28,19.67,19.67,0,0,1-7.74-7.21c-1-1.45-.63-3.83-.14-5.45s1.79-4.13,3.21-5.13c2.72-1.93,6.36,0,8.46,1.95,1.26,1.14,2.42,2.41,2.28,4.24a9.72,9.72,0,0,1-1.55,4.12,18.13,18.13,0,0,1-2.72,4.22,6.65,6.65,0,0,1-2,1.75,21.19,21.19,0,0,0-2.67,1.28,8.19,8.19,0,0,1-3.12,1.13,3.18,3.18,0,0,1-2.47-.53,10.41,10.41,0,0,1-2.42-1.81c-.46-.45-.73-1.06-1.15-1.54-.72-.84-.7-.89-.16-2"/><path d="M424.26,326.59c.1-1.43,1.11-2.24,2.19-3a6.11,6.11,0,0,0,1.08-.85,1.84,1.84,0,0,1,1.83-.61c1.83.19,3.41,1.69,4.72,2.82a6.09,6.09,0,0,1,1.5,1.58c.34.59.45,1.29.78,1.86.2.34.51.55.63.95s.06.84.21,1.26a2.36,2.36,0,0,1,.3,1.11,8.29,8.29,0,0,1-.19,1.23,5,5,0,0,1-.67,2.16,16.13,16.13,0,0,1-1.55,1.76,5.93,5.93,0,0,1-.88.6c-.36.25-.62.61-1,.85a6.08,6.08,0,0,1-3.43.65c-2.23.05-4.44-1.32-6.29-2.45a11.39,11.39,0,0,1-3.62-3.49,28.09,28.09,0,0,1-1.27-2.51,10.11,10.11,0,0,1-1-2.4,8.64,8.64,0,0,1-.08-2.87,19.4,19.4,0,0,1,.5-3.05,6.3,6.3,0,0,1,1.67-2.49,7.06,7.06,0,0,0,1.27-1,5.72,5.72,0,0,1,1.13-1.23,6.59,6.59,0,0,1,5.5-1.28,21.68,21.68,0,0,1,4.11,1.33c.82.42,1.62.9,2.43,1.33a5.92,5.92,0,0,1,2.15,2,4.2,4.2,0,0,1,.78,1.55,5.26,5.26,0,0,1,.36,1.62c-.18,1.61-1.33,2.7-1.77,4.16a4.88,4.88,0,0,1-.21.88c-.2.43-.47.84-.7,1.26a10.12,10.12,0,0,1-1.22,2,6.91,6.91,0,0,1-2,1.67,3.57,3.57,0,0,1-3,.2,9.67,9.67,0,0,1-3.45-1.31,12.87,12.87,0,0,1-3.4-3.54,10,10,0,0,1-1.93-4.59,10.33,10.33,0,0,1-.15-2.6,11,11,0,0,1,.8-2.21c.64-1.55,2.27-2.43,3.58-3.3.26-.17.81-.7,1.14-.72s.61.3.82.42"/><path d="M410.65,339.07c.11-1.44,1.12-2.25,2.2-3a6.61,6.61,0,0,0,1.08-.85,1.85,1.85,0,0,1,1.83-.62c1.82.19,3.4,1.7,4.71,2.82A6.3,6.3,0,0,1,422,339c.34.59.45,1.29.78,1.87.2.33.51.54.63.94s.06.84.2,1.26a2.33,2.33,0,0,1,.31,1.12,10.46,10.46,0,0,1-.19,1.23,5.06,5.06,0,0,1-.67,2.15,14.44,14.44,0,0,1-1.56,1.76,6.76,6.76,0,0,1-.87.61c-.36.24-.62.6-1,.85a6.27,6.27,0,0,1-3.44.65c-2.22.05-4.43-1.33-6.28-2.45a11.53,11.53,0,0,1-3.62-3.5c-.49-.81-.86-1.65-1.27-2.5a9.62,9.62,0,0,1-1-2.41,8.14,8.14,0,0,1-.08-2.87,19.28,19.28,0,0,1,.5-3,6.23,6.23,0,0,1,1.67-2.49,8.6,8.6,0,0,0,1.27-1,5.7,5.7,0,0,1,1.12-1.23,6.59,6.59,0,0,1,5.51-1.28,20.54,20.54,0,0,1,4.11,1.33c.82.42,1.61.89,2.43,1.33a6,6,0,0,1,2.15,2,4.11,4.11,0,0,1,.77,1.55,5,5,0,0,1,.37,1.63c-.18,1.61-1.33,2.69-1.77,4.15a4.69,4.69,0,0,1-.21.88c-.2.43-.47.84-.7,1.26a10.38,10.38,0,0,1-1.22,2,6.88,6.88,0,0,1-2.05,1.66,3.61,3.61,0,0,1-3,.21,10.11,10.11,0,0,1-3.46-1.31,13,13,0,0,1-3.39-3.54,9.94,9.94,0,0,1-1.93-4.6,10.33,10.33,0,0,1-.15-2.6,11.25,11.25,0,0,1,.8-2.21c.63-1.55,2.27-2.43,3.58-3.3.26-.17.81-.7,1.14-.71s.61.3.82.41"/><path class="cls-3" d="M409.29,445.19c0,1.41,0,2.82,0,4.23a12.27,12.27,0,0,0,.79,3.36,35.14,35.14,0,0,0,1,4.25,38.35,38.35,0,0,1,1.54,5.46c.85,3.49,1.6,7.07,2.62,10.52s1.73,7,2.76,10.47c.85,2.88,1.59,5.71,2.54,8.54a45.57,45.57,0,0,0,4.31,8.75c.86,1.42,1.72,2.86,2.53,4.31s2.06,2.38,2.93,3.77a16.36,16.36,0,0,0,3.83,4c.69.51,2.05,2.32,2.94,2.3l.42.42c5,5.1,7.88,14.33,11.7,20.52a68.66,68.66,0,0,1,10.88,37.18c0,1.61-1.55,9.38-3,10.22-.82-2.14-.37-5.35-.9-7.6a49.21,49.21,0,0,0-1.9-7.2c-.84-2.06-1.39-4.21-2.1-6.33-.91-2.69-2.1-5.3-3-8-1.72-5.07-6.23-9.1-10.19-12.46-1.36-1.16-3.44-1.89-5-2.71-10.49-5.45-28.47-8-39.88-4.12a17.72,17.72,0,0,0-5.91,3.1c-1.5,1.29-2.18,3.56-2.83,5.35a62.27,62.27,0,0,0-1.94,6.55,52.31,52.31,0,0,1-1.48,6.38,18.31,18.31,0,0,0-.84,5.58l-.44,7.07,0,.57a71.85,71.85,0,0,1-1.34,10.09c-1.55.08-3.17-3.32-3.42-4.31a47.4,47.4,0,0,1-1.58-6.84c-.53-5.61-1-11.29-2.08-16.82-1.24-6.47-4.54-12.49-5.3-19-.9-7.74-2-15.45-1.91-23.26,0-4,0-7.91,0-11.86s.3-8-.3-11.95a39.74,39.74,0,0,1-.53-4.07c-.11-1.76-.82-3.13-1.19-4.83-.63-2.85-1-5.69-1.8-8.51-.73-2.55-1-5.23-1.56-7.84-.2-1-.39-2.06-.64-3.09a8.77,8.77,0,0,0-.73-2.92l-.42-3a14.83,14.83,0,0,0-.31-4.21,36.19,36.19,0,0,0-1.48-4.21c-.92-2.25-1.76-4.55-2.74-6.76a24.09,24.09,0,0,1-2.22-8.65c-.12-2.55-.41-4.9-.42-7.48a30.58,30.58,0,0,1,1.26-8.87,29,29,0,0,1,1.69-3.75,19.45,19.45,0,0,1,1.18-2.48c.56-.92.72-2,1.34-2.86.35-.49.85-.82,1.19-1.32s.54-1.24.91-1.81c.62-.94,1.53-1.6,2.14-2.52a11.27,11.27,0,0,1,1.56-2.14c1.23-1.2,2.27-2.46,3.48-3.66.53-.52,1.11-1,1.62-1.58s.71-1.64,1.35-2.23l5.06-2.1c0,1.39,0,2.79,0,4.18a5,5,0,0,0,.33,1.69,12.74,12.74,0,0,1,.08,2.05c.16,1.31.67,2.57.85,3.89a26.68,26.68,0,0,0,.95,3.36,47.07,47.07,0,0,0,3,7.25c.73,1.53,1.69,2.92,2.35,4.47a37.22,37.22,0,0,0,2.4,3.93,73.66,73.66,0,0,0,7.08,10.11c2.16,2.65,4.48,5.33,6.85,7.8a66.48,66.48,0,0,0,6.11,6.11c.92.74,2,1.39,2.95,2.09.81.58,3,1.79,3,2.95Z"/><path class="cls-4" d="M415.58,190.37l0,0a.84.84,0,0,0-1.11-.06c-1.12.88-2.92,1.69-3.68,2.93-.46.75-.69,1.62-1.21,2.34a9.47,9.47,0,0,0-1.34,2.08,1.9,1.9,0,0,1-.92,1.24,10.2,10.2,0,0,1-1.3.6c-.67.25-1.34.3-2,.54s-1.32.43-1.94.7a6.33,6.33,0,0,0-1,.5,37.43,37.43,0,0,0-6.32,4.51,10.61,10.61,0,0,0-2.49,3.51,30.74,30.74,0,0,1,.68,4.78l22.64-22.44A.84.84,0,0,0,415.58,190.37Z"/><path class="cls-4" d="M419.36,194.06c-.19-.06-1.61-.79-1.44-.95"/><path class="cls-4" d="M419.34,193.49a8.43,8.43,0,0,0-.74-.6"/><path class="cls-4" d="M420.13,193c0-.21-.48-.44-.61-.52l-.46-.31a.73.73,0,0,0-.31-.17"/><path class="cls-4" d="M409.79,372c-.66-2.57-1.39-5.1-2.21-7.6-1.36-4.14-3-8.18-4-12.47-1.8-7.61-1.72-15.53-2.55-23.29-.81-7.48-3.45-13.14-5.47-20.06-.05-.2-.13-.38-.19-.57.22-3.91.53-7.8,1-11.68.49-4.27.67-8.78,1.07-13.23-.25-4.54.85-9.08,1-13.62.2-6,.52-11.88.77-17.85.21-5,1.32-9.94,1.74-14.92q.36-4.34.34-8.65l3.14-9.26c.85-.67,3.4-1.32,4.24-2s1.87-1.18,2.73-1.91a23.15,23.15,0,0,0,2.38-2.37c1.49-1.68,4.52-3.32,6-5,2.75-3.19,4.93-4.8,7.9-8,.33-.35,2.7-2.41,3.08-2.7a52,52,0,0,0,4.79-4.1l4.14-3.71,1.13-1a2.56,2.56,0,0,1,.51-.35,4.9,4.9,0,0,0,.8-.71l.44-.51a1.42,1.42,0,0,0,.23-.44,3.17,3.17,0,0,0,.15-.5c0-.27-.2-.46-.37-.64-.44-.47-.82-.31-1.28-.12a8.05,8.05,0,0,1,1.08-.71,12.35,12.35,0,0,0,2.3-1.92A5.3,5.3,0,0,0,446.2,180a1.33,1.33,0,0,0-.21-1.26,1.25,1.25,0,0,0-1-.51c-.52,0-1-.11-1.36.23s-.83.54-1,1.16l0,0a.8.8,0,0,0-.09-.5c-.19-.3-.66-.35-1-.44a1.23,1.23,0,0,1-.55-.3,1.09,1.09,0,0,0-.91-.2,9.92,9.92,0,0,0-2.81,1.33c-.93.52-2,.86-2.89,1.42-.33.2-.66.41-1,.6s-.42.31-.65.45c-.62.37-1.17.82-1.77,1.22a19.94,19.94,0,0,0-1.82,1.3c-.33.29-.67.54-1,.8-1.21-.22-1.27-.78-2.48-.68-.32,0-1.82.85-2.13,1a3.85,3.85,0,0,0-.71.34c-5.1,2.92-9.1,7.35-13.74,10.9-1.52,1.16-3,.92-4.37,2.29s-4.05,3-5.56,4.2a68.49,68.49,0,0,0-5,4.82,18.86,18.86,0,0,0-3.78,5.06,16.74,16.74,0,0,0-2.1,1.44c-2.72,2.07-3.95,5.54-5.05,8.21-1.24,3-2.18,6-3.45,9-1.11,2.61-2.71,5-3.57,7.66-1,3.07-2,6.15-3.33,9.17-7.34,17-19.24,41.24-13,59.69l1.35,14.35q1.2,12.74,2.39,25.48L365,362.83c.51,5.39,1.51,10.57,2.46,15.88.78,4.29,2,8.57,3.15,12.75a76.4,76.4,0,0,0,2.2,7.36c.83,2.12,1.76,4.06,2.75,6.07a25.34,25.34,0,0,0,3.49,5.19c1.36,1.66,2.44,3.94,4.09,5.1a47.65,47.65,0,0,0,4.12,3.14"/><path class="cls-4" d="M437.34,185.4h0Z"/><path class="cls-4" d="M425.51,194.84c-.22-.25-.47-.48-.67-.74a.61.61,0,0,1-.12-.37,2,2,0,0,1,.17-.44"/><path class="cls-4" d="M425.7,193.36l.42.47c.11.12.17.26.28.38"/><path class="cls-4" d="M426,192.86l.42.46c.07.07.13.15.2.23a2.68,2.68,0,0,1,.18.28"/><path class="cls-4" d="M426.32,191.86a1.38,1.38,0,0,0,.3.29c.16.09.35.15.52.24a3,3,0,0,1,.35.27,2.42,2.42,0,0,1,.32.32"/><path class="cls-4" d="M429,194.28c.15.16.35.23.49.38l.17.19c.07.08.11.23.18.29"/><path class="cls-4" d="M429.15,195.91c-.12-.14-.18-.29-.31-.43l-.34-.38"/><path class="cls-4" d="M428.74,196.15l-.46-.51"/><path class="cls-4" d="M427.55,196.93l-.58-.64a2.14,2.14,0,0,1-.39-.67"/><path class="cls-4" d="M441.28,184.71c-1,.88-5,4.59-6,5.47l-1.48,1.32-.74.66c-.27.24-.48.54-.74.79-.69.66-1.3,1.4-2,2l-.87.78c-.52.47-1.1.84-1.66,1.27s-.82.61-1.21,1l-1.05.94-4.24,3.8a16.8,16.8,0,0,0-1.68,1.89,17.85,17.85,0,0,1-1.54,1.93"/><path class="cls-4" d="M438.9,183.35a2.3,2.3,0,0,1-.51-1.44,2.21,2.21,0,0,1,.59-1.48,5,5,0,0,1,2.43-1.46,2,2,0,0,1,1.16.23.3.3,0,0,1,0,.47,213,213,0,0,1-16.34,14.72c-.88.79-2,1.36-2.89,2.11a1.8,1.8,0,0,1-.47.27l-3.83,3.29"/><path class="cls-4" d="M443.22,183.36c-.53.06-.63-.58-.62-.74s0-.38,0-.57a2.11,2.11,0,0,1,.23-.85c.2-.44.77-.79,1.13-1.11a3.54,3.54,0,0,1,.69-.6l.25-.06.19-.13a2.44,2.44,0,0,1,.53-.14,1.91,1.91,0,0,1,1,0c.24.08.51.56-.39,1.63Z"/><path class="cls-4" d="M427.77,185.35c.1.08.11.27.14.39a.9.9,0,0,1-.05.51,3.62,3.62,0,0,1-1.18,1.34l-2.59,2.32c-.23.22-.51.37-.75.57l-.53.48-.91.82c-.8.72-1.62,1.42-2.41,2.16-.65.59-1.15,1.34-1.76,2-.24.24-.52.44-.77.68a7.59,7.59,0,0,0-.73.94c-.22.31-.43.63-.68.92s-.55.42-.76.69-.22.34-.35.49a3.22,3.22,0,0,1-.28.24c-.15.14-.24.31-.39.46s-.2.12-.2.25a.66.66,0,0,0,.24-.2s0,0,.08,0"/><path class="cls-4" d="M424.7,189.29c-.05-.1-.27-.37-.24-.49s.06-.28.1-.43a2.2,2.2,0,0,1,.45-.85c.32-.37.76-.67,1.12-1a2.7,2.7,0,0,1,.31-.28,1.37,1.37,0,0,1,.2-.13,7.5,7.5,0,0,1,1-.61c.26-.1.27,0,.49.07s.32.34-.56,1.29Z"/><path class="cls-4" d="M439.17,189.54c-.05-.11-.29-.4-.26-.54s.06-.3.1-.46a2.44,2.44,0,0,1,.49-.92,14.11,14.11,0,0,1,1.21-1.1c.11-.1.21-.21.33-.3a1.64,1.64,0,0,1,.22-.14,10.2,10.2,0,0,1,1.12-.66c.28-.1.29.05.53.09s.34.37-.6,1.39Z"/><path class="cls-5" d="M473.77,870a7.84,7.84,0,0,0-2.64-3.44c-4.62-4.1-9.09-8.83-14.14-12.51-1-.71-2-1.37-3-2-.64-2.69-.73-5.12-1.26-8.38-.43-2.69-2.08-7-2.34-9.87-1.11-12.13,1.77-28-.66-39.8a17.14,17.14,0,0,1-.63-2.08,11.75,11.75,0,0,0,.07-1.72c-.19-1-.87-1.77-.8-2.85a9.59,9.59,0,0,0,.21-2.28,67.24,67.24,0,0,0-1.67-8.22,83.36,83.36,0,0,1-1.49-8.78c-1.91-11.14-7-21.94-11.5-32.21-2.81-6.39-6.73-10.89-10.51-16.51.43-1.39.82-2.76,1.11-4.1,4.66-21.32,12.44-42,17.89-63.16q5.61-21.78,10.05-43.85c2.54-12.61,6.63-26.08,4.41-39-2.11-12.34-8.37-23.59-17.2-30.92-5.58-4.64-12.26-7.75-19.21-7.91-9.6-.23-29.67,3.55-36.86,11-10.81,11.26-.31,22.67-4.13,37.86-5.67,22.49-11.26,45.47-11.44,68.94-.11,15.37,3,30.08,5.61,44.93A224.65,224.65,0,0,1,377,718.63a62.93,62.93,0,0,1-.43,10.25c1.25,5.08,4.42,9.57,8.58,13.33.61,3.59,2.63,7,4,10.44l.28.35a19,19,0,0,1,2.33,4.8L404,790.65c2.93,7.85,5.71,16.06,9.86,23.38,6.77,12,10.28,24.15,13.23,37,2,14.76,2.73,30.34-.21,44.36-2.39,11.35-8.06,21.7-13.71,31.84-.68,1.23-1.37,2.77-.62,4a3.38,3.38,0,0,0,2.49,1.28c3.91.56,7.87-1.14,10.9-3.67,4.23-3.55,6.69-8.55,10.89-12.14,2.43-2.07,3.95-5.11,6.29-7.33a71.76,71.76,0,0,0,8.11-8.78c4.11-5.44,6.71-12,11.47-16.95C466.13,880.08,475.49,876.06,473.77,870Z"/><path class="cls-6" d="M439.92,416.69c-1.49,1.23-3.34,2.95-4.78,4.15-4.24,3.56-8.56,7-13,10.32-3.26,2.42-6.37,5-9.61,7.47a40.45,40.45,0,0,1-5.29,3.59,1.89,1.89,0,0,1,.21.09,2.87,2.87,0,0,1,1.3,1.69,2.17,2.17,0,0,1,.05,1.13,2.14,2.14,0,0,1-.34,1.05.43.43,0,0,0,0,.07,35.18,35.18,0,0,0,5.41-3.39c3.37-2.46,6.54-5.19,9.9-7.68,4.56-3.37,9-6.9,13.37-10.52,1.07-.89,2.46-2.32,3.51-3.22C440.41,419.86,440.19,418.27,439.92,416.69Z"/><path class="cls-6" d="M435.57,385.87c-1.24-2.21-2.48-4.41-3.71-6.63-2.33-4.22-4.74-8.51-8.14-12A27.6,27.6,0,0,0,410.57,360a42.55,42.55,0,0,0-4.45-.85s0,.1.05.16a19.29,19.29,0,0,1,.42,4.15c5.12.84,10,2.64,13.79,6.39,3.28,3.21,5.53,7.28,7.73,11.27,2.57,4.64,6.54,9.25,9.08,13.91C436.89,392,435.84,388.8,435.57,385.87Z"/><path d="M97.35,227.85a68.34,68.34,0,0,0,2.26,33.88,81.51,81.51,0,0,0,15.44,27A88.38,88.38,0,0,0,127,300.4c1.49,1.2,3.62-.91,2.12-2.12-15.47-12.49-27.31-30.61-29.53-50.65a65,65,0,0,1,.69-19c.35-1.89-2.54-2.69-2.89-.8Z"/><path d="M122.78,285.81c1.69,4.63,2.92,9.41,4.25,14.16l1.45-1.9c-2.49.06-5,.24-7.47.34-2.31.1-4.62.1-6.94.2-1.92.09-1.93,3.09,0,3,2.32-.1,4.63-.1,6.94-.2,2.49-.1,5-.28,7.47-.34a1.52,1.52,0,0,0,1.44-1.9c-1.33-4.75-2.56-9.52-4.24-14.16a1.55,1.55,0,0,0-1.85-1.05,1.52,1.52,0,0,0-1,1.85Z"/><path d="M75.44,148.57v17.26H72.36V148.57Z"/><path d="M82.74,149.26V153H86l-.42,2.47H82.74v5.92c0,1.4.64,2,1.68,2a5.72,5.72,0,0,0,2-.57l.56,2.34a8.09,8.09,0,0,1-3.27.84c-3,0-4-2-4-4.14V155.5H77.88V153h2l.37-3.42Z"/><path d="M96.48,152.91l.44,2.29a4.34,4.34,0,0,1,4-2.44,3.77,3.77,0,0,1,3.85,2.39,4.55,4.55,0,0,1,4.16-2.39c3,0,4.22,2,4.22,4.64v8.43h-3.06v-7.45c0-2-.47-3-2.14-3-2.22,0-2.81,1.68-2.81,3.58v6.9h-3.06v-7.45c0-2-.47-3-2.15-3-2.36,0-2.83,1.9-2.83,4v6.51H94V152.91Z"/><path d="M119.15,152.91v7.45c0,2,.79,3,2.59,3,2.34,0,3.3-2.42,3.3-4.86v-5.62h3.06v12.92h-2.44l-.45-2.81a4.7,4.7,0,0,1-4.46,3c-3.16,0-4.66-1.95-4.66-5.2v-7.87Z"/><path d="M131.6,162.13a6.72,6.72,0,0,0,4.19,1.43c1.48,0,2.35-.44,2.35-1.5,0-2.52-7.47-.84-7.23-5.57.1-2.32,1.8-3.7,5.23-3.7A10.49,10.49,0,0,1,140.8,154l-1.08,2.17a7.36,7.36,0,0,0-3.7-1.07c-1.21,0-2.22.4-2.17,1.41.15,2.05,7.32.47,7.32,5.45,0,2.66-2.39,4-5.45,4a8.86,8.86,0,0,1-5.3-1.68Z"/><path d="M147.63,149.26V153h3.26l-.42,2.47h-2.84v5.92c0,1.4.65,2,1.68,2a5.72,5.72,0,0,0,1.95-.57l.57,2.34a8.21,8.21,0,0,1-3.28.84c-3,0-4-2-4-4.14V155.5h-1.8V153h1.94l.37-3.42Z"/><path d="M162,147v8.21a4.39,4.39,0,0,1,4.31-2.41c2.44.07,5.06,1.72,5.06,6.48,0,3.9-2,6.71-5.45,6.71a4.28,4.28,0,0,1-4.07-2.37l-.42,2.22h-2.49V147.39Zm-.12,12.36c0,2.21.81,4,3.25,4,2,0,3.11-1.5,3.11-4,0-3-1.51-4-3.13-4C163.32,155.35,161.87,156.76,161.87,159.35Z"/><path d="M185.39,162.28a5.76,5.76,0,0,1-5.57,3.7c-4.34,0-6.26-2.71-6.26-6.76s2.71-6.53,6.43-6.43c3,.07,5.75,2.34,5.45,6.46l-.05.39h-8.73c0,2.2.94,3.7,3.18,3.7a2.87,2.87,0,0,0,2.79-2.05Zm-3.13-4.22c.05-2-1-2.93-2.54-2.88a2.87,2.87,0,0,0-2.91,2.88Z"/><path d="M196.35,147v8.21a4.39,4.39,0,0,1,4.31-2.41c2.44.07,5.06,1.72,5.06,6.48,0,3.9-1.95,6.71-5.45,6.71a4.27,4.27,0,0,1-4.07-2.37l-.42,2.22h-2.49V147.39Zm-.13,12.36c0,2.21.82,4,3.26,4,2,0,3.1-1.5,3.1-4,0-3-1.5-4-3.13-4S196.22,156.76,196.22,159.35Z"/><path d="M214.23,152.79c3.23,0,6,2.19,6,6.6,0,3.63-2.15,6.59-6.17,6.59-4.36,0-6.16-3-6.16-6.59C207.94,155,210.72,152.79,214.23,152.79Zm-3.09,6.6c0,2.05.69,4,3,4,2.1,0,3-1.95,3-4,0-2.86-1.41-4-3-4S211.14,156.49,211.14,159.39Z"/><path d="M226,147v14.62c0,1.39.62,1.76,1.53,1.76a2.42,2.42,0,0,0,1.28-.47l.57,2.19a5.35,5.35,0,0,1-2.79.89c-2.56,0-3.65-1.73-3.65-4.07V147.36Z"/><path d="M242.49,147v18.84h-2.56l-.35-2.22a4.52,4.52,0,0,1-4.12,2.37c-3.47.05-5.55-2.84-5.55-6.63,0-4.64,3-6.56,5.53-6.56a4.1,4.1,0,0,1,4,2.44v-7.84Zm-9.42,12.33c0,2.2.86,3.92,3.16,3.92s3.25-1.72,3.25-3.89c0-2.94-1.58-4-3.28-4S233.07,156.49,233.07,159.32Z"/><path d="M246.61,165.49a1.42,1.42,0,0,1-1.63-1.58,1.6,1.6,0,0,1,1.73-1.53c1.7,0,2.37,1.33,2.24,2.91-.19,2.34-2,3.28-4,3.3v-1.33c1.16,0,2-.62,2-1.36C246.91,165.71,246.61,165.49,246.61,165.49Z"/><path d="M259.73,147v8a4.82,4.82,0,0,1,4.24-2.19c3,0,4.49,1.94,4.49,4.61v8.43H265.4v-7.45c0-2-.74-3-2.41-3-2.35,0-3.26,1.9-3.26,4v6.51h-3.06V147.36Z"/><path d="M275.54,152.91v12.92h-3.08V155.45h-1.8v-2.54Zm-1.55-5a1.6,1.6,0,1,1,0,3.16,1.63,1.63,0,0,1-1.8-1.63A1.59,1.59,0,0,1,274,147.88Z"/><path d="M290.73,152.91v11c0,4.29-1.67,6.88-6.41,6.88a13.36,13.36,0,0,1-5.28-1.11l.72-2.31a11.13,11.13,0,0,0,4.22,1c2.78,0,3.69-1.38,3.69-3.5v-1.14a4.44,4.44,0,0,1-4,2.05c-3.48.07-5.48-2.57-5.48-6.36,0-4.64,3-6.56,5.52-6.56a4.28,4.28,0,0,1,4.1,2.34l.32-2.22Zm-9.32,6.41c0,2.2.86,3.92,3.16,3.92s3.2-1.72,3.2-3.89c0-2.94-1.55-4-3.23-4S281.41,156.49,281.41,159.32Z"/><path d="M297,147v8a4.81,4.81,0,0,1,4.24-2.19c3,0,4.49,1.94,4.49,4.61v8.43h-3.06v-7.45c0-2-.74-3-2.41-3-2.35,0-3.26,1.9-3.26,4v6.51h-3.06V147.36Z"/><path d="M72.38,187.64a15.49,15.49,0,0,1,4.89-.94c3.89,0,5.32,1.92,5.32,4.93v5.23a.65.65,0,0,0,.62.74,2.41,2.41,0,0,0,1-.15v2.05a5,5,0,0,1-2,.39,2.34,2.34,0,0,1-2.34-1.75,5.64,5.64,0,0,1-3.89,1.75c-2.52,0-4.39-1.28-4.42-4s2-4.09,5.25-4.09a19.85,19.85,0,0,1,2.79.25v-.77c0-1.4-.89-2.17-2.66-2.14a10.41,10.41,0,0,0-4,.79Zm7.16,6a13.13,13.13,0,0,0-2.52-.15c-1.48.07-2.42.77-2.44,2.07a1.81,1.81,0,0,0,2.1,1.9,5.1,5.1,0,0,0,2.86-1Z"/><path d="M88.76,186.82l.47,2.3a4.76,4.76,0,0,1,4.41-2.42c3,0,4.49,2,4.49,4.61v8.43H95.07V192.3c0-2-.74-3-2.41-3-2.35,0-3.26,1.89-3.26,4v6.51H86.34V186.82Z"/><path d="M113.32,180.91v18.83h-2.56l-.35-2.21a4.5,4.5,0,0,1-4.11,2.36c-3.48.05-5.55-2.83-5.55-6.63,0-4.64,3-6.56,5.52-6.56a4.09,4.09,0,0,1,4,2.44V181.3Zm-9.42,12.32c0,2.2.87,3.93,3.16,3.93s3.26-1.73,3.26-3.9c0-2.93-1.58-4-3.28-4S103.9,190.4,103.9,193.23Z"/><path d="M132.86,196.12c-.84,2.64-3,3.77-5.62,3.77-4.24,0-6.07-3.15-6.07-6.61,0-4.21,2.61-6.51,6.14-6.58,3.11-.07,5,1.53,5.5,3.8l-2.84.91a2.54,2.54,0,0,0-2.61-2.12c-1.78,0-3.13,1.31-3.13,3.94,0,2.1.79,4,3.08,4a2.6,2.6,0,0,0,2.71-2Z"/><path d="M141.15,186.7c3.23,0,6,2.19,6,6.61,0,3.62-2.15,6.58-6.17,6.58-4.36,0-6.16-3-6.16-6.58C134.86,188.89,137.65,186.7,141.15,186.7Zm-3.09,6.61c0,2.05.69,4,3,4,2.1,0,3-1.94,3-4,0-2.86-1.41-4-3-4C139.45,189.29,138.06,190.4,138.06,193.31Z"/><path d="M152.32,186.82l.47,2.3a4.76,4.76,0,0,1,4.41-2.42c3,0,4.49,2,4.49,4.61v8.43h-3.06V192.3c0-2-.74-3-2.41-3-2.35,0-3.26,1.89-3.26,4v6.51H149.9V186.82Z"/><path d="M165.66,187V185.2c0-2.64,1.38-4.29,4.25-4.29a6.9,6.9,0,0,1,2.12.32l-.47,2.19c-.1,0-.5-.07-.89-.07-1.36,0-1.92.56-1.92,2.34V187H176v12.79h-3.06V189.41h-4.16v10.33h-3.09V189.41h-2V187Zm8.81-5.16a1.65,1.65,0,0,1,1.8,1.56,1.62,1.62,0,0,1-1.8,1.6,1.64,1.64,0,0,1-1.83-1.63C172.64,182.48,173.28,181.79,174.47,181.79Z"/><path d="M191.21,180.91v18.83h-2.56l-.35-2.21a4.5,4.5,0,0,1-4.11,2.36c-3.48.05-5.55-2.83-5.55-6.63,0-4.64,3-6.56,5.52-6.56a4.09,4.09,0,0,1,4,2.44V181.3Zm-9.42,12.32c0,2.2.87,3.93,3.16,3.93s3.26-1.73,3.26-3.9c0-2.93-1.58-4-3.28-4S181.79,190.4,181.79,193.23Z"/><path d="M205.69,196.19a5.75,5.75,0,0,1-5.57,3.7c-4.34,0-6.26-2.71-6.26-6.75s2.71-6.54,6.43-6.44c3,.07,5.75,2.34,5.45,6.46l-.05.4H197c0,2.19.94,3.69,3.18,3.69a2.87,2.87,0,0,0,2.79-2ZM202.56,192c.05-2-1-2.94-2.54-2.89a2.88,2.88,0,0,0-2.91,2.89Z"/><path d="M210.85,186.82l.47,2.3a4.76,4.76,0,0,1,4.41-2.42c3,0,4.49,2,4.49,4.61v8.43h-3.06V192.3c0-2-.74-3-2.42-3-2.34,0-3.25,1.89-3.25,4v6.51h-3.06V186.82Z"/><path d="M227.3,183.17V187h3.25l-.42,2.46H227.3v5.92c0,1.41.64,1.95,1.68,1.95a5.43,5.43,0,0,0,1.94-.57l.57,2.34a7.94,7.94,0,0,1-3.28.84c-3,0-4-2-4-4.14v-6.34h-1.8V187h1.95l.37-3.43Z"/><path class="cls-7" d="M95.79,61.4A36.74,36.74,0,0,1,104.16,38a34.44,34.44,0,1,0,.11,46.9A36.78,36.78,0,0,1,95.79,61.4ZM87.2,75.66H70.92L71,73.39l4.46-.58c.58,0,.81-.23.81-1,.08-10.05,0-19.6,0-19.6l-5.62,1.08c-.19-.31-1.12-2.46-.46-2.73l10.35-4,1,1s-.12,20.87,0,24.37c0,.77.19,1,.73,1l5.08.54Z"/><circle cx="130" cy="61.53" r="34.44"/><path class="cls-8" d="M120.65,51a12.43,12.43,0,0,1,9.24-4.85c5.89,0,9.08,3,8.74,8.51-.47,7-8,13.59-12.63,17.55l8.31-.08c1.78-.15,3-2.54,3.82-4.73,0,0,1.73.5,2,1-.66,3.16-1.43,7.12-2.2,7.12,0,0-3.69-.27-11.47-.27a25.63,25.63,0,0,0-4.93.31l-1.34-2.46c7.77-7.9,12.39-13.63,13-18.71.46-3.66-2-4.82-4.35-4.66a9.73,9.73,0,0,0-6.74,3.92C121.92,53.39,120.19,51.55,120.65,51Z"/><path d="M184,52.13l8.43,15.27V52.13h3.75v21h-4.59L183.3,58.34V73.13h-3.75v-21Z"/><path d="M213.6,68.81a7,7,0,0,1-6.78,4.5c-5.28,0-7.62-3.3-7.62-8.22s3.3-8,7.83-7.83c3.69.09,7,2.85,6.63,7.86l-.06.48H203c0,2.67,1.14,4.5,3.87,4.5a3.5,3.5,0,0,0,3.39-2.49Zm-3.81-5.13c.06-2.43-1.26-3.57-3.09-3.51a3.5,3.5,0,0,0-3.54,3.51Z"/><path d="M219.69,57.41l3.15,6.18,3.3-6.18h4l-4.35,7.8,4.53,7.92h-4.26L222.78,67l-3.45,6.12h-4.14L220,65.27l-4.29-7.86Z"/><path d="M238.11,53v4.59h4l-.51,3h-3.45v7.2c0,1.71.78,2.37,2,2.37a6.83,6.83,0,0,0,2.37-.69l.69,2.85a9.82,9.82,0,0,1-4,1c-3.69,0-4.83-2.46-4.83-5V60.56H232.2v-3h2.37l.45-4.17Z"/><path d="M256.74,57.41V73.13H253V60.5H250.8V57.41Zm-1.89-6.12a2,2,0,0,1,2.22,1.89,2.22,2.22,0,0,1-4.41,0A1.93,1.93,0,0,1,254.85,51.29Z"/><path d="M261,68.63a8.15,8.15,0,0,0,5.1,1.74c1.8,0,2.85-.54,2.85-1.83,0-3.06-9.09-1-8.79-6.78.12-2.82,2.19-4.5,6.36-4.5a12.78,12.78,0,0,1,5.67,1.47l-1.32,2.64a8.9,8.9,0,0,0-4.5-1.29c-1.47,0-2.7.48-2.64,1.71.18,2.49,8.91.57,8.91,6.63,0,3.24-2.91,4.92-6.63,4.89a10.76,10.76,0,0,1-6.45-2Z"/><path d="M286.77,53v4.59h4l-.51,3h-3.45v7.2c0,1.71.78,2.37,2,2.37a6.83,6.83,0,0,0,2.37-.69l.69,2.85a9.82,9.82,0,0,1-4,1c-3.69,0-4.83-2.46-4.83-5V60.56h-2.19v-3h2.37l.45-4.17Z"/><path d="M294.09,58.4A18.74,18.74,0,0,1,300,57.26c4.74,0,6.48,2.34,6.48,6v6.36a.79.79,0,0,0,.75.9,3,3,0,0,0,1.23-.18v2.49a6.08,6.08,0,0,1-2.49.48,2.84,2.84,0,0,1-2.85-2.13,6.87,6.87,0,0,1-4.74,2.13c-3.06,0-5.34-1.56-5.37-4.83s2.46-5,6.39-5a24.49,24.49,0,0,1,3.39.3v-.93c0-1.71-1.08-2.64-3.24-2.61a12.68,12.68,0,0,0-4.86,1Zm8.7,7.35a16.62,16.62,0,0,0-3.06-.18c-1.8.09-2.94.93-3,2.52a2.21,2.21,0,0,0,2.55,2.31,6.17,6.17,0,0,0,3.48-1.26Z"/><path d="M314.79,50.21V64h1.74l3.66-6.45h4.2l-4.71,7.77,5.13,7.86h-4.29l-4-6.09h-1.77v6.09h-3.72V50.66Z"/><path d="M340.59,68.81a7,7,0,0,1-6.78,4.5c-5.28,0-7.62-3.3-7.62-8.22s3.3-8,7.83-7.83c3.69.09,7,2.85,6.63,7.86l-.06.48H330c0,2.67,1.14,4.5,3.87,4.5a3.5,3.5,0,0,0,3.39-2.49Zm-3.81-5.13c.06-2.43-1.26-3.57-3.09-3.51a3.5,3.5,0,0,0-3.54,3.51Z"/><path d="M349.68,63.56v3h-7.44v-3Z"/><path d="M359,57.26c3.93,0,7.35,2.67,7.35,8,0,4.41-2.61,8-7.5,8-5.31,0-7.5-3.6-7.5-8C351.33,59.93,354.72,57.26,359,57.26Zm-3.75,8c0,2.49.84,4.86,3.66,4.86,2.55,0,3.69-2.37,3.69-4.86,0-3.48-1.71-4.89-3.6-4.89C356.91,60.41,355.23,61.76,355.23,65.3Z"/><path d="M370.56,57.56V55.43c0-3.21,1.68-5.22,5.19-5.22a8.28,8.28,0,0,1,3,.54l-.48,2.61a7.71,7.71,0,0,0-1.59-.18c-1.65,0-2.34.69-2.34,2.85v1.53h3.42l-.48,3h-2.94V73.13h-3.75V60.56H368.1v-3Z"/><path d="M381.12,57.56V55.43c0-3.21,1.68-5.22,5.19-5.22a8.28,8.28,0,0,1,3,.54l-.48,2.61a7.71,7.71,0,0,0-1.59-.18c-1.65,0-2.34.69-2.34,2.85v1.53h3.42l-.48,3h-2.94V73.13h-3.75V60.56h-2.46v-3Z"/></svg>