<svg id="Layer_1" data-name="Layer 1" xmlns="http://www.w3.org/2000/svg" viewBox="0 0 780 1051.14"><defs><style>.cls-1{fill:#fff171;stroke-width:0.3px;}.cls-1,.cls-2,.cls-3,.cls-4,.cls-5,.cls-6,.cls-7{stroke:#fff;stroke-miterlimit:10;}.cls-2,.cls-3,.cls-5,.cls-6{fill:#d4a47c;}.cls-2{stroke-width:0.36px;}.cls-3{stroke-width:0.27px;}.cls-4{fill:#005058;stroke-width:0.47px;}.cls-5{stroke-width:0.31px;}.cls-6{stroke-width:0.42px;}.cls-7{fill:#c6946f;stroke-width:0.25px;}.cls-8,.cls-9{fill:#fff;}.cls-8{opacity:0.7;}.cls-9{font-size:38.5px;font-family:ABCSerifBold, ABCSerif;}</style></defs><path class="cls-1" d="M398.33,403.47l-.05,0a82.22,82.22,0,0,0-14.71-9.55c-2.41-1.27-4.81-2.69-7.54-3.13-10.22-1.66-20,3-27.65,9.33-2.51,2.08-5.06,4.49-6.47,7.48-.61,1.3-2.09,7.09,1.22,7.13.43,0,2.86-5.47,3.63-6.38,5.53-6.53,12.73-12.74,21.68-13.3,2.66-.17,5.54-.63,8.13.17a36.81,36.81,0,0,1,6.75,3.33c2.35,1.32,4.59,2.83,6.92,4.18a46.6,46.6,0,0,1,6.62,5c1.21,1,2.4,2.08,3.62,3.1C399.65,408.36,399,405.86,398.33,403.47Z"/><path class="cls-2" d="M400.57,212.35a33.58,33.58,0,0,1-5.64-3.36c-.13,1.5-.24,3-.35,4.45C396.54,213,398.55,212.65,400.57,212.35Z"/><path class="cls-3" d="M396.74,342.31l8-24.21c.69-1.13-11.93-8.73-11.27-9.88s-2.75-5.42-1.35-5.6,1.55,1.57,2,2.59c.35.84,1,1.41,1.46,2.22a7.46,7.46,0,0,0,.87,1.77,6.15,6.15,0,0,0,4,2.09c1.77,0,3.07-1.49,4.76-1.7a5.68,5.68,0,0,1,2.13.34,2.63,2.63,0,0,1,.19-1.65c1.59-3.56,5.08-5.4,7.64-8.16a19.11,19.11,0,0,0-2.41-2.43,28.66,28.66,0,0,1-3.69-3.94c-1-1.28-2.24-2.1-2.34-3.7-.08-1.24.58-2.38.49-3.6a20.52,20.52,0,0,1-.33-2.48,30.17,30.17,0,0,1,.63-3.9c.48-2.89.69-5.88,1-8.79a24.29,24.29,0,0,0-.53-9.38,19.51,19.51,0,0,0-4.85-8.2,43.5,43.5,0,0,0-5.47-5,74.23,74.23,0,0,0-9.26-5.6c-3.62-1.85-8.34-2.62-12.35-2.83-3-.16-5.81-.76-8.84-.58a25.16,25.16,0,0,0-8.71,2.49c-2.38,1.07-4.76,1.25-7.24,1.65-1.26.2-2.35.94-3.65,1.2a27.38,27.38,0,0,0-4.56,1.13c-2.83,1.09-4,3.4-5.37,5.87-.92,1.64-1.22,3.46-2.17,5.1a14.38,14.38,0,0,0-1.08,2.52c-.33,1-.9,1.76-1.23,2.74-.16.48-.1.92-.25,1.42s-.55.69-.61,1.22a19.13,19.13,0,0,0,.44,3.14,27,27,0,0,1,.22,3.69c0,.19,0,.31,0,.39s-.19.09-.41.35a12.17,12.17,0,0,1-2.15,1.83c-1.9,1.5-2.31,1.28-4.3,3.2a28.16,28.16,0,0,0-3.41,3.9,3.41,3.41,0,0,0,1.35,5.11,1.84,1.84,0,0,1,.92.87,4.81,4.81,0,0,1,.83,3.38,11.9,11.9,0,0,0-.68,8.43c.31,1.5,1,2.15.33,3.5-.49,1-1,1.94-1.57,2.88-1,1.79-1.41,3.73.13,5.35,2.06,2.17,20.09,4.37,22.8,5.33,9.32,3.33,4.93,5.36,14.32,8.39a27.87,27.87,0,0,1,15.46,11.44"/><path d="M343.65,266.36c.29.21.55.46.82.7s.47.44.46.67,0,.1-.09.1-.21-.11-.28-.14a1.6,1.6,0,0,0-.31-.1c-.42-.12-.86-.18-1.29-.28a7.22,7.22,0,0,1-.74-.18c-1.49-.5-2.88-1.51-4.41-1.83a7.1,7.1,0,0,0-4.33.83c-.09-.5-.42-2.15.07-2.44.7-.42,2.78.06,3.61-.06a6.55,6.55,0,0,1,4.41,1C342.31,265.15,342.93,265.82,343.65,266.36Z"/><path d="M416.43,294.67c-1.55-1.95-3.58-3.77-4.87-5.88-4.14-6.73-.48-15.44-1.34-23.29-.7-6.45-4.58-12.26-9.57-16.43s-11-6.86-17.12-9.09c-5.65-2.07-11.54-3.8-17.56-3.78-4.05,0-15.81,1.83-16.53,7.15s7.48,10.85,7.57,16.74c0,3-1.3,6-.72,8.9a24.44,24.44,0,0,0,1.6,4.21c1,2.53,1.33,5.3,2.5,7.76s3.56,4.67,6.26,4.38a11.21,11.21,0,0,1,2.41-5.25c1.35-1.41,2.19-.47,3.83.58,2.25,1.45,3.33,3.3,2.07,5.67s-3.15,4.6-3.13,7.28c0,2.89,2.25,5.22,4.34,7.22,3.59,3.44,11.87,6.76,15.46,10.2,2.61-1.43,2.07-.57,4.77-1.84,2-1-.17-4.66,1.8-3.57a18.41,18.41,0,0,0,12.32,2c3.93-.75,8-3.53,8.12-7.53A8.38,8.38,0,0,0,416.43,294.67Z"/><path d="M348.77,243.94l.91-.18c0-.07,0-.14,0-.21A2.84,2.84,0,0,0,348.77,243.94Z"/><path class="cls-3" d="M363.55,285.45c-2-4.88,5.71-8.29,9.26-6.48a6.54,6.54,0,0,1,2.79,8.4c-1.5,3-5.18,4.46-6.86,7.4-.89,1.55-1.24,3.53-2.7,4.57s-4.22-.61-3.11-2"/><path d="M404,292.09a7.21,7.21,0,0,0,2.92-1.73,11.74,11.74,0,0,1,3.55-1.79,6.08,6.08,0,0,1,4.48-.05,6.61,6.61,0,0,1,3,2.68,6.42,6.42,0,0,1,1.17,3.42c-.17,1.29-1.54,2.9-2.14,4a6.72,6.72,0,0,1-3.64,2.76,6,6,0,0,1-4.66.28,19.7,19.7,0,0,1-7.74-7.22c-1-1.45-.63-3.82-.14-5.44s1.79-4.13,3.21-5.14c2.72-1.93,6.36.05,8.46,1.95,1.26,1.14,2.42,2.41,2.28,4.24a9.72,9.72,0,0,1-1.55,4.12,18.09,18.09,0,0,1-2.71,4.22,6.53,6.53,0,0,1-2,1.75,21.19,21.19,0,0,0-2.67,1.28,8,8,0,0,1-3.12,1.14,3.23,3.23,0,0,1-2.47-.54,10.41,10.41,0,0,1-2.42-1.81c-.46-.45-.73-1.06-1.15-1.54-.72-.84-.69-.88-.16-2"/><path d="M408.29,289.58c.1-1.44,1.11-2.25,2.19-3a6.28,6.28,0,0,0,1.09-.85,1.82,1.82,0,0,1,1.82-.62c1.83.19,3.41,1.7,4.72,2.82a6.3,6.3,0,0,1,1.51,1.58c.33.59.44,1.29.77,1.87.2.33.51.54.64.94s.05.84.2,1.26a2.43,2.43,0,0,1,.3,1.12,8.72,8.72,0,0,1-.19,1.23,4.8,4.8,0,0,1-.67,2.15,14.36,14.36,0,0,1-1.55,1.76,6.88,6.88,0,0,1-.88.61c-.36.24-.62.6-1,.85a6.22,6.22,0,0,1-3.43.65c-2.23.05-4.43-1.33-6.29-2.45a11.5,11.5,0,0,1-3.61-3.5,26.76,26.76,0,0,1-1.28-2.5,10,10,0,0,1-1-2.41,8.64,8.64,0,0,1-.08-2.87,18.21,18.21,0,0,1,.51-3,6,6,0,0,1,1.67-2.49,8.51,8.51,0,0,0,1.26-1,5.5,5.5,0,0,1,1.13-1.23,6.56,6.56,0,0,1,5.5-1.28,20.14,20.14,0,0,1,4.11,1.33c.82.42,1.62.89,2.43,1.33a5.81,5.81,0,0,1,2.15,2,4.28,4.28,0,0,1,.78,1.55,5.25,5.25,0,0,1,.36,1.63c-.18,1.61-1.33,2.69-1.76,4.15a5.66,5.66,0,0,1-.22.88c-.2.43-.47.84-.7,1.26a9.91,9.91,0,0,1-1.22,2,6.88,6.88,0,0,1-2.05,1.66,3.61,3.61,0,0,1-3,.21,10.06,10.06,0,0,1-3.45-1.31,13,13,0,0,1-3.4-3.54,10,10,0,0,1-1.93-4.6,10.82,10.82,0,0,1-.15-2.6,11.25,11.25,0,0,1,.8-2.21c.64-1.55,2.27-2.43,3.58-3.3.26-.17.81-.7,1.14-.71s.61.3.83.41"/><path d="M394.68,302.05c.11-1.44,1.12-2.24,2.2-3a6.61,6.61,0,0,0,1.08-.85,1.87,1.87,0,0,1,1.83-.62c1.82.19,3.41,1.7,4.71,2.82A6.12,6.12,0,0,1,406,302c.34.6.45,1.3.78,1.87.2.34.51.54.63.94s.06.84.21,1.26a2.43,2.43,0,0,1,.3,1.12,10.46,10.46,0,0,1-.19,1.23,5.06,5.06,0,0,1-.67,2.15,13.73,13.73,0,0,1-1.56,1.76,5.23,5.23,0,0,1-.87.61c-.36.24-.62.6-1,.85a6.25,6.25,0,0,1-3.43.65c-2.23.05-4.44-1.33-6.29-2.45a11.5,11.5,0,0,1-3.62-3.49c-.49-.82-.86-1.66-1.27-2.51a9.71,9.71,0,0,1-1-2.4,8.38,8.38,0,0,1-.08-2.87,19.4,19.4,0,0,1,.5-3.05,6.23,6.23,0,0,1,1.67-2.49,8.6,8.6,0,0,0,1.27-1,5.7,5.7,0,0,1,1.12-1.23,6.62,6.62,0,0,1,5.51-1.28,21.2,21.2,0,0,1,4.11,1.33c.82.42,1.62.9,2.43,1.33a5.9,5.9,0,0,1,2.15,2,4.11,4.11,0,0,1,.77,1.55,5,5,0,0,1,.37,1.63c-.18,1.61-1.33,2.69-1.77,4.16a4.59,4.59,0,0,1-.21.87c-.2.43-.47.85-.7,1.27a10.61,10.61,0,0,1-1.22,2,6.91,6.91,0,0,1-2,1.67,3.61,3.61,0,0,1-3,.2,9.78,9.78,0,0,1-3.45-1.31,12.87,12.87,0,0,1-3.4-3.54,9.9,9.9,0,0,1-1.93-4.59,10.44,10.44,0,0,1-.15-2.61,11.25,11.25,0,0,1,.8-2.21c.64-1.55,2.27-2.43,3.58-3.3.26-.17.81-.69,1.14-.71s.61.3.82.41"/><path class="cls-2" d="M371.25,325.48c-.91,1.27-19.86,9.5-21,10.54-2.17,2-4.5,3.87-6.06,6.36-5.13,8.27-10.36,29.36-8.3,38.85,1.72,9,8.65,16.84,11.14,26,2.53,9.34,3.57,19,4.81,28.59,2.3,17.79,6.27,37,19.93,48.62,8.79-28.66,27-54.13,32.86-83.52,3.64-18,2.45-36.45,1.08-54.9C388.06,342.3,388.51,330.78,371.25,325.48Z"/><path class="cls-4" d="M302.56,530.69c-1.23-5.74-4.3-10.8-5.67-16.47a112.64,112.64,0,0,0-3.58-11.88,59.46,59.46,0,0,1-2.59-8.33c-.61-3-.19-5.89-.19-8.94,0-2.62,0-5.24,0-7.85,0-3.62,2.23-7.06,3.1-10.65,3.75-15.44,10.46-30.08,12.69-45.86.9-6.37,1.52-13,3.23-19.29,1-3.65.54-7.12.72-10.91.15-3.05,1.2-6.09,1.78-9.08.44-2.25.23-3.82,1.18-5.95.83-1.85,1.66-3.8,2.57-5.6,2.16-4.29,5.58-7.94,8.8-11.44a42.51,42.51,0,0,1,4.86-3.92c1.66-1.35,3-3.06,4.61-4.44,2-1.67,3.84-2.8,5.36-4.93,1.27-1.79,2.74-4.11,5-4.64,1.34,1.77.37,7.73.37,9.89v8.76c0,4.14-.74,8.91.19,13,.85,3.69,2.63,8.92,4.94,11.77,5.17,6.38,10.31,12.7,15.86,18.73,3.51,3.8,2.53,5.82,1.44,10.4-.88,3.72-2.38,7.83-2.73,11.57-.83,8.85,0,18.21,0,27.1,0,8.47-1.73,17.59,4,24.54,2.42,3,4.46,5,5.92,8.77s4,7.2,5.65,10.93c3,6.52,7.77,17.06,6.87,24.69A29.28,29.28,0,0,0,376.74,511c-2.69-1.68-5.47-3.41-8.25-4.92-2.46-1.34-4.43-1.52-7-2.2-7-1.85-13.61-2.51-20.72-3.54-5.64-.82-11.52,1.33-16.51,3.92-4.35,2.27-5.18,5.14-7.18,9.66a59.05,59.05,0,0,0-3.75,13.59c-.57,3.23-4.12,7.23-5.76,10.12a44.76,44.76,0,0,1-2.39,4c-1,1.43-1.62,1.13-1.59-.7A45.94,45.94,0,0,0,302.56,530.69Z"/><path class="cls-5" d="M429.33,146l0,0a.83.83,0,0,0-1.11-.06c-1.12.88-2.92,1.69-3.68,2.93-.46.75-.68,1.62-1.21,2.33a9.54,9.54,0,0,0-1.34,2.09,1.9,1.9,0,0,1-.92,1.24,10.2,10.2,0,0,1-1.3.6c-.67.25-1.34.29-2,.53s-1.32.44-1.93.7a8.15,8.15,0,0,0-1,.5,38.06,38.06,0,0,0-6.32,4.52,10.61,10.61,0,0,0-2.49,3.51,30.74,30.74,0,0,1,.68,4.78l22.64-22.44A.84.84,0,0,0,429.33,146Z"/><path class="cls-6" d="M401.94,365.9a218.88,218.88,0,0,0,5.24-30.78c.54-6.36,1-12.77,1.44-19.18.22-6.1.4-12.19.29-18.25-.52-7.07-1.24-14.1-2.39-21.1,1.72-9.63,4-21.23,4.34-24.69.41-4.27.57-8.77.91-13.23-.21-4.53.72-9.07.84-13.61.17-6,.44-11.88.65-17.85.18-5,1.12-9.94,1.48-14.92.2-2.85.26-5.71.25-8.55l3.18-9.36c.85-.67,3.4-1.33,4.24-2s1.87-1.18,2.73-1.91a24.2,24.2,0,0,0,2.38-2.37c1.49-1.68,4.52-3.32,6-5,2.75-3.2,4.93-4.8,7.9-8,.33-.35,2.7-2.42,3.08-2.7a53.63,53.63,0,0,0,4.79-4.1l4.14-3.71,1.13-1a1.93,1.93,0,0,1,.51-.35,5.42,5.42,0,0,0,.8-.71l.44-.51a1.7,1.7,0,0,0,.24-.44c0-.14.13-.38.14-.5,0-.27-.2-.46-.37-.65-.44-.46-.82-.3-1.28-.11a7.19,7.19,0,0,1,1.08-.71,12.35,12.35,0,0,0,2.3-1.92A5.3,5.3,0,0,0,460,135.6a1.33,1.33,0,0,0-.21-1.26,1.25,1.25,0,0,0-1-.51,1.7,1.7,0,0,0-1.36.22c-.37.35-.83.55-1,1.16l0,0a.8.8,0,0,0-.09-.5c-.19-.31-.66-.35-1-.45a1.22,1.22,0,0,1-.55-.29,1.12,1.12,0,0,0-.91-.21,10.23,10.23,0,0,0-2.81,1.34c-.93.52-2,.86-2.89,1.42-.33.2-.66.41-1,.6s-.42.31-.65.45c-.62.37-1.17.82-1.77,1.22a19.94,19.94,0,0,0-1.82,1.3c-.33.29-.67.54-1,.8-1.21-.22-1.27-.78-2.48-.68-.32,0-1.82.84-2.13.94a3.9,3.9,0,0,0-.71.35c-5.1,2.92-9.1,7.35-13.74,10.89-1.52,1.17-3,.93-4.37,2.3s-4.05,3-5.56,4.19a68.63,68.63,0,0,0-5,4.83,17.75,17.75,0,0,0-4,5.55,1.89,1.89,0,0,0-.2.8c0,.12,0,.3,0,.49-2.08,2.09-3.08,5.33-4,7.86-1.05,3-1.85,6-2.93,9-.94,2.61-2.3,5-3,7.66-.86,3.05-1.72,6.13-2.82,9.14-5.27,14.41-11.44,29.09-12.41,44.59-1.26,20.21-6.54,41.61-12.62,60.88a81.66,81.66,0,0,1-5.08,13.49C358.51,327.61,356,332,355,337"/><path class="cls-5" d="M442.9,151.52c-.12-.14-.18-.29-.31-.43l-.34-.38"/><path class="cls-5" d="M442.49,151.75l-.46-.5"/><path class="cls-5" d="M441.3,152.54c-.19-.22-.39-.43-.58-.64a2.14,2.14,0,0,1-.39-.67"/><path class="cls-5" d="M455,140.32c-1,.88-5,4.59-6,5.46l-1.48,1.33-.74.66c-.27.24-.48.54-.74.79-.69.66-1.3,1.39-2,2l-.87.79c-.52.47-1.1.84-1.66,1.27s-.82.6-1.21.95l-1.05.94-4.24,3.8a16,16,0,0,0-1.68,1.89,16.81,16.81,0,0,1-1.54,1.92"/><path class="cls-5" d="M452.65,139a2.3,2.3,0,0,1-.51-1.44,2.19,2.19,0,0,1,.59-1.48,5,5,0,0,1,2.43-1.46,1.86,1.86,0,0,1,1.16.23.29.29,0,0,1,0,.46A211.06,211.06,0,0,1,440,150c-.88.79-2,1.36-2.89,2.11a1.78,1.78,0,0,1-.47.26l-3.83,3.3"/><path class="cls-5" d="M441.52,141c.1.08.11.26.14.38a.92.92,0,0,1-.05.52,3.7,3.7,0,0,1-1.18,1.34l-2.59,2.32c-.23.22-.51.37-.75.57s-.35.32-.53.48l-.91.82c-.8.71-1.62,1.42-2.41,2.15s-1.15,1.35-1.76,2c-.24.25-.52.45-.77.69a6.68,6.68,0,0,0-.72.94c-.23.31-.44.63-.69.91s-.54.43-.76.7-.21.34-.35.49a3.22,3.22,0,0,1-.28.24c-.15.14-.24.31-.39.45s-.2.12-.2.25c.09,0,.18-.13.24-.19s0,0,.08,0"/><path class="cls-1" d="M357.7,330.74c.11-.29.22-.58.32-.87-2.75,1.75-5.22,3.73-7.9,5.72-2.12,1.59-4.58,3.76-6.62,5.49a2.75,2.75,0,0,1,1.87,3l.49-.42c2.06-1.72,4.18-3.38,6.34-5,1-.73,2-1.44,3-2.14A38.28,38.28,0,0,1,357.7,330.74Z"/><path class="cls-1" d="M405,347.94a85.92,85.92,0,0,1-4.72,20.42c-2.44,6.6-7.52,13.36-16.42,21.91-5.26,5.06-10.95,9.67-16.47,14.47.07.13.16.25.22.38a7.43,7.43,0,0,1,.69,2.75,7.14,7.14,0,0,1,0,1.6s0,.06,0,.08c7.6-6.57,16-13,23.43-19.72,4.21-3.79,10.9-13.47,12.5-18.94C406.26,363.7,406.85,357.66,405,347.94Z"/><path class="cls-7" d="M423.68,814.83a8.33,8.33,0,0,0-4.71-4.54,32,32,0,0,1-5.1-2.11c-3.71-2.1-7.7-4-11-6.72-2.14-1.72-4.16-3.12-5.56-5.49-.46-.78-1.11-1.34-1.58-2.1a3.07,3.07,0,0,1-.25-.55l.55-.25c-4.32-5.57-7.38-12.48-10.26-18.49-5.81-12.11-11.07-24.29-16-36.71-2.09-4.49-4.22-9-6.49-13.35-9.18-17.79-22.12-33.08-35.84-46.78a50.76,50.76,0,0,0-4.36-3.85c9.56-18.07,21.21-35,31-52.95q11-20.09,20.95-40.78c5.68-11.84,13.09-24.07,14.22-37.63,1.07-12.94-2.16-26-8.91-36-4.26-6.29-10-11.38-16.72-13.61-9.3-3.08-29.83-5.27-38.74.06-13.41,8-6.06,22.54-13.66,36.56C300,550.33,288.7,571.61,282.56,595c-4,15.31-4.75,30.91-6,46.51A239.85,239.85,0,0,1,273.39,668a63.81,63.81,0,0,1-3,10.1c-.13,10.62,7.32,21.15,16.29,28.5,2.13,3,5.17,5.47,7.7,8.16l.42.23a21.57,21.57,0,0,1,4.21,3.91l25.6,28.4c6.12,6.79,12.25,14,19.23,19.72,12.72,10.43,22.29,24,32.1,37.57l.18-.13a9.78,9.78,0,0,1,1.1,2.35c.3,1,.3,2,.51,2.94,1.1,5,1.19,10.31,2.56,15.32,2.74,10,8.87,18.44,12.37,28.06.44,1.2.13,2.42.38,3.67.33,1.64.26,3.27.57,4.9,1.33,6.9,7.52,11.54,8.85,18.54.57,3,2.07,7.51,4.13,9.81,2.79,3.13,8.2,3.8,6.3-1.91-.49-1.46-1.27-2.87-1.32-4.4-.14-4,4.43-6.61,5.4-10.49a12.32,12.32,0,0,0-.11-4.91c-.85-5.46-2.22-11-2.92-16.43-.38-3,.49-5.53.54-8.43.1-5.61,4-10.71,6.51-15.58a50.36,50.36,0,0,0,3-7.21A6.77,6.77,0,0,0,423.68,814.83Z"/><path d="M547.16,188.28v7.13h6.9v-7.13h3.11v17.26h-3.11v-7.35h-6.9v7.35h-3.09V188.28Z"/><path d="M571.5,202a5.77,5.77,0,0,1-5.58,3.7c-4.34,0-6.26-2.71-6.26-6.76s2.71-6.53,6.44-6.43c3,.07,5.74,2.34,5.45,6.46l0,.39h-8.73c0,2.2.94,3.7,3.18,3.7a2.89,2.89,0,0,0,2.79-2.05Zm-3.13-4.22c0-2-1-2.93-2.54-2.88a2.87,2.87,0,0,0-2.91,2.88Z"/><path d="M574.44,193.43a15.39,15.39,0,0,1,4.88-.93c3.89,0,5.32,1.92,5.32,4.93v5.23a.65.65,0,0,0,.62.74,2.61,2.61,0,0,0,1-.15v2a4.85,4.85,0,0,1-2,.4,2.34,2.34,0,0,1-2.34-1.75,5.62,5.62,0,0,1-3.89,1.75c-2.52,0-4.39-1.28-4.42-4s2-4.09,5.25-4.09a20,20,0,0,1,2.79.24v-.76c0-1.41-.89-2.17-2.66-2.15a10.41,10.41,0,0,0-4,.79Zm7.15,6a14.18,14.18,0,0,0-2.52-.14c-1.48.07-2.42.76-2.44,2.07a1.82,1.82,0,0,0,2.1,1.9,5.09,5.09,0,0,0,2.86-1Z"/><path d="M600.48,186.7v18.84h-2.57l-.34-2.22a4.53,4.53,0,0,1-4.12,2.37c-3.48.05-5.55-2.84-5.55-6.63,0-4.64,3-6.56,5.53-6.56a4.11,4.11,0,0,1,4,2.44V187.1ZM591.06,199c0,2.2.86,3.92,3.15,3.92s3.26-1.72,3.26-3.89c0-2.94-1.58-4-3.28-4S591.06,196.2,591.06,199Z"/><path d="M611.21,192.62l.44,2.29a4.34,4.34,0,0,1,4-2.44,3.75,3.75,0,0,1,3.84,2.39,4.58,4.58,0,0,1,4.17-2.39c3,0,4.22,2,4.22,4.64v8.43h-3.06v-7.45c0-2-.47-3-2.14-3-2.22,0-2.82,1.68-2.82,3.58v6.9h-3.05v-7.45c0-2-.47-3-2.15-3-2.37,0-2.83,1.9-2.83,4v6.51h-3.06V192.62Z"/><path d="M633.88,192.62v7.45c0,2,.78,3,2.58,3,2.35,0,3.31-2.42,3.31-4.86v-5.62h3.06v12.92h-2.44l-.45-2.81a4.71,4.71,0,0,1-4.46,3c-3.16,0-4.66-1.95-4.66-5.2v-7.87Z"/><path d="M646.33,201.84a6.68,6.68,0,0,0,4.19,1.43c1.48,0,2.35-.44,2.35-1.5,0-2.52-7.48-.84-7.23-5.57.1-2.32,1.8-3.7,5.23-3.7a10.55,10.55,0,0,1,4.66,1.2l-1.09,2.17a7.36,7.36,0,0,0-3.7-1.06c-1.2,0-2.21.4-2.17,1.41.15,2.05,7.33.47,7.33,5.45,0,2.66-2.39,4-5.45,4a8.86,8.86,0,0,1-5.3-1.68Z"/><path d="M662.36,189v3.77h3.26l-.42,2.47h-2.84v5.92c0,1.4.64,1.94,1.68,1.94a5.76,5.76,0,0,0,2-.56l.56,2.34a8.1,8.1,0,0,1-3.28.84c-3,0-4-2-4-4.14v-6.34h-1.8v-2.47h2l.37-3.42Z"/><path d="M674,201.84a6.73,6.73,0,0,0,4.2,1.43c1.48,0,2.34-.44,2.34-1.5,0-2.52-7.47-.84-7.23-5.57.1-2.32,1.8-3.7,5.23-3.7a10.55,10.55,0,0,1,4.66,1.2l-1.08,2.17a7.41,7.41,0,0,0-3.7-1.06c-1.21,0-2.22.4-2.17,1.41.15,2.05,7.32.47,7.32,5.45,0,2.66-2.39,4-5.45,4a8.86,8.86,0,0,1-5.3-1.68Z"/><path d="M690,189v3.77h3.26l-.42,2.47H690v5.92c0,1.4.65,1.94,1.68,1.94a5.76,5.76,0,0,0,1.95-.56l.57,2.34a8.1,8.1,0,0,1-3.28.84c-3,0-4-2-4-4.14v-6.34h-1.8v-2.47h1.94l.37-3.42Z"/><path d="M696.05,193.43a15.46,15.46,0,0,1,4.89-.93c3.89,0,5.32,1.92,5.32,4.93v5.23a.65.65,0,0,0,.62.74,2.61,2.61,0,0,0,1-.15v2a4.89,4.89,0,0,1-2,.4,2.34,2.34,0,0,1-2.34-1.75,5.65,5.65,0,0,1-3.9,1.75c-2.51,0-4.38-1.28-4.41-4s2-4.09,5.25-4.09a20,20,0,0,1,2.79.24v-.76c0-1.41-.89-2.17-2.66-2.15a10.41,10.41,0,0,0-4,.79Zm7.15,6a14,14,0,0,0-2.51-.14c-1.48.07-2.42.76-2.44,2.07a1.82,1.82,0,0,0,2.09,1.9,5,5,0,0,0,2.86-1Z"/><path d="M711.44,192.62l3.18,9.12h.2l2.91-9.12h3.16l-4.79,13.12c-1.57,4.31-3.05,5.4-7.61,4.44l.54-2.59c2.91.71,3.3,0,4.21-2.49l-4.85-12.48Z"/><path d="M546.31,227.35a15.36,15.36,0,0,1,4.88-.94c3.89,0,5.32,1.92,5.32,4.93v5.23a.65.65,0,0,0,.62.74,2.41,2.41,0,0,0,1-.15v2.05a5,5,0,0,1-2,.39,2.34,2.34,0,0,1-2.34-1.75,5.62,5.62,0,0,1-3.89,1.75c-2.52,0-4.39-1.28-4.42-4s2-4.09,5.25-4.09a19.85,19.85,0,0,1,2.79.25V231c0-1.4-.89-2.17-2.66-2.14a10.41,10.41,0,0,0-4,.79Zm7.15,6a13.13,13.13,0,0,0-2.52-.15c-1.48.07-2.42.77-2.44,2.07a1.81,1.81,0,0,0,2.1,1.9,5.1,5.1,0,0,0,2.86-1Z"/><path d="M565.77,235.76a6.68,6.68,0,0,0,4.19,1.43c1.48,0,2.34-.45,2.34-1.51,0-2.51-7.47-.84-7.22-5.57.09-2.32,1.8-3.7,5.22-3.7a10.49,10.49,0,0,1,4.66,1.21l-1.08,2.17a7.25,7.25,0,0,0-3.7-1.06c-1.21,0-2.22.39-2.17,1.4.15,2.05,7.32.47,7.32,5.45,0,2.67-2.39,4-5.45,4a8.82,8.82,0,0,1-5.3-1.67Z"/><path d="M578.17,227.35a15.42,15.42,0,0,1,4.88-.94c3.9,0,5.33,1.92,5.33,4.93v5.23a.65.65,0,0,0,.62.74,2.45,2.45,0,0,0,1-.15v2.05a5.09,5.09,0,0,1-2,.39,2.33,2.33,0,0,1-2.34-1.75,5.67,5.67,0,0,1-3.9,1.75c-2.51,0-4.39-1.28-4.41-4s2-4.09,5.25-4.09a19.85,19.85,0,0,1,2.79.25V231c0-1.4-.89-2.17-2.67-2.14a10.39,10.39,0,0,0-4,.79Zm7.15,6a13,13,0,0,0-2.51-.15c-1.48.07-2.42.77-2.44,2.07a1.81,1.81,0,0,0,2.09,1.9,5.07,5.07,0,0,0,2.86-1Z"/><path d="M592.9,226.66v-1.75c0-2.64,1.38-4.29,4.26-4.29a6.74,6.74,0,0,1,2.44.44l-.39,2.14a7.24,7.24,0,0,0-1.31-.14c-1.35,0-1.92.56-1.92,2.34v1.26h2.81l-.4,2.46H596v10.33H592.9V229.12h-2v-2.46Z"/><path d="M611.54,235.9a5.76,5.76,0,0,1-5.57,3.7c-4.34,0-6.27-2.71-6.27-6.75s2.72-6.54,6.44-6.44c3,.07,5.74,2.34,5.45,6.46l-.05.39h-8.73c0,2.2.94,3.7,3.18,3.7a2.88,2.88,0,0,0,2.79-2Zm-3.13-4.21c.05-2-1-2.94-2.54-2.89a2.88,2.88,0,0,0-2.91,2.89Z"/><path d="M631.52,220.62v18.83H629l-.34-2.21a4.53,4.53,0,0,1-4.12,2.36c-3.48.05-5.55-2.83-5.55-6.63,0-4.64,3-6.56,5.53-6.56a4.11,4.11,0,0,1,4,2.44V221Zm-9.42,12.32c0,2.2.86,3.93,3.15,3.93s3.26-1.73,3.26-3.9c0-2.94-1.58-4-3.28-4S622.1,230.11,622.1,232.94Z"/><path d="M638.67,226.53v12.92h-3.08V229.07h-1.8v-2.54Zm-1.55-5a1.65,1.65,0,0,1,1.82,1.56,1.82,1.82,0,0,1-3.62,0A1.59,1.59,0,0,1,637.12,221.5Z"/><path d="M642.17,235.76a6.73,6.73,0,0,0,4.2,1.43c1.48,0,2.34-.45,2.34-1.51,0-2.51-7.47-.84-7.23-5.57.1-2.32,1.8-3.7,5.23-3.7a10.49,10.49,0,0,1,4.66,1.21l-1.08,2.17a7.25,7.25,0,0,0-3.7-1.06c-1.21,0-2.22.39-2.17,1.4.15,2.05,7.32.47,7.32,5.45,0,2.67-2.39,4-5.45,4a8.82,8.82,0,0,1-5.3-1.67Z"/><path d="M658.21,222.88v3.78h3.25l-.42,2.46h-2.83V235c0,1.41.64,2,1.67,2a5.5,5.5,0,0,0,2-.57l.57,2.34a7.94,7.94,0,0,1-3.28.84c-3,0-4-2-4-4.14v-6.34h-1.8v-2.46h1.95l.37-3.43Z"/><path d="M664.22,227.35a15.43,15.43,0,0,1,4.89-.94c3.89,0,5.32,1.92,5.32,4.93v5.23a.65.65,0,0,0,.62.74,2.41,2.41,0,0,0,1-.15v2.05a5.09,5.09,0,0,1-2,.39,2.34,2.34,0,0,1-2.34-1.75,5.64,5.64,0,0,1-3.89,1.75c-2.52,0-4.39-1.28-4.42-4s2-4.09,5.25-4.09a19.85,19.85,0,0,1,2.79.25V231c0-1.4-.89-2.17-2.66-2.14a10.41,10.41,0,0,0-4,.79Zm7.16,6a13.13,13.13,0,0,0-2.52-.15c-1.48.07-2.42.77-2.44,2.07a1.81,1.81,0,0,0,2.1,1.9,5.1,5.1,0,0,0,2.86-1Z"/><path d="M680.6,226.53l.47,2.3a4.74,4.74,0,0,1,4.41-2.42c3,0,4.49,2,4.49,4.61v8.43h-3.06V232c0-2-.74-3-2.41-3-2.35,0-3.26,1.9-3.26,4v6.51h-3.06V226.53Z"/><path d="M704.33,235.83c-.84,2.64-3,3.77-5.63,3.77-4.24,0-6.06-3.15-6.06-6.61,0-4.21,2.61-6.51,6.14-6.58,3.1-.07,5,1.53,5.5,3.8l-2.84.91a2.55,2.55,0,0,0-2.61-2.12c-1.78,0-3.13,1.31-3.13,3.94,0,2.1.78,4,3.08,4a2.6,2.6,0,0,0,2.71-2.05Z"/><path d="M718.14,235.9a5.77,5.77,0,0,1-5.58,3.7c-4.33,0-6.26-2.71-6.26-6.75s2.71-6.54,6.44-6.44c3,.07,5.74,2.34,5.45,6.46l-.05.39h-8.73c0,2.2.94,3.7,3.18,3.7a2.88,2.88,0,0,0,2.79-2ZM715,231.69c0-2-1-2.94-2.54-2.89a2.87,2.87,0,0,0-2.91,2.89Z"/><path d="M547.27,260.57v-1.75c0-2.64,1.38-4.29,4.26-4.29A6.74,6.74,0,0,1,554,255l-.39,2.15a6.25,6.25,0,0,0-1.31-.15c-1.35,0-1.92.57-1.92,2.34v1.26h2.81l-.39,2.47h-2.42v10.33h-3.08V263h-2v-2.47Z"/><path d="M557.6,260.45l.57,2.66c.59-2,2.09-2.84,4.19-2.79a5.12,5.12,0,0,1,1.33.23l-.47,2.68a5.29,5.29,0,0,0-1.85-.24c-2.26.07-3.13,1.82-3.13,3.89v6.49h-3.06V260.45Z"/><path d="M571.12,260.32c3.23,0,6,2.2,6,6.61,0,3.63-2.15,6.59-6.17,6.59-4.36,0-6.16-3-6.16-6.59C564.83,262.52,567.61,260.32,571.12,260.32ZM568,266.93c0,2.05.69,4,3,4,2.1,0,3-1.95,3-4,0-2.86-1.41-4-3-4C569.41,262.91,568,264,568,266.93Z"/><path d="M582.31,260.45l.45,2.29a4.3,4.3,0,0,1,4-2.44,3.77,3.77,0,0,1,3.85,2.39,4.52,4.52,0,0,1,4.17-2.39c3,0,4.21,2,4.21,4.63v8.44h-3.05v-7.45c0-2-.47-3-2.15-3-2.22,0-2.81,1.67-2.81,3.57v6.91h-3.06v-7.45c0-2-.47-3-2.14-3-2.37,0-2.84,1.9-2.84,4v6.51h-3.06V260.45Z"/><path d="M611.22,256.8v3.77h3.26l-.42,2.47h-2.84V269c0,1.41.64,1.95,1.68,1.95a5.76,5.76,0,0,0,2-.56l.56,2.34a8.1,8.1,0,0,1-3.28.84c-3,0-4-2-4-4.15V263h-1.8v-2.47h1.95l.37-3.43Z"/><path d="M620.42,254.53v8a4.83,4.83,0,0,1,4.24-2.2c3,0,4.49,1.95,4.49,4.61v8.44h-3.06v-7.45c0-2-.74-3-2.41-3-2.35,0-3.26,1.9-3.26,4v6.51h-3.06V254.9Z"/><path d="M643.55,269.82a5.76,5.76,0,0,1-5.57,3.7c-4.34,0-6.26-2.72-6.26-6.76s2.71-6.54,6.43-6.44c3,.08,5.75,2.35,5.45,6.46l-.05.4h-8.73c0,2.19.94,3.7,3.18,3.7a2.87,2.87,0,0,0,2.79-2.05Zm-3.13-4.22c.05-2-1-2.93-2.54-2.88A2.87,2.87,0,0,0,635,265.6Z"/><path d="M654.51,254.53v8.21a4.42,4.42,0,0,1,4.31-2.42c2.44.08,5.06,1.73,5.06,6.49,0,3.89-2,6.71-5.45,6.71a4.28,4.28,0,0,1-4.07-2.37l-.42,2.22h-2.49V254.92Zm-.13,12.35c0,2.22.82,4,3.26,4,2,0,3.1-1.51,3.1-4.05,0-3-1.5-3.94-3.13-3.94S654.38,264.29,654.38,266.88Z"/><path d="M672.39,260.32c3.23,0,6,2.2,6,6.61,0,3.63-2.15,6.59-6.17,6.59-4.36,0-6.16-3-6.16-6.59C666.1,262.52,668.89,260.32,672.39,260.32Zm-3.09,6.61c0,2.05.69,4,3,4,2.1,0,3-1.95,3-4,0-2.86-1.41-4-3-4S669.3,264,669.3,266.93Z"/><path d="M681.34,261.26a15.42,15.42,0,0,1,4.88-.94c3.9,0,5.33,1.93,5.33,4.94v5.22a.65.65,0,0,0,.62.74,2.45,2.45,0,0,0,1-.15v2.05a5.05,5.05,0,0,1-2,.4,2.33,2.33,0,0,1-2.34-1.76,5.63,5.63,0,0,1-3.9,1.76c-2.51,0-4.39-1.29-4.41-4s2-4.1,5.25-4.1a19.85,19.85,0,0,1,2.79.25v-.77c0-1.4-.89-2.17-2.67-2.14a10.39,10.39,0,0,0-4,.79Zm7.15,6a13.88,13.88,0,0,0-2.51-.15c-1.48.08-2.42.77-2.44,2.08a1.8,1.8,0,0,0,2.09,1.89,5.07,5.07,0,0,0,2.86-1Z"/><path d="M697.72,260.45l.56,2.66c.6-2,2.1-2.84,4.2-2.79a5.28,5.28,0,0,1,1.33.23l-.47,2.68a5.33,5.33,0,0,0-1.85-.24c-2.27.07-3.13,1.82-3.13,3.89v6.49H695.3V260.45Z"/><path d="M717.35,254.53v18.84h-2.57l-.34-2.22a4.53,4.53,0,0,1-4.12,2.37c-3.48.05-5.55-2.84-5.55-6.64,0-4.63,3-6.56,5.53-6.56a4.12,4.12,0,0,1,4,2.44v-7.84Zm-9.42,12.33c0,2.19.86,3.92,3.15,3.92s3.26-1.73,3.26-3.9c0-2.93-1.58-4-3.28-4S707.93,264,707.93,266.86Z"/><path d="M703.55,293c4.16,3.35,8,7.08,11.88,10.73l.33-2.55c-2.56,1.18-5.07,2.46-7.61,3.68-2.36,1.12-4.76,2.16-7.12,3.3a1.64,1.64,0,0,0-.59,2.22,1.67,1.67,0,0,0,2.22.58c2.36-1.14,4.76-2.18,7.13-3.3,2.54-1.22,5.05-2.5,7.61-3.68a1.63,1.63,0,0,0,.32-2.55c-3.9-3.64-7.72-7.37-11.88-10.72a1.66,1.66,0,0,0-2.29,0,1.62,1.62,0,0,0,0,2.29Z"/><path d="M558.44,290.74c-4.16,3.35-8,7.08-11.88,10.72a1.63,1.63,0,0,0,.33,2.55c2.56,1.18,5.06,2.46,7.61,3.68,2.36,1.12,4.76,2.16,7.12,3.3a1.67,1.67,0,0,0,2.22-.58,1.63,1.63,0,0,0-.58-2.22c-2.36-1.14-4.76-2.18-7.13-3.3-2.54-1.22-5-2.5-7.6-3.68l.32,2.55c3.9-3.65,7.73-7.38,11.89-10.73a1.63,1.63,0,0,0,0-2.29,1.66,1.66,0,0,0-2.3,0Z"/><path d="M713.59,300H550.24a1.63,1.63,0,0,0,0,3.25H713.59a1.63,1.63,0,0,0,0-3.25Z"/><path d="M97.35,227.85a68.34,68.34,0,0,0,2.26,33.88,81.51,81.51,0,0,0,15.44,27A88.38,88.38,0,0,0,127,300.4c1.49,1.2,3.62-.91,2.12-2.12-15.47-12.49-27.31-30.61-29.53-50.65a65,65,0,0,1,.69-19c.35-1.89-2.54-2.69-2.89-.8Z"/><path d="M122.78,285.81c1.69,4.63,2.92,9.41,4.25,14.16l1.45-1.9c-2.49.06-5,.24-7.47.34-2.31.1-4.62.1-6.94.2-1.92.09-1.93,3.09,0,3,2.32-.1,4.63-.1,6.94-.2,2.49-.1,5-.28,7.47-.34a1.52,1.52,0,0,0,1.44-1.9c-1.33-4.75-2.56-9.52-4.24-14.16a1.55,1.55,0,0,0-1.85-1.05,1.52,1.52,0,0,0-1,1.85Z"/><path d="M75.44,148.57v17.26H72.36V148.57Z"/><path d="M82.74,149.26V153H86l-.42,2.47H82.74v5.92c0,1.4.64,2,1.68,2a5.72,5.72,0,0,0,2-.57l.56,2.34a8.09,8.09,0,0,1-3.27.84c-3,0-4-2-4-4.14V155.5h-1.8V153h1.94l.37-3.42Z"/><path d="M96.48,152.91l.44,2.29a4.34,4.34,0,0,1,4-2.44,3.77,3.77,0,0,1,3.85,2.39,4.55,4.55,0,0,1,4.16-2.39c3,0,4.22,2,4.22,4.64v8.43h-3.06v-7.45c0-2-.47-3-2.14-3-2.22,0-2.81,1.68-2.81,3.58v6.9h-3.06v-7.45c0-2-.47-3-2.15-3-2.36,0-2.83,1.9-2.83,4v6.51H94V152.91Z"/><path d="M119.15,152.91v7.45c0,2,.79,3,2.59,3,2.34,0,3.3-2.42,3.3-4.86v-5.62h3.06v12.92h-2.44l-.45-2.81a4.71,4.71,0,0,1-4.46,3c-3.16,0-4.66-1.95-4.66-5.2v-7.87Z"/><path d="M131.6,162.13a6.72,6.72,0,0,0,4.19,1.43c1.48,0,2.35-.44,2.35-1.5,0-2.52-7.47-.84-7.23-5.57.1-2.32,1.8-3.7,5.23-3.7A10.49,10.49,0,0,1,140.8,154l-1.08,2.17a7.36,7.36,0,0,0-3.7-1.07c-1.21,0-2.22.4-2.17,1.41.14,2.05,7.32.47,7.32,5.45,0,2.66-2.39,4-5.45,4a8.86,8.86,0,0,1-5.3-1.68Z"/><path d="M147.63,149.26V153h3.26l-.42,2.47h-2.84v5.92c0,1.4.64,2,1.68,2a5.72,5.72,0,0,0,1.95-.57l.57,2.34a8.21,8.21,0,0,1-3.28.84c-3,0-4-2-4-4.14V155.5h-1.8V153h1.94l.37-3.42Z"/><path d="M162,147v8.21a4.39,4.39,0,0,1,4.31-2.41c2.44.07,5.06,1.72,5.06,6.48,0,3.9-2,6.71-5.45,6.71a4.28,4.28,0,0,1-4.07-2.37l-.42,2.22h-2.49V147.39Zm-.13,12.36c0,2.21.82,4,3.26,4,2,0,3.11-1.5,3.11-4,0-3-1.51-4-3.13-4C163.32,155.35,161.86,156.76,161.86,159.35Z"/><path d="M185.39,162.28a5.76,5.76,0,0,1-5.57,3.7c-4.34,0-6.26-2.71-6.26-6.76s2.71-6.53,6.43-6.43c3,.07,5.75,2.34,5.45,6.46l-.05.39h-8.73c0,2.2.94,3.7,3.18,3.7a2.87,2.87,0,0,0,2.79-2.05Zm-3.13-4.22c.05-2-1-2.93-2.54-2.88a2.87,2.87,0,0,0-2.91,2.88Z"/><path d="M196.35,147v8.21a4.39,4.39,0,0,1,4.31-2.41c2.44.07,5.06,1.72,5.06,6.48,0,3.9-1.95,6.71-5.45,6.71a4.27,4.27,0,0,1-4.07-2.37l-.42,2.22h-2.49V147.39Zm-.13,12.36c0,2.21.82,4,3.26,4,2,0,3.1-1.5,3.1-4,0-3-1.5-4-3.13-4S196.22,156.76,196.22,159.35Z"/><path d="M214.23,152.79c3.23,0,6,2.19,6,6.6,0,3.63-2.15,6.59-6.17,6.59-4.36,0-6.16-3-6.16-6.59C207.94,155,210.72,152.79,214.23,152.79Zm-3.09,6.6c0,2.05.69,4,3,4,2.1,0,3-1.95,3-4,0-2.86-1.41-4-3-4C212.52,155.38,211.14,156.49,211.14,159.39Z"/><path d="M226,147v14.62c0,1.39.62,1.76,1.53,1.76a2.42,2.42,0,0,0,1.28-.47l.57,2.19a5.35,5.35,0,0,1-2.79.89c-2.56,0-3.65-1.73-3.65-4.07V147.36Z"/><path d="M242.49,147v18.84h-2.56l-.35-2.22a4.52,4.52,0,0,1-4.12,2.37c-3.47.05-5.55-2.84-5.55-6.63,0-4.64,3-6.56,5.53-6.56a4.1,4.1,0,0,1,4,2.44v-7.84Zm-9.42,12.33c0,2.2.86,3.92,3.16,3.92s3.25-1.72,3.25-3.89c0-2.94-1.58-4-3.28-4S233.07,156.49,233.07,159.32Z"/><path d="M246.61,165.49a1.42,1.42,0,0,1-1.63-1.58,1.6,1.6,0,0,1,1.73-1.53c1.7,0,2.37,1.33,2.24,2.91-.19,2.34-2,3.28-4,3.3v-1.33c1.16,0,2-.62,2-1.36C246.91,165.71,246.61,165.49,246.61,165.49Z"/><path d="M259.73,147v8a4.82,4.82,0,0,1,4.24-2.19c3,0,4.49,1.94,4.49,4.61v8.43H265.4v-7.45c0-2-.74-3-2.41-3-2.35,0-3.26,1.9-3.26,4v6.51h-3.06V147.36Z"/><path d="M275.54,152.91v12.92h-3.08V155.45h-1.8v-2.54Zm-1.55-5a1.6,1.6,0,1,1,0,3.16,1.63,1.63,0,0,1-1.8-1.63A1.59,1.59,0,0,1,274,147.88Z"/><path d="M290.73,152.91v11c0,4.29-1.67,6.88-6.41,6.88a13.36,13.36,0,0,1-5.28-1.11l.72-2.31a11.13,11.13,0,0,0,4.22,1c2.78,0,3.69-1.38,3.69-3.5v-1.14a4.45,4.45,0,0,1-4,2.05c-3.47.07-5.47-2.57-5.47-6.36,0-4.64,3-6.56,5.52-6.56a4.28,4.28,0,0,1,4.1,2.34l.32-2.22Zm-9.32,6.41c0,2.2.86,3.92,3.16,3.92s3.2-1.72,3.2-3.89c0-2.94-1.55-4-3.23-4S281.41,156.49,281.41,159.32Z"/><path d="M297,147v8a4.82,4.82,0,0,1,4.24-2.19c3,0,4.49,1.94,4.49,4.61v8.43h-3.06v-7.45c0-2-.74-3-2.42-3-2.34,0-3.25,1.9-3.25,4v6.51h-3.06V147.36Z"/><path d="M72.38,187.64a15.49,15.49,0,0,1,4.89-.94c3.89,0,5.32,1.92,5.32,4.93v5.23a.65.65,0,0,0,.62.74,2.41,2.41,0,0,0,1-.15v2.05a5,5,0,0,1-2,.39,2.34,2.34,0,0,1-2.34-1.75,5.64,5.64,0,0,1-3.89,1.75c-2.52,0-4.39-1.28-4.42-4s2-4.09,5.25-4.09a19.85,19.85,0,0,1,2.79.25v-.77c0-1.4-.89-2.17-2.66-2.14a10.41,10.41,0,0,0-4,.79Zm7.16,6a13.13,13.13,0,0,0-2.52-.15c-1.48.07-2.42.77-2.44,2.07a1.81,1.81,0,0,0,2.1,1.9,5.1,5.1,0,0,0,2.86-1Z"/><path d="M88.76,186.82l.47,2.3a4.76,4.76,0,0,1,4.41-2.42c3,0,4.49,2,4.49,4.61v8.43H95.07V192.3c0-2-.74-3-2.41-3-2.35,0-3.26,1.9-3.26,4v6.51H86.34V186.82Z"/><path d="M113.32,180.91v18.83h-2.56l-.35-2.21a4.5,4.5,0,0,1-4.11,2.36c-3.48.05-5.55-2.83-5.55-6.63,0-4.64,3-6.56,5.52-6.56a4.09,4.09,0,0,1,4,2.44V181.3Zm-9.42,12.32c0,2.2.87,3.93,3.16,3.93s3.26-1.73,3.26-3.9c0-2.93-1.58-4-3.28-4S103.9,190.4,103.9,193.23Z"/><path d="M132.86,196.12c-.84,2.64-3,3.77-5.62,3.77-4.24,0-6.07-3.15-6.07-6.61,0-4.21,2.61-6.51,6.14-6.58,3.11-.07,5,1.53,5.5,3.8l-2.84.91a2.54,2.54,0,0,0-2.61-2.12c-1.78,0-3.13,1.31-3.13,3.94,0,2.1.79,4,3.08,4a2.6,2.6,0,0,0,2.71-2Z"/><path d="M141.15,186.7c3.23,0,6,2.19,6,6.61,0,3.62-2.15,6.58-6.17,6.58-4.36,0-6.16-3-6.16-6.58C134.86,188.89,137.65,186.7,141.15,186.7Zm-3.09,6.61c0,2.05.7,4,3,4,2.1,0,3-1.94,3-4,0-2.86-1.41-4-3-4C139.45,189.29,138.06,190.4,138.06,193.31Z"/><path d="M152.32,186.82l.47,2.3a4.76,4.76,0,0,1,4.41-2.42c3,0,4.49,2,4.49,4.61v8.43h-3.06V192.3c0-2-.74-3-2.41-3-2.35,0-3.26,1.9-3.26,4v6.51H149.9V186.82Z"/><path d="M165.66,187V185.2c0-2.64,1.38-4.29,4.25-4.29a6.9,6.9,0,0,1,2.12.32l-.47,2.19c-.1,0-.5-.07-.89-.07-1.36,0-1.92.56-1.92,2.34V187H176v12.79h-3.06V189.41h-4.16v10.33h-3.09V189.41h-2V187Zm8.81-5.16a1.64,1.64,0,0,1,1.8,1.56,1.62,1.62,0,0,1-1.8,1.6,1.64,1.64,0,0,1-1.83-1.63C172.64,182.48,173.28,181.79,174.47,181.79Z"/><path d="M191.21,180.91v18.83h-2.56l-.35-2.21a4.5,4.5,0,0,1-4.11,2.36c-3.48.05-5.55-2.83-5.55-6.63,0-4.64,3-6.56,5.52-6.56a4.09,4.09,0,0,1,4,2.44V181.3Zm-9.42,12.32c0,2.2.87,3.93,3.16,3.93s3.26-1.73,3.26-3.9c0-2.93-1.58-4-3.28-4S181.79,190.4,181.79,193.23Z"/><path d="M205.69,196.19a5.76,5.76,0,0,1-5.57,3.7c-4.34,0-6.26-2.71-6.26-6.75s2.71-6.54,6.43-6.44c3,.07,5.75,2.34,5.45,6.46l-.05.39H197c0,2.2.94,3.7,3.18,3.7a2.87,2.87,0,0,0,2.79-2ZM202.56,192c.05-2-1-2.94-2.54-2.89a2.88,2.88,0,0,0-2.91,2.89Z"/><path d="M210.85,186.82l.47,2.3a4.76,4.76,0,0,1,4.41-2.42c3,0,4.49,2,4.49,4.61v8.43h-3.06V192.3c0-2-.74-3-2.42-3-2.34,0-3.25,1.9-3.25,4v6.51h-3.06V186.82Z"/><path d="M227.3,183.17V187h3.25l-.42,2.46H227.3v5.92c0,1.41.64,1.95,1.68,1.95a5.43,5.43,0,0,0,1.94-.57l.57,2.34a7.94,7.94,0,0,1-3.28.84c-3,0-4-2-4-4.14v-6.34h-1.8V187h1.95l.37-3.43Z"/><path class="cls-8" d="M95.79,61.4A36.74,36.74,0,0,1,104.16,38a34.44,34.44,0,1,0,.11,46.9A36.78,36.78,0,0,1,95.79,61.4ZM87.2,75.66H70.92L71,73.39l4.46-.58c.58,0,.81-.23.81-1,.08-10.05,0-19.6,0-19.6l-5.62,1.08c-.19-.31-1.12-2.46-.46-2.73l10.35-4,1,1s-.12,20.87,0,24.37c0,.77.19,1,.73,1l5.08.54Z"/><circle cx="130" cy="61.53" r="34.44"/><text class="cls-9" transform="translate(118.45 75.26)">2</text><path d="M184,52.13l8.43,15.27V52.13h3.75v21h-4.59L183.3,58.34V73.13h-3.75v-21Z"/><path d="M213.6,68.81a7,7,0,0,1-6.78,4.5c-5.28,0-7.62-3.3-7.62-8.22s3.3-8,7.83-7.83c3.69.09,7,2.85,6.63,7.86l-.06.48H203c0,2.67,1.14,4.5,3.87,4.5a3.5,3.5,0,0,0,3.39-2.49Zm-3.81-5.13c.06-2.43-1.26-3.57-3.09-3.51a3.5,3.5,0,0,0-3.54,3.51Z"/><path d="M219.69,57.41l3.15,6.18,3.3-6.18h4l-4.35,7.8,4.53,7.92h-4.26L222.78,67l-3.45,6.12h-4.14L220,65.27l-4.29-7.86Z"/><path d="M238.11,53v4.59h4l-.51,3h-3.45v7.2c0,1.71.78,2.37,2,2.37a6.83,6.83,0,0,0,2.37-.69l.69,2.85a9.82,9.82,0,0,1-4,1c-3.69,0-4.83-2.46-4.83-5V60.56H232.2v-3h2.37l.45-4.17Z"/><path d="M256.74,57.41V73.13H253V60.5H250.8V57.41Zm-1.89-6.12a2,2,0,0,1,2.22,1.89,2.22,2.22,0,0,1-4.41,0A1.93,1.93,0,0,1,254.85,51.29Z"/><path d="M261,68.63a8.15,8.15,0,0,0,5.1,1.74c1.8,0,2.85-.54,2.85-1.83,0-3.06-9.09-1-8.79-6.78.12-2.82,2.19-4.5,6.36-4.5a12.78,12.78,0,0,1,5.67,1.47l-1.32,2.64a8.9,8.9,0,0,0-4.5-1.29c-1.47,0-2.7.48-2.64,1.71.18,2.49,8.91.57,8.91,6.63,0,3.24-2.91,4.92-6.63,4.89a10.76,10.76,0,0,1-6.45-2Z"/><path d="M286.77,53v4.59h4l-.51,3h-3.45v7.2c0,1.71.78,2.37,2,2.37a6.83,6.83,0,0,0,2.37-.69l.69,2.85a9.82,9.82,0,0,1-4,1c-3.69,0-4.83-2.46-4.83-5V60.56h-2.19v-3h2.37l.45-4.17Z"/><path d="M294.09,58.4A18.74,18.74,0,0,1,300,57.26c4.74,0,6.48,2.34,6.48,6v6.36a.79.79,0,0,0,.75.9,3,3,0,0,0,1.23-.18v2.49a6.08,6.08,0,0,1-2.49.48,2.84,2.84,0,0,1-2.85-2.13,6.87,6.87,0,0,1-4.74,2.13c-3.06,0-5.34-1.56-5.37-4.83s2.46-5,6.39-5a24.49,24.49,0,0,1,3.39.3v-.93c0-1.71-1.08-2.64-3.24-2.61a12.68,12.68,0,0,0-4.86,1Zm8.7,7.35a16.62,16.62,0,0,0-3.06-.18c-1.8.09-2.94.93-3,2.52a2.21,2.21,0,0,0,2.55,2.31,6.17,6.17,0,0,0,3.48-1.26Z"/><path d="M314.79,50.21V64h1.74l3.66-6.45h4.2l-4.71,7.77,5.13,7.86h-4.29l-4-6.09h-1.77v6.09h-3.72V50.66Z"/><path d="M340.59,68.81a7,7,0,0,1-6.78,4.5c-5.28,0-7.62-3.3-7.62-8.22s3.3-8,7.83-7.83c3.69.09,7,2.85,6.63,7.86l-.06.48H330c0,2.67,1.14,4.5,3.87,4.5a3.5,3.5,0,0,0,3.39-2.49Zm-3.81-5.13c.06-2.43-1.26-3.57-3.09-3.51a3.5,3.5,0,0,0-3.54,3.51Z"/><path d="M349.68,63.56v3h-7.44v-3Z"/><path d="M359,57.26c3.93,0,7.35,2.67,7.35,8,0,4.41-2.61,8-7.5,8-5.31,0-7.5-3.6-7.5-8C351.33,59.93,354.72,57.26,359,57.26Zm-3.75,8c0,2.49.84,4.86,3.66,4.86,2.55,0,3.69-2.37,3.69-4.86,0-3.48-1.71-4.89-3.6-4.89C356.91,60.41,355.23,61.76,355.23,65.3Z"/><path d="M370.56,57.56V55.43c0-3.21,1.68-5.22,5.19-5.22a8.28,8.28,0,0,1,3,.54l-.48,2.61a7.71,7.71,0,0,0-1.59-.18c-1.65,0-2.34.69-2.34,2.85v1.53h3.42l-.48,3h-2.94V73.13h-3.75V60.56H368.1v-3Z"/><path d="M381.12,57.56V55.43c0-3.21,1.68-5.22,5.19-5.22a8.28,8.28,0,0,1,3,.54l-.48,2.61a7.71,7.71,0,0,0-1.59-.18c-1.65,0-2.34.69-2.34,2.85v1.53h3.42l-.48,3h-2.94V73.13h-3.75V60.56h-2.46v-3Z"/></svg>