<svg id="Layer_1" data-name="Layer 1" xmlns="http://www.w3.org/2000/svg" viewBox="0 0 780 1051.14"><defs><style>.cls-1{fill:#fff171;stroke-width:0.3px;}.cls-1,.cls-2,.cls-3,.cls-4,.cls-5{stroke:#fff;stroke-miterlimit:10;}.cls-2,.cls-3{fill:#d4a47c;}.cls-2{stroke-width:0.37px;}.cls-3{stroke-width:0.27px;}.cls-4{fill:#005058;stroke-width:0.47px;}.cls-5{fill:#c6946f;stroke-width:0.26px;}.cls-6{font-size:24.66px;}.cls-16,.cls-6{font-family:ABCSansBold, ABCSans;}.cls-7{letter-spacing:-0.01em;}.cls-8{letter-spacing:-0.03em;}.cls-9{letter-spacing:0.01em;}.cls-10{letter-spacing:-0.02em;}.cls-11{letter-spacing:-0.01em;}.cls-12{letter-spacing:-0.02em;}.cls-13{letter-spacing:-0.02em;}.cls-14,.cls-15{fill:#fff;}.cls-14{opacity:0.7;}.cls-15{font-size:38.5px;font-family:ABCSerifBold, ABCSerif;}.cls-16{font-size:30px;}.cls-17{letter-spacing:-0.01em;}.cls-18{letter-spacing:-0.02em;}.cls-19{letter-spacing:-0.01em;}.cls-20{letter-spacing:0em;}</style></defs><path class="cls-1" d="M388.47,396.16l0,0a82.66,82.66,0,0,0-14.72-9.55c-2.41-1.27-4.81-2.69-7.54-3.13-10.22-1.66-20,3-27.65,9.34-2.5,2.07-5.06,4.48-6.46,7.47-.62,1.3-2.1,7.1,1.21,7.13.44,0,2.86-5.47,3.63-6.37,5.53-6.54,12.73-12.74,21.68-13.31,2.66-.17,5.54-.63,8.13.17a36.49,36.49,0,0,1,6.75,3.33c2.35,1.32,4.59,2.83,6.92,4.18a46.6,46.6,0,0,1,6.62,5c1.22,1,2.4,2.08,3.62,3.1C389.8,401.05,389.12,398.55,388.47,396.16Z"/><path class="cls-2" d="M410.36,390.26c6.29-13.25,7.83-28.52,9.07-43,.91-10.67-.05-21.1-.26-31.79a78.45,78.45,0,0,1,.7-14.07c-9.31-4.46-18.33-9.61-27.3-14.7-6,10.59-.26,20.47-10.94,25.44-2.76,1.28-13.17,8.54-15.7,10.13-8.26,5.19-19.86,8.4-20.07,18.56-.19,9.16,1.87,33.33,1.94,42.88.07,9.72-1.47,19.34-2.78,28.91-2.45,17.79-3.55,37.43,7.32,52.55,16.08-24.09,40.2-42.88,54.49-67.9C408,395,409.23,392.64,410.36,390.26Z"/><path class="cls-3" d="M414.79,328.85l8-24.2c.69-1.14-11.94-8.73-11.27-9.89s-2.76-5.42-1.35-5.6,1.55,1.58,2,2.6c.35.83,1.05,1.4,1.46,2.22a7.59,7.59,0,0,0,.87,1.76,6.25,6.25,0,0,0,4,2.1c1.76,0,3.07-1.49,4.75-1.7a5.32,5.32,0,0,1,2.14.34,2.62,2.62,0,0,1,.19-1.65c1.58-3.57,5.07-5.41,7.63-8.16a18.56,18.56,0,0,0-2.41-2.44,29.21,29.21,0,0,1-3.68-3.94c-1-1.27-2.24-2.09-2.35-3.7-.08-1.23.58-2.37.5-3.6a22.75,22.75,0,0,1-.34-2.48,34.06,34.06,0,0,1,.63-3.9c.48-2.88.7-5.87,1-8.79a24.29,24.29,0,0,0-.52-9.38,19.43,19.43,0,0,0-4.86-8.2,43.42,43.42,0,0,0-5.46-5,74.35,74.35,0,0,0-9.27-5.6c-3.62-1.85-8.34-2.62-12.35-2.83-3-.15-5.8-.76-8.83-.58a25.25,25.25,0,0,0-8.71,2.49c-2.39,1.07-4.76,1.25-7.25,1.65-1.25.21-2.34.94-3.64,1.2a29.22,29.22,0,0,0-4.56,1.13c-2.84,1.09-4,3.4-5.37,5.87-.92,1.65-1.22,3.46-2.18,5.1a14.12,14.12,0,0,0-1.07,2.53c-.33,1-.91,1.76-1.24,2.74-.16.47-.1.92-.25,1.41s-.54.69-.6,1.23a20.27,20.27,0,0,0,.43,3.13,27,27,0,0,1,.23,3.69,1.88,1.88,0,0,0,0,.4c-.07,0-.19.08-.41.34a12.54,12.54,0,0,1-2.15,1.83c-1.9,1.5-2.31,1.29-4.31,3.21a27.41,27.41,0,0,0-3.41,3.89,3.43,3.43,0,0,0,1.36,5.12,1.85,1.85,0,0,1,.92.86,4.76,4.76,0,0,1,.82,3.38,18.67,18.67,0,0,0-.94,2.88,18.42,18.42,0,0,0,.26,5.55c.32,1.5,1,2.16.34,3.5-.49,1-1,1.94-1.58,2.89-1,1.78-1.4,3.72.13,5.34,2.07,2.17,20.82,2.44,23.53,3.4,9.32,3.33,4.2,7.3,13.59,10.32a27.91,27.91,0,0,1,15.47,11.44"/><path d="M361.7,252.9c.28.22.55.46.82.7s.47.44.46.67,0,.1-.1.1-.2-.11-.27-.14l-.31-.1c-.43-.11-.86-.17-1.29-.28-.25-.06-.5-.09-.74-.17-1.49-.5-2.88-1.51-4.42-1.84a7.14,7.14,0,0,0-4.33.84c-.09-.51-.42-2.16.07-2.45.7-.41,2.79.07,3.62-.06a6.51,6.51,0,0,1,4.4,1C360.36,251.69,361,252.36,361.7,252.9Z"/><path d="M434.47,281.21c-1.55-1.95-3.57-3.77-4.87-5.88-4.13-6.73-.47-15.44-1.33-23.28-.71-6.46-4.59-12.27-9.57-16.43s-11-6.86-17.12-9.1c-5.66-2.07-11.54-3.8-17.56-3.78-4,0-15.82,1.83-16.54,7.15s7.49,10.85,7.57,16.74c.05,3-1.29,6-.72,8.9a25,25,0,0,0,1.6,4.21c1,2.53,1.34,5.3,2.5,7.76s3.56,4.67,6.27,4.38a11.2,11.2,0,0,1,2.4-5.25c1.35-1.4,2.2-.47,3.84.58,2.25,1.45,3.32,3.31,2.07,5.67s-3.15,4.61-3.14,7.28c0,2.9,2.26,5.23,4.35,7.23,3.59,3.43,11.86,6.76,15.45,10.19,2.62-1.43,2.07-.57,4.77-1.84,2-1-.16-4.66,1.81-3.56a18.45,18.45,0,0,0,12.32,2c3.92-.75,8-3.53,8.12-7.53A8.36,8.36,0,0,0,434.47,281.21Z"/><path d="M366.82,230.48l.9-.18c0-.07,0-.14,0-.21A2.84,2.84,0,0,0,366.82,230.48Z"/><path class="cls-3" d="M381.59,272c-2-4.88,5.72-8.29,9.27-6.48a6.54,6.54,0,0,1,2.78,8.4c-1.49,3-5.17,4.47-6.86,7.4-.89,1.55-1.24,3.53-2.69,4.57s-4.22-.61-3.12-2"/><path d="M422,278.63a7.08,7.08,0,0,0,2.92-1.73,12,12,0,0,1,3.55-1.79,6.11,6.11,0,0,1,4.49-.05,6.72,6.72,0,0,1,3,2.68,6.41,6.41,0,0,1,1.16,3.43c-.17,1.28-1.54,2.89-2.13,4a6.74,6.74,0,0,1-3.64,2.75,6,6,0,0,1-4.66.28,19.7,19.7,0,0,1-7.74-7.22c-1-1.45-.64-3.82-.14-5.44s1.79-4.13,3.2-5.14c2.72-1.92,6.36.06,8.47,1.95,1.26,1.14,2.41,2.41,2.28,4.25a9.82,9.82,0,0,1-1.55,4.11,18.19,18.19,0,0,1-2.72,4.23,6.56,6.56,0,0,1-2,1.75,19.77,19.77,0,0,0-2.66,1.28,8.19,8.19,0,0,1-3.12,1.13,3.26,3.26,0,0,1-2.47-.53,10.58,10.58,0,0,1-2.43-1.82c-.45-.45-.72-1.06-1.14-1.54-.72-.83-.7-.88-.17-2"/><path d="M426.33,276.12c.11-1.44,1.12-2.24,2.2-3a6.61,6.61,0,0,0,1.08-.85,1.87,1.87,0,0,1,1.83-.62c1.82.19,3.4,1.7,4.71,2.82a6.3,6.3,0,0,1,1.51,1.58c.34.6.45,1.3.78,1.87.2.34.51.54.63.94s.05.84.2,1.26a2.44,2.44,0,0,1,.31,1.12,10.46,10.46,0,0,1-.19,1.23,5.06,5.06,0,0,1-.67,2.15,13.73,13.73,0,0,1-1.56,1.76,5.9,5.9,0,0,1-.87.61c-.37.24-.62.6-1,.85a6.27,6.27,0,0,1-3.44.65c-2.22.05-4.43-1.33-6.28-2.45a11.5,11.5,0,0,1-3.62-3.49c-.49-.82-.86-1.66-1.27-2.51a9.71,9.71,0,0,1-1-2.4,8.19,8.19,0,0,1-.08-2.88,18.36,18.36,0,0,1,.5-3,6.23,6.23,0,0,1,1.67-2.49,8.6,8.6,0,0,0,1.27-1,5.7,5.7,0,0,1,1.12-1.23,6.62,6.62,0,0,1,5.51-1.28,21.2,21.2,0,0,1,4.11,1.33c.82.42,1.61.9,2.43,1.33a6,6,0,0,1,2.14,2,4,4,0,0,1,.78,1.55,5,5,0,0,1,.37,1.63c-.19,1.61-1.33,2.69-1.77,4.16a4.59,4.59,0,0,1-.21.87c-.2.43-.47.85-.7,1.27a10.61,10.61,0,0,1-1.22,2,6.91,6.91,0,0,1-2.05,1.67,3.63,3.63,0,0,1-3,.2,9.93,9.93,0,0,1-3.45-1.31,13,13,0,0,1-3.39-3.54,9.8,9.8,0,0,1-1.93-4.59,10.44,10.44,0,0,1-.15-2.61,10.65,10.65,0,0,1,.8-2.21c.63-1.55,2.27-2.43,3.58-3.3.25-.17.81-.7,1.13-.71s.62.3.83.41"/><path d="M412.73,288.59c.11-1.43,1.11-2.24,2.19-3a5.83,5.83,0,0,0,1.09-.85,1.86,1.86,0,0,1,1.83-.62c1.82.2,3.4,1.7,4.71,2.82a6.34,6.34,0,0,1,1.51,1.59c.34.59.44,1.29.78,1.86.2.34.51.54.63.94s0,.85.2,1.26a2.43,2.43,0,0,1,.3,1.12,7.16,7.16,0,0,1-.19,1.23,4.76,4.76,0,0,1-.67,2.15,12.93,12.93,0,0,1-1.55,1.76,5.68,5.68,0,0,1-.87.61c-.37.25-.62.61-1,.85a6.1,6.1,0,0,1-3.44.65c-2.22.05-4.43-1.33-6.29-2.45a11.57,11.57,0,0,1-3.61-3.49,25.74,25.74,0,0,1-1.28-2.51,10.11,10.11,0,0,1-1-2.4,8.64,8.64,0,0,1-.08-2.87,18.32,18.32,0,0,1,.51-3.05,6.2,6.2,0,0,1,1.67-2.49,7.84,7.84,0,0,0,1.27-1,5.43,5.43,0,0,1,1.12-1.23,6.61,6.61,0,0,1,5.51-1.28,21.58,21.58,0,0,1,4.1,1.33c.82.42,1.62.9,2.44,1.33a6,6,0,0,1,2.14,2,4.2,4.2,0,0,1,.78,1.55,5.34,5.34,0,0,1,.37,1.63c-.19,1.61-1.33,2.7-1.77,4.16a5.5,5.5,0,0,1-.21.87c-.2.44-.47.85-.7,1.27a10.16,10.16,0,0,1-1.23,2,6.74,6.74,0,0,1-2,1.67,3.59,3.59,0,0,1-3,.2,9.74,9.74,0,0,1-3.45-1.31,12.84,12.84,0,0,1-3.39-3.54,9.92,9.92,0,0,1-1.94-4.59,6.18,6.18,0,0,1,.65-4.82c.64-1.54,2.27-2.42,3.59-3.29.25-.17.81-.7,1.13-.72s.62.3.83.41"/><path class="cls-4" d="M353.88,328.34c-1.56,1.06-3.11,2.13-4.62,3.25q-5.16,3.8-10,8-2.22,1.89-4.36,3.85c-2.92,2.68-5.82,5.55-7.38,9.19-2.21,5.14-1.44,11-2.11,16.55-1.82,15-13.87,26.58-18.89,40.79-2.12,6-2.95,12.43-5.14,18.42-1.8,4.91-4.49,9.51-5.82,14.57-1.57,6-1.15,12.29-1,18.48a206,206,0,0,1-2.41,36.8c6.44-7.51,6.92-19.24,14.5-25.58,6.4-5.35,15.64-5,24-4.46,5.61.4,11.4.85,16.39,3.45,4,2.08,7.15,5.39,10,8.81,5,5.87,9.38,12.34,12,19.58a45.23,45.23,0,0,1,2.56,17.83c5-11.31-.38-24.18-1.87-36.45-1.1-9.09,0-18.32-.65-27.46a8,8,0,0,0-1.3-4.45,12.64,12.64,0,0,0-2.4-2c-4.51-3.37-6.23-9.31-6.85-14.91A58.93,58.93,0,0,1,369,392.37c1.15-1.62,2.46-3.55,1.81-5.42a7.24,7.24,0,0,0-2.55-2.85c-5.77-4.84-7.71-12.77-9.32-20.13-.91-4.16-1.8-8.32-2.46-12.53a75.92,75.92,0,0,1-1-12.68,43.7,43.7,0,0,1,1.85-12.34c0-.12.11-.73.32-.66-.09,0-.75.55-.87.63Z"/><path class="cls-2" d="M437,136.69c.32-.41.68-.76,1.06-1.2s.81-.69,1.18-1.11a8.55,8.55,0,0,0,.66-.89,1.47,1.47,0,0,0,.17-1.19,6.89,6.89,0,0,1,.15-1.92c.09-.69-.08-1.36-.05-2,.06-1.12,1-2.34,1.43-3.36a.66.66,0,0,1,.78-.37h0a.66.66,0,0,1,.45.82l-7.22,23.94a.66.66,0,0,1-1.26,0h0a19.73,19.73,0,0,1-.91-3.17,8,8,0,0,1,.4-3.37,29.2,29.2,0,0,1,2.64-5.42A4.77,4.77,0,0,1,437,136.69Z"/><path class="cls-2" d="M401.58,362.57c8.32-5.78,17.16-14.88,18.56-25.37.25-1.83.4-3.78.81-5.57,1-4.23,1.77-8.47,2.74-12.7.45-2,.69-4,1.21-5.95a55.88,55.88,0,0,0,1.25-6,24,24,0,0,0,0-3.28,15.52,15.52,0,0,1,.42-3.41c.41-2.12.38-4.27.79-6.4a31.39,31.39,0,0,0,.4-4.84,53.42,53.42,0,0,1,1.06-6.32c.37-2.2,0-4.79,0-7a24.84,24.84,0,0,0-.25-4.19,54.86,54.86,0,0,0,3.16-4.92c1.77-9.06,4.49-17.94,6.29-27-.53-13.7-.2-27.31,2.26-40.85,2-10.74.54-22,1.73-32.76.39-2.1.59-4.24,1.06-6.33.39-1.72,1-3.38,1.4-5.08.37-1.47.49-3,1-4.43.56-1.7,1.33-3.32,2-4.95.34-.79.84-1.5,1.15-2.31a16.72,16.72,0,0,0,.75-2.5c.4-1.7,1.86-3.95,2.23-5.66.7-3.2,1.6-5.1,2.45-8.38.09-.36.94-2.65,1.1-3a40.62,40.62,0,0,0,1.75-4.57l1.46-4.07c.13-.37.27-.74.39-1.11a1.75,1.75,0,0,1,.22-.43,3,3,0,0,0,.28-.78l.12-.51a1.28,1.28,0,0,0,0-.39c0-.1-.05-.3-.09-.4s-.31-.24-.49-.3c-.47-.15-.68.1-.92.4a6.72,6.72,0,0,1,.47-.88,10.25,10.25,0,0,0,.87-2.17,4.15,4.15,0,0,0,.28-2,1.07,1.07,0,0,0-.61-.79,1,1,0,0,0-.89,0c-.38.16-.72.29-.85.65s-.37.68-.25,1.17c0,0,0,0,0,0a.56.56,0,0,0-.24-.31c-.24-.14-.58,0-.83.06a.91.91,0,0,1-.49,0,.9.9,0,0,0-.7.2,7.91,7.91,0,0,0-1.43,2c-.43.7-1,1.32-1.44,2-.15.26-.3.53-.46.78s-.17.37-.28.55c-.29.49-.5,1-.76,1.5a15,15,0,0,0-.76,1.56c-.12.31-.26.61-.39.92h0c-.9.3-1.16-.06-1.94.45-.21.14-.94,1.26-1.11,1.44a3,3,0,0,0-.36.5c-2.4,3.89-3.49,8.4-5.35,12.54-.61,1.36-1.71,1.74-2.13,3.18s-1.68,3.53-2.25,4.93a53.21,53.21,0,0,0-1.9,6.66c-.6,2.14.89,2.88-.91,7.55-1,2.49-2.24,4.82-3.38,7.22s-2,4.95-3,7.44a13.16,13.16,0,0,0-.61,1.9,3.37,3.37,0,0,1,.5,0c-.15.29-.32.58-.46.88a27.62,27.62,0,0,0-2,7.81c-.82,6.19-.54,12.76-2.69,18.66-1.88,5.16-5.25,9.79-5.85,15.43a188.56,188.56,0,0,1-3.16,22c-1.58,7-5,13.29-6.26,20.31v0l-.74,1.46c.21,1.84-1.19,3.75-1.9,5.39-.87,2-2.18,3.68-3.13,5.58-.85,1.7-1.31,3.57-2,5.32-.9,2.22-1.94,4.38-3,6.52-2.17,4.34-2.31,9.6-5.15,13.6-2.72,3.82-4.55,8.29-6.53,12.52-2.18,4.65-6.1,8.11-8.74,12.49"/><path class="cls-2" d="M455.45,113.15v0Z"/><path class="cls-2" d="M450.86,124c-.24-.09-.49-.16-.72-.26a.56.56,0,0,1-.22-.21,1.42,1.42,0,0,1-.05-.36"/><path class="cls-2" d="M450.45,122.9l.46.17c.12,0,.21.12.33.16"/><path class="cls-2" d="M450.49,122.44l.45.16.23.08a2.53,2.53,0,0,1,.23.12"/><path class="cls-2" d="M450.32,121.65a.84.84,0,0,0,.31.08,3.25,3.25,0,0,0,.44,0,3.43,3.43,0,0,1,.34.06,2.19,2.19,0,0,1,.34.1"/><path class="cls-2" d="M453.06,122.3c.16,0,.32,0,.48.08l.18.07c.08,0,.16.12.23.12"/><path class="cls-2" d="M453.76,123.37c-.14-.05-.24-.13-.38-.18l-.37-.14"/><path class="cls-2" d="M453.56,123.68l-.5-.18"/><path class="cls-2" d="M453,124.66l-.64-.23a1.35,1.35,0,0,1-.51-.31"/><path class="cls-2" d="M457.89,111.22c-.34,1-1.74,5-2.09,6l-.51,1.46-.27.73c-.1.26-.13.54-.21.8-.23.72-.37,1.44-.62,2.15-.11.28-.21.57-.31.85-.18.52-.44,1-.67,1.49s-.33.72-.47,1.1-.24.68-.37,1c-.49,1.39-1,2.78-1.49,4.17a12.34,12.34,0,0,0-.45,1.91,13.59,13.59,0,0,1-.33,1.89"/><path class="cls-2" d="M455.76,111.17a1.79,1.79,0,0,1-.88-.79,1.75,1.75,0,0,1-.15-1.23,4,4,0,0,1,1.12-1.9,1.43,1.43,0,0,1,.88-.27.23.23,0,0,1,.19.31,163.87,163.87,0,0,1-5.71,16.11c-.31.87-.84,1.66-1.2,2.51a1.13,1.13,0,0,1-.22.36c-.06.18-1.32,3.49-1.4,3.67"/><path class="cls-2" d="M458.72,109.58c-.35.23-.65-.16-.7-.28s-.15-.26-.21-.39a1.72,1.72,0,0,1-.15-.67,3.28,3.28,0,0,1,.36-1.18,2.37,2.37,0,0,1,.25-.66l.15-.14a1.09,1.09,0,0,1,.08-.15,1.22,1.22,0,0,1,.31-.29,1.45,1.45,0,0,1,.66-.37c.2,0,.56.19.34,1.26Z"/><path class="cls-2" d="M448.9,116.66c.1,0,.17.14.23.22a.66.66,0,0,1,.16.36,2.8,2.8,0,0,1-.31,1.36c-.3.85-.61,1.69-.91,2.54-.08.24-.21.44-.3.67s-.12.35-.18.53-.22.59-.32.89c-.29.79-.59,1.58-.85,2.37s-.29,1.34-.47,2c-.07.25-.19.5-.28.75a5.56,5.56,0,0,0-.14.91c0,.29-.07.6-.13.88s-.22.49-.26.76,0,.31-.06.46-.07.18-.1.27-.05.3-.1.45-.09.16,0,.25a.54.54,0,0,0,.09-.22,0,0,0,0,0,.06,0"/><path class="cls-2" d="M446.37,125.73c-.14,0-1.39.06-1.33-.12"/><path class="cls-2" d="M446.15,125.35c-.24,0-.48-.11-.73-.14"/><path class="cls-2" d="M446.5,124.7c-.08-.14-.49-.12-.61-.13l-.43,0a.5.5,0,0,0-.27,0"/><path class="cls-2" d="M448.26,120.49c-.07,0-.32-.15-.34-.24s-.07-.22-.1-.33a1.86,1.86,0,0,1,0-.75c.08-.37.28-.74.4-1.11a2.64,2.64,0,0,1,.1-.3l.09-.16a5.77,5.77,0,0,1,.48-.81c.14-.16.2-.07.36-.13s.34.12.09,1.09Z"/><path class="cls-2" d="M458.24,115.3c-.08,0-.35-.16-.37-.27s-.08-.23-.11-.35a2,2,0,0,1,0-.81c.08-.41.3-.81.42-1.21,0-.1.07-.22.12-.32l.09-.18a6.58,6.58,0,0,1,.53-.86c.15-.18.21-.08.39-.14s.37.13.1,1.18Z"/><path class="cls-5" d="M402.73,798.64c-1.28-.86-2.75-1.49-3.74-2.67-2.55-3.07-.54-7.94-2.15-11.6a12.45,12.45,0,0,0-3.08-3.82c-4-3.8-8.49-7.33-12.37-11.2-2.13-2.13-3-4.67-4.73-7-3.37-4.5-3.39-10.92-4.4-16.3a51.3,51.3,0,0,0-2.06-7.52,6.74,6.74,0,0,0-3.77-4.45,8.28,8.28,0,0,0-6.5-.71,32,32,0,0,1-5.32,1.45c-1.88.27-3.77.6-5.67.87-6.06-7-15.1-19.31-18.22-23.75-7.73-11-14.92-22.13-21.83-33.56-2.81-4.09-5.65-8.14-8.61-12.1a157.6,157.6,0,0,0-21.52-23.14c12-13.11,24.72-25.63,36.36-39q16.39-18.81,31.75-38.46c8.79-11.24,19.54-22.57,23.71-36.39,4-13.18,3.3-27.27-1.9-38.72-3.29-7.24-8.44-13.51-15.31-17-9.5-4.81-31.45-10.67-42.34-6.72-16.4,5.94-11.53,22.22-22.87,35.38-16.8,19.49-33.77,39.49-45.56,62.57-7.72,15.11-11.91,31.09-16.63,47q-.89,3-1.81,6l-.18.13a92.71,92.71,0,0,0-4.63,13.95c-.19.52-.37,1-.57,1.55,0,.26.08.51.12.77a36.4,36.4,0,0,0-.52,4.29c-.5,8.3,3.69,15,8.71,21.27a113.59,113.59,0,0,0,16.47,16.56,66.92,66.92,0,0,1,8.57,7.84l13.76,10.93c7.15,5.68,14.39,11.8,22.21,16.28,12.75,7.31,23.43,17.51,34.06,28,6.5,12.15,13.32,24,23.07,33.7,6.61,3.6,13.7,6.24,20.08,10.26,1.08.68,1.58,1.83,2.55,2.67,1.26,1.1,2.2,2.43,3.45,3.53,5.27,4.64,13,4.51,18.34,9.24,2.3,2,6.24,4.67,9.27,5.23C403,804.77,407.74,802,402.73,798.64Z"/><path class="cls-1" d="M410.08,354.62a180.6,180.6,0,0,1-29.35,24.43c-3.48,2.31-7.05,4.48-10.67,6.55a4.55,4.55,0,0,1,.41.89,2.5,2.5,0,0,1,.07.26,6,6,0,0,1,.11.95,6.13,6.13,0,0,1-.15,1.28,6.82,6.82,0,0,1-.23.77v.08a2,2,0,0,1,0,.49,185.31,185.31,0,0,0,27.25-18.46,187.3,187.3,0,0,0,14.88-13.56c2.1-2.14,4.11-4.34,6.11-6.56l1-10C416.77,344.8,413,351.65,410.08,354.62Z"/><path class="cls-1" d="M377.78,312.61c-6.31,3.4-14.12,6.55-19.07,11.88-.92,1-2.24,2.54-2.08,4a.61.61,0,0,0,.54-.06c6.32-3,12.38-6.43,18.48-9.81a2.79,2.79,0,0,1,.36-.95q1.28-2.1,2.67-4.15c.38-.62.73-1.26,1.06-1.91Z"/><path d="M703.55,293c4.16,3.35,8,7.08,11.88,10.73l.33-2.55c-2.56,1.18-5.07,2.46-7.61,3.68-2.36,1.12-4.76,2.16-7.12,3.3a1.64,1.64,0,0,0-.59,2.22,1.67,1.67,0,0,0,2.22.58c2.36-1.14,4.76-2.18,7.13-3.3,2.54-1.22,5.05-2.5,7.61-3.68a1.63,1.63,0,0,0,.32-2.55c-3.9-3.64-7.72-7.37-11.88-10.72a1.66,1.66,0,0,0-2.29,0,1.62,1.62,0,0,0,0,2.29Z"/><path d="M558.44,290.74c-4.16,3.35-8,7.08-11.88,10.72a1.63,1.63,0,0,0,.33,2.55c2.56,1.18,5.06,2.46,7.61,3.68,2.36,1.12,4.76,2.16,7.12,3.3a1.67,1.67,0,0,0,2.22-.58,1.63,1.63,0,0,0-.58-2.22c-2.36-1.14-4.76-2.18-7.13-3.3-2.54-1.22-5-2.5-7.6-3.68l.32,2.55c3.9-3.65,7.73-7.38,11.89-10.73a1.63,1.63,0,0,0,0-2.29,1.66,1.66,0,0,0-2.3,0Z"/><path d="M713.59,300H550.24a1.63,1.63,0,0,0,0,3.25H713.59a1.63,1.63,0,0,0,0-3.25Z"/><text class="cls-6" transform="translate(542.32 205.54)"><tspan class="cls-7">H</tspan><tspan x="16.25" y="0">ead must s</tspan><tspan class="cls-7" x="142.16" y="0">t</tspan><tspan class="cls-8" x="151.96" y="0">a</tspan><tspan x="165.35" y="0">y</tspan><tspan x="2.21" y="33.91">a </tspan><tspan class="cls-9" x="21.52" y="33.91">s</tspan><tspan x="34.07" y="33.91">a</tspan><tspan class="cls-10" x="48.23" y="33.91">f</tspan><tspan x="56.3" y="33.91">e dis</tspan><tspan class="cls-7" x="110.33" y="33.91">t</tspan><tspan x="120.13" y="33.91">ance </tspan><tspan x="2.6" y="67.83">f</tspan><tspan class="cls-11" x="11.28" y="67.83">r</tspan><tspan x="21.4" y="67.83">om the boa</tspan><tspan class="cls-12" x="151.4" y="67.83">r</tspan><tspan x="161.36" y="67.83">d</tspan></text><path d="M97.35,227.85a68.34,68.34,0,0,0,2.26,33.88,81.51,81.51,0,0,0,15.44,27A88.38,88.38,0,0,0,127,300.4c1.49,1.2,3.62-.91,2.12-2.12-15.47-12.49-27.31-30.61-29.53-50.65a65,65,0,0,1,.69-19c.35-1.89-2.54-2.69-2.89-.8Z"/><path d="M122.78,285.81c1.69,4.63,2.92,9.41,4.25,14.16l1.45-1.9c-2.49.06-5,.24-7.47.34-2.31.1-4.62.1-6.94.2-1.92.09-1.93,3.09,0,3,2.32-.1,4.63-.1,6.94-.2,2.49-.1,5-.28,7.47-.34a1.52,1.52,0,0,0,1.44-1.9c-1.33-4.75-2.56-9.52-4.24-14.16a1.55,1.55,0,0,0-1.85-1.05,1.52,1.52,0,0,0-1,1.85Z"/><text class="cls-6" transform="translate(70.61 165.83)">It must be bo<tspan class="cls-13" x="150.8" y="0">l</tspan><tspan x="158.22" y="0">d, high </tspan><tspan x="0" y="33.91">and confident</tspan></text><path class="cls-14" d="M95.79,61.4A36.74,36.74,0,0,1,104.16,38a34.44,34.44,0,1,0,.11,46.9A36.78,36.78,0,0,1,95.79,61.4ZM87.2,75.66H70.92L71,73.39l4.46-.58c.58,0,.81-.23.81-1,.08-10.05,0-19.6,0-19.6l-5.62,1.08c-.19-.31-1.12-2.46-.46-2.73l10.35-4,1,1s-.12,20.87,0,24.37c0,.77.19,1,.73,1l5.08.54Z"/><circle cx="130" cy="61.53" r="34.44"/><text class="cls-15" transform="translate(118.45 75.26)">2</text><text class="cls-16" transform="translate(177.42 73.13)"><tspan class="cls-17">N</tspan><tspan class="cls-18" x="20.46" y="0">e</tspan><tspan x="36.84" y="0">xt is </tspan><tspan class="cls-17" x="102.6" y="0">t</tspan><tspan x="114.51" y="0">a</tspan><tspan class="cls-19" x="131.73" y="0">k</tspan><tspan class="cls-20" x="147.45" y="0">e-off</tspan></text></svg>