<svg id="Layer_1" data-name="Layer 1" xmlns="http://www.w3.org/2000/svg" viewBox="0 0 780 1051.14"><defs><style>.cls-1{fill:#fff171;stroke-width:0.3px;}.cls-1,.cls-2,.cls-3,.cls-4,.cls-5{stroke:#fff;stroke-miterlimit:10;}.cls-2,.cls-3{fill:#d4a47c;}.cls-2{stroke-width:0.37px;}.cls-3{stroke-width:0.27px;}.cls-4{fill:#005058;stroke-width:0.47px;}.cls-5{fill:#c6946f;stroke-width:0.26px;}.cls-6,.cls-7{fill:#fff;}.cls-6{opacity:0.7;}.cls-7{font-size:38.5px;font-family:ABCSerifBold, ABCSerif;}</style></defs><path class="cls-1" d="M388.47,396.16l0,0a82.66,82.66,0,0,0-14.72-9.55c-2.41-1.27-4.81-2.69-7.54-3.13-10.22-1.66-20,3-27.65,9.34-2.5,2.07-5.06,4.48-6.46,7.47-.62,1.3-2.1,7.1,1.21,7.13.44,0,2.86-5.47,3.63-6.37,5.53-6.54,12.73-12.74,21.68-13.31,2.66-.17,5.54-.63,8.13.17a36.49,36.49,0,0,1,6.75,3.33c2.35,1.32,4.59,2.83,6.92,4.18a46.6,46.6,0,0,1,6.62,5c1.22,1,2.4,2.08,3.62,3.1C389.8,401.05,389.12,398.55,388.47,396.16Z"/><path class="cls-2" d="M410.36,390.26c6.29-13.25,7.83-28.52,9.07-43,.91-10.67-.05-21.1-.26-31.79a78.45,78.45,0,0,1,.7-14.07c-9.31-4.46-18.33-9.61-27.3-14.7-6,10.59-.26,20.47-10.94,25.44-2.76,1.28-13.17,8.54-15.7,10.13-8.26,5.19-19.86,8.4-20.07,18.56-.19,9.16,1.87,33.33,1.94,42.88.07,9.72-1.47,19.34-2.78,28.91-2.45,17.79-3.55,37.43,7.32,52.55,16.08-24.09,40.2-42.88,54.49-67.9C408,395,409.23,392.64,410.36,390.26Z"/><path class="cls-3" d="M414.79,328.85l8-24.2c.69-1.14-11.94-8.73-11.27-9.89s-2.76-5.42-1.35-5.6,1.55,1.58,2,2.6c.35.83,1.05,1.4,1.46,2.22a7.59,7.59,0,0,0,.87,1.76,6.25,6.25,0,0,0,4,2.1c1.76,0,3.07-1.49,4.75-1.7a5.32,5.32,0,0,1,2.14.34,2.62,2.62,0,0,1,.19-1.65c1.58-3.57,5.07-5.41,7.63-8.16a18.56,18.56,0,0,0-2.41-2.44,29.21,29.21,0,0,1-3.68-3.94c-1-1.27-2.24-2.09-2.35-3.7-.08-1.23.58-2.37.5-3.6a22.75,22.75,0,0,1-.34-2.48,34.06,34.06,0,0,1,.63-3.9c.48-2.88.7-5.87,1-8.79a24.29,24.29,0,0,0-.52-9.38,19.43,19.43,0,0,0-4.86-8.2,43.42,43.42,0,0,0-5.46-5,74.35,74.35,0,0,0-9.27-5.6c-3.62-1.85-8.34-2.62-12.35-2.83-3-.15-5.8-.76-8.83-.58a25.25,25.25,0,0,0-8.71,2.49c-2.39,1.07-4.76,1.25-7.25,1.65-1.25.21-2.34.94-3.64,1.2a29.22,29.22,0,0,0-4.56,1.13c-2.84,1.09-4,3.4-5.37,5.87-.92,1.65-1.22,3.46-2.18,5.1a14.12,14.12,0,0,0-1.07,2.53c-.33,1-.91,1.76-1.24,2.74-.16.47-.1.92-.25,1.41s-.54.69-.6,1.23a20.27,20.27,0,0,0,.43,3.13,27,27,0,0,1,.23,3.69,1.88,1.88,0,0,0,0,.4c-.07,0-.19.08-.41.34a12.54,12.54,0,0,1-2.15,1.83c-1.9,1.5-2.31,1.29-4.31,3.21a27.41,27.41,0,0,0-3.41,3.89,3.43,3.43,0,0,0,1.36,5.12,1.85,1.85,0,0,1,.92.86,4.76,4.76,0,0,1,.82,3.38,18.67,18.67,0,0,0-.94,2.88,18.42,18.42,0,0,0,.26,5.55c.32,1.5,1,2.16.34,3.5-.49,1-1,1.94-1.58,2.89-1,1.78-1.4,3.72.13,5.34,2.07,2.17,20.82,2.44,23.53,3.4,9.32,3.33,4.2,7.3,13.59,10.32a27.91,27.91,0,0,1,15.47,11.44"/><path d="M361.7,252.9c.28.22.55.46.82.7s.47.44.46.67,0,.1-.1.1-.2-.11-.27-.14l-.31-.1c-.43-.11-.86-.17-1.29-.28-.25-.06-.5-.09-.74-.17-1.49-.5-2.88-1.51-4.42-1.84a7.14,7.14,0,0,0-4.33.84c-.09-.51-.42-2.16.07-2.45.7-.41,2.79.07,3.62-.06a6.51,6.51,0,0,1,4.4,1C360.36,251.69,361,252.36,361.7,252.9Z"/><path d="M434.47,281.21c-1.55-1.95-3.57-3.77-4.87-5.88-4.13-6.73-.47-15.44-1.33-23.28-.71-6.46-4.59-12.27-9.57-16.43s-11-6.86-17.12-9.1c-5.66-2.07-11.54-3.8-17.56-3.78-4,0-15.82,1.83-16.54,7.15s7.49,10.85,7.57,16.74c.05,3-1.29,6-.72,8.9a25,25,0,0,0,1.6,4.21c1,2.53,1.34,5.3,2.5,7.76s3.56,4.67,6.27,4.38a11.2,11.2,0,0,1,2.4-5.25c1.35-1.4,2.2-.47,3.84.58,2.25,1.45,3.32,3.31,2.07,5.67s-3.15,4.61-3.14,7.28c0,2.9,2.26,5.23,4.35,7.23,3.59,3.43,11.86,6.76,15.45,10.19,2.62-1.43,2.07-.57,4.77-1.84,2-1-.16-4.66,1.81-3.56a18.45,18.45,0,0,0,12.32,2c3.92-.75,8-3.53,8.12-7.53A8.36,8.36,0,0,0,434.47,281.21Z"/><path d="M366.82,230.48l.9-.18c0-.07,0-.14,0-.21A2.84,2.84,0,0,0,366.82,230.48Z"/><path class="cls-3" d="M381.59,272c-2-4.88,5.72-8.29,9.27-6.48a6.54,6.54,0,0,1,2.78,8.4c-1.49,3-5.17,4.47-6.86,7.4-.89,1.55-1.24,3.53-2.69,4.57s-4.22-.61-3.12-2"/><path d="M422,278.63a7.08,7.08,0,0,0,2.92-1.73,12,12,0,0,1,3.55-1.79,6.11,6.11,0,0,1,4.49-.05,6.72,6.72,0,0,1,3,2.68,6.41,6.41,0,0,1,1.16,3.43c-.17,1.28-1.54,2.89-2.13,4a6.74,6.74,0,0,1-3.64,2.75,6,6,0,0,1-4.66.28,19.7,19.7,0,0,1-7.74-7.22c-1-1.45-.64-3.82-.14-5.44s1.79-4.13,3.2-5.14c2.72-1.92,6.36.06,8.47,1.95,1.26,1.14,2.41,2.41,2.28,4.25a9.82,9.82,0,0,1-1.55,4.11,18.19,18.19,0,0,1-2.72,4.23,6.56,6.56,0,0,1-2,1.75,19.77,19.77,0,0,0-2.66,1.28,8.19,8.19,0,0,1-3.12,1.13,3.26,3.26,0,0,1-2.47-.53,10.58,10.58,0,0,1-2.43-1.82c-.45-.45-.72-1.06-1.14-1.54-.72-.83-.7-.88-.17-2"/><path d="M426.33,276.12c.11-1.44,1.12-2.24,2.2-3a6.61,6.61,0,0,0,1.08-.85,1.87,1.87,0,0,1,1.83-.62c1.82.19,3.4,1.7,4.71,2.82a6.3,6.3,0,0,1,1.51,1.58c.34.6.45,1.3.78,1.87.2.34.51.54.63.94s.05.84.2,1.26a2.44,2.44,0,0,1,.31,1.12,10.46,10.46,0,0,1-.19,1.23,5.06,5.06,0,0,1-.67,2.15,13.73,13.73,0,0,1-1.56,1.76,5.9,5.9,0,0,1-.87.61c-.37.24-.62.6-1,.85a6.27,6.27,0,0,1-3.44.65c-2.22.05-4.43-1.33-6.28-2.45a11.5,11.5,0,0,1-3.62-3.49c-.49-.82-.86-1.66-1.27-2.51a9.71,9.71,0,0,1-1-2.4,8.19,8.19,0,0,1-.08-2.88,18.36,18.36,0,0,1,.5-3,6.23,6.23,0,0,1,1.67-2.49,8.6,8.6,0,0,0,1.27-1,5.7,5.7,0,0,1,1.12-1.23,6.62,6.62,0,0,1,5.51-1.28,21.2,21.2,0,0,1,4.11,1.33c.82.42,1.61.9,2.43,1.33a6,6,0,0,1,2.14,2,4,4,0,0,1,.78,1.55,5,5,0,0,1,.37,1.63c-.19,1.61-1.33,2.69-1.77,4.16a4.59,4.59,0,0,1-.21.87c-.2.43-.47.85-.7,1.27a10.61,10.61,0,0,1-1.22,2,6.91,6.91,0,0,1-2.05,1.67,3.63,3.63,0,0,1-3,.2,9.93,9.93,0,0,1-3.45-1.31,13,13,0,0,1-3.39-3.54,9.8,9.8,0,0,1-1.93-4.59,10.44,10.44,0,0,1-.15-2.61,10.65,10.65,0,0,1,.8-2.21c.63-1.55,2.27-2.43,3.58-3.3.25-.17.81-.7,1.13-.71s.62.3.83.41"/><path d="M412.73,288.59c.11-1.43,1.11-2.24,2.19-3a5.83,5.83,0,0,0,1.09-.85,1.86,1.86,0,0,1,1.83-.62c1.82.2,3.4,1.7,4.71,2.82a6.34,6.34,0,0,1,1.51,1.59c.34.59.44,1.29.78,1.86.2.34.51.54.63.94s0,.85.2,1.26a2.43,2.43,0,0,1,.3,1.12,7.16,7.16,0,0,1-.19,1.23,4.76,4.76,0,0,1-.67,2.15,12.93,12.93,0,0,1-1.55,1.76,5.68,5.68,0,0,1-.87.61c-.37.25-.62.61-1,.85a6.1,6.1,0,0,1-3.44.65c-2.22.05-4.43-1.33-6.29-2.45a11.57,11.57,0,0,1-3.61-3.49,25.74,25.74,0,0,1-1.28-2.51,10.11,10.11,0,0,1-1-2.4,8.64,8.64,0,0,1-.08-2.87,18.32,18.32,0,0,1,.51-3.05,6.2,6.2,0,0,1,1.67-2.49,7.84,7.84,0,0,0,1.27-1,5.43,5.43,0,0,1,1.12-1.23,6.61,6.61,0,0,1,5.51-1.28,21.58,21.58,0,0,1,4.1,1.33c.82.42,1.62.9,2.44,1.33a6,6,0,0,1,2.14,2,4.2,4.2,0,0,1,.78,1.55,5.34,5.34,0,0,1,.37,1.63c-.19,1.61-1.33,2.7-1.77,4.16a5.5,5.5,0,0,1-.21.87c-.2.44-.47.85-.7,1.27a10.16,10.16,0,0,1-1.23,2,6.74,6.74,0,0,1-2,1.67,3.59,3.59,0,0,1-3,.2,9.74,9.74,0,0,1-3.45-1.31,12.84,12.84,0,0,1-3.39-3.54,9.92,9.92,0,0,1-1.94-4.59,6.18,6.18,0,0,1,.65-4.82c.64-1.54,2.27-2.42,3.59-3.29.25-.17.81-.7,1.13-.72s.62.3.83.41"/><path class="cls-4" d="M353.88,328.34c-1.56,1.06-3.11,2.13-4.62,3.25q-5.16,3.8-10,8-2.22,1.89-4.36,3.85c-2.92,2.68-5.82,5.55-7.38,9.19-2.21,5.14-1.44,11-2.11,16.55-1.82,15-13.87,26.58-18.89,40.79-2.12,6-2.95,12.43-5.14,18.42-1.8,4.91-4.49,9.51-5.82,14.57-1.57,6-1.15,12.29-1,18.48a206,206,0,0,1-2.41,36.8c6.44-7.51,6.92-19.24,14.5-25.58,6.4-5.35,15.64-5,24-4.46,5.61.4,11.4.85,16.39,3.45,4,2.08,7.15,5.39,10,8.81,5,5.87,9.38,12.34,12,19.58a45.23,45.23,0,0,1,2.56,17.83c5-11.31-.38-24.18-1.87-36.45-1.1-9.09,0-18.32-.65-27.46a8,8,0,0,0-1.3-4.45,12.64,12.64,0,0,0-2.4-2c-4.51-3.37-6.23-9.31-6.85-14.91A58.93,58.93,0,0,1,369,392.37c1.15-1.62,2.46-3.55,1.81-5.42a7.24,7.24,0,0,0-2.55-2.85c-5.77-4.84-7.71-12.77-9.32-20.13-.91-4.16-1.8-8.32-2.46-12.53a75.92,75.92,0,0,1-1-12.68,43.7,43.7,0,0,1,1.85-12.34c0-.12.11-.73.32-.66-.09,0-.75.55-.87.63Z"/><path class="cls-2" d="M437,136.69c.32-.41.68-.76,1.06-1.2s.81-.69,1.18-1.11a8.55,8.55,0,0,0,.66-.89,1.47,1.47,0,0,0,.17-1.19,6.89,6.89,0,0,1,.15-1.92c.09-.69-.08-1.36-.05-2,.06-1.12,1-2.34,1.43-3.36a.66.66,0,0,1,.78-.37h0a.66.66,0,0,1,.45.82l-7.22,23.94a.66.66,0,0,1-1.26,0h0a19.73,19.73,0,0,1-.91-3.17,8,8,0,0,1,.4-3.37,29.2,29.2,0,0,1,2.64-5.42A4.77,4.77,0,0,1,437,136.69Z"/><path class="cls-2" d="M401.58,362.57c8.32-5.78,17.16-14.88,18.56-25.37.25-1.83.4-3.78.81-5.57,1-4.23,1.77-8.47,2.74-12.7.45-2,.69-4,1.21-5.95a55.88,55.88,0,0,0,1.25-6,24,24,0,0,0,0-3.28,15.52,15.52,0,0,1,.42-3.41c.41-2.12.38-4.27.79-6.4a31.39,31.39,0,0,0,.4-4.84,53.42,53.42,0,0,1,1.06-6.32c.37-2.2,0-4.79,0-7a24.84,24.84,0,0,0-.25-4.19,54.86,54.86,0,0,0,3.16-4.92c1.77-9.06,4.49-17.94,6.29-27-.53-13.7-.2-27.31,2.26-40.85,2-10.74.54-22,1.73-32.76.39-2.1.59-4.24,1.06-6.33.39-1.72,1-3.38,1.4-5.08.37-1.47.49-3,1-4.43.56-1.7,1.33-3.32,2-4.95.34-.79.84-1.5,1.15-2.31a16.72,16.72,0,0,0,.75-2.5c.4-1.7,1.86-3.95,2.23-5.66.7-3.2,1.6-5.1,2.45-8.38.09-.36.94-2.65,1.1-3a40.62,40.62,0,0,0,1.75-4.57l1.46-4.07c.13-.37.27-.74.39-1.11a1.75,1.75,0,0,1,.22-.43,3,3,0,0,0,.28-.78l.12-.51a1.28,1.28,0,0,0,0-.39c0-.1-.05-.3-.09-.4s-.31-.24-.49-.3c-.47-.15-.68.1-.92.4a6.72,6.72,0,0,1,.47-.88,10.25,10.25,0,0,0,.87-2.17,4.15,4.15,0,0,0,.28-2,1.07,1.07,0,0,0-.61-.79,1,1,0,0,0-.89,0c-.38.16-.72.29-.85.65s-.37.68-.25,1.17c0,0,0,0,0,0a.56.56,0,0,0-.24-.31c-.24-.14-.58,0-.83.06a.91.91,0,0,1-.49,0,.9.9,0,0,0-.7.2,7.91,7.91,0,0,0-1.43,2c-.43.7-1,1.32-1.44,2-.15.26-.3.53-.46.78s-.17.37-.28.55c-.29.49-.5,1-.76,1.5a15,15,0,0,0-.76,1.56c-.12.31-.26.61-.39.92h0c-.9.3-1.16-.06-1.94.45-.21.14-.94,1.26-1.11,1.44a3,3,0,0,0-.36.5c-2.4,3.89-3.49,8.4-5.35,12.54-.61,1.36-1.71,1.74-2.13,3.18s-1.68,3.53-2.25,4.93a53.21,53.21,0,0,0-1.9,6.66c-.6,2.14.89,2.88-.91,7.55-1,2.49-2.24,4.82-3.38,7.22s-2,4.95-3,7.44a13.16,13.16,0,0,0-.61,1.9,3.37,3.37,0,0,1,.5,0c-.15.29-.32.58-.46.88a27.62,27.62,0,0,0-2,7.81c-.82,6.19-.54,12.76-2.69,18.66-1.88,5.16-5.25,9.79-5.85,15.43a188.56,188.56,0,0,1-3.16,22c-1.58,7-5,13.29-6.26,20.31v0l-.74,1.46c.21,1.84-1.19,3.75-1.9,5.39-.87,2-2.18,3.68-3.13,5.58-.85,1.7-1.31,3.57-2,5.32-.9,2.22-1.94,4.38-3,6.52-2.17,4.34-2.31,9.6-5.15,13.6-2.72,3.82-4.55,8.29-6.53,12.52-2.18,4.65-6.1,8.11-8.74,12.49"/><path class="cls-2" d="M455.45,113.15v0Z"/><path class="cls-2" d="M450.86,124c-.24-.09-.49-.16-.72-.26a.56.56,0,0,1-.22-.21,1.42,1.42,0,0,1-.05-.36"/><path class="cls-2" d="M450.45,122.9l.46.17c.12,0,.21.12.33.16"/><path class="cls-2" d="M450.49,122.44l.45.16.23.08a2.53,2.53,0,0,1,.23.12"/><path class="cls-2" d="M450.32,121.65a.84.84,0,0,0,.31.08,3.25,3.25,0,0,0,.44,0,3.43,3.43,0,0,1,.34.06,2.19,2.19,0,0,1,.34.1"/><path class="cls-2" d="M453.06,122.3c.16,0,.32,0,.48.08l.18.07c.08,0,.16.12.23.12"/><path class="cls-2" d="M453.76,123.37c-.14-.05-.24-.13-.38-.18l-.37-.14"/><path class="cls-2" d="M453.56,123.68l-.5-.18"/><path class="cls-2" d="M453,124.66l-.64-.23a1.35,1.35,0,0,1-.51-.31"/><path class="cls-2" d="M457.89,111.22c-.34,1-1.74,5-2.09,6l-.51,1.46-.27.73c-.1.26-.13.54-.21.8-.23.72-.37,1.44-.62,2.15-.11.28-.21.57-.31.85-.18.52-.44,1-.67,1.49s-.33.72-.47,1.1-.24.68-.37,1c-.49,1.39-1,2.78-1.49,4.17a12.34,12.34,0,0,0-.45,1.91,13.59,13.59,0,0,1-.33,1.89"/><path class="cls-2" d="M455.76,111.17a1.79,1.79,0,0,1-.88-.79,1.75,1.75,0,0,1-.15-1.23,4,4,0,0,1,1.12-1.9,1.43,1.43,0,0,1,.88-.27.23.23,0,0,1,.19.31,163.87,163.87,0,0,1-5.71,16.11c-.31.87-.84,1.66-1.2,2.51a1.13,1.13,0,0,1-.22.36c-.06.18-1.32,3.49-1.4,3.67"/><path class="cls-2" d="M458.72,109.58c-.35.23-.65-.16-.7-.28s-.15-.26-.21-.39a1.72,1.72,0,0,1-.15-.67,3.28,3.28,0,0,1,.36-1.18,2.37,2.37,0,0,1,.25-.66l.15-.14a1.09,1.09,0,0,1,.08-.15,1.22,1.22,0,0,1,.31-.29,1.45,1.45,0,0,1,.66-.37c.2,0,.56.19.34,1.26Z"/><path class="cls-2" d="M448.9,116.66c.1,0,.17.14.23.22a.66.66,0,0,1,.16.36,2.8,2.8,0,0,1-.31,1.36c-.3.85-.61,1.69-.91,2.54-.08.24-.21.44-.3.67s-.12.35-.18.53-.22.59-.32.89c-.29.79-.59,1.58-.85,2.37s-.29,1.34-.47,2c-.07.25-.19.5-.28.75a5.56,5.56,0,0,0-.14.91c0,.29-.07.6-.13.88s-.22.49-.26.76,0,.31-.06.46-.07.18-.1.27-.05.3-.1.45-.09.16,0,.25a.54.54,0,0,0,.09-.22,0,0,0,0,0,.06,0"/><path class="cls-2" d="M446.37,125.73c-.14,0-1.39.06-1.33-.12"/><path class="cls-2" d="M446.15,125.35c-.24,0-.48-.11-.73-.14"/><path class="cls-2" d="M446.5,124.7c-.08-.14-.49-.12-.61-.13l-.43,0a.5.5,0,0,0-.27,0"/><path class="cls-2" d="M448.26,120.49c-.07,0-.32-.15-.34-.24s-.07-.22-.1-.33a1.86,1.86,0,0,1,0-.75c.08-.37.28-.74.4-1.11a2.64,2.64,0,0,1,.1-.3l.09-.16a5.77,5.77,0,0,1,.48-.81c.14-.16.2-.07.36-.13s.34.12.09,1.09Z"/><path class="cls-2" d="M458.24,115.3c-.08,0-.35-.16-.37-.27s-.08-.23-.11-.35a2,2,0,0,1,0-.81c.08-.41.3-.81.42-1.21,0-.1.07-.22.12-.32l.09-.18a6.58,6.58,0,0,1,.53-.86c.15-.18.21-.08.39-.14s.37.13.1,1.18Z"/><path class="cls-5" d="M402.73,798.64c-1.28-.86-2.75-1.49-3.74-2.67-2.55-3.07-.54-7.94-2.15-11.6a12.45,12.45,0,0,0-3.08-3.82c-4-3.8-8.49-7.33-12.37-11.2-2.13-2.13-3-4.67-4.73-7-3.37-4.5-3.39-10.92-4.4-16.3a51.3,51.3,0,0,0-2.06-7.52,6.74,6.74,0,0,0-3.77-4.45,8.28,8.28,0,0,0-6.5-.71,32,32,0,0,1-5.32,1.45c-1.88.27-3.77.6-5.67.87-6.06-7-15.1-19.31-18.22-23.75-7.73-11-14.92-22.13-21.83-33.56-2.81-4.09-5.65-8.14-8.61-12.1a157.6,157.6,0,0,0-21.52-23.14c12-13.11,24.72-25.63,36.36-39q16.39-18.81,31.75-38.46c8.79-11.24,19.54-22.57,23.71-36.39,4-13.18,3.3-27.27-1.9-38.72-3.29-7.24-8.44-13.51-15.31-17-9.5-4.81-31.45-10.67-42.34-6.72-16.4,5.94-11.53,22.22-22.87,35.38-16.8,19.49-33.77,39.49-45.56,62.57-7.72,15.11-11.91,31.09-16.63,47q-.89,3-1.81,6l-.18.13a92.71,92.71,0,0,0-4.63,13.95c-.19.52-.37,1-.57,1.55,0,.26.08.51.12.77a36.4,36.4,0,0,0-.52,4.29c-.5,8.3,3.69,15,8.71,21.27a113.59,113.59,0,0,0,16.47,16.56,66.92,66.92,0,0,1,8.57,7.84l13.76,10.93c7.15,5.68,14.39,11.8,22.21,16.28,12.75,7.31,23.43,17.51,34.06,28,6.5,12.15,13.32,24,23.07,33.7,6.61,3.6,13.7,6.24,20.08,10.26,1.08.68,1.58,1.83,2.55,2.67,1.26,1.1,2.2,2.43,3.45,3.53,5.27,4.64,13,4.51,18.34,9.24,2.3,2,6.24,4.67,9.27,5.23C403,804.77,407.74,802,402.73,798.64Z"/><path class="cls-1" d="M410.08,354.62a180.6,180.6,0,0,1-29.35,24.43c-3.48,2.31-7.05,4.48-10.67,6.55a4.55,4.55,0,0,1,.41.89,2.5,2.5,0,0,1,.07.26,6,6,0,0,1,.11.95,6.13,6.13,0,0,1-.15,1.28,6.82,6.82,0,0,1-.23.77v.08a2,2,0,0,1,0,.49,185.31,185.31,0,0,0,27.25-18.46,187.3,187.3,0,0,0,14.88-13.56c2.1-2.14,4.11-4.34,6.11-6.56l1-10C416.77,344.8,413,351.65,410.08,354.62Z"/><path class="cls-1" d="M377.78,312.61c-6.31,3.4-14.12,6.55-19.07,11.88-.92,1-2.24,2.54-2.08,4a.61.61,0,0,0,.54-.06c6.32-3,12.38-6.43,18.48-9.81a2.79,2.79,0,0,1,.36-.95q1.28-2.1,2.67-4.15c.38-.62.73-1.26,1.06-1.91Z"/><path d="M703.55,293c4.16,3.35,8,7.08,11.88,10.73l.33-2.55c-2.56,1.18-5.07,2.46-7.61,3.68-2.36,1.12-4.76,2.16-7.12,3.3a1.64,1.64,0,0,0-.59,2.22,1.67,1.67,0,0,0,2.22.58c2.36-1.14,4.76-2.18,7.13-3.3,2.54-1.22,5.05-2.5,7.61-3.68a1.63,1.63,0,0,0,.32-2.55c-3.9-3.64-7.72-7.37-11.88-10.72a1.66,1.66,0,0,0-2.29,0,1.62,1.62,0,0,0,0,2.29Z"/><path d="M558.44,290.74c-4.16,3.35-8,7.08-11.88,10.72a1.63,1.63,0,0,0,.33,2.55c2.56,1.18,5.06,2.46,7.61,3.68,2.36,1.12,4.76,2.16,7.12,3.3a1.67,1.67,0,0,0,2.22-.58,1.63,1.63,0,0,0-.58-2.22c-2.36-1.14-4.76-2.18-7.13-3.3-2.54-1.22-5-2.5-7.6-3.68l.32,2.55c3.9-3.65,7.73-7.38,11.89-10.73a1.63,1.63,0,0,0,0-2.29,1.66,1.66,0,0,0-2.3,0Z"/><path d="M713.59,300H550.24a1.63,1.63,0,0,0,0,3.25H713.59a1.63,1.63,0,0,0,0-3.25Z"/><path d="M547.16,188.28v7.13h6.9v-7.13h3.11v17.26h-3.11v-7.35h-6.9v7.35h-3.09V188.28Z"/><path d="M571.5,202a5.77,5.77,0,0,1-5.58,3.7c-4.34,0-6.26-2.71-6.26-6.76s2.71-6.53,6.44-6.43c3,.07,5.74,2.34,5.45,6.46l0,.39h-8.73c0,2.2.94,3.7,3.18,3.7a2.89,2.89,0,0,0,2.79-2.05Zm-3.13-4.22c0-2-1-2.93-2.54-2.88a2.87,2.87,0,0,0-2.91,2.88Z"/><path d="M574.44,193.43a15.39,15.39,0,0,1,4.88-.93c3.89,0,5.32,1.92,5.32,4.93v5.23a.65.65,0,0,0,.62.74,2.61,2.61,0,0,0,1-.15v2a4.85,4.85,0,0,1-2,.4,2.34,2.34,0,0,1-2.34-1.75,5.62,5.62,0,0,1-3.89,1.75c-2.52,0-4.39-1.28-4.42-4s2-4.09,5.25-4.09a20,20,0,0,1,2.79.24v-.76c0-1.41-.89-2.17-2.66-2.15a10.41,10.41,0,0,0-4,.79Zm7.15,6a14.18,14.18,0,0,0-2.52-.14c-1.48.07-2.42.76-2.44,2.07a1.82,1.82,0,0,0,2.1,1.9,5.09,5.09,0,0,0,2.86-1Z"/><path d="M600.48,186.7v18.84h-2.57l-.34-2.22a4.53,4.53,0,0,1-4.12,2.37c-3.48.05-5.55-2.84-5.55-6.63,0-4.64,3-6.56,5.53-6.56a4.11,4.11,0,0,1,4,2.44V187.1ZM591.06,199c0,2.2.86,3.92,3.15,3.92s3.26-1.72,3.26-3.89c0-2.94-1.58-4-3.28-4S591.06,196.2,591.06,199Z"/><path d="M611.21,192.62l.44,2.29a4.34,4.34,0,0,1,4-2.44,3.75,3.75,0,0,1,3.84,2.39,4.58,4.58,0,0,1,4.17-2.39c3,0,4.22,2,4.22,4.64v8.43h-3.06v-7.45c0-2-.47-3-2.14-3-2.22,0-2.82,1.68-2.82,3.58v6.9h-3.05v-7.45c0-2-.47-3-2.15-3-2.37,0-2.83,1.9-2.83,4v6.51h-3.06V192.62Z"/><path d="M633.88,192.62v7.45c0,2,.78,3,2.58,3,2.35,0,3.31-2.42,3.31-4.86v-5.62h3.06v12.92h-2.44l-.45-2.81a4.71,4.71,0,0,1-4.46,3c-3.16,0-4.66-1.95-4.66-5.2v-7.87Z"/><path d="M646.33,201.84a6.68,6.68,0,0,0,4.19,1.43c1.48,0,2.35-.44,2.35-1.5,0-2.52-7.48-.84-7.23-5.57.1-2.32,1.8-3.7,5.23-3.7a10.55,10.55,0,0,1,4.66,1.2l-1.09,2.17a7.35,7.35,0,0,0-3.69-1.06c-1.21,0-2.22.4-2.17,1.41.14,2.05,7.32.47,7.32,5.45,0,2.66-2.39,4-5.45,4a8.86,8.86,0,0,1-5.3-1.68Z"/><path d="M662.36,189v3.77h3.26l-.42,2.47h-2.84v5.92c0,1.4.64,1.94,1.68,1.94a5.76,5.76,0,0,0,2-.56l.56,2.34a8.1,8.1,0,0,1-3.28.84c-3,0-4-2-4-4.14v-6.34h-1.8v-2.47h2l.37-3.42Z"/><path d="M674,201.84a6.73,6.73,0,0,0,4.2,1.43c1.48,0,2.34-.44,2.34-1.5,0-2.52-7.47-.84-7.23-5.57.1-2.32,1.8-3.7,5.23-3.7a10.55,10.55,0,0,1,4.66,1.2l-1.08,2.17a7.41,7.41,0,0,0-3.7-1.06c-1.21,0-2.22.4-2.17,1.41.15,2.05,7.32.47,7.32,5.45,0,2.66-2.39,4-5.45,4a8.86,8.86,0,0,1-5.3-1.68Z"/><path d="M690,189v3.77h3.25l-.42,2.47H690v5.92c0,1.4.64,1.94,1.67,1.94a5.76,5.76,0,0,0,1.95-.56l.57,2.34a8.1,8.1,0,0,1-3.28.84c-3,0-4-2-4-4.14v-6.34h-1.8v-2.47h1.94l.38-3.42Z"/><path d="M696.05,193.43a15.46,15.46,0,0,1,4.89-.93c3.89,0,5.32,1.92,5.32,4.93v5.23a.65.65,0,0,0,.62.74,2.61,2.61,0,0,0,1-.15v2a4.89,4.89,0,0,1-2,.4,2.34,2.34,0,0,1-2.34-1.75,5.65,5.65,0,0,1-3.9,1.75c-2.51,0-4.38-1.28-4.41-4s2-4.09,5.25-4.09a20,20,0,0,1,2.79.24v-.76c0-1.41-.89-2.17-2.66-2.15a10.41,10.41,0,0,0-4,.79Zm7.16,6a14.18,14.18,0,0,0-2.52-.14c-1.48.07-2.42.76-2.44,2.07a1.82,1.82,0,0,0,2.09,1.9,5.1,5.1,0,0,0,2.87-1Z"/><path d="M711.44,192.62l3.18,9.12h.2l2.91-9.12h3.16l-4.79,13.12c-1.57,4.31-3.05,5.4-7.61,4.44l.54-2.59c2.91.71,3.3,0,4.21-2.49l-4.85-12.48Z"/><path d="M546.31,227.35a15.36,15.36,0,0,1,4.88-.94c3.89,0,5.32,1.92,5.32,4.93v5.23a.65.65,0,0,0,.62.74,2.41,2.41,0,0,0,1-.15v2.05a5,5,0,0,1-2,.39,2.34,2.34,0,0,1-2.35-1.75,5.62,5.62,0,0,1-3.89,1.75c-2.52,0-4.39-1.28-4.42-4s2-4.09,5.26-4.09a19.84,19.84,0,0,1,2.78.25V231c0-1.4-.89-2.17-2.66-2.14a10.47,10.47,0,0,0-4,.79Zm7.15,6a13.13,13.13,0,0,0-2.52-.15c-1.48.07-2.41.77-2.44,2.07a1.81,1.81,0,0,0,2.1,1.9,5.1,5.1,0,0,0,2.86-1Z"/><path d="M565.77,235.76a6.68,6.68,0,0,0,4.19,1.43c1.48,0,2.34-.45,2.34-1.51,0-2.51-7.47-.84-7.22-5.57.09-2.32,1.8-3.7,5.22-3.7a10.49,10.49,0,0,1,4.66,1.21l-1.08,2.17a7.25,7.25,0,0,0-3.7-1.06c-1.21,0-2.22.39-2.17,1.4.15,2.05,7.32.47,7.32,5.45,0,2.67-2.39,4-5.45,4a8.82,8.82,0,0,1-5.3-1.67Z"/><path d="M578.17,227.35a15.42,15.42,0,0,1,4.88-.94c3.9,0,5.33,1.92,5.33,4.93v5.23a.65.65,0,0,0,.62.74,2.45,2.45,0,0,0,1-.15v2.05a5.09,5.09,0,0,1-2,.39,2.33,2.33,0,0,1-2.34-1.75,5.67,5.67,0,0,1-3.9,1.75c-2.51,0-4.39-1.28-4.41-4s2-4.09,5.25-4.09a19.85,19.85,0,0,1,2.79.25V231c0-1.4-.89-2.17-2.67-2.14a10.39,10.39,0,0,0-4,.79Zm7.15,6a13,13,0,0,0-2.51-.15c-1.48.07-2.42.77-2.44,2.07a1.81,1.81,0,0,0,2.09,1.9,5.07,5.07,0,0,0,2.86-1Z"/><path d="M592.9,226.66v-1.75c0-2.64,1.38-4.29,4.26-4.29a6.74,6.74,0,0,1,2.44.44l-.39,2.14a7.24,7.24,0,0,0-1.31-.14c-1.35,0-1.92.56-1.92,2.34v1.26h2.81l-.39,2.46H596v10.33H592.9V229.12h-2v-2.46Z"/><path d="M611.54,235.9a5.76,5.76,0,0,1-5.57,3.7c-4.34,0-6.27-2.71-6.27-6.75s2.72-6.54,6.44-6.44c3,.07,5.74,2.34,5.45,6.46l-.05.39h-8.73c0,2.2.94,3.7,3.18,3.7a2.88,2.88,0,0,0,2.79-2Zm-3.13-4.21c.05-2-1-2.94-2.54-2.89a2.88,2.88,0,0,0-2.91,2.89Z"/><path d="M631.52,220.62v18.83H629l-.34-2.21a4.53,4.53,0,0,1-4.12,2.36c-3.48.05-5.55-2.83-5.55-6.63,0-4.64,3-6.56,5.53-6.56a4.11,4.11,0,0,1,4,2.44V221Zm-9.42,12.32c0,2.2.86,3.93,3.15,3.93s3.26-1.73,3.26-3.9c0-2.94-1.58-4-3.28-4S622.1,230.11,622.1,232.94Z"/><path d="M638.67,226.53v12.92h-3.08V229.07h-1.8v-2.54Zm-1.55-5a1.65,1.65,0,0,1,1.82,1.56,1.82,1.82,0,0,1-3.62,0A1.59,1.59,0,0,1,637.12,221.5Z"/><path d="M642.17,235.76a6.73,6.73,0,0,0,4.2,1.43c1.48,0,2.34-.45,2.34-1.51,0-2.51-7.47-.84-7.23-5.57.1-2.32,1.8-3.7,5.23-3.7a10.49,10.49,0,0,1,4.66,1.21l-1.08,2.17a7.25,7.25,0,0,0-3.7-1.06c-1.21,0-2.22.39-2.17,1.4.15,2.05,7.32.47,7.32,5.45,0,2.67-2.39,4-5.45,4a8.82,8.82,0,0,1-5.3-1.67Z"/><path d="M658.21,222.88v3.78h3.25l-.42,2.46h-2.83V235c0,1.41.64,2,1.67,2a5.5,5.5,0,0,0,2-.57l.57,2.34a7.94,7.94,0,0,1-3.28.84c-3,0-4-2-4-4.14v-6.34h-1.8v-2.46h1.95l.37-3.43Z"/><path d="M664.22,227.35a15.43,15.43,0,0,1,4.89-.94c3.89,0,5.32,1.92,5.32,4.93v5.23a.65.65,0,0,0,.62.74,2.41,2.41,0,0,0,1-.15v2.05a5,5,0,0,1-2,.39,2.34,2.34,0,0,1-2.34-1.75,5.62,5.62,0,0,1-3.89,1.75c-2.52,0-4.39-1.28-4.42-4s2-4.09,5.25-4.09a19.85,19.85,0,0,1,2.79.25V231c0-1.4-.89-2.17-2.66-2.14a10.41,10.41,0,0,0-4,.79Zm7.16,6a13.13,13.13,0,0,0-2.52-.15c-1.48.07-2.42.77-2.44,2.07a1.81,1.81,0,0,0,2.1,1.9,5.1,5.1,0,0,0,2.86-1Z"/><path d="M680.6,226.53l.47,2.3a4.74,4.74,0,0,1,4.41-2.42c3,0,4.49,2,4.49,4.61v8.43h-3.06V232c0-2-.74-3-2.41-3-2.35,0-3.26,1.9-3.26,4v6.51h-3.06V226.53Z"/><path d="M704.33,235.83c-.84,2.64-3,3.77-5.63,3.77-4.24,0-6.06-3.15-6.06-6.61,0-4.21,2.61-6.51,6.14-6.58,3.1-.07,5,1.53,5.5,3.8l-2.84.91a2.54,2.54,0,0,0-2.61-2.12c-1.78,0-3.13,1.31-3.13,3.94,0,2.1.78,4,3.08,4a2.6,2.6,0,0,0,2.71-2.05Z"/><path d="M718.14,235.9a5.76,5.76,0,0,1-5.57,3.7c-4.34,0-6.27-2.71-6.27-6.75s2.71-6.54,6.44-6.44c3,.07,5.74,2.34,5.45,6.46l-.05.39h-8.73c0,2.2.94,3.7,3.18,3.7a2.88,2.88,0,0,0,2.79-2ZM715,231.69c0-2-1-2.94-2.54-2.89a2.88,2.88,0,0,0-2.91,2.89Z"/><path d="M547.27,260.57v-1.75c0-2.64,1.38-4.29,4.26-4.29A6.74,6.74,0,0,1,554,255l-.39,2.15a6.25,6.25,0,0,0-1.31-.15c-1.35,0-1.92.57-1.92,2.34v1.26h2.81l-.39,2.47h-2.42v10.33h-3.08V263h-2v-2.47Z"/><path d="M557.6,260.45l.57,2.66c.59-2,2.09-2.84,4.19-2.79a5.12,5.12,0,0,1,1.33.23l-.47,2.68a5.29,5.29,0,0,0-1.85-.24c-2.26.07-3.13,1.82-3.13,3.89v6.49h-3.06V260.45Z"/><path d="M571.12,260.32c3.23,0,6,2.2,6,6.61,0,3.63-2.15,6.59-6.17,6.59-4.36,0-6.16-3-6.16-6.59C564.83,262.52,567.62,260.32,571.12,260.32ZM568,266.93c0,2.05.69,4,3,4,2.1,0,3-1.95,3-4,0-2.86-1.41-4-3-4C569.42,262.91,568,264,568,266.93Z"/><path d="M582.31,260.45l.45,2.29a4.3,4.3,0,0,1,4-2.44,3.77,3.77,0,0,1,3.85,2.39,4.53,4.53,0,0,1,4.17-2.39c3,0,4.21,2,4.21,4.63v8.44h-3.05v-7.45c0-2-.47-3-2.15-3-2.22,0-2.81,1.67-2.81,3.57v6.91h-3.06v-7.45c0-2-.47-3-2.14-3-2.37,0-2.84,1.9-2.84,4v6.51h-3.06V260.45Z"/><path d="M611.22,256.8v3.77h3.26l-.42,2.47h-2.84V269c0,1.41.64,1.95,1.68,1.95a5.76,5.76,0,0,0,2-.56l.56,2.34a8.1,8.1,0,0,1-3.28.84c-3,0-4-2-4-4.15V263h-1.8v-2.47h1.95l.37-3.43Z"/><path d="M620.42,254.53v8a4.83,4.83,0,0,1,4.24-2.2c3,0,4.49,1.95,4.49,4.61v8.44h-3.06v-7.45c0-2-.74-3-2.41-3-2.35,0-3.26,1.9-3.26,4v6.51h-3.06V254.9Z"/><path d="M643.55,269.82a5.76,5.76,0,0,1-5.57,3.7c-4.34,0-6.26-2.72-6.26-6.76s2.71-6.54,6.43-6.44c3,.08,5.75,2.35,5.45,6.46l-.05.4h-8.73c0,2.19.94,3.7,3.18,3.7a2.87,2.87,0,0,0,2.79-2.05Zm-3.13-4.22c.05-2-1-2.93-2.54-2.88A2.87,2.87,0,0,0,635,265.6Z"/><path d="M654.51,254.53v8.21a4.42,4.42,0,0,1,4.31-2.42c2.44.08,5.06,1.73,5.06,6.49,0,3.89-2,6.71-5.45,6.71a4.28,4.28,0,0,1-4.07-2.37l-.42,2.22h-2.49V254.92Zm-.13,12.35c0,2.22.82,4,3.26,4,2,0,3.1-1.51,3.1-4.05,0-3-1.5-3.94-3.13-3.94S654.38,264.29,654.38,266.88Z"/><path d="M672.39,260.32c3.23,0,6,2.2,6,6.61,0,3.63-2.15,6.59-6.17,6.59-4.36,0-6.16-3-6.16-6.59C666.1,262.52,668.89,260.32,672.39,260.32Zm-3.09,6.61c0,2.05.7,4,3,4,2.1,0,3-1.95,3-4,0-2.86-1.41-4-3-4S669.3,264,669.3,266.93Z"/><path d="M681.34,261.26a15.42,15.42,0,0,1,4.88-.94c3.9,0,5.33,1.93,5.33,4.94v5.22a.65.65,0,0,0,.62.74,2.45,2.45,0,0,0,1-.15v2.05a5.05,5.05,0,0,1-2,.4,2.33,2.33,0,0,1-2.34-1.76,5.63,5.63,0,0,1-3.9,1.76c-2.51,0-4.39-1.29-4.41-4s2-4.1,5.25-4.1a19.85,19.85,0,0,1,2.79.25v-.77c0-1.4-.89-2.17-2.67-2.14a10.39,10.39,0,0,0-4,.79Zm7.15,6a13.88,13.88,0,0,0-2.51-.15c-1.48.08-2.42.77-2.44,2.08a1.8,1.8,0,0,0,2.09,1.89,5.07,5.07,0,0,0,2.86-1Z"/><path d="M697.72,260.45l.57,2.66c.59-2,2.09-2.84,4.19-2.79a5.28,5.28,0,0,1,1.33.23l-.47,2.68a5.33,5.33,0,0,0-1.85-.24c-2.27.07-3.13,1.82-3.13,3.89v6.49H695.3V260.45Z"/><path d="M717.35,254.53v18.84h-2.57l-.34-2.22a4.53,4.53,0,0,1-4.12,2.37c-3.48.05-5.55-2.84-5.55-6.64,0-4.63,3-6.56,5.53-6.56a4.12,4.12,0,0,1,4,2.44v-7.84Zm-9.42,12.33c0,2.19.86,3.92,3.15,3.92s3.26-1.73,3.26-3.9c0-2.93-1.58-4-3.28-4S707.93,264,707.93,266.86Z"/><path d="M97.35,227.85a68.34,68.34,0,0,0,2.26,33.88,81.51,81.51,0,0,0,15.44,27A88.38,88.38,0,0,0,127,300.4c1.49,1.2,3.62-.91,2.12-2.12-15.47-12.49-27.31-30.61-29.53-50.65a65,65,0,0,1,.69-19c.35-1.89-2.54-2.69-2.89-.8Z"/><path d="M122.78,285.81c1.69,4.63,2.92,9.41,4.25,14.16l1.45-1.9c-2.49.06-5,.24-7.47.34-2.31.1-4.62.1-6.94.2-1.92.09-1.93,3.09,0,3,2.32-.1,4.63-.1,6.94-.2,2.49-.1,5-.28,7.47-.34a1.52,1.52,0,0,0,1.44-1.9c-1.33-4.75-2.56-9.52-4.24-14.16a1.55,1.55,0,0,0-1.85-1.05,1.52,1.52,0,0,0-1,1.85Z"/><path d="M75.44,148.57v17.26H72.36V148.57Z"/><path d="M82.74,149.26V153H86l-.42,2.47H82.74v5.92c0,1.4.64,2,1.68,2a5.72,5.72,0,0,0,2-.57l.56,2.34a8.1,8.1,0,0,1-3.28.84c-3,0-4-2-4-4.14V155.5H77.88V153h2l.37-3.42Z"/><path d="M96.48,152.91l.44,2.29a4.34,4.34,0,0,1,4-2.44,3.77,3.77,0,0,1,3.85,2.39,4.55,4.55,0,0,1,4.16-2.39c3,0,4.22,2,4.22,4.64v8.43h-3.06v-7.45c0-2-.47-3-2.14-3-2.22,0-2.81,1.68-2.81,3.58v6.9h-3.06v-7.45c0-2-.47-3-2.15-3-2.36,0-2.83,1.9-2.83,4v6.51H94V152.91Z"/><path d="M119.15,152.91v7.45c0,2,.79,3,2.59,3,2.34,0,3.3-2.42,3.3-4.86v-5.62h3.06v12.92h-2.44l-.45-2.81a4.71,4.71,0,0,1-4.46,3c-3.16,0-4.66-1.95-4.66-5.2v-7.87Z"/><path d="M131.6,162.13a6.72,6.72,0,0,0,4.19,1.43c1.48,0,2.35-.44,2.35-1.5,0-2.52-7.47-.84-7.23-5.57.1-2.32,1.8-3.7,5.23-3.7A10.49,10.49,0,0,1,140.8,154l-1.08,2.17a7.36,7.36,0,0,0-3.7-1.07c-1.21,0-2.22.4-2.17,1.41.14,2.05,7.32.47,7.32,5.45,0,2.66-2.39,4-5.45,4a8.86,8.86,0,0,1-5.3-1.68Z"/><path d="M147.63,149.26V153h3.26l-.42,2.47h-2.84v5.92c0,1.4.64,2,1.68,2a5.72,5.72,0,0,0,1.95-.57l.57,2.34a8.21,8.21,0,0,1-3.28.84c-3,0-4-2-4-4.14V155.5h-1.8V153h1.94l.37-3.42Z"/><path d="M162,147v8.21a4.39,4.39,0,0,1,4.31-2.41c2.44.07,5.06,1.72,5.06,6.48,0,3.9-2,6.71-5.45,6.71a4.28,4.28,0,0,1-4.07-2.37l-.42,2.22h-2.49V147.39Zm-.13,12.36c0,2.21.82,4,3.26,4,2,0,3.11-1.5,3.11-4,0-3-1.51-4-3.14-4S161.86,156.76,161.86,159.35Z"/><path d="M185.39,162.28a5.76,5.76,0,0,1-5.57,3.7c-4.34,0-6.26-2.71-6.26-6.76s2.71-6.53,6.43-6.43c3,.07,5.75,2.34,5.45,6.46l-.05.39h-8.73c0,2.2.94,3.7,3.18,3.7a2.87,2.87,0,0,0,2.79-2.05Zm-3.13-4.22c.05-2-1-2.93-2.54-2.88a2.87,2.87,0,0,0-2.91,2.88Z"/><path d="M196.35,147v8.21a4.39,4.39,0,0,1,4.31-2.41c2.44.07,5.06,1.72,5.06,6.48,0,3.9-1.95,6.71-5.45,6.71a4.27,4.27,0,0,1-4.07-2.37l-.42,2.22h-2.49V147.39Zm-.13,12.36c0,2.21.82,4,3.26,4,2,0,3.1-1.5,3.1-4,0-3-1.5-4-3.13-4S196.22,156.76,196.22,159.35Z"/><path d="M214.23,152.79c3.23,0,6,2.19,6,6.6,0,3.63-2.15,6.59-6.17,6.59-4.36,0-6.16-3-6.16-6.59C207.94,155,210.72,152.79,214.23,152.79Zm-3.09,6.6c0,2.05.69,4,3,4,2.1,0,3-1.95,3-4,0-2.86-1.41-4-3-4C212.52,155.38,211.14,156.49,211.14,159.39Z"/><path d="M226,147v14.62c0,1.39.62,1.76,1.53,1.76a2.42,2.42,0,0,0,1.28-.47l.57,2.19a5.35,5.35,0,0,1-2.79.89c-2.56,0-3.65-1.73-3.65-4.07V147.36Z"/><path d="M242.49,147v18.84h-2.57l-.34-2.22a4.52,4.52,0,0,1-4.12,2.37c-3.48.05-5.55-2.84-5.55-6.63,0-4.64,3-6.56,5.53-6.56a4.1,4.1,0,0,1,4,2.44v-7.84Zm-9.42,12.33c0,2.2.86,3.92,3.16,3.92s3.25-1.72,3.25-3.89c0-2.94-1.58-4-3.28-4S233.07,156.49,233.07,159.32Z"/><path d="M246.61,165.49a1.42,1.42,0,0,1-1.63-1.58,1.6,1.6,0,0,1,1.73-1.53c1.7,0,2.37,1.33,2.24,2.91-.19,2.34-2,3.28-4,3.3v-1.33c1.16,0,2-.62,2-1.36C246.91,165.71,246.61,165.49,246.61,165.49Z"/><path d="M259.73,147v8a4.82,4.82,0,0,1,4.24-2.19c3,0,4.49,1.94,4.49,4.61v8.43H265.4v-7.45c0-2-.74-3-2.41-3-2.35,0-3.26,1.9-3.26,4v6.51h-3.06V147.36Z"/><path d="M275.54,152.91v12.92h-3.08V155.45h-1.8v-2.54Zm-1.55-5a1.6,1.6,0,1,1,0,3.16,1.63,1.63,0,0,1-1.8-1.63A1.59,1.59,0,0,1,274,147.88Z"/><path d="M290.73,152.91v11c0,4.29-1.67,6.88-6.41,6.88a13.36,13.36,0,0,1-5.28-1.11l.72-2.31a11.07,11.07,0,0,0,4.22,1c2.78,0,3.69-1.38,3.69-3.5v-1.14a4.45,4.45,0,0,1-4,2.05c-3.47.07-5.47-2.57-5.47-6.36,0-4.64,3-6.56,5.52-6.56a4.28,4.28,0,0,1,4.1,2.34l.32-2.22Zm-9.32,6.41c0,2.2.86,3.92,3.16,3.92s3.2-1.72,3.2-3.89c0-2.94-1.55-4-3.23-4S281.41,156.49,281.41,159.32Z"/><path d="M297,147v8a4.81,4.81,0,0,1,4.24-2.19c3,0,4.49,1.94,4.49,4.61v8.43h-3.06v-7.45c0-2-.74-3-2.42-3-2.34,0-3.25,1.9-3.25,4v6.51h-3.06V147.36Z"/><path d="M72.38,187.64a15.43,15.43,0,0,1,4.89-.94c3.89,0,5.32,1.92,5.32,4.93v5.23a.65.65,0,0,0,.62.74,2.41,2.41,0,0,0,1-.15v2.05a5.09,5.09,0,0,1-2,.39,2.34,2.34,0,0,1-2.34-1.75,5.64,5.64,0,0,1-3.89,1.75c-2.52,0-4.39-1.28-4.42-4s2-4.09,5.25-4.09a19.85,19.85,0,0,1,2.79.25v-.77c0-1.4-.89-2.17-2.66-2.14a10.41,10.41,0,0,0-4,.79Zm7.16,6a13.13,13.13,0,0,0-2.52-.15c-1.48.07-2.42.77-2.44,2.07a1.81,1.81,0,0,0,2.09,1.9,5.1,5.1,0,0,0,2.87-1Z"/><path d="M88.76,186.82l.47,2.3a4.76,4.76,0,0,1,4.41-2.42c3,0,4.49,2,4.49,4.61v8.43H95.07V192.3c0-2-.74-3-2.41-3-2.35,0-3.26,1.9-3.26,4v6.51H86.34V186.82Z"/><path d="M113.32,180.91v18.83h-2.56l-.35-2.21a4.5,4.5,0,0,1-4.11,2.36c-3.48.05-5.55-2.83-5.55-6.63,0-4.64,3-6.56,5.52-6.56a4.09,4.09,0,0,1,4,2.44V181.3Zm-9.42,12.32c0,2.2.87,3.93,3.16,3.93s3.26-1.73,3.26-3.9c0-2.93-1.58-4-3.28-4S103.9,190.4,103.9,193.23Z"/><path d="M132.86,196.12c-.84,2.64-3,3.77-5.62,3.77-4.25,0-6.07-3.15-6.07-6.61,0-4.21,2.61-6.51,6.14-6.58,3.11-.07,5,1.53,5.5,3.8l-2.84.91a2.54,2.54,0,0,0-2.61-2.12c-1.78,0-3.13,1.31-3.13,3.94,0,2.1.79,4,3.08,4a2.6,2.6,0,0,0,2.71-2Z"/><path d="M141.15,186.7c3.23,0,6,2.19,6,6.61,0,3.62-2.15,6.58-6.17,6.58-4.36,0-6.16-3-6.16-6.58C134.86,188.89,137.65,186.7,141.15,186.7Zm-3.09,6.61c0,2.05.69,4,3,4,2.1,0,3-1.94,3-4,0-2.86-1.41-4-3-4C139.45,189.29,138.06,190.4,138.06,193.31Z"/><path d="M152.32,186.82l.47,2.3a4.76,4.76,0,0,1,4.41-2.42c3,0,4.49,2,4.49,4.61v8.43h-3.06V192.3c0-2-.74-3-2.41-3-2.35,0-3.26,1.9-3.26,4v6.51H149.9V186.82Z"/><path d="M165.66,187V185.2c0-2.64,1.38-4.29,4.24-4.29a6.92,6.92,0,0,1,2.13.32l-.47,2.19c-.1,0-.5-.07-.89-.07-1.36,0-1.92.56-1.92,2.34V187H176v12.79h-3.06V189.41h-4.16v10.33h-3.09V189.41h-2V187Zm8.81-5.16a1.64,1.64,0,0,1,1.8,1.56,1.62,1.62,0,0,1-1.8,1.6,1.64,1.64,0,0,1-1.83-1.63C172.64,182.48,173.28,181.79,174.47,181.79Z"/><path d="M191.21,180.91v18.83h-2.56l-.35-2.21a4.5,4.5,0,0,1-4.11,2.36c-3.48.05-5.55-2.83-5.55-6.63,0-4.64,3-6.56,5.52-6.56a4.09,4.09,0,0,1,4,2.44V181.3Zm-9.42,12.32c0,2.2.87,3.93,3.16,3.93s3.25-1.73,3.25-3.9c0-2.93-1.57-4-3.27-4S181.79,190.4,181.79,193.23Z"/><path d="M205.69,196.19a5.76,5.76,0,0,1-5.57,3.7c-4.34,0-6.27-2.71-6.27-6.75s2.72-6.54,6.44-6.44c3,.07,5.75,2.34,5.45,6.46l-.05.39H197c0,2.2.94,3.7,3.18,3.7a2.87,2.87,0,0,0,2.79-2ZM202.56,192c.05-2-1-2.94-2.54-2.89a2.88,2.88,0,0,0-2.91,2.89Z"/><path d="M210.85,186.82l.47,2.3a4.75,4.75,0,0,1,4.41-2.42c3,0,4.49,2,4.49,4.61v8.43h-3.06V192.3c0-2-.74-3-2.42-3-2.34,0-3.25,1.9-3.25,4v6.51h-3.06V186.82Z"/><path d="M227.3,183.17V187h3.25l-.42,2.46H227.3v5.92c0,1.41.64,1.95,1.68,1.95a5.43,5.43,0,0,0,1.94-.57l.57,2.34a7.94,7.94,0,0,1-3.28.84c-3,0-4-2-4-4.14v-6.34h-1.8V187h1.95l.37-3.43Z"/><path class="cls-6" d="M95.79,61.4A36.74,36.74,0,0,1,104.16,38a34.44,34.44,0,1,0,.11,46.9A36.78,36.78,0,0,1,95.79,61.4ZM87.2,75.66H70.92L71,73.39l4.46-.58c.58,0,.81-.23.81-1,.08-10.05,0-19.6,0-19.6l-5.62,1.08c-.19-.31-1.12-2.46-.46-2.73l10.35-4,1,1s-.12,20.87,0,24.37c0,.77.19,1,.73,1l5.08.54Z"/><circle cx="130" cy="61.53" r="34.44"/><text class="cls-7" transform="translate(118.45 75.26)">2</text><path d="M184,52.13l8.43,15.27V52.13h3.75v21h-4.59L183.3,58.34V73.13h-3.75v-21Z"/><path d="M213.6,68.81a7,7,0,0,1-6.78,4.5c-5.28,0-7.62-3.3-7.62-8.22s3.3-8,7.83-7.83c3.69.09,7,2.85,6.63,7.86l-.06.48H203c0,2.67,1.14,4.5,3.87,4.5a3.5,3.5,0,0,0,3.39-2.49Zm-3.81-5.13c.06-2.43-1.26-3.57-3.09-3.51a3.5,3.5,0,0,0-3.54,3.51Z"/><path d="M219.69,57.41l3.15,6.18,3.3-6.18h4l-4.35,7.8,4.53,7.92h-4.26L222.78,67l-3.45,6.12h-4.14L220,65.27l-4.29-7.86Z"/><path d="M238.11,53v4.59h4l-.51,3h-3.45v7.2c0,1.71.78,2.37,2,2.37a6.83,6.83,0,0,0,2.37-.69l.69,2.85a9.82,9.82,0,0,1-4,1c-3.69,0-4.83-2.46-4.83-5V60.56H232.2v-3h2.37l.45-4.17Z"/><path d="M256.74,57.41V73.13H253V60.5H250.8V57.41Zm-1.89-6.12a2,2,0,0,1,2.22,1.89,2.22,2.22,0,0,1-4.41,0A1.93,1.93,0,0,1,254.85,51.29Z"/><path d="M261,68.63a8.15,8.15,0,0,0,5.1,1.74c1.8,0,2.85-.54,2.85-1.83,0-3.06-9.09-1-8.79-6.78.12-2.82,2.19-4.5,6.36-4.5a12.78,12.78,0,0,1,5.67,1.47l-1.32,2.64a8.9,8.9,0,0,0-4.5-1.29c-1.47,0-2.7.48-2.64,1.71.18,2.49,8.91.57,8.91,6.63,0,3.24-2.91,4.92-6.63,4.89a10.76,10.76,0,0,1-6.45-2Z"/><path d="M286.77,53v4.59h4l-.51,3h-3.45v7.2c0,1.71.78,2.37,2,2.37a6.83,6.83,0,0,0,2.37-.69l.69,2.85a9.82,9.82,0,0,1-4,1c-3.69,0-4.83-2.46-4.83-5V60.56h-2.19v-3h2.37l.45-4.17Z"/><path d="M294.09,58.4A18.74,18.74,0,0,1,300,57.26c4.74,0,6.48,2.34,6.48,6v6.36a.79.79,0,0,0,.75.9,3,3,0,0,0,1.23-.18v2.49a6.08,6.08,0,0,1-2.49.48,2.84,2.84,0,0,1-2.85-2.13,6.87,6.87,0,0,1-4.74,2.13c-3.06,0-5.34-1.56-5.37-4.83s2.46-5,6.39-5a24.49,24.49,0,0,1,3.39.3v-.93c0-1.71-1.08-2.64-3.24-2.61a12.68,12.68,0,0,0-4.86,1Zm8.7,7.35a16.62,16.62,0,0,0-3.06-.18c-1.8.09-2.94.93-3,2.52a2.21,2.21,0,0,0,2.55,2.31,6.17,6.17,0,0,0,3.48-1.26Z"/><path d="M314.79,50.21V64h1.74l3.66-6.45h4.2l-4.71,7.77,5.13,7.86h-4.29l-4-6.09h-1.77v6.09h-3.72V50.66Z"/><path d="M340.59,68.81a7,7,0,0,1-6.78,4.5c-5.28,0-7.62-3.3-7.62-8.22s3.3-8,7.83-7.83c3.69.09,7,2.85,6.63,7.86l-.06.48H330c0,2.67,1.14,4.5,3.87,4.5a3.5,3.5,0,0,0,3.39-2.49Zm-3.81-5.13c.06-2.43-1.26-3.57-3.09-3.51a3.5,3.5,0,0,0-3.54,3.51Z"/><path d="M349.68,63.56v3h-7.44v-3Z"/><path d="M359,57.26c3.93,0,7.35,2.67,7.35,8,0,4.41-2.61,8-7.5,8-5.31,0-7.5-3.6-7.5-8C351.33,59.93,354.72,57.26,359,57.26Zm-3.75,8c0,2.49.84,4.86,3.66,4.86,2.55,0,3.69-2.37,3.69-4.86,0-3.48-1.71-4.89-3.6-4.89C356.91,60.41,355.23,61.76,355.23,65.3Z"/><path d="M370.56,57.56V55.43c0-3.21,1.68-5.22,5.19-5.22a8.28,8.28,0,0,1,3,.54l-.48,2.61a7.71,7.71,0,0,0-1.59-.18c-1.65,0-2.34.69-2.34,2.85v1.53h3.42l-.48,3h-2.94V73.13h-3.75V60.56H368.1v-3Z"/><path d="M381.12,57.56V55.43c0-3.21,1.68-5.22,5.19-5.22a8.28,8.28,0,0,1,3,.54l-.48,2.61a7.71,7.71,0,0,0-1.59-.18c-1.65,0-2.34.69-2.34,2.85v1.53h3.42l-.48,3h-2.94V73.13h-3.75V60.56h-2.46v-3Z"/></svg>