<svg id="Layer_1" data-name="Layer 1" xmlns="http://www.w3.org/2000/svg" viewBox="0 0 780 1051.14"><defs><style>.cls-1,.cls-4{fill:#d4a47c;}.cls-1,.cls-2,.cls-3,.cls-4,.cls-5{stroke:#fff;stroke-miterlimit:10;}.cls-1{stroke-width:0.37px;}.cls-2{fill:#fff171;stroke-width:0.3px;}.cls-3{fill:#005058;stroke-width:0.5px;}.cls-4{stroke-width:0.27px;}.cls-5{fill:#c6946f;stroke-width:0.27px;}.cls-6,.cls-7{fill:#fff;}.cls-6{opacity:0.7;}.cls-7{font-size:38.5px;font-family:ABCSerifBold, ABCSerif;}</style></defs><path class="cls-1" d="M482.51,191.76c.37-.38.75-.69,1.18-1.09s.87-.61,1.27-1a7.39,7.39,0,0,0,.75-.83,1.47,1.47,0,0,0,.29-1.16,7.2,7.2,0,0,1,.32-1.9c.16-.67.06-1.36.16-2,.16-1.11,1.21-2.24,1.74-3.21a.65.65,0,0,1,.82-.29h0a.66.66,0,0,1,.37.85L480,204.26a.65.65,0,0,1-1.24-.13v0a19.67,19.67,0,0,1-.6-3.24,8.38,8.38,0,0,1,.72-3.31,29.28,29.28,0,0,1,3.16-5.15A5.14,5.14,0,0,1,482.51,191.76Z"/><path class="cls-2" d="M418.55,420.53l-.05,0a81.76,81.76,0,0,0-14.72-9.55c-2.4-1.27-4.81-2.69-7.53-3.13-10.22-1.66-20,3-27.65,9.33-2.51,2.07-5.07,4.48-6.47,7.48-.61,1.3-2.09,7.09,1.21,7.13.44,0,2.87-5.47,3.63-6.38,5.53-6.53,12.73-12.74,21.69-13.31,2.66-.16,5.54-.62,8.13.18a37.12,37.12,0,0,1,6.75,3.33c2.35,1.32,4.58,2.83,6.92,4.18a47.18,47.18,0,0,1,6.62,5c1.21,1,2.4,2.08,3.62,3.1C419.87,425.42,419.19,422.92,418.55,420.53Z"/><path class="cls-1" d="M468.21,348.81c-.55-3.62-1.31-7.23-2.16-10.86a10,10,0,0,1-2.88-6.41c-.15-1.58-.22-3.17-.26-4.75-.48-1.69-1-3.38-1.38-5.08a8.8,8.8,0,0,1,.78-6.69c-6.81-3.53-13.49-7.32-20.15-11.1-1.32,2.35-2.63,4.85-4,7.38-.77,1.93-1.52,3.88-2.32,5.8a54.81,54.81,0,0,1-12.66,19,73.18,73.18,0,0,1-22,14.16c-4.54,7.57-8.08,16.54-8.19,22.38-.19,9.15,4.33,18.69,4.4,28.25s-1.47,19.33-2.78,28.9c-2.45,17.8-3.55,37.43,7.32,52.55,16.08-24.09,40.2-42.88,54.49-67.89,1.21-2.32,2.41-4.66,3.53-7,3.8-8,5.85-16.7,7.16-25.41,1.08-7.23-.43-14.29-.44-21.68C466.67,356.58,468.77,352.48,468.21,348.81Z"/><path class="cls-3" d="M409.81,345.57c-1.81.86-3.62,1.74-5.39,2.66q-6,3.15-11.81,6.72-2.62,1.62-5.19,3.32c-3.49,2.32-7,4.85-9.14,8.33-3,4.93-3,11-4.43,16.56-3.92,15-18.39,25.15-25.65,38.93-3.07,5.83-4.8,12.24-7.94,18-2.57,4.76-6.07,9.06-8.16,14-2.47,5.88-2.85,12.36-3.5,18.68A200,200,0,0,1,321.19,510c7.9-6.74,9.95-18.62,18.93-24,7.58-4.56,17.46-3,26.32-1.22,14.39,2.84,27.58,26.94,30.61,39.67,1.44,6.08-8.85,24.29-10,30.39,16.1-16.34,19.7-38.49,19.71-51.19,0-9.41,2.4-18.65,2.9-28a7.76,7.76,0,0,0-.8-4.71,13.88,13.88,0,0,0-2.33-2.33c-4.4-4.05-5.47-10.34-5.4-16.12a58.13,58.13,0,0,1,16.55-39.53c1.45-1.48,3.1-3.27,2.65-5.27-.29-1.3-1.41-2.26-2.36-3.24-5.57-5.74-6.61-14.07-7.38-21.8-.43-4.36-.84-8.72-1-13.1a73,73,0,0,1,.57-13.05,42.49,42.49,0,0,1,3.6-12.31c.06-.12.21-.73.43-.63a5.26,5.26,0,0,0-1,.53Z"/><path class="cls-4" d="M469,316c.6-1-2.76-5.42-1.35-5.6s1.55,1.58,2,2.6c.35.84,1,1.4,1.45,2.22a7.59,7.59,0,0,0,.87,1.76,6.25,6.25,0,0,0,4,2.1c1.76,0,3.07-1.49,4.75-1.7a5.32,5.32,0,0,1,2.14.34A2.62,2.62,0,0,1,483,316c1.58-3.57,5.07-5.41,7.63-8.16a18.5,18.5,0,0,0-2.4-2.44,28.66,28.66,0,0,1-3.69-3.94c-1-1.27-2.24-2.09-2.34-3.7-.08-1.23.57-2.37.49-3.6a20.63,20.63,0,0,1-.33-2.47,30.32,30.32,0,0,1,.63-3.91c.47-2.88.69-5.87,1-8.79a24.29,24.29,0,0,0-.53-9.38,19.51,19.51,0,0,0-4.85-8.2,44.21,44.21,0,0,0-5.47-5,74.35,74.35,0,0,0-9.27-5.6c-3.61-1.85-8.33-2.61-12.35-2.83-3-.15-5.8-.76-8.83-.58a25.11,25.11,0,0,0-8.71,2.5c-2.38,1.06-4.76,1.24-7.25,1.64-1.25.21-2.34.94-3.64,1.2a29.5,29.5,0,0,0-4.56,1.13c-2.84,1.09-4,3.41-5.37,5.87-.92,1.65-1.22,3.46-2.17,5.1a14.16,14.16,0,0,0-1.08,2.53c-.33,1-.9,1.76-1.24,2.74-.16.47-.09.92-.25,1.41s-.54.69-.6,1.23a20.27,20.27,0,0,0,.43,3.13,27,27,0,0,1,.23,3.69,1.88,1.88,0,0,0,0,.4c-.07,0-.19.08-.41.34a12.17,12.17,0,0,1-2.15,1.83c-1.9,1.5-2.31,1.29-4.31,3.21a26.45,26.45,0,0,0-3.4,3.9,3.41,3.41,0,0,0,1.35,5.11,1.89,1.89,0,0,1,.92.86,4.76,4.76,0,0,1,.82,3.38,19.79,19.79,0,0,0-.93,2.88,18.1,18.1,0,0,0,.25,5.55c.32,1.5,1,2.16.34,3.51-.49,1-1,1.93-1.58,2.88-1,1.78-1.4,3.72.14,5.34,2.06,2.17,18.18,2.44,20.89,3.4,9.33,3.33,6.84,7.3,16.22,10.32,6.42,2.07,5.06-24.32,8.74-18.61"/><path d="M419.2,274.1c.29.22.55.46.82.7s.47.44.46.68,0,.09-.1.09-.2-.11-.27-.14l-.31-.1c-.43-.11-.86-.17-1.29-.28-.25-.06-.5-.09-.74-.17-1.49-.5-2.88-1.51-4.42-1.84a7.14,7.14,0,0,0-4.33.84c-.09-.51-.41-2.16.07-2.45.7-.41,2.79.07,3.62-.06a6.61,6.61,0,0,1,4.41,1C417.86,272.89,418.48,273.57,419.2,274.1Z"/><path d="M492,302.41c-1.56-2-3.58-3.77-4.87-5.88-4.14-6.73-.48-15.43-1.34-23.28-.71-6.46-4.58-12.27-9.57-16.43s-11-6.86-17.12-9.1c-5.65-2.07-11.54-3.8-17.56-3.78-4,0-15.81,1.83-16.53,7.15s7.48,10.85,7.57,16.75c0,3-1.3,6-.72,8.89a24.92,24.92,0,0,0,1.59,4.21c1,2.53,1.34,5.3,2.51,7.76s3.56,4.67,6.26,4.38a11.21,11.21,0,0,1,2.41-5.25c1.34-1.4,2.19-.47,3.83.58,2.25,1.45,3.33,3.31,2.07,5.67s-3.15,4.61-3.14,7.28c0,2.9,2.26,5.23,4.35,7.23,3.59,3.43,11.86,6.76,15.45,10.19,2.62-1.43,2.07-.57,4.77-1.84,2-1-.16-4.66,1.81-3.56a18.4,18.4,0,0,0,12.32,2c3.92-.75,8-3.53,8.12-7.53A8.4,8.4,0,0,0,492,302.41Z"/><path d="M424.32,251.68l.91-.18a1.55,1.55,0,0,1,0-.21A2.84,2.84,0,0,0,424.32,251.68Z"/><path class="cls-4" d="M439.1,293.19c-2-4.87,5.71-8.29,9.26-6.48a6.57,6.57,0,0,1,2.79,8.41c-1.5,3-5.18,4.46-6.86,7.39-.9,1.55-1.24,3.53-2.7,4.57s-4.22-.61-3.11-2"/><path d="M479.5,299.83a7.21,7.21,0,0,0,2.92-1.73,11.74,11.74,0,0,1,3.55-1.79,6.08,6.08,0,0,1,4.48-.05,6.72,6.72,0,0,1,3,2.68,6.44,6.44,0,0,1,1.16,3.43c-.16,1.28-1.54,2.89-2.13,4a6.7,6.7,0,0,1-3.64,2.75,6,6,0,0,1-4.66.28,19.7,19.7,0,0,1-7.74-7.22c-1-1.45-.64-3.82-.14-5.44s1.79-4.13,3.21-5.14c2.72-1.92,6.36.06,8.46,1.95,1.26,1.14,2.41,2.41,2.28,4.25a9.82,9.82,0,0,1-1.55,4.11,18.19,18.19,0,0,1-2.72,4.23,6.56,6.56,0,0,1-2,1.75,20.36,20.36,0,0,0-2.66,1.28,8.19,8.19,0,0,1-3.12,1.13,3.26,3.26,0,0,1-2.47-.53,10.51,10.51,0,0,1-2.43-1.82c-.45-.45-.72-1.05-1.14-1.54-.72-.83-.7-.88-.17-2"/><path d="M483.84,297.32c.1-1.44,1.11-2.24,2.19-3a6.61,6.61,0,0,0,1.08-.85,1.87,1.87,0,0,1,1.83-.62c1.82.2,3.41,1.7,4.71,2.82a6,6,0,0,1,1.51,1.58c.34.6.45,1.3.78,1.87.2.34.51.54.63.94s.06.84.21,1.26a2.43,2.43,0,0,1,.3,1.12,8.72,8.72,0,0,1-.19,1.23,5.06,5.06,0,0,1-.67,2.15,13.73,13.73,0,0,1-1.56,1.76,4.85,4.85,0,0,1-.87.61c-.36.24-.62.6-1,.85a6.25,6.25,0,0,1-3.43.65c-2.23.05-4.44-1.33-6.29-2.45a11.5,11.5,0,0,1-3.62-3.49c-.49-.82-.86-1.66-1.27-2.51a9.71,9.71,0,0,1-1-2.4,8.64,8.64,0,0,1-.08-2.87,19.4,19.4,0,0,1,.5-3.05,6.23,6.23,0,0,1,1.67-2.49,8,8,0,0,0,1.27-1,5.7,5.7,0,0,1,1.12-1.23,6.62,6.62,0,0,1,5.51-1.28,21.2,21.2,0,0,1,4.11,1.33c.82.42,1.62.9,2.43,1.33a5.9,5.9,0,0,1,2.15,2,4.11,4.11,0,0,1,.77,1.55,5,5,0,0,1,.37,1.63c-.18,1.61-1.33,2.7-1.77,4.16a4.59,4.59,0,0,1-.21.87c-.2.43-.47.85-.7,1.27a10.61,10.61,0,0,1-1.22,2,6.91,6.91,0,0,1-2.05,1.67,3.61,3.61,0,0,1-3,.2,9.78,9.78,0,0,1-3.45-1.31,12.87,12.87,0,0,1-3.4-3.54,9.9,9.9,0,0,1-1.93-4.59,10.44,10.44,0,0,1-.15-2.61,11.25,11.25,0,0,1,.8-2.21c.64-1.55,2.27-2.43,3.58-3.3.26-.17.81-.69,1.14-.71s.61.3.82.41"/><path d="M470.23,309.79c.11-1.43,1.12-2.24,2.2-3a6.11,6.11,0,0,0,1.08-.85,1.87,1.87,0,0,1,1.83-.62c1.82.2,3.4,1.7,4.71,2.82a6.34,6.34,0,0,1,1.51,1.59c.34.59.44,1.29.78,1.86.2.34.51.55.63.94s0,.85.2,1.27a2.49,2.49,0,0,1,.31,1.11,9.85,9.85,0,0,1-.19,1.23,5,5,0,0,1-.67,2.15,13.73,13.73,0,0,1-1.56,1.76,5.23,5.23,0,0,1-.87.61c-.37.25-.62.61-1,.85a6.1,6.1,0,0,1-3.44.65c-2.22,0-4.43-1.32-6.28-2.45a11.5,11.5,0,0,1-3.62-3.49,28.09,28.09,0,0,1-1.27-2.51,9.71,9.71,0,0,1-1-2.4,8.14,8.14,0,0,1-.08-2.87,18.31,18.31,0,0,1,.5-3.05,6.3,6.3,0,0,1,1.67-2.49,7.43,7.43,0,0,0,1.27-1,5.67,5.67,0,0,1,1.12-1.23,6.62,6.62,0,0,1,5.51-1.28,21.91,21.91,0,0,1,4.11,1.33c.82.42,1.61.9,2.43,1.33a6,6,0,0,1,2.14,2,4.2,4.2,0,0,1,.78,1.55,5.4,5.4,0,0,1,.37,1.63c-.19,1.61-1.33,2.7-1.77,4.16a4.59,4.59,0,0,1-.21.87c-.2.44-.47.85-.7,1.27a10.61,10.61,0,0,1-1.22,2,6.91,6.91,0,0,1-2.05,1.67,3.59,3.59,0,0,1-3,.2A9.74,9.74,0,0,1,471,316.1a13,13,0,0,1-3.39-3.54,9.92,9.92,0,0,1-1.94-4.59,6.23,6.23,0,0,1,.66-4.82c.63-1.54,2.27-2.42,3.58-3.29.25-.17.81-.7,1.13-.72s.62.3.83.42"/><path class="cls-1" d="M467.11,368.79c.17-7,1.83-15.11.93-22-2.53-19.56.83-37,2.44-56.25q.33-3.9.78-7.79c.62-5.29,1.45-10.55,2.55-15.77,1.05-5,2.61-9.85,3.57-14.85a107.61,107.61,0,0,0,1.53-14.82c.26-5,2.41-9.71,4.37-14.25,1.74-4,3.4-8.08,5.06-12.15,1.09-2.69,2.19-5.38,3.5-8,3.06-6,6.18-11.92,8.51-18.3.13-.35,1.2-2.55,1.39-2.87a42.67,42.67,0,0,0,2.18-4.39l1.84-3.9.5-1.07a1.91,1.91,0,0,1,.26-.41,3,3,0,0,0,.35-.75l.17-.5a1,1,0,0,0,0-.38,2.7,2.7,0,0,0-.05-.41c-.06-.2-.28-.27-.46-.35-.45-.19-.67,0-.94.31a5,5,0,0,1,.55-.83,10,10,0,0,0,1.07-2.08,4.2,4.2,0,0,0,.47-2,1.06,1.06,0,0,0-.54-.84,1,1,0,0,0-.89-.05c-.38.13-.74.21-.9.57a2,2,0,0,0-.37,1.16.59.59,0,0,0-.22-.33c-.22-.16-.57-.05-.83,0a.86.86,0,0,1-.48,0,.85.85,0,0,0-.72.13,8.14,8.14,0,0,0-1.61,1.8c-.5.66-1.15,1.22-1.63,1.89-.17.25-.35.5-.53.74s-.21.35-.33.52c-.34.46-.59.94-.9,1.41a15.21,15.21,0,0,0-.91,1.49c-.15.3-.31.58-.49.87-.93.22-1.14-.17-2,.27a17.14,17.14,0,0,0-1.23,1.32,2.94,2.94,0,0,0-.41.46c-2.76,3.64-4.28,8-6.53,12-.74,1.3-1.87,1.57-2.43,3s-2,3.34-2.71,4.69a55.64,55.64,0,0,0-2.53,6.45c-.79,2.06.61,3-1.63,7.42-1.19,2.39-2.68,4.58-4.05,6.87-1.21,2-2.24,4.13-3.3,6.23l-.12.12A22.48,22.48,0,0,0,462,236.37c-1.41,6.09-1.76,12.64-4.46,18.31-2.37,5-6.17,9.25-7.3,14.81a189.27,189.27,0,0,1-5.27,21.59c-2.24,6.79-6.22,12.75-8.17,19.61-.16.55-.28,1.13-.4,1.71a247.76,247.76,0,0,1-13.61,24.28c-2.07,3.19-4.16,5.7-5.1,9.4"/><path class="cls-2" d="M462.32,400.42c.17-.28.33-.56.47-.85a.79.79,0,0,1,0-.25c.14-.45.52-1.17.59-1.4a25.06,25.06,0,0,0,.87-3.41l-1.6.31a8.53,8.53,0,0,1-1,.46c-7.92,3-16.25,3.57-24.52,5.11-6.17,1.15-12.07,3.09-18.15,4.3,0,.13,0,.27,0,.41a6.77,6.77,0,0,1,1.09,4.73c3.08-.5,6.17-.71,9.06-1.37,11-2.51,21.93-5,32.88-7.62C462.19,400.7,462.24,400.55,462.32,400.42Z"/><path class="cls-2" d="M418.29,345.2c.28-.46.53-.94.77-1.43a2.25,2.25,0,0,1,.31-.79l.12-.17a24.74,24.74,0,0,1,3-5.81c-2.68,1.63-5.37,3.24-8.11,4.77-.27.16-.56.31-.84.46-.33.39-.65.77-1,1.15l-.43.57c0,.12-.07.25-.11.37-.22.89-.43,1.79-.62,2.69a4.3,4.3,0,0,1-.16,1.15q-.09.52-.21,1c2.28-1.24,4.6-2.39,6.69-3.64Z"/><path class="cls-1" d="M497.54,180.45c-.23-.11-.48-.2-.7-.33a.45.45,0,0,1-.2-.23,1.43,1.43,0,0,1,0-.36"/><path class="cls-1" d="M497.23,179.33l.44.21c.12.05.2.14.32.19"/><path class="cls-1" d="M497.32,178.87l.43.2.22.11c.08,0,.13.09.21.14"/><path class="cls-1" d="M497.21,178.07a1,1,0,0,0,.31.11c.14,0,.29,0,.44,0a1.89,1.89,0,0,1,.34.09,2.15,2.15,0,0,1,.32.13"/><path class="cls-1" d="M499.63,181.33,499,181a1.32,1.32,0,0,1-.48-.36"/><path class="cls-1" d="M505.76,168.42c-.44.92-2.22,4.81-2.65,5.73l-.66,1.4-.33.7c-.12.25-.18.53-.29.78-.29.69-.51,1.4-.83,2.08l-.39.82c-.23.5-.53.94-.8,1.41s-.4.69-.58,1l-.46,1c-.63,1.34-1.26,2.67-1.88,4a12,12,0,0,0-.64,1.86,13.35,13.35,0,0,1-.51,1.85"/><path class="cls-1" d="M503.64,168.16c-.33-.24-.69-.46-.8-.87a1.76,1.76,0,0,1,0-1.24,3.86,3.86,0,0,1,1.3-1.78,1.51,1.51,0,0,1,.9-.19.23.23,0,0,1,.15.33,160.23,160.23,0,0,1-7.23,15.49c-.39.84-1,1.57-1.42,2.39a1.35,1.35,0,0,1-.26.33c-.08.17-1.66,3.35-1.75,3.52"/><path class="cls-1" d="M496.28,173c.1,0,.16.16.21.24a.62.62,0,0,1,.12.38,2.86,2.86,0,0,1-.43,1.32c-.39.81-.77,1.62-1.15,2.44-.1.23-.25.42-.37.64s-.15.34-.23.5-.27.58-.4.86c-.36.76-.73,1.51-1.08,2.28s-.41,1.31-.65,1.94c-.1.25-.24.48-.35.72a5.66,5.66,0,0,0-.23.9,8.33,8.33,0,0,1-.22.86c-.08.25-.26.47-.33.73s-.05.31-.1.45-.09.18-.12.26-.09.3-.15.45-.1.14-.06.23a.6.6,0,0,0,.11-.21s0,0,.06,0"/><path class="cls-1" d="M492.9,181.75c-.15,0-1.39-.07-1.32-.24"/><path class="cls-1" d="M492.71,181.36a5.79,5.79,0,0,0-.71-.21"/><path class="cls-1" d="M493.13,180.74c-.07-.15-.48-.17-.6-.19l-.43-.08c-.08,0-.18-.06-.26,0"/><path class="cls-1" d="M495.27,176.72c-.06-.05-.3-.18-.31-.28s0-.22-.06-.33a1.82,1.82,0,0,1,.06-.75c.12-.36.35-.71.5-1.07,0-.09.08-.19.13-.28a.91.91,0,0,1,.11-.16,6.32,6.32,0,0,1,.55-.75c.16-.15.2,0,.37-.1s.33.15,0,1.1Z"/><path class="cls-5" d="M390.39,502.12c-6.59-8.5-24.11-23.26-35.76-24.22-17.54-1.44-20.13,15.75-36.17,23.16-23.76,11-47.9,22.35-68.63,38.79-10.7,8.48-19.83,18.67-28.8,28.93-7.75,8.87-18.12,17.75-23.45,28.33-6.43,12.77-.89,21.79,6.13,32.2l.07.1a23.35,23.35,0,0,0,1,3.1,8.7,8.7,0,0,1,1.81,1c.75,1.1,1.51,2.21,2.3,3.32l.82.35c2.68,3.68,6.94,5.92,10.52,8.65.15.06.3.1.45.17a21.41,21.41,0,0,1,4.8,3.16L255.4,673c7.15,5.68,14.39,11.79,22.21,16.28,13.09,7.5,23.84,18.35,35,28.48a83.86,83.86,0,0,0,7.54,8.58c6.61,3.61,13.71,6.24,20.08,10.26,1.08.68,1.58,1.83,2.55,2.67,1.26,1.1,2.2,2.43,3.45,3.53,5.27,4.64,13,4.51,18.34,9.25,2.3,2,6.24,4.66,9.27,5.22,4.13.77,8.82-2,3.81-5.37a15.92,15.92,0,0,1-3.73-2.67c-2.56-3.07-.55-7.94-2.16-11.6a12.57,12.57,0,0,0-3.08-3.82c-4-3.79-8.49-7.33-12.37-11.2-2.13-2.12-3-4.67-4.73-7-3.36-4.51-3.38-10.93-4.39-16.31a50.45,50.45,0,0,0-2.07-7.52,6.74,6.74,0,0,0-3.77-4.45,8.28,8.28,0,0,0-6.5-.71,32,32,0,0,1-5.32,1.45c-3.16.46-6.38,1.08-9.58,1.33-7.61-10.85-14.71-21.86-21.53-33.13-2.81-4.09-5.65-8.15-8.61-12.11a158.88,158.88,0,0,0-22.25-23.78c10.59-4.25,21.2-8.46,31.55-13.18q23.09-10.51,45.61-22.25c12.87-6.71,27.59-12.68,37.36-23.74,9.34-10.55,14.8-23.94,15-36.79C397.17,516.27,395.17,508.26,390.39,502.12Z"/><path d="M703.55,293c4.16,3.35,8,7.08,11.88,10.73l.33-2.55c-2.56,1.18-5.07,2.46-7.61,3.68-2.36,1.12-4.76,2.16-7.12,3.3a1.64,1.64,0,0,0-.59,2.22,1.67,1.67,0,0,0,2.22.58c2.36-1.14,4.76-2.18,7.13-3.3,2.54-1.22,5.05-2.5,7.61-3.68a1.63,1.63,0,0,0,.32-2.55c-3.9-3.64-7.72-7.37-11.88-10.72a1.66,1.66,0,0,0-2.29,0,1.62,1.62,0,0,0,0,2.29Z"/><path d="M558.44,290.74c-4.16,3.35-8,7.08-11.88,10.72a1.63,1.63,0,0,0,.33,2.55c2.56,1.18,5.06,2.46,7.61,3.68,2.36,1.12,4.76,2.16,7.12,3.3a1.67,1.67,0,0,0,2.22-.58,1.63,1.63,0,0,0-.58-2.22c-2.36-1.14-4.76-2.18-7.13-3.3-2.54-1.22-5-2.5-7.6-3.68l.32,2.55c3.9-3.65,7.73-7.38,11.89-10.73a1.63,1.63,0,0,0,0-2.29,1.66,1.66,0,0,0-2.3,0Z"/><path d="M713.59,300H550.24a1.63,1.63,0,0,0,0,3.25H713.59a1.63,1.63,0,0,0,0-3.25Z"/><path d="M547.16,188.28v7.13h6.9v-7.13h3.11v17.26h-3.11v-7.35h-6.9v7.35h-3.09V188.28Z"/><path d="M571.5,202a5.77,5.77,0,0,1-5.58,3.7c-4.34,0-6.26-2.71-6.26-6.76s2.71-6.53,6.44-6.43c3,.07,5.74,2.34,5.45,6.46l0,.39h-8.73c0,2.2.94,3.7,3.18,3.7a2.89,2.89,0,0,0,2.79-2.05Zm-3.13-4.22c0-2-1-2.93-2.54-2.88a2.87,2.87,0,0,0-2.91,2.88Z"/><path d="M574.43,193.43a15.46,15.46,0,0,1,4.89-.93c3.89,0,5.32,1.92,5.32,4.93v5.23a.65.65,0,0,0,.62.74,2.61,2.61,0,0,0,1-.15v2a4.85,4.85,0,0,1-2,.4,2.34,2.34,0,0,1-2.34-1.75,5.62,5.62,0,0,1-3.89,1.75c-2.52,0-4.39-1.28-4.42-4s2-4.09,5.25-4.09a20,20,0,0,1,2.79.24v-.76c0-1.41-.89-2.17-2.66-2.15a10.41,10.41,0,0,0-4,.79Zm7.16,6a14.18,14.18,0,0,0-2.52-.14c-1.48.07-2.42.76-2.44,2.07a1.82,1.82,0,0,0,2.1,1.9,5.09,5.09,0,0,0,2.86-1Z"/><path d="M600.48,186.7v18.84h-2.57l-.34-2.22a4.53,4.53,0,0,1-4.12,2.37c-3.48.05-5.55-2.84-5.55-6.63,0-4.64,3-6.56,5.52-6.56a4.11,4.11,0,0,1,4,2.44V187.1ZM591.06,199c0,2.2.86,3.92,3.15,3.92s3.26-1.72,3.26-3.89c0-2.94-1.58-4-3.28-4S591.06,196.2,591.06,199Z"/><path d="M611.21,192.62l.44,2.29a4.34,4.34,0,0,1,4-2.44,3.75,3.75,0,0,1,3.84,2.39,4.58,4.58,0,0,1,4.17-2.39c3,0,4.22,2,4.22,4.64v8.43h-3.06v-7.45c0-2-.47-3-2.15-3-2.21,0-2.81,1.68-2.81,3.58v6.9h-3.05v-7.45c0-2-.47-3-2.15-3-2.37,0-2.83,1.9-2.83,4v6.51h-3.06V192.62Z"/><path d="M633.88,192.62v7.45c0,2,.78,3,2.58,3,2.35,0,3.31-2.42,3.31-4.86v-5.62h3.06v12.92h-2.45l-.44-2.81a4.71,4.71,0,0,1-4.46,3c-3.16,0-4.66-1.95-4.66-5.2v-7.87Z"/><path d="M646.33,201.84a6.68,6.68,0,0,0,4.19,1.43c1.48,0,2.35-.44,2.35-1.5,0-2.52-7.48-.84-7.23-5.57.1-2.32,1.8-3.7,5.23-3.7a10.55,10.55,0,0,1,4.66,1.2l-1.09,2.17a7.36,7.36,0,0,0-3.7-1.06c-1.2,0-2.21.4-2.17,1.41.15,2.05,7.33.47,7.33,5.45,0,2.66-2.39,4-5.45,4a8.86,8.86,0,0,1-5.3-1.68Z"/><path d="M662.36,189v3.77h3.26l-.42,2.47h-2.84v5.92c0,1.4.64,1.94,1.68,1.94a5.76,5.76,0,0,0,2-.56l.56,2.34a8.1,8.1,0,0,1-3.28.84c-3,0-4-2-4-4.14v-6.34h-1.8v-2.47h2l.37-3.42Z"/><path d="M674,201.84a6.73,6.73,0,0,0,4.2,1.43c1.47,0,2.34-.44,2.34-1.5,0-2.52-7.47-.84-7.23-5.57.1-2.32,1.8-3.7,5.23-3.7a10.55,10.55,0,0,1,4.66,1.2l-1.08,2.17a7.41,7.41,0,0,0-3.7-1.06c-1.21,0-2.22.4-2.17,1.41.15,2.05,7.32.47,7.32,5.45,0,2.66-2.39,4-5.45,4a8.86,8.86,0,0,1-5.3-1.68Z"/><path d="M690,189v3.77h3.26l-.42,2.47H690v5.92c0,1.4.65,1.94,1.68,1.94a5.76,5.76,0,0,0,1.95-.56l.57,2.34a8.16,8.16,0,0,1-3.28.84c-3,0-4-2-4-4.14v-6.34h-1.8v-2.47h1.94l.37-3.42Z"/><path d="M696.05,193.43a15.46,15.46,0,0,1,4.89-.93c3.89,0,5.32,1.92,5.32,4.93v5.23a.65.65,0,0,0,.62.74,2.61,2.61,0,0,0,1-.15v2a4.89,4.89,0,0,1-2,.4,2.34,2.34,0,0,1-2.34-1.75,5.65,5.65,0,0,1-3.9,1.75c-2.51,0-4.39-1.28-4.41-4s2-4.09,5.25-4.09a20,20,0,0,1,2.79.24v-.76c0-1.41-.89-2.17-2.66-2.15a10.41,10.41,0,0,0-4,.79Zm7.15,6a14,14,0,0,0-2.51-.14c-1.48.07-2.42.76-2.44,2.07a1.82,1.82,0,0,0,2.09,1.9,5,5,0,0,0,2.86-1Z"/><path d="M711.44,192.62l3.18,9.12h.2l2.91-9.12h3.16l-4.79,13.12c-1.57,4.31-3.05,5.4-7.62,4.44l.55-2.59c2.91.71,3.3,0,4.21-2.49l-4.85-12.48Z"/><path d="M546.31,227.35a15.36,15.36,0,0,1,4.88-.94c3.89,0,5.32,1.92,5.32,4.93v5.23a.65.65,0,0,0,.62.74,2.41,2.41,0,0,0,1-.15v2.05a5,5,0,0,1-2,.39,2.34,2.34,0,0,1-2.34-1.75,5.62,5.62,0,0,1-3.89,1.75c-2.52,0-4.39-1.28-4.42-4s2-4.09,5.25-4.09a19.85,19.85,0,0,1,2.79.25V231c0-1.4-.89-2.17-2.66-2.14a10.41,10.41,0,0,0-4,.79Zm7.15,6a13.13,13.13,0,0,0-2.52-.15c-1.48.07-2.42.77-2.44,2.07a1.81,1.81,0,0,0,2.1,1.9,5.1,5.1,0,0,0,2.86-1Z"/><path d="M565.77,235.76a6.68,6.68,0,0,0,4.19,1.43c1.48,0,2.34-.45,2.34-1.51,0-2.51-7.47-.84-7.23-5.57.1-2.32,1.81-3.7,5.23-3.7a10.49,10.49,0,0,1,4.66,1.21l-1.08,2.17a7.25,7.25,0,0,0-3.7-1.06c-1.21,0-2.22.39-2.17,1.4.15,2.05,7.32.47,7.32,5.45,0,2.67-2.39,4-5.45,4a8.82,8.82,0,0,1-5.3-1.67Z"/><path d="M578.17,227.35a15.42,15.42,0,0,1,4.88-.94c3.9,0,5.33,1.92,5.33,4.93v5.23a.65.65,0,0,0,.62.74,2.45,2.45,0,0,0,1-.15v2.05a5.09,5.09,0,0,1-2,.39,2.33,2.33,0,0,1-2.34-1.75,5.67,5.67,0,0,1-3.9,1.75c-2.51,0-4.39-1.28-4.41-4s2-4.09,5.25-4.09a19.85,19.85,0,0,1,2.79.25V231c0-1.4-.89-2.17-2.67-2.14a10.39,10.39,0,0,0-4,.79Zm7.15,6a13,13,0,0,0-2.51-.15c-1.48.07-2.42.77-2.44,2.07a1.81,1.81,0,0,0,2.09,1.9,5.07,5.07,0,0,0,2.86-1Z"/><path d="M592.9,226.66v-1.75c0-2.64,1.38-4.29,4.26-4.29a6.74,6.74,0,0,1,2.44.44l-.39,2.14a7.24,7.24,0,0,0-1.31-.14c-1.36,0-1.92.56-1.92,2.34v1.26h2.81l-.4,2.46H596v10.33H592.9V229.12h-2v-2.46Z"/><path d="M611.54,235.9a5.76,5.76,0,0,1-5.57,3.7c-4.34,0-6.27-2.71-6.27-6.75s2.72-6.54,6.44-6.44c3,.07,5.74,2.34,5.45,6.46l-.05.39h-8.73c0,2.2.94,3.7,3.18,3.7a2.88,2.88,0,0,0,2.79-2Zm-3.13-4.21c.05-2-1-2.94-2.54-2.89a2.88,2.88,0,0,0-2.91,2.89Z"/><path d="M631.52,220.62v18.83H629l-.34-2.21a4.53,4.53,0,0,1-4.12,2.36c-3.48.05-5.55-2.83-5.55-6.63,0-4.64,3-6.56,5.52-6.56a4.09,4.09,0,0,1,4,2.44V221Zm-9.42,12.32c0,2.2.86,3.93,3.15,3.93s3.26-1.73,3.26-3.9c0-2.94-1.58-4-3.28-4S622.1,230.11,622.1,232.94Z"/><path d="M638.67,226.53v12.92h-3.08V229.07h-1.8v-2.54Zm-1.55-5a1.65,1.65,0,0,1,1.82,1.56,1.82,1.82,0,0,1-3.62,0A1.59,1.59,0,0,1,637.12,221.5Z"/><path d="M642.17,235.76a6.73,6.73,0,0,0,4.2,1.43c1.48,0,2.34-.45,2.34-1.51,0-2.51-7.47-.84-7.23-5.57.1-2.32,1.8-3.7,5.23-3.7a10.49,10.49,0,0,1,4.66,1.21l-1.08,2.17a7.3,7.3,0,0,0-3.7-1.06c-1.21,0-2.22.39-2.17,1.4.15,2.05,7.32.47,7.32,5.45,0,2.67-2.39,4-5.45,4a8.82,8.82,0,0,1-5.3-1.67Z"/><path d="M658.21,222.88v3.78h3.25l-.42,2.46h-2.83V235c0,1.41.64,2,1.67,2a5.5,5.5,0,0,0,2-.57l.57,2.34a7.94,7.94,0,0,1-3.28.84c-3,0-4-2-4-4.14v-6.34h-1.8v-2.46h1.95l.37-3.43Z"/><path d="M664.22,227.35a15.43,15.43,0,0,1,4.89-.94c3.89,0,5.32,1.92,5.32,4.93v5.23a.65.65,0,0,0,.62.74,2.41,2.41,0,0,0,1-.15v2.05a5.09,5.09,0,0,1-2,.39,2.34,2.34,0,0,1-2.34-1.75,5.65,5.65,0,0,1-3.9,1.75c-2.51,0-4.38-1.28-4.41-4s2-4.09,5.25-4.09a19.85,19.85,0,0,1,2.79.25V231c0-1.4-.89-2.17-2.66-2.14a10.41,10.41,0,0,0-4,.79Zm7.16,6a13.13,13.13,0,0,0-2.52-.15c-1.48.07-2.42.77-2.44,2.07a1.81,1.81,0,0,0,2.09,1.9,5.1,5.1,0,0,0,2.87-1Z"/><path d="M680.6,226.53l.47,2.3a4.74,4.74,0,0,1,4.41-2.42c3,0,4.49,2,4.49,4.61v8.43h-3.06V232c0-2-.74-3-2.41-3-2.35,0-3.26,1.9-3.26,4v6.51h-3.06V226.53Z"/><path d="M704.33,235.83c-.84,2.64-3,3.77-5.63,3.77-4.24,0-6.06-3.15-6.06-6.61,0-4.21,2.61-6.51,6.14-6.58,3.1-.07,5,1.53,5.5,3.8l-2.84.91a2.55,2.55,0,0,0-2.61-2.12c-1.78,0-3.14,1.31-3.14,3.94,0,2.1.79,4,3.09,4a2.6,2.6,0,0,0,2.71-2.05Z"/><path d="M718.14,235.9a5.77,5.77,0,0,1-5.58,3.7c-4.34,0-6.26-2.71-6.26-6.75s2.71-6.54,6.44-6.44c3,.07,5.74,2.34,5.45,6.46l-.05.39h-8.73c0,2.2.94,3.7,3.18,3.7a2.88,2.88,0,0,0,2.79-2ZM715,231.69c0-2-1-2.94-2.54-2.89a2.87,2.87,0,0,0-2.91,2.89Z"/><path d="M547.27,260.57v-1.75c0-2.64,1.38-4.29,4.26-4.29A6.74,6.74,0,0,1,554,255l-.39,2.15a6.25,6.25,0,0,0-1.31-.15c-1.35,0-1.92.57-1.92,2.34v1.26h2.81l-.39,2.47h-2.42v10.33h-3.08V263h-2v-2.47Z"/><path d="M557.6,260.45l.57,2.66c.59-2,2.09-2.84,4.19-2.79a5.12,5.12,0,0,1,1.33.23l-.47,2.68a5.29,5.29,0,0,0-1.85-.24c-2.27.07-3.13,1.82-3.13,3.89v6.49h-3.06V260.45Z"/><path d="M571.12,260.32c3.23,0,6,2.2,6,6.61,0,3.63-2.15,6.59-6.17,6.59-4.36,0-6.16-3-6.16-6.59C564.83,262.52,567.61,260.32,571.12,260.32ZM568,266.93c0,2.05.69,4,3,4,2.1,0,3-1.95,3-4,0-2.86-1.4-4-3-4C569.41,262.91,568,264,568,266.93Z"/><path d="M582.31,260.45l.45,2.29a4.3,4.3,0,0,1,4-2.44,3.77,3.77,0,0,1,3.85,2.39,4.52,4.52,0,0,1,4.17-2.39c3,0,4.21,2,4.21,4.63v8.44h-3.05v-7.45c0-2-.47-3-2.15-3-2.22,0-2.81,1.67-2.81,3.57v6.91h-3.06v-7.45c0-2-.47-3-2.14-3-2.37,0-2.84,1.9-2.84,4v6.51h-3.06V260.45Z"/><path d="M611.22,256.8v3.77h3.25l-.41,2.47h-2.84V269c0,1.41.64,1.95,1.68,1.95a5.62,5.62,0,0,0,1.94-.56l.57,2.34a8.1,8.1,0,0,1-3.28.84c-3,0-4-2-4-4.15V263h-1.8v-2.47h1.95l.37-3.43Z"/><path d="M620.42,254.53v8a4.81,4.81,0,0,1,4.24-2.2c3,0,4.49,1.95,4.49,4.61v8.44h-3.06v-7.45c0-2-.74-3-2.42-3-2.34,0-3.25,1.9-3.25,4v6.51h-3.06V254.9Z"/><path d="M643.55,269.82a5.76,5.76,0,0,1-5.57,3.7c-4.34,0-6.26-2.72-6.26-6.76s2.71-6.54,6.43-6.44c3,.08,5.75,2.35,5.45,6.46l-.05.4h-8.73c0,2.19.94,3.7,3.18,3.7a2.87,2.87,0,0,0,2.79-2.05Zm-3.13-4.22c.05-2-1-2.93-2.54-2.88A2.87,2.87,0,0,0,635,265.6Z"/><path d="M654.51,254.53v8.21a4.42,4.42,0,0,1,4.31-2.42c2.44.08,5.06,1.73,5.06,6.49,0,3.89-2,6.71-5.45,6.71a4.28,4.28,0,0,1-4.07-2.37l-.42,2.22h-2.49V254.92Zm-.13,12.35c0,2.22.82,4,3.26,4,2,0,3.1-1.51,3.1-4.05,0-3-1.5-3.94-3.13-3.94S654.38,264.29,654.38,266.88Z"/><path d="M672.39,260.32c3.23,0,6,2.2,6,6.61,0,3.63-2.15,6.59-6.17,6.59-4.36,0-6.16-3-6.16-6.59C666.1,262.52,668.88,260.32,672.39,260.32Zm-3.09,6.61c0,2.05.69,4,3,4,2.1,0,3-1.95,3-4,0-2.86-1.41-4-3-4C670.68,262.91,669.3,264,669.3,266.93Z"/><path d="M681.34,261.26a15.36,15.36,0,0,1,4.88-.94c3.9,0,5.33,1.93,5.33,4.94v5.22a.65.65,0,0,0,.62.74,2.45,2.45,0,0,0,1-.15v2.05a5.05,5.05,0,0,1-2,.4,2.33,2.33,0,0,1-2.34-1.76,5.63,5.63,0,0,1-3.9,1.76c-2.51,0-4.39-1.29-4.41-4s2-4.1,5.25-4.1a19.85,19.85,0,0,1,2.79.25v-.77c0-1.4-.89-2.17-2.67-2.14a10.39,10.39,0,0,0-4,.79Zm7.15,6a13.88,13.88,0,0,0-2.51-.15c-1.48.08-2.42.77-2.44,2.08a1.8,1.8,0,0,0,2.09,1.89,5.07,5.07,0,0,0,2.86-1Z"/><path d="M697.72,260.45l.56,2.66c.6-2,2.1-2.84,4.2-2.79a5.28,5.28,0,0,1,1.33.23l-.47,2.68a5.33,5.33,0,0,0-1.85-.24c-2.27.07-3.13,1.82-3.13,3.89v6.49H695.3V260.45Z"/><path d="M717.35,254.53v18.84h-2.57l-.34-2.22a4.53,4.53,0,0,1-4.12,2.37c-3.48.05-5.55-2.84-5.55-6.64,0-4.63,3-6.56,5.53-6.56a4.12,4.12,0,0,1,4,2.44v-7.84Zm-9.42,12.33c0,2.19.86,3.92,3.15,3.92s3.26-1.73,3.26-3.9c0-2.93-1.58-4-3.28-4S707.93,264,707.93,266.86Z"/><path d="M97.35,227.85a68.34,68.34,0,0,0,2.26,33.88,81.51,81.51,0,0,0,15.44,27A88.38,88.38,0,0,0,127,300.4c1.49,1.2,3.62-.91,2.12-2.12-15.47-12.49-27.31-30.61-29.53-50.65a65,65,0,0,1,.69-19c.35-1.89-2.54-2.69-2.89-.8Z"/><path d="M122.78,285.81c1.69,4.63,2.92,9.41,4.25,14.16l1.45-1.9c-2.49.06-5,.24-7.47.34-2.31.1-4.62.1-6.94.2-1.92.09-1.93,3.09,0,3,2.32-.1,4.63-.1,6.94-.2,2.49-.1,5-.28,7.47-.34a1.52,1.52,0,0,0,1.44-1.9c-1.33-4.75-2.56-9.52-4.24-14.16a1.55,1.55,0,0,0-1.85-1.05,1.52,1.52,0,0,0-1,1.85Z"/><path d="M75.44,148.57v17.26H72.36V148.57Z"/><path d="M82.74,149.26V153H86l-.42,2.47H82.74v5.92c0,1.4.64,2,1.68,2a5.72,5.72,0,0,0,2-.57l.56,2.34a8.09,8.09,0,0,1-3.27.84c-3,0-4-2-4-4.14V155.5h-1.8V153h1.94l.37-3.42Z"/><path d="M96.48,152.91l.44,2.29a4.34,4.34,0,0,1,4-2.44,3.77,3.77,0,0,1,3.85,2.39,4.55,4.55,0,0,1,4.16-2.39c3,0,4.22,2,4.22,4.64v8.43h-3.06v-7.45c0-2-.47-3-2.14-3-2.22,0-2.81,1.68-2.81,3.58v6.9h-3.06v-7.45c0-2-.47-3-2.15-3-2.36,0-2.83,1.9-2.83,4v6.51H94V152.91Z"/><path d="M119.15,152.91v7.45c0,2,.79,3,2.59,3,2.34,0,3.3-2.42,3.3-4.86v-5.62h3.06v12.92h-2.44l-.45-2.81a4.7,4.7,0,0,1-4.46,3c-3.16,0-4.66-1.95-4.66-5.2v-7.87Z"/><path d="M131.6,162.13a6.72,6.72,0,0,0,4.19,1.43c1.48,0,2.35-.44,2.35-1.5,0-2.52-7.47-.84-7.23-5.57.1-2.32,1.8-3.7,5.23-3.7A10.49,10.49,0,0,1,140.8,154l-1.08,2.17a7.36,7.36,0,0,0-3.7-1.07c-1.21,0-2.22.4-2.17,1.41.15,2.05,7.32.47,7.32,5.45,0,2.66-2.39,4-5.45,4a8.86,8.86,0,0,1-5.3-1.68Z"/><path d="M147.63,149.26V153h3.26l-.42,2.47h-2.84v5.92c0,1.4.64,2,1.68,2a5.72,5.72,0,0,0,1.95-.57l.57,2.34a8.21,8.21,0,0,1-3.28.84c-3,0-4-2-4-4.14V155.5h-1.8V153h1.94l.37-3.42Z"/><path d="M162,147v8.21a4.39,4.39,0,0,1,4.31-2.41c2.44.07,5.06,1.72,5.06,6.48,0,3.9-2,6.71-5.45,6.71a4.28,4.28,0,0,1-4.07-2.37l-.42,2.22h-2.49V147.39Zm-.12,12.36c0,2.21.81,4,3.25,4,2,0,3.11-1.5,3.11-4,0-3-1.51-4-3.13-4C163.32,155.35,161.87,156.76,161.87,159.35Z"/><path d="M185.39,162.28a5.76,5.76,0,0,1-5.57,3.7c-4.34,0-6.26-2.71-6.26-6.76s2.71-6.53,6.43-6.43c3,.07,5.75,2.34,5.45,6.46l-.05.39h-8.73c0,2.2.94,3.7,3.18,3.7a2.87,2.87,0,0,0,2.79-2.05Zm-3.13-4.22c.05-2-1-2.93-2.54-2.88a2.87,2.87,0,0,0-2.91,2.88Z"/><path d="M196.35,147v8.21a4.39,4.39,0,0,1,4.31-2.41c2.44.07,5.06,1.72,5.06,6.48,0,3.9-1.95,6.71-5.45,6.71a4.27,4.27,0,0,1-4.07-2.37l-.42,2.22h-2.49V147.39Zm-.13,12.36c0,2.21.82,4,3.26,4,2,0,3.1-1.5,3.1-4,0-3-1.5-4-3.13-4S196.22,156.76,196.22,159.35Z"/><path d="M214.23,152.79c3.23,0,6,2.19,6,6.6,0,3.63-2.15,6.59-6.17,6.59-4.36,0-6.16-3-6.16-6.59C207.94,155,210.72,152.79,214.23,152.79Zm-3.09,6.6c0,2.05.69,4,3,4,2.1,0,3-1.95,3-4,0-2.86-1.41-4-3-4C212.52,155.38,211.14,156.49,211.14,159.39Z"/><path d="M226,147v14.62c0,1.39.62,1.76,1.53,1.76a2.42,2.42,0,0,0,1.28-.47l.57,2.19a5.35,5.35,0,0,1-2.79.89c-2.56,0-3.65-1.73-3.65-4.07V147.36Z"/><path d="M242.49,147v18.84h-2.56l-.35-2.22a4.52,4.52,0,0,1-4.12,2.37c-3.47.05-5.55-2.84-5.55-6.63,0-4.64,3-6.56,5.53-6.56a4.1,4.1,0,0,1,4,2.44v-7.84Zm-9.42,12.33c0,2.2.86,3.92,3.16,3.92s3.25-1.72,3.25-3.89c0-2.94-1.58-4-3.28-4S233.07,156.49,233.07,159.32Z"/><path d="M246.61,165.49a1.42,1.42,0,0,1-1.63-1.58,1.6,1.6,0,0,1,1.73-1.53c1.7,0,2.37,1.33,2.24,2.91-.19,2.34-2,3.28-4,3.3v-1.33c1.16,0,2-.62,2-1.36C246.91,165.71,246.61,165.49,246.61,165.49Z"/><path d="M259.73,147v8a4.82,4.82,0,0,1,4.24-2.19c3,0,4.49,1.94,4.49,4.61v8.43H265.4v-7.45c0-2-.74-3-2.41-3-2.35,0-3.26,1.9-3.26,4v6.51h-3.06V147.36Z"/><path d="M275.54,152.91v12.92h-3.08V155.45h-1.8v-2.54Zm-1.55-5a1.6,1.6,0,1,1,0,3.16,1.63,1.63,0,0,1-1.8-1.63A1.59,1.59,0,0,1,274,147.88Z"/><path d="M290.73,152.91v11c0,4.29-1.67,6.88-6.41,6.88a13.36,13.36,0,0,1-5.28-1.11l.72-2.31a11.13,11.13,0,0,0,4.22,1c2.78,0,3.69-1.38,3.69-3.5v-1.14a4.44,4.44,0,0,1-4,2.05c-3.48.07-5.48-2.57-5.48-6.36,0-4.64,3-6.56,5.52-6.56a4.28,4.28,0,0,1,4.1,2.34l.32-2.22Zm-9.32,6.41c0,2.2.86,3.92,3.16,3.92s3.2-1.72,3.2-3.89c0-2.94-1.55-4-3.23-4S281.41,156.49,281.41,159.32Z"/><path d="M297,147v8a4.81,4.81,0,0,1,4.24-2.19c3,0,4.49,1.94,4.49,4.61v8.43h-3.06v-7.45c0-2-.74-3-2.41-3-2.35,0-3.26,1.9-3.26,4v6.51h-3.06V147.36Z"/><path d="M72.38,187.64a15.49,15.49,0,0,1,4.89-.94c3.89,0,5.32,1.92,5.32,4.93v5.23a.65.65,0,0,0,.62.74,2.41,2.41,0,0,0,1-.15v2.05a5,5,0,0,1-2,.39,2.34,2.34,0,0,1-2.34-1.75,5.64,5.64,0,0,1-3.89,1.75c-2.52,0-4.39-1.28-4.42-4s2-4.09,5.25-4.09a19.85,19.85,0,0,1,2.79.25v-.77c0-1.4-.89-2.17-2.66-2.14a10.41,10.41,0,0,0-4,.79Zm7.16,6a13.13,13.13,0,0,0-2.52-.15c-1.48.07-2.42.77-2.44,2.07a1.81,1.81,0,0,0,2.1,1.9,5.1,5.1,0,0,0,2.86-1Z"/><path d="M88.76,186.82l.47,2.3a4.76,4.76,0,0,1,4.41-2.42c3,0,4.49,2,4.49,4.61v8.43H95.07V192.3c0-2-.74-3-2.41-3-2.35,0-3.26,1.9-3.26,4v6.51H86.34V186.82Z"/><path d="M113.32,180.91v18.83h-2.56l-.35-2.21a4.5,4.5,0,0,1-4.11,2.36c-3.48.05-5.55-2.83-5.55-6.63,0-4.64,3-6.56,5.52-6.56a4.09,4.09,0,0,1,4,2.44V181.3Zm-9.42,12.32c0,2.2.87,3.93,3.16,3.93s3.26-1.73,3.26-3.9c0-2.93-1.58-4-3.28-4S103.9,190.4,103.9,193.23Z"/><path d="M132.86,196.12c-.84,2.64-3,3.77-5.62,3.77-4.24,0-6.07-3.15-6.07-6.61,0-4.21,2.61-6.51,6.14-6.58,3.11-.07,5,1.53,5.5,3.8l-2.84.91a2.54,2.54,0,0,0-2.61-2.12c-1.78,0-3.13,1.31-3.13,3.94,0,2.1.79,4,3.08,4a2.6,2.6,0,0,0,2.71-2Z"/><path d="M141.15,186.7c3.23,0,6,2.19,6,6.61,0,3.62-2.15,6.58-6.17,6.58-4.36,0-6.16-3-6.16-6.58C134.86,188.89,137.65,186.7,141.15,186.7Zm-3.09,6.61c0,2.05.69,4,3,4,2.1,0,3-1.94,3-4,0-2.86-1.41-4-3-4C139.45,189.29,138.06,190.4,138.06,193.31Z"/><path d="M152.32,186.82l.47,2.3a4.76,4.76,0,0,1,4.41-2.42c3,0,4.49,2,4.49,4.61v8.43h-3.06V192.3c0-2-.74-3-2.41-3-2.35,0-3.26,1.9-3.26,4v6.51H149.9V186.82Z"/><path d="M165.66,187V185.2c0-2.64,1.38-4.29,4.25-4.29a6.9,6.9,0,0,1,2.12.32l-.47,2.19c-.1,0-.5-.07-.89-.07-1.36,0-1.92.56-1.92,2.34V187H176v12.79h-3.06V189.41h-4.16v10.33h-3.09V189.41h-2V187Zm8.81-5.16a1.64,1.64,0,0,1,1.8,1.56,1.62,1.62,0,0,1-1.8,1.6,1.64,1.64,0,0,1-1.83-1.63C172.64,182.48,173.28,181.79,174.47,181.79Z"/><path d="M191.21,180.91v18.83h-2.56l-.35-2.21a4.5,4.5,0,0,1-4.11,2.36c-3.48.05-5.55-2.83-5.55-6.63,0-4.64,3-6.56,5.52-6.56a4.09,4.09,0,0,1,4,2.44V181.3Zm-9.42,12.32c0,2.2.87,3.93,3.16,3.93s3.26-1.73,3.26-3.9c0-2.93-1.58-4-3.28-4S181.79,190.4,181.79,193.23Z"/><path d="M205.69,196.19a5.76,5.76,0,0,1-5.57,3.7c-4.34,0-6.26-2.71-6.26-6.75s2.71-6.54,6.43-6.44c3,.07,5.75,2.34,5.45,6.46l-.05.39H197c0,2.2.94,3.7,3.18,3.7a2.87,2.87,0,0,0,2.79-2ZM202.56,192c.05-2-1-2.94-2.54-2.89a2.88,2.88,0,0,0-2.91,2.89Z"/><path d="M210.85,186.82l.47,2.3a4.76,4.76,0,0,1,4.41-2.42c3,0,4.49,2,4.49,4.61v8.43h-3.06V192.3c0-2-.74-3-2.42-3-2.34,0-3.25,1.9-3.25,4v6.51h-3.06V186.82Z"/><path d="M227.3,183.17V187h3.25l-.42,2.46H227.3v5.92c0,1.41.64,1.95,1.68,1.95a5.43,5.43,0,0,0,1.94-.57l.57,2.34a7.94,7.94,0,0,1-3.28.84c-3,0-4-2-4-4.14v-6.34h-1.8V187h1.95l.37-3.43Z"/><path d="M97.35,227.85a68.34,68.34,0,0,0,2.26,33.88,81.51,81.51,0,0,0,15.44,27A88.38,88.38,0,0,0,127,300.4c1.49,1.2,3.62-.91,2.12-2.12-15.47-12.49-27.31-30.61-29.53-50.65a65,65,0,0,1,.69-19c.35-1.89-2.54-2.69-2.89-.8Z"/><path d="M122.78,285.81c1.69,4.63,2.92,9.41,4.25,14.16l1.45-1.9c-2.49.06-5,.24-7.47.34-2.31.1-4.62.1-6.94.2-1.92.09-1.93,3.09,0,3,2.32-.1,4.63-.1,6.94-.2,2.49-.1,5-.28,7.47-.34a1.52,1.52,0,0,0,1.44-1.9c-1.33-4.75-2.56-9.52-4.24-14.16a1.55,1.55,0,0,0-1.85-1.05,1.52,1.52,0,0,0-1,1.85Z"/><path class="cls-6" d="M95.79,61.4A36.74,36.74,0,0,1,104.16,38a34.44,34.44,0,1,0,.11,46.9A36.78,36.78,0,0,1,95.79,61.4ZM87.2,75.66H70.92L71,73.39l4.46-.58c.58,0,.81-.23.81-1,.08-10.05,0-19.6,0-19.6l-5.62,1.08c-.19-.31-1.12-2.46-.46-2.73l10.35-4,1,1s-.12,20.87,0,24.37c0,.77.19,1,.73,1l5.08.54Z"/><circle cx="130" cy="61.53" r="34.44"/><text class="cls-7" transform="translate(118.45 75.26)">2</text><path d="M184,52.13l8.43,15.27V52.13h3.75v21h-4.59L183.3,58.34V73.13h-3.75v-21Z"/><path d="M213.6,68.81a7,7,0,0,1-6.78,4.5c-5.28,0-7.62-3.3-7.62-8.22s3.3-8,7.83-7.83c3.69.09,7,2.85,6.63,7.86l-.06.48H203c0,2.67,1.14,4.5,3.87,4.5a3.5,3.5,0,0,0,3.39-2.49Zm-3.81-5.13c.06-2.43-1.26-3.57-3.09-3.51a3.5,3.5,0,0,0-3.54,3.51Z"/><path d="M219.69,57.41l3.15,6.18,3.3-6.18h4l-4.35,7.8,4.53,7.92h-4.26L222.78,67l-3.45,6.12h-4.14L220,65.27l-4.29-7.86Z"/><path d="M238.11,53v4.59h4l-.51,3h-3.45v7.2c0,1.71.78,2.37,2,2.37a6.83,6.83,0,0,0,2.37-.69l.69,2.85a9.82,9.82,0,0,1-4,1c-3.69,0-4.83-2.46-4.83-5V60.56H232.2v-3h2.37l.45-4.17Z"/><path d="M256.74,57.41V73.13H253V60.5H250.8V57.41Zm-1.89-6.12a2,2,0,0,1,2.22,1.89,2.22,2.22,0,0,1-4.41,0A1.93,1.93,0,0,1,254.85,51.29Z"/><path d="M261,68.63a8.15,8.15,0,0,0,5.1,1.74c1.8,0,2.85-.54,2.85-1.83,0-3.06-9.09-1-8.79-6.78.12-2.82,2.19-4.5,6.36-4.5a12.78,12.78,0,0,1,5.67,1.47l-1.32,2.64a8.9,8.9,0,0,0-4.5-1.29c-1.47,0-2.7.48-2.64,1.71.18,2.49,8.91.57,8.91,6.63,0,3.24-2.91,4.92-6.63,4.89a10.76,10.76,0,0,1-6.45-2Z"/><path d="M286.77,53v4.59h4l-.51,3h-3.45v7.2c0,1.71.78,2.37,2,2.37a6.83,6.83,0,0,0,2.37-.69l.69,2.85a9.82,9.82,0,0,1-4,1c-3.69,0-4.83-2.46-4.83-5V60.56h-2.19v-3h2.37l.45-4.17Z"/><path d="M294.09,58.4A18.74,18.74,0,0,1,300,57.26c4.74,0,6.48,2.34,6.48,6v6.36a.79.79,0,0,0,.75.9,3,3,0,0,0,1.23-.18v2.49a6.08,6.08,0,0,1-2.49.48,2.84,2.84,0,0,1-2.85-2.13,6.87,6.87,0,0,1-4.74,2.13c-3.06,0-5.34-1.56-5.37-4.83s2.46-5,6.39-5a24.49,24.49,0,0,1,3.39.3v-.93c0-1.71-1.08-2.64-3.24-2.61a12.68,12.68,0,0,0-4.86,1Zm8.7,7.35a16.62,16.62,0,0,0-3.06-.18c-1.8.09-2.94.93-3,2.52a2.21,2.21,0,0,0,2.55,2.31,6.17,6.17,0,0,0,3.48-1.26Z"/><path d="M314.79,50.21V64h1.74l3.66-6.45h4.2l-4.71,7.77,5.13,7.86h-4.29l-4-6.09h-1.77v6.09h-3.72V50.66Z"/><path d="M340.59,68.81a7,7,0,0,1-6.78,4.5c-5.28,0-7.62-3.3-7.62-8.22s3.3-8,7.83-7.83c3.69.09,7,2.85,6.63,7.86l-.06.48H330c0,2.67,1.14,4.5,3.87,4.5a3.5,3.5,0,0,0,3.39-2.49Zm-3.81-5.13c.06-2.43-1.26-3.57-3.09-3.51a3.5,3.5,0,0,0-3.54,3.51Z"/><path d="M349.68,63.56v3h-7.44v-3Z"/><path d="M359,57.26c3.93,0,7.35,2.67,7.35,8,0,4.41-2.61,8-7.5,8-5.31,0-7.5-3.6-7.5-8C351.33,59.93,354.72,57.26,359,57.26Zm-3.75,8c0,2.49.84,4.86,3.66,4.86,2.55,0,3.69-2.37,3.69-4.86,0-3.48-1.71-4.89-3.6-4.89C356.91,60.41,355.23,61.76,355.23,65.3Z"/><path d="M370.56,57.56V55.43c0-3.21,1.68-5.22,5.19-5.22a8.28,8.28,0,0,1,3,.54l-.48,2.61a7.71,7.71,0,0,0-1.59-.18c-1.65,0-2.34.69-2.34,2.85v1.53h3.42l-.48,3h-2.94V73.13h-3.75V60.56H368.1v-3Z"/><path d="M381.12,57.56V55.43c0-3.21,1.68-5.22,5.19-5.22a8.28,8.28,0,0,1,3,.54l-.48,2.61a7.71,7.71,0,0,0-1.59-.18c-1.65,0-2.34.69-2.34,2.85v1.53h3.42l-.48,3h-2.94V73.13h-3.75V60.56h-2.46v-3Z"/></svg>