<svg id="Layer_1" data-name="Layer 1" xmlns="http://www.w3.org/2000/svg" viewBox="0 0 780 1051.14"><defs><style>.cls-1,.cls-4{fill:#d4a47c;}.cls-1,.cls-2,.cls-3,.cls-4,.cls-5{stroke:#fff;stroke-miterlimit:10;}.cls-1{stroke-width:0.37px;}.cls-2{fill:#fff171;stroke-width:0.3px;}.cls-3{fill:#005058;stroke-width:0.5px;}.cls-4{stroke-width:0.27px;}.cls-5{fill:#c6946f;stroke-width:0.27px;}.cls-6{font-size:24.66px;}.cls-16,.cls-6{font-family:ABCSansBold, ABCSans;}.cls-7{letter-spacing:-0.01em;}.cls-8{letter-spacing:-0.03em;}.cls-9{letter-spacing:0.01em;}.cls-10{letter-spacing:-0.02em;}.cls-11{letter-spacing:-0.01em;}.cls-12{letter-spacing:-0.02em;}.cls-13{letter-spacing:-0.02em;}.cls-14,.cls-15{fill:#fff;}.cls-14{opacity:0.7;}.cls-15{font-size:38.5px;font-family:ABCSerifBold, ABCSerif;}.cls-16{font-size:30px;}.cls-17{letter-spacing:-0.01em;}.cls-18{letter-spacing:-0.02em;}.cls-19{letter-spacing:-0.01em;}.cls-20{letter-spacing:0em;}</style></defs><path class="cls-1" d="M482.51,191.76c.37-.38.75-.69,1.18-1.09s.87-.61,1.27-1a7.39,7.39,0,0,0,.75-.83,1.47,1.47,0,0,0,.29-1.16,7.2,7.2,0,0,1,.32-1.9c.16-.67.06-1.36.16-2,.16-1.11,1.21-2.24,1.74-3.21a.65.65,0,0,1,.82-.29h0a.66.66,0,0,1,.37.85L480,204.26a.65.65,0,0,1-1.24-.13v0a19.67,19.67,0,0,1-.6-3.24,8.38,8.38,0,0,1,.72-3.31,29.28,29.28,0,0,1,3.16-5.15A5.14,5.14,0,0,1,482.51,191.76Z"/><path class="cls-2" d="M418.55,420.53l-.05,0a81.76,81.76,0,0,0-14.72-9.55c-2.4-1.27-4.81-2.69-7.53-3.13-10.22-1.66-20,3-27.65,9.33-2.51,2.07-5.07,4.48-6.47,7.48-.61,1.3-2.09,7.09,1.21,7.13.44,0,2.87-5.47,3.63-6.38,5.53-6.53,12.73-12.74,21.69-13.31,2.66-.16,5.54-.62,8.13.18a37.12,37.12,0,0,1,6.75,3.33c2.35,1.32,4.58,2.83,6.92,4.18a47.18,47.18,0,0,1,6.62,5c1.21,1,2.4,2.08,3.62,3.1C419.87,425.42,419.19,422.92,418.55,420.53Z"/><path class="cls-1" d="M468.21,348.81c-.55-3.62-1.31-7.23-2.16-10.86a10,10,0,0,1-2.88-6.41c-.15-1.58-.22-3.17-.26-4.75-.48-1.69-1-3.38-1.38-5.08a8.8,8.8,0,0,1,.78-6.69c-6.81-3.53-13.49-7.32-20.15-11.1-1.32,2.35-2.63,4.85-4,7.38-.77,1.93-1.52,3.88-2.32,5.8a54.81,54.81,0,0,1-12.66,19,73.18,73.18,0,0,1-22,14.16c-4.54,7.57-8.08,16.54-8.19,22.38-.19,9.15,4.33,18.69,4.4,28.25s-1.47,19.33-2.78,28.9c-2.45,17.8-3.55,37.43,7.32,52.55,16.08-24.09,40.2-42.88,54.49-67.89,1.21-2.32,2.41-4.66,3.53-7,3.8-8,5.85-16.7,7.16-25.41,1.08-7.23-.43-14.29-.44-21.68C466.67,356.58,468.77,352.48,468.21,348.81Z"/><path class="cls-3" d="M409.81,345.57c-1.81.86-3.62,1.74-5.39,2.66q-6,3.15-11.81,6.72-2.62,1.62-5.19,3.32c-3.49,2.32-7,4.85-9.14,8.33-3,4.93-3,11-4.43,16.56-3.92,15-18.39,25.15-25.65,38.93-3.07,5.83-4.8,12.24-7.94,18-2.57,4.76-6.07,9.06-8.16,14-2.47,5.88-2.85,12.36-3.5,18.68A200,200,0,0,1,321.19,510c7.9-6.74,9.95-18.62,18.93-24,7.58-4.56,17.46-3,26.32-1.22,14.39,2.84,27.58,26.94,30.61,39.67,1.44,6.08-8.85,24.29-10,30.39,16.1-16.34,19.7-38.49,19.71-51.19,0-9.41,2.4-18.65,2.9-28a7.76,7.76,0,0,0-.8-4.71,13.88,13.88,0,0,0-2.33-2.33c-4.4-4.05-5.47-10.34-5.4-16.12a58.13,58.13,0,0,1,16.55-39.53c1.45-1.48,3.1-3.27,2.65-5.27-.29-1.3-1.41-2.26-2.36-3.24-5.57-5.74-6.61-14.07-7.38-21.8-.43-4.36-.84-8.72-1-13.1a73,73,0,0,1,.57-13.05,42.49,42.49,0,0,1,3.6-12.31c.06-.12.21-.73.43-.63a5.26,5.26,0,0,0-1,.53Z"/><path class="cls-4" d="M469,316c.6-1-2.76-5.42-1.35-5.6s1.55,1.58,2,2.6c.35.84,1,1.4,1.45,2.22a7.59,7.59,0,0,0,.87,1.76,6.25,6.25,0,0,0,4,2.1c1.76,0,3.07-1.49,4.75-1.7a5.32,5.32,0,0,1,2.14.34A2.62,2.62,0,0,1,483,316c1.58-3.57,5.07-5.41,7.63-8.16a18.5,18.5,0,0,0-2.4-2.44,28.66,28.66,0,0,1-3.69-3.94c-1-1.27-2.24-2.09-2.34-3.7-.08-1.23.57-2.37.49-3.6a20.63,20.63,0,0,1-.33-2.47,30.32,30.32,0,0,1,.63-3.91c.47-2.88.69-5.87,1-8.79a24.29,24.29,0,0,0-.53-9.38,19.51,19.51,0,0,0-4.85-8.2,44.21,44.21,0,0,0-5.47-5,74.35,74.35,0,0,0-9.27-5.6c-3.61-1.85-8.33-2.61-12.35-2.83-3-.15-5.8-.76-8.83-.58a25.11,25.11,0,0,0-8.71,2.5c-2.38,1.06-4.76,1.24-7.25,1.64-1.25.21-2.34.94-3.64,1.2a29.5,29.5,0,0,0-4.56,1.13c-2.84,1.09-4,3.41-5.37,5.87-.92,1.65-1.22,3.46-2.17,5.1a14.16,14.16,0,0,0-1.08,2.53c-.33,1-.9,1.76-1.24,2.74-.16.47-.09.92-.25,1.41s-.54.69-.6,1.23a20.27,20.27,0,0,0,.43,3.13,27,27,0,0,1,.23,3.69,1.88,1.88,0,0,0,0,.4c-.07,0-.19.08-.41.34a12.17,12.17,0,0,1-2.15,1.83c-1.9,1.5-2.31,1.29-4.31,3.21a26.45,26.45,0,0,0-3.4,3.9,3.41,3.41,0,0,0,1.35,5.11,1.89,1.89,0,0,1,.92.86,4.76,4.76,0,0,1,.82,3.38,19.79,19.79,0,0,0-.93,2.88,18.1,18.1,0,0,0,.25,5.55c.32,1.5,1,2.16.34,3.51-.49,1-1,1.93-1.58,2.88-1,1.78-1.4,3.72.14,5.34,2.06,2.17,18.18,2.44,20.89,3.4,9.33,3.33,6.84,7.3,16.22,10.32,6.42,2.07,5.06-24.32,8.74-18.61"/><path d="M419.2,274.1c.29.22.55.46.82.7s.47.44.46.68,0,.09-.1.09-.2-.11-.27-.14l-.31-.1c-.43-.11-.86-.17-1.29-.28-.25-.06-.5-.09-.74-.17-1.49-.5-2.88-1.51-4.42-1.84a7.14,7.14,0,0,0-4.33.84c-.09-.51-.41-2.16.07-2.45.7-.41,2.79.07,3.62-.06a6.61,6.61,0,0,1,4.41,1C417.86,272.89,418.48,273.57,419.2,274.1Z"/><path d="M492,302.41c-1.56-2-3.58-3.77-4.87-5.88-4.14-6.73-.48-15.43-1.34-23.28-.71-6.46-4.58-12.27-9.57-16.43s-11-6.86-17.12-9.1c-5.65-2.07-11.54-3.8-17.56-3.78-4,0-15.81,1.83-16.53,7.15s7.48,10.85,7.57,16.75c0,3-1.3,6-.72,8.89a24.92,24.92,0,0,0,1.59,4.21c1,2.53,1.34,5.3,2.51,7.76s3.56,4.67,6.26,4.38a11.21,11.21,0,0,1,2.41-5.25c1.34-1.4,2.19-.47,3.83.58,2.25,1.45,3.33,3.31,2.07,5.67s-3.15,4.61-3.14,7.28c0,2.9,2.26,5.23,4.35,7.23,3.59,3.43,11.86,6.76,15.45,10.19,2.62-1.43,2.07-.57,4.77-1.84,2-1-.16-4.66,1.81-3.56a18.4,18.4,0,0,0,12.32,2c3.92-.75,8-3.53,8.12-7.53A8.4,8.4,0,0,0,492,302.41Z"/><path d="M424.32,251.68l.91-.18a1.55,1.55,0,0,1,0-.21A2.84,2.84,0,0,0,424.32,251.68Z"/><path class="cls-4" d="M439.1,293.19c-2-4.87,5.71-8.29,9.26-6.48a6.57,6.57,0,0,1,2.79,8.41c-1.5,3-5.18,4.46-6.86,7.39-.9,1.55-1.24,3.53-2.7,4.57s-4.22-.61-3.11-2"/><path d="M479.5,299.83a7.21,7.21,0,0,0,2.92-1.73,11.74,11.74,0,0,1,3.55-1.79,6.08,6.08,0,0,1,4.48-.05,6.72,6.72,0,0,1,3,2.68,6.44,6.44,0,0,1,1.16,3.43c-.16,1.28-1.54,2.89-2.13,4a6.7,6.7,0,0,1-3.64,2.75,6,6,0,0,1-4.66.28,19.7,19.7,0,0,1-7.74-7.22c-1-1.45-.64-3.82-.14-5.44s1.79-4.13,3.21-5.14c2.72-1.92,6.36.06,8.46,1.95,1.26,1.14,2.41,2.41,2.28,4.25a9.82,9.82,0,0,1-1.55,4.11,18.19,18.19,0,0,1-2.72,4.23,6.56,6.56,0,0,1-2,1.75,20.36,20.36,0,0,0-2.66,1.28,8.19,8.19,0,0,1-3.12,1.13,3.26,3.26,0,0,1-2.47-.53,10.51,10.51,0,0,1-2.43-1.82c-.45-.45-.72-1.05-1.14-1.54-.72-.83-.7-.88-.17-2"/><path d="M483.84,297.32c.1-1.44,1.11-2.24,2.19-3a6.61,6.61,0,0,0,1.08-.85,1.87,1.87,0,0,1,1.83-.62c1.82.2,3.41,1.7,4.71,2.82a6,6,0,0,1,1.51,1.58c.34.6.45,1.3.78,1.87.2.34.51.54.63.94s.06.84.21,1.26a2.43,2.43,0,0,1,.3,1.12,8.72,8.72,0,0,1-.19,1.23,5.06,5.06,0,0,1-.67,2.15,13.73,13.73,0,0,1-1.56,1.76,4.85,4.85,0,0,1-.87.61c-.36.24-.62.6-1,.85a6.25,6.25,0,0,1-3.43.65c-2.23.05-4.44-1.33-6.29-2.45a11.5,11.5,0,0,1-3.62-3.49c-.49-.82-.86-1.66-1.27-2.51a9.71,9.71,0,0,1-1-2.4,8.64,8.64,0,0,1-.08-2.87,19.4,19.4,0,0,1,.5-3.05,6.23,6.23,0,0,1,1.67-2.49,8,8,0,0,0,1.27-1,5.7,5.7,0,0,1,1.12-1.23,6.62,6.62,0,0,1,5.51-1.28,21.2,21.2,0,0,1,4.11,1.33c.82.42,1.62.9,2.43,1.33a5.9,5.9,0,0,1,2.15,2,4.11,4.11,0,0,1,.77,1.55,5,5,0,0,1,.37,1.63c-.18,1.61-1.33,2.7-1.77,4.16a4.59,4.59,0,0,1-.21.87c-.2.43-.47.85-.7,1.27a10.61,10.61,0,0,1-1.22,2,6.91,6.91,0,0,1-2.05,1.67,3.61,3.61,0,0,1-3,.2,9.78,9.78,0,0,1-3.45-1.31,12.87,12.87,0,0,1-3.4-3.54,9.9,9.9,0,0,1-1.93-4.59,10.44,10.44,0,0,1-.15-2.61,11.25,11.25,0,0,1,.8-2.21c.64-1.55,2.27-2.43,3.58-3.3.26-.17.81-.69,1.14-.71s.61.3.82.41"/><path d="M470.23,309.79c.11-1.43,1.12-2.24,2.2-3a6.11,6.11,0,0,0,1.08-.85,1.87,1.87,0,0,1,1.83-.62c1.82.2,3.4,1.7,4.71,2.82a6.34,6.34,0,0,1,1.51,1.59c.34.59.44,1.29.78,1.86.2.34.51.55.63.94s0,.85.2,1.27a2.49,2.49,0,0,1,.31,1.11,9.85,9.85,0,0,1-.19,1.23,5,5,0,0,1-.67,2.15,13.73,13.73,0,0,1-1.56,1.76,5.23,5.23,0,0,1-.87.61c-.37.25-.62.61-1,.85a6.1,6.1,0,0,1-3.44.65c-2.22,0-4.43-1.32-6.28-2.45a11.5,11.5,0,0,1-3.62-3.49,28.09,28.09,0,0,1-1.27-2.51,9.71,9.71,0,0,1-1-2.4,8.14,8.14,0,0,1-.08-2.87,18.31,18.31,0,0,1,.5-3.05,6.3,6.3,0,0,1,1.67-2.49,7.43,7.43,0,0,0,1.27-1,5.67,5.67,0,0,1,1.12-1.23,6.62,6.62,0,0,1,5.51-1.28,21.91,21.91,0,0,1,4.11,1.33c.82.42,1.61.9,2.43,1.33a6,6,0,0,1,2.14,2,4.2,4.2,0,0,1,.78,1.55,5.4,5.4,0,0,1,.37,1.63c-.19,1.61-1.33,2.7-1.77,4.16a4.59,4.59,0,0,1-.21.87c-.2.44-.47.85-.7,1.27a10.61,10.61,0,0,1-1.22,2,6.91,6.91,0,0,1-2.05,1.67,3.59,3.59,0,0,1-3,.2A9.74,9.74,0,0,1,471,316.1a13,13,0,0,1-3.39-3.54,9.92,9.92,0,0,1-1.94-4.59,6.23,6.23,0,0,1,.66-4.82c.63-1.54,2.27-2.42,3.58-3.29.25-.17.81-.7,1.13-.72s.62.3.83.42"/><path class="cls-1" d="M467.11,368.79c.17-7,1.83-15.11.93-22-2.53-19.56.83-37,2.44-56.25q.33-3.9.78-7.79c.62-5.29,1.45-10.55,2.55-15.77,1.05-5,2.61-9.85,3.57-14.85a107.61,107.61,0,0,0,1.53-14.82c.26-5,2.41-9.71,4.37-14.25,1.74-4,3.4-8.08,5.06-12.15,1.09-2.69,2.19-5.38,3.5-8,3.06-6,6.18-11.92,8.51-18.3.13-.35,1.2-2.55,1.39-2.87a42.67,42.67,0,0,0,2.18-4.39l1.84-3.9.5-1.07a1.91,1.91,0,0,1,.26-.41,3,3,0,0,0,.35-.75l.17-.5a1,1,0,0,0,0-.38,2.7,2.7,0,0,0-.05-.41c-.06-.2-.28-.27-.46-.35-.45-.19-.67,0-.94.31a5,5,0,0,1,.55-.83,10,10,0,0,0,1.07-2.08,4.2,4.2,0,0,0,.47-2,1.06,1.06,0,0,0-.54-.84,1,1,0,0,0-.89-.05c-.38.13-.74.21-.9.57a2,2,0,0,0-.37,1.16.59.59,0,0,0-.22-.33c-.22-.16-.57-.05-.83,0a.86.86,0,0,1-.48,0,.85.85,0,0,0-.72.13,8.14,8.14,0,0,0-1.61,1.8c-.5.66-1.15,1.22-1.63,1.89-.17.25-.35.5-.53.74s-.21.35-.33.52c-.34.46-.59.94-.9,1.41a15.21,15.21,0,0,0-.91,1.49c-.15.3-.31.58-.49.87-.93.22-1.14-.17-2,.27a17.14,17.14,0,0,0-1.23,1.32,2.94,2.94,0,0,0-.41.46c-2.76,3.64-4.28,8-6.53,12-.74,1.3-1.87,1.57-2.43,3s-2,3.34-2.71,4.69a55.64,55.64,0,0,0-2.53,6.45c-.79,2.06.61,3-1.63,7.42-1.19,2.39-2.68,4.58-4.05,6.87-1.21,2-2.24,4.13-3.3,6.23l-.12.12A22.48,22.48,0,0,0,462,236.37c-1.41,6.09-1.76,12.64-4.46,18.31-2.37,5-6.17,9.25-7.3,14.81a189.27,189.27,0,0,1-5.27,21.59c-2.24,6.79-6.22,12.75-8.17,19.61-.16.55-.28,1.13-.4,1.71a247.76,247.76,0,0,1-13.61,24.28c-2.07,3.19-4.16,5.7-5.1,9.4"/><path class="cls-2" d="M462.32,400.42c.17-.28.33-.56.47-.85a.79.79,0,0,1,0-.25c.14-.45.52-1.17.59-1.4a25.06,25.06,0,0,0,.87-3.41l-1.6.31a8.53,8.53,0,0,1-1,.46c-7.92,3-16.25,3.57-24.52,5.11-6.17,1.15-12.07,3.09-18.15,4.3,0,.13,0,.27,0,.41a6.77,6.77,0,0,1,1.09,4.73c3.08-.5,6.17-.71,9.06-1.37,11-2.51,21.93-5,32.88-7.62C462.19,400.7,462.24,400.55,462.32,400.42Z"/><path class="cls-2" d="M418.29,345.2c.28-.46.53-.94.77-1.43a2.25,2.25,0,0,1,.31-.79l.12-.17a24.74,24.74,0,0,1,3-5.81c-2.68,1.63-5.37,3.24-8.11,4.77-.27.16-.56.31-.84.46-.33.39-.65.77-1,1.15l-.43.57c0,.12-.07.25-.11.37-.22.89-.43,1.79-.62,2.69a4.3,4.3,0,0,1-.16,1.15q-.09.52-.21,1c2.28-1.24,4.6-2.39,6.69-3.64Z"/><path class="cls-1" d="M497.54,180.45c-.23-.11-.48-.2-.7-.33a.45.45,0,0,1-.2-.23,1.43,1.43,0,0,1,0-.36"/><path class="cls-1" d="M497.23,179.33l.44.21c.12.05.2.14.32.19"/><path class="cls-1" d="M497.32,178.87l.43.2.22.11c.08,0,.13.09.21.14"/><path class="cls-1" d="M497.21,178.07a1,1,0,0,0,.31.11c.14,0,.29,0,.44,0a1.89,1.89,0,0,1,.34.09,2.15,2.15,0,0,1,.32.13"/><path class="cls-1" d="M499.63,181.33,499,181a1.32,1.32,0,0,1-.48-.36"/><path class="cls-1" d="M505.76,168.42c-.44.92-2.22,4.81-2.65,5.73l-.66,1.4-.33.7c-.12.25-.18.53-.29.78-.29.69-.51,1.4-.83,2.08l-.39.82c-.23.5-.53.94-.8,1.41s-.4.69-.58,1l-.46,1c-.63,1.34-1.26,2.67-1.88,4a12,12,0,0,0-.64,1.86,13.35,13.35,0,0,1-.51,1.85"/><path class="cls-1" d="M503.64,168.16c-.33-.24-.69-.46-.8-.87a1.76,1.76,0,0,1,0-1.24,3.86,3.86,0,0,1,1.3-1.78,1.51,1.51,0,0,1,.9-.19.23.23,0,0,1,.15.33,160.23,160.23,0,0,1-7.23,15.49c-.39.84-1,1.57-1.42,2.39a1.35,1.35,0,0,1-.26.33c-.08.17-1.66,3.35-1.75,3.52"/><path class="cls-1" d="M496.28,173c.1,0,.16.16.21.24a.62.62,0,0,1,.12.38,2.86,2.86,0,0,1-.43,1.32c-.39.81-.77,1.62-1.15,2.44-.1.23-.25.42-.37.64s-.15.34-.23.5-.27.58-.4.86c-.36.76-.73,1.51-1.08,2.28s-.41,1.31-.65,1.94c-.1.25-.24.48-.35.72a5.66,5.66,0,0,0-.23.9,8.33,8.33,0,0,1-.22.86c-.08.25-.26.47-.33.73s-.05.31-.1.45-.09.18-.12.26-.09.3-.15.45-.1.14-.06.23a.6.6,0,0,0,.11-.21s0,0,.06,0"/><path class="cls-1" d="M492.9,181.75c-.15,0-1.39-.07-1.32-.24"/><path class="cls-1" d="M492.71,181.36a5.79,5.79,0,0,0-.71-.21"/><path class="cls-1" d="M493.13,180.74c-.07-.15-.48-.17-.6-.19l-.43-.08c-.08,0-.18-.06-.26,0"/><path class="cls-1" d="M495.27,176.72c-.06-.05-.3-.18-.31-.28s0-.22-.06-.33a1.82,1.82,0,0,1,.06-.75c.12-.36.35-.71.5-1.07,0-.09.08-.19.13-.28a.91.91,0,0,1,.11-.16,6.32,6.32,0,0,1,.55-.75c.16-.15.2,0,.37-.1s.33.15,0,1.1Z"/><path class="cls-5" d="M390.39,502.12c-6.59-8.5-24.11-23.26-35.76-24.22-17.54-1.44-20.13,15.75-36.17,23.16-23.76,11-47.9,22.35-68.63,38.79-10.7,8.48-19.83,18.67-28.8,28.93-7.75,8.87-18.12,17.75-23.45,28.33-6.43,12.77-.89,21.79,6.13,32.2l.07.1a23.35,23.35,0,0,0,1,3.1,8.7,8.7,0,0,1,1.81,1c.75,1.1,1.51,2.21,2.3,3.32l.82.35c2.68,3.68,6.94,5.92,10.52,8.65.15.06.3.1.45.17a21.41,21.41,0,0,1,4.8,3.16L255.4,673c7.15,5.68,14.39,11.79,22.21,16.28,13.09,7.5,23.84,18.35,35,28.48a83.86,83.86,0,0,0,7.54,8.58c6.61,3.61,13.71,6.24,20.08,10.26,1.08.68,1.58,1.83,2.55,2.67,1.26,1.1,2.2,2.43,3.45,3.53,5.27,4.64,13,4.51,18.34,9.25,2.3,2,6.24,4.66,9.27,5.22,4.13.77,8.82-2,3.81-5.37a15.92,15.92,0,0,1-3.73-2.67c-2.56-3.07-.55-7.94-2.16-11.6a12.57,12.57,0,0,0-3.08-3.82c-4-3.79-8.49-7.33-12.37-11.2-2.13-2.12-3-4.67-4.73-7-3.36-4.51-3.38-10.93-4.39-16.31a50.45,50.45,0,0,0-2.07-7.52,6.74,6.74,0,0,0-3.77-4.45,8.28,8.28,0,0,0-6.5-.71,32,32,0,0,1-5.32,1.45c-3.16.46-6.38,1.08-9.58,1.33-7.61-10.85-14.71-21.86-21.53-33.13-2.81-4.09-5.65-8.15-8.61-12.11a158.88,158.88,0,0,0-22.25-23.78c10.59-4.25,21.2-8.46,31.55-13.18q23.09-10.51,45.61-22.25c12.87-6.71,27.59-12.68,37.36-23.74,9.34-10.55,14.8-23.94,15-36.79C397.17,516.27,395.17,508.26,390.39,502.12Z"/><path d="M703.55,293c4.16,3.35,8,7.08,11.88,10.73l.33-2.55c-2.56,1.18-5.07,2.46-7.61,3.68-2.36,1.12-4.76,2.16-7.12,3.3a1.64,1.64,0,0,0-.59,2.22,1.67,1.67,0,0,0,2.22.58c2.36-1.14,4.76-2.18,7.13-3.3,2.54-1.22,5.05-2.5,7.61-3.68a1.63,1.63,0,0,0,.32-2.55c-3.9-3.64-7.72-7.37-11.88-10.72a1.66,1.66,0,0,0-2.29,0,1.62,1.62,0,0,0,0,2.29Z"/><path d="M558.44,290.74c-4.16,3.35-8,7.08-11.88,10.72a1.63,1.63,0,0,0,.33,2.55c2.56,1.18,5.06,2.46,7.61,3.68,2.36,1.12,4.76,2.16,7.12,3.3a1.67,1.67,0,0,0,2.22-.58,1.63,1.63,0,0,0-.58-2.22c-2.36-1.14-4.76-2.18-7.13-3.3-2.54-1.22-5-2.5-7.6-3.68l.32,2.55c3.9-3.65,7.73-7.38,11.89-10.73a1.63,1.63,0,0,0,0-2.29,1.66,1.66,0,0,0-2.3,0Z"/><path d="M713.59,300H550.24a1.63,1.63,0,0,0,0,3.25H713.59a1.63,1.63,0,0,0,0-3.25Z"/><text class="cls-6" transform="translate(542.32 205.54)"><tspan class="cls-7">H</tspan><tspan x="16.25" y="0">ead must s</tspan><tspan class="cls-7" x="142.16" y="0">t</tspan><tspan class="cls-8" x="151.96" y="0">a</tspan><tspan x="165.35" y="0">y</tspan><tspan x="2.21" y="33.91">a </tspan><tspan class="cls-9" x="21.52" y="33.91">s</tspan><tspan x="34.07" y="33.91">a</tspan><tspan class="cls-10" x="48.23" y="33.91">f</tspan><tspan x="56.3" y="33.91">e dis</tspan><tspan class="cls-7" x="110.33" y="33.91">t</tspan><tspan x="120.13" y="33.91">ance </tspan><tspan x="2.6" y="67.83">f</tspan><tspan class="cls-11" x="11.28" y="67.83">r</tspan><tspan x="21.4" y="67.83">om the boa</tspan><tspan class="cls-12" x="151.4" y="67.83">r</tspan><tspan x="161.36" y="67.83">d</tspan></text><path d="M97.35,227.85a68.34,68.34,0,0,0,2.26,33.88,81.51,81.51,0,0,0,15.44,27A88.38,88.38,0,0,0,127,300.4c1.49,1.2,3.62-.91,2.12-2.12-15.47-12.49-27.31-30.61-29.53-50.65a65,65,0,0,1,.69-19c.35-1.89-2.54-2.69-2.89-.8Z"/><path d="M122.78,285.81c1.69,4.63,2.92,9.41,4.25,14.16l1.45-1.9c-2.49.06-5,.24-7.47.34-2.31.1-4.62.1-6.94.2-1.92.09-1.93,3.09,0,3,2.32-.1,4.63-.1,6.94-.2,2.49-.1,5-.28,7.47-.34a1.52,1.52,0,0,0,1.44-1.9c-1.33-4.75-2.56-9.52-4.24-14.16a1.55,1.55,0,0,0-1.85-1.05,1.52,1.52,0,0,0-1,1.85Z"/><text class="cls-6" transform="translate(70.61 165.83)">It must be bo<tspan class="cls-13" x="150.8" y="0">l</tspan><tspan x="158.22" y="0">d, high </tspan><tspan x="0" y="33.91">and confident</tspan></text><path d="M97.35,227.85a68.34,68.34,0,0,0,2.26,33.88,81.51,81.51,0,0,0,15.44,27A88.38,88.38,0,0,0,127,300.4c1.49,1.2,3.62-.91,2.12-2.12-15.47-12.49-27.31-30.61-29.53-50.65a65,65,0,0,1,.69-19c.35-1.89-2.54-2.69-2.89-.8Z"/><path d="M122.78,285.81c1.69,4.63,2.92,9.41,4.25,14.16l1.45-1.9c-2.49.06-5,.24-7.47.34-2.31.1-4.62.1-6.94.2-1.92.09-1.93,3.09,0,3,2.32-.1,4.63-.1,6.94-.2,2.49-.1,5-.28,7.47-.34a1.52,1.52,0,0,0,1.44-1.9c-1.33-4.75-2.56-9.52-4.24-14.16a1.55,1.55,0,0,0-1.85-1.05,1.52,1.52,0,0,0-1,1.85Z"/><path class="cls-14" d="M95.79,61.4A36.74,36.74,0,0,1,104.16,38a34.44,34.44,0,1,0,.11,46.9A36.78,36.78,0,0,1,95.79,61.4ZM87.2,75.66H70.92L71,73.39l4.46-.58c.58,0,.81-.23.81-1,.08-10.05,0-19.6,0-19.6l-5.62,1.08c-.19-.31-1.12-2.46-.46-2.73l10.35-4,1,1s-.12,20.87,0,24.37c0,.77.19,1,.73,1l5.08.54Z"/><circle cx="130" cy="61.53" r="34.44"/><text class="cls-15" transform="translate(118.45 75.26)">2</text><text class="cls-16" transform="translate(177.42 73.13)"><tspan class="cls-17">N</tspan><tspan class="cls-18" x="20.46" y="0">e</tspan><tspan x="36.84" y="0">xt is </tspan><tspan class="cls-17" x="102.6" y="0">t</tspan><tspan x="114.51" y="0">a</tspan><tspan class="cls-19" x="131.73" y="0">k</tspan><tspan class="cls-20" x="147.45" y="0">e-off</tspan></text></svg>