<svg id="Layer_1" data-name="Layer 1" xmlns="http://www.w3.org/2000/svg" viewBox="0 0 780 1051.14"><defs><style>.cls-1{fill:#fff171;stroke-width:0.3px;}.cls-1,.cls-2,.cls-3,.cls-4,.cls-5,.cls-6{stroke:#fff;stroke-miterlimit:10;}.cls-2,.cls-3,.cls-6{fill:#d4a47c;}.cls-2{stroke-width:0.3px;}.cls-3{stroke-width:0.27px;}.cls-4{fill:#c6946f;stroke-width:0.27px;}.cls-5{fill:#005058;stroke-width:0.5px;}.cls-6{stroke-width:0.32px;}.cls-7{font-size:24.66px;}.cls-17,.cls-7{font-family:ABCSansBold, ABCSans;}.cls-8{letter-spacing:-0.01em;}.cls-9{letter-spacing:-0.03em;}.cls-10{letter-spacing:0.01em;}.cls-11{letter-spacing:-0.02em;}.cls-12{letter-spacing:-0.01em;}.cls-13{letter-spacing:-0.02em;}.cls-14{letter-spacing:-0.02em;}.cls-15,.cls-16{fill:#fff;}.cls-15{opacity:0.7;}.cls-16{font-size:38.5px;font-family:ABCSerifBold, ABCSerif;}.cls-17{font-size:30px;}.cls-18{letter-spacing:-0.01em;}.cls-19{letter-spacing:-0.02em;}.cls-20{letter-spacing:-0.01em;}.cls-21{letter-spacing:0em;}</style></defs><path class="cls-1" d="M442.77,429.82a104.54,104.54,0,0,1-3.54-10.14,95.69,95.69,0,0,1,.18,24.56c-1.11,9.89-3.41,19.85-7.6,28.27a39.1,39.1,0,0,1-3.5,5.81,30.85,30.85,0,0,1-2.09,2.55c-1.15,1.24-.67,3.13-1.15,4.85-.6,2.17,2,3.11,2.63,1a14.46,14.46,0,0,0,.43-3.28c5.41-5.89,8.86-14.51,11.13-23.12a111.34,111.34,0,0,0,3.52-30.07C442.78,430.08,442.77,430,442.77,429.82Z"/><path class="cls-2" d="M524.91,372.67c-1,1.14-2.61,1-3.9,1.61s-1.84,1.57-2.9,2.62c-2.33,2.32-4.7,4.91-7.2,7-2.68,2.26-6.3,5.5-6.74,9.25a59.39,59.39,0,0,0,.06,6.67c-2.28.73-4.86,1.17-6.59,1.75-2.78.92-5.56,2.39-8.4,3.07-1.77.43-3.44-.12-5.14.15s-2.69,1.11-4.15,1.74c-2.21,1-4.53,1.25-6.56,2.61a45.12,45.12,0,0,0-5,4.43c-5.4,4.94-7.92,11.75-11.07,18.08-3.27,6.58-7.18,12.74-10.59,19.25-6.06,11.58-11.15,23.83-16.81,35.73-2.15,4.52-4.7,9.6-4.9,14.64-.1,2.73.12,5.53.09,8.27,0,4.82,1.4,9.78,2.67,14.44.64,2.33-21.77,20.68-20.18,22.46,2,2.28,28.17-12.61,30.81-13.71,27.23-11.4,57-34,74.07-58.09,13.49-19,16.82-40.79,16.82-63.54V400c0-1.47-.3-3.19.11-4.6.54-1.87,3.65-6.06,5.79-5.74Z"/><path class="cls-3" d="M528.08,376.71c.91-.81,2.66,9.1,4,9.37s1,2,1,3.09c.07.91.55,1.67.68,2.57a8.16,8.16,0,0,0,.26,1.95,6.23,6.23,0,0,0,3.15,3.26c1.67.57,3.38-.43,5-.1a5.71,5.71,0,0,1,1.92,1,2.65,2.65,0,0,1,.7-1.5c2.64-2.88,6.53-3.51,9.84-5.31a20,20,0,0,0-1.51-3.08,28.51,28.51,0,0,1-2.24-4.9c-.56-1.53-1.46-2.7-1-4.25.32-1.2,1.3-2.07,1.62-3.26a20.36,20.36,0,0,1,.47-2.45,30,30,0,0,1,1.84-3.51c1.36-2.58,2.52-5.35,3.78-8a24.47,24.47,0,0,0,2.48-9.06,19.52,19.52,0,0,0-2-9.32,43.38,43.38,0,0,0-3.59-6.5,74.37,74.37,0,0,0-7-8.26c-2.85-2.9-7.08-5.13-10.81-6.61-2.77-1.09-5.26-2.56-8.19-3.36a25,25,0,0,0-9.05-.4c-2.6.25-4.91-.34-7.4-.75-1.25-.2-2.52.15-3.83,0a29.54,29.54,0,0,0-4.68-.38c-3,.13-4.87,2-7,3.86-1.4,1.27-2.26,2.89-3.69,4.14a14.27,14.27,0,0,0-1.82,2.06c-.62.81-1.42,1.38-2,2.2-.3.4-.39.84-.69,1.27s-.74.47-1,1a19.44,19.44,0,0,0-.59,3.11,25,25,0,0,1-1,3.57c-.07.18-.11.3-.13.37s-.21,0-.5.2a11.67,11.67,0,0,1-2.62,1.05c-2.28.82-2.6.48-5.1,1.67a28.47,28.47,0,0,0-4.47,2.61,3.41,3.41,0,0,0-.34,5.28,1.84,1.84,0,0,1,.59,1.12,4.75,4.75,0,0,1-.29,3.46,17.78,17.78,0,0,0-1.8,2.43,18.39,18.39,0,0,0-1.53,5.35c-.17,1.51.29,2.36-.79,3.43-.77.76-1.6,1.5-2.41,2.22-1.52,1.38-2.52,3.09-1.58,5.11a15.08,15.08,0,0,0,7.56,6.75c26.7,8.71,14.11,13.52,22.05,19.37,5.43,4,14.45,9.61,16.12,16.2"/><path d="M497.73,336.3c.2.3.38.61.55.92s.31.57.23.79,0,.1-.12.06-.16-.17-.22-.22l-.26-.2c-.37-.24-.76-.43-1.13-.67a7.06,7.06,0,0,1-.65-.4c-1.26-.95-2.25-2.35-3.6-3.14a7.15,7.15,0,0,0-4.38-.59c.08-.51.29-2.17.85-2.29.79-.18,2.62.94,3.44,1.09A6.46,6.46,0,0,1,496.3,334C496.85,334.72,497.22,335.56,497.73,336.3Z"/><path d="M557.73,386.29c-.85-2.35-2.19-4.72-2.75-7.13-1.78-7.69,4.46-14.79,6.14-22.5,1.38-6.35-.45-13.09-3.85-18.62S549,328,543.93,324c-4.7-3.76-9.73-7.27-15.44-9.17-3.85-1.28-15.58-3.29-18,1.53s3.65,12.66,1.86,18.28c-.91,2.84-3.13,5.24-3.52,8.2a25.15,25.15,0,0,0,.18,4.5c.14,2.72-.42,5.45-.09,8.15s1.89,5.57,4.54,6.15a11.2,11.2,0,0,1,4-4.21c1.73-.91,2.23.25,3.45,1.77,1.68,2.09,2.11,4.19.16,6s-4.45,3.36-5.29,5.91c-.9,2.74.48,5.67,1.83,8.23,2.31,4.4,9.1,10.18,11.41,14.58,2.93-.53,2.14.12,5.1-.23,2.24-.26,1.33-4.47,2.85-2.81a18.43,18.43,0,0,0,11,5.8c4,.54,8.73-.8,10.09-4.55A8.32,8.32,0,0,0,557.73,386.29Z"/><path d="M509.71,316.67l.92.12c0-.07,0-.14,0-.21A3.07,3.07,0,0,0,509.71,316.67Z"/><path class="cls-3" d="M510.52,360.73c-.34-5.26,8.06-6.05,10.85-3.2a6.55,6.55,0,0,1,0,8.85c-2.39,2.41-6.33,2.59-8.86,4.83-1.34,1.19-2.3,3-4,3.47s-3.81-1.91-2.31-2.89"/><path d="M546.72,379.87a7.21,7.21,0,0,0,3.31-.71,11.72,11.72,0,0,1,3.94-.57,6.11,6.11,0,0,1,4.27,1.38,6.72,6.72,0,0,1,2,3.49,6.37,6.37,0,0,1,0,3.62c-.57,1.16-2.38,2.25-3.3,3.14a6.7,6.7,0,0,1-4.33,1.45,6,6,0,0,1-4.51-1.22,19.74,19.74,0,0,1-5-9.3c-.46-1.69.61-3.83,1.6-5.2s3-3.35,4.67-3.85c3.19-1,6,2.07,7.4,4.54.84,1.48,1.53,3.05.82,4.74a9.76,9.76,0,0,1-2.78,3.41,17.86,17.86,0,0,1-3.92,3.14,6.64,6.64,0,0,1-2.42,1,21.33,21.33,0,0,0-2.93.36,8.07,8.07,0,0,1-3.32.08,3.25,3.25,0,0,1-2.18-1.29,10.73,10.73,0,0,1-1.72-2.49c-.28-.57-.35-1.23-.59-1.82-.42-1-.38-1.06.48-1.95"/><path d="M551.63,378.87c.56-1.33,1.77-1.78,3-2.15a6.3,6.3,0,0,0,1.3-.46,1.86,1.86,0,0,1,1.93,0c1.67.77,2.69,2.7,3.57,4.18a6.09,6.09,0,0,1,.93,2c.13.67,0,1.36.14,2a4.59,4.59,0,0,1,.3,1.1c0,.43-.21.81-.21,1.26a2.49,2.49,0,0,1-.06,1.15A10.54,10.54,0,0,1,562,389a5,5,0,0,1-1.32,1.82,13.85,13.85,0,0,1-2,1.18,6,6,0,0,1-1,.3c-.42.11-.78.37-1.2.49a6.24,6.24,0,0,1-3.46-.47c-2.13-.66-3.78-2.67-5.18-4.33a11.5,11.5,0,0,1-2.32-4.46,26.24,26.24,0,0,1-.41-2.78,10.34,10.34,0,0,1-.2-2.6,8.6,8.6,0,0,1,.84-2.75,19.12,19.12,0,0,1,1.45-2.72,6.14,6.14,0,0,1,2.37-1.83,8.3,8.3,0,0,0,1.52-.53,5.73,5.73,0,0,1,1.45-.81,6.58,6.58,0,0,1,5.63.54,20.77,20.77,0,0,1,3.47,2.57c.65.66,1.25,1.36,1.89,2a6,6,0,0,1,1.39,2.58,4,4,0,0,1,.25,1.72,5.07,5.07,0,0,1-.17,1.66c-.69,1.47-2.12,2.13-3,3.38a5.66,5.66,0,0,1-.48.76c-.33.35-.72.65-1.07,1a10.71,10.71,0,0,1-1.79,1.5,6.9,6.9,0,0,1-2.47.93,3.64,3.64,0,0,1-2.87-.75,9.9,9.9,0,0,1-2.86-2.34,12.93,12.93,0,0,1-2.09-4.44,9.89,9.89,0,0,1-.38-5,10.94,10.94,0,0,1,.69-2.52,11.57,11.57,0,0,1,1.46-1.84c1.1-1.26,2.93-1.58,4.45-2,.29-.08,1-.41,1.3-.32s.49.48.65.65"/><path d="M534.77,386.37c.55-1.33,1.76-1.78,3-2.15a6.51,6.51,0,0,0,1.3-.46,1.86,1.86,0,0,1,1.93,0c1.66.77,2.68,2.7,3.57,4.18a6.3,6.3,0,0,1,.93,2c.13.67,0,1.36.14,2a4.59,4.59,0,0,1,.3,1.1c0,.43-.22.81-.21,1.26a2.37,2.37,0,0,1-.07,1.15,7.75,7.75,0,0,1-.57,1.11,4.88,4.88,0,0,1-1.32,1.82,13.25,13.25,0,0,1-2,1.18,6,6,0,0,1-1,.3c-.43.11-.78.37-1.2.49a6.23,6.23,0,0,1-3.46-.47c-2.13-.66-3.79-2.67-5.19-4.33a11.47,11.47,0,0,1-2.31-4.46c-.21-.93-.3-1.84-.42-2.78a9.89,9.89,0,0,1-.19-2.6,8.6,8.6,0,0,1,.84-2.75,17.29,17.29,0,0,1,1.45-2.72,6,6,0,0,1,2.37-1.83,8.57,8.57,0,0,0,1.52-.53,5.41,5.41,0,0,1,1.45-.81,6.58,6.58,0,0,1,5.63.54,20.77,20.77,0,0,1,3.47,2.57c.64.66,1.25,1.36,1.88,2a5.88,5.88,0,0,1,1.4,2.58,4.18,4.18,0,0,1,.24,1.72,5.36,5.36,0,0,1-.16,1.66c-.69,1.47-2.12,2.13-3,3.38a5.66,5.66,0,0,1-.48.76c-.33.35-.72.65-1.07,1a11.13,11.13,0,0,1-1.79,1.5,7,7,0,0,1-2.47.93,3.66,3.66,0,0,1-2.88-.75,9.86,9.86,0,0,1-2.85-2.34,13,13,0,0,1-2.1-4.44,10,10,0,0,1-.37-5,10.94,10.94,0,0,1,.69-2.52,11.57,11.57,0,0,1,1.46-1.84c1.1-1.26,2.92-1.58,4.45-2,.29-.08,1-.41,1.3-.32s.49.48.65.65"/><path class="cls-4" d="M376,467.79c-11.54-23.49-16.84-34-33.76-54.32-8.74-10.49-19.14-19.38-29.61-28.11-9.05-7.54-18.17-17.69-28.87-22.76-12.93-6.13-21.81-.37-32.05,6.89l-2.77,2c-.2.07-.4.13-.6.21s-.11.22-.17.33l-.13.1a15.37,15.37,0,0,0-4,4.2c-3.95,2.64-6.27,7.08-9.11,10.79a4.13,4.13,0,0,1-.17.45,21.12,21.12,0,0,1-3.17,4.8l-23.85,29.88c-5.7,7.14-11.82,14.37-16.33,22.18-7.92,13.76-19.21,25.09-30.6,36.55-.22.18-.46.35-.68.54-7.67,6.37-11,16-16.3,24.13-2.57,3.92-6.12,6.91-8.48,10.87-2.8,4.72-3.11,10.47-6.89,14.72-2.05,2.29-4.68,6.22-5.24,9.25-.78,4.13,2,8.83,5.36,3.82a16.07,16.07,0,0,1,2.67-3.72c3.08-2.56,7.94-.53,11.61-2.13a12.3,12.3,0,0,0,3.82-3.08c3.81-4,7.35-8.47,11.23-12.34,2.13-2.13,4.68-3,7-4.72,4.51-3.35,10.93-3.36,16.31-4.36a50.5,50.5,0,0,0,7.53-2,6.77,6.77,0,0,0,4.46-3.75,8.34,8.34,0,0,0,.72-6.51,31.69,31.69,0,0,1-1.44-5.32c-.45-3.16-1.06-6.38-1.3-9.58,10.85-7.59,21.88-14.67,33.17-21.46,4.1-2.8,8.16-5.63,12.12-8.58a162.17,162.17,0,0,0,25.46-24c4.56,10.63,9.08,21.29,14.11,31.67q11.07,22.85,23.33,45.07c7,12.72,13.32,27.29,24.61,36.8,10.77,9.08,24.29,14.22,37.13,14.1,8.13-.07,16.09-2.26,22.12-7.17,8.34-6.8,21.68-28.82,22.22-40.5C406.71,486.49,383.78,483.66,376,467.79Z"/><path class="cls-5" d="M440.87,423.68c1.68,0,3.33-.23,4.89.45,1.82.78,3.47,1.88,5.24,2.74a34.12,34.12,0,0,0,8.55,3,21,21,0,0,0,4.33.6,10.29,10.29,0,0,1,3.55.22c1.49.55.8,1.64,1.19,3a33.89,33.89,0,0,1,1.27,5.31c.15,1.37.2,2.66.46,4s.44,2.92.74,4.39.62,2.7,1,4.07c.48,1.75.48,3.32,1.22,5.05,1.27,2.95,1.78,6.13,2.95,9.15.48,1.25.91,2.37,1.49,3.58.47,1,1.84,2.56,1.53,3.67-.38,1.35-3,2.47-4,3.37-1.42,1.24-2.62,2.73-3.91,4.1-3,3.25-5.67,6.78-8.87,9.91-5.37,5.24-9.77,11.12-14.91,16.53-1.12,1.18-1.93,2.61-3,3.86-.59.71-1.36,1.25-1.94,2-.71.88-1.13,1.9-1.87,2.78-2.37,2.79-4.26,6-6.54,8.84a10.64,10.64,0,0,0-1,2.13c-.42.85-1,1.53-1.39,2.42-.64,1.66-1.46,3.16-2.12,4.82a22.87,22.87,0,0,1-11.21,11.65c-15.3,7.38-31.65,13.44-48.85,14.13a71.25,71.25,0,0,0,16.79-10.6c10.25-8.29,13.09-23.89,14.78-36.17a37.81,37.81,0,0,0,0-12.15c-.19-1-.61-1.83-.88-2.78a9.76,9.76,0,0,0-1.18-3.49,43.61,43.61,0,0,0-5.42-5.87c-1.47-1.43-2.61-3.12-4.07-4.54s-12.21-10.15-10.5-11.31l3.87-2a8.77,8.77,0,0,1,3.24-1c2.58-.22,7.89-2.6,9.29-4.35a23.84,23.84,0,0,1,3-3.33c1-.89,2-2,3-2.76s2.42-1.21,3.53-2,2.22-1.64,3.42-2.35a30.68,30.68,0,0,0,6.71-5.93c2.15-2.28,4.92-3.82,7.15-6,1.19-1.15,2.15-2.59,3.32-3.78a11.66,11.66,0,0,0,2.05-3c.83-1.56,2.29-2.49,3.38-3.88a36.66,36.66,0,0,1,2.44-3.28c1.34-1.38,2.91-2.43,4.33-3.72.65-.6,1.52-2.05,2.53-2"/><path class="cls-6" d="M345.7,310.31a5.85,5.85,0,0,1,1,.82,6,6,0,0,0,.89.78,3.52,3.52,0,0,1,.87,1.24,8.7,8.7,0,0,0,.73,1.16,23.65,23.65,0,0,1,2,2.36l-6.93-7.38a3.38,3.38,0,0,0,.46.37ZM340,304.78a.41.41,0,0,1,0,.09l0,0Zm.73.82a7,7,0,0,1,1.44,1.33c.16.23.32.47.47.71ZM347,328.48a6.53,6.53,0,0,1,1.17,1.49Zm1.79,2.18a2.11,2.11,0,0,1,.36.43Zm1.29,1.47c.07,0,.12,0,.12.08S350.2,332.2,350.12,332.13Zm-4.54-12.58a1.36,1.36,0,0,1,.17.17c.14.17.21.35.36.51a6.38,6.38,0,0,0,1.57,1.41c.36.18.29.54.54.89s.5.87.77,1.22c.53.71,1.05,1.07,1.57,1.79.26.35.57.51.74.94.05.14.48.8.43.87s.29.59.25.52Zm15.86-1.35-.26-.19a2,2,0,0,1,.92.69C362,318.52,361.61,318.32,361.44,318.2ZM526.79,434.69c5-8.92-6.69-24.44-13-32.86-3-4.08-6.74-8.07-11.91-10.22-5.79-2.41-12.64-2.21-19-1.35-10.41,1.41-20.52,4.41-31.05,4.88-5.11.22-10.55-.06-15.2,1.47-17.4-19.27-38.22-35.29-55-55.17-.39-.47-.79-.93-1.21-1.38,0-.05,0-.11,0-.16h0a15.43,15.43,0,0,1-1.13-1.46,6.55,6.55,0,0,1-.75-1.87c-.11-.69-.2-1.39-.29-2.08-.15-1.19-.31-2.34-.49-3.52a12.64,12.64,0,0,0-.22-1.52c-.12-.44-.38-.89-.47-1.34l-.38-.55c-.15-.51-.22-1-.4-1.54a7.34,7.34,0,0,0-.66-1.35c-.12-.17-.22-.35-.33-.53s-.24-.61-.43-.9a10.24,10.24,0,0,0-.73-1.12c-.3-.37-.73-.3-1.15-.36a1.44,1.44,0,0,1-1-.57c-.28-.37-.59-.71-.87-1.07s-.32-.47-.52-.69-.33-.41-.49-.6a12.27,12.27,0,0,1-.93-1.41c-.14-.24-.3-.47-.45-.71a5.79,5.79,0,0,1-.31-.67,2.21,2.21,0,0,0-.36-.54c-.16-.19-.27-.41-.43-.6a3.34,3.34,0,0,0-1.17-.91,1.75,1.75,0,0,0-.43-.17c-.21,0-.47,0-.69,0a8.22,8.22,0,0,1-1.4,0,6.39,6.39,0,0,1-1.22-.5l-1.1-.47a7.5,7.5,0,0,1-.74-.42,3.64,3.64,0,0,1-.6-.27c-.16-.13-.34-.22-.49-.35a1.4,1.4,0,0,0-.39-.31,8.26,8.26,0,0,0-1-.44c-.52-.14-.77.28-1,.66a1.58,1.58,0,0,0-.23.66,7.39,7.39,0,0,0-.19,1.16.38.38,0,0,0,.07.29c0,.05.12.08.16.15s0,.16,0,.24a.49.49,0,0,0,.1.22,7.74,7.74,0,0,0,1.16,1.33q.72.69,1.47,1.35l.11.08c-.24-.16-.48-.32-.71-.5a9.3,9.3,0,0,1-1.27-1.16,10.56,10.56,0,0,0-1.07-1.33,1.78,1.78,0,0,1-.26-.22c-.17-.18-.35-.36-.53-.52s-.28-.19-.41-.3a3,3,0,0,1-.36-.43,8.3,8.3,0,0,0-.77-.9,7.07,7.07,0,0,0-1.68-1.36c-.2-.09-.27-.24-.43-.37a5.27,5.27,0,0,0-.46-.31,1.71,1.71,0,0,1-.42-.28,5.12,5.12,0,0,1-.4-.52c-.24-.31-.56-.57-.79-.9s-.5-.63-.72-1a6.59,6.59,0,0,0-.7-.88c-.12-.13-.3-.16-.43-.26s-.22-.21-.34-.31c-.28-.24-.56-.43-.82-.69s-.63-.54-.94-.8c-.53-.43-1-.88-1.52-1.36a6,6,0,0,0-1.72-.83,2.46,2.46,0,0,0-2.09.22,2.55,2.55,0,0,0-1.21,1.43,1.31,1.31,0,0,0,0,.85,4.31,4.31,0,0,0-.26-.47,1.68,1.68,0,0,0-1-.74,1.89,1.89,0,0,0-.45-.17,6.4,6.4,0,0,1-.62-.2,2.91,2.91,0,0,0-.65-.09.9.9,0,0,0-.78.4,7.53,7.53,0,0,0-.77,1.16,2.19,2.19,0,0,0-.39,1.27,2.8,2.8,0,0,0,.76,1.36,14.1,14.1,0,0,0,1.21,1.47c.33.36.65.69,1,1.07a12.24,12.24,0,0,0,1.15,1.24c.45.42.69,1.07,1.11,1.54.22.25.46.46.68.69s.32.44.52.63a5.56,5.56,0,0,1,.91,1.47,4.84,4.84,0,0,0,.47.79,4.49,4.49,0,0,1,.4.57l-5-6.52a.69.69,0,0,0-.36-.39c-.1-.06-.12-.13-.21-.2a1.63,1.63,0,0,0-1-.22c-1,.06-1.32,1.08-1.49,1.87a2.46,2.46,0,0,0,.18,1.49c.21.51.29,1.06.5,1.57a3.65,3.65,0,0,0,.78,1.2,8.45,8.45,0,0,1,.93,1.21,20.63,20.63,0,0,0,2.09,2.2c.19.21.38.42.56.64a6.65,6.65,0,0,1,.36.56c.39.5.81.95,1.21,1.42a4.87,4.87,0,0,1,.57.8c.15.26.35.49.49.76s.32.54.49.81l-4-5c-.17-.07-.2-.42-.41-.36s-.22.11-.34.15-.26,0-.36.11a.74.74,0,0,0-.16.27c-.14.38-.4.69-.56,1.05a1.93,1.93,0,0,0-.13,1.11,3.05,3.05,0,0,0,.51,1.46c.15.24.2.49.34.73s.34.5.52.75.34.39.47.6a5,5,0,0,0,.39.62c.19.24.32.51.51.74a3.8,3.8,0,0,1,.47.59,6.16,6.16,0,0,0,.89,1.19c.28.3.45.71.73,1s.49.72.77,1,.62.8.94,1.19c.13.15.31.24.42.4s.22.41.37.6c.31.35.54.75.84,1.11s.67.5,1,.81a8.82,8.82,0,0,1,.87,1.05,8.62,8.62,0,0,0,.79.81c.16.19.26.41.42.61a9.69,9.69,0,0,1,.6.92c.22.37.47.71.72,1.07a3.11,3.11,0,0,0,1,.77,1.9,1.9,0,0,1,.45.53,6.26,6.26,0,0,0,.45.57,2.07,2.07,0,0,0,.28.38,2.9,2.9,0,0,1,.58.48c.17.23.26.6.48.78a11.66,11.66,0,0,0,1.47.88c.18.1.37.18.54.28a16.12,16.12,0,0,1,1.72,1.26,10.25,10.25,0,0,0,1.06.81c.35.18.66.27,1,.48.82.53,1.75.9,2.58,1.44.25.16.46.41.72.57s.79.34,1.16.6a20.85,20.85,0,0,0,2.24,1.19c.83.47,1.58,1,2.37,1.56l.08,0c.27.09.54.15.81.22q1.13,2.41,2.31,4.8c5.77,11.61,12.54,22.69,18.81,34,3.69,6.67,7.3,13.55,12.73,18.89,4.69,4.6,10.5,7.81,16.12,11.18a100.78,100.78,0,0,0,11.51,6.33,32.82,32.82,0,0,0,5.65,1.87,22,22,0,0,0,2.58.39c12.31,3,29.82,6,42.13,8.94"/><path class="cls-1" d="M483.24,469.68q-2.78-.49-5.54-1.1a27.78,27.78,0,0,1,1.37,2.66,2.88,2.88,0,0,1,.1,1.9,161.82,161.82,0,0,0,32.8,3.1,47.21,47.21,0,0,0,2.57-4.23A160.2,160.2,0,0,1,483.24,469.68Z"/><path class="cls-3" d="M364.84,317.55a3,3,0,0,0,1-.67c.18-.21.35-.44.52-.66a5.8,5.8,0,0,1,.47-.52c.26-.3.62-.42.55-.88"/><path class="cls-3" d="M364,316.19a5.06,5.06,0,0,1,.48-1.35l.18-.44c.08-.17.28-.34.32-.52"/><path class="cls-3" d="M342.07,301.9a14.88,14.88,0,0,1,1.38,1.07,2.37,2.37,0,0,1,.4.83A2.25,2.25,0,0,1,344,305a2.37,2.37,0,0,1-.42.89c-.57.51-1.37,0-1.93-.22a3.79,3.79,0,0,1-.89-.58c-.12-.09-.2-.22-.32-.31a3.37,3.37,0,0,1-.71-.7"/><path class="cls-3" d="M337.42,302.86c.29.13.77.54,1,.7a1.59,1.59,0,0,1,.62,1c.07.3.07.62.14.92,0,.07.07.13.09.21a1.92,1.92,0,0,1-.05.41,1.72,1.72,0,0,1-.49,1.07c-.2.21-.53.51-.87.44a5.58,5.58,0,0,1-.94-.41c-.23-.1-2-.81-1.73-1a3.57,3.57,0,0,0-.17-.71"/><path class="cls-3" d="M336.81,309.15c.21.13.62.59.81.74a4.21,4.21,0,0,1,.93,1.41,2.91,2.91,0,0,1,0,.59c0,.2-.16.27-.26.42a1.69,1.69,0,0,1-.3.36c-.1.1-.14.21-.27.28a1.68,1.68,0,0,1-.38.12,1,1,0,0,1-.77-.23,4.34,4.34,0,0,1-.7-.78c-.11-.13-.24-.24-.35-.37a4.3,4.3,0,0,1-.42-.66c.12,0,.13-.88.24-.81"/><path class="cls-3" d="M348.2,316.1a3.62,3.62,0,0,1-.53.88,2,2,0,0,1-.87.75"/><path class="cls-3" d="M347.4,314.65a3.74,3.74,0,0,0-.52.28,2.63,2.63,0,0,0-.83.66,2.46,2.46,0,0,0-.47.74,2.5,2.5,0,0,0-.16.41.94.94,0,0,1-.07.37"/><path class="cls-3" d="M345.22,322.61c-.16.18-.31.37-.48.55a.51.51,0,0,1,.25-.25"/><path class="cls-3" d="M346.12,323.09c-.33.35-.65.73-1,1.05a1.33,1.33,0,0,1-.48.33"/><path class="cls-3" d="M345.49,329.08a6.65,6.65,0,0,1-.51,1.2c-.08.14-.27.34-.22.51"/><path class="cls-3" d="M352.63,312.05a18.54,18.54,0,0,1-1.13,1.51c-.55.66-.12.08-.16.15"/><path class="cls-3" d="M353.74,312.37a4.94,4.94,0,0,1-2.17,2.89c-.21.12-.26.41-.43.58"/><path class="cls-3" d="M339.89,319c.07.13.75.88.8,1a1.52,1.52,0,0,1,.1.6,5.09,5.09,0,0,1-.43,1.3c-.14.33-.28.68-.67.73a1.17,1.17,0,0,1-1-.46c-.27-.31-.51-.6-.76-.92s-.65-.8-.61-1"/><path class="cls-3" d="M361.69,312.88c1.05.64-.33,1.15-.85,1.16-1.17,0-3.61.12-3.71-1.6"/><path class="cls-1" d="M524.2,420A261.63,261.63,0,0,0,507,394.26c1.54,3.3,2.8,6.83,4.45,9.85,3.24,5.91,7.09,12,9.29,18.61,1.55,2.7,3,5.51,4.37,8.29.58,1.2,1.13,2.43,1.65,3.68a53.2,53.2,0,0,0,1.16-7.61Q526.19,423.51,524.2,420Z"/><path d="M699.81,333c3.6,3.38,6.85,7.09,10.18,10.72l.3-2.36c-2.2,1.19-4.33,2.47-6.51,3.68-2,1.13-4.09,2.17-6.1,3.3a1.5,1.5,0,0,0,1.51,2.59c2-1.13,4.08-2.17,6.1-3.3,2.18-1.21,4.32-2.49,6.51-3.67a1.52,1.52,0,0,0,.31-2.36c-3.33-3.64-6.58-7.35-10.17-10.72-1.41-1.33-3.54.79-2.13,2.12Z"/><path d="M603.29,329.94c-3.6,3.38-6.85,7.09-10.18,10.73a1.51,1.51,0,0,0,.31,2.35c2.19,1.18,4.33,2.46,6.51,3.68,2,1.12,4.08,2.16,6.1,3.3a1.5,1.5,0,0,0,1.51-2.59c-2-1.14-4.08-2.18-6.1-3.3-2.17-1.22-4.31-2.5-6.51-3.68l.31,2.36c3.32-3.64,6.57-7.35,10.17-10.73,1.41-1.32-.72-3.44-2.12-2.12Z"/><path d="M709.47,340.4c-2.61-.19-5.19-.56-7.79-.78s-5.5-.2-8.25-.2c-3.86,0-7.71.05-11.56.05H598a1.5,1.5,0,0,0,0,3h82.55c3.63,0,7.26,0,10.89,0,3,0,6.07-.09,9.08.11s6,.64,9,.86c1.92.15,1.91-2.85,0-3Z"/><text class="cls-7" transform="translate(542.32 205.54)"><tspan class="cls-8">H</tspan><tspan x="16.25" y="0">ead must s</tspan><tspan class="cls-8" x="142.16" y="0">t</tspan><tspan class="cls-9" x="151.96" y="0">a</tspan><tspan x="165.35" y="0">y</tspan><tspan x="2.21" y="33.91">a </tspan><tspan class="cls-10" x="21.52" y="33.91">s</tspan><tspan x="34.07" y="33.91">a</tspan><tspan class="cls-11" x="48.23" y="33.91">f</tspan><tspan x="56.3" y="33.91">e dis</tspan><tspan class="cls-8" x="110.33" y="33.91">t</tspan><tspan x="120.13" y="33.91">ance </tspan><tspan x="2.6" y="67.83">f</tspan><tspan class="cls-12" x="11.28" y="67.83">r</tspan><tspan x="21.4" y="67.83">om the boa</tspan><tspan class="cls-13" x="151.4" y="67.83">r</tspan><tspan x="161.36" y="67.83">d</tspan></text><path d="M97.35,227.85a68.34,68.34,0,0,0,2.26,33.88,81.51,81.51,0,0,0,15.44,27A88.38,88.38,0,0,0,127,300.4c1.49,1.2,3.62-.91,2.12-2.12-15.47-12.49-27.31-30.61-29.53-50.65a65,65,0,0,1,.69-19c.35-1.89-2.54-2.69-2.89-.8Z"/><path d="M122.78,285.81c1.69,4.63,2.92,9.41,4.25,14.16l1.45-1.9c-2.49.06-5,.24-7.47.34-2.31.1-4.62.1-6.94.2-1.92.09-1.93,3.09,0,3,2.32-.1,4.63-.1,6.94-.2,2.49-.1,5-.28,7.47-.34a1.52,1.52,0,0,0,1.44-1.9c-1.33-4.75-2.56-9.52-4.24-14.16a1.55,1.55,0,0,0-1.85-1.05,1.52,1.52,0,0,0-1,1.85Z"/><text class="cls-7" transform="translate(70.61 165.83)">It must be bo<tspan class="cls-14" x="150.8" y="0">l</tspan><tspan x="158.22" y="0">d, high </tspan><tspan x="0" y="33.91">and confident</tspan></text><path d="M97.35,227.85a68.34,68.34,0,0,0,2.26,33.88,81.51,81.51,0,0,0,15.44,27A88.38,88.38,0,0,0,127,300.4c1.49,1.2,3.62-.91,2.12-2.12-15.47-12.49-27.31-30.61-29.53-50.65a65,65,0,0,1,.69-19c.35-1.89-2.54-2.69-2.89-.8Z"/><path d="M122.78,285.81c1.69,4.63,2.92,9.41,4.25,14.16l1.45-1.9c-2.49.06-5,.24-7.47.34-2.31.1-4.62.1-6.94.2-1.92.09-1.93,3.09,0,3,2.32-.1,4.63-.1,6.94-.2,2.49-.1,5-.28,7.47-.34a1.52,1.52,0,0,0,1.44-1.9c-1.33-4.75-2.56-9.52-4.24-14.16a1.55,1.55,0,0,0-1.85-1.05,1.52,1.52,0,0,0-1,1.85Z"/><path class="cls-15" d="M95.79,61.4A36.74,36.74,0,0,1,104.16,38a34.44,34.44,0,1,0,.11,46.9A36.78,36.78,0,0,1,95.79,61.4ZM87.2,75.66H70.92L71,73.39l4.46-.58c.58,0,.81-.23.81-1,.08-10.05,0-19.6,0-19.6l-5.62,1.08c-.19-.31-1.12-2.46-.46-2.73l10.35-4,1,1s-.12,20.87,0,24.37c0,.77.19,1,.73,1l5.08.54Z"/><circle cx="130" cy="61.53" r="34.44"/><text class="cls-16" transform="translate(118.45 75.26)">2</text><text class="cls-17" transform="translate(177.42 73.13)"><tspan class="cls-18">N</tspan><tspan class="cls-19" x="20.46" y="0">e</tspan><tspan x="36.84" y="0">xt is </tspan><tspan class="cls-18" x="102.6" y="0">t</tspan><tspan x="114.51" y="0">a</tspan><tspan class="cls-20" x="131.73" y="0">k</tspan><tspan class="cls-21" x="147.45" y="0">e-off</tspan></text></svg>