<svg id="Layer_1" data-name="Layer 1" xmlns="http://www.w3.org/2000/svg" viewBox="0 0 780 1051.14"><defs><style>.cls-1{fill:#fff171;stroke-width:0.3px;}.cls-1,.cls-2,.cls-3,.cls-4,.cls-5,.cls-6{stroke:#fff;stroke-miterlimit:10;}.cls-2,.cls-3,.cls-6{fill:#d4a47c;}.cls-2{stroke-width:0.3px;}.cls-3{stroke-width:0.27px;}.cls-4{fill:#c6946f;stroke-width:0.27px;}.cls-5{fill:#005058;stroke-width:0.5px;}.cls-6{stroke-width:0.32px;}.cls-7,.cls-8{fill:#fff;}.cls-7{opacity:0.7;}.cls-8{font-size:38.5px;font-family:ABCSerifBold, ABCSerif;}</style></defs><path class="cls-1" d="M442.77,429.82a104.54,104.54,0,0,1-3.54-10.14,95.69,95.69,0,0,1,.18,24.56c-1.11,9.89-3.41,19.85-7.6,28.27a39.1,39.1,0,0,1-3.5,5.81,30.85,30.85,0,0,1-2.09,2.55c-1.15,1.24-.67,3.13-1.15,4.85-.6,2.17,2,3.11,2.63,1a14.46,14.46,0,0,0,.43-3.28c5.41-5.89,8.86-14.51,11.13-23.12a111.34,111.34,0,0,0,3.52-30.07C442.78,430.08,442.77,430,442.77,429.82Z"/><path class="cls-2" d="M524.91,372.67c-1,1.14-2.61,1-3.9,1.61s-1.84,1.57-2.9,2.62c-2.33,2.32-4.7,4.91-7.2,7-2.68,2.26-6.3,5.5-6.74,9.25a59.39,59.39,0,0,0,.06,6.67c-2.28.73-4.86,1.17-6.59,1.75-2.78.92-5.56,2.39-8.4,3.07-1.77.43-3.44-.12-5.14.15s-2.69,1.11-4.15,1.74c-2.21,1-4.53,1.25-6.56,2.61a45.12,45.12,0,0,0-5,4.43c-5.4,4.94-7.92,11.75-11.07,18.08-3.27,6.58-7.18,12.74-10.59,19.25-6.06,11.58-11.15,23.83-16.81,35.73-2.15,4.52-4.7,9.6-4.9,14.64-.1,2.73.12,5.53.09,8.27,0,4.82,1.4,9.78,2.67,14.44.64,2.33-21.77,20.68-20.18,22.46,2,2.28,28.17-12.61,30.81-13.71,27.23-11.4,57-34,74.07-58.09,13.49-19,16.82-40.79,16.82-63.54V400c0-1.47-.3-3.19.11-4.6.54-1.87,3.65-6.06,5.79-5.74Z"/><path class="cls-3" d="M528.08,376.71c.91-.81,2.66,9.1,4,9.37s1,2,1,3.09c.07.91.55,1.67.68,2.57a8.16,8.16,0,0,0,.26,1.95,6.23,6.23,0,0,0,3.15,3.26c1.67.57,3.38-.43,5-.1a5.71,5.71,0,0,1,1.92,1,2.65,2.65,0,0,1,.7-1.5c2.64-2.88,6.53-3.51,9.84-5.31a20,20,0,0,0-1.51-3.08,28.51,28.51,0,0,1-2.24-4.9c-.56-1.53-1.46-2.7-1-4.25.32-1.2,1.3-2.07,1.62-3.26a20.36,20.36,0,0,1,.47-2.45,30,30,0,0,1,1.84-3.51c1.36-2.58,2.52-5.35,3.78-8a24.47,24.47,0,0,0,2.48-9.06,19.52,19.52,0,0,0-2-9.32,43.38,43.38,0,0,0-3.59-6.5,74.37,74.37,0,0,0-7-8.26c-2.85-2.9-7.08-5.13-10.81-6.61-2.77-1.09-5.26-2.56-8.19-3.36a25,25,0,0,0-9.05-.4c-2.6.25-4.91-.34-7.4-.75-1.25-.2-2.52.15-3.83,0a29.54,29.54,0,0,0-4.68-.38c-3,.13-4.87,2-7,3.86-1.4,1.27-2.26,2.89-3.69,4.14a14.27,14.27,0,0,0-1.82,2.06c-.62.81-1.42,1.38-2,2.2-.3.4-.39.84-.69,1.27s-.74.47-1,1a19.44,19.44,0,0,0-.59,3.11,25,25,0,0,1-1,3.57c-.07.18-.11.3-.13.37s-.21,0-.5.2a11.67,11.67,0,0,1-2.62,1.05c-2.28.82-2.6.48-5.1,1.67a28.47,28.47,0,0,0-4.47,2.61,3.41,3.41,0,0,0-.34,5.28,1.84,1.84,0,0,1,.59,1.12,4.75,4.75,0,0,1-.29,3.46,17.78,17.78,0,0,0-1.8,2.43,18.39,18.39,0,0,0-1.53,5.35c-.17,1.51.29,2.36-.79,3.43-.77.76-1.6,1.5-2.41,2.22-1.52,1.38-2.52,3.09-1.58,5.11a15.08,15.08,0,0,0,7.56,6.75c26.7,8.71,14.11,13.52,22.05,19.37,5.43,4,14.45,9.61,16.12,16.2"/><path d="M497.73,336.3c.2.3.38.61.55.92s.31.57.23.79,0,.1-.12.06-.16-.17-.22-.22l-.26-.2c-.37-.24-.76-.43-1.13-.67a7.06,7.06,0,0,1-.65-.4c-1.26-.95-2.25-2.35-3.6-3.14a7.15,7.15,0,0,0-4.38-.59c.08-.51.29-2.17.85-2.29.79-.18,2.62.94,3.44,1.09A6.46,6.46,0,0,1,496.3,334C496.85,334.72,497.22,335.56,497.73,336.3Z"/><path d="M557.73,386.29c-.85-2.35-2.19-4.72-2.75-7.13-1.78-7.69,4.46-14.79,6.14-22.5,1.38-6.35-.45-13.09-3.85-18.62S549,328,543.93,324c-4.7-3.76-9.73-7.27-15.44-9.17-3.85-1.28-15.58-3.29-18,1.53s3.65,12.66,1.86,18.28c-.91,2.84-3.13,5.24-3.52,8.2a25.15,25.15,0,0,0,.18,4.5c.14,2.72-.42,5.45-.09,8.15s1.89,5.57,4.54,6.15a11.2,11.2,0,0,1,4-4.21c1.73-.91,2.23.25,3.45,1.77,1.68,2.09,2.11,4.19.16,6s-4.45,3.36-5.29,5.91c-.9,2.74.48,5.67,1.83,8.23,2.31,4.4,9.1,10.18,11.41,14.58,2.93-.53,2.14.12,5.1-.23,2.24-.26,1.33-4.47,2.85-2.81a18.43,18.43,0,0,0,11,5.8c4,.54,8.73-.8,10.09-4.55A8.32,8.32,0,0,0,557.73,386.29Z"/><path d="M509.71,316.67l.92.12c0-.07,0-.14,0-.21A3.07,3.07,0,0,0,509.71,316.67Z"/><path class="cls-3" d="M510.52,360.73c-.34-5.26,8.06-6.05,10.85-3.2a6.55,6.55,0,0,1,0,8.85c-2.39,2.41-6.33,2.59-8.86,4.83-1.34,1.19-2.3,3-4,3.47s-3.81-1.91-2.31-2.89"/><path d="M546.72,379.87a7.21,7.21,0,0,0,3.31-.71,11.72,11.72,0,0,1,3.94-.57,6.11,6.11,0,0,1,4.27,1.38,6.72,6.72,0,0,1,2,3.49,6.37,6.37,0,0,1,0,3.62c-.57,1.16-2.38,2.25-3.3,3.14a6.7,6.7,0,0,1-4.33,1.45,6,6,0,0,1-4.51-1.22,19.74,19.74,0,0,1-5-9.3c-.46-1.69.61-3.83,1.6-5.2s3-3.35,4.67-3.85c3.19-1,6,2.07,7.4,4.54.84,1.48,1.53,3.05.82,4.74a9.76,9.76,0,0,1-2.78,3.41,17.86,17.86,0,0,1-3.92,3.14,6.64,6.64,0,0,1-2.42,1,21.33,21.33,0,0,0-2.93.36,8.07,8.07,0,0,1-3.32.08,3.25,3.25,0,0,1-2.18-1.29,10.73,10.73,0,0,1-1.72-2.49c-.28-.57-.35-1.23-.59-1.82-.42-1-.38-1.06.48-1.95"/><path d="M551.63,378.87c.56-1.33,1.77-1.78,3-2.15a6.3,6.3,0,0,0,1.3-.46,1.86,1.86,0,0,1,1.93,0c1.67.77,2.69,2.7,3.57,4.18a6.09,6.09,0,0,1,.93,2c.13.67,0,1.36.14,2a4.59,4.59,0,0,1,.3,1.1c0,.43-.21.81-.21,1.26a2.49,2.49,0,0,1-.06,1.15A10.54,10.54,0,0,1,562,389a5,5,0,0,1-1.32,1.82,13.85,13.85,0,0,1-2,1.18,6,6,0,0,1-1,.3c-.42.11-.78.37-1.2.49a6.24,6.24,0,0,1-3.46-.47c-2.13-.66-3.78-2.67-5.18-4.33a11.5,11.5,0,0,1-2.32-4.46,26.24,26.24,0,0,1-.41-2.78,10.34,10.34,0,0,1-.2-2.6,8.6,8.6,0,0,1,.84-2.75,19.12,19.12,0,0,1,1.45-2.72,6.14,6.14,0,0,1,2.37-1.83,8.3,8.3,0,0,0,1.52-.53,5.73,5.73,0,0,1,1.45-.81,6.58,6.58,0,0,1,5.63.54,20.77,20.77,0,0,1,3.47,2.57c.65.66,1.25,1.36,1.89,2a6,6,0,0,1,1.39,2.58,4,4,0,0,1,.25,1.72,5.07,5.07,0,0,1-.17,1.66c-.69,1.47-2.12,2.13-3,3.38a5.66,5.66,0,0,1-.48.76c-.33.35-.72.65-1.07,1a10.71,10.71,0,0,1-1.79,1.5,6.9,6.9,0,0,1-2.47.93,3.64,3.64,0,0,1-2.87-.75,9.9,9.9,0,0,1-2.86-2.34,12.93,12.93,0,0,1-2.09-4.44,9.89,9.89,0,0,1-.38-5,10.94,10.94,0,0,1,.69-2.52,11.57,11.57,0,0,1,1.46-1.84c1.1-1.26,2.93-1.58,4.45-2,.29-.08,1-.41,1.3-.32s.49.48.65.65"/><path d="M534.77,386.37c.55-1.33,1.76-1.78,3-2.15a6.51,6.51,0,0,0,1.3-.46,1.86,1.86,0,0,1,1.93,0c1.66.77,2.68,2.7,3.57,4.18a6.3,6.3,0,0,1,.93,2c.13.67,0,1.36.14,2a4.59,4.59,0,0,1,.3,1.1c0,.43-.22.81-.21,1.26a2.37,2.37,0,0,1-.07,1.15,7.75,7.75,0,0,1-.57,1.11,4.88,4.88,0,0,1-1.32,1.82,13.25,13.25,0,0,1-2,1.18,6,6,0,0,1-1,.3c-.43.11-.78.37-1.2.49a6.23,6.23,0,0,1-3.46-.47c-2.13-.66-3.79-2.67-5.19-4.33a11.47,11.47,0,0,1-2.31-4.46c-.21-.93-.3-1.84-.42-2.78a9.89,9.89,0,0,1-.19-2.6,8.6,8.6,0,0,1,.84-2.75,17.29,17.29,0,0,1,1.45-2.72,6,6,0,0,1,2.37-1.83,8.57,8.57,0,0,0,1.52-.53,5.41,5.41,0,0,1,1.45-.81,6.58,6.58,0,0,1,5.63.54,20.77,20.77,0,0,1,3.47,2.57c.64.66,1.25,1.36,1.88,2a5.88,5.88,0,0,1,1.4,2.58,4.18,4.18,0,0,1,.24,1.72,5.36,5.36,0,0,1-.16,1.66c-.69,1.47-2.12,2.13-3,3.38a5.66,5.66,0,0,1-.48.76c-.33.35-.72.65-1.07,1a11.13,11.13,0,0,1-1.79,1.5,7,7,0,0,1-2.47.93,3.66,3.66,0,0,1-2.88-.75,9.86,9.86,0,0,1-2.85-2.34,13,13,0,0,1-2.1-4.44,10,10,0,0,1-.37-5,10.94,10.94,0,0,1,.69-2.52,11.57,11.57,0,0,1,1.46-1.84c1.1-1.26,2.92-1.58,4.45-2,.29-.08,1-.41,1.3-.32s.49.48.65.65"/><path class="cls-4" d="M376,467.79c-11.54-23.49-16.84-34-33.76-54.32-8.74-10.49-19.14-19.38-29.61-28.11-9.05-7.54-18.17-17.69-28.87-22.76-12.93-6.13-21.81-.37-32.05,6.89l-2.77,2c-.2.07-.4.13-.6.21s-.11.22-.17.33l-.13.1a15.37,15.37,0,0,0-4,4.2c-3.95,2.64-6.27,7.08-9.11,10.79a4.13,4.13,0,0,1-.17.45,21.12,21.12,0,0,1-3.17,4.8l-23.85,29.88c-5.7,7.14-11.82,14.37-16.33,22.18-7.92,13.76-19.21,25.09-30.6,36.55-.22.18-.46.35-.68.54-7.67,6.37-11,16-16.3,24.13-2.57,3.92-6.12,6.91-8.48,10.87-2.8,4.72-3.11,10.47-6.89,14.72-2.05,2.29-4.68,6.22-5.24,9.25-.78,4.13,2,8.83,5.36,3.82a16.07,16.07,0,0,1,2.67-3.72c3.08-2.56,7.94-.53,11.61-2.13a12.3,12.3,0,0,0,3.82-3.08c3.81-4,7.35-8.47,11.23-12.34,2.13-2.13,4.68-3,7-4.72,4.51-3.35,10.93-3.36,16.31-4.36a50.5,50.5,0,0,0,7.53-2,6.77,6.77,0,0,0,4.46-3.75,8.34,8.34,0,0,0,.72-6.51,31.69,31.69,0,0,1-1.44-5.32c-.45-3.16-1.06-6.38-1.3-9.58,10.85-7.59,21.88-14.67,33.17-21.46,4.1-2.8,8.16-5.63,12.12-8.58a162.17,162.17,0,0,0,25.46-24c4.56,10.63,9.08,21.29,14.11,31.67q11.07,22.85,23.33,45.07c7,12.72,13.32,27.29,24.61,36.8,10.77,9.08,24.29,14.22,37.13,14.1,8.13-.07,16.09-2.26,22.12-7.17,8.34-6.8,21.68-28.82,22.22-40.5C406.71,486.49,383.78,483.66,376,467.79Z"/><path class="cls-5" d="M440.87,423.68c1.68,0,3.33-.23,4.89.45,1.82.78,3.47,1.88,5.24,2.74a34.12,34.12,0,0,0,8.55,3,21,21,0,0,0,4.33.6,10.29,10.29,0,0,1,3.55.22c1.49.55.8,1.64,1.19,3a33.89,33.89,0,0,1,1.27,5.31c.15,1.37.2,2.66.46,4s.44,2.92.74,4.39.62,2.7,1,4.07c.48,1.75.48,3.32,1.22,5.05,1.27,2.95,1.78,6.13,2.95,9.15.48,1.25.91,2.37,1.49,3.58.47,1,1.84,2.56,1.53,3.67-.38,1.35-3,2.47-4,3.37-1.42,1.24-2.62,2.73-3.91,4.1-3,3.25-5.67,6.78-8.87,9.91-5.37,5.24-9.77,11.12-14.91,16.53-1.12,1.18-1.93,2.61-3,3.86-.59.71-1.36,1.25-1.94,2-.71.88-1.13,1.9-1.87,2.78-2.37,2.79-4.26,6-6.54,8.84a10.64,10.64,0,0,0-1,2.13c-.42.85-1,1.53-1.39,2.42-.64,1.66-1.46,3.16-2.12,4.82a22.87,22.87,0,0,1-11.21,11.65c-15.3,7.38-31.65,13.44-48.85,14.13a71.25,71.25,0,0,0,16.79-10.6c10.25-8.29,13.09-23.89,14.78-36.17a37.81,37.81,0,0,0,0-12.15c-.19-1-.61-1.83-.88-2.78a9.76,9.76,0,0,0-1.18-3.49,43.61,43.61,0,0,0-5.42-5.87c-1.47-1.43-2.61-3.12-4.07-4.54s-12.21-10.15-10.5-11.31l3.87-2a8.77,8.77,0,0,1,3.24-1c2.58-.22,7.89-2.6,9.29-4.35a23.84,23.84,0,0,1,3-3.33c1-.89,2-2,3-2.76s2.42-1.21,3.53-2,2.22-1.64,3.42-2.35a30.68,30.68,0,0,0,6.71-5.93c2.15-2.28,4.92-3.82,7.15-6,1.19-1.15,2.15-2.59,3.32-3.78a11.66,11.66,0,0,0,2.05-3c.83-1.56,2.29-2.49,3.38-3.88a36.66,36.66,0,0,1,2.44-3.28c1.34-1.38,2.91-2.43,4.33-3.72.65-.6,1.52-2.05,2.53-2"/><path class="cls-6" d="M345.7,310.31a5.85,5.85,0,0,1,1,.82,6,6,0,0,0,.89.78,3.52,3.52,0,0,1,.87,1.24,8.7,8.7,0,0,0,.73,1.16,23.65,23.65,0,0,1,2,2.36l-6.93-7.38a3.38,3.38,0,0,0,.46.37ZM340,304.78a.41.41,0,0,1,0,.09l0,0Zm.73.82a7,7,0,0,1,1.44,1.33c.16.23.32.47.47.71ZM347,328.48a6.53,6.53,0,0,1,1.17,1.49Zm1.79,2.18a2.11,2.11,0,0,1,.36.43Zm1.29,1.47c.07,0,.12,0,.12.08S350.2,332.2,350.12,332.13Zm-4.54-12.58a1.36,1.36,0,0,1,.17.17c.14.17.21.35.36.51a6.38,6.38,0,0,0,1.57,1.41c.36.18.29.54.54.89s.5.87.77,1.22c.53.71,1.05,1.07,1.57,1.79.26.35.57.51.74.94.05.14.48.8.43.87s.29.59.25.52Zm15.86-1.35-.26-.19a2,2,0,0,1,.92.69C362,318.52,361.61,318.32,361.44,318.2ZM526.79,434.69c5-8.92-6.69-24.44-13-32.86-3-4.08-6.74-8.07-11.91-10.22-5.79-2.41-12.64-2.21-19-1.35-10.41,1.41-20.52,4.41-31.05,4.88-5.11.22-10.55-.06-15.2,1.47-17.4-19.27-38.22-35.29-55-55.17-.39-.47-.79-.93-1.21-1.38,0-.05,0-.11,0-.16h0a15.43,15.43,0,0,1-1.13-1.46,6.55,6.55,0,0,1-.75-1.87c-.11-.69-.2-1.39-.29-2.08-.15-1.19-.31-2.34-.49-3.52a12.64,12.64,0,0,0-.22-1.52c-.12-.44-.38-.89-.47-1.34l-.38-.55c-.15-.51-.22-1-.4-1.54a7.34,7.34,0,0,0-.66-1.35c-.12-.17-.22-.35-.33-.53s-.24-.61-.43-.9a10.24,10.24,0,0,0-.73-1.12c-.3-.37-.73-.3-1.15-.36a1.44,1.44,0,0,1-1-.57c-.28-.37-.59-.71-.87-1.07s-.32-.47-.52-.69-.33-.41-.49-.6a12.27,12.27,0,0,1-.93-1.41c-.14-.24-.3-.47-.45-.71a5.79,5.79,0,0,1-.31-.67,2.21,2.21,0,0,0-.36-.54c-.16-.19-.27-.41-.43-.6a3.34,3.34,0,0,0-1.17-.91,1.75,1.75,0,0,0-.43-.17c-.21,0-.47,0-.69,0a8.22,8.22,0,0,1-1.4,0,6.39,6.39,0,0,1-1.22-.5l-1.1-.47a7.5,7.5,0,0,1-.74-.42,3.64,3.64,0,0,1-.6-.27c-.16-.13-.34-.22-.49-.35a1.4,1.4,0,0,0-.39-.31,8.26,8.26,0,0,0-1-.44c-.52-.14-.77.28-1,.66a1.58,1.58,0,0,0-.23.66,7.39,7.39,0,0,0-.19,1.16.38.38,0,0,0,.07.29c0,.05.12.08.16.15s0,.16,0,.24a.49.49,0,0,0,.1.22,7.74,7.74,0,0,0,1.16,1.33q.72.69,1.47,1.35l.11.08c-.24-.16-.48-.32-.71-.5a9.3,9.3,0,0,1-1.27-1.16,10.56,10.56,0,0,0-1.07-1.33,1.78,1.78,0,0,1-.26-.22c-.17-.18-.35-.36-.53-.52s-.28-.19-.41-.3a3,3,0,0,1-.36-.43,8.3,8.3,0,0,0-.77-.9,7.07,7.07,0,0,0-1.68-1.36c-.2-.09-.27-.24-.43-.37a5.27,5.27,0,0,0-.46-.31,1.71,1.71,0,0,1-.42-.28,5.12,5.12,0,0,1-.4-.52c-.24-.31-.56-.57-.79-.9s-.5-.63-.72-1a6.59,6.59,0,0,0-.7-.88c-.12-.13-.3-.16-.43-.26s-.22-.21-.34-.31c-.28-.24-.56-.43-.82-.69s-.63-.54-.94-.8c-.53-.43-1-.88-1.52-1.36a6,6,0,0,0-1.72-.83,2.46,2.46,0,0,0-2.09.22,2.55,2.55,0,0,0-1.21,1.43,1.31,1.31,0,0,0,0,.85,4.31,4.31,0,0,0-.26-.47,1.68,1.68,0,0,0-1-.74,1.89,1.89,0,0,0-.45-.17,6.4,6.4,0,0,1-.62-.2,2.91,2.91,0,0,0-.65-.09.9.9,0,0,0-.78.4,7.53,7.53,0,0,0-.77,1.16,2.19,2.19,0,0,0-.39,1.27,2.8,2.8,0,0,0,.76,1.36,14.1,14.1,0,0,0,1.21,1.47c.33.36.65.69,1,1.07a12.24,12.24,0,0,0,1.15,1.24c.45.42.69,1.07,1.11,1.54.22.25.46.46.68.69s.32.44.52.63a5.56,5.56,0,0,1,.91,1.47,4.84,4.84,0,0,0,.47.79,4.49,4.49,0,0,1,.4.57l-5-6.52a.69.69,0,0,0-.36-.39c-.1-.06-.12-.13-.21-.2a1.63,1.63,0,0,0-1-.22c-1,.06-1.32,1.08-1.49,1.87a2.46,2.46,0,0,0,.18,1.49c.21.51.29,1.06.5,1.57a3.65,3.65,0,0,0,.78,1.2,8.45,8.45,0,0,1,.93,1.21,20.63,20.63,0,0,0,2.09,2.2c.19.21.38.42.56.64a6.65,6.65,0,0,1,.36.56c.39.5.81.95,1.21,1.42a4.87,4.87,0,0,1,.57.8c.15.26.35.49.49.76s.32.54.49.81l-4-5c-.17-.07-.2-.42-.41-.36s-.22.11-.34.15-.26,0-.36.11a.74.74,0,0,0-.16.27c-.14.38-.4.69-.56,1.05a1.93,1.93,0,0,0-.13,1.11,3.05,3.05,0,0,0,.51,1.46c.15.24.2.49.34.73s.34.5.52.75.34.39.47.6a5,5,0,0,0,.39.62c.19.24.32.51.51.74a3.8,3.8,0,0,1,.47.59,6.16,6.16,0,0,0,.89,1.19c.28.3.45.71.73,1s.49.72.77,1,.62.8.94,1.19c.13.15.31.24.42.4s.22.41.37.6c.31.35.54.75.84,1.11s.67.5,1,.81a8.82,8.82,0,0,1,.87,1.05,8.62,8.62,0,0,0,.79.81c.16.19.26.41.42.61a9.69,9.69,0,0,1,.6.92c.22.37.47.71.72,1.07a3.11,3.11,0,0,0,1,.77,1.9,1.9,0,0,1,.45.53,6.26,6.26,0,0,0,.45.57,2.07,2.07,0,0,0,.28.38,2.9,2.9,0,0,1,.58.48c.17.23.26.6.48.78a11.66,11.66,0,0,0,1.47.88c.18.1.37.18.54.28a16.12,16.12,0,0,1,1.72,1.26,10.25,10.25,0,0,0,1.06.81c.35.18.66.27,1,.48.82.53,1.75.9,2.58,1.44.25.16.46.41.72.57s.79.34,1.16.6a20.85,20.85,0,0,0,2.24,1.19c.83.47,1.58,1,2.37,1.56l.08,0c.27.09.54.15.81.22q1.13,2.41,2.31,4.8c5.77,11.61,12.54,22.69,18.81,34,3.69,6.67,7.3,13.55,12.73,18.89,4.69,4.6,10.5,7.81,16.12,11.18a100.78,100.78,0,0,0,11.51,6.33,32.82,32.82,0,0,0,5.65,1.87,22,22,0,0,0,2.58.39c12.31,3,29.82,6,42.13,8.94"/><path class="cls-1" d="M483.24,469.68q-2.78-.49-5.54-1.1a27.78,27.78,0,0,1,1.37,2.66,2.88,2.88,0,0,1,.1,1.9,161.82,161.82,0,0,0,32.8,3.1,47.21,47.21,0,0,0,2.57-4.23A160.2,160.2,0,0,1,483.24,469.68Z"/><path class="cls-3" d="M364.84,317.55a3,3,0,0,0,1-.67c.18-.21.35-.44.52-.66a5.8,5.8,0,0,1,.47-.52c.26-.3.62-.42.55-.88"/><path class="cls-3" d="M364,316.19a5.06,5.06,0,0,1,.48-1.35l.18-.44c.08-.17.28-.34.32-.52"/><path class="cls-3" d="M342.07,301.9a14.88,14.88,0,0,1,1.38,1.07,2.37,2.37,0,0,1,.4.83A2.25,2.25,0,0,1,344,305a2.37,2.37,0,0,1-.42.89c-.57.51-1.37,0-1.93-.22a3.79,3.79,0,0,1-.89-.58c-.12-.09-.2-.22-.32-.31a3.37,3.37,0,0,1-.71-.7"/><path class="cls-3" d="M337.42,302.86c.29.13.77.54,1,.7a1.59,1.59,0,0,1,.62,1c.07.3.07.62.14.92,0,.07.07.13.09.21a1.92,1.92,0,0,1-.05.41,1.72,1.72,0,0,1-.49,1.07c-.2.21-.53.51-.87.44a5.58,5.58,0,0,1-.94-.41c-.23-.1-2-.81-1.73-1a3.57,3.57,0,0,0-.17-.71"/><path class="cls-3" d="M336.81,309.15c.21.13.62.59.81.74a4.21,4.21,0,0,1,.93,1.41,2.91,2.91,0,0,1,0,.59c0,.2-.16.27-.26.42a1.69,1.69,0,0,1-.3.36c-.1.1-.14.21-.27.28a1.68,1.68,0,0,1-.38.12,1,1,0,0,1-.77-.23,4.34,4.34,0,0,1-.7-.78c-.11-.13-.24-.24-.35-.37a4.3,4.3,0,0,1-.42-.66c.12,0,.13-.88.24-.81"/><path class="cls-3" d="M348.2,316.1a3.62,3.62,0,0,1-.53.88,2,2,0,0,1-.87.75"/><path class="cls-3" d="M347.4,314.65a3.74,3.74,0,0,0-.52.28,2.63,2.63,0,0,0-.83.66,2.46,2.46,0,0,0-.47.74,2.5,2.5,0,0,0-.16.41.94.94,0,0,1-.07.37"/><path class="cls-3" d="M345.22,322.61c-.16.18-.31.37-.48.55a.51.51,0,0,1,.25-.25"/><path class="cls-3" d="M346.12,323.09c-.33.35-.65.73-1,1.05a1.33,1.33,0,0,1-.48.33"/><path class="cls-3" d="M345.49,329.08a6.65,6.65,0,0,1-.51,1.2c-.08.14-.27.34-.22.51"/><path class="cls-3" d="M352.63,312.05a18.54,18.54,0,0,1-1.13,1.51c-.55.66-.12.08-.16.15"/><path class="cls-3" d="M353.74,312.37a4.94,4.94,0,0,1-2.17,2.89c-.21.12-.26.41-.43.58"/><path class="cls-3" d="M339.89,319c.07.13.75.88.8,1a1.52,1.52,0,0,1,.1.6,5.09,5.09,0,0,1-.43,1.3c-.14.33-.28.68-.67.73a1.17,1.17,0,0,1-1-.46c-.27-.31-.51-.6-.76-.92s-.65-.8-.61-1"/><path class="cls-3" d="M361.69,312.88c1.05.64-.33,1.15-.85,1.16-1.17,0-3.61.12-3.71-1.6"/><path class="cls-1" d="M524.2,420A261.63,261.63,0,0,0,507,394.26c1.54,3.3,2.8,6.83,4.45,9.85,3.24,5.91,7.09,12,9.29,18.61,1.55,2.7,3,5.51,4.37,8.29.58,1.2,1.13,2.43,1.65,3.68a53.2,53.2,0,0,0,1.16-7.61Q526.19,423.51,524.2,420Z"/><path d="M699.81,333c3.6,3.38,6.85,7.09,10.18,10.72l.3-2.36c-2.2,1.19-4.33,2.47-6.51,3.68-2,1.13-4.09,2.17-6.1,3.3a1.5,1.5,0,0,0,1.51,2.59c2-1.13,4.08-2.17,6.1-3.3,2.18-1.21,4.32-2.49,6.51-3.67a1.52,1.52,0,0,0,.31-2.36c-3.33-3.64-6.58-7.35-10.17-10.72-1.41-1.33-3.54.79-2.13,2.12Z"/><path d="M603.29,329.94c-3.6,3.38-6.85,7.09-10.18,10.73a1.51,1.51,0,0,0,.31,2.35c2.19,1.18,4.33,2.46,6.51,3.68,2,1.12,4.08,2.16,6.1,3.3a1.5,1.5,0,0,0,1.51-2.59c-2-1.14-4.08-2.18-6.1-3.3-2.17-1.22-4.31-2.5-6.51-3.68l.31,2.36c3.32-3.64,6.57-7.35,10.17-10.73,1.41-1.32-.72-3.44-2.12-2.12Z"/><path d="M709.47,340.4c-2.61-.19-5.19-.56-7.79-.78s-5.5-.2-8.25-.2c-3.86,0-7.71.05-11.56.05H598a1.5,1.5,0,0,0,0,3h82.55c3.63,0,7.26,0,10.89,0,3,0,6.07-.09,9.08.11s6,.64,9,.86c1.92.15,1.91-2.85,0-3Z"/><path d="M547.16,188.28v7.13h6.9v-7.13h3.11v17.26h-3.11v-7.35h-6.9v7.35h-3.09V188.28Z"/><path d="M571.5,202a5.77,5.77,0,0,1-5.58,3.7c-4.34,0-6.26-2.71-6.26-6.76s2.71-6.53,6.44-6.43c3,.07,5.74,2.34,5.45,6.46l0,.39h-8.73c0,2.2.94,3.7,3.18,3.7a2.89,2.89,0,0,0,2.79-2.05Zm-3.13-4.22c0-2-1-2.93-2.54-2.88a2.87,2.87,0,0,0-2.91,2.88Z"/><path d="M574.44,193.43a15.39,15.39,0,0,1,4.88-.93c3.89,0,5.32,1.92,5.32,4.93v5.23a.65.65,0,0,0,.62.74,2.61,2.61,0,0,0,1-.15v2a4.85,4.85,0,0,1-2,.4,2.34,2.34,0,0,1-2.34-1.75,5.62,5.62,0,0,1-3.89,1.75c-2.52,0-4.39-1.28-4.42-4s2-4.09,5.25-4.09a20,20,0,0,1,2.79.24v-.76c0-1.41-.89-2.17-2.66-2.15a10.41,10.41,0,0,0-4,.79Zm7.15,6a14.18,14.18,0,0,0-2.52-.14c-1.48.07-2.42.76-2.44,2.07a1.82,1.82,0,0,0,2.1,1.9,5.09,5.09,0,0,0,2.86-1Z"/><path d="M600.48,186.7v18.84h-2.57l-.34-2.22a4.53,4.53,0,0,1-4.12,2.37c-3.48.05-5.55-2.84-5.55-6.63,0-4.64,3-6.56,5.53-6.56a4.11,4.11,0,0,1,4,2.44V187.1ZM591.06,199c0,2.2.86,3.92,3.15,3.92s3.26-1.72,3.26-3.89c0-2.94-1.58-4-3.28-4S591.06,196.2,591.06,199Z"/><path d="M611.21,192.62l.44,2.29a4.34,4.34,0,0,1,4-2.44,3.75,3.75,0,0,1,3.84,2.39,4.58,4.58,0,0,1,4.17-2.39c3,0,4.22,2,4.22,4.64v8.43h-3.06v-7.45c0-2-.47-3-2.15-3-2.21,0-2.81,1.68-2.81,3.58v6.9h-3.05v-7.45c0-2-.47-3-2.15-3-2.37,0-2.83,1.9-2.83,4v6.51h-3.06V192.62Z"/><path d="M633.88,192.62v7.45c0,2,.78,3,2.58,3,2.35,0,3.31-2.42,3.31-4.86v-5.62h3.06v12.92h-2.45l-.44-2.81a4.71,4.71,0,0,1-4.46,3c-3.16,0-4.66-1.95-4.66-5.2v-7.87Z"/><path d="M646.33,201.84a6.68,6.68,0,0,0,4.19,1.43c1.48,0,2.35-.44,2.35-1.5,0-2.52-7.48-.84-7.23-5.57.1-2.32,1.8-3.7,5.23-3.7a10.55,10.55,0,0,1,4.66,1.2l-1.09,2.17a7.35,7.35,0,0,0-3.69-1.06c-1.21,0-2.22.4-2.17,1.41.14,2.05,7.32.47,7.32,5.45,0,2.66-2.39,4-5.45,4a8.86,8.86,0,0,1-5.3-1.68Z"/><path d="M662.36,189v3.77h3.26l-.42,2.47h-2.84v5.92c0,1.4.64,1.94,1.68,1.94a5.76,5.76,0,0,0,2-.56l.56,2.34a8.1,8.1,0,0,1-3.28.84c-3,0-4-2-4-4.14v-6.34h-1.8v-2.47h2l.37-3.42Z"/><path d="M674,201.84a6.73,6.73,0,0,0,4.2,1.43c1.48,0,2.34-.44,2.34-1.5,0-2.52-7.47-.84-7.23-5.57.1-2.32,1.8-3.7,5.23-3.7a10.55,10.55,0,0,1,4.66,1.2l-1.08,2.17a7.41,7.41,0,0,0-3.7-1.06c-1.21,0-2.22.4-2.17,1.41.15,2.05,7.32.47,7.32,5.45,0,2.66-2.39,4-5.45,4a8.86,8.86,0,0,1-5.3-1.68Z"/><path d="M690,189v3.77h3.26l-.42,2.47H690v5.92c0,1.4.65,1.94,1.68,1.94a5.76,5.76,0,0,0,1.95-.56l.57,2.34a8.1,8.1,0,0,1-3.28.84c-3,0-4-2-4-4.14v-6.34h-1.8v-2.47h1.94l.38-3.42Z"/><path d="M696.05,193.43a15.46,15.46,0,0,1,4.89-.93c3.89,0,5.32,1.92,5.32,4.93v5.23a.65.65,0,0,0,.62.74,2.61,2.61,0,0,0,1-.15v2a4.89,4.89,0,0,1-2,.4,2.34,2.34,0,0,1-2.34-1.75,5.65,5.65,0,0,1-3.9,1.75c-2.51,0-4.38-1.28-4.41-4s2-4.09,5.25-4.09a20,20,0,0,1,2.79.24v-.76c0-1.41-.89-2.17-2.66-2.15a10.41,10.41,0,0,0-4,.79Zm7.15,6a14,14,0,0,0-2.51-.14c-1.48.07-2.42.76-2.44,2.07a1.82,1.82,0,0,0,2.09,1.9,5,5,0,0,0,2.86-1Z"/><path d="M711.44,192.62l3.18,9.12h.2l2.91-9.12h3.16l-4.79,13.12c-1.57,4.31-3.05,5.4-7.61,4.44l.54-2.59c2.91.71,3.3,0,4.21-2.49l-4.85-12.48Z"/><path d="M546.31,227.35a15.36,15.36,0,0,1,4.88-.94c3.89,0,5.32,1.92,5.32,4.93v5.23a.65.65,0,0,0,.62.74,2.41,2.41,0,0,0,1-.15v2.05a5,5,0,0,1-2,.39,2.34,2.34,0,0,1-2.34-1.75,5.62,5.62,0,0,1-3.89,1.75c-2.52,0-4.39-1.28-4.42-4s2-4.09,5.25-4.09a19.85,19.85,0,0,1,2.79.25V231c0-1.4-.89-2.17-2.66-2.14a10.41,10.41,0,0,0-4,.79Zm7.15,6a13.13,13.13,0,0,0-2.52-.15c-1.48.07-2.42.77-2.44,2.07a1.81,1.81,0,0,0,2.1,1.9,5.1,5.1,0,0,0,2.86-1Z"/><path d="M565.77,235.76a6.68,6.68,0,0,0,4.19,1.43c1.48,0,2.34-.45,2.34-1.51,0-2.51-7.47-.84-7.22-5.57.09-2.32,1.8-3.7,5.22-3.7a10.49,10.49,0,0,1,4.66,1.21l-1.08,2.17a7.25,7.25,0,0,0-3.7-1.06c-1.21,0-2.22.39-2.17,1.4.15,2.05,7.32.47,7.32,5.45,0,2.67-2.39,4-5.45,4a8.82,8.82,0,0,1-5.3-1.67Z"/><path d="M578.17,227.35a15.42,15.42,0,0,1,4.88-.94c3.9,0,5.33,1.92,5.33,4.93v5.23a.65.65,0,0,0,.62.74,2.45,2.45,0,0,0,1-.15v2.05a5.09,5.09,0,0,1-2,.39,2.33,2.33,0,0,1-2.34-1.75,5.67,5.67,0,0,1-3.9,1.75c-2.51,0-4.39-1.28-4.41-4s2-4.09,5.25-4.09a19.85,19.85,0,0,1,2.79.25V231c0-1.4-.89-2.17-2.67-2.14a10.39,10.39,0,0,0-4,.79Zm7.15,6a13,13,0,0,0-2.51-.15c-1.48.07-2.42.77-2.44,2.07a1.81,1.81,0,0,0,2.09,1.9,5.07,5.07,0,0,0,2.86-1Z"/><path d="M592.9,226.66v-1.75c0-2.64,1.38-4.29,4.26-4.29a6.74,6.74,0,0,1,2.44.44l-.39,2.14a7.24,7.24,0,0,0-1.31-.14c-1.35,0-1.92.56-1.92,2.34v1.26h2.81l-.4,2.46H596v10.33H592.9V229.12h-2v-2.46Z"/><path d="M611.54,235.9a5.76,5.76,0,0,1-5.57,3.7c-4.34,0-6.27-2.71-6.27-6.75s2.72-6.54,6.44-6.44c3,.07,5.74,2.34,5.45,6.46l-.05.39h-8.73c0,2.2.94,3.7,3.18,3.7a2.88,2.88,0,0,0,2.79-2Zm-3.13-4.21c.05-2-1-2.94-2.54-2.89a2.88,2.88,0,0,0-2.91,2.89Z"/><path d="M631.52,220.62v18.83H629l-.34-2.21a4.53,4.53,0,0,1-4.12,2.36c-3.48.05-5.55-2.83-5.55-6.63,0-4.64,3-6.56,5.52-6.56a4.11,4.11,0,0,1,4,2.44V221Zm-9.42,12.32c0,2.2.86,3.93,3.15,3.93s3.26-1.73,3.26-3.9c0-2.94-1.58-4-3.28-4S622.1,230.11,622.1,232.94Z"/><path d="M638.67,226.53v12.92h-3.08V229.07h-1.8v-2.54Zm-1.55-5a1.65,1.65,0,0,1,1.82,1.56,1.82,1.82,0,0,1-3.62,0A1.59,1.59,0,0,1,637.12,221.5Z"/><path d="M642.17,235.76a6.73,6.73,0,0,0,4.2,1.43c1.48,0,2.34-.45,2.34-1.51,0-2.51-7.47-.84-7.23-5.57.1-2.32,1.8-3.7,5.23-3.7a10.49,10.49,0,0,1,4.66,1.21l-1.08,2.17a7.25,7.25,0,0,0-3.7-1.06c-1.21,0-2.22.39-2.17,1.4.15,2.05,7.32.47,7.32,5.45,0,2.67-2.39,4-5.45,4a8.82,8.82,0,0,1-5.3-1.67Z"/><path d="M658.21,222.88v3.78h3.25l-.42,2.46h-2.83V235c0,1.41.64,2,1.67,2a5.5,5.5,0,0,0,2-.57l.57,2.34a7.94,7.94,0,0,1-3.28.84c-3,0-4-2-4-4.14v-6.34h-1.8v-2.46h1.95l.37-3.43Z"/><path d="M664.22,227.35a15.43,15.43,0,0,1,4.89-.94c3.89,0,5.32,1.92,5.32,4.93v5.23a.65.65,0,0,0,.62.74,2.41,2.41,0,0,0,1-.15v2.05a5.09,5.09,0,0,1-2,.39,2.34,2.34,0,0,1-2.34-1.75,5.64,5.64,0,0,1-3.89,1.75c-2.52,0-4.39-1.28-4.42-4s2-4.09,5.25-4.09a19.85,19.85,0,0,1,2.79.25V231c0-1.4-.89-2.17-2.66-2.14a10.41,10.41,0,0,0-4,.79Zm7.16,6a13.13,13.13,0,0,0-2.52-.15c-1.48.07-2.42.77-2.44,2.07a1.81,1.81,0,0,0,2.1,1.9,5.1,5.1,0,0,0,2.86-1Z"/><path d="M680.6,226.53l.47,2.3a4.74,4.74,0,0,1,4.41-2.42c3,0,4.49,2,4.49,4.61v8.43h-3.06V232c0-2-.74-3-2.41-3-2.35,0-3.26,1.9-3.26,4v6.51h-3.06V226.53Z"/><path d="M704.33,235.83c-.84,2.64-3,3.77-5.63,3.77-4.24,0-6.06-3.15-6.06-6.61,0-4.21,2.61-6.51,6.14-6.58,3.1-.07,5,1.53,5.5,3.8l-2.84.91a2.55,2.55,0,0,0-2.61-2.12c-1.78,0-3.13,1.31-3.13,3.94,0,2.1.78,4,3.08,4a2.6,2.6,0,0,0,2.71-2.05Z"/><path d="M718.14,235.9a5.77,5.77,0,0,1-5.58,3.7c-4.33,0-6.26-2.71-6.26-6.75s2.71-6.54,6.44-6.44c3,.07,5.74,2.34,5.45,6.46l-.05.39h-8.73c0,2.2.94,3.7,3.18,3.7a2.88,2.88,0,0,0,2.79-2ZM715,231.69c0-2-1-2.94-2.54-2.89a2.87,2.87,0,0,0-2.91,2.89Z"/><path d="M547.27,260.57v-1.75c0-2.64,1.38-4.29,4.26-4.29A6.74,6.74,0,0,1,554,255l-.39,2.15a6.25,6.25,0,0,0-1.31-.15c-1.35,0-1.92.57-1.92,2.34v1.26h2.81l-.39,2.47h-2.42v10.33h-3.08V263h-2v-2.47Z"/><path d="M557.6,260.45l.57,2.66c.59-2,2.09-2.84,4.19-2.79a5.12,5.12,0,0,1,1.33.23l-.47,2.68a5.29,5.29,0,0,0-1.85-.24c-2.26.07-3.13,1.82-3.13,3.89v6.49h-3.06V260.45Z"/><path d="M571.12,260.32c3.23,0,6,2.2,6,6.61,0,3.63-2.15,6.59-6.17,6.59-4.36,0-6.16-3-6.16-6.59C564.83,262.52,567.61,260.32,571.12,260.32ZM568,266.93c0,2.05.69,4,3,4,2.1,0,3-1.95,3-4,0-2.86-1.41-4-3-4C569.42,262.91,568,264,568,266.93Z"/><path d="M582.31,260.45l.45,2.29a4.3,4.3,0,0,1,4-2.44,3.77,3.77,0,0,1,3.85,2.39,4.52,4.52,0,0,1,4.17-2.39c3,0,4.21,2,4.21,4.63v8.44h-3.05v-7.45c0-2-.47-3-2.15-3-2.22,0-2.81,1.67-2.81,3.57v6.91h-3.06v-7.45c0-2-.47-3-2.14-3-2.37,0-2.84,1.9-2.84,4v6.51h-3.06V260.45Z"/><path d="M611.22,256.8v3.77h3.26l-.42,2.47h-2.84V269c0,1.41.64,1.95,1.68,1.95a5.76,5.76,0,0,0,2-.56l.56,2.34a8.1,8.1,0,0,1-3.28.84c-3,0-4-2-4-4.15V263h-1.8v-2.47h1.95l.37-3.43Z"/><path d="M620.42,254.53v8a4.83,4.83,0,0,1,4.24-2.2c3,0,4.49,1.95,4.49,4.61v8.44h-3.06v-7.45c0-2-.74-3-2.42-3-2.34,0-3.25,1.9-3.25,4v6.51h-3.06V254.9Z"/><path d="M643.55,269.82a5.76,5.76,0,0,1-5.57,3.7c-4.34,0-6.26-2.72-6.26-6.76s2.71-6.54,6.43-6.44c3,.08,5.75,2.35,5.45,6.46l-.05.4h-8.73c0,2.19.94,3.7,3.18,3.7a2.87,2.87,0,0,0,2.79-2.05Zm-3.13-4.22c.05-2-1-2.93-2.54-2.88A2.87,2.87,0,0,0,635,265.6Z"/><path d="M654.51,254.53v8.21a4.42,4.42,0,0,1,4.31-2.42c2.44.08,5.06,1.73,5.06,6.49,0,3.89-2,6.71-5.45,6.71a4.28,4.28,0,0,1-4.07-2.37l-.42,2.22h-2.49V254.92Zm-.13,12.35c0,2.22.82,4,3.26,4,2,0,3.1-1.51,3.1-4.05,0-3-1.5-3.94-3.13-3.94S654.38,264.29,654.38,266.88Z"/><path d="M672.39,260.32c3.23,0,6,2.2,6,6.61,0,3.63-2.15,6.59-6.17,6.59-4.36,0-6.16-3-6.16-6.59C666.1,262.52,668.89,260.32,672.39,260.32Zm-3.09,6.61c0,2.05.7,4,3,4,2.1,0,3-1.95,3-4,0-2.86-1.41-4-3-4S669.3,264,669.3,266.93Z"/><path d="M681.34,261.26a15.42,15.42,0,0,1,4.88-.94c3.9,0,5.33,1.93,5.33,4.94v5.22a.65.65,0,0,0,.62.74,2.45,2.45,0,0,0,1-.15v2.05a5.05,5.05,0,0,1-2,.4,2.33,2.33,0,0,1-2.34-1.76,5.63,5.63,0,0,1-3.9,1.76c-2.51,0-4.39-1.29-4.41-4s2-4.1,5.25-4.1a19.85,19.85,0,0,1,2.79.25v-.77c0-1.4-.89-2.17-2.67-2.14a10.39,10.39,0,0,0-4,.79Zm7.15,6a13.88,13.88,0,0,0-2.51-.15c-1.48.08-2.42.77-2.44,2.08a1.8,1.8,0,0,0,2.09,1.89,5.07,5.07,0,0,0,2.86-1Z"/><path d="M697.72,260.45l.56,2.66c.6-2,2.1-2.84,4.2-2.79a5.28,5.28,0,0,1,1.33.23l-.47,2.68a5.33,5.33,0,0,0-1.85-.24c-2.27.07-3.13,1.82-3.13,3.89v6.49H695.3V260.45Z"/><path d="M717.35,254.53v18.84h-2.57l-.34-2.22a4.53,4.53,0,0,1-4.12,2.37c-3.48.05-5.55-2.84-5.55-6.64,0-4.63,3-6.56,5.53-6.56a4.12,4.12,0,0,1,4,2.44v-7.84Zm-9.42,12.33c0,2.19.86,3.92,3.15,3.92s3.26-1.73,3.26-3.9c0-2.93-1.58-4-3.28-4S707.93,264,707.93,266.86Z"/><path d="M97.35,227.85a68.34,68.34,0,0,0,2.26,33.88,81.51,81.51,0,0,0,15.44,27A88.38,88.38,0,0,0,127,300.4c1.49,1.2,3.62-.91,2.12-2.12-15.47-12.49-27.31-30.61-29.53-50.65a65,65,0,0,1,.69-19c.35-1.89-2.54-2.69-2.89-.8Z"/><path d="M122.78,285.81c1.69,4.63,2.92,9.41,4.25,14.16l1.45-1.9c-2.49.06-5,.24-7.47.34-2.31.1-4.62.1-6.94.2-1.92.09-1.93,3.09,0,3,2.32-.1,4.63-.1,6.94-.2,2.49-.1,5-.28,7.47-.34a1.52,1.52,0,0,0,1.44-1.9c-1.33-4.75-2.56-9.52-4.24-14.16a1.55,1.55,0,0,0-1.85-1.05,1.52,1.52,0,0,0-1,1.85Z"/><path d="M75.44,148.57v17.26H72.36V148.57Z"/><path d="M82.74,149.26V153H86l-.42,2.47H82.74v5.92c0,1.4.64,2,1.68,2a5.72,5.72,0,0,0,2-.57l.56,2.34a8.09,8.09,0,0,1-3.27.84c-3,0-4-2-4-4.14V155.5h-1.8V153h1.94l.37-3.42Z"/><path d="M96.48,152.91l.44,2.29a4.34,4.34,0,0,1,4-2.44,3.77,3.77,0,0,1,3.85,2.39,4.55,4.55,0,0,1,4.16-2.39c3,0,4.22,2,4.22,4.64v8.43h-3.06v-7.45c0-2-.47-3-2.14-3-2.22,0-2.81,1.68-2.81,3.58v6.9h-3.06v-7.45c0-2-.47-3-2.15-3-2.36,0-2.83,1.9-2.83,4v6.51H94V152.91Z"/><path d="M119.15,152.91v7.45c0,2,.79,3,2.59,3,2.34,0,3.3-2.42,3.3-4.86v-5.62h3.06v12.92h-2.44l-.45-2.81a4.7,4.7,0,0,1-4.46,3c-3.16,0-4.66-1.95-4.66-5.2v-7.87Z"/><path d="M131.6,162.13a6.72,6.72,0,0,0,4.19,1.43c1.48,0,2.35-.44,2.35-1.5,0-2.52-7.47-.84-7.23-5.57.1-2.32,1.8-3.7,5.23-3.7A10.49,10.49,0,0,1,140.8,154l-1.08,2.17a7.36,7.36,0,0,0-3.7-1.07c-1.21,0-2.22.4-2.17,1.41.15,2.05,7.32.47,7.32,5.45,0,2.66-2.39,4-5.45,4a8.86,8.86,0,0,1-5.3-1.68Z"/><path d="M147.63,149.26V153h3.26l-.42,2.47h-2.84v5.92c0,1.4.64,2,1.68,2a5.72,5.72,0,0,0,1.95-.57l.57,2.34a8.21,8.21,0,0,1-3.28.84c-3,0-4-2-4-4.14V155.5h-1.8V153h1.94l.37-3.42Z"/><path d="M162,147v8.21a4.39,4.39,0,0,1,4.31-2.41c2.44.07,5.06,1.72,5.06,6.48,0,3.9-2,6.71-5.45,6.71a4.28,4.28,0,0,1-4.07-2.37l-.42,2.22h-2.49V147.39Zm-.12,12.36c0,2.21.81,4,3.25,4,2,0,3.11-1.5,3.11-4,0-3-1.51-4-3.13-4C163.32,155.35,161.87,156.76,161.87,159.35Z"/><path d="M185.39,162.28a5.76,5.76,0,0,1-5.57,3.7c-4.34,0-6.26-2.71-6.26-6.76s2.71-6.53,6.43-6.43c3,.07,5.75,2.34,5.45,6.46l-.05.39h-8.73c0,2.2.94,3.7,3.18,3.7a2.87,2.87,0,0,0,2.79-2.05Zm-3.13-4.22c.05-2-1-2.93-2.54-2.88a2.87,2.87,0,0,0-2.91,2.88Z"/><path d="M196.35,147v8.21a4.39,4.39,0,0,1,4.31-2.41c2.44.07,5.06,1.72,5.06,6.48,0,3.9-1.95,6.71-5.45,6.71a4.27,4.27,0,0,1-4.07-2.37l-.42,2.22h-2.49V147.39Zm-.13,12.36c0,2.21.82,4,3.26,4,2,0,3.1-1.5,3.1-4,0-3-1.5-4-3.13-4S196.22,156.76,196.22,159.35Z"/><path d="M214.23,152.79c3.23,0,6,2.19,6,6.6,0,3.63-2.15,6.59-6.17,6.59-4.36,0-6.16-3-6.16-6.59C207.94,155,210.72,152.79,214.23,152.79Zm-3.09,6.6c0,2.05.69,4,3,4,2.1,0,3-1.95,3-4,0-2.86-1.41-4-3-4C212.52,155.38,211.14,156.49,211.14,159.39Z"/><path d="M226,147v14.62c0,1.39.62,1.76,1.53,1.76a2.42,2.42,0,0,0,1.28-.47l.57,2.19a5.35,5.35,0,0,1-2.79.89c-2.56,0-3.65-1.73-3.65-4.07V147.36Z"/><path d="M242.49,147v18.84h-2.56l-.35-2.22a4.52,4.52,0,0,1-4.12,2.37c-3.47.05-5.55-2.84-5.55-6.63,0-4.64,3-6.56,5.53-6.56a4.1,4.1,0,0,1,4,2.44v-7.84Zm-9.42,12.33c0,2.2.86,3.92,3.16,3.92s3.25-1.72,3.25-3.89c0-2.94-1.58-4-3.28-4S233.07,156.49,233.07,159.32Z"/><path d="M246.61,165.49a1.42,1.42,0,0,1-1.63-1.58,1.6,1.6,0,0,1,1.73-1.53c1.7,0,2.37,1.33,2.24,2.91-.19,2.34-2,3.28-4,3.3v-1.33c1.16,0,2-.62,2-1.36C246.91,165.71,246.61,165.49,246.61,165.49Z"/><path d="M259.73,147v8a4.82,4.82,0,0,1,4.24-2.19c3,0,4.49,1.94,4.49,4.61v8.43H265.4v-7.45c0-2-.74-3-2.41-3-2.35,0-3.26,1.9-3.26,4v6.51h-3.06V147.36Z"/><path d="M275.54,152.91v12.92h-3.08V155.45h-1.8v-2.54Zm-1.55-5a1.6,1.6,0,1,1,0,3.16,1.63,1.63,0,0,1-1.8-1.63A1.59,1.59,0,0,1,274,147.88Z"/><path d="M290.73,152.91v11c0,4.29-1.67,6.88-6.41,6.88a13.36,13.36,0,0,1-5.28-1.11l.72-2.31a11.13,11.13,0,0,0,4.22,1c2.78,0,3.69-1.38,3.69-3.5v-1.14a4.44,4.44,0,0,1-4,2.05c-3.48.07-5.48-2.57-5.48-6.36,0-4.64,3-6.56,5.52-6.56a4.28,4.28,0,0,1,4.1,2.34l.32-2.22Zm-9.32,6.41c0,2.2.86,3.92,3.16,3.92s3.2-1.72,3.2-3.89c0-2.94-1.55-4-3.23-4S281.41,156.49,281.41,159.32Z"/><path d="M297,147v8a4.81,4.81,0,0,1,4.24-2.19c3,0,4.49,1.94,4.49,4.61v8.43h-3.06v-7.45c0-2-.74-3-2.41-3-2.35,0-3.26,1.9-3.26,4v6.51h-3.06V147.36Z"/><path d="M72.38,187.64a15.49,15.49,0,0,1,4.89-.94c3.89,0,5.32,1.92,5.32,4.93v5.23a.65.65,0,0,0,.62.74,2.41,2.41,0,0,0,1-.15v2.05a5,5,0,0,1-2,.39,2.34,2.34,0,0,1-2.34-1.75,5.64,5.64,0,0,1-3.89,1.75c-2.52,0-4.39-1.28-4.42-4s2-4.09,5.25-4.09a19.85,19.85,0,0,1,2.79.25v-.77c0-1.4-.89-2.17-2.66-2.14a10.41,10.41,0,0,0-4,.79Zm7.16,6a13.13,13.13,0,0,0-2.52-.15c-1.48.07-2.42.77-2.44,2.07a1.81,1.81,0,0,0,2.1,1.9,5.1,5.1,0,0,0,2.86-1Z"/><path d="M88.76,186.82l.47,2.3a4.76,4.76,0,0,1,4.41-2.42c3,0,4.49,2,4.49,4.61v8.43H95.07V192.3c0-2-.74-3-2.41-3-2.35,0-3.26,1.9-3.26,4v6.51H86.34V186.82Z"/><path d="M113.32,180.91v18.83h-2.56l-.35-2.21a4.5,4.5,0,0,1-4.11,2.36c-3.48.05-5.55-2.83-5.55-6.63,0-4.64,3-6.56,5.52-6.56a4.09,4.09,0,0,1,4,2.44V181.3Zm-9.42,12.32c0,2.2.87,3.93,3.16,3.93s3.26-1.73,3.26-3.9c0-2.93-1.58-4-3.28-4S103.9,190.4,103.9,193.23Z"/><path d="M132.86,196.12c-.84,2.64-3,3.77-5.62,3.77-4.24,0-6.07-3.15-6.07-6.61,0-4.21,2.61-6.51,6.14-6.58,3.11-.07,5,1.53,5.5,3.8l-2.84.91a2.54,2.54,0,0,0-2.61-2.12c-1.78,0-3.13,1.31-3.13,3.94,0,2.1.79,4,3.08,4a2.6,2.6,0,0,0,2.71-2Z"/><path d="M141.15,186.7c3.23,0,6,2.19,6,6.61,0,3.62-2.15,6.58-6.17,6.58-4.36,0-6.16-3-6.16-6.58C134.86,188.89,137.65,186.7,141.15,186.7Zm-3.09,6.61c0,2.05.69,4,3,4,2.1,0,3-1.94,3-4,0-2.86-1.41-4-3-4C139.45,189.29,138.06,190.4,138.06,193.31Z"/><path d="M152.32,186.82l.47,2.3a4.76,4.76,0,0,1,4.41-2.42c3,0,4.49,2,4.49,4.61v8.43h-3.06V192.3c0-2-.74-3-2.41-3-2.35,0-3.26,1.9-3.26,4v6.51H149.9V186.82Z"/><path d="M165.66,187V185.2c0-2.64,1.38-4.29,4.25-4.29a6.9,6.9,0,0,1,2.12.32l-.47,2.19c-.1,0-.5-.07-.89-.07-1.36,0-1.92.56-1.92,2.34V187H176v12.79h-3.06V189.41h-4.16v10.33h-3.09V189.41h-2V187Zm8.81-5.16a1.64,1.64,0,0,1,1.8,1.56,1.62,1.62,0,0,1-1.8,1.6,1.64,1.64,0,0,1-1.83-1.63C172.64,182.48,173.28,181.79,174.47,181.79Z"/><path d="M191.21,180.91v18.83h-2.56l-.35-2.21a4.5,4.5,0,0,1-4.11,2.36c-3.48.05-5.55-2.83-5.55-6.63,0-4.64,3-6.56,5.52-6.56a4.09,4.09,0,0,1,4,2.44V181.3Zm-9.42,12.32c0,2.2.87,3.93,3.16,3.93s3.26-1.73,3.26-3.9c0-2.93-1.58-4-3.28-4S181.79,190.4,181.79,193.23Z"/><path d="M205.69,196.19a5.76,5.76,0,0,1-5.57,3.7c-4.34,0-6.26-2.71-6.26-6.75s2.71-6.54,6.43-6.44c3,.07,5.75,2.34,5.45,6.46l-.05.39H197c0,2.2.94,3.7,3.18,3.7a2.87,2.87,0,0,0,2.79-2ZM202.56,192c.05-2-1-2.94-2.54-2.89a2.88,2.88,0,0,0-2.91,2.89Z"/><path d="M210.85,186.82l.47,2.3a4.76,4.76,0,0,1,4.41-2.42c3,0,4.49,2,4.49,4.61v8.43h-3.06V192.3c0-2-.74-3-2.42-3-2.34,0-3.25,1.9-3.25,4v6.51h-3.06V186.82Z"/><path d="M227.3,183.17V187h3.25l-.42,2.46H227.3v5.92c0,1.41.64,1.95,1.68,1.95a5.43,5.43,0,0,0,1.94-.57l.57,2.34a7.94,7.94,0,0,1-3.28.84c-3,0-4-2-4-4.14v-6.34h-1.8V187h1.95l.37-3.43Z"/><path d="M97.35,227.85a68.34,68.34,0,0,0,2.26,33.88,81.51,81.51,0,0,0,15.44,27A88.38,88.38,0,0,0,127,300.4c1.49,1.2,3.62-.91,2.12-2.12-15.47-12.49-27.31-30.61-29.53-50.65a65,65,0,0,1,.69-19c.35-1.89-2.54-2.69-2.89-.8Z"/><path d="M122.78,285.81c1.69,4.63,2.92,9.41,4.25,14.16l1.45-1.9c-2.49.06-5,.24-7.47.34-2.31.1-4.62.1-6.94.2-1.92.09-1.93,3.09,0,3,2.32-.1,4.63-.1,6.94-.2,2.49-.1,5-.28,7.47-.34a1.52,1.52,0,0,0,1.44-1.9c-1.33-4.75-2.56-9.52-4.24-14.16a1.55,1.55,0,0,0-1.85-1.05,1.52,1.52,0,0,0-1,1.85Z"/><path class="cls-7" d="M95.79,61.4A36.74,36.74,0,0,1,104.16,38a34.44,34.44,0,1,0,.11,46.9A36.78,36.78,0,0,1,95.79,61.4ZM87.2,75.66H70.92L71,73.39l4.46-.58c.58,0,.81-.23.81-1,.08-10.05,0-19.6,0-19.6l-5.62,1.08c-.19-.31-1.12-2.46-.46-2.73l10.35-4,1,1s-.12,20.87,0,24.37c0,.77.19,1,.73,1l5.08.54Z"/><circle cx="130" cy="61.53" r="34.44"/><text class="cls-8" transform="translate(118.45 75.26)">2</text><path d="M184,52.13l8.43,15.27V52.13h3.75v21h-4.59L183.3,58.34V73.13h-3.75v-21Z"/><path d="M213.6,68.81a7,7,0,0,1-6.78,4.5c-5.28,0-7.62-3.3-7.62-8.22s3.3-8,7.83-7.83c3.69.09,7,2.85,6.63,7.86l-.06.48H203c0,2.67,1.14,4.5,3.87,4.5a3.5,3.5,0,0,0,3.39-2.49Zm-3.81-5.13c.06-2.43-1.26-3.57-3.09-3.51a3.5,3.5,0,0,0-3.54,3.51Z"/><path d="M219.69,57.41l3.15,6.18,3.3-6.18h4l-4.35,7.8,4.53,7.92h-4.26L222.78,67l-3.45,6.12h-4.14L220,65.27l-4.29-7.86Z"/><path d="M238.11,53v4.59h4l-.51,3h-3.45v7.2c0,1.71.78,2.37,2,2.37a6.83,6.83,0,0,0,2.37-.69l.69,2.85a9.82,9.82,0,0,1-4,1c-3.69,0-4.83-2.46-4.83-5V60.56H232.2v-3h2.37l.45-4.17Z"/><path d="M256.74,57.41V73.13H253V60.5H250.8V57.41Zm-1.89-6.12a2,2,0,0,1,2.22,1.89,2.22,2.22,0,0,1-4.41,0A1.93,1.93,0,0,1,254.85,51.29Z"/><path d="M261,68.63a8.15,8.15,0,0,0,5.1,1.74c1.8,0,2.85-.54,2.85-1.83,0-3.06-9.09-1-8.79-6.78.12-2.82,2.19-4.5,6.36-4.5a12.78,12.78,0,0,1,5.67,1.47l-1.32,2.64a8.9,8.9,0,0,0-4.5-1.29c-1.47,0-2.7.48-2.64,1.71.18,2.49,8.91.57,8.91,6.63,0,3.24-2.91,4.92-6.63,4.89a10.76,10.76,0,0,1-6.45-2Z"/><path d="M286.77,53v4.59h4l-.51,3h-3.45v7.2c0,1.71.78,2.37,2,2.37a6.83,6.83,0,0,0,2.37-.69l.69,2.85a9.82,9.82,0,0,1-4,1c-3.69,0-4.83-2.46-4.83-5V60.56h-2.19v-3h2.37l.45-4.17Z"/><path d="M294.09,58.4A18.74,18.74,0,0,1,300,57.26c4.74,0,6.48,2.34,6.48,6v6.36a.79.79,0,0,0,.75.9,3,3,0,0,0,1.23-.18v2.49a6.08,6.08,0,0,1-2.49.48,2.84,2.84,0,0,1-2.85-2.13,6.87,6.87,0,0,1-4.74,2.13c-3.06,0-5.34-1.56-5.37-4.83s2.46-5,6.39-5a24.49,24.49,0,0,1,3.39.3v-.93c0-1.71-1.08-2.64-3.24-2.61a12.68,12.68,0,0,0-4.86,1Zm8.7,7.35a16.62,16.62,0,0,0-3.06-.18c-1.8.09-2.94.93-3,2.52a2.21,2.21,0,0,0,2.55,2.31,6.17,6.17,0,0,0,3.48-1.26Z"/><path d="M314.79,50.21V64h1.74l3.66-6.45h4.2l-4.71,7.77,5.13,7.86h-4.29l-4-6.09h-1.77v6.09h-3.72V50.66Z"/><path d="M340.59,68.81a7,7,0,0,1-6.78,4.5c-5.28,0-7.62-3.3-7.62-8.22s3.3-8,7.83-7.83c3.69.09,7,2.85,6.63,7.86l-.06.48H330c0,2.67,1.14,4.5,3.87,4.5a3.5,3.5,0,0,0,3.39-2.49Zm-3.81-5.13c.06-2.43-1.26-3.57-3.09-3.51a3.5,3.5,0,0,0-3.54,3.51Z"/><path d="M349.68,63.56v3h-7.44v-3Z"/><path d="M359,57.26c3.93,0,7.35,2.67,7.35,8,0,4.41-2.61,8-7.5,8-5.31,0-7.5-3.6-7.5-8C351.33,59.93,354.72,57.26,359,57.26Zm-3.75,8c0,2.49.84,4.86,3.66,4.86,2.55,0,3.69-2.37,3.69-4.86,0-3.48-1.71-4.89-3.6-4.89C356.91,60.41,355.23,61.76,355.23,65.3Z"/><path d="M370.56,57.56V55.43c0-3.21,1.68-5.22,5.19-5.22a8.28,8.28,0,0,1,3,.54l-.48,2.61a7.71,7.71,0,0,0-1.59-.18c-1.65,0-2.34.69-2.34,2.85v1.53h3.42l-.48,3h-2.94V73.13h-3.75V60.56H368.1v-3Z"/><path d="M381.12,57.56V55.43c0-3.21,1.68-5.22,5.19-5.22a8.28,8.28,0,0,1,3,.54l-.48,2.61a7.71,7.71,0,0,0-1.59-.18c-1.65,0-2.34.69-2.34,2.85v1.53h3.42l-.48,3h-2.94V73.13h-3.75V60.56h-2.46v-3Z"/></svg>