<svg id="Layer_1" data-name="Layer 1" xmlns="http://www.w3.org/2000/svg" viewBox="0 0 780 1051.14"><defs><style>.cls-1{fill:#fff171;stroke-width:0.3px;}.cls-1,.cls-2,.cls-3,.cls-4,.cls-5,.cls-6,.cls-7{stroke:#fff;stroke-miterlimit:10;}.cls-2,.cls-3,.cls-6,.cls-7{fill:#d4a47c;}.cls-2{stroke-width:0.31px;}.cls-3{stroke-width:0.28px;}.cls-4{fill:#c6946f;stroke-width:0.27px;}.cls-5{fill:#005058;stroke-width:0.53px;}.cls-6{stroke-width:0.41px;}.cls-7{stroke-width:0.32px;}.cls-8,.cls-9{fill:#fff;}.cls-8{opacity:0.7;}.cls-9{font-size:38.5px;font-family:ABCSerifBold, ABCSerif;}</style></defs><path class="cls-1" d="M461.4,427.44a102.16,102.16,0,0,1-3.55-10.15,96.15,96.15,0,0,1,.19,24.56c-1.11,9.89-3.41,19.85-7.6,28.27a39.44,39.44,0,0,1-3.5,5.81,27.65,27.65,0,0,1-2.1,2.55c-1.15,1.25-.67,3.14-1.14,4.86-.6,2.17,2,3.1,2.62,1a13.35,13.35,0,0,0,.43-3.28c5.42-5.89,8.87-14.5,11.13-23.11a111,111,0,0,0,3.53-30.07C461.41,427.7,461.4,427.57,461.4,427.44Z"/><path class="cls-2" d="M546.25,428.17c-1.45.71-2.92,0-4.41.1s-2.39.85-3.82,1.48c-3.15,1.39-6.43,3-9.67,4.15-3.46,1.2-8.21,3-10.05,6.51a63.89,63.89,0,0,0-2.45,6.53c-2.5-.14-5.19-.68-7.09-.76-3.06-.14-6.33.25-9.36-.15-1.89-.25-3.32-1.41-5.08-1.79s-3.05.08-4.71.15c-2.52.1-4.89-.48-7.39.08a48.28,48.28,0,0,0-6.5,2.48c-7.13,2.8-12.15,8.5-17.6,13.5-5.67,5.2-11.81,9.76-17.58,14.84-10.27,9-19.83,19.1-29.83,28.6-3.79,3.61-8.19,7.61-10.28,12.47-1.13,2.63-2,5.45-3,8.12-1.86,4.69-2.31,10.07-2.81,15.1-.26,2.51-28.06,13.13-27.18,15.46,1.13,3,14.16-.31,17.16-.4,30.88-.92,85.55-14.34,111.28-31.48,20.34-13.54,31.74-33.54,40.28-55.77l4.17-10.86c.55-1.43.91-3.23,1.84-4.45,1.23-1.63,5.84-4.55,7.81-3.44Z"/><path class="cls-3" d="M547.83,433.3c1.19-.44-.82,9.89.44,10.68s.2,2.3-.14,3.41c-.27.91-.09,1.83-.3,2.76a7.64,7.64,0,0,0-.47,2,6.51,6.51,0,0,0,1.84,4.37c1.42,1.17,3.47.84,5,1.79a5.8,5.8,0,0,1,1.5,1.7,2.77,2.77,0,0,1,1.25-1.21c3.66-1.82,7.7-1,11.6-1.49a19.78,19.78,0,0,0-.32-3.58,30.27,30.27,0,0,1-.35-5.63c0-1.7-.41-3.18.58-4.55.75-1.05,2.05-1.53,2.79-2.57a23,23,0,0,1,1.39-2.22,31.09,31.09,0,0,1,3.11-2.74c2.3-2,4.47-4.27,6.69-6.39a25.43,25.43,0,0,0,5.83-7.93,20.51,20.51,0,0,0,1.55-9.85,45.71,45.71,0,0,0-1.06-7.7A77.45,77.45,0,0,0,585,393.47c-1.68-3.91-5-7.67-8.08-10.52-2.3-2.11-4.17-4.48-6.74-6.36a26.47,26.47,0,0,0-8.69-3.79c-2.63-.73-4.67-2.16-7-3.5-1.14-.67-2.51-.8-3.73-1.46a30.67,30.67,0,0,0-4.44-2.13c-3-1-5.49.09-8.24,1.16-1.84.72-3.29,2-5.16,2.67a14.67,14.67,0,0,0-2.55,1.32c-.92.56-1.9.82-2.82,1.39-.45.27-.7.67-1.15,1s-.9.2-1.3.59a19.36,19.36,0,0,0-1.74,2.82,28.35,28.35,0,0,1-2.28,3.12,3.25,3.25,0,0,0-.27.32c-.06,0-.21-.06-.56,0a12.14,12.14,0,0,1-2.95,0c-2.53-.05-2.73-.5-5.62-.28a28.77,28.77,0,0,0-5.34.88,3.57,3.57,0,0,0-2.32,5,1.91,1.91,0,0,1,.16,1.31,4.92,4.92,0,0,1-1.58,3.27A19.64,19.64,0,0,0,500,392a19.11,19.11,0,0,0-3.5,4.66c-.74,1.41-.61,2.41-2.06,3.05-1,.45-2.13.86-3.19,1.27-2,.77-3.62,2.07-3.46,4.4a15.82,15.82,0,0,0,4.85,9.43c22.82,18.53,8.72,18.5,14.28,27.2,3.8,6,10.51,14.82,9.67,21.87"/><path d="M533.34,382.43c.09.37.14.74.2,1.11,0,.22.09.67-.08.85s-.06.09-.14,0-.09-.22-.13-.29a1.83,1.83,0,0,0-.18-.3c-.27-.37-.58-.71-.85-1.08-.16-.21-.34-.41-.49-.63-.87-1.4-1.31-3.14-2.34-4.43a7.46,7.46,0,0,0-4.05-2.21c.27-.47,1.1-2,1.69-1.93.84.13,2.2,1.91,2.95,2.37a6.78,6.78,0,0,1,2.89,3.74C533.07,380.56,533.12,381.52,533.34,382.43Z"/><path d="M573.2,453.79c0-2.62-.37-5.43,0-8,1.15-8.18,9.91-12.77,14.45-19.68,3.73-5.68,4.47-12.95,3.22-19.64s-4.32-12.88-7.75-18.75c-3.18-5.43-6.78-10.76-11.65-14.75-3.28-2.69-14-9.07-18.11-5.25s-1.19,13.74-5.05,18.56c-2,2.44-5,3.94-6.51,6.7a26,26,0,0,0-1.52,4.46c-.88,2.71-2.45,5.17-3.15,7.93s-.24,6.14,2.14,7.71a11.62,11.62,0,0,1,5.44-2.63c2-.24,2.08,1.08,2.7,3,.85,2.67.49,4.88-2.1,5.95s-5.62,1.62-7.39,3.79c-1.91,2.35-1.66,5.72-1.31,8.73.61,5.16,5.07,13.36,5.68,18.52,3.07.59,2.05.93,5.08,1.7,2.28.58,3-3.87,3.83-1.68a19.29,19.29,0,0,0,8.62,9.82c3.67,2,8.83,2.49,11.57-.67A8.71,8.71,0,0,0,573.2,453.79Z"/><path d="M552.42,367.75l.85.46.11-.19A3.28,3.28,0,0,0,552.42,367.75Z"/><path class="cls-3" d="M536.68,411.1c1.63-5.27,10.14-2.88,11.79.94a6.85,6.85,0,0,1-3.35,8.64c-3.23,1.46-7.15.15-10.47,1.4-1.75.66-3.35,2-5.22,1.89s-3-3.31-1.17-3.7"/><path d="M564.86,443.38a7.44,7.44,0,0,0,3.5.55,12.47,12.47,0,0,1,4.06.93,6.35,6.35,0,0,1,3.65,2.95,6.89,6.89,0,0,1,.63,4.15,6.72,6.72,0,0,1-1.34,3.54c-1,.92-3.18,1.31-4.41,1.83a7,7,0,0,1-4.77-.21,6.28,6.28,0,0,1-3.95-2.88,20.65,20.65,0,0,1-1.44-11c.19-1.82,2-3.51,3.52-4.48s4.19-2.15,6-2c3.48.26,5.1,4.28,5.53,7.21.26,1.76.34,3.56-1,4.95a10.39,10.39,0,0,1-4,2.29,19.11,19.11,0,0,1-5,1.59,6.74,6.74,0,0,1-2.75.1,22.38,22.38,0,0,0-3-.74,8.61,8.61,0,0,1-3.27-1.16,3.38,3.38,0,0,1-1.64-2.08,10.93,10.93,0,0,1-.75-3.08c-.06-.67.12-1.34.11-2,0-1.15,0-1.17,1.19-1.72"/><path d="M570,444.25c1-1.09,2.39-1.07,3.77-1a6.28,6.28,0,0,0,1.44,0,2,2,0,0,1,1.89.73c1.34,1.37,1.61,3.64,1.92,5.41a6.56,6.56,0,0,1,.17,2.29c-.12.7-.51,1.33-.62,2a4.31,4.31,0,0,1-.12,1.18c-.17.42-.52.72-.67,1.15a2.67,2.67,0,0,1-.5,1.11,10,10,0,0,1-1,.86,5.15,5.15,0,0,1-2,1.29,15.38,15.38,0,0,1-2.43.39,6.92,6.92,0,0,1-1.11-.09c-.46-.05-.9.07-1.35,0a6.47,6.47,0,0,1-3.21-1.77c-1.83-1.44-2.69-4-3.44-6.16a12,12,0,0,1-.59-5.23,28.48,28.48,0,0,1,.64-2.88,10.36,10.36,0,0,1,.79-2.61,8.84,8.84,0,0,1,1.84-2.37,20.37,20.37,0,0,1,2.44-2.12,6.52,6.52,0,0,1,3-.9,8.53,8.53,0,0,0,1.68.06,5.82,5.82,0,0,1,1.72-.25,6.93,6.93,0,0,1,5.3,2.64,22.76,22.76,0,0,1,2.43,3.81c.38.89.71,1.8,1.07,2.7a6.07,6.07,0,0,1,.4,3,4.32,4.32,0,0,1-.4,1.77,5.72,5.72,0,0,1-.79,1.56c-1.23,1.18-2.87,1.29-4.2,2.18a6.1,6.1,0,0,1-.75.56c-.45.22-.95.37-1.41.56a11.34,11.34,0,0,1-2.32.79,7.12,7.12,0,0,1-2.76,0,3.75,3.75,0,0,1-2.53-1.81,10.46,10.46,0,0,1-1.91-3.36,13.6,13.6,0,0,1-.38-5.12,10.42,10.42,0,0,1,1.5-5,11,11,0,0,1,1.62-2.21,11.71,11.71,0,0,1,2.12-1.25c1.54-.82,3.44-.44,5.08-.27a3.86,3.86,0,0,1,1.4.18c.21.16.29.65.39.89"/><path d="M550.74,445.25c1-1.09,2.39-1.07,3.77-1a6.28,6.28,0,0,0,1.44,0,2,2,0,0,1,1.89.72c1.34,1.38,1.61,3.65,1.92,5.42a6.56,6.56,0,0,1,.17,2.29c-.12.7-.51,1.33-.62,2a4.31,4.31,0,0,1-.12,1.18c-.17.42-.52.72-.67,1.15a2.67,2.67,0,0,1-.5,1.11,10,10,0,0,1-1,.86,5.15,5.15,0,0,1-2,1.29,15.38,15.38,0,0,1-2.43.39,8.3,8.3,0,0,1-1.11-.09c-.46-.05-.9.07-1.36,0a6.48,6.48,0,0,1-3.2-1.77c-1.83-1.44-2.69-4-3.44-6.16a12,12,0,0,1-.59-5.23,28.48,28.48,0,0,1,.64-2.88,10.36,10.36,0,0,1,.79-2.61,8.84,8.84,0,0,1,1.84-2.37,20.37,20.37,0,0,1,2.44-2.12,6.52,6.52,0,0,1,3-.9,8.53,8.53,0,0,0,1.68.06,5.82,5.82,0,0,1,1.72-.25,6.93,6.93,0,0,1,5.3,2.64,22.76,22.76,0,0,1,2.43,3.81c.38.89.7,1.8,1.07,2.7a6.07,6.07,0,0,1,.4,3,4.32,4.32,0,0,1-.4,1.77,5.72,5.72,0,0,1-.79,1.56c-1.23,1.18-2.87,1.29-4.2,2.18a6.1,6.1,0,0,1-.75.56c-.45.22-1,.37-1.41.56a11.34,11.34,0,0,1-2.32.79,7.12,7.12,0,0,1-2.76,0,3.75,3.75,0,0,1-2.53-1.81,10.46,10.46,0,0,1-1.91-3.36,13.6,13.6,0,0,1-.38-5.12,10.46,10.46,0,0,1,1.5-5,11.25,11.25,0,0,1,1.62-2.2,11.71,11.71,0,0,1,2.12-1.25c1.54-.82,3.44-.44,5.08-.27a3.86,3.86,0,0,1,1.4.18c.21.16.29.65.39.88"/><path class="cls-4" d="M382.22,480.65c4.72-25.74,6.7-37.33,5.21-63.74-.77-13.63-3.83-27-7.05-40.21-2.79-11.45-4.07-25-9.65-35.48-6.73-12.62-17.3-13.29-29.85-13.55-2.31-.05-4.73-.09-7.19-.11a24.72,24.72,0,0,0-4.36-1.44,8.28,8.28,0,0,1-5.26,1.43c-5.08-.36-9.76,2.24-14.46,3.81l-.4.28a21.26,21.26,0,0,1-5.31,2.18l-36.53,11.31c-8.73,2.7-17.86,5.24-26,9.17-14.8,7.17-31.13,10.16-47.57,13.36a.22.22,0,0,1,0,.08c-21.94,4.71-23.38,5.59-33.65,8.81-12.13,3.79-20.28,7.95-30.79,14.91a151.55,151.55,0,0,0-15.7,11.38c-4,3.44-10.56,6.13-13.49,10.46-2.34,3.47-1.67,8.88,3.4,5.63a16.37,16.37,0,0,1,3.94-2.35c3.84-1.12,7.5,2.67,11.5,2.66a12.45,12.45,0,0,0,4.73-1.31c5.09-2.16,10.11-4.85,15.21-6.87,2.8-1.1,5.48-.88,8.3-1.54,5.47-1.28,11.37,1.26,16.7,2.48a50.35,50.35,0,0,0,7.73,1.12,6.77,6.77,0,0,0,5.58-1.68,8.32,8.32,0,0,0,3.25-5.68,31.25,31.25,0,0,1,.79-5.46c.82-3,1.53-6.09,2.53-9,8.36-1.33,26.93-2,33-2.08,13.42-.19,26.69.16,40,.89,4.95,0,9.91-.07,14.84-.28A168.05,168.05,0,0,0,312,382.66c-2.81,11.89-5.71,23.76-8,35.72q-4.71,24.94-8.09,50.1c-1.94,14.39-5.54,29.86-2.13,44.22,3.24,13.71,11,25.88,21.44,33.44,6.56,4.78,14.26,7.76,22,7.4,10.74-.5,34.57-10.25,42-19.31C395.77,514,379,498,382.22,480.65Z"/><path class="cls-5" d="M468.33,463.24A10.7,10.7,0,0,0,465,461.7a21.91,21.91,0,0,1-4-2.21,35.35,35.35,0,0,1-7.25-6.1c-1.41-1.5-2.61-3.2-4.1-4.65-1.26-1.24-3-1.64-4.6-2.27l-.3-.66c-1-.4-2.37.69-3.24,1-1.86.73-3.79,1.16-5.62,2a40.93,40.93,0,0,0-3.62,2.29c-1.58.95-3.36,1.31-4.75,2.53a12.47,12.47,0,0,1-3.13,2.16c-1.59.72-3.07,1.76-4.67,2.44-3,1.27-6.27,1.74-9.22,3.16s-5.47,2.71-8.78,3.28c-1.44.24-2.8.7-4.23,1s-2.83.22-4.18.58-2.69,1.07-4,1.56a25.86,25.86,0,0,0-4.15,2.15c-.78.46-.3.47-1.88.66,0,3.86-3,7.89-3,11.74,1.22,20.44,5.27,42.59-9.66,57.31-9.54,9.4-20.78,13.09-35.06,12-2.44.4-10.43-1.44-13.07-1.32,24.91,8.54,37.39,8,55.1,6.47,17.46-1.53,11.4-2.93,15.32-7.17,1.28-1.38,2.63-2.54,3.88-3.92,2.62-2.9,6.33-5,9.59-7.07q5.46-3.57,11.1-6.84,9.09-5.28,18.58-9.77c5.91-2.79,11.6-6,17.51-8.82a58.32,58.32,0,0,1,5.36-2.54c1.33-.49,4.33-.6,5.21-1.78.71-1,0-3-.12-4.16-.11-1.4-.11-2.66-.11-4,0-3.39.68-6.69.55-10.05-.08-2,.51-3.5.7-5.39.15-1.48.31-2.88.56-4.36s.67-3,.93-4.55.68-2.68,1-4.08a34.65,34.65,0,0,0,.75-5.67C468.5,465.15,469.58,464.34,468.33,463.24Z"/><path class="cls-6" d="M522.22,474.61c5.84-5.77,2.27-18.76-1.25-25.08-4.34-7.78-11.81-13.24-19.55-17.32-6.81-3.6-12.94-6.38-20.69-6.17a57.9,57.9,0,0,1-15.84-1.56,63.12,63.12,0,0,1-14.56-5.79c-7.1-3.76-19.69-8.84-30.46-14.5a27.62,27.62,0,0,1-8.76-7.25c-24.08-30.17-37.33-40.78-54.54-67.59a9.52,9.52,0,0,1-.81-2.43c-.12-.9-.22-1.81-.31-2.72-.17-1.54-.34-3.05-.53-4.6a18,18,0,0,0-.23-2c-.13-.58-.41-1.17-.5-1.76l-.41-.71c-.16-.66-.24-1.36-.43-2a10,10,0,0,0-.72-1.75c-.12-.23-.23-.46-.34-.7s-.27-.8-.46-1.17a13.72,13.72,0,0,0-.79-1.47c-.33-.48-.78-.39-1.24-.47a1.49,1.49,0,0,1-1.1-.74c-.3-.48-.63-.92-.94-1.4-.2-.3-.34-.61-.55-.9s-.35-.53-.53-.78a16.17,16.17,0,0,1-1-1.84l-.49-.92a7.2,7.2,0,0,1-.33-.88,3.16,3.16,0,0,0-.39-.7c-.17-.25-.29-.55-.46-.79a3.85,3.85,0,0,0-1.26-1.19,1.37,1.37,0,0,0-.46-.21c-.22,0-.5,0-.73,0a6.36,6.36,0,0,1-1.51,0,7.26,7.26,0,0,1-1.31-.65l-1.18-.61c-.3-.15-.52-.39-.8-.56a2.66,2.66,0,0,1-.64-.35c-.16-.17-.36-.28-.53-.46s-.22-.3-.41-.4a7.18,7.18,0,0,0-1.1-.57c-.55-.19-.82.37-1.08.86a2.3,2.3,0,0,0-.24.86,9.46,9.46,0,0,0-.21,1.51.61.61,0,0,0,.07.38c.05.07.13.11.17.19s0,.21,0,.32a.79.79,0,0,0,.11.29,10.34,10.34,0,0,0,1.24,1.74c.52.6,1,1.18,1.58,1.75l.11.11c-.25-.21-.51-.42-.75-.65a11.07,11.07,0,0,1-1.37-1.52,15,15,0,0,0-1.15-1.74,1.85,1.85,0,0,1-.28-.28c-.18-.23-.37-.47-.57-.68a3.78,3.78,0,0,0-.43-.38,3.92,3.92,0,0,1-.39-.58,11,11,0,0,0-.83-1.16,8,8,0,0,0-1.8-1.78c-.21-.11-.29-.31-.46-.48a4.87,4.87,0,0,0-.5-.4,2,2,0,0,1-.45-.38,5.79,5.79,0,0,1-.42-.67c-.26-.41-.61-.74-.85-1.17s-.54-.83-.78-1.26a7.68,7.68,0,0,0-.75-1.16c-.13-.16-.32-.21-.46-.34s-.24-.28-.36-.4c-.3-.31-.6-.57-.89-.9a14.19,14.19,0,0,0-1-1.05c-.56-.55-1.1-1.14-1.63-1.77a5.69,5.69,0,0,0-1.84-1.08,2.21,2.21,0,0,0-2.24.29,3.22,3.22,0,0,0-1.3,1.85,2.13,2.13,0,0,0,0,1.12c-.07-.2-.19-.42-.28-.61a1.86,1.86,0,0,0-1-1,2.19,2.19,0,0,0-.49-.23,5.26,5.26,0,0,1-.66-.25,2.38,2.38,0,0,0-.69-.12c-.4,0-.58.18-.84.52a9.7,9.7,0,0,0-.84,1.52,3.35,3.35,0,0,0-.41,1.66,4,4,0,0,0,.81,1.76,20.33,20.33,0,0,0,1.3,1.93c.36.46.7.9,1,1.38a14.41,14.41,0,0,0,1.22,1.63c.49.55.75,1.4,1.2,2,.23.32.49.59.73.9s.35.57.55.82a7.24,7.24,0,0,1,1,1.92,6.94,6.94,0,0,0,.51,1,6.93,6.93,0,0,1,.43.75l-5.38-8.5a.86.86,0,0,0-.38-.51c-.11-.08-.14-.17-.23-.26a1.51,1.51,0,0,0-1.12-.29c-1,.08-1.41,1.4-1.6,2.44a3.86,3.86,0,0,0,.19,1.94c.23.67.32,1.38.54,2.05a5.38,5.38,0,0,0,.84,1.57,11.34,11.34,0,0,1,1,1.57,25.09,25.09,0,0,0,2.24,2.87l.61.84c.15.22.24.5.38.73.41.65.87,1.24,1.3,1.86a6.3,6.3,0,0,1,.61,1c.16.34.38.64.52,1s.35.71.53,1.06l-4.25-6.57c-.18-.09-.21-.55-.44-.46s-.23.14-.36.19-.28,0-.39.15a.77.77,0,0,0-.17.35c-.16.48-.43.89-.61,1.37a3.36,3.36,0,0,0-.14,1.45,4.56,4.56,0,0,0,.56,1.9c.16.3.21.64.36.95s.37.65.56,1,.36.52.5.79a7.91,7.91,0,0,0,.42.82c.21.3.34.66.54.95a4.55,4.55,0,0,1,.51.78,7.78,7.78,0,0,0,1,1.55c.3.38.48.92.78,1.32s.52.93.83,1.36.67,1,1,1.55c.13.19.32.31.45.52a8.2,8.2,0,0,0,.4.78c.32.46.57,1,.9,1.45s.71.65,1,1.05a12.19,12.19,0,0,1,.93,1.37,12.62,12.62,0,0,0,.84,1.06c.18.25.29.54.45.8a11.3,11.3,0,0,1,.65,1.19c.24.5.51.93.78,1.4a3.76,3.76,0,0,0,1,1,2.28,2.28,0,0,1,.49.69,7.84,7.84,0,0,0,.48.74,2,2,0,0,0,.3.49,3.43,3.43,0,0,1,.62.64,6.94,6.94,0,0,0,.51,1,10.83,10.83,0,0,0,1.59,1.13c.19.14.39.24.58.38a20.12,20.12,0,0,1,1.85,1.64,9.31,9.31,0,0,0,1.13,1.05c.37.24.7.35,1.06.63.88.69,1.88,1.17,2.77,1.88.27.22.49.54.77.74s.85.45,1.24.8a22.91,22.91,0,0,0,2.41,1.55c.89.6,1.69,1.33,2.54,2l.09,0c.31.12.61.2.92.29,5.79,14.05,11.28,28.34,18.53,41.39,5.61,10.1,8.64,23.09,16.31,31.83,6.47,7.38,10.08,7.84,17.89,13.33,3.94,2.77,7.36,6.4,11.87,8.19a141.91,141.91,0,0,1,26.48,14.51c6.6,4.42,13.19,8.95,20.46,12.23,7.53,3.39,15.85,4.88,23.05,9.06M320.51,292.65a6.28,6.28,0,0,1,1,1.08,6.58,6.58,0,0,0,1,1,4.78,4.78,0,0,1,.93,1.62,13.39,13.39,0,0,0,.78,1.51,30.33,30.33,0,0,1,2.16,3.08l-7.44-9.63a3.17,3.17,0,0,0,.49.48C319.79,292.09,320.14,292.37,320.51,292.65Zm-5.29-6.14a8,8,0,0,1,1.54,1.73c.18.3.34.62.51.93C316.43,288.07,315.72,287.15,315.22,286.51Zm6.72,29.85a8.63,8.63,0,0,1,1.26,1.94Zm1.93,2.85a3.85,3.85,0,0,1,.39.55Zm1.38,1.92c.07,0,.13,0,.13.1S325.34,321.22,325.25,321.13Zm-4.86-16.41c.06.07.13.14.18.21s.22.46.38.67a7.41,7.41,0,0,0,1.69,1.83c.38.24.31.71.57,1.17s.54,1.13.83,1.59c.57.92,1.12,1.4,1.69,2.33.27.46.61.68.78,1.24a7,7,0,0,1,.47,1.12c0-.08.31.77.27.69Zm17-1.77a3.22,3.22,0,0,0-.28-.24,2.06,2.06,0,0,1,1,.89C338,303.36,337.58,303.11,337.4,303Z"/><path class="cls-7" d="M341.05,302.1a3.2,3.2,0,0,0,1.11-.87c.2-.27.38-.58.56-.87s.33-.45.5-.68.68-.54.6-1.14"/><path class="cls-7" d="M340.16,300.32a7.57,7.57,0,0,1,.51-1.76c.07-.19.13-.38.2-.56s.3-.45.34-.68"/><path class="cls-7" d="M316.61,281.68a18.09,18.09,0,0,1,1.49,1.4,3.53,3.53,0,0,1,.43,1.08,3.62,3.62,0,0,1,.12,1.5,3.16,3.16,0,0,1-.45,1.16c-.61.67-1.47.06-2.07-.28a4.94,4.94,0,0,1-1-.76c-.13-.12-.21-.28-.34-.41a4.23,4.23,0,0,1-.76-.91"/><path class="cls-7" d="M311.63,282.94a13.38,13.38,0,0,1,1.11.91,2.2,2.2,0,0,1,.66,1.27c.08.39.08.8.16,1.19,0,.1.07.17.09.28a3.19,3.19,0,0,1-.06.53,2.42,2.42,0,0,1-.52,1.4c-.22.28-.57.66-.93.57a4.89,4.89,0,0,1-1-.53c-.25-.14-2.11-1.06-1.86-1.29a5,5,0,0,0-.18-.93"/><path class="cls-7" d="M311,291.14c.22.17.66.77.87,1a3.34,3.34,0,0,1,.7,1.09,3.92,3.92,0,0,1,.29.74,4.11,4.11,0,0,1,0,.78c0,.25-.18.35-.29.54a2.13,2.13,0,0,1-.31.47c-.11.13-.16.28-.29.37a1.27,1.27,0,0,1-.41.15,1,1,0,0,1-.83-.29,5.17,5.17,0,0,1-.75-1c-.12-.17-.25-.31-.37-.49a5.1,5.1,0,0,1-.46-.86c.14,0,.14-1.14.26-1"/><path class="cls-7" d="M323.19,300.21a4.9,4.9,0,0,1-.56,1.15,2.38,2.38,0,0,1-.94,1"/><path class="cls-7" d="M322.34,298.32a3.33,3.33,0,0,0-.56.36,2.91,2.91,0,0,0-.89.86,4.52,4.52,0,0,0-.68,1.5,1.51,1.51,0,0,1-.08.48"/><path class="cls-7" d="M320,308.7c-.18.23-.34.49-.52.72a.57.57,0,0,1,.27-.32"/><path class="cls-7" d="M321,309.33c-.35.46-.7.95-1.08,1.37a1.52,1.52,0,0,1-.52.43"/><path class="cls-7" d="M320.28,317.14a9.11,9.11,0,0,1-.55,1.57c-.08.18-.28.44-.23.66"/><path class="cls-7" d="M327.94,294.93c-.14.28-1,1.73-1.21,2-.59.87-.13.11-.17.2"/><path class="cls-7" d="M329.14,295.35a6.53,6.53,0,0,1-2.33,3.76c-.23.16-.28.54-.47.76"/><path class="cls-7" d="M314.28,304c.07.17.8,1.15.85,1.33a2.27,2.27,0,0,1,.11.78,7.15,7.15,0,0,1-.47,1.7c-.14.43-.29.89-.71,1a1.2,1.2,0,0,1-1-.61c-.29-.4-.55-.78-.82-1.2-.15-.23-.7-1-.65-1.33"/><path class="cls-7" d="M337.67,296c1.13.84-.36,1.5-.91,1.52-1.25.05-3.88.16-4-2.08"/><path class="cls-1" d="M469,507.5q-2.36-1.56-4.65-3.21a27,27,0,0,1,.2,3,2.87,2.87,0,0,1-.66,1.78,161.82,161.82,0,0,0,28.88,15.87c1.45-.83,2.7-1.91,4-2.86A161.07,161.07,0,0,1,469,507.5Z"/><path class="cls-1" d="M522.08,474.62c.08,8.91-1.33,17.87-3.05,26.58a70.39,70.39,0,0,1,5.77-8.69c.42-2.77.79-5.54,1.05-8.34a85,85,0,0,0-.53-20.84,36,36,0,0,0-1.18-5.19,31.16,31.16,0,0,1,.45,4.63,17,17,0,0,1-.39,3.73A21,21,0,0,1,522.08,474.62Z"/><path d="M699.81,396.51c3.6,3.38,6.85,7.09,10.18,10.73l.3-2.36c-2.2,1.18-4.33,2.46-6.51,3.68-2,1.12-4.09,2.16-6.1,3.3a1.5,1.5,0,0,0,1.51,2.59c2-1.14,4.08-2.18,6.1-3.3,2.18-1.22,4.32-2.5,6.51-3.68a1.52,1.52,0,0,0,.31-2.36c-3.33-3.63-6.58-7.34-10.17-10.72-1.41-1.32-3.54.8-2.13,2.12Z"/><path d="M633.29,393.51c-3.6,3.37-6.85,7.09-10.18,10.72a1.52,1.52,0,0,0,.31,2.36c2.19,1.18,4.33,2.46,6.51,3.67,2,1.13,4.08,2.17,6.1,3.3a1.5,1.5,0,0,0,1.51-2.59c-2-1.13-4.08-2.17-6.1-3.3-2.17-1.21-4.31-2.49-6.51-3.67l.31,2.35c3.32-3.63,6.57-7.34,10.17-10.72,1.41-1.33-.72-3.45-2.12-2.12Z"/><path d="M709.47,404c-2.45-.19-4.89-.52-7.34-.74-2.65-.24-5.3-.24-8-.24-5.37,0-10.74.05-16.11.05H628a1.5,1.5,0,0,0,0,3c21.39,0,42.79,0,64.18-.05,2.93,0,5.88-.07,8.81.14s5.64.62,8.48.84c1.92.14,1.91-2.86,0-3Z"/><path d="M547.16,188.28v7.13h6.9v-7.13h3.11v17.26h-3.11v-7.35h-6.9v7.35h-3.09V188.28Z"/><path d="M571.5,202a5.77,5.77,0,0,1-5.58,3.7c-4.34,0-6.26-2.71-6.26-6.76s2.71-6.53,6.44-6.43c3,.07,5.74,2.34,5.45,6.46l0,.39h-8.73c0,2.2.94,3.7,3.18,3.7a2.89,2.89,0,0,0,2.79-2.05Zm-3.13-4.22c0-2-1-2.93-2.54-2.88a2.87,2.87,0,0,0-2.91,2.88Z"/><path d="M574.44,193.43a15.39,15.39,0,0,1,4.88-.93c3.89,0,5.32,1.92,5.32,4.93v5.23a.65.65,0,0,0,.62.74,2.61,2.61,0,0,0,1-.15v2a4.85,4.85,0,0,1-2,.4,2.34,2.34,0,0,1-2.34-1.75,5.62,5.62,0,0,1-3.89,1.75c-2.52,0-4.39-1.28-4.42-4s2-4.09,5.25-4.09a20,20,0,0,1,2.79.24v-.76c0-1.41-.89-2.17-2.66-2.15a10.41,10.41,0,0,0-4,.79Zm7.15,6a14.18,14.18,0,0,0-2.52-.14c-1.48.07-2.42.76-2.44,2.07a1.82,1.82,0,0,0,2.1,1.9,5.09,5.09,0,0,0,2.86-1Z"/><path d="M600.48,186.7v18.84h-2.57l-.34-2.22a4.53,4.53,0,0,1-4.12,2.37c-3.48.05-5.55-2.84-5.55-6.63,0-4.64,3-6.56,5.53-6.56a4.11,4.11,0,0,1,4,2.44V187.1ZM591.06,199c0,2.2.86,3.92,3.15,3.92s3.26-1.72,3.26-3.89c0-2.94-1.58-4-3.28-4S591.06,196.2,591.06,199Z"/><path d="M611.21,192.62l.44,2.29a4.34,4.34,0,0,1,4-2.44,3.75,3.75,0,0,1,3.84,2.39,4.58,4.58,0,0,1,4.17-2.39c3,0,4.22,2,4.22,4.64v8.43h-3.06v-7.45c0-2-.47-3-2.15-3-2.21,0-2.81,1.68-2.81,3.58v6.9h-3.05v-7.45c0-2-.47-3-2.15-3-2.37,0-2.83,1.9-2.83,4v6.51h-3.06V192.62Z"/><path d="M633.88,192.62v7.45c0,2,.78,3,2.58,3,2.35,0,3.31-2.42,3.31-4.86v-5.62h3.06v12.92h-2.45l-.44-2.81a4.71,4.71,0,0,1-4.46,3c-3.16,0-4.66-1.95-4.66-5.2v-7.87Z"/><path d="M646.33,201.84a6.68,6.68,0,0,0,4.19,1.43c1.48,0,2.35-.44,2.35-1.5,0-2.52-7.48-.84-7.23-5.57.1-2.32,1.8-3.7,5.23-3.7a10.49,10.49,0,0,1,4.66,1.21l-1.09,2.17a7.31,7.31,0,0,0-3.69-1.07c-1.21,0-2.22.4-2.17,1.41.14,2.05,7.32.47,7.32,5.45,0,2.66-2.39,4-5.45,4a8.86,8.86,0,0,1-5.3-1.68Z"/><path d="M662.36,189v3.77h3.26l-.42,2.47h-2.84v5.92c0,1.4.64,2,1.68,2a5.72,5.72,0,0,0,2-.57l.56,2.34a8.1,8.1,0,0,1-3.28.84c-3,0-4-2-4-4.14v-6.34h-1.8v-2.47h2l.37-3.42Z"/><path d="M674,201.84a6.73,6.73,0,0,0,4.2,1.43c1.48,0,2.34-.44,2.34-1.5,0-2.52-7.47-.84-7.23-5.57.1-2.32,1.8-3.7,5.23-3.7a10.49,10.49,0,0,1,4.66,1.21l-1.08,2.17a7.36,7.36,0,0,0-3.7-1.07c-1.21,0-2.22.4-2.17,1.41.15,2.05,7.32.47,7.32,5.45,0,2.66-2.39,4-5.45,4a8.86,8.86,0,0,1-5.3-1.68Z"/><path d="M690,189v3.77h3.25l-.42,2.47H690v5.92c0,1.4.64,2,1.67,2a5.72,5.72,0,0,0,1.95-.57l.57,2.34a8.1,8.1,0,0,1-3.28.84c-3,0-4-2-4-4.14v-6.34h-1.8v-2.47h1.94l.38-3.42Z"/><path d="M696.05,193.43a15.46,15.46,0,0,1,4.89-.93c3.89,0,5.32,1.92,5.32,4.93v5.23a.65.65,0,0,0,.62.74,2.61,2.61,0,0,0,1-.15v2a4.89,4.89,0,0,1-2,.4,2.34,2.34,0,0,1-2.34-1.75,5.65,5.65,0,0,1-3.9,1.75c-2.51,0-4.39-1.28-4.41-4s2-4.09,5.25-4.09a20,20,0,0,1,2.79.24v-.76c0-1.41-.89-2.17-2.66-2.15a10.41,10.41,0,0,0-4,.79Zm7.16,6a14.18,14.18,0,0,0-2.52-.14c-1.48.07-2.42.76-2.44,2.07a1.82,1.82,0,0,0,2.09,1.9,5.1,5.1,0,0,0,2.87-1Z"/><path d="M711.44,192.62l3.18,9.12h.2l2.91-9.12h3.16l-4.79,13.12c-1.57,4.31-3.05,5.4-7.61,4.44l.54-2.59c2.91.71,3.3,0,4.21-2.49l-4.85-12.48Z"/><path d="M546.31,227.35a15.36,15.36,0,0,1,4.88-.94c3.89,0,5.32,1.92,5.32,4.93v5.23a.65.65,0,0,0,.62.74,2.41,2.41,0,0,0,1-.15v2.05a5,5,0,0,1-2,.39,2.34,2.34,0,0,1-2.34-1.75,5.62,5.62,0,0,1-3.89,1.75c-2.52,0-4.39-1.28-4.42-4s2-4.09,5.26-4.09a19.84,19.84,0,0,1,2.78.25V231c0-1.4-.89-2.17-2.66-2.14a10.47,10.47,0,0,0-4,.79Zm7.15,6a13.13,13.13,0,0,0-2.52-.15c-1.48.07-2.41.77-2.44,2.07a1.81,1.81,0,0,0,2.1,1.9,5.1,5.1,0,0,0,2.86-1Z"/><path d="M565.77,235.76a6.68,6.68,0,0,0,4.19,1.43c1.48,0,2.34-.45,2.34-1.51,0-2.51-7.47-.84-7.22-5.57.09-2.32,1.8-3.7,5.22-3.7a10.49,10.49,0,0,1,4.66,1.21l-1.08,2.17a7.25,7.25,0,0,0-3.7-1.06c-1.21,0-2.22.39-2.17,1.4.15,2.05,7.32.47,7.32,5.45,0,2.67-2.39,4-5.45,4a8.82,8.82,0,0,1-5.3-1.67Z"/><path d="M578.17,227.35a15.42,15.42,0,0,1,4.88-.94c3.9,0,5.33,1.92,5.33,4.93v5.23a.65.65,0,0,0,.62.74,2.45,2.45,0,0,0,1-.15v2.05a5.09,5.09,0,0,1-2,.39,2.33,2.33,0,0,1-2.34-1.75,5.67,5.67,0,0,1-3.9,1.75c-2.51,0-4.39-1.28-4.41-4s2-4.09,5.25-4.09a19.85,19.85,0,0,1,2.79.25V231c0-1.4-.89-2.17-2.67-2.14a10.39,10.39,0,0,0-4,.79Zm7.15,6a13,13,0,0,0-2.51-.15c-1.48.07-2.42.77-2.44,2.07a1.81,1.81,0,0,0,2.09,1.9,5.07,5.07,0,0,0,2.86-1Z"/><path d="M592.9,226.66v-1.75c0-2.64,1.38-4.29,4.26-4.29a6.74,6.74,0,0,1,2.44.44l-.39,2.14a7.24,7.24,0,0,0-1.31-.14c-1.36,0-1.92.56-1.92,2.34v1.26h2.81l-.4,2.46H596v10.33H592.9V229.12h-2v-2.46Z"/><path d="M611.54,235.9a5.76,5.76,0,0,1-5.57,3.7c-4.34,0-6.27-2.71-6.27-6.75s2.72-6.54,6.44-6.44c3,.07,5.74,2.34,5.45,6.46l-.05.39h-8.73c0,2.2.94,3.7,3.18,3.7a2.88,2.88,0,0,0,2.79-2Zm-3.13-4.21c.05-2-1-2.94-2.54-2.89a2.88,2.88,0,0,0-2.91,2.89Z"/><path d="M631.52,220.62v18.83H629l-.34-2.21a4.53,4.53,0,0,1-4.12,2.36c-3.48.05-5.55-2.83-5.55-6.63,0-4.64,3-6.56,5.52-6.56a4.11,4.11,0,0,1,4,2.44V221Zm-9.42,12.32c0,2.2.86,3.93,3.15,3.93s3.26-1.73,3.26-3.9c0-2.93-1.58-4-3.28-4S622.1,230.11,622.1,232.94Z"/><path d="M638.67,226.53v12.92h-3.08V229.07h-1.8v-2.54Zm-1.55-5a1.65,1.65,0,0,1,1.82,1.56,1.82,1.82,0,0,1-3.62,0A1.59,1.59,0,0,1,637.12,221.5Z"/><path d="M642.17,235.76a6.73,6.73,0,0,0,4.2,1.43c1.48,0,2.34-.45,2.34-1.51,0-2.51-7.47-.84-7.23-5.57.1-2.32,1.8-3.7,5.23-3.7a10.49,10.49,0,0,1,4.66,1.21l-1.08,2.17a7.3,7.3,0,0,0-3.7-1.06c-1.21,0-2.22.39-2.17,1.4.15,2.05,7.32.47,7.32,5.45,0,2.67-2.39,4-5.45,4a8.82,8.82,0,0,1-5.3-1.67Z"/><path d="M658.21,222.88v3.78h3.25l-.42,2.46h-2.83V235c0,1.41.64,2,1.67,2a5.5,5.5,0,0,0,2-.57l.57,2.34a7.94,7.94,0,0,1-3.28.84c-3,0-4-2-4-4.14v-6.34h-1.8v-2.46h1.95l.37-3.43Z"/><path d="M664.22,227.35a15.43,15.43,0,0,1,4.89-.94c3.89,0,5.32,1.92,5.32,4.93v5.23a.65.65,0,0,0,.62.74,2.41,2.41,0,0,0,1-.15v2.05a5,5,0,0,1-2,.39,2.34,2.34,0,0,1-2.34-1.75,5.64,5.64,0,0,1-3.89,1.75c-2.52,0-4.39-1.28-4.42-4s2-4.09,5.25-4.09a19.85,19.85,0,0,1,2.79.25V231c0-1.4-.89-2.17-2.66-2.14a10.41,10.41,0,0,0-4,.79Zm7.16,6a13.13,13.13,0,0,0-2.52-.15c-1.48.07-2.42.77-2.44,2.07a1.81,1.81,0,0,0,2.1,1.9,5.1,5.1,0,0,0,2.86-1Z"/><path d="M680.6,226.53l.47,2.3a4.76,4.76,0,0,1,4.41-2.42c3,0,4.49,2,4.49,4.61v8.43h-3.06V232c0-2-.74-3-2.41-3-2.35,0-3.26,1.9-3.26,4v6.51h-3.06V226.53Z"/><path d="M704.33,235.83c-.84,2.64-3,3.77-5.63,3.77-4.24,0-6.06-3.15-6.06-6.61,0-4.21,2.61-6.51,6.14-6.58,3.1-.07,5,1.53,5.5,3.8l-2.84.91a2.55,2.55,0,0,0-2.61-2.12c-1.78,0-3.13,1.31-3.13,3.94,0,2.1.78,4,3.08,4a2.6,2.6,0,0,0,2.71-2.05Z"/><path d="M718.14,235.9a5.77,5.77,0,0,1-5.58,3.7c-4.34,0-6.26-2.71-6.26-6.75s2.71-6.54,6.44-6.44c3,.07,5.74,2.34,5.45,6.46l-.05.39h-8.73c0,2.2.94,3.7,3.18,3.7a2.88,2.88,0,0,0,2.79-2ZM715,231.69c0-2-1-2.94-2.54-2.89a2.88,2.88,0,0,0-2.91,2.89Z"/><path d="M547.27,260.57v-1.75c0-2.64,1.38-4.29,4.26-4.29A6.74,6.74,0,0,1,554,255l-.39,2.15a6.25,6.25,0,0,0-1.31-.15c-1.35,0-1.92.57-1.92,2.34v1.26h2.81l-.39,2.47h-2.42v10.33h-3.08V263h-2v-2.47Z"/><path d="M557.6,260.45l.57,2.66c.59-2,2.09-2.84,4.19-2.79a5.12,5.12,0,0,1,1.33.23l-.47,2.68a5.29,5.29,0,0,0-1.85-.24c-2.26.07-3.13,1.82-3.13,3.89v6.49h-3.06V260.45Z"/><path d="M571.12,260.32c3.23,0,6,2.2,6,6.61,0,3.63-2.15,6.59-6.17,6.59-4.36,0-6.16-3-6.16-6.59C564.83,262.52,567.62,260.32,571.12,260.32ZM568,266.93c0,2.05.69,4,3,4,2.1,0,3-1.95,3-4,0-2.86-1.41-4-3-4C569.42,262.91,568,264,568,266.93Z"/><path d="M582.31,260.45l.45,2.29a4.3,4.3,0,0,1,4-2.44,3.77,3.77,0,0,1,3.85,2.39,4.53,4.53,0,0,1,4.17-2.39c3,0,4.21,2,4.21,4.63v8.44h-3.05v-7.45c0-2-.47-3-2.15-3-2.22,0-2.81,1.67-2.81,3.57v6.91h-3.06v-7.45c0-2-.47-3-2.14-3-2.37,0-2.84,1.9-2.84,4v6.51h-3.06V260.45Z"/><path d="M611.22,256.8v3.77h3.26l-.42,2.47h-2.84V269c0,1.41.64,1.95,1.68,1.95a5.76,5.76,0,0,0,2-.56l.56,2.34a8.1,8.1,0,0,1-3.28.84c-3,0-4-2-4-4.15V263h-1.8v-2.47h1.95l.37-3.43Z"/><path d="M620.42,254.53v8a4.83,4.83,0,0,1,4.24-2.2c3,0,4.49,1.95,4.49,4.61v8.44h-3.06v-7.45c0-2-.74-3-2.42-3-2.34,0-3.25,1.9-3.25,4v6.51h-3.06V254.9Z"/><path d="M643.55,269.82a5.76,5.76,0,0,1-5.57,3.7c-4.34,0-6.26-2.72-6.26-6.76s2.71-6.54,6.43-6.44c3,.08,5.75,2.35,5.45,6.46l-.05.4h-8.73c0,2.19.94,3.7,3.18,3.7a2.87,2.87,0,0,0,2.79-2.05Zm-3.13-4.22c.05-2-1-2.93-2.54-2.88A2.87,2.87,0,0,0,635,265.6Z"/><path d="M654.51,254.53v8.21a4.42,4.42,0,0,1,4.31-2.42c2.44.08,5.06,1.73,5.06,6.49,0,3.9-2,6.71-5.45,6.71a4.28,4.28,0,0,1-4.07-2.37l-.42,2.22h-2.49V254.92Zm-.13,12.35c0,2.22.82,4,3.26,4,2,0,3.1-1.51,3.1-4.05,0-3-1.5-3.94-3.13-3.94S654.38,264.29,654.38,266.88Z"/><path d="M672.39,260.32c3.23,0,6,2.2,6,6.61,0,3.63-2.15,6.59-6.17,6.59-4.36,0-6.16-3-6.16-6.59C666.1,262.52,668.88,260.32,672.39,260.32Zm-3.09,6.61c0,2.05.7,4,3,4,2.1,0,3-1.95,3-4,0-2.86-1.41-4-3-4S669.3,264,669.3,266.93Z"/><path d="M681.34,261.26a15.42,15.42,0,0,1,4.88-.94c3.9,0,5.33,1.93,5.33,4.94v5.22a.65.65,0,0,0,.62.74,2.45,2.45,0,0,0,1-.15v2.05a5.05,5.05,0,0,1-2,.4,2.33,2.33,0,0,1-2.34-1.76,5.63,5.63,0,0,1-3.9,1.76c-2.51,0-4.39-1.29-4.41-4s2-4.1,5.25-4.1a19.85,19.85,0,0,1,2.79.25v-.77c0-1.4-.89-2.17-2.67-2.14a10.39,10.39,0,0,0-4,.79Zm7.15,6a13.88,13.88,0,0,0-2.51-.15c-1.48.08-2.42.77-2.44,2.08a1.8,1.8,0,0,0,2.09,1.89,5.07,5.07,0,0,0,2.86-1Z"/><path d="M697.72,260.45l.57,2.66c.59-2,2.09-2.84,4.19-2.79a5.28,5.28,0,0,1,1.33.23l-.47,2.68a5.33,5.33,0,0,0-1.85-.24c-2.27.07-3.13,1.82-3.13,3.89v6.49H695.3V260.45Z"/><path d="M717.35,254.53v18.84h-2.57l-.34-2.22a4.53,4.53,0,0,1-4.12,2.37c-3.48.05-5.55-2.84-5.55-6.64,0-4.63,3-6.56,5.53-6.56a4.12,4.12,0,0,1,4,2.44v-7.84Zm-9.42,12.33c0,2.19.86,3.92,3.15,3.92s3.26-1.73,3.26-3.9c0-2.93-1.58-4-3.28-4S707.93,264,707.93,266.86Z"/><path d="M97.35,227.85a68.34,68.34,0,0,0,2.26,33.88,81.51,81.51,0,0,0,15.44,27A88.38,88.38,0,0,0,127,300.4c1.49,1.2,3.62-.91,2.12-2.12-15.47-12.49-27.31-30.61-29.53-50.65a65,65,0,0,1,.69-19c.35-1.89-2.54-2.69-2.89-.8Z"/><path d="M122.78,285.81c1.69,4.63,2.92,9.41,4.25,14.16l1.45-1.9c-2.49.06-5,.24-7.47.34-2.31.1-4.62.1-6.94.2-1.92.09-1.93,3.09,0,3,2.32-.1,4.63-.1,6.94-.2,2.49-.1,5-.28,7.47-.34a1.52,1.52,0,0,0,1.44-1.9c-1.33-4.75-2.56-9.52-4.24-14.16a1.55,1.55,0,0,0-1.85-1.05,1.52,1.52,0,0,0-1,1.85Z"/><path d="M75.44,148.57v17.26H72.36V148.57Z"/><path d="M82.74,149.26V153H86l-.42,2.47H82.74v5.92c0,1.4.64,2,1.68,2a5.72,5.72,0,0,0,2-.57l.56,2.34a8.09,8.09,0,0,1-3.27.84c-3,0-4-2-4-4.14V155.5H77.88V153h2l.37-3.42Z"/><path d="M96.48,152.91l.44,2.29a4.34,4.34,0,0,1,4-2.44,3.77,3.77,0,0,1,3.85,2.39,4.55,4.55,0,0,1,4.16-2.39c3,0,4.22,2,4.22,4.64v8.43h-3.06v-7.45c0-2-.47-3-2.14-3-2.22,0-2.81,1.68-2.81,3.58v6.9h-3.06v-7.45c0-2-.47-3-2.15-3-2.36,0-2.83,1.9-2.83,4v6.51H94V152.91Z"/><path d="M119.15,152.91v7.45c0,2,.79,3,2.59,3,2.34,0,3.3-2.42,3.3-4.86v-5.62h3.06v12.92h-2.44l-.45-2.81a4.7,4.7,0,0,1-4.46,3c-3.16,0-4.66-1.95-4.66-5.2v-7.87Z"/><path d="M131.6,162.13a6.72,6.72,0,0,0,4.19,1.43c1.48,0,2.35-.44,2.35-1.5,0-2.52-7.47-.84-7.23-5.57.1-2.32,1.8-3.7,5.23-3.7A10.49,10.49,0,0,1,140.8,154l-1.08,2.17a7.3,7.3,0,0,0-3.7-1.06c-1.21,0-2.22.39-2.17,1.4.15,2.05,7.32.47,7.32,5.45,0,2.66-2.39,4-5.45,4a8.86,8.86,0,0,1-5.3-1.68Z"/><path d="M147.63,149.26V153h3.26l-.42,2.47h-2.84v5.92c0,1.4.65,2,1.68,2a5.72,5.72,0,0,0,1.95-.57l.57,2.34a8.21,8.21,0,0,1-3.28.84c-3,0-4-2-4-4.14V155.5h-1.8V153h1.94l.37-3.42Z"/><path d="M162,147v8.21a4.39,4.39,0,0,1,4.31-2.41c2.44.07,5.06,1.72,5.06,6.48,0,3.9-2,6.71-5.45,6.71a4.28,4.28,0,0,1-4.07-2.37l-.42,2.22h-2.49V147.39Zm-.12,12.36c0,2.22.81,4,3.25,4,2,0,3.11-1.5,3.11-4,0-3-1.51-4-3.13-4C163.32,155.35,161.87,156.76,161.87,159.35Z"/><path d="M185.39,162.28a5.76,5.76,0,0,1-5.57,3.7c-4.34,0-6.26-2.71-6.26-6.76s2.71-6.53,6.43-6.43c3,.07,5.75,2.34,5.45,6.46l-.05.39h-8.73c0,2.2.94,3.7,3.18,3.7a2.87,2.87,0,0,0,2.79-2.05Zm-3.13-4.22c.05-2-1-2.93-2.54-2.88a2.87,2.87,0,0,0-2.91,2.88Z"/><path d="M196.35,147v8.21a4.39,4.39,0,0,1,4.31-2.41c2.44.07,5.06,1.72,5.06,6.48,0,3.9-1.95,6.71-5.45,6.71a4.27,4.27,0,0,1-4.07-2.37l-.42,2.22h-2.49V147.39Zm-.13,12.36c0,2.22.82,4,3.26,4,2,0,3.1-1.5,3.1-4,0-3-1.5-4-3.13-4S196.22,156.76,196.22,159.35Z"/><path d="M214.23,152.79c3.23,0,6,2.19,6,6.61,0,3.62-2.15,6.58-6.17,6.58-4.36,0-6.16-3-6.16-6.58C207.94,155,210.72,152.79,214.23,152.79Zm-3.09,6.61c0,2,.69,4,3,4,2.1,0,3-1.95,3-4,0-2.87-1.41-4-3-4S211.14,156.49,211.14,159.4Z"/><path d="M226,147v14.62c0,1.39.62,1.76,1.53,1.76a2.42,2.42,0,0,0,1.28-.47l.57,2.19a5.35,5.35,0,0,1-2.79.89c-2.56,0-3.65-1.73-3.65-4.07V147.36Z"/><path d="M242.49,147v18.84h-2.56l-.35-2.22a4.52,4.52,0,0,1-4.12,2.37c-3.47.05-5.55-2.84-5.55-6.63,0-4.64,3-6.56,5.53-6.56a4.1,4.1,0,0,1,4,2.44v-7.84Zm-9.42,12.33c0,2.2.86,3.92,3.16,3.92s3.25-1.72,3.25-3.89c0-2.94-1.58-4-3.28-4S233.07,156.49,233.07,159.32Z"/><path d="M246.61,165.49a1.42,1.42,0,0,1-1.63-1.58,1.6,1.6,0,0,1,1.73-1.53c1.7,0,2.37,1.33,2.24,2.91-.19,2.34-2,3.28-4,3.3v-1.33c1.16,0,2-.61,2-1.36C246.91,165.71,246.61,165.49,246.61,165.49Z"/><path d="M259.73,147v8a4.82,4.82,0,0,1,4.24-2.19c3,0,4.49,2,4.49,4.61v8.43H265.4v-7.45c0-2-.74-3-2.41-3-2.35,0-3.26,1.9-3.26,4v6.51h-3.06V147.36Z"/><path d="M275.54,152.91v12.92h-3.08V155.45h-1.8v-2.54Zm-1.55-5a1.6,1.6,0,1,1,0,3.16,1.63,1.63,0,0,1-1.8-1.63A1.59,1.59,0,0,1,274,147.88Z"/><path d="M290.73,152.91v11c0,4.29-1.67,6.88-6.41,6.88a13.36,13.36,0,0,1-5.28-1.11l.72-2.31a11.13,11.13,0,0,0,4.22,1c2.78,0,3.69-1.38,3.69-3.5v-1.14a4.44,4.44,0,0,1-4,2.05c-3.48.07-5.48-2.57-5.48-6.36,0-4.64,3-6.56,5.52-6.56a4.28,4.28,0,0,1,4.1,2.34l.32-2.22Zm-9.32,6.41c0,2.2.86,3.92,3.16,3.92s3.2-1.72,3.2-3.89c0-2.94-1.55-4-3.23-4S281.41,156.49,281.41,159.32Z"/><path d="M297,147v8a4.81,4.81,0,0,1,4.24-2.19c3,0,4.49,2,4.49,4.61v8.43h-3.06v-7.45c0-2-.74-3-2.41-3-2.35,0-3.26,1.9-3.26,4v6.51h-3.06V147.36Z"/><path d="M72.38,187.64a15.49,15.49,0,0,1,4.89-.94c3.89,0,5.32,1.92,5.32,4.93v5.23a.65.65,0,0,0,.62.74,2.41,2.41,0,0,0,1-.15v2.05a5,5,0,0,1-2,.39,2.34,2.34,0,0,1-2.34-1.75,5.64,5.64,0,0,1-3.89,1.75c-2.52,0-4.39-1.28-4.42-4s2-4.09,5.25-4.09a19.85,19.85,0,0,1,2.79.25v-.77c0-1.4-.89-2.17-2.66-2.14a10.41,10.41,0,0,0-4,.79Zm7.16,6a14,14,0,0,0-2.52-.15c-1.48.08-2.42.77-2.44,2.07a1.81,1.81,0,0,0,2.1,1.9,5.1,5.1,0,0,0,2.86-1Z"/><path d="M88.76,186.82l.47,2.3a4.78,4.78,0,0,1,4.41-2.42c3,0,4.49,2,4.49,4.61v8.43H95.07V192.3c0-2-.74-3-2.41-3-2.35,0-3.26,1.89-3.26,4v6.5H86.34V186.82Z"/><path d="M113.32,180.91v18.83h-2.56l-.35-2.21a4.5,4.5,0,0,1-4.11,2.36c-3.48.05-5.55-2.83-5.55-6.63,0-4.64,3-6.56,5.52-6.56a4.09,4.09,0,0,1,4,2.44V181.3Zm-9.42,12.33c0,2.19.87,3.92,3.16,3.92s3.26-1.73,3.26-3.9c0-2.93-1.58-4-3.28-4S103.9,190.4,103.9,193.24Z"/><path d="M132.86,196.12c-.84,2.64-3,3.77-5.62,3.77-4.24,0-6.07-3.15-6.07-6.61,0-4.21,2.61-6.51,6.14-6.58,3.11-.07,5,1.53,5.5,3.8l-2.84.91a2.54,2.54,0,0,0-2.61-2.12c-1.78,0-3.13,1.31-3.13,4,0,2.09.79,4,3.08,4a2.6,2.6,0,0,0,2.71-2Z"/><path d="M141.15,186.7c3.23,0,6,2.2,6,6.61,0,3.62-2.15,6.58-6.17,6.58-4.36,0-6.16-3-6.16-6.58C134.86,188.9,137.65,186.7,141.15,186.7Zm-3.09,6.61c0,2.05.69,4,3,4,2.1,0,3-1.94,3-4,0-2.86-1.41-4-3-4C139.45,189.29,138.06,190.4,138.06,193.31Z"/><path d="M152.32,186.82l.47,2.3a4.78,4.78,0,0,1,4.41-2.42c3,0,4.49,2,4.49,4.61v8.43h-3.06V192.3c0-2-.74-3-2.41-3-2.35,0-3.26,1.89-3.26,4v6.5H149.9V186.82Z"/><path d="M165.66,187V185.2c0-2.64,1.38-4.29,4.25-4.29a6.9,6.9,0,0,1,2.12.32l-.47,2.19c-.1,0-.5-.07-.89-.07-1.36,0-1.92.56-1.92,2.34V187H176v12.79h-3.06V189.41h-4.16v10.33h-3.09V189.41h-2V187Zm8.81-5.16a1.65,1.65,0,0,1,1.8,1.56,1.62,1.62,0,0,1-1.8,1.6,1.64,1.64,0,0,1-1.83-1.63C172.64,182.48,173.28,181.79,174.47,181.79Z"/><path d="M191.21,180.91v18.83h-2.56l-.35-2.21a4.5,4.5,0,0,1-4.11,2.36c-3.48.05-5.55-2.83-5.55-6.63,0-4.64,3-6.56,5.52-6.56a4.09,4.09,0,0,1,4,2.44V181.3Zm-9.42,12.33c0,2.19.87,3.92,3.16,3.92s3.26-1.73,3.26-3.9c0-2.93-1.58-4-3.28-4S181.79,190.4,181.79,193.24Z"/><path d="M205.69,196.19a5.75,5.75,0,0,1-5.57,3.7c-4.34,0-6.26-2.71-6.26-6.75s2.71-6.54,6.43-6.44c3,.07,5.75,2.34,5.45,6.46l-.05.4H197c0,2.19.94,3.69,3.18,3.69a2.87,2.87,0,0,0,2.79-2ZM202.56,192c.05-2-1-2.94-2.54-2.89a2.88,2.88,0,0,0-2.91,2.89Z"/><path d="M210.85,186.82l.47,2.3a4.78,4.78,0,0,1,4.41-2.42c3,0,4.49,2,4.49,4.61v8.43h-3.06V192.3c0-2-.74-3-2.42-3-2.34,0-3.25,1.89-3.25,4v6.5h-3.06V186.82Z"/><path d="M227.3,183.17V187h3.25l-.42,2.46H227.3v5.92c0,1.41.64,1.95,1.68,1.95a5.43,5.43,0,0,0,1.94-.57l.57,2.34a7.94,7.94,0,0,1-3.28.84c-3,0-4-2-4-4.14v-6.34h-1.8V187h1.95l.37-3.43Z"/><path d="M97.35,227.85a68.34,68.34,0,0,0,2.26,33.88,81.51,81.51,0,0,0,15.44,27A88.38,88.38,0,0,0,127,300.4c1.49,1.2,3.62-.91,2.12-2.12-15.47-12.49-27.31-30.61-29.53-50.65a65,65,0,0,1,.69-19c.35-1.89-2.54-2.69-2.89-.8Z"/><path d="M122.78,285.81c1.69,4.63,2.92,9.41,4.25,14.16l1.45-1.9c-2.49.06-5,.24-7.47.34-2.31.1-4.62.1-6.94.2-1.92.09-1.93,3.09,0,3,2.32-.1,4.63-.1,6.94-.2,2.49-.1,5-.28,7.47-.34a1.52,1.52,0,0,0,1.44-1.9c-1.33-4.75-2.56-9.52-4.24-14.16a1.55,1.55,0,0,0-1.85-1.05,1.52,1.52,0,0,0-1,1.85Z"/><path class="cls-8" d="M95.79,61.4A36.74,36.74,0,0,1,104.16,38a34.44,34.44,0,1,0,.11,46.9A36.78,36.78,0,0,1,95.79,61.4ZM87.2,75.66H70.92L71,73.39l4.46-.58c.58,0,.81-.23.81-1,.08-10.05,0-19.6,0-19.6l-5.62,1.08c-.19-.31-1.12-2.46-.46-2.73l10.35-4,1,1s-.12,20.87,0,24.37c0,.77.19,1,.73,1l5.08.54Z"/><circle cx="130" cy="61.53" r="34.44"/><text class="cls-9" transform="translate(118.45 75.26)">2</text><path d="M184,52.13l8.43,15.27V52.13h3.75v21h-4.59L183.3,58.34V73.13h-3.75v-21Z"/><path d="M213.6,68.81a7,7,0,0,1-6.78,4.5c-5.28,0-7.62-3.3-7.62-8.22s3.3-8,7.83-7.83c3.69.09,7,2.85,6.63,7.86l-.06.48H203c0,2.67,1.14,4.5,3.87,4.5a3.5,3.5,0,0,0,3.39-2.49Zm-3.81-5.13c.06-2.43-1.26-3.57-3.09-3.51a3.5,3.5,0,0,0-3.54,3.51Z"/><path d="M219.69,57.41l3.15,6.18,3.3-6.18h4l-4.35,7.8,4.53,7.92h-4.26L222.78,67l-3.45,6.12h-4.14L220,65.27l-4.29-7.86Z"/><path d="M238.11,53v4.59h4l-.51,3h-3.45v7.2c0,1.71.78,2.37,2,2.37a6.83,6.83,0,0,0,2.37-.69l.69,2.85a9.82,9.82,0,0,1-4,1c-3.69,0-4.83-2.46-4.83-5V60.56H232.2v-3h2.37l.45-4.17Z"/><path d="M256.74,57.41V73.13H253V60.5H250.8V57.41Zm-1.89-6.12a2,2,0,0,1,2.22,1.89,2.22,2.22,0,0,1-4.41,0A1.93,1.93,0,0,1,254.85,51.29Z"/><path d="M261,68.63a8.15,8.15,0,0,0,5.1,1.74c1.8,0,2.85-.54,2.85-1.83,0-3.06-9.09-1-8.79-6.78.12-2.82,2.19-4.5,6.36-4.5a12.78,12.78,0,0,1,5.67,1.47l-1.32,2.64a8.9,8.9,0,0,0-4.5-1.29c-1.47,0-2.7.48-2.64,1.71.18,2.49,8.91.57,8.91,6.63,0,3.24-2.91,4.92-6.63,4.89a10.76,10.76,0,0,1-6.45-2Z"/><path d="M286.77,53v4.59h4l-.51,3h-3.45v7.2c0,1.71.78,2.37,2,2.37a6.83,6.83,0,0,0,2.37-.69l.69,2.85a9.82,9.82,0,0,1-4,1c-3.69,0-4.83-2.46-4.83-5V60.56h-2.19v-3h2.37l.45-4.17Z"/><path d="M294.09,58.4A18.74,18.74,0,0,1,300,57.26c4.74,0,6.48,2.34,6.48,6v6.36a.79.79,0,0,0,.75.9,3,3,0,0,0,1.23-.18v2.49a6.08,6.08,0,0,1-2.49.48,2.84,2.84,0,0,1-2.85-2.13,6.87,6.87,0,0,1-4.74,2.13c-3.06,0-5.34-1.56-5.37-4.83s2.46-5,6.39-5a24.49,24.49,0,0,1,3.39.3v-.93c0-1.71-1.08-2.64-3.24-2.61a12.68,12.68,0,0,0-4.86,1Zm8.7,7.35a16.62,16.62,0,0,0-3.06-.18c-1.8.09-2.94.93-3,2.52a2.21,2.21,0,0,0,2.55,2.31,6.17,6.17,0,0,0,3.48-1.26Z"/><path d="M314.79,50.21V64h1.74l3.66-6.45h4.2l-4.71,7.77,5.13,7.86h-4.29l-4-6.09h-1.77v6.09h-3.72V50.66Z"/><path d="M340.59,68.81a7,7,0,0,1-6.78,4.5c-5.28,0-7.62-3.3-7.62-8.22s3.3-8,7.83-7.83c3.69.09,7,2.85,6.63,7.86l-.06.48H330c0,2.67,1.14,4.5,3.87,4.5a3.5,3.5,0,0,0,3.39-2.49Zm-3.81-5.13c.06-2.43-1.26-3.57-3.09-3.51a3.5,3.5,0,0,0-3.54,3.51Z"/><path d="M349.68,63.56v3h-7.44v-3Z"/><path d="M359,57.26c3.93,0,7.35,2.67,7.35,8,0,4.41-2.61,8-7.5,8-5.31,0-7.5-3.6-7.5-8C351.33,59.93,354.72,57.26,359,57.26Zm-3.75,8c0,2.49.84,4.86,3.66,4.86,2.55,0,3.69-2.37,3.69-4.86,0-3.48-1.71-4.89-3.6-4.89C356.91,60.41,355.23,61.76,355.23,65.3Z"/><path d="M370.56,57.56V55.43c0-3.21,1.68-5.22,5.19-5.22a8.28,8.28,0,0,1,3,.54l-.48,2.61a7.71,7.71,0,0,0-1.59-.18c-1.65,0-2.34.69-2.34,2.85v1.53h3.42l-.48,3h-2.94V73.13h-3.75V60.56H368.1v-3Z"/><path d="M381.12,57.56V55.43c0-3.21,1.68-5.22,5.19-5.22a8.28,8.28,0,0,1,3,.54l-.48,2.61a7.71,7.71,0,0,0-1.59-.18c-1.65,0-2.34.69-2.34,2.85v1.53h3.42l-.48,3h-2.94V73.13h-3.75V60.56h-2.46v-3Z"/></svg>