<svg id="Layer_1" data-name="Layer 1" xmlns="http://www.w3.org/2000/svg" viewBox="0 0 780 1051.14"><defs><style>.cls-1,.cls-2,.cls-5{fill:#d4a47c;}.cls-1,.cls-2,.cls-3,.cls-4,.cls-5,.cls-6{stroke:#fff;stroke-miterlimit:10;}.cls-1{stroke-width:0.28px;}.cls-2{stroke-width:0.41px;}.cls-3{fill:#005058;stroke-width:0.53px;}.cls-4{fill:#c6946f;stroke-width:0.27px;}.cls-5{stroke-width:0.32px;}.cls-6{fill:#fff171;stroke-width:0.3px;}.cls-7,.cls-8{fill:#fff;}.cls-7{opacity:0.7;}</style></defs><path class="cls-1" d="M503.44,481.11c1.24.28-6.08,7.84-5.46,9.19s-1.09,2-2,2.78c-.73.61-1.08,1.48-1.76,2.15-.52.52-1.08.77-1.49,1.42a6.51,6.51,0,0,0-.84,4.67c.55,1.76,2.45,2.6,3.18,4.21a5.61,5.61,0,0,1,.33,2.24,2.73,2.73,0,0,1,1.71-.32c4.06.47,7,3.38,10.53,5.08a20.29,20.29,0,0,0,1.69-3.17,30.08,30.08,0,0,1,2.78-4.91c1-1.41,1.39-2.89,3-3.5,1.21-.46,2.56-.16,3.75-.63a25.55,25.55,0,0,1,2.37-1.11,33.74,33.74,0,0,1,4.1-.59c3-.42,6.09-1.14,9.11-1.7a25.55,25.55,0,0,0,9.2-3.46,20.39,20.39,0,0,0,6.67-7.41,44.72,44.72,0,0,0,3.32-7,77.92,77.92,0,0,0,2.7-11c.72-4.19,0-9.14-1-13.22-.77-3-1-6-2.18-9a26.36,26.36,0,0,0-5.21-7.92c-1.81-2-2.73-4.36-3.91-6.72-.59-1.19-1.67-2.05-2.33-3.26a29.54,29.54,0,0,0-2.56-4.21c-2-2.49-4.64-2.92-7.54-3.53-1.93-.4-3.83-.14-5.77-.58a14.44,14.44,0,0,0-2.86-.28c-1.08,0-2-.36-3.12-.38-.53,0-.95.19-1.5.19s-.86-.33-1.41-.22a20.77,20.77,0,0,0-3,1.41,26.93,26.93,0,0,1-3.62,1.38,2.47,2.47,0,0,0-.4.11c0-.06-.14-.16-.47-.3a12.79,12.79,0,0,1-2.5-1.57c-2.09-1.43-2-1.91-4.55-3.3a28.55,28.55,0,0,0-5-2.19,3.57,3.57,0,0,0-4.68,2.95,2,2,0,0,1-.58,1.19,5,5,0,0,1-3.11,1.88,19.67,19.67,0,0,0-3.17,0,19.38,19.38,0,0,0-5.47,2c-1.4.78-1.83,1.7-3.39,1.43-1.13-.19-2.26-.44-3.37-.67-2.1-.45-4.16-.25-5.3,1.8a15.79,15.79,0,0,0-1.08,10.54c9,28-2.8,20.27-2.89,30.59-.06,7.06.72,18.15-3.83,23.6"/><path d="M519.07,430.58c-.13.35-.29.7-.44,1s-.3.6-.53.67-.1,0-.13-.07,0-.23,0-.31,0-.23,0-.35c0-.46-.1-.91-.13-1.37,0-.27-.06-.53,0-.79,0-1.65.61-3.35.45-5a7.48,7.48,0,0,0-2.19-4.07c.48-.24,2-1.09,2.47-.69.63.57.8,2.8,1.18,3.59a6.81,6.81,0,0,1,.38,4.72C519.86,428.86,519.38,429.69,519.07,430.58Z"/><path d="M513.52,512.12c1.46-2.16,2.65-4.74,4.35-6.7,5.43-6.23,15.27-5.3,22.85-8.61,6.23-2.72,10.82-8.41,13.42-14.69s3.41-13.15,3.74-19.94c.3-6.3.19-12.72-1.71-18.72-1.28-4-6.77-15.23-12.31-14.29S535.36,440,529.5,442c-3,1-6.36.56-9.11,2a26.62,26.62,0,0,0-3.71,2.92c-2.21,1.78-4.87,3-7,4.92s-3.55,5-2.42,7.63a11.61,11.61,0,0,1,6,.76c1.82.91,1.16,2,.61,4-.74,2.7-2.25,4.36-5,3.84s-5.59-1.71-8.25-.86c-2.89.92-4.52,3.89-5.86,6.6-2.31,4.66-3,14-5.36,18.62,2.25,2.17,1.21,1.89,3.33,4.19,1.59,1.74,4.6-1.62,4.12.69a19.34,19.34,0,0,0,1.87,12.93c2,3.68,6,6.91,10.05,5.76A8.76,8.76,0,0,0,513.52,512.12Z"/><path d="M543.06,428.69l.46.85.2-.1A3.15,3.15,0,0,0,543.06,428.69Z"/><path class="cls-1" d="M506.21,456.42c4.25-3.53,10.07,3.12,9.37,7.23a6.86,6.86,0,0,1-7.52,5.41c-3.51-.55-6.08-3.78-9.54-4.55-1.82-.4-3.91-.13-5.4-1.26s-.71-4.41,1-3.74"/><path d="M512.2,498.85a7.56,7.56,0,0,0,2.64,2.38,12.46,12.46,0,0,1,2.9,3,6.44,6.44,0,0,1,1.45,4.47,7,7,0,0,1-1.74,3.82,6.84,6.84,0,0,1-3.06,2.24c-1.34.23-3.38-.64-4.7-.88a7,7,0,0,1-3.88-2.78,6.26,6.26,0,0,1-1.74-4.56,20.71,20.71,0,0,1,4.79-10c1.15-1.42,3.63-1.83,5.4-1.84s4.68.5,6.13,1.6c2.77,2.12,1.93,6.37.69,9.06-.74,1.62-1.65,3.17-3.52,3.61a10.24,10.24,0,0,1-4.6-.27,18.78,18.78,0,0,1-5.07-1.39,6.89,6.89,0,0,1-2.36-1.42,21.67,21.67,0,0,0-2.11-2.26,8.62,8.62,0,0,1-2.1-2.76,3.38,3.38,0,0,1-.25-2.64,11.47,11.47,0,0,1,1.06-3c.31-.59.83-1.05,1.18-1.62.61-1,.66-1,1.95-.79"/><path d="M516.06,502.4c1.47-.34,2.59.41,3.69,1.25a6,6,0,0,0,1.19.82,1.94,1.94,0,0,1,1.18,1.63c.38,1.89-.63,3.94-1.34,5.59a6.58,6.58,0,0,1-1.11,2c-.49.52-1.15.84-1.62,1.36-.28.3-.39.68-.75.92s-.82.32-1.19.6-.51.51-1,.65a9.35,9.35,0,0,1-1.29.2,5.22,5.22,0,0,1-2.36,0,14.5,14.5,0,0,1-2.24-1,5.3,5.3,0,0,1-.88-.68c-.36-.29-.8-.43-1.16-.71a6.52,6.52,0,0,1-1.72-3.23c-.75-2.21-.06-4.84.48-7.05a12.06,12.06,0,0,1,2.36-4.7,29.3,29.3,0,0,1,2.11-2.06,10.5,10.5,0,0,1,2.08-1.75,8.69,8.69,0,0,1,2.85-1,19.26,19.26,0,0,1,3.2-.45,6.47,6.47,0,0,1,3,.89,8.29,8.29,0,0,0,1.38,1,5.84,5.84,0,0,1,1.58.74,6.94,6.94,0,0,1,3,5.1,22,22,0,0,1-.05,4.52c-.16,1-.39,1.89-.57,2.84a6.2,6.2,0,0,1-1.32,2.77,4.37,4.37,0,0,1-1.31,1.26,5.52,5.52,0,0,1-1.51.88c-1.67.32-3.11-.49-4.71-.47a4.85,4.85,0,0,1-.94.06c-.49-.06-1-.2-1.48-.3a10.56,10.56,0,0,1-2.37-.6,7.25,7.25,0,0,1-2.31-1.52,3.77,3.77,0,0,1-1.13-2.9,10.48,10.48,0,0,1,.23-3.86,13.87,13.87,0,0,1,2.48-4.5,10.42,10.42,0,0,1,4-3.36,11.52,11.52,0,0,1,2.56-1,12,12,0,0,1,2.46.12c1.74.15,3.13,1.5,4.41,2.54.25.21,1,.6,1.07.91s-.11.71-.16,1"/><path d="M499.36,492.71c1.46-.34,2.58.41,3.68,1.25a6,6,0,0,0,1.19.82,1.94,1.94,0,0,1,1.18,1.63c.38,1.88-.63,3.93-1.34,5.59a6.42,6.42,0,0,1-1.11,2c-.49.53-1.15.85-1.62,1.36-.28.31-.38.68-.74.93s-.83.32-1.2.6-.51.51-1,.65a9.33,9.33,0,0,1-1.29.19,5.09,5.09,0,0,1-2.36,0,14.45,14.45,0,0,1-2.24-1,5.74,5.74,0,0,1-.88-.68c-.36-.29-.8-.43-1.16-.71a6.57,6.57,0,0,1-1.72-3.23c-.75-2.21-.06-4.85.48-7.05a12.2,12.2,0,0,1,2.36-4.7,29.3,29.3,0,0,1,2.11-2.06,10.9,10.9,0,0,1,2.08-1.76,8.91,8.91,0,0,1,2.85-1,19.26,19.26,0,0,1,3.2-.45,6.54,6.54,0,0,1,3,.89,8.85,8.85,0,0,0,1.37,1,5.56,5.56,0,0,1,1.58.74,6.89,6.89,0,0,1,3,5.1,21.34,21.34,0,0,1,0,4.52c-.16.95-.39,1.89-.56,2.84a6.27,6.27,0,0,1-1.33,2.77,4.26,4.26,0,0,1-1.31,1.26,5.52,5.52,0,0,1-1.51.88c-1.67.32-3.11-.49-4.71-.47a5.79,5.79,0,0,1-.94.06c-.49-.06-1-.21-1.48-.3a11.13,11.13,0,0,1-2.37-.6,7.11,7.11,0,0,1-2.31-1.53,3.73,3.73,0,0,1-1.12-2.89,10.27,10.27,0,0,1,.23-3.86,13.56,13.56,0,0,1,2.47-4.5,10.37,10.37,0,0,1,4-3.36,11.44,11.44,0,0,1,2.55-1,12.71,12.71,0,0,1,2.46.11c1.74.16,3.13,1.51,4.41,2.55.25.2.95.59,1.07.91s-.11.71-.15,1"/><path class="cls-2" d="M491.85,481c0,3.23.2,6.53,0,9.75-.11,2-1.23,3.59-1.82,5.4-.84,2.58-1.07,5.4-1.65,8.05-.7,3.21-2.3,6-3.68,8.93a67.77,67.77,0,0,1-6.58,10.48c-6,8.43-10.22,10.38-18.36,17-14.09,11.39-28.87,16.16-53,20.41-14.27,2.51-21.51-.4-36,.07-4.52.14-59.71-7.87-31.46-9.31,2.41-.12,1.73-4.77,3-6.83a57.93,57.93,0,0,1,4.81-6c5.71-6.95,11.61-13.69,18.73-19.25,4.53-3.55,8.7-7.44,13.37-10.8,3.3-2.38,6.42-5,9.58-7.59,3.59-2.92,7.63-5.4,10.94-8.65,2.23-2.19,4.53-4.31,6.73-6.53a27.74,27.74,0,0,1,2.6-2.6,16.72,16.72,0,0,0,2.68-1.84,9.33,9.33,0,0,1,3.61-2.41c2.06-1.05,3.88-2.32,6.16-2.92,2.95-.78,5.86-1.87,8.77-2.89,3.27-1.14,6.32-2.71,9.7-3.44,1.17-.25,2.26-.79,3.41-1.13,1.88-.55,3.77-1,5.64-1.57a10.38,10.38,0,0,1,3.06-.55c1.36,0,2.57-.4,3.92-.44,2.3-.09,4.44-.91,6.76-.9,3.15,0,6.5-.39,9.58.43,3.5.93,7.33,2.07,10.29,4.26,1.1.81,2.16,1.69,3.29,2.47a20.47,20.47,0,0,1,3,2c1.31,1.33,3.3,3.45,2.94,5.55"/><path class="cls-3" d="M408.42,470.09c-3-2.87-2.27-6.71-9.08-8.13a22.47,22.47,0,0,1-2.65,1.7c-2,1-4.11,2-6.15,2.88a16.5,16.5,0,0,0-3.37,1.8c-.9.66-2,.93-3,1.54-2,1.3-3.95,1.39-6.28,1.69a57.28,57.28,0,0,1-8.79.11,25.4,25.4,0,0,1-5.57-1.34,21.45,21.45,0,0,1-3.73-1.48c-3.77,7.9-10.45,12.49-12.12,23.26,0,.34,0,.69-.07,1-1.13,9.67-3.41,21.18-11.93,27.27-4,2.88-9.07,4-14,4.63a140.21,140.21,0,0,1-28.6.73c-4.05-.28-8-.33-11.71-2-1.56-.7-11.84-4.25-12.16-5.42,0,.16.06.26.07.33l.13.19.58.92c.1.1.77,1,1,1.25.56.62,1.14,1.21,1.74,1.79.17.17.36.32.53.48,1.53,1.11,3.07,2.18,4.5,3.22,4.35,3.15,8.74,6.23,13.14,9.29,8.59,6,11.07,9.62,20.74,13.56s16.45,4.45,20,5.22c4,.85,7.19,1.72,7.19,1.72a48,48,0,0,0,4.72-2.45c1.86-1.11,3.52-2.29,5.47-3.24,2.18-1.07,4.3-2.07,6.55-3,10.5-4.4,21.87-6.54,32.57-10.41,4.25-1.54,8.78-2.16,13.09-3.52,2-.64,4-1.51,5.92-2.27a21.91,21.91,0,0,1,3.26-1,6.71,6.71,0,0,0,1.6-.39c.63-.63.28-1.38.34-2.14a12.42,12.42,0,0,1,.38-1.36c.2-1.07.39-2.17.56-3.24.33-2,0-4.4,0-6.47a44.45,44.45,0,0,1,.34-7.57c.66-3.9,1.36-7.8,2-11.7.52-3.19,1.6-6.28,2-9.47.19-1.37.27-2.75.5-4.12a9.75,9.75,0,0,0-.23-2.85C414.42,477.73,412,473.49,408.42,470.09Z"/><path class="cls-4" d="M397.62,347c-.77-9.37-7.07-16.36-14.8-21.06-7.11-4.33-19.38-10.37-27.91-9.58l-.48.05a21.58,21.58,0,0,1-5.7-.72l-37.35-8.19c-8.92-2-18.11-4.26-27.11-4.85-15.42-1-30.19-5.87-45.08-10.88a220.34,220.34,0,0,0-22.9-11.66c-11.51-5.38-20.33-7.82-32.79-9.78a152,152,0,0,0-19.26-2.2c-5.27-.16-11.92-2.61-17-1.39-4.08,1-7.23,5.43-1.29,6.46,1.51.26,3.12.24,4.49.92,3.59,1.76,3.73,7,6.69,9.72a12.49,12.49,0,0,0,4.37,2.23c5.22,1.84,10.74,3.24,15.86,5.2,2.81,1.08,4.64,3.05,7.17,4.47,4.9,2.74,7.53,8.6,10.64,13.1a51.12,51.12,0,0,0,5,6,6.82,6.82,0,0,0,5.25,2.53,8.34,8.34,0,0,0,6.23-2,31.59,31.59,0,0,1,4.27-3.49c1.74-1.1,3.48-2.27,5.26-3.37,8.49,3.8,20.27,10,24.63,12.35,11.77,6.46,23.14,13.31,34.38,20.53,4.31,2.44,8.65,4.83,13.05,7.08a163.23,163.23,0,0,0,34.49,12.67c-7.42,10-14.94,19.92-21.89,30.19q-14.22,21-27.3,42.78C271,446.58,261.56,459.34,259,473.88c-2.47,13.87-.13,28.14,6.41,39.2,4.13,7,10,12.78,17.3,15.53,10.06,3.81,35.8,4.31,46.18-1.07,23.2-12,14.15-33.31,24-48,14.55-21.76,21-31.61,30.07-56.45,4.61-12.55,6.88-25.77,9.31-38.87C394.5,372,398.66,359.51,397.62,347Z"/><path class="cls-2" d="M482.87,471.64c-2.95-8.41-9.38-15.06-16.31-20.41-6.1-4.7-11.66-8.48-19.33-9.61a58,58,0,0,1-15.35-4.23,63.16,63.16,0,0,1-13.36-8.19c-5.68-4.4-12-8.31-18.81-9.91-15.29-30.36-35.93-55.63-48.1-83.24a20.39,20.39,0,0,1-.27-2.22,50.23,50.23,0,0,1,1.2-5.62c.28-.86.58-1.73.88-2.59.52-1.47,1-2.9,1.49-4.38a19.85,19.85,0,0,0,.64-1.88c.13-.59.13-1.23.3-1.81l-.07-.82c.14-.67.37-1.33.47-2a10,10,0,0,0,.11-1.89c0-.26,0-.51,0-.78,0-.42.1-.83.08-1.25a15.31,15.31,0,0,0-.08-1.67c-.09-.57-.54-.68-.92-.95a1.5,1.5,0,0,1-.68-1.14c-.06-.56-.17-1.11-.25-1.66-.05-.36-.05-.7-.11-1.05s-.09-.64-.15-.94a17.88,17.88,0,0,1-.11-2.08c0-.35,0-.7,0-1.05a7.43,7.43,0,0,1,.07-.94,3.05,3.05,0,0,0,0-.8c-.05-.29,0-.61-.08-.9a3.59,3.59,0,0,0-.63-1.61,1.57,1.57,0,0,0-.32-.4c-.19-.11-.46-.19-.67-.29a6.79,6.79,0,0,1-1.34-.69,6.15,6.15,0,0,1-.91-1.15c-.27-.35-.53-.71-.81-1.06s-.3-.57-.48-.84a2.79,2.79,0,0,1-.43-.59c-.08-.22-.21-.41-.28-.64a1.36,1.36,0,0,0-.21-.54,7.29,7.29,0,0,0-.74-1c-.42-.4-.9,0-1.35.32a2.48,2.48,0,0,0-.58.67,10.08,10.08,0,0,0-.84,1.28.65.65,0,0,0-.1.37c0,.09.08.16.08.25s-.08.19-.11.29a.7.7,0,0,0,0,.32,10.38,10.38,0,0,0,.38,2.1c.21.76.43,1.52.68,2.26a.88.88,0,0,1,.05.15c-.13-.3-.28-.6-.4-.92a9.76,9.76,0,0,1-.58-1.95,15.25,15.25,0,0,0-.3-2.06,3.35,3.35,0,0,1-.14-.38,8.33,8.33,0,0,0-.22-.86c-.06-.2-.16-.35-.23-.53a5.06,5.06,0,0,1-.1-.68,12.17,12.17,0,0,0-.25-1.41,8.23,8.23,0,0,0-.87-2.38c-.15-.19-.13-.4-.21-.63a5,5,0,0,0-.28-.57,2,2,0,0,1-.25-.54,5.16,5.16,0,0,1-.09-.79c-.06-.48-.24-.92-.27-1.42s-.13-1-.16-1.47a8.69,8.69,0,0,0-.19-1.37c0-.2-.2-.32-.27-.5s-.09-.35-.15-.52c-.14-.41-.31-.77-.42-1.19s-.3-.93-.46-1.38c-.28-.74-.51-1.51-.72-2.29a5.66,5.66,0,0,0-1.2-1.77,2.21,2.21,0,0,0-2.15-.7,3.21,3.21,0,0,0-2,1.12,2.07,2.07,0,0,0-.51,1c0-.22,0-.47,0-.68a1.9,1.9,0,0,0-.52-1.33,2.71,2.71,0,0,0-.35-.41,5.9,5.9,0,0,1-.49-.51,2.49,2.49,0,0,0-.57-.41c-.34-.19-.61-.08-1,.11a10.49,10.49,0,0,0-1.41,1,3.32,3.32,0,0,0-1.08,1.32,3.87,3.87,0,0,0,0,1.94,19,19,0,0,0,.35,2.3c.13.57.25,1.11.33,1.69a16.11,16.11,0,0,0,.42,2c.2.7.08,1.58.22,2.32.07.39.19.76.28,1.14s.07.66.15,1a7.71,7.71,0,0,1,.06,2.15,7.34,7.34,0,0,0,0,1.15,8.12,8.12,0,0,1,.07.85l-1.23-10a.87.87,0,0,0-.13-.63c-.06-.11,0-.21-.09-.32a1.51,1.51,0,0,0-.89-.74c-1-.37-1.88.66-2.49,1.52A3.83,3.83,0,0,0,324,280c-.08.71-.3,1.39-.39,2.09a5.49,5.49,0,0,0,.09,1.77,11.14,11.14,0,0,1,.24,1.85,23.42,23.42,0,0,0,.8,3.55l.18,1c0,.27,0,.55,0,.83.09.76.25,1.48.38,2.23a6.05,6.05,0,0,1,.1,1.21c0,.37.07.73.05,1.11s0,.79,0,1.18l-1-7.75c-.13-.16,0-.59-.2-.61s-.28,0-.41,0-.28-.08-.42,0a.79.79,0,0,0-.3.25c-.35.37-.78.62-1.14,1a3.17,3.17,0,0,0-.74,1.25,4.32,4.32,0,0,0-.31,2c0,.34-.09.67-.08,1s.05.74.08,1.12.11.62.12.93,0,.61,0,.92,0,.74.09,1.09a4.54,4.54,0,0,1,.12.92,8.23,8.23,0,0,0,.2,1.81c.11.48,0,1,.14,1.53s.08,1.06.17,1.58.16,1.23.25,1.83c0,.24.16.42.19.67a8.53,8.53,0,0,0,0,.87c.09.56.09,1.13.19,1.7,1,6.05,1.84,12.38,4.49,18.1,2.37,5.12,5.8,9.64,8.3,14.69,2.4,4.84,2.94,11.2,4.16,16.49C342.17,370,345,382,349.1,393.51c3.53,9.82,5.72,25.65,11,34.05s8.68,9.36,15.5,16a55.39,55.39,0,0,0,6.91,4.57l.07,0c.3.16.59.3.86.43,1.56.84,3.44,2,5.47,3.16,18,14.87,20.77,25.16,40.72,40.92,10.15,8,39.44,11.34,50.23,3.84C486.55,491.87,485.26,478.46,482.87,471.64ZM327.13,308.27l-.12-.67A3.76,3.76,0,0,1,327.13,308.27Zm-.65-4.14a8,8,0,0,1,.31,2.37Zm1,5.8c.06.05.1.09.08.15S327.48,310.05,327.44,309.93Zm4.3-6.12a9,9,0,0,1-.06,1.22c0-.09-.06.82-.05.73L330.06,293a1.64,1.64,0,0,1,.07.28c0,.26,0,.51.06.76a7.44,7.44,0,0,0,.74,2.38c.25.38,0,.78,0,1.3s0,1.25.06,1.79c.12,1.08.42,1.75.53,2.83A5.41,5.41,0,0,1,331.74,303.81Zm14.46-5.12-.15-.34a2.11,2.11,0,0,1,.5,1.23A2.85,2.85,0,0,0,346.2,298.69Zm-10.87-16.53a6.09,6.09,0,0,1,.48,1.42,7.38,7.38,0,0,0,.43,1.33,4.54,4.54,0,0,1,.15,1.85,13.75,13.75,0,0,0,.06,1.71,28.17,28.17,0,0,1,.64,3.71l-2.61-11.89a4.44,4.44,0,0,0,.24.64C334.92,281.34,335.12,281.75,335.33,282.16Zm-1.5-5.58c0,.34,0,.7.06,1.05-.29-1.36-.54-2.49-.71-3.28A8.36,8.36,0,0,1,333.83,276.58Zm-.9-3.54a.56.56,0,0,0,0,.13v-.06A.2.2,0,0,1,332.93,273Z"/><path class="cls-5" d="M349.86,299.49a3.39,3.39,0,0,0,1.38-.32c.29-.16.58-.35.87-.54a6.72,6.72,0,0,1,.75-.4c.41-.23.84-.2,1-.78"/><path class="cls-5" d="M349.81,297.5a8,8,0,0,1,1.22-1.38l.42-.42c.17-.18.46-.28.6-.47"/><path class="cls-5" d="M336.5,270.58a19.13,19.13,0,0,1,.74,1.9,3.27,3.27,0,0,1-.07,1.15,3.65,3.65,0,0,1-.53,1.42,3.51,3.51,0,0,1-.91.86c-.83.34-1.34-.58-1.75-1.15a5,5,0,0,1-.54-1.09c-.06-.17-.07-.35-.13-.52A4.32,4.32,0,0,1,333,272"/><path class="cls-5" d="M331.45,269.58a14.12,14.12,0,0,1,.62,1.3,2.17,2.17,0,0,1,.06,1.43c-.1.38-.27.76-.37,1.14,0,.1,0,.19,0,.29a2.78,2.78,0,0,1-.28.47,2.45,2.45,0,0,1-1.06,1c-.32.16-.81.36-1.09.13a4.91,4.91,0,0,1-.69-.92c-.16-.23-1.45-1.86-1.13-2a4.84,4.84,0,0,0,.24-.92"/><path class="cls-5" d="M327.35,276.72c.13.24.27,1,.37,1.25a3.23,3.23,0,0,1,.17,1.28,4.3,4.3,0,0,1-.05.8,4.49,4.49,0,0,1-.31.71c-.14.21-.31.24-.49.37a2.36,2.36,0,0,1-.48.29,1.9,1.9,0,0,1-.43.21,1.53,1.53,0,0,1-.43,0,1,1,0,0,1-.62-.62,5.45,5.45,0,0,1-.25-1.24c0-.21-.09-.39-.13-.6a6.48,6.48,0,0,1,0-1c.12.08.61-1,.68-.84"/><path class="cls-5" d="M334.52,290.14a4.82,4.82,0,0,1-1,.8,2.47,2.47,0,0,1-1.26.48"/><path class="cls-5" d="M334.56,288.07a2.56,2.56,0,0,0-.66.09,3,3,0,0,0-1.17.39,3.4,3.4,0,0,0-.88.65,5.14,5.14,0,0,0-.38.42,1.26,1.26,0,0,1-.28.4"/><path class="cls-5" d="M328,296.45c-.25.14-.51.3-.77.43a.57.57,0,0,1,.38-.18"/><path class="cls-5" d="M328.61,297.43c-.52.26-1,.56-1.57.78a1.52,1.52,0,0,1-.65.16"/><path class="cls-5" d="M324.65,304.2a9.25,9.25,0,0,1-1.16,1.18c-.16.14-.45.28-.5.5"/><path class="cls-5" d="M341.07,287.4a21.13,21.13,0,0,1-1.93,1.25c-.9.53-.16.05-.24.11"/><path class="cls-5" d="M342,288.29a6.58,6.58,0,0,1-3.72,2.41c-.27,0-.48.36-.74.48"/><path class="cls-5" d="M324.83,289.77c0,.19.24,1.39.21,1.57a2.51,2.51,0,0,1-.23.75,7.45,7.45,0,0,1-1.15,1.34c-.32.32-.65.68-1.06.56a1.23,1.23,0,0,1-.67-1c-.1-.49-.16-.94-.23-1.43a3.89,3.89,0,0,1,0-1.48"/><path class="cls-5" d="M349.41,292.53c.66,1.23-1,1.2-1.47,1-1.16-.49-3.58-1.51-2.72-3.59"/><path class="cls-6" d="M451.2,546.45c-2.8-.86-5.54-1.92-8.33-2.83a97.09,97.09,0,0,1-14.11-5.85,100.58,100.58,0,0,1-12.95-7.89c-1.07-.77-2.15-1.55-3.17-2.39q0,.38,0,.75a3.36,3.36,0,0,1-.42,1.52,2.28,2.28,0,0,1-1.24.89,7.19,7.19,0,0,1-.8.2c1.49,1.2,3.06,2.33,4.62,3.41A100.84,100.84,0,0,0,427.82,542a104.57,104.57,0,0,0,13.93,5.68c1.44.47,2.87,1,4.29,1.48C447.81,548.33,449.52,547.43,451.2,546.45Z"/><path class="cls-6" d="M485.68,487.83c-.18-1.78-.43-3.56-.77-5.33a27.75,27.75,0,0,1,0,3.76,16.82,16.82,0,0,1-3,8.57,70.12,70.12,0,0,1-.91,11.7c-1.12,6.73-3.5,13-6.16,19.22-.5,1.15-1,2.31-1.49,3.47l.22-.22a21,21,0,0,0,2.05-2c.67-.76,1.31-1.55,2-2.3.3-.33.62-.63.94-.93a32,32,0,0,0,2.61-4.13,2.54,2.54,0,0,1,.45-.63c.26-.42.53-.83.76-1.27l.07-.19a2.27,2.27,0,0,1,.23-.58,64.16,64.16,0,0,0,2.38-9.36A74.79,74.79,0,0,0,485.68,487.83Z"/><path d="M699.81,454.83c3.6,3.37,6.85,7.09,10.18,10.72l.3-2.36c-2.2,1.19-4.33,2.47-6.51,3.68-2,1.13-4.09,2.17-6.1,3.3a1.5,1.5,0,0,0,1.51,2.59c2-1.13,4.08-2.17,6.1-3.3,2.18-1.21,4.32-2.49,6.51-3.68a1.51,1.51,0,0,0,.31-2.35c-3.33-3.64-6.58-7.35-10.17-10.73-1.41-1.32-3.54.8-2.13,2.13Z"/><path d="M633.29,451.82c-3.6,3.38-6.85,7.09-10.18,10.72a1.52,1.52,0,0,0,.31,2.36c2.19,1.18,4.33,2.46,6.51,3.68,2,1.12,4.08,2.16,6.1,3.3a1.5,1.5,0,0,0,1.51-2.59c-2-1.14-4.08-2.18-6.1-3.3-2.17-1.22-4.31-2.5-6.51-3.68l.31,2.36c3.32-3.64,6.57-7.35,10.17-10.73,1.41-1.32-.72-3.44-2.12-2.12Z"/><path d="M709.47,462.28c-2.45-.18-4.89-.52-7.34-.74-2.65-.24-5.3-.24-8-.24-5.37,0-10.74.05-16.11.05H628a1.5,1.5,0,0,0,0,3c21.39,0,42.79,0,64.18,0,2.93,0,5.88-.07,8.81.14s5.64.62,8.48.83c1.92.15,1.91-2.85,0-3Z"/><path d="M547.16,188.28v7.13h6.9v-7.13h3.11v17.26h-3.11v-7.35h-6.9v7.35h-3.09V188.28Z"/><path d="M571.5,202a5.77,5.77,0,0,1-5.58,3.7c-4.34,0-6.26-2.71-6.26-6.76s2.71-6.53,6.44-6.43c3,.07,5.74,2.34,5.45,6.46l0,.39h-8.73c0,2.2.94,3.7,3.18,3.7a2.89,2.89,0,0,0,2.79-2.05Zm-3.13-4.22c0-2-1-2.93-2.54-2.88a2.87,2.87,0,0,0-2.91,2.88Z"/><path d="M574.44,193.43a15.39,15.39,0,0,1,4.88-.93c3.89,0,5.32,1.92,5.32,4.93v5.23a.65.65,0,0,0,.62.74,2.61,2.61,0,0,0,1-.15v2a4.85,4.85,0,0,1-2,.4,2.34,2.34,0,0,1-2.34-1.75,5.62,5.62,0,0,1-3.89,1.75c-2.52,0-4.39-1.28-4.42-4s2-4.09,5.25-4.09a20,20,0,0,1,2.79.24v-.76c0-1.41-.89-2.17-2.66-2.15a10.41,10.41,0,0,0-4,.79Zm7.15,6a14.18,14.18,0,0,0-2.52-.14c-1.48.07-2.42.76-2.44,2.07a1.82,1.82,0,0,0,2.1,1.9,5.09,5.09,0,0,0,2.86-1Z"/><path d="M600.48,186.7v18.84h-2.57l-.34-2.22a4.53,4.53,0,0,1-4.12,2.37c-3.48.05-5.55-2.84-5.55-6.63,0-4.64,3-6.56,5.53-6.56a4.11,4.11,0,0,1,4,2.44V187.1ZM591.06,199c0,2.2.86,3.92,3.15,3.92s3.26-1.72,3.26-3.89c0-2.94-1.58-4-3.28-4S591.06,196.2,591.06,199Z"/><path d="M611.21,192.62l.44,2.29a4.34,4.34,0,0,1,4-2.44,3.75,3.75,0,0,1,3.84,2.39,4.58,4.58,0,0,1,4.17-2.39c3,0,4.22,2,4.22,4.64v8.43h-3.06v-7.45c0-2-.47-3-2.15-3-2.21,0-2.81,1.68-2.81,3.58v6.9h-3.05v-7.45c0-2-.47-3-2.15-3-2.37,0-2.83,1.9-2.83,4v6.51h-3.06V192.62Z"/><path d="M633.88,192.62v7.45c0,2,.78,3,2.58,3,2.35,0,3.31-2.42,3.31-4.86v-5.62h3.06v12.92h-2.45l-.44-2.81a4.71,4.71,0,0,1-4.46,3c-3.16,0-4.66-1.95-4.66-5.2v-7.87Z"/><path d="M646.33,201.84a6.68,6.68,0,0,0,4.19,1.43c1.48,0,2.35-.44,2.35-1.5,0-2.52-7.48-.84-7.23-5.57.1-2.32,1.8-3.7,5.23-3.7a10.49,10.49,0,0,1,4.66,1.21l-1.09,2.17a7.31,7.31,0,0,0-3.69-1.07c-1.21,0-2.22.4-2.17,1.41.14,2.05,7.32.47,7.32,5.45,0,2.66-2.39,4-5.45,4a8.86,8.86,0,0,1-5.3-1.68Z"/><path d="M662.36,189v3.77h3.26l-.42,2.47h-2.84v5.92c0,1.4.64,2,1.68,2a5.72,5.72,0,0,0,2-.57l.56,2.34a8.1,8.1,0,0,1-3.28.84c-3,0-4-2-4-4.14v-6.34h-1.8v-2.47h2l.37-3.42Z"/><path d="M674,201.84a6.73,6.73,0,0,0,4.2,1.43c1.48,0,2.34-.44,2.34-1.5,0-2.52-7.47-.84-7.23-5.57.1-2.32,1.8-3.7,5.23-3.7a10.49,10.49,0,0,1,4.66,1.21l-1.08,2.17a7.36,7.36,0,0,0-3.7-1.07c-1.21,0-2.22.4-2.17,1.41.15,2.05,7.32.47,7.32,5.45,0,2.66-2.39,4-5.45,4a8.86,8.86,0,0,1-5.3-1.68Z"/><path d="M690,189v3.77h3.25l-.42,2.47H690v5.92c0,1.4.64,2,1.67,2a5.72,5.72,0,0,0,1.95-.57l.57,2.34a8.1,8.1,0,0,1-3.28.84c-3,0-4-2-4-4.14v-6.34h-1.8v-2.47h1.94l.38-3.42Z"/><path d="M696.05,193.43a15.46,15.46,0,0,1,4.89-.93c3.89,0,5.32,1.92,5.32,4.93v5.23a.65.65,0,0,0,.62.74,2.61,2.61,0,0,0,1-.15v2a4.89,4.89,0,0,1-2,.4,2.34,2.34,0,0,1-2.34-1.75,5.65,5.65,0,0,1-3.9,1.75c-2.51,0-4.39-1.28-4.41-4s2-4.09,5.25-4.09a20,20,0,0,1,2.79.24v-.76c0-1.41-.89-2.17-2.66-2.15a10.41,10.41,0,0,0-4,.79Zm7.16,6a14.18,14.18,0,0,0-2.52-.14c-1.48.07-2.42.76-2.44,2.07a1.82,1.82,0,0,0,2.09,1.9,5.1,5.1,0,0,0,2.87-1Z"/><path d="M711.44,192.62l3.18,9.12h.2l2.91-9.12h3.16l-4.79,13.12c-1.57,4.31-3.05,5.4-7.61,4.44l.54-2.59c2.91.71,3.3,0,4.21-2.49l-4.85-12.48Z"/><path d="M546.31,227.35a15.36,15.36,0,0,1,4.88-.94c3.89,0,5.32,1.92,5.32,4.93v5.23a.65.65,0,0,0,.62.74,2.41,2.41,0,0,0,1-.15v2.05a5,5,0,0,1-2,.39,2.34,2.34,0,0,1-2.34-1.75,5.62,5.62,0,0,1-3.89,1.75c-2.52,0-4.39-1.28-4.42-4s2-4.09,5.26-4.09a19.84,19.84,0,0,1,2.78.25V231c0-1.4-.89-2.17-2.66-2.14a10.47,10.47,0,0,0-4,.79Zm7.15,6a13.13,13.13,0,0,0-2.52-.15c-1.48.07-2.41.77-2.44,2.07a1.81,1.81,0,0,0,2.1,1.9,5.1,5.1,0,0,0,2.86-1Z"/><path d="M565.77,235.76a6.68,6.68,0,0,0,4.19,1.43c1.48,0,2.34-.45,2.34-1.51,0-2.51-7.47-.84-7.22-5.57.09-2.32,1.8-3.7,5.22-3.7a10.49,10.49,0,0,1,4.66,1.21l-1.08,2.17a7.25,7.25,0,0,0-3.7-1.06c-1.21,0-2.22.39-2.17,1.4.15,2.05,7.32.47,7.32,5.45,0,2.67-2.39,4-5.45,4a8.82,8.82,0,0,1-5.3-1.67Z"/><path d="M578.17,227.35a15.42,15.42,0,0,1,4.88-.94c3.9,0,5.33,1.92,5.33,4.93v5.23a.65.65,0,0,0,.62.74,2.45,2.45,0,0,0,1-.15v2.05a5.09,5.09,0,0,1-2,.39,2.33,2.33,0,0,1-2.34-1.75,5.67,5.67,0,0,1-3.9,1.75c-2.51,0-4.39-1.28-4.41-4s2-4.09,5.25-4.09a19.85,19.85,0,0,1,2.79.25V231c0-1.4-.89-2.17-2.67-2.14a10.39,10.39,0,0,0-4,.79Zm7.15,6a13,13,0,0,0-2.51-.15c-1.48.07-2.42.77-2.44,2.07a1.81,1.81,0,0,0,2.09,1.9,5.07,5.07,0,0,0,2.86-1Z"/><path d="M592.9,226.66v-1.75c0-2.64,1.38-4.29,4.26-4.29a6.74,6.74,0,0,1,2.44.44l-.39,2.14a7.24,7.24,0,0,0-1.31-.14c-1.36,0-1.92.56-1.92,2.34v1.26h2.81l-.4,2.46H596v10.33H592.9V229.12h-2v-2.46Z"/><path d="M611.54,235.9a5.76,5.76,0,0,1-5.57,3.7c-4.34,0-6.27-2.71-6.27-6.75s2.72-6.54,6.44-6.44c3,.07,5.74,2.34,5.45,6.46l-.05.39h-8.73c0,2.2.94,3.7,3.18,3.7a2.88,2.88,0,0,0,2.79-2Zm-3.13-4.21c.05-2-1-2.94-2.54-2.89a2.88,2.88,0,0,0-2.91,2.89Z"/><path d="M631.52,220.62v18.83H629l-.34-2.21a4.53,4.53,0,0,1-4.12,2.36c-3.48.05-5.55-2.83-5.55-6.63,0-4.64,3-6.56,5.52-6.56a4.11,4.11,0,0,1,4,2.44V221Zm-9.42,12.32c0,2.2.86,3.93,3.15,3.93s3.26-1.73,3.26-3.9c0-2.93-1.58-4-3.28-4S622.1,230.11,622.1,232.94Z"/><path d="M638.67,226.53v12.92h-3.08V229.07h-1.8v-2.54Zm-1.55-5a1.65,1.65,0,0,1,1.82,1.56,1.82,1.82,0,0,1-3.62,0A1.59,1.59,0,0,1,637.12,221.5Z"/><path d="M642.17,235.76a6.73,6.73,0,0,0,4.2,1.43c1.48,0,2.34-.45,2.34-1.51,0-2.51-7.47-.84-7.23-5.57.1-2.32,1.8-3.7,5.23-3.7a10.49,10.49,0,0,1,4.66,1.21l-1.08,2.17a7.3,7.3,0,0,0-3.7-1.06c-1.21,0-2.22.39-2.17,1.4.15,2.05,7.32.47,7.32,5.45,0,2.67-2.39,4-5.45,4a8.82,8.82,0,0,1-5.3-1.67Z"/><path d="M658.21,222.88v3.78h3.25l-.42,2.46h-2.83V235c0,1.41.64,2,1.67,2a5.5,5.5,0,0,0,2-.57l.57,2.34a7.94,7.94,0,0,1-3.28.84c-3,0-4-2-4-4.14v-6.34h-1.8v-2.46h1.95l.37-3.43Z"/><path d="M664.22,227.35a15.43,15.43,0,0,1,4.89-.94c3.89,0,5.32,1.92,5.32,4.93v5.23a.65.65,0,0,0,.62.74,2.41,2.41,0,0,0,1-.15v2.05a5,5,0,0,1-2,.39,2.34,2.34,0,0,1-2.34-1.75,5.64,5.64,0,0,1-3.89,1.75c-2.52,0-4.39-1.28-4.42-4s2-4.09,5.25-4.09a19.85,19.85,0,0,1,2.79.25V231c0-1.4-.89-2.17-2.66-2.14a10.41,10.41,0,0,0-4,.79Zm7.16,6a13.13,13.13,0,0,0-2.52-.15c-1.48.07-2.42.77-2.44,2.07a1.81,1.81,0,0,0,2.1,1.9,5.1,5.1,0,0,0,2.86-1Z"/><path d="M680.6,226.53l.47,2.3a4.76,4.76,0,0,1,4.41-2.42c3,0,4.49,2,4.49,4.61v8.43h-3.06V232c0-2-.74-3-2.41-3-2.35,0-3.26,1.9-3.26,4v6.51h-3.06V226.53Z"/><path d="M704.33,235.83c-.84,2.64-3,3.77-5.63,3.77-4.24,0-6.06-3.15-6.06-6.61,0-4.21,2.61-6.51,6.14-6.58,3.1-.07,5,1.53,5.5,3.8l-2.84.91a2.55,2.55,0,0,0-2.61-2.12c-1.78,0-3.13,1.31-3.13,3.94,0,2.1.78,4,3.08,4a2.6,2.6,0,0,0,2.71-2.05Z"/><path d="M718.14,235.9a5.77,5.77,0,0,1-5.58,3.7c-4.34,0-6.26-2.71-6.26-6.75s2.71-6.54,6.44-6.44c3,.07,5.74,2.34,5.45,6.46l-.05.39h-8.73c0,2.2.94,3.7,3.18,3.7a2.88,2.88,0,0,0,2.79-2ZM715,231.69c0-2-1-2.94-2.54-2.89a2.88,2.88,0,0,0-2.91,2.89Z"/><path d="M547.27,260.57v-1.75c0-2.64,1.38-4.29,4.26-4.29A6.74,6.74,0,0,1,554,255l-.39,2.15a6.25,6.25,0,0,0-1.31-.15c-1.35,0-1.92.57-1.92,2.34v1.26h2.81l-.39,2.47h-2.42v10.33h-3.08V263h-2v-2.47Z"/><path d="M557.6,260.45l.57,2.66c.59-2,2.09-2.84,4.19-2.79a5.12,5.12,0,0,1,1.33.23l-.47,2.68a5.29,5.29,0,0,0-1.85-.24c-2.26.07-3.13,1.82-3.13,3.89v6.49h-3.06V260.45Z"/><path d="M571.12,260.32c3.23,0,6,2.2,6,6.61,0,3.63-2.15,6.59-6.17,6.59-4.36,0-6.16-3-6.16-6.59C564.83,262.52,567.62,260.32,571.12,260.32ZM568,266.93c0,2.05.69,4,3,4,2.1,0,3-1.95,3-4,0-2.86-1.41-4-3-4C569.42,262.91,568,264,568,266.93Z"/><path d="M582.31,260.45l.45,2.29a4.3,4.3,0,0,1,4-2.44,3.77,3.77,0,0,1,3.85,2.39,4.53,4.53,0,0,1,4.17-2.39c3,0,4.21,2,4.21,4.63v8.44h-3.05v-7.45c0-2-.47-3-2.15-3-2.22,0-2.81,1.67-2.81,3.57v6.91h-3.06v-7.45c0-2-.47-3-2.14-3-2.37,0-2.84,1.9-2.84,4v6.51h-3.06V260.45Z"/><path d="M611.22,256.8v3.77h3.26l-.42,2.47h-2.84V269c0,1.41.64,1.95,1.68,1.95a5.76,5.76,0,0,0,2-.56l.56,2.34a8.1,8.1,0,0,1-3.28.84c-3,0-4-2-4-4.15V263h-1.8v-2.47h1.95l.37-3.43Z"/><path d="M620.42,254.53v8a4.83,4.83,0,0,1,4.24-2.2c3,0,4.49,1.95,4.49,4.61v8.44h-3.06v-7.45c0-2-.74-3-2.42-3-2.34,0-3.25,1.9-3.25,4v6.51h-3.06V254.9Z"/><path d="M643.55,269.82a5.76,5.76,0,0,1-5.57,3.7c-4.34,0-6.26-2.72-6.26-6.76s2.71-6.54,6.43-6.44c3,.08,5.75,2.35,5.45,6.46l-.05.4h-8.73c0,2.19.94,3.7,3.18,3.7a2.87,2.87,0,0,0,2.79-2.05Zm-3.13-4.22c.05-2-1-2.93-2.54-2.88A2.87,2.87,0,0,0,635,265.6Z"/><path d="M654.51,254.53v8.21a4.42,4.42,0,0,1,4.31-2.42c2.44.08,5.06,1.73,5.06,6.49,0,3.9-2,6.71-5.45,6.71a4.28,4.28,0,0,1-4.07-2.37l-.42,2.22h-2.49V254.92Zm-.13,12.35c0,2.22.82,4,3.26,4,2,0,3.1-1.51,3.1-4.05,0-3-1.5-3.94-3.13-3.94S654.38,264.29,654.38,266.88Z"/><path d="M672.39,260.32c3.23,0,6,2.2,6,6.61,0,3.63-2.15,6.59-6.17,6.59-4.36,0-6.16-3-6.16-6.59C666.1,262.52,668.88,260.32,672.39,260.32Zm-3.09,6.61c0,2.05.7,4,3,4,2.1,0,3-1.95,3-4,0-2.86-1.41-4-3-4S669.3,264,669.3,266.93Z"/><path d="M681.34,261.26a15.42,15.42,0,0,1,4.88-.94c3.9,0,5.33,1.93,5.33,4.94v5.22a.65.65,0,0,0,.62.74,2.45,2.45,0,0,0,1-.15v2.05a5.05,5.05,0,0,1-2,.4,2.33,2.33,0,0,1-2.34-1.76,5.63,5.63,0,0,1-3.9,1.76c-2.51,0-4.39-1.29-4.41-4s2-4.1,5.25-4.1a19.85,19.85,0,0,1,2.79.25v-.77c0-1.4-.89-2.17-2.67-2.14a10.39,10.39,0,0,0-4,.79Zm7.15,6a13.88,13.88,0,0,0-2.51-.15c-1.48.08-2.42.77-2.44,2.08a1.8,1.8,0,0,0,2.09,1.89,5.07,5.07,0,0,0,2.86-1Z"/><path d="M697.72,260.45l.57,2.66c.59-2,2.09-2.84,4.19-2.79a5.28,5.28,0,0,1,1.33.23l-.47,2.68a5.33,5.33,0,0,0-1.85-.24c-2.27.07-3.13,1.82-3.13,3.89v6.49H695.3V260.45Z"/><path d="M717.35,254.53v18.84h-2.57l-.34-2.22a4.53,4.53,0,0,1-4.12,2.37c-3.48.05-5.55-2.84-5.55-6.64,0-4.63,3-6.56,5.53-6.56a4.12,4.12,0,0,1,4,2.44v-7.84Zm-9.42,12.33c0,2.19.86,3.92,3.15,3.92s3.26-1.73,3.26-3.9c0-2.93-1.58-4-3.28-4S707.93,264,707.93,266.86Z"/><path d="M97.35,227.85a68.34,68.34,0,0,0,2.26,33.88,81.51,81.51,0,0,0,15.44,27A88.38,88.38,0,0,0,127,300.4c1.49,1.2,3.62-.91,2.12-2.12-15.47-12.49-27.31-30.61-29.53-50.65a65,65,0,0,1,.69-19c.35-1.89-2.54-2.69-2.89-.8Z"/><path d="M122.78,285.81c1.69,4.63,2.92,9.41,4.25,14.16l1.45-1.9c-2.49.06-5,.24-7.47.34-2.31.1-4.62.1-6.94.2-1.92.09-1.93,3.09,0,3,2.32-.1,4.63-.1,6.94-.2,2.49-.1,5-.28,7.47-.34a1.52,1.52,0,0,0,1.44-1.9c-1.33-4.75-2.56-9.52-4.24-14.16a1.55,1.55,0,0,0-1.85-1.05,1.52,1.52,0,0,0-1,1.85Z"/><path d="M75.44,148.57v17.26H72.36V148.57Z"/><path d="M82.74,149.26V153H86l-.42,2.47H82.74v5.92c0,1.4.64,2,1.68,2a5.72,5.72,0,0,0,2-.57l.56,2.34a8.09,8.09,0,0,1-3.27.84c-3,0-4-2-4-4.14V155.5H77.88V153h2l.37-3.42Z"/><path d="M96.48,152.91l.44,2.29a4.34,4.34,0,0,1,4-2.44,3.77,3.77,0,0,1,3.85,2.39,4.55,4.55,0,0,1,4.16-2.39c3,0,4.22,2,4.22,4.64v8.43h-3.06v-7.45c0-2-.47-3-2.14-3-2.22,0-2.81,1.68-2.81,3.58v6.9h-3.06v-7.45c0-2-.47-3-2.15-3-2.36,0-2.83,1.9-2.83,4v6.51H94V152.91Z"/><path d="M119.15,152.91v7.45c0,2,.79,3,2.59,3,2.34,0,3.3-2.42,3.3-4.86v-5.62h3.06v12.92h-2.44l-.45-2.81a4.7,4.7,0,0,1-4.46,3c-3.16,0-4.66-1.95-4.66-5.2v-7.87Z"/><path d="M131.6,162.13a6.72,6.72,0,0,0,4.19,1.43c1.48,0,2.35-.44,2.35-1.5,0-2.52-7.47-.84-7.23-5.57.1-2.32,1.8-3.7,5.23-3.7A10.49,10.49,0,0,1,140.8,154l-1.08,2.17a7.3,7.3,0,0,0-3.7-1.06c-1.21,0-2.22.39-2.17,1.4.15,2.05,7.32.47,7.32,5.45,0,2.66-2.39,4-5.45,4a8.86,8.86,0,0,1-5.3-1.68Z"/><path d="M147.63,149.26V153h3.26l-.42,2.47h-2.84v5.92c0,1.4.65,2,1.68,2a5.72,5.72,0,0,0,1.95-.57l.57,2.34a8.21,8.21,0,0,1-3.28.84c-3,0-4-2-4-4.14V155.5h-1.8V153h1.94l.37-3.42Z"/><path d="M162,147v8.21a4.39,4.39,0,0,1,4.31-2.41c2.44.07,5.06,1.72,5.06,6.48,0,3.9-2,6.71-5.45,6.71a4.28,4.28,0,0,1-4.07-2.37l-.42,2.22h-2.49V147.39Zm-.12,12.36c0,2.22.81,4,3.25,4,2,0,3.11-1.5,3.11-4,0-3-1.51-4-3.13-4C163.32,155.35,161.87,156.76,161.87,159.35Z"/><path d="M185.39,162.28a5.76,5.76,0,0,1-5.57,3.7c-4.34,0-6.26-2.71-6.26-6.76s2.71-6.53,6.43-6.43c3,.07,5.75,2.34,5.45,6.46l-.05.39h-8.73c0,2.2.94,3.7,3.18,3.7a2.87,2.87,0,0,0,2.79-2.05Zm-3.13-4.22c.05-2-1-2.93-2.54-2.88a2.87,2.87,0,0,0-2.91,2.88Z"/><path d="M196.35,147v8.21a4.39,4.39,0,0,1,4.31-2.41c2.44.07,5.06,1.72,5.06,6.48,0,3.9-1.95,6.71-5.45,6.71a4.27,4.27,0,0,1-4.07-2.37l-.42,2.22h-2.49V147.39Zm-.13,12.36c0,2.22.82,4,3.26,4,2,0,3.1-1.5,3.1-4,0-3-1.5-4-3.13-4S196.22,156.76,196.22,159.35Z"/><path d="M214.23,152.79c3.23,0,6,2.19,6,6.61,0,3.62-2.15,6.58-6.17,6.58-4.36,0-6.16-3-6.16-6.58C207.94,155,210.72,152.79,214.23,152.79Zm-3.09,6.61c0,2,.69,4,3,4,2.1,0,3-1.95,3-4,0-2.87-1.41-4-3-4S211.14,156.49,211.14,159.4Z"/><path d="M226,147v14.62c0,1.39.62,1.76,1.53,1.76a2.42,2.42,0,0,0,1.28-.47l.57,2.19a5.35,5.35,0,0,1-2.79.89c-2.56,0-3.65-1.73-3.65-4.07V147.36Z"/><path d="M242.49,147v18.84h-2.56l-.35-2.22a4.52,4.52,0,0,1-4.12,2.37c-3.47.05-5.55-2.84-5.55-6.63,0-4.64,3-6.56,5.53-6.56a4.1,4.1,0,0,1,4,2.44v-7.84Zm-9.42,12.33c0,2.2.86,3.92,3.16,3.92s3.25-1.72,3.25-3.89c0-2.94-1.58-4-3.28-4S233.07,156.49,233.07,159.32Z"/><path d="M246.61,165.49a1.42,1.42,0,0,1-1.63-1.58,1.6,1.6,0,0,1,1.73-1.53c1.7,0,2.37,1.33,2.24,2.91-.19,2.34-2,3.28-4,3.3v-1.33c1.16,0,2-.61,2-1.36C246.91,165.71,246.61,165.49,246.61,165.49Z"/><path d="M259.73,147v8a4.82,4.82,0,0,1,4.24-2.19c3,0,4.49,2,4.49,4.61v8.43H265.4v-7.45c0-2-.74-3-2.41-3-2.35,0-3.26,1.9-3.26,4v6.51h-3.06V147.36Z"/><path d="M275.54,152.91v12.92h-3.08V155.45h-1.8v-2.54Zm-1.55-5a1.6,1.6,0,1,1,0,3.16,1.63,1.63,0,0,1-1.8-1.63A1.59,1.59,0,0,1,274,147.88Z"/><path d="M290.73,152.91v11c0,4.29-1.67,6.88-6.41,6.88a13.36,13.36,0,0,1-5.28-1.11l.72-2.31a11.13,11.13,0,0,0,4.22,1c2.78,0,3.69-1.38,3.69-3.5v-1.14a4.44,4.44,0,0,1-4,2.05c-3.48.07-5.48-2.57-5.48-6.36,0-4.64,3-6.56,5.52-6.56a4.28,4.28,0,0,1,4.1,2.34l.32-2.22Zm-9.32,6.41c0,2.2.86,3.92,3.16,3.92s3.2-1.72,3.2-3.89c0-2.94-1.55-4-3.23-4S281.41,156.49,281.41,159.32Z"/><path d="M297,147v8a4.81,4.81,0,0,1,4.24-2.19c3,0,4.49,2,4.49,4.61v8.43h-3.06v-7.45c0-2-.74-3-2.41-3-2.35,0-3.26,1.9-3.26,4v6.51h-3.06V147.36Z"/><path d="M72.38,187.64a15.49,15.49,0,0,1,4.89-.94c3.89,0,5.32,1.92,5.32,4.93v5.23a.65.65,0,0,0,.62.74,2.41,2.41,0,0,0,1-.15v2.05a5,5,0,0,1-2,.39,2.34,2.34,0,0,1-2.34-1.75,5.64,5.64,0,0,1-3.89,1.75c-2.52,0-4.39-1.28-4.42-4s2-4.09,5.25-4.09a19.85,19.85,0,0,1,2.79.25v-.77c0-1.4-.89-2.17-2.66-2.14a10.41,10.41,0,0,0-4,.79Zm7.16,6a14,14,0,0,0-2.52-.15c-1.48.08-2.42.77-2.44,2.07a1.81,1.81,0,0,0,2.1,1.9,5.1,5.1,0,0,0,2.86-1Z"/><path d="M88.76,186.82l.47,2.3a4.78,4.78,0,0,1,4.41-2.42c3,0,4.49,2,4.49,4.61v8.43H95.07V192.3c0-2-.74-3-2.41-3-2.35,0-3.26,1.89-3.26,4v6.5H86.34V186.82Z"/><path d="M113.32,180.91v18.83h-2.56l-.35-2.21a4.5,4.5,0,0,1-4.11,2.36c-3.48.05-5.55-2.83-5.55-6.63,0-4.64,3-6.56,5.52-6.56a4.09,4.09,0,0,1,4,2.44V181.3Zm-9.42,12.33c0,2.19.87,3.92,3.16,3.92s3.26-1.73,3.26-3.9c0-2.93-1.58-4-3.28-4S103.9,190.4,103.9,193.24Z"/><path d="M132.86,196.12c-.84,2.64-3,3.77-5.62,3.77-4.24,0-6.07-3.15-6.07-6.61,0-4.21,2.61-6.51,6.14-6.58,3.11-.07,5,1.53,5.5,3.8l-2.84.91a2.54,2.54,0,0,0-2.61-2.12c-1.78,0-3.13,1.31-3.13,4,0,2.09.79,4,3.08,4a2.6,2.6,0,0,0,2.71-2Z"/><path d="M141.15,186.7c3.23,0,6,2.2,6,6.61,0,3.62-2.15,6.58-6.17,6.58-4.36,0-6.16-3-6.16-6.58C134.86,188.9,137.65,186.7,141.15,186.7Zm-3.09,6.61c0,2.05.69,4,3,4,2.1,0,3-1.94,3-4,0-2.86-1.41-4-3-4C139.45,189.29,138.06,190.4,138.06,193.31Z"/><path d="M152.32,186.82l.47,2.3a4.78,4.78,0,0,1,4.41-2.42c3,0,4.49,2,4.49,4.61v8.43h-3.06V192.3c0-2-.74-3-2.41-3-2.35,0-3.26,1.89-3.26,4v6.5H149.9V186.82Z"/><path d="M165.66,187V185.2c0-2.64,1.38-4.29,4.25-4.29a6.9,6.9,0,0,1,2.12.32l-.47,2.19c-.1,0-.5-.07-.89-.07-1.36,0-1.92.56-1.92,2.34V187H176v12.79h-3.06V189.41h-4.16v10.33h-3.09V189.41h-2V187Zm8.81-5.16a1.65,1.65,0,0,1,1.8,1.56,1.62,1.62,0,0,1-1.8,1.6,1.64,1.64,0,0,1-1.83-1.63C172.64,182.48,173.28,181.79,174.47,181.79Z"/><path d="M191.21,180.91v18.83h-2.56l-.35-2.21a4.5,4.5,0,0,1-4.11,2.36c-3.48.05-5.55-2.83-5.55-6.63,0-4.64,3-6.56,5.52-6.56a4.09,4.09,0,0,1,4,2.44V181.3Zm-9.42,12.33c0,2.19.87,3.92,3.16,3.92s3.26-1.73,3.26-3.9c0-2.93-1.58-4-3.28-4S181.79,190.4,181.79,193.24Z"/><path d="M205.69,196.19a5.75,5.75,0,0,1-5.57,3.7c-4.34,0-6.26-2.71-6.26-6.75s2.71-6.54,6.43-6.44c3,.07,5.75,2.34,5.45,6.46l-.05.4H197c0,2.19.94,3.69,3.18,3.69a2.87,2.87,0,0,0,2.79-2ZM202.56,192c.05-2-1-2.94-2.54-2.89a2.88,2.88,0,0,0-2.91,2.89Z"/><path d="M210.85,186.82l.47,2.3a4.78,4.78,0,0,1,4.41-2.42c3,0,4.49,2,4.49,4.61v8.43h-3.06V192.3c0-2-.74-3-2.42-3-2.34,0-3.25,1.89-3.25,4v6.5h-3.06V186.82Z"/><path d="M227.3,183.17V187h3.25l-.42,2.46H227.3v5.92c0,1.41.64,1.95,1.68,1.95a5.43,5.43,0,0,0,1.94-.57l.57,2.34a7.94,7.94,0,0,1-3.28.84c-3,0-4-2-4-4.14v-6.34h-1.8V187h1.95l.37-3.43Z"/><path d="M97.35,227.85a68.34,68.34,0,0,0,2.26,33.88,81.51,81.51,0,0,0,15.44,27A88.38,88.38,0,0,0,127,300.4c1.49,1.2,3.62-.91,2.12-2.12-15.47-12.49-27.31-30.61-29.53-50.65a65,65,0,0,1,.69-19c.35-1.89-2.54-2.69-2.89-.8Z"/><path d="M122.78,285.81c1.69,4.63,2.92,9.41,4.25,14.16l1.45-1.9c-2.49.06-5,.24-7.47.34-2.31.1-4.62.1-6.94.2-1.92.09-1.93,3.09,0,3,2.32-.1,4.63-.1,6.94-.2,2.49-.1,5-.28,7.47-.34a1.52,1.52,0,0,0,1.44-1.9c-1.33-4.75-2.56-9.52-4.24-14.16a1.55,1.55,0,0,0-1.85-1.05,1.52,1.52,0,0,0-1,1.85Z"/><path class="cls-7" d="M95.79,61.4A36.74,36.74,0,0,1,104.16,38a34.44,34.44,0,1,0,.11,46.9A36.78,36.78,0,0,1,95.79,61.4ZM87.2,75.66H70.92L71,73.39l4.46-.58c.58,0,.81-.23.81-1,.08-10.05,0-19.6,0-19.6l-5.62,1.08c-.19-.31-1.12-2.46-.46-2.73l10.35-4,1,1s-.12,20.87,0,24.37c0,.77.19,1,.73,1l5.08.54Z"/><circle cx="130" cy="61.53" r="34.44"/><path class="cls-8" d="M120.65,51a12.43,12.43,0,0,1,9.24-4.85c5.89,0,9.08,3,8.74,8.51-.47,7-8,13.59-12.63,17.55l8.31-.08c1.78-.15,3-2.54,3.82-4.73,0,0,1.73.5,2,1-.66,3.16-1.43,7.12-2.2,7.12,0,0-3.69-.27-11.47-.27a25.63,25.63,0,0,0-4.93.31l-1.34-2.46c7.77-7.9,12.39-13.63,13-18.71.46-3.66-2-4.82-4.35-4.66a9.73,9.73,0,0,0-6.74,3.92C121.92,53.39,120.19,51.55,120.65,51Z"/><path d="M184,52.13l8.43,15.27V52.13h3.75v21h-4.59L183.3,58.34V73.13h-3.75v-21Z"/><path d="M213.6,68.81a7,7,0,0,1-6.78,4.5c-5.28,0-7.62-3.3-7.62-8.22s3.3-8,7.83-7.83c3.69.09,7,2.85,6.63,7.86l-.06.48H203c0,2.67,1.14,4.5,3.87,4.5a3.5,3.5,0,0,0,3.39-2.49Zm-3.81-5.13c.06-2.43-1.26-3.57-3.09-3.51a3.5,3.5,0,0,0-3.54,3.51Z"/><path d="M219.69,57.41l3.15,6.18,3.3-6.18h4l-4.35,7.8,4.53,7.92h-4.26L222.78,67l-3.45,6.12h-4.14L220,65.27l-4.29-7.86Z"/><path d="M238.11,53v4.59h4l-.51,3h-3.45v7.2c0,1.71.78,2.37,2,2.37a6.83,6.83,0,0,0,2.37-.69l.69,2.85a9.82,9.82,0,0,1-4,1c-3.69,0-4.83-2.46-4.83-5V60.56H232.2v-3h2.37l.45-4.17Z"/><path d="M256.74,57.41V73.13H253V60.5H250.8V57.41Zm-1.89-6.12a2,2,0,0,1,2.22,1.89,2.22,2.22,0,0,1-4.41,0A1.93,1.93,0,0,1,254.85,51.29Z"/><path d="M261,68.63a8.15,8.15,0,0,0,5.1,1.74c1.8,0,2.85-.54,2.85-1.83,0-3.06-9.09-1-8.79-6.78.12-2.82,2.19-4.5,6.36-4.5a12.78,12.78,0,0,1,5.67,1.47l-1.32,2.64a8.9,8.9,0,0,0-4.5-1.29c-1.47,0-2.7.48-2.64,1.71.18,2.49,8.91.57,8.91,6.63,0,3.24-2.91,4.92-6.63,4.89a10.76,10.76,0,0,1-6.45-2Z"/><path d="M286.77,53v4.59h4l-.51,3h-3.45v7.2c0,1.71.78,2.37,2,2.37a6.83,6.83,0,0,0,2.37-.69l.69,2.85a9.82,9.82,0,0,1-4,1c-3.69,0-4.83-2.46-4.83-5V60.56h-2.19v-3h2.37l.45-4.17Z"/><path d="M294.09,58.4A18.74,18.74,0,0,1,300,57.26c4.74,0,6.48,2.34,6.48,6v6.36a.79.79,0,0,0,.75.9,3,3,0,0,0,1.23-.18v2.49a6.08,6.08,0,0,1-2.49.48,2.84,2.84,0,0,1-2.85-2.13,6.87,6.87,0,0,1-4.74,2.13c-3.06,0-5.34-1.56-5.37-4.83s2.46-5,6.39-5a24.49,24.49,0,0,1,3.39.3v-.93c0-1.71-1.08-2.64-3.24-2.61a12.68,12.68,0,0,0-4.86,1Zm8.7,7.35a16.62,16.62,0,0,0-3.06-.18c-1.8.09-2.94.93-3,2.52a2.21,2.21,0,0,0,2.55,2.31,6.17,6.17,0,0,0,3.48-1.26Z"/><path d="M314.79,50.21V64h1.74l3.66-6.45h4.2l-4.71,7.77,5.13,7.86h-4.29l-4-6.09h-1.77v6.09h-3.72V50.66Z"/><path d="M340.59,68.81a7,7,0,0,1-6.78,4.5c-5.28,0-7.62-3.3-7.62-8.22s3.3-8,7.83-7.83c3.69.09,7,2.85,6.63,7.86l-.06.48H330c0,2.67,1.14,4.5,3.87,4.5a3.5,3.5,0,0,0,3.39-2.49Zm-3.81-5.13c.06-2.43-1.26-3.57-3.09-3.51a3.5,3.5,0,0,0-3.54,3.51Z"/><path d="M349.68,63.56v3h-7.44v-3Z"/><path d="M359,57.26c3.93,0,7.35,2.67,7.35,8,0,4.41-2.61,8-7.5,8-5.31,0-7.5-3.6-7.5-8C351.33,59.93,354.72,57.26,359,57.26Zm-3.75,8c0,2.49.84,4.86,3.66,4.86,2.55,0,3.69-2.37,3.69-4.86,0-3.48-1.71-4.89-3.6-4.89C356.91,60.41,355.23,61.76,355.23,65.3Z"/><path d="M370.56,57.56V55.43c0-3.21,1.68-5.22,5.19-5.22a8.28,8.28,0,0,1,3,.54l-.48,2.61a7.71,7.71,0,0,0-1.59-.18c-1.65,0-2.34.69-2.34,2.85v1.53h3.42l-.48,3h-2.94V73.13h-3.75V60.56H368.1v-3Z"/><path d="M381.12,57.56V55.43c0-3.21,1.68-5.22,5.19-5.22a8.28,8.28,0,0,1,3,.54l-.48,2.61a7.71,7.71,0,0,0-1.59-.18c-1.65,0-2.34.69-2.34,2.85v1.53h3.42l-.48,3h-2.94V73.13h-3.75V60.56h-2.46v-3Z"/></svg>