<svg id="Layer_1" data-name="Layer 1" xmlns="http://www.w3.org/2000/svg" viewBox="0 0 780 1051.14"><defs><style>.cls-1{fill:#c6946f;stroke-width:0.23px;}.cls-1,.cls-2,.cls-4,.cls-5,.cls-6,.cls-7{stroke:#fff;stroke-miterlimit:10;}.cls-2,.cls-3,.cls-6,.cls-7{fill:#d4a47c;}.cls-2{stroke-width:0.28px;}.cls-4{fill:#005058;stroke-width:0.54px;}.cls-5{fill:#fff171;stroke-width:0.3px;}.cls-6{stroke-width:0.41px;}.cls-7{stroke-width:0.31px;}.cls-8{font-size:24.66px;}.cls-18,.cls-8{font-family:ABCSansBold, ABCSans;}.cls-9{letter-spacing:-0.01em;}.cls-10{letter-spacing:-0.03em;}.cls-11{letter-spacing:0.01em;}.cls-12{letter-spacing:-0.02em;}.cls-13{letter-spacing:-0.01em;}.cls-14{letter-spacing:-0.02em;}.cls-15{letter-spacing:-0.02em;}.cls-16,.cls-17{fill:#fff;}.cls-16{opacity:0.7;}.cls-17{font-size:38.5px;font-family:ABCSerifBold, ABCSerif;}.cls-18{font-size:30px;}.cls-19{letter-spacing:-0.01em;}.cls-20{letter-spacing:-0.02em;}.cls-21{letter-spacing:-0.01em;}.cls-22{letter-spacing:0em;}</style></defs><path class="cls-1" d="M430.7,353.82l-.16-.05-30.27-7.2c-9.11-2.16-18.48-4.69-27.66-5.45-15.4-1.27-30.14-6.33-45-11.6l.2-.09a.71.71,0,0,1-.37,0l-1.3-.46-.14-.06c-3.21-1.51-9.36-5.79-10.65-6.47-7.15-3.77-14.92-7.79-23.24-8.83-9.17-1.14-18.48.43-27.64-1.05-5.92-1-11.46,2.64-17.48,1.64-2.59-.43-6.63-.54-9.08.43-3.33,1.32-5.47,5.46-.32,5.61a13.83,13.83,0,0,1,3.92.24c3.25,1.06,4,5.5,6.83,7.42a10.66,10.66,0,0,0,4,1.36c4.64.93,9.48,1.45,14.05,2.49,2.5.57,4.29,2,6.6,2.92,4.24,1.64,7.1,5.89,10.09,9.26.45.5.93,1,1.43,1.43,4.08,3.78,5.29,5.3,8.23,5.17a8.5,8.5,0,0,0,6.08-3.16,22.51,22.51,0,0,1,2.63-2.79l1.13-1c7.93,3.05,25.17,12.38,30.7,15.53,12,6.83,23.57,14.05,35,21.65l.07.05c.8.47,13.69,2.42,14.49,2.88-10.49,1.4-20.77-1.35-31.08,1.74-14.54,4.36-28.9,9.17-43.29,14C294.72,404.22,279.3,408,268,417.52c-10.77,9.09-18.1,21.54-20.15,34.23-1.3,8-.48,16.23,3.35,23,5.3,9.37,24.76,26.23,36.18,28.73,25.54,5.59,32.19-16.55,49.14-21.55,25.1-7.42,22-7,44.9-20.3,11.81-6.84,28.31-19.82,41.48-27.42,10.12-5.83,25.83-15.69,32.66-25.26,9.6-10.08,7.44-36.29-3.62-44.56-5.1-3.82-11.43-5.34-16.87-8.58l-1.55-.92-.23-.11Z"/><path class="cls-2" d="M482.69,512.16c1.05.7-8.5,5.11-8.41,6.59s-1.76,1.51-2.85,1.88c-.9.31-1.54,1-2.42,1.37a8,8,0,0,0-1.9.79,6.45,6.45,0,0,0-2.47,4.05c-.13,1.84,1.34,3.31,1.45,5.08a5.75,5.75,0,0,1-.51,2.21,2.75,2.75,0,0,1,1.71.31c3.62,1.9,5.3,5.67,8,8.54a19.47,19.47,0,0,0,2.71-2.35,30,30,0,0,1,4.37-3.57c1.4-1,2.34-2.2,4-2.19,1.3,0,2.44.76,3.73.76a25,25,0,0,1,2.61-.18,32.68,32.68,0,0,1,4,.93c3,.7,6.09,1.13,9.11,1.7a25.41,25.41,0,0,0,9.83.09,20.49,20.49,0,0,0,8.9-4.49,45.26,45.26,0,0,0,5.63-5.36,77.63,77.63,0,0,0,6.49-9.29c2.19-3.65,3.31-8.53,3.81-12.7.37-3.1,1.2-6,1.22-9.19a26.21,26.21,0,0,0-2-9.27c-.94-2.56-1-5.06-1.22-7.68-.12-1.32-.81-2.51-1-3.89a30.5,30.5,0,0,0-.87-4.84c-.94-3-3.28-4.4-5.76-6-1.65-1.08-3.52-1.52-5.17-2.63a14.41,14.41,0,0,0-2.57-1.3c-1-.41-1.77-1.06-2.77-1.48-.49-.2-1-.17-1.47-.36s-.68-.61-1.23-.71a20.58,20.58,0,0,0-3.3.23,27.75,27.75,0,0,1-3.87,0,2.93,2.93,0,0,0-.42,0c0-.06-.07-.2-.33-.45a13.25,13.25,0,0,1-1.76-2.37c-1.43-2.08-1.18-2.5-3-4.72a29.08,29.08,0,0,0-3.83-3.83,3.58,3.58,0,0,0-5.44,1.06,1.91,1.91,0,0,1-1,.9,5,5,0,0,1-3.58.63,19.19,19.19,0,0,0-2.94-1.18,19,19,0,0,0-5.82-.11c-1.58.22-2.32.91-3.68.11-1-.59-1.95-1.23-2.9-1.85-1.79-1.18-3.79-1.73-5.59-.23a15.73,15.73,0,0,0-4.81,9.44c-1.71,29.35-9.93,17.89-13.74,27.48-2.6,6.56-5.88,17.19-12.1,20.63"/><path d="M515.5,470.67a10.07,10.07,0,0,1-.79.81c-.15.15-.49.46-.73.44s-.1,0-.1-.11.13-.21.17-.28a3.05,3.05,0,0,0,.13-.32c.14-.43.24-.88.38-1.32.08-.26.13-.51.23-.76.63-1.53,1.78-2.91,2.22-4.49a7.43,7.43,0,0,0-.57-4.58c.54-.06,2.28-.29,2.55.25.39.75-.26,2.9-.19,3.77a6.86,6.86,0,0,1-1.36,4.54C516.86,469.36,516.11,470,515.5,470.67Z"/><path d="M480.89,544.72c2.15-1.49,4.18-3.47,6.48-4.68,7.31-3.85,16.16.57,24.41.22,6.8-.3,13.13-3.94,17.82-8.86s7.93-11,10.69-17.25c2.55-5.76,4.77-11.79,5.17-18.07.26-4.24-.82-16.65-6.33-17.77s-11.85,7.06-18,6.75c-3.13-.16-6.14-1.77-9.24-1.37a26,26,0,0,0-4.51,1.38c-2.71.86-5.62,1-8.27,2.07s-5.13,3.4-5,6.24a11.7,11.7,0,0,1,5.32,2.87c1.38,1.51.34,2.33-.87,4-1.67,2.25-3.68,3.24-6.06,1.77s-4.59-3.61-7.39-3.78c-3-.18-5.61,2-7.85,4-3.83,3.51-7.88,11.92-11.71,15.43,1.31,2.83.44,2.2,1.59,5.11.86,2.19,4.88.15,3.59,2.13a19.29,19.29,0,0,0-2.92,12.73c.51,4.15,3.13,8.62,7.3,9A8.77,8.77,0,0,0,480.89,544.72Z"/><path d="M538.56,477.57l.12,1,.23,0A3.24,3.24,0,0,0,538.56,477.57Z"/><path d="M484.45,531.86a7.47,7.47,0,0,0,1.61,3.17,12.46,12.46,0,0,1,1.62,3.83,6.44,6.44,0,0,1-.26,4.69,7,7,0,0,1-3,2.94,6.73,6.73,0,0,1-3.66,1c-1.33-.26-2.92-1.81-4.06-2.51a6.93,6.93,0,0,1-2.62-4,6.22,6.22,0,0,1,0-4.88,20.6,20.6,0,0,1,8.07-7.59c1.58-.91,4-.39,5.69.24s4.19,2.15,5.14,3.7c1.83,3-.49,6.64-2.62,8.7-1.28,1.24-2.68,2.36-4.59,2.09a10.22,10.22,0,0,1-4.19-1.9,19.19,19.19,0,0,1-4.22-3.13A6.79,6.79,0,0,1,475.7,536a22.06,22.06,0,0,0-1.16-2.87,8.58,8.58,0,0,1-1-3.34,3.36,3.36,0,0,1,.72-2.54,11.1,11.1,0,0,1,2.07-2.41c.5-.44,1.15-.68,1.69-1.09.92-.69,1-.66,2.1,0"/><path d="M486.78,536.57c1.49.21,2.26,1.31,3,2.5a6.59,6.59,0,0,0,.81,1.19,1.94,1.94,0,0,1,.52,2c-.33,1.89-2,3.44-3.27,4.73a6.82,6.82,0,0,1-1.76,1.46c-.64.31-1.38.38-2,.69-.37.18-.61.49-1,.59s-.88,0-1.33.12a2.45,2.45,0,0,1-1.19.24,9.29,9.29,0,0,1-1.27-.28,5.11,5.11,0,0,1-2.2-.85,13.62,13.62,0,0,1-1.73-1.75,6.51,6.51,0,0,1-.58-.95c-.23-.4-.58-.69-.82-1.08a6.52,6.52,0,0,1-.44-3.63c.1-2.33,1.7-4.54,3-6.4a12,12,0,0,1,3.9-3.53,29.25,29.25,0,0,1,2.7-1.16,10.52,10.52,0,0,1,2.58-.89,8.71,8.71,0,0,1,3,.12,19.61,19.61,0,0,1,3.14.73,6.53,6.53,0,0,1,2.49,1.92,8,8,0,0,0,.93,1.39,6,6,0,0,1,1.21,1.26,6.9,6.9,0,0,1,.95,5.84,21.76,21.76,0,0,1-1.67,4.2c-.5.83-1,1.62-1.56,2.45a6.19,6.19,0,0,1-2.24,2.1,4.25,4.25,0,0,1-1.67.7,5.46,5.46,0,0,1-1.72.27c-1.67-.3-2.73-1.57-4.22-2.13a6.21,6.21,0,0,1-.9-.28c-.44-.24-.85-.55-1.28-.82a10.75,10.75,0,0,1-2-1.42,7.05,7.05,0,0,1-1.6-2.25,3.75,3.75,0,0,1,0-3.11,10.27,10.27,0,0,1,1.61-3.51,13.41,13.41,0,0,1,3.93-3.3A10.27,10.27,0,0,1,489,532a11.32,11.32,0,0,1,2.73,0,11.58,11.58,0,0,1,2.26,1c1.57.77,2.37,2.54,3.19,4,.16.28.67.89.67,1.23s-.36.62-.49.84"/><path d="M474.69,521.5c1.49.21,2.27,1.31,3,2.5a6.17,6.17,0,0,0,.82,1.19,1.93,1.93,0,0,1,.51,1.95c-.32,1.89-2,3.44-3.27,4.73a6.5,6.5,0,0,1-1.76,1.46c-.64.31-1.37.38-2,.69-.36.18-.6.49-1,.59s-.89,0-1.34.12a2.39,2.39,0,0,1-1.18.24,9.11,9.11,0,0,1-1.28-.28,5.07,5.07,0,0,1-2.19-.85,14.38,14.38,0,0,1-1.74-1.75,6.46,6.46,0,0,1-.57-1c-.23-.4-.59-.69-.82-1.08a6.52,6.52,0,0,1-.44-3.63c.1-2.33,1.69-4.54,3-6.4a12.06,12.06,0,0,1,3.9-3.53c.89-.46,1.79-.79,2.71-1.16a10.24,10.24,0,0,1,2.58-.89,8.65,8.65,0,0,1,3,.12,19.73,19.73,0,0,1,3.15.73,6.57,6.57,0,0,1,2.48,1.92,8.7,8.7,0,0,0,.94,1.39,6,6,0,0,1,1.2,1.26,6.87,6.87,0,0,1,1,5.84,21.76,21.76,0,0,1-1.67,4.2c-.5.83-1.05,1.62-1.56,2.45a6.27,6.27,0,0,1-2.24,2.1,4.25,4.25,0,0,1-1.67.7,5.52,5.52,0,0,1-1.73.27c-1.67-.3-2.72-1.57-4.22-2.13a6.21,6.21,0,0,1-.9-.28c-.43-.24-.85-.55-1.27-.82a10.49,10.49,0,0,1-2-1.42,7,7,0,0,1-1.59-2.25,3.75,3.75,0,0,1,0-3.11,10.09,10.09,0,0,1,1.61-3.51,13.41,13.41,0,0,1,3.93-3.3,10.19,10.19,0,0,1,4.93-1.7,11.33,11.33,0,0,1,2.73,0,11.49,11.49,0,0,1,2.25,1c1.57.77,2.38,2.54,3.2,4,.16.28.67.89.67,1.23s-.36.62-.49.84"/><path class="cls-2" d="M494.18,490.13c5.24-1.75,8.27,6.54,6.13,10.12a6.85,6.85,0,0,1-9,2.33c-3.07-1.77-4.3-5.71-7.25-7.68-1.56-1-3.6-1.54-4.58-3.13s.93-4.37,2.32-3.11"/><path class="cls-3" d="M478.88,497.25c-2-3.1-16.72-8.41-19.65-10.54-2.58-1.87-5.85-2.7-8.78-3.85-2.16-.85-4.45-.86-6.63-1.61-1.27-.44-2.54-.51-3.81-1a10.19,10.19,0,0,0-3.05-.59c-1.95-.16-3.88-.4-5.83-.57-1.19-.11-2.41,0-3.59-.19-3.41-.53-6.83-.17-10.29-.29-3.08-.1-6.18-.14-9.21-.47-2.35-.26-4.51.27-6.81.5-1.81.18-2.61.11-4.23.95a16.82,16.82,0,0,1-3.17.75,28.57,28.57,0,0,0-3.36,1.48c-2.85,1.27-5.76,2.43-8.63,3.66-4.26,1.84-8.93,2.69-13.33,4.12-3.87,1.26-7.73,2.59-11.67,3.62-5.57,1.45-10.86,3.57-16.37,5.24-8.65,2.62-16.58,6.77-24.41,11.2a56.6,56.6,0,0,0-6.66,3.87c-1.93,1.46-17.27-5.22-18.85-3.4-6.45,7.42,16.14,16.35,20.39,18.17q2.63,1.13,5.2,2.36c13.54,6.46,26.29,14.78,40.58,19.47a129.47,129.47,0,0,0,39.82,6,106.71,106.71,0,0,0,19.12-1.87c5.21-1,13.22-1.8,17.74-4.7,3.49-2.24,6.91-4.61,10.34-6.87a68.15,68.15,0,0,0,9.92-7.39c2.35-2.27,4.84-4.26,6.65-7,1.5-2.26,2.74-4.81,4.45-6.91,1.2-1.47-2.12,3.61-1.3,1.79"/><path class="cls-4" d="M371.85,457.71a34.06,34.06,0,0,1-16.75-5.79,24.7,24.7,0,0,1-3.38-2.91c-.7-.73-.63-.85-1.55-.61a9.14,9.14,0,0,0-1.92.92c-.71.39,12,15.15,11.36,15.68-13.82,12.07-31.62,17.49-49.46,20.16-8.78,1.32-18.78,3.16-27.68,2.64-8.5-.5-14.29-5.76-21.21-10.57A50.11,50.11,0,0,1,248.58,465c-.22-.32-.4-.64-.59-1,.18,2.4.24,4.81.51,7.2a34.51,34.51,0,0,0,2.21,8.21c2,5.32,4.13,7,7.08,11.82a66.86,66.86,0,0,0,13.43,15.19,84.47,84.47,0,0,0,17.36,11c1.21.59,7.81,4.19,9.14,4.4,1.65.28,4.9-.64,6.54-.88,23.9-3.6,48.38,2.73,72.67,3.3a5.25,5.25,0,0,0,3.15-.59,5.05,5.05,0,0,0,1.57-2.45,161.64,161.64,0,0,1,23.18-40.54,7.62,7.62,0,0,1,2.88-2.59,3,3,0,0,1,3.6.86c-2.08-2.59-4.1-5.23-6-7.92"/><path d="M463.32,526.53c-.39,1.74-1.35,3.2-1.69,5a17,17,0,0,0,.26,5.17,5.85,5.85,0,0,0,2.57,4.17c1.48,1.11,3,2.2,4.88,2,4-.44,7.15-2,9.28-5.69.71-1.22,5-10.25,1.31-9.9"/><path class="cls-5" d="M380.87,522.26c-.08.13-.15.25-.24.37a4.32,4.32,0,0,1-.61.6,1.65,1.65,0,0,1-.27.19,4,4,0,0,1-.68.35,1.76,1.76,0,0,1-.5.18,1.8,1.8,0,0,1-.69.06l-.62,0a1.55,1.55,0,0,1-.31-.06c3.92,6.61,10.55,13,19.77,18.79a125.26,125.26,0,0,0,20.44,10.21s2.54,1.13,2,.87c3.39-.71,4.36-.71,7.26-1.55-.94-.39-3.48-1.56-4.34-1.93-1.21-.51-2.33-1-3.29-1.36a119.8,119.8,0,0,1-19.7-9.83c-6.4-4-13.83-9.85-18.17-17Z"/><path class="cls-6" d="M405.83,506.61c6.49,1.81,12.77,4.32,19.2,6.31,13.23,4.1,21.76,3.59,31.31-7.32A19.27,19.27,0,0,0,461.27,491a19.92,19.92,0,0,0-3.21-8.81,45.9,45.9,0,0,0-18.29-16.44c-7-3.29-13.21-5.8-20.94-5.26a58.25,58.25,0,0,1-15.89-.85,63.64,63.64,0,0,1-14.8-5.15,63.94,63.94,0,0,0-13.05-4.73c11.54-26.6,12.3-51.09,21.52-75.48,3.87-2.49,8.09-4.42,12.1-6.67a87.52,87.52,0,0,0,7.65-4.39c2.54-1.78,3.56-3.69,5.26-6.09,1.44-2,1.08-4.07,3-5.69a3.31,3.31,0,0,0,.53-.6c.18-.24.42-.45.59-.69a3.78,3.78,0,0,0,.72-1.57,1.5,1.5,0,0,0,.05-.51c-.05-.22-.18-.47-.25-.69a6,6,0,0,1-.45-1.44,6.14,6.14,0,0,1,.19-1.45,21.25,21.25,0,0,1,.55-2.68,10.29,10.29,0,0,0,.71-2.69c0-.58-.61-.65-1.17-.74a2.61,2.61,0,0,0-.88.05c-.35,0-.7.12-1,.19-.43.28-.85.55-1.28.81l-.21.09a9.87,9.87,0,0,0-1.2,1.7c-.4.68-.78,1.37-1.14,2.06,0,.05-2.66,6.42-2.69,6.46.12-.31,2.85-6.94,3-7.25a11.15,11.15,0,0,1,1-1.78c.28-.4.65-.77.95-1.17a.68.68,0,0,1-.67-.26,3.9,3.9,0,0,0-3.3-1.51c-1.22,0-2.43.18-3.66.09a.71.71,0,0,1-.58-.62,2.7,2.7,0,0,0-2.22-2.63,7.37,7.37,0,0,0-3.65.53.77.77,0,0,1-.3,0l-3.37,4.18c.07-.06-3.69,5-1.75,2l4.95-6.26a.62.62,0,0,1-.49-.57,1.78,1.78,0,0,0-1.23-1.68c-1.6-.46-1.64.25-2.46.33a2.66,2.66,0,0,1-2.45-.75,1.72,1.72,0,0,0-1.67-.79,8.16,8.16,0,0,0-1.35.36c-.53.68-1,1.39-1.56,2-1.25,1.41-2,3.11-3.12,4.6-1.22,1.65-2.54,3.21-3.76,4.85-.46.63-.93,1.26-1.36,1.92-2.53,3.91-3.58,8.69-4.95,13.07-.15.49-.14.94-.34,1.44a19.27,19.27,0,0,0-.65,2.62c-7.17,9.65-14.31,19.33-20.12,29.58a128.82,128.82,0,0,0-16.34,48.43c-.08.72-.14,1.42-.18,2.13-.23,3.87.11,7.63.13,11.55,0,2.64.73,5.3.06,7.51a11.85,11.85,0,0,0-.18,6.6c1.69,6.17,8,9.71,13.77,12.45C371.44,486.37,393.4,503.15,405.83,506.61Z"/><path class="cls-7" d="M421.81,348.42a3.28,3.28,0,0,0,1.14.75c.31.09.64.16,1,.23s.51.17.77.25c.43.13.7.45,1.22.18"/><path class="cls-7" d="M423.15,347a6.94,6.94,0,0,1,1.76-.1c.19,0,.38,0,.57,0a6.38,6.38,0,0,0,.73.1"/><path class="cls-7" d="M425.92,343.43c-.41,1.32-1.09,0-1.27-.5-.43-1.15-1.34-3.56.66-4.39"/><path class="cls-7" d="M403.5,333.11a33.7,33.7,0,0,0-3.17,4.62,8,8,0,0,0-.53.81c-.16.33-1.57,2.51-1.76,2.82-.3.47,5-8.23,4.64-7.82"/><path class="cls-7" d="M415.53,337.65c-.46.52-1.31,1.83-1.71,2.39-.23.32-4.53,5.93-4.77,6.24s6.17-8.69,5.89-8.38"/><path class="cls-5" d="M438.25,546.42l3.65-2.29c1.09-.69,2.09-1.49,3.16-2.22a97.76,97.76,0,0,0,16-40.25,24.31,24.31,0,0,0,.05-9,13.72,13.72,0,0,1-.74,5.59,14.72,14.72,0,0,1-1.24,3.38A16.79,16.79,0,0,1,456,506c-.56,2.75-1.21,5.49-2,8.16a96,96,0,0,1-15.19,29.57c-1.18,1.6-2.58,3.3-3.85,4.83C435.62,548.17,437.33,547,438.25,546.42Z"/><path d="M699.81,487.46c3.6,3.38,6.85,7.09,10.18,10.72l.3-2.35c-2.2,1.18-4.33,2.46-6.51,3.67-2,1.13-4.09,2.17-6.1,3.31a1.5,1.5,0,0,0,1.51,2.59c2-1.14,4.08-2.18,6.1-3.3,2.18-1.22,4.32-2.5,6.51-3.68a1.52,1.52,0,0,0,.31-2.36c-3.33-3.63-6.58-7.34-10.17-10.72-1.41-1.32-3.54.79-2.13,2.12Z"/><path d="M633.29,484.46c-3.6,3.37-6.85,7.08-10.18,10.72a1.52,1.52,0,0,0,.31,2.36c2.19,1.18,4.33,2.46,6.51,3.67,2,1.13,4.08,2.17,6.1,3.3a1.5,1.5,0,0,0,1.51-2.59c-2-1.13-4.08-2.17-6.1-3.3-2.17-1.21-4.31-2.49-6.51-3.68l.31,2.36c3.32-3.63,6.57-7.34,10.17-10.72,1.41-1.33-.72-3.45-2.12-2.12Z"/><path d="M709.47,494.92c-2.45-.19-4.89-.52-7.34-.74-2.65-.25-5.3-.24-8-.24-5.37,0-10.74.05-16.11.05H628a1.5,1.5,0,0,0,0,3c21.39,0,42.79,0,64.18-.05,2.93,0,5.88-.07,8.81.14s5.64.62,8.48.84c1.92.14,1.91-2.86,0-3Z"/><text class="cls-8" transform="translate(542.32 205.54)"><tspan class="cls-9">H</tspan><tspan x="16.25" y="0">ead must s</tspan><tspan class="cls-9" x="142.16" y="0">t</tspan><tspan class="cls-10" x="151.96" y="0">a</tspan><tspan x="165.35" y="0">y</tspan><tspan x="2.21" y="33.91">a </tspan><tspan class="cls-11" x="21.52" y="33.91">s</tspan><tspan x="34.07" y="33.91">a</tspan><tspan class="cls-12" x="48.23" y="33.91">f</tspan><tspan x="56.3" y="33.91">e dis</tspan><tspan class="cls-9" x="110.33" y="33.91">t</tspan><tspan x="120.13" y="33.91">ance </tspan><tspan x="2.6" y="67.83">f</tspan><tspan class="cls-13" x="11.28" y="67.83">r</tspan><tspan x="21.4" y="67.83">om the boa</tspan><tspan class="cls-14" x="151.4" y="67.83">r</tspan><tspan x="161.36" y="67.83">d</tspan></text><path d="M97.35,227.85a68.34,68.34,0,0,0,2.26,33.88,81.51,81.51,0,0,0,15.44,27A88.38,88.38,0,0,0,127,300.4c1.49,1.2,3.62-.91,2.12-2.12-15.47-12.49-27.31-30.61-29.53-50.65a65,65,0,0,1,.69-19c.35-1.89-2.54-2.69-2.89-.8Z"/><path d="M122.78,285.81c1.69,4.63,2.92,9.41,4.25,14.16l1.45-1.9c-2.49.06-5,.24-7.47.34-2.31.1-4.62.1-6.94.2-1.92.09-1.93,3.09,0,3,2.32-.1,4.63-.1,6.94-.2,2.49-.1,5-.28,7.47-.34a1.52,1.52,0,0,0,1.44-1.9c-1.33-4.75-2.56-9.52-4.24-14.16a1.55,1.55,0,0,0-1.85-1.05,1.52,1.52,0,0,0-1,1.85Z"/><text class="cls-8" transform="translate(70.61 165.83)">It must be bo<tspan class="cls-15" x="150.8" y="0">l</tspan><tspan x="158.22" y="0">d, high </tspan><tspan x="0" y="33.91">and confident</tspan></text><path d="M97.35,227.85a68.34,68.34,0,0,0,2.26,33.88,81.51,81.51,0,0,0,15.44,27A88.38,88.38,0,0,0,127,300.4c1.49,1.2,3.62-.91,2.12-2.12-15.47-12.49-27.31-30.61-29.53-50.65a65,65,0,0,1,.69-19c.35-1.89-2.54-2.69-2.89-.8Z"/><path d="M122.78,285.81c1.69,4.63,2.92,9.41,4.25,14.16l1.45-1.9c-2.49.06-5,.24-7.47.34-2.31.1-4.62.1-6.94.2-1.92.09-1.93,3.09,0,3,2.32-.1,4.63-.1,6.94-.2,2.49-.1,5-.28,7.47-.34a1.52,1.52,0,0,0,1.44-1.9c-1.33-4.75-2.56-9.52-4.24-14.16a1.55,1.55,0,0,0-1.85-1.05,1.52,1.52,0,0,0-1,1.85Z"/><path class="cls-16" d="M95.79,61.4A36.74,36.74,0,0,1,104.16,38a34.44,34.44,0,1,0,.11,46.9A36.78,36.78,0,0,1,95.79,61.4ZM87.2,75.66H70.92L71,73.39l4.46-.58c.58,0,.81-.23.81-1,.08-10.05,0-19.6,0-19.6l-5.62,1.08c-.19-.31-1.12-2.46-.46-2.73l10.35-4,1,1s-.12,20.87,0,24.37c0,.77.19,1,.73,1l5.08.54Z"/><circle cx="130" cy="61.53" r="34.44"/><text class="cls-17" transform="translate(118.45 75.26)">2</text><text class="cls-18" transform="translate(177.42 73.13)"><tspan class="cls-19">N</tspan><tspan class="cls-20" x="20.46" y="0">e</tspan><tspan x="36.84" y="0">xt is </tspan><tspan class="cls-19" x="102.6" y="0">t</tspan><tspan x="114.51" y="0">a</tspan><tspan class="cls-21" x="131.73" y="0">k</tspan><tspan class="cls-22" x="147.45" y="0">e-off</tspan></text></svg>