<svg id="Layer_1" data-name="Layer 1" xmlns="http://www.w3.org/2000/svg" viewBox="0 0 780 1051.14"><defs><style>.cls-1{fill:#c6946f;stroke-width:0.23px;}.cls-1,.cls-2,.cls-4,.cls-5,.cls-6,.cls-7{stroke:#fff;stroke-miterlimit:10;}.cls-2,.cls-3,.cls-6,.cls-7{fill:#d4a47c;}.cls-2{stroke-width:0.28px;}.cls-4{fill:#005058;stroke-width:0.54px;}.cls-5{fill:#fff171;stroke-width:0.3px;}.cls-6{stroke-width:0.41px;}.cls-7{stroke-width:0.31px;}.cls-8,.cls-9{fill:#fff;}.cls-8{opacity:0.7;}.cls-9{font-size:38.5px;font-family:ABCSerifBold, ABCSerif;}</style></defs><path class="cls-1" d="M478,425.84l-.11-.14L456.64,403c-6.4-6.84-12.82-14.12-20.05-19.83-12.13-9.56-21.63-21.92-31.1-34.52l.21,0a.7.7,0,0,1-.32-.18l-.82-1.1-.09-.13c-1.84-3-4.6-10-5.3-11.27-3.89-7.1-8.13-14.74-14.5-20.2-7-6-15.64-9.85-22.46-16.15-4.41-4.07-11-4.13-15.47-8.28-1.93-1.8-5.23-4.12-7.81-4.66-3.51-.75-7.57,1.53-3.37,4.5a13.62,13.62,0,0,1,3.13,2.36c2.13,2.68.3,6.8,1.6,10a10.51,10.51,0,0,0,2.55,3.32c3.35,3.34,7.1,6.45,10.33,9.84,1.78,1.86,2.46,4.05,3.9,6.07,2.63,3.72,2.66,8.84,3.29,13.3.1.67.24,1.33.4,2,1.32,5.4,1.49,7.33,4,8.85a8.55,8.55,0,0,0,6.82.73,22.42,22.42,0,0,1,3.73-.88l1.47-.19c4.93,6.93,14.14,24.22,17,29.91,6.22,12.32,11.88,24.73,17.22,37.39l0,.08c.41.83,10.07,9.57,10.48,10.4-9.51-4.63-16.56-12.6-26.86-15.72-14.53-4.39-29.16-8.32-43.8-12.28-14.07-3.59-29-9-43.67-7.26-14,1.63-27,8-35.71,17.4-5.51,6-9.37,13.27-9.91,21-.76,10.73,6.15,35.54,14.29,43.93,18.2,18.77,36,4,52.87,9.18,25,7.68,22.22,6.29,48.63,7.88,13.63.83,34.56-.88,49.73.06,11.65.73,30.2,1.19,41.17-3,13.57-3.1,26.26-26.14,21.61-39.15-2.15-6-6.58-10.76-9.33-16.47l-.78-1.62a1,1,0,0,0-.14-.22Z"/><path class="cls-2" d="M433.87,586.54c.49,1.17-9.91-.43-10.65.85s-2.3.29-3.42,0c-.91-.24-1.83,0-2.77-.19a7.24,7.24,0,0,0-2-.4,6.47,6.47,0,0,0-4.29,2c-1.12,1.47-.71,3.5-1.6,5a6,6,0,0,1-1.64,1.56,2.77,2.77,0,0,1,1.25,1.2c2,3.59,1.28,7.66,1.95,11.54a21,21,0,0,0,3.55-.46,30.26,30.26,0,0,1,5.62-.57c1.7,0,3.16-.53,4.57.4,1.07.71,1.61,2,2.68,2.69a23.3,23.3,0,0,1,2.27,1.3,32.3,32.3,0,0,1,2.85,3c2.1,2.23,4.45,4.3,6.66,6.44a25.4,25.4,0,0,0,8.14,5.52,20.37,20.37,0,0,0,9.9,1.16,44.57,44.57,0,0,0,7.66-1.36,77.9,77.9,0,0,0,10.54-4.15c3.84-1.84,7.47-5.28,10.19-8.49,2-2.37,4.32-4.34,6.1-7a26.41,26.41,0,0,0,3.45-8.83c.62-2.66,2-4.75,3.22-7.08.63-1.17.71-2.54,1.32-3.79a29.38,29.38,0,0,0,2-4.51c.89-3.06-.3-5.48-1.48-8.19-.78-1.82-2.1-3.22-2.86-5a15,15,0,0,0-1.42-2.5c-.6-.9-.89-1.87-1.5-2.77-.29-.43-.7-.67-1-1.11s-.22-.89-.63-1.28a20.59,20.59,0,0,0-2.88-1.62,27.4,27.4,0,0,1-3.22-2.16l-.32-.26a1,1,0,0,0,0-.56,12.62,12.62,0,0,1-.16-3c0-2.53.4-2.74.07-5.62a28.91,28.91,0,0,0-1.08-5.31A3.58,3.58,0,0,0,479.7,541a2,2,0,0,1-1.3.21,5,5,0,0,1-3.34-1.46,19.75,19.75,0,0,0-1.79-2.6,19.26,19.26,0,0,0-4.79-3.31c-1.45-.69-2.44-.52-3.13-1.94-.5-1-1-2.1-1.4-3.15-.85-2-2.2-3.53-4.53-3.28a15.79,15.79,0,0,0-9.23,5.21C432.56,554.16,432,540.06,423.56,546c-5.79,4-14.4,11.08-21.48,10.51"/><path d="M484.14,570.09c-.36.1-.73.17-1.1.24s-.66.11-.86-.05-.08,0,0-.14.22-.1.29-.14a1.81,1.81,0,0,0,.29-.19c.36-.28.69-.61,1.05-.9.21-.16.39-.35.61-.5,1.37-.93,3.09-1.44,4.33-2.51a7.49,7.49,0,0,0,2.06-4.14c.47.25,2,1,2,1.61-.09.85-1.82,2.28-2.24,3a6.85,6.85,0,0,1-3.63,3C486,569.74,485.05,569.83,484.14,570.09Z"/><path d="M414.39,612.69c2.61-.05,5.4-.58,8-.32,8.22.83,13.15,9.4,20.22,13.67,5.83,3.51,13.12,4,19.75,2.46s12.71-4.82,18.44-8.48c5.31-3.39,10.48-7.19,14.29-12.21,2.56-3.38,8.51-14.32,4.54-18.3s-13.78-.66-18.74-4.33c-2.52-1.86-4.14-4.86-6.95-6.24a24.91,24.91,0,0,0-4.51-1.34c-2.74-.78-5.27-2.26-8.05-2.85s-6.15,0-7.63,2.44a11.66,11.66,0,0,1,2.85,5.33c.31,2-1,2.13-2.92,2.82-2.63,1-4.86.67-6-1.87s-1.83-5.55-4.07-7.23c-2.42-1.83-5.78-1.44-8.77-1-5.14.81-13.15,5.58-18.29,6.39-.47,3.09-.84,2.08-1.5,5.14-.49,2.3,4,2.82,1.82,3.76a19.32,19.32,0,0,0-9.47,9c-1.86,3.74-2.15,8.92,1.11,11.53A8.75,8.75,0,0,0,414.39,612.69Z"/><path d="M499.55,588.58l-.43.87.2.1A3,3,0,0,0,499.55,588.58Z"/><path d="M424.46,603.94a7.41,7.41,0,0,0-.41,3.53,12.49,12.49,0,0,1-.77,4.09,6.41,6.41,0,0,1-2.81,3.77,7.08,7.08,0,0,1-4.12.79,6.85,6.85,0,0,1-3.59-1.21c-1-1-1.43-3.12-2-4.34a7,7,0,0,1,0-4.77c.46-1.58,1.21-3.27,2.72-4.06a20.67,20.67,0,0,1,10.92-1.86c1.83.11,3.59,1.9,4.62,3.34s2.3,4.11,2.24,5.93c-.12,3.48-4.08,5.25-7,5.8-1.75.33-3.54.48-5-.79a10.27,10.27,0,0,1-2.44-3.91,18.78,18.78,0,0,1-1.8-4.94,7,7,0,0,1-.2-2.75,21.72,21.72,0,0,0,.62-3,8.54,8.54,0,0,1,1-3.31,3.36,3.36,0,0,1,2-1.72,11.2,11.2,0,0,1,3-.87c.66-.09,1.34.07,2,0,1.15-.07,1.18,0,1.77,1.13"/><path d="M423.8,609.15c1.12,1,1.16,2.35,1.1,3.73a6.32,6.32,0,0,0,0,1.44,1.93,1.93,0,0,1-.65,1.91c-1.31,1.4-3.57,1.76-5.33,2.14a6.78,6.78,0,0,1-2.28.25c-.71-.1-1.36-.45-2.05-.54a4.71,4.71,0,0,1-1.18-.07c-.43-.16-.74-.49-1.18-.63a2.57,2.57,0,0,1-1.12-.46,9,9,0,0,1-.91-.94,5.19,5.19,0,0,1-1.36-1.92,15.12,15.12,0,0,1-.48-2.41,6.88,6.88,0,0,1,.05-1.11c0-.46-.11-.9-.09-1.36a6.52,6.52,0,0,1,1.64-3.27c1.37-1.89,3.92-2.85,6-3.68a12.14,12.14,0,0,1,5.21-.79,28.24,28.24,0,0,1,2.89.53,10.36,10.36,0,0,1,2.64.68,9,9,0,0,1,2.44,1.76,20.52,20.52,0,0,1,2.22,2.35,6.58,6.58,0,0,1,1,3,8.58,8.58,0,0,0,0,1.68,5.8,5.8,0,0,1,.31,1.71,6.9,6.9,0,0,1-2.43,5.4,21.36,21.36,0,0,1-3.71,2.57c-.87.42-1.78.78-2.65,1.19a6.17,6.17,0,0,1-3,.51,4.31,4.31,0,0,1-1.78-.34,5.24,5.24,0,0,1-1.59-.72c-1.23-1.18-1.4-2.82-2.34-4.11a5.23,5.23,0,0,1-.59-.73c-.24-.45-.41-.93-.61-1.39a11,11,0,0,1-.89-2.28,7.32,7.32,0,0,1-.08-2.76,3.76,3.76,0,0,1,1.71-2.6,10.29,10.29,0,0,1,3.28-2,13.36,13.36,0,0,1,5.1-.58,10.33,10.33,0,0,1,5.05,1.31,11.32,11.32,0,0,1,2.26,1.52,11.78,11.78,0,0,1,1.33,2.07c.89,1.51.58,3.43.48,5.08,0,.32.06,1.12-.13,1.4s-.64.32-.87.42"/><path d="M422.05,589.91c1.12,1,1.16,2.35,1.1,3.73a6.32,6.32,0,0,0,0,1.44,2,2,0,0,1-.64,1.92c-1.32,1.39-3.58,1.75-5.34,2.13a6.78,6.78,0,0,1-2.28.25c-.71-.09-1.35-.45-2-.53a4.77,4.77,0,0,1-1.19-.08c-.42-.16-.73-.49-1.18-.63a2.45,2.45,0,0,1-1.12-.46,8.77,8.77,0,0,1-.9-.93,5.25,5.25,0,0,1-1.37-1.93,15.12,15.12,0,0,1-.48-2.41,6.88,6.88,0,0,1,.05-1.11c0-.46-.11-.9-.08-1.36a6.45,6.45,0,0,1,1.64-3.27c1.37-1.88,3.91-2.85,6-3.68a12.14,12.14,0,0,1,5.21-.79c1,.11,1.92.33,2.89.53a10.38,10.38,0,0,1,2.64.69,8.8,8.8,0,0,1,2.44,1.75,19.68,19.68,0,0,1,2.22,2.35,6.5,6.5,0,0,1,1,3,8.57,8.57,0,0,0,0,1.68,5.87,5.87,0,0,1,.31,1.72,6.85,6.85,0,0,1-2.43,5.39,22,22,0,0,1-3.71,2.58c-.87.41-1.77.77-2.65,1.18a6.17,6.17,0,0,1-3,.51,4.33,4.33,0,0,1-1.78-.33,5.63,5.63,0,0,1-1.59-.73c-1.22-1.18-1.4-2.82-2.34-4.11a6.07,6.07,0,0,1-.59-.73c-.24-.44-.41-.93-.61-1.39a10.54,10.54,0,0,1-.88-2.28,7.13,7.13,0,0,1-.09-2.76,3.76,3.76,0,0,1,1.71-2.6,10.4,10.4,0,0,1,3.28-2,13.56,13.56,0,0,1,5.1-.58,10.33,10.33,0,0,1,5.05,1.31,11.3,11.3,0,0,1,2.27,1.53,11.61,11.61,0,0,1,1.33,2.07c.88,1.51.58,3.42.47,5.07a3.84,3.84,0,0,1-.13,1.4c-.15.22-.64.32-.87.42"/><path class="cls-2" d="M455.62,574.53c5.33,1.43,3.28,10-.48,11.83a6.85,6.85,0,0,1-8.76-3c-1.58-3.17-.43-7.14-1.81-10.4-.72-1.73-2.15-3.27-2.09-5.15s3.19-3.12,3.65-1.31"/><path class="cls-3" d="M438.93,572c.07-3.67-9.29-16.24-10.56-19.64-1.11-3-3.38-5.47-5.19-8.06-1.33-1.9-3.23-3.17-4.63-5-.82-1.07-1.85-1.83-2.63-2.94a10.39,10.39,0,0,0-2.21-2.18c-1.55-1.2-3-2.48-4.55-3.69-.93-.75-2-1.33-2.89-2.14-2.54-2.33-5.59-3.92-8.42-5.93-2.51-1.78-5.08-3.53-7.42-5.48-1.81-1.51-3.9-2.27-5.94-3.35a9.34,9.34,0,0,0-4.06-1.54,17.21,17.21,0,0,1-3.05-1.12,27.39,27.39,0,0,0-3.62-.63c-3.08-.51-6.15-1.16-9.22-1.71-4.56-.83-8.93-2.69-13.39-3.93-3.91-1.09-7.87-2.11-11.72-3.43-5.44-1.87-11-3-16.54-4.68-8.66-2.59-17.56-3.51-26.54-4.15a58.14,58.14,0,0,0-7.69-.45c-2.41.15-11.51-13.89-13.83-13.24-9.48,2.62,4.42,22.54,7,26.41q1.56,2.39,3,4.83c7.72,12.87,13.75,26.85,23.08,38.65a129.13,129.13,0,0,0,29.87,27,106.79,106.79,0,0,0,17,9c4.89,2.06,12,5.81,17.38,5.88,4.15.07,8.31,0,12.42,0a68,68,0,0,0,12.35-.68c3.22-.59,6.39-.87,9.42-2.17a80.84,80.84,0,0,1,7.52-3.3c1.82-.56-3.76,1.83-2.07.77"/><path class="cls-4" d="M371.56,479.93a34,34,0,0,1-10.77-14.08,24.9,24.9,0,0,1-1.21-4.29c-.18-1-.05-1.06-1-1.37a9.67,9.67,0,0,0-2.1-.29c-.81-.07,1.6,19.24.81,19.35-18.19,2.42-36-2.9-52.37-10.52-8-3.75-17.4-7.74-24.53-13.09-6.81-5.11-8.73-12.7-11.84-20.53a50,50,0,0,1-3.82-17.19c0-.38,0-.75,0-1.13-1.18,2.1-2.46,4.15-3.55,6.29a34.11,34.11,0,0,0-2.69,8.06c-1.27,5.55-.41,8.09-.63,13.77a66.51,66.51,0,0,0,2.8,20.08,84.12,84.12,0,0,0,8.37,18.8c.68,1.16,4.2,7.8,5.18,8.72,1.23,1.14,4.44,2.17,5.95,2.87,21.9,10.2,38.81,29,58.74,42.9a5.27,5.27,0,0,0,2.95,1.25,5.08,5.08,0,0,0,2.67-1.18,161.9,161.9,0,0,1,41.71-21,7.71,7.71,0,0,1,3.84-.56,3,3,0,0,1,2.52,2.7q-.45-5-.65-9.93"/><path d="M409.78,587.83c-1.28,1.24-2.89,1.92-4.14,3.2a16.84,16.84,0,0,0-2.64,4.45,5.84,5.84,0,0,0-.16,4.89c.62,1.75,1.29,3.5,3,4.36,3.61,1.87,7.08,2.27,10.88.39,1.26-.63,9.83-5.78,6.56-7.53"/><path class="cls-5" d="M343.42,538.72a3.42,3.42,0,0,1-.4.17,4.13,4.13,0,0,1-.85.17,1.74,1.74,0,0,1-.32,0,5,5,0,0,1-.77-.08,1.49,1.49,0,0,1-.51-.14,1.58,1.58,0,0,1-.61-.33l-.51-.36a1.45,1.45,0,0,1-.22-.21c-.39,7.67,1.62,16.64,6.1,26.58a124.67,124.67,0,0,0,11.4,19.8s1.49,2.35,1.19,1.84c3.22,1.28,4,1.81,6.91,2.72-.57-.84-2-3.23-2.55-4-.73-1.1-1.4-2.11-2-3a120.4,120.4,0,0,1-11-19.08c-3.1-6.9-6.09-15.85-5.77-24.17Z"/><path class="cls-6" d="M372.87,539.47c4.41,5.09,8.25,10.65,12.52,15.86,8.77,10.73,16.15,15,30.15,11.19a19.25,19.25,0,0,0,12.14-9.41,19.8,19.8,0,0,0,2.2-9.12,46,46,0,0,0-6.17-23.8c-4-6.59-7.8-12.14-14.55-16a58.22,58.22,0,0,1-12.78-9.5,63.24,63.24,0,0,1-9.49-12.46,63.64,63.64,0,0,0-8.26-11.15c24.31-15.8,38.47-35.8,59.63-51,4.6.06,9.19.78,13.78,1.12a86.08,86.08,0,0,0,8.79.57c3.1-.08,5-1.12,7.75-2.18,2.33-.9,3.15-2.79,5.64-3.09a3.23,3.23,0,0,0,.77-.2c.28-.1.6-.14.88-.25a3.72,3.72,0,0,0,1.46-.92,1.52,1.52,0,0,0,.33-.39c.08-.21.1-.49.16-.72a7.2,7.2,0,0,1,.42-1.44,6.71,6.71,0,0,1,1-1.11,23.59,23.59,0,0,1,1.95-1.92,10.78,10.78,0,0,0,2.07-1.85c.32-.5-.15-.89-.56-1.27a2.69,2.69,0,0,0-.77-.45c-.32-.15-.64-.28-1-.41-.51,0-1,0-1.51,0l-.22-.05a10.29,10.29,0,0,0-1.94.76c-.71.34-1.41.71-2.1,1.09l-5.8,3.9,6.49-4.39a10.33,10.33,0,0,1,1.81-.94c.46-.18,1-.29,1.45-.45a.7.7,0,0,1-.43-.59,3.89,3.89,0,0,0-1.91-3.08c-1-.66-2.12-1.19-3.1-1.95a.72.72,0,0,1-.15-.83,2.69,2.69,0,0,0-.39-3.42,7.51,7.51,0,0,0-3.34-1.59.71.71,0,0,1-.26-.13l-5.12,1.63c.09,0-5.81,2.09-2.59.73l7.59-2.49a.61.61,0,0,1-.1-.74,1.76,1.76,0,0,0-.1-2.08c-1.08-1.27-1.5-.7-2.23-1.09a2.62,2.62,0,0,1-1.62-2,1.76,1.76,0,0,0-1-1.59,8.52,8.52,0,0,0-1.32-.44c-.82.27-1.59.61-2.43.83-1.82.48-3.39,1.48-5.14,2.11-1.92.7-3.89,1.27-5.81,2-.74.27-1.47.54-2.2.85-4.27,1.86-7.78,5.26-11.34,8.16a14.69,14.69,0,0,1-1.08,1,18.38,18.38,0,0,0-2,1.84c-11.31,4.08-22.6,8.2-33.11,13.53a129,129,0,0,0-40.38,31.35c-.46.55-.9,1.11-1.32,1.67-2.33,3.11-4.12,6.43-6.27,9.71-1.45,2.21-2.32,4.82-4.1,6.29a11.77,11.77,0,0,0-3.79,5.4c-2,6.08,1.29,12.51,4.59,18C355.38,503.59,364.42,529.71,372.87,539.47Z"/><path class="cls-7" d="M473.58,416.43a3.13,3.13,0,0,0,.53,1.25c.21.24.44.49.67.72s.33.42.51.64.33.76.92.82"/><path class="cls-7" d="M475.47,416a7.28,7.28,0,0,1,1.53.89c.15.1.32.2.47.31s.34.39.55.49"/><path class="cls-7" d="M479.76,414.53c-1.08.88-.91-.59-.79-1.12.28-1.19.85-3.7,3-3.29"/><path class="cls-7" d="M466.77,393.55a33.67,33.67,0,0,0-5.2,2.1,7,7,0,0,0-.89.38c-.31.19-2.69,1.23-3,1.38-.5.23,8.73-4.09,8.2-4"/><path class="cls-7" d="M474.29,404c-.67.18-2.1.8-2.75,1-.37.14-7.05,2.43-7.42,2.57s9.94-3.84,9.54-3.74"/><path class="cls-5" d="M377.9,590.56l4.31.1c1.29,0,2.57-.08,3.86-.1a97.57,97.57,0,0,0,35.54-24.74,24.5,24.5,0,0,0,5-7.5,13.82,13.82,0,0,1-3.71,4.24,14,14,0,0,1-2.9,2.13,16.35,16.35,0,0,1-5.07,2c-2,2-4,3.91-6.17,5.7a95.85,95.85,0,0,1-29,16.26c-1.87.68-4,1.33-5.88,1.9C374.75,590.56,376.82,590.52,377.9,590.56Z"/><path d="M699.81,578.27c3.6,3.38,6.85,7.09,10.18,10.73l.3-2.36c-2.2,1.18-4.33,2.47-6.51,3.68-2,1.13-4.09,2.17-6.1,3.3a1.5,1.5,0,0,0,1.51,2.59c2-1.13,4.08-2.17,6.1-3.3,2.18-1.21,4.32-2.5,6.51-3.68a1.51,1.51,0,0,0,.31-2.35c-3.33-3.64-6.58-7.35-10.17-10.73-1.41-1.32-3.54.8-2.13,2.12Z"/><path d="M633.29,575.27c-3.6,3.38-6.85,7.09-10.18,10.72a1.52,1.52,0,0,0,.31,2.36c2.19,1.18,4.33,2.46,6.51,3.68,2,1.12,4.08,2.16,6.1,3.3a1.5,1.5,0,0,0,1.51-2.59c-2-1.14-4.08-2.18-6.1-3.3-2.17-1.22-4.31-2.5-6.51-3.68l.31,2.35c3.32-3.63,6.57-7.34,10.17-10.72,1.41-1.32-.72-3.44-2.12-2.12Z"/><path d="M709.47,585.73c-2.45-.18-4.89-.52-7.34-.74-2.65-.24-5.3-.24-8-.24-5.37,0-10.74,0-16.11,0H628a1.5,1.5,0,0,0,0,3c21.39,0,42.79.05,64.18,0,2.93,0,5.88-.07,8.81.15s5.64.62,8.48.83c1.92.14,1.91-2.86,0-3Z"/><path d="M547.16,188.28v7.13h6.9v-7.13h3.11v17.26h-3.11v-7.35h-6.9v7.35h-3.09V188.28Z"/><path d="M571.5,202a5.77,5.77,0,0,1-5.58,3.7c-4.34,0-6.26-2.71-6.26-6.76s2.71-6.53,6.44-6.43c3,.07,5.74,2.34,5.45,6.46l0,.39h-8.73c0,2.2.94,3.7,3.18,3.7a2.89,2.89,0,0,0,2.79-2.05Zm-3.13-4.22c0-2-1-2.93-2.54-2.88a2.87,2.87,0,0,0-2.91,2.88Z"/><path d="M574.43,193.43a15.46,15.46,0,0,1,4.89-.93c3.89,0,5.32,1.92,5.32,4.93v5.23a.65.65,0,0,0,.62.74,2.61,2.61,0,0,0,1-.15v2a4.85,4.85,0,0,1-2,.4,2.34,2.34,0,0,1-2.34-1.75,5.62,5.62,0,0,1-3.89,1.75c-2.52,0-4.39-1.28-4.42-4s2-4.09,5.25-4.09a20,20,0,0,1,2.79.24v-.76c0-1.41-.89-2.17-2.66-2.15a10.41,10.41,0,0,0-4,.79Zm7.16,6a14.18,14.18,0,0,0-2.52-.14c-1.48.07-2.42.76-2.44,2.07a1.82,1.82,0,0,0,2.1,1.9,5.09,5.09,0,0,0,2.86-1Z"/><path d="M600.48,186.7v18.84h-2.57l-.34-2.22a4.53,4.53,0,0,1-4.12,2.37c-3.48.05-5.55-2.84-5.55-6.63,0-4.64,3-6.56,5.52-6.56a4.09,4.09,0,0,1,4,2.44V187.1ZM591.06,199c0,2.2.86,3.92,3.15,3.92s3.26-1.72,3.26-3.89c0-2.94-1.58-4-3.28-4S591.06,196.2,591.06,199Z"/><path d="M611.21,192.62l.44,2.29a4.34,4.34,0,0,1,4-2.44,3.75,3.75,0,0,1,3.84,2.39,4.58,4.58,0,0,1,4.17-2.39c3,0,4.22,2,4.22,4.64v8.43h-3.06v-7.45c0-2-.47-3-2.15-3-2.21,0-2.81,1.68-2.81,3.58v6.9h-3.05v-7.45c0-2-.47-3-2.15-3-2.37,0-2.83,1.9-2.83,4v6.51h-3.06V192.62Z"/><path d="M633.88,192.62v7.45c0,2,.78,3,2.58,3,2.35,0,3.31-2.42,3.31-4.86v-5.62h3.06v12.92h-2.45l-.44-2.81a4.71,4.71,0,0,1-4.46,3c-3.16,0-4.66-1.95-4.66-5.2v-7.87Z"/><path d="M646.33,201.84a6.68,6.68,0,0,0,4.19,1.43c1.48,0,2.35-.44,2.35-1.5,0-2.52-7.48-.84-7.23-5.57.1-2.32,1.8-3.7,5.23-3.7a10.49,10.49,0,0,1,4.66,1.21l-1.09,2.17a7.32,7.32,0,0,0-3.7-1.07c-1.2,0-2.21.4-2.17,1.41.15,2.05,7.33.47,7.33,5.45,0,2.66-2.39,4-5.45,4a8.86,8.86,0,0,1-5.3-1.68Z"/><path d="M662.36,189v3.77h3.26l-.42,2.47h-2.84v5.92c0,1.4.64,2,1.68,2a5.72,5.72,0,0,0,2-.57l.56,2.34a8.1,8.1,0,0,1-3.28.84c-3,0-4-2-4-4.14v-6.34h-1.8v-2.47h2l.37-3.42Z"/><path d="M674,201.84a6.73,6.73,0,0,0,4.2,1.43c1.47,0,2.34-.44,2.34-1.5,0-2.52-7.47-.84-7.23-5.57.1-2.32,1.8-3.7,5.23-3.7a10.49,10.49,0,0,1,4.66,1.21l-1.08,2.17a7.36,7.36,0,0,0-3.7-1.07c-1.21,0-2.22.4-2.17,1.41.15,2.05,7.32.47,7.32,5.45,0,2.66-2.39,4-5.45,4a8.86,8.86,0,0,1-5.3-1.68Z"/><path d="M690,189v3.77h3.26l-.42,2.47H690v5.92c0,1.4.65,2,1.68,2a5.72,5.72,0,0,0,1.95-.57l.57,2.34a8.16,8.16,0,0,1-3.28.84c-3,0-4-2-4-4.14v-6.34h-1.8v-2.47h1.94l.37-3.42Z"/><path d="M696.05,193.43a15.46,15.46,0,0,1,4.89-.93c3.89,0,5.32,1.92,5.32,4.93v5.23a.65.65,0,0,0,.62.74,2.61,2.61,0,0,0,1-.15v2a4.89,4.89,0,0,1-2,.4,2.34,2.34,0,0,1-2.34-1.75,5.65,5.65,0,0,1-3.9,1.75c-2.51,0-4.39-1.28-4.41-4s2-4.09,5.25-4.09a20,20,0,0,1,2.79.24v-.76c0-1.41-.89-2.17-2.66-2.15a10.41,10.41,0,0,0-4,.79Zm7.15,6a14,14,0,0,0-2.51-.14c-1.48.07-2.42.76-2.44,2.07a1.82,1.82,0,0,0,2.09,1.9,5,5,0,0,0,2.86-1Z"/><path d="M711.44,192.62l3.18,9.12h.2l2.91-9.12h3.16l-4.79,13.12c-1.57,4.31-3.05,5.4-7.62,4.44l.55-2.59c2.91.71,3.3,0,4.21-2.49l-4.85-12.48Z"/><path d="M546.3,227.35a15.49,15.49,0,0,1,4.89-.94c3.89,0,5.32,1.92,5.32,4.93v5.23a.65.65,0,0,0,.62.74,2.41,2.41,0,0,0,1-.15v2.05a5,5,0,0,1-2,.39,2.34,2.34,0,0,1-2.34-1.75,5.62,5.62,0,0,1-3.89,1.75c-2.52,0-4.39-1.28-4.42-4s2-4.09,5.25-4.09a19.85,19.85,0,0,1,2.79.25V231c0-1.4-.89-2.17-2.66-2.14a10.41,10.41,0,0,0-4,.79Zm7.16,6a13.13,13.13,0,0,0-2.52-.15c-1.48.07-2.42.77-2.44,2.07a1.81,1.81,0,0,0,2.1,1.9,5.1,5.1,0,0,0,2.86-1Z"/><path d="M565.77,235.76a6.68,6.68,0,0,0,4.19,1.43c1.48,0,2.34-.45,2.34-1.51,0-2.51-7.47-.84-7.23-5.57.1-2.32,1.81-3.7,5.23-3.7a10.49,10.49,0,0,1,4.66,1.21l-1.08,2.17a7.25,7.25,0,0,0-3.7-1.06c-1.21,0-2.22.39-2.17,1.4.15,2.05,7.32.47,7.32,5.45,0,2.67-2.39,4-5.45,4a8.82,8.82,0,0,1-5.3-1.67Z"/><path d="M578.17,227.35a15.42,15.42,0,0,1,4.88-.94c3.9,0,5.33,1.92,5.33,4.93v5.23a.65.65,0,0,0,.62.74,2.45,2.45,0,0,0,1-.15v2.05a5.09,5.09,0,0,1-2,.39,2.33,2.33,0,0,1-2.34-1.75,5.67,5.67,0,0,1-3.9,1.75c-2.51,0-4.39-1.28-4.41-4s2-4.09,5.25-4.09a19.85,19.85,0,0,1,2.79.25V231c0-1.4-.89-2.17-2.67-2.14a10.39,10.39,0,0,0-4,.79Zm7.15,6a13,13,0,0,0-2.51-.15c-1.48.07-2.42.77-2.44,2.07a1.81,1.81,0,0,0,2.09,1.9,5.07,5.07,0,0,0,2.86-1Z"/><path d="M592.9,226.66v-1.75c0-2.64,1.38-4.29,4.26-4.29a6.74,6.74,0,0,1,2.44.44l-.39,2.14a7.24,7.24,0,0,0-1.31-.14c-1.36,0-1.92.56-1.92,2.34v1.26h2.81l-.4,2.46H596v10.33H592.9V229.12h-2v-2.46Z"/><path d="M611.54,235.9a5.76,5.76,0,0,1-5.57,3.7c-4.34,0-6.27-2.71-6.27-6.75s2.72-6.54,6.44-6.44c3,.07,5.74,2.34,5.45,6.46l-.05.39h-8.73c0,2.2.94,3.7,3.18,3.7a2.88,2.88,0,0,0,2.79-2Zm-3.13-4.21c.05-2-1-2.94-2.54-2.89a2.88,2.88,0,0,0-2.91,2.89Z"/><path d="M631.52,220.62v18.83H629l-.34-2.21a4.53,4.53,0,0,1-4.12,2.36c-3.48.05-5.55-2.83-5.55-6.63,0-4.64,3-6.56,5.52-6.56a4.09,4.09,0,0,1,4,2.44V221Zm-9.42,12.32c0,2.2.86,3.93,3.15,3.93s3.26-1.73,3.26-3.9c0-2.93-1.58-4-3.28-4S622.1,230.11,622.1,232.94Z"/><path d="M638.67,226.53v12.92h-3.08V229.07h-1.8v-2.54Zm-1.55-5a1.65,1.65,0,0,1,1.82,1.56,1.82,1.82,0,0,1-3.62,0A1.59,1.59,0,0,1,637.12,221.5Z"/><path d="M642.17,235.76a6.73,6.73,0,0,0,4.2,1.43c1.48,0,2.34-.45,2.34-1.51,0-2.51-7.47-.84-7.23-5.57.1-2.32,1.8-3.7,5.23-3.7a10.49,10.49,0,0,1,4.66,1.21l-1.08,2.17a7.3,7.3,0,0,0-3.7-1.06c-1.21,0-2.22.39-2.17,1.4.15,2.05,7.32.47,7.32,5.45,0,2.67-2.39,4-5.45,4a8.82,8.82,0,0,1-5.3-1.67Z"/><path d="M658.21,222.88v3.78h3.25l-.42,2.46h-2.83V235c0,1.41.64,2,1.67,2a5.5,5.5,0,0,0,2-.57l.57,2.34a7.94,7.94,0,0,1-3.28.84c-3,0-4-2-4-4.14v-6.34h-1.8v-2.46h1.94l.38-3.43Z"/><path d="M664.22,227.35a15.43,15.43,0,0,1,4.89-.94c3.89,0,5.32,1.92,5.32,4.93v5.23a.65.65,0,0,0,.62.74,2.41,2.41,0,0,0,1-.15v2.05a5.09,5.09,0,0,1-2,.39,2.34,2.34,0,0,1-2.34-1.75,5.64,5.64,0,0,1-3.89,1.75c-2.52,0-4.39-1.28-4.42-4s2-4.09,5.25-4.09a19.85,19.85,0,0,1,2.79.25V231c0-1.4-.89-2.17-2.66-2.14a10.41,10.41,0,0,0-4,.79Zm7.16,6a13.13,13.13,0,0,0-2.52-.15c-1.48.07-2.42.77-2.44,2.07a1.81,1.81,0,0,0,2.09,1.9,5.1,5.1,0,0,0,2.87-1Z"/><path d="M680.6,226.53l.47,2.3a4.76,4.76,0,0,1,4.41-2.42c3,0,4.49,2,4.49,4.61v8.43h-3.06V232c0-2-.74-3-2.41-3-2.35,0-3.26,1.9-3.26,4v6.51h-3.06V226.53Z"/><path d="M704.33,235.83c-.84,2.64-3,3.77-5.63,3.77-4.24,0-6.06-3.15-6.06-6.61,0-4.21,2.61-6.51,6.14-6.58,3.1-.07,5,1.53,5.5,3.8l-2.84.91a2.55,2.55,0,0,0-2.61-2.12c-1.78,0-3.13,1.31-3.13,3.94,0,2.1.78,4,3.08,4a2.6,2.6,0,0,0,2.71-2.05Z"/><path d="M718.14,235.9a5.77,5.77,0,0,1-5.58,3.7c-4.34,0-6.26-2.71-6.26-6.75s2.71-6.54,6.44-6.44c3,.07,5.74,2.34,5.45,6.46l-.05.39h-8.73c0,2.2.94,3.7,3.18,3.7a2.88,2.88,0,0,0,2.79-2ZM715,231.69c0-2-1-2.94-2.54-2.89a2.87,2.87,0,0,0-2.91,2.89Z"/><path d="M547.27,260.57v-1.75c0-2.64,1.38-4.29,4.26-4.29A6.74,6.74,0,0,1,554,255l-.39,2.15a6.25,6.25,0,0,0-1.31-.15c-1.35,0-1.92.57-1.92,2.34v1.26h2.81l-.39,2.47h-2.42v10.33h-3.08V263h-2v-2.47Z"/><path d="M557.6,260.45l.57,2.66c.59-2,2.09-2.84,4.19-2.79a5.12,5.12,0,0,1,1.33.23l-.47,2.68a5.29,5.29,0,0,0-1.85-.24c-2.27.07-3.13,1.82-3.13,3.89v6.49h-3.06V260.45Z"/><path d="M571.12,260.32c3.23,0,6,2.2,6,6.61,0,3.63-2.15,6.59-6.17,6.59-4.36,0-6.16-3-6.16-6.59C564.83,262.52,567.61,260.32,571.12,260.32ZM568,266.93c0,2.05.69,4,3,4,2.1,0,3-1.95,3-4,0-2.86-1.4-4-3-4C569.41,262.91,568,264,568,266.93Z"/><path d="M582.31,260.45l.45,2.29a4.3,4.3,0,0,1,4-2.44,3.77,3.77,0,0,1,3.85,2.39,4.52,4.52,0,0,1,4.17-2.39c3,0,4.21,2,4.21,4.63v8.44h-3.05v-7.45c0-2-.47-3-2.15-3-2.22,0-2.81,1.67-2.81,3.57v6.91h-3.06v-7.45c0-2-.47-3-2.14-3-2.37,0-2.84,1.9-2.84,4v6.51h-3.06V260.45Z"/><path d="M611.22,256.8v3.77h3.25l-.41,2.47h-2.84V269c0,1.41.64,1.95,1.68,1.95a5.62,5.62,0,0,0,1.94-.56l.57,2.34a8.1,8.1,0,0,1-3.28.84c-3,0-4-2-4-4.15V263h-1.8v-2.47h1.95l.37-3.43Z"/><path d="M620.42,254.53v8a4.81,4.81,0,0,1,4.24-2.2c3,0,4.49,1.95,4.49,4.61v8.44h-3.06v-7.45c0-2-.74-3-2.42-3-2.34,0-3.25,1.9-3.25,4v6.51h-3.06V254.9Z"/><path d="M643.55,269.82a5.76,5.76,0,0,1-5.57,3.7c-4.34,0-6.26-2.72-6.26-6.76s2.71-6.54,6.43-6.44c3,.08,5.75,2.35,5.45,6.46l-.05.4h-8.73c0,2.19.94,3.7,3.18,3.7a2.87,2.87,0,0,0,2.79-2.05Zm-3.13-4.22c.05-2-1-2.93-2.54-2.88A2.87,2.87,0,0,0,635,265.6Z"/><path d="M654.51,254.53v8.21a4.42,4.42,0,0,1,4.31-2.42c2.44.08,5.06,1.73,5.06,6.49,0,3.9-2,6.71-5.45,6.71a4.28,4.28,0,0,1-4.07-2.37l-.42,2.22h-2.49V254.92Zm-.13,12.35c0,2.22.82,4,3.26,4,2,0,3.1-1.51,3.1-4.05,0-3-1.5-3.94-3.13-3.94S654.38,264.29,654.38,266.88Z"/><path d="M672.39,260.32c3.23,0,6,2.2,6,6.61,0,3.63-2.15,6.59-6.17,6.59-4.36,0-6.16-3-6.16-6.59C666.1,262.52,668.88,260.32,672.39,260.32Zm-3.09,6.61c0,2.05.69,4,3,4,2.1,0,3-1.95,3-4,0-2.86-1.41-4-3-4C670.68,262.91,669.3,264,669.3,266.93Z"/><path d="M681.34,261.26a15.36,15.36,0,0,1,4.88-.94c3.9,0,5.33,1.93,5.33,4.94v5.22a.65.65,0,0,0,.62.74,2.45,2.45,0,0,0,1-.15v2.05a5.05,5.05,0,0,1-2,.4,2.33,2.33,0,0,1-2.34-1.76,5.63,5.63,0,0,1-3.9,1.76c-2.51,0-4.39-1.29-4.41-4s2-4.1,5.25-4.1a19.85,19.85,0,0,1,2.79.25v-.77c0-1.4-.89-2.17-2.67-2.14a10.39,10.39,0,0,0-4,.79Zm7.15,6a13.88,13.88,0,0,0-2.51-.15c-1.48.08-2.42.77-2.44,2.08a1.8,1.8,0,0,0,2.09,1.89,5.07,5.07,0,0,0,2.86-1Z"/><path d="M697.72,260.45l.56,2.66c.6-2,2.1-2.84,4.2-2.79a5.28,5.28,0,0,1,1.33.23l-.47,2.68a5.33,5.33,0,0,0-1.85-.24c-2.27.07-3.13,1.82-3.13,3.89v6.49H695.3V260.45Z"/><path d="M717.35,254.53v18.84h-2.57l-.34-2.22a4.53,4.53,0,0,1-4.12,2.37c-3.48.05-5.55-2.84-5.55-6.64,0-4.63,3-6.56,5.52-6.56a4.13,4.13,0,0,1,4,2.44v-7.84Zm-9.42,12.33c0,2.19.86,3.92,3.15,3.92s3.26-1.73,3.26-3.9c0-2.93-1.58-4-3.28-4S707.93,264,707.93,266.86Z"/><path d="M97.35,227.85a68.34,68.34,0,0,0,2.26,33.88,81.51,81.51,0,0,0,15.44,27A88.38,88.38,0,0,0,127,300.4c1.49,1.2,3.62-.91,2.12-2.12-15.47-12.49-27.31-30.61-29.53-50.65a65,65,0,0,1,.69-19c.35-1.89-2.54-2.69-2.89-.8Z"/><path d="M122.78,285.81c1.69,4.63,2.92,9.41,4.25,14.16l1.45-1.9c-2.49.06-5,.24-7.47.34-2.31.1-4.62.1-6.94.2-1.92.09-1.93,3.09,0,3,2.32-.1,4.63-.1,6.94-.2,2.49-.1,5-.28,7.47-.34a1.52,1.52,0,0,0,1.44-1.9c-1.33-4.75-2.56-9.52-4.24-14.16a1.55,1.55,0,0,0-1.85-1.05,1.52,1.52,0,0,0-1,1.85Z"/><path d="M75.44,148.57v17.26H72.36V148.57Z"/><path d="M82.74,149.26V153H86l-.42,2.47H82.74v5.92c0,1.4.64,2,1.68,2a5.72,5.72,0,0,0,2-.57l.56,2.34a8.09,8.09,0,0,1-3.27.84c-3,0-4-2-4-4.14V155.5H77.88V153h2l.37-3.42Z"/><path d="M96.48,152.91l.44,2.29a4.34,4.34,0,0,1,4-2.44,3.77,3.77,0,0,1,3.85,2.39,4.55,4.55,0,0,1,4.16-2.39c3,0,4.22,2,4.22,4.64v8.43h-3.06v-7.45c0-2-.47-3-2.14-3-2.22,0-2.81,1.68-2.81,3.58v6.9h-3.06v-7.45c0-2-.47-3-2.15-3-2.36,0-2.83,1.9-2.83,4v6.51H94V152.91Z"/><path d="M119.15,152.91v7.45c0,2,.79,3,2.59,3,2.34,0,3.3-2.42,3.3-4.86v-5.62h3.06v12.92h-2.44l-.45-2.81a4.7,4.7,0,0,1-4.46,3c-3.16,0-4.66-1.95-4.66-5.2v-7.87Z"/><path d="M131.6,162.13a6.72,6.72,0,0,0,4.19,1.43c1.48,0,2.35-.44,2.35-1.5,0-2.52-7.47-.84-7.23-5.57.1-2.32,1.8-3.7,5.23-3.7A10.49,10.49,0,0,1,140.8,154l-1.08,2.17a7.3,7.3,0,0,0-3.7-1.06c-1.21,0-2.22.39-2.17,1.4.15,2.05,7.32.47,7.32,5.45,0,2.66-2.39,4-5.45,4a8.86,8.86,0,0,1-5.3-1.68Z"/><path d="M147.63,149.26V153h3.26l-.42,2.47h-2.84v5.92c0,1.4.65,2,1.68,2a5.72,5.72,0,0,0,1.95-.57l.57,2.34a8.21,8.21,0,0,1-3.28.84c-3,0-4-2-4-4.14V155.5h-1.8V153h1.94l.37-3.42Z"/><path d="M162,147v8.21a4.39,4.39,0,0,1,4.31-2.41c2.44.07,5.06,1.72,5.06,6.48,0,3.9-2,6.71-5.45,6.71a4.28,4.28,0,0,1-4.07-2.37l-.42,2.22h-2.49V147.39Zm-.12,12.36c0,2.22.81,4,3.25,4,2,0,3.11-1.5,3.11-4,0-3-1.51-4-3.13-4C163.32,155.35,161.87,156.76,161.87,159.35Z"/><path d="M185.39,162.28a5.76,5.76,0,0,1-5.57,3.7c-4.34,0-6.26-2.71-6.26-6.76s2.71-6.53,6.43-6.43c3,.07,5.75,2.34,5.45,6.46l-.05.39h-8.73c0,2.2.94,3.7,3.18,3.7a2.87,2.87,0,0,0,2.79-2.05Zm-3.13-4.22c.05-2-1-2.93-2.54-2.88a2.87,2.87,0,0,0-2.91,2.88Z"/><path d="M196.35,147v8.21a4.39,4.39,0,0,1,4.31-2.41c2.44.07,5.06,1.72,5.06,6.48,0,3.9-1.95,6.71-5.45,6.71a4.27,4.27,0,0,1-4.07-2.37l-.42,2.22h-2.49V147.39Zm-.13,12.36c0,2.22.82,4,3.26,4,2,0,3.1-1.5,3.1-4,0-3-1.5-4-3.13-4S196.22,156.76,196.22,159.35Z"/><path d="M214.23,152.79c3.23,0,6,2.19,6,6.61,0,3.62-2.15,6.58-6.17,6.58-4.36,0-6.16-3-6.16-6.58C207.94,155,210.72,152.79,214.23,152.79Zm-3.09,6.61c0,2,.69,4,3,4,2.1,0,3-1.95,3-4,0-2.87-1.41-4-3-4S211.14,156.49,211.14,159.4Z"/><path d="M226,147v14.62c0,1.39.62,1.76,1.53,1.76a2.42,2.42,0,0,0,1.28-.47l.57,2.19a5.35,5.35,0,0,1-2.79.89c-2.56,0-3.65-1.73-3.65-4.07V147.36Z"/><path d="M242.49,147v18.84h-2.56l-.35-2.22a4.52,4.52,0,0,1-4.12,2.37c-3.47.05-5.55-2.84-5.55-6.63,0-4.64,3-6.56,5.53-6.56a4.1,4.1,0,0,1,4,2.44v-7.84Zm-9.42,12.33c0,2.2.86,3.92,3.16,3.92s3.25-1.72,3.25-3.89c0-2.94-1.58-4-3.28-4S233.07,156.49,233.07,159.32Z"/><path d="M246.61,165.49a1.42,1.42,0,0,1-1.63-1.58,1.6,1.6,0,0,1,1.73-1.53c1.7,0,2.37,1.33,2.24,2.91-.19,2.34-2,3.28-4,3.3v-1.33c1.16,0,2-.61,2-1.36C246.91,165.71,246.61,165.49,246.61,165.49Z"/><path d="M259.73,147v8a4.82,4.82,0,0,1,4.24-2.19c3,0,4.49,2,4.49,4.61v8.43H265.4v-7.45c0-2-.74-3-2.41-3-2.35,0-3.26,1.9-3.26,4v6.51h-3.06V147.36Z"/><path d="M275.54,152.91v12.92h-3.08V155.45h-1.8v-2.54Zm-1.55-5a1.6,1.6,0,1,1,0,3.16,1.63,1.63,0,0,1-1.8-1.63A1.59,1.59,0,0,1,274,147.88Z"/><path d="M290.73,152.91v11c0,4.29-1.67,6.88-6.41,6.88a13.36,13.36,0,0,1-5.28-1.11l.72-2.31a11.13,11.13,0,0,0,4.22,1c2.78,0,3.69-1.38,3.69-3.5v-1.14a4.44,4.44,0,0,1-4,2.05c-3.48.07-5.48-2.57-5.48-6.36,0-4.64,3-6.56,5.52-6.56a4.28,4.28,0,0,1,4.1,2.34l.32-2.22Zm-9.32,6.41c0,2.2.86,3.92,3.16,3.92s3.2-1.72,3.2-3.89c0-2.94-1.55-4-3.23-4S281.41,156.49,281.41,159.32Z"/><path d="M297,147v8a4.81,4.81,0,0,1,4.24-2.19c3,0,4.49,2,4.49,4.61v8.43h-3.06v-7.45c0-2-.74-3-2.41-3-2.35,0-3.26,1.9-3.26,4v6.51h-3.06V147.36Z"/><path d="M72.38,187.64a15.49,15.49,0,0,1,4.89-.94c3.89,0,5.32,1.92,5.32,4.93v5.23a.65.65,0,0,0,.62.74,2.41,2.41,0,0,0,1-.15v2.05a5,5,0,0,1-2,.39,2.34,2.34,0,0,1-2.34-1.75,5.64,5.64,0,0,1-3.89,1.75c-2.52,0-4.39-1.28-4.42-4s2-4.09,5.25-4.09a19.85,19.85,0,0,1,2.79.25v-.77c0-1.4-.89-2.17-2.66-2.14a10.41,10.41,0,0,0-4,.79Zm7.16,6a14,14,0,0,0-2.52-.15c-1.48.08-2.42.77-2.44,2.07a1.81,1.81,0,0,0,2.1,1.9,5.1,5.1,0,0,0,2.86-1Z"/><path d="M88.76,186.82l.47,2.3a4.78,4.78,0,0,1,4.41-2.42c3,0,4.49,2,4.49,4.61v8.43H95.07V192.3c0-2-.74-3-2.41-3-2.35,0-3.26,1.89-3.26,4v6.5H86.34V186.82Z"/><path d="M113.32,180.91v18.83h-2.56l-.35-2.21a4.5,4.5,0,0,1-4.11,2.36c-3.48.05-5.55-2.83-5.55-6.63,0-4.64,3-6.56,5.52-6.56a4.09,4.09,0,0,1,4,2.44V181.3Zm-9.42,12.33c0,2.19.87,3.92,3.16,3.92s3.26-1.73,3.26-3.9c0-2.93-1.58-4-3.28-4S103.9,190.4,103.9,193.24Z"/><path d="M132.86,196.12c-.84,2.64-3,3.77-5.62,3.77-4.24,0-6.07-3.15-6.07-6.61,0-4.21,2.61-6.51,6.14-6.58,3.11-.07,5,1.53,5.5,3.8l-2.84.91a2.54,2.54,0,0,0-2.61-2.12c-1.78,0-3.13,1.31-3.13,4,0,2.09.79,4,3.08,4a2.6,2.6,0,0,0,2.71-2Z"/><path d="M141.15,186.7c3.23,0,6,2.2,6,6.61,0,3.62-2.15,6.58-6.17,6.58-4.36,0-6.16-3-6.16-6.58C134.86,188.9,137.65,186.7,141.15,186.7Zm-3.09,6.61c0,2.05.69,4,3,4,2.1,0,3-1.94,3-4,0-2.86-1.41-4-3-4C139.45,189.29,138.06,190.4,138.06,193.31Z"/><path d="M152.32,186.82l.47,2.3a4.78,4.78,0,0,1,4.41-2.42c3,0,4.49,2,4.49,4.61v8.43h-3.06V192.3c0-2-.74-3-2.41-3-2.35,0-3.26,1.89-3.26,4v6.5H149.9V186.82Z"/><path d="M165.66,187V185.2c0-2.64,1.38-4.29,4.25-4.29a6.9,6.9,0,0,1,2.12.32l-.47,2.19c-.1,0-.5-.07-.89-.07-1.36,0-1.92.56-1.92,2.34V187H176v12.79h-3.06V189.41h-4.16v10.33h-3.09V189.41h-2V187Zm8.81-5.16a1.65,1.65,0,0,1,1.8,1.56,1.62,1.62,0,0,1-1.8,1.6,1.64,1.64,0,0,1-1.83-1.63C172.64,182.48,173.28,181.79,174.47,181.79Z"/><path d="M191.21,180.91v18.83h-2.56l-.35-2.21a4.5,4.5,0,0,1-4.11,2.36c-3.48.05-5.55-2.83-5.55-6.63,0-4.64,3-6.56,5.52-6.56a4.09,4.09,0,0,1,4,2.44V181.3Zm-9.42,12.33c0,2.19.87,3.92,3.16,3.92s3.26-1.73,3.26-3.9c0-2.93-1.58-4-3.28-4S181.79,190.4,181.79,193.24Z"/><path d="M205.69,196.19a5.75,5.75,0,0,1-5.57,3.7c-4.34,0-6.26-2.71-6.26-6.75s2.71-6.54,6.43-6.44c3,.07,5.75,2.34,5.45,6.46l-.05.4H197c0,2.19.94,3.69,3.18,3.69a2.87,2.87,0,0,0,2.79-2ZM202.56,192c.05-2-1-2.94-2.54-2.89a2.88,2.88,0,0,0-2.91,2.89Z"/><path d="M210.85,186.82l.47,2.3a4.78,4.78,0,0,1,4.41-2.42c3,0,4.49,2,4.49,4.61v8.43h-3.06V192.3c0-2-.74-3-2.42-3-2.34,0-3.25,1.89-3.25,4v6.5h-3.06V186.82Z"/><path d="M227.3,183.17V187h3.25l-.42,2.46H227.3v5.92c0,1.41.64,1.95,1.68,1.95a5.43,5.43,0,0,0,1.94-.57l.57,2.34a7.94,7.94,0,0,1-3.28.84c-3,0-4-2-4-4.14v-6.34h-1.8V187h1.95l.37-3.43Z"/><path d="M97.35,227.85a68.34,68.34,0,0,0,2.26,33.88,81.51,81.51,0,0,0,15.44,27A88.38,88.38,0,0,0,127,300.4c1.49,1.2,3.62-.91,2.12-2.12-15.47-12.49-27.31-30.61-29.53-50.65a65,65,0,0,1,.69-19c.35-1.89-2.54-2.69-2.89-.8Z"/><path d="M122.78,285.81c1.69,4.63,2.92,9.41,4.25,14.16l1.45-1.9c-2.49.06-5,.24-7.47.34-2.31.1-4.62.1-6.94.2-1.92.09-1.93,3.09,0,3,2.32-.1,4.63-.1,6.94-.2,2.49-.1,5-.28,7.47-.34a1.52,1.52,0,0,0,1.44-1.9c-1.33-4.75-2.56-9.52-4.24-14.16a1.55,1.55,0,0,0-1.85-1.05,1.52,1.52,0,0,0-1,1.85Z"/><path class="cls-8" d="M95.79,61.4A36.74,36.74,0,0,1,104.16,38a34.44,34.44,0,1,0,.11,46.9A36.78,36.78,0,0,1,95.79,61.4ZM87.2,75.66H70.92L71,73.39l4.46-.58c.58,0,.81-.23.81-1,.08-10.05,0-19.6,0-19.6l-5.62,1.08c-.19-.31-1.12-2.46-.46-2.73l10.35-4,1,1s-.12,20.87,0,24.37c0,.77.19,1,.73,1l5.08.54Z"/><circle cx="130" cy="61.53" r="34.44"/><text class="cls-9" transform="translate(118.45 75.26)">2</text><path d="M184,52.13l8.43,15.27V52.13h3.75v21h-4.59L183.3,58.34V73.13h-3.75v-21Z"/><path d="M213.6,68.81a7,7,0,0,1-6.78,4.5c-5.28,0-7.62-3.3-7.62-8.22s3.3-8,7.83-7.83c3.69.09,7,2.85,6.63,7.86l-.06.48H203c0,2.67,1.14,4.5,3.87,4.5a3.5,3.5,0,0,0,3.39-2.49Zm-3.81-5.13c.06-2.43-1.26-3.57-3.09-3.51a3.5,3.5,0,0,0-3.54,3.51Z"/><path d="M219.69,57.41l3.15,6.18,3.3-6.18h4l-4.35,7.8,4.53,7.92h-4.26L222.78,67l-3.45,6.12h-4.14L220,65.27l-4.29-7.86Z"/><path d="M238.11,53v4.59h4l-.51,3h-3.45v7.2c0,1.71.78,2.37,2,2.37a6.83,6.83,0,0,0,2.37-.69l.69,2.85a9.82,9.82,0,0,1-4,1c-3.69,0-4.83-2.46-4.83-5V60.56H232.2v-3h2.37l.45-4.17Z"/><path d="M256.74,57.41V73.13H253V60.5H250.8V57.41Zm-1.89-6.12a2,2,0,0,1,2.22,1.89,2.22,2.22,0,0,1-4.41,0A1.93,1.93,0,0,1,254.85,51.29Z"/><path d="M261,68.63a8.15,8.15,0,0,0,5.1,1.74c1.8,0,2.85-.54,2.85-1.83,0-3.06-9.09-1-8.79-6.78.12-2.82,2.19-4.5,6.36-4.5a12.78,12.78,0,0,1,5.67,1.47l-1.32,2.64a8.9,8.9,0,0,0-4.5-1.29c-1.47,0-2.7.48-2.64,1.71.18,2.49,8.91.57,8.91,6.63,0,3.24-2.91,4.92-6.63,4.89a10.76,10.76,0,0,1-6.45-2Z"/><path d="M286.77,53v4.59h4l-.51,3h-3.45v7.2c0,1.71.78,2.37,2,2.37a6.83,6.83,0,0,0,2.37-.69l.69,2.85a9.82,9.82,0,0,1-4,1c-3.69,0-4.83-2.46-4.83-5V60.56h-2.19v-3h2.37l.45-4.17Z"/><path d="M294.09,58.4A18.74,18.74,0,0,1,300,57.26c4.74,0,6.48,2.34,6.48,6v6.36a.79.79,0,0,0,.75.9,3,3,0,0,0,1.23-.18v2.49a6.08,6.08,0,0,1-2.49.48,2.84,2.84,0,0,1-2.85-2.13,6.87,6.87,0,0,1-4.74,2.13c-3.06,0-5.34-1.56-5.37-4.83s2.46-5,6.39-5a24.49,24.49,0,0,1,3.39.3v-.93c0-1.71-1.08-2.64-3.24-2.61a12.68,12.68,0,0,0-4.86,1Zm8.7,7.35a16.62,16.62,0,0,0-3.06-.18c-1.8.09-2.94.93-3,2.52a2.21,2.21,0,0,0,2.55,2.31,6.17,6.17,0,0,0,3.48-1.26Z"/><path d="M314.79,50.21V64h1.74l3.66-6.45h4.2l-4.71,7.77,5.13,7.86h-4.29l-4-6.09h-1.77v6.09h-3.72V50.66Z"/><path d="M340.59,68.81a7,7,0,0,1-6.78,4.5c-5.28,0-7.62-3.3-7.62-8.22s3.3-8,7.83-7.83c3.69.09,7,2.85,6.63,7.86l-.06.48H330c0,2.67,1.14,4.5,3.87,4.5a3.5,3.5,0,0,0,3.39-2.49Zm-3.81-5.13c.06-2.43-1.26-3.57-3.09-3.51a3.5,3.5,0,0,0-3.54,3.51Z"/><path d="M349.68,63.56v3h-7.44v-3Z"/><path d="M359,57.26c3.93,0,7.35,2.67,7.35,8,0,4.41-2.61,8-7.5,8-5.31,0-7.5-3.6-7.5-8C351.33,59.93,354.72,57.26,359,57.26Zm-3.75,8c0,2.49.84,4.86,3.66,4.86,2.55,0,3.69-2.37,3.69-4.86,0-3.48-1.71-4.89-3.6-4.89C356.91,60.41,355.23,61.76,355.23,65.3Z"/><path d="M370.56,57.56V55.43c0-3.21,1.68-5.22,5.19-5.22a8.28,8.28,0,0,1,3,.54l-.48,2.61a7.71,7.71,0,0,0-1.59-.18c-1.65,0-2.34.69-2.34,2.85v1.53h3.42l-.48,3h-2.94V73.13h-3.75V60.56H368.1v-3Z"/><path d="M381.12,57.56V55.43c0-3.21,1.68-5.22,5.19-5.22a8.28,8.28,0,0,1,3,.54l-.48,2.61a7.71,7.71,0,0,0-1.59-.18c-1.65,0-2.34.69-2.34,2.85v1.53h3.42l-.48,3h-2.94V73.13h-3.75V60.56h-2.46v-3Z"/></svg>