<svg id="Layer_1" data-name="Layer 1" xmlns="http://www.w3.org/2000/svg" viewBox="0 0 780 1051.14"><defs><style>.cls-1{fill:#c6946f;stroke-width:0.23px;}.cls-1,.cls-2,.cls-4,.cls-5,.cls-6,.cls-7{stroke:#fff;stroke-miterlimit:10;}.cls-2,.cls-3,.cls-6,.cls-7{fill:#d4a47c;}.cls-2{stroke-width:0.28px;}.cls-4{fill:#005058;stroke-width:0.54px;}.cls-5{fill:#fff171;stroke-width:0.3px;}.cls-6{stroke-width:0.41px;}.cls-7{stroke-width:0.31px;}.cls-8{font-size:24.66px;}.cls-18,.cls-8{font-family:ABCSansBold, ABCSans;}.cls-9{letter-spacing:-0.01em;}.cls-10{letter-spacing:-0.03em;}.cls-11{letter-spacing:0.01em;}.cls-12{letter-spacing:-0.02em;}.cls-13{letter-spacing:-0.01em;}.cls-14{letter-spacing:-0.02em;}.cls-15{letter-spacing:-0.02em;}.cls-16,.cls-17{fill:#fff;}.cls-16{opacity:0.7;}.cls-17{font-size:38.5px;font-family:ABCSerifBold, ABCSerif;}.cls-18{font-size:30px;}.cls-19{letter-spacing:-0.01em;}.cls-20{letter-spacing:-0.02em;}.cls-21{letter-spacing:-0.01em;}.cls-22{letter-spacing:0em;}</style></defs><path class="cls-1" d="M478,425.84l-.11-.14L456.64,403c-6.4-6.84-12.82-14.12-20.05-19.83-12.13-9.56-21.63-21.92-31.1-34.52l.21,0a.7.7,0,0,1-.32-.18l-.82-1.1-.09-.13c-1.84-3-4.6-10-5.3-11.27-3.89-7.1-8.13-14.74-14.5-20.2-7-6-15.64-9.85-22.46-16.15-4.41-4.07-11-4.13-15.47-8.28-1.93-1.8-5.23-4.12-7.81-4.66-3.51-.75-7.57,1.53-3.37,4.5a13.62,13.62,0,0,1,3.13,2.36c2.13,2.68.3,6.8,1.6,10a10.51,10.51,0,0,0,2.55,3.32c3.35,3.34,7.1,6.45,10.33,9.84,1.78,1.86,2.46,4.05,3.9,6.07,2.63,3.72,2.66,8.84,3.29,13.3.1.67.24,1.33.4,2,1.32,5.4,1.49,7.33,4,8.85a8.55,8.55,0,0,0,6.82.73,22.42,22.42,0,0,1,3.73-.88l1.47-.19c4.93,6.93,14.14,24.22,17,29.91,6.22,12.32,11.88,24.73,17.22,37.39l0,.08c.41.83,10.07,9.57,10.48,10.4-9.51-4.63-16.56-12.6-26.86-15.72-14.53-4.39-29.16-8.32-43.8-12.28-14.07-3.59-29-9-43.67-7.26-14,1.63-27,8-35.71,17.4-5.51,6-9.37,13.27-9.91,21-.76,10.73,6.15,35.54,14.29,43.93,18.2,18.77,36,4,52.87,9.18,25,7.68,22.22,6.29,48.63,7.88,13.63.83,34.56-.88,49.73.06,11.65.73,30.2,1.19,41.17-3,13.57-3.1,26.26-26.14,21.61-39.15-2.15-6-6.58-10.76-9.33-16.47l-.78-1.62a1,1,0,0,0-.14-.22Z"/><path class="cls-2" d="M433.87,586.54c.49,1.17-9.91-.43-10.65.85s-2.3.29-3.42,0c-.91-.24-1.83,0-2.77-.19a7.24,7.24,0,0,0-2-.4,6.47,6.47,0,0,0-4.29,2c-1.12,1.47-.71,3.5-1.6,5a6,6,0,0,1-1.64,1.56,2.77,2.77,0,0,1,1.25,1.2c2,3.59,1.28,7.66,1.95,11.54a21,21,0,0,0,3.55-.46,30.26,30.26,0,0,1,5.62-.57c1.7,0,3.16-.53,4.57.4,1.07.71,1.61,2,2.68,2.69a23.3,23.3,0,0,1,2.27,1.3,32.3,32.3,0,0,1,2.85,3c2.1,2.23,4.45,4.3,6.66,6.44a25.4,25.4,0,0,0,8.14,5.52,20.37,20.37,0,0,0,9.9,1.16,44.57,44.57,0,0,0,7.66-1.36,77.9,77.9,0,0,0,10.54-4.15c3.84-1.84,7.47-5.28,10.19-8.49,2-2.37,4.32-4.34,6.1-7a26.41,26.41,0,0,0,3.45-8.83c.62-2.66,2-4.75,3.22-7.08.63-1.17.71-2.54,1.32-3.79a29.38,29.38,0,0,0,2-4.51c.89-3.06-.3-5.48-1.48-8.19-.78-1.82-2.1-3.22-2.86-5a15,15,0,0,0-1.42-2.5c-.6-.9-.89-1.87-1.5-2.77-.29-.43-.7-.67-1-1.11s-.22-.89-.63-1.28a20.59,20.59,0,0,0-2.88-1.62,27.4,27.4,0,0,1-3.22-2.16l-.32-.26a1,1,0,0,0,0-.56,12.62,12.62,0,0,1-.16-3c0-2.53.4-2.74.07-5.62a28.91,28.91,0,0,0-1.08-5.31A3.58,3.58,0,0,0,479.7,541a2,2,0,0,1-1.3.21,5,5,0,0,1-3.34-1.46,19.75,19.75,0,0,0-1.79-2.6,19.26,19.26,0,0,0-4.79-3.31c-1.45-.69-2.44-.52-3.13-1.94-.5-1-1-2.1-1.4-3.15-.85-2-2.2-3.53-4.53-3.28a15.79,15.79,0,0,0-9.23,5.21C432.56,554.16,432,540.06,423.56,546c-5.79,4-14.4,11.08-21.48,10.51"/><path d="M484.14,570.09c-.36.1-.73.17-1.1.24s-.66.11-.86-.05-.08,0,0-.14.22-.1.29-.14a1.81,1.81,0,0,0,.29-.19c.36-.28.69-.61,1.05-.9.21-.16.39-.35.61-.5,1.37-.93,3.09-1.44,4.33-2.51a7.49,7.49,0,0,0,2.06-4.14c.47.25,2,1,2,1.61-.09.85-1.82,2.28-2.24,3a6.85,6.85,0,0,1-3.63,3C486,569.74,485.05,569.83,484.14,570.09Z"/><path d="M414.39,612.69c2.61-.05,5.4-.58,8-.32,8.22.83,13.15,9.4,20.22,13.67,5.83,3.51,13.12,4,19.75,2.46s12.71-4.82,18.44-8.48c5.31-3.39,10.48-7.19,14.29-12.21,2.56-3.38,8.51-14.32,4.54-18.3s-13.78-.66-18.74-4.33c-2.52-1.86-4.14-4.86-6.95-6.24a24.91,24.91,0,0,0-4.51-1.34c-2.74-.78-5.27-2.26-8.05-2.85s-6.15,0-7.63,2.44a11.66,11.66,0,0,1,2.85,5.33c.31,2-1,2.13-2.92,2.82-2.63,1-4.86.67-6-1.87s-1.83-5.55-4.07-7.23c-2.42-1.83-5.78-1.44-8.77-1-5.14.81-13.15,5.58-18.29,6.39-.47,3.09-.84,2.08-1.5,5.14-.49,2.3,4,2.82,1.82,3.76a19.32,19.32,0,0,0-9.47,9c-1.86,3.74-2.15,8.92,1.11,11.53A8.75,8.75,0,0,0,414.39,612.69Z"/><path d="M499.55,588.58l-.43.87.2.1A3,3,0,0,0,499.55,588.58Z"/><path d="M424.46,603.94a7.41,7.41,0,0,0-.41,3.53,12.49,12.49,0,0,1-.77,4.09,6.41,6.41,0,0,1-2.81,3.77,7.08,7.08,0,0,1-4.12.79,6.85,6.85,0,0,1-3.59-1.21c-1-1-1.43-3.12-2-4.34a7,7,0,0,1,0-4.77c.46-1.58,1.21-3.27,2.72-4.06a20.67,20.67,0,0,1,10.92-1.86c1.83.11,3.59,1.9,4.62,3.34s2.3,4.11,2.24,5.93c-.12,3.48-4.08,5.25-7,5.8-1.75.33-3.54.48-5-.79a10.27,10.27,0,0,1-2.44-3.91,18.78,18.78,0,0,1-1.8-4.94,7,7,0,0,1-.2-2.75,21.72,21.72,0,0,0,.62-3,8.54,8.54,0,0,1,1-3.31,3.36,3.36,0,0,1,2-1.72,11.2,11.2,0,0,1,3-.87c.66-.09,1.34.07,2,0,1.15-.07,1.18,0,1.77,1.13"/><path d="M423.8,609.15c1.12,1,1.16,2.35,1.1,3.73a6.32,6.32,0,0,0,0,1.44,1.93,1.93,0,0,1-.65,1.91c-1.31,1.4-3.57,1.76-5.33,2.14a6.78,6.78,0,0,1-2.28.25c-.71-.1-1.36-.45-2.05-.54a4.71,4.71,0,0,1-1.18-.07c-.43-.16-.74-.49-1.18-.63a2.57,2.57,0,0,1-1.12-.46,9,9,0,0,1-.91-.94,5.19,5.19,0,0,1-1.36-1.92,15.12,15.12,0,0,1-.48-2.41,6.88,6.88,0,0,1,.05-1.11c0-.46-.11-.9-.09-1.36a6.52,6.52,0,0,1,1.64-3.27c1.37-1.89,3.92-2.85,6-3.68a12.14,12.14,0,0,1,5.21-.79,28.24,28.24,0,0,1,2.89.53,10.36,10.36,0,0,1,2.64.68,9,9,0,0,1,2.44,1.76,20.52,20.52,0,0,1,2.22,2.35,6.58,6.58,0,0,1,1,3,8.58,8.58,0,0,0,0,1.68,5.8,5.8,0,0,1,.31,1.71,6.9,6.9,0,0,1-2.43,5.4,21.36,21.36,0,0,1-3.71,2.57c-.87.42-1.78.78-2.65,1.19a6.17,6.17,0,0,1-3,.51,4.31,4.31,0,0,1-1.78-.34,5.24,5.24,0,0,1-1.59-.72c-1.23-1.18-1.4-2.82-2.34-4.11a5.23,5.23,0,0,1-.59-.73c-.24-.45-.41-.93-.61-1.39a11,11,0,0,1-.89-2.28,7.32,7.32,0,0,1-.08-2.76,3.76,3.76,0,0,1,1.71-2.6,10.29,10.29,0,0,1,3.28-2,13.36,13.36,0,0,1,5.1-.58,10.33,10.33,0,0,1,5.05,1.31,11.32,11.32,0,0,1,2.26,1.52,11.78,11.78,0,0,1,1.33,2.07c.89,1.51.58,3.43.48,5.08,0,.32.06,1.12-.13,1.4s-.64.32-.87.42"/><path d="M422.05,589.91c1.12,1,1.16,2.35,1.1,3.73a6.32,6.32,0,0,0,0,1.44,2,2,0,0,1-.64,1.92c-1.32,1.39-3.58,1.75-5.34,2.13a6.78,6.78,0,0,1-2.28.25c-.71-.09-1.35-.45-2-.53a4.77,4.77,0,0,1-1.19-.08c-.42-.16-.73-.49-1.18-.63a2.45,2.45,0,0,1-1.12-.46,8.77,8.77,0,0,1-.9-.93,5.25,5.25,0,0,1-1.37-1.93,15.12,15.12,0,0,1-.48-2.41,6.88,6.88,0,0,1,.05-1.11c0-.46-.11-.9-.08-1.36a6.45,6.45,0,0,1,1.64-3.27c1.37-1.88,3.91-2.85,6-3.68a12.14,12.14,0,0,1,5.21-.79c1,.11,1.92.33,2.89.53a10.38,10.38,0,0,1,2.64.69,8.8,8.8,0,0,1,2.44,1.75,19.68,19.68,0,0,1,2.22,2.35,6.5,6.5,0,0,1,1,3,8.57,8.57,0,0,0,0,1.68,5.87,5.87,0,0,1,.31,1.72,6.85,6.85,0,0,1-2.43,5.39,22,22,0,0,1-3.71,2.58c-.87.41-1.77.77-2.65,1.18a6.17,6.17,0,0,1-3,.51,4.33,4.33,0,0,1-1.78-.33,5.63,5.63,0,0,1-1.59-.73c-1.22-1.18-1.4-2.82-2.34-4.11a6.07,6.07,0,0,1-.59-.73c-.24-.44-.41-.93-.61-1.39a10.54,10.54,0,0,1-.88-2.28,7.13,7.13,0,0,1-.09-2.76,3.76,3.76,0,0,1,1.71-2.6,10.4,10.4,0,0,1,3.28-2,13.56,13.56,0,0,1,5.1-.58,10.33,10.33,0,0,1,5.05,1.31,11.3,11.3,0,0,1,2.27,1.53,11.61,11.61,0,0,1,1.33,2.07c.88,1.51.58,3.42.47,5.07a3.84,3.84,0,0,1-.13,1.4c-.15.22-.64.32-.87.42"/><path class="cls-2" d="M455.62,574.53c5.33,1.43,3.28,10-.48,11.83a6.85,6.85,0,0,1-8.76-3c-1.58-3.17-.43-7.14-1.81-10.4-.72-1.73-2.15-3.27-2.09-5.15s3.19-3.12,3.65-1.31"/><path class="cls-3" d="M438.93,572c.07-3.67-9.29-16.24-10.56-19.64-1.11-3-3.38-5.47-5.19-8.06-1.33-1.9-3.23-3.17-4.63-5-.82-1.07-1.85-1.83-2.63-2.94a10.39,10.39,0,0,0-2.21-2.18c-1.55-1.2-3-2.48-4.55-3.69-.93-.75-2-1.33-2.89-2.14-2.54-2.33-5.59-3.92-8.42-5.93-2.51-1.78-5.08-3.53-7.42-5.48-1.81-1.51-3.9-2.27-5.94-3.35a9.34,9.34,0,0,0-4.06-1.54,17.21,17.21,0,0,1-3.05-1.12,27.39,27.39,0,0,0-3.62-.63c-3.08-.51-6.15-1.16-9.22-1.71-4.56-.83-8.93-2.69-13.39-3.93-3.91-1.09-7.87-2.11-11.72-3.43-5.44-1.87-11-3-16.54-4.68-8.66-2.59-17.56-3.51-26.54-4.15a58.14,58.14,0,0,0-7.69-.45c-2.41.15-11.51-13.89-13.83-13.24-9.48,2.62,4.42,22.54,7,26.41q1.56,2.39,3,4.83c7.72,12.87,13.75,26.85,23.08,38.65a129.13,129.13,0,0,0,29.87,27,106.79,106.79,0,0,0,17,9c4.89,2.06,12,5.81,17.38,5.88,4.15.07,8.31,0,12.42,0a68,68,0,0,0,12.35-.68c3.22-.59,6.39-.87,9.42-2.17a80.84,80.84,0,0,1,7.52-3.3c1.82-.56-3.76,1.83-2.07.77"/><path class="cls-4" d="M371.56,479.93a34,34,0,0,1-10.77-14.08,24.9,24.9,0,0,1-1.21-4.29c-.18-1-.05-1.06-1-1.37a9.67,9.67,0,0,0-2.1-.29c-.81-.07,1.6,19.24.81,19.35-18.19,2.42-36-2.9-52.37-10.52-8-3.75-17.4-7.74-24.53-13.09-6.81-5.11-8.73-12.7-11.84-20.53a50,50,0,0,1-3.82-17.19c0-.38,0-.75,0-1.13-1.18,2.1-2.46,4.15-3.55,6.29a34.11,34.11,0,0,0-2.69,8.06c-1.27,5.55-.41,8.09-.63,13.77a66.51,66.51,0,0,0,2.8,20.08,84.12,84.12,0,0,0,8.37,18.8c.68,1.16,4.2,7.8,5.18,8.72,1.23,1.14,4.44,2.17,5.95,2.87,21.9,10.2,38.81,29,58.74,42.9a5.27,5.27,0,0,0,2.95,1.25,5.08,5.08,0,0,0,2.67-1.18,161.9,161.9,0,0,1,41.71-21,7.71,7.71,0,0,1,3.84-.56,3,3,0,0,1,2.52,2.7q-.45-5-.65-9.93"/><path d="M409.78,587.83c-1.28,1.24-2.89,1.92-4.14,3.2a16.84,16.84,0,0,0-2.64,4.45,5.84,5.84,0,0,0-.16,4.89c.62,1.75,1.29,3.5,3,4.36,3.61,1.87,7.08,2.27,10.88.39,1.26-.63,9.83-5.78,6.56-7.53"/><path class="cls-5" d="M343.42,538.72a3.42,3.42,0,0,1-.4.17,4.13,4.13,0,0,1-.85.17,1.74,1.74,0,0,1-.32,0,5,5,0,0,1-.77-.08,1.49,1.49,0,0,1-.51-.14,1.58,1.58,0,0,1-.61-.33l-.51-.36a1.45,1.45,0,0,1-.22-.21c-.39,7.67,1.62,16.64,6.1,26.58a124.67,124.67,0,0,0,11.4,19.8s1.49,2.35,1.19,1.84c3.22,1.28,4,1.81,6.91,2.72-.57-.84-2-3.23-2.55-4-.73-1.1-1.4-2.11-2-3a120.4,120.4,0,0,1-11-19.08c-3.1-6.9-6.09-15.85-5.77-24.17Z"/><path class="cls-6" d="M372.87,539.47c4.41,5.09,8.25,10.65,12.52,15.86,8.77,10.73,16.15,15,30.15,11.19a19.25,19.25,0,0,0,12.14-9.41,19.8,19.8,0,0,0,2.2-9.12,46,46,0,0,0-6.17-23.8c-4-6.59-7.8-12.14-14.55-16a58.22,58.22,0,0,1-12.78-9.5,63.24,63.24,0,0,1-9.49-12.46,63.64,63.64,0,0,0-8.26-11.15c24.31-15.8,38.47-35.8,59.63-51,4.6.06,9.19.78,13.78,1.12a86.08,86.08,0,0,0,8.79.57c3.1-.08,5-1.12,7.75-2.18,2.33-.9,3.15-2.79,5.64-3.09a3.23,3.23,0,0,0,.77-.2c.28-.1.6-.14.88-.25a3.72,3.72,0,0,0,1.46-.92,1.52,1.52,0,0,0,.33-.39c.08-.21.1-.49.16-.72a7.2,7.2,0,0,1,.42-1.44,6.71,6.71,0,0,1,1-1.11,23.59,23.59,0,0,1,1.95-1.92,10.78,10.78,0,0,0,2.07-1.85c.32-.5-.15-.89-.56-1.27a2.69,2.69,0,0,0-.77-.45c-.32-.15-.64-.28-1-.41-.51,0-1,0-1.51,0l-.22-.05a10.29,10.29,0,0,0-1.94.76c-.71.34-1.41.71-2.1,1.09l-5.8,3.9,6.49-4.39a10.33,10.33,0,0,1,1.81-.94c.46-.18,1-.29,1.45-.45a.7.7,0,0,1-.43-.59,3.89,3.89,0,0,0-1.91-3.08c-1-.66-2.12-1.19-3.1-1.95a.72.72,0,0,1-.15-.83,2.69,2.69,0,0,0-.39-3.42,7.51,7.51,0,0,0-3.34-1.59.71.71,0,0,1-.26-.13l-5.12,1.63c.09,0-5.81,2.09-2.59.73l7.59-2.49a.61.61,0,0,1-.1-.74,1.76,1.76,0,0,0-.1-2.08c-1.08-1.27-1.5-.7-2.23-1.09a2.62,2.62,0,0,1-1.62-2,1.76,1.76,0,0,0-1-1.59,8.52,8.52,0,0,0-1.32-.44c-.82.27-1.59.61-2.43.83-1.82.48-3.39,1.48-5.14,2.11-1.92.7-3.89,1.27-5.81,2-.74.27-1.47.54-2.2.85-4.27,1.86-7.78,5.26-11.34,8.16a14.69,14.69,0,0,1-1.08,1,18.38,18.38,0,0,0-2,1.84c-11.31,4.08-22.6,8.2-33.11,13.53a129,129,0,0,0-40.38,31.35c-.46.55-.9,1.11-1.32,1.67-2.33,3.11-4.12,6.43-6.27,9.71-1.45,2.21-2.32,4.82-4.1,6.29a11.77,11.77,0,0,0-3.79,5.4c-2,6.08,1.29,12.51,4.59,18C355.38,503.59,364.42,529.71,372.87,539.47Z"/><path class="cls-7" d="M473.58,416.43a3.13,3.13,0,0,0,.53,1.25c.21.24.44.49.67.72s.33.42.51.64.33.76.92.82"/><path class="cls-7" d="M475.47,416a7.28,7.28,0,0,1,1.53.89c.15.1.32.2.47.31s.34.39.55.49"/><path class="cls-7" d="M479.76,414.53c-1.08.88-.91-.59-.79-1.12.28-1.19.85-3.7,3-3.29"/><path class="cls-7" d="M466.77,393.55a33.67,33.67,0,0,0-5.2,2.1,7,7,0,0,0-.89.38c-.31.19-2.69,1.23-3,1.38-.5.23,8.73-4.09,8.2-4"/><path class="cls-7" d="M474.29,404c-.67.18-2.1.8-2.75,1-.37.14-7.05,2.43-7.42,2.57s9.94-3.84,9.54-3.74"/><path class="cls-5" d="M377.9,590.56l4.31.1c1.29,0,2.57-.08,3.86-.1a97.57,97.57,0,0,0,35.54-24.74,24.5,24.5,0,0,0,5-7.5,13.82,13.82,0,0,1-3.71,4.24,14,14,0,0,1-2.9,2.13,16.35,16.35,0,0,1-5.07,2c-2,2-4,3.91-6.17,5.7a95.85,95.85,0,0,1-29,16.26c-1.87.68-4,1.33-5.88,1.9C374.75,590.56,376.82,590.52,377.9,590.56Z"/><path d="M699.81,578.27c3.6,3.38,6.85,7.09,10.18,10.73l.3-2.36c-2.2,1.18-4.33,2.47-6.51,3.68-2,1.13-4.09,2.17-6.1,3.3a1.5,1.5,0,0,0,1.51,2.59c2-1.13,4.08-2.17,6.1-3.3,2.18-1.21,4.32-2.5,6.51-3.68a1.51,1.51,0,0,0,.31-2.35c-3.33-3.64-6.58-7.35-10.17-10.73-1.41-1.32-3.54.8-2.13,2.12Z"/><path d="M633.29,575.27c-3.6,3.38-6.85,7.09-10.18,10.72a1.52,1.52,0,0,0,.31,2.36c2.19,1.18,4.33,2.46,6.51,3.68,2,1.12,4.08,2.16,6.1,3.3a1.5,1.5,0,0,0,1.51-2.59c-2-1.14-4.08-2.18-6.1-3.3-2.17-1.22-4.31-2.5-6.51-3.68l.31,2.35c3.32-3.63,6.57-7.34,10.17-10.72,1.41-1.32-.72-3.44-2.12-2.12Z"/><path d="M709.47,585.73c-2.45-.18-4.89-.52-7.34-.74-2.65-.24-5.3-.24-8-.24-5.37,0-10.74,0-16.11,0H628a1.5,1.5,0,0,0,0,3c21.39,0,42.79.05,64.18,0,2.93,0,5.88-.07,8.81.15s5.64.62,8.48.83c1.92.14,1.91-2.86,0-3Z"/><text class="cls-8" transform="translate(542.32 205.54)"><tspan class="cls-9">H</tspan><tspan x="16.25" y="0">ead must s</tspan><tspan class="cls-9" x="142.16" y="0">t</tspan><tspan class="cls-10" x="151.96" y="0">a</tspan><tspan x="165.35" y="0">y</tspan><tspan x="2.21" y="33.91">a </tspan><tspan class="cls-11" x="21.52" y="33.91">s</tspan><tspan x="34.07" y="33.91">a</tspan><tspan class="cls-12" x="48.23" y="33.91">f</tspan><tspan x="56.3" y="33.91">e dis</tspan><tspan class="cls-9" x="110.33" y="33.91">t</tspan><tspan x="120.13" y="33.91">ance </tspan><tspan x="2.6" y="67.83">f</tspan><tspan class="cls-13" x="11.28" y="67.83">r</tspan><tspan x="21.4" y="67.83">om the boa</tspan><tspan class="cls-14" x="151.4" y="67.83">r</tspan><tspan x="161.36" y="67.83">d</tspan></text><path d="M97.35,227.85a68.34,68.34,0,0,0,2.26,33.88,81.51,81.51,0,0,0,15.44,27A88.38,88.38,0,0,0,127,300.4c1.49,1.2,3.62-.91,2.12-2.12-15.47-12.49-27.31-30.61-29.53-50.65a65,65,0,0,1,.69-19c.35-1.89-2.54-2.69-2.89-.8Z"/><path d="M122.78,285.81c1.69,4.63,2.92,9.41,4.25,14.16l1.45-1.9c-2.49.06-5,.24-7.47.34-2.31.1-4.62.1-6.94.2-1.92.09-1.93,3.09,0,3,2.32-.1,4.63-.1,6.94-.2,2.49-.1,5-.28,7.47-.34a1.52,1.52,0,0,0,1.44-1.9c-1.33-4.75-2.56-9.52-4.24-14.16a1.55,1.55,0,0,0-1.85-1.05,1.52,1.52,0,0,0-1,1.85Z"/><text class="cls-8" transform="translate(70.61 165.83)">It must be bo<tspan class="cls-15" x="150.8" y="0">l</tspan><tspan x="158.22" y="0">d, high </tspan><tspan x="0" y="33.91">and confident</tspan></text><path d="M97.35,227.85a68.34,68.34,0,0,0,2.26,33.88,81.51,81.51,0,0,0,15.44,27A88.38,88.38,0,0,0,127,300.4c1.49,1.2,3.62-.91,2.12-2.12-15.47-12.49-27.31-30.61-29.53-50.65a65,65,0,0,1,.69-19c.35-1.89-2.54-2.69-2.89-.8Z"/><path d="M122.78,285.81c1.69,4.63,2.92,9.41,4.25,14.16l1.45-1.9c-2.49.06-5,.24-7.47.34-2.31.1-4.62.1-6.94.2-1.92.09-1.93,3.09,0,3,2.32-.1,4.63-.1,6.94-.2,2.49-.1,5-.28,7.47-.34a1.52,1.52,0,0,0,1.44-1.9c-1.33-4.75-2.56-9.52-4.24-14.16a1.55,1.55,0,0,0-1.85-1.05,1.52,1.52,0,0,0-1,1.85Z"/><path class="cls-16" d="M95.79,61.4A36.74,36.74,0,0,1,104.16,38a34.44,34.44,0,1,0,.11,46.9A36.78,36.78,0,0,1,95.79,61.4ZM87.2,75.66H70.92L71,73.39l4.46-.58c.58,0,.81-.23.81-1,.08-10.05,0-19.6,0-19.6l-5.62,1.08c-.19-.31-1.12-2.46-.46-2.73l10.35-4,1,1s-.12,20.87,0,24.37c0,.77.19,1,.73,1l5.08.54Z"/><circle cx="130" cy="61.53" r="34.44"/><text class="cls-17" transform="translate(118.45 75.26)">2</text><text class="cls-18" transform="translate(177.42 73.13)"><tspan class="cls-19">N</tspan><tspan class="cls-20" x="20.46" y="0">e</tspan><tspan x="36.84" y="0">xt is </tspan><tspan class="cls-19" x="102.6" y="0">t</tspan><tspan x="114.51" y="0">a</tspan><tspan class="cls-21" x="131.73" y="0">k</tspan><tspan class="cls-22" x="147.45" y="0">e-off</tspan></text></svg>