<svg id="Layer_1" data-name="Layer 1" xmlns="http://www.w3.org/2000/svg" viewBox="0 0 780 1051.14"><defs><style>.cls-1{fill:#c6946f;stroke-width:0.23px;}.cls-1,.cls-2,.cls-4,.cls-5,.cls-6,.cls-7{stroke:#fff;stroke-miterlimit:10;}.cls-2,.cls-3,.cls-6,.cls-7{fill:#d4a47c;}.cls-2{stroke-width:0.28px;}.cls-4{fill:#005058;stroke-width:0.54px;}.cls-5{fill:#fff171;stroke-width:0.3px;}.cls-6{stroke-width:0.41px;}.cls-7{stroke-width:0.31px;}.cls-8,.cls-9{fill:#fff;}.cls-8{opacity:0.7;}.cls-9{font-size:38.5px;font-family:ABCSerifBold, ABCSerif;}</style></defs><path class="cls-1" d="M478.23,520.57a1.09,1.09,0,0,0,0-.18l-2.66-31c-.8-9.33-1.34-19-3.49-28-3.62-15-3.44-30.6-3.09-46.36l.14.15a.67.67,0,0,1-.14-.34l0-1.37a.92.92,0,0,0,0-.16c.43-3.51,2.57-10.7,2.81-12.14,1.34-8,2.72-16.6,1.09-24.83-1.79-9.07-6.2-17.42-7.66-26.58-.95-5.93-6.1-10.06-7-16.08-.4-2.6-1.56-6.47-3.25-8.49-2.3-2.75-6.9-3.48-5.43,1.46a14.16,14.16,0,0,1,1,3.79c0,3.42-4,5.52-4.91,8.81a10.55,10.55,0,0,0,0,4.19c.57,4.69,1.59,9.45,2,14.12.24,2.56-.57,4.71-.7,7.18-.22,4.55-3.37,8.59-5.63,12.49a19.13,19.13,0,0,0-.91,1.81c-2.31,5.05-3.37,6.68-2.32,9.43a8.47,8.47,0,0,0,4.9,4.79,22.08,22.08,0,0,1,3.48,1.62l1.27.76c-.41,8.49-3.86,27.78-5.12,34-2.73,13.53-6,26.78-9.59,40l0,.08c-.19.9,2,13.76,1.8,14.66-4.61-9.52-5.22-20.15-11.39-29-8.7-12.43-17.77-24.56-26.83-36.73-8.83-11.53-17.25-25-29.83-32.71-12-7.38-26.13-10.44-38.82-8.41-8,1.28-15.56,4.63-20.79,10.4-7.23,8-17.14,31.73-15.94,43.36,2.7,26,25.8,25.38,35.87,39.91C342,492.83,340.63,490,360.4,507.59c10.2,9.07,27.7,20.67,39,30.79,8.71,7.78,23,19.61,34.23,23.09,12.58,6,36.8-4.31,41.18-17.4,2-6,1.49-12.53,2.86-18.71l.38-1.76a2.34,2.34,0,0,0,0-.26Z"/><path class="cls-2" d="M344.16,619.57c-.33,1.23-7.51-6.47-8.89-5.92s-2-1.19-2.68-2.11c-.58-.76-1.43-1.15-2.06-1.87a8,8,0,0,0-1.34-1.56,6.51,6.51,0,0,0-4.62-1.07c-1.79.46-2.73,2.31-4.37,3a5.74,5.74,0,0,1-2.26.22,2.7,2.7,0,0,1,.24,1.72c-.67,4-3.73,6.81-5.6,10.27a19.72,19.72,0,0,0,3.08,1.84,30,30,0,0,1,4.76,3c1.36,1,2.82,1.53,3.34,3.13.41,1.23,0,2.56.45,3.78a25.5,25.5,0,0,1,1,2.42,33.58,33.58,0,0,1,.39,4.12c.27,3.05.83,6.14,1.24,9.18a25.6,25.6,0,0,0,3,9.37,20.51,20.51,0,0,0,7.06,7,45.1,45.1,0,0,0,6.86,3.66A76.33,76.33,0,0,0,354.59,673c4.15.92,9.13.47,13.25-.37,3.06-.62,6.08-.75,9.11-1.72a26.25,26.25,0,0,0,8.17-4.81c2.14-1.7,4.5-2.5,6.91-3.56,1.22-.53,2.13-1.56,3.38-2.17a29.64,29.64,0,0,0,4.33-2.34c2.58-1.84,3.15-4.49,3.9-7.35.51-1.91.34-3.82.87-5.74a14.22,14.22,0,0,0,.43-2.84c.08-1.07.46-2,.54-3.1,0-.52-.14-1-.12-1.5s.37-.84.29-1.4a20,20,0,0,0-1.26-3.06,27.2,27.2,0,0,1-1.19-3.68,2.79,2.79,0,0,0-.1-.4c.07,0,.17-.14.33-.46a13,13,0,0,1,1.7-2.42c1.53-2,2-1.9,3.52-4.37a28.62,28.62,0,0,0,2.44-4.84,3.58,3.58,0,0,0-2.71-4.83,2,2,0,0,1-1.16-.64,5,5,0,0,1-1.72-3.21,12.47,12.47,0,0,0-1.52-8.72c-.7-1.43-1.6-1.91-1.25-3.46.24-1.11.55-2.23.84-3.33.55-2.07.45-4.14-1.53-5.38a15.76,15.76,0,0,0-10.48-1.61c-28.4,7.58-20.1-3.82-30.4-4.43-7.05-.41-18.17-.19-23.38-5"/><path d="M393.85,637.72c-.35-.14-.68-.32-1-.49-.19-.1-.59-.32-.64-.56s0-.1.07-.13.23.06.31.08l.35,0c.46,0,.92,0,1.38-.06.26,0,.52,0,.79,0,1.65.11,3.32.77,5,.7a7.44,7.44,0,0,0,4.17-2c.22.49,1,2.07.56,2.5-.59.6-2.83.66-3.64,1a6.81,6.81,0,0,1-4.73.13C395.52,638.6,394.72,638.08,393.85,637.72Z"/><path d="M312.69,628.07c2.08,1.58,4.6,2.89,6.47,4.69,5.95,5.74,4.52,15.52,7.45,23.25,2.4,6.36,7.85,11.23,14,14.15s13,4.07,19.73,4.73c6.27.62,12.69.84,18.79-.76,4.1-1.07,15.55-6,14.88-11.57s-10.42-9-12.05-15c-.83-3-.24-6.38-1.6-9.2a25.53,25.53,0,0,0-2.72-3.85c-1.67-2.3-2.74-5-4.56-7.21s-4.84-3.8-7.5-2.8a11.69,11.69,0,0,1-1.06,6c-1,1.78-2.1,1-4,.41-2.66-.88-4.24-2.47-3.58-5.2s2-5.49,1.27-8.2c-.77-2.93-3.65-4.7-6.29-6.18-4.54-2.55-13.79-3.75-18.33-6.29-2.28,2.13-2,1.11-4.35,3.11-1.82,1.51,1.38,4.68-.9,4.09a19.27,19.27,0,0,0-13,1.21c-3.78,1.79-7.2,5.68-6.26,9.75A8.78,8.78,0,0,0,312.69,628.07Z"/><path d="M394.52,661.78l-.87.42a1.89,1.89,0,0,1,.09.21A2.81,2.81,0,0,0,394.52,661.78Z"/><path d="M326,627.43a7.53,7.53,0,0,0-2.51,2.51,12.18,12.18,0,0,1-3.13,2.74,6.35,6.35,0,0,1-4.53,1.23,7.07,7.07,0,0,1-3.73-1.93,6.82,6.82,0,0,1-2.08-3.17c-.16-1.34.81-3.34,1.12-4.64a7,7,0,0,1,3-3.74c1.34-1,3-1.82,4.65-1.51a20.64,20.64,0,0,1,9.73,5.29c1.37,1.22,1.65,3.71,1.57,5.48s-.73,4.65-1.91,6c-2.25,2.67-6.46,1.61-9.08.24-1.58-.82-3.08-1.81-3.43-3.7a10.38,10.38,0,0,1,.5-4.58,18.76,18.76,0,0,1,1.65-5,6.85,6.85,0,0,1,1.54-2.29,21.76,21.76,0,0,0,2.36-2,8.44,8.44,0,0,1,2.86-2,3.35,3.35,0,0,1,2.65-.11,10.84,10.84,0,0,1,2.93,1.2c.58.34,1,.88,1.56,1.26.95.66.94.71.7,2"/><path d="M322.27,631.11c.27,1.48-.54,2.56-1.44,3.61a7.28,7.28,0,0,0-.88,1.15,1.93,1.93,0,0,1-1.69,1.1c-1.89.28-3.89-.83-5.51-1.62a6.47,6.47,0,0,1-1.94-1.21c-.5-.51-.79-1.2-1.28-1.69-.29-.29-.66-.42-.89-.79s-.27-.84-.53-1.22a2.44,2.44,0,0,1-.6-1.06,7.94,7.94,0,0,1-.13-1.29,5.22,5.22,0,0,1,.11-2.36,15.06,15.06,0,0,1,1.12-2.19,5.3,5.3,0,0,1,.73-.84c.3-.35.47-.78.76-1.12a6.44,6.44,0,0,1,3.32-1.56c2.24-.63,4.84.19,7,.84a12.09,12.09,0,0,1,4.58,2.59c.71.7,1.31,1.45,1.95,2.21a10.54,10.54,0,0,1,1.65,2.17,8.81,8.81,0,0,1,.83,2.89,19.37,19.37,0,0,1,.29,3.22,6.44,6.44,0,0,1-1.05,3,9.53,9.53,0,0,0-1,1.32,5.41,5.41,0,0,1-.81,1.54,6.9,6.9,0,0,1-5.25,2.74,22,22,0,0,1-4.51-.27c-.94-.21-1.87-.49-2.81-.71a6.27,6.27,0,0,1-2.7-1.47,4.34,4.34,0,0,1-1.19-1.37,5.32,5.32,0,0,1-.8-1.55c-.23-1.68.64-3.08.7-4.68a5.87,5.87,0,0,1,0-.94c.09-.49.26-1,.38-1.47a10.33,10.33,0,0,1,.72-2.33,7,7,0,0,1,1.64-2.23,3.77,3.77,0,0,1,2.95-1,10.44,10.44,0,0,1,3.84.42,13.75,13.75,0,0,1,4.36,2.7,10.36,10.36,0,0,1,3.16,4.15,6.38,6.38,0,0,1,.6,5.05c-.24,1.74-1.66,3.06-2.76,4.28-.22.24-.64.92-1,1s-.7-.14-.94-.2"/><path d="M332.79,614.91c.27,1.48-.54,2.56-1.44,3.61a6.68,6.68,0,0,0-.87,1.15,1.94,1.94,0,0,1-1.69,1.1c-1.9.28-3.9-.83-5.52-1.62a6.47,6.47,0,0,1-1.94-1.21c-.5-.51-.79-1.19-1.28-1.69-.29-.29-.66-.42-.89-.79s-.27-.84-.53-1.22a2.59,2.59,0,0,1-.6-1.06,9.24,9.24,0,0,1-.13-1.29,5.09,5.09,0,0,1,.12-2.36,14.07,14.07,0,0,1,1.11-2.19,5.78,5.78,0,0,1,.73-.84c.3-.35.47-.78.77-1.12a6.53,6.53,0,0,1,3.31-1.56c2.24-.63,4.84.19,7,.84a12,12,0,0,1,4.58,2.59c.71.7,1.31,1.45,2,2.21a10.54,10.54,0,0,1,1.65,2.17,8.81,8.81,0,0,1,.83,2.89,19.47,19.47,0,0,1,.29,3.22,6.54,6.54,0,0,1-1,3,7.87,7.87,0,0,0-1,1.33,5.8,5.8,0,0,1-.82,1.53,6.87,6.87,0,0,1-5.25,2.74,21.87,21.87,0,0,1-4.5-.27c-.95-.21-1.88-.49-2.82-.71a6.27,6.27,0,0,1-2.7-1.47,4.25,4.25,0,0,1-1.19-1.37,5.44,5.44,0,0,1-.8-1.55c-.23-1.68.65-3.08.71-4.68a5.85,5.85,0,0,1,0-.94c.09-.49.26-1,.38-1.46a10.25,10.25,0,0,1,.72-2.34,7,7,0,0,1,1.64-2.23,3.77,3.77,0,0,1,3-1,10.24,10.24,0,0,1,3.84.43,13.7,13.7,0,0,1,4.37,2.69,10.54,10.54,0,0,1,3.16,4.15,11.74,11.74,0,0,1,.83,2.6,11.89,11.89,0,0,1-.23,2.45c-.24,1.74-1.67,3.06-2.77,4.28-.22.24-.64.92-1,1s-.7-.15-.94-.21"/><path class="cls-2" d="M368.69,623.58c3.3,4.42-3.63,9.9-7.7,9a6.86,6.86,0,0,1-5-7.79c.73-3.47,4.08-5.88,5-9.29.5-1.81.33-3.9,1.54-5.33s4.44-.5,3.68,1.22"/><path class="cls-3" d="M357.13,611.28c2.33-2.84,2.74-18.51,3.85-22,1-3,.72-6.4.9-9.55.13-2.32-.58-4.49-.55-6.8,0-1.34-.32-2.57-.24-3.93a10.39,10.39,0,0,0-.4-3.08c-.47-1.9-.83-3.81-1.28-5.71-.28-1.17-.76-2.29-1-3.47-.55-3.41-2-6.54-2.95-9.86-.87-3-1.8-5.92-2.44-8.9-.49-2.31-1.66-4.19-2.6-6.31a9.41,9.41,0,0,0-2.23-3.72c-.82-.8-1.06-1.84-1.71-2.77a28.73,28.73,0,0,0-2.46-2.73c-2.1-2.31-4.11-4.71-6.18-7-3.08-3.47-5.36-7.63-8.09-11.36-2.41-3.28-4.89-6.53-7.09-9.95-3.13-4.83-6.8-9.19-10.12-13.9-5.19-7.39-11.62-13.62-18.28-19.67a57.11,57.11,0,0,0-5.77-5.11c-2-1.38-.45-18-2.68-19-9.07-3.8-10.47,20.45-10.86,25.06-.16,1.89-.37,3.78-.61,5.67-1.89,14.88-5.8,29.6-5.76,44.64a129.25,129.25,0,0,0,6.78,39.69,106,106,0,0,0,7.78,17.57c2.56,4.64,5.85,12,10,15.37,3.23,2.62,6.55,5.12,9.77,7.67a67.75,67.75,0,0,0,10.13,7.1c2.89,1.53,5.56,3.27,8.74,4.13a80.8,80.8,0,0,1,8,2.05c1.77.68-4.09-.88-2.11-.67"/><path class="cls-4" d="M361.12,497.25a33.92,33.92,0,0,1,.25-17.72,24.3,24.3,0,0,1,1.7-4.12c.47-.89.61-.86.09-1.66a8.86,8.86,0,0,0-1.47-1.53c-.59-.56-10.64,16.11-11.33,15.7-15.79-9.34-26.52-24.55-34.65-40.65-4-7.93-8.89-16.84-11.19-25.45-2.19-8.23,1-15.38,3.39-23.46a50,50,0,0,1,7.63-15.87c.23-.31.48-.58.73-.87-2.22.93-4.49,1.74-6.68,2.75a34,34,0,0,0-7.1,4.67c-4.42,3.58-5.32,6.11-9,10.43A66.48,66.48,0,0,0,283.27,417a84.12,84.12,0,0,0-5,19.94c-.18,1.34-1.53,8.73-1.32,10.07.26,1.65,2.15,4.45,2.89,5.93,10.91,21.56,12.57,46.79,19.65,70a5.25,5.25,0,0,0,1.55,2.8,5,5,0,0,0,2.82.72,162.33,162.33,0,0,1,45.76,9.3,7.6,7.6,0,0,1,3.36,1.93,3,3,0,0,1,.32,3.69q2.7-4.18,5.62-8.21"/><path d="M324.44,605.68c-1.77.19-3.46-.27-5.24,0a16.71,16.71,0,0,0-4.82,1.86,5.85,5.85,0,0,0-3.15,3.75c-.6,1.76-1.15,3.54-.37,5.26,1.67,3.7,4.16,6.16,8.31,7,1.38.29,11.3,1.54,9.81-1.86"/><path class="cls-5" d="M302.65,526.06c-.14,0-.29-.07-.42-.12a4.28,4.28,0,0,1-.77-.39,2.48,2.48,0,0,1-.26-.19,4.68,4.68,0,0,1-.55-.54,1.46,1.46,0,0,1-.32-.42,1.67,1.67,0,0,1-.27-.63q-.1-.3-.18-.6a1.65,1.65,0,0,1,0-.31c-5,5.79-9,14.09-11.64,24.66a123.53,123.53,0,0,0-3.29,22.61s-.28,2.77-.2,2.19c1.74,3,2,3.91,3.75,6.4.07-1,.39-3.8.47-4.72.1-1.31.2-2.52.26-3.56a119.67,119.67,0,0,1,3.16-21.78c1.82-7.35,5-16.23,10.41-22.58Z"/><path class="cls-6" d="M325.33,544.85c.32,6.73-.09,13.48,0,20.21.26,13.85,3.42,21.79,16.78,27.44a19.27,19.27,0,0,0,15.36.12,19.83,19.83,0,0,0,7.37-5.82,46.07,46.07,0,0,0,9.87-22.51c.94-7.65,1.37-14.37-1.57-21.54A57.88,57.88,0,0,1,369,527.39a63.72,63.72,0,0,1,.24-15.67,63.19,63.19,0,0,0,.4-13.87c28.88,2.61,52.37-4.34,78.42-3.23,3.58,2.9,6.74,6.3,10.14,9.4a85.07,85.07,0,0,0,6.56,5.89c2.48,1.85,4.62,2.22,7.43,3.08,2.4.73,4.2-.25,6.35,1.06a3.37,3.37,0,0,0,.73.32c.28.09.56.25.84.34a3.81,3.81,0,0,0,1.72.19,1.65,1.65,0,0,0,.5-.11c.19-.12.39-.32.57-.46a6.71,6.71,0,0,1,1.23-.88,6.58,6.58,0,0,1,1.43-.27,22.2,22.2,0,0,1,2.72-.32,10.31,10.31,0,0,0,2.78-.16c.55-.19.43-.79.34-1.35a2.52,2.52,0,0,0-.33-.82c-.16-.32-.32-.63-.5-.93-.4-.31-.79-.64-1.17-1a.8.8,0,0,1-.15-.17,10.36,10.36,0,0,0-2-.61c-.78-.17-1.55-.31-2.32-.44l-7-.52c.33,0,7.49.53,7.82.57a9.91,9.91,0,0,1,2,.37c.48.15.94.38,1.42.54a.66.66,0,0,1,0-.71,3.93,3.93,0,0,0,.4-3.61c-.4-1.16-.93-2.25-1.23-3.45a.72.72,0,0,1,.4-.75,2.7,2.7,0,0,0,1.81-2.93,7.56,7.56,0,0,0-1.65-3.31.57.57,0,0,1-.12-.26l-5-1.89c.08,0-5.86-2-2.49-1l7.5,2.73a.6.6,0,0,1,.39-.64,1.79,1.79,0,0,0,1.21-1.7c-.07-1.66-.76-1.48-1.09-2.23a2.65,2.65,0,0,1-.05-2.56,1.73,1.73,0,0,0,.22-1.84,8,8,0,0,0-.76-1.16c-.81-.3-1.63-.51-2.42-.85-1.73-.74-3.58-.93-5.35-1.52-1.94-.64-3.83-1.41-5.78-2.05-.74-.24-1.49-.49-2.25-.69-4.51-1.17-9.37-.68-14-.6-.51,0-.94.16-1.47.13a17.16,17.16,0,0,0-2.7.21c-11.41-3.79-22.83-7.54-34.39-9.84-16.74-3.35-34.27-3.81-51.12-.33-.7.14-1.39.31-2.07.49-3.75,1-7.22,2.5-10.93,3.75-2.51.85-4.8,2.36-7.11,2.41a11.79,11.79,0,0,0-6.32,1.9c-5.33,3.54-6.73,10.63-7.51,17C333.78,505.85,324.73,532,325.33,544.85Z"/><path class="cls-7" d="M480.56,510.43a3.23,3.23,0,0,0-.35,1.32c0,.32,0,.65.08,1s0,.54,0,.81c0,.45-.22.8.21,1.22"/><path class="cls-7" d="M482.33,511.26a7.15,7.15,0,0,1,.64,1.64c.06.18.13.36.18.54a5.12,5.12,0,0,0,.13.72"/><path class="cls-7" d="M486.59,512.77c-1.39,0-.35-1,.08-1.37,1-.77,2.95-2.39,4.37-.75"/><path class="cls-7" d="M489.36,488.25a32.9,32.9,0,0,0-5.38-1.57,7.66,7.66,0,0,0-.94-.25c-.36,0-2.87-.7-3.23-.79-.54-.13,9.38,2.18,8.89,2"/><path class="cls-7" d="M488.82,501.09c-.64-.27-2.14-.67-2.81-.87-.38-.12-7-2.45-7.42-2.57s10.19,3.13,9.81,3"/><path class="cls-5" d="M297.7,588.11l3.32,2.75c1,.83,2.06,1.53,3.09,2.31a97.83,97.83,0,0,0,43.24,2.54,24.35,24.35,0,0,0,8.59-2.79A13.78,13.78,0,0,1,350.4,594a14.6,14.6,0,0,1-3.6-.12,16.49,16.49,0,0,1-5.19-1.59c-2.78.33-5.59.57-8.37.66a96.08,96.08,0,0,1-32.85-5.16c-1.88-.62-3.94-1.41-5.79-2.14C295.21,586.17,296.87,587.42,297.7,588.11Z"/><path d="M699.81,618.27c3.6,3.38,6.85,7.09,10.18,10.73l.3-2.36c-2.2,1.18-4.33,2.47-6.51,3.68-2,1.13-4.09,2.17-6.1,3.3a1.5,1.5,0,0,0,1.51,2.59c2-1.13,4.08-2.17,6.1-3.3,2.18-1.21,4.32-2.5,6.51-3.68a1.51,1.51,0,0,0,.31-2.35c-3.33-3.64-6.58-7.35-10.17-10.73-1.41-1.32-3.54.8-2.13,2.12Z"/><path d="M633.29,615.27c-3.6,3.38-6.85,7.09-10.18,10.72a1.52,1.52,0,0,0,.31,2.36c2.19,1.18,4.33,2.46,6.51,3.68,2,1.12,4.08,2.16,6.1,3.3a1.5,1.5,0,0,0,1.51-2.59c-2-1.14-4.08-2.18-6.1-3.3-2.17-1.22-4.31-2.5-6.51-3.68l.31,2.35c3.32-3.63,6.57-7.34,10.17-10.72,1.41-1.32-.72-3.44-2.12-2.12Z"/><path d="M709.47,625.73c-2.45-.18-4.89-.52-7.34-.74-2.65-.24-5.3-.24-8-.24-5.37,0-10.74,0-16.11,0H628a1.5,1.5,0,0,0,0,3c21.39,0,42.79.05,64.18,0,2.93,0,5.88-.07,8.81.15s5.64.62,8.48.83c1.92.14,1.91-2.86,0-3Z"/><path d="M547.16,188.28v7.13h6.9v-7.13h3.11v17.26h-3.11v-7.35h-6.9v7.35h-3.09V188.28Z"/><path d="M571.5,202a5.77,5.77,0,0,1-5.58,3.7c-4.34,0-6.26-2.71-6.26-6.76s2.71-6.53,6.44-6.43c3,.07,5.74,2.34,5.45,6.46l0,.39h-8.73c0,2.2.94,3.7,3.18,3.7a2.89,2.89,0,0,0,2.79-2.05Zm-3.13-4.22c0-2-1-2.93-2.54-2.88a2.87,2.87,0,0,0-2.91,2.88Z"/><path d="M574.43,193.43a15.46,15.46,0,0,1,4.89-.93c3.89,0,5.32,1.92,5.32,4.93v5.23a.65.65,0,0,0,.62.74,2.61,2.61,0,0,0,1-.15v2a4.85,4.85,0,0,1-2,.4,2.34,2.34,0,0,1-2.34-1.75,5.62,5.62,0,0,1-3.89,1.75c-2.52,0-4.39-1.28-4.42-4s2-4.09,5.25-4.09a20,20,0,0,1,2.79.24v-.76c0-1.41-.89-2.17-2.66-2.15a10.41,10.41,0,0,0-4,.79Zm7.16,6a14.18,14.18,0,0,0-2.52-.14c-1.48.07-2.42.76-2.44,2.07a1.82,1.82,0,0,0,2.1,1.9,5.09,5.09,0,0,0,2.86-1Z"/><path d="M600.48,186.7v18.84h-2.57l-.34-2.22a4.53,4.53,0,0,1-4.12,2.37c-3.48.05-5.55-2.84-5.55-6.63,0-4.64,3-6.56,5.52-6.56a4.09,4.09,0,0,1,4,2.44V187.1ZM591.06,199c0,2.2.86,3.92,3.15,3.92s3.26-1.72,3.26-3.89c0-2.94-1.58-4-3.28-4S591.06,196.2,591.06,199Z"/><path d="M611.21,192.62l.44,2.29a4.34,4.34,0,0,1,4-2.44,3.75,3.75,0,0,1,3.84,2.39,4.58,4.58,0,0,1,4.17-2.39c3,0,4.22,2,4.22,4.64v8.43h-3.06v-7.45c0-2-.47-3-2.15-3-2.21,0-2.81,1.68-2.81,3.58v6.9h-3.05v-7.45c0-2-.47-3-2.15-3-2.37,0-2.83,1.9-2.83,4v6.51h-3.06V192.62Z"/><path d="M633.88,192.62v7.45c0,2,.78,3,2.58,3,2.35,0,3.31-2.42,3.31-4.86v-5.62h3.06v12.92h-2.45l-.44-2.81a4.71,4.71,0,0,1-4.46,3c-3.16,0-4.66-1.95-4.66-5.2v-7.87Z"/><path d="M646.33,201.84a6.68,6.68,0,0,0,4.19,1.43c1.48,0,2.35-.44,2.35-1.5,0-2.52-7.48-.84-7.23-5.57.1-2.32,1.8-3.7,5.23-3.7a10.49,10.49,0,0,1,4.66,1.21l-1.09,2.17a7.32,7.32,0,0,0-3.7-1.07c-1.2,0-2.21.4-2.17,1.41.15,2.05,7.33.47,7.33,5.45,0,2.66-2.39,4-5.45,4a8.86,8.86,0,0,1-5.3-1.68Z"/><path d="M662.36,189v3.77h3.26l-.42,2.47h-2.84v5.92c0,1.4.64,2,1.68,2a5.72,5.72,0,0,0,2-.57l.56,2.34a8.1,8.1,0,0,1-3.28.84c-3,0-4-2-4-4.14v-6.34h-1.8v-2.47h2l.37-3.42Z"/><path d="M674,201.84a6.73,6.73,0,0,0,4.2,1.43c1.47,0,2.34-.44,2.34-1.5,0-2.52-7.47-.84-7.23-5.57.1-2.32,1.8-3.7,5.23-3.7a10.49,10.49,0,0,1,4.66,1.21l-1.08,2.17a7.36,7.36,0,0,0-3.7-1.07c-1.21,0-2.22.4-2.17,1.41.15,2.05,7.32.47,7.32,5.45,0,2.66-2.39,4-5.45,4a8.86,8.86,0,0,1-5.3-1.68Z"/><path d="M690,189v3.77h3.26l-.42,2.47H690v5.92c0,1.4.65,2,1.68,2a5.72,5.72,0,0,0,1.95-.57l.57,2.34a8.16,8.16,0,0,1-3.28.84c-3,0-4-2-4-4.14v-6.34h-1.8v-2.47h1.94l.37-3.42Z"/><path d="M696.05,193.43a15.46,15.46,0,0,1,4.89-.93c3.89,0,5.32,1.92,5.32,4.93v5.23a.65.65,0,0,0,.62.74,2.61,2.61,0,0,0,1-.15v2a4.89,4.89,0,0,1-2,.4,2.34,2.34,0,0,1-2.34-1.75,5.65,5.65,0,0,1-3.9,1.75c-2.51,0-4.39-1.28-4.41-4s2-4.09,5.25-4.09a20,20,0,0,1,2.79.24v-.76c0-1.41-.89-2.17-2.66-2.15a10.41,10.41,0,0,0-4,.79Zm7.15,6a14,14,0,0,0-2.51-.14c-1.48.07-2.42.76-2.44,2.07a1.82,1.82,0,0,0,2.09,1.9,5,5,0,0,0,2.86-1Z"/><path d="M711.44,192.62l3.18,9.12h.2l2.91-9.12h3.16l-4.79,13.12c-1.57,4.31-3.05,5.4-7.62,4.44l.55-2.59c2.91.71,3.3,0,4.21-2.49l-4.85-12.48Z"/><path d="M546.3,227.35a15.49,15.49,0,0,1,4.89-.94c3.89,0,5.32,1.92,5.32,4.93v5.23a.65.65,0,0,0,.62.74,2.41,2.41,0,0,0,1-.15v2.05a5,5,0,0,1-2,.39,2.34,2.34,0,0,1-2.34-1.75,5.62,5.62,0,0,1-3.89,1.75c-2.52,0-4.39-1.28-4.42-4s2-4.09,5.25-4.09a19.85,19.85,0,0,1,2.79.25V231c0-1.4-.89-2.17-2.66-2.14a10.41,10.41,0,0,0-4,.79Zm7.16,6a13.13,13.13,0,0,0-2.52-.15c-1.48.07-2.42.77-2.44,2.07a1.81,1.81,0,0,0,2.1,1.9,5.1,5.1,0,0,0,2.86-1Z"/><path d="M565.77,235.76a6.68,6.68,0,0,0,4.19,1.43c1.48,0,2.34-.45,2.34-1.51,0-2.51-7.47-.84-7.23-5.57.1-2.32,1.81-3.7,5.23-3.7a10.49,10.49,0,0,1,4.66,1.21l-1.08,2.17a7.25,7.25,0,0,0-3.7-1.06c-1.21,0-2.22.39-2.17,1.4.15,2.05,7.32.47,7.32,5.45,0,2.67-2.39,4-5.45,4a8.82,8.82,0,0,1-5.3-1.67Z"/><path d="M578.17,227.35a15.42,15.42,0,0,1,4.88-.94c3.9,0,5.33,1.92,5.33,4.93v5.23a.65.65,0,0,0,.62.74,2.45,2.45,0,0,0,1-.15v2.05a5.09,5.09,0,0,1-2,.39,2.33,2.33,0,0,1-2.34-1.75,5.67,5.67,0,0,1-3.9,1.75c-2.51,0-4.39-1.28-4.41-4s2-4.09,5.25-4.09a19.85,19.85,0,0,1,2.79.25V231c0-1.4-.89-2.17-2.67-2.14a10.39,10.39,0,0,0-4,.79Zm7.15,6a13,13,0,0,0-2.51-.15c-1.48.07-2.42.77-2.44,2.07a1.81,1.81,0,0,0,2.09,1.9,5.07,5.07,0,0,0,2.86-1Z"/><path d="M592.9,226.66v-1.75c0-2.64,1.38-4.29,4.26-4.29a6.74,6.74,0,0,1,2.44.44l-.39,2.14a7.24,7.24,0,0,0-1.31-.14c-1.36,0-1.92.56-1.92,2.34v1.26h2.81l-.4,2.46H596v10.33H592.9V229.12h-2v-2.46Z"/><path d="M611.54,235.9a5.76,5.76,0,0,1-5.57,3.7c-4.34,0-6.27-2.71-6.27-6.75s2.72-6.54,6.44-6.44c3,.07,5.74,2.34,5.45,6.46l-.05.39h-8.73c0,2.2.94,3.7,3.18,3.7a2.88,2.88,0,0,0,2.79-2Zm-3.13-4.21c.05-2-1-2.94-2.54-2.89a2.88,2.88,0,0,0-2.91,2.89Z"/><path d="M631.52,220.62v18.83H629l-.34-2.21a4.53,4.53,0,0,1-4.12,2.36c-3.48.05-5.55-2.83-5.55-6.63,0-4.64,3-6.56,5.52-6.56a4.09,4.09,0,0,1,4,2.44V221Zm-9.42,12.32c0,2.2.86,3.93,3.15,3.93s3.26-1.73,3.26-3.9c0-2.93-1.58-4-3.28-4S622.1,230.11,622.1,232.94Z"/><path d="M638.67,226.53v12.92h-3.08V229.07h-1.8v-2.54Zm-1.55-5a1.65,1.65,0,0,1,1.82,1.56,1.82,1.82,0,0,1-3.62,0A1.59,1.59,0,0,1,637.12,221.5Z"/><path d="M642.17,235.76a6.73,6.73,0,0,0,4.2,1.43c1.48,0,2.34-.45,2.34-1.51,0-2.51-7.47-.84-7.23-5.57.1-2.32,1.8-3.7,5.23-3.7a10.49,10.49,0,0,1,4.66,1.21l-1.08,2.17a7.3,7.3,0,0,0-3.7-1.06c-1.21,0-2.22.39-2.17,1.4.15,2.05,7.32.47,7.32,5.45,0,2.67-2.39,4-5.45,4a8.82,8.82,0,0,1-5.3-1.67Z"/><path d="M658.21,222.88v3.78h3.25l-.42,2.46h-2.83V235c0,1.41.64,2,1.67,2a5.5,5.5,0,0,0,2-.57l.57,2.34a7.94,7.94,0,0,1-3.28.84c-3,0-4-2-4-4.14v-6.34h-1.8v-2.46h1.94l.38-3.43Z"/><path d="M664.22,227.35a15.43,15.43,0,0,1,4.89-.94c3.89,0,5.32,1.92,5.32,4.93v5.23a.65.65,0,0,0,.62.74,2.41,2.41,0,0,0,1-.15v2.05a5.09,5.09,0,0,1-2,.39,2.34,2.34,0,0,1-2.34-1.75,5.64,5.64,0,0,1-3.89,1.75c-2.52,0-4.39-1.28-4.42-4s2-4.09,5.25-4.09a19.85,19.85,0,0,1,2.79.25V231c0-1.4-.89-2.17-2.66-2.14a10.41,10.41,0,0,0-4,.79Zm7.16,6a13.13,13.13,0,0,0-2.52-.15c-1.48.07-2.42.77-2.44,2.07a1.81,1.81,0,0,0,2.09,1.9,5.1,5.1,0,0,0,2.87-1Z"/><path d="M680.6,226.53l.47,2.3a4.76,4.76,0,0,1,4.41-2.42c3,0,4.49,2,4.49,4.61v8.43h-3.06V232c0-2-.74-3-2.41-3-2.35,0-3.26,1.9-3.26,4v6.51h-3.06V226.53Z"/><path d="M704.33,235.83c-.84,2.64-3,3.77-5.63,3.77-4.24,0-6.06-3.15-6.06-6.61,0-4.21,2.61-6.51,6.14-6.58,3.1-.07,5,1.53,5.5,3.8l-2.84.91a2.55,2.55,0,0,0-2.61-2.12c-1.78,0-3.13,1.31-3.13,3.94,0,2.1.78,4,3.08,4a2.6,2.6,0,0,0,2.71-2.05Z"/><path d="M718.14,235.9a5.77,5.77,0,0,1-5.58,3.7c-4.34,0-6.26-2.71-6.26-6.75s2.71-6.54,6.44-6.44c3,.07,5.74,2.34,5.45,6.46l-.05.39h-8.73c0,2.2.94,3.7,3.18,3.7a2.88,2.88,0,0,0,2.79-2ZM715,231.69c0-2-1-2.94-2.54-2.89a2.87,2.87,0,0,0-2.91,2.89Z"/><path d="M547.27,260.57v-1.75c0-2.64,1.38-4.29,4.26-4.29A6.74,6.74,0,0,1,554,255l-.39,2.15a6.25,6.25,0,0,0-1.31-.15c-1.35,0-1.92.57-1.92,2.34v1.26h2.81l-.39,2.47h-2.42v10.33h-3.08V263h-2v-2.47Z"/><path d="M557.6,260.45l.57,2.66c.59-2,2.09-2.84,4.19-2.79a5.12,5.12,0,0,1,1.33.23l-.47,2.68a5.29,5.29,0,0,0-1.85-.24c-2.27.07-3.13,1.82-3.13,3.89v6.49h-3.06V260.45Z"/><path d="M571.12,260.32c3.23,0,6,2.2,6,6.61,0,3.63-2.15,6.59-6.17,6.59-4.36,0-6.16-3-6.16-6.59C564.83,262.52,567.61,260.32,571.12,260.32ZM568,266.93c0,2.05.69,4,3,4,2.1,0,3-1.95,3-4,0-2.86-1.4-4-3-4C569.41,262.91,568,264,568,266.93Z"/><path d="M582.31,260.45l.45,2.29a4.3,4.3,0,0,1,4-2.44,3.77,3.77,0,0,1,3.85,2.39,4.52,4.52,0,0,1,4.17-2.39c3,0,4.21,2,4.21,4.63v8.44h-3.05v-7.45c0-2-.47-3-2.15-3-2.22,0-2.81,1.67-2.81,3.57v6.91h-3.06v-7.45c0-2-.47-3-2.14-3-2.37,0-2.84,1.9-2.84,4v6.51h-3.06V260.45Z"/><path d="M611.22,256.8v3.77h3.25l-.41,2.47h-2.84V269c0,1.41.64,1.95,1.68,1.95a5.62,5.62,0,0,0,1.94-.56l.57,2.34a8.1,8.1,0,0,1-3.28.84c-3,0-4-2-4-4.15V263h-1.8v-2.47h1.95l.37-3.43Z"/><path d="M620.42,254.53v8a4.81,4.81,0,0,1,4.24-2.2c3,0,4.49,1.95,4.49,4.61v8.44h-3.06v-7.45c0-2-.74-3-2.42-3-2.34,0-3.25,1.9-3.25,4v6.51h-3.06V254.9Z"/><path d="M643.55,269.82a5.76,5.76,0,0,1-5.57,3.7c-4.34,0-6.26-2.72-6.26-6.76s2.71-6.54,6.43-6.44c3,.08,5.75,2.35,5.45,6.46l-.05.4h-8.73c0,2.19.94,3.7,3.18,3.7a2.87,2.87,0,0,0,2.79-2.05Zm-3.13-4.22c.05-2-1-2.93-2.54-2.88A2.87,2.87,0,0,0,635,265.6Z"/><path d="M654.51,254.53v8.21a4.42,4.42,0,0,1,4.31-2.42c2.44.08,5.06,1.73,5.06,6.49,0,3.9-2,6.71-5.45,6.71a4.28,4.28,0,0,1-4.07-2.37l-.42,2.22h-2.49V254.92Zm-.13,12.35c0,2.22.82,4,3.26,4,2,0,3.1-1.51,3.1-4.05,0-3-1.5-3.94-3.13-3.94S654.38,264.29,654.38,266.88Z"/><path d="M672.39,260.32c3.23,0,6,2.2,6,6.61,0,3.63-2.15,6.59-6.17,6.59-4.36,0-6.16-3-6.16-6.59C666.1,262.52,668.88,260.32,672.39,260.32Zm-3.09,6.61c0,2.05.69,4,3,4,2.1,0,3-1.95,3-4,0-2.86-1.41-4-3-4C670.68,262.91,669.3,264,669.3,266.93Z"/><path d="M681.34,261.26a15.36,15.36,0,0,1,4.88-.94c3.9,0,5.33,1.93,5.33,4.94v5.22a.65.65,0,0,0,.62.74,2.45,2.45,0,0,0,1-.15v2.05a5.05,5.05,0,0,1-2,.4,2.33,2.33,0,0,1-2.34-1.76,5.63,5.63,0,0,1-3.9,1.76c-2.51,0-4.39-1.29-4.41-4s2-4.1,5.25-4.1a19.85,19.85,0,0,1,2.79.25v-.77c0-1.4-.89-2.17-2.67-2.14a10.39,10.39,0,0,0-4,.79Zm7.15,6a13.88,13.88,0,0,0-2.51-.15c-1.48.08-2.42.77-2.44,2.08a1.8,1.8,0,0,0,2.09,1.89,5.07,5.07,0,0,0,2.86-1Z"/><path d="M697.72,260.45l.56,2.66c.6-2,2.1-2.84,4.2-2.79a5.28,5.28,0,0,1,1.33.23l-.47,2.68a5.33,5.33,0,0,0-1.85-.24c-2.27.07-3.13,1.82-3.13,3.89v6.49H695.3V260.45Z"/><path d="M717.35,254.53v18.84h-2.57l-.34-2.22a4.53,4.53,0,0,1-4.12,2.37c-3.48.05-5.55-2.84-5.55-6.64,0-4.63,3-6.56,5.52-6.56a4.13,4.13,0,0,1,4,2.44v-7.84Zm-9.42,12.33c0,2.19.86,3.92,3.15,3.92s3.26-1.73,3.26-3.9c0-2.93-1.58-4-3.28-4S707.93,264,707.93,266.86Z"/><path d="M97.35,227.85a68.34,68.34,0,0,0,2.26,33.88,81.51,81.51,0,0,0,15.44,27A88.38,88.38,0,0,0,127,300.4c1.49,1.2,3.62-.91,2.12-2.12-15.47-12.49-27.31-30.61-29.53-50.65a65,65,0,0,1,.69-19c.35-1.89-2.54-2.69-2.89-.8Z"/><path d="M122.78,285.81c1.69,4.63,2.92,9.41,4.25,14.16l1.45-1.9c-2.49.06-5,.24-7.47.34-2.31.1-4.62.1-6.94.2-1.92.09-1.93,3.09,0,3,2.32-.1,4.63-.1,6.94-.2,2.49-.1,5-.28,7.47-.34a1.52,1.52,0,0,0,1.44-1.9c-1.33-4.75-2.56-9.52-4.24-14.16a1.55,1.55,0,0,0-1.85-1.05,1.52,1.52,0,0,0-1,1.85Z"/><path d="M75.44,148.57v17.26H72.36V148.57Z"/><path d="M82.74,149.26V153H86l-.42,2.47H82.74v5.92c0,1.4.64,2,1.68,2a5.72,5.72,0,0,0,2-.57l.56,2.34a8.09,8.09,0,0,1-3.27.84c-3,0-4-2-4-4.14V155.5H77.88V153h2l.37-3.42Z"/><path d="M96.48,152.91l.44,2.29a4.34,4.34,0,0,1,4-2.44,3.77,3.77,0,0,1,3.85,2.39,4.55,4.55,0,0,1,4.16-2.39c3,0,4.22,2,4.22,4.64v8.43h-3.06v-7.45c0-2-.47-3-2.14-3-2.22,0-2.81,1.68-2.81,3.58v6.9h-3.06v-7.45c0-2-.47-3-2.15-3-2.36,0-2.83,1.9-2.83,4v6.51H94V152.91Z"/><path d="M119.15,152.91v7.45c0,2,.79,3,2.59,3,2.34,0,3.3-2.42,3.3-4.86v-5.62h3.06v12.92h-2.44l-.45-2.81a4.7,4.7,0,0,1-4.46,3c-3.16,0-4.66-1.95-4.66-5.2v-7.87Z"/><path d="M131.6,162.13a6.72,6.72,0,0,0,4.19,1.43c1.48,0,2.35-.44,2.35-1.5,0-2.52-7.47-.84-7.23-5.57.1-2.32,1.8-3.7,5.23-3.7A10.49,10.49,0,0,1,140.8,154l-1.08,2.17a7.3,7.3,0,0,0-3.7-1.06c-1.21,0-2.22.39-2.17,1.4.15,2.05,7.32.47,7.32,5.45,0,2.66-2.39,4-5.45,4a8.86,8.86,0,0,1-5.3-1.68Z"/><path d="M147.63,149.26V153h3.26l-.42,2.47h-2.84v5.92c0,1.4.65,2,1.68,2a5.72,5.72,0,0,0,1.95-.57l.57,2.34a8.21,8.21,0,0,1-3.28.84c-3,0-4-2-4-4.14V155.5h-1.8V153h1.94l.37-3.42Z"/><path d="M162,147v8.21a4.39,4.39,0,0,1,4.31-2.41c2.44.07,5.06,1.72,5.06,6.48,0,3.9-2,6.71-5.45,6.71a4.28,4.28,0,0,1-4.07-2.37l-.42,2.22h-2.49V147.39Zm-.12,12.36c0,2.22.81,4,3.25,4,2,0,3.11-1.5,3.11-4,0-3-1.51-4-3.13-4C163.32,155.35,161.87,156.76,161.87,159.35Z"/><path d="M185.39,162.28a5.76,5.76,0,0,1-5.57,3.7c-4.34,0-6.26-2.71-6.26-6.76s2.71-6.53,6.43-6.43c3,.07,5.75,2.34,5.45,6.46l-.05.39h-8.73c0,2.2.94,3.7,3.18,3.7a2.87,2.87,0,0,0,2.79-2.05Zm-3.13-4.22c.05-2-1-2.93-2.54-2.88a2.87,2.87,0,0,0-2.91,2.88Z"/><path d="M196.35,147v8.21a4.39,4.39,0,0,1,4.31-2.41c2.44.07,5.06,1.72,5.06,6.48,0,3.9-1.95,6.71-5.45,6.71a4.27,4.27,0,0,1-4.07-2.37l-.42,2.22h-2.49V147.39Zm-.13,12.36c0,2.22.82,4,3.26,4,2,0,3.1-1.5,3.1-4,0-3-1.5-4-3.13-4S196.22,156.76,196.22,159.35Z"/><path d="M214.23,152.79c3.23,0,6,2.19,6,6.61,0,3.62-2.15,6.58-6.17,6.58-4.36,0-6.16-3-6.16-6.58C207.94,155,210.72,152.79,214.23,152.79Zm-3.09,6.61c0,2,.69,4,3,4,2.1,0,3-1.95,3-4,0-2.87-1.41-4-3-4S211.14,156.49,211.14,159.4Z"/><path d="M226,147v14.62c0,1.39.62,1.76,1.53,1.76a2.42,2.42,0,0,0,1.28-.47l.57,2.19a5.35,5.35,0,0,1-2.79.89c-2.56,0-3.65-1.73-3.65-4.07V147.36Z"/><path d="M242.49,147v18.84h-2.56l-.35-2.22a4.52,4.52,0,0,1-4.12,2.37c-3.47.05-5.55-2.84-5.55-6.63,0-4.64,3-6.56,5.53-6.56a4.1,4.1,0,0,1,4,2.44v-7.84Zm-9.42,12.33c0,2.2.86,3.92,3.16,3.92s3.25-1.72,3.25-3.89c0-2.94-1.58-4-3.28-4S233.07,156.49,233.07,159.32Z"/><path d="M246.61,165.49a1.42,1.42,0,0,1-1.63-1.58,1.6,1.6,0,0,1,1.73-1.53c1.7,0,2.37,1.33,2.24,2.91-.19,2.34-2,3.28-4,3.3v-1.33c1.16,0,2-.61,2-1.36C246.91,165.71,246.61,165.49,246.61,165.49Z"/><path d="M259.73,147v8a4.82,4.82,0,0,1,4.24-2.19c3,0,4.49,2,4.49,4.61v8.43H265.4v-7.45c0-2-.74-3-2.41-3-2.35,0-3.26,1.9-3.26,4v6.51h-3.06V147.36Z"/><path d="M275.54,152.91v12.92h-3.08V155.45h-1.8v-2.54Zm-1.55-5a1.6,1.6,0,1,1,0,3.16,1.63,1.63,0,0,1-1.8-1.63A1.59,1.59,0,0,1,274,147.88Z"/><path d="M290.73,152.91v11c0,4.29-1.67,6.88-6.41,6.88a13.36,13.36,0,0,1-5.28-1.11l.72-2.31a11.13,11.13,0,0,0,4.22,1c2.78,0,3.69-1.38,3.69-3.5v-1.14a4.44,4.44,0,0,1-4,2.05c-3.48.07-5.48-2.57-5.48-6.36,0-4.64,3-6.56,5.52-6.56a4.28,4.28,0,0,1,4.1,2.34l.32-2.22Zm-9.32,6.41c0,2.2.86,3.92,3.16,3.92s3.2-1.72,3.2-3.89c0-2.94-1.55-4-3.23-4S281.41,156.49,281.41,159.32Z"/><path d="M297,147v8a4.81,4.81,0,0,1,4.24-2.19c3,0,4.49,2,4.49,4.61v8.43h-3.06v-7.45c0-2-.74-3-2.41-3-2.35,0-3.26,1.9-3.26,4v6.51h-3.06V147.36Z"/><path d="M72.38,187.64a15.49,15.49,0,0,1,4.89-.94c3.89,0,5.32,1.92,5.32,4.93v5.23a.65.65,0,0,0,.62.74,2.41,2.41,0,0,0,1-.15v2.05a5,5,0,0,1-2,.39,2.34,2.34,0,0,1-2.34-1.75,5.64,5.64,0,0,1-3.89,1.75c-2.52,0-4.39-1.28-4.42-4s2-4.09,5.25-4.09a19.85,19.85,0,0,1,2.79.25v-.77c0-1.4-.89-2.17-2.66-2.14a10.41,10.41,0,0,0-4,.79Zm7.16,6a14,14,0,0,0-2.52-.15c-1.48.08-2.42.77-2.44,2.07a1.81,1.81,0,0,0,2.1,1.9,5.1,5.1,0,0,0,2.86-1Z"/><path d="M88.76,186.82l.47,2.3a4.78,4.78,0,0,1,4.41-2.42c3,0,4.49,2,4.49,4.61v8.43H95.07V192.3c0-2-.74-3-2.41-3-2.35,0-3.26,1.89-3.26,4v6.5H86.34V186.82Z"/><path d="M113.32,180.91v18.83h-2.56l-.35-2.21a4.5,4.5,0,0,1-4.11,2.36c-3.48.05-5.55-2.83-5.55-6.63,0-4.64,3-6.56,5.52-6.56a4.09,4.09,0,0,1,4,2.44V181.3Zm-9.42,12.33c0,2.19.87,3.92,3.16,3.92s3.26-1.73,3.26-3.9c0-2.93-1.58-4-3.28-4S103.9,190.4,103.9,193.24Z"/><path d="M132.86,196.12c-.84,2.64-3,3.77-5.62,3.77-4.24,0-6.07-3.15-6.07-6.61,0-4.21,2.61-6.51,6.14-6.58,3.11-.07,5,1.53,5.5,3.8l-2.84.91a2.54,2.54,0,0,0-2.61-2.12c-1.78,0-3.13,1.31-3.13,4,0,2.09.79,4,3.08,4a2.6,2.6,0,0,0,2.71-2Z"/><path d="M141.15,186.7c3.23,0,6,2.2,6,6.61,0,3.62-2.15,6.58-6.17,6.58-4.36,0-6.16-3-6.16-6.58C134.86,188.9,137.65,186.7,141.15,186.7Zm-3.09,6.61c0,2.05.69,4,3,4,2.1,0,3-1.94,3-4,0-2.86-1.41-4-3-4C139.45,189.29,138.06,190.4,138.06,193.31Z"/><path d="M152.32,186.82l.47,2.3a4.78,4.78,0,0,1,4.41-2.42c3,0,4.49,2,4.49,4.61v8.43h-3.06V192.3c0-2-.74-3-2.41-3-2.35,0-3.26,1.89-3.26,4v6.5H149.9V186.82Z"/><path d="M165.66,187V185.2c0-2.64,1.38-4.29,4.25-4.29a6.9,6.9,0,0,1,2.12.32l-.47,2.19c-.1,0-.5-.07-.89-.07-1.36,0-1.92.56-1.92,2.34V187H176v12.79h-3.06V189.41h-4.16v10.33h-3.09V189.41h-2V187Zm8.81-5.16a1.65,1.65,0,0,1,1.8,1.56,1.62,1.62,0,0,1-1.8,1.6,1.64,1.64,0,0,1-1.83-1.63C172.64,182.48,173.28,181.79,174.47,181.79Z"/><path d="M191.21,180.91v18.83h-2.56l-.35-2.21a4.5,4.5,0,0,1-4.11,2.36c-3.48.05-5.55-2.83-5.55-6.63,0-4.64,3-6.56,5.52-6.56a4.09,4.09,0,0,1,4,2.44V181.3Zm-9.42,12.33c0,2.19.87,3.92,3.16,3.92s3.26-1.73,3.26-3.9c0-2.93-1.58-4-3.28-4S181.79,190.4,181.79,193.24Z"/><path d="M205.69,196.19a5.75,5.75,0,0,1-5.57,3.7c-4.34,0-6.26-2.71-6.26-6.75s2.71-6.54,6.43-6.44c3,.07,5.75,2.34,5.45,6.46l-.05.4H197c0,2.19.94,3.69,3.18,3.69a2.87,2.87,0,0,0,2.79-2ZM202.56,192c.05-2-1-2.94-2.54-2.89a2.88,2.88,0,0,0-2.91,2.89Z"/><path d="M210.85,186.82l.47,2.3a4.78,4.78,0,0,1,4.41-2.42c3,0,4.49,2,4.49,4.61v8.43h-3.06V192.3c0-2-.74-3-2.42-3-2.34,0-3.25,1.89-3.25,4v6.5h-3.06V186.82Z"/><path d="M227.3,183.17V187h3.25l-.42,2.46H227.3v5.92c0,1.41.64,1.95,1.68,1.95a5.43,5.43,0,0,0,1.94-.57l.57,2.34a7.94,7.94,0,0,1-3.28.84c-3,0-4-2-4-4.14v-6.34h-1.8V187h1.95l.37-3.43Z"/><path d="M97.35,227.85a68.34,68.34,0,0,0,2.26,33.88,81.51,81.51,0,0,0,15.44,27A88.38,88.38,0,0,0,127,300.4c1.49,1.2,3.62-.91,2.12-2.12-15.47-12.49-27.31-30.61-29.53-50.65a65,65,0,0,1,.69-19c.35-1.89-2.54-2.69-2.89-.8Z"/><path d="M122.78,285.81c1.69,4.63,2.92,9.41,4.25,14.16l1.45-1.9c-2.49.06-5,.24-7.47.34-2.31.1-4.62.1-6.94.2-1.92.09-1.93,3.09,0,3,2.32-.1,4.63-.1,6.94-.2,2.49-.1,5-.28,7.47-.34a1.52,1.52,0,0,0,1.44-1.9c-1.33-4.75-2.56-9.52-4.24-14.16a1.55,1.55,0,0,0-1.85-1.05,1.52,1.52,0,0,0-1,1.85Z"/><path class="cls-8" d="M95.79,61.4A36.74,36.74,0,0,1,104.16,38a34.44,34.44,0,1,0,.11,46.9A36.78,36.78,0,0,1,95.79,61.4ZM87.2,75.66H70.92L71,73.39l4.46-.58c.58,0,.81-.23.81-1,.08-10.05,0-19.6,0-19.6l-5.62,1.08c-.19-.31-1.12-2.46-.46-2.73l10.35-4,1,1s-.12,20.87,0,24.37c0,.77.19,1,.73,1l5.08.54Z"/><circle cx="130" cy="61.53" r="34.44"/><text class="cls-9" transform="translate(118.45 75.26)">2</text><path d="M184,52.13l8.43,15.27V52.13h3.75v21h-4.59L183.3,58.34V73.13h-3.75v-21Z"/><path d="M213.6,68.81a7,7,0,0,1-6.78,4.5c-5.28,0-7.62-3.3-7.62-8.22s3.3-8,7.83-7.83c3.69.09,7,2.85,6.63,7.86l-.06.48H203c0,2.67,1.14,4.5,3.87,4.5a3.5,3.5,0,0,0,3.39-2.49Zm-3.81-5.13c.06-2.43-1.26-3.57-3.09-3.51a3.5,3.5,0,0,0-3.54,3.51Z"/><path d="M219.69,57.41l3.15,6.18,3.3-6.18h4l-4.35,7.8,4.53,7.92h-4.26L222.78,67l-3.45,6.12h-4.14L220,65.27l-4.29-7.86Z"/><path d="M238.11,53v4.59h4l-.51,3h-3.45v7.2c0,1.71.78,2.37,2,2.37a6.83,6.83,0,0,0,2.37-.69l.69,2.85a9.82,9.82,0,0,1-4,1c-3.69,0-4.83-2.46-4.83-5V60.56H232.2v-3h2.37l.45-4.17Z"/><path d="M256.74,57.41V73.13H253V60.5H250.8V57.41Zm-1.89-6.12a2,2,0,0,1,2.22,1.89,2.22,2.22,0,0,1-4.41,0A1.93,1.93,0,0,1,254.85,51.29Z"/><path d="M261,68.63a8.15,8.15,0,0,0,5.1,1.74c1.8,0,2.85-.54,2.85-1.83,0-3.06-9.09-1-8.79-6.78.12-2.82,2.19-4.5,6.36-4.5a12.78,12.78,0,0,1,5.67,1.47l-1.32,2.64a8.9,8.9,0,0,0-4.5-1.29c-1.47,0-2.7.48-2.64,1.71.18,2.49,8.91.57,8.91,6.63,0,3.24-2.91,4.92-6.63,4.89a10.76,10.76,0,0,1-6.45-2Z"/><path d="M286.77,53v4.59h4l-.51,3h-3.45v7.2c0,1.71.78,2.37,2,2.37a6.83,6.83,0,0,0,2.37-.69l.69,2.85a9.82,9.82,0,0,1-4,1c-3.69,0-4.83-2.46-4.83-5V60.56h-2.19v-3h2.37l.45-4.17Z"/><path d="M294.09,58.4A18.74,18.74,0,0,1,300,57.26c4.74,0,6.48,2.34,6.48,6v6.36a.79.79,0,0,0,.75.9,3,3,0,0,0,1.23-.18v2.49a6.08,6.08,0,0,1-2.49.48,2.84,2.84,0,0,1-2.85-2.13,6.87,6.87,0,0,1-4.74,2.13c-3.06,0-5.34-1.56-5.37-4.83s2.46-5,6.39-5a24.49,24.49,0,0,1,3.39.3v-.93c0-1.71-1.08-2.64-3.24-2.61a12.68,12.68,0,0,0-4.86,1Zm8.7,7.35a16.62,16.62,0,0,0-3.06-.18c-1.8.09-2.94.93-3,2.52a2.21,2.21,0,0,0,2.55,2.31,6.17,6.17,0,0,0,3.48-1.26Z"/><path d="M314.79,50.21V64h1.74l3.66-6.45h4.2l-4.71,7.77,5.13,7.86h-4.29l-4-6.09h-1.77v6.09h-3.72V50.66Z"/><path d="M340.59,68.81a7,7,0,0,1-6.78,4.5c-5.28,0-7.62-3.3-7.62-8.22s3.3-8,7.83-7.83c3.69.09,7,2.85,6.63,7.86l-.06.48H330c0,2.67,1.14,4.5,3.87,4.5a3.5,3.5,0,0,0,3.39-2.49Zm-3.81-5.13c.06-2.43-1.26-3.57-3.09-3.51a3.5,3.5,0,0,0-3.54,3.51Z"/><path d="M349.68,63.56v3h-7.44v-3Z"/><path d="M359,57.26c3.93,0,7.35,2.67,7.35,8,0,4.41-2.61,8-7.5,8-5.31,0-7.5-3.6-7.5-8C351.33,59.93,354.72,57.26,359,57.26Zm-3.75,8c0,2.49.84,4.86,3.66,4.86,2.55,0,3.69-2.37,3.69-4.86,0-3.48-1.71-4.89-3.6-4.89C356.91,60.41,355.23,61.76,355.23,65.3Z"/><path d="M370.56,57.56V55.43c0-3.21,1.68-5.22,5.19-5.22a8.28,8.28,0,0,1,3,.54l-.48,2.61a7.71,7.71,0,0,0-1.59-.18c-1.65,0-2.34.69-2.34,2.85v1.53h3.42l-.48,3h-2.94V73.13h-3.75V60.56H368.1v-3Z"/><path d="M381.12,57.56V55.43c0-3.21,1.68-5.22,5.19-5.22a8.28,8.28,0,0,1,3,.54l-.48,2.61a7.71,7.71,0,0,0-1.59-.18c-1.65,0-2.34.69-2.34,2.85v1.53h3.42l-.48,3h-2.94V73.13h-3.75V60.56h-2.46v-3Z"/></svg>