<svg id="Layer_1" data-name="Layer 1" xmlns="http://www.w3.org/2000/svg" viewBox="0 0 780 1051.14"><defs><style>.cls-1{fill:#c6946f;stroke-width:0.23px;}.cls-1,.cls-2,.cls-4,.cls-5,.cls-6,.cls-7{stroke:#fff;stroke-miterlimit:10;}.cls-2,.cls-3,.cls-6,.cls-7{fill:#d4a47c;}.cls-2{stroke-width:0.28px;}.cls-4{fill:#005058;stroke-width:0.54px;}.cls-5{fill:#fff171;stroke-width:0.3px;}.cls-6{stroke-width:0.41px;}.cls-7{stroke-width:0.31px;}.cls-8{font-size:24.66px;}.cls-18,.cls-8{font-family:ABCSansBold, ABCSans;}.cls-9{letter-spacing:-0.01em;}.cls-10{letter-spacing:-0.03em;}.cls-11{letter-spacing:0.01em;}.cls-12{letter-spacing:-0.02em;}.cls-13{letter-spacing:-0.01em;}.cls-14{letter-spacing:-0.02em;}.cls-15{letter-spacing:-0.02em;}.cls-16,.cls-17{fill:#fff;}.cls-16{opacity:0.7;}.cls-17{font-size:38.5px;font-family:ABCSerifBold, ABCSerif;}.cls-18{font-size:30px;}.cls-19{letter-spacing:-0.01em;}.cls-20{letter-spacing:-0.02em;}.cls-21{letter-spacing:-0.01em;}.cls-22{letter-spacing:0em;}</style></defs><path class="cls-1" d="M414.51,599.27a.71.71,0,0,0,.14-.1L439,579.79c7.32-5.83,15.09-11.65,21.35-18.41,10.5-11.33,23.58-19.82,36.89-28.26a1.6,1.6,0,0,0-.05.21.68.68,0,0,1,.21-.31l1.16-.73.13-.08c3.17-1.59,10.33-3.79,11.66-4.39,7.38-3.3,15.34-6.93,21.29-12.85,6.55-6.51,11.06-14.81,17.88-21.1,4.41-4.07,5-10.65,9.49-14.77,1.94-1.77,4.51-4.88,5.26-7.41,1-3.44-.92-7.67-4.22-3.71a13.79,13.79,0,0,1-2.6,2.93c-2.84,1.9-6.8-.24-10.05.8a10.67,10.67,0,0,0-3.52,2.28c-3.59,3.08-7,6.56-10.63,9.52-2,1.62-4.23,2.13-6.36,3.4-3.91,2.32-9,1.95-13.52,2.22-.67.05-1.34.14-2,.25-5.49.88-7.43.89-9.14,3.29a8.5,8.5,0,0,0-1.27,6.73,21.71,21.71,0,0,1,.57,3.79c0,.5.05,1,.08,1.49-7.3,4.36-25.27,12.17-31.17,14.58-12.77,5.22-25.6,9.88-38.64,14.2l-.08,0c-.86.34-10.34,9.28-11.2,9.62,5.37-9.12,13.88-15.51,17.8-25.53,5.54-14.13,10.61-28.4,15.72-42.69,4.7-13.74,11.25-28.2,10.71-42.95-.51-14.09-5.79-27.54-14.51-37-5.51-6-12.48-10.39-20.17-11.56-10.64-1.6-35.91,3.32-44.93,10.76-20.15,16.65-6.84,35.54-13.35,52-9.65,24.33-8,21.66-11.72,47.86-1.9,13.52-1.87,34.51-4,49.56-1.65,11.56-3.59,30-.27,41.29,2,13.77,24,28.25,37.31,24.64,6.14-1.66,11.25-5.7,17.15-8l1.69-.65.23-.11Z"/><path class="cls-2" d="M257.82,542.51c-1.21.4,1.22-9.84,0-10.69s-.11-2.31.27-3.4c.32-.9.17-1.83.42-2.75a7.88,7.88,0,0,0,.56-2,6.51,6.51,0,0,0-1.67-4.44c-1.37-1.23-3.44-1-4.89-2a5.82,5.82,0,0,1-1.43-1.75,2.74,2.74,0,0,1-1.3,1.15c-3.73,1.67-7.73.67-11.65,1a20.15,20.15,0,0,0,.17,3.59,30.34,30.34,0,0,1,.12,5.64c-.1,1.7.28,3.19-.76,4.52-.8,1-2.11,1.45-2.9,2.46a22.21,22.21,0,0,1-1.47,2.16,30.76,30.76,0,0,1-3.22,2.6c-2.38,1.92-4.64,4.1-6.95,6.13a25.25,25.25,0,0,0-6.14,7.68,20.35,20.35,0,0,0-1.95,9.77,44.8,44.8,0,0,0,.75,7.74,76.89,76.89,0,0,0,3.3,10.84c1.53,4,4.67,7.87,7.65,10.83,2.21,2.21,4,4.65,6.48,6.63a26.21,26.21,0,0,0,8.53,4.15c2.6.83,4.57,2.35,6.79,3.77,1.12.72,2.48.91,3.68,1.62a29.07,29.07,0,0,0,4.34,2.3c3,1.13,5.49.14,8.29-.82,1.86-.64,3.37-1.84,5.26-2.45a15,15,0,0,0,2.6-1.22c.94-.52,1.93-.74,2.88-1.27.45-.26.72-.65,1.18-.93s.91-.16,1.33-.53a21.64,21.64,0,0,0,1.85-2.75,28.26,28.26,0,0,1,2.4-3,3.47,3.47,0,0,0,.29-.3c.05,0,.2.06.56,0a12.16,12.16,0,0,1,2.95.08c2.53.15,2.7.61,5.6.5a28.39,28.39,0,0,0,5.37-.65,3.57,3.57,0,0,0,2.52-4.93,1.92,1.92,0,0,1-.11-1.32,5,5,0,0,1,1.72-3.21,20,20,0,0,0,2.74-1.58,19.61,19.61,0,0,0,3.68-4.51c.8-1.39.71-2.4,2.18-3,1.07-.41,2.17-.77,3.25-1.14,2-.69,3.69-1.92,3.63-4.26a15.8,15.8,0,0,0-4.46-9.61c-22.05-19.45-8-18.85-13.16-27.76-3.56-6.1-9.9-15.23-8.78-22.25"/><path d="M270.23,593.93c-.07-.37-.11-.75-.15-1.12,0-.22-.06-.67.11-.85s.06-.08.14,0,.09.23.12.3a2.91,2.91,0,0,0,.17.3c.25.39.55.74.81,1.12.15.22.32.42.45.65.82,1.43,1.19,3.19,2.16,4.52a7.5,7.5,0,0,0,4,2.37c-.28.46-1.18,2-1.76,1.86-.84-.17-2.13-2-2.86-2.48a6.82,6.82,0,0,1-2.73-3.87C270.43,595.81,270.42,594.85,270.23,593.93Z"/><path d="M233.3,521c-.15,2.61.15,5.44-.31,8-1.48,8.13-10.42,12.36-15.23,19.08-4,5.52-5,12.76-4,19.49s3.8,13,7,19c3,5.56,6.33,11,11,15.21,3.16,2.82,13.6,9.63,17.88,6s1.75-13.68,5.8-18.33c2.06-2.36,5.18-3.74,6.78-6.43a24.85,24.85,0,0,0,1.69-4.4c1-2.67,2.67-5.06,3.48-7.79s.49-6.13-1.82-7.8a11.61,11.61,0,0,1-5.54,2.41c-2,.16-2-1.16-2.58-3.13-.75-2.7-.29-4.9,2.34-5.86s5.68-1.39,7.54-3.48c2-2.27,1.89-5.65,1.66-8.67-.4-5.18-4.53-13.56-4.92-18.74-3-.72-2-1-5-1.9-2.26-.68-3.14,3.75-3.9,1.52A19.28,19.28,0,0,0,247,515.05c-3.58-2.16-8.72-2.85-11.58.19A8.74,8.74,0,0,0,233.3,521Z"/><path d="M250.57,607.82l-.83-.5c0,.06-.07.14-.11.19A2.81,2.81,0,0,0,250.57,607.82Z"/><path d="M241.22,531.75a7.54,7.54,0,0,0-3.48-.7,12.39,12.39,0,0,1-4-1.08,6.41,6.41,0,0,1-3.53-3.1,7,7,0,0,1-.46-4.18,6.8,6.8,0,0,1,1.49-3.48c1-.88,3.23-1.18,4.48-1.65a7,7,0,0,1,4.76.4,6.3,6.3,0,0,1,3.83,3,20.64,20.64,0,0,1,1,11c-.26,1.81-2.18,3.43-3.7,4.34s-4.28,2-6.08,1.76c-3.47-.4-4.92-4.48-5.24-7.43-.18-1.77-.19-3.57,1.19-4.9a10.22,10.22,0,0,1,4.09-2.13,19.22,19.22,0,0,1,5.06-1.39,7.12,7.12,0,0,1,2.76,0,22.2,22.2,0,0,0,3,.87,8.35,8.35,0,0,1,3.22,1.3,3.4,3.4,0,0,1,1.56,2.14,11,11,0,0,1,.62,3.1c0,.67-.18,1.34-.19,2,0,1.16-.07,1.18-1.26,1.68"/><path d="M236.09,530.67c-1.09,1-2.44,1-3.81.81a5.69,5.69,0,0,0-1.44-.1,1.92,1.92,0,0,1-1.85-.8c-1.29-1.42-1.47-3.7-1.7-5.49a6.54,6.54,0,0,1-.08-2.29c.15-.69.56-1.31.7-2a4.37,4.37,0,0,1,.17-1.18c.19-.41.54-.69.72-1.12a2.47,2.47,0,0,1,.55-1.08,8.81,8.81,0,0,1,1-.83,5.34,5.34,0,0,1,2-1.21,14.25,14.25,0,0,1,2.44-.28,5.8,5.8,0,0,1,1.1.13c.46.07.91,0,1.36,0a6.52,6.52,0,0,1,3.13,1.9c1.77,1.52,2.53,4.13,3.19,6.3a12.17,12.17,0,0,1,.38,5.25c-.19,1-.48,1.89-.76,2.84a10.51,10.51,0,0,1-.89,2.58,9.13,9.13,0,0,1-2,2.3,19.56,19.56,0,0,1-2.52,2,6.56,6.56,0,0,1-3,.77,8.43,8.43,0,0,0-1.67-.12,6,6,0,0,1-1.74.17,6.9,6.9,0,0,1-5.18-2.85,21.52,21.52,0,0,1-2.27-3.91c-.35-.9-.64-1.82-1-2.73a6.13,6.13,0,0,1-.27-3.06,4.38,4.38,0,0,1,.47-1.75,5.45,5.45,0,0,1,.86-1.53c1.26-1.12,2.92-1.17,4.28-2a6.21,6.21,0,0,1,.77-.54c.46-.19,1-.33,1.43-.49a10.39,10.39,0,0,1,2.35-.7,7.14,7.14,0,0,1,2.76.13,3.79,3.79,0,0,1,2.45,1.91,10.23,10.23,0,0,1,1.77,3.44,13.43,13.43,0,0,1,.18,5.13,10.31,10.31,0,0,1-1.71,4.93,6.43,6.43,0,0,1-3.87,3.29c-1.58.77-3.46.31-5.09.07-.32-.05-1.12,0-1.39-.23s-.27-.67-.35-.91"/><path d="M255.4,530.46c-1.08,1-2.43,1-3.8.8a6.27,6.27,0,0,0-1.44-.09,2,2,0,0,1-1.86-.8c-1.28-1.42-1.46-3.7-1.7-5.49a6.53,6.53,0,0,1-.07-2.29c.15-.7.56-1.32.7-2a4.65,4.65,0,0,1,.16-1.17c.19-.41.55-.7.73-1.13a2.56,2.56,0,0,1,.54-1.08,8.82,8.82,0,0,1,1-.82,5,5,0,0,1,2-1.21,15.46,15.46,0,0,1,2.45-.29,6.9,6.9,0,0,1,1.1.14c.45.06.91,0,1.36,0a6.53,6.53,0,0,1,3.13,1.9c1.77,1.51,2.53,4.13,3.19,6.3a12,12,0,0,1,.37,5.25,27.63,27.63,0,0,1-.76,2.84,10.24,10.24,0,0,1-.89,2.58,8.88,8.88,0,0,1-1.94,2.29,20.09,20.09,0,0,1-2.52,2,6.51,6.51,0,0,1-3,.78,8.59,8.59,0,0,0-1.68-.13,5.57,5.57,0,0,1-1.73.18,6.92,6.92,0,0,1-5.19-2.85,22.12,22.12,0,0,1-2.27-3.91c-.34-.9-.63-1.83-1-2.74a6.35,6.35,0,0,1-.27-3.06,4.32,4.32,0,0,1,.48-1.75,5.24,5.24,0,0,1,.85-1.52c1.27-1.13,2.92-1.17,4.28-2a6.28,6.28,0,0,1,.78-.53c.46-.2,1-.33,1.43-.5a11,11,0,0,1,2.34-.69,7,7,0,0,1,2.76.13,3.75,3.75,0,0,1,2.46,1.91,10.37,10.37,0,0,1,1.77,3.43,13.43,13.43,0,0,1,.17,5.13,10.4,10.4,0,0,1-1.7,4.93,11.09,11.09,0,0,1-1.71,2.14,11.77,11.77,0,0,1-2.16,1.16c-1.58.76-3.47.31-5.1.07-.32,0-1.12,0-1.38-.24s-.27-.66-.36-.9"/><path class="cls-2" d="M268.07,565.15c-1.85,5.2-10.25,2.47-11.75-1.43a6.85,6.85,0,0,1,3.7-8.49c3.29-1.32,7.15.14,10.51-1,1.78-.59,3.43-1.88,5.29-1.67s2.87,3.42,1,3.74"/><path class="cls-3" d="M271.9,548.71c3.66.36,16.93-8,20.42-9,3.06-.88,5.73-2.94,8.45-4.54,2-1.17,3.42-3,5.36-4.22,1.12-.73,2-1.7,3.13-2.39a10.11,10.11,0,0,0,2.35-2c1.32-1.44,2.71-2.8,4-4.24.82-.87,1.49-1.9,2.36-2.71,2.53-2.35,4.35-5.26,6.58-7.92,2-2.36,3.92-4.78,6.05-7,1.66-1.69,2.57-3.71,3.81-5.66a9.42,9.42,0,0,0,1.87-3.92,16.11,16.11,0,0,1,1.36-3,28.41,28.41,0,0,0,.91-3.55c.75-3,1.64-6,2.44-9.06,1.18-4.48,3.39-8.69,5-13,1.4-3.82,2.73-7.69,4.35-11.42,2.3-5.27,3.89-10.75,6-16.12,3.28-8.42,4.9-17.22,6.25-26.11a56.38,56.38,0,0,0,1.06-7.64c0-2.42,14.76-10.36,14.3-12.73-1.86-9.66-22.82,2.61-26.88,4.84q-2.51,1.37-5.06,2.63c-13.44,6.68-27.85,11.57-40.36,19.94a129.12,129.12,0,0,0-29.28,27.63A106.27,106.27,0,0,0,266,463.78c-2.44,4.71-6.75,11.52-7.25,16.86-.39,4.13-.64,8.29-1,12.38a68.17,68.17,0,0,0-.31,12.37c.34,3.25.37,6.43,1.41,9.56.86,2.57,2.1,5.11,2.7,7.76.42,1.86-1.53-3.89-.61-2.13"/><path class="cls-4" d="M369.05,488.86a34,34,0,0,1,14.89-9.61,24.3,24.3,0,0,1,4.37-.86c1-.1,1.06,0,1.44-.85a10.19,10.19,0,0,0,.46-2.07c.13-.8-19.31.06-19.35-.73-1-18.33,5.74-35.68,14.64-51.37,4.38-7.73,9.1-16.74,15-23.42,5.63-6.38,13.35-7.69,21.41-10.17a49.86,49.86,0,0,1,17.43-2.44c.39,0,.75.08,1.13.13-2-1.34-3.94-2.78-6-4a34.16,34.16,0,0,0-7.82-3.33c-5.44-1.69-8-1-13.67-1.72a66.39,66.39,0,0,0-20.24,1.21,84.15,84.15,0,0,0-19.41,6.84c-1.21.59-8.11,3.57-9.11,4.48-1.23,1.13-2.51,4.25-3.33,5.69-11.91,21-32,36.39-47.43,55.15A5.33,5.33,0,0,0,312,454.6a5,5,0,0,0,1,2.75,161.89,161.89,0,0,1,17.6,43.25,7.61,7.61,0,0,1,.26,3.87,3,3,0,0,1-2.89,2.3q5-.07,9.95.14"/><path d="M258.46,518.39c-1.14-1.37-1.7-3-2.87-4.38a16.43,16.43,0,0,0-4.22-3,5.86,5.86,0,0,0-4.87-.55c-1.79.48-3.58,1-4.58,2.61-2.15,3.44-2.82,6.87-1.25,10.81.52,1.31,5,10.25,7,7.14"/><path class="cls-5" d="M312.68,456.14a3.31,3.31,0,0,1-.14-.41,4.2,4.2,0,0,1-.1-.86,1.69,1.69,0,0,1,0-.32,5.1,5.1,0,0,1,.15-.76,1.56,1.56,0,0,1,.17-.5,1.72,1.72,0,0,1,.38-.58l.4-.48.23-.2c-7.61-1-16.72.3-27,4a124.42,124.42,0,0,0-20.65,9.79s-2.45,1.29-1.93,1c-1.52,3.1-2.12,3.87-3.25,6.67.88-.5,3.38-1.77,4.19-2.23,1.15-.64,2.21-1.22,3.11-1.75a120.41,120.41,0,0,1,19.88-9.44c7.13-2.55,16.29-4.81,24.57-3.83A.49.49,0,0,1,312.68,456.14Z"/><path class="cls-6" d="M279.23,525.82a19.27,19.27,0,0,0,8.42,12.86,19.86,19.86,0,0,0,8.92,2.91,46,46,0,0,0,24.22-4.25c6.88-3.45,12.71-6.82,17-13.24a58.19,58.19,0,0,1,10.48-12,63.72,63.72,0,0,1,13.18-8.48,63.33,63.33,0,0,0,11.77-7.35c13.82,25.49,32.63,41.19,46.14,63.5-.44,4.58-1.52,9.1-2.22,13.64-.45,2.9-1.11,5.79-1.27,8.73-.16,3.09.72,5.08,1.56,7.89.72,2.4,2.53,3.36,2.63,5.87a3.44,3.44,0,0,0,.14.79c.08.29.1.6.18.89a3.73,3.73,0,0,0,.8,1.53,1.41,1.41,0,0,0,.37.36c.2.09.48.14.7.22a3.45,3.45,0,0,1,2.43,1.58,20.91,20.91,0,0,1,1.76,2.09,10.81,10.81,0,0,0,1.68,2.22c.47.35.9-.09,1.31-.46a2.57,2.57,0,0,0,.51-.74c.17-.3.33-.61.49-.93q.06-.76.15-1.5a1.41,1.41,0,0,1,.06-.22,10.28,10.28,0,0,0-.6-2c-.29-.73-.59-1.46-.92-2.17,0-.05-3.4-6.05-3.43-6.1.17.29,3.71,6.53,3.87,6.83a10.71,10.71,0,0,1,.79,1.87c.14.48.2,1,.33,1.48a.68.68,0,0,1,.62-.37,3.9,3.9,0,0,0,3.22-1.67c.75-1,1.36-2,2.19-2.93a.71.71,0,0,1,.85-.08,2.7,2.7,0,0,0,3.44-.12,7.49,7.49,0,0,0,1.84-3.21A.75.75,0,0,1,443,593l-1.21-5.24c0,.09-1.62-6-.53-2.64l1.88,7.76a.62.62,0,0,1,.75,0A1.77,1.77,0,0,0,446,593c1.35-1,.82-1.44,1.26-2.13a2.65,2.65,0,0,1,2.1-1.47,1.76,1.76,0,0,0,1.66-.83,8.05,8.05,0,0,0,.54-1.28c-.2-.84-.48-1.63-.63-2.48-.34-1.85-1.21-3.5-1.7-5.29-.54-2-.95-4-1.5-6-.21-.76-.42-1.52-.67-2.26-1.52-4.41-4.62-8.18-7.23-12-.29-.42-.66-.69-.92-1.15a17.63,17.63,0,0,0-1.67-2.13c-3.17-11.6-6.38-23.19-10.86-34.09-6.49-15.78-15.82-30.63-28.05-42.73-.51-.51-1-1-1.55-1.46-2.92-2.56-6.08-4.62-9.18-7-2.09-1.63-4.63-2.7-5.95-4.59a11.74,11.74,0,0,0-5.08-4.21c-5.9-2.48-12.57.29-18.29,3.15-11.54,5.78-38.3,12.71-48.69,20.36"/><path class="cls-7" d="M424.24,595.61A3.13,3.13,0,0,0,423,596c-.26.18-.52.4-.77.61s-.44.3-.67.45-.79.27-.9.85"/><path class="cls-7" d="M424.53,597.53a7,7,0,0,1-1,1.45l-.35.45c-.15.18-.41.31-.52.5"/><path class="cls-7" d="M425.64,601.92c-.79-1.14.66-.86,1.18-.7,1.17.38,3.62,1.14,3.05,3.23"/><path class="cls-7" d="M447.59,590.64a33.15,33.15,0,0,0-1.68-5.35,7.65,7.65,0,0,0-.31-.92c-.16-.32-1-2.78-1.14-3.13-.18-.52,3.39,9,3.3,8.49"/><path class="cls-7" d="M436.6,597.31c-.13-.69-.63-2.16-.83-2.83-.11-.38-1.87-7.22-2-7.6s3,10.22,3,9.81"/><path class="cls-5" d="M258.27,486.39l-.45,4.29c-.14,1.29-.12,2.57-.21,3.86a97.7,97.7,0,0,0,21.84,37.4c2,2.08,4.35,4.38,7.08,5.61a21.18,21.18,0,0,1-5.83-7.1,16.41,16.41,0,0,1-1.55-5.2c-1.82-2.14-3.58-4.33-5.19-6.61a95.87,95.87,0,0,1-13.9-30.19c-.53-1.92-1-4.07-1.43-6C258.51,483.25,258.39,485.33,258.27,486.39Z"/><text class="cls-8" transform="translate(542.32 205.54)"><tspan class="cls-9">H</tspan><tspan x="16.25" y="0">ead must s</tspan><tspan class="cls-9" x="142.16" y="0">t</tspan><tspan class="cls-10" x="151.96" y="0">a</tspan><tspan x="165.35" y="0">y</tspan><tspan x="2.21" y="33.91">a </tspan><tspan class="cls-11" x="21.52" y="33.91">s</tspan><tspan x="34.07" y="33.91">a</tspan><tspan class="cls-12" x="48.23" y="33.91">f</tspan><tspan x="56.3" y="33.91">e dis</tspan><tspan class="cls-9" x="110.33" y="33.91">t</tspan><tspan x="120.13" y="33.91">ance </tspan><tspan x="2.6" y="67.83">f</tspan><tspan class="cls-13" x="11.28" y="67.83">r</tspan><tspan x="21.4" y="67.83">om the boa</tspan><tspan class="cls-14" x="151.4" y="67.83">r</tspan><tspan x="161.36" y="67.83">d</tspan></text><path d="M699.81,618.27c3.6,3.38,6.85,7.09,10.18,10.73l.3-2.36c-2.2,1.18-4.33,2.47-6.51,3.68-2,1.13-4.09,2.17-6.1,3.3a1.5,1.5,0,0,0,1.51,2.59c2-1.13,4.08-2.17,6.1-3.3,2.18-1.21,4.32-2.5,6.51-3.68a1.51,1.51,0,0,0,.31-2.35c-3.33-3.64-6.58-7.35-10.17-10.73-1.41-1.32-3.54.8-2.13,2.12Z"/><path d="M633.29,615.27c-3.6,3.38-6.85,7.09-10.18,10.72a1.52,1.52,0,0,0,.31,2.36c2.19,1.18,4.33,2.46,6.51,3.68,2,1.12,4.08,2.16,6.1,3.3a1.5,1.5,0,0,0,1.51-2.59c-2-1.14-4.08-2.18-6.1-3.3-2.17-1.22-4.31-2.5-6.51-3.68l.31,2.35c3.32-3.63,6.57-7.34,10.17-10.72,1.41-1.32-.72-3.44-2.12-2.12Z"/><path d="M709.47,625.73c-2.45-.18-4.89-.52-7.34-.74-2.65-.24-5.3-.24-8-.24-5.37,0-10.74,0-16.11,0H628a1.5,1.5,0,0,0,0,3c21.39,0,42.79.05,64.18,0,2.93,0,5.88-.07,8.81.15s5.64.62,8.48.83c1.92.14,1.91-2.86,0-3Z"/><path d="M97.35,227.85a68.34,68.34,0,0,0,2.26,33.88,81.51,81.51,0,0,0,15.44,27A88.38,88.38,0,0,0,127,300.4c1.49,1.2,3.62-.91,2.12-2.12-15.47-12.49-27.31-30.61-29.53-50.65a65,65,0,0,1,.69-19c.35-1.89-2.54-2.69-2.89-.8Z"/><path d="M122.78,285.81c1.69,4.63,2.92,9.41,4.25,14.16l1.45-1.9c-2.49.06-5,.24-7.47.34-2.31.1-4.62.1-6.94.2-1.92.09-1.93,3.09,0,3,2.32-.1,4.63-.1,6.94-.2,2.49-.1,5-.28,7.47-.34a1.52,1.52,0,0,0,1.44-1.9c-1.33-4.75-2.56-9.52-4.24-14.16a1.55,1.55,0,0,0-1.85-1.05,1.52,1.52,0,0,0-1,1.85Z"/><text class="cls-8" transform="translate(70.61 165.83)">It must be bo<tspan class="cls-15" x="150.8" y="0">l</tspan><tspan x="158.22" y="0">d, high </tspan><tspan x="0" y="33.91">and confident</tspan></text><path d="M97.35,227.85a68.34,68.34,0,0,0,2.26,33.88,81.51,81.51,0,0,0,15.44,27A88.38,88.38,0,0,0,127,300.4c1.49,1.2,3.62-.91,2.12-2.12-15.47-12.49-27.31-30.61-29.53-50.65a65,65,0,0,1,.69-19c.35-1.89-2.54-2.69-2.89-.8Z"/><path d="M122.78,285.81c1.69,4.63,2.92,9.41,4.25,14.16l1.45-1.9c-2.49.06-5,.24-7.47.34-2.31.1-4.62.1-6.94.2-1.92.09-1.93,3.09,0,3,2.32-.1,4.63-.1,6.94-.2,2.49-.1,5-.28,7.47-.34a1.52,1.52,0,0,0,1.44-1.9c-1.33-4.75-2.56-9.52-4.24-14.16a1.55,1.55,0,0,0-1.85-1.05,1.52,1.52,0,0,0-1,1.85Z"/><path class="cls-16" d="M95.79,61.4A36.74,36.74,0,0,1,104.16,38a34.44,34.44,0,1,0,.11,46.9A36.78,36.78,0,0,1,95.79,61.4ZM87.2,75.66H70.92L71,73.39l4.46-.58c.58,0,.81-.23.81-1,.08-10.05,0-19.6,0-19.6l-5.62,1.08c-.19-.31-1.12-2.46-.46-2.73l10.35-4,1,1s-.12,20.87,0,24.37c0,.77.19,1,.73,1l5.08.54Z"/><circle cx="130" cy="61.53" r="34.44"/><text class="cls-17" transform="translate(118.45 75.26)">2</text><text class="cls-18" transform="translate(177.42 73.13)"><tspan class="cls-19">N</tspan><tspan class="cls-20" x="20.46" y="0">e</tspan><tspan x="36.84" y="0">xt is </tspan><tspan class="cls-19" x="102.6" y="0">t</tspan><tspan x="114.51" y="0">a</tspan><tspan class="cls-21" x="131.73" y="0">k</tspan><tspan class="cls-22" x="147.45" y="0">e-off</tspan></text></svg>