<svg id="Layer_1" data-name="Layer 1" xmlns="http://www.w3.org/2000/svg" viewBox="0 0 780 1051.14"><defs><style>.cls-1{fill:#c6946f;stroke-width:0.23px;}.cls-1,.cls-2,.cls-4,.cls-5,.cls-6,.cls-7{stroke:#fff;stroke-miterlimit:10;}.cls-2,.cls-3,.cls-6,.cls-7{fill:#d4a47c;}.cls-2{stroke-width:0.28px;}.cls-4{fill:#005058;stroke-width:0.54px;}.cls-5{fill:#fff171;stroke-width:0.3px;}.cls-6{stroke-width:0.41px;}.cls-7{stroke-width:0.31px;}.cls-8,.cls-9{fill:#fff;}.cls-8{opacity:0.7;}.cls-9{font-size:38.5px;font-family:ABCSerifBold, ABCSerif;}</style></defs><path class="cls-1" d="M414.51,599.27a.71.71,0,0,0,.14-.1L439,579.79c7.32-5.83,15.09-11.65,21.35-18.41,10.5-11.33,23.58-19.82,36.89-28.26a1.6,1.6,0,0,0-.05.21.68.68,0,0,1,.21-.31l1.16-.73.13-.08c3.17-1.59,10.33-3.79,11.66-4.39,7.38-3.3,15.34-6.93,21.29-12.85,6.55-6.51,11.06-14.81,17.88-21.1,4.41-4.07,5-10.65,9.49-14.77,1.94-1.77,4.51-4.88,5.26-7.41,1-3.44-.92-7.67-4.22-3.71a13.79,13.79,0,0,1-2.6,2.93c-2.84,1.9-6.8-.24-10.05.8a10.67,10.67,0,0,0-3.52,2.28c-3.59,3.08-7,6.56-10.63,9.52-2,1.62-4.23,2.13-6.36,3.4-3.91,2.32-9,1.95-13.52,2.22-.67.05-1.34.14-2,.25-5.49.88-7.43.89-9.14,3.29a8.5,8.5,0,0,0-1.27,6.73,21.71,21.71,0,0,1,.57,3.79c0,.5.05,1,.08,1.49-7.3,4.36-25.27,12.17-31.17,14.58-12.77,5.22-25.6,9.88-38.64,14.2l-.08,0c-.86.34-10.34,9.28-11.2,9.62,5.37-9.12,13.88-15.51,17.8-25.53,5.54-14.13,10.61-28.4,15.72-42.69,4.7-13.74,11.25-28.2,10.71-42.95-.51-14.09-5.79-27.54-14.51-37-5.51-6-12.48-10.39-20.17-11.56-10.64-1.6-35.91,3.32-44.93,10.76-20.15,16.65-6.84,35.54-13.35,52-9.65,24.33-8,21.66-11.72,47.86-1.9,13.52-1.87,34.51-4,49.56-1.65,11.56-3.59,30-.27,41.29,2,13.77,24,28.25,37.31,24.64,6.14-1.66,11.25-5.7,17.15-8l1.69-.65.23-.11Z"/><path class="cls-2" d="M257.82,542.51c-1.21.4,1.22-9.84,0-10.69s-.11-2.31.27-3.4c.32-.9.17-1.83.42-2.75a7.88,7.88,0,0,0,.56-2,6.51,6.51,0,0,0-1.67-4.44c-1.37-1.23-3.44-1-4.89-2a5.82,5.82,0,0,1-1.43-1.75,2.74,2.74,0,0,1-1.3,1.15c-3.73,1.67-7.73.67-11.65,1a20.15,20.15,0,0,0,.17,3.59,30.34,30.34,0,0,1,.12,5.64c-.1,1.7.28,3.19-.76,4.52-.8,1-2.11,1.45-2.9,2.46a22.21,22.21,0,0,1-1.47,2.16,30.76,30.76,0,0,1-3.22,2.6c-2.38,1.92-4.64,4.1-6.95,6.13a25.25,25.25,0,0,0-6.14,7.68,20.35,20.35,0,0,0-1.95,9.77,44.8,44.8,0,0,0,.75,7.74,76.89,76.89,0,0,0,3.3,10.84c1.53,4,4.67,7.87,7.65,10.83,2.21,2.21,4,4.65,6.48,6.63a26.21,26.21,0,0,0,8.53,4.15c2.6.83,4.57,2.35,6.79,3.77,1.12.72,2.48.91,3.68,1.62a29.07,29.07,0,0,0,4.34,2.3c3,1.13,5.49.14,8.29-.82,1.86-.64,3.37-1.84,5.26-2.45a15,15,0,0,0,2.6-1.22c.94-.52,1.93-.74,2.88-1.27.45-.26.72-.65,1.18-.93s.91-.16,1.33-.53a21.64,21.64,0,0,0,1.85-2.75,28.26,28.26,0,0,1,2.4-3,3.47,3.47,0,0,0,.29-.3c.05,0,.2.06.56,0a12.16,12.16,0,0,1,2.95.08c2.53.15,2.7.61,5.6.5a28.39,28.39,0,0,0,5.37-.65,3.57,3.57,0,0,0,2.52-4.93,1.92,1.92,0,0,1-.11-1.32,5,5,0,0,1,1.72-3.21,20,20,0,0,0,2.74-1.58,19.61,19.61,0,0,0,3.68-4.51c.8-1.39.71-2.4,2.18-3,1.07-.41,2.17-.77,3.25-1.14,2-.69,3.69-1.92,3.63-4.26a15.8,15.8,0,0,0-4.46-9.61c-22.05-19.45-8-18.85-13.16-27.76-3.56-6.1-9.9-15.23-8.78-22.25"/><path d="M270.23,593.93c-.07-.37-.11-.75-.15-1.12,0-.22-.06-.67.11-.85s.06-.08.14,0,.09.23.12.3a2.91,2.91,0,0,0,.17.3c.25.39.55.74.81,1.12.15.22.32.42.45.65.82,1.43,1.19,3.19,2.16,4.52a7.5,7.5,0,0,0,4,2.37c-.28.46-1.18,2-1.76,1.86-.84-.17-2.13-2-2.86-2.48a6.82,6.82,0,0,1-2.73-3.87C270.43,595.81,270.42,594.85,270.23,593.93Z"/><path d="M233.3,521c-.15,2.61.15,5.44-.31,8-1.48,8.13-10.42,12.36-15.23,19.08-4,5.52-5,12.76-4,19.49s3.8,13,7,19c3,5.56,6.33,11,11,15.21,3.16,2.82,13.6,9.63,17.88,6s1.75-13.68,5.8-18.33c2.06-2.36,5.18-3.74,6.78-6.43a24.85,24.85,0,0,0,1.69-4.4c1-2.67,2.67-5.06,3.48-7.79s.49-6.13-1.82-7.8a11.61,11.61,0,0,1-5.54,2.41c-2,.16-2-1.16-2.58-3.13-.75-2.7-.29-4.9,2.34-5.86s5.68-1.39,7.54-3.48c2-2.27,1.89-5.65,1.66-8.67-.4-5.18-4.53-13.56-4.92-18.74-3-.72-2-1-5-1.9-2.26-.68-3.14,3.75-3.9,1.52A19.28,19.28,0,0,0,247,515.05c-3.58-2.16-8.72-2.85-11.58.19A8.74,8.74,0,0,0,233.3,521Z"/><path d="M250.57,607.82l-.83-.5c0,.06-.07.14-.11.19A2.81,2.81,0,0,0,250.57,607.82Z"/><path d="M241.22,531.75a7.54,7.54,0,0,0-3.48-.7,12.39,12.39,0,0,1-4-1.08,6.41,6.41,0,0,1-3.53-3.1,7,7,0,0,1-.46-4.18,6.8,6.8,0,0,1,1.49-3.48c1-.88,3.23-1.18,4.48-1.65a7,7,0,0,1,4.76.4,6.3,6.3,0,0,1,3.83,3,20.64,20.64,0,0,1,1,11c-.26,1.81-2.18,3.43-3.7,4.34s-4.28,2-6.08,1.76c-3.47-.4-4.92-4.48-5.24-7.43-.18-1.77-.19-3.57,1.19-4.9a10.22,10.22,0,0,1,4.09-2.13,19.22,19.22,0,0,1,5.06-1.39,7.12,7.12,0,0,1,2.76,0,22.2,22.2,0,0,0,3,.87,8.35,8.35,0,0,1,3.22,1.3,3.4,3.4,0,0,1,1.56,2.14,11,11,0,0,1,.62,3.1c0,.67-.18,1.34-.19,2,0,1.16-.07,1.18-1.26,1.68"/><path d="M236.09,530.67c-1.09,1-2.44,1-3.81.81a5.69,5.69,0,0,0-1.44-.1,1.92,1.92,0,0,1-1.85-.8c-1.29-1.42-1.47-3.7-1.7-5.49a6.54,6.54,0,0,1-.08-2.29c.15-.69.56-1.31.7-2a4.37,4.37,0,0,1,.17-1.18c.19-.41.54-.69.72-1.12a2.47,2.47,0,0,1,.55-1.08,8.81,8.81,0,0,1,1-.83,5.34,5.34,0,0,1,2-1.21,14.25,14.25,0,0,1,2.44-.28,5.8,5.8,0,0,1,1.1.13c.46.07.91,0,1.36,0a6.52,6.52,0,0,1,3.13,1.9c1.77,1.52,2.53,4.13,3.19,6.3a12.17,12.17,0,0,1,.38,5.25c-.19,1-.48,1.89-.76,2.84a10.51,10.51,0,0,1-.89,2.58,9.13,9.13,0,0,1-2,2.3,19.56,19.56,0,0,1-2.52,2,6.56,6.56,0,0,1-3,.77,8.43,8.43,0,0,0-1.67-.12,6,6,0,0,1-1.74.17,6.9,6.9,0,0,1-5.18-2.85,21.52,21.52,0,0,1-2.27-3.91c-.35-.9-.64-1.82-1-2.73a6.13,6.13,0,0,1-.27-3.06,4.38,4.38,0,0,1,.47-1.75,5.45,5.45,0,0,1,.86-1.53c1.26-1.12,2.92-1.17,4.28-2a6.21,6.21,0,0,1,.77-.54c.46-.19,1-.33,1.43-.49a10.39,10.39,0,0,1,2.35-.7,7.14,7.14,0,0,1,2.76.13,3.79,3.79,0,0,1,2.45,1.91,10.23,10.23,0,0,1,1.77,3.44,13.43,13.43,0,0,1,.18,5.13,10.31,10.31,0,0,1-1.71,4.93,6.43,6.43,0,0,1-3.87,3.29c-1.58.77-3.46.31-5.09.07-.32-.05-1.12,0-1.39-.23s-.27-.67-.35-.91"/><path d="M255.4,530.46c-1.08,1-2.43,1-3.8.8a6.27,6.27,0,0,0-1.44-.09,2,2,0,0,1-1.86-.8c-1.28-1.42-1.46-3.7-1.7-5.49a6.53,6.53,0,0,1-.07-2.29c.15-.7.56-1.32.7-2a4.65,4.65,0,0,1,.16-1.17c.19-.41.55-.7.73-1.13a2.56,2.56,0,0,1,.54-1.08,8.82,8.82,0,0,1,1-.82,5,5,0,0,1,2-1.21,15.46,15.46,0,0,1,2.45-.29,6.9,6.9,0,0,1,1.1.14c.45.06.91,0,1.36,0a6.53,6.53,0,0,1,3.13,1.9c1.77,1.51,2.53,4.13,3.19,6.3a12,12,0,0,1,.37,5.25,27.63,27.63,0,0,1-.76,2.84,10.24,10.24,0,0,1-.89,2.58,8.88,8.88,0,0,1-1.94,2.29,20.09,20.09,0,0,1-2.52,2,6.51,6.51,0,0,1-3,.78,8.59,8.59,0,0,0-1.68-.13,5.57,5.57,0,0,1-1.73.18,6.92,6.92,0,0,1-5.19-2.85,22.12,22.12,0,0,1-2.27-3.91c-.34-.9-.63-1.83-1-2.74a6.35,6.35,0,0,1-.27-3.06,4.32,4.32,0,0,1,.48-1.75,5.24,5.24,0,0,1,.85-1.52c1.27-1.13,2.92-1.17,4.28-2a6.28,6.28,0,0,1,.78-.53c.46-.2,1-.33,1.43-.5a11,11,0,0,1,2.34-.69,7,7,0,0,1,2.76.13,3.75,3.75,0,0,1,2.46,1.91,10.37,10.37,0,0,1,1.77,3.43,13.43,13.43,0,0,1,.17,5.13,10.4,10.4,0,0,1-1.7,4.93,11.09,11.09,0,0,1-1.71,2.14,11.77,11.77,0,0,1-2.16,1.16c-1.58.76-3.47.31-5.1.07-.32,0-1.12,0-1.38-.24s-.27-.66-.36-.9"/><path class="cls-2" d="M268.07,565.15c-1.85,5.2-10.25,2.47-11.75-1.43a6.85,6.85,0,0,1,3.7-8.49c3.29-1.32,7.15.14,10.51-1,1.78-.59,3.43-1.88,5.29-1.67s2.87,3.42,1,3.74"/><path class="cls-3" d="M271.9,548.71c3.66.36,16.93-8,20.42-9,3.06-.88,5.73-2.94,8.45-4.54,2-1.17,3.42-3,5.36-4.22,1.12-.73,2-1.7,3.13-2.39a10.11,10.11,0,0,0,2.35-2c1.32-1.44,2.71-2.8,4-4.24.82-.87,1.49-1.9,2.36-2.71,2.53-2.35,4.35-5.26,6.58-7.92,2-2.36,3.92-4.78,6.05-7,1.66-1.69,2.57-3.71,3.81-5.66a9.42,9.42,0,0,0,1.87-3.92,16.11,16.11,0,0,1,1.36-3,28.41,28.41,0,0,0,.91-3.55c.75-3,1.64-6,2.44-9.06,1.18-4.48,3.39-8.69,5-13,1.4-3.82,2.73-7.69,4.35-11.42,2.3-5.27,3.89-10.75,6-16.12,3.28-8.42,4.9-17.22,6.25-26.11a56.38,56.38,0,0,0,1.06-7.64c0-2.42,14.76-10.36,14.3-12.73-1.86-9.66-22.82,2.61-26.88,4.84q-2.51,1.37-5.06,2.63c-13.44,6.68-27.85,11.57-40.36,19.94a129.12,129.12,0,0,0-29.28,27.63A106.27,106.27,0,0,0,266,463.78c-2.44,4.71-6.75,11.52-7.25,16.86-.39,4.13-.64,8.29-1,12.38a68.17,68.17,0,0,0-.31,12.37c.34,3.25.37,6.43,1.41,9.56.86,2.57,2.1,5.11,2.7,7.76.42,1.86-1.53-3.89-.61-2.13"/><path class="cls-4" d="M369.05,488.86a34,34,0,0,1,14.89-9.61,24.3,24.3,0,0,1,4.37-.86c1-.1,1.06,0,1.44-.85a10.19,10.19,0,0,0,.46-2.07c.13-.8-19.31.06-19.35-.73-1-18.33,5.74-35.68,14.64-51.37,4.38-7.73,9.1-16.74,15-23.42,5.63-6.38,13.35-7.69,21.41-10.17a49.86,49.86,0,0,1,17.43-2.44c.39,0,.75.08,1.13.13-2-1.34-3.94-2.78-6-4a34.16,34.16,0,0,0-7.82-3.33c-5.44-1.69-8-1-13.67-1.72a66.39,66.39,0,0,0-20.24,1.21,84.15,84.15,0,0,0-19.41,6.84c-1.21.59-8.11,3.57-9.11,4.48-1.23,1.13-2.51,4.25-3.33,5.69-11.91,21-32,36.39-47.43,55.15A5.33,5.33,0,0,0,312,454.6a5,5,0,0,0,1,2.75,161.89,161.89,0,0,1,17.6,43.25,7.61,7.61,0,0,1,.26,3.87,3,3,0,0,1-2.89,2.3q5-.07,9.95.14"/><path d="M258.46,518.39c-1.14-1.37-1.7-3-2.87-4.38a16.43,16.43,0,0,0-4.22-3,5.86,5.86,0,0,0-4.87-.55c-1.79.48-3.58,1-4.58,2.61-2.15,3.44-2.82,6.87-1.25,10.81.52,1.31,5,10.25,7,7.14"/><path class="cls-5" d="M312.68,456.14a3.31,3.31,0,0,1-.14-.41,4.2,4.2,0,0,1-.1-.86,1.69,1.69,0,0,1,0-.32,5.1,5.1,0,0,1,.15-.76,1.56,1.56,0,0,1,.17-.5,1.72,1.72,0,0,1,.38-.58l.4-.48.23-.2c-7.61-1-16.72.3-27,4a124.42,124.42,0,0,0-20.65,9.79s-2.45,1.29-1.93,1c-1.52,3.1-2.12,3.87-3.25,6.67.88-.5,3.38-1.77,4.19-2.23,1.15-.64,2.21-1.22,3.11-1.75a120.41,120.41,0,0,1,19.88-9.44c7.13-2.55,16.29-4.81,24.57-3.83A.49.49,0,0,1,312.68,456.14Z"/><path class="cls-6" d="M279.23,525.82a19.27,19.27,0,0,0,8.42,12.86,19.86,19.86,0,0,0,8.92,2.91,46,46,0,0,0,24.22-4.25c6.88-3.45,12.71-6.82,17-13.24a58.19,58.19,0,0,1,10.48-12,63.72,63.72,0,0,1,13.18-8.48,63.33,63.33,0,0,0,11.77-7.35c13.82,25.49,32.63,41.19,46.14,63.5-.44,4.58-1.52,9.1-2.22,13.64-.45,2.9-1.11,5.79-1.27,8.73-.16,3.09.72,5.08,1.56,7.89.72,2.4,2.53,3.36,2.63,5.87a3.44,3.44,0,0,0,.14.79c.08.29.1.6.18.89a3.73,3.73,0,0,0,.8,1.53,1.41,1.41,0,0,0,.37.36c.2.09.48.14.7.22a3.45,3.45,0,0,1,2.43,1.58,20.91,20.91,0,0,1,1.76,2.09,10.81,10.81,0,0,0,1.68,2.22c.47.35.9-.09,1.31-.46a2.57,2.57,0,0,0,.51-.74c.17-.3.33-.61.49-.93q.06-.76.15-1.5a1.41,1.41,0,0,1,.06-.22,10.28,10.28,0,0,0-.6-2c-.29-.73-.59-1.46-.92-2.17,0-.05-3.4-6.05-3.43-6.1.17.29,3.71,6.53,3.87,6.83a10.71,10.71,0,0,1,.79,1.87c.14.48.2,1,.33,1.48a.68.68,0,0,1,.62-.37,3.9,3.9,0,0,0,3.22-1.67c.75-1,1.36-2,2.19-2.93a.71.71,0,0,1,.85-.08,2.7,2.7,0,0,0,3.44-.12,7.49,7.49,0,0,0,1.84-3.21A.75.75,0,0,1,443,593l-1.21-5.24c0,.09-1.62-6-.53-2.64l1.88,7.76a.62.62,0,0,1,.75,0A1.77,1.77,0,0,0,446,593c1.35-1,.82-1.44,1.26-2.13a2.65,2.65,0,0,1,2.1-1.47,1.76,1.76,0,0,0,1.66-.83,8.05,8.05,0,0,0,.54-1.28c-.2-.84-.48-1.63-.63-2.48-.34-1.85-1.21-3.5-1.7-5.29-.54-2-.95-4-1.5-6-.21-.76-.42-1.52-.67-2.26-1.52-4.41-4.62-8.18-7.23-12-.29-.42-.66-.69-.92-1.15a17.63,17.63,0,0,0-1.67-2.13c-3.17-11.6-6.38-23.19-10.86-34.09-6.49-15.78-15.82-30.63-28.05-42.73-.51-.51-1-1-1.55-1.46-2.92-2.56-6.08-4.62-9.18-7-2.09-1.63-4.63-2.7-5.95-4.59a11.74,11.74,0,0,0-5.08-4.21c-5.9-2.48-12.57.29-18.29,3.15-11.54,5.78-38.3,12.71-48.69,20.36"/><path class="cls-7" d="M424.24,595.61A3.13,3.13,0,0,0,423,596c-.26.18-.52.4-.77.61s-.44.3-.67.45-.79.27-.9.85"/><path class="cls-7" d="M424.53,597.53a7,7,0,0,1-1,1.45l-.35.45c-.15.18-.41.31-.52.5"/><path class="cls-7" d="M425.64,601.92c-.79-1.14.66-.86,1.18-.7,1.17.38,3.62,1.14,3.05,3.23"/><path class="cls-7" d="M447.59,590.64a33.15,33.15,0,0,0-1.68-5.35,7.65,7.65,0,0,0-.31-.92c-.16-.32-1-2.78-1.14-3.13-.18-.52,3.39,9,3.3,8.49"/><path class="cls-7" d="M436.6,597.31c-.13-.69-.63-2.16-.83-2.83-.11-.38-1.87-7.22-2-7.6s3,10.22,3,9.81"/><path class="cls-5" d="M258.27,486.39l-.45,4.29c-.14,1.29-.12,2.57-.21,3.86a97.7,97.7,0,0,0,21.84,37.4c2,2.08,4.35,4.38,7.08,5.61a21.18,21.18,0,0,1-5.83-7.1,16.41,16.41,0,0,1-1.55-5.2c-1.82-2.14-3.58-4.33-5.19-6.61a95.87,95.87,0,0,1-13.9-30.19c-.53-1.92-1-4.07-1.43-6C258.51,483.25,258.39,485.33,258.27,486.39Z"/><path d="M547.16,188.28v7.13h6.9v-7.13h3.11v17.26h-3.11v-7.35h-6.9v7.35h-3.09V188.28Z"/><path d="M571.5,202a5.77,5.77,0,0,1-5.58,3.7c-4.34,0-6.26-2.71-6.26-6.76s2.71-6.53,6.44-6.43c3,.07,5.74,2.34,5.45,6.46l0,.39h-8.73c0,2.2.94,3.7,3.18,3.7a2.89,2.89,0,0,0,2.79-2.05Zm-3.13-4.22c0-2-1-2.93-2.54-2.88a2.87,2.87,0,0,0-2.91,2.88Z"/><path d="M574.43,193.43a15.46,15.46,0,0,1,4.89-.93c3.89,0,5.32,1.92,5.32,4.93v5.23a.65.65,0,0,0,.62.74,2.61,2.61,0,0,0,1-.15v2a4.85,4.85,0,0,1-2,.4,2.34,2.34,0,0,1-2.34-1.75,5.62,5.62,0,0,1-3.89,1.75c-2.52,0-4.39-1.28-4.42-4s2-4.09,5.25-4.09a20,20,0,0,1,2.79.24v-.76c0-1.41-.89-2.17-2.66-2.15a10.41,10.41,0,0,0-4,.79Zm7.16,6a13.13,13.13,0,0,0-2.52-.15c-1.48.07-2.42.76-2.44,2.07a1.82,1.82,0,0,0,2.1,1.9,5.09,5.09,0,0,0,2.86-1Z"/><path d="M600.48,186.7v18.84h-2.57l-.34-2.22a4.53,4.53,0,0,1-4.12,2.37c-3.48.05-5.55-2.84-5.55-6.63,0-4.64,3-6.56,5.52-6.56a4.11,4.11,0,0,1,4,2.44V187.1ZM591.06,199c0,2.2.86,3.92,3.15,3.92s3.26-1.72,3.26-3.89c0-2.94-1.58-4-3.28-4S591.06,196.2,591.06,199Z"/><path d="M611.21,192.62l.44,2.29a4.32,4.32,0,0,1,4-2.44,3.75,3.75,0,0,1,3.84,2.39,4.58,4.58,0,0,1,4.17-2.39c3,0,4.22,2,4.22,4.64v8.43h-3.06v-7.45c0-2-.47-3-2.15-3-2.21,0-2.81,1.68-2.81,3.58v6.9h-3.05v-7.45c0-2-.47-3-2.15-3-2.37,0-2.83,1.9-2.83,4v6.51h-3.06V192.62Z"/><path d="M633.88,192.62v7.45c0,2,.78,3,2.58,3,2.35,0,3.31-2.42,3.31-4.86v-5.62h3.06v12.92h-2.45l-.44-2.81a4.71,4.71,0,0,1-4.46,3c-3.16,0-4.66-1.95-4.66-5.2v-7.87Z"/><path d="M646.33,201.84a6.68,6.68,0,0,0,4.19,1.43c1.48,0,2.35-.44,2.35-1.5,0-2.52-7.48-.84-7.23-5.57.1-2.32,1.8-3.7,5.23-3.7a10.49,10.49,0,0,1,4.66,1.21l-1.09,2.16a7.3,7.3,0,0,0-3.7-1.05c-1.2,0-2.21.39-2.17,1.4.15,2.05,7.33.47,7.33,5.45,0,2.66-2.39,4-5.45,4a8.86,8.86,0,0,1-5.3-1.68Z"/><path d="M662.36,189v3.77h3.26l-.42,2.47h-2.84v5.92c0,1.4.64,2,1.68,2a5.72,5.72,0,0,0,2-.57l.56,2.34a8.1,8.1,0,0,1-3.28.84c-3,0-4-2-4-4.14v-6.34h-1.8v-2.47h2l.37-3.42Z"/><path d="M674,201.84a6.73,6.73,0,0,0,4.2,1.43c1.47,0,2.34-.44,2.34-1.5,0-2.52-7.47-.84-7.23-5.57.1-2.32,1.8-3.7,5.23-3.7a10.49,10.49,0,0,1,4.66,1.21l-1.08,2.16a7.34,7.34,0,0,0-3.7-1.05c-1.21,0-2.22.39-2.17,1.4.15,2.05,7.32.47,7.32,5.45,0,2.66-2.39,4-5.45,4a8.86,8.86,0,0,1-5.3-1.68Z"/><path d="M690,189v3.77h3.26l-.42,2.47H690v5.92c0,1.4.65,2,1.68,2a5.72,5.72,0,0,0,1.95-.57l.57,2.34a8.16,8.16,0,0,1-3.28.84c-3,0-4-2-4-4.14v-6.34h-1.8v-2.47h1.94l.37-3.42Z"/><path d="M696.05,193.43a15.46,15.46,0,0,1,4.89-.93c3.89,0,5.32,1.92,5.32,4.93v5.23a.65.65,0,0,0,.62.74,2.61,2.61,0,0,0,1-.15v2a4.89,4.89,0,0,1-2,.4,2.34,2.34,0,0,1-2.34-1.75,5.65,5.65,0,0,1-3.9,1.75c-2.51,0-4.39-1.28-4.41-4s2-4.09,5.25-4.09a20,20,0,0,1,2.79.24v-.76c0-1.41-.89-2.17-2.66-2.15a10.41,10.41,0,0,0-4,.79Zm7.15,6a13,13,0,0,0-2.51-.15c-1.48.07-2.42.76-2.44,2.07a1.82,1.82,0,0,0,2.09,1.9,5,5,0,0,0,2.86-1Z"/><path d="M711.44,192.62l3.18,9.12h.2l2.91-9.12h3.16l-4.79,13.12c-1.57,4.31-3.05,5.4-7.62,4.44l.55-2.59c2.91.71,3.3,0,4.21-2.49l-4.85-12.48Z"/><path d="M546.31,227.35a15.36,15.36,0,0,1,4.88-.94c3.89,0,5.32,1.92,5.32,4.93v5.23a.65.65,0,0,0,.62.74,2.41,2.41,0,0,0,1-.15v2.05a5,5,0,0,1-2,.39,2.34,2.34,0,0,1-2.34-1.75,5.62,5.62,0,0,1-3.89,1.75c-2.52,0-4.39-1.28-4.42-4s2-4.09,5.25-4.09a19.85,19.85,0,0,1,2.79.25V231c0-1.4-.89-2.17-2.66-2.14a10.52,10.52,0,0,0-4,.78Zm7.15,6a14,14,0,0,0-2.52-.15c-1.48.08-2.42.76-2.44,2.07a1.81,1.81,0,0,0,2.1,1.9,5,5,0,0,0,2.86-1Z"/><path d="M565.77,235.76a6.68,6.68,0,0,0,4.19,1.43c1.48,0,2.34-.45,2.34-1.51,0-2.51-7.47-.84-7.23-5.57.1-2.32,1.81-3.7,5.23-3.7a10.49,10.49,0,0,1,4.66,1.21l-1.08,2.17a7.25,7.25,0,0,0-3.7-1.06c-1.21,0-2.22.39-2.17,1.4.15,2.05,7.32.47,7.32,5.45,0,2.67-2.39,4-5.45,4a8.82,8.82,0,0,1-5.3-1.67Z"/><path d="M578.17,227.35a15.42,15.42,0,0,1,4.88-.94c3.9,0,5.33,1.92,5.33,4.93v5.23a.65.65,0,0,0,.62.74,2.45,2.45,0,0,0,1-.15v2.05a5.09,5.09,0,0,1-2,.39,2.33,2.33,0,0,1-2.34-1.75,5.67,5.67,0,0,1-3.9,1.75c-2.51,0-4.39-1.28-4.41-4s2-4.09,5.25-4.09a19.85,19.85,0,0,1,2.79.25V231c0-1.4-.89-2.17-2.67-2.14a10.5,10.5,0,0,0-4,.78Zm7.15,6a13.88,13.88,0,0,0-2.51-.15c-1.48.08-2.42.76-2.44,2.07a1.81,1.81,0,0,0,2.09,1.9,5,5,0,0,0,2.86-1Z"/><path d="M592.9,226.66v-1.75c0-2.64,1.38-4.29,4.26-4.29a6.74,6.74,0,0,1,2.44.44l-.39,2.14a7.24,7.24,0,0,0-1.31-.14c-1.36,0-1.92.56-1.92,2.34v1.26h2.81l-.4,2.46H596v10.33H592.9V229.12h-2v-2.46Z"/><path d="M611.54,235.9a5.76,5.76,0,0,1-5.57,3.7c-4.34,0-6.27-2.71-6.27-6.75s2.72-6.54,6.44-6.44c3,.07,5.74,2.34,5.45,6.46l-.05.39h-8.73c0,2.2.94,3.7,3.18,3.7a2.89,2.89,0,0,0,2.79-2Zm-3.13-4.21c.05-2-1-2.94-2.54-2.89a2.88,2.88,0,0,0-2.91,2.89Z"/><path d="M631.52,220.62v18.83H629l-.34-2.21a4.53,4.53,0,0,1-4.12,2.36c-3.48.05-5.55-2.83-5.55-6.63,0-4.64,3-6.56,5.52-6.56a4.09,4.09,0,0,1,4,2.44V221Zm-9.42,12.32c0,2.2.86,3.93,3.15,3.93s3.26-1.73,3.26-3.9c0-2.93-1.58-4-3.28-4S622.1,230.11,622.1,232.94Z"/><path d="M638.67,226.53v12.92h-3.08V229.07h-1.8v-2.54Zm-1.55-5a1.65,1.65,0,0,1,1.82,1.56,1.82,1.82,0,0,1-3.62,0A1.59,1.59,0,0,1,637.12,221.5Z"/><path d="M642.17,235.76a6.73,6.73,0,0,0,4.2,1.43c1.48,0,2.34-.45,2.34-1.51,0-2.51-7.47-.84-7.23-5.57.1-2.32,1.8-3.7,5.23-3.7a10.49,10.49,0,0,1,4.66,1.21l-1.08,2.17a7.3,7.3,0,0,0-3.7-1.06c-1.21,0-2.22.39-2.17,1.4.15,2.05,7.32.47,7.32,5.45,0,2.67-2.39,4-5.45,4a8.82,8.82,0,0,1-5.3-1.67Z"/><path d="M658.21,222.88v3.78h3.25l-.42,2.46h-2.83V235c0,1.41.64,2,1.67,2a5.5,5.5,0,0,0,2-.57l.57,2.34a7.94,7.94,0,0,1-3.28.84c-3,0-4-2-4-4.14v-6.34h-1.8v-2.46h1.95l.37-3.43Z"/><path d="M664.22,227.35a15.43,15.43,0,0,1,4.89-.94c3.89,0,5.32,1.92,5.32,4.93v5.23a.65.65,0,0,0,.62.74,2.41,2.41,0,0,0,1-.15v2.05a5.09,5.09,0,0,1-2,.39,2.34,2.34,0,0,1-2.34-1.75,5.65,5.65,0,0,1-3.9,1.75c-2.51,0-4.38-1.28-4.41-4s2-4.09,5.25-4.09a19.85,19.85,0,0,1,2.79.25V231c0-1.4-.89-2.17-2.66-2.14a10.52,10.52,0,0,0-4,.78Zm7.16,6a14,14,0,0,0-2.52-.15c-1.48.08-2.42.76-2.44,2.07a1.81,1.81,0,0,0,2.09,1.9,5,5,0,0,0,2.87-1Z"/><path d="M680.6,226.53l.47,2.3a4.74,4.74,0,0,1,4.41-2.42c3,0,4.49,2,4.49,4.61v8.43h-3.06V232c0-2-.74-3-2.41-3-2.35,0-3.26,1.89-3.26,4v6.51h-3.06V226.53Z"/><path d="M704.33,235.83c-.84,2.64-3,3.77-5.63,3.77-4.24,0-6.06-3.15-6.06-6.61,0-4.21,2.61-6.51,6.14-6.58,3.1-.07,5,1.53,5.5,3.8l-2.84.91a2.55,2.55,0,0,0-2.61-2.12c-1.78,0-3.14,1.31-3.14,3.94,0,2.1.79,4,3.09,4a2.6,2.6,0,0,0,2.71-2.05Z"/><path d="M718.14,235.9a5.77,5.77,0,0,1-5.58,3.7c-4.34,0-6.26-2.71-6.26-6.75s2.71-6.54,6.44-6.44c3,.07,5.74,2.34,5.45,6.46l-.05.39h-8.73c0,2.2.94,3.7,3.18,3.7a2.89,2.89,0,0,0,2.79-2ZM715,231.69c0-2-1-2.94-2.54-2.89a2.87,2.87,0,0,0-2.91,2.89Z"/><path d="M547.27,260.57v-1.75c0-2.64,1.38-4.29,4.26-4.29A6.74,6.74,0,0,1,554,255l-.39,2.15a6.25,6.25,0,0,0-1.31-.15c-1.35,0-1.92.57-1.92,2.34v1.26h2.81l-.39,2.47h-2.42v10.33h-3.08V263h-2v-2.47Z"/><path d="M557.6,260.45l.57,2.66c.59-2,2.09-2.84,4.19-2.79a5.12,5.12,0,0,1,1.33.23l-.47,2.68a5.29,5.29,0,0,0-1.85-.24c-2.27.07-3.13,1.82-3.13,3.89v6.49h-3.06V260.45Z"/><path d="M571.12,260.32c3.23,0,6,2.2,6,6.61,0,3.63-2.15,6.59-6.17,6.59-4.36,0-6.16-3-6.16-6.59C564.83,262.52,567.61,260.32,571.12,260.32ZM568,266.93c0,2.05.69,4,3,4,2.1,0,3-1.95,3-4,0-2.86-1.4-4-3-4C569.41,262.91,568,264,568,266.93Z"/><path d="M582.31,260.45l.45,2.29a4.3,4.3,0,0,1,4-2.44,3.77,3.77,0,0,1,3.85,2.39,4.52,4.52,0,0,1,4.17-2.39c3,0,4.21,2,4.21,4.63v8.44h-3.05v-7.45c0-2-.47-3-2.15-3-2.22,0-2.81,1.68-2.81,3.57v6.91h-3.06v-7.45c0-2-.47-3-2.14-3-2.37,0-2.84,1.9-2.84,4v6.51h-3.06V260.45Z"/><path d="M611.22,256.8v3.77h3.25l-.41,2.47h-2.84V269c0,1.41.64,1.95,1.68,1.95a5.36,5.36,0,0,0,1.94-.57l.57,2.35a8.1,8.1,0,0,1-3.28.84c-3,0-4-2-4-4.15V263h-1.8v-2.47h1.95l.37-3.43Z"/><path d="M620.42,254.53v8a4.81,4.81,0,0,1,4.24-2.2c3,0,4.49,1.95,4.49,4.61v8.44h-3.06v-7.45c0-2-.74-3-2.42-3-2.34,0-3.25,1.9-3.25,4v6.51h-3.06V254.9Z"/><path d="M643.55,269.82a5.76,5.76,0,0,1-5.57,3.7c-4.34,0-6.26-2.72-6.26-6.76s2.71-6.53,6.43-6.44c3,.08,5.75,2.35,5.45,6.46l-.05.4h-8.73c0,2.19.94,3.7,3.18,3.7a2.87,2.87,0,0,0,2.79-2.05Zm-3.13-4.22c.05-2-1-2.93-2.54-2.88A2.87,2.87,0,0,0,635,265.6Z"/><path d="M654.51,254.53v8.21a4.42,4.42,0,0,1,4.31-2.42c2.44.08,5.06,1.73,5.06,6.49,0,3.9-2,6.71-5.45,6.71a4.28,4.28,0,0,1-4.07-2.37l-.42,2.22h-2.49V254.92Zm-.13,12.35c0,2.22.82,4,3.26,4,2,0,3.1-1.51,3.1-4.05,0-3-1.5-3.94-3.13-3.94S654.38,264.29,654.38,266.88Z"/><path d="M672.39,260.32c3.23,0,6,2.2,6,6.61,0,3.63-2.15,6.59-6.17,6.59-4.36,0-6.16-3-6.16-6.59C666.1,262.52,668.88,260.32,672.39,260.32Zm-3.09,6.61c0,2.05.69,4,3,4,2.1,0,3-1.95,3-4,0-2.86-1.41-4-3-4C670.68,262.91,669.3,264,669.3,266.93Z"/><path d="M681.34,261.26a15.36,15.36,0,0,1,4.88-.94c3.9,0,5.33,1.93,5.33,4.93v5.23a.65.65,0,0,0,.62.74,2.54,2.54,0,0,0,1-.14v2a5.05,5.05,0,0,1-2,.4,2.33,2.33,0,0,1-2.34-1.76,5.63,5.63,0,0,1-3.9,1.76c-2.51,0-4.39-1.29-4.41-4s2-4.1,5.25-4.1a19.85,19.85,0,0,1,2.79.25v-.77c0-1.4-.89-2.17-2.67-2.14a10.39,10.39,0,0,0-4,.79Zm7.15,6a13.88,13.88,0,0,0-2.51-.15c-1.48.08-2.42.77-2.44,2.08a1.8,1.8,0,0,0,2.09,1.89,5.07,5.07,0,0,0,2.86-1Z"/><path d="M697.72,260.45l.56,2.66c.6-2,2.1-2.84,4.2-2.79a5.28,5.28,0,0,1,1.33.23l-.47,2.68a5.33,5.33,0,0,0-1.85-.24c-2.27.07-3.13,1.82-3.13,3.89v6.49H695.3V260.45Z"/><path d="M717.35,254.53v18.84h-2.57l-.34-2.22a4.53,4.53,0,0,1-4.12,2.37c-3.48.05-5.55-2.84-5.55-6.64,0-4.63,3-6.56,5.53-6.56a4.12,4.12,0,0,1,4,2.44v-7.84Zm-9.42,12.33c0,2.19.86,3.92,3.15,3.92s3.26-1.73,3.26-3.9c0-2.93-1.58-4-3.28-4S707.93,264,707.93,266.86Z"/><path d="M699.81,618.27c3.6,3.38,6.85,7.09,10.18,10.73l.3-2.36c-2.2,1.18-4.33,2.47-6.51,3.68-2,1.13-4.09,2.17-6.1,3.3a1.5,1.5,0,0,0,1.51,2.59c2-1.13,4.08-2.17,6.1-3.3,2.18-1.21,4.32-2.5,6.51-3.68a1.51,1.51,0,0,0,.31-2.35c-3.33-3.64-6.58-7.35-10.17-10.73-1.41-1.32-3.54.8-2.13,2.12Z"/><path d="M633.29,615.27c-3.6,3.38-6.85,7.09-10.18,10.72a1.52,1.52,0,0,0,.31,2.36c2.19,1.18,4.33,2.46,6.51,3.68,2,1.12,4.08,2.16,6.1,3.3a1.5,1.5,0,0,0,1.51-2.59c-2-1.14-4.08-2.18-6.1-3.3-2.17-1.22-4.31-2.5-6.51-3.68l.31,2.35c3.32-3.63,6.57-7.34,10.17-10.72,1.41-1.32-.72-3.44-2.12-2.12Z"/><path d="M709.47,625.73c-2.45-.18-4.89-.52-7.34-.74-2.65-.24-5.3-.24-8-.24-5.37,0-10.74,0-16.11,0H628a1.5,1.5,0,0,0,0,3c21.39,0,42.79.05,64.18,0,2.93,0,5.88-.07,8.81.15s5.64.62,8.48.83c1.92.14,1.91-2.86,0-3Z"/><path d="M97.35,227.85a68.34,68.34,0,0,0,2.26,33.88,81.51,81.51,0,0,0,15.44,27A88.38,88.38,0,0,0,127,300.4c1.49,1.2,3.62-.91,2.12-2.12-15.47-12.49-27.31-30.61-29.53-50.65a65,65,0,0,1,.69-19c.35-1.89-2.54-2.69-2.89-.8Z"/><path d="M122.78,285.81c1.69,4.63,2.92,9.41,4.25,14.16l1.45-1.9c-2.49.06-5,.24-7.47.34-2.31.1-4.62.1-6.94.2-1.92.09-1.93,3.09,0,3,2.32-.1,4.63-.1,6.94-.2,2.49-.1,5-.28,7.47-.34a1.52,1.52,0,0,0,1.44-1.9c-1.33-4.75-2.56-9.52-4.24-14.16a1.55,1.55,0,0,0-1.85-1.05,1.52,1.52,0,0,0-1,1.85Z"/><path d="M75.44,148.57v17.26H72.36V148.57Z"/><path d="M82.74,149.26V153H86l-.42,2.47H82.74v5.92c0,1.4.64,2,1.68,2a5.72,5.72,0,0,0,2-.57l.56,2.34a8.09,8.09,0,0,1-3.27.84c-3,0-4-2-4-4.14V155.5h-1.8V153h1.94l.37-3.42Z"/><path d="M96.48,152.91l.44,2.29a4.34,4.34,0,0,1,4-2.44,3.77,3.77,0,0,1,3.85,2.39,4.55,4.55,0,0,1,4.16-2.39c3,0,4.22,2,4.22,4.64v8.43h-3.06v-7.45c0-2-.47-3-2.14-3-2.22,0-2.81,1.68-2.81,3.58v6.9h-3.06v-7.45c0-2-.47-3-2.15-3-2.36,0-2.83,1.9-2.83,4v6.51H94V152.91Z"/><path d="M119.15,152.91v7.45c0,2,.79,3,2.59,3,2.34,0,3.3-2.42,3.3-4.86v-5.62h3.06v12.92h-2.44l-.45-2.81a4.7,4.7,0,0,1-4.46,3c-3.16,0-4.66-1.95-4.66-5.2v-7.87Z"/><path d="M131.6,162.13a6.72,6.72,0,0,0,4.19,1.43c1.48,0,2.35-.44,2.35-1.5,0-2.52-7.47-.84-7.23-5.57.1-2.32,1.8-3.7,5.23-3.7A10.49,10.49,0,0,1,140.8,154l-1.08,2.16a7.41,7.41,0,0,0-3.7-1.06c-1.21,0-2.22.4-2.17,1.41.15,2.05,7.32.47,7.32,5.45,0,2.66-2.39,4-5.45,4a8.86,8.86,0,0,1-5.3-1.68Z"/><path d="M147.63,149.26V153h3.26l-.42,2.47h-2.84v5.92c0,1.4.64,2,1.68,2a5.72,5.72,0,0,0,1.95-.57l.57,2.34a8.21,8.21,0,0,1-3.28.84c-3,0-4-2-4-4.14V155.5h-1.8V153h1.94l.37-3.42Z"/><path d="M162,147v8.21a4.39,4.39,0,0,1,4.31-2.41c2.44.07,5.06,1.72,5.06,6.48,0,3.9-2,6.71-5.45,6.71a4.28,4.28,0,0,1-4.07-2.37l-.42,2.22h-2.49V147.39Zm-.12,12.36c0,2.22.81,4,3.25,4,2,0,3.11-1.5,3.11-4,0-3-1.51-4-3.13-4C163.32,155.35,161.87,156.76,161.87,159.35Z"/><path d="M185.39,162.28a5.76,5.76,0,0,1-5.57,3.7c-4.34,0-6.26-2.71-6.26-6.76s2.71-6.53,6.43-6.43c3,.07,5.75,2.34,5.45,6.46l-.05.39h-8.73c0,2.2.94,3.7,3.18,3.7a2.87,2.87,0,0,0,2.79-2.05Zm-3.13-4.22c.05-2-1-2.93-2.54-2.88a2.87,2.87,0,0,0-2.91,2.88Z"/><path d="M196.35,147v8.21a4.39,4.39,0,0,1,4.31-2.41c2.44.07,5.06,1.72,5.06,6.48,0,3.9-1.95,6.71-5.45,6.71a4.27,4.27,0,0,1-4.07-2.37l-.42,2.22h-2.49V147.39Zm-.13,12.36c0,2.22.82,4,3.26,4,2,0,3.1-1.5,3.1-4,0-3-1.5-4-3.13-4S196.22,156.76,196.22,159.35Z"/><path d="M214.23,152.79c3.23,0,6,2.19,6,6.61,0,3.62-2.15,6.58-6.17,6.58-4.36,0-6.16-3-6.16-6.58C207.94,155,210.72,152.79,214.23,152.79Zm-3.09,6.61c0,2,.69,4,3,4,2.1,0,3-1.95,3-4,0-2.87-1.41-4-3-4C212.52,155.38,211.14,156.49,211.14,159.4Z"/><path d="M226,147v14.62c0,1.39.62,1.76,1.53,1.76a2.42,2.42,0,0,0,1.28-.47l.57,2.19a5.35,5.35,0,0,1-2.79.89c-2.56,0-3.65-1.73-3.65-4.07V147.36Z"/><path d="M242.49,147v18.84h-2.56l-.35-2.22a4.52,4.52,0,0,1-4.12,2.37c-3.47.05-5.55-2.84-5.55-6.63,0-4.64,3-6.56,5.53-6.56a4.1,4.1,0,0,1,4,2.44v-7.84Zm-9.42,12.33c0,2.2.86,3.92,3.16,3.92s3.25-1.72,3.25-3.89c0-2.94-1.58-4-3.28-4S233.07,156.49,233.07,159.32Z"/><path d="M246.61,165.49a1.42,1.42,0,0,1-1.63-1.58,1.6,1.6,0,0,1,1.73-1.53c1.7,0,2.37,1.33,2.24,2.91-.19,2.34-2,3.28-4,3.3v-1.33c1.16,0,2-.61,2-1.35C246.91,165.71,246.61,165.49,246.61,165.49Z"/><path d="M259.73,147v8a4.82,4.82,0,0,1,4.24-2.19c3,0,4.49,2,4.49,4.61v8.43H265.4v-7.45c0-2-.74-3-2.41-3-2.35,0-3.26,1.9-3.26,4v6.51h-3.06V147.36Z"/><path d="M275.54,152.91v12.92h-3.08V155.45h-1.8v-2.54Zm-1.55-5a1.6,1.6,0,1,1,0,3.16,1.63,1.63,0,0,1-1.8-1.63A1.59,1.59,0,0,1,274,147.88Z"/><path d="M290.73,152.91v11c0,4.29-1.67,6.88-6.41,6.88a13.36,13.36,0,0,1-5.28-1.11l.72-2.32a10.87,10.87,0,0,0,4.22,1c2.78,0,3.69-1.38,3.69-3.5v-1.14a4.44,4.44,0,0,1-4,2.05c-3.48.07-5.48-2.57-5.48-6.36,0-4.64,3-6.56,5.52-6.56a4.28,4.28,0,0,1,4.1,2.34l.32-2.22Zm-9.32,6.41c0,2.2.86,3.92,3.16,3.92s3.2-1.72,3.2-3.89c0-2.94-1.55-4-3.23-4S281.41,156.49,281.41,159.32Z"/><path d="M297,147v8a4.81,4.81,0,0,1,4.24-2.19c3,0,4.49,2,4.49,4.61v8.43h-3.06v-7.45c0-2-.74-3-2.41-3-2.35,0-3.26,1.9-3.26,4v6.51h-3.06V147.36Z"/><path d="M72.38,187.64a15.49,15.49,0,0,1,4.89-.94c3.89,0,5.32,1.92,5.32,4.93v5.23a.65.65,0,0,0,.62.74,2.41,2.41,0,0,0,1-.15v2.05a5,5,0,0,1-2,.39,2.34,2.34,0,0,1-2.34-1.75,5.64,5.64,0,0,1-3.89,1.75c-2.52,0-4.39-1.28-4.42-4s2-4.09,5.25-4.09a19.85,19.85,0,0,1,2.79.25v-.77c0-1.4-.89-2.17-2.66-2.14a10.41,10.41,0,0,0-4,.79Zm7.16,6a13.13,13.13,0,0,0-2.52-.15c-1.48.07-2.42.77-2.44,2.07a1.81,1.81,0,0,0,2.1,1.9,5.1,5.1,0,0,0,2.86-1Z"/><path d="M88.76,186.82l.47,2.3a4.76,4.76,0,0,1,4.41-2.42c3,0,4.49,2,4.49,4.61v8.44H95.07V192.3c0-2-.74-3-2.41-3-2.35,0-3.26,1.9-3.26,4v6.51H86.34V186.82Z"/><path d="M113.32,180.91v18.84h-2.56l-.35-2.22a4.5,4.5,0,0,1-4.11,2.36c-3.48.05-5.55-2.83-5.55-6.63,0-4.64,3-6.56,5.52-6.56a4.09,4.09,0,0,1,4,2.44V181.3Zm-9.42,12.33c0,2.19.87,3.92,3.16,3.92s3.26-1.73,3.26-3.9c0-2.93-1.58-4-3.28-4S103.9,190.4,103.9,193.24Z"/><path d="M132.86,196.12c-.84,2.64-3,3.77-5.62,3.77-4.24,0-6.07-3.15-6.07-6.61,0-4.21,2.61-6.51,6.14-6.58,3.11-.07,5,1.53,5.5,3.8l-2.84.91a2.54,2.54,0,0,0-2.61-2.12c-1.78,0-3.13,1.31-3.13,4,0,2.09.79,4,3.08,4a2.6,2.6,0,0,0,2.71-2Z"/><path d="M141.15,186.7c3.23,0,6,2.2,6,6.61,0,3.62-2.15,6.58-6.17,6.58-4.36,0-6.16-3-6.16-6.58C134.86,188.9,137.65,186.7,141.15,186.7Zm-3.09,6.61c0,2.05.69,4,3,4,2.1,0,3-1.94,3-4,0-2.86-1.41-4-3-4C139.45,189.29,138.06,190.4,138.06,193.31Z"/><path d="M152.32,186.82l.47,2.3a4.76,4.76,0,0,1,4.41-2.42c3,0,4.49,2,4.49,4.61v8.44h-3.06V192.3c0-2-.74-3-2.41-3-2.35,0-3.26,1.9-3.26,4v6.51H149.9V186.82Z"/><path d="M165.66,187V185.2c0-2.64,1.38-4.29,4.25-4.29a6.9,6.9,0,0,1,2.12.32l-.47,2.19c-.1,0-.5-.07-.89-.07-1.36,0-1.92.56-1.92,2.34V187H176v12.8h-3.06V189.41h-4.16v10.34h-3.09V189.41h-2V187Zm8.81-5.16a1.65,1.65,0,0,1,1.8,1.56,1.62,1.62,0,0,1-1.8,1.6,1.64,1.64,0,0,1-1.83-1.63C172.64,182.48,173.28,181.79,174.47,181.79Z"/><path d="M191.21,180.91v18.84h-2.56l-.35-2.22a4.5,4.5,0,0,1-4.11,2.36c-3.48.05-5.55-2.83-5.55-6.63,0-4.64,3-6.56,5.52-6.56a4.09,4.09,0,0,1,4,2.44V181.3Zm-9.42,12.33c0,2.19.87,3.92,3.16,3.92s3.26-1.73,3.26-3.9c0-2.93-1.58-4-3.28-4S181.79,190.4,181.79,193.24Z"/><path d="M205.69,196.19a5.75,5.75,0,0,1-5.57,3.7c-4.34,0-6.26-2.71-6.26-6.75s2.71-6.54,6.43-6.44c3,.07,5.75,2.34,5.45,6.46l-.05.4H197c0,2.19.94,3.69,3.18,3.69a2.87,2.87,0,0,0,2.79-2ZM202.56,192c.05-2-1-2.94-2.54-2.89a2.88,2.88,0,0,0-2.91,2.89Z"/><path d="M210.85,186.82l.47,2.3a4.76,4.76,0,0,1,4.41-2.42c3,0,4.49,2,4.49,4.61v8.44h-3.06V192.3c0-2-.74-3-2.42-3-2.34,0-3.25,1.9-3.25,4v6.51h-3.06V186.82Z"/><path d="M227.3,183.17V187h3.25l-.42,2.46H227.3v5.92c0,1.41.64,1.95,1.68,1.95a5.43,5.43,0,0,0,1.94-.57l.57,2.34a7.94,7.94,0,0,1-3.28.84c-3,0-4-2-4-4.14v-6.34h-1.8V187h1.95l.37-3.43Z"/><path d="M97.35,227.85a68.34,68.34,0,0,0,2.26,33.88,81.51,81.51,0,0,0,15.44,27A88.38,88.38,0,0,0,127,300.4c1.49,1.2,3.62-.91,2.12-2.12-15.47-12.49-27.31-30.61-29.53-50.65a65,65,0,0,1,.69-19c.35-1.89-2.54-2.69-2.89-.8Z"/><path d="M122.78,285.81c1.69,4.63,2.92,9.41,4.25,14.16l1.45-1.9c-2.49.06-5,.24-7.47.34-2.31.1-4.62.1-6.94.2-1.92.09-1.93,3.09,0,3,2.32-.1,4.63-.1,6.94-.2,2.49-.1,5-.28,7.47-.34a1.52,1.52,0,0,0,1.44-1.9c-1.33-4.75-2.56-9.52-4.24-14.16a1.55,1.55,0,0,0-1.85-1.05,1.52,1.52,0,0,0-1,1.85Z"/><path class="cls-8" d="M95.79,61.4A36.74,36.74,0,0,1,104.16,38a34.44,34.44,0,1,0,.11,46.9A36.78,36.78,0,0,1,95.79,61.4ZM87.2,75.66H70.92L71,73.39l4.46-.58c.58,0,.81-.23.81-1,.08-10.05,0-19.6,0-19.6l-5.62,1.08c-.19-.31-1.12-2.46-.46-2.73l10.35-4,1,1s-.12,20.87,0,24.37c0,.77.19,1,.73,1l5.08.54Z"/><circle cx="130" cy="61.53" r="34.44"/><text class="cls-9" transform="translate(118.45 75.26)">2</text><path d="M184,52.13l8.43,15.27V52.13h3.75v21h-4.59L183.3,58.34V73.13h-3.75v-21Z"/><path d="M213.6,68.81a7,7,0,0,1-6.78,4.5c-5.28,0-7.62-3.3-7.62-8.22s3.3-8,7.83-7.83c3.69.09,7,2.85,6.63,7.86l-.06.48H203c0,2.67,1.14,4.5,3.87,4.5a3.5,3.5,0,0,0,3.39-2.49Zm-3.81-5.13c.06-2.43-1.26-3.57-3.09-3.51a3.5,3.5,0,0,0-3.54,3.51Z"/><path d="M219.69,57.41l3.15,6.18,3.3-6.18h4l-4.35,7.8,4.53,7.92h-4.26L222.78,67l-3.45,6.12h-4.14L220,65.27l-4.29-7.86Z"/><path d="M238.11,53v4.59h4l-.51,3h-3.45v7.2c0,1.71.78,2.37,2,2.37a6.83,6.83,0,0,0,2.37-.69l.69,2.85a9.82,9.82,0,0,1-4,1c-3.69,0-4.83-2.46-4.83-5V60.56H232.2v-3h2.37l.45-4.17Z"/><path d="M256.74,57.41V73.13H253V60.5H250.8V57.41Zm-1.89-6.12a2,2,0,0,1,2.22,1.89,2.22,2.22,0,0,1-4.41,0A1.93,1.93,0,0,1,254.85,51.29Z"/><path d="M261,68.63a8.15,8.15,0,0,0,5.1,1.74c1.8,0,2.85-.54,2.85-1.83,0-3.06-9.09-1-8.79-6.78.12-2.82,2.19-4.5,6.36-4.5a12.78,12.78,0,0,1,5.67,1.47l-1.32,2.64a8.9,8.9,0,0,0-4.5-1.29c-1.47,0-2.7.48-2.64,1.71.18,2.49,8.91.57,8.91,6.63,0,3.24-2.91,4.92-6.63,4.89a10.76,10.76,0,0,1-6.45-2Z"/><path d="M286.77,53v4.59h4l-.51,3h-3.45v7.2c0,1.71.78,2.37,2,2.37a6.83,6.83,0,0,0,2.37-.69l.69,2.85a9.82,9.82,0,0,1-4,1c-3.69,0-4.83-2.46-4.83-5V60.56h-2.19v-3h2.37l.45-4.17Z"/><path d="M294.09,58.4A18.74,18.74,0,0,1,300,57.26c4.74,0,6.48,2.34,6.48,6v6.36a.79.79,0,0,0,.75.9,3,3,0,0,0,1.23-.18v2.49a6.08,6.08,0,0,1-2.49.48,2.84,2.84,0,0,1-2.85-2.13,6.87,6.87,0,0,1-4.74,2.13c-3.06,0-5.34-1.56-5.37-4.83s2.46-5,6.39-5a24.49,24.49,0,0,1,3.39.3v-.93c0-1.71-1.08-2.64-3.24-2.61a12.68,12.68,0,0,0-4.86,1Zm8.7,7.35a16.62,16.62,0,0,0-3.06-.18c-1.8.09-2.94.93-3,2.52a2.21,2.21,0,0,0,2.55,2.31,6.17,6.17,0,0,0,3.48-1.26Z"/><path d="M314.79,50.21V64h1.74l3.66-6.45h4.2l-4.71,7.77,5.13,7.86h-4.29l-4-6.09h-1.77v6.09h-3.72V50.66Z"/><path d="M340.59,68.81a7,7,0,0,1-6.78,4.5c-5.28,0-7.62-3.3-7.62-8.22s3.3-8,7.83-7.83c3.69.09,7,2.85,6.63,7.86l-.06.48H330c0,2.67,1.14,4.5,3.87,4.5a3.5,3.5,0,0,0,3.39-2.49Zm-3.81-5.13c.06-2.43-1.26-3.57-3.09-3.51a3.5,3.5,0,0,0-3.54,3.51Z"/><path d="M349.68,63.56v3h-7.44v-3Z"/><path d="M359,57.26c3.93,0,7.35,2.67,7.35,8,0,4.41-2.61,8-7.5,8-5.31,0-7.5-3.6-7.5-8C351.33,59.93,354.72,57.26,359,57.26Zm-3.75,8c0,2.49.84,4.86,3.66,4.86,2.55,0,3.69-2.37,3.69-4.86,0-3.48-1.71-4.89-3.6-4.89C356.91,60.41,355.23,61.76,355.23,65.3Z"/><path d="M370.56,57.56V55.43c0-3.21,1.68-5.22,5.19-5.22a8.28,8.28,0,0,1,3,.54l-.48,2.61a7.71,7.71,0,0,0-1.59-.18c-1.65,0-2.34.69-2.34,2.85v1.53h3.42l-.48,3h-2.94V73.13h-3.75V60.56H368.1v-3Z"/><path d="M381.12,57.56V55.43c0-3.21,1.68-5.22,5.19-5.22a8.28,8.28,0,0,1,3,.54l-.48,2.61a7.71,7.71,0,0,0-1.59-.18c-1.65,0-2.34.69-2.34,2.85v1.53h3.42l-.48,3h-2.94V73.13h-3.75V60.56h-2.46v-3Z"/></svg>