<svg id="Layer_1" data-name="Layer 1" xmlns="http://www.w3.org/2000/svg" viewBox="0 0 780 1051.14"><defs><style>.cls-1{fill:#c6946f;stroke-width:0.23px;}.cls-1,.cls-2,.cls-4,.cls-5,.cls-6,.cls-7{stroke:#fff;stroke-miterlimit:10;}.cls-2,.cls-3,.cls-6,.cls-7{fill:#d4a47c;}.cls-2{stroke-width:0.28px;}.cls-4{fill:#005058;stroke-width:0.54px;}.cls-5{fill:#fff171;stroke-width:0.3px;}.cls-6{stroke-width:0.41px;}.cls-7{stroke-width:0.31px;}.cls-8{font-size:24.66px;}.cls-18,.cls-8{font-family:ABCSansBold, ABCSans;}.cls-9{letter-spacing:-0.01em;}.cls-10{letter-spacing:-0.03em;}.cls-11{letter-spacing:0.01em;}.cls-12{letter-spacing:-0.02em;}.cls-13{letter-spacing:-0.01em;}.cls-14{letter-spacing:-0.02em;}.cls-15{letter-spacing:-0.02em;}.cls-16,.cls-17{fill:#fff;}.cls-16{opacity:0.7;}.cls-17{font-size:38.5px;font-family:ABCSerifBold, ABCSerif;}.cls-18{font-size:30px;}.cls-19{letter-spacing:-0.01em;}.cls-20{letter-spacing:-0.02em;}.cls-21{letter-spacing:-0.01em;}.cls-22{letter-spacing:0em;}</style></defs><path class="cls-1" d="M365,605.22h.17l31-3.17c9.31-.95,19-1.65,27.91-4,15-3.86,30.55-3.94,46.31-3.85l-.15.15a.72.72,0,0,1,.34-.15h1.53c3.52.37,10.74,2.39,12.18,2.6,8,1.21,16.65,2.45,24.85.69,9-1.95,17.31-6.49,26.45-8.1,5.91-1.05,9.95-6.27,16-7.3,2.59-.45,6.44-1.67,8.44-3.4,2.71-2.34,3.36-7-1.55-5.41a13.88,13.88,0,0,1-3.78,1.07c-3.41.06-5.58-3.88-8.89-4.76a10.75,10.75,0,0,0-4.19,0c-4.68.65-9.42,1.75-14.08,2.27-2.55.29-4.72-.5-7.19-.58-4.55-.15-8.65-3.23-12.58-5.42-.59-.33-1.21-.62-1.83-.89-5.09-2.22-6.73-3.25-9.47-2.16a8.46,8.46,0,0,0-4.7,5,23,23,0,0,1-1.57,3.5c-.25.42-.49.86-.74,1.29-8.49-.27-27.84-3.41-34.11-4.56-13.56-2.51-26.87-5.52-40.18-8.93l-.08,0c-.91-.18-13.72,2.22-14.63,2.05,9.45-4.77,20.06-5.56,28.78-11.87,12.29-8.9,24.27-18.17,36.28-27.43,11.38-9,24.71-17.66,32.22-30.37,7.18-12.12,10-26.3,7.76-38.95-1.41-8-4.89-15.49-10.73-20.62-8.09-7.1-32-16.62-43.62-15.22-26,3.13-25,26.22-39.31,36.53-21.26,15.26-18.46,13.88-35.72,33.94-8.9,10.35-20.21,28-30.15,39.54-7.63,8.84-19.23,23.32-22.52,34.6-5.75,12.68,4.92,36.72,18.08,40.89,6.07,1.93,12.55,1.28,18.76,2.55l1.76.36a1.15,1.15,0,0,0,.26,0Z"/><path class="cls-2" d="M263.83,472.81c-1.23-.32,6.35-7.62,5.77-9s1.16-2,2.07-2.72c.75-.58,1.13-1.44,1.84-2.09a7.91,7.91,0,0,0,1.54-1.36,6.48,6.48,0,0,0,1-4.64c-.48-1.78-2.36-2.69-3-4.32a5.86,5.86,0,0,1-.25-2.25,2.84,2.84,0,0,1-1.72.27c-4-.61-6.86-3.62-10.35-5.44a19.28,19.28,0,0,0-1.79,3.11,30.49,30.49,0,0,1-2.95,4.82c-1,1.37-1.49,2.84-3.08,3.39-1.22.42-2.56.08-3.77.5a21.29,21.29,0,0,1-2.41,1,33.32,33.32,0,0,1-4.11.45c-3,.32-6.12.94-9.16,1.4a25.48,25.48,0,0,0-9.32,3.14,20.51,20.51,0,0,0-6.92,7.18,45.51,45.51,0,0,0-3.55,6.91,77.46,77.46,0,0,0-3.07,10.91c-.86,4.17-.32,9.14.58,13.25.67,3.05.85,6.06,1.87,9.08a26.52,26.52,0,0,0,4.94,8.09c1.74,2.11,2.58,4.45,3.68,6.85.56,1.21,1.6,2.1,2.22,3.34a31,31,0,0,0,2.41,4.29c1.89,2.56,4.55,3.08,7.42,3.78,1.92.48,3.83.27,5.75.78a15.14,15.14,0,0,0,2.85.38c1.07.07,2,.42,3.11.49.52,0,1-.16,1.5-.15s.84.36,1.4.27a20.06,20.06,0,0,0,3-1.31A28.72,28.72,0,0,1,255,532a2.79,2.79,0,0,0,.4-.1c0,.06.14.16.47.32a12.37,12.37,0,0,1,2.44,1.66c2,1.49,1.94,2,4.43,3.45a28.75,28.75,0,0,0,4.88,2.35,3.58,3.58,0,0,0,4.79-2.79,1.91,1.91,0,0,1,.61-1.16,5,5,0,0,1,3.18-1.78,12.46,12.46,0,0,0,8.7-1.66c1.42-.73,1.89-1.63,3.44-1.31,1.11.22,2.24.51,3.34.79,2.09.51,4.15.38,5.36-1.63a15.76,15.76,0,0,0,1.44-10.5c-8.06-28.27,3.48-20.16,3.92-30.47.3-7.05-.11-18.17,4.63-23.46"/><path d="M246.5,522.78c.14-.34.31-.68.48-1,.1-.19.31-.59.55-.65s.1,0,.13.07-.06.24-.07.31a2.06,2.06,0,0,0,0,.35c0,.46.07.92.08,1.38a6.87,6.87,0,0,1,0,.79c-.09,1.65-.72,3.33-.62,5a7.42,7.42,0,0,0,2.05,4.14c-.49.23-2.06,1-2.49.6-.61-.59-.71-2.82-1.06-3.63a6.73,6.73,0,0,1-.21-4.72C245.65,524.47,246.16,523.66,246.5,522.78Z"/><path d="M254.81,441.48c-1.53,2.11-2.81,4.65-4.58,6.55-5.63,6-15.44,4.78-23.12,7.83-6.32,2.51-11.1,8-13.91,14.22s-3.86,13-4.41,19.81c-.52,6.28-.63,12.7,1.06,18.77,1.15,4.08,6.25,15.45,11.83,14.69s8.86-10.57,14.78-12.3c3-.88,6.38-.35,9.18-1.75a25.51,25.51,0,0,0,3.8-2.78c2.27-1.71,5-2.82,7.13-4.69s3.73-4.89,2.68-7.54a11.64,11.64,0,0,1-6-1c-1.79-1-1.08-2.08-.48-4,.84-2.68,2.41-4.28,5.15-3.67s5.52,1.9,8.22,1.14c2.91-.82,4.64-3.73,6.08-6.39,2.46-4.58,3.51-13.86,6-18.43-2.17-2.25-1.15-1.94-3.18-4.3-1.54-1.79-4.66,1.46-4.1-.83a19.31,19.31,0,0,0-1.43-13c-1.85-3.75-5.8-7.11-9.85-6.1A8.83,8.83,0,0,0,254.81,441.48Z"/><path d="M222.46,523.86,222,523l-.2.1A3,3,0,0,0,222.46,523.86Z"/><path d="M255.68,454.79a7.57,7.57,0,0,0-2.56-2.47,12.49,12.49,0,0,1-2.79-3.08,6.4,6.4,0,0,1-1.3-4.52A7,7,0,0,1,250.9,441a6.74,6.74,0,0,1,3.13-2.12c1.34-.19,3.35.75,4.67,1a7,7,0,0,1,3.78,2.91,6.23,6.23,0,0,1,1.58,4.62,20.6,20.6,0,0,1-5.12,9.82c-1.2,1.38-3.69,1.7-5.46,1.65s-4.66-.65-6.07-1.8c-2.7-2.21-1.72-6.43-.39-9.08.8-1.59,1.76-3.11,3.65-3.49a10.35,10.35,0,0,1,4.58.42,18.92,18.92,0,0,1,5,1.57,6.83,6.83,0,0,1,2.31,1.5,21.81,21.81,0,0,0,2,2.33,8.64,8.64,0,0,1,2,2.83,3.44,3.44,0,0,1,.15,2.65,10.79,10.79,0,0,1-1.16,2.94c-.33.59-.86,1-1.23,1.59-.65,1-.7.95-2,.72"/><path d="M251.94,451.11c-1.48.29-2.57-.5-3.64-1.38a6.71,6.71,0,0,0-1.16-.86A1.94,1.94,0,0,1,246,447.2c-.31-1.89.77-3.91,1.53-5.54a6.61,6.61,0,0,1,1.18-2c.5-.51,1.18-.81,1.66-1.31.29-.29.41-.66.78-.9s.83-.29,1.22-.55a2.56,2.56,0,0,1,1-.62,9.27,9.27,0,0,1,1.29-.15,5.22,5.22,0,0,1,2.36.08,13.68,13.68,0,0,1,2.21,1.08,5.72,5.72,0,0,1,.85.71c.35.3.79.45,1.13.75a6.56,6.56,0,0,1,1.62,3.29c.67,2.23-.11,4.84-.72,7a12.11,12.11,0,0,1-2.52,4.62c-.69.73-1.43,1.33-2.18,2a10.5,10.5,0,0,1-2.14,1.68,8.83,8.83,0,0,1-2.88.88,19.21,19.21,0,0,1-3.21.34,6.47,6.47,0,0,1-3-1,8.4,8.4,0,0,0-1.34-1,5.82,5.82,0,0,1-1.55-.79,6.91,6.91,0,0,1-2.83-5.2,22.62,22.62,0,0,1,.2-4.51c.2-.95.46-1.88.67-2.83a6.2,6.2,0,0,1,1.42-2.72,4.5,4.5,0,0,1,1.35-1.22,5.46,5.46,0,0,1,1.54-.82c1.67-.26,3.09.59,4.69.63a4.87,4.87,0,0,1,.94,0c.49.08,1,.24,1.47.35a11.12,11.12,0,0,1,2.35.68,7.28,7.28,0,0,1,2.25,1.6,3.77,3.77,0,0,1,1,2.94,10.4,10.4,0,0,1-.36,3.84,13.58,13.58,0,0,1-2.63,4.42,10.36,10.36,0,0,1-4.09,3.22,11,11,0,0,1-2.59.88,11.91,11.91,0,0,1-2.45-.19c-1.74-.22-3.08-1.62-4.33-2.7-.24-.21-.93-.62-1-1s.14-.7.19-.95"/><path d="M268.31,461.36c-1.48.29-2.57-.5-3.64-1.38a5.88,5.88,0,0,0-1.16-.85,2,2,0,0,1-1.13-1.68c-.31-1.89.77-3.9,1.53-5.54a6.61,6.61,0,0,1,1.18-2c.5-.51,1.18-.81,1.66-1.31.29-.29.41-.66.78-.89s.84-.29,1.22-.56a2.56,2.56,0,0,1,1-.62,9.27,9.27,0,0,1,1.29-.15,5.22,5.22,0,0,1,2.36.08,15.57,15.57,0,0,1,2.21,1.08,6.4,6.4,0,0,1,.85.71c.35.3.79.46,1.13.75a6.56,6.56,0,0,1,1.62,3.29c.67,2.23-.11,4.84-.72,7A12.11,12.11,0,0,1,276,464a29.2,29.2,0,0,1-2.18,2,10.17,10.17,0,0,1-2.14,1.68,9.1,9.1,0,0,1-2.88.89,19.2,19.2,0,0,1-3.21.33,6.47,6.47,0,0,1-3-1,8.4,8.4,0,0,0-1.34-1,5.82,5.82,0,0,1-1.55-.79,6.91,6.91,0,0,1-2.83-5.2,22.69,22.69,0,0,1,.2-4.51c.2-.95.46-1.88.67-2.82a6.29,6.29,0,0,1,1.42-2.73,4.34,4.34,0,0,1,1.35-1.21,5.25,5.25,0,0,1,1.54-.83c1.67-.26,3.09.6,4.69.63a5.83,5.83,0,0,1,.94,0c.49.08,1,.24,1.47.36a10.54,10.54,0,0,1,2.35.67,7.15,7.15,0,0,1,2.25,1.61,3.76,3.76,0,0,1,1,2.93,10.48,10.48,0,0,1-.36,3.85,13.64,13.64,0,0,1-2.63,4.41,10.48,10.48,0,0,1-4.09,3.23,11,11,0,0,1-2.59.87,11.91,11.91,0,0,1-2.45-.19c-1.74-.21-3.08-1.61-4.33-2.7-.24-.21-.93-.62-1-.94s.13-.71.18-1"/><path class="cls-2" d="M260.23,497.4c-4.37,3.38-10-3.46-9.12-7.55a6.86,6.86,0,0,1,7.7-5.15c3.48.67,5.94,4,9.38,4.87,1.81.46,3.9.27,5.35,1.45s.57,4.42-1.16,3.7"/><path class="cls-3" d="M272.33,485.63c2.88,2.29,18.56,2.44,22,3.49,3.05.92,6.41.62,9.56.75,2.32.09,4.48-.66,6.79-.66,1.34,0,2.57-.37,3.93-.32a9.79,9.79,0,0,0,3.07-.44c1.89-.5,3.79-.9,5.69-1.38,1.16-.29,2.28-.8,3.45-1,3.4-.61,6.5-2.08,9.82-3.11,2.94-.92,5.88-1.91,8.85-2.59,2.31-.53,4.17-1.73,6.26-2.71a9.24,9.24,0,0,0,3.69-2.29,17.24,17.24,0,0,1,2.74-1.75,30.16,30.16,0,0,0,2.69-2.5c2.27-2.14,4.64-4.19,6.94-6.3,3.42-3.14,7.55-5.48,11.23-8.28,3.24-2.46,6.45-5,9.83-7.25,4.78-3.21,9.08-7,13.74-10.35,7.3-5.31,13.42-11.85,19.36-18.6a58.22,58.22,0,0,0,5-5.85c1.34-2,18-.75,18.91-3,3.65-9.14-20.62-10.14-25.23-10.45-1.9-.13-3.8-.31-5.69-.52-14.91-1.64-29.69-5.31-44.73-5a129.17,129.17,0,0,0-39.57,7.44A105.58,105.58,0,0,0,313.27,411c-4.6,2.64-11.9,6.05-15.2,10.27-2.57,3.26-5,6.63-7.51,9.89a68.28,68.28,0,0,0-6.93,10.25c-1.48,2.91-3.18,5.61-4,8.8-.67,2.63-1,5.44-1.93,8-.65,1.79.82-4.1.64-2.12"/><path class="cls-4" d="M386.41,487.75a34,34,0,0,1,17.73-.05,24.23,24.23,0,0,1,4.14,1.63c.9.46.88.6,1.67.07a9.31,9.31,0,0,0,1.51-1.5c.54-.6-16.28-10.37-15.89-11.06,9.08-15.95,24.11-26.93,40.07-35.32,7.86-4.14,16.69-9.17,25.27-11.61,8.19-2.33,15.39.74,23.51,3a50.07,50.07,0,0,1,16,7.37c.31.22.59.47.88.71-1-2.2-1.81-4.46-2.86-6.63a33.52,33.52,0,0,0-4.79-7c-3.65-4.37-6.19-5.22-10.57-8.84a66.71,66.71,0,0,0-17.68-9.92,84.6,84.6,0,0,0-20-4.72c-1.34-.16-8.76-1.38-10.08-1.15-1.65.29-4.42,2.22-5.89,3C408,417,382.81,419,359.69,426.5a5.27,5.27,0,0,0-2.78,1.59,5,5,0,0,0-.68,2.84,161.81,161.81,0,0,1-8.54,45.91,7.76,7.76,0,0,1-1.87,3.39,3,3,0,0,1-3.68.37q4.23,2.64,8.3,5.49"/><path d="M277.39,452.86c-.21-1.77.22-3.46,0-5.24a16.64,16.64,0,0,0-1.94-4.79,5.87,5.87,0,0,0-3.8-3.09c-1.77-.57-3.56-1.09-5.27-.28-3.67,1.74-6.08,4.26-6.89,8.43-.26,1.38-1.35,11.32,2,9.78"/><path class="cls-5" d="M356.65,429.76a3.39,3.39,0,0,1,.11-.43,4.59,4.59,0,0,1,.38-.77,1.51,1.51,0,0,1,.18-.26,5.64,5.64,0,0,1,.53-.56,1.65,1.65,0,0,1,.42-.33,1.63,1.63,0,0,1,.63-.28l.6-.19.3-.05c-5.87-4.95-14.23-8.78-24.85-11.23a124.46,124.46,0,0,0-22.66-2.91s-2.77-.24-2.19-.17c-3,1.79-3.88,2.11-6.34,3.86,1,.05,3.8.33,4.73.39,1.31.08,2.52.16,3.56.2a119.76,119.76,0,0,1,21.83,2.8c7.38,1.7,16.31,4.75,22.75,10A.36.36,0,0,1,356.65,429.76Z"/><path class="cls-6" d="M290.87,470.34A19.21,19.21,0,0,0,291,485.7a19.69,19.69,0,0,0,5.93,7.27,46,46,0,0,0,22.68,9.5c7.65.82,14.38,1.13,21.5-1.93a58.56,58.56,0,0,1,15.29-4.42,63.57,63.57,0,0,1,15.67,0,63.82,63.82,0,0,0,13.88.17c-2.14,28.92,5.2,52.29,4.52,78.35-2.84,3.63-6.18,6.84-9.23,10.29a87,87,0,0,0-5.78,6.66c-1.81,2.51-2.14,4.66-3,7.48-.69,2.41.32,4.2-.95,6.36a3.63,3.63,0,0,0-.31.74c-.09.29-.25.56-.33.85a3.78,3.78,0,0,0-.15,1.72,1.65,1.65,0,0,0,.11.5c.12.19.33.38.47.56a7,7,0,0,1,.9,1.21,6.73,6.73,0,0,1,.3,1.43,22.22,22.22,0,0,1,.35,2.72,10.63,10.63,0,0,0,.22,2.77c.2.55.8.42,1.35.32a2.64,2.64,0,0,0,.82-.34l.91-.52c.31-.41.63-.8.95-1.19a.8.8,0,0,1,.17-.15,11.07,11.07,0,0,0,.57-2c.15-.78.29-1.55.4-2.32,0-.06.4-6.94.41-7,0,.33-.41,7.49-.44,7.83a10.83,10.83,0,0,1-.34,2c-.14.47-.37.94-.52,1.42a.69.69,0,0,1,.72,0,3.92,3.92,0,0,0,3.61.34c1.15-.42,2.24-1,3.43-1.29a.73.73,0,0,1,.75.39,2.7,2.7,0,0,0,3,1.76,7.49,7.49,0,0,0,3.28-1.7.84.84,0,0,1,.27-.13l1.8-5.06c0,.08,1.86-5.89,1-2.5l-2.61,7.54a.6.6,0,0,1,.64.38,1.79,1.79,0,0,0,1.72,1.18c1.66-.1,1.47-.78,2.21-1.12a2.65,2.65,0,0,1,2.56-.1,1.73,1.73,0,0,0,1.84.19,6.84,6.84,0,0,0,1.15-.78c.29-.81.48-1.63.81-2.43.72-1.74.88-3.6,1.43-5.37.61-1.95,1.35-3.86,2-5.81.24-.75.47-1.51.66-2.27,1.1-4.53.52-9.38.37-14a14.07,14.07,0,0,1-.15-1.47,18.3,18.3,0,0,0-.25-2.69c3.59-11.47,7.15-23,9.27-34.55,3.06-16.79,3.23-34.33-.52-51.11-.16-.7-.33-1.39-.53-2.07-1.06-3.73-2.61-7.17-3.93-10.86-.88-2.5-2.43-4.77-2.52-7.07a11.81,11.81,0,0,0-2-6.3c-3.62-5.26-10.73-6.54-17.09-7.22-12.84-1.37-39.1-10-52-9.17"/><path class="cls-7" d="M375.21,607.39a3.14,3.14,0,0,0-1.32-.33c-.32,0-.66.05-1,.09a7.36,7.36,0,0,1-.81,0c-.45,0-.81-.19-1.22.23"/><path class="cls-7" d="M374.41,609.16a6.62,6.62,0,0,1-1.63.68l-.54.19a5.72,5.72,0,0,0-.72.14"/><path class="cls-7" d="M373,613.46c-.05-1.39,1-.37,1.37,0,.78,1,2.44,2.92.82,4.36"/><path class="cls-7" d="M397.54,615.82a33.73,33.73,0,0,0,1.48-5.41c.07-.31.19-.62.23-.94s.65-2.89.73-3.24c.13-.55-2,9.42-1.81,8.91"/><path class="cls-7" d="M384.69,615.5c.26-.65.63-2.16.82-2.83.12-.38,2.33-7.09,2.45-7.46s-3,10.24-2.8,9.85"/><path class="cls-5" d="M294.52,425.83l-2.69,3.36c-.81,1-1.49,2.1-2.26,3.14a97.62,97.62,0,0,0-1.82,43.27,24.32,24.32,0,0,0,2.92,8.55,13.93,13.93,0,0,1-1.13-5.52,14.13,14.13,0,0,1,.06-3.61,16.39,16.39,0,0,1,1.5-5.21c-.37-2.78-.67-5.58-.8-8.37a95.82,95.82,0,0,1,4.62-32.92c.59-1.89,1.34-4,2-5.83C296.42,423.31,295.2,425,294.52,425.83Z"/><text class="cls-8" transform="translate(542.32 205.54)"><tspan class="cls-9">H</tspan><tspan x="16.25" y="0">ead must s</tspan><tspan class="cls-9" x="142.16" y="0">t</tspan><tspan class="cls-10" x="151.96" y="0">a</tspan><tspan x="165.35" y="0">y</tspan><tspan x="2.21" y="33.91">a </tspan><tspan class="cls-11" x="21.52" y="33.91">s</tspan><tspan x="34.07" y="33.91">a</tspan><tspan class="cls-12" x="48.23" y="33.91">f</tspan><tspan x="56.3" y="33.91">e dis</tspan><tspan class="cls-9" x="110.33" y="33.91">t</tspan><tspan x="120.13" y="33.91">ance </tspan><tspan x="2.6" y="67.83">f</tspan><tspan class="cls-13" x="11.28" y="67.83">r</tspan><tspan x="21.4" y="67.83">om the boa</tspan><tspan class="cls-14" x="151.4" y="67.83">r</tspan><tspan x="161.36" y="67.83">d</tspan></text><path d="M699.81,618.27c3.6,3.38,6.85,7.09,10.18,10.73l.3-2.36c-2.2,1.18-4.33,2.47-6.51,3.68-2,1.13-4.09,2.17-6.1,3.3a1.5,1.5,0,0,0,1.51,2.59c2-1.13,4.08-2.17,6.1-3.3,2.18-1.21,4.32-2.5,6.51-3.68a1.51,1.51,0,0,0,.31-2.35c-3.33-3.64-6.58-7.35-10.17-10.73-1.41-1.32-3.54.8-2.13,2.12Z"/><path d="M633.29,615.27c-3.6,3.38-6.85,7.09-10.18,10.72a1.52,1.52,0,0,0,.31,2.36c2.19,1.18,4.33,2.46,6.51,3.68,2,1.12,4.08,2.16,6.1,3.3a1.5,1.5,0,0,0,1.51-2.59c-2-1.14-4.08-2.18-6.1-3.3-2.17-1.22-4.31-2.5-6.51-3.68l.31,2.35c3.32-3.63,6.57-7.34,10.17-10.72,1.41-1.32-.72-3.44-2.12-2.12Z"/><path d="M709.47,625.73c-2.45-.18-4.89-.52-7.34-.74-2.65-.24-5.3-.24-8-.24-5.37,0-10.74,0-16.11,0H628a1.5,1.5,0,0,0,0,3c21.39,0,42.79.05,64.18,0,2.93,0,5.88-.07,8.81.15s5.64.62,8.48.83c1.92.14,1.91-2.86,0-3Z"/><path d="M97.35,227.85a68.34,68.34,0,0,0,2.26,33.88,81.51,81.51,0,0,0,15.44,27A88.38,88.38,0,0,0,127,300.4c1.49,1.2,3.62-.91,2.12-2.12-15.47-12.49-27.31-30.61-29.53-50.65a65,65,0,0,1,.69-19c.35-1.89-2.54-2.69-2.89-.8Z"/><path d="M122.78,285.81c1.69,4.63,2.92,9.41,4.25,14.16l1.45-1.9c-2.49.06-5,.24-7.47.34-2.31.1-4.62.1-6.94.2-1.92.09-1.93,3.09,0,3,2.32-.1,4.63-.1,6.94-.2,2.49-.1,5-.28,7.47-.34a1.52,1.52,0,0,0,1.44-1.9c-1.33-4.75-2.56-9.52-4.24-14.16a1.55,1.55,0,0,0-1.85-1.05,1.52,1.52,0,0,0-1,1.85Z"/><text class="cls-8" transform="translate(70.61 165.83)">It must be bo<tspan class="cls-15" x="150.8" y="0">l</tspan><tspan x="158.22" y="0">d, high </tspan><tspan x="0" y="33.91">and confident</tspan></text><path d="M97.35,227.85a68.34,68.34,0,0,0,2.26,33.88,81.51,81.51,0,0,0,15.44,27A88.38,88.38,0,0,0,127,300.4c1.49,1.2,3.62-.91,2.12-2.12-15.47-12.49-27.31-30.61-29.53-50.65a65,65,0,0,1,.69-19c.35-1.89-2.54-2.69-2.89-.8Z"/><path d="M122.78,285.81c1.69,4.63,2.92,9.41,4.25,14.16l1.45-1.9c-2.49.06-5,.24-7.47.34-2.31.1-4.62.1-6.94.2-1.92.09-1.93,3.09,0,3,2.32-.1,4.63-.1,6.94-.2,2.49-.1,5-.28,7.47-.34a1.52,1.52,0,0,0,1.44-1.9c-1.33-4.75-2.56-9.52-4.24-14.16a1.55,1.55,0,0,0-1.85-1.05,1.52,1.52,0,0,0-1,1.85Z"/><path class="cls-16" d="M95.79,61.4A36.74,36.74,0,0,1,104.16,38a34.44,34.44,0,1,0,.11,46.9A36.78,36.78,0,0,1,95.79,61.4ZM87.2,75.66H70.92L71,73.39l4.46-.58c.58,0,.81-.23.81-1,.08-10.05,0-19.6,0-19.6l-5.62,1.08c-.19-.31-1.12-2.46-.46-2.73l10.35-4,1,1s-.12,20.87,0,24.37c0,.77.19,1,.73,1l5.08.54Z"/><circle cx="130" cy="61.53" r="34.44"/><text class="cls-17" transform="translate(118.45 75.26)">2</text><text class="cls-18" transform="translate(177.42 73.13)"><tspan class="cls-19">N</tspan><tspan class="cls-20" x="20.46" y="0">e</tspan><tspan x="36.84" y="0">xt is </tspan><tspan class="cls-19" x="102.6" y="0">t</tspan><tspan x="114.51" y="0">a</tspan><tspan class="cls-21" x="131.73" y="0">k</tspan><tspan class="cls-22" x="147.45" y="0">e-off</tspan></text></svg>