<svg id="Layer_1" data-name="Layer 1" xmlns="http://www.w3.org/2000/svg" viewBox="0 0 780 1051.14"><defs><style>.cls-1{fill:#c6946f;stroke-width:0.23px;}.cls-1,.cls-2,.cls-4,.cls-5,.cls-6,.cls-7{stroke:#fff;stroke-miterlimit:10;}.cls-2,.cls-3,.cls-6,.cls-7{fill:#d4a47c;}.cls-2{stroke-width:0.28px;}.cls-4{fill:#005058;stroke-width:0.54px;}.cls-5{fill:#fff171;stroke-width:0.3px;}.cls-6{stroke-width:0.41px;}.cls-7{stroke-width:0.31px;}.cls-8,.cls-9{fill:#fff;}.cls-8{opacity:0.7;}.cls-9{font-size:38.5px;font-family:ABCSerifBold, ABCSerif;}</style></defs><path class="cls-1" d="M306.37,562.2a.42.42,0,0,0,.14.09L333.94,577c8.25,4.42,16.67,9.25,25.35,12.33,14.56,5.16,27.53,13.82,40.54,22.71l-.21,0a.68.68,0,0,1,.37.07l1.13.77.13.1c2.71,2.28,7.56,8,8.64,9,5.95,5.47,12.43,11.34,20.21,14.47,8.58,3.44,18,4.31,26.45,8.08,5.49,2.44,11.77.37,17.32,2.88,2.4,1.08,6.27,2.22,8.89,1.9,3.56-.42,6.68-3.88,1.75-5.34a14.21,14.21,0,0,1-3.73-1.23c-2.87-1.86-2.46-6.34-4.71-8.92a10.64,10.64,0,0,0-3.48-2.33c-4.25-2.08-8.79-3.82-12.95-6-2.27-1.19-3.63-3.05-5.63-4.5-3.69-2.67-5.36-7.51-7.39-11.53-.31-.61-.66-1.18-1-1.76-3-4.69-3.76-6.46-6.64-7.09a8.52,8.52,0,0,0-6.69,1.5,23.12,23.12,0,0,1-3.25,2l-1.34.65c-6.89-5-21.17-18.4-25.72-22.86-9.84-9.67-19.19-19.61-28.31-29.88l-.06-.06c-.65-.66-12.61-5.83-13.27-6.49,10.5,1.33,19.74,6.62,30.49,6.26,15.17-.5,30.28-1.48,45.42-2.44,14.48-1.11,30.36-.82,43.69-7.15,12.74-6,23-16.2,28.23-27.94,3.3-7.42,4.61-15.57,2.64-23.1-2.73-10.41-17.24-31.68-27.65-37-23.26-11.93-35.34,7.77-53,8.28-26.16.76-23.07,1.19-48.59,8.16-13.17,3.59-32.44,11.93-47.12,15.91-11.27,3.06-29,8.57-38,16.08-11.85,7.29-16.47,33.19-7.89,44,4,5,9.69,8.08,14.13,12.6l1.26,1.29a.78.78,0,0,0,.2.16Z"/><path class="cls-2" d="M296.55,395.83c-.84-.95,9.52-2.77,9.81-4.22s2.08-1,3.24-1.09c.95-.07,1.74-.57,2.69-.71a7.94,7.94,0,0,0,2-.27,6.51,6.51,0,0,0,3.42-3.29c.59-1.75-.46-3.54-.1-5.28a5.72,5.72,0,0,1,1.05-2,2.71,2.71,0,0,1-1.58-.74c-3-2.76-3.67-6.83-5.54-10.29a20.58,20.58,0,0,0-3.23,1.57,29.3,29.3,0,0,1-5.13,2.34c-1.6.58-2.83,1.53-4.45,1.09-1.25-.33-2.17-1.36-3.41-1.69a22.39,22.39,0,0,1-2.57-.49,32.71,32.71,0,0,1-3.66-1.93c-2.7-1.44-5.6-2.65-8.37-4a25.41,25.41,0,0,0-9.49-2.61,20.42,20.42,0,0,0-9.75,2.08,45.11,45.11,0,0,0-6.81,3.74,76.27,76.27,0,0,0-8.65,7.32c-3,3-5.38,7.4-6.93,11.31-1.15,2.9-2.69,5.5-3.53,8.57a26.45,26.45,0,0,0-.43,9.47c.26,2.72-.35,5.14-.78,7.74-.22,1.31.15,2.64,0,4a30,30,0,0,0-.4,4.91c.14,3.17,2,5.09,4,7.28,1.33,1.46,3,2.37,4.34,3.86a15,15,0,0,0,2.14,1.91c.86.65,1.45,1.48,2.31,2.14.41.32.88.41,1.32.72s.5.77,1,1a21.13,21.13,0,0,0,3.26.62,27.69,27.69,0,0,1,3.73,1,2.82,2.82,0,0,0,.39.14c0,.07,0,.22.21.53a12.53,12.53,0,0,1,1.09,2.74c.86,2.38.51,2.72,1.75,5.34a28.89,28.89,0,0,0,2.73,4.68,3.57,3.57,0,0,0,5.52.37,2,2,0,0,1,1.17-.63,5,5,0,0,1,3.62.31,20.43,20.43,0,0,0,2.54,1.89,19.17,19.17,0,0,0,5.6,1.6c1.59.19,2.48-.3,3.59.83.8.82,1.57,1.68,2.33,2.53,1.44,1.59,3.22,2.64,5.34,1.65a15.7,15.7,0,0,0,7.07-7.9c9.14-27.94,14.17-14.76,20.3-23.06,4.19-5.68,10.07-15.12,17-16.86"/><path d="M254.23,427.56c.31-.21.64-.39,1-.58s.6-.32.83-.23.1,0,.06.13-.17.16-.23.22a2.83,2.83,0,0,0-.2.28c-.26.38-.46.79-.71,1.18-.14.23-.26.46-.42.68-1,1.31-2.46,2.35-3.29,3.77a7.39,7.39,0,0,0-.62,4.57c-.53-.08-2.28-.3-2.4-.88-.18-.84,1-2.75,1.15-3.61a6.77,6.77,0,0,1,2.47-4C252.58,428.49,253.45,428.1,254.23,427.56Z"/><path d="M306.6,364.82c-2.45.88-4.93,2.28-7.46,2.86-8.05,1.86-15.47-4.67-23.55-6.44-6.64-1.46-13.69.45-19.49,4s-10.48,8.64-14.73,13.95c-3.94,4.91-7.63,10.17-9.61,16.15-1.34,4-3.47,16.3,1.57,18.79s13.26-3.8,19.14-1.92c3,.95,5.48,3.28,8.58,3.69a26.56,26.56,0,0,0,4.71-.19c2.84-.14,5.71.45,8.53.11s5.83-2,6.45-4.75a11.64,11.64,0,0,1-4.41-4.14c-.95-1.81.26-2.33,1.85-3.61,2.19-1.75,4.39-2.2,6.32-.16s3.51,4.66,6.17,5.54c2.88,1,5.94-.49,8.62-1.9,4.61-2.41,10.66-9.51,15.27-11.93-.54-3.07.13-2.24-.23-5.34-.27-2.35-4.68-1.4-2.94-3A19.31,19.31,0,0,0,317.48,375c.56-4.15-.83-9.14-4.76-10.57A8.77,8.77,0,0,0,306.6,364.82Z"/><path d="M233.7,415l.12-1a1.66,1.66,0,0,1-.22,0A3,3,0,0,0,233.7,415Z"/><path d="M299.87,376.33a7.39,7.39,0,0,0-.74-3.47,12.49,12.49,0,0,1-.59-4.12,6.45,6.45,0,0,1,1.45-4.47,7,7,0,0,1,3.65-2.07,6.79,6.79,0,0,1,3.79,0c1.22.6,2.36,2.5,3.29,3.47a7,7,0,0,1,1.51,4.52A6.3,6.3,0,0,1,311,374.9a20.63,20.63,0,0,1-9.75,5.27c-1.76.48-4-.65-5.44-1.68s-3.5-3.15-4-4.89c-1-3.34,2.18-6.29,4.76-7.75,1.55-.87,3.2-1.59,5-.84a10.13,10.13,0,0,1,3.57,2.91,18.71,18.71,0,0,1,3.28,4.1,6.92,6.92,0,0,1,1.08,2.54,23.41,23.41,0,0,0,.38,3.07,8.45,8.45,0,0,1,.08,3.47,3.39,3.39,0,0,1-1.35,2.28,11.45,11.45,0,0,1-2.61,1.8c-.6.3-1.29.36-1.91.62-1.07.43-1.11.4-2-.5"/><path d="M298.83,371.19c-1.39-.58-1.85-1.85-2.24-3.18a6.75,6.75,0,0,0-.49-1.36,1.94,1.94,0,0,1,0-2c.8-1.75,2.82-2.82,4.37-3.74a6.81,6.81,0,0,1,2.08-1c.7-.14,1.43,0,2.11-.15a4.93,4.93,0,0,1,1.14-.31c.46,0,.86.23,1.32.22a2.48,2.48,0,0,1,1.21.07,8.49,8.49,0,0,1,1.16.6,5.35,5.35,0,0,1,1.91,1.38,15.51,15.51,0,0,1,1.23,2.13,6.56,6.56,0,0,1,.31,1.07c.12.45.39.82.51,1.26a6.35,6.35,0,0,1-.5,3.62c-.69,2.23-2.79,4-4.53,5.42a11.87,11.87,0,0,1-4.67,2.42,28.75,28.75,0,0,1-2.91.43,10.4,10.4,0,0,1-2.72.2,8.91,8.91,0,0,1-2.88-.88,19.88,19.88,0,0,1-2.85-1.51,6.56,6.56,0,0,1-1.91-2.49,9.36,9.36,0,0,0-.55-1.59,6.12,6.12,0,0,1-.85-1.52,6.92,6.92,0,0,1,.57-5.89,21.87,21.87,0,0,1,2.69-3.63c.69-.68,1.43-1.31,2.13-2a6.15,6.15,0,0,1,2.7-1.46,4.43,4.43,0,0,1,1.8-.26,5.54,5.54,0,0,1,1.74.18c1.53.72,2.23,2.22,3.53,3.14a6.67,6.67,0,0,1,.8.5c.36.35.68.76,1,1.12a11.19,11.19,0,0,1,1.57,1.88,7.19,7.19,0,0,1,1,2.59,3.78,3.78,0,0,1-.79,3,10.31,10.31,0,0,1-2.45,3,13.46,13.46,0,0,1-4.64,2.19,10.37,10.37,0,0,1-5.21.38,6.43,6.43,0,0,1-4.55-2.25c-1.33-1.15-1.65-3.06-2.08-4.65-.08-.31-.42-1-.33-1.37s.5-.51.69-.68"/><path d="M306.66,388.85c-1.38-.59-1.85-1.85-2.24-3.18a6.3,6.3,0,0,0-.48-1.36,1.93,1.93,0,0,1,0-2c.8-1.74,2.82-2.81,4.37-3.73a6.23,6.23,0,0,1,2.07-1c.7-.14,1.43,0,2.11-.15a4.08,4.08,0,0,1,1.15-.31c.45,0,.85.22,1.31.22a2.48,2.48,0,0,1,1.21.07,8.49,8.49,0,0,1,1.16.6,5,5,0,0,1,1.91,1.38,15.51,15.51,0,0,1,1.23,2.13,6.56,6.56,0,0,1,.31,1.07c.12.44.39.82.52,1.25a6.49,6.49,0,0,1-.51,3.63c-.69,2.22-2.79,3.95-4.52,5.42a12.18,12.18,0,0,1-4.68,2.42,28.34,28.34,0,0,1-2.91.43,10.78,10.78,0,0,1-2.72.2,8.78,8.78,0,0,1-2.87-.88,19.53,19.53,0,0,1-2.86-1.52,6.41,6.41,0,0,1-1.91-2.49,8.22,8.22,0,0,0-.55-1.58,5.69,5.69,0,0,1-.84-1.53,6.85,6.85,0,0,1,.57-5.89,22.09,22.09,0,0,1,2.68-3.63c.7-.67,1.43-1.3,2.14-2A6.3,6.3,0,0,1,305,375a4.37,4.37,0,0,1,1.79-.25,5.54,5.54,0,0,1,1.74.18c1.54.72,2.23,2.22,3.54,3.14a6.13,6.13,0,0,1,.79.5c.37.34.69.75,1,1.12a10.75,10.75,0,0,1,1.56,1.88,7,7,0,0,1,1,2.58,3.74,3.74,0,0,1-.78,3,10.25,10.25,0,0,1-2.46,3,13.56,13.56,0,0,1-4.64,2.19,10.45,10.45,0,0,1-5.2.38,11.33,11.33,0,0,1-2.64-.72,12.16,12.16,0,0,1-1.92-1.53c-1.32-1.15-1.65-3.06-2.08-4.66-.08-.31-.42-1-.33-1.36s.51-.51.69-.68"/><path class="cls-2" d="M279.81,414.2c-5.51.36-6.32-8.44-3.34-11.36a6.87,6.87,0,0,1,9.27,0c2.51,2.5,2.69,6.63,5,9.28,1.24,1.4,3.09,2.41,3.63,4.2s-2,4-3,2.41"/><path class="cls-3" d="M296.42,411.22c1.11,3.5,14,12.4,16.31,15.21,2,2.47,5,4.1,7.51,6,1.87,1.37,4.07,2,6,3.25,1.12.75,2.33,1.13,3.43,1.94a10.5,10.5,0,0,0,2.8,1.35c1.85.64,3.64,1.38,5.49,2,1.13.4,2.33.61,3.42,1.09,3.16,1.39,6.56,1.91,9.88,2.91,2.95.88,5.94,1.71,8.79,2.81,2.2.85,4.42.89,6.7,1.26,1.8.29,2.56.56,4.34.16a17.68,17.68,0,0,1,3.25.08,26.58,26.58,0,0,0,3.63-.57c3.08-.5,6.19-.88,9.28-1.34,4.59-.68,9.32-.32,13.94-.58,4.06-.22,8.14-.52,12.21-.51,5.75,0,11.41-.68,17.16-.89,9-.32,17.76-2.31,26.46-4.59a57.47,57.47,0,0,0,7.43-2c2.24-.92,15.36,9.46,17.36,8.1,8.13-5.53-11.43-19.93-15.08-22.78q-2.25-1.75-4.42-3.61c-11.44-9.7-21.64-21-34.27-29.18a129.31,129.31,0,0,0-37-16,105.74,105.74,0,0,0-19-3.08c-5.29-.38-13.25-1.64-18.35,0-3.95,1.27-7.86,2.69-11.75,4a67.62,67.62,0,0,0-11.49,4.62c-2.85,1.59-5.76,2.87-8.22,5.07-2,1.8-3.87,3.95-6.06,5.54-1.54,1.12,3-2.94,1.71-1.39"/><path class="cls-4" d="M389.8,476.79a33.9,33.9,0,0,1,14.72,9.88,23.63,23.63,0,0,1,2.52,3.67c.49.88.39,1,1.35,1a8.89,8.89,0,0,0,2.08-.4c.79-.19-7.69-17.7-7-18.05,16.45-8.14,35.05-8.84,53-6.87,8.83,1,19,1.74,27.43,4.52,8.09,2.65,12.35,9.22,17.81,15.64a50.07,50.07,0,0,1,9.14,15c.13.36.22.72.32,1.09.44-2.37,1-4.72,1.35-7.1a34.54,34.54,0,0,0,0-8.5c-.59-5.66-2.22-7.79-3.83-13.24a66.38,66.38,0,0,0-9.1-18.11,84,84,0,0,0-14-15.12c-1-.88-6.49-6-7.72-6.6-1.52-.68-4.9-.63-6.55-.81-24-2.62-46.07-15-69.41-21.75a5.26,5.26,0,0,0-3.19-.24,5,5,0,0,0-2.15,2,162.16,162.16,0,0,1-32.76,33.27,7.73,7.73,0,0,1-3.45,1.76,3,3,0,0,1-3.26-1.74q2,4.54,3.81,9.19"/><path d="M319,386.88c.81-1.58,2.12-2.75,2.9-4.36a16.55,16.55,0,0,0,1.06-5.06,5.83,5.83,0,0,0-1.42-4.69c-1.14-1.46-2.34-2.89-4.2-3.18-4-.61-7.43.13-10.43,3.13-1,1-7.45,8.63-3.79,9.24"/><path class="cls-5" d="M397.57,412.07l.32-.29a4.68,4.68,0,0,1,.75-.43,1.66,1.66,0,0,1,.31-.12,5.85,5.85,0,0,1,.75-.16,1.57,1.57,0,0,1,.53,0,1.69,1.69,0,0,1,.67.12,5.26,5.26,0,0,1,.6.18,1.43,1.43,0,0,1,.28.13c-2.09-7.39-6.88-15.24-14.31-23.22a124.71,124.71,0,0,0-17.16-15.09s-2.16-1.74-1.72-1.36c-3.45-.17-4.39-.42-7.41-.35.81.62,3,2.4,3.7,3,1.05.81,2,1.54,2.84,2.16a119.35,119.35,0,0,1,16.53,14.54c5.16,5.53,10.86,13.05,13.24,21Z"/><path class="cls-6" d="M320.34,408.91a19.25,19.25,0,0,0-8.48,12.81,19.85,19.85,0,0,0,.86,9.34,45.88,45.88,0,0,0,13.48,20.56c5.89,5,11.29,9,18.9,10.44A57.94,57.94,0,0,1,360.25,467a63.25,63.25,0,0,1,13,8.75,63.24,63.24,0,0,0,11.4,7.9c-17.95,22.78-24.94,46.26-40.08,67.48-4.38,1.42-9,2.21-13.41,3.36-2.84.74-5.75,1.27-8.51,2.29s-4.39,2.66-6.64,4.55c-1.92,1.61-2.09,3.66-4.35,4.74a3.37,3.37,0,0,0-.67.44c-.23.19-.52.33-.74.52a3.79,3.79,0,0,0-1.1,1.34,1.69,1.69,0,0,0-.18.47c0,.23.06.5.07.73a6.35,6.35,0,0,1,.07,1.51,6.49,6.49,0,0,1-.55,1.35,24.29,24.29,0,0,1-1.22,2.45,10.42,10.42,0,0,0-1.38,2.42c-.14.57.43.79.94,1a2.81,2.81,0,0,0,.87.18l1.05.08c.49-.17,1-.32,1.44-.46l.23,0a10.42,10.42,0,0,0,1.6-1.34c.56-.55,1.1-1.12,1.63-1.7,0,0,4.21-5.52,4.25-5.56-.2.27-4.54,6-4.75,6.24a10.84,10.84,0,0,1-1.41,1.47c-.38.32-.83.58-1.22.89a.69.69,0,0,1,.58.42,3.9,3.9,0,0,0,2.81,2.3c1.19.3,2.39.46,3.56.86a.72.72,0,0,1,.41.74,2.69,2.69,0,0,0,1.47,3.11,7.38,7.38,0,0,0,3.67.43.75.75,0,0,1,.29,0l4.33-3.18c-.08,0,4.83-3.85,2.21-1.53l-6.38,4.8a.6.6,0,0,1,.32.67,1.78,1.78,0,0,0,.77,1.94c1.43.85,1.65.17,2.46.31a2.62,2.62,0,0,1,2.17,1.35c.33.64.62,1.08,1.42,1.19a7.17,7.17,0,0,0,1.39,0c.69-.52,1.31-1.08,2-1.56,1.57-1,2.74-2.49,4.19-3.65s3.28-2.45,4.87-3.73c.61-.49,1.23-1,1.81-1.51,3.45-3.14,5.68-7.48,8.12-11.37.27-.43.38-.88.7-1.3a18.42,18.42,0,0,0,1.3-2.38c9.4-7.49,18.77-15,27-23.45,11.94-12.2,21.89-26.65,28.16-42.66.27-.66.5-1.33.72-2,1.21-3.69,1.84-7.41,2.82-11.2.66-2.57.65-5.32,1.86-7.28a11.77,11.77,0,0,0,1.86-6.34c0-6.39-5.24-11.43-10.13-15.55-9.87-8.32-26.82-30.15-37.95-36.67"/><path class="cls-7" d="M313.58,569.69a3.15,3.15,0,0,0-.91-1c-.27-.16-.57-.32-.86-.46a7.91,7.91,0,0,1-.68-.44c-.39-.24-.56-.62-1.14-.49"/><path class="cls-7" d="M311.93,570.71a7.18,7.18,0,0,1-1.73-.35l-.55-.14a5,5,0,0,0-.68-.29"/><path class="cls-7" d="M308.34,573.47c.73-1.18,1.05.27,1.1.81.12,1.22.39,3.78-1.76,4.07"/><path class="cls-7" d="M327.38,589.17a33.4,33.4,0,0,0,4.25-3.66,7.2,7.2,0,0,0,.71-.64c.24-.28,2.16-2,2.43-2.29s-6.94,6.68-6.49,6.38"/><path class="cls-7" d="M316.91,581.71c.57-.39,1.73-1.43,2.26-1.88l6.21-4.82c.32-.25-8.19,6.83-7.84,6.61"/><path class="cls-5" d="M348.27,374.06l-4.12,1.28c-1.23.39-2.4.9-3.62,1.34a97.64,97.64,0,0,0-25.72,34.84,24.24,24.24,0,0,0-2.35,8.72,13.58,13.58,0,0,1,2.14-5.2,14.13,14.13,0,0,1,2.07-3,16.47,16.47,0,0,1,4.16-3.48c1.25-2.51,2.57-5,4-7.38a96.17,96.17,0,0,1,22.24-24.71c1.55-1.24,3.34-2.54,5-3.69C351.25,373,349.3,373.74,348.27,374.06Z"/><path d="M547.16,188.28v7.13h6.9v-7.13h3.11v17.26h-3.11v-7.35h-6.9v7.35h-3.09V188.28Z"/><path d="M571.5,202a5.77,5.77,0,0,1-5.58,3.7c-4.34,0-6.26-2.71-6.26-6.76s2.71-6.53,6.44-6.43c3,.07,5.74,2.34,5.45,6.46l0,.39h-8.73c0,2.2.94,3.7,3.18,3.7a2.89,2.89,0,0,0,2.79-2.05Zm-3.13-4.22c0-2-1-2.93-2.54-2.88a2.87,2.87,0,0,0-2.91,2.88Z"/><path d="M574.43,193.43a15.46,15.46,0,0,1,4.89-.93c3.89,0,5.32,1.92,5.32,4.93v5.23a.65.65,0,0,0,.62.74,2.61,2.61,0,0,0,1-.15v2a4.85,4.85,0,0,1-2,.4,2.34,2.34,0,0,1-2.34-1.75,5.62,5.62,0,0,1-3.89,1.75c-2.52,0-4.39-1.28-4.42-4s2-4.09,5.25-4.09a20,20,0,0,1,2.79.24v-.76c0-1.41-.89-2.17-2.66-2.15a10.41,10.41,0,0,0-4,.79Zm7.16,6a13.13,13.13,0,0,0-2.52-.15c-1.48.07-2.42.76-2.44,2.07a1.82,1.82,0,0,0,2.1,1.9,5.09,5.09,0,0,0,2.86-1Z"/><path d="M600.48,186.7v18.84h-2.57l-.34-2.22a4.53,4.53,0,0,1-4.12,2.37c-3.48.05-5.55-2.84-5.55-6.63,0-4.64,3-6.56,5.52-6.56a4.11,4.11,0,0,1,4,2.44V187.1ZM591.06,199c0,2.2.86,3.92,3.15,3.92s3.26-1.72,3.26-3.89c0-2.94-1.58-4-3.28-4S591.06,196.2,591.06,199Z"/><path d="M611.21,192.62l.44,2.29a4.32,4.32,0,0,1,4-2.44,3.75,3.75,0,0,1,3.84,2.39,4.58,4.58,0,0,1,4.17-2.39c3,0,4.22,2,4.22,4.64v8.43h-3.06v-7.45c0-2-.47-3-2.15-3-2.21,0-2.81,1.68-2.81,3.58v6.9h-3.05v-7.45c0-2-.47-3-2.15-3-2.37,0-2.83,1.9-2.83,4v6.51h-3.06V192.62Z"/><path d="M633.88,192.62v7.45c0,2,.78,3,2.58,3,2.35,0,3.31-2.42,3.31-4.86v-5.62h3.06v12.92h-2.45l-.44-2.81a4.71,4.71,0,0,1-4.46,3c-3.16,0-4.66-1.95-4.66-5.2v-7.87Z"/><path d="M646.33,201.84a6.68,6.68,0,0,0,4.19,1.43c1.48,0,2.35-.44,2.35-1.5,0-2.52-7.48-.84-7.23-5.57.1-2.32,1.8-3.7,5.23-3.7a10.49,10.49,0,0,1,4.66,1.21l-1.09,2.16a7.3,7.3,0,0,0-3.7-1.05c-1.2,0-2.21.39-2.17,1.4.15,2.05,7.33.47,7.33,5.45,0,2.66-2.39,4-5.45,4a8.86,8.86,0,0,1-5.3-1.68Z"/><path d="M662.36,189v3.77h3.26l-.42,2.47h-2.84v5.92c0,1.4.64,2,1.68,2a5.72,5.72,0,0,0,2-.57l.56,2.34a8.1,8.1,0,0,1-3.28.84c-3,0-4-2-4-4.14v-6.34h-1.8v-2.47h2l.37-3.42Z"/><path d="M674,201.84a6.73,6.73,0,0,0,4.2,1.43c1.47,0,2.34-.44,2.34-1.5,0-2.52-7.47-.84-7.23-5.57.1-2.32,1.8-3.7,5.23-3.7a10.49,10.49,0,0,1,4.66,1.21l-1.08,2.16a7.34,7.34,0,0,0-3.7-1.05c-1.21,0-2.22.39-2.17,1.4.15,2.05,7.32.47,7.32,5.45,0,2.66-2.39,4-5.45,4a8.86,8.86,0,0,1-5.3-1.68Z"/><path d="M690,189v3.77h3.26l-.42,2.47H690v5.92c0,1.4.65,2,1.68,2a5.72,5.72,0,0,0,1.95-.57l.57,2.34a8.16,8.16,0,0,1-3.28.84c-3,0-4-2-4-4.14v-6.34h-1.8v-2.47h1.94l.37-3.42Z"/><path d="M696.05,193.43a15.46,15.46,0,0,1,4.89-.93c3.89,0,5.32,1.92,5.32,4.93v5.23a.65.65,0,0,0,.62.74,2.61,2.61,0,0,0,1-.15v2a4.89,4.89,0,0,1-2,.4,2.34,2.34,0,0,1-2.34-1.75,5.65,5.65,0,0,1-3.9,1.75c-2.51,0-4.39-1.28-4.41-4s2-4.09,5.25-4.09a20,20,0,0,1,2.79.24v-.76c0-1.41-.89-2.17-2.66-2.15a10.41,10.41,0,0,0-4,.79Zm7.15,6a13,13,0,0,0-2.51-.15c-1.48.07-2.42.76-2.44,2.07a1.82,1.82,0,0,0,2.09,1.9,5,5,0,0,0,2.86-1Z"/><path d="M711.44,192.62l3.18,9.12h.2l2.91-9.12h3.16l-4.79,13.12c-1.57,4.31-3.05,5.4-7.62,4.44l.55-2.59c2.91.71,3.3,0,4.21-2.49l-4.85-12.48Z"/><path d="M546.31,227.35a15.36,15.36,0,0,1,4.88-.94c3.89,0,5.32,1.92,5.32,4.93v5.23a.65.65,0,0,0,.62.74,2.41,2.41,0,0,0,1-.15v2.05a5,5,0,0,1-2,.39,2.34,2.34,0,0,1-2.34-1.75,5.62,5.62,0,0,1-3.89,1.75c-2.52,0-4.39-1.28-4.42-4s2-4.09,5.25-4.09a19.85,19.85,0,0,1,2.79.25V231c0-1.4-.89-2.17-2.66-2.14a10.52,10.52,0,0,0-4,.78Zm7.15,6a14,14,0,0,0-2.52-.15c-1.48.08-2.42.76-2.44,2.07a1.81,1.81,0,0,0,2.1,1.9,5,5,0,0,0,2.86-1Z"/><path d="M565.77,235.76a6.68,6.68,0,0,0,4.19,1.43c1.48,0,2.34-.45,2.34-1.51,0-2.51-7.47-.84-7.23-5.57.1-2.32,1.81-3.7,5.23-3.7a10.49,10.49,0,0,1,4.66,1.21l-1.08,2.17a7.25,7.25,0,0,0-3.7-1.06c-1.21,0-2.22.39-2.17,1.4.15,2.05,7.32.47,7.32,5.45,0,2.67-2.39,4-5.45,4a8.82,8.82,0,0,1-5.3-1.67Z"/><path d="M578.17,227.35a15.42,15.42,0,0,1,4.88-.94c3.9,0,5.33,1.92,5.33,4.93v5.23a.65.65,0,0,0,.62.74,2.45,2.45,0,0,0,1-.15v2.05a5.09,5.09,0,0,1-2,.39,2.33,2.33,0,0,1-2.34-1.75,5.67,5.67,0,0,1-3.9,1.75c-2.51,0-4.39-1.28-4.41-4s2-4.09,5.25-4.09a19.85,19.85,0,0,1,2.79.25V231c0-1.4-.89-2.17-2.67-2.14a10.5,10.5,0,0,0-4,.78Zm7.15,6a13.88,13.88,0,0,0-2.51-.15c-1.48.08-2.42.76-2.44,2.07a1.81,1.81,0,0,0,2.09,1.9,5,5,0,0,0,2.86-1Z"/><path d="M592.9,226.66v-1.75c0-2.64,1.38-4.29,4.26-4.29a6.74,6.74,0,0,1,2.44.44l-.39,2.14a7.24,7.24,0,0,0-1.31-.14c-1.36,0-1.92.56-1.92,2.34v1.26h2.81l-.4,2.46H596v10.33H592.9V229.12h-2v-2.46Z"/><path d="M611.54,235.9a5.76,5.76,0,0,1-5.57,3.7c-4.34,0-6.27-2.71-6.27-6.75s2.72-6.54,6.44-6.44c3,.07,5.74,2.34,5.45,6.46l-.05.39h-8.73c0,2.2.94,3.7,3.18,3.7a2.89,2.89,0,0,0,2.79-2Zm-3.13-4.21c.05-2-1-2.94-2.54-2.89a2.88,2.88,0,0,0-2.91,2.89Z"/><path d="M631.52,220.62v18.83H629l-.34-2.21a4.53,4.53,0,0,1-4.12,2.36c-3.48.05-5.55-2.83-5.55-6.63,0-4.64,3-6.56,5.52-6.56a4.09,4.09,0,0,1,4,2.44V221Zm-9.42,12.32c0,2.2.86,3.93,3.15,3.93s3.26-1.73,3.26-3.9c0-2.93-1.58-4-3.28-4S622.1,230.11,622.1,232.94Z"/><path d="M638.67,226.53v12.92h-3.08V229.07h-1.8v-2.54Zm-1.55-5a1.65,1.65,0,0,1,1.82,1.56,1.82,1.82,0,0,1-3.62,0A1.59,1.59,0,0,1,637.12,221.5Z"/><path d="M642.17,235.76a6.73,6.73,0,0,0,4.2,1.43c1.48,0,2.34-.45,2.34-1.51,0-2.51-7.47-.84-7.23-5.57.1-2.32,1.8-3.7,5.23-3.7a10.49,10.49,0,0,1,4.66,1.21l-1.08,2.17a7.3,7.3,0,0,0-3.7-1.06c-1.21,0-2.22.39-2.17,1.4.15,2.05,7.32.47,7.32,5.45,0,2.67-2.39,4-5.45,4a8.82,8.82,0,0,1-5.3-1.67Z"/><path d="M658.21,222.88v3.78h3.25l-.42,2.46h-2.83V235c0,1.41.64,2,1.67,2a5.5,5.5,0,0,0,2-.57l.57,2.34a7.94,7.94,0,0,1-3.28.84c-3,0-4-2-4-4.14v-6.34h-1.8v-2.46h1.95l.37-3.43Z"/><path d="M664.22,227.35a15.43,15.43,0,0,1,4.89-.94c3.89,0,5.32,1.92,5.32,4.93v5.23a.65.65,0,0,0,.62.74,2.41,2.41,0,0,0,1-.15v2.05a5.09,5.09,0,0,1-2,.39,2.34,2.34,0,0,1-2.34-1.75,5.65,5.65,0,0,1-3.9,1.75c-2.51,0-4.38-1.28-4.41-4s2-4.09,5.25-4.09a19.85,19.85,0,0,1,2.79.25V231c0-1.4-.89-2.17-2.66-2.14a10.52,10.52,0,0,0-4,.78Zm7.16,6a14,14,0,0,0-2.52-.15c-1.48.08-2.42.76-2.44,2.07a1.81,1.81,0,0,0,2.09,1.9,5,5,0,0,0,2.87-1Z"/><path d="M680.6,226.53l.47,2.3a4.74,4.74,0,0,1,4.41-2.42c3,0,4.49,2,4.49,4.61v8.43h-3.06V232c0-2-.74-3-2.41-3-2.35,0-3.26,1.89-3.26,4v6.51h-3.06V226.53Z"/><path d="M704.33,235.83c-.84,2.64-3,3.77-5.63,3.77-4.24,0-6.06-3.15-6.06-6.61,0-4.21,2.61-6.51,6.14-6.58,3.1-.07,5,1.53,5.5,3.8l-2.84.91a2.55,2.55,0,0,0-2.61-2.12c-1.78,0-3.14,1.31-3.14,3.94,0,2.1.79,4,3.09,4a2.6,2.6,0,0,0,2.71-2.05Z"/><path d="M718.14,235.9a5.77,5.77,0,0,1-5.58,3.7c-4.34,0-6.26-2.71-6.26-6.75s2.71-6.54,6.44-6.44c3,.07,5.74,2.34,5.45,6.46l-.05.39h-8.73c0,2.2.94,3.7,3.18,3.7a2.89,2.89,0,0,0,2.79-2ZM715,231.69c0-2-1-2.94-2.54-2.89a2.87,2.87,0,0,0-2.91,2.89Z"/><path d="M547.27,260.57v-1.75c0-2.64,1.38-4.29,4.26-4.29A6.74,6.74,0,0,1,554,255l-.39,2.15a6.25,6.25,0,0,0-1.31-.15c-1.35,0-1.92.57-1.92,2.34v1.26h2.81l-.39,2.47h-2.42v10.33h-3.08V263h-2v-2.47Z"/><path d="M557.6,260.45l.57,2.66c.59-2,2.09-2.84,4.19-2.79a5.12,5.12,0,0,1,1.33.23l-.47,2.68a5.29,5.29,0,0,0-1.85-.24c-2.27.07-3.13,1.82-3.13,3.89v6.49h-3.06V260.45Z"/><path d="M571.12,260.32c3.23,0,6,2.2,6,6.61,0,3.63-2.15,6.59-6.17,6.59-4.36,0-6.16-3-6.16-6.59C564.83,262.52,567.61,260.32,571.12,260.32ZM568,266.93c0,2.05.69,4,3,4,2.1,0,3-1.95,3-4,0-2.86-1.4-4-3-4C569.41,262.91,568,264,568,266.93Z"/><path d="M582.31,260.45l.45,2.29a4.3,4.3,0,0,1,4-2.44,3.77,3.77,0,0,1,3.85,2.39,4.52,4.52,0,0,1,4.17-2.39c3,0,4.21,2,4.21,4.63v8.44h-3.05v-7.45c0-2-.47-3-2.15-3-2.22,0-2.81,1.68-2.81,3.57v6.91h-3.06v-7.45c0-2-.47-3-2.14-3-2.37,0-2.84,1.9-2.84,4v6.51h-3.06V260.45Z"/><path d="M611.22,256.8v3.77h3.25l-.41,2.47h-2.84V269c0,1.41.64,1.95,1.68,1.95a5.36,5.36,0,0,0,1.94-.57l.57,2.35a8.1,8.1,0,0,1-3.28.84c-3,0-4-2-4-4.15V263h-1.8v-2.47h1.95l.37-3.43Z"/><path d="M620.42,254.53v8a4.81,4.81,0,0,1,4.24-2.2c3,0,4.49,1.95,4.49,4.61v8.44h-3.06v-7.45c0-2-.74-3-2.42-3-2.34,0-3.25,1.9-3.25,4v6.51h-3.06V254.9Z"/><path d="M643.55,269.82a5.76,5.76,0,0,1-5.57,3.7c-4.34,0-6.26-2.72-6.26-6.76s2.71-6.53,6.43-6.44c3,.08,5.75,2.35,5.45,6.46l-.05.4h-8.73c0,2.19.94,3.7,3.18,3.7a2.87,2.87,0,0,0,2.79-2.05Zm-3.13-4.22c.05-2-1-2.93-2.54-2.88A2.87,2.87,0,0,0,635,265.6Z"/><path d="M654.51,254.53v8.21a4.42,4.42,0,0,1,4.31-2.42c2.44.08,5.06,1.73,5.06,6.49,0,3.9-2,6.71-5.45,6.71a4.28,4.28,0,0,1-4.07-2.37l-.42,2.22h-2.49V254.92Zm-.13,12.35c0,2.22.82,4,3.26,4,2,0,3.1-1.51,3.1-4.05,0-3-1.5-3.94-3.13-3.94S654.38,264.29,654.38,266.88Z"/><path d="M672.39,260.32c3.23,0,6,2.2,6,6.61,0,3.63-2.15,6.59-6.17,6.59-4.36,0-6.16-3-6.16-6.59C666.1,262.52,668.88,260.32,672.39,260.32Zm-3.09,6.61c0,2.05.69,4,3,4,2.1,0,3-1.95,3-4,0-2.86-1.41-4-3-4C670.68,262.91,669.3,264,669.3,266.93Z"/><path d="M681.34,261.26a15.36,15.36,0,0,1,4.88-.94c3.9,0,5.33,1.93,5.33,4.93v5.23a.65.65,0,0,0,.62.74,2.54,2.54,0,0,0,1-.14v2a5.05,5.05,0,0,1-2,.4,2.33,2.33,0,0,1-2.34-1.76,5.63,5.63,0,0,1-3.9,1.76c-2.51,0-4.39-1.29-4.41-4s2-4.1,5.25-4.1a19.85,19.85,0,0,1,2.79.25v-.77c0-1.4-.89-2.17-2.67-2.14a10.39,10.39,0,0,0-4,.79Zm7.15,6a13.88,13.88,0,0,0-2.51-.15c-1.48.08-2.42.77-2.44,2.08a1.8,1.8,0,0,0,2.09,1.89,5.07,5.07,0,0,0,2.86-1Z"/><path d="M697.72,260.45l.56,2.66c.6-2,2.1-2.84,4.2-2.79a5.28,5.28,0,0,1,1.33.23l-.47,2.68a5.33,5.33,0,0,0-1.85-.24c-2.27.07-3.13,1.82-3.13,3.89v6.49H695.3V260.45Z"/><path d="M717.35,254.53v18.84h-2.57l-.34-2.22a4.53,4.53,0,0,1-4.12,2.37c-3.48.05-5.55-2.84-5.55-6.64,0-4.63,3-6.56,5.53-6.56a4.12,4.12,0,0,1,4,2.44v-7.84Zm-9.42,12.33c0,2.19.86,3.92,3.15,3.92s3.26-1.73,3.26-3.9c0-2.93-1.58-4-3.28-4S707.93,264,707.93,266.86Z"/><path d="M699.81,618.27c3.6,3.38,6.85,7.09,10.18,10.73l.3-2.36c-2.2,1.18-4.33,2.47-6.51,3.68-2,1.13-4.09,2.17-6.1,3.3a1.5,1.5,0,0,0,1.51,2.59c2-1.13,4.08-2.17,6.1-3.3,2.18-1.21,4.32-2.5,6.51-3.68a1.51,1.51,0,0,0,.31-2.35c-3.33-3.64-6.58-7.35-10.17-10.73-1.41-1.32-3.54.8-2.13,2.12Z"/><path d="M633.29,615.27c-3.6,3.38-6.85,7.09-10.18,10.72a1.52,1.52,0,0,0,.31,2.36c2.19,1.18,4.33,2.46,6.51,3.68,2,1.12,4.08,2.16,6.1,3.3a1.5,1.5,0,0,0,1.51-2.59c-2-1.14-4.08-2.18-6.1-3.3-2.17-1.22-4.31-2.5-6.51-3.68l.31,2.35c3.32-3.63,6.57-7.34,10.17-10.72,1.41-1.32-.72-3.44-2.12-2.12Z"/><path d="M709.47,625.73c-2.45-.18-4.89-.52-7.34-.74-2.65-.24-5.3-.24-8-.24-5.37,0-10.74,0-16.11,0H628a1.5,1.5,0,0,0,0,3c21.39,0,42.79.05,64.18,0,2.93,0,5.88-.07,8.81.15s5.64.62,8.48.83c1.92.14,1.91-2.86,0-3Z"/><path d="M97.35,227.85a68.34,68.34,0,0,0,2.26,33.88,81.51,81.51,0,0,0,15.44,27A88.38,88.38,0,0,0,127,300.4c1.49,1.2,3.62-.91,2.12-2.12-15.47-12.49-27.31-30.61-29.53-50.65a65,65,0,0,1,.69-19c.35-1.89-2.54-2.69-2.89-.8Z"/><path d="M122.78,285.81c1.69,4.63,2.92,9.41,4.25,14.16l1.45-1.9c-2.49.06-5,.24-7.47.34-2.31.1-4.62.1-6.94.2-1.92.09-1.93,3.09,0,3,2.32-.1,4.63-.1,6.94-.2,2.49-.1,5-.28,7.47-.34a1.52,1.52,0,0,0,1.44-1.9c-1.33-4.75-2.56-9.52-4.24-14.16a1.55,1.55,0,0,0-1.85-1.05,1.52,1.52,0,0,0-1,1.85Z"/><path d="M75.44,148.57v17.26H72.36V148.57Z"/><path d="M82.74,149.26V153H86l-.42,2.47H82.74v5.92c0,1.4.64,2,1.68,2a5.72,5.72,0,0,0,2-.57l.56,2.34a8.09,8.09,0,0,1-3.27.84c-3,0-4-2-4-4.14V155.5h-1.8V153h1.94l.37-3.42Z"/><path d="M96.48,152.91l.44,2.29a4.34,4.34,0,0,1,4-2.44,3.77,3.77,0,0,1,3.85,2.39,4.55,4.55,0,0,1,4.16-2.39c3,0,4.22,2,4.22,4.64v8.43h-3.06v-7.45c0-2-.47-3-2.14-3-2.22,0-2.81,1.68-2.81,3.58v6.9h-3.06v-7.45c0-2-.47-3-2.15-3-2.36,0-2.83,1.9-2.83,4v6.51H94V152.91Z"/><path d="M119.15,152.91v7.45c0,2,.79,3,2.59,3,2.34,0,3.3-2.42,3.3-4.86v-5.62h3.06v12.92h-2.44l-.45-2.81a4.7,4.7,0,0,1-4.46,3c-3.16,0-4.66-1.95-4.66-5.2v-7.87Z"/><path d="M131.6,162.13a6.72,6.72,0,0,0,4.19,1.43c1.48,0,2.35-.44,2.35-1.5,0-2.52-7.47-.84-7.23-5.57.1-2.32,1.8-3.7,5.23-3.7A10.49,10.49,0,0,1,140.8,154l-1.08,2.16a7.41,7.41,0,0,0-3.7-1.06c-1.21,0-2.22.4-2.17,1.41.15,2.05,7.32.47,7.32,5.45,0,2.66-2.39,4-5.45,4a8.86,8.86,0,0,1-5.3-1.68Z"/><path d="M147.63,149.26V153h3.26l-.42,2.47h-2.84v5.92c0,1.4.64,2,1.68,2a5.72,5.72,0,0,0,1.95-.57l.57,2.34a8.21,8.21,0,0,1-3.28.84c-3,0-4-2-4-4.14V155.5h-1.8V153h1.94l.37-3.42Z"/><path d="M162,147v8.21a4.39,4.39,0,0,1,4.31-2.41c2.44.07,5.06,1.72,5.06,6.48,0,3.9-2,6.71-5.45,6.71a4.28,4.28,0,0,1-4.07-2.37l-.42,2.22h-2.49V147.39Zm-.12,12.36c0,2.22.81,4,3.25,4,2,0,3.11-1.5,3.11-4,0-3-1.51-4-3.13-4C163.32,155.35,161.87,156.76,161.87,159.35Z"/><path d="M185.39,162.28a5.76,5.76,0,0,1-5.57,3.7c-4.34,0-6.26-2.71-6.26-6.76s2.71-6.53,6.43-6.43c3,.07,5.75,2.34,5.45,6.46l-.05.39h-8.73c0,2.2.94,3.7,3.18,3.7a2.87,2.87,0,0,0,2.79-2.05Zm-3.13-4.22c.05-2-1-2.93-2.54-2.88a2.87,2.87,0,0,0-2.91,2.88Z"/><path d="M196.35,147v8.21a4.39,4.39,0,0,1,4.31-2.41c2.44.07,5.06,1.72,5.06,6.48,0,3.9-1.95,6.71-5.45,6.71a4.27,4.27,0,0,1-4.07-2.37l-.42,2.22h-2.49V147.39Zm-.13,12.36c0,2.22.82,4,3.26,4,2,0,3.1-1.5,3.1-4,0-3-1.5-4-3.13-4S196.22,156.76,196.22,159.35Z"/><path d="M214.23,152.79c3.23,0,6,2.19,6,6.61,0,3.62-2.15,6.58-6.17,6.58-4.36,0-6.16-3-6.16-6.58C207.94,155,210.72,152.79,214.23,152.79Zm-3.09,6.61c0,2,.69,4,3,4,2.1,0,3-1.95,3-4,0-2.87-1.41-4-3-4C212.52,155.38,211.14,156.49,211.14,159.4Z"/><path d="M226,147v14.62c0,1.39.62,1.76,1.53,1.76a2.42,2.42,0,0,0,1.28-.47l.57,2.19a5.35,5.35,0,0,1-2.79.89c-2.56,0-3.65-1.73-3.65-4.07V147.36Z"/><path d="M242.49,147v18.84h-2.56l-.35-2.22a4.52,4.52,0,0,1-4.12,2.37c-3.47.05-5.55-2.84-5.55-6.63,0-4.64,3-6.56,5.53-6.56a4.1,4.1,0,0,1,4,2.44v-7.84Zm-9.42,12.33c0,2.2.86,3.92,3.16,3.92s3.25-1.72,3.25-3.89c0-2.94-1.58-4-3.28-4S233.07,156.49,233.07,159.32Z"/><path d="M246.61,165.49a1.42,1.42,0,0,1-1.63-1.58,1.6,1.6,0,0,1,1.73-1.53c1.7,0,2.37,1.33,2.24,2.91-.19,2.34-2,3.28-4,3.3v-1.33c1.16,0,2-.61,2-1.35C246.91,165.71,246.61,165.49,246.61,165.49Z"/><path d="M259.73,147v8a4.82,4.82,0,0,1,4.24-2.19c3,0,4.49,2,4.49,4.61v8.43H265.4v-7.45c0-2-.74-3-2.41-3-2.35,0-3.26,1.9-3.26,4v6.51h-3.06V147.36Z"/><path d="M275.54,152.91v12.92h-3.08V155.45h-1.8v-2.54Zm-1.55-5a1.6,1.6,0,1,1,0,3.16,1.63,1.63,0,0,1-1.8-1.63A1.59,1.59,0,0,1,274,147.88Z"/><path d="M290.73,152.91v11c0,4.29-1.67,6.88-6.41,6.88a13.36,13.36,0,0,1-5.28-1.11l.72-2.32a10.87,10.87,0,0,0,4.22,1c2.78,0,3.69-1.38,3.69-3.5v-1.14a4.44,4.44,0,0,1-4,2.05c-3.48.07-5.48-2.57-5.48-6.36,0-4.64,3-6.56,5.52-6.56a4.28,4.28,0,0,1,4.1,2.34l.32-2.22Zm-9.32,6.41c0,2.2.86,3.92,3.16,3.92s3.2-1.72,3.2-3.89c0-2.94-1.55-4-3.23-4S281.41,156.49,281.41,159.32Z"/><path d="M297,147v8a4.81,4.81,0,0,1,4.24-2.19c3,0,4.49,2,4.49,4.61v8.43h-3.06v-7.45c0-2-.74-3-2.41-3-2.35,0-3.26,1.9-3.26,4v6.51h-3.06V147.36Z"/><path d="M72.38,187.64a15.49,15.49,0,0,1,4.89-.94c3.89,0,5.32,1.92,5.32,4.93v5.23a.65.65,0,0,0,.62.74,2.41,2.41,0,0,0,1-.15v2.05a5,5,0,0,1-2,.39,2.34,2.34,0,0,1-2.34-1.75,5.64,5.64,0,0,1-3.89,1.75c-2.52,0-4.39-1.28-4.42-4s2-4.09,5.25-4.09a19.85,19.85,0,0,1,2.79.25v-.77c0-1.4-.89-2.17-2.66-2.14a10.41,10.41,0,0,0-4,.79Zm7.16,6a13.13,13.13,0,0,0-2.52-.15c-1.48.07-2.42.77-2.44,2.07a1.81,1.81,0,0,0,2.1,1.9,5.1,5.1,0,0,0,2.86-1Z"/><path d="M88.76,186.82l.47,2.3a4.76,4.76,0,0,1,4.41-2.42c3,0,4.49,2,4.49,4.61v8.44H95.07V192.3c0-2-.74-3-2.41-3-2.35,0-3.26,1.9-3.26,4v6.51H86.34V186.82Z"/><path d="M113.32,180.91v18.84h-2.56l-.35-2.22a4.5,4.5,0,0,1-4.11,2.36c-3.48.05-5.55-2.83-5.55-6.63,0-4.64,3-6.56,5.52-6.56a4.09,4.09,0,0,1,4,2.44V181.3Zm-9.42,12.33c0,2.19.87,3.92,3.16,3.92s3.26-1.73,3.26-3.9c0-2.93-1.58-4-3.28-4S103.9,190.4,103.9,193.24Z"/><path d="M132.86,196.12c-.84,2.64-3,3.77-5.62,3.77-4.24,0-6.07-3.15-6.07-6.61,0-4.21,2.61-6.51,6.14-6.58,3.11-.07,5,1.53,5.5,3.8l-2.84.91a2.54,2.54,0,0,0-2.61-2.12c-1.78,0-3.13,1.31-3.13,4,0,2.09.79,4,3.08,4a2.6,2.6,0,0,0,2.71-2Z"/><path d="M141.15,186.7c3.23,0,6,2.2,6,6.61,0,3.62-2.15,6.58-6.17,6.58-4.36,0-6.16-3-6.16-6.58C134.86,188.9,137.65,186.7,141.15,186.7Zm-3.09,6.61c0,2.05.69,4,3,4,2.1,0,3-1.94,3-4,0-2.86-1.41-4-3-4C139.45,189.29,138.06,190.4,138.06,193.31Z"/><path d="M152.32,186.82l.47,2.3a4.76,4.76,0,0,1,4.41-2.42c3,0,4.49,2,4.49,4.61v8.44h-3.06V192.3c0-2-.74-3-2.41-3-2.35,0-3.26,1.9-3.26,4v6.51H149.9V186.82Z"/><path d="M165.66,187V185.2c0-2.64,1.38-4.29,4.25-4.29a6.9,6.9,0,0,1,2.12.32l-.47,2.19c-.1,0-.5-.07-.89-.07-1.36,0-1.92.56-1.92,2.34V187H176v12.8h-3.06V189.41h-4.16v10.34h-3.09V189.41h-2V187Zm8.81-5.16a1.65,1.65,0,0,1,1.8,1.56,1.62,1.62,0,0,1-1.8,1.6,1.64,1.64,0,0,1-1.83-1.63C172.64,182.48,173.28,181.79,174.47,181.79Z"/><path d="M191.21,180.91v18.84h-2.56l-.35-2.22a4.5,4.5,0,0,1-4.11,2.36c-3.48.05-5.55-2.83-5.55-6.63,0-4.64,3-6.56,5.52-6.56a4.09,4.09,0,0,1,4,2.44V181.3Zm-9.42,12.33c0,2.19.87,3.92,3.16,3.92s3.26-1.73,3.26-3.9c0-2.93-1.58-4-3.28-4S181.79,190.4,181.79,193.24Z"/><path d="M205.69,196.19a5.75,5.75,0,0,1-5.57,3.7c-4.34,0-6.26-2.71-6.26-6.75s2.71-6.54,6.43-6.44c3,.07,5.75,2.34,5.45,6.46l-.05.4H197c0,2.19.94,3.69,3.18,3.69a2.87,2.87,0,0,0,2.79-2ZM202.56,192c.05-2-1-2.94-2.54-2.89a2.88,2.88,0,0,0-2.91,2.89Z"/><path d="M210.85,186.82l.47,2.3a4.76,4.76,0,0,1,4.41-2.42c3,0,4.49,2,4.49,4.61v8.44h-3.06V192.3c0-2-.74-3-2.42-3-2.34,0-3.25,1.9-3.25,4v6.51h-3.06V186.82Z"/><path d="M227.3,183.17V187h3.25l-.42,2.46H227.3v5.92c0,1.41.64,1.95,1.68,1.95a5.43,5.43,0,0,0,1.94-.57l.57,2.34a7.94,7.94,0,0,1-3.28.84c-3,0-4-2-4-4.14v-6.34h-1.8V187h1.95l.37-3.43Z"/><path d="M97.35,227.85a68.34,68.34,0,0,0,2.26,33.88,81.51,81.51,0,0,0,15.44,27A88.38,88.38,0,0,0,127,300.4c1.49,1.2,3.62-.91,2.12-2.12-15.47-12.49-27.31-30.61-29.53-50.65a65,65,0,0,1,.69-19c.35-1.89-2.54-2.69-2.89-.8Z"/><path d="M122.78,285.81c1.69,4.63,2.92,9.41,4.25,14.16l1.45-1.9c-2.49.06-5,.24-7.47.34-2.31.1-4.62.1-6.94.2-1.92.09-1.93,3.09,0,3,2.32-.1,4.63-.1,6.94-.2,2.49-.1,5-.28,7.47-.34a1.52,1.52,0,0,0,1.44-1.9c-1.33-4.75-2.56-9.52-4.24-14.16a1.55,1.55,0,0,0-1.85-1.05,1.52,1.52,0,0,0-1,1.85Z"/><path class="cls-8" d="M95.79,61.4A36.74,36.74,0,0,1,104.16,38a34.44,34.44,0,1,0,.11,46.9A36.78,36.78,0,0,1,95.79,61.4ZM87.2,75.66H70.92L71,73.39l4.46-.58c.58,0,.81-.23.81-1,.08-10.05,0-19.6,0-19.6l-5.62,1.08c-.19-.31-1.12-2.46-.46-2.73l10.35-4,1,1s-.12,20.87,0,24.37c0,.77.19,1,.73,1l5.08.54Z"/><circle cx="130" cy="61.53" r="34.44"/><text class="cls-9" transform="translate(118.45 75.26)">2</text><path d="M184,52.13l8.43,15.27V52.13h3.75v21h-4.59L183.3,58.34V73.13h-3.75v-21Z"/><path d="M213.6,68.81a7,7,0,0,1-6.78,4.5c-5.28,0-7.62-3.3-7.62-8.22s3.3-8,7.83-7.83c3.69.09,7,2.85,6.63,7.86l-.06.48H203c0,2.67,1.14,4.5,3.87,4.5a3.5,3.5,0,0,0,3.39-2.49Zm-3.81-5.13c.06-2.43-1.26-3.57-3.09-3.51a3.5,3.5,0,0,0-3.54,3.51Z"/><path d="M219.69,57.41l3.15,6.18,3.3-6.18h4l-4.35,7.8,4.53,7.92h-4.26L222.78,67l-3.45,6.12h-4.14L220,65.27l-4.29-7.86Z"/><path d="M238.11,53v4.59h4l-.51,3h-3.45v7.2c0,1.71.78,2.37,2,2.37a6.83,6.83,0,0,0,2.37-.69l.69,2.85a9.82,9.82,0,0,1-4,1c-3.69,0-4.83-2.46-4.83-5V60.56H232.2v-3h2.37l.45-4.17Z"/><path d="M256.74,57.41V73.13H253V60.5H250.8V57.41Zm-1.89-6.12a2,2,0,0,1,2.22,1.89,2.22,2.22,0,0,1-4.41,0A1.93,1.93,0,0,1,254.85,51.29Z"/><path d="M261,68.63a8.15,8.15,0,0,0,5.1,1.74c1.8,0,2.85-.54,2.85-1.83,0-3.06-9.09-1-8.79-6.78.12-2.82,2.19-4.5,6.36-4.5a12.78,12.78,0,0,1,5.67,1.47l-1.32,2.64a8.9,8.9,0,0,0-4.5-1.29c-1.47,0-2.7.48-2.64,1.71.18,2.49,8.91.57,8.91,6.63,0,3.24-2.91,4.92-6.63,4.89a10.76,10.76,0,0,1-6.45-2Z"/><path d="M286.77,53v4.59h4l-.51,3h-3.45v7.2c0,1.71.78,2.37,2,2.37a6.83,6.83,0,0,0,2.37-.69l.69,2.85a9.82,9.82,0,0,1-4,1c-3.69,0-4.83-2.46-4.83-5V60.56h-2.19v-3h2.37l.45-4.17Z"/><path d="M294.09,58.4A18.74,18.74,0,0,1,300,57.26c4.74,0,6.48,2.34,6.48,6v6.36a.79.79,0,0,0,.75.9,3,3,0,0,0,1.23-.18v2.49a6.08,6.08,0,0,1-2.49.48,2.84,2.84,0,0,1-2.85-2.13,6.87,6.87,0,0,1-4.74,2.13c-3.06,0-5.34-1.56-5.37-4.83s2.46-5,6.39-5a24.49,24.49,0,0,1,3.39.3v-.93c0-1.71-1.08-2.64-3.24-2.61a12.68,12.68,0,0,0-4.86,1Zm8.7,7.35a16.62,16.62,0,0,0-3.06-.18c-1.8.09-2.94.93-3,2.52a2.21,2.21,0,0,0,2.55,2.31,6.17,6.17,0,0,0,3.48-1.26Z"/><path d="M314.79,50.21V64h1.74l3.66-6.45h4.2l-4.71,7.77,5.13,7.86h-4.29l-4-6.09h-1.77v6.09h-3.72V50.66Z"/><path d="M340.59,68.81a7,7,0,0,1-6.78,4.5c-5.28,0-7.62-3.3-7.62-8.22s3.3-8,7.83-7.83c3.69.09,7,2.85,6.63,7.86l-.06.48H330c0,2.67,1.14,4.5,3.87,4.5a3.5,3.5,0,0,0,3.39-2.49Zm-3.81-5.13c.06-2.43-1.26-3.57-3.09-3.51a3.5,3.5,0,0,0-3.54,3.51Z"/><path d="M349.68,63.56v3h-7.44v-3Z"/><path d="M359,57.26c3.93,0,7.35,2.67,7.35,8,0,4.41-2.61,8-7.5,8-5.31,0-7.5-3.6-7.5-8C351.33,59.93,354.72,57.26,359,57.26Zm-3.75,8c0,2.49.84,4.86,3.66,4.86,2.55,0,3.69-2.37,3.69-4.86,0-3.48-1.71-4.89-3.6-4.89C356.91,60.41,355.23,61.76,355.23,65.3Z"/><path d="M370.56,57.56V55.43c0-3.21,1.68-5.22,5.19-5.22a8.28,8.28,0,0,1,3,.54l-.48,2.61a7.71,7.71,0,0,0-1.59-.18c-1.65,0-2.34.69-2.34,2.85v1.53h3.42l-.48,3h-2.94V73.13h-3.75V60.56H368.1v-3Z"/><path d="M381.12,57.56V55.43c0-3.21,1.68-5.22,5.19-5.22a8.28,8.28,0,0,1,3,.54l-.48,2.61a7.71,7.71,0,0,0-1.59-.18c-1.65,0-2.34.69-2.34,2.85v1.53h3.42l-.48,3h-2.94V73.13h-3.75V60.56h-2.46v-3Z"/></svg>