<svg id="Layer_1" data-name="Layer 1" xmlns="http://www.w3.org/2000/svg" viewBox="0 0 780 1051.14"><defs><style>.cls-1{fill:#c6946f;stroke-width:0.23px;}.cls-1,.cls-2,.cls-4,.cls-5,.cls-6,.cls-7{stroke:#fff;stroke-miterlimit:10;}.cls-2,.cls-3,.cls-6,.cls-7{fill:#d4a47c;}.cls-2{stroke-width:0.28px;}.cls-4{fill:#005058;stroke-width:0.54px;}.cls-5{fill:#fff171;stroke-width:0.3px;}.cls-6{stroke-width:0.41px;}.cls-7{stroke-width:0.31px;}.cls-8,.cls-9{fill:#fff;}.cls-8{opacity:0.7;}.cls-9{font-size:38.5px;font-family:ABCSerifBold, ABCSerif;}</style></defs><path class="cls-1" d="M314.7,524.27l.09.16,16.32,26.48c4.91,8,9.76,16.38,15.72,23.41,10,11.78,16.84,25.78,23.62,40l-.19-.08a.69.69,0,0,1,.28.25c.19.41.39.82.59,1.23l.06.15c1.2,3.33,2.53,10.71,3,12.1,2.39,7.73,5,16,10.2,22.67,5.68,7.29,13.38,12.76,18.8,20.28,3.52,4.87,10,6.24,13.53,11.2,1.53,2.14,4.3,5.07,6.72,6.11,3.3,1.43,7.73,0,4.2-3.74a13.9,13.9,0,0,1-2.6-2.94c-1.55-3,1.06-6.72.41-10.07a10.51,10.51,0,0,0-1.84-3.77c-2.63-3.93-5.68-7.72-8.18-11.69-1.36-2.17-1.6-4.46-2.61-6.73-1.84-4.16-.85-9.19-.59-13.68a19.64,19.64,0,0,0,0-2c-.21-5.55,0-7.48-2.17-9.47a8.5,8.5,0,0,0-6.53-2.06,23.54,23.54,0,0,1-3.84.11l-1.48-.11c-3.45-7.76-9.05-26.54-10.74-32.69-3.65-13.3-6.74-26.59-9.46-40.06a.31.31,0,0,0,0-.08c-.23-.89-8-11.38-8.21-12.28,8.41,6.43,13.74,15.64,23.22,20.74,13.36,7.19,26.92,13.94,40.49,20.73,13.07,6.31,26.65,14.55,41.36,15.78,14,1.18,28-2.44,38.45-10,6.58-4.75,11.81-11.14,13.89-18.64,2.87-10.37,1-36.05-5.29-45.89-14.12-22-34.46-11.06-50-19.49-23-12.5-20.53-10.58-46.1-17.38-13.19-3.51-34-6-48.73-9.93-11.27-3-29.36-7.16-40.95-5.21-13.91.34-30.92,20.41-28.94,34.08.91,6.3,4.31,11.85,5.87,18l.45,1.75a2.25,2.25,0,0,0,.08.24Z"/><path class="cls-2" d="M389.85,375.52c-.25-1.24,9.63,2.39,10.61,1.28s2.31.17,3.35.68c.85.42,1.79.39,2.67.74a8,8,0,0,0,1.91.79,6.44,6.44,0,0,0,4.6-1.12c1.39-1.21,1.39-3.29,2.57-4.62a5.87,5.87,0,0,1,1.92-1.2,2.72,2.72,0,0,1-1-1.43c-1.21-3.9.26-7.76.38-11.69a20.07,20.07,0,0,0-3.58-.26,29.5,29.5,0,0,1-5.62-.56c-1.67-.3-3.2-.1-4.39-1.29-.92-.92-1.19-2.27-2.1-3.18a22.66,22.66,0,0,1-2-1.72,31,31,0,0,1-2.19-3.5c-1.62-2.6-3.51-5.11-5.25-7.64a25.44,25.44,0,0,0-6.89-7,20.45,20.45,0,0,0-9.47-3.11,44.8,44.8,0,0,0-7.77-.18,75.85,75.85,0,0,0-11.16,2c-4.12,1-8.37,3.69-11.67,6.29-2.45,1.93-5.09,3.41-7.36,5.64a26.17,26.17,0,0,0-5.13,8c-1.15,2.48-2.89,4.26-4.57,6.29-.85,1-1.2,2.36-2,3.46a30,30,0,0,0-2.81,4c-1.48,2.82-.79,5.43-.18,8.33.41,1.93,1.42,3.56,1.8,5.51a15.32,15.32,0,0,0,.9,2.73c.41,1,.5,2,.92,3,.2.49.55.8.78,1.29s.05.92.37,1.38a20.28,20.28,0,0,0,2.5,2.17,27.15,27.15,0,0,1,2.72,2.75,3,3,0,0,0,.27.32c-.05.05-.09.19-.09.55a12.64,12.64,0,0,1-.43,2.92c-.46,2.49-.93,2.61-1.18,5.5a28.58,28.58,0,0,0,0,5.42,3.58,3.58,0,0,0,4.59,3.09,1.9,1.9,0,0,1,1.32.05,4.92,4.92,0,0,1,3,2.08,20.4,20.4,0,0,0,1.25,2.91,19.18,19.18,0,0,0,4,4.2c1.27,1,2.29,1,2.68,2.52.28,1.11.51,2.25.74,3.36.44,2.1,1.46,3.9,3.79,4.11a15.74,15.74,0,0,0,10.08-3.27c21.95-19.56,19.67-5.64,29.14-9.74,6.48-2.8,16.31-8,23.14-6"/><path d="M337.32,381.67a10.46,10.46,0,0,1,1.12,0c.22,0,.67,0,.83.21s.08.07,0,.14-.23.06-.31.08a2.22,2.22,0,0,0-.32.14c-.41.2-.79.45-1.2.66-.24.13-.46.27-.7.38-1.52.64-3.31.8-4.75,1.6a7.46,7.46,0,0,0-2.83,3.64c-.42-.33-1.81-1.4-1.63-2,.26-.81,2.24-1.87,2.8-2.54a6.86,6.86,0,0,1,4.17-2.24C335.43,381.64,336.38,381.75,337.32,381.67Z"/><path d="M414.13,353.76c-2.57-.47-5.41-.5-7.89-1.27-7.89-2.45-11-11.82-17.11-17.41-5-4.6-12.07-6.49-18.87-6.33s-13.41,2.2-19.75,4.65c-5.88,2.27-11.7,5-16.43,9.13-3.18,2.8-11.19,12.35-8.08,17s13.37,3.38,17.51,8c2.1,2.32,3.09,5.59,5.57,7.5a25.82,25.82,0,0,0,4.16,2.21c2.53,1.3,4.71,3.25,7.32,4.38s6,1.22,8-.87a11.59,11.59,0,0,1-1.73-5.79c.09-2,1.4-1.89,3.42-2.19,2.77-.41,4.89.3,5.54,3s.69,5.8,2.55,7.9c2,2.26,5.38,2.55,8.4,2.69,5.2.22,14-2.87,19.2-2.64,1.07-2.93,1.24-1.87,2.49-4.74.94-2.16-3.35-3.56-1-4.05A19.35,19.35,0,0,0,418.42,368c2.57-3.3,3.88-8.32,1.2-11.53A8.78,8.78,0,0,0,414.13,353.76Z"/><path d="M325.88,360.49l.59-.76-.17-.14A3.08,3.08,0,0,0,325.88,360.49Z"/><path d="M402.53,360.33a7.39,7.39,0,0,0,1.1-3.37,12.59,12.59,0,0,1,1.56-3.86,6.39,6.39,0,0,1,3.5-3.13,7,7,0,0,1,4.2,0,6.81,6.81,0,0,1,3.28,1.9c.75,1.12.78,3.34,1.1,4.65a7,7,0,0,1-1,4.67,6.33,6.33,0,0,1-3.47,3.44,20.61,20.61,0,0,1-11.07-.35c-1.77-.47-3.14-2.57-3.87-4.18s-1.44-4.49-1-6.26c.82-3.39,5.05-4.34,8-4.3,1.78,0,3.56.23,4.72,1.76a10.22,10.22,0,0,1,1.62,4.32,19.14,19.14,0,0,1,.78,5.19,6.79,6.79,0,0,1-.35,2.74,23.27,23.27,0,0,0-1.21,2.84,8.59,8.59,0,0,1-1.67,3.05,3.39,3.39,0,0,1-2.32,1.28,10.81,10.81,0,0,1-3.16.25c-.67,0-1.3-.33-2-.43-1.14-.16-1.16-.21-1.51-1.45"/><path d="M404.21,355.36c-.9-1.2-.67-2.53-.34-3.87a6.49,6.49,0,0,0,.26-1.42,1.94,1.94,0,0,1,1-1.74c1.57-1.11,3.85-1,5.65-1a6.7,6.7,0,0,1,2.28.21c.68.23,1.24.71,1.9.93a4.67,4.67,0,0,1,1.15.31c.38.23.62.62,1,.85s.67.26,1,.67a9.73,9.73,0,0,1,.7,1.1,5.13,5.13,0,0,1,.95,2.15,13.48,13.48,0,0,1,0,2.46,5.86,5.86,0,0,1-.26,1.08c-.12.45-.07.91-.19,1.35a6.55,6.55,0,0,1-2.25,2.88c-1.72,1.57-4.41,2-6.64,2.41a12,12,0,0,1-5.26-.26,29.29,29.29,0,0,1-2.73-1.09,10.32,10.32,0,0,1-2.45-1.2,8.76,8.76,0,0,1-2-2.2,19.59,19.59,0,0,1-1.7-2.75,6.46,6.46,0,0,1-.4-3.11,9.08,9.08,0,0,0,.32-1.65,6,6,0,0,1,0-1.74,6.88,6.88,0,0,1,3.46-4.8,20.89,20.89,0,0,1,4.15-1.79c.93-.24,1.89-.41,2.83-.63a6.26,6.26,0,0,1,3.07.09,4.28,4.28,0,0,1,1.68.69,5.23,5.23,0,0,1,1.41,1c1,1.39.81,3,1.48,4.49a5.41,5.41,0,0,1,.43.83c.14.48.22,1,.33,1.48a11.15,11.15,0,0,1,.41,2.41,7.11,7.11,0,0,1-.47,2.73,3.75,3.75,0,0,1-2.19,2.2,10.29,10.29,0,0,1-3.62,1.35,13.56,13.56,0,0,1-5.11-.44A10.37,10.37,0,0,1,399.4,357a11.36,11.36,0,0,1-1.92-1.94,11.79,11.79,0,0,1-.89-2.3c-.57-1.65.11-3.47.54-5.06.09-.31.16-1.11.4-1.35s.7-.18.94-.24"/><path d="M402.11,374.56c-.91-1.2-.67-2.53-.35-3.87a6,6,0,0,0,.27-1.42,1.93,1.93,0,0,1,1-1.74c1.57-1.11,3.86-1,5.66-1a6.46,6.46,0,0,1,2.28.2c.67.23,1.24.71,1.9.93a4.79,4.79,0,0,1,1.15.31c.38.24.62.62,1,.85s.68.26,1,.67a8.5,8.5,0,0,1,.7,1.1,5.15,5.15,0,0,1,1,2.15,14.44,14.44,0,0,1,0,2.46,5.69,5.69,0,0,1-.27,1.08c-.12.45-.07.91-.18,1.35a6.46,6.46,0,0,1-2.26,2.88c-1.72,1.57-4.4,2-6.64,2.41a11.9,11.9,0,0,1-5.25-.26c-.95-.3-1.82-.7-2.74-1.09a10.32,10.32,0,0,1-2.45-1.2,8.72,8.72,0,0,1-2-2.2,19.66,19.66,0,0,1-1.71-2.75,6.46,6.46,0,0,1-.4-3.11,8.3,8.3,0,0,0,.32-1.65,6,6,0,0,1,0-1.74,6.89,6.89,0,0,1,3.45-4.8,22,22,0,0,1,4.15-1.79c.94-.24,1.89-.41,2.83-.63a6.25,6.25,0,0,1,3.07.09,4.43,4.43,0,0,1,1.68.69,5.28,5.28,0,0,1,1.42,1c1,1.39.81,3,1.47,4.49a6,6,0,0,1,.44.83c.14.48.21,1,.32,1.48a10.57,10.57,0,0,1,.41,2.42,7.05,7.05,0,0,1-.46,2.72,3.77,3.77,0,0,1-2.19,2.2A10.29,10.29,0,0,1,407.1,379a13.61,13.61,0,0,1-5.12-.44,10.51,10.51,0,0,1-4.69-2.28,6.52,6.52,0,0,1-2.81-4.24c-.56-1.66.12-3.48.55-5.07.08-.31.16-1.11.4-1.35s.69-.18.94-.24"/><path class="cls-2" d="M366.15,383c-4.94-2.46-1.22-10.48,2.82-11.5a6.87,6.87,0,0,1,8,4.7c.92,3.42-1,7.08-.3,10.55.37,1.84,1.46,3.63,1,5.46s-3.74,2.43-3.84.56"/><path class="cls-3" d="M382,388.76c-.8,3.58,5.88,17.76,6.45,21.34.5,3.15,2.23,6,3.49,8.94.92,2.12,2.53,3.74,3.55,5.82.58,1.21,1.44,2.15,2,3.4a10.09,10.09,0,0,0,1.73,2.57c1.28,1.49,2.46,3,3.72,4.53.78.91,1.71,1.7,2.42,2.66,2,2.79,4.7,5,7.07,7.48,2.11,2.25,4.28,4.47,6.18,6.85,1.48,1.84,3.38,3,5.17,4.46a9.47,9.47,0,0,0,3.66,2.32,17,17,0,0,1,2.78,1.7,25.76,25.76,0,0,0,3.42,1.33c2.92,1.12,5.79,2.36,8.7,3.51,4.31,1.72,8.21,4.41,12.34,6.51,3.62,1.85,7.3,3.63,10.81,5.69,5,2.91,10.21,5.15,15.28,7.86,8,4.26,16.52,6.93,25.18,9.34a58.37,58.37,0,0,0,7.45,2c2.4.33,8.53,15.89,10.93,15.72,9.82-.69.15-23-1.58-27.27q-1.05-2.64-2-5.34c-5-14.14-8.14-29-14.95-42.45a129,129,0,0,0-23.92-32.39A105.82,105.82,0,0,0,467,393.12c-4.38-3-10.62-8.08-15.86-9.22-4.06-.88-8.15-1.63-12.17-2.45a67.65,67.65,0,0,0-12.25-1.78c-3.27-.06-6.43-.41-9.66.25a82.08,82.08,0,0,1-8,1.75c-1.89.19,4.05-1.06,2.19-.35"/><path class="cls-4" d="M429.77,492.38a33.94,33.94,0,0,1,7.75,15.94,23.66,23.66,0,0,1,.34,4.44c0,1-.16,1,.67,1.53a9.67,9.67,0,0,0,2,.7c.78.23,2.25-19.17,3.05-19.12,18.31,1.23,34.73,10,49.24,20.7,7.15,5.28,15.52,11,21.44,17.69,5.67,6.37,6,14.19,7.54,22.48a50,50,0,0,1,.33,17.6c-.07.38-.17.74-.26,1.1,1.57-1.83,3.23-3.57,4.73-5.46a34,34,0,0,0,4.23-7.36c2.34-5.19,2-7.85,3.35-13.37A66.56,66.56,0,0,0,535.42,529,84.43,84.43,0,0,0,531,508.93c-.44-1.28-2.57-8.49-3.35-9.58-1-1.36-3.92-3-5.26-4-19.44-14.34-32.28-36.13-49.06-53.7a5.31,5.31,0,0,0-2.65-1.8,5.07,5.07,0,0,0-2.85.62,162.25,162.25,0,0,1-45,12.3,7.8,7.8,0,0,1-3.87-.21,3,3,0,0,1-1.93-3.15q-.54,4.95-1.33,9.86"/><path d="M413.72,379c1.49-1,3.21-1.31,4.69-2.31a16.55,16.55,0,0,0,3.47-3.84,5.88,5.88,0,0,0,1.13-4.77c-.26-1.83-.57-3.68-2-4.86-3.16-2.55-6.49-3.62-10.59-2.53-1.36.36-10.77,3.71-7.92,6.07"/><path class="cls-5" d="M469,440.34l.42-.09a4.21,4.21,0,0,1,.87,0,1.19,1.19,0,0,1,.32.05,4.75,4.75,0,0,1,.73.23,1.8,1.8,0,0,1,.48.24,1.48,1.48,0,0,1,.52.44c.15.15.3.3.43.45s.12.17.18.25c1.9-7.43,1.71-16.63-.71-27.26A124.94,124.94,0,0,0,465,393s-1-2.59-.8-2c-2.9-1.88-3.59-2.57-6.24-4,.39.94,1.36,3.57,1.71,4.43.5,1.22.95,2.34,1.37,3.3a119.18,119.18,0,0,1,7,20.87c1.68,7.38,2.83,16.74.87,24.84Z"/><path class="cls-6" d="M403.85,398.78a19.24,19.24,0,0,0-13.77,6.81,19.73,19.73,0,0,0-4,8.51,46,46,0,0,0,1.31,24.55c2.6,7.25,5.25,13.44,11.1,18.52A58.38,58.38,0,0,1,409.17,469,63.59,63.59,0,0,1,416,483.12a63.73,63.73,0,0,0,5.89,12.56c-27,10.67-44.81,27.45-68.57,38.19-4.5-1-8.85-2.6-13.28-3.84a86.92,86.92,0,0,0-8.51-2.3c-3-.53-5.13.1-8,.59-2.46.43-3.64,2.12-6.14,1.92a3.05,3.05,0,0,0-.8,0c-.29,0-.61,0-.9.07A3.77,3.77,0,0,0,314,531a1.57,1.57,0,0,0-.4.32,6.8,6.8,0,0,0-.3.67,3.51,3.51,0,0,1-1.86,2.23,25.79,25.79,0,0,1-2.29,1.5,10.41,10.41,0,0,0-2.4,1.4c-.41.42,0,.9.3,1.35a2.5,2.5,0,0,0,.66.59l.87.6c.5.1,1,.21,1.48.33l.21.09a10.59,10.59,0,0,0,2.05-.36c.76-.19,1.52-.41,2.27-.65.05,0,6.41-2.65,6.46-2.67-.3.13-6.92,2.89-7.24,3a10.45,10.45,0,0,1-2,.57c-.49.08-1,.08-1.51.15a.7.7,0,0,1,.3.66,3.9,3.9,0,0,0,1.26,3.4c.88.85,1.84,1.59,2.65,2.52a.72.72,0,0,1,0,.85,2.7,2.7,0,0,0-.29,3.43,7.38,7.38,0,0,0,3,2.21.79.79,0,0,1,.22.19l5.35-.58c-.09,0,6.11-.9,2.68-.21l-7.93.94a.6.6,0,0,1-.05.74,1.78,1.78,0,0,0-.32,2.06c.81,1.46,1.34,1,2,1.51a2.63,2.63,0,0,1,1.2,2.26,1.73,1.73,0,0,0,.63,1.74,7.2,7.2,0,0,0,1.21.7c.85-.1,1.67-.28,2.54-.33,1.87-.12,3.61-.78,5.45-1.06,2-.3,4.07-.46,6.09-.77.77-.11,1.55-.23,2.32-.4,4.56-1,8.68-3.61,12.74-5.74a14.44,14.44,0,0,1,1.25-.77,17.91,17.91,0,0,0,2.32-1.41c11.89-1.75,23.78-3.55,35.14-6.69,16.45-4.55,32.32-12,45.79-22.72.56-.44,1.11-.9,1.63-1.37,2.9-2.58,5.32-5.48,8.07-8.27,1.86-1.88,3.23-4.27,5.27-5.35a11.78,11.78,0,0,0,4.79-4.55c3.16-5.55,1.22-12.51-.94-18.53-4.35-12.15-8-39.55-14.37-50.78"/><path class="cls-7" d="M317.18,534.37a3.15,3.15,0,0,0-.28-1.33c-.15-.28-.33-.57-.51-.84s-.24-.48-.37-.72c-.21-.4-.17-.81-.74-1"/><path class="cls-7" d="M315.23,534.43a7,7,0,0,1-1.31-1.18c-.14-.13-.28-.26-.41-.4s-.26-.44-.44-.58"/><path class="cls-7" d="M310.75,535c1.22-.65.77.76.54,1.26-.51,1.11-1.56,3.46-3.57,2.64"/><path class="cls-7" d="M319.31,558.15a33.82,33.82,0,0,0,5.51-1,6.17,6.17,0,0,0,.95-.2c.34-.12,2.88-.67,3.24-.75.54-.12-9.36,2.28-8.81,2.25"/><path class="cls-7" d="M314,546.44c.69-.05,2.21-.37,2.9-.49l7.79-1.05c.41,0-10.51,1.8-10.1,1.77"/><path class="cls-5" d="M445.51,382.69l-4.21-1c-1.26-.28-2.53-.43-3.8-.66a97.84,97.84,0,0,0-39.75,17.19,24.42,24.42,0,0,0-6.42,6.36,13.83,13.83,0,0,1,4.48-3.43,14.11,14.11,0,0,1,3.26-1.51,16.5,16.5,0,0,1,5.35-.92c2.35-1.54,4.74-3,7.19-4.36a96.17,96.17,0,0,1,31.64-10.18c2-.29,4.16-.51,6.14-.7C448.6,383.31,446.55,382.94,445.51,382.69Z"/><path d="M547.16,188.28v7.13h6.9v-7.13h3.11v17.26h-3.11v-7.35h-6.9v7.35h-3.09V188.28Z"/><path d="M571.5,202a5.77,5.77,0,0,1-5.58,3.7c-4.34,0-6.26-2.71-6.26-6.76s2.71-6.53,6.44-6.43c3,.07,5.74,2.34,5.45,6.46l0,.39h-8.73c0,2.2.94,3.7,3.18,3.7a2.89,2.89,0,0,0,2.79-2.05Zm-3.13-4.22c0-2-1-2.93-2.54-2.88a2.87,2.87,0,0,0-2.91,2.88Z"/><path d="M574.43,193.43a15.46,15.46,0,0,1,4.89-.93c3.89,0,5.32,1.92,5.32,4.93v5.23a.65.65,0,0,0,.62.74,2.61,2.61,0,0,0,1-.15v2a4.85,4.85,0,0,1-2,.4,2.34,2.34,0,0,1-2.34-1.75,5.62,5.62,0,0,1-3.89,1.75c-2.52,0-4.39-1.28-4.42-4s2-4.09,5.25-4.09a20,20,0,0,1,2.79.24v-.76c0-1.41-.89-2.17-2.66-2.15a10.41,10.41,0,0,0-4,.79Zm7.16,6a13.13,13.13,0,0,0-2.52-.15c-1.48.07-2.42.76-2.44,2.07a1.82,1.82,0,0,0,2.1,1.9,5.09,5.09,0,0,0,2.86-1Z"/><path d="M600.48,186.7v18.84h-2.57l-.34-2.22a4.53,4.53,0,0,1-4.12,2.37c-3.48.05-5.55-2.84-5.55-6.63,0-4.64,3-6.56,5.52-6.56a4.11,4.11,0,0,1,4,2.44V187.1ZM591.06,199c0,2.2.86,3.92,3.15,3.92s3.26-1.72,3.26-3.89c0-2.94-1.58-4-3.28-4S591.06,196.2,591.06,199Z"/><path d="M611.21,192.62l.44,2.29a4.32,4.32,0,0,1,4-2.44,3.75,3.75,0,0,1,3.84,2.39,4.58,4.58,0,0,1,4.17-2.39c3,0,4.22,2,4.22,4.64v8.43h-3.06v-7.45c0-2-.47-3-2.15-3-2.21,0-2.81,1.68-2.81,3.58v6.9h-3.05v-7.45c0-2-.47-3-2.15-3-2.37,0-2.83,1.9-2.83,4v6.51h-3.06V192.62Z"/><path d="M633.88,192.62v7.45c0,2,.78,3,2.58,3,2.35,0,3.31-2.42,3.31-4.86v-5.62h3.06v12.92h-2.45l-.44-2.81a4.71,4.71,0,0,1-4.46,3c-3.16,0-4.66-1.95-4.66-5.2v-7.87Z"/><path d="M646.33,201.84a6.68,6.68,0,0,0,4.19,1.43c1.48,0,2.35-.44,2.35-1.5,0-2.52-7.48-.84-7.23-5.57.1-2.32,1.8-3.7,5.23-3.7a10.49,10.49,0,0,1,4.66,1.21l-1.09,2.16a7.3,7.3,0,0,0-3.7-1.05c-1.2,0-2.21.39-2.17,1.4.15,2.05,7.33.47,7.33,5.45,0,2.66-2.39,4-5.45,4a8.86,8.86,0,0,1-5.3-1.68Z"/><path d="M662.36,189v3.77h3.26l-.42,2.47h-2.84v5.92c0,1.4.64,2,1.68,2a5.72,5.72,0,0,0,2-.57l.56,2.34a8.1,8.1,0,0,1-3.28.84c-3,0-4-2-4-4.14v-6.34h-1.8v-2.47h2l.37-3.42Z"/><path d="M674,201.84a6.73,6.73,0,0,0,4.2,1.43c1.47,0,2.34-.44,2.34-1.5,0-2.52-7.47-.84-7.23-5.57.1-2.32,1.8-3.7,5.23-3.7a10.49,10.49,0,0,1,4.66,1.21l-1.08,2.16a7.34,7.34,0,0,0-3.7-1.05c-1.21,0-2.22.39-2.17,1.4.15,2.05,7.32.47,7.32,5.45,0,2.66-2.39,4-5.45,4a8.86,8.86,0,0,1-5.3-1.68Z"/><path d="M690,189v3.77h3.26l-.42,2.47H690v5.92c0,1.4.65,2,1.68,2a5.72,5.72,0,0,0,1.95-.57l.57,2.34a8.16,8.16,0,0,1-3.28.84c-3,0-4-2-4-4.14v-6.34h-1.8v-2.47h1.94l.37-3.42Z"/><path d="M696.05,193.43a15.46,15.46,0,0,1,4.89-.93c3.89,0,5.32,1.92,5.32,4.93v5.23a.65.65,0,0,0,.62.74,2.61,2.61,0,0,0,1-.15v2a4.89,4.89,0,0,1-2,.4,2.34,2.34,0,0,1-2.34-1.75,5.65,5.65,0,0,1-3.9,1.75c-2.51,0-4.39-1.28-4.41-4s2-4.09,5.25-4.09a20,20,0,0,1,2.79.24v-.76c0-1.41-.89-2.17-2.66-2.15a10.41,10.41,0,0,0-4,.79Zm7.15,6a13,13,0,0,0-2.51-.15c-1.48.07-2.42.76-2.44,2.07a1.82,1.82,0,0,0,2.09,1.9,5,5,0,0,0,2.86-1Z"/><path d="M711.44,192.62l3.18,9.12h.2l2.91-9.12h3.16l-4.79,13.12c-1.57,4.31-3.05,5.4-7.62,4.44l.55-2.59c2.91.71,3.3,0,4.21-2.49l-4.85-12.48Z"/><path d="M546.31,227.35a15.36,15.36,0,0,1,4.88-.94c3.89,0,5.32,1.92,5.32,4.93v5.23a.65.65,0,0,0,.62.74,2.41,2.41,0,0,0,1-.15v2.05a5,5,0,0,1-2,.39,2.34,2.34,0,0,1-2.34-1.75,5.62,5.62,0,0,1-3.89,1.75c-2.52,0-4.39-1.28-4.42-4s2-4.09,5.25-4.09a19.85,19.85,0,0,1,2.79.25V231c0-1.4-.89-2.17-2.66-2.14a10.52,10.52,0,0,0-4,.78Zm7.15,6a14,14,0,0,0-2.52-.15c-1.48.08-2.42.76-2.44,2.07a1.81,1.81,0,0,0,2.1,1.9,5,5,0,0,0,2.86-1Z"/><path d="M565.77,235.76a6.68,6.68,0,0,0,4.19,1.43c1.48,0,2.34-.45,2.34-1.51,0-2.51-7.47-.84-7.23-5.57.1-2.32,1.81-3.7,5.23-3.7a10.49,10.49,0,0,1,4.66,1.21l-1.08,2.17a7.25,7.25,0,0,0-3.7-1.06c-1.21,0-2.22.39-2.17,1.4.15,2.05,7.32.47,7.32,5.45,0,2.67-2.39,4-5.45,4a8.82,8.82,0,0,1-5.3-1.67Z"/><path d="M578.17,227.35a15.42,15.42,0,0,1,4.88-.94c3.9,0,5.33,1.92,5.33,4.93v5.23a.65.65,0,0,0,.62.74,2.45,2.45,0,0,0,1-.15v2.05a5.09,5.09,0,0,1-2,.39,2.33,2.33,0,0,1-2.34-1.75,5.67,5.67,0,0,1-3.9,1.75c-2.51,0-4.39-1.28-4.41-4s2-4.09,5.25-4.09a19.85,19.85,0,0,1,2.79.25V231c0-1.4-.89-2.17-2.67-2.14a10.5,10.5,0,0,0-4,.78Zm7.15,6a13.88,13.88,0,0,0-2.51-.15c-1.48.08-2.42.76-2.44,2.07a1.81,1.81,0,0,0,2.09,1.9,5,5,0,0,0,2.86-1Z"/><path d="M592.9,226.66v-1.75c0-2.64,1.38-4.29,4.26-4.29a6.74,6.74,0,0,1,2.44.44l-.39,2.14a7.24,7.24,0,0,0-1.31-.14c-1.36,0-1.92.56-1.92,2.34v1.26h2.81l-.4,2.46H596v10.33H592.9V229.12h-2v-2.46Z"/><path d="M611.54,235.9a5.76,5.76,0,0,1-5.57,3.7c-4.34,0-6.27-2.71-6.27-6.75s2.72-6.54,6.44-6.44c3,.07,5.74,2.34,5.45,6.46l-.05.39h-8.73c0,2.2.94,3.7,3.18,3.7a2.89,2.89,0,0,0,2.79-2Zm-3.13-4.21c.05-2-1-2.94-2.54-2.89a2.88,2.88,0,0,0-2.91,2.89Z"/><path d="M631.52,220.62v18.83H629l-.34-2.21a4.53,4.53,0,0,1-4.12,2.36c-3.48.05-5.55-2.83-5.55-6.63,0-4.64,3-6.56,5.52-6.56a4.09,4.09,0,0,1,4,2.44V221Zm-9.42,12.32c0,2.2.86,3.93,3.15,3.93s3.26-1.73,3.26-3.9c0-2.93-1.58-4-3.28-4S622.1,230.11,622.1,232.94Z"/><path d="M638.67,226.53v12.92h-3.08V229.07h-1.8v-2.54Zm-1.55-5a1.65,1.65,0,0,1,1.82,1.56,1.82,1.82,0,0,1-3.62,0A1.59,1.59,0,0,1,637.12,221.5Z"/><path d="M642.17,235.76a6.73,6.73,0,0,0,4.2,1.43c1.48,0,2.34-.45,2.34-1.51,0-2.51-7.47-.84-7.23-5.57.1-2.32,1.8-3.7,5.23-3.7a10.49,10.49,0,0,1,4.66,1.21l-1.08,2.17a7.3,7.3,0,0,0-3.7-1.06c-1.21,0-2.22.39-2.17,1.4.15,2.05,7.32.47,7.32,5.45,0,2.67-2.39,4-5.45,4a8.82,8.82,0,0,1-5.3-1.67Z"/><path d="M658.21,222.88v3.78h3.25l-.42,2.46h-2.83V235c0,1.41.64,2,1.67,2a5.5,5.5,0,0,0,2-.57l.57,2.34a7.94,7.94,0,0,1-3.28.84c-3,0-4-2-4-4.14v-6.34h-1.8v-2.46h1.95l.37-3.43Z"/><path d="M664.22,227.35a15.43,15.43,0,0,1,4.89-.94c3.89,0,5.32,1.92,5.32,4.93v5.23a.65.65,0,0,0,.62.74,2.41,2.41,0,0,0,1-.15v2.05a5.09,5.09,0,0,1-2,.39,2.34,2.34,0,0,1-2.34-1.75,5.65,5.65,0,0,1-3.9,1.75c-2.51,0-4.38-1.28-4.41-4s2-4.09,5.25-4.09a19.85,19.85,0,0,1,2.79.25V231c0-1.4-.89-2.17-2.66-2.14a10.52,10.52,0,0,0-4,.78Zm7.16,6a14,14,0,0,0-2.52-.15c-1.48.08-2.42.76-2.44,2.07a1.81,1.81,0,0,0,2.09,1.9,5,5,0,0,0,2.87-1Z"/><path d="M680.6,226.53l.47,2.3a4.74,4.74,0,0,1,4.41-2.42c3,0,4.49,2,4.49,4.61v8.43h-3.06V232c0-2-.74-3-2.41-3-2.35,0-3.26,1.89-3.26,4v6.51h-3.06V226.53Z"/><path d="M704.33,235.83c-.84,2.64-3,3.77-5.63,3.77-4.24,0-6.06-3.15-6.06-6.61,0-4.21,2.61-6.51,6.14-6.58,3.1-.07,5,1.53,5.5,3.8l-2.84.91a2.55,2.55,0,0,0-2.61-2.12c-1.78,0-3.14,1.31-3.14,3.94,0,2.1.79,4,3.09,4a2.6,2.6,0,0,0,2.71-2.05Z"/><path d="M718.14,235.9a5.77,5.77,0,0,1-5.58,3.7c-4.34,0-6.26-2.71-6.26-6.75s2.71-6.54,6.44-6.44c3,.07,5.74,2.34,5.45,6.46l-.05.39h-8.73c0,2.2.94,3.7,3.18,3.7a2.89,2.89,0,0,0,2.79-2ZM715,231.69c0-2-1-2.94-2.54-2.89a2.87,2.87,0,0,0-2.91,2.89Z"/><path d="M547.27,260.57v-1.75c0-2.64,1.38-4.29,4.26-4.29A6.74,6.74,0,0,1,554,255l-.39,2.15a6.25,6.25,0,0,0-1.31-.15c-1.35,0-1.92.57-1.92,2.34v1.26h2.81l-.39,2.47h-2.42v10.33h-3.08V263h-2v-2.47Z"/><path d="M557.6,260.45l.57,2.66c.59-2,2.09-2.84,4.19-2.79a5.12,5.12,0,0,1,1.33.23l-.47,2.68a5.29,5.29,0,0,0-1.85-.24c-2.27.07-3.13,1.82-3.13,3.89v6.49h-3.06V260.45Z"/><path d="M571.12,260.32c3.23,0,6,2.2,6,6.61,0,3.63-2.15,6.59-6.17,6.59-4.36,0-6.16-3-6.16-6.59C564.83,262.52,567.61,260.32,571.12,260.32ZM568,266.93c0,2.05.69,4,3,4,2.1,0,3-1.95,3-4,0-2.86-1.4-4-3-4C569.41,262.91,568,264,568,266.93Z"/><path d="M582.31,260.45l.45,2.29a4.3,4.3,0,0,1,4-2.44,3.77,3.77,0,0,1,3.85,2.39,4.52,4.52,0,0,1,4.17-2.39c3,0,4.21,2,4.21,4.63v8.44h-3.05v-7.45c0-2-.47-3-2.15-3-2.22,0-2.81,1.68-2.81,3.57v6.91h-3.06v-7.45c0-2-.47-3-2.14-3-2.37,0-2.84,1.9-2.84,4v6.51h-3.06V260.45Z"/><path d="M611.22,256.8v3.77h3.25l-.41,2.47h-2.84V269c0,1.41.64,1.95,1.68,1.95a5.36,5.36,0,0,0,1.94-.57l.57,2.35a8.1,8.1,0,0,1-3.28.84c-3,0-4-2-4-4.15V263h-1.8v-2.47h1.95l.37-3.43Z"/><path d="M620.42,254.53v8a4.81,4.81,0,0,1,4.24-2.2c3,0,4.49,1.95,4.49,4.61v8.44h-3.06v-7.45c0-2-.74-3-2.42-3-2.34,0-3.25,1.9-3.25,4v6.51h-3.06V254.9Z"/><path d="M643.55,269.82a5.76,5.76,0,0,1-5.57,3.7c-4.34,0-6.26-2.72-6.26-6.76s2.71-6.53,6.43-6.44c3,.08,5.75,2.35,5.45,6.46l-.05.4h-8.73c0,2.19.94,3.7,3.18,3.7a2.87,2.87,0,0,0,2.79-2.05Zm-3.13-4.22c.05-2-1-2.93-2.54-2.88A2.87,2.87,0,0,0,635,265.6Z"/><path d="M654.51,254.53v8.21a4.42,4.42,0,0,1,4.31-2.42c2.44.08,5.06,1.73,5.06,6.49,0,3.9-2,6.71-5.45,6.71a4.28,4.28,0,0,1-4.07-2.37l-.42,2.22h-2.49V254.92Zm-.13,12.35c0,2.22.82,4,3.26,4,2,0,3.1-1.51,3.1-4.05,0-3-1.5-3.94-3.13-3.94S654.38,264.29,654.38,266.88Z"/><path d="M672.39,260.32c3.23,0,6,2.2,6,6.61,0,3.63-2.15,6.59-6.17,6.59-4.36,0-6.16-3-6.16-6.59C666.1,262.52,668.88,260.32,672.39,260.32Zm-3.09,6.61c0,2.05.69,4,3,4,2.1,0,3-1.95,3-4,0-2.86-1.41-4-3-4C670.68,262.91,669.3,264,669.3,266.93Z"/><path d="M681.34,261.26a15.36,15.36,0,0,1,4.88-.94c3.9,0,5.33,1.93,5.33,4.93v5.23a.65.65,0,0,0,.62.74,2.54,2.54,0,0,0,1-.14v2a5.05,5.05,0,0,1-2,.4,2.33,2.33,0,0,1-2.34-1.76,5.63,5.63,0,0,1-3.9,1.76c-2.51,0-4.39-1.29-4.41-4s2-4.1,5.25-4.1a19.85,19.85,0,0,1,2.79.25v-.77c0-1.4-.89-2.17-2.67-2.14a10.39,10.39,0,0,0-4,.79Zm7.15,6a13.88,13.88,0,0,0-2.51-.15c-1.48.08-2.42.77-2.44,2.08a1.8,1.8,0,0,0,2.09,1.89,5.07,5.07,0,0,0,2.86-1Z"/><path d="M697.72,260.45l.56,2.66c.6-2,2.1-2.84,4.2-2.79a5.28,5.28,0,0,1,1.33.23l-.47,2.68a5.33,5.33,0,0,0-1.85-.24c-2.27.07-3.13,1.82-3.13,3.89v6.49H695.3V260.45Z"/><path d="M717.35,254.53v18.84h-2.57l-.34-2.22a4.53,4.53,0,0,1-4.12,2.37c-3.48.05-5.55-2.84-5.55-6.64,0-4.63,3-6.56,5.53-6.56a4.12,4.12,0,0,1,4,2.44v-7.84Zm-9.42,12.33c0,2.19.86,3.92,3.15,3.92s3.26-1.73,3.26-3.9c0-2.93-1.58-4-3.28-4S707.93,264,707.93,266.86Z"/><path d="M699.81,618.27c3.6,3.38,6.85,7.09,10.18,10.73l.3-2.36c-2.2,1.18-4.33,2.47-6.51,3.68-2,1.13-4.09,2.17-6.1,3.3a1.5,1.5,0,0,0,1.51,2.59c2-1.13,4.08-2.17,6.1-3.3,2.18-1.21,4.32-2.5,6.51-3.68a1.51,1.51,0,0,0,.31-2.35c-3.33-3.64-6.58-7.35-10.17-10.73-1.41-1.32-3.54.8-2.13,2.12Z"/><path d="M633.29,615.27c-3.6,3.38-6.85,7.09-10.18,10.72a1.52,1.52,0,0,0,.31,2.36c2.19,1.18,4.33,2.46,6.51,3.68,2,1.12,4.08,2.16,6.1,3.3a1.5,1.5,0,0,0,1.51-2.59c-2-1.14-4.08-2.18-6.1-3.3-2.17-1.22-4.31-2.5-6.51-3.68l.31,2.35c3.32-3.63,6.57-7.34,10.17-10.72,1.41-1.32-.72-3.44-2.12-2.12Z"/><path d="M709.47,625.73c-2.45-.18-4.89-.52-7.34-.74-2.65-.24-5.3-.24-8-.24-5.37,0-10.74,0-16.11,0H628a1.5,1.5,0,0,0,0,3c21.39,0,42.79.05,64.18,0,2.93,0,5.88-.07,8.81.15s5.64.62,8.48.83c1.92.14,1.91-2.86,0-3Z"/><path d="M97.35,227.85a68.34,68.34,0,0,0,2.26,33.88,81.51,81.51,0,0,0,15.44,27A88.38,88.38,0,0,0,127,300.4c1.49,1.2,3.62-.91,2.12-2.12-15.47-12.49-27.31-30.61-29.53-50.65a65,65,0,0,1,.69-19c.35-1.89-2.54-2.69-2.89-.8Z"/><path d="M122.78,285.81c1.69,4.63,2.92,9.41,4.25,14.16l1.45-1.9c-2.49.06-5,.24-7.47.34-2.31.1-4.62.1-6.94.2-1.92.09-1.93,3.09,0,3,2.32-.1,4.63-.1,6.94-.2,2.49-.1,5-.28,7.47-.34a1.52,1.52,0,0,0,1.44-1.9c-1.33-4.75-2.56-9.52-4.24-14.16a1.55,1.55,0,0,0-1.85-1.05,1.52,1.52,0,0,0-1,1.85Z"/><path d="M75.44,148.57v17.26H72.36V148.57Z"/><path d="M82.74,149.26V153H86l-.42,2.47H82.74v5.92c0,1.4.64,2,1.68,2a5.72,5.72,0,0,0,2-.57l.56,2.34a8.09,8.09,0,0,1-3.27.84c-3,0-4-2-4-4.14V155.5h-1.8V153h1.94l.37-3.42Z"/><path d="M96.48,152.91l.44,2.29a4.34,4.34,0,0,1,4-2.44,3.77,3.77,0,0,1,3.85,2.39,4.55,4.55,0,0,1,4.16-2.39c3,0,4.22,2,4.22,4.64v8.43h-3.06v-7.45c0-2-.47-3-2.14-3-2.22,0-2.81,1.68-2.81,3.58v6.9h-3.06v-7.45c0-2-.47-3-2.15-3-2.36,0-2.83,1.9-2.83,4v6.51H94V152.91Z"/><path d="M119.15,152.91v7.45c0,2,.79,3,2.59,3,2.34,0,3.3-2.42,3.3-4.86v-5.62h3.06v12.92h-2.44l-.45-2.81a4.7,4.7,0,0,1-4.46,3c-3.16,0-4.66-1.95-4.66-5.2v-7.87Z"/><path d="M131.6,162.13a6.72,6.72,0,0,0,4.19,1.43c1.48,0,2.35-.44,2.35-1.5,0-2.52-7.47-.84-7.23-5.57.1-2.32,1.8-3.7,5.23-3.7A10.49,10.49,0,0,1,140.8,154l-1.08,2.16a7.41,7.41,0,0,0-3.7-1.06c-1.21,0-2.22.4-2.17,1.41.15,2.05,7.32.47,7.32,5.45,0,2.66-2.39,4-5.45,4a8.86,8.86,0,0,1-5.3-1.68Z"/><path d="M147.63,149.26V153h3.26l-.42,2.47h-2.84v5.92c0,1.4.64,2,1.68,2a5.72,5.72,0,0,0,1.95-.57l.57,2.34a8.21,8.21,0,0,1-3.28.84c-3,0-4-2-4-4.14V155.5h-1.8V153h1.94l.37-3.42Z"/><path d="M162,147v8.21a4.39,4.39,0,0,1,4.31-2.41c2.44.07,5.06,1.72,5.06,6.48,0,3.9-2,6.71-5.45,6.71a4.28,4.28,0,0,1-4.07-2.37l-.42,2.22h-2.49V147.39Zm-.12,12.36c0,2.22.81,4,3.25,4,2,0,3.11-1.5,3.11-4,0-3-1.51-4-3.13-4C163.32,155.35,161.87,156.76,161.87,159.35Z"/><path d="M185.39,162.28a5.76,5.76,0,0,1-5.57,3.7c-4.34,0-6.26-2.71-6.26-6.76s2.71-6.53,6.43-6.43c3,.07,5.75,2.34,5.45,6.46l-.05.39h-8.73c0,2.2.94,3.7,3.18,3.7a2.87,2.87,0,0,0,2.79-2.05Zm-3.13-4.22c.05-2-1-2.93-2.54-2.88a2.87,2.87,0,0,0-2.91,2.88Z"/><path d="M196.35,147v8.21a4.39,4.39,0,0,1,4.31-2.41c2.44.07,5.06,1.72,5.06,6.48,0,3.9-1.95,6.71-5.45,6.71a4.27,4.27,0,0,1-4.07-2.37l-.42,2.22h-2.49V147.39Zm-.13,12.36c0,2.22.82,4,3.26,4,2,0,3.1-1.5,3.1-4,0-3-1.5-4-3.13-4S196.22,156.76,196.22,159.35Z"/><path d="M214.23,152.79c3.23,0,6,2.19,6,6.61,0,3.62-2.15,6.58-6.17,6.58-4.36,0-6.16-3-6.16-6.58C207.94,155,210.72,152.79,214.23,152.79Zm-3.09,6.61c0,2,.69,4,3,4,2.1,0,3-1.95,3-4,0-2.87-1.41-4-3-4C212.52,155.38,211.14,156.49,211.14,159.4Z"/><path d="M226,147v14.62c0,1.39.62,1.76,1.53,1.76a2.42,2.42,0,0,0,1.28-.47l.57,2.19a5.35,5.35,0,0,1-2.79.89c-2.56,0-3.65-1.73-3.65-4.07V147.36Z"/><path d="M242.49,147v18.84h-2.56l-.35-2.22a4.52,4.52,0,0,1-4.12,2.37c-3.47.05-5.55-2.84-5.55-6.63,0-4.64,3-6.56,5.53-6.56a4.1,4.1,0,0,1,4,2.44v-7.84Zm-9.42,12.33c0,2.2.86,3.92,3.16,3.92s3.25-1.72,3.25-3.89c0-2.94-1.58-4-3.28-4S233.07,156.49,233.07,159.32Z"/><path d="M246.61,165.49a1.42,1.42,0,0,1-1.63-1.58,1.6,1.6,0,0,1,1.73-1.53c1.7,0,2.37,1.33,2.24,2.91-.19,2.34-2,3.28-4,3.3v-1.33c1.16,0,2-.61,2-1.35C246.91,165.71,246.61,165.49,246.61,165.49Z"/><path d="M259.73,147v8a4.82,4.82,0,0,1,4.24-2.19c3,0,4.49,2,4.49,4.61v8.43H265.4v-7.45c0-2-.74-3-2.41-3-2.35,0-3.26,1.9-3.26,4v6.51h-3.06V147.36Z"/><path d="M275.54,152.91v12.92h-3.08V155.45h-1.8v-2.54Zm-1.55-5a1.6,1.6,0,1,1,0,3.16,1.63,1.63,0,0,1-1.8-1.63A1.59,1.59,0,0,1,274,147.88Z"/><path d="M290.73,152.91v11c0,4.29-1.67,6.88-6.41,6.88a13.36,13.36,0,0,1-5.28-1.11l.72-2.32a10.87,10.87,0,0,0,4.22,1c2.78,0,3.69-1.38,3.69-3.5v-1.14a4.44,4.44,0,0,1-4,2.05c-3.48.07-5.48-2.57-5.48-6.36,0-4.64,3-6.56,5.52-6.56a4.28,4.28,0,0,1,4.1,2.34l.32-2.22Zm-9.32,6.41c0,2.2.86,3.92,3.16,3.92s3.2-1.72,3.2-3.89c0-2.94-1.55-4-3.23-4S281.41,156.49,281.41,159.32Z"/><path d="M297,147v8a4.81,4.81,0,0,1,4.24-2.19c3,0,4.49,2,4.49,4.61v8.43h-3.06v-7.45c0-2-.74-3-2.41-3-2.35,0-3.26,1.9-3.26,4v6.51h-3.06V147.36Z"/><path d="M72.38,187.64a15.49,15.49,0,0,1,4.89-.94c3.89,0,5.32,1.92,5.32,4.93v5.23a.65.65,0,0,0,.62.74,2.41,2.41,0,0,0,1-.15v2.05a5,5,0,0,1-2,.39,2.34,2.34,0,0,1-2.34-1.75,5.64,5.64,0,0,1-3.89,1.75c-2.52,0-4.39-1.28-4.42-4s2-4.09,5.25-4.09a19.85,19.85,0,0,1,2.79.25v-.77c0-1.4-.89-2.17-2.66-2.14a10.41,10.41,0,0,0-4,.79Zm7.16,6a13.13,13.13,0,0,0-2.52-.15c-1.48.07-2.42.77-2.44,2.07a1.81,1.81,0,0,0,2.1,1.9,5.1,5.1,0,0,0,2.86-1Z"/><path d="M88.76,186.82l.47,2.3a4.76,4.76,0,0,1,4.41-2.42c3,0,4.49,2,4.49,4.61v8.44H95.07V192.3c0-2-.74-3-2.41-3-2.35,0-3.26,1.9-3.26,4v6.51H86.34V186.82Z"/><path d="M113.32,180.91v18.84h-2.56l-.35-2.22a4.5,4.5,0,0,1-4.11,2.36c-3.48.05-5.55-2.83-5.55-6.63,0-4.64,3-6.56,5.52-6.56a4.09,4.09,0,0,1,4,2.44V181.3Zm-9.42,12.33c0,2.19.87,3.92,3.16,3.92s3.26-1.73,3.26-3.9c0-2.93-1.58-4-3.28-4S103.9,190.4,103.9,193.24Z"/><path d="M132.86,196.12c-.84,2.64-3,3.77-5.62,3.77-4.24,0-6.07-3.15-6.07-6.61,0-4.21,2.61-6.51,6.14-6.58,3.11-.07,5,1.53,5.5,3.8l-2.84.91a2.54,2.54,0,0,0-2.61-2.12c-1.78,0-3.13,1.31-3.13,4,0,2.09.79,4,3.08,4a2.6,2.6,0,0,0,2.71-2Z"/><path d="M141.15,186.7c3.23,0,6,2.2,6,6.61,0,3.62-2.15,6.58-6.17,6.58-4.36,0-6.16-3-6.16-6.58C134.86,188.9,137.65,186.7,141.15,186.7Zm-3.09,6.61c0,2.05.69,4,3,4,2.1,0,3-1.94,3-4,0-2.86-1.41-4-3-4C139.45,189.29,138.06,190.4,138.06,193.31Z"/><path d="M152.32,186.82l.47,2.3a4.76,4.76,0,0,1,4.41-2.42c3,0,4.49,2,4.49,4.61v8.44h-3.06V192.3c0-2-.74-3-2.41-3-2.35,0-3.26,1.9-3.26,4v6.51H149.9V186.82Z"/><path d="M165.66,187V185.2c0-2.64,1.38-4.29,4.25-4.29a6.9,6.9,0,0,1,2.12.32l-.47,2.19c-.1,0-.5-.07-.89-.07-1.36,0-1.92.56-1.92,2.34V187H176v12.8h-3.06V189.41h-4.16v10.34h-3.09V189.41h-2V187Zm8.81-5.16a1.65,1.65,0,0,1,1.8,1.56,1.62,1.62,0,0,1-1.8,1.6,1.64,1.64,0,0,1-1.83-1.63C172.64,182.48,173.28,181.79,174.47,181.79Z"/><path d="M191.21,180.91v18.84h-2.56l-.35-2.22a4.5,4.5,0,0,1-4.11,2.36c-3.48.05-5.55-2.83-5.55-6.63,0-4.64,3-6.56,5.52-6.56a4.09,4.09,0,0,1,4,2.44V181.3Zm-9.42,12.33c0,2.19.87,3.92,3.16,3.92s3.26-1.73,3.26-3.9c0-2.93-1.58-4-3.28-4S181.79,190.4,181.79,193.24Z"/><path d="M205.69,196.19a5.75,5.75,0,0,1-5.57,3.7c-4.34,0-6.26-2.71-6.26-6.75s2.71-6.54,6.43-6.44c3,.07,5.75,2.34,5.45,6.46l-.05.4H197c0,2.19.94,3.69,3.18,3.69a2.87,2.87,0,0,0,2.79-2ZM202.56,192c.05-2-1-2.94-2.54-2.89a2.88,2.88,0,0,0-2.91,2.89Z"/><path d="M210.85,186.82l.47,2.3a4.76,4.76,0,0,1,4.41-2.42c3,0,4.49,2,4.49,4.61v8.44h-3.06V192.3c0-2-.74-3-2.42-3-2.34,0-3.25,1.9-3.25,4v6.51h-3.06V186.82Z"/><path d="M227.3,183.17V187h3.25l-.42,2.46H227.3v5.92c0,1.41.64,1.95,1.68,1.95a5.43,5.43,0,0,0,1.94-.57l.57,2.34a7.94,7.94,0,0,1-3.28.84c-3,0-4-2-4-4.14v-6.34h-1.8V187h1.95l.37-3.43Z"/><path d="M97.35,227.85a68.34,68.34,0,0,0,2.26,33.88,81.51,81.51,0,0,0,15.44,27A88.38,88.38,0,0,0,127,300.4c1.49,1.2,3.62-.91,2.12-2.12-15.47-12.49-27.31-30.61-29.53-50.65a65,65,0,0,1,.69-19c.35-1.89-2.54-2.69-2.89-.8Z"/><path d="M122.78,285.81c1.69,4.63,2.92,9.41,4.25,14.16l1.45-1.9c-2.49.06-5,.24-7.47.34-2.31.1-4.62.1-6.94.2-1.92.09-1.93,3.09,0,3,2.32-.1,4.63-.1,6.94-.2,2.49-.1,5-.28,7.47-.34a1.52,1.52,0,0,0,1.44-1.9c-1.33-4.75-2.56-9.52-4.24-14.16a1.55,1.55,0,0,0-1.85-1.05,1.52,1.52,0,0,0-1,1.85Z"/><path class="cls-8" d="M95.79,61.4A36.74,36.74,0,0,1,104.16,38a34.44,34.44,0,1,0,.11,46.9A36.78,36.78,0,0,1,95.79,61.4ZM87.2,75.66H70.92L71,73.39l4.46-.58c.58,0,.81-.23.81-1,.08-10.05,0-19.6,0-19.6l-5.62,1.08c-.19-.31-1.12-2.46-.46-2.73l10.35-4,1,1s-.12,20.87,0,24.37c0,.77.19,1,.73,1l5.08.54Z"/><circle cx="130" cy="61.53" r="34.44"/><text class="cls-9" transform="translate(118.45 75.26)">2</text><path d="M184,52.13l8.43,15.27V52.13h3.75v21h-4.59L183.3,58.34V73.13h-3.75v-21Z"/><path d="M213.6,68.81a7,7,0,0,1-6.78,4.5c-5.28,0-7.62-3.3-7.62-8.22s3.3-8,7.83-7.83c3.69.09,7,2.85,6.63,7.86l-.06.48H203c0,2.67,1.14,4.5,3.87,4.5a3.5,3.5,0,0,0,3.39-2.49Zm-3.81-5.13c.06-2.43-1.26-3.57-3.09-3.51a3.5,3.5,0,0,0-3.54,3.51Z"/><path d="M219.69,57.41l3.15,6.18,3.3-6.18h4l-4.35,7.8,4.53,7.92h-4.26L222.78,67l-3.45,6.12h-4.14L220,65.27l-4.29-7.86Z"/><path d="M238.11,53v4.59h4l-.51,3h-3.45v7.2c0,1.71.78,2.37,2,2.37a6.83,6.83,0,0,0,2.37-.69l.69,2.85a9.82,9.82,0,0,1-4,1c-3.69,0-4.83-2.46-4.83-5V60.56H232.2v-3h2.37l.45-4.17Z"/><path d="M256.74,57.41V73.13H253V60.5H250.8V57.41Zm-1.89-6.12a2,2,0,0,1,2.22,1.89,2.22,2.22,0,0,1-4.41,0A1.93,1.93,0,0,1,254.85,51.29Z"/><path d="M261,68.63a8.15,8.15,0,0,0,5.1,1.74c1.8,0,2.85-.54,2.85-1.83,0-3.06-9.09-1-8.79-6.78.12-2.82,2.19-4.5,6.36-4.5a12.78,12.78,0,0,1,5.67,1.47l-1.32,2.64a8.9,8.9,0,0,0-4.5-1.29c-1.47,0-2.7.48-2.64,1.71.18,2.49,8.91.57,8.91,6.63,0,3.24-2.91,4.92-6.63,4.89a10.76,10.76,0,0,1-6.45-2Z"/><path d="M286.77,53v4.59h4l-.51,3h-3.45v7.2c0,1.71.78,2.37,2,2.37a6.83,6.83,0,0,0,2.37-.69l.69,2.85a9.82,9.82,0,0,1-4,1c-3.69,0-4.83-2.46-4.83-5V60.56h-2.19v-3h2.37l.45-4.17Z"/><path d="M294.09,58.4A18.74,18.74,0,0,1,300,57.26c4.74,0,6.48,2.34,6.48,6v6.36a.79.79,0,0,0,.75.9,3,3,0,0,0,1.23-.18v2.49a6.08,6.08,0,0,1-2.49.48,2.84,2.84,0,0,1-2.85-2.13,6.87,6.87,0,0,1-4.74,2.13c-3.06,0-5.34-1.56-5.37-4.83s2.46-5,6.39-5a24.49,24.49,0,0,1,3.39.3v-.93c0-1.71-1.08-2.64-3.24-2.61a12.68,12.68,0,0,0-4.86,1Zm8.7,7.35a16.62,16.62,0,0,0-3.06-.18c-1.8.09-2.94.93-3,2.52a2.21,2.21,0,0,0,2.55,2.31,6.17,6.17,0,0,0,3.48-1.26Z"/><path d="M314.79,50.21V64h1.74l3.66-6.45h4.2l-4.71,7.77,5.13,7.86h-4.29l-4-6.09h-1.77v6.09h-3.72V50.66Z"/><path d="M340.59,68.81a7,7,0,0,1-6.78,4.5c-5.28,0-7.62-3.3-7.62-8.22s3.3-8,7.83-7.83c3.69.09,7,2.85,6.63,7.86l-.06.48H330c0,2.67,1.14,4.5,3.87,4.5a3.5,3.5,0,0,0,3.39-2.49Zm-3.81-5.13c.06-2.43-1.26-3.57-3.09-3.51a3.5,3.5,0,0,0-3.54,3.51Z"/><path d="M349.68,63.56v3h-7.44v-3Z"/><path d="M359,57.26c3.93,0,7.35,2.67,7.35,8,0,4.41-2.61,8-7.5,8-5.31,0-7.5-3.6-7.5-8C351.33,59.93,354.72,57.26,359,57.26Zm-3.75,8c0,2.49.84,4.86,3.66,4.86,2.55,0,3.69-2.37,3.69-4.86,0-3.48-1.71-4.89-3.6-4.89C356.91,60.41,355.23,61.76,355.23,65.3Z"/><path d="M370.56,57.56V55.43c0-3.21,1.68-5.22,5.19-5.22a8.28,8.28,0,0,1,3,.54l-.48,2.61a7.71,7.71,0,0,0-1.59-.18c-1.65,0-2.34.69-2.34,2.85v1.53h3.42l-.48,3h-2.94V73.13h-3.75V60.56H368.1v-3Z"/><path d="M381.12,57.56V55.43c0-3.21,1.68-5.22,5.19-5.22a8.28,8.28,0,0,1,3,.54l-.48,2.61a7.71,7.71,0,0,0-1.59-.18c-1.65,0-2.34.69-2.34,2.85v1.53h3.42l-.48,3h-2.94V73.13h-3.75V60.56h-2.46v-3Z"/></svg>