<svg id="Layer_1" data-name="Layer 1" xmlns="http://www.w3.org/2000/svg" viewBox="0 0 780 1051.14"><defs><style>.cls-1{fill:#c6946f;stroke-width:0.23px;}.cls-1,.cls-2,.cls-4,.cls-5,.cls-6,.cls-7{stroke:#fff;stroke-miterlimit:10;}.cls-2,.cls-3,.cls-6,.cls-7{fill:#d4a47c;}.cls-2{stroke-width:0.28px;}.cls-4{fill:#005058;stroke-width:0.54px;}.cls-5{fill:#fff171;stroke-width:0.3px;}.cls-6{stroke-width:0.41px;}.cls-7{stroke-width:0.31px;}.cls-8{font-size:24.66px;}.cls-18,.cls-8{font-family:ABCSansBold, ABCSans;}.cls-9{letter-spacing:-0.01em;}.cls-10{letter-spacing:-0.03em;}.cls-11{letter-spacing:0.01em;}.cls-12{letter-spacing:-0.02em;}.cls-13{letter-spacing:-0.01em;}.cls-14{letter-spacing:-0.02em;}.cls-15{letter-spacing:-0.02em;}.cls-16,.cls-17{fill:#fff;}.cls-16{opacity:0.7;}.cls-17{font-size:38.5px;font-family:ABCSerifBold, ABCSerif;}.cls-18{font-size:30px;}.cls-19{letter-spacing:-0.01em;}.cls-20{letter-spacing:-0.02em;}.cls-21{letter-spacing:-0.01em;}.cls-22{letter-spacing:0em;}</style></defs><path class="cls-1" d="M314.7,524.27l.09.16,16.32,26.48c4.91,8,9.76,16.38,15.72,23.41,10,11.78,16.84,25.78,23.62,40l-.19-.08a.69.69,0,0,1,.28.25c.19.41.39.82.59,1.23l.06.15c1.2,3.33,2.53,10.71,3,12.1,2.39,7.73,5,16,10.2,22.67,5.68,7.29,13.38,12.76,18.8,20.28,3.52,4.87,10,6.24,13.53,11.2,1.53,2.14,4.3,5.07,6.72,6.11,3.3,1.43,7.73,0,4.2-3.74a13.9,13.9,0,0,1-2.6-2.94c-1.55-3,1.06-6.72.41-10.07a10.51,10.51,0,0,0-1.84-3.77c-2.63-3.93-5.68-7.72-8.18-11.69-1.36-2.17-1.6-4.46-2.61-6.73-1.84-4.16-.85-9.19-.59-13.68a19.64,19.64,0,0,0,0-2c-.21-5.55,0-7.48-2.17-9.47a8.5,8.5,0,0,0-6.53-2.06,23.54,23.54,0,0,1-3.84.11l-1.48-.11c-3.45-7.76-9.05-26.54-10.74-32.69-3.65-13.3-6.74-26.59-9.46-40.06a.31.31,0,0,0,0-.08c-.23-.89-8-11.38-8.21-12.28,8.41,6.43,13.74,15.64,23.22,20.74,13.36,7.19,26.92,13.94,40.49,20.73,13.07,6.31,26.65,14.55,41.36,15.78,14,1.18,28-2.44,38.45-10,6.58-4.75,11.81-11.14,13.89-18.64,2.87-10.37,1-36.05-5.29-45.89-14.12-22-34.46-11.06-50-19.49-23-12.5-20.53-10.58-46.1-17.38-13.19-3.51-34-6-48.73-9.93-11.27-3-29.36-7.16-40.95-5.21-13.91.34-30.92,20.41-28.94,34.08.91,6.3,4.31,11.85,5.87,18l.45,1.75a2.25,2.25,0,0,0,.08.24Z"/><path class="cls-2" d="M389.85,375.52c-.25-1.24,9.63,2.39,10.61,1.28s2.31.17,3.35.68c.85.42,1.79.39,2.67.74a8,8,0,0,0,1.91.79,6.44,6.44,0,0,0,4.6-1.12c1.39-1.21,1.39-3.29,2.57-4.62a5.87,5.87,0,0,1,1.92-1.2,2.72,2.72,0,0,1-1-1.43c-1.21-3.9.26-7.76.38-11.69a20.07,20.07,0,0,0-3.58-.26,29.5,29.5,0,0,1-5.62-.56c-1.67-.3-3.2-.1-4.39-1.29-.92-.92-1.19-2.27-2.1-3.18a22.66,22.66,0,0,1-2-1.72,31,31,0,0,1-2.19-3.5c-1.62-2.6-3.51-5.11-5.25-7.64a25.44,25.44,0,0,0-6.89-7,20.45,20.45,0,0,0-9.47-3.11,44.8,44.8,0,0,0-7.77-.18,75.85,75.85,0,0,0-11.16,2c-4.12,1-8.37,3.69-11.67,6.29-2.45,1.93-5.09,3.41-7.36,5.64a26.17,26.17,0,0,0-5.13,8c-1.15,2.48-2.89,4.26-4.57,6.29-.85,1-1.2,2.36-2,3.46a30,30,0,0,0-2.81,4c-1.48,2.82-.79,5.43-.18,8.33.41,1.93,1.42,3.56,1.8,5.51a15.32,15.32,0,0,0,.9,2.73c.41,1,.5,2,.92,3,.2.49.55.8.78,1.29s.05.92.37,1.38a20.28,20.28,0,0,0,2.5,2.17,27.15,27.15,0,0,1,2.72,2.75,3,3,0,0,0,.27.32c-.05.05-.09.19-.09.55a12.64,12.64,0,0,1-.43,2.92c-.46,2.49-.93,2.61-1.18,5.5a28.58,28.58,0,0,0,0,5.42,3.58,3.58,0,0,0,4.59,3.09,1.9,1.9,0,0,1,1.32.05,4.92,4.92,0,0,1,3,2.08,20.4,20.4,0,0,0,1.25,2.91,19.18,19.18,0,0,0,4,4.2c1.27,1,2.29,1,2.68,2.52.28,1.11.51,2.25.74,3.36.44,2.1,1.46,3.9,3.79,4.11a15.74,15.74,0,0,0,10.08-3.27c21.95-19.56,19.67-5.64,29.14-9.74,6.48-2.8,16.31-8,23.14-6"/><path d="M337.32,381.67a10.46,10.46,0,0,1,1.12,0c.22,0,.67,0,.83.21s.08.07,0,.14-.23.06-.31.08a2.22,2.22,0,0,0-.32.14c-.41.2-.79.45-1.2.66-.24.13-.46.27-.7.38-1.52.64-3.31.8-4.75,1.6a7.46,7.46,0,0,0-2.83,3.64c-.42-.33-1.81-1.4-1.63-2,.26-.81,2.24-1.87,2.8-2.54a6.86,6.86,0,0,1,4.17-2.24C335.43,381.64,336.38,381.75,337.32,381.67Z"/><path d="M414.13,353.76c-2.57-.47-5.41-.5-7.89-1.27-7.89-2.45-11-11.82-17.11-17.41-5-4.6-12.07-6.49-18.87-6.33s-13.41,2.2-19.75,4.65c-5.88,2.27-11.7,5-16.43,9.13-3.18,2.8-11.19,12.35-8.08,17s13.37,3.38,17.51,8c2.1,2.32,3.09,5.59,5.57,7.5a25.82,25.82,0,0,0,4.16,2.21c2.53,1.3,4.71,3.25,7.32,4.38s6,1.22,8-.87a11.59,11.59,0,0,1-1.73-5.79c.09-2,1.4-1.89,3.42-2.19,2.77-.41,4.89.3,5.54,3s.69,5.8,2.55,7.9c2,2.26,5.38,2.55,8.4,2.69,5.2.22,14-2.87,19.2-2.64,1.07-2.93,1.24-1.87,2.49-4.74.94-2.16-3.35-3.56-1-4.05A19.35,19.35,0,0,0,418.42,368c2.57-3.3,3.88-8.32,1.2-11.53A8.78,8.78,0,0,0,414.13,353.76Z"/><path d="M325.88,360.49l.59-.76-.17-.14A3.08,3.08,0,0,0,325.88,360.49Z"/><path d="M402.53,360.33a7.39,7.39,0,0,0,1.1-3.37,12.59,12.59,0,0,1,1.56-3.86,6.39,6.39,0,0,1,3.5-3.13,7,7,0,0,1,4.2,0,6.81,6.81,0,0,1,3.28,1.9c.75,1.12.78,3.34,1.1,4.65a7,7,0,0,1-1,4.67,6.33,6.33,0,0,1-3.47,3.44,20.61,20.61,0,0,1-11.07-.35c-1.77-.47-3.14-2.57-3.87-4.18s-1.44-4.49-1-6.26c.82-3.39,5.05-4.34,8-4.3,1.78,0,3.56.23,4.72,1.76a10.22,10.22,0,0,1,1.62,4.32,19.14,19.14,0,0,1,.78,5.19,6.79,6.79,0,0,1-.35,2.74,23.27,23.27,0,0,0-1.21,2.84,8.59,8.59,0,0,1-1.67,3.05,3.39,3.39,0,0,1-2.32,1.28,10.81,10.81,0,0,1-3.16.25c-.67,0-1.3-.33-2-.43-1.14-.16-1.16-.21-1.51-1.45"/><path d="M404.21,355.36c-.9-1.2-.67-2.53-.34-3.87a6.49,6.49,0,0,0,.26-1.42,1.94,1.94,0,0,1,1-1.74c1.57-1.11,3.85-1,5.65-1a6.7,6.7,0,0,1,2.28.21c.68.23,1.24.71,1.9.93a4.67,4.67,0,0,1,1.15.31c.38.23.62.62,1,.85s.67.26,1,.67a9.73,9.73,0,0,1,.7,1.1,5.13,5.13,0,0,1,.95,2.15,13.48,13.48,0,0,1,0,2.46,5.86,5.86,0,0,1-.26,1.08c-.12.45-.07.91-.19,1.35a6.55,6.55,0,0,1-2.25,2.88c-1.72,1.57-4.41,2-6.64,2.41a12,12,0,0,1-5.26-.26,29.29,29.29,0,0,1-2.73-1.09,10.32,10.32,0,0,1-2.45-1.2,8.76,8.76,0,0,1-2-2.2,19.59,19.59,0,0,1-1.7-2.75,6.46,6.46,0,0,1-.4-3.11,9.08,9.08,0,0,0,.32-1.65,6,6,0,0,1,0-1.74,6.88,6.88,0,0,1,3.46-4.8,20.89,20.89,0,0,1,4.15-1.79c.93-.24,1.89-.41,2.83-.63a6.26,6.26,0,0,1,3.07.09,4.28,4.28,0,0,1,1.68.69,5.23,5.23,0,0,1,1.41,1c1,1.39.81,3,1.48,4.49a5.41,5.41,0,0,1,.43.83c.14.48.22,1,.33,1.48a11.15,11.15,0,0,1,.41,2.41,7.11,7.11,0,0,1-.47,2.73,3.75,3.75,0,0,1-2.19,2.2,10.29,10.29,0,0,1-3.62,1.35,13.56,13.56,0,0,1-5.11-.44A10.37,10.37,0,0,1,399.4,357a11.36,11.36,0,0,1-1.92-1.94,11.79,11.79,0,0,1-.89-2.3c-.57-1.65.11-3.47.54-5.06.09-.31.16-1.11.4-1.35s.7-.18.94-.24"/><path d="M402.11,374.56c-.91-1.2-.67-2.53-.35-3.87a6,6,0,0,0,.27-1.42,1.93,1.93,0,0,1,1-1.74c1.57-1.11,3.86-1,5.66-1a6.46,6.46,0,0,1,2.28.2c.67.23,1.24.71,1.9.93a4.79,4.79,0,0,1,1.15.31c.38.24.62.62,1,.85s.68.26,1,.67a8.5,8.5,0,0,1,.7,1.1,5.15,5.15,0,0,1,1,2.15,14.44,14.44,0,0,1,0,2.46,5.69,5.69,0,0,1-.27,1.08c-.12.45-.07.91-.18,1.35a6.46,6.46,0,0,1-2.26,2.88c-1.72,1.57-4.4,2-6.64,2.41a11.9,11.9,0,0,1-5.25-.26c-.95-.3-1.82-.7-2.74-1.09a10.32,10.32,0,0,1-2.45-1.2,8.72,8.72,0,0,1-2-2.2,19.66,19.66,0,0,1-1.71-2.75,6.46,6.46,0,0,1-.4-3.11,8.3,8.3,0,0,0,.32-1.65,6,6,0,0,1,0-1.74,6.89,6.89,0,0,1,3.45-4.8,22,22,0,0,1,4.15-1.79c.94-.24,1.89-.41,2.83-.63a6.25,6.25,0,0,1,3.07.09,4.43,4.43,0,0,1,1.68.69,5.28,5.28,0,0,1,1.42,1c1,1.39.81,3,1.47,4.49a6,6,0,0,1,.44.83c.14.48.21,1,.32,1.48a10.57,10.57,0,0,1,.41,2.42,7.05,7.05,0,0,1-.46,2.72,3.77,3.77,0,0,1-2.19,2.2A10.29,10.29,0,0,1,407.1,379a13.61,13.61,0,0,1-5.12-.44,10.51,10.51,0,0,1-4.69-2.28,6.52,6.52,0,0,1-2.81-4.24c-.56-1.66.12-3.48.55-5.07.08-.31.16-1.11.4-1.35s.69-.18.94-.24"/><path class="cls-2" d="M366.15,383c-4.94-2.46-1.22-10.48,2.82-11.5a6.87,6.87,0,0,1,8,4.7c.92,3.42-1,7.08-.3,10.55.37,1.84,1.46,3.63,1,5.46s-3.74,2.43-3.84.56"/><path class="cls-3" d="M382,388.76c-.8,3.58,5.88,17.76,6.45,21.34.5,3.15,2.23,6,3.49,8.94.92,2.12,2.53,3.74,3.55,5.82.58,1.21,1.44,2.15,2,3.4a10.09,10.09,0,0,0,1.73,2.57c1.28,1.49,2.46,3,3.72,4.53.78.91,1.71,1.7,2.42,2.66,2,2.79,4.7,5,7.07,7.48,2.11,2.25,4.28,4.47,6.18,6.85,1.48,1.84,3.38,3,5.17,4.46a9.47,9.47,0,0,0,3.66,2.32,17,17,0,0,1,2.78,1.7,25.76,25.76,0,0,0,3.42,1.33c2.92,1.12,5.79,2.36,8.7,3.51,4.31,1.72,8.21,4.41,12.34,6.51,3.62,1.85,7.3,3.63,10.81,5.69,5,2.91,10.21,5.15,15.28,7.86,8,4.26,16.52,6.93,25.18,9.34a58.37,58.37,0,0,0,7.45,2c2.4.33,8.53,15.89,10.93,15.72,9.82-.69.15-23-1.58-27.27q-1.05-2.64-2-5.34c-5-14.14-8.14-29-14.95-42.45a129,129,0,0,0-23.92-32.39A105.82,105.82,0,0,0,467,393.12c-4.38-3-10.62-8.08-15.86-9.22-4.06-.88-8.15-1.63-12.17-2.45a67.65,67.65,0,0,0-12.25-1.78c-3.27-.06-6.43-.41-9.66.25a82.08,82.08,0,0,1-8,1.75c-1.89.19,4.05-1.06,2.19-.35"/><path class="cls-4" d="M429.77,492.38a33.94,33.94,0,0,1,7.75,15.94,23.66,23.66,0,0,1,.34,4.44c0,1-.16,1,.67,1.53a9.67,9.67,0,0,0,2,.7c.78.23,2.25-19.17,3.05-19.12,18.31,1.23,34.73,10,49.24,20.7,7.15,5.28,15.52,11,21.44,17.69,5.67,6.37,6,14.19,7.54,22.48a50,50,0,0,1,.33,17.6c-.07.38-.17.74-.26,1.1,1.57-1.83,3.23-3.57,4.73-5.46a34,34,0,0,0,4.23-7.36c2.34-5.19,2-7.85,3.35-13.37A66.56,66.56,0,0,0,535.42,529,84.43,84.43,0,0,0,531,508.93c-.44-1.28-2.57-8.49-3.35-9.58-1-1.36-3.92-3-5.26-4-19.44-14.34-32.28-36.13-49.06-53.7a5.31,5.31,0,0,0-2.65-1.8,5.07,5.07,0,0,0-2.85.62,162.25,162.25,0,0,1-45,12.3,7.8,7.8,0,0,1-3.87-.21,3,3,0,0,1-1.93-3.15q-.54,4.95-1.33,9.86"/><path d="M413.72,379c1.49-1,3.21-1.31,4.69-2.31a16.55,16.55,0,0,0,3.47-3.84,5.88,5.88,0,0,0,1.13-4.77c-.26-1.83-.57-3.68-2-4.86-3.16-2.55-6.49-3.62-10.59-2.53-1.36.36-10.77,3.71-7.92,6.07"/><path class="cls-5" d="M469,440.34l.42-.09a4.21,4.21,0,0,1,.87,0,1.19,1.19,0,0,1,.32.05,4.75,4.75,0,0,1,.73.23,1.8,1.8,0,0,1,.48.24,1.48,1.48,0,0,1,.52.44c.15.15.3.3.43.45s.12.17.18.25c1.9-7.43,1.71-16.63-.71-27.26A124.94,124.94,0,0,0,465,393s-1-2.59-.8-2c-2.9-1.88-3.59-2.57-6.24-4,.39.94,1.36,3.57,1.71,4.43.5,1.22.95,2.34,1.37,3.3a119.18,119.18,0,0,1,7,20.87c1.68,7.38,2.83,16.74.87,24.84Z"/><path class="cls-6" d="M403.85,398.78a19.24,19.24,0,0,0-13.77,6.81,19.73,19.73,0,0,0-4,8.51,46,46,0,0,0,1.31,24.55c2.6,7.25,5.25,13.44,11.1,18.52A58.38,58.38,0,0,1,409.17,469,63.59,63.59,0,0,1,416,483.12a63.73,63.73,0,0,0,5.89,12.56c-27,10.67-44.81,27.45-68.57,38.19-4.5-1-8.85-2.6-13.28-3.84a86.92,86.92,0,0,0-8.51-2.3c-3-.53-5.13.1-8,.59-2.46.43-3.64,2.12-6.14,1.92a3.05,3.05,0,0,0-.8,0c-.29,0-.61,0-.9.07A3.77,3.77,0,0,0,314,531a1.57,1.57,0,0,0-.4.32,6.8,6.8,0,0,0-.3.67,3.51,3.51,0,0,1-1.86,2.23,25.79,25.79,0,0,1-2.29,1.5,10.41,10.41,0,0,0-2.4,1.4c-.41.42,0,.9.3,1.35a2.5,2.5,0,0,0,.66.59l.87.6c.5.1,1,.21,1.48.33l.21.09a10.59,10.59,0,0,0,2.05-.36c.76-.19,1.52-.41,2.27-.65.05,0,6.41-2.65,6.46-2.67-.3.13-6.92,2.89-7.24,3a10.45,10.45,0,0,1-2,.57c-.49.08-1,.08-1.51.15a.7.7,0,0,1,.3.66,3.9,3.9,0,0,0,1.26,3.4c.88.85,1.84,1.59,2.65,2.52a.72.72,0,0,1,0,.85,2.7,2.7,0,0,0-.29,3.43,7.38,7.38,0,0,0,3,2.21.79.79,0,0,1,.22.19l5.35-.58c-.09,0,6.11-.9,2.68-.21l-7.93.94a.6.6,0,0,1-.05.74,1.78,1.78,0,0,0-.32,2.06c.81,1.46,1.34,1,2,1.51a2.63,2.63,0,0,1,1.2,2.26,1.73,1.73,0,0,0,.63,1.74,7.2,7.2,0,0,0,1.21.7c.85-.1,1.67-.28,2.54-.33,1.87-.12,3.61-.78,5.45-1.06,2-.3,4.07-.46,6.09-.77.77-.11,1.55-.23,2.32-.4,4.56-1,8.68-3.61,12.74-5.74a14.44,14.44,0,0,1,1.25-.77,17.91,17.91,0,0,0,2.32-1.41c11.89-1.75,23.78-3.55,35.14-6.69,16.45-4.55,32.32-12,45.79-22.72.56-.44,1.11-.9,1.63-1.37,2.9-2.58,5.32-5.48,8.07-8.27,1.86-1.88,3.23-4.27,5.27-5.35a11.78,11.78,0,0,0,4.79-4.55c3.16-5.55,1.22-12.51-.94-18.53-4.35-12.15-8-39.55-14.37-50.78"/><path class="cls-7" d="M317.18,534.37a3.15,3.15,0,0,0-.28-1.33c-.15-.28-.33-.57-.51-.84s-.24-.48-.37-.72c-.21-.4-.17-.81-.74-1"/><path class="cls-7" d="M315.23,534.43a7,7,0,0,1-1.31-1.18c-.14-.13-.28-.26-.41-.4s-.26-.44-.44-.58"/><path class="cls-7" d="M310.75,535c1.22-.65.77.76.54,1.26-.51,1.11-1.56,3.46-3.57,2.64"/><path class="cls-7" d="M319.31,558.15a33.82,33.82,0,0,0,5.51-1,6.17,6.17,0,0,0,.95-.2c.34-.12,2.88-.67,3.24-.75.54-.12-9.36,2.28-8.81,2.25"/><path class="cls-7" d="M314,546.44c.69-.05,2.21-.37,2.9-.49l7.79-1.05c.41,0-10.51,1.8-10.1,1.77"/><path class="cls-5" d="M445.51,382.69l-4.21-1c-1.26-.28-2.53-.43-3.8-.66a97.84,97.84,0,0,0-39.75,17.19,24.42,24.42,0,0,0-6.42,6.36,13.83,13.83,0,0,1,4.48-3.43,14.11,14.11,0,0,1,3.26-1.51,16.5,16.5,0,0,1,5.35-.92c2.35-1.54,4.74-3,7.19-4.36a96.17,96.17,0,0,1,31.64-10.18c2-.29,4.16-.51,6.14-.7C448.6,383.31,446.55,382.94,445.51,382.69Z"/><text class="cls-8" transform="translate(542.32 205.54)"><tspan class="cls-9">H</tspan><tspan x="16.25" y="0">ead must s</tspan><tspan class="cls-9" x="142.16" y="0">t</tspan><tspan class="cls-10" x="151.96" y="0">a</tspan><tspan x="165.35" y="0">y</tspan><tspan x="2.21" y="33.91">a </tspan><tspan class="cls-11" x="21.52" y="33.91">s</tspan><tspan x="34.07" y="33.91">a</tspan><tspan class="cls-12" x="48.23" y="33.91">f</tspan><tspan x="56.3" y="33.91">e dis</tspan><tspan class="cls-9" x="110.33" y="33.91">t</tspan><tspan x="120.13" y="33.91">ance </tspan><tspan x="2.6" y="67.83">f</tspan><tspan class="cls-13" x="11.28" y="67.83">r</tspan><tspan x="21.4" y="67.83">om the boa</tspan><tspan class="cls-14" x="151.4" y="67.83">r</tspan><tspan x="161.36" y="67.83">d</tspan></text><path d="M699.81,618.27c3.6,3.38,6.85,7.09,10.18,10.73l.3-2.36c-2.2,1.18-4.33,2.47-6.51,3.68-2,1.13-4.09,2.17-6.1,3.3a1.5,1.5,0,0,0,1.51,2.59c2-1.13,4.08-2.17,6.1-3.3,2.18-1.21,4.32-2.5,6.51-3.68a1.51,1.51,0,0,0,.31-2.35c-3.33-3.64-6.58-7.35-10.17-10.73-1.41-1.32-3.54.8-2.13,2.12Z"/><path d="M633.29,615.27c-3.6,3.38-6.85,7.09-10.18,10.72a1.52,1.52,0,0,0,.31,2.36c2.19,1.18,4.33,2.46,6.51,3.68,2,1.12,4.08,2.16,6.1,3.3a1.5,1.5,0,0,0,1.51-2.59c-2-1.14-4.08-2.18-6.1-3.3-2.17-1.22-4.31-2.5-6.51-3.68l.31,2.35c3.32-3.63,6.57-7.34,10.17-10.72,1.41-1.32-.72-3.44-2.12-2.12Z"/><path d="M709.47,625.73c-2.45-.18-4.89-.52-7.34-.74-2.65-.24-5.3-.24-8-.24-5.37,0-10.74,0-16.11,0H628a1.5,1.5,0,0,0,0,3c21.39,0,42.79.05,64.18,0,2.93,0,5.88-.07,8.81.15s5.64.62,8.48.83c1.92.14,1.91-2.86,0-3Z"/><path d="M97.35,227.85a68.34,68.34,0,0,0,2.26,33.88,81.51,81.51,0,0,0,15.44,27A88.38,88.38,0,0,0,127,300.4c1.49,1.2,3.62-.91,2.12-2.12-15.47-12.49-27.31-30.61-29.53-50.65a65,65,0,0,1,.69-19c.35-1.89-2.54-2.69-2.89-.8Z"/><path d="M122.78,285.81c1.69,4.63,2.92,9.41,4.25,14.16l1.45-1.9c-2.49.06-5,.24-7.47.34-2.31.1-4.62.1-6.94.2-1.92.09-1.93,3.09,0,3,2.32-.1,4.63-.1,6.94-.2,2.49-.1,5-.28,7.47-.34a1.52,1.52,0,0,0,1.44-1.9c-1.33-4.75-2.56-9.52-4.24-14.16a1.55,1.55,0,0,0-1.85-1.05,1.52,1.52,0,0,0-1,1.85Z"/><text class="cls-8" transform="translate(70.61 165.83)">It must be bo<tspan class="cls-15" x="150.8" y="0">l</tspan><tspan x="158.22" y="0">d, high </tspan><tspan x="0" y="33.91">and confident</tspan></text><path d="M97.35,227.85a68.34,68.34,0,0,0,2.26,33.88,81.51,81.51,0,0,0,15.44,27A88.38,88.38,0,0,0,127,300.4c1.49,1.2,3.62-.91,2.12-2.12-15.47-12.49-27.31-30.61-29.53-50.65a65,65,0,0,1,.69-19c.35-1.89-2.54-2.69-2.89-.8Z"/><path d="M122.78,285.81c1.69,4.63,2.92,9.41,4.25,14.16l1.45-1.9c-2.49.06-5,.24-7.47.34-2.31.1-4.62.1-6.94.2-1.92.09-1.93,3.09,0,3,2.32-.1,4.63-.1,6.94-.2,2.49-.1,5-.28,7.47-.34a1.52,1.52,0,0,0,1.44-1.9c-1.33-4.75-2.56-9.52-4.24-14.16a1.55,1.55,0,0,0-1.85-1.05,1.52,1.52,0,0,0-1,1.85Z"/><path class="cls-16" d="M95.79,61.4A36.74,36.74,0,0,1,104.16,38a34.44,34.44,0,1,0,.11,46.9A36.78,36.78,0,0,1,95.79,61.4ZM87.2,75.66H70.92L71,73.39l4.46-.58c.58,0,.81-.23.81-1,.08-10.05,0-19.6,0-19.6l-5.62,1.08c-.19-.31-1.12-2.46-.46-2.73l10.35-4,1,1s-.12,20.87,0,24.37c0,.77.19,1,.73,1l5.08.54Z"/><circle cx="130" cy="61.53" r="34.44"/><text class="cls-17" transform="translate(118.45 75.26)">2</text><text class="cls-18" transform="translate(177.42 73.13)"><tspan class="cls-19">N</tspan><tspan class="cls-20" x="20.46" y="0">e</tspan><tspan x="36.84" y="0">xt is </tspan><tspan class="cls-19" x="102.6" y="0">t</tspan><tspan x="114.51" y="0">a</tspan><tspan class="cls-21" x="131.73" y="0">k</tspan><tspan class="cls-22" x="147.45" y="0">e-off</tspan></text></svg>