<svg id="Layer_1" data-name="Layer 1" xmlns="http://www.w3.org/2000/svg" viewBox="0 0 780 1051.14"><defs><style>.cls-1,.cls-2{fill:#fff;}.cls-1{opacity:0.7;}.cls-3{fill:#fff171;stroke-width:0.3px;}.cls-3,.cls-4,.cls-5,.cls-7,.cls-8,.cls-9{stroke:#fff;stroke-miterlimit:10;}.cls-4{fill:#c6946f;stroke-width:0.23px;}.cls-5,.cls-6,.cls-8,.cls-9{fill:#d4a47c;}.cls-5{stroke-width:0.28px;}.cls-7{fill:#005058;stroke-width:0.54px;}.cls-8{stroke-width:0.41px;}.cls-9{stroke-width:0.31px;}</style></defs><path class="cls-1" d="M148.79,61.4a36.73,36.73,0,0,1,8.33-23.32,34.4,34.4,0,0,0-45.48-4.38A34.43,34.43,0,0,0,131.9,96a34.33,34.33,0,0,0,25.32-11.11A36.76,36.76,0,0,1,148.79,61.4ZM138,75.49s-3.7-.27-11.47-.27a25.63,25.63,0,0,0-4.93.31l-1.35-2.46c7.78-7.9,12.4-13.63,13-18.71.47-3.66-2-4.82-4.35-4.66a9.73,9.73,0,0,0-6.73,3.92c-.2-.23-1.93-2.07-1.47-2.65A12.43,12.43,0,0,1,130,46.12c5.89,0,9.09,3,8.74,8.51-.46,7-8,13.59-12.63,17.55l8.32-.08c1.77-.15,3-2.54,3.81-4.73,0,0,1.73.5,2,1C139.58,71.53,138.81,75.49,138,75.49Z"/><path class="cls-1" d="M95.79,61.4A36.74,36.74,0,0,1,104.16,38a34.44,34.44,0,1,0,.11,46.9A36.78,36.78,0,0,1,95.79,61.4ZM87.2,75.66H70.92L71,73.39l4.46-.58c.58,0,.81-.23.81-1,.08-10.05,0-19.6,0-19.6l-5.62,1.08c-.19-.31-1.12-2.46-.46-2.73l10.35-4,1,1s-.12,20.87,0,24.37c0,.77.19,1,.73,1l5.08.54Z"/><circle cx="184" cy="61.53" r="34.44"/><path class="cls-2" d="M187.93,59.13c3.47.62,5.47,2.93,5.66,6.7.31,6-4.58,9.66-11.24,9.66a15.64,15.64,0,0,1-7.86-2.19l1-2.89a21.48,21.48,0,0,0,7,1.66c3.35,0,5.51-1.74,5.55-5.24,0-2.46-1.43-4.35-4.47-4.74a17.82,17.82,0,0,0-5,.24c-.5.11-.89-3-.42-3.08,3-.54,7.62-1.08,8.39-4.89.73-3.62-2-4.82-4.35-4.66A8.43,8.43,0,0,0,176,52.82c-.2-.24-1.7-2.12-1-3a10.4,10.4,0,0,1,8.16-3.69c5.89,0,9.12,3,8.74,8.51A6,6,0,0,1,187.93,59.13Z"/><path class="cls-3" d="M475.31,329.8a102.16,102.16,0,0,1-3.55-10.15,96.15,96.15,0,0,1,.19,24.56c-1.11,9.89-3.41,19.85-7.6,28.27a39.44,39.44,0,0,1-3.5,5.81,27.65,27.65,0,0,1-2.1,2.55c-1.15,1.25-.67,3.14-1.14,4.86-.6,2.17,2,3.1,2.62.95a13.35,13.35,0,0,0,.43-3.28c5.42-5.89,8.87-14.5,11.13-23.11a111.4,111.4,0,0,0,3.53-30.07C475.32,330.06,475.31,329.93,475.31,329.8Z"/><path class="cls-4" d="M319.67,449.35c0,.06,0,.12,0,.18l0,31.11c0,9.36-.3,19.06,1.07,28.17,2.31,15.28.79,30.79-.92,46.46l-.13-.17a.76.76,0,0,1,.11.35l-.15,1.37,0,.15c-.73,3.47-3.47,10.44-3.84,11.86-2,7.83-4.14,16.3-3.23,24.64,1,9.19,4.67,17.89,5.34,27.14.43,6,5.21,10.55,5.62,16.63.18,2.62,1,6.58,2.51,8.74,2,2.94,6.57,4.06,5.54-1a13.68,13.68,0,0,1-.67-3.87c.28-3.4,4.43-5.15,5.64-8.35a10.46,10.46,0,0,0,.41-4.17c-.16-4.73-.77-9.56-.81-14.24,0-2.57,1-4.65,1.32-7.1.62-4.51,4.1-8.27,6.69-11.95.39-.56.73-1.14,1.06-1.73,2.74-4.83,3.94-6.36,3.13-9.2a8.52,8.52,0,0,0-4.47-5.19,21.7,21.7,0,0,1-3.32-1.91l-1.21-.87c1.14-8.43,6.25-27.35,8-33.46,3.88-13.24,8.24-26.17,13-39.05l0-.08c.27-.89-.8-13.88-.53-14.76,3.77,9.88,3.46,20.52,8.85,29.84,7.59,13.14,15.58,26,23.55,38.91,7.81,12.25,15,26.39,26.9,35.17,11.32,8.38,25.13,12.65,37.95,11.72,8.1-.58,15.91-3.27,21.61-8.56,7.9-7.31,19.82-30.13,19.62-41.82-.44-26.14-23.51-27.52-32.29-42.86-13-22.72-11.92-19.79-30.1-39-9.37-9.92-25.81-23-36.23-34.06-8-8.49-21.22-21.52-32.11-25.95-12-7-37,1.11-42.53,13.78-2.53,5.84-2.56,12.35-4.46,18.39l-.54,1.72a2.38,2.38,0,0,0-.05.26Z"/><path class="cls-5" d="M461.78,362.29c.44-1.19,6.93,7.1,8.35,6.67s1.88,1.35,2.49,2.33c.51.81,1.32,1.28,1.89,2a7.86,7.86,0,0,0,1.2,1.67,6.51,6.51,0,0,0,4.51,1.47c1.82-.3,2.91-2.07,4.61-2.58a6,6,0,0,1,2.27,0,2.65,2.65,0,0,1-.09-1.73c1-4,4.3-6.46,6.46-9.75a20.06,20.06,0,0,0-2.9-2.1,29.3,29.3,0,0,1-4.49-3.43c-1.26-1.13-2.67-1.77-3.06-3.41-.29-1.26.19-2.55-.11-3.8a21.27,21.27,0,0,1-.77-2.5,31.78,31.78,0,0,1,0-4.14c0-3.06-.3-6.18-.45-9.25a25.35,25.35,0,0,0-2.17-9.59,20.36,20.36,0,0,0-6.43-7.62,44.66,44.66,0,0,0-6.51-4.25A76.74,76.74,0,0,0,456,308.13c-4.05-1.29-9.06-1.26-13.23-.78-3.1.35-6.12.22-9.22.92a26.11,26.11,0,0,0-8.56,4.09c-2.28,1.51-4.7,2.11-7.19,2.95-1.26.43-2.26,1.38-3.56,1.87a29.56,29.56,0,0,0-4.51,2c-2.74,1.61-3.53,4.2-4.53,7-.66,1.86-.66,3.78-1.36,5.65a14.55,14.55,0,0,0-.67,2.79c-.18,1.06-.63,2-.8,3-.09.52.05,1,0,1.51s-.44.8-.41,1.37a21.19,21.19,0,0,0,1,3.15,26.35,26.35,0,0,1,.87,3.77,3.38,3.38,0,0,0,.06.42c-.06,0-.18.11-.36.42a12.79,12.79,0,0,1-1.9,2.26c-1.7,1.88-2.17,1.73-3.89,4.06a28.31,28.31,0,0,0-2.84,4.61,3.57,3.57,0,0,0,2.28,5,1.92,1.92,0,0,1,1.1.74,4.93,4.93,0,0,1,1.43,3.34,20.87,20.87,0,0,0-.47,3.13,19.23,19.23,0,0,0,1.23,5.69c.58,1.49,1.43,2.05,1,3.56-.34,1.09-.75,2.18-1.13,3.25-.73,2-.81,4.08,1.06,5.49a15.81,15.81,0,0,0,10.3,2.51c28.95-5.1,19.69,5.54,29.91,7,7,1,18.08,1.76,22.86,7"/><path d="M413.85,339.92c.33.17.65.38,1,.58s.56.37.59.61,0,.1-.08.12-.23-.08-.31-.1a1.86,1.86,0,0,0-.34-.05c-.46,0-.92,0-1.37-.06a7.18,7.18,0,0,1-.8-.06c-1.63-.25-3.23-1.06-4.88-1.13a7.48,7.48,0,0,0-4.32,1.62c-.18-.51-.81-2.15-.35-2.54.65-.55,2.88-.41,3.72-.68a6.79,6.79,0,0,1,4.72.27C412.26,338.9,413,339.49,413.85,339.92Z"/><path d="M493.88,356.54c-1.95-1.75-4.35-3.27-6.05-5.23-5.43-6.23-3.17-15.85-5.41-23.81-1.85-6.54-6.86-11.86-12.72-15.3s-12.57-5.17-19.25-6.42c-6.2-1.16-12.57-1.93-18.78-.86-4.18.71-16,4.62-15.83,10.24s9.6,9.91,10.71,16c.57,3.07-.3,6.38.8,9.3a25.6,25.6,0,0,0,2.38,4.07c1.47,2.44,2.3,5.24,3.93,7.58s4.48,4.2,7.22,3.44a11.84,11.84,0,0,1,1.57-5.84c1.15-1.68,2.19-.87,4.06-.06,2.58,1.1,4,2.83,3.12,5.49s-2.46,5.3-2,8.06c.52,3,3.24,5,5.74,6.7,4.3,2.93,13.42,4.92,17.72,7.85,2.45-1.93,2-1,4.6-2.73,1.94-1.34-1-4.78,1.25-4a19.33,19.33,0,0,0,13.06-.08c3.92-1.46,7.67-5,7.08-9.18A8.82,8.82,0,0,0,493.88,356.54Z"/><path d="M415.25,315.89l.91-.34c0-.07-.06-.14-.08-.21A3,3,0,0,0,415.25,315.89Z"/><path d="M480.55,356a7.56,7.56,0,0,0,2.71-2.29,12.57,12.57,0,0,1,3.35-2.46,6.45,6.45,0,0,1,4.63-.83,7.06,7.06,0,0,1,3.55,2.25,6.65,6.65,0,0,1,1.79,3.33c.05,1.36-1.09,3.26-1.51,4.54a7,7,0,0,1-3.28,3.47,6.27,6.27,0,0,1-4.76,1.09,20.69,20.69,0,0,1-9.24-6.11c-1.25-1.33-1.31-3.83-1.08-5.59s1.13-4.57,2.42-5.86c2.47-2.46,6.57-1,9.07.55,1.5,1,2.91,2.07,3.09,4a10.12,10.12,0,0,1-.89,4.52,18.84,18.84,0,0,1-2.07,4.83,6.9,6.9,0,0,1-1.73,2.15,21.17,21.17,0,0,0-2.53,1.78,8.45,8.45,0,0,1-3,1.71,3.39,3.39,0,0,1-2.65-.12,11,11,0,0,1-2.81-1.45c-.55-.39-.93-1-1.45-1.4-.89-.73-.87-.78-.52-2"/><path d="M484.59,352.69c-.14-1.5.76-2.51,1.74-3.48a6.62,6.62,0,0,0,1-1.06,2,2,0,0,1,1.78-1c1.91-.11,3.81,1.17,5.35,2.1a6.7,6.7,0,0,1,1.83,1.37c.45.55.68,1.26,1.13,1.79.26.32.62.47.81.86s.2.86.43,1.27a2.47,2.47,0,0,1,.51,1.1,9.4,9.4,0,0,1,0,1.3,5.14,5.14,0,0,1-.31,2.34,15.21,15.21,0,0,1-1.31,2.09,6.48,6.48,0,0,1-.79.78c-.34.31-.54.73-.86,1a6.48,6.48,0,0,1-3.44,1.27c-2.29.44-4.8-.6-6.91-1.44a12.07,12.07,0,0,1-4.34-3c-.65-.76-1.18-1.56-1.75-2.37a10.65,10.65,0,0,1-1.46-2.3,9,9,0,0,1-.58-3,19.35,19.35,0,0,1,0-3.23,6.42,6.42,0,0,1,1.29-2.86,7.92,7.92,0,0,0,1.14-1.24,6,6,0,0,1,.94-1.46,6.91,6.91,0,0,1,5.47-2.27,21.73,21.73,0,0,1,4.47.66c.92.29,1.82.64,2.74.95A6.21,6.21,0,0,1,496,344.7a4.32,4.32,0,0,1,1.07,1.47,5.37,5.37,0,0,1,.66,1.62c.09,1.69-.91,3-1.1,4.59a6,6,0,0,1-.07.94c-.13.48-.34,1-.5,1.43a11.25,11.25,0,0,1-.92,2.27,7.24,7.24,0,0,1-1.83,2.07,3.74,3.74,0,0,1-3,.73,10.37,10.37,0,0,1-3.79-.76A13.47,13.47,0,0,1,482.4,356a10.45,10.45,0,0,1-2.79-4.41,6.5,6.5,0,0,1-.16-5.08c.39-1.71,1.92-2.9,3.13-4,.23-.22.71-.86,1-.93s.69.2.93.28"/><path d="M472.71,367.92c-.14-1.5.76-2.51,1.74-3.48a6.62,6.62,0,0,0,1-1.06,2,2,0,0,1,1.78-1c1.91-.11,3.8,1.17,5.35,2.1a6.7,6.7,0,0,1,1.83,1.37c.45.55.68,1.26,1.13,1.79.26.32.62.47.81.86s.2.86.43,1.27a2.47,2.47,0,0,1,.51,1.1,9.4,9.4,0,0,1,0,1.3,5.15,5.15,0,0,1-.32,2.34,14.24,14.24,0,0,1-1.3,2.09,7.28,7.28,0,0,1-.79.78c-.34.31-.54.73-.86,1a6.48,6.48,0,0,1-3.44,1.27c-2.29.44-4.81-.6-6.91-1.44a12,12,0,0,1-4.34-3c-.65-.76-1.18-1.56-1.75-2.37a10.65,10.65,0,0,1-1.46-2.3,9,9,0,0,1-.58-2.95,20.5,20.5,0,0,1,0-3.23,6.55,6.55,0,0,1,1.3-2.86,7.92,7.92,0,0,0,1.14-1.24,6,6,0,0,1,.94-1.46,6.91,6.91,0,0,1,5.47-2.27,21.54,21.54,0,0,1,4.46.66c.93.29,1.83.64,2.75.95a6.21,6.21,0,0,1,2.56,1.69,4.32,4.32,0,0,1,1.07,1.47,5.37,5.37,0,0,1,.66,1.62c.09,1.69-.91,3-1.11,4.59a6,6,0,0,1-.06.94c-.13.48-.34,1-.51,1.43a11.22,11.22,0,0,1-.91,2.27,7.24,7.24,0,0,1-1.83,2.07,3.74,3.74,0,0,1-3,.73,10.37,10.37,0,0,1-3.79-.76,13.35,13.35,0,0,1-4.12-3.06,10.45,10.45,0,0,1-2.79-4.41,6.39,6.39,0,0,1-.16-5.08c.39-1.71,1.92-2.9,3.12-4,.24-.22.72-.86,1.05-.93s.69.2.93.28"/><path class="cls-5" d="M437.7,356.18c-2.92-4.69,4.46-9.55,8.44-8.3a6.86,6.86,0,0,1,4.33,8.19c-1,3.4-4.57,5.51-5.81,8.83-.65,1.75-.66,3.85-2,5.18s-4.46.1-3.56-1.54"/><path class="cls-6" d="M448.15,369.43c-2.56,2.63-4.33,18.2-5.73,21.55-1.23,2.94-1.28,6.31-1.73,9.43-.33,2.3.19,4.53,0,6.82-.13,1.34.1,2.6-.09,3.94a10.17,10.17,0,0,0,.13,3.11c.3,1.93.5,3.86.78,5.8.18,1.19.56,2.34.65,3.53.27,3.45,1.41,6.69,2.09,10.09.61,3,1.29,6.05,1.66,9.07.29,2.35,1.3,4.32,2.05,6.51a9.54,9.54,0,0,0,1.9,3.9,16.21,16.21,0,0,1,1.47,2.91A28.1,28.1,0,0,0,453.5,459c1.9,2.48,3.69,5,5.56,7.55,2.76,3.73,4.67,8.07,7.07,12,2.12,3.47,4.31,6.92,6.21,10.52,2.69,5.08,6,9.74,8.87,14.72,4.54,7.81,10.41,14.57,16.52,21.17a57.35,57.35,0,0,0,5.31,5.6c1.86,1.54-1.11,18,1,19.12,8.71,4.57,12.19-19.47,13-24,.32-1.88.69-3.74,1.09-5.6,3.17-14.67,8.33-29,9.59-44A128.81,128.81,0,0,0,524.41,436a106.16,106.16,0,0,0-6.22-18.17c-2.16-4.84-4.8-12.46-8.66-16.18-3-2.89-6.08-5.67-9.06-8.48a68,68,0,0,0-9.49-8c-2.74-1.77-5.25-3.73-8.34-4.87-2.55-.93-5.31-1.55-7.75-2.73-1.72-.83,4,1.23,2,.85"/><path class="cls-7" d="M434.33,482.69a34.05,34.05,0,0,1-1.78,17.63,24.34,24.34,0,0,1-2.05,4c-.55.85-.68.81-.23,1.65a8.67,8.67,0,0,0,1.33,1.65c.54.61,12-15.13,12.64-14.66,14.93,10.67,24.3,26.74,31,43.48,3.3,8.25,7.4,17.55,8.94,26.33,1.47,8.39-2.31,15.24-5.4,23.08a50.14,50.14,0,0,1-9,15.15c-.26.29-.53.54-.8.8,2.29-.73,4.63-1.35,6.89-2.16a33.79,33.79,0,0,0,7.48-4c4.72-3.19,5.82-5.63,9.87-9.61A66.69,66.69,0,0,0,505,569.38a84,84,0,0,0,6.75-19.44c.3-1.31,2.28-8.56,2.18-9.91-.11-1.67-1.75-4.62-2.37-6.16-9-22.42-8.48-47.71-13.52-71.47a5.36,5.36,0,0,0-1.3-2.93,5,5,0,0,0-2.75-1,162,162,0,0,1-44.79-13.22,7.66,7.66,0,0,1-3.18-2.21,3,3,0,0,1,0-3.7q-3,3.93-6.31,7.69"/><path d="M480.23,377.83c1.78,0,3.43.57,5.22.5a17,17,0,0,0,5-1.44,5.86,5.86,0,0,0,3.47-3.47c.74-1.7,1.45-3.43.82-5.21-1.35-3.82-3.62-6.49-7.68-7.71-1.35-.41-11.12-2.51-9.93,1"/><path class="cls-3" d="M495.07,459c.14,0,.28.09.41.15a5,5,0,0,1,.73.46,1.21,1.21,0,0,1,.24.21,3.55,3.55,0,0,1,.5.59,1.6,1.6,0,0,1,.29.44,1.7,1.7,0,0,1,.21.66c.05.2.09.41.13.61a3,3,0,0,1,0,.31c5.52-5.33,10.19-13.26,13.72-23.57a124.7,124.7,0,0,0,5.23-22.24s.52-2.73.39-2.16c-1.48-3.13-1.7-4.07-3.19-6.7-.16,1-.72,3.75-.87,4.66-.22,1.3-.42,2.5-.57,3.52a119.43,119.43,0,0,1-5,21.44c-2.45,7.16-6.39,15.72-12.32,21.58Z"/><path class="cls-8" d="M461.46,389.44A19.22,19.22,0,0,0,446.17,388a19.72,19.72,0,0,0-7.84,5.15,46,46,0,0,0-11.78,21.58c-1.6,7.54-2.61,14.19-.3,21.59A57.92,57.92,0,0,1,429.08,452a63.32,63.32,0,0,1-1.6,15.58,63.77,63.77,0,0,0-1.59,13.79c-28.55-5.1-52.55-.2-78.41-3.55-3.31-3.2-6.17-6.86-9.28-10.25-2-2.16-3.83-4.47-6-6.43s-4.42-2.61-7.14-3.71c-2.32-.93-4.21-.11-6.23-1.6a3.41,3.41,0,0,0-.7-.38c-.28-.12-.54-.3-.81-.42a3.82,3.82,0,0,0-1.7-.33,1.46,1.46,0,0,0-.51.07,5.69,5.69,0,0,0-.6.4,6.55,6.55,0,0,1-1.3.77,6.32,6.32,0,0,1-1.45.15,22.68,22.68,0,0,1-2.74.08,10.38,10.38,0,0,0-2.78-.07c-.57.14-.5.75-.46,1.31a2.61,2.61,0,0,0,.26.85q.19.5.42,1c.37.35.73.71,1.08,1.06a.85.85,0,0,1,.14.19,10.22,10.22,0,0,0,1.93.77c.75.24,1.51.45,2.27.64l6.91,1.12c-.33,0-7.42-1.17-7.75-1.24a10.27,10.27,0,0,1-2-.55c-.46-.18-.9-.46-1.36-.66a.7.7,0,0,1-.09.72,3.86,3.86,0,0,0-.71,3.55c.29,1.19.73,2.33.92,3.55a.7.7,0,0,1-.46.71,2.69,2.69,0,0,0-2.05,2.76,7.5,7.5,0,0,0,1.35,3.44.88.88,0,0,1,.1.27l4.85,2.32c-.08-.05,5.67,2.45,2.39,1.24l-7.24-3.38a.6.6,0,0,1-.44.61,1.78,1.78,0,0,0-1.35,1.59c-.08,1.66.62,1.53.89,2.31a2.65,2.65,0,0,1-.17,2.56,1.74,1.74,0,0,0-.38,1.81,7.59,7.59,0,0,0,.66,1.22c.78.37,1.58.65,2.34,1.06,1.65.89,3.48,1.24,5.19,2,1.88.81,3.7,1.74,5.58,2.54.73.31,1.45.62,2.19.88,4.39,1.57,9.28,1.49,13.85,1.81a14.61,14.61,0,0,1,1.48,0,18.89,18.89,0,0,0,2.71,0c11,4.75,22.1,9.47,33.41,12.77a129.1,129.1,0,0,0,50.9,4.74c.71-.09,1.41-.19,2.11-.31,3.82-.68,7.4-1.87,11.21-2.8,2.57-.62,5-1.93,7.29-1.78a11.89,11.89,0,0,0,6.47-1.35c5.61-3.06,7.61-10,8.94-16.26,2.68-12.63,13.95-37.87,14.46-50.76"/><path class="cls-9" d="M316.47,459.25a3.35,3.35,0,0,0,.47-1.28c0-.32,0-.66,0-1s0-.53.06-.81c0-.45.28-.78-.1-1.23"/><path class="cls-9" d="M314.79,458.27a7.31,7.31,0,0,1-.51-1.69c0-.18-.09-.37-.13-.55a5.48,5.48,0,0,0-.07-.73"/><path class="cls-9" d="M310.67,456.4c1.38.09.25,1.06-.2,1.36-1,.68-3.15,2.12-4.42.36"/><path class="cls-9" d="M305.79,480.59a33.33,33.33,0,0,0,5.23,2,7.48,7.48,0,0,0,.9.33c.36.07,2.81.94,3.16,1.06.53.18-9.16-3-8.68-2.72"/><path class="cls-9" d="M307.43,467.84c.62.33,2.08.85,2.73,1.12.36.15,6.81,3,7.17,3.2s-9.88-4-9.52-3.8"/><path class="cls-3" d="M505.36,397.64l-3.07-3c-.92-.91-1.93-1.7-2.89-2.56a97.72,97.72,0,0,0-42.85-6.27,24.3,24.3,0,0,0-8.8,2,13.94,13.94,0,0,1,5.6-.56,14.36,14.36,0,0,1,3.58.43,16.51,16.51,0,0,1,5,2c2.81-.08,5.62-.09,8.41.07a96.17,96.17,0,0,1,32.27,8c1.83.78,3.81,1.75,5.59,2.63C507.67,399.79,506.12,398.4,505.36,397.64Z"/><path d="M243.45,38.34l-.27,3.12h-5.55V59.34h-3.75V41.46h-5.76V38.34Z"/><path d="M249.6,36.42v9.72a5.86,5.86,0,0,1,5.16-2.67c3.69,0,5.46,2.37,5.46,5.61V59.34H256.5V50.28c0-2.4-.9-3.69-2.94-3.69-2.85,0-4,2.31-4,4.83v7.92h-3.72V36.87Z"/><path d="M277.74,55a7,7,0,0,1-6.78,4.5c-5.28,0-7.62-3.3-7.62-8.22s3.3-7.95,7.83-7.83c3.69.09,7,2.85,6.63,7.86l-.06.48H267.12c0,2.67,1.14,4.5,3.87,4.5a3.5,3.5,0,0,0,3.39-2.49Zm-3.81-5.13c.06-2.43-1.26-3.57-3.09-3.51a3.5,3.5,0,0,0-3.54,3.51Z"/><path d="M284,43.62l.57,2.79A5.8,5.8,0,0,1,290,43.47c3.69,0,5.46,2.37,5.46,5.61V59.34h-3.72V50.28c0-2.4-.9-3.69-2.94-3.69-2.85,0-4,2.31-4,4.83v7.92h-3.72V43.62Z"/><path d="M310.29,39.18v4.59h4l-.51,3h-3.45V54c0,1.71.78,2.37,2,2.37a6.83,6.83,0,0,0,2.37-.69l.69,2.85a9.82,9.82,0,0,1-4,1c-3.69,0-4.83-2.46-4.83-5V46.77h-2.19v-3h2.37l.45-4.17Z"/><path d="M321.48,36.42v9.72a5.86,5.86,0,0,1,5.16-2.67c3.69,0,5.46,2.37,5.46,5.61V59.34h-3.72V50.28c0-2.4-.9-3.69-2.94-3.69-2.85,0-4,2.31-4,4.83v7.92h-3.72V36.87Z"/><path d="M349.62,55a7,7,0,0,1-6.78,4.5c-5.28,0-7.62-3.3-7.62-8.22s3.3-7.95,7.83-7.83c3.69.09,7,2.85,6.63,7.86l-.06.48H339c0,2.67,1.14,4.5,3.87,4.5a3.5,3.5,0,0,0,3.39-2.49Zm-3.81-5.13c.06-2.43-1.26-3.57-3.09-3.51a3.5,3.5,0,0,0-3.54,3.51Z"/><path d="M360.15,43.77V41.64c0-3.12,1.62-5.22,5.16-5.22a6.41,6.41,0,0,1,3.6,1.08v-.72l3.72-.36V54.21c0,1.68.72,2.13,1.83,2.13a2.81,2.81,0,0,0,1.56-.57l.72,2.67a6.6,6.6,0,0,1-3.42,1.08c-3.09,0-4.41-2.1-4.41-5V40.08a6,6,0,0,0-2.7-.69c-1.47,0-2.31.6-2.31,2.85v1.53h3.18l-.48,3h-2.7V59.34h-3.75V46.77h-2.46v-3Z"/><path d="M383.37,43.62V59.34h-3.75V46.71h-2.19V43.62Zm-1.89-6.12a2,2,0,0,1,2.22,1.89,2.22,2.22,0,0,1-4.41,0A1.93,1.93,0,0,1,381.48,37.5Z"/><path d="M401.85,43.62V57c0,5.22-2,8.37-7.8,8.37A16.38,16.38,0,0,1,387.63,64l.87-2.82a13.33,13.33,0,0,0,5.13,1.17c3.39,0,4.5-1.68,4.5-4.26V56.7a5.42,5.42,0,0,1-4.83,2.49c-4.23.09-6.66-3.12-6.66-7.74,0-5.64,3.6-8,6.72-8a5.2,5.2,0,0,1,5,2.85l.39-2.7Zm-11.34,7.8c0,2.67,1.05,4.77,3.84,4.77s3.9-2.1,3.9-4.74c0-3.57-1.89-4.86-3.93-4.86S390.51,48,390.51,51.42Z"/><path d="M409.41,36.42v9.72a5.86,5.86,0,0,1,5.16-2.67c3.69,0,5.46,2.37,5.46,5.61V59.34h-3.72V50.28c0-2.4-.9-3.69-2.94-3.69-2.85,0-4,2.31-4,4.83v7.92h-3.72V36.87Z"/><path d="M428.58,39.18v4.59h4l-.51,3h-3.45V54c0,1.71.78,2.37,2,2.37a6.83,6.83,0,0,0,2.37-.69l.69,2.85a9.82,9.82,0,0,1-4,1c-3.69,0-4.83-2.46-4.83-5V46.77h-2.19v-3H425l.45-4.17Z"/><path d="M445.29,43.62l.54,2.82a5.71,5.71,0,0,1,5.37-3c3,.09,6.18,2.1,6.18,7.89,0,4.74-2.37,8.16-6.66,8.16A4.88,4.88,0,0,1,446.07,57v8.37h-3.75V43.62Zm.51,7.83c0,2.7,1,4.86,4,4.86,2.43,0,3.78-1.83,3.78-4.92,0-3.66-1.83-4.8-3.81-4.8C447.6,46.59,445.8,48.3,445.8,51.45Z"/><path d="M464.37,36.42v9.72a5.86,5.86,0,0,1,5.16-2.67c3.69,0,5.46,2.37,5.46,5.61V59.34h-3.72V50.28c0-2.4-.9-3.69-2.94-3.69-2.85,0-4,2.31-4,4.83v7.92h-3.72V36.87Z"/><path d="M478.41,44.61a18.74,18.74,0,0,1,5.94-1.14c4.74,0,6.48,2.34,6.48,6v6.36a.79.79,0,0,0,.75.9,3,3,0,0,0,1.23-.18V59a6.08,6.08,0,0,1-2.49.48,2.84,2.84,0,0,1-2.85-2.13,6.87,6.87,0,0,1-4.74,2.13c-3.06,0-5.34-1.56-5.37-4.83s2.46-5,6.39-5a24.49,24.49,0,0,1,3.39.3v-.93c0-1.71-1.08-2.64-3.24-2.61a12.68,12.68,0,0,0-4.86,1Zm8.7,7.35a16.62,16.62,0,0,0-3.06-.18c-1.8.09-2.94.93-3,2.52a2.21,2.21,0,0,0,2.55,2.31,6.17,6.17,0,0,0,3.48-1.26Z"/><path d="M495.81,54.84a8.15,8.15,0,0,0,5.1,1.74c1.8,0,2.85-.54,2.85-1.83,0-3.06-9.09-1-8.79-6.78.12-2.82,2.19-4.5,6.36-4.5A12.78,12.78,0,0,1,507,44.94l-1.32,2.64a8.9,8.9,0,0,0-4.5-1.29c-1.47,0-2.7.48-2.64,1.71.18,2.49,8.91.57,8.91,6.63,0,3.24-2.91,4.92-6.63,4.89a10.76,10.76,0,0,1-6.45-2Z"/><path d="M524.28,55a7,7,0,0,1-6.78,4.5c-5.28,0-7.62-3.3-7.62-8.22s3.3-7.95,7.83-7.83c3.69.09,7,2.85,6.63,7.86l-.06.48H513.66c0,2.67,1.14,4.5,3.87,4.5a3.5,3.5,0,0,0,3.39-2.49Zm-3.81-5.13c.06-2.43-1.26-3.57-3.09-3.51a3.5,3.5,0,0,0-3.54,3.51Z"/><path d="M238,67.38l-.26,1.1a7.49,7.49,0,0,0-1.65-.2c-2.41,0-3.57.87-3.57,4.06V74.2h4.38l-.29,1.19h-4.09V89.25h-1.39V75.39h-3.05V74.2h3.05v-2c0-3.69,1.82-5.08,4.81-5.08A9.18,9.18,0,0,1,238,67.38Z"/><path d="M245.79,89.42c-4.58,0-6.58-3.48-6.58-7.74,0-5.19,3-7.77,6.7-7.77,3.39,0,6.47,2.58,6.47,7.77C252.38,85.94,250,89.42,245.79,89.42Zm0-1.18c3.48,0,5.19-3.17,5.19-6.56,0-4.67-2.46-6.58-5.07-6.58-2.82,0-5.28,1.79-5.28,6.58C240.63,85.05,241.93,88.24,245.79,88.24Z"/><path d="M258.84,80.38v8.87h-1.39V74.05h1.13l.26,3.08c.64-1.95,2.35-3.22,5.08-3.22a7.85,7.85,0,0,1,1.62.14l-.2,1.28a4.68,4.68,0,0,0-1.51-.21C260.38,75.12,258.84,77.65,258.84,80.38Z"/><path d="M287.32,85.45l1.1.67a6.94,6.94,0,0,1-6,3.3c-4.79,0-6.82-3.27-6.82-7.94,0-4.9,3-7.57,6.84-7.57,3.51,0,6.36,2.55,6,7.28l-.06.49H277c0,4,1.65,6.56,5.48,6.56A5.68,5.68,0,0,0,287.32,85.45Zm-10.24-5h10c0-3.86-2-5.39-4.65-5.39C279.69,75.1,277.34,76.75,277.08,80.49Z"/><path d="M303.18,89.25l-4.58-6.7-4.7,6.7h-1.6l5.51-7.71-5-7.49h1.62l4.21,6.44L303,74.05h1.59l-5.16,7.43,5.34,7.77Z"/><path d="M313.65,89.42c-3.08,0-5.4-1.47-5.4-4.75s2.82-4.76,6.15-4.76a19.84,19.84,0,0,1,4.76.64V79c0-2.52-1.57-3.85-4.64-3.85a11.33,11.33,0,0,0-5,1.16l-.32-1.19a13.82,13.82,0,0,1,5.31-1.16c4.52,0,6,2.32,6,5.25v8.21c0,.43.09.81.64.87a5.49,5.49,0,0,0,1.48-.18v1.08a4.79,4.79,0,0,1-1.63.28,2,2,0,0,1-1.88-2.14A9,9,0,0,1,313.65,89.42Zm0-1.21a9.43,9.43,0,0,0,5.51-2.12V81.62a26.39,26.39,0,0,0-5-.58c-2.9,0-4.52,1.16-4.52,3.66C309.65,86.9,311.1,88.21,313.65,88.21Z"/><path d="M327.83,74.05l.23,3a5.1,5.1,0,0,1,4.67-3.19c2.7-.09,4.09,1.19,4.7,3a5.45,5.45,0,0,1,5-3c3.83-.12,5.05,2.43,5.05,5.42v9.92h-1.4v-10c0-2.72-1.24-4.14-3.74-4.14-3.48,0-4.58,2.43-4.58,5v9.14h-1.39v-10c0-2.72-1.25-4.14-3.75-4.14-3.65,0-4.58,2.69-4.58,5.42v8.73h-1.39V74.05Z"/><path d="M354.33,74.05l.27,3.08a6.22,6.22,0,0,1,5.62-3.22c3.4,0,6.62,2.17,6.62,7.63,0,4.58-2.27,7.88-6.85,7.88a5.61,5.61,0,0,1-5.39-3.21v8.84h-1.43v-21Zm5.78,14.19c3.65,0,5.33-2.93,5.33-6.68,0-4.9-2.58-6.46-5.39-6.46-3.1,0-5.57,2.52-5.57,6.55C354.48,85,355.67,88.24,360.11,88.24Z"/><path d="M373.33,85.42c0,2.15.9,2.76,2.32,2.76a4.81,4.81,0,0,0,2.44-.87l.63,1.1a5.72,5.72,0,0,1-3.07,1c-2.9,0-3.71-1.74-3.71-4V67.35l1.39-.26Z"/><path d="M391.89,85.45l1.1.67a6.93,6.93,0,0,1-6,3.3c-4.79,0-6.82-3.27-6.82-7.94,0-4.9,3-7.57,6.85-7.57,3.51,0,6.35,2.55,6,7.28l-.06.49h-11.4c0,4,1.66,6.56,5.49,6.56A5.68,5.68,0,0,0,391.89,85.45Zm-10.24-5h10c0-3.86-2-5.39-4.64-5.39C384.26,75.1,381.91,76.75,381.65,80.49Z"/><path d="M397.66,89.4c0-.58-.75-.53-.75-.53a1.12,1.12,0,0,1,0-2.23c1.45,0,2,1.34,1.82,2.73a3.28,3.28,0,0,1-3.45,2.81v-.9A2.13,2.13,0,0,0,397.66,89.4Z"/><path d="M414.6,89.42c-3.08,0-5.4-1.47-5.4-4.75s2.81-4.76,6.15-4.76a19.84,19.84,0,0,1,4.76.64V79c0-2.52-1.57-3.85-4.64-3.85a11.27,11.27,0,0,0-5,1.16l-.32-1.19a13.76,13.76,0,0,1,5.31-1.16c4.52,0,6,2.32,6,5.25v8.21c0,.43.09.81.64.87a5.49,5.49,0,0,0,1.48-.18v1.08a4.84,4.84,0,0,1-1.63.28,2,2,0,0,1-1.88-2.14A9,9,0,0,1,414.6,89.42Zm0-1.21a9.43,9.43,0,0,0,5.51-2.12V81.62a26.5,26.5,0,0,0-5-.58c-2.9,0-4.53,1.16-4.53,3.66C410.59,86.9,412,88.21,414.6,88.21Z"/><path d="M435.59,75.39h-2.52V74.2h2.58l.2-4.24,1.13-.2V74.2h4.44l-.32,1.19H437v10c0,2.15.9,2.76,2.32,2.76a7,7,0,0,0,2.93-1.08l.64,1.11a7.8,7.8,0,0,1-3.57,1.21c-2.9,0-3.71-1.74-3.71-4Z"/><path d="M448.79,89.25h-1.43v-14h-2.49V74.05h3.92Zm-1.86-20a1.12,1.12,0,0,1,1.1-1.1,1.12,1.12,0,1,1,0,2.23A1.12,1.12,0,0,1,446.93,69.21Z"/><path d="M466.86,87.6c0,5-2.18,7.45-7,7.45a15.16,15.16,0,0,1-5.6-1l.43-1.22a15.14,15.14,0,0,0,5.28,1c4.15,0,5.51-2.69,5.51-5.85V86.21a6.29,6.29,0,0,1-5.57,3.21c-4.49.15-6.73-3.39-6.73-7.68,0-5.22,3-7.83,6.65-7.83a5.82,5.82,0,0,1,5.65,3.19l.24-3h1.16Zm-6.79.64c3.77,0,5.42-3.17,5.42-6.59,0-4.64-2.67-6.55-5.54-6.55-3,0-5.39,1.77-5.39,6.55C454.56,85.05,455.63,88.24,460.07,88.24Z"/><path d="M484.75,79.33v9.92h-1.39v-10c0-2.72-1.51-4.14-4-4.14-3.65,0-5.31,2.69-5.31,5.42v8.73h-1.39V67.35l1.39-.26V77.24a5.81,5.81,0,0,1,5.4-3.33C483.27,73.79,484.75,76.34,484.75,79.33Z"/><path d="M491.1,75.39h-2.53V74.2h2.58l.21-4.24,1.13-.2V74.2h4.44l-.32,1.19h-4.12v10c0,2.15.9,2.76,2.32,2.76a7,7,0,0,0,2.93-1.08l.64,1.11a7.86,7.86,0,0,1-3.57,1.21c-2.9,0-3.71-1.74-3.71-4Z"/><path d="M510.15,75.39h-2.53V74.2h2.59l.2-4.24,1.13-.2V74.2H516l-.32,1.19h-4.12v10c0,2.15.9,2.76,2.32,2.76a7,7,0,0,0,2.93-1.08l.64,1.11a7.86,7.86,0,0,1-3.57,1.21c-2.9,0-3.71-1.74-3.71-4Z"/><path d="M531.87,89.25l-.23-3.59A6,6,0,0,1,526,89.4c-3.83.11-5.34-2.44-5.34-5.43V74.05h1.4v10c0,2.73,1.53,4.15,4,4.15,3.65,0,5.51-3.37,5.51-6V74.05H533v15.2Z"/><path d="M550.84,85.94A6.34,6.34,0,0,1,545,89.42c-4.64,0-6.82-3.71-6.82-7.77,0-5,3.14-7.74,7-7.74a6,6,0,0,1,5.63,3.45l-1.25.55A4.64,4.64,0,0,0,545,75.1c-3,0-5.51,2.11-5.51,6.46,0,3.49,1.53,6.62,5.45,6.62a4.68,4.68,0,0,0,4.61-2.82Z"/><path d="M560.93,81.65l5.51,7.6h-1.77l-4.93-6.9h-2.87v6.9h-1.42V67.35l1.42-.26V81.16h2.81l4.67-7.11h1.8Z"/><path d="M578.5,74.05l.26,3.08a6.22,6.22,0,0,1,5.63-3.22c3.39,0,6.61,2.17,6.61,7.63,0,4.58-2.26,7.88-6.84,7.88a5.62,5.62,0,0,1-5.4-3.21v8.84h-1.42v-21Zm5.77,14.19c3.66,0,5.34-2.93,5.34-6.68,0-4.9-2.58-6.46-5.4-6.46-3.1,0-5.56,2.52-5.56,6.55C578.65,85,579.83,88.24,584.27,88.24Z"/><path d="M601.93,89.42c-4.58,0-6.58-3.48-6.58-7.74,0-5.19,3-7.77,6.7-7.77,3.39,0,6.47,2.58,6.47,7.77C608.52,85.94,606.17,89.42,601.93,89.42Zm0-1.18c3.48,0,5.2-3.17,5.2-6.56,0-4.67-2.47-6.58-5.08-6.58-2.81,0-5.28,1.79-5.28,6.58C596.77,85.05,598.08,88.24,601.93,88.24Z"/><path d="M623.45,75.3l-.58,1.16a8.51,8.51,0,0,0-4.61-1.36c-2.09,0-4.06.61-4,2.75.08,3.8,9.71,1.57,9.71,7.14,0,3-2.55,4.49-5.94,4.43a8.17,8.17,0,0,1-5.6-1.94l.78-1A6.65,6.65,0,0,0,618,88.24c2.75,0,4.55-1,4.55-3.22,0-4.56-9.6-2.06-9.66-7.08,0-2.55,1.89-4,5.43-4A11.23,11.23,0,0,1,623.45,75.3Z"/><path d="M630.93,89.25h-1.42v-14H627V74.05h3.91Zm-1.85-20a1.12,1.12,0,0,1,1.1-1.1,1.12,1.12,0,1,1,0,2.23A1.12,1.12,0,0,1,629.08,69.21Z"/><path d="M637.57,75.39h-2.52V74.2h2.58l.2-4.24,1.13-.2V74.2h4.44l-.32,1.19H639v10c0,2.15.9,2.76,2.33,2.76a7,7,0,0,0,2.92-1.08l.64,1.11a7.8,7.8,0,0,1-3.56,1.21c-2.91,0-3.72-1.74-3.72-4Z"/><path d="M650.77,89.25h-1.42v-14h-2.5V74.05h3.92Zm-1.86-20a1.12,1.12,0,0,1,1.1-1.1,1.12,1.12,0,1,1,0,2.23A1.12,1.12,0,0,1,648.91,69.21Z"/><path d="M662.46,89.42c-4.59,0-6.59-3.48-6.59-7.74,0-5.19,3-7.77,6.7-7.77,3.39,0,6.47,2.58,6.47,7.77C669,85.94,666.69,89.42,662.46,89.42Zm0-1.18c3.48,0,5.19-3.17,5.19-6.56,0-4.67-2.47-6.58-5.08-6.58-2.81,0-5.28,1.79-5.28,6.58C657.29,85.05,658.6,88.24,662.46,88.24Z"/><path d="M675.27,74.05l.23,3a5.68,5.68,0,0,1,5.4-3.19c3.83-.12,5.31,2.43,5.31,5.42v9.92h-1.4v-10c0-2.72-1.5-4.14-4-4.14-3.65,0-5.31,2.69-5.31,5.42v8.73h-1.39V74.05Z"/><path d="M66,207.09v7.25H68.1l4.25-7.25h3.5l-5,8.61,5.45,8.65h-3.6L68.08,217H66v7.37H63V207.09Z"/><path d="M80.49,211.43l.47,2.29a4.74,4.74,0,0,1,4.41-2.41c3,0,4.49,1.94,4.49,4.61v8.43H86.8V216.9c0-2-.74-3-2.42-3-2.34,0-3.25,1.9-3.25,4v6.51H78.07V211.43Z"/><path d="M104.31,220.8a5.76,5.76,0,0,1-5.57,3.7c-4.34,0-6.27-2.71-6.27-6.76s2.72-6.53,6.44-6.43c3,.07,5.74,2.34,5.45,6.46l0,.39H95.58c0,2.2.94,3.7,3.18,3.7a2.89,2.89,0,0,0,2.79-2.05Zm-3.13-4.22c0-2-1-2.93-2.54-2.88a2.87,2.87,0,0,0-2.91,2.88Z"/><path d="M118.39,220.8a5.76,5.76,0,0,1-5.57,3.7c-4.34,0-6.26-2.71-6.26-6.76s2.71-6.53,6.43-6.43c3,.07,5.75,2.34,5.45,6.46l0,.39h-8.73c0,2.2.94,3.7,3.18,3.7a2.87,2.87,0,0,0,2.79-2.05Zm-3.13-4.22c0-2-1-2.93-2.54-2.88a2.87,2.87,0,0,0-2.91,2.88Z"/><path d="M121.48,220.65a6.68,6.68,0,0,0,4.19,1.43c1.48,0,2.34-.44,2.34-1.5,0-2.52-7.47-.84-7.22-5.57.1-2.32,1.8-3.7,5.23-3.7a10.55,10.55,0,0,1,4.66,1.2l-1.09,2.17a7.36,7.36,0,0,0-3.7-1.06c-1.21,0-2.22.4-2.17,1.41.15,2.05,7.33.47,7.33,5.45,0,2.66-2.4,4-5.45,4a8.91,8.91,0,0,1-5.31-1.68Z"/><path d="M141.13,211.43l.45,2.29a4.34,4.34,0,0,1,4-2.44,3.77,3.77,0,0,1,3.85,2.39,4.57,4.57,0,0,1,4.17-2.39c3,0,4.21,2,4.21,4.64v8.43h-3.05V216.9c0-2-.47-3-2.15-3-2.22,0-2.81,1.68-2.81,3.58v6.9h-3.06V216.9c0-2-.47-3-2.14-3-2.37,0-2.84,1.9-2.84,4v6.51h-3.06V211.43Z"/><path d="M163.8,211.43v7.45c0,2,.79,3,2.59,3,2.34,0,3.3-2.42,3.3-4.86v-5.62h3.06v12.92h-2.44l-.44-2.81a4.72,4.72,0,0,1-4.47,3c-3.15,0-4.66-1.95-4.66-5.2v-7.87Z"/><path d="M176.26,220.65a6.68,6.68,0,0,0,4.19,1.43c1.48,0,2.34-.44,2.34-1.5,0-2.52-7.47-.84-7.22-5.57.1-2.32,1.8-3.7,5.22-3.7a10.62,10.62,0,0,1,4.67,1.2l-1.09,2.17a7.36,7.36,0,0,0-3.7-1.06c-1.21,0-2.22.4-2.17,1.41.15,2.05,7.32.47,7.32,5.45,0,2.66-2.39,4-5.44,4a8.91,8.91,0,0,1-5.31-1.68Z"/><path d="M192.29,207.78v3.77h3.25l-.42,2.47h-2.83v5.92c0,1.4.64,1.95,1.67,1.95a5.72,5.72,0,0,0,1.95-.57l.57,2.34a8.1,8.1,0,0,1-3.28.84c-3,0-4-2-4-4.14V214h-1.8v-2.47h1.95l.37-3.42Z"/><path d="M65.84,239.43v8.21a4.4,4.4,0,0,1,4.31-2.42c2.44.07,5.06,1.73,5.06,6.49,0,3.89-1.95,6.7-5.45,6.7a4.27,4.27,0,0,1-4.07-2.36l-.42,2.21H62.78V239.82Zm-.13,12.35c0,2.22.82,4,3.26,4,2,0,3.1-1.5,3.1-4,0-3-1.5-3.94-3.13-3.94S65.71,249.19,65.71,251.78Z"/><path d="M89.24,254.71a5.75,5.75,0,0,1-5.57,3.7c-4.34,0-6.27-2.71-6.27-6.75s2.72-6.54,6.44-6.44c3,.07,5.74,2.34,5.45,6.46l-.05.4H80.51c0,2.19.94,3.69,3.18,3.69a2.88,2.88,0,0,0,2.79-2Zm-3.13-4.21c0-2-1-2.94-2.54-2.89a2.88,2.88,0,0,0-2.91,2.89Z"/><path d="M99.58,245.34l.44,2.32a4.71,4.71,0,0,1,4.41-2.44c2.45.07,5.08,1.73,5.08,6.49,0,3.89-1.94,6.7-5.47,6.7a4,4,0,0,1-3.82-2.09v6.88H97.13V245.34Zm.42,6.44c0,2.22.81,4,3.28,4,2,0,3.1-1.5,3.1-4,0-3-1.5-3.94-3.13-3.94C101.47,247.79,100,249.19,100,251.78Z"/><path d="M115.09,245.34v7.45c0,2,.79,3,2.59,3,2.34,0,3.3-2.41,3.3-4.85v-5.63H124v12.92H121.6l-.44-2.81a4.72,4.72,0,0,1-4.47,3c-3.15,0-4.66-2-4.66-5.2v-7.87Z"/><path d="M130.26,239.43v14.62c0,1.38.62,1.75,1.53,1.75a2.42,2.42,0,0,0,1.28-.47l.57,2.19a5.26,5.26,0,0,1-2.79.89c-2.56,0-3.65-1.72-3.65-4.07V239.8Z"/><path d="M137.24,239.43v14.62c0,1.38.61,1.75,1.53,1.75a2.46,2.46,0,0,0,1.28-.47l.57,2.19a5.26,5.26,0,0,1-2.79.89c-2.56,0-3.65-1.72-3.65-4.07V239.8Z"/><path d="M153.1,254.71a5.77,5.77,0,0,1-5.58,3.7c-4.34,0-6.26-2.71-6.26-6.75s2.71-6.54,6.44-6.44c3,.07,5.74,2.34,5.44,6.46l0,.4h-8.73c0,2.19.93,3.69,3.18,3.69a2.86,2.86,0,0,0,2.78-2ZM150,250.5c0-2-1-2.94-2.54-2.89a2.89,2.89,0,0,0-2.91,2.89Z"/><path d="M167.92,239.43v18.83h-2.57l-.34-2.21a4.53,4.53,0,0,1-4.12,2.36c-3.48,0-5.55-2.83-5.55-6.63,0-4.64,3-6.56,5.53-6.56a4.1,4.1,0,0,1,4,2.44v-7.84Zm-9.42,12.32c0,2.2.86,3.93,3.16,3.93s3.25-1.73,3.25-3.9c0-2.94-1.58-4-3.28-4S158.5,248.92,158.5,251.75Z"/><path d="M180.23,245.34v12.92h-3.08V247.88h-1.8v-2.54Zm-1.56-5a1.66,1.66,0,0,1,1.83,1.56,1.83,1.83,0,0,1-3.63,0A1.59,1.59,0,0,1,178.67,240.31Z"/><path d="M185.8,245.34l.47,2.3a4.78,4.78,0,0,1,4.41-2.42c3,0,4.49,1.95,4.49,4.61v8.43h-3.06v-7.44c0-2-.73-3-2.41-3-2.34,0-3.26,1.89-3.26,4v6.51h-3.05V245.34Z"/><path d="M202.25,241.69v3.78h3.26l-.42,2.46h-2.84v5.92c0,1.41.64,2,1.68,2a5.5,5.5,0,0,0,1.95-.57l.56,2.34a7.93,7.93,0,0,1-3.27.84c-3,0-4-2-4-4.14v-6.34h-1.81v-2.46h2l.37-3.43Z"/><path d="M213.6,245.22c3.23,0,6,2.19,6,6.61,0,3.62-2.15,6.58-6.17,6.58-4.36,0-6.16-3-6.16-6.58C207.31,247.41,210.1,245.22,213.6,245.22Zm-3.08,6.61c0,2,.69,4,3,4,2.1,0,3-1.94,3-4,0-2.86-1.41-4-3-4S210.52,248.92,210.52,251.83Z"/><path d="M66.75,275.61v3.77H70l-.42,2.47H66.75v5.91c0,1.41.64,1.95,1.67,1.95a5.69,5.69,0,0,0,2-.56l.57,2.34a8.1,8.1,0,0,1-3.28.84c-3,0-4-2-4-4.15v-6.33h-1.8v-2.47h2l.37-3.43Z"/><path d="M76,273.34v8a4.81,4.81,0,0,1,4.24-2.2c3,0,4.49,1.95,4.49,4.62v8.43H81.62v-7.45c0-2-.74-3-2.42-3-2.34,0-3.25,1.9-3.25,4v6.51H72.89V273.71Z"/><path d="M99.08,288.63a5.76,5.76,0,0,1-5.57,3.7c-4.34,0-6.27-2.72-6.27-6.76S90,279,93.68,279.13c3,.08,5.75,2.35,5.45,6.46l0,.4H90.35c0,2.19.94,3.7,3.18,3.7a2.88,2.88,0,0,0,2.79-2.05ZM96,284.41c0-2-1-2.93-2.54-2.88a2.87,2.87,0,0,0-2.91,2.88Z"/><path d="M118.22,288.55c-.84,2.64-3,3.78-5.62,3.78-4.24,0-6.07-3.16-6.07-6.61,0-4.22,2.62-6.51,6.14-6.59,3.11-.07,5,1.53,5.5,3.8l-2.84.91a2.54,2.54,0,0,0-2.61-2.12c-1.77,0-3.13,1.31-3.13,3.95,0,2.09.79,4,3.08,4a2.59,2.59,0,0,0,2.71-2Z"/><path d="M123.75,273.34v8a4.81,4.81,0,0,1,4.24-2.2c3,0,4.49,1.95,4.49,4.62v8.43h-3.06v-7.45c0-2-.74-3-2.42-3-2.34,0-3.25,1.9-3.25,4v6.51h-3.06V273.71Z"/><path d="M146.88,288.63a5.76,5.76,0,0,1-5.57,3.7c-4.34,0-6.27-2.72-6.27-6.76s2.72-6.53,6.44-6.44c3,.08,5.74,2.35,5.45,6.46l-.05.4h-8.73c0,2.19.94,3.7,3.18,3.7a2.89,2.89,0,0,0,2.79-2.05Zm-3.13-4.22c.05-2-1-2.93-2.54-2.88a2.87,2.87,0,0,0-2.91,2.88Z"/><path d="M150,288.48a6.73,6.73,0,0,0,4.2,1.43c1.48,0,2.34-.44,2.34-1.5,0-2.52-7.47-.84-7.23-5.58.1-2.32,1.8-3.7,5.23-3.7a10.49,10.49,0,0,1,4.66,1.21l-1.08,2.17a7.36,7.36,0,0,0-3.7-1.06c-1.21,0-2.22.4-2.17,1.41.15,2,7.32.47,7.32,5.45,0,2.66-2.39,4-5.45,4a8.86,8.86,0,0,1-5.3-1.68Z"/><path d="M166,275.61v3.77h3.25l-.42,2.47H166v5.91c0,1.41.64,1.95,1.67,1.95a5.76,5.76,0,0,0,2-.56l.57,2.34a8.1,8.1,0,0,1-3.28.84c-3,0-4-2-4-4.15v-6.33h-1.8v-2.47h2l.37-3.43Z"/><path d="M90.78,323.31A68.38,68.38,0,0,0,105.37,354a80.71,80.71,0,0,0,24.29,19.46A89.76,89.76,0,0,0,145,379.84c1.85.58,2.64-2.31.8-2.89-19-6-36.51-18.64-45.91-36.51a64.71,64.71,0,0,1-6.23-17.93c-.37-1.89-3.26-1.09-2.89.8Z"/><path d="M135.73,367.88c3.18,3.6,6,7.49,8.9,11.32l.53-2.05c-2.34,1-4.63,2.08-6.95,3.11-2.07.91-4.18,1.74-6.25,2.66a1.51,1.51,0,0,0-.54,2.05,1.54,1.54,0,0,0,2.05.54c2.07-.92,4.18-1.75,6.25-2.66,2.33-1,4.62-2.12,7-3.11a1.5,1.5,0,0,0,.54-2.05c-3.06-4-6-8.14-9.37-11.93-1.28-1.45-3.39.67-2.12,2.12Z"/></svg>