<svg id="Layer_1" data-name="Layer 1" xmlns="http://www.w3.org/2000/svg" viewBox="0 0 780 1051.14"><defs><style>.cls-1{fill:#c6946f;stroke-width:0.23px;}.cls-1,.cls-2,.cls-4,.cls-5,.cls-6,.cls-7{stroke:#fff;stroke-miterlimit:10;}.cls-2,.cls-3,.cls-6,.cls-7{fill:#d4a47c;}.cls-2{stroke-width:0.28px;}.cls-4{fill:#005058;stroke-width:0.54px;}.cls-5{fill:#fff171;stroke-width:0.3px;}.cls-6{stroke-width:0.41px;}.cls-7{stroke-width:0.31px;}.cls-8,.cls-9{fill:#fff;}.cls-8{opacity:0.7;}.cls-9{font-size:38.5px;font-family:ABCSerifBold, ABCSerif;}</style></defs><path class="cls-1" d="M366.39,384.13l-.11.14-17.93,25.42c-5.4,7.65-11.23,15.41-15.35,23.65-6.91,13.82-17.09,25.62-27.51,37.45v-.21a.76.76,0,0,1-.12.35c-.3.34-.6.69-.91,1a.57.57,0,0,1-.11.11c-2.59,2.42-8.85,6.54-10,7.48-6.16,5.24-12.78,10.95-16.84,18.29-4.46,8.09-6.47,17.32-11.26,25.26-3.09,5.15-1.81,11.63-5,16.84-1.36,2.24-3,5.95-3,8.59,0,3.58,3,7.11,5.1,2.38a13.7,13.7,0,0,1,1.67-3.54c2.2-2.62,6.6-1.67,9.43-3.58a10.64,10.64,0,0,0,2.74-3.18c2.58-4,4.87-8.25,7.54-12.11,1.46-2.11,3.47-3.23,5.16-5,3.1-3.33,8.11-4.4,12.35-5.92.64-.23,1.25-.51,1.87-.8,5-2.38,6.87-2.94,7.85-5.72a8.53,8.53,0,0,0-.67-6.82,21.84,21.84,0,0,1-1.61-3.48c-.16-.46-.33-.93-.49-1.4,5.78-6.23,20.85-18.76,25.84-22.73,10.8-8.58,21.81-16.65,33.12-24.44a.18.18,0,0,0,.07,0c.73-.56,7.34-11.8,8.06-12.37-2.6,10.25-9,18.77-9.94,29.49-1.36,15.12-2.24,30.24-3.15,45.38-.67,14.51-2.9,30.23,1.75,44.24,4.43,13.37,13.26,24.82,24.27,31.44,7,4.18,14.89,6.48,22.6,5.44,10.67-1.43,33.56-13.23,40.12-22.9,14.69-21.63-3.38-36-1.72-53.63,2.45-26.06,1.65-23-2.14-49.23-2-13.5-7.87-33.65-10-48.7-1.65-11.56-4.95-29.82-11.3-39.71-5.78-12.66-30.92-20.41-42.71-13.22-5.43,3.31-9.2,8.62-14.23,12.47l-1.43,1.1-.2.17Z"/><path class="cls-2" d="M532.71,394.77c1-.72,1.58,9.79,3,10.26s.75,2.19.69,3.34c0,.95.35,1.81.37,2.76a7.9,7.9,0,0,0,0,2.06,6.45,6.45,0,0,0,2.85,3.79c1.65.81,3.57,0,5.25.55a5.89,5.89,0,0,1,1.86,1.29,2.74,2.74,0,0,1,.92-1.47c3.12-2.65,7.24-2.81,10.9-4.25a19.59,19.59,0,0,0-1.16-3.39,29.76,29.76,0,0,1-1.7-5.38c-.38-1.66-1.16-3-.54-4.55.49-1.2,1.62-2,2.1-3.18a21.76,21.76,0,0,1,.81-2.48,32.16,32.16,0,0,1,2.36-3.4c1.75-2.51,3.31-5.23,5-7.83a25.54,25.54,0,0,0,3.75-9.09,20.42,20.42,0,0,0-.87-9.93,45.27,45.27,0,0,0-2.88-7.22,75.76,75.76,0,0,0-6.21-9.48c-2.58-3.39-6.68-6.25-10.37-8.26-2.74-1.5-5.13-3.35-8.08-4.55a26.07,26.07,0,0,0-9.34-1.59c-2.73-.08-5.06-1-7.59-1.73-1.27-.37-2.63-.17-4-.52a30.67,30.67,0,0,0-4.81-1c-3.17-.25-5.31,1.41-7.73,3.11-1.61,1.14-2.71,2.71-4.36,3.83a14.92,14.92,0,0,0-2.16,1.9c-.75.76-1.65,1.25-2.4,2-.37.38-.51.83-.88,1.23s-.83.4-1.13.88a20.7,20.7,0,0,0-1,3.15,27.34,27.34,0,0,1-1.45,3.58,2.14,2.14,0,0,0-.19.38c-.07,0-.22,0-.55.14a13.15,13.15,0,0,1-2.85.75c-2.47.55-2.76.16-5.52,1.07a29.07,29.07,0,0,0-5,2.14,3.58,3.58,0,0,0-1,5.44,2,2,0,0,1,.47,1.23,5,5,0,0,1-.75,3.56c-.71.87-1.56,1.27-2.19,2.29a19.31,19.31,0,0,0-2.27,5.36c-.38,1.55,0,2.49-1.26,3.46-.91.69-1.86,1.35-2.8,2-1.76,1.23-3,2.88-2.29,5.1a15.75,15.75,0,0,0,7,8c26.61,12.49,12.92,15.86,20.41,23C500.18,418,508.82,425,509.7,432"/><path d="M506.4,348.88a10.45,10.45,0,0,1,.46,1c.09.21.25.63.13.85s0,.09-.13.05-.15-.2-.2-.26a1.9,1.9,0,0,0-.25-.24c-.35-.3-.73-.55-1.09-.84-.2-.17-.42-.32-.62-.5-1.18-1.15-2-2.73-3.33-3.73a7.42,7.42,0,0,0-4.47-1.18c.15-.52.58-2.22,1.18-2.27.85-.08,2.6,1.32,3.43,1.58a6.85,6.85,0,0,1,3.71,2.94C505.69,347.13,506,348.05,506.4,348.88Z"/><path d="M562.26,408.55c-.58-2.55-1.66-5.18-1.93-7.76-.86-8.22,6.54-14.78,9.28-22.58,2.26-6.41,1.23-13.65-1.59-19.83s-7.3-11.47-12-16.34c-4.4-4.51-9.17-8.81-14.85-11.52-3.83-1.82-15.76-5.43-18.85-.73s2.15,13.62-.43,19.23c-1.31,2.84-3.93,5-4.71,8.07a25.24,25.24,0,0,0-.4,4.69c-.2,2.84-1.14,5.61-1.15,8.45s1.24,6,3.93,7a11.64,11.64,0,0,1,4.64-3.87c1.91-.71,2.29.55,3.36,2.29,1.47,2.38,1.64,4.62-.61,6.28s-5.06,2.92-6.26,5.45c-1.3,2.74-.24,6,.83,8.79,1.83,4.87,8.13,11.75,10,16.61,3.12-.16,2.21.41,5.33.43,2.36,0,2-4.48,3.32-2.55a19.24,19.24,0,0,0,10.73,7.45c4,1.07,9.17.3,11.07-3.42A8.75,8.75,0,0,0,562.26,408.55Z"/><path d="M521.39,330.05l.93.24a1.8,1.8,0,0,0,.06-.22A3,3,0,0,0,521.39,330.05Z"/><path d="M551.65,400.46a7.49,7.49,0,0,0,3.54-.31,12.33,12.33,0,0,1,4.16-.08,6.35,6.35,0,0,1,4.26,2,7,7,0,0,1,1.61,3.87,6.73,6.73,0,0,1-.46,3.76c-.74,1.14-2.76,2-3.84,2.84a7,7,0,0,1-4.68,1,6.3,6.3,0,0,1-4.52-1.85,20.61,20.61,0,0,1-4-10.31c-.26-1.81,1.13-3.9,2.34-5.2s3.55-3.09,5.35-3.39c3.44-.59,6,2.92,7.1,5.67.67,1.64,1.19,3.36.23,5a10.16,10.16,0,0,1-3.33,3.19,19.08,19.08,0,0,1-4.47,2.75,6.88,6.88,0,0,1-2.65.76,22.76,22.76,0,0,0-3.09,0,8.46,8.46,0,0,1-3.46-.34,3.43,3.43,0,0,1-2.1-1.62,11,11,0,0,1-1.46-2.81c-.22-.63-.2-1.33-.38-2-.3-1.12-.26-1.15.75-2"/><path d="M556.89,400.05c.75-1.3,2.06-1.61,3.43-1.83a7,7,0,0,0,1.4-.31,1.93,1.93,0,0,1,2,.24c1.63,1,2.44,3.15,3.17,4.8a6.75,6.75,0,0,1,.71,2.17c0,.71-.17,1.42-.11,2.11a4.66,4.66,0,0,1,.16,1.18c-.06.45-.33.82-.38,1.28a2.57,2.57,0,0,1-.21,1.19,10.28,10.28,0,0,1-.74,1.08,5.1,5.1,0,0,1-1.61,1.72,14.07,14.07,0,0,1-2.26,1,5.87,5.87,0,0,1-1.1.18c-.45.07-.86.29-1.31.36a6.53,6.53,0,0,1-3.54-.94c-2.12-1-3.58-3.26-4.82-5.16a12.1,12.1,0,0,1-1.83-4.94,28.86,28.86,0,0,1-.07-2.94,10.32,10.32,0,0,1,.14-2.72,9,9,0,0,1,1.22-2.75,18.73,18.73,0,0,1,1.86-2.64,6.42,6.42,0,0,1,2.7-1.6,7.87,7.87,0,0,0,1.64-.35,5.73,5.73,0,0,1,1.62-.65,6.86,6.86,0,0,1,5.77,1.29,22,22,0,0,1,3.28,3.11c.58.77,1.12,1.58,1.69,2.36a6.19,6.19,0,0,1,1.12,2.86,4.41,4.41,0,0,1,0,1.81,5.22,5.22,0,0,1-.39,1.7c-.9,1.44-2.48,1.94-3.55,3.13a5.81,5.81,0,0,1-.6.73c-.38.31-.82.58-1.23.87a10.49,10.49,0,0,1-2.06,1.33,7.23,7.23,0,0,1-2.68.65,3.79,3.79,0,0,1-2.89-1.15,10.63,10.63,0,0,1-2.67-2.8,13.62,13.62,0,0,1-1.6-4.88,10.44,10.44,0,0,1,.26-5.21,11.23,11.23,0,0,1,1-2.53,12.38,12.38,0,0,1,1.75-1.72c1.3-1.17,3.24-1.26,4.88-1.49.32,0,1.08-.29,1.39-.16s.45.56.59.76"/><path d="M538.4,405.67c.75-1.31,2.07-1.62,3.43-1.84a7.13,7.13,0,0,0,1.41-.31,1.93,1.93,0,0,1,2,.24c1.64,1,2.45,3.15,3.17,4.8a6.51,6.51,0,0,1,.71,2.17c0,.72-.16,1.42-.11,2.12a4.14,4.14,0,0,1,.17,1.17c-.07.45-.33.82-.38,1.28a2.43,2.43,0,0,1-.22,1.19,8.89,8.89,0,0,1-.73,1.08,5.23,5.23,0,0,1-1.61,1.73,15.43,15.43,0,0,1-2.26.95,5.87,5.87,0,0,1-1.1.18c-.46.07-.86.29-1.31.36a6.53,6.53,0,0,1-3.54-.94c-2.12-1-3.58-3.26-4.82-5.16a12,12,0,0,1-1.83-4.93,29,29,0,0,1-.07-2.95,10.76,10.76,0,0,1,.13-2.72,9.06,9.06,0,0,1,1.23-2.75,19.52,19.52,0,0,1,1.85-2.64,6.45,6.45,0,0,1,2.71-1.6,7.87,7.87,0,0,0,1.64-.35,6.11,6.11,0,0,1,1.61-.65,6.89,6.89,0,0,1,5.78,1.29,21.41,21.41,0,0,1,3.27,3.11c.59.77,1.12,1.58,1.7,2.36a6.3,6.3,0,0,1,1.12,2.86,4.42,4.42,0,0,1,0,1.81,5.49,5.49,0,0,1-.39,1.7c-.91,1.44-2.48,1.95-3.55,3.13a5.81,5.81,0,0,1-.6.73c-.38.31-.83.58-1.23.87a10.49,10.49,0,0,1-2.06,1.33,7.13,7.13,0,0,1-2.69.65,3.81,3.81,0,0,1-2.89-1.15,10.59,10.59,0,0,1-2.66-2.8,13.62,13.62,0,0,1-1.6-4.88,10.44,10.44,0,0,1,.26-5.21,11.2,11.2,0,0,1,1-2.53,12.46,12.46,0,0,1,1.76-1.72c1.3-1.17,3.24-1.26,4.87-1.49.32,0,1.09-.29,1.4-.16s.44.56.59.77"/><path class="cls-2" d="M516.54,375.91c.31-5.51,9.15-5.24,11.67-1.93a6.86,6.86,0,0,1-1.17,9.2c-2.79,2.18-6.91,1.86-9.83,3.87-1.54,1.06-2.76,2.77-4.61,3.09s-3.71-2.49-2-3.31"/><path class="cls-3" d="M517.46,392.76c-3.62.67-14,12.39-17.1,14.32-2.7,1.7-4.68,4.42-6.84,6.72-1.59,1.69-2.45,3.81-4,5.55-.88,1-1.41,2.18-2.35,3.17a10.5,10.5,0,0,0-1.68,2.61c-.87,1.76-1.81,3.45-2.7,5.2-.54,1.07-.89,2.24-1.5,3.26-1.77,3-2.7,6.27-4.1,9.45-1.24,2.82-2.43,5.69-3.86,8.37-1.12,2.09-1.43,4.28-2.08,6.51a9.42,9.42,0,0,0-.69,4.28,16.17,16.17,0,0,1-.48,3.22,30.07,30.07,0,0,0,.12,3.67c.13,3.12.12,6.25.2,9.37.11,4.64-.83,9.29-1.14,13.91-.27,4.06-.47,8.14-1,12.18-.73,5.71-.72,11.41-1.22,17.14-.79,9,.12,17.91,1.31,26.83a57.36,57.36,0,0,0,1.12,7.62c.64,2.34-11.27,14.08-10.17,16.23,4.49,8.75,21.18-8.9,24.46-12.17,1.34-1.34,2.72-2.66,4.12-4,11-10.16,23.5-18.9,33.16-30.43a129.17,129.17,0,0,0,20.38-34.73,104.67,104.67,0,0,0,5.37-18.44c1-5.2,3.26-12.95,2.25-18.21-.78-4.08-1.71-8.13-2.53-12.16a68.7,68.7,0,0,0-3.18-12c-1.23-3-2.15-6.07-4-8.78a80.53,80.53,0,0,1-4.77-6.7c-.92-1.66,2.56,3.31,1.18,1.88"/><path class="cls-4" d="M440.94,477.4a34,34,0,0,1-11.61,13.4,23.87,23.87,0,0,1-3.95,2.05c-.93.38-1,.27-1.14,1.22a9.49,9.49,0,0,0,.14,2.12c.09.8,18.51-5.47,18.78-4.72,6.06,17.32,4.47,35.87.32,53.42-2.05,8.64-4.05,18.61-7.85,26.67-3.62,7.71-10.66,11.13-17.7,15.76a50.26,50.26,0,0,1-16.06,7.23c-.37.08-.74.13-1.11.19,2.29.72,4.55,1.56,6.88,2.2a33.64,33.64,0,0,0,8.43,1c5.69.11,8-1.24,13.61-2.17A66.48,66.48,0,0,0,448.77,589a84.53,84.53,0,0,0,16.72-12c1-.91,6.79-5.7,7.49-6.85.86-1.43,1.23-4.79,1.61-6.4,5.55-23.52,20.53-43.89,30.09-66.22a5.39,5.39,0,0,0,.63-3.15,5.06,5.06,0,0,0-1.7-2.37,162.11,162.11,0,0,1-29-36.59,7.74,7.74,0,0,1-1.33-3.64,3,3,0,0,1,2.14-3q-4.77,1.46-9.6,2.65"/><path d="M538.85,418.1c1.47,1,2.47,2.44,4,3.41a16.86,16.86,0,0,0,4.89,1.68,5.81,5.81,0,0,0,4.83-.84c1.59-1,3.16-2,3.67-3.78,1.1-3.91.78-7.39-1.83-10.73-.87-1.11-7.65-8.45-8.7-4.9"/><path class="cls-5" d="M504.22,493c.08.12.17.23.25.36a4.65,4.65,0,0,1,.33.8,1.57,1.57,0,0,1,.08.31,4.9,4.9,0,0,1,.07.77,1.37,1.37,0,0,1,0,.53,1.5,1.5,0,0,1-.2.65,6,6,0,0,1-.25.58,1.83,1.83,0,0,1-.16.26c7.59-1.18,16-5,24.79-11.37a124.09,124.09,0,0,0,17.08-15.17s2-1.93,1.56-1.54c.6-3.41,1-4.31,1.26-7.32-.71.73-2.75,2.65-3.4,3.31-.93.94-1.78,1.8-2.49,2.56a120,120,0,0,1-16.45,14.62c-6.13,4.45-14.29,9.18-22.51,10.56Z"/><path class="cls-6" d="M516.82,416.78a19.24,19.24,0,0,0-11.68-10,19.76,19.76,0,0,0-9.37-.3,46,46,0,0,0-22.06,10.86c-5.65,5.24-10.3,10.1-12.67,17.48a58.15,58.15,0,0,1-6.71,14.44,63.27,63.27,0,0,1-10.28,11.82,63.39,63.39,0,0,0-9.24,10.36c-20.41-20.61-42.86-30.42-62.07-48-.86-4.52-1.09-9.16-1.69-13.72-.38-2.91-.55-5.86-1.22-8.73s-2.11-4.68-3.71-7.14c-1.36-2.11-3.37-2.52-4.17-4.9a3,3,0,0,0-.35-.72c-.16-.25-.26-.55-.42-.8a3.69,3.69,0,0,0-1.2-1.25,1.4,1.4,0,0,0-.45-.24,5.88,5.88,0,0,0-.73,0,5.93,5.93,0,0,1-1.51-.12,6.4,6.4,0,0,1-1.27-.71,25.68,25.68,0,0,1-2.28-1.51,10.1,10.1,0,0,0-2.23-1.66c-.55-.22-.84.33-1.13.8a2.5,2.5,0,0,0-.28.85c-.08.34-.15.68-.21,1,.1.5.19,1,.27,1.49a.89.89,0,0,1,0,.23A9.81,9.81,0,0,0,351.3,388c.48.63,1,1.24,1.49,1.83,0,0,5,4.86,5,4.9-.24-.23-5.38-5.23-5.62-5.48a11,11,0,0,1-1.28-1.57c-.28-.42-.48-.9-.74-1.33a.67.67,0,0,1-.48.53,3.88,3.88,0,0,0-2.63,2.5c-.45,1.14-.75,2.32-1.29,3.43a.68.68,0,0,1-.78.31,2.71,2.71,0,0,0-3.27,1.08,7.6,7.6,0,0,0-.88,3.59.73.73,0,0,1-.07.29l2.63,4.68c0-.08,3.22,5.27,1.24,2.39l-4-6.93a.59.59,0,0,1-.7.25,1.77,1.77,0,0,0-2,.52c-1,1.31-.38,1.61-.61,2.4a2.63,2.63,0,0,1-1.61,2c-.68.25-1.15.49-1.35,1.27a7,7,0,0,0-.17,1.38c.43.75.92,1.43,1.31,2.2.84,1.68,2.13,3,3.11,4.61s2,3.55,3.1,5.29c.41.67.82,1.34,1.28,2,2.69,3.8,6.72,6.56,10.29,9.45.39.33.82.49,1.2.86a18.08,18.08,0,0,0,2.2,1.57c6.29,10.25,12.61,20.47,20,29.68a128.73,128.73,0,0,0,38.88,33.18c.63.35,1.27.66,1.9,1,3.52,1.65,7.13,2.74,10.78,4.17,2.46,1,5.19,1.3,7,2.74a11.8,11.8,0,0,0,6.06,2.62c6.35.73,12-3.8,16.68-8.14,9.46-8.78,33.21-22.93,41.05-33.18"/><path class="cls-7" d="M358.08,390.38a3.25,3.25,0,0,0,1.12-.78c.19-.25.38-.53.57-.8s.34-.41.51-.63.68-.47.63-1.06"/><path class="cls-7" d="M357.26,388.61a7.46,7.46,0,0,1,.56-1.67l.21-.53a5.26,5.26,0,0,0,.37-.64"/><path class="cls-7" d="M355,384.71c1.08.87-.4,1-.94,1-1.23,0-3.8-.08-3.83-2.25"/><path class="cls-7" d="M337.05,401.68a34.14,34.14,0,0,0,3.11,4.67,6.26,6.26,0,0,0,.56.79c.25.27,1.75,2.39,2,2.69s-5.77-7.72-5.53-7.23"/><path class="cls-7" d="M345.74,392.2c.31.62,1.21,1.9,1.59,2.48.21.34,3.81,6.41,4,6.75s-5.78-9-5.6-8.59"/><path class="cls-5" d="M548,448.77l-.76-4.24c-.24-1.28-.6-2.5-.89-3.76A97.56,97.56,0,0,0,514.9,411a24.2,24.2,0,0,0-8.37-3.41,13.61,13.61,0,0,1,4.91,2.77,14.06,14.06,0,0,1,2.68,2.41,16.59,16.59,0,0,1,2.94,4.56c2.35,1.54,4.65,3.16,6.84,4.89a96.09,96.09,0,0,1,21.79,25.1c1,1.69,2.11,3.62,3.06,5.37C548.63,451.85,548.17,449.83,548,448.77Z"/><path d="M66,207.09v7.25H68.1l4.25-7.25h3.5l-5,8.61,5.45,8.65h-3.6L68.08,217H66v7.37H63V207.09Z"/><path d="M80.49,211.43l.47,2.29a4.74,4.74,0,0,1,4.41-2.41c3,0,4.49,1.94,4.49,4.61v8.43H86.8v-7.44c0-2-.74-3-2.42-3-2.34,0-3.25,1.9-3.25,4v6.51H78.07V211.43Z"/><path d="M104.31,220.8a5.76,5.76,0,0,1-5.57,3.7c-4.34,0-6.27-2.71-6.27-6.76s2.72-6.53,6.44-6.43c3,.07,5.74,2.34,5.45,6.46l0,.39H95.58c0,2.2.94,3.7,3.18,3.7a2.89,2.89,0,0,0,2.79-2.05Zm-3.13-4.22c0-2-1-2.93-2.54-2.88a2.87,2.87,0,0,0-2.91,2.88Z"/><path d="M118.39,220.8a5.76,5.76,0,0,1-5.57,3.7c-4.34,0-6.26-2.71-6.26-6.76s2.71-6.53,6.43-6.43c3,.07,5.75,2.34,5.45,6.46l0,.39h-8.73c0,2.2.94,3.7,3.18,3.7a2.87,2.87,0,0,0,2.79-2.05Zm-3.13-4.22c0-2-1-2.93-2.54-2.88a2.87,2.87,0,0,0-2.91,2.88Z"/><path d="M121.48,220.65a6.68,6.68,0,0,0,4.19,1.43c1.48,0,2.34-.44,2.34-1.5,0-2.52-7.47-.84-7.22-5.57.1-2.32,1.8-3.7,5.23-3.7a10.49,10.49,0,0,1,4.66,1.21l-1.09,2.17a7.25,7.25,0,0,0-3.7-1.06c-1.21,0-2.22.39-2.17,1.4.15,2.05,7.33.47,7.33,5.45,0,2.66-2.4,4-5.45,4a8.83,8.83,0,0,1-5.31-1.68Z"/><path d="M141.13,211.43l.45,2.29a4.34,4.34,0,0,1,4-2.44,3.78,3.78,0,0,1,3.85,2.39,4.57,4.57,0,0,1,4.17-2.39c3,0,4.21,2,4.21,4.64v8.43h-3.05v-7.44c0-2-.47-3-2.15-3-2.22,0-2.81,1.68-2.81,3.58v6.9h-3.06v-7.44c0-2-.47-3-2.14-3-2.37,0-2.84,1.9-2.84,4v6.51h-3.06V211.43Z"/><path d="M163.8,211.43v7.45c0,2,.79,3,2.59,3,2.34,0,3.3-2.42,3.3-4.86v-5.62h3.06v12.92h-2.44l-.44-2.81a4.72,4.72,0,0,1-4.47,3c-3.15,0-4.66-1.95-4.66-5.2v-7.87Z"/><path d="M176.26,220.65a6.68,6.68,0,0,0,4.19,1.43c1.48,0,2.34-.44,2.34-1.5,0-2.52-7.47-.84-7.22-5.57.1-2.32,1.8-3.7,5.22-3.7a10.56,10.56,0,0,1,4.67,1.21l-1.09,2.17a7.25,7.25,0,0,0-3.7-1.06c-1.21,0-2.22.39-2.17,1.4.15,2.05,7.32.47,7.32,5.45,0,2.66-2.39,4-5.44,4a8.83,8.83,0,0,1-5.31-1.68Z"/><path d="M192.29,207.78v3.77h3.25l-.42,2.47h-2.83v5.92c0,1.4.64,1.95,1.67,1.95a5.72,5.72,0,0,0,1.95-.57l.57,2.34a8.1,8.1,0,0,1-3.28.84c-3,0-4-2-4-4.14V214h-1.8v-2.47h1.95l.37-3.42Z"/><path d="M65.84,239.43v8.21a4.4,4.4,0,0,1,4.31-2.42c2.44.07,5.06,1.73,5.06,6.49,0,3.89-1.95,6.7-5.45,6.7a4.27,4.27,0,0,1-4.07-2.36l-.42,2.21H62.78V239.82Zm-.13,12.35c0,2.22.82,4,3.26,4,2,0,3.1-1.5,3.1-4,0-3-1.5-3.94-3.13-3.94S65.71,249.19,65.71,251.78Z"/><path d="M89.24,254.71a5.75,5.75,0,0,1-5.57,3.7c-4.34,0-6.27-2.71-6.27-6.75s2.72-6.54,6.44-6.44c3,.07,5.74,2.34,5.45,6.46l-.05.4H80.51c0,2.19.94,3.69,3.18,3.69a2.88,2.88,0,0,0,2.79-2Zm-3.13-4.21c0-2-1-2.94-2.54-2.89a2.88,2.88,0,0,0-2.91,2.89Z"/><path d="M99.58,245.34l.44,2.32a4.71,4.71,0,0,1,4.41-2.44c2.45.07,5.08,1.73,5.08,6.49,0,3.89-1.94,6.7-5.47,6.7a4,4,0,0,1-3.82-2.09v6.88H97.13V245.34Zm.42,6.44c0,2.22.81,4,3.28,4,2,0,3.1-1.5,3.1-4,0-3-1.5-3.94-3.13-3.94C101.47,247.79,100,249.19,100,251.78Z"/><path d="M115.09,245.34v7.45c0,2,.79,3,2.59,3,2.34,0,3.3-2.41,3.3-4.85v-5.63H124v12.92H121.6l-.44-2.81a4.72,4.72,0,0,1-4.47,3c-3.15,0-4.66-1.94-4.66-5.2v-7.87Z"/><path d="M130.26,239.43v14.62c0,1.38.62,1.75,1.53,1.75a2.33,2.33,0,0,0,1.28-.47l.57,2.2a5.37,5.37,0,0,1-2.79.88c-2.56,0-3.65-1.72-3.65-4.07V239.8Z"/><path d="M137.24,239.43v14.62c0,1.38.61,1.75,1.53,1.75a2.37,2.37,0,0,0,1.28-.47l.57,2.2a5.37,5.37,0,0,1-2.79.88c-2.56,0-3.65-1.72-3.65-4.07V239.8Z"/><path d="M153.1,254.71a5.77,5.77,0,0,1-5.58,3.7c-4.34,0-6.26-2.71-6.26-6.75s2.71-6.54,6.44-6.44c3,.07,5.74,2.34,5.44,6.46l0,.4h-8.73c0,2.19.93,3.69,3.18,3.69a2.86,2.86,0,0,0,2.78-2ZM150,250.5c0-2-1-2.94-2.54-2.89a2.89,2.89,0,0,0-2.91,2.89Z"/><path d="M167.92,239.43v18.83h-2.57l-.34-2.21a4.53,4.53,0,0,1-4.12,2.36c-3.48,0-5.55-2.83-5.55-6.63,0-4.64,3-6.56,5.53-6.56a4.1,4.1,0,0,1,4,2.44v-7.84Zm-9.42,12.32c0,2.2.86,3.93,3.16,3.93s3.25-1.73,3.25-3.9c0-2.93-1.58-4-3.28-4S158.5,248.92,158.5,251.75Z"/><path d="M180.23,245.34v12.92h-3.08V247.88h-1.8v-2.54Zm-1.56-5a1.66,1.66,0,0,1,1.83,1.56,1.83,1.83,0,0,1-3.63,0A1.59,1.59,0,0,1,178.67,240.31Z"/><path d="M185.8,245.34l.47,2.3a4.78,4.78,0,0,1,4.41-2.42c3,0,4.49,1.95,4.49,4.61v8.43h-3.06v-7.44c0-2-.73-3-2.41-3-2.34,0-3.26,1.89-3.26,4v6.51h-3.05V245.34Z"/><path d="M202.25,241.69v3.78h3.26l-.42,2.46h-2.84v5.92c0,1.41.64,2,1.68,2a5.5,5.5,0,0,0,1.95-.57l.56,2.35a8.14,8.14,0,0,1-3.27.83c-3,0-4-2-4-4.14v-6.34h-1.81v-2.46h2l.37-3.43Z"/><path d="M213.6,245.22c3.23,0,6,2.19,6,6.61,0,3.62-2.15,6.58-6.17,6.58-4.36,0-6.16-3-6.16-6.58C207.31,247.41,210.1,245.22,213.6,245.22Zm-3.08,6.61c0,2,.69,4,3,4,2.1,0,3-1.94,3-4,0-2.86-1.41-4-3-4S210.52,248.92,210.52,251.83Z"/><path d="M66.75,275.61v3.77H70l-.42,2.47H66.75v5.91c0,1.41.64,1.95,1.67,1.95a5.69,5.69,0,0,0,2-.56l.57,2.34a8.1,8.1,0,0,1-3.28.84c-3,0-4-2-4-4.15v-6.33h-1.8v-2.47h2l.37-3.43Z"/><path d="M76,273.34v8a4.84,4.84,0,0,1,4.24-2.2c3,0,4.49,1.95,4.49,4.62v8.43H81.62v-7.45c0-2-.74-3-2.42-3-2.34,0-3.25,1.9-3.25,4v6.51H72.89V273.71Z"/><path d="M99.08,288.63a5.76,5.76,0,0,1-5.57,3.7c-4.34,0-6.27-2.72-6.27-6.76S90,279,93.68,279.13c3,.08,5.75,2.35,5.45,6.46l0,.4H90.35c0,2.19.94,3.7,3.18,3.7a2.88,2.88,0,0,0,2.79-2.05ZM96,284.41c0-2-1-2.93-2.54-2.88a2.87,2.87,0,0,0-2.91,2.88Z"/><path d="M118.22,288.55c-.84,2.64-3,3.78-5.62,3.78-4.24,0-6.07-3.16-6.07-6.61,0-4.22,2.62-6.51,6.14-6.59,3.11-.07,5,1.53,5.5,3.8l-2.84.91a2.54,2.54,0,0,0-2.61-2.12c-1.77,0-3.13,1.31-3.13,3.95,0,2.09.79,4,3.08,4a2.59,2.59,0,0,0,2.71-2Z"/><path d="M123.75,273.34v8a4.84,4.84,0,0,1,4.24-2.2c3,0,4.49,1.95,4.49,4.62v8.43h-3.06v-7.45c0-2-.74-3-2.42-3-2.34,0-3.25,1.9-3.25,4v6.51h-3.06V273.71Z"/><path d="M146.88,288.63a5.76,5.76,0,0,1-5.57,3.7c-4.34,0-6.27-2.72-6.27-6.76s2.72-6.53,6.44-6.44c3,.08,5.74,2.35,5.45,6.46l-.05.4h-8.73c0,2.19.94,3.7,3.18,3.7a2.89,2.89,0,0,0,2.79-2.05Zm-3.13-4.22c.05-2-1-2.93-2.54-2.88a2.87,2.87,0,0,0-2.91,2.88Z"/><path d="M150,288.48a6.73,6.73,0,0,0,4.2,1.43c1.48,0,2.34-.44,2.34-1.5,0-2.52-7.47-.84-7.23-5.58.1-2.32,1.8-3.7,5.23-3.7a10.49,10.49,0,0,1,4.66,1.21l-1.08,2.17a7.36,7.36,0,0,0-3.7-1.06c-1.21,0-2.22.4-2.17,1.41.15,2.05,7.32.47,7.32,5.45,0,2.66-2.39,4-5.45,4a8.86,8.86,0,0,1-5.3-1.68Z"/><path d="M166,275.61v3.77h3.25l-.42,2.47H166v5.91c0,1.41.64,1.95,1.67,1.95a5.76,5.76,0,0,0,2-.56l.57,2.34a8.1,8.1,0,0,1-3.28.84c-3,0-4-2-4-4.15v-6.33h-1.8v-2.47h2l.37-3.43Z"/><path d="M90.78,323.31A68.38,68.38,0,0,0,105.37,354a80.71,80.71,0,0,0,24.29,19.46A89.76,89.76,0,0,0,145,379.84c1.85.58,2.64-2.31.8-2.89-19-6-36.51-18.64-45.91-36.51a64.71,64.71,0,0,1-6.23-17.93c-.37-1.89-3.26-1.09-2.89.8Z"/><path d="M135.73,367.88c3.18,3.6,6,7.49,8.9,11.32l.53-2.05c-2.34,1-4.63,2.08-6.95,3.11-2.07.91-4.18,1.74-6.25,2.66a1.51,1.51,0,0,0-.54,2.05,1.54,1.54,0,0,0,2.05.54c2.07-.92,4.18-1.75,6.25-2.66,2.33-1,4.62-2.12,7-3.11a1.5,1.5,0,0,0,.54-2.05c-3.06-4-6-8.14-9.37-11.93-1.28-1.45-3.39.67-2.12,2.12Z"/><path class="cls-8" d="M148.79,61.4a36.73,36.73,0,0,1,8.33-23.32,34.4,34.4,0,0,0-45.48-4.38A34.43,34.43,0,0,0,131.9,96a34.33,34.33,0,0,0,25.32-11.11A36.76,36.76,0,0,1,148.79,61.4ZM138,75.49s-3.7-.27-11.47-.27a25.63,25.63,0,0,0-4.93.31l-1.35-2.46c7.78-7.9,12.4-13.63,13-18.71.47-3.66-2-4.82-4.35-4.66a9.73,9.73,0,0,0-6.73,3.92c-.2-.23-1.93-2.07-1.47-2.65A12.43,12.43,0,0,1,130,46.12c5.89,0,9.09,3,8.74,8.51-.46,7-8,13.59-12.63,17.55l8.32-.08c1.77-.15,3-2.54,3.81-4.73,0,0,1.73.5,2,1C139.58,71.53,138.81,75.49,138,75.49Z"/><path class="cls-8" d="M95.79,61.4A36.74,36.74,0,0,1,104.16,38a34.44,34.44,0,1,0,.11,46.9A36.78,36.78,0,0,1,95.79,61.4ZM87.2,75.66H70.92L71,73.39l4.46-.58c.58,0,.81-.23.81-1,.08-10.05,0-19.6,0-19.6l-5.62,1.08c-.19-.31-1.12-2.46-.46-2.73l10.35-4,1,1s-.12,20.87,0,24.37c0,.77.19,1,.73,1l5.08.54Z"/><circle cx="184" cy="61.53" r="34.44"/><text class="cls-9" transform="translate(172.45 75.26)">3</text><path d="M243.45,38.34l-.27,3.12h-5.55V59.34h-3.75V41.46h-5.76V38.34Z"/><path d="M249.6,36.42v9.72a5.86,5.86,0,0,1,5.16-2.67c3.69,0,5.46,2.37,5.46,5.61V59.34H256.5V50.28c0-2.4-.9-3.69-2.94-3.69-2.85,0-4,2.31-4,4.83v7.92h-3.72V36.87Z"/><path d="M277.74,55a7,7,0,0,1-6.78,4.5c-5.28,0-7.62-3.3-7.62-8.22s3.3-7.95,7.83-7.83c3.69.09,7,2.85,6.63,7.86l-.06.48H267.12c0,2.67,1.14,4.5,3.87,4.5a3.5,3.5,0,0,0,3.39-2.49Zm-3.81-5.13c.06-2.43-1.26-3.57-3.09-3.51a3.5,3.5,0,0,0-3.54,3.51Z"/><path d="M284,43.62l.57,2.79A5.8,5.8,0,0,1,290,43.47c3.69,0,5.46,2.37,5.46,5.61V59.34h-3.72V50.28c0-2.4-.9-3.69-2.94-3.69-2.85,0-4,2.31-4,4.83v7.92h-3.72V43.62Z"/><path d="M310.29,39.18v4.59h4l-.51,3h-3.45V54c0,1.71.78,2.37,2,2.37a6.83,6.83,0,0,0,2.37-.69l.69,2.85a9.82,9.82,0,0,1-4,1c-3.69,0-4.83-2.46-4.83-5V46.77h-2.19v-3h2.37l.45-4.17Z"/><path d="M321.48,36.42v9.72a5.86,5.86,0,0,1,5.16-2.67c3.69,0,5.46,2.37,5.46,5.61V59.34h-3.72V50.28c0-2.4-.9-3.69-2.94-3.69-2.85,0-4,2.31-4,4.83v7.92h-3.72V36.87Z"/><path d="M349.62,55a7,7,0,0,1-6.78,4.5c-5.28,0-7.62-3.3-7.62-8.22s3.3-7.95,7.83-7.83c3.69.09,7,2.85,6.63,7.86l-.06.48H339c0,2.67,1.14,4.5,3.87,4.5a3.5,3.5,0,0,0,3.39-2.49Zm-3.81-5.13c.06-2.43-1.26-3.57-3.09-3.51a3.5,3.5,0,0,0-3.54,3.51Z"/><path d="M360.15,43.77V41.64c0-3.12,1.62-5.22,5.16-5.22a6.41,6.41,0,0,1,3.6,1.08v-.72l3.72-.36V54.21c0,1.68.72,2.13,1.83,2.13a2.81,2.81,0,0,0,1.56-.57l.72,2.67a6.6,6.6,0,0,1-3.42,1.08c-3.09,0-4.41-2.1-4.41-5V40.08a6,6,0,0,0-2.7-.69c-1.47,0-2.31.6-2.31,2.85v1.53h3.18l-.48,3h-2.7V59.34h-3.75V46.77h-2.46v-3Z"/><path d="M383.37,43.62V59.34h-3.75V46.71h-2.19V43.62Zm-1.89-6.12a2,2,0,0,1,2.22,1.89,2.22,2.22,0,0,1-4.41,0A1.93,1.93,0,0,1,381.48,37.5Z"/><path d="M401.85,43.62V57c0,5.22-2,8.37-7.8,8.37A16.38,16.38,0,0,1,387.63,64l.87-2.82a13.33,13.33,0,0,0,5.13,1.17c3.39,0,4.5-1.68,4.5-4.26V56.7a5.42,5.42,0,0,1-4.83,2.49c-4.23.09-6.66-3.12-6.66-7.74,0-5.64,3.6-8,6.72-8a5.2,5.2,0,0,1,5,2.85l.39-2.7Zm-11.34,7.8c0,2.67,1.05,4.77,3.84,4.77s3.9-2.1,3.9-4.74c0-3.57-1.89-4.86-3.93-4.86S390.51,48,390.51,51.42Z"/><path d="M409.41,36.42v9.72a5.86,5.86,0,0,1,5.16-2.67c3.69,0,5.46,2.37,5.46,5.61V59.34h-3.72V50.28c0-2.4-.9-3.69-2.94-3.69-2.85,0-4,2.31-4,4.83v7.92h-3.72V36.87Z"/><path d="M428.58,39.18v4.59h4l-.51,3h-3.45V54c0,1.71.78,2.37,2,2.37a6.83,6.83,0,0,0,2.37-.69l.69,2.85a9.82,9.82,0,0,1-4,1c-3.69,0-4.83-2.46-4.83-5V46.77h-2.19v-3H425l.45-4.17Z"/><path d="M445.29,43.62l.54,2.82a5.71,5.71,0,0,1,5.37-3c3,.09,6.18,2.1,6.18,7.89,0,4.74-2.37,8.16-6.66,8.16A4.88,4.88,0,0,1,446.07,57v8.37h-3.75V43.62Zm.51,7.83c0,2.7,1,4.86,4,4.86,2.43,0,3.78-1.83,3.78-4.92,0-3.66-1.83-4.8-3.81-4.8C447.6,46.59,445.8,48.3,445.8,51.45Z"/><path d="M464.37,36.42v9.72a5.86,5.86,0,0,1,5.16-2.67c3.69,0,5.46,2.37,5.46,5.61V59.34h-3.72V50.28c0-2.4-.9-3.69-2.94-3.69-2.85,0-4,2.31-4,4.83v7.92h-3.72V36.87Z"/><path d="M478.41,44.61a18.74,18.74,0,0,1,5.94-1.14c4.74,0,6.48,2.34,6.48,6v6.36a.79.79,0,0,0,.75.9,3,3,0,0,0,1.23-.18V59a6.08,6.08,0,0,1-2.49.48,2.84,2.84,0,0,1-2.85-2.13,6.87,6.87,0,0,1-4.74,2.13c-3.06,0-5.34-1.56-5.37-4.83s2.46-5,6.39-5a24.49,24.49,0,0,1,3.39.3v-.93c0-1.71-1.08-2.64-3.24-2.61a12.68,12.68,0,0,0-4.86,1Zm8.7,7.35a16.62,16.62,0,0,0-3.06-.18c-1.8.09-2.94.93-3,2.52a2.21,2.21,0,0,0,2.55,2.31,6.17,6.17,0,0,0,3.48-1.26Z"/><path d="M495.81,54.84a8.15,8.15,0,0,0,5.1,1.74c1.8,0,2.85-.54,2.85-1.83,0-3.06-9.09-1-8.79-6.78.12-2.82,2.19-4.5,6.36-4.5A12.78,12.78,0,0,1,507,44.94l-1.32,2.64a8.9,8.9,0,0,0-4.5-1.29c-1.47,0-2.7.48-2.64,1.71.18,2.49,8.91.57,8.91,6.63,0,3.24-2.91,4.92-6.63,4.89a10.76,10.76,0,0,1-6.45-2Z"/><path d="M524.28,55a7,7,0,0,1-6.78,4.5c-5.28,0-7.62-3.3-7.62-8.22s3.3-7.95,7.83-7.83c3.69.09,7,2.85,6.63,7.86l-.06.48H513.66c0,2.67,1.14,4.5,3.87,4.5a3.5,3.5,0,0,0,3.39-2.49Zm-3.81-5.13c.06-2.43-1.26-3.57-3.09-3.51a3.5,3.5,0,0,0-3.54,3.51Z"/><path d="M238,67.38l-.26,1.1a7.49,7.49,0,0,0-1.65-.2c-2.41,0-3.57.87-3.57,4.06V74.2h4.38l-.29,1.19h-4.09V89.25h-1.39V75.39h-3.05V74.2h3.05v-2c0-3.69,1.82-5.08,4.81-5.08A9.18,9.18,0,0,1,238,67.38Z"/><path d="M245.79,89.42c-4.58,0-6.58-3.48-6.58-7.74,0-5.19,3-7.77,6.7-7.77,3.39,0,6.47,2.58,6.47,7.77C252.38,85.94,250,89.42,245.79,89.42Zm0-1.18c3.48,0,5.19-3.17,5.19-6.56,0-4.67-2.46-6.58-5.07-6.58-2.82,0-5.28,1.79-5.28,6.58C240.63,85.05,241.93,88.24,245.79,88.24Z"/><path d="M258.84,80.38v8.87h-1.39V74.05h1.13l.26,3.08c.64-1.95,2.35-3.22,5.08-3.22a7.85,7.85,0,0,1,1.62.14l-.2,1.28a4.68,4.68,0,0,0-1.51-.21C260.38,75.12,258.84,77.65,258.84,80.38Z"/><path d="M287.32,85.45l1.1.67a6.94,6.94,0,0,1-6,3.3c-4.79,0-6.82-3.27-6.82-7.94,0-4.9,3-7.57,6.84-7.57,3.51,0,6.36,2.55,6,7.28l-.06.49H277c0,4,1.65,6.56,5.48,6.56A5.68,5.68,0,0,0,287.32,85.45Zm-10.24-5h10c0-3.86-2-5.39-4.65-5.39C279.69,75.1,277.34,76.75,277.08,80.49Z"/><path d="M303.18,89.25l-4.58-6.7-4.7,6.7h-1.6l5.51-7.71-5-7.49h1.62l4.21,6.44L303,74.05h1.59l-5.16,7.43,5.34,7.77Z"/><path d="M313.65,89.42c-3.08,0-5.4-1.47-5.4-4.75s2.82-4.76,6.15-4.76a19.84,19.84,0,0,1,4.76.64V79c0-2.52-1.57-3.85-4.64-3.85a11.33,11.33,0,0,0-5,1.16l-.32-1.19a13.82,13.82,0,0,1,5.31-1.16c4.52,0,6,2.32,6,5.25v8.21c0,.43.09.81.64.87a5.49,5.49,0,0,0,1.48-.18v1.08a4.79,4.79,0,0,1-1.63.28,2,2,0,0,1-1.88-2.14A9,9,0,0,1,313.65,89.42Zm0-1.21a9.43,9.43,0,0,0,5.51-2.12V81.62a26.39,26.39,0,0,0-5-.58c-2.9,0-4.52,1.16-4.52,3.66C309.65,86.9,311.1,88.21,313.65,88.21Z"/><path d="M327.83,74.05l.23,3a5.1,5.1,0,0,1,4.67-3.19c2.7-.09,4.09,1.19,4.7,3a5.45,5.45,0,0,1,5-3c3.83-.12,5.05,2.43,5.05,5.42v9.92h-1.4v-10c0-2.72-1.24-4.14-3.74-4.14-3.48,0-4.58,2.43-4.58,5v9.14h-1.39v-10c0-2.72-1.25-4.14-3.75-4.14-3.65,0-4.58,2.69-4.58,5.42v8.73h-1.39V74.05Z"/><path d="M354.33,74.05l.27,3.08a6.22,6.22,0,0,1,5.62-3.22c3.4,0,6.62,2.17,6.62,7.63,0,4.58-2.27,7.88-6.85,7.88a5.61,5.61,0,0,1-5.39-3.21v8.84h-1.43v-21Zm5.78,14.19c3.65,0,5.33-2.93,5.33-6.68,0-4.9-2.58-6.46-5.39-6.46-3.1,0-5.57,2.52-5.57,6.55C354.48,85,355.67,88.24,360.11,88.24Z"/><path d="M373.33,85.42c0,2.15.9,2.76,2.32,2.76a4.81,4.81,0,0,0,2.44-.87l.63,1.1a5.72,5.72,0,0,1-3.07,1c-2.9,0-3.71-1.74-3.71-4V67.35l1.39-.26Z"/><path d="M391.89,85.45l1.1.67a6.93,6.93,0,0,1-6,3.3c-4.79,0-6.82-3.27-6.82-7.94,0-4.9,3-7.57,6.85-7.57,3.51,0,6.35,2.55,6,7.28l-.06.49h-11.4c0,4,1.66,6.56,5.49,6.56A5.68,5.68,0,0,0,391.89,85.45Zm-10.24-5h10c0-3.86-2-5.39-4.64-5.39C384.26,75.1,381.91,76.75,381.65,80.49Z"/><path d="M397.66,89.4c0-.58-.75-.53-.75-.53a1.12,1.12,0,0,1,0-2.23c1.45,0,2,1.34,1.82,2.73a3.28,3.28,0,0,1-3.45,2.81v-.9A2.13,2.13,0,0,0,397.66,89.4Z"/><path d="M414.6,89.42c-3.08,0-5.4-1.47-5.4-4.75s2.81-4.76,6.15-4.76a19.84,19.84,0,0,1,4.76.64V79c0-2.52-1.57-3.85-4.64-3.85a11.27,11.27,0,0,0-5,1.16l-.32-1.19a13.76,13.76,0,0,1,5.31-1.16c4.52,0,6,2.32,6,5.25v8.21c0,.43.09.81.64.87a5.49,5.49,0,0,0,1.48-.18v1.08a4.84,4.84,0,0,1-1.63.28,2,2,0,0,1-1.88-2.14A9,9,0,0,1,414.6,89.42Zm0-1.21a9.43,9.43,0,0,0,5.51-2.12V81.62a26.5,26.5,0,0,0-5-.58c-2.9,0-4.53,1.16-4.53,3.66C410.59,86.9,412,88.21,414.6,88.21Z"/><path d="M435.59,75.39h-2.52V74.2h2.58l.2-4.24,1.13-.2V74.2h4.44l-.32,1.19H437v10c0,2.15.9,2.76,2.32,2.76a7,7,0,0,0,2.93-1.08l.64,1.11a7.8,7.8,0,0,1-3.57,1.21c-2.9,0-3.71-1.74-3.71-4Z"/><path d="M448.79,89.25h-1.43v-14h-2.49V74.05h3.92Zm-1.86-20a1.12,1.12,0,0,1,1.1-1.1,1.12,1.12,0,1,1,0,2.23A1.12,1.12,0,0,1,446.93,69.21Z"/><path d="M466.86,87.6c0,5-2.18,7.45-7,7.45a15.16,15.16,0,0,1-5.6-1l.43-1.22a15.14,15.14,0,0,0,5.28,1c4.15,0,5.51-2.69,5.51-5.85V86.21a6.29,6.29,0,0,1-5.57,3.21c-4.49.15-6.73-3.39-6.73-7.68,0-5.22,3-7.83,6.65-7.83a5.82,5.82,0,0,1,5.65,3.19l.24-3h1.16Zm-6.79.64c3.77,0,5.42-3.17,5.42-6.59,0-4.64-2.67-6.55-5.54-6.55-3,0-5.39,1.77-5.39,6.55C454.56,85.05,455.63,88.24,460.07,88.24Z"/><path d="M484.75,79.33v9.92h-1.39v-10c0-2.72-1.51-4.14-4-4.14-3.65,0-5.31,2.69-5.31,5.42v8.73h-1.39V67.35l1.39-.26V77.24a5.81,5.81,0,0,1,5.4-3.33C483.27,73.79,484.75,76.34,484.75,79.33Z"/><path d="M491.1,75.39h-2.53V74.2h2.58l.21-4.24,1.13-.2V74.2h4.44l-.32,1.19h-4.12v10c0,2.15.9,2.76,2.32,2.76a7,7,0,0,0,2.93-1.08l.64,1.11a7.86,7.86,0,0,1-3.57,1.21c-2.9,0-3.71-1.74-3.71-4Z"/><path d="M510.15,75.39h-2.53V74.2h2.59l.2-4.24,1.13-.2V74.2H516l-.32,1.19h-4.12v10c0,2.15.9,2.76,2.32,2.76a7,7,0,0,0,2.93-1.08l.64,1.11a7.86,7.86,0,0,1-3.57,1.21c-2.9,0-3.71-1.74-3.71-4Z"/><path d="M531.87,89.25l-.23-3.59A6,6,0,0,1,526,89.4c-3.83.11-5.34-2.44-5.34-5.43V74.05h1.4v10c0,2.73,1.53,4.15,4,4.15,3.65,0,5.51-3.37,5.51-6V74.05H533v15.2Z"/><path d="M550.84,85.94A6.34,6.34,0,0,1,545,89.42c-4.64,0-6.82-3.71-6.82-7.77,0-5,3.14-7.74,7-7.74a6,6,0,0,1,5.63,3.45l-1.25.55A4.64,4.64,0,0,0,545,75.1c-3,0-5.51,2.11-5.51,6.46,0,3.49,1.53,6.62,5.45,6.62a4.68,4.68,0,0,0,4.61-2.82Z"/><path d="M560.93,81.65l5.51,7.6h-1.77l-4.93-6.9h-2.87v6.9h-1.42V67.35l1.42-.26V81.16h2.81l4.67-7.11h1.8Z"/><path d="M578.5,74.05l.26,3.08a6.22,6.22,0,0,1,5.63-3.22c3.39,0,6.61,2.17,6.61,7.63,0,4.58-2.26,7.88-6.84,7.88a5.62,5.62,0,0,1-5.4-3.21v8.84h-1.42v-21Zm5.77,14.19c3.66,0,5.34-2.93,5.34-6.68,0-4.9-2.58-6.46-5.4-6.46-3.1,0-5.56,2.52-5.56,6.55C578.65,85,579.83,88.24,584.27,88.24Z"/><path d="M601.93,89.42c-4.58,0-6.58-3.48-6.58-7.74,0-5.19,3-7.77,6.7-7.77,3.39,0,6.47,2.58,6.47,7.77C608.52,85.94,606.17,89.42,601.93,89.42Zm0-1.18c3.48,0,5.2-3.17,5.2-6.56,0-4.67-2.47-6.58-5.08-6.58-2.81,0-5.28,1.79-5.28,6.58C596.77,85.05,598.08,88.24,601.93,88.24Z"/><path d="M623.45,75.3l-.58,1.16a8.51,8.51,0,0,0-4.61-1.36c-2.09,0-4.06.61-4,2.75.08,3.8,9.71,1.57,9.71,7.14,0,3-2.55,4.49-5.94,4.43a8.17,8.17,0,0,1-5.6-1.94l.78-1A6.65,6.65,0,0,0,618,88.24c2.75,0,4.55-1,4.55-3.22,0-4.56-9.6-2.06-9.66-7.08,0-2.55,1.89-4,5.43-4A11.23,11.23,0,0,1,623.45,75.3Z"/><path d="M630.93,89.25h-1.42v-14H627V74.05h3.91Zm-1.85-20a1.12,1.12,0,0,1,1.1-1.1,1.12,1.12,0,1,1,0,2.23A1.12,1.12,0,0,1,629.08,69.21Z"/><path d="M637.57,75.39h-2.52V74.2h2.58l.2-4.24,1.13-.2V74.2h4.44l-.32,1.19H639v10c0,2.15.9,2.76,2.33,2.76a7,7,0,0,0,2.92-1.08l.64,1.11a7.8,7.8,0,0,1-3.56,1.21c-2.91,0-3.72-1.74-3.72-4Z"/><path d="M650.77,89.25h-1.42v-14h-2.5V74.05h3.92Zm-1.86-20a1.12,1.12,0,0,1,1.1-1.1,1.12,1.12,0,1,1,0,2.23A1.12,1.12,0,0,1,648.91,69.21Z"/><path d="M662.46,89.42c-4.59,0-6.59-3.48-6.59-7.74,0-5.19,3-7.77,6.7-7.77,3.39,0,6.47,2.58,6.47,7.77C669,85.94,666.69,89.42,662.46,89.42Zm0-1.18c3.48,0,5.19-3.17,5.19-6.56,0-4.67-2.47-6.58-5.08-6.58-2.81,0-5.28,1.79-5.28,6.58C657.29,85.05,658.6,88.24,662.46,88.24Z"/><path d="M675.27,74.05l.23,3a5.68,5.68,0,0,1,5.4-3.19c3.83-.12,5.31,2.43,5.31,5.42v9.92h-1.4v-10c0-2.72-1.5-4.14-4-4.14-3.65,0-5.31,2.69-5.31,5.42v8.73h-1.39V74.05Z"/></svg>