<svg id="Layer_1" data-name="Layer 1" xmlns="http://www.w3.org/2000/svg" viewBox="0 0 780 1051.14"><defs><style>.cls-1{fill:#c6946f;stroke-width:0.23px;}.cls-1,.cls-2,.cls-4,.cls-5,.cls-6,.cls-7{stroke:#fff;stroke-miterlimit:10;}.cls-2,.cls-3,.cls-6,.cls-7{fill:#d4a47c;}.cls-2{stroke-width:0.28px;}.cls-4{fill:#005058;stroke-width:0.54px;}.cls-5{fill:#fff171;stroke-width:0.3px;}.cls-6{stroke-width:0.41px;}.cls-7{stroke-width:0.31px;}.cls-8,.cls-9{fill:#fff;}.cls-8{opacity:0.7;}.cls-9{font-size:38.5px;font-family:ABCSerifBold, ABCSerif;}</style></defs><path class="cls-1" d="M527.65,430.46a.69.69,0,0,0-.11-.13l-20.41-23.48c-6.14-7.07-12.29-14.58-19.31-20.55-11.77-10-20.81-22.7-29.81-35.64l.21,0a.69.69,0,0,1-.32-.19l-.78-1.13-.08-.13c-1.73-3.09-4.24-10.16-4.89-11.46-3.62-7.23-7.59-15-13.75-20.71-6.79-6.27-15.27-10.42-21.85-17-4.26-4.23-10.86-4.53-15.16-8.85-1.86-1.86-5.07-4.3-7.63-4.94-3.48-.87-7.63,1.25-3.53,4.38a13.76,13.76,0,0,1,3,2.47c2,2.76.05,6.8,1.23,10a10.6,10.6,0,0,0,2.43,3.42c3.23,3.45,6.86,6.69,10,10.2,1.71,1.92,2.32,4.14,3.67,6.22,2.5,3.8,2.34,8.93,2.81,13.4a19.58,19.58,0,0,0,.33,2c1.11,5.44,1.21,7.38,3.68,9a8.52,8.52,0,0,0,6.78,1,22.6,22.6,0,0,1,3.77-.73l1.48-.14c4.67,7.1,13.24,24.72,15.9,30.51,5.77,12.54,11,25.15,15.84,38a.2.2,0,0,0,0,.08c.37.85,9.71,9.94,10.09,10.78-9.34-5-16.09-13.2-26.27-16.69-14.36-4.92-28.83-9.38-43.32-13.87-13.93-4.11-28.66-10-43.38-8.85-14.05,1.11-27.26,7-36.32,16.08-5.72,5.76-9.85,12.91-10.68,20.65C310.17,434.9,316.16,460,324,468.63c17.5,19.42,35.8,5.31,52.5,11.11,24.72,8.59,22,7.1,48.31,9.66,13.59,1.32,34.56.38,49.69,1.88,11.62,1.15,30.14,2.29,41.26-1.51,13.67-2.6,27.19-25.17,23-38.33-1.92-6.07-6.18-11-8.72-16.8l-.72-1.65a2.53,2.53,0,0,0-.12-.23Z"/><path class="cls-2" d="M477.66,589.45c.45,1.19-9.88-.8-10.67.46s-2.3.2-3.41-.13c-.91-.28-1.83-.09-2.77-.3a8.33,8.33,0,0,0-2-.47,6.49,6.49,0,0,0-4.36,1.86c-1.18,1.42-.84,3.47-1.79,5a5.89,5.89,0,0,1-1.69,1.5,2.75,2.75,0,0,1,1.2,1.25c1.84,3.65,1,7.7,1.53,11.6a20.6,20.6,0,0,0,3.57-.33,30.27,30.27,0,0,1,5.63-.36c1.7,0,3.18-.42,4.55.56,1.05.76,1.54,2.05,2.58,2.8a22.22,22.22,0,0,1,2.23,1.37,33.84,33.84,0,0,1,2.74,3.11c2,2.3,4.28,4.46,6.41,6.68a25.56,25.56,0,0,0,7.94,5.81,20.51,20.51,0,0,0,9.85,1.52,45.73,45.73,0,0,0,7.7-1.07,78.89,78.89,0,0,0,10.69-3.77c3.9-1.7,7.65-5,10.49-8.11,2.11-2.3,4.47-4.18,6.35-6.75a26.57,26.57,0,0,0,3.77-8.7c.72-2.64,2.15-4.68,3.48-7,.67-1.14.8-2.51,1.45-3.74a29.61,29.61,0,0,0,2.12-4.44c1-3-.1-5.48-1.18-8.24-.71-1.84-2-3.28-2.67-5.15a15.45,15.45,0,0,0-1.33-2.55c-.56-.91-.82-1.9-1.39-2.82-.28-.44-.68-.69-1-1.14s-.2-.9-.59-1.3a20.44,20.44,0,0,0-2.82-1.73,29.76,29.76,0,0,1-3.13-2.27,2.54,2.54,0,0,0-.32-.28c0-.05.06-.2,0-.56a12.64,12.64,0,0,1,0-2.95c0-2.53.49-2.72.26-5.61a28,28,0,0,0-.88-5.35,3.58,3.58,0,0,0-5-2.3,1.91,1.91,0,0,1-1.31.16,5,5,0,0,1-3.28-1.57,18.72,18.72,0,0,0-1.7-2.67,19.26,19.26,0,0,0-4.66-3.49c-1.42-.74-2.42-.6-3.06-2-.45-1-.87-2.13-1.28-3.19-.77-2-2.07-3.61-4.41-3.45a15.8,15.8,0,0,0-9.41,4.87c-18.48,22.87-18.49,8.76-27.17,14.34-5.94,3.82-14.8,10.55-21.85,9.72"/><path d="M528.5,574.84c-.36.09-.74.14-1.11.2-.21,0-.66.09-.85-.07s-.08-.06,0-.15.23-.09.3-.12a2.9,2.9,0,0,0,.29-.19c.37-.27.72-.58,1.08-.85s.41-.34.64-.49c1.39-.87,3.13-1.32,4.42-2.35a7.48,7.48,0,0,0,2.2-4.05c.47.26,2,1.09,1.93,1.68-.13.84-1.91,2.21-2.36,3a6.79,6.79,0,0,1-3.74,2.89C530.37,574.57,529.42,574.61,528.5,574.84Z"/><path d="M457.24,614.86c2.61,0,5.42-.38,8,0,8.19,1.13,12.8,9.87,19.72,14.39,5.69,3.73,13,4.45,19.64,3.19s12.87-4.35,18.73-7.8c5.43-3.19,10.75-6.8,14.73-11.68,2.68-3.28,9-14,5.21-18.13s-13.74-1.16-18.57-5c-2.45-1.95-4-5-6.71-6.5a26.38,26.38,0,0,0-4.47-1.5c-2.71-.88-5.17-2.45-7.93-3.14s-6.15-.23-7.71,2.15a11.74,11.74,0,0,1,2.64,5.44c.25,2-1.07,2.09-3,2.71-2.67.86-4.88.5-6-2.09s-1.63-5.61-3.8-7.38c-2.35-1.91-5.73-1.65-8.73-1.29-5.17.62-13.35,5.1-18.52,5.72-.58,3.07-.92,2.05-1.68,5.08-.58,2.29,3.88,3,1.68,3.83a19.23,19.23,0,0,0-9.79,8.64c-2,3.67-2.48,8.84.69,11.57A8.66,8.66,0,0,0,457.24,614.86Z"/><path d="M543.23,593.88l-.46.86.19.1A3.12,3.12,0,0,0,543.23,593.88Z"/><path d="M467.62,606.49a7.63,7.63,0,0,0-.54,3.51,12.43,12.43,0,0,1-.91,4.06,6.4,6.4,0,0,1-2.95,3.66,7,7,0,0,1-4.15.64,6.76,6.76,0,0,1-3.54-1.34c-.92-1-1.32-3.17-1.84-4.41a7,7,0,0,1,.2-4.77,6.26,6.26,0,0,1,2.87-4,20.55,20.55,0,0,1,11-1.46c1.82.18,3.51,2,4.49,3.5s2.15,4.19,2,6c-.25,3.48-4.27,5.11-7.2,5.55-1.76.26-3.55.35-4.95-1a10.29,10.29,0,0,1-2.3-4,18.59,18.59,0,0,1-1.6-5,7,7,0,0,1-.11-2.76,20.47,20.47,0,0,0,.73-3,8.66,8.66,0,0,1,1.16-3.28,3.38,3.38,0,0,1,2.08-1.64,11.23,11.23,0,0,1,3.07-.76c.67-.06,1.34.12,2,.1,1.15,0,1.18,0,1.73,1.2"/><path d="M466.77,611.67c1.09,1,1.07,2.39,1,3.77a6.86,6.86,0,0,0,0,1.44,1.93,1.93,0,0,1-.71,1.89c-1.37,1.34-3.64,1.62-5.41,1.93a6.56,6.56,0,0,1-2.29.17c-.7-.12-1.34-.5-2-.61a4.27,4.27,0,0,1-1.18-.12c-.42-.17-.72-.51-1.16-.67a2.45,2.45,0,0,1-1.1-.5,8,8,0,0,1-.87-1,5.15,5.15,0,0,1-1.29-2,13.24,13.24,0,0,1-.39-2.43,6.91,6.91,0,0,1,.08-1.11c.05-.45-.07-.9,0-1.35a6.37,6.37,0,0,1,1.76-3.21c1.43-1.84,4-2.71,6.15-3.46a12,12,0,0,1,5.23-.6,28.48,28.48,0,0,1,2.88.64,10.33,10.33,0,0,1,2.61.78,8.84,8.84,0,0,1,2.38,1.84,20.28,20.28,0,0,1,2.12,2.43,6.53,6.53,0,0,1,.91,3,7.83,7.83,0,0,0-.05,1.68,5.81,5.81,0,0,1,.24,1.72,6.88,6.88,0,0,1-2.62,5.3,22.41,22.41,0,0,1-3.81,2.44c-.88.38-1.8.71-2.69,1.08a6.21,6.21,0,0,1-3,.41,4.45,4.45,0,0,1-1.77-.4,5.33,5.33,0,0,1-1.56-.79c-1.18-1.22-1.3-2.87-2.19-4.19a6.16,6.16,0,0,1-.57-.75c-.21-.45-.37-1-.56-1.41a11.34,11.34,0,0,1-.79-2.32,6.93,6.93,0,0,1,0-2.76,3.78,3.78,0,0,1,1.81-2.53,10.34,10.34,0,0,1,3.35-1.92,13.4,13.4,0,0,1,5.12-.39,10.37,10.37,0,0,1,5,1.49,11.31,11.31,0,0,1,2.2,1.61,11.19,11.19,0,0,1,1.26,2.12c.82,1.54.45,3.44.28,5.08,0,.32,0,1.12-.17,1.4s-.66.29-.89.39"/><path d="M465.73,592.38c1.09,1,1.07,2.39,1,3.77a6.26,6.26,0,0,0,0,1.44,2,2,0,0,1-.71,1.89c-1.37,1.34-3.64,1.62-5.42,1.93a6.28,6.28,0,0,1-2.28.17c-.7-.12-1.34-.5-2-.61a4.76,4.76,0,0,1-1.18-.11c-.42-.18-.71-.52-1.15-.68a2.58,2.58,0,0,1-1.11-.49,10,10,0,0,1-.86-1,5.1,5.1,0,0,1-1.3-2,15,15,0,0,1-.39-2.43,5.83,5.83,0,0,1,.09-1.1c.05-.46-.08-.91,0-1.36a6.57,6.57,0,0,1,1.76-3.21c1.44-1.83,4-2.7,6.16-3.46a12.32,12.32,0,0,1,5.23-.6,27.7,27.7,0,0,1,2.87.64,10.29,10.29,0,0,1,2.62.78,8.64,8.64,0,0,1,2.37,1.84,19.51,19.51,0,0,1,2.13,2.43,6.52,6.52,0,0,1,.9,3,8.54,8.54,0,0,0-.05,1.68,5.87,5.87,0,0,1,.25,1.72,6.89,6.89,0,0,1-2.63,5.31,21.68,21.68,0,0,1-3.8,2.43c-.89.39-1.8.71-2.69,1.08a6.23,6.23,0,0,1-3,.41,4.35,4.35,0,0,1-1.77-.4,5.59,5.59,0,0,1-1.56-.79c-1.18-1.22-1.29-2.87-2.18-4.19a6.16,6.16,0,0,1-.57-.75c-.22-.45-.37-.95-.56-1.41a10.91,10.91,0,0,1-.8-2.31,7.17,7.17,0,0,1,0-2.77,3.78,3.78,0,0,1,1.8-2.53,10.38,10.38,0,0,1,3.36-1.92,13.6,13.6,0,0,1,5.12-.39,10.41,10.41,0,0,1,5,1.49,11.38,11.38,0,0,1,2.21,1.61,11.81,11.81,0,0,1,1.25,2.12c.83,1.54.46,3.44.29,5.08a3.8,3.8,0,0,1-.18,1.4c-.16.21-.65.29-.88.39"/><path class="cls-2" d="M499.84,578.24c5.28,1.62,2.91,10.13-.91,11.8a6.86,6.86,0,0,1-8.65-3.33c-1.46-3.23-.17-7.15-1.42-10.47-.66-1.75-2-3.35-1.9-5.21s3.3-3,3.69-1.19"/><path class="cls-3" d="M483.25,575.11c.21-3.67-8.68-16.57-9.83-20-1-3-3.18-5.6-4.89-8.25-1.26-2-3.11-3.28-4.45-5.17-.77-1.09-1.78-1.89-2.52-3a10.13,10.13,0,0,0-2.13-2.26c-1.5-1.26-2.92-2.58-4.4-3.86-.92-.78-2-1.4-2.82-2.23-2.46-2.43-5.44-4.12-8.19-6.24-2.45-1.87-4.95-3.71-7.22-5.75-1.76-1.58-3.81-2.41-5.82-3.56a9.22,9.22,0,0,0-4-1.69,16,16,0,0,1-3-1.24,28.73,28.73,0,0,0-3.6-.75c-3.06-.63-6.1-1.38-9.15-2.05-4.53-1-8.82-3-13.23-4.42-3.88-1.23-7.8-2.4-11.59-3.86-5.37-2.06-10.91-3.42-16.36-5.27-8.56-2.91-17.42-4.15-26.37-5.12a56.25,56.25,0,0,0-7.67-.73c-2.42.06-11-14.3-13.34-13.75-9.56,2.28,3.6,22.7,6,26.65q1.48,2.44,2.85,5c7.25,13.14,12.76,27.33,21.65,39.46A129.25,129.25,0,0,0,382,575a106.64,106.64,0,0,0,16.63,9.62c4.81,2.23,11.8,6.24,17.15,6.52,4.15.21,8.31.28,12.41.44a68.15,68.15,0,0,0,12.37-.23c3.23-.48,6.42-.64,9.49-1.82a82,82,0,0,1,7.64-3c1.84-.49-3.82,1.7-2.1.7"/><path class="cls-4" d="M419.29,480.63a34.06,34.06,0,0,1-10.24-14.47,24,24,0,0,1-1.05-4.33c-.14-1,0-1.06-.91-1.4a9.06,9.06,0,0,0-2.09-.37c-.8-.1.9,19.29.1,19.36-18.26,1.76-35.89-4.2-52-12.42-7.91-4.05-17.11-8.37-24-14-6.62-5.36-8.26-13-11.09-20.95a50.05,50.05,0,0,1-3.18-17.32c0-.38,0-.75.08-1.13-1.25,2.06-2.61,4.06-3.78,6.16a34.11,34.11,0,0,0-3,8c-1.46,5.5-.7,8.07-1.13,13.73a66.67,66.67,0,0,0,2.07,20.17,83.8,83.8,0,0,0,7.67,19.09c.64,1.19,3.91,8,4.87,8.91,1.18,1.18,4.35,2.33,5.83,3.09,21.51,11,37.72,30.4,57.14,45a5.32,5.32,0,0,0,2.9,1.35,5.13,5.13,0,0,0,2.71-1.08,161.88,161.88,0,0,1,42.45-19.45,7.59,7.59,0,0,1,3.85-.42,3,3,0,0,1,2.43,2.79c-.19-3.32-.28-6.63-.29-10"/><path d="M453.55,589.85c-1.33,1.19-3,1.82-4.26,3a16.45,16.45,0,0,0-2.8,4.35,5.83,5.83,0,0,0-.34,4.88c.55,1.77,1.16,3.54,2.8,4.47,3.53,2,7,2.52,10.86.78,1.28-.58,10-5.42,6.83-7.28"/><path class="cls-5" d="M389,538.35a2.9,2.9,0,0,1-.41.16,4.85,4.85,0,0,1-.85.13h-.32a5,5,0,0,1-.76-.11,1.77,1.77,0,0,1-.51-.15,1.6,1.6,0,0,1-.59-.35c-.17-.13-.34-.25-.5-.39a1.39,1.39,0,0,1-.21-.21c-.67,7.64,1,16.69,5.12,26.78a125,125,0,0,0,10.67,20.21s1.4,2.39,1.12,1.88c3.17,1.39,4,2,6.81,3-.54-.87-1.92-3.31-2.41-4.1-.69-1.12-1.32-2.15-1.88-3A119.86,119.86,0,0,1,394,562.68c-2.85-7-5.5-16.06-4.88-24.37Z"/><path class="cls-6" d="M460.08,568.77a19.25,19.25,0,0,0,12.48-9,19.72,19.72,0,0,0,2.52-9,46,46,0,0,0-5.29-24c-3.74-6.73-7.35-12.41-14-16.47a58.2,58.2,0,0,1-12.42-10,63.62,63.62,0,0,1-9-12.8,63.18,63.18,0,0,0-7.85-11.44c24.88-14.91,39.76-34.37,61.46-48.82,4.6.23,9.16,1.12,13.73,1.63,2.92.32,5.83.86,8.77.89,3.1,0,5-.93,7.82-1.9,2.36-.81,3.25-2.67,5.75-2.88a3.39,3.39,0,0,0,.78-.17c.29-.09.6-.12.88-.22a3.77,3.77,0,0,0,1.5-.86,1.35,1.35,0,0,0,.34-.38,5.71,5.71,0,0,0,.19-.71,6.48,6.48,0,0,1,.47-1.43,6.72,6.72,0,0,1,1-1.07,22.27,22.27,0,0,1,2-1.85,10.5,10.5,0,0,0,2.14-1.78c.34-.48-.12-.89-.52-1.28a2.53,2.53,0,0,0-.75-.48c-.31-.16-.63-.31-1-.45-.51,0-1-.05-1.51-.09a.54.54,0,0,1-.22-.05,10,10,0,0,0-2,.69c-.72.32-1.43.65-2.13,1-.05,0-5.9,3.66-6,3.69.28-.18,6.37-4,6.66-4.15a10.07,10.07,0,0,1,1.84-.88c.46-.16,1-.25,1.46-.4a.67.67,0,0,1-.4-.59,3.9,3.9,0,0,0-1.8-3.15c-1-.7-2.08-1.28-3-2.07a.71.71,0,0,1-.11-.84,2.7,2.7,0,0,0-.27-3.43,7.48,7.48,0,0,0-3.28-1.7.94.94,0,0,1-.26-.14L515,403.66c.09,0-5.89,1.88-2.62.64l7.68-2.21a.59.59,0,0,1-.07-.74,1.78,1.78,0,0,0,0-2.09c-1-1.3-1.47-.75-2.19-1.16a2.67,2.67,0,0,1-1.55-2,1.73,1.73,0,0,0-.9-1.61A6.8,6.8,0,0,0,514,394c-.83.23-1.61.54-2.46.74-1.83.41-3.44,1.35-5.21,1.92-1.95.63-3.93,1.12-5.88,1.75-.74.24-1.49.48-2.23.77-4.33,1.7-8,5-11.63,7.74-.41.31-.67.68-1.11,1a18.52,18.52,0,0,0-2.06,1.76c-11.45,3.67-22.89,7.37-33.59,12.32-15.49,7.16-29.93,17.12-41.49,29.85q-.72.8-1.38,1.62c-2.44,3-4.36,6.27-6.62,9.47-1.53,2.16-2.5,4.74-4.33,6.14a11.71,11.71,0,0,0-4,5.26c-2.22,6,.83,12.55,3.93,18.13,6.28,11.29,14.35,37.73,22.43,47.78"/><path class="cls-7" d="M523.57,420.9a3.06,3.06,0,0,0,.49,1.27c.19.25.42.5.64.75a7.79,7.79,0,0,1,.48.65c.27.36.31.77.89.86"/><path class="cls-7" d="M525.48,420.53a7.36,7.36,0,0,1,1.49.94l.46.34c.19.14.33.39.53.5"/><path class="cls-7" d="M529.81,419.23c-1.1.84-.88-.62-.74-1.14.32-1.19,1-3.68,3.1-3.19"/><path class="cls-7" d="M517.6,397.79a33.87,33.87,0,0,0-5.27,1.9c-.29.12-.62.2-.9.35s-2.74,1.13-3.08,1.27c-.51.21,8.87-3.77,8.33-3.65"/><path class="cls-7" d="M524.74,408.48c-.68.16-2.13.73-2.79.95-.37.13-7.13,2.18-7.51,2.3s10.08-3.47,9.67-3.39"/><path class="cls-5" d="M421.58,591.41l4.31.26c1.29.08,2.57,0,3.85,0a97.53,97.53,0,0,0,36.43-23.42,24.43,24.43,0,0,0,5.31-7.31,13.66,13.66,0,0,1-3.86,4.1,14.09,14.09,0,0,1-3,2,16.51,16.51,0,0,1-5.13,1.77c-2.06,1.91-4.18,3.76-6.38,5.47a96.05,96.05,0,0,1-29.57,15.19c-1.89.6-4,1.18-5.95,1.68C418.43,591.3,420.51,591.34,421.58,591.41Z"/><path d="M66,207.09v7.25H68.1l4.25-7.25h3.5l-5,8.61,5.45,8.65h-3.6L68.08,217H66v7.37H63V207.09Z"/><path d="M80.49,211.43l.47,2.29a4.74,4.74,0,0,1,4.41-2.41c3,0,4.49,1.94,4.49,4.61v8.43H86.8V216.9c0-2-.74-3-2.42-3-2.34,0-3.25,1.9-3.25,4v6.51H78.07V211.43Z"/><path d="M104.31,220.8a5.76,5.76,0,0,1-5.57,3.7c-4.34,0-6.27-2.71-6.27-6.76s2.72-6.53,6.44-6.43c3,.07,5.74,2.34,5.45,6.46l0,.39H95.58c0,2.2.94,3.7,3.18,3.7a2.89,2.89,0,0,0,2.79-2.05Zm-3.13-4.22c0-2-1-2.93-2.54-2.88a2.87,2.87,0,0,0-2.91,2.88Z"/><path d="M118.39,220.8a5.76,5.76,0,0,1-5.57,3.7c-4.34,0-6.26-2.71-6.26-6.76s2.71-6.53,6.43-6.43c3,.07,5.75,2.34,5.45,6.46l0,.39h-8.73c0,2.2.94,3.7,3.18,3.7a2.87,2.87,0,0,0,2.79-2.05Zm-3.13-4.22c0-2-1-2.93-2.54-2.88a2.87,2.87,0,0,0-2.91,2.88Z"/><path d="M121.48,220.65a6.68,6.68,0,0,0,4.19,1.43c1.48,0,2.34-.44,2.34-1.5,0-2.52-7.47-.84-7.22-5.57.1-2.32,1.8-3.7,5.23-3.7a10.55,10.55,0,0,1,4.66,1.2l-1.09,2.17a7.36,7.36,0,0,0-3.7-1.06c-1.21,0-2.22.4-2.17,1.41.15,2.05,7.33.47,7.33,5.45,0,2.66-2.4,4-5.45,4a8.91,8.91,0,0,1-5.31-1.68Z"/><path d="M141.13,211.43l.45,2.29a4.34,4.34,0,0,1,4-2.44,3.77,3.77,0,0,1,3.85,2.39,4.57,4.57,0,0,1,4.17-2.39c3,0,4.21,2,4.21,4.64v8.43h-3.05V216.9c0-2-.47-3-2.15-3-2.22,0-2.81,1.68-2.81,3.58v6.9h-3.06V216.9c0-2-.47-3-2.14-3-2.37,0-2.84,1.9-2.84,4v6.51h-3.06V211.43Z"/><path d="M163.8,211.43v7.45c0,2,.79,3,2.59,3,2.34,0,3.3-2.42,3.3-4.86v-5.62h3.06v12.92h-2.44l-.44-2.81a4.72,4.72,0,0,1-4.47,3c-3.15,0-4.66-1.95-4.66-5.2v-7.87Z"/><path d="M176.26,220.65a6.68,6.68,0,0,0,4.19,1.43c1.48,0,2.34-.44,2.34-1.5,0-2.52-7.47-.84-7.22-5.57.1-2.32,1.8-3.7,5.22-3.7a10.62,10.62,0,0,1,4.67,1.2l-1.09,2.17a7.36,7.36,0,0,0-3.7-1.06c-1.21,0-2.22.4-2.17,1.41.15,2.05,7.32.47,7.32,5.45,0,2.66-2.39,4-5.44,4a8.91,8.91,0,0,1-5.31-1.68Z"/><path d="M192.29,207.78v3.77h3.25l-.42,2.47h-2.83v5.92c0,1.4.64,1.95,1.67,1.95a5.72,5.72,0,0,0,1.95-.57l.57,2.34a8.1,8.1,0,0,1-3.28.84c-3,0-4-2-4-4.14V214h-1.8v-2.47h1.95l.37-3.42Z"/><path d="M65.84,239.43v8.21a4.4,4.4,0,0,1,4.31-2.42c2.44.07,5.06,1.73,5.06,6.49,0,3.89-1.95,6.7-5.45,6.7a4.27,4.27,0,0,1-4.07-2.36l-.42,2.21H62.78V239.82Zm-.13,12.35c0,2.22.82,4,3.26,4,2,0,3.1-1.5,3.1-4,0-3-1.5-3.94-3.13-3.94S65.71,249.19,65.71,251.78Z"/><path d="M89.24,254.71a5.75,5.75,0,0,1-5.57,3.7c-4.34,0-6.27-2.71-6.27-6.75s2.72-6.54,6.44-6.44c3,.07,5.74,2.34,5.45,6.46l-.05.4H80.51c0,2.19.94,3.69,3.18,3.69a2.88,2.88,0,0,0,2.79-2Zm-3.13-4.21c0-2-1-2.94-2.54-2.89a2.88,2.88,0,0,0-2.91,2.89Z"/><path d="M99.58,245.34l.44,2.32a4.71,4.71,0,0,1,4.41-2.44c2.45.07,5.08,1.73,5.08,6.49,0,3.89-1.94,6.7-5.47,6.7a4,4,0,0,1-3.82-2.09v6.88H97.13V245.34Zm.42,6.44c0,2.22.81,4,3.28,4,2,0,3.1-1.5,3.1-4,0-3-1.5-3.94-3.13-3.94C101.47,247.79,100,249.19,100,251.78Z"/><path d="M115.09,245.34v7.45c0,2,.79,3,2.59,3,2.34,0,3.3-2.41,3.3-4.85v-5.63H124v12.92H121.6l-.44-2.81a4.72,4.72,0,0,1-4.47,3c-3.15,0-4.66-2-4.66-5.2v-7.87Z"/><path d="M130.26,239.43v14.62c0,1.38.62,1.75,1.53,1.75a2.42,2.42,0,0,0,1.28-.47l.57,2.19a5.26,5.26,0,0,1-2.79.89c-2.56,0-3.65-1.72-3.65-4.07V239.8Z"/><path d="M137.24,239.43v14.62c0,1.38.61,1.75,1.53,1.75a2.46,2.46,0,0,0,1.28-.47l.57,2.19a5.26,5.26,0,0,1-2.79.89c-2.56,0-3.65-1.72-3.65-4.07V239.8Z"/><path d="M153.1,254.71a5.77,5.77,0,0,1-5.58,3.7c-4.34,0-6.26-2.71-6.26-6.75s2.71-6.54,6.44-6.44c3,.07,5.74,2.34,5.44,6.46l0,.4h-8.73c0,2.19.93,3.69,3.18,3.69a2.86,2.86,0,0,0,2.78-2ZM150,250.5c0-2-1-2.94-2.54-2.89a2.89,2.89,0,0,0-2.91,2.89Z"/><path d="M167.92,239.43v18.83h-2.57l-.34-2.21a4.53,4.53,0,0,1-4.12,2.36c-3.48,0-5.55-2.83-5.55-6.63,0-4.64,3-6.56,5.53-6.56a4.1,4.1,0,0,1,4,2.44v-7.84Zm-9.42,12.32c0,2.2.86,3.93,3.16,3.93s3.25-1.73,3.25-3.9c0-2.94-1.58-4-3.28-4S158.5,248.92,158.5,251.75Z"/><path d="M180.23,245.34v12.92h-3.08V247.88h-1.8v-2.54Zm-1.56-5a1.66,1.66,0,0,1,1.83,1.56,1.83,1.83,0,0,1-3.63,0A1.59,1.59,0,0,1,178.67,240.31Z"/><path d="M185.8,245.34l.47,2.3a4.78,4.78,0,0,1,4.41-2.42c3,0,4.49,1.95,4.49,4.61v8.43h-3.06v-7.44c0-2-.73-3-2.41-3-2.34,0-3.26,1.89-3.26,4v6.51h-3.05V245.34Z"/><path d="M202.25,241.69v3.78h3.26l-.42,2.46h-2.84v5.92c0,1.41.64,2,1.68,2a5.5,5.5,0,0,0,1.95-.57l.56,2.34a7.93,7.93,0,0,1-3.27.84c-3,0-4-2-4-4.14v-6.34h-1.81v-2.46h2l.37-3.43Z"/><path d="M213.6,245.22c3.23,0,6,2.19,6,6.61,0,3.62-2.15,6.58-6.17,6.58-4.36,0-6.16-3-6.16-6.58C207.31,247.41,210.1,245.22,213.6,245.22Zm-3.08,6.61c0,2,.69,4,3,4,2.1,0,3-1.94,3-4,0-2.86-1.41-4-3-4S210.52,248.92,210.52,251.83Z"/><path d="M66.75,275.61v3.77H70l-.42,2.47H66.75v5.91c0,1.41.64,1.95,1.67,1.95a5.69,5.69,0,0,0,2-.56l.57,2.34a8.1,8.1,0,0,1-3.28.84c-3,0-4-2-4-4.15v-6.33h-1.8v-2.47h2l.37-3.43Z"/><path d="M76,273.34v8a4.81,4.81,0,0,1,4.24-2.2c3,0,4.49,1.95,4.49,4.62v8.43H81.62v-7.45c0-2-.74-3-2.42-3-2.34,0-3.25,1.9-3.25,4v6.51H72.89V273.71Z"/><path d="M99.08,288.63a5.76,5.76,0,0,1-5.57,3.7c-4.34,0-6.27-2.72-6.27-6.76S90,279,93.68,279.13c3,.08,5.75,2.35,5.45,6.46l0,.4H90.35c0,2.19.94,3.7,3.18,3.7a2.88,2.88,0,0,0,2.79-2.05ZM96,284.41c0-2-1-2.93-2.54-2.88a2.87,2.87,0,0,0-2.91,2.88Z"/><path d="M118.22,288.55c-.84,2.64-3,3.78-5.62,3.78-4.24,0-6.07-3.16-6.07-6.61,0-4.22,2.62-6.51,6.14-6.59,3.11-.07,5,1.53,5.5,3.8l-2.84.91a2.54,2.54,0,0,0-2.61-2.12c-1.77,0-3.13,1.31-3.13,3.95,0,2.09.79,4,3.08,4a2.59,2.59,0,0,0,2.71-2Z"/><path d="M123.75,273.34v8a4.81,4.81,0,0,1,4.24-2.2c3,0,4.49,1.95,4.49,4.62v8.43h-3.06v-7.45c0-2-.74-3-2.42-3-2.34,0-3.25,1.9-3.25,4v6.51h-3.06V273.71Z"/><path d="M146.88,288.63a5.76,5.76,0,0,1-5.57,3.7c-4.34,0-6.27-2.72-6.27-6.76s2.72-6.53,6.44-6.44c3,.08,5.74,2.35,5.45,6.46l-.05.4h-8.73c0,2.19.94,3.7,3.18,3.7a2.89,2.89,0,0,0,2.79-2.05Zm-3.13-4.22c.05-2-1-2.93-2.54-2.88a2.87,2.87,0,0,0-2.91,2.88Z"/><path d="M150,288.48a6.73,6.73,0,0,0,4.2,1.43c1.48,0,2.34-.44,2.34-1.5,0-2.52-7.47-.84-7.23-5.58.1-2.32,1.8-3.7,5.23-3.7a10.49,10.49,0,0,1,4.66,1.21l-1.08,2.17a7.36,7.36,0,0,0-3.7-1.06c-1.21,0-2.22.4-2.17,1.41.15,2,7.32.47,7.32,5.45,0,2.66-2.39,4-5.45,4a8.86,8.86,0,0,1-5.3-1.68Z"/><path d="M166,275.61v3.77h3.25l-.42,2.47H166v5.91c0,1.41.64,1.95,1.67,1.95a5.76,5.76,0,0,0,2-.56l.57,2.34a8.1,8.1,0,0,1-3.28.84c-3,0-4-2-4-4.15v-6.33h-1.8v-2.47h2l.37-3.43Z"/><path d="M90.78,323.31A68.38,68.38,0,0,0,105.37,354a80.71,80.71,0,0,0,24.29,19.46A89.76,89.76,0,0,0,145,379.84c1.85.58,2.64-2.31.8-2.89-19-6-36.51-18.64-45.91-36.51a64.71,64.71,0,0,1-6.23-17.93c-.37-1.89-3.26-1.09-2.89.8Z"/><path d="M135.73,367.88c3.18,3.6,6,7.49,8.9,11.32l.53-2.05c-2.34,1-4.63,2.08-6.95,3.11-2.07.91-4.18,1.74-6.25,2.66a1.51,1.51,0,0,0-.54,2.05,1.54,1.54,0,0,0,2.05.54c2.07-.92,4.18-1.75,6.25-2.66,2.33-1,4.62-2.12,7-3.11a1.5,1.5,0,0,0,.54-2.05c-3.06-4-6-8.14-9.37-11.93-1.28-1.45-3.39.67-2.12,2.12Z"/><path class="cls-8" d="M148.79,61.4a36.73,36.73,0,0,1,8.33-23.32,34.4,34.4,0,0,0-45.48-4.38A34.43,34.43,0,0,0,131.9,96a34.33,34.33,0,0,0,25.32-11.11A36.76,36.76,0,0,1,148.79,61.4ZM138,75.49s-3.7-.27-11.47-.27a25.63,25.63,0,0,0-4.93.31l-1.35-2.46c7.78-7.9,12.4-13.63,13-18.71.47-3.66-2-4.82-4.35-4.66a9.73,9.73,0,0,0-6.73,3.92c-.2-.23-1.93-2.07-1.47-2.65A12.43,12.43,0,0,1,130,46.12c5.89,0,9.09,3,8.74,8.51-.46,7-8,13.59-12.63,17.55l8.32-.08c1.77-.15,3-2.54,3.81-4.73,0,0,1.73.5,2,1C139.58,71.53,138.81,75.49,138,75.49Z"/><path class="cls-8" d="M95.79,61.4A36.74,36.74,0,0,1,104.16,38a34.44,34.44,0,1,0,.11,46.9A36.78,36.78,0,0,1,95.79,61.4ZM87.2,75.66H70.92L71,73.39l4.46-.58c.58,0,.81-.23.81-1,.08-10.05,0-19.6,0-19.6l-5.62,1.08c-.19-.31-1.12-2.46-.46-2.73l10.35-4,1,1s-.12,20.87,0,24.37c0,.77.19,1,.73,1l5.08.54Z"/><circle cx="184" cy="61.53" r="34.44"/><text class="cls-9" transform="translate(172.45 75.26)">3</text><path d="M243.45,38.34l-.27,3.12h-5.55V59.34h-3.75V41.46h-5.76V38.34Z"/><path d="M249.6,36.42v9.72a5.86,5.86,0,0,1,5.16-2.67c3.69,0,5.46,2.37,5.46,5.61V59.34H256.5V50.28c0-2.4-.9-3.69-2.94-3.69-2.85,0-4,2.31-4,4.83v7.92h-3.72V36.87Z"/><path d="M277.74,55a7,7,0,0,1-6.78,4.5c-5.28,0-7.62-3.3-7.62-8.22s3.3-7.95,7.83-7.83c3.69.09,7,2.85,6.63,7.86l-.06.48H267.12c0,2.67,1.14,4.5,3.87,4.5a3.5,3.5,0,0,0,3.39-2.49Zm-3.81-5.13c.06-2.43-1.26-3.57-3.09-3.51a3.5,3.5,0,0,0-3.54,3.51Z"/><path d="M284,43.62l.57,2.79A5.8,5.8,0,0,1,290,43.47c3.69,0,5.46,2.37,5.46,5.61V59.34h-3.72V50.28c0-2.4-.9-3.69-2.94-3.69-2.85,0-4,2.31-4,4.83v7.92h-3.72V43.62Z"/><path d="M310.29,39.18v4.59h4l-.51,3h-3.45V54c0,1.71.78,2.37,2,2.37a6.83,6.83,0,0,0,2.37-.69l.69,2.85a9.82,9.82,0,0,1-4,1c-3.69,0-4.83-2.46-4.83-5V46.77h-2.19v-3h2.37l.45-4.17Z"/><path d="M321.48,36.42v9.72a5.86,5.86,0,0,1,5.16-2.67c3.69,0,5.46,2.37,5.46,5.61V59.34h-3.72V50.28c0-2.4-.9-3.69-2.94-3.69-2.85,0-4,2.31-4,4.83v7.92h-3.72V36.87Z"/><path d="M349.62,55a7,7,0,0,1-6.78,4.5c-5.28,0-7.62-3.3-7.62-8.22s3.3-7.95,7.83-7.83c3.69.09,7,2.85,6.63,7.86l-.06.48H339c0,2.67,1.14,4.5,3.87,4.5a3.5,3.5,0,0,0,3.39-2.49Zm-3.81-5.13c.06-2.43-1.26-3.57-3.09-3.51a3.5,3.5,0,0,0-3.54,3.51Z"/><path d="M360.15,43.77V41.64c0-3.12,1.62-5.22,5.16-5.22a6.41,6.41,0,0,1,3.6,1.08v-.72l3.72-.36V54.21c0,1.68.72,2.13,1.83,2.13a2.81,2.81,0,0,0,1.56-.57l.72,2.67a6.6,6.6,0,0,1-3.42,1.08c-3.09,0-4.41-2.1-4.41-5V40.08a6,6,0,0,0-2.7-.69c-1.47,0-2.31.6-2.31,2.85v1.53h3.18l-.48,3h-2.7V59.34h-3.75V46.77h-2.46v-3Z"/><path d="M383.37,43.62V59.34h-3.75V46.71h-2.19V43.62Zm-1.89-6.12a2,2,0,0,1,2.22,1.89,2.22,2.22,0,0,1-4.41,0A1.93,1.93,0,0,1,381.48,37.5Z"/><path d="M401.85,43.62V57c0,5.22-2,8.37-7.8,8.37A16.38,16.38,0,0,1,387.63,64l.87-2.82a13.33,13.33,0,0,0,5.13,1.17c3.39,0,4.5-1.68,4.5-4.26V56.7a5.42,5.42,0,0,1-4.83,2.49c-4.23.09-6.66-3.12-6.66-7.74,0-5.64,3.6-8,6.72-8a5.2,5.2,0,0,1,5,2.85l.39-2.7Zm-11.34,7.8c0,2.67,1.05,4.77,3.84,4.77s3.9-2.1,3.9-4.74c0-3.57-1.89-4.86-3.93-4.86S390.51,48,390.51,51.42Z"/><path d="M409.41,36.42v9.72a5.86,5.86,0,0,1,5.16-2.67c3.69,0,5.46,2.37,5.46,5.61V59.34h-3.72V50.28c0-2.4-.9-3.69-2.94-3.69-2.85,0-4,2.31-4,4.83v7.92h-3.72V36.87Z"/><path d="M428.58,39.18v4.59h4l-.51,3h-3.45V54c0,1.71.78,2.37,2,2.37a6.83,6.83,0,0,0,2.37-.69l.69,2.85a9.82,9.82,0,0,1-4,1c-3.69,0-4.83-2.46-4.83-5V46.77h-2.19v-3H425l.45-4.17Z"/><path d="M445.29,43.62l.54,2.82a5.71,5.71,0,0,1,5.37-3c3,.09,6.18,2.1,6.18,7.89,0,4.74-2.37,8.16-6.66,8.16A4.88,4.88,0,0,1,446.07,57v8.37h-3.75V43.62Zm.51,7.83c0,2.7,1,4.86,4,4.86,2.43,0,3.78-1.83,3.78-4.92,0-3.66-1.83-4.8-3.81-4.8C447.6,46.59,445.8,48.3,445.8,51.45Z"/><path d="M464.37,36.42v9.72a5.86,5.86,0,0,1,5.16-2.67c3.69,0,5.46,2.37,5.46,5.61V59.34h-3.72V50.28c0-2.4-.9-3.69-2.94-3.69-2.85,0-4,2.31-4,4.83v7.92h-3.72V36.87Z"/><path d="M478.41,44.61a18.74,18.74,0,0,1,5.94-1.14c4.74,0,6.48,2.34,6.48,6v6.36a.79.79,0,0,0,.75.9,3,3,0,0,0,1.23-.18V59a6.08,6.08,0,0,1-2.49.48,2.84,2.84,0,0,1-2.85-2.13,6.87,6.87,0,0,1-4.74,2.13c-3.06,0-5.34-1.56-5.37-4.83s2.46-5,6.39-5a24.49,24.49,0,0,1,3.39.3v-.93c0-1.71-1.08-2.64-3.24-2.61a12.68,12.68,0,0,0-4.86,1Zm8.7,7.35a16.62,16.62,0,0,0-3.06-.18c-1.8.09-2.94.93-3,2.52a2.21,2.21,0,0,0,2.55,2.31,6.17,6.17,0,0,0,3.48-1.26Z"/><path d="M495.81,54.84a8.15,8.15,0,0,0,5.1,1.74c1.8,0,2.85-.54,2.85-1.83,0-3.06-9.09-1-8.79-6.78.12-2.82,2.19-4.5,6.36-4.5A12.78,12.78,0,0,1,507,44.94l-1.32,2.64a8.9,8.9,0,0,0-4.5-1.29c-1.47,0-2.7.48-2.64,1.71.18,2.49,8.91.57,8.91,6.63,0,3.24-2.91,4.92-6.63,4.89a10.76,10.76,0,0,1-6.45-2Z"/><path d="M524.28,55a7,7,0,0,1-6.78,4.5c-5.28,0-7.62-3.3-7.62-8.22s3.3-7.95,7.83-7.83c3.69.09,7,2.85,6.63,7.86l-.06.48H513.66c0,2.67,1.14,4.5,3.87,4.5a3.5,3.5,0,0,0,3.39-2.49Zm-3.81-5.13c.06-2.43-1.26-3.57-3.09-3.51a3.5,3.5,0,0,0-3.54,3.51Z"/><path d="M238,67.38l-.26,1.1a7.49,7.49,0,0,0-1.65-.2c-2.41,0-3.57.87-3.57,4.06V74.2h4.38l-.29,1.19h-4.09V89.25h-1.39V75.39h-3.05V74.2h3.05v-2c0-3.69,1.82-5.08,4.81-5.08A9.18,9.18,0,0,1,238,67.38Z"/><path d="M245.79,89.42c-4.58,0-6.58-3.48-6.58-7.74,0-5.19,3-7.77,6.7-7.77,3.39,0,6.47,2.58,6.47,7.77C252.38,85.94,250,89.42,245.79,89.42Zm0-1.18c3.48,0,5.19-3.17,5.19-6.56,0-4.67-2.46-6.58-5.07-6.58-2.82,0-5.28,1.79-5.28,6.58C240.63,85.05,241.93,88.24,245.79,88.24Z"/><path d="M258.84,80.38v8.87h-1.39V74.05h1.13l.26,3.08c.64-1.95,2.35-3.22,5.08-3.22a7.85,7.85,0,0,1,1.62.14l-.2,1.28a4.68,4.68,0,0,0-1.51-.21C260.38,75.12,258.84,77.65,258.84,80.38Z"/><path d="M287.32,85.45l1.1.67a6.94,6.94,0,0,1-6,3.3c-4.79,0-6.82-3.27-6.82-7.94,0-4.9,3-7.57,6.84-7.57,3.51,0,6.36,2.55,6,7.28l-.06.49H277c0,4,1.65,6.56,5.48,6.56A5.68,5.68,0,0,0,287.32,85.45Zm-10.24-5h10c0-3.86-2-5.39-4.65-5.39C279.69,75.1,277.34,76.75,277.08,80.49Z"/><path d="M303.18,89.25l-4.58-6.7-4.7,6.7h-1.6l5.51-7.71-5-7.49h1.62l4.21,6.44L303,74.05h1.59l-5.16,7.43,5.34,7.77Z"/><path d="M313.65,89.42c-3.08,0-5.4-1.47-5.4-4.75s2.82-4.76,6.15-4.76a19.84,19.84,0,0,1,4.76.64V79c0-2.52-1.57-3.85-4.64-3.85a11.33,11.33,0,0,0-5,1.16l-.32-1.19a13.82,13.82,0,0,1,5.31-1.16c4.52,0,6,2.32,6,5.25v8.21c0,.43.09.81.64.87a5.49,5.49,0,0,0,1.48-.18v1.08a4.79,4.79,0,0,1-1.63.28,2,2,0,0,1-1.88-2.14A9,9,0,0,1,313.65,89.42Zm0-1.21a9.43,9.43,0,0,0,5.51-2.12V81.62a26.39,26.39,0,0,0-5-.58c-2.9,0-4.52,1.16-4.52,3.66C309.65,86.9,311.1,88.21,313.65,88.21Z"/><path d="M327.83,74.05l.23,3a5.1,5.1,0,0,1,4.67-3.19c2.7-.09,4.09,1.19,4.7,3a5.45,5.45,0,0,1,5-3c3.83-.12,5.05,2.43,5.05,5.42v9.92h-1.4v-10c0-2.72-1.24-4.14-3.74-4.14-3.48,0-4.58,2.43-4.58,5v9.14h-1.39v-10c0-2.72-1.25-4.14-3.75-4.14-3.65,0-4.58,2.69-4.58,5.42v8.73h-1.39V74.05Z"/><path d="M354.33,74.05l.27,3.08a6.22,6.22,0,0,1,5.62-3.22c3.4,0,6.62,2.17,6.62,7.63,0,4.58-2.27,7.88-6.85,7.88a5.61,5.61,0,0,1-5.39-3.21v8.84h-1.43v-21Zm5.78,14.19c3.65,0,5.33-2.93,5.33-6.68,0-4.9-2.58-6.46-5.39-6.46-3.1,0-5.57,2.52-5.57,6.55C354.48,85,355.67,88.24,360.11,88.24Z"/><path d="M373.33,85.42c0,2.15.9,2.76,2.32,2.76a4.81,4.81,0,0,0,2.44-.87l.63,1.1a5.72,5.72,0,0,1-3.07,1c-2.9,0-3.71-1.74-3.71-4V67.35l1.39-.26Z"/><path d="M391.89,85.45l1.1.67a6.93,6.93,0,0,1-6,3.3c-4.79,0-6.82-3.27-6.82-7.94,0-4.9,3-7.57,6.85-7.57,3.51,0,6.35,2.55,6,7.28l-.06.49h-11.4c0,4,1.66,6.56,5.49,6.56A5.68,5.68,0,0,0,391.89,85.45Zm-10.24-5h10c0-3.86-2-5.39-4.64-5.39C384.26,75.1,381.91,76.75,381.65,80.49Z"/><path d="M397.66,89.4c0-.58-.75-.53-.75-.53a1.12,1.12,0,0,1,0-2.23c1.45,0,2,1.34,1.82,2.73a3.28,3.28,0,0,1-3.45,2.81v-.9A2.13,2.13,0,0,0,397.66,89.4Z"/><path d="M414.6,89.42c-3.08,0-5.4-1.47-5.4-4.75s2.81-4.76,6.15-4.76a19.84,19.84,0,0,1,4.76.64V79c0-2.52-1.57-3.85-4.64-3.85a11.27,11.27,0,0,0-5,1.16l-.32-1.19a13.76,13.76,0,0,1,5.31-1.16c4.52,0,6,2.32,6,5.25v8.21c0,.43.09.81.64.87a5.49,5.49,0,0,0,1.48-.18v1.08a4.84,4.84,0,0,1-1.63.28,2,2,0,0,1-1.88-2.14A9,9,0,0,1,414.6,89.42Zm0-1.21a9.43,9.43,0,0,0,5.51-2.12V81.62a26.5,26.5,0,0,0-5-.58c-2.9,0-4.53,1.16-4.53,3.66C410.59,86.9,412,88.21,414.6,88.21Z"/><path d="M435.59,75.39h-2.52V74.2h2.58l.2-4.24,1.13-.2V74.2h4.44l-.32,1.19H437v10c0,2.15.9,2.76,2.32,2.76a7,7,0,0,0,2.93-1.08l.64,1.11a7.8,7.8,0,0,1-3.57,1.21c-2.9,0-3.71-1.74-3.71-4Z"/><path d="M448.79,89.25h-1.43v-14h-2.49V74.05h3.92Zm-1.86-20a1.12,1.12,0,0,1,1.1-1.1,1.12,1.12,0,1,1,0,2.23A1.12,1.12,0,0,1,446.93,69.21Z"/><path d="M466.86,87.6c0,5-2.18,7.45-7,7.45a15.16,15.16,0,0,1-5.6-1l.43-1.22a15.14,15.14,0,0,0,5.28,1c4.15,0,5.51-2.69,5.51-5.85V86.21a6.29,6.29,0,0,1-5.57,3.21c-4.49.15-6.73-3.39-6.73-7.68,0-5.22,3-7.83,6.65-7.83a5.82,5.82,0,0,1,5.65,3.19l.24-3h1.16Zm-6.79.64c3.77,0,5.42-3.17,5.42-6.59,0-4.64-2.67-6.55-5.54-6.55-3,0-5.39,1.77-5.39,6.55C454.56,85.05,455.63,88.24,460.07,88.24Z"/><path d="M484.75,79.33v9.92h-1.39v-10c0-2.72-1.51-4.14-4-4.14-3.65,0-5.31,2.69-5.31,5.42v8.73h-1.39V67.35l1.39-.26V77.24a5.81,5.81,0,0,1,5.4-3.33C483.27,73.79,484.75,76.34,484.75,79.33Z"/><path d="M491.1,75.39h-2.53V74.2h2.58l.21-4.24,1.13-.2V74.2h4.44l-.32,1.19h-4.12v10c0,2.15.9,2.76,2.32,2.76a7,7,0,0,0,2.93-1.08l.64,1.11a7.86,7.86,0,0,1-3.57,1.21c-2.9,0-3.71-1.74-3.71-4Z"/><path d="M510.15,75.39h-2.53V74.2h2.59l.2-4.24,1.13-.2V74.2H516l-.32,1.19h-4.12v10c0,2.15.9,2.76,2.32,2.76a7,7,0,0,0,2.93-1.08l.64,1.11a7.86,7.86,0,0,1-3.57,1.21c-2.9,0-3.71-1.74-3.71-4Z"/><path d="M531.87,89.25l-.23-3.59A6,6,0,0,1,526,89.4c-3.83.11-5.34-2.44-5.34-5.43V74.05h1.4v10c0,2.73,1.53,4.15,4,4.15,3.65,0,5.51-3.37,5.51-6V74.05H533v15.2Z"/><path d="M550.84,85.94A6.34,6.34,0,0,1,545,89.42c-4.64,0-6.82-3.71-6.82-7.77,0-5,3.14-7.74,7-7.74a6,6,0,0,1,5.63,3.45l-1.25.55A4.64,4.64,0,0,0,545,75.1c-3,0-5.51,2.11-5.51,6.46,0,3.49,1.53,6.62,5.45,6.62a4.68,4.68,0,0,0,4.61-2.82Z"/><path d="M560.93,81.65l5.51,7.6h-1.77l-4.93-6.9h-2.87v6.9h-1.42V67.35l1.42-.26V81.16h2.81l4.67-7.11h1.8Z"/><path d="M578.5,74.05l.26,3.08a6.22,6.22,0,0,1,5.63-3.22c3.39,0,6.61,2.17,6.61,7.63,0,4.58-2.26,7.88-6.84,7.88a5.62,5.62,0,0,1-5.4-3.21v8.84h-1.42v-21Zm5.77,14.19c3.66,0,5.34-2.93,5.34-6.68,0-4.9-2.58-6.46-5.4-6.46-3.1,0-5.56,2.52-5.56,6.55C578.65,85,579.83,88.24,584.27,88.24Z"/><path d="M601.93,89.42c-4.58,0-6.58-3.48-6.58-7.74,0-5.19,3-7.77,6.7-7.77,3.39,0,6.47,2.58,6.47,7.77C608.52,85.94,606.17,89.42,601.93,89.42Zm0-1.18c3.48,0,5.2-3.17,5.2-6.56,0-4.67-2.47-6.58-5.08-6.58-2.81,0-5.28,1.79-5.28,6.58C596.77,85.05,598.08,88.24,601.93,88.24Z"/><path d="M623.45,75.3l-.58,1.16a8.51,8.51,0,0,0-4.61-1.36c-2.09,0-4.06.61-4,2.75.08,3.8,9.71,1.57,9.71,7.14,0,3-2.55,4.49-5.94,4.43a8.17,8.17,0,0,1-5.6-1.94l.78-1A6.65,6.65,0,0,0,618,88.24c2.75,0,4.55-1,4.55-3.22,0-4.56-9.6-2.06-9.66-7.08,0-2.55,1.89-4,5.43-4A11.23,11.23,0,0,1,623.45,75.3Z"/><path d="M630.93,89.25h-1.42v-14H627V74.05h3.91Zm-1.85-20a1.12,1.12,0,0,1,1.1-1.1,1.12,1.12,0,1,1,0,2.23A1.12,1.12,0,0,1,629.08,69.21Z"/><path d="M637.57,75.39h-2.52V74.2h2.58l.2-4.24,1.13-.2V74.2h4.44l-.32,1.19H639v10c0,2.15.9,2.76,2.33,2.76a7,7,0,0,0,2.92-1.08l.64,1.11a7.8,7.8,0,0,1-3.56,1.21c-2.91,0-3.72-1.74-3.72-4Z"/><path d="M650.77,89.25h-1.42v-14h-2.5V74.05h3.92Zm-1.86-20a1.12,1.12,0,0,1,1.1-1.1,1.12,1.12,0,1,1,0,2.23A1.12,1.12,0,0,1,648.91,69.21Z"/><path d="M662.46,89.42c-4.59,0-6.59-3.48-6.59-7.74,0-5.19,3-7.77,6.7-7.77,3.39,0,6.47,2.58,6.47,7.77C669,85.94,666.69,89.42,662.46,89.42Zm0-1.18c3.48,0,5.19-3.17,5.19-6.56,0-4.67-2.47-6.58-5.08-6.58-2.81,0-5.28,1.79-5.28,6.58C657.29,85.05,658.6,88.24,662.46,88.24Z"/><path d="M675.27,74.05l.23,3a5.68,5.68,0,0,1,5.4-3.19c3.83-.12,5.31,2.43,5.31,5.42v9.92h-1.4v-10c0-2.72-1.5-4.14-4-4.14-3.65,0-5.31,2.69-5.31,5.42v8.73h-1.39V74.05Z"/></svg>