<svg id="Layer_1" data-name="Layer 1" xmlns="http://www.w3.org/2000/svg" viewBox="0 0 780 1051.14"><defs><style>.cls-1{fill:#c6946f;stroke-width:0.23px;}.cls-1,.cls-2,.cls-4,.cls-5,.cls-6,.cls-7{stroke:#fff;stroke-miterlimit:10;}.cls-2,.cls-3,.cls-6,.cls-7{fill:#d4a47c;}.cls-2{stroke-width:0.28px;}.cls-4{fill:#005058;stroke-width:0.54px;}.cls-5{fill:#fff171;stroke-width:0.3px;}.cls-6{stroke-width:0.41px;}.cls-7{stroke-width:0.31px;}.cls-8,.cls-9{fill:#fff;}.cls-8{opacity:0.7;}</style></defs><path class="cls-1" d="M531.39,491.7a.88.88,0,0,0,0-.17l1-31.09c.32-9.36.93-19.05-.14-28.2-1.81-15.34.22-30.79,2.44-46.4l.12.17a.74.74,0,0,1-.09-.35c.06-.45.13-.91.19-1.36l0-.16c.84-3.44,3.82-10.32,4.23-11.72,2.27-7.76,4.67-16.16,4-24.53-.7-9.21-4.08-18-4.44-27.29-.24-6-4.87-10.72-5.08-16.81-.09-2.62-.78-6.6-2.22-8.81-2-3-6.44-4.28-5.57.8a14,14,0,0,1,.55,3.88c-.4,3.4-4.6,5-5.92,8.17A10.57,10.57,0,0,0,520,312c0,4.73.46,9.58.35,14.26-.07,2.57-1.13,4.61-1.55,7.05-.77,4.49-4.37,8.13-7.07,11.73a19.12,19.12,0,0,0-1.13,1.69c-2.89,4.74-4.14,6.23-3.43,9.09a8.52,8.52,0,0,0,4.31,5.34,22.4,22.4,0,0,1,3.25,2l1.18.91c-1.42,8.38-7.14,27.12-9.13,33.17-4.32,13.11-9.1,25.89-14.28,38.61l0,.08c-.3.87.34,13.89.05,14.77-3.45-10-2.8-20.63-7.87-30.12-7.16-13.38-14.72-26.5-22.27-39.66-7.4-12.49-14.16-26.86-25.73-36-11.05-8.75-24.71-13.47-37.55-13-8.12.32-16,2.75-21.88,7.85-8.13,7-20.79,29.47-21,41.16-.41,26.14,22.6,28.26,30.88,43.89C399.4,448,398.41,445,416,464.81,425,475,441,488.63,451.05,500c7.73,8.76,20.51,22.21,31.24,27,11.78,7.41,37.05.1,43-12.38,2.73-5.75,3-12.26,5.06-18.24l.59-1.7a2.33,2.33,0,0,0,.07-.25Z"/><path class="cls-2" d="M386.51,574.07c-.48,1.18-6.69-7.31-8.13-6.93s-1.82-1.42-2.41-2.42c-.48-.82-1.28-1.31-1.82-2.1a8,8,0,0,0-1.15-1.71,6.51,6.51,0,0,0-4.46-1.61c-1.82.24-3,2-4.69,2.43a5.78,5.78,0,0,1-2.26-.06,2.71,2.71,0,0,1,0,1.74c-1.15,3.92-4.51,6.31-6.78,9.53a20.37,20.37,0,0,0,2.84,2.19,29.88,29.88,0,0,1,4.37,3.57c1.22,1.18,2.61,1.86,2.94,3.51.26,1.27-.26,2.55,0,3.81a21.32,21.32,0,0,1,.7,2.52,33.62,33.62,0,0,1-.11,4.14c-.1,3.05.1,6.19.14,9.26a25.39,25.39,0,0,0,1.86,9.66,20.42,20.42,0,0,0,6.17,7.82,45.48,45.48,0,0,0,6.37,4.46,77.44,77.44,0,0,0,10.4,4.52c4,1.41,9,1.55,13.2,1.21,3.11-.25,6.13,0,9.25-.62a26.37,26.37,0,0,0,8.69-3.81c2.32-1.43,4.76-1.95,7.28-2.71,1.27-.39,2.3-1.3,3.61-1.75a30.71,30.71,0,0,0,4.58-1.81c2.79-1.53,3.66-4.09,4.75-6.84.72-1.83.78-3.76,1.54-5.59a14.78,14.78,0,0,0,.77-2.77c.21-1.06.69-2,.9-3,.1-.51,0-1,.06-1.5s.47-.79.46-1.36a21.45,21.45,0,0,0-.89-3.19,29.19,29.19,0,0,1-.75-3.79c0-.2,0-.33,0-.41s.18-.12.37-.42a12.86,12.86,0,0,1,2-2.19c1.76-1.82,2.22-1.66,4-3.93a28.62,28.62,0,0,0,3-4.52,3.56,3.56,0,0,0-2.12-5.11,2,2,0,0,1-1.07-.78,5,5,0,0,1-1.33-3.38,19.56,19.56,0,0,0,.58-3.12,19.35,19.35,0,0,0-1-5.72c-.53-1.51-1.36-2.1-.83-3.59.37-1.08.81-2.15,1.23-3.21.8-2,.94-4.06-.88-5.52a15.76,15.76,0,0,0-10.21-2.85c-29.1,4.16-19.5-6.18-29.66-8-6.95-1.26-18-2.36-22.62-7.77"/><path d="M433.69,598c-.33-.18-.64-.4-.95-.61s-.55-.39-.57-.63,0-.1.08-.12.23.09.3.11l.34.06c.46.06.92.06,1.38.11.26,0,.53,0,.79.08,1.62.31,3.2,1.17,4.84,1.29a7.41,7.41,0,0,0,4.37-1.47c.17.51.74,2.18.27,2.55-.67.52-2.9.32-3.74.56a6.78,6.78,0,0,1-4.71-.43C435.24,599.07,434.51,598.46,433.69,598Z"/><path d="M354.25,578.77c1.88,1.81,4.23,3.42,5.87,5.43,5.23,6.4,2.65,15.94,4.63,24,1.63,6.6,6.46,12.08,12.21,15.71s12.4,5.58,19,7c6.16,1.36,12.5,2.34,18.74,1.48,4.2-.57,16.15-4.1,16.16-9.72s-9.27-10.21-10.19-16.31c-.46-3.1.52-6.37-.49-9.33A25.13,25.13,0,0,0,418,592.9c-1.39-2.49-2.13-5.32-3.68-7.71s-4.34-4.35-7.11-3.67a11.7,11.7,0,0,1-1.76,5.78c-1.2,1.65-2.21.8-4.06-.07-2.54-1.19-3.91-3-2.94-5.59s2.63-5.21,2.24-8c-.42-3-3.07-5.1-5.51-6.89-4.21-3.06-13.25-5.36-17.45-8.42-2.52,1.85-2.07.88-4.7,2.57-2,1.28.82,4.82-1.37,4a19.28,19.28,0,0,0-13.06-.34c-4,1.33-7.83,4.78-7.37,8.94A8.72,8.72,0,0,0,354.25,578.77Z"/><path d="M431.5,622l-.92.32a1.72,1.72,0,0,1,.07.21A3,3,0,0,0,431.5,622Z"/><path d="M367.55,579.72a7.41,7.41,0,0,0-2.78,2.2,12.63,12.63,0,0,1-3.44,2.35,6.38,6.38,0,0,1-4.64.67,7,7,0,0,1-3.48-2.36,6.76,6.76,0,0,1-1.68-3.39c0-1.35,1.19-3.22,1.65-4.48a7,7,0,0,1,3.39-3.36c1.44-.79,3.18-1.45,4.8-.94a20.53,20.53,0,0,1,9,6.41c1.21,1.37,1.19,3.88.91,5.62s-1.28,4.54-2.62,5.78c-2.55,2.38-6.6.83-9-.85-1.47-1-2.85-2.16-3-4.08a10.25,10.25,0,0,1,1-4.49A19.17,19.17,0,0,1,360,574a7.11,7.11,0,0,1,1.8-2.08,22.56,22.56,0,0,0,2.58-1.7,8.5,8.5,0,0,1,3.08-1.61,3.41,3.41,0,0,1,2.64.2,10.93,10.93,0,0,1,2.77,1.55c.53.4.9,1,1.4,1.44.87.76.85.82.45,2"/><path d="M363.4,582.93c.09,1.5-.84,2.48-1.85,3.41a6.24,6.24,0,0,0-1,1,1.93,1.93,0,0,1-1.81.89c-1.92.05-3.77-1.29-5.28-2.27a6.56,6.56,0,0,1-1.79-1.43c-.43-.57-.64-1.28-1.07-1.83-.25-.32-.6-.49-.78-.89s-.18-.86-.39-1.27a2.53,2.53,0,0,1-.47-1.12,9.41,9.41,0,0,1,0-1.3,5.12,5.12,0,0,1,.39-2.33,14.54,14.54,0,0,1,1.37-2,5.84,5.84,0,0,1,.82-.75c.35-.31.56-.72.9-1a6.42,6.42,0,0,1,3.47-1.15c2.3-.37,4.79.75,6.87,1.66a12.08,12.08,0,0,1,4.23,3.12,28.14,28.14,0,0,1,1.67,2.42,10.54,10.54,0,0,1,1.39,2.35,9.1,9.1,0,0,1,.48,3,19.32,19.32,0,0,1-.1,3.23,6.39,6.39,0,0,1-1.39,2.82,8.3,8.3,0,0,0-1.18,1.19,5.55,5.55,0,0,1-1,1.43,6.9,6.9,0,0,1-5.53,2.1,22.35,22.35,0,0,1-4.45-.81c-.91-.32-1.8-.7-2.71-1a6.09,6.09,0,0,1-2.5-1.78,4.17,4.17,0,0,1-1-1.5,5.14,5.14,0,0,1-.61-1.63c0-1.7,1-3,1.25-4.56a6.13,6.13,0,0,1,.1-.94c.15-.48.37-.94.55-1.41a11.22,11.22,0,0,1,1-2.24,7.09,7.09,0,0,1,1.89-2,3.78,3.78,0,0,1,3.05-.63,10.44,10.44,0,0,1,3.76.88,13.57,13.57,0,0,1,4,3.2,10.4,10.4,0,0,1,2.64,4.5,10.77,10.77,0,0,1,.52,2.68,12,12,0,0,1-.52,2.4c-.45,1.7-2,2.84-3.26,3.92-.24.21-.74.84-1.08.9s-.68-.23-.91-.31"/><path d="M375.78,568.09c.08,1.5-.85,2.48-1.86,3.42a6.57,6.57,0,0,0-1,1,2,2,0,0,1-1.81.9c-1.92,0-3.77-1.29-5.28-2.27a6.72,6.72,0,0,1-1.79-1.43c-.43-.57-.64-1.28-1.06-1.83-.26-.32-.61-.49-.79-.89s-.17-.86-.39-1.28a2.61,2.61,0,0,1-.47-1.11,9.52,9.52,0,0,1,0-1.31,5.1,5.1,0,0,1,.39-2.32,15.57,15.57,0,0,1,1.37-2,7.29,7.29,0,0,1,.82-.75c.35-.3.56-.71.9-1A6.52,6.52,0,0,1,368.3,556c2.31-.36,4.79.76,6.87,1.67a11.84,11.84,0,0,1,4.23,3.12,29,29,0,0,1,1.68,2.42,10.89,10.89,0,0,1,1.38,2.35,8.8,8.8,0,0,1,.48,3,19.35,19.35,0,0,1-.1,3.23,6.45,6.45,0,0,1-1.38,2.81c-.38.43-.87.69-1.18,1.2a6.09,6.09,0,0,1-1,1.43,6.91,6.91,0,0,1-5.54,2.09,21.55,21.55,0,0,1-4.44-.8c-.92-.32-1.81-.71-2.71-1a6.31,6.31,0,0,1-2.51-1.78,4.39,4.39,0,0,1-1-1.5,5.45,5.45,0,0,1-.61-1.64c0-1.69,1-3,1.26-4.56a6,6,0,0,1,.09-.93c.15-.48.38-1,.55-1.41a10.77,10.77,0,0,1,1-2.24,7.13,7.13,0,0,1,1.89-2,3.79,3.79,0,0,1,3-.62,10.33,10.33,0,0,1,3.77.88,13.37,13.37,0,0,1,4,3.2,10.44,10.44,0,0,1,2.65,4.49,6.53,6.53,0,0,1,0,5.09c-.44,1.69-2,2.83-3.26,3.92-.24.21-.74.84-1.07.9s-.68-.23-.92-.32"/><path class="cls-2" d="M410.39,581c2.75,4.78-4.78,9.4-8.71,8a6.86,6.86,0,0,1-4.06-8.33c1.13-3.36,4.75-5.35,6.09-8.63.7-1.73.79-3.83,2.16-5.11s4.46,0,3.51,1.65"/><path class="cls-3" d="M400.37,567.38c2.65-2.54,4.92-18,6.43-21.35,1.33-2.89,1.49-6.26,2-9.37.4-2.28,0-4.52.26-6.81.18-1.33,0-2.6.22-3.94a10.07,10.07,0,0,0,0-3.1c-.24-1.95-.38-3.88-.6-5.83-.14-1.19-.48-2.36-.54-3.55-.14-3.45-1.18-6.73-1.75-10.15-.52-3-1.09-6.09-1.37-9.12-.21-2.36-1.15-4.36-1.83-6.57a9.47,9.47,0,0,0-1.77-4,16.17,16.17,0,0,1-1.37-2.95,28.06,28.06,0,0,0-2.12-3c-1.81-2.54-3.52-5.16-5.3-7.73-2.64-3.82-4.41-8.22-6.68-12.25-2-3.54-4.08-7.07-5.86-10.72-2.53-5.17-5.66-9.93-8.39-15-4.28-8-9.93-14.91-15.82-21.71a57.1,57.1,0,0,0-5.12-5.76c-1.81-1.6,1.69-17.95-.4-19.15-8.56-4.85-12.83,19.07-13.77,23.6q-.58,2.79-1.28,5.56c-3.64,14.55-9.27,28.7-11,43.64a129.3,129.3,0,0,0,2,40.21A106.82,106.82,0,0,0,332,516.73c2,4.91,4.39,12.61,8.12,16.46,2.89,3,5.89,5.86,8.79,8.77a67.58,67.58,0,0,0,9.22,8.26c2.68,1.85,5.13,3.9,8.18,5.13,2.51,1,5.26,1.72,7.66,3,1.68.89-4-1.36-2-.91"/><path class="cls-4" d="M417.89,454.64a34,34,0,0,1,2.35-17.57,24.68,24.68,0,0,1,2.18-3.89c.57-.83.71-.78.29-1.64a9.4,9.4,0,0,0-1.28-1.69c-.52-.63-12.48,14.73-13.11,14.24-14.58-11.15-23.42-27.53-29.58-44.47-3-8.36-6.83-17.79-8.08-26.61-1.2-8.43,2.81-15.15,6.15-22.89a50.2,50.2,0,0,1,9.46-14.85c.27-.28.55-.52.83-.77-2.32.65-4.67,1.19-7,1.93a34,34,0,0,0-7.61,3.79c-4.81,3-6,5.44-10.18,9.29a66.45,66.45,0,0,0-12.22,16.18,84.08,84.08,0,0,0-7.38,19.2c-.34,1.31-2.56,8.49-2.51,9.84.06,1.67,1.6,4.67,2.17,6.23,8.26,22.71,6.91,48,11.18,71.88a5.32,5.32,0,0,0,1.2,3,5,5,0,0,0,2.72,1.05,161.9,161.9,0,0,1,44.33,14.67,7.64,7.64,0,0,1,3.11,2.32,3,3,0,0,1-.13,3.69c2.13-2.55,4.31-5.05,6.57-7.48"/><path d="M368.58,557.94c-1.78,0-3.4-.68-5.19-.67a17,17,0,0,0-5,1.28,5.82,5.82,0,0,0-3.58,3.35c-.8,1.67-1.56,3.38-1,5.18,1.22,3.87,3.4,6.6,7.42,8,1.33.45,11,2.87,10-.68"/><path class="cls-5" d="M356.41,476.29l-.41-.16a5,5,0,0,1-.71-.49,1,1,0,0,1-.24-.22,4.07,4.07,0,0,1-.48-.6,1.64,1.64,0,0,1-.27-.46,1.49,1.49,0,0,1-.19-.66c0-.2-.08-.41-.11-.61s0-.21,0-.31c-5.69,5.14-10.62,12.91-14.49,23.1a124.62,124.62,0,0,0-5.94,22.06s-.61,2.71-.47,2.15c1.38,3.17,1.57,4.13,3,6.8.19-1,.84-3.72,1-4.63.26-1.29.5-2.48.69-3.5a119.88,119.88,0,0,1,5.72-21.26c2.69-7.08,6.91-15.51,13-21.17Z"/><path class="cls-6" d="M387.72,547A19.24,19.24,0,0,0,403,548.89a19.78,19.78,0,0,0,8-4.89,45.92,45.92,0,0,0,12.48-21.19c1.85-7.47,3.07-14.09,1-21.56a58,58,0,0,1-2.31-15.75A63.43,63.43,0,0,1,424.24,470a64.26,64.26,0,0,0,2-13.72c28.36,6,52.51,1.91,78.25,6.11,3.21,3.3,5.94,7.05,8.94,10.54a87.18,87.18,0,0,0,5.82,6.62c2.25,2.13,4.32,2.76,7,3.94,2.29,1,4.2.26,6.18,1.81a3.37,3.37,0,0,0,.68.4c.28.13.53.32.8.44a3.72,3.72,0,0,0,1.69.39,1.38,1.38,0,0,0,.5-.05c.21-.09.43-.27.63-.38a6.53,6.53,0,0,1,1.32-.73,6.37,6.37,0,0,1,1.46-.1,22.62,22.62,0,0,1,2.73,0,10,10,0,0,0,2.78.16c.57-.12.52-.73.5-1.29a2.61,2.61,0,0,0-.23-.86c-.12-.33-.25-.66-.39-1-.36-.36-.71-.72-1.05-1.09a.76.76,0,0,1-.12-.19,11.1,11.1,0,0,0-1.91-.84c-.75-.26-1.5-.49-2.25-.71l-6.87-1.35,7.7,1.49a10.42,10.42,0,0,1,1.94.62c.46.2.89.49,1.35.7a.69.69,0,0,1,.11-.71,3.9,3.9,0,0,0,.83-3.53c-.26-1.2-.66-2.35-.81-3.57a.72.72,0,0,1,.48-.7,2.71,2.71,0,0,0,2.15-2.69,7.43,7.43,0,0,0-1.25-3.48.84.84,0,0,1-.09-.28l-4.77-2.47c.08,0-5.58-2.64-2.34-1.32l7.12,3.61a.6.6,0,0,1,.46-.59,1.77,1.77,0,0,0,1.4-1.54c.13-1.66-.57-1.56-.81-2.35a2.63,2.63,0,0,1,.25-2.55,1.74,1.74,0,0,0,.44-1.79,7.65,7.65,0,0,0-.62-1.25c-.77-.39-1.55-.69-2.3-1.13-1.63-.94-3.44-1.35-5.13-2.14-1.85-.87-3.64-1.86-5.49-2.72-.72-.33-1.43-.67-2.16-.95-4.34-1.71-9.22-1.8-13.79-2.26-.51-.05-.95,0-1.47-.05a19,19,0,0,0-2.71-.12c-10.88-5.11-21.78-10.19-33-13.85-16.22-5.31-33.58-7.85-50.71-6.4-.72.06-1.42.14-2.12.24-3.84.55-7.46,1.62-11.29,2.42-2.6.54-5.06,1.77-7.35,1.55a11.86,11.86,0,0,0-6.51,1.14c-5.71,2.87-7.94,9.75-9.47,16-3.09,12.53-15.18,37.39-16.11,50.25"/><path class="cls-7" d="M534.92,481.92a3.24,3.24,0,0,0-.51,1.27c0,.31,0,.65,0,1a7,7,0,0,1-.09.8c0,.45-.3.78.07,1.24"/><path class="cls-7" d="M536.57,483a7.31,7.31,0,0,1,.45,1.71c0,.18.08.37.11.56a5.85,5.85,0,0,0,0,.73"/><path class="cls-7" d="M540.63,485c-1.38-.13-.23-1.06.23-1.34,1-.65,3.22-2,4.44-.22"/><path class="cls-7" d="M546.29,460.94a33.21,33.21,0,0,0-5.16-2.2,7,7,0,0,0-.9-.36c-.35-.08-2.77-1-3.12-1.16-.51-.2,9.06,3.27,8.6,3"/><path class="cls-7" d="M544.23,473.62c-.6-.34-2.05-.91-2.69-1.2-.36-.16-6.7-3.26-7.06-3.43s9.75,4.32,9.39,4.11"/><path class="cls-5" d="M344.11,537.32l3,3.12c.9.94,1.88,1.76,2.8,2.66a97.73,97.73,0,0,0,42.63,7.66,24.23,24.23,0,0,0,8.86-1.75,13.7,13.7,0,0,1-5.62.38,14.07,14.07,0,0,1-3.56-.55,16,16,0,0,1-5-2.19c-2.81,0-5.62-.09-8.4-.34a96.12,96.12,0,0,1-32-9c-1.8-.84-3.76-1.87-5.5-2.81C341.88,535.09,343.38,536.53,344.11,537.32Z"/><path d="M66,207.09v7.25H68.1l4.25-7.25h3.5l-5,8.61,5.45,8.65h-3.6L68.08,217H66v7.37H63V207.09Z"/><path d="M80.49,211.43l.46,2.29a4.77,4.77,0,0,1,4.42-2.41c3,0,4.49,1.94,4.49,4.61v8.43H86.8V216.9c0-2-.74-3-2.42-3-2.34,0-3.25,1.9-3.25,4v6.51H78.07V211.43Z"/><path d="M104.31,220.8a5.76,5.76,0,0,1-5.57,3.7c-4.34,0-6.27-2.71-6.27-6.76s2.72-6.53,6.44-6.43c3,.07,5.74,2.34,5.45,6.46l0,.39H95.58c0,2.2.94,3.7,3.18,3.7a2.89,2.89,0,0,0,2.79-2.05Zm-3.13-4.22c0-2-1-2.93-2.54-2.88a2.87,2.87,0,0,0-2.91,2.88Z"/><path d="M118.39,220.8a5.76,5.76,0,0,1-5.57,3.7c-4.34,0-6.26-2.71-6.26-6.76s2.71-6.53,6.43-6.43c3,.07,5.75,2.34,5.45,6.46l0,.39h-8.73c0,2.2.94,3.7,3.18,3.7a2.87,2.87,0,0,0,2.79-2.05Zm-3.13-4.22c0-2-1-2.93-2.54-2.88a2.87,2.87,0,0,0-2.91,2.88Z"/><path d="M121.48,220.65a6.68,6.68,0,0,0,4.19,1.43c1.48,0,2.34-.44,2.34-1.5,0-2.52-7.47-.84-7.22-5.57.1-2.32,1.8-3.7,5.23-3.7a10.49,10.49,0,0,1,4.66,1.21l-1.09,2.17a7.25,7.25,0,0,0-3.7-1.06c-1.21,0-2.22.39-2.17,1.4.15,2.05,7.33.47,7.33,5.45,0,2.66-2.4,4-5.45,4a8.83,8.83,0,0,1-5.31-1.68Z"/><path d="M141.14,211.43l.44,2.29a4.34,4.34,0,0,1,4-2.44,3.76,3.76,0,0,1,3.85,2.39,4.57,4.57,0,0,1,4.17-2.39c3,0,4.21,2,4.21,4.64v8.43h-3.05V216.9c0-2-.47-3-2.15-3-2.22,0-2.81,1.68-2.81,3.58v6.9h-3.06V216.9c0-2-.47-3-2.14-3-2.37,0-2.84,1.9-2.84,4v6.51h-3.06V211.43Z"/><path d="M163.8,211.43v7.45c0,2,.79,3,2.59,3,2.34,0,3.3-2.42,3.3-4.86v-5.62h3.06v12.92h-2.44l-.44-2.81a4.72,4.72,0,0,1-4.47,3c-3.15,0-4.66-1.95-4.66-5.2v-7.87Z"/><path d="M176.26,220.65a6.68,6.68,0,0,0,4.19,1.43c1.48,0,2.34-.44,2.34-1.5,0-2.52-7.47-.84-7.22-5.57.1-2.32,1.8-3.7,5.22-3.7a10.49,10.49,0,0,1,4.66,1.21l-1.08,2.17a7.25,7.25,0,0,0-3.7-1.06c-1.21,0-2.22.39-2.17,1.4.15,2.05,7.32.47,7.32,5.45,0,2.66-2.39,4-5.44,4a8.83,8.83,0,0,1-5.31-1.68Z"/><path d="M192.29,207.78v3.77h3.25l-.42,2.47h-2.83v5.92c0,1.4.64,1.95,1.67,1.95a5.64,5.64,0,0,0,1.95-.57l.57,2.34a8.1,8.1,0,0,1-3.28.84c-3,0-4-2-4-4.14V214h-1.8v-2.47h1.95l.37-3.42Z"/><path d="M65.84,239.43v8.21a4.4,4.4,0,0,1,4.31-2.42c2.44.07,5.06,1.73,5.06,6.49,0,3.89-1.95,6.7-5.45,6.7a4.27,4.27,0,0,1-4.07-2.36l-.42,2.21H62.78V239.82Zm-.13,12.35c0,2.22.82,4,3.26,4,2,0,3.1-1.5,3.1-4,0-3-1.5-3.94-3.13-3.94S65.71,249.19,65.71,251.78Z"/><path d="M89.24,254.71a5.76,5.76,0,0,1-5.57,3.7c-4.34,0-6.27-2.71-6.27-6.75s2.72-6.54,6.44-6.44c3,.07,5.74,2.34,5.45,6.46l-.05.39H80.51c0,2.2.94,3.7,3.18,3.7a2.88,2.88,0,0,0,2.79-2Zm-3.13-4.21c0-2-1-2.94-2.54-2.89a2.88,2.88,0,0,0-2.91,2.89Z"/><path d="M99.58,245.34l.44,2.32a4.71,4.71,0,0,1,4.41-2.44c2.45.07,5.08,1.73,5.08,6.49,0,3.89-1.94,6.7-5.47,6.7a4,4,0,0,1-3.82-2.09v6.88H97.14V245.34Zm.42,6.44c0,2.22.81,4,3.27,4,2,0,3.11-1.5,3.11-4,0-3-1.5-3.94-3.13-3.94C101.47,247.79,100,249.19,100,251.78Z"/><path d="M115.09,245.34v7.45c0,2,.79,3,2.59,3,2.34,0,3.3-2.41,3.3-4.85v-5.63H124v12.92H121.6l-.44-2.81a4.72,4.72,0,0,1-4.47,3c-3.15,0-4.66-1.94-4.66-5.2v-7.87Z"/><path d="M130.26,239.43v14.62c0,1.38.61,1.75,1.53,1.75a2.42,2.42,0,0,0,1.28-.47l.57,2.2a5.37,5.37,0,0,1-2.79.88c-2.56,0-3.65-1.72-3.65-4.07V239.8Z"/><path d="M137.24,239.43v14.62c0,1.38.61,1.75,1.53,1.75a2.42,2.42,0,0,0,1.28-.47l.57,2.2a5.37,5.37,0,0,1-2.79.88c-2.56,0-3.65-1.72-3.65-4.07V239.8Z"/><path d="M153.1,254.71a5.78,5.78,0,0,1-5.58,3.7c-4.34,0-6.26-2.71-6.26-6.75s2.71-6.54,6.44-6.44c3,.07,5.74,2.34,5.44,6.46l0,.39h-8.73c0,2.2.93,3.7,3.18,3.7a2.86,2.86,0,0,0,2.78-2ZM150,250.5c0-2-1-2.94-2.54-2.89a2.89,2.89,0,0,0-2.91,2.89Z"/><path d="M167.92,239.43v18.83h-2.57l-.34-2.21a4.53,4.53,0,0,1-4.12,2.36c-3.48,0-5.55-2.83-5.55-6.63,0-4.64,3-6.56,5.53-6.56a4.1,4.1,0,0,1,4,2.44v-7.84Zm-9.42,12.32c0,2.2.86,3.93,3.16,3.93s3.25-1.73,3.25-3.9c0-2.93-1.58-4-3.28-4S158.5,248.92,158.5,251.75Z"/><path d="M180.23,245.34v12.92h-3.08V247.88h-1.8v-2.54Zm-1.56-5a1.65,1.65,0,0,1,1.83,1.56,1.83,1.83,0,0,1-3.63,0A1.59,1.59,0,0,1,178.67,240.31Z"/><path d="M185.8,245.34l.47,2.3a4.76,4.76,0,0,1,4.41-2.42c3,0,4.49,1.95,4.49,4.61v8.43h-3.06v-7.44c0-2-.74-3-2.41-3-2.34,0-3.26,1.89-3.26,4v6.51h-3.05V245.34Z"/><path d="M202.25,241.69v3.78h3.26l-.42,2.46h-2.84v5.92c0,1.41.64,2,1.68,2a5.5,5.5,0,0,0,1.95-.57l.56,2.34a7.94,7.94,0,0,1-3.28.84c-3,0-4-2-4-4.14v-6.34h-1.8v-2.46h2l.37-3.43Z"/><path d="M213.6,245.22c3.23,0,6,2.19,6,6.61,0,3.62-2.15,6.58-6.17,6.58-4.36,0-6.16-3-6.16-6.58C207.31,247.41,210.1,245.22,213.6,245.22Zm-3.08,6.61c0,2,.69,4,3,4,2.1,0,3-1.94,3-4,0-2.86-1.41-4-3-4S210.52,248.92,210.52,251.83Z"/><path d="M66.75,275.61v3.77H70l-.42,2.47H66.75v5.91c0,1.41.64,1.95,1.67,1.95a5.69,5.69,0,0,0,2-.56l.57,2.34a8.1,8.1,0,0,1-3.28.84c-3,0-4-2-4-4.15v-6.33h-1.8v-2.47h2l.37-3.43Z"/><path d="M76,273.34v8a4.81,4.81,0,0,1,4.24-2.2c3,0,4.49,1.95,4.49,4.61v8.44H81.62v-7.45c0-2-.74-3-2.42-3-2.34,0-3.25,1.9-3.25,4v6.51H72.89V273.71Z"/><path d="M99.08,288.63a5.76,5.76,0,0,1-5.57,3.7c-4.34,0-6.27-2.72-6.27-6.76S90,279,93.68,279.13c3,.08,5.75,2.35,5.45,6.46l0,.4H90.35c0,2.19.94,3.7,3.18,3.7a2.89,2.89,0,0,0,2.79-2.05ZM96,284.41c0-2-1-2.93-2.54-2.88a2.87,2.87,0,0,0-2.91,2.88Z"/><path d="M118.22,288.55c-.84,2.64-3,3.78-5.62,3.78-4.24,0-6.07-3.16-6.07-6.61,0-4.22,2.62-6.51,6.14-6.59,3.11-.07,5,1.53,5.5,3.8l-2.84.91a2.54,2.54,0,0,0-2.61-2.12c-1.77,0-3.13,1.31-3.13,3.95,0,2.09.79,4,3.08,4a2.59,2.59,0,0,0,2.71-2Z"/><path d="M123.75,273.34v8a4.81,4.81,0,0,1,4.24-2.2c3,0,4.49,1.95,4.49,4.61v8.44h-3.06v-7.45c0-2-.74-3-2.42-3-2.34,0-3.25,1.9-3.25,4v6.51h-3.06V273.71Z"/><path d="M146.88,288.63a5.76,5.76,0,0,1-5.57,3.7c-4.34,0-6.27-2.72-6.27-6.76s2.72-6.53,6.44-6.44c3,.08,5.74,2.35,5.45,6.46l-.05.4h-8.73c0,2.19.94,3.7,3.18,3.7a2.89,2.89,0,0,0,2.79-2.05Zm-3.13-4.22c.05-2-1-2.93-2.54-2.88a2.87,2.87,0,0,0-2.91,2.88Z"/><path d="M150,288.48a6.68,6.68,0,0,0,4.19,1.43c1.48,0,2.34-.44,2.34-1.51,0-2.51-7.47-.83-7.23-5.57.1-2.32,1.8-3.7,5.23-3.7a10.49,10.49,0,0,1,4.66,1.21l-1.08,2.17a7.36,7.36,0,0,0-3.7-1.06c-1.21,0-2.22.4-2.17,1.41.15,2,7.32.47,7.32,5.45,0,2.66-2.39,4-5.45,4a8.86,8.86,0,0,1-5.3-1.68Z"/><path d="M166,275.61v3.77h3.25l-.42,2.47H166v5.91c0,1.41.64,1.95,1.67,1.95a5.76,5.76,0,0,0,2-.56l.57,2.34a8.1,8.1,0,0,1-3.28.84c-3,0-4-2-4-4.15v-6.33h-1.8v-2.47h2l.37-3.43Z"/><path d="M90.78,323.31A68.38,68.38,0,0,0,105.37,354a80.71,80.71,0,0,0,24.29,19.46A89.76,89.76,0,0,0,145,379.84c1.85.58,2.64-2.31.8-2.89-19-6-36.51-18.64-45.91-36.51a64.71,64.71,0,0,1-6.23-17.93c-.37-1.89-3.26-1.09-2.89.8Z"/><path d="M135.73,367.88c3.18,3.6,6,7.49,8.9,11.32l.53-2.05c-2.34,1-4.63,2.08-6.95,3.11-2.07.91-4.18,1.74-6.25,2.66a1.51,1.51,0,0,0-.54,2.05,1.54,1.54,0,0,0,2.05.54c2.07-.92,4.18-1.75,6.25-2.66,2.33-1,4.62-2.12,7-3.11a1.5,1.5,0,0,0,.54-2.05c-3.06-4-6-8.14-9.37-11.93-1.28-1.45-3.39.67-2.12,2.12Z"/><path class="cls-8" d="M148.79,61.4a36.73,36.73,0,0,1,8.33-23.32,34.4,34.4,0,0,0-45.48-4.38A34.43,34.43,0,0,0,131.9,96a34.33,34.33,0,0,0,25.32-11.11A36.76,36.76,0,0,1,148.79,61.4ZM138,75.49s-3.7-.27-11.47-.27a25.63,25.63,0,0,0-4.93.31l-1.35-2.46c7.78-7.9,12.4-13.63,13-18.71.47-3.66-2-4.82-4.35-4.66a9.73,9.73,0,0,0-6.73,3.92c-.2-.23-1.93-2.07-1.47-2.65A12.43,12.43,0,0,1,130,46.12c5.89,0,9.09,3,8.74,8.51-.46,7-8,13.59-12.63,17.55l8.32-.08c1.77-.15,3-2.54,3.81-4.73,0,0,1.73.5,2,1C139.58,71.53,138.81,75.49,138,75.49Z"/><path class="cls-8" d="M95.79,61.4A36.74,36.74,0,0,1,104.16,38a34.44,34.44,0,1,0,.11,46.9A36.78,36.78,0,0,1,95.79,61.4ZM87.2,75.66H70.92L71,73.39l4.46-.58c.58,0,.81-.23.81-1,.08-10.05,0-19.6,0-19.6l-5.62,1.08c-.19-.31-1.12-2.46-.46-2.73l10.35-4,1,1s-.12,20.87,0,24.37c0,.77.19,1,.73,1l5.08.54Z"/><circle cx="184" cy="61.53" r="34.44"/><path class="cls-9" d="M187.93,59.13c3.47.62,5.47,2.93,5.66,6.7.31,6-4.58,9.66-11.24,9.66a15.64,15.64,0,0,1-7.86-2.19l1-2.89a21.48,21.48,0,0,0,7,1.66c3.35,0,5.51-1.74,5.55-5.24,0-2.47-1.43-4.35-4.47-4.74a18.16,18.16,0,0,0-5,.23c-.5.12-.89-3-.42-3.08,3-.53,7.62-1.07,8.39-4.88.73-3.62-2-4.82-4.35-4.66A8.43,8.43,0,0,0,176,52.82c-.2-.24-1.7-2.12-1-3a10.4,10.4,0,0,1,8.16-3.69c5.89,0,9.12,3,8.74,8.51A6,6,0,0,1,187.93,59.13Z"/><path d="M243.45,38.34l-.27,3.12h-5.55V59.34h-3.75V41.46h-5.76V38.34Z"/><path d="M249.6,36.42v9.72a5.86,5.86,0,0,1,5.16-2.67c3.69,0,5.46,2.37,5.46,5.61V59.34H256.5V50.28c0-2.4-.9-3.69-2.94-3.69-2.85,0-4,2.31-4,4.83v7.92h-3.72V36.87Z"/><path d="M277.74,55a7,7,0,0,1-6.78,4.5c-5.28,0-7.62-3.3-7.62-8.22s3.3-7.95,7.83-7.83c3.69.09,7,2.85,6.63,7.86l-.06.48H267.12c0,2.67,1.14,4.5,3.87,4.5a3.5,3.5,0,0,0,3.39-2.49Zm-3.81-5.13c.06-2.43-1.26-3.57-3.09-3.51a3.5,3.5,0,0,0-3.54,3.51Z"/><path d="M284,43.62l.57,2.79A5.8,5.8,0,0,1,290,43.47c3.69,0,5.46,2.37,5.46,5.61V59.34h-3.72V50.28c0-2.4-.9-3.69-2.94-3.69-2.85,0-4,2.31-4,4.83v7.92h-3.72V43.62Z"/><path d="M310.29,39.18v4.59h4l-.51,3h-3.45V54c0,1.71.78,2.37,2,2.37a6.83,6.83,0,0,0,2.37-.69l.69,2.85a9.82,9.82,0,0,1-4,1c-3.69,0-4.83-2.46-4.83-5V46.77h-2.19v-3h2.37l.45-4.17Z"/><path d="M321.48,36.42v9.72a5.86,5.86,0,0,1,5.16-2.67c3.69,0,5.46,2.37,5.46,5.61V59.34h-3.72V50.28c0-2.4-.9-3.69-2.94-3.69-2.85,0-4,2.31-4,4.83v7.92h-3.72V36.87Z"/><path d="M349.62,55a7,7,0,0,1-6.78,4.5c-5.28,0-7.62-3.3-7.62-8.22s3.3-7.95,7.83-7.83c3.69.09,7,2.85,6.63,7.86l-.06.48H339c0,2.67,1.14,4.5,3.87,4.5a3.5,3.5,0,0,0,3.39-2.49Zm-3.81-5.13c.06-2.43-1.26-3.57-3.09-3.51a3.5,3.5,0,0,0-3.54,3.51Z"/><path d="M360.15,43.77V41.64c0-3.12,1.62-5.22,5.16-5.22a6.41,6.41,0,0,1,3.6,1.08v-.72l3.72-.36V54.21c0,1.68.72,2.13,1.83,2.13a2.81,2.81,0,0,0,1.56-.57l.72,2.67a6.6,6.6,0,0,1-3.42,1.08c-3.09,0-4.41-2.1-4.41-5V40.08a6,6,0,0,0-2.7-.69c-1.47,0-2.31.6-2.31,2.85v1.53h3.18l-.48,3h-2.7V59.34h-3.75V46.77h-2.46v-3Z"/><path d="M383.37,43.62V59.34h-3.75V46.71h-2.19V43.62Zm-1.89-6.12a2,2,0,0,1,2.22,1.89,2.22,2.22,0,0,1-4.41,0A1.93,1.93,0,0,1,381.48,37.5Z"/><path d="M401.85,43.62V57c0,5.22-2,8.37-7.8,8.37A16.38,16.38,0,0,1,387.63,64l.87-2.82a13.33,13.33,0,0,0,5.13,1.17c3.39,0,4.5-1.68,4.5-4.26V56.7a5.42,5.42,0,0,1-4.83,2.49c-4.23.09-6.66-3.12-6.66-7.74,0-5.64,3.6-8,6.72-8a5.2,5.2,0,0,1,5,2.85l.39-2.7Zm-11.34,7.8c0,2.67,1.05,4.77,3.84,4.77s3.9-2.1,3.9-4.74c0-3.57-1.89-4.86-3.93-4.86S390.51,48,390.51,51.42Z"/><path d="M409.41,36.42v9.72a5.86,5.86,0,0,1,5.16-2.67c3.69,0,5.46,2.37,5.46,5.61V59.34h-3.72V50.28c0-2.4-.9-3.69-2.94-3.69-2.85,0-4,2.31-4,4.83v7.92h-3.72V36.87Z"/><path d="M428.58,39.18v4.59h4l-.51,3h-3.45V54c0,1.71.78,2.37,2,2.37a6.83,6.83,0,0,0,2.37-.69l.69,2.85a9.82,9.82,0,0,1-4,1c-3.69,0-4.83-2.46-4.83-5V46.77h-2.19v-3H425l.45-4.17Z"/><path d="M445.29,43.62l.54,2.82a5.71,5.71,0,0,1,5.37-3c3,.09,6.18,2.1,6.18,7.89,0,4.74-2.37,8.16-6.66,8.16A4.88,4.88,0,0,1,446.07,57v8.37h-3.75V43.62Zm.51,7.83c0,2.7,1,4.86,4,4.86,2.43,0,3.78-1.83,3.78-4.92,0-3.66-1.83-4.8-3.81-4.8C447.6,46.59,445.8,48.3,445.8,51.45Z"/><path d="M464.37,36.42v9.72a5.86,5.86,0,0,1,5.16-2.67c3.69,0,5.46,2.37,5.46,5.61V59.34h-3.72V50.28c0-2.4-.9-3.69-2.94-3.69-2.85,0-4,2.31-4,4.83v7.92h-3.72V36.87Z"/><path d="M478.41,44.61a18.74,18.74,0,0,1,5.94-1.14c4.74,0,6.48,2.34,6.48,6v6.36a.79.79,0,0,0,.75.9,3,3,0,0,0,1.23-.18V59a6.08,6.08,0,0,1-2.49.48,2.84,2.84,0,0,1-2.85-2.13,6.87,6.87,0,0,1-4.74,2.13c-3.06,0-5.34-1.56-5.37-4.83s2.46-5,6.39-5a24.49,24.49,0,0,1,3.39.3v-.93c0-1.71-1.08-2.64-3.24-2.61a12.68,12.68,0,0,0-4.86,1Zm8.7,7.35a16.62,16.62,0,0,0-3.06-.18c-1.8.09-2.94.93-3,2.52a2.21,2.21,0,0,0,2.55,2.31,6.17,6.17,0,0,0,3.48-1.26Z"/><path d="M495.81,54.84a8.15,8.15,0,0,0,5.1,1.74c1.8,0,2.85-.54,2.85-1.83,0-3.06-9.09-1-8.79-6.78.12-2.82,2.19-4.5,6.36-4.5A12.78,12.78,0,0,1,507,44.94l-1.32,2.64a8.9,8.9,0,0,0-4.5-1.29c-1.47,0-2.7.48-2.64,1.71.18,2.49,8.91.57,8.91,6.63,0,3.24-2.91,4.92-6.63,4.89a10.76,10.76,0,0,1-6.45-2Z"/><path d="M524.28,55a7,7,0,0,1-6.78,4.5c-5.28,0-7.62-3.3-7.62-8.22s3.3-7.95,7.83-7.83c3.69.09,7,2.85,6.63,7.86l-.06.48H513.66c0,2.67,1.14,4.5,3.87,4.5a3.5,3.5,0,0,0,3.39-2.49Zm-3.81-5.13c.06-2.43-1.26-3.57-3.09-3.51a3.5,3.5,0,0,0-3.54,3.51Z"/><path d="M238,67.38l-.26,1.1a7.49,7.49,0,0,0-1.65-.2c-2.41,0-3.57.87-3.57,4.06V74.2h4.38l-.29,1.19h-4.09V89.25h-1.4V75.39h-3V74.2h3v-2c0-3.69,1.83-5.08,4.82-5.08A9.18,9.18,0,0,1,238,67.38Z"/><path d="M245.79,89.43c-4.58,0-6.58-3.48-6.58-7.75,0-5.19,3-7.77,6.7-7.77,3.39,0,6.46,2.58,6.46,7.77C252.37,86,250,89.43,245.79,89.43Zm0-1.19c3.48,0,5.19-3.17,5.19-6.56,0-4.67-2.46-6.58-5.07-6.58-2.82,0-5.28,1.8-5.28,6.58C240.63,85.05,241.93,88.24,245.79,88.24Z"/><path d="M258.84,80.38v8.87h-1.39V74.05h1.13l.26,3.08c.64-1.95,2.35-3.22,5.07-3.22a8.65,8.65,0,0,1,1.63.14l-.2,1.28a4.73,4.73,0,0,0-1.51-.2C260.38,75.13,258.84,77.65,258.84,80.38Z"/><path d="M287.32,85.45l1.1.67a7,7,0,0,1-6,3.31c-4.79,0-6.82-3.28-6.82-8,0-4.91,3-7.57,6.84-7.57,3.51,0,6.36,2.55,6,7.28l-.06.49H277c0,4,1.65,6.56,5.48,6.56A5.68,5.68,0,0,0,287.32,85.45Zm-10.24-5h10c0-3.86-2-5.39-4.65-5.39C279.69,75.1,277.34,76.75,277.08,80.49Z"/><path d="M303.18,89.25l-4.58-6.7-4.7,6.7h-1.6l5.51-7.71-5-7.49h1.62l4.21,6.44L303,74.05h1.59l-5.16,7.43,5.34,7.77Z"/><path d="M313.65,89.43c-3.08,0-5.4-1.48-5.4-4.76s2.82-4.76,6.15-4.76a19.84,19.84,0,0,1,4.76.64V79c0-2.52-1.57-3.85-4.64-3.85a11.33,11.33,0,0,0-5,1.16l-.32-1.19a13.82,13.82,0,0,1,5.31-1.16c4.52,0,6,2.32,6,5.25v8.21c0,.43.09.81.64.87a5.49,5.49,0,0,0,1.48-.18v1.08a4.75,4.75,0,0,1-1.62.29,2,2,0,0,1-1.89-2.15A9,9,0,0,1,313.65,89.43Zm0-1.22a9.43,9.43,0,0,0,5.51-2.12V81.62a26.39,26.39,0,0,0-5-.58c-2.9,0-4.52,1.16-4.52,3.66C309.65,86.9,311.1,88.21,313.65,88.21Z"/><path d="M327.83,74.05l.23,3a5.11,5.11,0,0,1,4.67-3.19c2.7-.09,4.09,1.19,4.7,3a5.46,5.46,0,0,1,5-3c3.83-.12,5.05,2.43,5.05,5.42v9.92h-1.4v-10c0-2.72-1.24-4.14-3.74-4.14-3.48,0-4.58,2.43-4.58,5v9.14h-1.39v-10c0-2.72-1.25-4.14-3.75-4.14-3.65,0-4.58,2.69-4.58,5.42v8.73h-1.39V74.05Z"/><path d="M354.33,74.05l.27,3.08a6.22,6.22,0,0,1,5.62-3.22c3.4,0,6.62,2.17,6.62,7.63,0,4.58-2.27,7.89-6.85,7.89a5.62,5.62,0,0,1-5.39-3.22v8.84h-1.43v-21Zm5.78,14.19c3.65,0,5.33-2.93,5.33-6.67,0-4.91-2.58-6.47-5.39-6.47-3.11,0-5.57,2.52-5.57,6.55C354.48,85,355.67,88.24,360.11,88.24Z"/><path d="M373.33,85.42c0,2.15.9,2.76,2.32,2.76a4.81,4.81,0,0,0,2.44-.87l.63,1.1a5.69,5.69,0,0,1-3.07,1c-2.9,0-3.71-1.74-3.71-4V67.35l1.39-.26Z"/><path d="M391.89,85.45l1.1.67a6.94,6.94,0,0,1-6,3.31c-4.79,0-6.82-3.28-6.82-8,0-4.91,3-7.57,6.85-7.57,3.51,0,6.35,2.55,6,7.28l-.06.49h-11.4c0,4,1.66,6.56,5.49,6.56A5.68,5.68,0,0,0,391.89,85.45Zm-10.24-5h10c0-3.86-2-5.39-4.64-5.39C384.26,75.1,381.91,76.75,381.65,80.49Z"/><path d="M397.66,89.4c0-.58-.75-.53-.75-.53a1.12,1.12,0,0,1,0-2.23c1.45,0,2,1.34,1.82,2.73a3.29,3.29,0,0,1-3.45,2.81v-.9A2.13,2.13,0,0,0,397.66,89.4Z"/><path d="M414.6,89.43c-3.08,0-5.4-1.48-5.4-4.76s2.81-4.76,6.15-4.76a19.84,19.84,0,0,1,4.76.64V79c0-2.52-1.57-3.85-4.64-3.85a11.27,11.27,0,0,0-5,1.16l-.32-1.19a13.76,13.76,0,0,1,5.31-1.16c4.52,0,6,2.32,6,5.25v8.21c0,.43.09.81.64.87a5.49,5.49,0,0,0,1.48-.18v1.08a4.81,4.81,0,0,1-1.63.29,2,2,0,0,1-1.88-2.15A9,9,0,0,1,414.6,89.43Zm0-1.22a9.43,9.43,0,0,0,5.51-2.12V81.62a26.5,26.5,0,0,0-5-.58c-2.9,0-4.53,1.16-4.53,3.66C410.59,86.9,412,88.21,414.6,88.21Z"/><path d="M435.59,75.39h-2.52V74.2h2.58l.2-4.24,1.13-.2V74.2h4.44l-.32,1.19H437v10c0,2.15.9,2.76,2.32,2.76a7.06,7.06,0,0,0,2.93-1.07l.64,1.1a7.77,7.77,0,0,1-3.57,1.22c-2.9,0-3.71-1.74-3.71-4Z"/><path d="M448.79,89.25h-1.43v-14h-2.49V74.05h3.92Zm-1.86-20a1.12,1.12,0,0,1,1.1-1.1,1.12,1.12,0,1,1,0,2.23A1.12,1.12,0,0,1,446.93,69.21Z"/><path d="M466.86,87.6c0,5-2.18,7.45-7,7.45a15.16,15.16,0,0,1-5.6-1l.43-1.22a15.14,15.14,0,0,0,5.28,1c4.15,0,5.51-2.69,5.51-5.85V86.21a6.32,6.32,0,0,1-5.57,3.22c-4.49.14-6.73-3.4-6.73-7.69,0-5.22,3-7.83,6.65-7.83a5.83,5.83,0,0,1,5.65,3.19l.24-3h1.16Zm-6.79.64c3.77,0,5.42-3.17,5.42-6.59,0-4.64-2.67-6.55-5.54-6.55-3,0-5.39,1.77-5.39,6.55C454.56,85.05,455.63,88.24,460.07,88.24Z"/><path d="M484.75,79.33v9.92h-1.39v-10c0-2.72-1.51-4.14-4-4.14-3.65,0-5.31,2.69-5.31,5.42v8.73h-1.39V67.35l1.39-.26V77.24a5.83,5.83,0,0,1,5.4-3.33C483.27,73.79,484.75,76.34,484.75,79.33Z"/><path d="M491.1,75.39h-2.53V74.2h2.58l.21-4.24,1.13-.2V74.2h4.44l-.32,1.19h-4.12v10c0,2.15.9,2.76,2.32,2.76a7.06,7.06,0,0,0,2.93-1.07l.64,1.1a7.82,7.82,0,0,1-3.57,1.22c-2.9,0-3.71-1.74-3.71-4Z"/><path d="M510.15,75.39h-2.53V74.2h2.59l.2-4.24,1.13-.2V74.2H516l-.32,1.19h-4.12v10c0,2.15.9,2.76,2.32,2.76a7.06,7.06,0,0,0,2.93-1.07l.64,1.1a7.82,7.82,0,0,1-3.57,1.22c-2.9,0-3.71-1.74-3.71-4Z"/><path d="M531.87,89.25l-.23-3.6A6,6,0,0,1,526,89.4c-3.83.11-5.34-2.44-5.34-5.43V74.05h1.4v10c0,2.73,1.53,4.15,4,4.15,3.65,0,5.51-3.37,5.51-6V74.05H533v15.2Z"/><path d="M550.84,86A6.35,6.35,0,0,1,545,89.43c-4.64,0-6.82-3.72-6.82-7.78,0-5,3.14-7.74,7-7.74a6,6,0,0,1,5.63,3.45l-1.25.55A4.64,4.64,0,0,0,545,75.1c-3,0-5.51,2.11-5.51,6.47,0,3.48,1.53,6.61,5.45,6.61a4.68,4.68,0,0,0,4.61-2.82Z"/><path d="M560.93,81.65l5.51,7.6h-1.77l-4.93-6.9h-2.87v6.9h-1.42V67.35l1.42-.26V81.16h2.81l4.67-7.11h1.8Z"/><path d="M578.5,74.05l.26,3.08a6.22,6.22,0,0,1,5.63-3.22c3.39,0,6.61,2.17,6.61,7.63,0,4.58-2.26,7.89-6.84,7.89a5.63,5.63,0,0,1-5.4-3.22v8.84h-1.42v-21Zm5.77,14.19c3.66,0,5.34-2.93,5.34-6.67,0-4.91-2.58-6.47-5.39-6.47-3.11,0-5.57,2.52-5.57,6.55C578.65,85,579.83,88.24,584.27,88.24Z"/><path d="M601.93,89.43c-4.58,0-6.58-3.48-6.58-7.75,0-5.19,3-7.77,6.7-7.77,3.39,0,6.47,2.58,6.47,7.77C608.52,86,606.17,89.43,601.93,89.43Zm0-1.19c3.48,0,5.2-3.17,5.2-6.56,0-4.67-2.47-6.58-5.08-6.58-2.81,0-5.28,1.8-5.28,6.58C596.77,85.05,598.08,88.24,601.93,88.24Z"/><path d="M623.45,75.3l-.58,1.16a8.51,8.51,0,0,0-4.61-1.36c-2.09,0-4.06.61-4,2.75.08,3.8,9.71,1.57,9.71,7.14,0,3-2.55,4.49-5.94,4.44a8.21,8.21,0,0,1-5.6-2l.78-1A6.65,6.65,0,0,0,618,88.24c2.75,0,4.55-1,4.55-3.22,0-4.56-9.6-2.06-9.66-7.08,0-2.55,1.89-4,5.43-4A11.23,11.23,0,0,1,623.45,75.3Z"/><path d="M630.93,89.25h-1.42v-14H627V74.05h3.91Zm-1.85-20a1.12,1.12,0,0,1,1.1-1.1,1.12,1.12,0,1,1,0,2.23A1.12,1.12,0,0,1,629.08,69.21Z"/><path d="M637.57,75.39h-2.52V74.2h2.58l.2-4.24,1.13-.2V74.2h4.44l-.32,1.19H639v10c0,2.15.9,2.76,2.33,2.76a7.12,7.12,0,0,0,2.93-1.07l.63,1.1a7.76,7.76,0,0,1-3.56,1.22c-2.91,0-3.72-1.74-3.72-4Z"/><path d="M650.77,89.25h-1.42v-14h-2.5V74.05h3.92Zm-1.86-20a1.12,1.12,0,0,1,1.1-1.1,1.12,1.12,0,1,1,0,2.23A1.12,1.12,0,0,1,648.91,69.21Z"/><path d="M662.45,89.43c-4.58,0-6.58-3.48-6.58-7.75,0-5.19,3-7.77,6.7-7.77,3.39,0,6.47,2.58,6.47,7.77C669,86,666.69,89.43,662.45,89.43Zm0-1.19c3.49,0,5.2-3.17,5.2-6.56,0-4.67-2.47-6.58-5.08-6.58-2.81,0-5.28,1.8-5.28,6.58C657.29,85.05,658.6,88.24,662.45,88.24Z"/><path d="M675.27,74.05l.23,3a5.7,5.7,0,0,1,5.4-3.19c3.83-.12,5.31,2.43,5.31,5.42v9.92h-1.4v-10c0-2.72-1.5-4.14-4-4.14-3.65,0-5.31,2.69-5.31,5.42v8.73h-1.39V74.05Z"/></svg>