<svg id="Layer_1" data-name="Layer 1" xmlns="http://www.w3.org/2000/svg" viewBox="0 0 780 1051.14"><defs><style>.cls-1{fill:#c6946f;stroke-width:0.23px;}.cls-1,.cls-2,.cls-4,.cls-5,.cls-6,.cls-7{stroke:#fff;stroke-miterlimit:10;}.cls-2,.cls-3,.cls-6,.cls-7{fill:#d4a47c;}.cls-2{stroke-width:0.28px;}.cls-4{fill:#005058;stroke-width:0.54px;}.cls-5{fill:#fff171;stroke-width:0.3px;}.cls-6{stroke-width:0.41px;}.cls-7{stroke-width:0.31px;}.cls-8,.cls-9{fill:#fff;}.cls-8{opacity:0.7;}.cls-9{font-size:38.5px;font-family:ABCSerifBold, ABCSerif;}</style></defs><path class="cls-1" d="M497.29,549.51a1.34,1.34,0,0,0,.11-.14l18.4-25.08c5.54-7.55,11.51-15.21,15.78-23.37,7.16-13.69,17.56-25.3,28.19-36.93a1.41,1.41,0,0,1,0,.2.7.7,0,0,1,.12-.34l.93-1a.63.63,0,0,1,.11-.12c2.63-2.36,9-6.37,10.1-7.29,6.26-5.12,13-10.71,17.17-18,4.62-8,6.79-17.19,11.72-25.05,3.19-5.08,2-11.59,5.29-16.74,1.41-2.22,3.08-5.9,3.14-8.53.08-3.59-2.91-7.16-5.05-2.48a13.86,13.86,0,0,1-1.74,3.51c-2.25,2.58-6.63,1.55-9.49,3.41a10.48,10.48,0,0,0-2.8,3.12c-2.66,3.91-5,8.17-7.76,12-1.5,2.09-3.53,3.17-5.25,4.95-3.16,3.27-8.2,4.25-12.46,5.69-.64.22-1.26.49-1.88.77-5.06,2.28-6.93,2.81-8,5.57a8.5,8.5,0,0,0,.55,6.83,22.67,22.67,0,0,1,1.54,3.51c.15.47.31.94.46,1.41-5.89,6.13-21.19,18.37-26.25,22.25-11,8.38-22.11,16.24-33.57,23.82l-.06.05c-.75.56-7.56,11.67-8.3,12.23,2.8-10.21,9.33-18.61,10.49-29.31,1.64-15.09,2.8-30.19,4-45.31.94-14.49,3.46-30.17-.93-44.26-4.18-13.46-12.8-25.06-23.69-31.89-6.88-4.31-14.77-6.75-22.5-5.86-10.68,1.24-33.78,12.61-40.53,22.16-15.09,21.36,2.72,36.09.74,53.66-2.93,26-2.08,23,1.23,49.25,1.71,13.55,7.25,33.8,9.12,48.89,1.44,11.58,4.41,29.9,10.57,39.9,5.55,12.77,30.54,21,42.46,14,5.5-3.21,9.36-8.45,14.46-12.21l1.46-1.07a1.54,1.54,0,0,0,.19-.17Z"/><path class="cls-2" d="M331.2,535.8c-1.06.7-1.4-9.82-2.8-10.31s-.71-2.2-.63-3.35c.07-.95-.32-1.81-.32-2.76a8.35,8.35,0,0,0,0-2.06,6.51,6.51,0,0,0-2.78-3.85c-1.64-.83-3.57-.05-5.24-.65a5.62,5.62,0,0,1-1.84-1.32,2.72,2.72,0,0,1-.95,1.46c-3.16,2.59-7.29,2.67-11,4a20.63,20.63,0,0,0,1.11,3.41,30.94,30.94,0,0,1,1.6,5.42c.34,1.66,1.1,3,.45,4.56-.51,1.19-1.66,2-2.16,3.13a21.16,21.16,0,0,1-.85,2.47,32.16,32.16,0,0,1-2.42,3.36c-1.8,2.47-3.41,5.17-5.11,7.73a25.48,25.48,0,0,0-3.91,9,20.47,20.47,0,0,0,.68,9.95,45.61,45.61,0,0,0,2.75,7.27,77.12,77.12,0,0,0,6,9.59c2.52,3.43,6.57,6.37,10.22,8.45,2.71,1.55,5.07,3.44,8,4.7a26.22,26.22,0,0,0,9.32,1.76c2.73.13,5,1.07,7.55,1.87,1.27.4,2.63.22,4,.59a30.45,30.45,0,0,0,4.79,1.09c3.17.31,5.33-1.31,7.78-3,1.64-1.1,2.77-2.66,4.44-3.75a14.8,14.8,0,0,0,2.19-1.85c.77-.75,1.67-1.22,2.44-2,.37-.37.53-.82.9-1.21s.84-.39,1.14-.86a21,21,0,0,0,1.07-3.13,28.85,28.85,0,0,1,1.52-3.56,2.05,2.05,0,0,0,.2-.37c.06,0,.21,0,.55-.13a13.28,13.28,0,0,1,2.86-.7c2.48-.51,2.77-.11,5.54-1a28.86,28.86,0,0,0,5-2,3.56,3.56,0,0,0,1.13-5.41,1.94,1.94,0,0,1-.45-1.24,5,5,0,0,1,.82-3.55c.73-.85,1.58-1.24,2.23-2.25a19.51,19.51,0,0,0,2.37-5.32c.41-1.54.05-2.49,1.33-3.43.91-.68,1.88-1.32,2.83-1.95,1.78-1.2,3.06-2.82,2.39-5.06a15.78,15.78,0,0,0-6.83-8.11c-26.38-13-12.62-16.1-20-23.34-5-4.95-13.55-12.11-14.3-19.17"/><path d="M356.65,582.17c-.16-.34-.3-.69-.43-1s-.24-.63-.12-.85,0-.09.14,0,.13.2.18.26a2.83,2.83,0,0,0,.25.24c.34.31.72.57,1.07.87a7.49,7.49,0,0,1,.61.51c1.16,1.17,2,2.77,3.27,3.79a7.52,7.52,0,0,0,4.44,1.26c-.15.51-.62,2.2-1.21,2.25-.85.06-2.58-1.37-3.41-1.65a6.78,6.78,0,0,1-3.65-3C357.34,583.93,357.08,583,356.65,582.17Z"/><path d="M301.9,521.49c.54,2.55,1.57,5.2,1.79,7.79.71,8.23-6.81,14.66-9.69,22.4-2.38,6.37-1.48,13.62,1.22,19.86s7.09,11.6,11.74,16.56c4.31,4.59,9,9,14.64,11.79,3.79,1.89,15.65,5.72,18.83,1.08s-1.9-13.66.79-19.22c1.36-2.81,4-5,4.85-8a27,27,0,0,0,.49-4.68c.25-2.84,1.24-5.59,1.3-8.44s-1.13-6-3.8-7a11.66,11.66,0,0,1-4.71,3.78c-1.92.68-2.28-.59-3.31-2.35-1.43-2.41-1.56-4.65.72-6.27s5.12-2.83,6.36-5.34c1.34-2.71.34-5.94-.67-8.79-1.74-4.91-7.92-11.9-9.66-16.8-3.12.1-2.2-.45-5.32-.52-2.36-.06-2,4.43-3.37,2.48a19.27,19.27,0,0,0-10.59-7.65c-4-1.14-9.16-.46-11.13,3.23A8.77,8.77,0,0,0,301.9,521.49Z"/><path d="M341.33,600.73l-.94-.26a1.29,1.29,0,0,1-.06.21A2.8,2.8,0,0,0,341.33,600.73Z"/><path d="M312.36,529.77a7.47,7.47,0,0,0-3.54.24,12.36,12.36,0,0,1-4.16,0,6.41,6.41,0,0,1-4.22-2.07,7,7,0,0,1-1.54-3.9,6.73,6.73,0,0,1,.52-3.76c.76-1.12,2.81-2,3.9-2.76a7,7,0,0,1,4.69-.86,6.28,6.28,0,0,1,4.49,1.92A20.63,20.63,0,0,1,316.35,529c.22,1.82-1.21,3.88-2.43,5.16s-3.61,3-5.41,3.29c-3.45.53-5.93-3-7-5.8-.64-1.66-1.13-3.39-.14-5a10.25,10.25,0,0,1,3.39-3.12,19,19,0,0,1,4.52-2.67,6.94,6.94,0,0,1,2.66-.71,23,23,0,0,0,3.1,0,8.64,8.64,0,0,1,3.45.41,3.39,3.39,0,0,1,2.06,1.66A10.86,10.86,0,0,1,322,525c.22.64.18,1.33.35,2,.28,1.12.24,1.16-.79,2"/><path d="M307.12,530.08c-.77,1.29-2.09,1.57-3.46,1.77a6.43,6.43,0,0,0-1.41.29,1.93,1.93,0,0,1-2-.29c-1.62-1-2.39-3.18-3.08-4.85a6.26,6.26,0,0,1-.67-2.19c0-.71.19-1.41.15-2.11a4.25,4.25,0,0,1-.15-1.18c.08-.44.34-.81.4-1.27a2.73,2.73,0,0,1,.24-1.19,9.77,9.77,0,0,1,.76-1.06,5.1,5.1,0,0,1,1.64-1.69,13.26,13.26,0,0,1,2.28-.92,6.78,6.78,0,0,1,1.1-.16c.46-.05.86-.27,1.32-.33a6.45,6.45,0,0,1,3.51,1c2.11,1,3.53,3.33,4.73,5.25a12,12,0,0,1,1.74,5c.08,1,0,2,0,2.94a10.34,10.34,0,0,1-.19,2.72,9.06,9.06,0,0,1-1.27,2.73,19.63,19.63,0,0,1-1.91,2.61,6.4,6.4,0,0,1-2.73,1.54,8.59,8.59,0,0,0-1.65.32,5.78,5.78,0,0,1-1.62.62,6.94,6.94,0,0,1-5.76-1.39A22.37,22.37,0,0,1,295.9,535c-.57-.78-1.09-1.6-1.65-2.39a6.17,6.17,0,0,1-1.07-2.88,4.46,4.46,0,0,1,0-1.82,5.53,5.53,0,0,1,.43-1.69c.93-1.42,2.51-1.9,3.6-3.06a6.84,6.84,0,0,1,.61-.72c.39-.31.84-.57,1.25-.85a11.24,11.24,0,0,1,2.08-1.29,7.37,7.37,0,0,1,2.7-.6,3.78,3.78,0,0,1,2.87,1.21,10.26,10.26,0,0,1,2.61,2.84,13.55,13.55,0,0,1,1.51,4.91,10.46,10.46,0,0,1-.35,5.21,11.15,11.15,0,0,1-1.09,2.5,11.43,11.43,0,0,1-1.78,1.69c-1.33,1.15-3.27,1.2-4.9,1.4a4,4,0,0,1-1.4.14c-.24-.11-.43-.57-.58-.78"/><path d="M325.71,524.81c-.78,1.29-2.1,1.57-3.47,1.77a6.43,6.43,0,0,0-1.41.29,1.94,1.94,0,0,1-2-.29c-1.61-1-2.38-3.18-3.08-4.85a6.26,6.26,0,0,1-.67-2.19c0-.71.19-1.41.15-2.11a4.66,4.66,0,0,1-.15-1.18c.08-.44.35-.81.41-1.27a2.47,2.47,0,0,1,.24-1.19,8.49,8.49,0,0,1,.75-1.06,5.1,5.1,0,0,1,1.64-1.69,13.59,13.59,0,0,1,2.28-.92,6.78,6.78,0,0,1,1.1-.16c.46,0,.87-.27,1.32-.33a6.48,6.48,0,0,1,3.52,1c2.1,1,3.52,3.33,4.73,5.25a12,12,0,0,1,1.73,5,28.83,28.83,0,0,1,0,2.94,10.31,10.31,0,0,1-.19,2.72,9.06,9.06,0,0,1-1.27,2.73,20.49,20.49,0,0,1-1.9,2.61,6.49,6.49,0,0,1-2.74,1.54,8.49,8.49,0,0,0-1.64.32,6,6,0,0,1-1.63.62,6.91,6.91,0,0,1-5.75-1.39,21.93,21.93,0,0,1-3.22-3.17c-.57-.78-1.09-1.6-1.65-2.39a6.26,6.26,0,0,1-1.06-2.88,4.3,4.3,0,0,1,0-1.82,5.25,5.25,0,0,1,.42-1.69c.93-1.42,2.51-1.9,3.61-3.06a5.07,5.07,0,0,1,.61-.72c.39-.31.83-.57,1.25-.85a10.92,10.92,0,0,1,2.08-1.29,7.27,7.27,0,0,1,2.69-.6,3.76,3.76,0,0,1,2.87,1.21,10.26,10.26,0,0,1,2.61,2.84,13.55,13.55,0,0,1,1.51,4.91,10.35,10.35,0,0,1-.35,5.21,11.11,11.11,0,0,1-1.08,2.5,11.48,11.48,0,0,1-1.79,1.69c-1.32,1.15-3.26,1.2-4.9,1.4a4,4,0,0,1-1.4.14c-.24-.11-.43-.57-.58-.78"/><path class="cls-2" d="M347,555c-.42,5.51-9.24,5.07-11.71,1.71a6.86,6.86,0,0,1,1.34-9.17c2.83-2.13,6.94-1.74,9.9-3.69,1.56-1,2.82-2.72,4.66-3s3.67,2.55,2,3.34"/><path class="cls-3" d="M346.41,538.09c3.63-.6,14.25-12.12,17.36-14,2.72-1.64,4.76-4.33,7-6.59,1.63-1.66,2.52-3.76,4.06-5.48.9-1,1.46-2.15,2.41-3.12a10.32,10.32,0,0,0,1.73-2.58c.9-1.74,1.88-3.42,2.79-5.15.56-1.06.93-2.22,1.56-3.23,1.83-2.94,2.82-6.22,4.27-9.37,1.3-2.8,2.54-5.65,4-8.31,1.16-2.06,1.51-4.25,2.2-6.46.53-1.74.91-2.45.77-4.27a16.93,16.93,0,0,1,.53-3.21,26.47,26.47,0,0,0-.05-3.67c-.07-3.12,0-6.25,0-9.38,0-4.64,1-9.27,1.39-13.88.35-4.05.62-8.13,1.21-12.15.83-5.7.93-11.4,1.54-17.13.95-9,.21-17.9-.82-26.84a57.62,57.62,0,0,0-1-7.64c-.59-2.35,11.53-13.88,10.46-16-4.32-8.84-21.34,8.5-24.67,11.71q-2.06,2-4.19,3.88c-11.22,10-23.85,18.46-33.72,29.81a129.38,129.38,0,0,0-21,34.35,105.89,105.89,0,0,0-5.71,18.34c-1.12,5.18-3.49,12.88-2.58,18.17.71,4.09,1.56,8.16,2.31,12.2a68,68,0,0,0,2.95,12c1.18,3.05,2,6.12,3.87,8.86a81.9,81.9,0,0,1,4.63,6.78c.89,1.68-2.49-3.36-1.14-1.89"/><path class="cls-4" d="M424.47,454.88a33.93,33.93,0,0,1,11.86-13.18,23.9,23.9,0,0,1,4-2c.94-.36,1-.25,1.16-1.2a9.48,9.48,0,0,0-.1-2.12c-.08-.81-18.61,5.13-18.86,4.37-5.74-17.43-3.81-35.94.66-53.41,2.2-8.61,4.39-18.54,8.33-26.53,3.77-7.63,10.88-10.92,18-15.43a50,50,0,0,1,16.19-6.93c.37-.07.74-.11,1.11-.17-2.28-.76-4.52-1.64-6.84-2.33a34.58,34.58,0,0,0-8.41-1.15c-5.69-.22-8,1.1-13.65,1.92a66.62,66.62,0,0,0-19.21,6.47,84,84,0,0,0-16.94,11.69c-1,.89-6.89,5.57-7.61,6.71-.89,1.41-1.32,4.76-1.73,6.37-6,23.41-21.34,43.5-31.31,65.65a5.29,5.29,0,0,0-.68,3.14,5.06,5.06,0,0,0,1.65,2.4,161.77,161.77,0,0,1,28.33,37.12,7.65,7.65,0,0,1,1.26,3.67,3,3,0,0,1-2.19,3q4.8-1.37,9.64-2.47"/><path d="M325.49,512.37c-1.46-1-2.43-2.49-3.91-3.48a16.64,16.64,0,0,0-4.86-1.77,5.85,5.85,0,0,0-4.84.74c-1.61.93-3.2,1.91-3.74,3.72-1.17,3.88-.92,7.37,1.63,10.76.85,1.13,7.49,8.59,8.61,5.06"/><path class="cls-5" d="M361.49,438.08c-.08-.12-.17-.24-.24-.37a4.31,4.31,0,0,1-.32-.8,1.73,1.73,0,0,1-.07-.31,5,5,0,0,1-.06-.77,1.57,1.57,0,0,1,0-.53,1.7,1.7,0,0,1,.21-.66c.08-.19.17-.38.26-.56a2.33,2.33,0,0,1,.17-.26c-7.61,1-16.06,4.67-25,10.9a124.78,124.78,0,0,0-17.35,14.86s-2,1.9-1.59,1.51c-.66,3.4-1,4.3-1.39,7.3.72-.72,2.79-2.61,3.46-3.25.94-.92,1.81-1.77,2.54-2.51a120,120,0,0,1,16.71-14.32c6.21-4.33,14.46-8.91,22.7-10.14Z"/><path class="cls-6" d="M347.49,514.09A19.28,19.28,0,0,0,359,524.29a19.87,19.87,0,0,0,9.37.47,46.1,46.1,0,0,0,22.26-10.45c5.74-5.14,10.48-9.92,13-17.25a58.09,58.09,0,0,1,7-14.31,62.7,62.7,0,0,1,10.5-11.63,63.85,63.85,0,0,0,9.42-10.18c20,21,42.29,31.2,61.17,49.18.79,4.54.93,9.18,1.44,13.75.33,2.92.45,5.87,1.07,8.75s2,4.71,3.57,7.21c1.32,2.13,3.32,2.58,4.08,5a3.24,3.24,0,0,0,.34.73c.15.25.25.56.4.81a3.81,3.81,0,0,0,1.18,1.27,1.61,1.61,0,0,0,.44.25c.22,0,.51,0,.74,0a6.35,6.35,0,0,1,1.5.14,7,7,0,0,1,1.26.74,23.71,23.71,0,0,1,2.25,1.55,10.58,10.58,0,0,0,2.2,1.71c.55.22.84-.32,1.14-.79a2.72,2.72,0,0,0,.3-.84c.09-.34.16-.68.23-1-.09-.5-.18-1-.25-1.49a1.76,1.76,0,0,1,0-.23,10.21,10.21,0,0,0-1.1-1.76c-.47-.64-1-1.26-1.45-1.86l-4.91-5c.24.23,5.28,5.33,5.51,5.58a10.45,10.45,0,0,1,1.26,1.6c.26.42.46.9.71,1.34a.69.69,0,0,1,.5-.53,3.88,3.88,0,0,0,2.67-2.45c.46-1.13.79-2.3,1.35-3.4a.7.7,0,0,1,.79-.3,2.71,2.71,0,0,0,3.29-1,7.52,7.52,0,0,0,.94-3.57.57.57,0,0,1,.08-.28l-2.54-4.74c0,.09-3.13-5.32-1.2-2.4l3.85,7a.61.61,0,0,1,.71-.23,1.77,1.77,0,0,0,2-.48c1.05-1.3.41-1.61.66-2.39a2.64,2.64,0,0,1,1.64-2c.68-.23,1.16-.46,1.38-1.23a8,8,0,0,0,.19-1.38c-.42-.76-.89-1.45-1.26-2.23-.81-1.7-2.08-3.06-3-4.66-1-1.76-2-3.59-3-5.35-.4-.68-.8-1.35-1.25-2-2.61-3.86-6.6-6.68-10.11-9.64-.39-.34-.81-.5-1.19-.88a18.53,18.53,0,0,0-2.17-1.62c-6.09-10.36-12.23-20.7-19.41-30a128.9,128.9,0,0,0-38.27-33.89c-.62-.36-1.25-.68-1.88-1-3.49-1.71-7.08-2.86-10.7-4.36-2.44-1-5.17-1.39-6.94-2.87a11.8,11.8,0,0,0-6-2.73c-6.34-.85-12.06,3.57-16.82,7.83-9.63,8.61-33.63,22.31-41.66,32.42"/><path class="cls-7" d="M505.72,543.42a3.11,3.11,0,0,0-1.13.75c-.2.25-.4.52-.59.79a7.87,7.87,0,0,1-.53.62c-.29.34-.68.46-.64,1"/><path class="cls-7" d="M506.5,545.2a7.28,7.28,0,0,1-.59,1.66l-.22.52c-.1.22-.32.41-.38.63"/><path class="cls-7" d="M508.72,549.14c-1.06-.89.42-1,1-1,1.23.06,3.8.15,3.79,2.32"/><path class="cls-7" d="M527,532.5a34,34,0,0,0-3-4.72,9.31,9.31,0,0,0-.54-.8c-.25-.28-1.71-2.43-1.92-2.73-.32-.45,5.63,7.82,5.4,7.33"/><path class="cls-7" d="M518.09,541.82c-.31-.63-1.18-1.92-1.54-2.51-.21-.34-3.7-6.48-3.9-6.82s5.61,9.06,5.44,8.69"/><path class="cls-5" d="M316.92,481.54l.69,4.25c.21,1.28.55,2.51.81,3.77a97.77,97.77,0,0,0,30.88,30.37,24.26,24.26,0,0,0,8.3,3.56,21.11,21.11,0,0,1-7.48-5.32,16,16,0,0,1-2.86-4.61c-2.32-1.59-4.59-3.24-6.75-5a96.3,96.3,0,0,1-21.33-25.49c-1-1.71-2-3.66-2.95-5.43C316.33,478.44,316.75,480.47,316.92,481.54Z"/><path d="M66,207.09v7.25H68.1l4.25-7.25h3.5l-5,8.61,5.45,8.65h-3.6L68.08,217H66v7.37H63V207.09Z"/><path d="M80.49,211.43l.47,2.29a4.74,4.74,0,0,1,4.41-2.41c3,0,4.49,1.94,4.49,4.61v8.43H86.8V216.9c0-2-.74-3-2.42-3-2.34,0-3.25,1.9-3.25,4v6.51H78.07V211.43Z"/><path d="M104.31,220.8a5.76,5.76,0,0,1-5.57,3.7c-4.34,0-6.27-2.71-6.27-6.76s2.72-6.53,6.44-6.43c3,.07,5.74,2.34,5.45,6.46l0,.39H95.58c0,2.2.94,3.7,3.18,3.7a2.89,2.89,0,0,0,2.79-2.05Zm-3.13-4.22c0-2-1-2.93-2.54-2.88a2.87,2.87,0,0,0-2.91,2.88Z"/><path d="M118.39,220.8a5.76,5.76,0,0,1-5.57,3.7c-4.34,0-6.26-2.71-6.26-6.76s2.71-6.53,6.43-6.43c3,.07,5.75,2.34,5.45,6.46l0,.39h-8.73c0,2.2.94,3.7,3.18,3.7a2.87,2.87,0,0,0,2.79-2.05Zm-3.13-4.22c0-2-1-2.93-2.54-2.88a2.87,2.87,0,0,0-2.91,2.88Z"/><path d="M121.48,220.65a6.68,6.68,0,0,0,4.19,1.43c1.48,0,2.34-.44,2.34-1.5,0-2.52-7.47-.84-7.22-5.57.1-2.32,1.8-3.7,5.23-3.7a10.49,10.49,0,0,1,4.66,1.21l-1.09,2.17a7.25,7.25,0,0,0-3.7-1.06c-1.21,0-2.22.39-2.17,1.4.15,2.05,7.33.47,7.33,5.45,0,2.66-2.4,4-5.45,4a8.83,8.83,0,0,1-5.31-1.68Z"/><path d="M141.14,211.43l.44,2.29a4.34,4.34,0,0,1,4-2.44,3.76,3.76,0,0,1,3.85,2.39,4.57,4.57,0,0,1,4.17-2.39c3,0,4.21,2,4.21,4.64v8.43h-3.05V216.9c0-2-.47-3-2.15-3-2.22,0-2.81,1.68-2.81,3.58v6.9h-3.06V216.9c0-2-.47-3-2.14-3-2.37,0-2.84,1.9-2.84,4v6.51h-3.06V211.43Z"/><path d="M163.8,211.43v7.45c0,2,.79,3,2.59,3,2.34,0,3.3-2.42,3.3-4.86v-5.62h3.06v12.92h-2.44l-.44-2.81a4.72,4.72,0,0,1-4.47,3c-3.15,0-4.66-1.95-4.66-5.2v-7.87Z"/><path d="M176.26,220.65a6.68,6.68,0,0,0,4.19,1.43c1.48,0,2.34-.44,2.34-1.5,0-2.52-7.47-.84-7.22-5.57.1-2.32,1.8-3.7,5.22-3.7a10.49,10.49,0,0,1,4.66,1.21l-1.08,2.17a7.25,7.25,0,0,0-3.7-1.06c-1.21,0-2.22.39-2.17,1.4.15,2.05,7.32.47,7.32,5.45,0,2.66-2.39,4-5.44,4a8.83,8.83,0,0,1-5.31-1.68Z"/><path d="M192.29,207.78v3.77h3.25l-.42,2.47h-2.83v5.92c0,1.4.64,1.95,1.67,1.95a5.64,5.64,0,0,0,1.95-.57l.57,2.34a8.1,8.1,0,0,1-3.28.84c-3,0-4-2-4-4.14V214h-1.8v-2.47h1.95l.37-3.42Z"/><path d="M65.84,239.43v8.21a4.4,4.4,0,0,1,4.31-2.42c2.44.07,5.06,1.73,5.06,6.49,0,3.89-1.95,6.7-5.45,6.7a4.27,4.27,0,0,1-4.07-2.36l-.42,2.21H62.78V239.82Zm-.13,12.35c0,2.22.82,4,3.26,4,2,0,3.1-1.5,3.1-4,0-3-1.5-3.94-3.13-3.94S65.71,249.19,65.71,251.78Z"/><path d="M89.24,254.71a5.76,5.76,0,0,1-5.57,3.7c-4.34,0-6.27-2.71-6.27-6.75s2.72-6.54,6.44-6.44c3,.07,5.74,2.34,5.45,6.46l-.05.39H80.51c0,2.2.94,3.7,3.18,3.7a2.88,2.88,0,0,0,2.79-2Zm-3.13-4.21c0-2-1-2.94-2.54-2.89a2.88,2.88,0,0,0-2.91,2.89Z"/><path d="M99.58,245.34l.44,2.32a4.71,4.71,0,0,1,4.41-2.44c2.45.07,5.08,1.73,5.08,6.49,0,3.89-1.94,6.7-5.47,6.7a4,4,0,0,1-3.82-2.09v6.88H97.13V245.34Zm.42,6.44c0,2.22.81,4,3.27,4,2,0,3.11-1.5,3.11-4,0-3-1.5-3.94-3.13-3.94C101.47,247.79,100,249.19,100,251.78Z"/><path d="M115.09,245.34v7.45c0,2,.79,3,2.59,3,2.34,0,3.3-2.41,3.3-4.85v-5.63H124v12.92H121.6l-.44-2.81a4.72,4.72,0,0,1-4.47,3c-3.15,0-4.66-1.94-4.66-5.2v-7.87Z"/><path d="M130.26,239.43v14.62c0,1.38.61,1.75,1.53,1.75a2.42,2.42,0,0,0,1.28-.47l.57,2.2a5.37,5.37,0,0,1-2.79.88c-2.56,0-3.65-1.72-3.65-4.07V239.8Z"/><path d="M137.24,239.43v14.62c0,1.38.61,1.75,1.53,1.75a2.42,2.42,0,0,0,1.28-.47l.57,2.2a5.37,5.37,0,0,1-2.79.88c-2.56,0-3.65-1.72-3.65-4.07V239.8Z"/><path d="M153.1,254.71a5.78,5.78,0,0,1-5.58,3.7c-4.34,0-6.26-2.71-6.26-6.75s2.71-6.54,6.44-6.44c3,.07,5.74,2.34,5.44,6.46l0,.39h-8.73c0,2.2.93,3.7,3.18,3.7a2.86,2.86,0,0,0,2.78-2ZM150,250.5c0-2-1-2.94-2.54-2.89a2.89,2.89,0,0,0-2.91,2.89Z"/><path d="M167.92,239.43v18.83h-2.57l-.34-2.21a4.53,4.53,0,0,1-4.12,2.36c-3.48,0-5.55-2.83-5.55-6.63,0-4.64,3-6.56,5.53-6.56a4.1,4.1,0,0,1,4,2.44v-7.84Zm-9.42,12.32c0,2.2.86,3.93,3.16,3.93s3.25-1.73,3.25-3.9c0-2.93-1.58-4-3.28-4S158.5,248.92,158.5,251.75Z"/><path d="M180.23,245.34v12.92h-3.08V247.88h-1.8v-2.54Zm-1.56-5a1.65,1.65,0,0,1,1.83,1.56,1.83,1.83,0,0,1-3.63,0A1.59,1.59,0,0,1,178.67,240.31Z"/><path d="M185.8,245.34l.47,2.3a4.76,4.76,0,0,1,4.41-2.42c3,0,4.49,1.95,4.49,4.61v8.43h-3.06v-7.44c0-2-.73-3-2.41-3-2.34,0-3.26,1.89-3.26,4v6.51h-3.05V245.34Z"/><path d="M202.25,241.69v3.78h3.26l-.42,2.46h-2.84v5.92c0,1.41.64,2,1.68,2a5.5,5.5,0,0,0,1.95-.57l.56,2.34a7.93,7.93,0,0,1-3.27.84c-3,0-4-2-4-4.14v-6.34h-1.8v-2.46h2l.37-3.43Z"/><path d="M213.6,245.22c3.23,0,6,2.19,6,6.61,0,3.62-2.15,6.58-6.17,6.58-4.36,0-6.16-3-6.16-6.58C207.31,247.41,210.1,245.22,213.6,245.22Zm-3.08,6.61c0,2,.69,4,3,4,2.1,0,3-1.94,3-4,0-2.86-1.41-4-3-4S210.52,248.92,210.52,251.83Z"/><path d="M66.75,275.61v3.77H70l-.42,2.47H66.75v5.91c0,1.41.64,1.95,1.67,1.95a5.69,5.69,0,0,0,2-.56l.57,2.34a8.1,8.1,0,0,1-3.28.84c-3,0-4-2-4-4.15v-6.33h-1.8v-2.47h2l.37-3.43Z"/><path d="M76,273.34v8a4.81,4.81,0,0,1,4.24-2.2c3,0,4.49,1.95,4.49,4.61v8.44H81.62v-7.45c0-2-.74-3-2.42-3-2.34,0-3.25,1.9-3.25,4v6.51H72.89V273.71Z"/><path d="M99.08,288.63a5.76,5.76,0,0,1-5.57,3.7c-4.34,0-6.27-2.72-6.27-6.76S90,279,93.68,279.13c3,.08,5.75,2.35,5.45,6.46l0,.4H90.35c0,2.19.94,3.7,3.18,3.7a2.88,2.88,0,0,0,2.79-2.05ZM96,284.41c0-2-1-2.93-2.54-2.88a2.87,2.87,0,0,0-2.91,2.88Z"/><path d="M118.22,288.55c-.84,2.64-3,3.78-5.62,3.78-4.24,0-6.07-3.16-6.07-6.61,0-4.22,2.62-6.51,6.14-6.59,3.11-.07,5,1.53,5.5,3.8l-2.84.91a2.54,2.54,0,0,0-2.61-2.12c-1.77,0-3.13,1.31-3.13,3.95,0,2.09.79,4,3.08,4a2.59,2.59,0,0,0,2.71-2Z"/><path d="M123.75,273.34v8a4.81,4.81,0,0,1,4.24-2.2c3,0,4.49,1.95,4.49,4.61v8.44h-3.06v-7.45c0-2-.74-3-2.42-3-2.34,0-3.25,1.9-3.25,4v6.51h-3.06V273.71Z"/><path d="M146.88,288.63a5.76,5.76,0,0,1-5.57,3.7c-4.34,0-6.27-2.72-6.27-6.76s2.72-6.53,6.44-6.44c3,.08,5.74,2.35,5.45,6.46l-.05.4h-8.73c0,2.19.94,3.7,3.18,3.7a2.89,2.89,0,0,0,2.79-2.05Zm-3.13-4.22c.05-2-1-2.93-2.54-2.88a2.87,2.87,0,0,0-2.91,2.88Z"/><path d="M150,288.48a6.73,6.73,0,0,0,4.2,1.43c1.48,0,2.34-.44,2.34-1.51,0-2.51-7.47-.83-7.23-5.57.1-2.32,1.8-3.7,5.23-3.7a10.49,10.49,0,0,1,4.66,1.21l-1.08,2.17a7.36,7.36,0,0,0-3.7-1.06c-1.21,0-2.22.4-2.17,1.41.15,2,7.32.47,7.32,5.45,0,2.66-2.39,4-5.45,4a8.86,8.86,0,0,1-5.3-1.68Z"/><path d="M166,275.61v3.77h3.25l-.42,2.47H166v5.91c0,1.41.64,1.95,1.67,1.95a5.76,5.76,0,0,0,2-.56l.57,2.34a8.1,8.1,0,0,1-3.28.84c-3,0-4-2-4-4.15v-6.33h-1.8v-2.47h2l.37-3.43Z"/><path d="M90.78,323.31A68.38,68.38,0,0,0,105.37,354a80.71,80.71,0,0,0,24.29,19.46A89.76,89.76,0,0,0,145,379.84c1.85.58,2.64-2.31.8-2.89-19-6-36.51-18.64-45.91-36.51a64.71,64.71,0,0,1-6.23-17.93c-.37-1.89-3.26-1.09-2.89.8Z"/><path d="M135.73,367.88c3.18,3.6,6,7.49,8.9,11.32l.53-2.05c-2.34,1-4.63,2.08-6.95,3.11-2.07.91-4.18,1.74-6.25,2.66a1.51,1.51,0,0,0-.54,2.05,1.54,1.54,0,0,0,2.05.54c2.07-.92,4.18-1.75,6.25-2.66,2.33-1,4.62-2.12,7-3.11a1.5,1.5,0,0,0,.54-2.05c-3.06-4-6-8.14-9.37-11.93-1.28-1.45-3.39.67-2.12,2.12Z"/><path class="cls-8" d="M148.79,61.4a36.73,36.73,0,0,1,8.33-23.32,34.4,34.4,0,0,0-45.48-4.38A34.43,34.43,0,0,0,131.9,96a34.33,34.33,0,0,0,25.32-11.11A36.76,36.76,0,0,1,148.79,61.4ZM138,75.49s-3.7-.27-11.47-.27a25.63,25.63,0,0,0-4.93.31l-1.35-2.46c7.78-7.9,12.4-13.63,13-18.71.47-3.66-2-4.82-4.35-4.66a9.73,9.73,0,0,0-6.73,3.92c-.2-.23-1.93-2.07-1.47-2.65A12.43,12.43,0,0,1,130,46.12c5.89,0,9.09,3,8.74,8.51-.46,7-8,13.59-12.63,17.55l8.32-.08c1.77-.15,3-2.54,3.81-4.73,0,0,1.73.5,2,1C139.58,71.53,138.81,75.49,138,75.49Z"/><path class="cls-8" d="M95.79,61.4A36.74,36.74,0,0,1,104.16,38a34.44,34.44,0,1,0,.11,46.9A36.78,36.78,0,0,1,95.79,61.4ZM87.2,75.66H70.92L71,73.39l4.46-.58c.58,0,.81-.23.81-1,.08-10.05,0-19.6,0-19.6l-5.62,1.08c-.19-.31-1.12-2.46-.46-2.73l10.35-4,1,1s-.12,20.87,0,24.37c0,.77.19,1,.73,1l5.08.54Z"/><circle cx="184" cy="61.53" r="34.44"/><text class="cls-9" transform="translate(172.45 75.26)">3</text><path d="M243.45,38.34l-.27,3.12h-5.55V59.34h-3.75V41.46h-5.76V38.34Z"/><path d="M249.6,36.42v9.72a5.86,5.86,0,0,1,5.16-2.67c3.69,0,5.46,2.37,5.46,5.61V59.34H256.5V50.28c0-2.4-.9-3.69-2.94-3.69-2.85,0-4,2.31-4,4.83v7.92h-3.72V36.87Z"/><path d="M277.74,55a7,7,0,0,1-6.78,4.5c-5.28,0-7.62-3.3-7.62-8.22s3.3-7.95,7.83-7.83c3.69.09,7,2.85,6.63,7.86l-.06.48H267.12c0,2.67,1.14,4.5,3.87,4.5a3.5,3.5,0,0,0,3.39-2.49Zm-3.81-5.13c.06-2.43-1.26-3.57-3.09-3.51a3.5,3.5,0,0,0-3.54,3.51Z"/><path d="M284,43.62l.57,2.79A5.8,5.8,0,0,1,290,43.47c3.69,0,5.46,2.37,5.46,5.61V59.34h-3.72V50.28c0-2.4-.9-3.69-2.94-3.69-2.85,0-4,2.31-4,4.83v7.92h-3.72V43.62Z"/><path d="M310.29,39.18v4.59h4l-.51,3h-3.45V54c0,1.71.78,2.37,2,2.37a6.83,6.83,0,0,0,2.37-.69l.69,2.85a9.82,9.82,0,0,1-4,1c-3.69,0-4.83-2.46-4.83-5V46.77h-2.19v-3h2.37l.45-4.17Z"/><path d="M321.48,36.42v9.72a5.86,5.86,0,0,1,5.16-2.67c3.69,0,5.46,2.37,5.46,5.61V59.34h-3.72V50.28c0-2.4-.9-3.69-2.94-3.69-2.85,0-4,2.31-4,4.83v7.92h-3.72V36.87Z"/><path d="M349.62,55a7,7,0,0,1-6.78,4.5c-5.28,0-7.62-3.3-7.62-8.22s3.3-7.95,7.83-7.83c3.69.09,7,2.85,6.63,7.86l-.06.48H339c0,2.67,1.14,4.5,3.87,4.5a3.5,3.5,0,0,0,3.39-2.49Zm-3.81-5.13c.06-2.43-1.26-3.57-3.09-3.51a3.5,3.5,0,0,0-3.54,3.51Z"/><path d="M360.15,43.77V41.64c0-3.12,1.62-5.22,5.16-5.22a6.41,6.41,0,0,1,3.6,1.08v-.72l3.72-.36V54.21c0,1.68.72,2.13,1.83,2.13a2.81,2.81,0,0,0,1.56-.57l.72,2.67a6.6,6.6,0,0,1-3.42,1.08c-3.09,0-4.41-2.1-4.41-5V40.08a6,6,0,0,0-2.7-.69c-1.47,0-2.31.6-2.31,2.85v1.53h3.18l-.48,3h-2.7V59.34h-3.75V46.77h-2.46v-3Z"/><path d="M383.37,43.62V59.34h-3.75V46.71h-2.19V43.62Zm-1.89-6.12a2,2,0,0,1,2.22,1.89,2.22,2.22,0,0,1-4.41,0A1.93,1.93,0,0,1,381.48,37.5Z"/><path d="M401.85,43.62V57c0,5.22-2,8.37-7.8,8.37A16.38,16.38,0,0,1,387.63,64l.87-2.82a13.33,13.33,0,0,0,5.13,1.17c3.39,0,4.5-1.68,4.5-4.26V56.7a5.42,5.42,0,0,1-4.83,2.49c-4.23.09-6.66-3.12-6.66-7.74,0-5.64,3.6-8,6.72-8a5.2,5.2,0,0,1,5,2.85l.39-2.7Zm-11.34,7.8c0,2.67,1.05,4.77,3.84,4.77s3.9-2.1,3.9-4.74c0-3.57-1.89-4.86-3.93-4.86S390.51,48,390.51,51.42Z"/><path d="M409.41,36.42v9.72a5.86,5.86,0,0,1,5.16-2.67c3.69,0,5.46,2.37,5.46,5.61V59.34h-3.72V50.28c0-2.4-.9-3.69-2.94-3.69-2.85,0-4,2.31-4,4.83v7.92h-3.72V36.87Z"/><path d="M428.58,39.18v4.59h4l-.51,3h-3.45V54c0,1.71.78,2.37,2,2.37a6.83,6.83,0,0,0,2.37-.69l.69,2.85a9.82,9.82,0,0,1-4,1c-3.69,0-4.83-2.46-4.83-5V46.77h-2.19v-3H425l.45-4.17Z"/><path d="M445.29,43.62l.54,2.82a5.71,5.71,0,0,1,5.37-3c3,.09,6.18,2.1,6.18,7.89,0,4.74-2.37,8.16-6.66,8.16A4.88,4.88,0,0,1,446.07,57v8.37h-3.75V43.62Zm.51,7.83c0,2.7,1,4.86,4,4.86,2.43,0,3.78-1.83,3.78-4.92,0-3.66-1.83-4.8-3.81-4.8C447.6,46.59,445.8,48.3,445.8,51.45Z"/><path d="M464.37,36.42v9.72a5.86,5.86,0,0,1,5.16-2.67c3.69,0,5.46,2.37,5.46,5.61V59.34h-3.72V50.28c0-2.4-.9-3.69-2.94-3.69-2.85,0-4,2.31-4,4.83v7.92h-3.72V36.87Z"/><path d="M478.41,44.61a18.74,18.74,0,0,1,5.94-1.14c4.74,0,6.48,2.34,6.48,6v6.36a.79.79,0,0,0,.75.9,3,3,0,0,0,1.23-.18V59a6.08,6.08,0,0,1-2.49.48,2.84,2.84,0,0,1-2.85-2.13,6.87,6.87,0,0,1-4.74,2.13c-3.06,0-5.34-1.56-5.37-4.83s2.46-5,6.39-5a24.49,24.49,0,0,1,3.39.3v-.93c0-1.71-1.08-2.64-3.24-2.61a12.68,12.68,0,0,0-4.86,1Zm8.7,7.35a16.62,16.62,0,0,0-3.06-.18c-1.8.09-2.94.93-3,2.52a2.21,2.21,0,0,0,2.55,2.31,6.17,6.17,0,0,0,3.48-1.26Z"/><path d="M495.81,54.84a8.15,8.15,0,0,0,5.1,1.74c1.8,0,2.85-.54,2.85-1.83,0-3.06-9.09-1-8.79-6.78.12-2.82,2.19-4.5,6.36-4.5A12.78,12.78,0,0,1,507,44.94l-1.32,2.64a8.9,8.9,0,0,0-4.5-1.29c-1.47,0-2.7.48-2.64,1.71.18,2.49,8.91.57,8.91,6.63,0,3.24-2.91,4.92-6.63,4.89a10.76,10.76,0,0,1-6.45-2Z"/><path d="M524.28,55a7,7,0,0,1-6.78,4.5c-5.28,0-7.62-3.3-7.62-8.22s3.3-7.95,7.83-7.83c3.69.09,7,2.85,6.63,7.86l-.06.48H513.66c0,2.67,1.14,4.5,3.87,4.5a3.5,3.5,0,0,0,3.39-2.49Zm-3.81-5.13c.06-2.43-1.26-3.57-3.09-3.51a3.5,3.5,0,0,0-3.54,3.51Z"/><path d="M238,67.38l-.26,1.1a7.49,7.49,0,0,0-1.65-.2c-2.41,0-3.57.87-3.57,4.06V74.2h4.38l-.29,1.19h-4.09V89.25h-1.39V75.39h-3.05V74.2h3.05v-2c0-3.69,1.82-5.08,4.81-5.08A9.18,9.18,0,0,1,238,67.38Z"/><path d="M245.79,89.43c-4.58,0-6.58-3.48-6.58-7.75,0-5.19,3-7.77,6.7-7.77,3.39,0,6.46,2.58,6.46,7.77C252.37,86,250,89.43,245.79,89.43Zm0-1.19c3.48,0,5.19-3.17,5.19-6.56,0-4.67-2.46-6.58-5.07-6.58-2.82,0-5.28,1.8-5.28,6.58C240.63,85.05,241.93,88.24,245.79,88.24Z"/><path d="M258.84,80.38v8.87h-1.39V74.05h1.13l.26,3.08c.64-1.95,2.35-3.22,5.07-3.22a8.65,8.65,0,0,1,1.63.14l-.2,1.28a4.73,4.73,0,0,0-1.51-.2C260.38,75.13,258.84,77.65,258.84,80.38Z"/><path d="M287.32,85.45l1.1.67a7,7,0,0,1-6,3.31c-4.79,0-6.82-3.28-6.82-8,0-4.91,3-7.57,6.84-7.57,3.51,0,6.36,2.55,6,7.28l-.06.49H277c0,4,1.65,6.56,5.48,6.56A5.68,5.68,0,0,0,287.32,85.45Zm-10.24-5h10c0-3.86-2-5.39-4.65-5.39C279.69,75.1,277.34,76.75,277.08,80.49Z"/><path d="M303.18,89.25l-4.58-6.7-4.7,6.7h-1.6l5.51-7.71-5-7.49h1.62l4.21,6.44L303,74.05h1.59l-5.16,7.43,5.34,7.77Z"/><path d="M313.65,89.43c-3.08,0-5.4-1.48-5.4-4.76s2.82-4.76,6.15-4.76a19.84,19.84,0,0,1,4.76.64V79c0-2.52-1.57-3.85-4.64-3.85a11.33,11.33,0,0,0-5,1.16l-.32-1.19a13.82,13.82,0,0,1,5.31-1.16c4.52,0,6,2.32,6,5.25v8.21c0,.43.09.81.64.87a5.49,5.49,0,0,0,1.48-.18v1.08a4.75,4.75,0,0,1-1.62.29,2,2,0,0,1-1.89-2.15A9,9,0,0,1,313.65,89.43Zm0-1.22a9.43,9.43,0,0,0,5.51-2.12V81.62a26.39,26.39,0,0,0-5-.58c-2.9,0-4.52,1.16-4.52,3.66C309.65,86.9,311.1,88.21,313.65,88.21Z"/><path d="M327.83,74.05l.23,3a5.11,5.11,0,0,1,4.67-3.19c2.7-.09,4.09,1.19,4.7,3a5.46,5.46,0,0,1,5-3c3.83-.12,5.05,2.43,5.05,5.42v9.92h-1.4v-10c0-2.72-1.24-4.14-3.74-4.14-3.48,0-4.58,2.43-4.58,5v9.14h-1.39v-10c0-2.72-1.25-4.14-3.75-4.14-3.65,0-4.58,2.69-4.58,5.42v8.73h-1.39V74.05Z"/><path d="M354.33,74.05l.27,3.08a6.22,6.22,0,0,1,5.62-3.22c3.4,0,6.62,2.17,6.62,7.63,0,4.58-2.27,7.89-6.85,7.89a5.62,5.62,0,0,1-5.39-3.22v8.84h-1.43v-21Zm5.78,14.19c3.65,0,5.33-2.93,5.33-6.67,0-4.91-2.58-6.47-5.39-6.47-3.11,0-5.57,2.52-5.57,6.55C354.48,85,355.67,88.24,360.11,88.24Z"/><path d="M373.33,85.42c0,2.15.9,2.76,2.32,2.76a4.81,4.81,0,0,0,2.44-.87l.63,1.1a5.69,5.69,0,0,1-3.07,1c-2.9,0-3.71-1.74-3.71-4V67.35l1.39-.26Z"/><path d="M391.89,85.45l1.1.67a6.94,6.94,0,0,1-6,3.31c-4.79,0-6.82-3.28-6.82-8,0-4.91,3-7.57,6.85-7.57,3.51,0,6.35,2.55,6,7.28l-.06.49h-11.4c0,4,1.66,6.56,5.49,6.56A5.68,5.68,0,0,0,391.89,85.45Zm-10.24-5h10c0-3.86-2-5.39-4.64-5.39C384.26,75.1,381.91,76.75,381.65,80.49Z"/><path d="M397.66,89.4c0-.58-.75-.53-.75-.53a1.12,1.12,0,0,1,0-2.23c1.45,0,2,1.34,1.82,2.73a3.29,3.29,0,0,1-3.45,2.81v-.9A2.13,2.13,0,0,0,397.66,89.4Z"/><path d="M414.6,89.43c-3.08,0-5.4-1.48-5.4-4.76s2.81-4.76,6.15-4.76a19.84,19.84,0,0,1,4.76.64V79c0-2.52-1.57-3.85-4.64-3.85a11.27,11.27,0,0,0-5,1.16l-.32-1.19a13.76,13.76,0,0,1,5.31-1.16c4.52,0,6,2.32,6,5.25v8.21c0,.43.09.81.64.87a5.49,5.49,0,0,0,1.48-.18v1.08a4.81,4.81,0,0,1-1.63.29,2,2,0,0,1-1.88-2.15A9,9,0,0,1,414.6,89.43Zm0-1.22a9.43,9.43,0,0,0,5.51-2.12V81.62a26.5,26.5,0,0,0-5-.58c-2.9,0-4.53,1.16-4.53,3.66C410.59,86.9,412,88.21,414.6,88.21Z"/><path d="M435.59,75.39h-2.52V74.2h2.58l.2-4.24,1.13-.2V74.2h4.44l-.32,1.19H437v10c0,2.15.9,2.76,2.32,2.76a7.06,7.06,0,0,0,2.93-1.07l.64,1.1a7.77,7.77,0,0,1-3.57,1.22c-2.9,0-3.71-1.74-3.71-4Z"/><path d="M448.79,89.25h-1.43v-14h-2.49V74.05h3.92Zm-1.86-20a1.12,1.12,0,0,1,1.1-1.1,1.12,1.12,0,1,1,0,2.23A1.12,1.12,0,0,1,446.93,69.21Z"/><path d="M466.86,87.6c0,5-2.18,7.45-7,7.45a15.16,15.16,0,0,1-5.6-1l.43-1.22a15.14,15.14,0,0,0,5.28,1c4.15,0,5.51-2.69,5.51-5.85V86.21a6.32,6.32,0,0,1-5.57,3.22c-4.49.14-6.73-3.4-6.73-7.69,0-5.22,3-7.83,6.65-7.83a5.83,5.83,0,0,1,5.65,3.19l.24-3h1.16Zm-6.79.64c3.77,0,5.42-3.17,5.42-6.59,0-4.64-2.67-6.55-5.54-6.55-3,0-5.39,1.77-5.39,6.55C454.56,85.05,455.63,88.24,460.07,88.24Z"/><path d="M484.75,79.33v9.92h-1.39v-10c0-2.72-1.51-4.14-4-4.14-3.65,0-5.31,2.69-5.31,5.42v8.73h-1.39V67.35l1.39-.26V77.24a5.83,5.83,0,0,1,5.4-3.33C483.27,73.79,484.75,76.34,484.75,79.33Z"/><path d="M491.1,75.39h-2.53V74.2h2.58l.21-4.24,1.13-.2V74.2h4.44l-.32,1.19h-4.12v10c0,2.15.9,2.76,2.32,2.76a7.06,7.06,0,0,0,2.93-1.07l.64,1.1a7.82,7.82,0,0,1-3.57,1.22c-2.9,0-3.71-1.74-3.71-4Z"/><path d="M510.15,75.39h-2.53V74.2h2.59l.2-4.24,1.13-.2V74.2H516l-.32,1.19h-4.12v10c0,2.15.9,2.76,2.32,2.76a7.06,7.06,0,0,0,2.93-1.07l.64,1.1a7.82,7.82,0,0,1-3.57,1.22c-2.9,0-3.71-1.74-3.71-4Z"/><path d="M531.87,89.25l-.23-3.6A6,6,0,0,1,526,89.4c-3.83.11-5.34-2.44-5.34-5.43V74.05h1.4v10c0,2.73,1.53,4.15,4,4.15,3.65,0,5.51-3.37,5.51-6V74.05H533v15.2Z"/><path d="M550.84,86A6.35,6.35,0,0,1,545,89.43c-4.64,0-6.82-3.72-6.82-7.78,0-5,3.14-7.74,7-7.74a6,6,0,0,1,5.63,3.45l-1.25.55A4.64,4.64,0,0,0,545,75.1c-3,0-5.51,2.11-5.51,6.47,0,3.48,1.53,6.61,5.45,6.61a4.68,4.68,0,0,0,4.61-2.82Z"/><path d="M560.93,81.65l5.51,7.6h-1.77l-4.93-6.9h-2.87v6.9h-1.42V67.35l1.42-.26V81.16h2.81l4.67-7.11h1.8Z"/><path d="M578.5,74.05l.26,3.08a6.22,6.22,0,0,1,5.63-3.22c3.39,0,6.61,2.17,6.61,7.63,0,4.58-2.26,7.89-6.84,7.89a5.63,5.63,0,0,1-5.4-3.22v8.84h-1.42v-21Zm5.77,14.19c3.66,0,5.34-2.93,5.34-6.67,0-4.91-2.58-6.47-5.4-6.47-3.1,0-5.56,2.52-5.56,6.55C578.65,85,579.83,88.24,584.27,88.24Z"/><path d="M601.93,89.43c-4.58,0-6.58-3.48-6.58-7.75,0-5.19,3-7.77,6.7-7.77,3.39,0,6.47,2.58,6.47,7.77C608.52,86,606.17,89.43,601.93,89.43Zm0-1.19c3.48,0,5.2-3.17,5.2-6.56,0-4.67-2.47-6.58-5.08-6.58-2.81,0-5.28,1.8-5.28,6.58C596.77,85.05,598.08,88.24,601.93,88.24Z"/><path d="M623.45,75.3l-.58,1.16a8.51,8.51,0,0,0-4.61-1.36c-2.09,0-4.06.61-4,2.75.08,3.8,9.71,1.57,9.71,7.14,0,3-2.55,4.49-5.94,4.44a8.21,8.21,0,0,1-5.6-2l.78-1A6.65,6.65,0,0,0,618,88.24c2.75,0,4.55-1,4.55-3.22,0-4.56-9.6-2.06-9.66-7.08,0-2.55,1.89-4,5.43-4A11.23,11.23,0,0,1,623.45,75.3Z"/><path d="M630.93,89.25h-1.42v-14H627V74.05h3.91Zm-1.85-20a1.12,1.12,0,0,1,1.1-1.1,1.12,1.12,0,1,1,0,2.23A1.12,1.12,0,0,1,629.08,69.21Z"/><path d="M637.57,75.39h-2.52V74.2h2.58l.2-4.24,1.13-.2V74.2h4.44l-.32,1.19H639v10c0,2.15.9,2.76,2.33,2.76a7.05,7.05,0,0,0,2.92-1.07l.64,1.1a7.76,7.76,0,0,1-3.56,1.22c-2.91,0-3.72-1.74-3.72-4Z"/><path d="M650.77,89.25h-1.42v-14h-2.5V74.05h3.92Zm-1.86-20a1.12,1.12,0,0,1,1.1-1.1,1.12,1.12,0,1,1,0,2.23A1.12,1.12,0,0,1,648.91,69.21Z"/><path d="M662.46,89.43c-4.59,0-6.59-3.48-6.59-7.75,0-5.19,3-7.77,6.7-7.77,3.39,0,6.47,2.58,6.47,7.77C669,86,666.69,89.43,662.46,89.43Zm0-1.19c3.48,0,5.19-3.17,5.19-6.56,0-4.67-2.47-6.58-5.08-6.58-2.81,0-5.28,1.8-5.28,6.58C657.29,85.05,658.6,88.24,662.46,88.24Z"/><path d="M675.27,74.05l.23,3a5.7,5.7,0,0,1,5.4-3.19c3.83-.12,5.31,2.43,5.31,5.42v9.92h-1.4v-10c0-2.72-1.5-4.14-4-4.14-3.65,0-5.31,2.69-5.31,5.42v8.73h-1.39V74.05Z"/></svg>