<svg id="Layer_1" data-name="Layer 1" xmlns="http://www.w3.org/2000/svg" viewBox="0 0 780 1051.14"><defs><style>.cls-1,.cls-2{fill:#fff;}.cls-1{opacity:0.7;}.cls-3{fill:#c6946f;stroke-width:0.27px;}.cls-3,.cls-4,.cls-5,.cls-6,.cls-7,.cls-8{stroke:#fff;stroke-miterlimit:10;}.cls-4,.cls-5,.cls-8{fill:#d4a47c;}.cls-4{stroke-width:0.41px;}.cls-5{stroke-width:0.29px;}.cls-6{fill:#005058;stroke-width:0.53px;}.cls-7{fill:#fff171;stroke-width:0.3px;}.cls-8{stroke-width:0.33px;}</style></defs><path d="M66,207.09v7.25H68.1l4.25-7.25h3.5l-5,8.61,5.45,8.65h-3.6L68.08,217H66v7.37H63V207.09Z"/><path d="M80.49,211.43l.47,2.3a4.73,4.73,0,0,1,4.41-2.42c3,0,4.49,1.95,4.49,4.61v8.43H86.8v-7.44c0-2-.74-3-2.42-3-2.34,0-3.25,1.9-3.25,4v6.51H78.07V211.43Z"/><path d="M104.31,220.8a5.76,5.76,0,0,1-5.57,3.7c-4.34,0-6.27-2.71-6.27-6.76s2.72-6.53,6.44-6.43c3,.07,5.74,2.34,5.45,6.46l0,.39H95.58c0,2.2.94,3.7,3.18,3.7a2.89,2.89,0,0,0,2.79-2Zm-3.13-4.21c0-2-1-2.94-2.54-2.89a2.88,2.88,0,0,0-2.91,2.89Z"/><path d="M118.39,220.8a5.76,5.76,0,0,1-5.57,3.7c-4.34,0-6.26-2.71-6.26-6.76s2.71-6.53,6.43-6.43c3,.07,5.75,2.34,5.45,6.46l0,.39h-8.73c0,2.2.94,3.7,3.18,3.7a2.87,2.87,0,0,0,2.79-2Zm-3.13-4.21c0-2-1-2.94-2.54-2.89a2.88,2.88,0,0,0-2.91,2.89Z"/><path d="M121.48,220.65a6.68,6.68,0,0,0,4.19,1.43c1.48,0,2.34-.44,2.34-1.5,0-2.51-7.47-.84-7.22-5.57.1-2.32,1.8-3.7,5.23-3.7a10.49,10.49,0,0,1,4.66,1.21l-1.09,2.17a7.25,7.25,0,0,0-3.7-1.06c-1.21,0-2.22.39-2.17,1.4.15,2.05,7.33.47,7.33,5.45,0,2.66-2.4,4.05-5.45,4a8.83,8.83,0,0,1-5.31-1.68Z"/><path d="M141.14,211.43l.44,2.3a4.33,4.33,0,0,1,4-2.45,3.77,3.77,0,0,1,3.85,2.4,4.56,4.56,0,0,1,4.17-2.4c3,0,4.21,2,4.21,4.64v8.43h-3.05v-7.44c0-2-.47-3-2.15-3-2.22,0-2.81,1.68-2.81,3.58v6.9h-3.06v-7.44c0-2-.47-3-2.14-3-2.37,0-2.84,1.9-2.84,4v6.51h-3.06V211.43Z"/><path d="M163.8,211.43v7.45c0,2,.79,3,2.59,3,2.34,0,3.3-2.42,3.3-4.86v-5.62h3.06v12.92h-2.44l-.44-2.81a4.72,4.72,0,0,1-4.47,3c-3.15,0-4.66-1.95-4.66-5.2v-7.87Z"/><path d="M176.26,220.65a6.68,6.68,0,0,0,4.19,1.43c1.48,0,2.34-.44,2.34-1.5,0-2.51-7.47-.84-7.22-5.57.1-2.32,1.8-3.7,5.22-3.7a10.49,10.49,0,0,1,4.66,1.21l-1.08,2.17a7.25,7.25,0,0,0-3.7-1.06c-1.21,0-2.22.39-2.17,1.4.15,2.05,7.32.47,7.32,5.45,0,2.66-2.39,4.05-5.44,4a8.83,8.83,0,0,1-5.31-1.68Z"/><path d="M192.29,207.78v3.78h3.25l-.42,2.46h-2.83v5.92c0,1.4.64,1.95,1.67,1.95a5.64,5.64,0,0,0,1.95-.57l.57,2.34a7.94,7.94,0,0,1-3.28.84c-3,0-4-2-4-4.14V214h-1.8v-2.46h1.95l.37-3.43Z"/><path d="M65.84,239.43v8.21a4.4,4.4,0,0,1,4.31-2.42c2.44.08,5.06,1.73,5.06,6.49,0,3.89-1.95,6.7-5.45,6.7a4.27,4.27,0,0,1-4.07-2.36l-.42,2.22H62.78V239.82Zm-.13,12.35c0,2.22.82,4,3.26,4,2,0,3.1-1.51,3.1-4.05,0-3-1.5-3.94-3.13-3.94S65.71,249.19,65.71,251.78Z"/><path d="M89.24,254.72a5.75,5.75,0,0,1-5.57,3.69c-4.34,0-6.27-2.71-6.27-6.75s2.72-6.54,6.44-6.44c3,.08,5.74,2.35,5.45,6.46l-.05.4H80.51c0,2.19.94,3.7,3.18,3.7a2.89,2.89,0,0,0,2.79-2.05Zm-3.13-4.22c0-2-1-2.93-2.54-2.89a2.88,2.88,0,0,0-2.91,2.89Z"/><path d="M99.58,245.35l.44,2.31a4.71,4.71,0,0,1,4.41-2.44c2.45.08,5.08,1.73,5.08,6.49,0,3.89-1.94,6.7-5.47,6.7a4,4,0,0,1-3.82-2.09v6.88H97.13V245.35Zm.42,6.43c0,2.22.81,4,3.27,4,2,0,3.11-1.51,3.11-4.05,0-3-1.5-3.94-3.13-3.94C101.47,247.79,100,249.19,100,251.78Z"/><path d="M115.09,245.35v7.44c0,2,.79,3,2.59,3,2.34,0,3.3-2.41,3.3-4.85v-5.62H124v12.92H121.6l-.44-2.81a4.72,4.72,0,0,1-4.47,3c-3.15,0-4.66-1.94-4.66-5.2v-7.86Z"/><path d="M130.26,239.43v14.62c0,1.38.61,1.75,1.53,1.75a2.33,2.33,0,0,0,1.28-.47l.57,2.2a5.37,5.37,0,0,1-2.79.88c-2.56,0-3.65-1.72-3.65-4.06V239.8Z"/><path d="M137.24,239.43v14.62c0,1.38.61,1.75,1.53,1.75a2.33,2.33,0,0,0,1.28-.47l.57,2.2a5.37,5.37,0,0,1-2.79.88c-2.56,0-3.65-1.72-3.65-4.06V239.8Z"/><path d="M153.1,254.72a5.77,5.77,0,0,1-5.58,3.69c-4.34,0-6.26-2.71-6.26-6.75s2.71-6.54,6.44-6.44c3,.08,5.74,2.35,5.44,6.46l0,.4h-8.73c0,2.19.93,3.7,3.18,3.7a2.87,2.87,0,0,0,2.78-2.05ZM150,250.5c0-2-1-2.93-2.54-2.89a2.89,2.89,0,0,0-2.91,2.89Z"/><path d="M167.92,239.43v18.84h-2.57l-.34-2.22a4.53,4.53,0,0,1-4.12,2.36c-3.48,0-5.55-2.83-5.55-6.63,0-4.63,3-6.56,5.53-6.56a4.1,4.1,0,0,1,4,2.44v-7.84Zm-9.42,12.33c0,2.19.86,3.92,3.16,3.92s3.25-1.73,3.25-3.9c0-2.93-1.58-4-3.28-4S158.5,248.92,158.5,251.76Z"/><path d="M180.23,245.35v12.92h-3.08V247.89h-1.8v-2.54Zm-1.56-5a1.65,1.65,0,0,1,1.83,1.55,1.83,1.83,0,0,1-3.63,0A1.59,1.59,0,0,1,178.67,240.32Z"/><path d="M185.8,245.35l.47,2.29a4.78,4.78,0,0,1,4.41-2.42c3,0,4.49,1.95,4.49,4.61v8.44h-3.06v-7.45c0-2-.73-3-2.41-3-2.34,0-3.26,1.9-3.26,4v6.51h-3.05V245.35Z"/><path d="M202.25,241.7v3.77h3.26l-.42,2.46h-2.84v5.92c0,1.41.64,2,1.68,2a5.5,5.5,0,0,0,1.95-.57l.56,2.35a8.14,8.14,0,0,1-3.27.83c-3,0-4-2-4-4.14v-6.34h-1.8v-2.46h2l.37-3.43Z"/><path d="M213.6,245.22c3.23,0,6,2.2,6,6.61,0,3.63-2.15,6.58-6.17,6.58-4.36,0-6.16-3-6.16-6.58C207.31,247.42,210.1,245.22,213.6,245.22Zm-3.08,6.61c0,2,.69,4,3,4,2.1,0,3-1.94,3-4,0-2.86-1.41-4-3-4S210.52,248.92,210.52,251.83Z"/><path d="M66.75,275.61v3.77H70l-.42,2.47H66.75v5.92c0,1.4.64,1.94,1.67,1.94a5.69,5.69,0,0,0,2-.56l.57,2.34a8.1,8.1,0,0,1-3.28.84c-3,0-4-2-4-4.14v-6.34h-1.8v-2.47h2l.37-3.43Z"/><path d="M76,273.34v8a4.81,4.81,0,0,1,4.24-2.19c3,0,4.49,1.94,4.49,4.61v8.43H81.62v-7.45c0-2-.74-3-2.42-3-2.34,0-3.25,1.9-3.25,4v6.51H72.89V273.71Z"/><path d="M99.08,288.63a5.76,5.76,0,0,1-5.57,3.7c-4.34,0-6.27-2.71-6.27-6.76S90,279,93.68,279.14c3,.07,5.75,2.34,5.45,6.46l0,.39H90.35c0,2.2.94,3.7,3.18,3.7a2.88,2.88,0,0,0,2.79-2.05ZM96,284.41c0-2-1-2.93-2.54-2.88a2.87,2.87,0,0,0-2.91,2.88Z"/><path d="M118.22,288.56c-.84,2.63-3,3.77-5.62,3.77-4.24,0-6.07-3.16-6.07-6.61,0-4.22,2.62-6.51,6.14-6.58,3.11-.08,5,1.52,5.5,3.79l-2.84.92a2.53,2.53,0,0,0-2.61-2.12c-1.77,0-3.13,1.3-3.13,3.94,0,2.1.79,4,3.08,4a2.59,2.59,0,0,0,2.71-2Z"/><path d="M123.75,273.34v8a4.81,4.81,0,0,1,4.24-2.19c3,0,4.49,1.94,4.49,4.61v8.43h-3.06v-7.45c0-2-.74-3-2.42-3-2.34,0-3.25,1.9-3.25,4v6.51h-3.06V273.71Z"/><path d="M146.88,288.63a5.76,5.76,0,0,1-5.57,3.7c-4.34,0-6.27-2.71-6.27-6.76s2.72-6.53,6.44-6.43c3,.07,5.74,2.34,5.45,6.46l-.05.39h-8.73c0,2.2.94,3.7,3.18,3.7a2.89,2.89,0,0,0,2.79-2.05Zm-3.13-4.22c.05-2-1-2.93-2.54-2.88a2.87,2.87,0,0,0-2.91,2.88Z"/><path d="M150,288.48a6.73,6.73,0,0,0,4.2,1.43c1.48,0,2.34-.44,2.34-1.5,0-2.52-7.47-.84-7.23-5.58.1-2.31,1.8-3.69,5.23-3.69a10.55,10.55,0,0,1,4.66,1.2l-1.08,2.17a7.36,7.36,0,0,0-3.7-1.06c-1.21,0-2.22.4-2.17,1.41.15,2.05,7.32.47,7.32,5.45,0,2.66-2.39,4-5.45,4a8.86,8.86,0,0,1-5.3-1.68Z"/><path d="M166,275.61v3.77h3.25l-.42,2.47H166v5.92c0,1.4.64,1.94,1.67,1.94a5.76,5.76,0,0,0,2-.56l.57,2.34a8.1,8.1,0,0,1-3.28.84c-3,0-4-2-4-4.14v-6.34h-1.8v-2.47h2l.37-3.43Z"/><path d="M90.78,323.31A68.38,68.38,0,0,0,105.37,354a80.71,80.71,0,0,0,24.29,19.46A89.76,89.76,0,0,0,145,379.84c1.85.58,2.64-2.31.8-2.89-19-6-36.51-18.64-45.91-36.51a64.71,64.71,0,0,1-6.23-17.93c-.37-1.89-3.26-1.09-2.89.8Z"/><path d="M135.73,367.88c3.18,3.6,6,7.49,8.9,11.32l.53-2.05c-2.34,1-4.63,2.08-6.95,3.11-2.07.91-4.18,1.74-6.25,2.66a1.51,1.51,0,0,0-.54,2.05,1.54,1.54,0,0,0,2.05.54c2.07-.92,4.18-1.75,6.25-2.66,2.33-1,4.62-2.12,7-3.11a1.5,1.5,0,0,0,.54-2.05c-3.06-4-6-8.14-9.37-11.93-1.28-1.45-3.39.67-2.12,2.12Z"/><path class="cls-1" d="M148.79,61.4a36.73,36.73,0,0,1,8.33-23.32,34.4,34.4,0,0,0-45.48-4.38A34.43,34.43,0,0,0,131.9,96a34.33,34.33,0,0,0,25.32-11.11A36.76,36.76,0,0,1,148.79,61.4ZM138,75.49s-3.7-.27-11.47-.27a25.63,25.63,0,0,0-4.93.31l-1.35-2.46c7.78-7.9,12.4-13.63,13-18.71.47-3.66-2-4.82-4.35-4.66a9.73,9.73,0,0,0-6.73,3.92c-.2-.23-1.93-2.07-1.47-2.65A12.43,12.43,0,0,1,130,46.12c5.89,0,9.09,3,8.74,8.51-.46,7-8,13.59-12.63,17.55l8.32-.08c1.77-.15,3-2.54,3.81-4.73,0,0,1.73.5,2,1C139.58,71.53,138.81,75.49,138,75.49Z"/><path class="cls-1" d="M95.79,61.4A36.74,36.74,0,0,1,104.16,38a34.44,34.44,0,1,0,.11,46.9A36.78,36.78,0,0,1,95.79,61.4ZM87.2,75.66H70.92L71,73.39l4.46-.58c.58,0,.81-.23.81-1,.08-10.05,0-19.6,0-19.6l-5.62,1.08c-.19-.31-1.12-2.46-.46-2.73l10.35-4,1,1s-.12,20.87,0,24.37c0,.77.19,1,.73,1l5.08.54Z"/><circle cx="184" cy="61.53" r="34.44"/><path class="cls-2" d="M187.93,59.13c3.47.62,5.47,2.93,5.66,6.7.31,6-4.58,9.66-11.24,9.66a15.53,15.53,0,0,1-7.86-2.19l1-2.89a21.48,21.48,0,0,0,7,1.66c3.35,0,5.51-1.74,5.55-5.24,0-2.46-1.43-4.35-4.47-4.74a18.16,18.16,0,0,0-5,.23c-.5.12-.89-3-.42-3.07,3-.54,7.62-1.08,8.39-4.89.73-3.62-2-4.82-4.35-4.66A8.43,8.43,0,0,0,176,52.82c-.2-.23-1.7-2.12-1-3a10.43,10.43,0,0,1,8.16-3.69c5.89,0,9.12,3,8.74,8.51A6,6,0,0,1,187.93,59.13Z"/><path d="M243.45,38.34l-.27,3.12h-5.55V59.34h-3.75V41.46h-5.76V38.34Z"/><path d="M249.6,36.42v9.72a5.86,5.86,0,0,1,5.16-2.67c3.69,0,5.46,2.37,5.46,5.61V59.34H256.5V50.28c0-2.4-.9-3.69-2.94-3.69-2.85,0-4,2.31-4,4.83v7.92h-3.72V36.87Z"/><path d="M277.74,55a7,7,0,0,1-6.78,4.5c-5.28,0-7.62-3.3-7.62-8.22s3.3-7.95,7.83-7.83c3.69.09,7,2.85,6.63,7.86l-.06.48H267.12c0,2.67,1.14,4.5,3.87,4.5a3.5,3.5,0,0,0,3.39-2.49Zm-3.81-5.13c.06-2.43-1.26-3.57-3.09-3.51a3.5,3.5,0,0,0-3.54,3.51Z"/><path d="M284,43.62l.57,2.79A5.8,5.8,0,0,1,290,43.47c3.69,0,5.46,2.37,5.46,5.61V59.34h-3.72V50.28c0-2.4-.9-3.69-2.94-3.69-2.85,0-4,2.31-4,4.83v7.92h-3.72V43.62Z"/><path d="M310.29,39.18v4.59h4l-.51,3h-3.45V54c0,1.71.78,2.37,2,2.37a6.83,6.83,0,0,0,2.37-.69l.69,2.85a9.82,9.82,0,0,1-4,1c-3.69,0-4.83-2.46-4.83-5V46.77h-2.19v-3h2.37l.45-4.17Z"/><path d="M321.48,36.42v9.72a5.86,5.86,0,0,1,5.16-2.67c3.69,0,5.46,2.37,5.46,5.61V59.34h-3.72V50.28c0-2.4-.9-3.69-2.94-3.69-2.85,0-4,2.31-4,4.83v7.92h-3.72V36.87Z"/><path d="M349.62,55a7,7,0,0,1-6.78,4.5c-5.28,0-7.62-3.3-7.62-8.22s3.3-7.95,7.83-7.83c3.69.09,7,2.85,6.63,7.86l-.06.48H339c0,2.67,1.14,4.5,3.87,4.5a3.5,3.5,0,0,0,3.39-2.49Zm-3.81-5.13c.06-2.43-1.26-3.57-3.09-3.51a3.5,3.5,0,0,0-3.54,3.51Z"/><path d="M360.15,43.77V41.64c0-3.12,1.62-5.22,5.16-5.22a6.41,6.41,0,0,1,3.6,1.08v-.72l3.72-.36V54.21c0,1.68.72,2.13,1.83,2.13a2.81,2.81,0,0,0,1.56-.57l.72,2.67a6.6,6.6,0,0,1-3.42,1.08c-3.09,0-4.41-2.1-4.41-5V40.08a6,6,0,0,0-2.7-.69c-1.47,0-2.31.6-2.31,2.85v1.53h3.18l-.48,3h-2.7V59.34h-3.75V46.77h-2.46v-3Z"/><path d="M383.37,43.62V59.34h-3.75V46.71h-2.19V43.62Zm-1.89-6.12a2,2,0,0,1,2.22,1.89,2.22,2.22,0,0,1-4.41,0A1.93,1.93,0,0,1,381.48,37.5Z"/><path d="M401.85,43.62V57c0,5.22-2,8.37-7.8,8.37A16.38,16.38,0,0,1,387.63,64l.87-2.82a13.33,13.33,0,0,0,5.13,1.17c3.39,0,4.5-1.68,4.5-4.26V56.7a5.42,5.42,0,0,1-4.83,2.49c-4.23.09-6.66-3.12-6.66-7.74,0-5.64,3.6-8,6.72-8a5.2,5.2,0,0,1,5,2.85l.39-2.7Zm-11.34,7.8c0,2.67,1.05,4.77,3.84,4.77s3.9-2.1,3.9-4.74c0-3.57-1.89-4.86-3.93-4.86S390.51,48,390.51,51.42Z"/><path d="M409.41,36.42v9.72a5.86,5.86,0,0,1,5.16-2.67c3.69,0,5.46,2.37,5.46,5.61V59.34h-3.72V50.28c0-2.4-.9-3.69-2.94-3.69-2.85,0-4,2.31-4,4.83v7.92h-3.72V36.87Z"/><path d="M428.58,39.18v4.59h4l-.51,3h-3.45V54c0,1.71.78,2.37,2,2.37a6.83,6.83,0,0,0,2.37-.69l.69,2.85a9.82,9.82,0,0,1-4,1c-3.69,0-4.83-2.46-4.83-5V46.77h-2.19v-3H425l.45-4.17Z"/><path d="M445.29,43.62l.54,2.82a5.71,5.71,0,0,1,5.37-3c3,.09,6.18,2.1,6.18,7.89,0,4.74-2.37,8.16-6.66,8.16A4.88,4.88,0,0,1,446.07,57v8.37h-3.75V43.62Zm.51,7.83c0,2.7,1,4.86,4,4.86,2.43,0,3.78-1.83,3.78-4.92,0-3.66-1.83-4.8-3.81-4.8C447.6,46.59,445.8,48.3,445.8,51.45Z"/><path d="M464.37,36.42v9.72a5.86,5.86,0,0,1,5.16-2.67c3.69,0,5.46,2.37,5.46,5.61V59.34h-3.72V50.28c0-2.4-.9-3.69-2.94-3.69-2.85,0-4,2.31-4,4.83v7.92h-3.72V36.87Z"/><path d="M478.41,44.61a18.74,18.74,0,0,1,5.94-1.14c4.74,0,6.48,2.34,6.48,6v6.36a.79.79,0,0,0,.75.9,3,3,0,0,0,1.23-.18V59a6.08,6.08,0,0,1-2.49.48,2.84,2.84,0,0,1-2.85-2.13,6.87,6.87,0,0,1-4.74,2.13c-3.06,0-5.34-1.56-5.37-4.83s2.46-5,6.39-5a24.49,24.49,0,0,1,3.39.3v-.93c0-1.71-1.08-2.64-3.24-2.61a12.68,12.68,0,0,0-4.86,1Zm8.7,7.35a16.62,16.62,0,0,0-3.06-.18c-1.8.09-2.94.93-3,2.52a2.21,2.21,0,0,0,2.55,2.31,6.17,6.17,0,0,0,3.48-1.26Z"/><path d="M495.81,54.84a8.15,8.15,0,0,0,5.1,1.74c1.8,0,2.85-.54,2.85-1.83,0-3.06-9.09-1-8.79-6.78.12-2.82,2.19-4.5,6.36-4.5A12.78,12.78,0,0,1,507,44.94l-1.32,2.64a8.9,8.9,0,0,0-4.5-1.29c-1.47,0-2.7.48-2.64,1.71.18,2.49,8.91.57,8.91,6.63,0,3.24-2.91,4.92-6.63,4.89a10.76,10.76,0,0,1-6.45-2Z"/><path d="M524.28,55a7,7,0,0,1-6.78,4.5c-5.28,0-7.62-3.3-7.62-8.22s3.3-7.95,7.83-7.83c3.69.09,7,2.85,6.63,7.86l-.06.48H513.66c0,2.67,1.14,4.5,3.87,4.5a3.5,3.5,0,0,0,3.39-2.49Zm-3.81-5.13c.06-2.43-1.26-3.57-3.09-3.51a3.5,3.5,0,0,0-3.54,3.51Z"/><path d="M238,67.38l-.26,1.1a7.49,7.49,0,0,0-1.65-.2c-2.41,0-3.57.87-3.57,4.06V74.2h4.38l-.29,1.19h-4.09V89.25h-1.39V75.39h-3.05V74.2h3.05v-2c0-3.69,1.82-5.08,4.81-5.08A9.18,9.18,0,0,1,238,67.38Z"/><path d="M245.79,89.43c-4.58,0-6.58-3.48-6.58-7.75,0-5.19,3-7.77,6.7-7.77,3.39,0,6.47,2.58,6.47,7.77C252.38,86,250,89.43,245.79,89.43Zm0-1.19c3.48,0,5.19-3.16,5.19-6.56,0-4.67-2.46-6.58-5.07-6.58-2.82,0-5.28,1.8-5.28,6.58C240.63,85.05,241.93,88.24,245.79,88.24Z"/><path d="M258.84,80.38v8.87h-1.39V74.05h1.13l.26,3.08c.64-1.95,2.35-3.22,5.08-3.22a8.62,8.62,0,0,1,1.62.14l-.2,1.28a4.73,4.73,0,0,0-1.51-.2C260.38,75.13,258.84,77.65,258.84,80.38Z"/><path d="M287.32,85.45l1.1.67a7,7,0,0,1-6,3.31c-4.79,0-6.82-3.28-6.82-8,0-4.9,3-7.57,6.84-7.57,3.51,0,6.36,2.55,6,7.28l-.06.49H277c0,4,1.65,6.56,5.48,6.56A5.68,5.68,0,0,0,287.32,85.45Zm-10.24-5h10c0-3.85-2-5.39-4.65-5.39C279.69,75.1,277.34,76.75,277.08,80.49Z"/><path d="M303.18,89.25l-4.58-6.7-4.7,6.7h-1.6l5.51-7.71-5-7.49h1.62l4.21,6.44L303,74.05h1.59l-5.16,7.43,5.34,7.77Z"/><path d="M313.65,89.43c-3.08,0-5.4-1.48-5.4-4.76s2.82-4.76,6.15-4.76a19.84,19.84,0,0,1,4.76.64V79c0-2.53-1.57-3.86-4.64-3.86a11.33,11.33,0,0,0-5,1.16l-.32-1.19a13.82,13.82,0,0,1,5.31-1.16c4.52,0,6,2.32,6,5.25v8.21c0,.43.09.81.64.87a5.09,5.09,0,0,0,1.48-.18v1.08a4.75,4.75,0,0,1-1.62.29,2,2,0,0,1-1.89-2.15A9,9,0,0,1,313.65,89.43Zm0-1.22a9.43,9.43,0,0,0,5.51-2.12V81.62a26.39,26.39,0,0,0-5-.58c-2.9,0-4.52,1.16-4.52,3.66C309.65,86.9,311.1,88.21,313.65,88.21Z"/><path d="M327.83,74.05l.23,3a5.11,5.11,0,0,1,4.67-3.19c2.7-.09,4.09,1.19,4.7,3a5.46,5.46,0,0,1,5-3c3.83-.12,5.05,2.43,5.05,5.42v9.92h-1.4v-10c0-2.73-1.24-4.15-3.74-4.15-3.48,0-4.58,2.43-4.58,5v9.13h-1.39v-10c0-2.73-1.25-4.15-3.75-4.15-3.65,0-4.58,2.7-4.58,5.42v8.73h-1.39V74.05Z"/><path d="M354.33,74.05l.27,3.08a6.22,6.22,0,0,1,5.62-3.22c3.4,0,6.62,2.17,6.62,7.63,0,4.58-2.27,7.89-6.85,7.89a5.62,5.62,0,0,1-5.39-3.22v8.84h-1.43v-21Zm5.78,14.19c3.65,0,5.33-2.93,5.33-6.67,0-4.91-2.58-6.47-5.39-6.47-3.1,0-5.57,2.52-5.57,6.55C354.48,85,355.67,88.24,360.11,88.24Z"/><path d="M373.33,85.42c0,2.15.9,2.76,2.32,2.76a4.81,4.81,0,0,0,2.44-.87l.63,1.1a5.69,5.69,0,0,1-3.07,1c-2.9,0-3.71-1.74-3.71-4V67.35l1.39-.26Z"/><path d="M391.89,85.45l1.1.67a6.94,6.94,0,0,1-6,3.31c-4.79,0-6.82-3.28-6.82-8,0-4.9,3-7.57,6.85-7.57,3.51,0,6.35,2.55,6,7.28l-.06.49h-11.4c0,4,1.66,6.56,5.49,6.56A5.68,5.68,0,0,0,391.89,85.45Zm-10.24-5h10c0-3.85-2-5.39-4.64-5.39C384.26,75.1,381.91,76.75,381.65,80.49Z"/><path d="M397.66,89.4c0-.58-.75-.52-.75-.52a1.14,1.14,0,0,1-1.11-1.14,1.13,1.13,0,0,1,1.11-1.1c1.45,0,2,1.34,1.82,2.73a3.28,3.28,0,0,1-3.45,2.81v-.9A2.12,2.12,0,0,0,397.66,89.4Z"/><path d="M414.6,89.43c-3.08,0-5.4-1.48-5.4-4.76s2.81-4.76,6.15-4.76a19.84,19.84,0,0,1,4.76.64V79c0-2.53-1.57-3.86-4.64-3.86a11.27,11.27,0,0,0-5,1.16l-.32-1.19a13.76,13.76,0,0,1,5.31-1.16c4.52,0,6,2.32,6,5.25v8.21c0,.43.09.81.64.87a5.09,5.09,0,0,0,1.48-.18v1.08a4.81,4.81,0,0,1-1.63.29,2,2,0,0,1-1.88-2.15A9,9,0,0,1,414.6,89.43Zm0-1.22a9.43,9.43,0,0,0,5.51-2.12V81.62a26.39,26.39,0,0,0-5-.58c-2.9,0-4.53,1.16-4.53,3.66C410.59,86.9,412,88.21,414.6,88.21Z"/><path d="M435.59,75.39h-2.52V74.2h2.58l.2-4.24,1.13-.2V74.2h4.44l-.32,1.19H437v10c0,2.15.9,2.76,2.32,2.76a7.06,7.06,0,0,0,2.93-1.07l.64,1.1a7.77,7.77,0,0,1-3.57,1.22c-2.9,0-3.71-1.74-3.71-4Z"/><path d="M448.79,89.25h-1.43v-14h-2.49V74.05h3.92Zm-1.86-20a1.12,1.12,0,0,1,1.1-1.1,1.12,1.12,0,1,1,0,2.23A1.12,1.12,0,0,1,446.93,69.21Z"/><path d="M466.86,87.6c0,5-2.18,7.45-7,7.45a15.16,15.16,0,0,1-5.6-1l.43-1.22a15.1,15.1,0,0,0,5.28,1c4.15,0,5.51-2.7,5.51-5.86V86.21a6.32,6.32,0,0,1-5.57,3.22c-4.49.14-6.73-3.4-6.73-7.69,0-5.22,3-7.83,6.65-7.83a5.83,5.83,0,0,1,5.65,3.19l.24-3h1.16Zm-6.79.64c3.77,0,5.42-3.16,5.42-6.59,0-4.64-2.67-6.55-5.54-6.55-3,0-5.39,1.77-5.39,6.55C454.56,85.05,455.63,88.24,460.07,88.24Z"/><path d="M484.75,79.33v9.92h-1.39v-10c0-2.73-1.51-4.15-4-4.15A5.09,5.09,0,0,0,474,80.52v8.73h-1.39V67.35l1.39-.26V77.24a5.83,5.83,0,0,1,5.4-3.33C483.27,73.79,484.75,76.34,484.75,79.33Z"/><path d="M491.1,75.39h-2.53V74.2h2.58l.21-4.24,1.13-.2V74.2h4.44l-.32,1.19h-4.12v10c0,2.15.9,2.76,2.32,2.76a7.06,7.06,0,0,0,2.93-1.07l.64,1.1a7.82,7.82,0,0,1-3.57,1.22c-2.9,0-3.71-1.74-3.71-4Z"/><path d="M510.15,75.39h-2.53V74.2h2.59l.2-4.24,1.13-.2V74.2H516l-.32,1.19h-4.12v10c0,2.15.9,2.76,2.32,2.76a7.06,7.06,0,0,0,2.93-1.07l.64,1.1a7.82,7.82,0,0,1-3.57,1.22c-2.9,0-3.71-1.74-3.71-4Z"/><path d="M531.87,89.25l-.23-3.59A6,6,0,0,1,526,89.4c-3.83.11-5.34-2.44-5.34-5.43V74.05h1.4v10c0,2.73,1.53,4.15,4,4.15,3.65,0,5.51-3.37,5.51-6V74.05H533v15.2Z"/><path d="M550.84,86A6.35,6.35,0,0,1,545,89.43c-4.64,0-6.82-3.72-6.82-7.78,0-5,3.14-7.74,7-7.74a6,6,0,0,1,5.63,3.45l-1.25.55A4.64,4.64,0,0,0,545,75.1c-3,0-5.51,2.12-5.51,6.47,0,3.48,1.53,6.61,5.45,6.61a4.69,4.69,0,0,0,4.61-2.81Z"/><path d="M560.93,81.65l5.51,7.6h-1.77l-4.93-6.9h-2.87v6.9h-1.42V67.35l1.42-.26V81.16h2.81l4.67-7.11h1.8Z"/><path d="M578.5,74.05l.26,3.08a6.23,6.23,0,0,1,5.63-3.22c3.39,0,6.61,2.17,6.61,7.63,0,4.58-2.26,7.89-6.84,7.89a5.64,5.64,0,0,1-5.4-3.22v8.84h-1.42v-21Zm5.77,14.19c3.66,0,5.34-2.93,5.34-6.67,0-4.91-2.58-6.47-5.39-6.47-3.11,0-5.57,2.52-5.57,6.55C578.65,85,579.84,88.24,584.27,88.24Z"/><path d="M601.93,89.43c-4.58,0-6.58-3.48-6.58-7.75,0-5.19,3-7.77,6.7-7.77,3.39,0,6.47,2.58,6.47,7.77C608.52,86,606.17,89.43,601.93,89.43Zm0-1.19c3.48,0,5.2-3.16,5.2-6.56,0-4.67-2.47-6.58-5.08-6.58-2.81,0-5.28,1.8-5.28,6.58C596.77,85.05,598.08,88.24,601.93,88.24Z"/><path d="M623.45,75.3l-.58,1.16a8.51,8.51,0,0,0-4.61-1.36c-2.09,0-4.06.61-4,2.75.08,3.8,9.71,1.57,9.71,7.14,0,3-2.55,4.5-5.94,4.44a8.21,8.21,0,0,1-5.6-2l.78-1A6.65,6.65,0,0,0,618,88.24c2.75,0,4.55-1,4.55-3.22,0-4.56-9.6-2.06-9.66-7.08,0-2.55,1.89-4,5.43-4A11.23,11.23,0,0,1,623.45,75.3Z"/><path d="M630.93,89.25h-1.42v-14H627V74.05h3.91Zm-1.85-20a1.12,1.12,0,0,1,1.1-1.1,1.12,1.12,0,1,1,0,2.23A1.12,1.12,0,0,1,629.08,69.21Z"/><path d="M637.57,75.39h-2.52V74.2h2.58l.2-4.24,1.13-.2V74.2h4.44l-.32,1.19H639v10c0,2.15.9,2.76,2.33,2.76a7.12,7.12,0,0,0,2.93-1.07l.63,1.1a7.76,7.76,0,0,1-3.56,1.22c-2.91,0-3.72-1.74-3.72-4Z"/><path d="M650.77,89.25h-1.42v-14h-2.5V74.05h3.92Zm-1.86-20a1.12,1.12,0,0,1,1.1-1.1,1.12,1.12,0,1,1,0,2.23A1.12,1.12,0,0,1,648.91,69.21Z"/><path d="M662.46,89.43c-4.59,0-6.59-3.48-6.59-7.75,0-5.19,3-7.77,6.7-7.77,3.39,0,6.47,2.58,6.47,7.77C669,86,666.69,89.43,662.46,89.43Zm0-1.19c3.48,0,5.19-3.16,5.19-6.56,0-4.67-2.47-6.58-5.08-6.58-2.81,0-5.28,1.8-5.28,6.58C657.29,85.05,658.6,88.24,662.46,88.24Z"/><path d="M675.27,74.05l.23,3a5.7,5.7,0,0,1,5.4-3.19c3.83-.12,5.31,2.43,5.31,5.42v9.92h-1.4v-10c0-2.73-1.5-4.15-4-4.15a5.09,5.09,0,0,0-5.31,5.42v8.73h-1.39V74.05Z"/><path class="cls-3" d="M413,407.93c-10.88-.64-35.93,6.65-44.35,15-18.8,18.65-3.63,36.49-8.69,53.67-7.49,25.44-10.73,36.91-12,63.69-.68,13.81,1,27.58,2.83,41.27,1.58,11.83,1.43,25.66,5.94,36.78,5.37,13.25,15.74,15.18,28.13,16.76.59.34,1.18.66,1.77.93a9.38,9.38,0,0,1,1.8-.48c2,.25,4,.5,6.12.72l.12-.06c4.18.46,8.47-.68,12.62-1.13a4.32,4.32,0,0,1,.45-.19,21.41,21.41,0,0,1,5.74-1l38.6-3.35c9.22-.81,18.81-1.35,27.68-3.5,15.9-3.86,32.38-3.41,49-3,14.31,3,28.65,5.8,43.15,4.46,7.1-2.79,13.77-6.58,21-8.9,1.23-.4,2.45,0,3.73-.25,1.68-.26,3.32-.12,5-.38,7-1.07,12-7.15,19.12-8.21,3.09-.46,7.69-1.81,10.1-3.8,3.28-2.7,4.18-8.15-1.69-6.45-1.5.43-3,1.16-4.5,1.16-4.06,0-6.52-4.75-10.41-5.89a12.63,12.63,0,0,0-5-.09c-5.56.65-11.21,1.82-16.75,2.31-3,.27-5.58-.72-8.51-.88-5.68-.33-10.68-4.49-15.52-7.21a51.19,51.19,0,0,0-7.18-3.3,6.84,6.84,0,0,0-5.91,0,8.36,8.36,0,0,0-4.79,4.59,32.77,32.77,0,0,1-2.34,5.07c-1.32,2.14-2.6,4.38-4,6.52-8.71-.55-26.84-3.81-32.82-5-13.33-2.69-26.4-5.89-39.45-9.48-4.91-1.06-9.83-2.06-14.76-2.91a166.52,166.52,0,0,0-37.19-1.84c4.16-11.9,8.44-23.77,12.06-35.81q7.39-24.63,13.48-49.63c3.49-14.29,8.76-29.49,6.86-44.33-1.81-14.16-8.38-27.26-18-36C428.34,412.23,420.9,408.4,413,407.93Z"/><path class="cls-4" d="M220.43,517.33c-1-3.13,3.36-7.94,2.56-11.12-.49-2,.12-3.84.15-5.76a82.47,82.47,0,0,0-.81-8.29c-.28-3.33.44-6.47.89-9.75,2.72-20,17.49-39.52,33.7-52.22,15.94-12.49,30.28-19.95,49.58-24.86,19.5-4.95,39.45-11.75,59.71-6.95,2.38.57-14,8.3-14.62,10.67a57.48,57.48,0,0,1-2.87,7.27c-3.44,8.44-7.14,16.72-12.37,24.24-3.33,4.79-6.2,9.8-9.72,14.46-2.48,3.28-4.71,6.77-7,10.2-2.6,3.9-5.77,7.52-8,11.65-1.5,2.79-3.09,5.54-4.56,8.34a27.87,27.87,0,0,1-1.74,3.29c-.66.94-1.56,1.53-2,2.59a9.6,9.6,0,0,1-2.77,3.41c-1.69,1.63-3.07,3.4-5.1,4.67-2.62,1.64-5.11,3.56-7.62,5.42-2.83,2.08-5.32,4.52-8.37,6.23-1.05.6-1.95,1.45-3,2.12-1.65,1.09-3.34,2.1-5,3.21a10.41,10.41,0,0,1-2.79,1.44c-1.32.4-2.38,1.15-3.66,1.6-2.21.78-4,2.21-6.28,2.89-3.06.92-6.18,2.32-9.4,2.45-3.68.15-7.73.19-11.24-1-1.31-.46-2.6-1-3.93-1.42A20.13,20.13,0,0,1,230.7,521c-1.66-.89-4.22-2.35-4.5-4.49"/><path class="cls-5" d="M213.84,520.55c-1.28.1,3.52-9.42,2.51-10.54s.44-2.3,1.07-3.29c.52-.81.6-1.76,1.05-2.61a7.54,7.54,0,0,0,1-1.82,6.55,6.55,0,0,0-.6-4.77c-1.06-1.54-3.15-1.78-4.35-3.12a5.72,5.72,0,0,1-1-2.06,2.84,2.84,0,0,1-1.56.83c-4.07.77-7.78-1.16-11.72-1.73a20.32,20.32,0,0,0-.67,3.57,31.48,31.48,0,0,1-1.21,5.59c-.5,1.65-.48,3.22-1.81,4.28-1,.81-2.42.93-3.44,1.74a23.77,23.77,0,0,1-2,1.79,33.58,33.58,0,0,1-3.78,1.81c-2.81,1.32-5.54,2.94-8.29,4.4a26,26,0,0,0-7.87,6.12,20.68,20.68,0,0,0-4.21,9.18,45.47,45.47,0,0,0-1.09,7.81,78.64,78.64,0,0,0,.71,11.46c.58,4.27,2.76,8.85,5,12.47,1.67,2.69,2.85,5.52,4.83,8.06a26.7,26.7,0,0,0,7.44,6.09c2.36,1.43,4,3.39,5.81,5.32.93,1,2.23,1.48,3.24,2.45a30.77,30.77,0,0,0,3.74,3.3c2.66,1.81,5.38,1.42,8.36,1.14,2-.19,3.75-1,5.76-1.19a14.56,14.56,0,0,0,2.85-.58c1.05-.3,2.08-.28,3.14-.58.51-.15.86-.47,1.39-.64s.92.06,1.43-.21a21.77,21.77,0,0,0,2.47-2.27,27.3,27.3,0,0,1,3.08-2.42,2.74,2.74,0,0,0,.35-.24c.05.06.19.12.55.15a13.27,13.27,0,0,1,2.89.77c2.45.75,2.52,1.24,5.4,1.82a29.13,29.13,0,0,0,5.45.62,3.62,3.62,0,0,0,3.64-4.27,2,2,0,0,1,.21-1.32,5,5,0,0,1,2.44-2.76,20.69,20.69,0,0,0,3.07-.92,19.38,19.38,0,0,0,4.69-3.58c1.12-1.18,1.26-2.19,2.85-2.41,1.15-.16,2.32-.26,3.47-.36,2.16-.21,4.09-1,4.58-3.35a15.92,15.92,0,0,0-2.14-10.52c-17.16-24.35-3.41-20.45-6.45-30.46-2.07-6.85-6.18-17.34-3.41-24"/><path d="M214,574.15a11,11,0,0,1,.11-1.14c0-.22.1-.67.31-.81s.08-.06.14,0,0,.24,0,.32a2,2,0,0,0,.09.33c.16.44.37.86.54,1.3a6.13,6.13,0,0,1,.29.75c.47,1.6.43,3.42,1.07,5a7.59,7.59,0,0,0,3.34,3.27c-.38.38-1.62,1.66-2.17,1.41-.79-.36-1.63-2.47-2.23-3.11a6.94,6.94,0,0,1-1.79-4.45C213.74,576.05,214,575.1,214,574.15Z"/><path d="M194.73,493.59c-.77,2.54-1.13,5.4-2.19,7.8-3.37,7.67-13.17,9.74-19.5,15.23-5.2,4.51-7.93,11.4-8.55,18.26s.68,13.76,2.41,20.43c1.61,6.17,3.65,12.35,7.3,17.59,2.46,3.52,11.15,12.68,16.23,10.1s4.94-13.08,10-16.71c2.57-1.85,6-2.47,8.19-4.75a26.05,26.05,0,0,0,2.7-3.93c1.6-2.4,3.82-4.37,5.26-6.87s1.92-5.93,0-8.11a11.75,11.75,0,0,1-6,1.07c-2-.32-1.74-1.62-1.81-3.69-.1-2.84.87-4.89,3.69-5.23s5.92,0,8.24-1.66c2.51-1.76,3.2-5.12,3.68-8.15.83-5.21-1.85-15.73-1-20.93-2.82-1.42-1.16-.17-3.9-1.75-2.07-1.2-4,3-4.2.58a19.47,19.47,0,0,0-5.71-11.94c-3-3-7.92-4.87-11.46-2.54A8.86,8.86,0,0,0,194.73,493.59Z"/><path d="M191.35,583.22l-.71-.68-.16.16A3.19,3.19,0,0,0,191.35,583.22Z"/><path class="cls-5" d="M218.62,545.27c-3.05,4.69-10.69,0-11.25-4.16A7,7,0,0,1,213,533.6c3.55-.53,7,1.82,10.59,1.52,1.89-.16,3.82-1,5.61-.41s2,4,.13,3.93"/><path d="M200,506a7.53,7.53,0,0,0-3.27-1.5,12.75,12.75,0,0,1-3.7-2,6.48,6.48,0,0,1-2.76-3.88,7.19,7.19,0,0,1,.53-4.23,6.9,6.9,0,0,1,2.29-3.08c1.22-.63,3.45-.4,4.8-.57a7.13,7.13,0,0,1,4.6,1.51c1.38.94,2.77,2.19,3.06,3.9a20.92,20.92,0,0,1-1.62,11.1c-.68,1.73-2.95,2.87-4.66,3.41s-4.68.94-6.42.31c-3.32-1.21-3.79-5.58-3.41-8.56.23-1.79.64-3.56,2.32-4.55a10.4,10.4,0,0,1,4.53-1.14,19.39,19.39,0,0,1,5.32-.18,7.07,7.07,0,0,1,2.72.66,20.6,20.6,0,0,0,2.72,1.55,8.52,8.52,0,0,1,2.87,2,3.42,3.42,0,0,1,1,2.48,11.08,11.08,0,0,1-.11,3.2c-.13.67-.49,1.28-.66,1.93-.29,1.14-.35,1.14-1.64,1.36"/><path d="M195.2,503.77c-1.32.77-2.63.38-3.94-.1a6.34,6.34,0,0,0-1.4-.43,2,2,0,0,1-1.64-1.22c-.93-1.71-.57-4-.39-5.82a7,7,0,0,1,.47-2.27c.31-.65.86-1.17,1.16-1.8.17-.38.16-.78.44-1.12s.7-.56,1-.94.33-.65.79-.94a8.72,8.72,0,0,1,1.19-.58,5.08,5.08,0,0,1,2.27-.71,14.73,14.73,0,0,1,2.48.29,5.91,5.91,0,0,1,1.06.4c.43.17.9.17,1.33.34a6.48,6.48,0,0,1,2.64,2.6c1.39,1.91,1.52,4.67,1.66,7a12.3,12.3,0,0,1-.86,5.26c-.41.92-.92,1.75-1.42,2.63a10.46,10.46,0,0,1-1.48,2.33,8.92,8.92,0,0,1-2.46,1.8,19.5,19.5,0,0,1-3,1.4,6.58,6.58,0,0,1-3.18,0,9,9,0,0,0-1.62-.52,5.81,5.81,0,0,1-1.75-.23,7,7,0,0,1-4.44-4,22.54,22.54,0,0,1-1.32-4.38c-.13-1-.2-2-.31-2.93a6.37,6.37,0,0,1,.45-3.08,4.3,4.3,0,0,1,.88-1.61c.39-.43.69-1,1.2-1.31,1.51-.81,3.15-.46,4.69-1a5.31,5.31,0,0,1,.89-.35c.5-.08,1-.1,1.53-.15a10.82,10.82,0,0,1,2.47-.14,7.25,7.25,0,0,1,2.69.78,3.8,3.8,0,0,1,2,2.46,10.37,10.37,0,0,1,.94,3.8,13.7,13.7,0,0,1-1,5.1,10.61,10.61,0,0,1-2.84,4.46,11.43,11.43,0,0,1-2.18,1.7,11.57,11.57,0,0,1-2.41.64c-1.74.38-3.49-.51-5-1.13-.3-.12-1.1-.29-1.31-.56s-.11-.72-.14-1"/><path d="M214.29,508.1c-1.32.77-2.63.38-3.94-.1a6.34,6.34,0,0,0-1.4-.43,2,2,0,0,1-1.64-1.22c-.93-1.71-.57-4-.39-5.82a7,7,0,0,1,.47-2.27c.31-.65.86-1.17,1.16-1.8.17-.38.16-.78.44-1.12s.7-.56,1-.94.33-.65.79-.94a9.21,9.21,0,0,1,1.18-.58,5.16,5.16,0,0,1,2.28-.71,14.73,14.73,0,0,1,2.48.29,7.13,7.13,0,0,1,1.06.39c.43.17.9.18,1.33.34a6.57,6.57,0,0,1,2.64,2.61c1.39,1.91,1.52,4.66,1.66,7a12.3,12.3,0,0,1-.86,5.26c-.41.92-.92,1.75-1.42,2.63a10.46,10.46,0,0,1-1.48,2.33,9.12,9.12,0,0,1-2.46,1.8,19.5,19.5,0,0,1-3,1.4,6.58,6.58,0,0,1-3.18.05,9,9,0,0,0-1.62-.52,5.77,5.77,0,0,1-1.75-.23,7,7,0,0,1-4.44-4,22.54,22.54,0,0,1-1.32-4.38c-.13-1-.2-2-.31-2.93a6.37,6.37,0,0,1,.45-3.08,4.3,4.3,0,0,1,.88-1.61c.39-.43.69-1,1.2-1.31,1.51-.81,3.15-.46,4.69-1a6.3,6.3,0,0,1,.89-.34c.5-.09,1-.1,1.53-.15a10.79,10.79,0,0,1,2.47-.14,7.25,7.25,0,0,1,2.69.78,3.8,3.8,0,0,1,2,2.46,10.37,10.37,0,0,1,.94,3.8,13.7,13.7,0,0,1-1,5.1,10.61,10.61,0,0,1-2.84,4.46,11.43,11.43,0,0,1-2.18,1.7,12.22,12.22,0,0,1-2.41.64c-1.74.38-3.49-.51-5-1.13-.31-.12-1.1-.29-1.31-.56s-.11-.72-.14-1"/><path class="cls-6" d="M301,503.82c2.68,1.14,5,2.8,7.78,3.65,2.3.69,4.44,1.72,6.85,2.23l2.56.62c.36-1,1.4-1.68,2-2.52a25.76,25.76,0,0,1,2.18-2.61c1.6-1.6,3.38-3.16,5.09-4.64a16.77,16.77,0,0,0,2.7-2.76c.68-.9,1.67-1.5,2.41-2.39,1.53-1.86,3.4-2.53,5.56-3.52a56.62,56.62,0,0,1,8.47-2.76,25.38,25.38,0,0,1,5.79-.39,21.37,21.37,0,0,1,4.05.3c1.26-8.77,6.35-15.24,4.71-26.15-.09-.34-.18-.68-.25-1-1.83-9.69-3.1-21.51,3.31-30,3-4,7.57-6.56,12.12-8.7a142.84,142.84,0,0,1,27.45-9.34c4-1,7.84-2.09,11.94-1.6,1.72.2,12.73.53,13.4,1.56a1.7,1.7,0,0,1-.17-.29l-.18-.15-.85-.71c-.12-.07-1.05-.76-1.32-.91-.73-.43-1.47-.83-2.23-1.21-.21-.11-.44-.2-.66-.31-1.81-.61-3.62-1.18-5.32-1.75-5.15-1.73-10.33-3.39-15.52-5-7.6-2.38-15.8-2.78-23.69-3.49s-15.89-1.69-23.86-2.32c-1.88-.15-3.51-.91-5,.46a52.81,52.81,0,0,0-3.83,3.8c-1.45,1.63-2.71,3.28-4.3,4.79-1.79,1.69-3.54,3.3-5.44,4.89-8.82,7.42-19.17,12.93-28.35,19.9-3.65,2.77-7.84,4.75-11.6,7.37-1.74,1.21-3.38,2.65-5,4a22.16,22.16,0,0,1-2.85,2,6.44,6.44,0,0,0-1.43.86c-.42.8.14,1.42.31,2.18a13.48,13.48,0,0,1,.05,1.42c.13,1.1.27,2.22.43,3.3.39,2.64,1.7,5.05,2.35,7.63.75,3,1.41,6,2,9a141.9,141.9,0,0,1,1.92,15.08c.31,4.21,1.55,8.62-.25,12.68-.78,1.76-2.59,5.43-5.08,4.84S298.57,502.81,301,503.82Z"/><path class="cls-4" d="M236.72,492.65c-5.11,6.57-4.31,24.48.06,30.36,5.39,7.25,13.62,11.74,21.93,14.82,7.32,2.71,13.85,4.68,21.61,3.45a59,59,0,0,1,16.12-.54,64.94,64.94,0,0,1,15.4,3.89c6.63,2.46,13.68,4.3,20.57,3.94,24,25,51.88,43.28,72.1,66.45a19.14,19.14,0,0,1,.94,2.06,50.81,50.81,0,0,1,.53,5.8c0,.92,0,1.85-.07,2.77-.05,1.58-.09,3.11-.11,4.69a19.47,19.47,0,0,0-.05,2c.05.61.24,1.23.25,1.84l.31.77c.08.69.05,1.4.16,2.08a9.56,9.56,0,0,0,.47,1.86c.08.25.16.49.25.75s.15.83.29,1.24.35,1.11.58,1.58.74.5,1.18.65a1.5,1.5,0,0,1,1,.9c.23.52.5,1,.74,1.53.15.33.26.66.43,1s.28.58.42.87a15.36,15.36,0,0,1,.73,2c.12.34.25.67.37,1a7.33,7.33,0,0,1,.2.93,4.6,4.6,0,0,0,.29.76c.14.27.22.58.36.85a3.92,3.92,0,0,0,1.09,1.37,1.44,1.44,0,0,0,.43.28c.22.06.51.05.74.09a7.11,7.11,0,0,1,1.51.25,7,7,0,0,1,1.22.84c.37.26.73.53,1.1.78a9.2,9.2,0,0,1,.72.67,2.62,2.62,0,0,1,.6.45c.14.18.32.33.46.53s.18.33.36.46a8.69,8.69,0,0,0,1,.73c.53.26.88-.26,1.21-.71a2.46,2.46,0,0,0,.36-.83,9.4,9.4,0,0,0,.42-1.49.58.58,0,0,0,0-.39c0-.08-.12-.13-.15-.22a.88.88,0,0,1,0-.32.82.82,0,0,0-.07-.31,10.53,10.53,0,0,0-1-1.91c-.42-.68-.87-1.34-1.33-2a1.47,1.47,0,0,1-.1-.13c.22.26.45.5.67.77a11.36,11.36,0,0,1,1.15,1.71,15.29,15.29,0,0,0,.92,1.91c.09.13.15.17.24.32s.31.52.47.77.26.28.38.44a3.68,3.68,0,0,1,.31.63,13.07,13.07,0,0,0,.67,1.29,7.77,7.77,0,0,0,1.56,2c.2.15.25.35.39.55a3.94,3.94,0,0,0,.44.47,2.14,2.14,0,0,1,.41.44c.14.24.21.49.33.74.2.45.5.82.68,1.29s.43.91.61,1.38a8.52,8.52,0,0,0,.58,1.26c.11.19.3.26.42.41s.2.31.3.46c.26.35.53.64.77,1s.57.81.86,1.19a23.86,23.86,0,0,1,1.39,2,5.67,5.67,0,0,0,1.7,1.34,2.26,2.26,0,0,0,2.29,0,3.22,3.22,0,0,0,1.56-1.68,2.07,2.07,0,0,0,.19-1.12c.05.22.13.45.19.66a2,2,0,0,0,.91,1.12,2.22,2.22,0,0,0,.46.29,5.71,5.71,0,0,1,.64.35,2.29,2.29,0,0,0,.67.22c.39.08.61-.11.91-.4a10.54,10.54,0,0,0,1.05-1.41,3.43,3.43,0,0,0,.66-1.61,4.06,4.06,0,0,0-.57-1.88,20.84,20.84,0,0,0-1-2.12c-.29-.51-.57-1-.83-1.54a15.66,15.66,0,0,0-1-1.8c-.41-.62-.56-1.51-.92-2.18-.19-.36-.41-.67-.61-1s-.27-.61-.44-.89a7.5,7.5,0,0,1-.71-2.06,6.57,6.57,0,0,0-.37-1.11c-.12-.26-.22-.53-.32-.8l4.2,9.28a.88.88,0,0,0,.31.57c.1.1.11.19.19.29a1.57,1.57,0,0,0,1.09.45c1,.06,1.62-1.21,1.94-2.23a3.88,3.88,0,0,0,.09-2c-.14-.71-.13-1.43-.26-2.13a5.24,5.24,0,0,0-.61-1.69,10.78,10.78,0,0,1-.79-1.72,25.35,25.35,0,0,0-1.85-3.2l-.48-.92c-.13-.25-.17-.54-.29-.79-.32-.71-.69-1.36-1-2.05a7.07,7.07,0,0,1-.47-1.13c-.11-.37-.28-.7-.38-1.06s-.25-.76-.38-1.14l3.33,7.19c.18.12.15.57.38.52s.26-.11.4-.14.28,0,.41-.09a1,1,0,0,0,.22-.33c.22-.47.55-.84.8-1.29a3.09,3.09,0,0,0,.34-1.44,4.53,4.53,0,0,0-.29-2c-.11-.33-.12-.68-.23-1s-.27-.7-.42-1-.29-.57-.39-.86a8.31,8.31,0,0,0-.31-.88c-.16-.33-.25-.71-.41-1a3.91,3.91,0,0,1-.4-.85,8.31,8.31,0,0,0-.74-1.69c-.25-.43-.35-1-.6-1.43s-.4-1-.64-1.48-.53-1.14-.8-1.7c-.1-.21-.28-.36-.37-.58s-.17-.58-.3-.84c-.26-.51-.44-1.07-.7-1.59s-.62-.75-.88-1.2a9.61,9.61,0,0,1-.74-1.51c-.18-.45-.49-.76-.7-1.18-.14-.27-.21-.58-.34-.86a10.39,10.39,0,0,1-.48-1.29c-.17-.53-.38-1-.59-1.51a3.67,3.67,0,0,0-.88-1.16,2.31,2.31,0,0,1-.4-.76c-.11-.3-.24-.53-.37-.81a3.28,3.28,0,0,0-.24-.54,3.63,3.63,0,0,1-.53-.72,6.07,6.07,0,0,0-.37-1.09,12.4,12.4,0,0,0-1.43-1.37c-.17-.16-.36-.29-.53-.46a18.63,18.63,0,0,1-1.62-1.9,11,11,0,0,0-1-1.22,12,12,0,0,1-1-.78c-.78-.82-1.72-1.44-2.51-2.27-.25-.26-.42-.61-.67-.86a13,13,0,0,1-1.14-1,21.75,21.75,0,0,0-2.2-1.89c-.8-.73-1.51-1.57-2.26-2.4l-.09,0a13.44,13.44,0,0,0-1.71-.83,37.57,37.57,0,0,0-1.87-3.42c-8.66-14.49-16.76-29.56-26.78-42.82-6.39-8.43-13.28-23.07-20.89-29.62s-11.23-6.43-19.84-10.83a56.07,56.07,0,0,0-8.08-2.34h-.06c-.34-.07-.66-.12-1-.17-.89-.17-1.88-.39-2.94-.64-11.88-4.41-48.44-22-60.83-24.34m144.43,158c.07.26.45.58.61.76s.17.19.25.28A2.2,2.2,0,0,1,420.42,648.76ZM441,669.13a8.09,8.09,0,0,1-1.3-2c-.14-.33-.26-.67-.38-1Zm-3.05-5.35a4.53,4.53,0,0,0-.43-.55l-1-1a6.14,6.14,0,0,1-.89-1.23,8,8,0,0,0-.82-1.15,4.78,4.78,0,0,1-.71-1.75,13,13,0,0,0-.57-1.63,32,32,0,0,1-1.74-3.4Zm.43-13.64c-.05-.09-.11-.17-.15-.25-.12-.24-.16-.49-.29-.72a7.51,7.51,0,0,0-1.44-2.07c-.35-.3-.21-.76-.41-1.26s-.38-1.21-.6-1.71c-.45-1-.94-1.56-1.37-2.58-.21-.5-.53-.76-.62-1.35a8.11,8.11,0,0,1-.31-1.19l-.18-.73Zm.11-11.84a7.71,7.71,0,0,1-1-2.19Zm-1.57-3.19a3.26,3.26,0,0,1-.31-.62ZM435.78,633c-.07,0-.12-.06-.12-.12S435.71,632.88,435.78,633Z"/><path class="cls-7" d="M241,445.77a134.39,134.39,0,0,1,26.93-1.34,72.85,72.85,0,0,1,13.6,2c2.07.49,4.18.83,6.29,1.15a1.87,1.87,0,0,1,0-.53,3.27,3.27,0,0,1,.55-1.18,6.87,6.87,0,0,1,2.14-1.9l.36-.22c-2.92-.47-5.88-.85-8.74-1.57-1.54-.39-4.23-1.05-6.27-1.35-2.56-.37-5.14-.57-7.73-.69a145.85,145.85,0,0,0-22.19.67C244.29,442.5,242.64,444.14,241,445.77Z"/><path class="cls-7" d="M233.27,456.69c-.53.79-1,1.61-1.55,2.41-.15.23-.3.46-.44.69s-.2.4-.32.58l-.05.07-.15.32c-.1.24-.18.48-.26.72,0,.06-.05.11-.07.17-.1,3.05-.15,6.12-.09,9.19.18,8.71,1.14,23.49,2.64,32.1l.31-.45a19.29,19.29,0,0,1,.89-5.2c.25-.8.54-1.61.87-2.4a.44.44,0,0,1,0-.62c.18-.21.38-.41.57-.61a8.36,8.36,0,0,1,1-1.48,168.15,168.15,0,0,1-2-19.34,183.77,183.77,0,0,1,.41-18.64C234.5,455.06,233.82,455.86,233.27,456.69Z"/><path class="cls-8" d="M417.25,649.85a3.5,3.5,0,0,0-1.24.73,10.33,10.33,0,0,0-.67.79c-.19.22-.4.4-.61.61s-.75.45-.76,1.07"/><path class="cls-8" d="M417.9,651.77a8.31,8.31,0,0,1-.76,1.69c-.1.18-.18.37-.28.54s-.36.41-.44.64"/><path class="cls-8" d="M438.91,673.79a19.61,19.61,0,0,1-1.3-1.62,3.74,3.74,0,0,1-.28-1.14,3.61,3.61,0,0,1,.09-1.53,3.35,3.35,0,0,1,.62-1.1c.7-.58,1.48.15,2,.58a4.8,4.8,0,0,1,.85.89c.11.15.17.32.28.46a4.15,4.15,0,0,1,.64,1"/><path class="cls-8" d="M444.09,673.22a12.66,12.66,0,0,1-1-1.07,2.15,2.15,0,0,1-.49-1.36c0-.4,0-.82,0-1.22,0-.1-.05-.18-.05-.29a2.42,2.42,0,0,1,.13-.53,2.51,2.51,0,0,1,.72-1.33c.26-.25.67-.59,1-.44a5.11,5.11,0,0,1,.95.67c.23.18,2,1.36,1.68,1.56a4.77,4.77,0,0,0,.05,1"/><path class="cls-8" d="M445.9,665.08a12.17,12.17,0,0,1-.73-1.09,3.23,3.23,0,0,1-.56-1.2,2.26,2.26,0,0,1-.1-1.56c.06-.25.22-.33.36-.51a1.9,1.9,0,0,1,.38-.42c.13-.12.2-.26.35-.34a1.57,1.57,0,0,1,.43-.09,1,1,0,0,1,.79.41,5.81,5.81,0,0,1,.61,1.13c.09.19.21.35.3.54a6.49,6.49,0,0,1,.34.93c-.14,0-.3,1.13-.41,1"/><path class="cls-8" d="M434.91,654.26a4.94,4.94,0,0,1,.73-1.07,2.34,2.34,0,0,1,1.08-.84"/><path class="cls-8" d="M435.5,656.28a2.43,2.43,0,0,0,.61-.29,3.1,3.1,0,0,0,1-.73,3.68,3.68,0,0,0,.64-.89c.09-.18.18-.34.25-.52a1.52,1.52,0,0,1,.15-.47"/><path class="cls-8" d="M439.31,646.2c.21-.22.41-.45.62-.65a.6.6,0,0,1-.31.28"/><path class="cls-8" d="M438.43,645.42c.42-.4.83-.85,1.28-1.22a1.61,1.61,0,0,1,.58-.36"/><path class="cls-8" d="M440.21,637.68a9.53,9.53,0,0,1,.77-1.49c.11-.18.35-.41.33-.64"/><path class="cls-8" d="M429.4,658.9c.18-.27,1.27-1.6,1.49-1.8.71-.79.15-.1.2-.18"/><path class="cls-8" d="M428.25,658.31a6.68,6.68,0,0,1,2.87-3.45c.26-.13.36-.5.58-.7"/><path class="cls-8" d="M444.39,651.69c-.05-.17-.64-1.26-.67-1.45a2.39,2.39,0,0,1,0-.8,6.84,6.84,0,0,1,.71-1.64c.2-.41.42-.85.85-.86a1.25,1.25,0,0,1,1,.76c.24.44.44.86.65,1.31.12.26.56,1.15.47,1.43"/><path class="cls-8" d="M419.79,656.45c-1-1,.57-1.45,1.13-1.4,1.26.13,3.91.39,3.7,2.66"/></svg>