<svg id="Layer_1" data-name="Layer 1" xmlns="http://www.w3.org/2000/svg" viewBox="0 0 780 1051.14"><defs><style>.cls-1,.cls-2{fill:#fff;}.cls-1{opacity:0.7;}.cls-3,.cls-5,.cls-8{fill:#d4a47c;}.cls-3,.cls-4,.cls-5,.cls-6,.cls-7,.cls-8{stroke:#fff;stroke-miterlimit:10;}.cls-3{stroke-width:0.41px;}.cls-4{fill:#c6946f;stroke-width:0.27px;}.cls-5{stroke-width:0.28px;}.cls-6{fill:#005058;stroke-width:0.53px;}.cls-7{fill:#fff171;stroke-width:0.3px;}.cls-8{stroke-width:0.32px;}</style></defs><path d="M66,207.09v7.25H68.1l4.24-7.25h3.51l-5,8.61,5.45,8.65h-3.6L68.08,217H66v7.37H63V207.09Z"/><path d="M80.49,211.43l.46,2.29a4.77,4.77,0,0,1,4.42-2.41c3,0,4.49,1.94,4.49,4.61v8.43H86.8V216.9c0-2-.74-3-2.42-3-2.34,0-3.25,1.9-3.25,4v6.51H78.07V211.43Z"/><path d="M104.31,220.8a5.76,5.76,0,0,1-5.57,3.7c-4.34,0-6.27-2.71-6.27-6.76s2.72-6.53,6.44-6.43c3,.07,5.74,2.34,5.45,6.46l0,.39H95.58c0,2.2.94,3.7,3.18,3.7a2.89,2.89,0,0,0,2.79-2.05Zm-3.13-4.22c0-2-1-2.93-2.54-2.88a2.87,2.87,0,0,0-2.91,2.88Z"/><path d="M118.39,220.8a5.76,5.76,0,0,1-5.57,3.7c-4.34,0-6.26-2.71-6.26-6.76s2.71-6.53,6.43-6.43c3,.07,5.75,2.34,5.45,6.46l0,.39h-8.73c0,2.2.94,3.7,3.18,3.7a2.87,2.87,0,0,0,2.79-2.05Zm-3.13-4.22c0-2-1-2.93-2.54-2.88a2.87,2.87,0,0,0-2.91,2.88Z"/><path d="M121.48,220.65a6.68,6.68,0,0,0,4.19,1.43c1.48,0,2.34-.44,2.34-1.5,0-2.52-7.47-.84-7.22-5.57.1-2.32,1.8-3.7,5.23-3.7a10.49,10.49,0,0,1,4.66,1.21l-1.09,2.17a7.25,7.25,0,0,0-3.7-1.06c-1.21,0-2.22.39-2.17,1.4.15,2.05,7.33.47,7.33,5.45,0,2.66-2.4,4-5.45,4a8.83,8.83,0,0,1-5.31-1.68Z"/><path d="M141.13,211.43l.45,2.29a4.34,4.34,0,0,1,4-2.44,3.77,3.77,0,0,1,3.85,2.39,4.57,4.57,0,0,1,4.17-2.39c3,0,4.21,2,4.21,4.64v8.43h-3.05V216.9c0-2-.47-3-2.15-3-2.22,0-2.81,1.68-2.81,3.58v6.9h-3.06V216.9c0-2-.47-3-2.14-3-2.37,0-2.84,1.9-2.84,4v6.51h-3.06V211.43Z"/><path d="M163.8,211.43v7.45c0,2,.79,3,2.59,3,2.34,0,3.3-2.42,3.3-4.86v-5.62h3.06v12.92h-2.44l-.44-2.81a4.72,4.72,0,0,1-4.47,3c-3.15,0-4.66-1.95-4.66-5.2v-7.87Z"/><path d="M176.26,220.65a6.68,6.68,0,0,0,4.19,1.43c1.48,0,2.34-.44,2.34-1.5,0-2.52-7.47-.84-7.22-5.57.1-2.32,1.8-3.7,5.22-3.7a10.49,10.49,0,0,1,4.66,1.21l-1.08,2.17a7.25,7.25,0,0,0-3.7-1.06c-1.21,0-2.22.39-2.17,1.4.15,2.05,7.32.47,7.32,5.45,0,2.66-2.39,4-5.44,4a8.83,8.83,0,0,1-5.31-1.68Z"/><path d="M192.29,207.78v3.77h3.25l-.42,2.47h-2.83v5.92c0,1.4.64,1.95,1.67,1.95a5.72,5.72,0,0,0,1.95-.57l.57,2.34a8.1,8.1,0,0,1-3.28.84c-3,0-4-2-4-4.14V214h-1.8v-2.47h1.95l.37-3.42Z"/><path d="M65.83,239.43v8.21a4.43,4.43,0,0,1,4.32-2.42c2.44.07,5.06,1.73,5.06,6.49,0,3.89-1.95,6.7-5.45,6.7a4.27,4.27,0,0,1-4.07-2.36l-.42,2.21H62.78V239.82Zm-.12,12.35c0,2.22.82,4,3.26,4,2,0,3.1-1.5,3.1-4,0-3-1.5-3.94-3.13-3.94S65.71,249.19,65.71,251.78Z"/><path d="M89.24,254.71a5.76,5.76,0,0,1-5.57,3.7c-4.34,0-6.27-2.71-6.27-6.75s2.72-6.54,6.44-6.44c3,.07,5.74,2.34,5.45,6.46l-.05.39H80.51c0,2.2.94,3.7,3.18,3.7a2.88,2.88,0,0,0,2.79-2Zm-3.13-4.21c0-2-1-2.94-2.54-2.89a2.88,2.88,0,0,0-2.91,2.89Z"/><path d="M99.58,245.34l.44,2.32a4.7,4.7,0,0,1,4.41-2.44c2.45.07,5.08,1.73,5.08,6.49,0,3.89-1.94,6.7-5.47,6.7a4,4,0,0,1-3.82-2.09v6.88H97.13V245.34Zm.42,6.44c0,2.22.81,4,3.27,4,2,0,3.11-1.5,3.11-4,0-3-1.5-3.94-3.13-3.94C101.47,247.79,100,249.19,100,251.78Z"/><path d="M115.09,245.34v7.45c0,2,.79,3,2.59,3,2.34,0,3.3-2.41,3.3-4.85v-5.63H124v12.92H121.6l-.44-2.81a4.72,4.72,0,0,1-4.47,3c-3.15,0-4.66-1.94-4.66-5.2v-7.87Z"/><path d="M130.26,239.43v14.62c0,1.38.61,1.75,1.53,1.75a2.42,2.42,0,0,0,1.28-.47l.57,2.2a5.37,5.37,0,0,1-2.79.88c-2.56,0-3.65-1.72-3.65-4.07V239.8Z"/><path d="M137.24,239.43v14.62c0,1.38.61,1.75,1.53,1.75a2.46,2.46,0,0,0,1.28-.47l.57,2.2a5.37,5.37,0,0,1-2.79.88c-2.56,0-3.65-1.72-3.65-4.07V239.8Z"/><path d="M153.1,254.71a5.78,5.78,0,0,1-5.58,3.7c-4.34,0-6.26-2.71-6.26-6.75s2.71-6.54,6.44-6.44c3,.07,5.74,2.34,5.44,6.46l0,.39h-8.73c0,2.2.93,3.7,3.18,3.7a2.86,2.86,0,0,0,2.78-2ZM150,250.5c0-2-1-2.94-2.54-2.89a2.89,2.89,0,0,0-2.91,2.89Z"/><path d="M167.92,239.43v18.83h-2.57l-.34-2.21a4.53,4.53,0,0,1-4.12,2.36c-3.48,0-5.55-2.83-5.55-6.63,0-4.64,3-6.56,5.53-6.56a4.11,4.11,0,0,1,4,2.44v-7.84Zm-9.42,12.32c0,2.2.86,3.93,3.16,3.93s3.25-1.73,3.25-3.9c0-2.93-1.58-4-3.28-4S158.5,248.92,158.5,251.75Z"/><path d="M180.23,245.34v12.92h-3.08V247.88h-1.8v-2.54Zm-1.56-5a1.65,1.65,0,0,1,1.83,1.56,1.83,1.83,0,0,1-3.63,0A1.59,1.59,0,0,1,178.67,240.31Z"/><path d="M185.8,245.34l.47,2.3a4.76,4.76,0,0,1,4.41-2.42c3,0,4.49,1.95,4.49,4.61v8.43h-3.06v-7.44c0-2-.74-3-2.41-3-2.34,0-3.26,1.89-3.26,4v6.51h-3.05V245.34Z"/><path d="M202.25,241.69v3.78h3.26l-.42,2.46h-2.84v5.92c0,1.41.64,2,1.68,2a5.5,5.5,0,0,0,1.95-.57l.56,2.34a7.94,7.94,0,0,1-3.28.84c-3,0-4-2-4-4.14v-6.34h-1.8v-2.46h2l.37-3.43Z"/><path d="M213.6,245.22c3.23,0,6,2.19,6,6.61,0,3.62-2.15,6.58-6.17,6.58-4.36,0-6.16-3-6.16-6.58C207.31,247.41,210.1,245.22,213.6,245.22Zm-3.09,6.61c0,2,.7,4,3,4,2.1,0,3-1.94,3-4,0-2.86-1.41-4-3-4S210.51,248.92,210.51,251.83Z"/><path d="M66.75,275.61v3.77H70l-.42,2.47H66.75v5.91c0,1.41.64,1.95,1.67,1.95a5.76,5.76,0,0,0,2-.56l.57,2.34a8.1,8.1,0,0,1-3.28.84c-3,0-4-2-4-4.15v-6.33h-1.8v-2.47h2l.37-3.43Z"/><path d="M76,273.34v8a4.81,4.81,0,0,1,4.24-2.2c3,0,4.49,1.95,4.49,4.61v8.44H81.62v-7.45c0-2-.74-3-2.42-3-2.34,0-3.25,1.9-3.25,4v6.51H72.89V273.71Z"/><path d="M99.08,288.63a5.76,5.76,0,0,1-5.57,3.7c-4.34,0-6.27-2.72-6.27-6.76S90,279,93.68,279.13c3,.08,5.75,2.35,5.45,6.46l0,.4H90.35c0,2.19.94,3.7,3.18,3.7a2.89,2.89,0,0,0,2.79-2.05ZM96,284.41c0-2-1-2.93-2.54-2.88a2.87,2.87,0,0,0-2.91,2.88Z"/><path d="M118.22,288.55c-.84,2.64-3,3.78-5.62,3.78-4.24,0-6.07-3.16-6.07-6.61,0-4.22,2.62-6.51,6.14-6.59,3.11-.07,5,1.53,5.5,3.8l-2.84.91a2.54,2.54,0,0,0-2.61-2.12c-1.77,0-3.13,1.31-3.13,3.95,0,2.09.79,4,3.08,4a2.59,2.59,0,0,0,2.71-2Z"/><path d="M123.75,273.34v8a4.81,4.81,0,0,1,4.24-2.2c3,0,4.49,1.95,4.49,4.61v8.44h-3.06v-7.45c0-2-.74-3-2.42-3-2.34,0-3.25,1.9-3.25,4v6.51h-3.06V273.71Z"/><path d="M146.88,288.63a5.76,5.76,0,0,1-5.57,3.7c-4.34,0-6.27-2.72-6.27-6.76s2.72-6.53,6.44-6.44c3,.08,5.74,2.35,5.45,6.46l-.05.4h-8.73c0,2.19.94,3.7,3.18,3.7a2.89,2.89,0,0,0,2.79-2.05Zm-3.13-4.22c.05-2-1-2.93-2.54-2.88a2.87,2.87,0,0,0-2.91,2.88Z"/><path d="M150,288.48a6.73,6.73,0,0,0,4.2,1.43c1.48,0,2.34-.44,2.34-1.51,0-2.51-7.47-.83-7.23-5.57.1-2.32,1.8-3.7,5.23-3.7a10.49,10.49,0,0,1,4.66,1.21l-1.08,2.17a7.36,7.36,0,0,0-3.7-1.06c-1.21,0-2.22.4-2.17,1.41.15,2,7.32.47,7.32,5.45,0,2.66-2.39,4-5.45,4a8.86,8.86,0,0,1-5.3-1.68Z"/><path d="M166,275.61v3.77h3.25l-.42,2.47H166v5.91c0,1.41.64,1.95,1.67,1.95a5.76,5.76,0,0,0,2-.56l.57,2.34a8.1,8.1,0,0,1-3.28.84c-3,0-4-2-4-4.15v-6.33h-1.8v-2.47h2l.37-3.43Z"/><path d="M90.78,323.31A68.38,68.38,0,0,0,105.37,354a80.71,80.71,0,0,0,24.29,19.46A89.76,89.76,0,0,0,145,379.84c1.85.58,2.64-2.31.8-2.89-19-6-36.51-18.64-45.91-36.51a64.71,64.71,0,0,1-6.23-17.93c-.37-1.89-3.26-1.09-2.89.8Z"/><path d="M135.73,367.88c3.18,3.6,6,7.49,8.9,11.32l.53-2.05c-2.34,1-4.63,2.08-6.95,3.11-2.07.91-4.18,1.74-6.25,2.66a1.51,1.51,0,0,0-.54,2.05,1.54,1.54,0,0,0,2.05.54c2.07-.92,4.18-1.75,6.25-2.66,2.33-1,4.62-2.12,7-3.11a1.5,1.5,0,0,0,.54-2.05c-3.06-4-6-8.14-9.37-11.93-1.28-1.45-3.39.67-2.12,2.12Z"/><path class="cls-1" d="M148.79,61.4a36.73,36.73,0,0,1,8.33-23.32,34.4,34.4,0,0,0-45.48-4.38A34.43,34.43,0,0,0,131.9,96a34.33,34.33,0,0,0,25.32-11.11A36.76,36.76,0,0,1,148.79,61.4ZM138,75.49s-3.7-.27-11.47-.27a25.63,25.63,0,0,0-4.93.31l-1.35-2.46c7.78-7.9,12.4-13.63,13-18.71.47-3.66-2-4.82-4.35-4.66a9.73,9.73,0,0,0-6.73,3.92c-.2-.23-1.93-2.07-1.47-2.65A12.43,12.43,0,0,1,130,46.12c5.89,0,9.09,3,8.74,8.51-.46,7-8,13.59-12.63,17.55l8.32-.08c1.77-.15,3-2.54,3.81-4.73,0,0,1.73.5,2,1C139.58,71.53,138.81,75.49,138,75.49Z"/><path class="cls-1" d="M95.79,61.4A36.74,36.74,0,0,1,104.16,38a34.44,34.44,0,1,0,.11,46.9A36.78,36.78,0,0,1,95.79,61.4ZM87.2,75.66H70.92L71,73.39l4.46-.58c.58,0,.81-.23.81-1,.08-10.05,0-19.6,0-19.6l-5.62,1.08c-.19-.31-1.12-2.46-.46-2.73l10.35-4,1,1s-.12,20.87,0,24.37c0,.77.19,1,.73,1l5.08.54Z"/><circle cx="184" cy="61.53" r="34.44"/><path class="cls-2" d="M187.93,59.13c3.47.62,5.47,2.93,5.66,6.7.31,6-4.58,9.66-11.24,9.66a15.53,15.53,0,0,1-7.86-2.19l1-2.89a21.48,21.48,0,0,0,7,1.66c3.35,0,5.51-1.74,5.55-5.24,0-2.46-1.43-4.35-4.47-4.74a17.82,17.82,0,0,0-5,.24c-.5.11-.89-3-.42-3.08,3-.54,7.62-1.08,8.39-4.89.73-3.62-2-4.82-4.35-4.66A8.43,8.43,0,0,0,176,52.82c-.2-.23-1.7-2.12-1-3a10.43,10.43,0,0,1,8.16-3.69c5.89,0,9.12,3,8.74,8.51A6,6,0,0,1,187.93,59.13Z"/><path d="M243.45,38.34l-.27,3.12h-5.55V59.34h-3.75V41.46h-5.76V38.34Z"/><path d="M249.6,36.42v9.72a5.86,5.86,0,0,1,5.16-2.67c3.69,0,5.46,2.37,5.46,5.61V59.34H256.5V50.28c0-2.4-.9-3.69-2.94-3.69-2.85,0-4,2.31-4,4.83v7.92h-3.72V36.87Z"/><path d="M277.74,55a7,7,0,0,1-6.78,4.5c-5.28,0-7.62-3.3-7.62-8.22s3.3-7.95,7.83-7.83c3.69.09,7,2.85,6.63,7.86l-.06.48H267.12c0,2.67,1.14,4.5,3.87,4.5a3.5,3.5,0,0,0,3.39-2.49Zm-3.81-5.13c.06-2.43-1.26-3.57-3.09-3.51a3.5,3.5,0,0,0-3.54,3.51Z"/><path d="M284,43.62l.57,2.79A5.8,5.8,0,0,1,290,43.47c3.69,0,5.46,2.37,5.46,5.61V59.34h-3.72V50.28c0-2.4-.9-3.69-2.94-3.69-2.85,0-4,2.31-4,4.83v7.92h-3.72V43.62Z"/><path d="M310.29,39.18v4.59h4l-.51,3h-3.45V54c0,1.71.78,2.37,2,2.37a6.83,6.83,0,0,0,2.37-.69l.69,2.85a9.82,9.82,0,0,1-4,1c-3.69,0-4.83-2.46-4.83-5V46.77h-2.19v-3h2.37l.45-4.17Z"/><path d="M321.48,36.42v9.72a5.86,5.86,0,0,1,5.16-2.67c3.69,0,5.46,2.37,5.46,5.61V59.34h-3.72V50.28c0-2.4-.9-3.69-2.94-3.69-2.85,0-4,2.31-4,4.83v7.92h-3.72V36.87Z"/><path d="M349.62,55a7,7,0,0,1-6.78,4.5c-5.28,0-7.62-3.3-7.62-8.22s3.3-7.95,7.83-7.83c3.69.09,7,2.85,6.63,7.86l-.06.48H339c0,2.67,1.14,4.5,3.87,4.5a3.5,3.5,0,0,0,3.39-2.49Zm-3.81-5.13c.06-2.43-1.26-3.57-3.09-3.51a3.5,3.5,0,0,0-3.54,3.51Z"/><path d="M360.15,43.77V41.64c0-3.12,1.62-5.22,5.16-5.22a6.41,6.41,0,0,1,3.6,1.08v-.72l3.72-.36V54.21c0,1.68.72,2.13,1.83,2.13a2.81,2.81,0,0,0,1.56-.57l.72,2.67a6.6,6.6,0,0,1-3.42,1.08c-3.09,0-4.41-2.1-4.41-5V40.08a6,6,0,0,0-2.7-.69c-1.47,0-2.31.6-2.31,2.85v1.53h3.18l-.48,3h-2.7V59.34h-3.75V46.77h-2.46v-3Z"/><path d="M383.37,43.62V59.34h-3.75V46.71h-2.19V43.62Zm-1.89-6.12a2,2,0,0,1,2.22,1.89,2.22,2.22,0,0,1-4.41,0A1.93,1.93,0,0,1,381.48,37.5Z"/><path d="M401.85,43.62V57c0,5.22-2,8.37-7.8,8.37A16.38,16.38,0,0,1,387.63,64l.87-2.82a13.33,13.33,0,0,0,5.13,1.17c3.39,0,4.5-1.68,4.5-4.26V56.7a5.42,5.42,0,0,1-4.83,2.49c-4.23.09-6.66-3.12-6.66-7.74,0-5.64,3.6-8,6.72-8a5.2,5.2,0,0,1,5,2.85l.39-2.7Zm-11.34,7.8c0,2.67,1.05,4.77,3.84,4.77s3.9-2.1,3.9-4.74c0-3.57-1.89-4.86-3.93-4.86S390.51,48,390.51,51.42Z"/><path d="M409.41,36.42v9.72a5.86,5.86,0,0,1,5.16-2.67c3.69,0,5.46,2.37,5.46,5.61V59.34h-3.72V50.28c0-2.4-.9-3.69-2.94-3.69-2.85,0-4,2.31-4,4.83v7.92h-3.72V36.87Z"/><path d="M428.58,39.18v4.59h4l-.51,3h-3.45V54c0,1.71.78,2.37,2,2.37a6.83,6.83,0,0,0,2.37-.69l.69,2.85a9.82,9.82,0,0,1-4,1c-3.69,0-4.83-2.46-4.83-5V46.77h-2.19v-3H425l.45-4.17Z"/><path d="M445.29,43.62l.54,2.82a5.71,5.71,0,0,1,5.37-3c3,.09,6.18,2.1,6.18,7.89,0,4.74-2.37,8.16-6.66,8.16A4.88,4.88,0,0,1,446.07,57v8.37h-3.75V43.62Zm.51,7.83c0,2.7,1,4.86,4,4.86,2.43,0,3.78-1.83,3.78-4.92,0-3.66-1.83-4.8-3.81-4.8C447.6,46.59,445.8,48.3,445.8,51.45Z"/><path d="M464.37,36.42v9.72a5.86,5.86,0,0,1,5.16-2.67c3.69,0,5.46,2.37,5.46,5.61V59.34h-3.72V50.28c0-2.4-.9-3.69-2.94-3.69-2.85,0-4,2.31-4,4.83v7.92h-3.72V36.87Z"/><path d="M478.41,44.61a18.74,18.74,0,0,1,5.94-1.14c4.74,0,6.48,2.34,6.48,6v6.36a.79.79,0,0,0,.75.9,3,3,0,0,0,1.23-.18V59a6.08,6.08,0,0,1-2.49.48,2.84,2.84,0,0,1-2.85-2.13,6.87,6.87,0,0,1-4.74,2.13c-3.06,0-5.34-1.56-5.37-4.83s2.46-5,6.39-5a24.49,24.49,0,0,1,3.39.3v-.93c0-1.71-1.08-2.64-3.24-2.61a12.68,12.68,0,0,0-4.86,1Zm8.7,7.35a16.62,16.62,0,0,0-3.06-.18c-1.8.09-2.94.93-3,2.52a2.21,2.21,0,0,0,2.55,2.31,6.17,6.17,0,0,0,3.48-1.26Z"/><path d="M495.81,54.84a8.15,8.15,0,0,0,5.1,1.74c1.8,0,2.85-.54,2.85-1.83,0-3.06-9.09-1-8.79-6.78.12-2.82,2.19-4.5,6.36-4.5A12.78,12.78,0,0,1,507,44.94l-1.32,2.64a8.9,8.9,0,0,0-4.5-1.29c-1.47,0-2.7.48-2.64,1.71.18,2.49,8.91.57,8.91,6.63,0,3.24-2.91,4.92-6.63,4.89a10.76,10.76,0,0,1-6.45-2Z"/><path d="M524.28,55a7,7,0,0,1-6.78,4.5c-5.28,0-7.62-3.3-7.62-8.22s3.3-7.95,7.83-7.83c3.69.09,7,2.85,6.63,7.86l-.06.48H513.66c0,2.67,1.14,4.5,3.87,4.5a3.5,3.5,0,0,0,3.39-2.49Zm-3.81-5.13c.06-2.43-1.26-3.57-3.09-3.51a3.5,3.5,0,0,0-3.54,3.51Z"/><path d="M238,67.38l-.26,1.1a7.49,7.49,0,0,0-1.65-.2c-2.41,0-3.57.87-3.57,4.06V74.2h4.38l-.29,1.19h-4.09V89.25h-1.39V75.39h-3.05V74.2h3.05v-2c0-3.69,1.82-5.08,4.81-5.08A9.18,9.18,0,0,1,238,67.38Z"/><path d="M245.79,89.43c-4.58,0-6.58-3.48-6.58-7.75,0-5.19,3-7.77,6.7-7.77,3.39,0,6.46,2.58,6.46,7.77C252.37,86,250,89.43,245.79,89.43Zm0-1.19c3.48,0,5.19-3.17,5.19-6.56,0-4.67-2.46-6.58-5.07-6.58-2.82,0-5.28,1.8-5.28,6.58C240.63,85.05,241.93,88.24,245.79,88.24Z"/><path d="M258.84,80.38v8.87h-1.39V74.05h1.13l.26,3.08c.64-1.95,2.35-3.22,5.07-3.22a8.65,8.65,0,0,1,1.63.14l-.2,1.28a4.73,4.73,0,0,0-1.51-.2C260.38,75.13,258.84,77.65,258.84,80.38Z"/><path d="M287.32,85.45l1.1.67a7,7,0,0,1-6,3.31c-4.79,0-6.82-3.28-6.82-8,0-4.91,3-7.57,6.84-7.57,3.51,0,6.36,2.55,6,7.28l-.06.49H277c0,4,1.65,6.56,5.48,6.56A5.68,5.68,0,0,0,287.32,85.45Zm-10.24-5h10c0-3.86-2-5.39-4.65-5.39C279.69,75.1,277.34,76.75,277.08,80.49Z"/><path d="M303.18,89.25l-4.58-6.7-4.7,6.7h-1.6l5.51-7.71-5-7.49h1.62l4.21,6.44L303,74.05h1.59l-5.16,7.43,5.34,7.77Z"/><path d="M313.65,89.43c-3.08,0-5.4-1.48-5.4-4.76s2.82-4.76,6.15-4.76a19.84,19.84,0,0,1,4.76.64V79c0-2.52-1.57-3.85-4.64-3.85a11.33,11.33,0,0,0-5,1.16l-.32-1.19a13.82,13.82,0,0,1,5.31-1.16c4.52,0,6,2.32,6,5.25v8.21c0,.43.09.81.64.87a5.49,5.49,0,0,0,1.48-.18v1.08a4.75,4.75,0,0,1-1.62.29,2,2,0,0,1-1.89-2.15A9,9,0,0,1,313.65,89.43Zm0-1.22a9.43,9.43,0,0,0,5.51-2.12V81.62a26.39,26.39,0,0,0-5-.58c-2.9,0-4.52,1.16-4.52,3.66C309.65,86.9,311.1,88.21,313.65,88.21Z"/><path d="M327.83,74.05l.23,3a5.11,5.11,0,0,1,4.67-3.19c2.7-.09,4.09,1.19,4.7,3a5.46,5.46,0,0,1,5-3c3.83-.12,5.05,2.43,5.05,5.42v9.92h-1.4v-10c0-2.72-1.24-4.14-3.74-4.14-3.48,0-4.58,2.43-4.58,5v9.14h-1.39v-10c0-2.72-1.25-4.14-3.75-4.14-3.65,0-4.58,2.69-4.58,5.42v8.73h-1.39V74.05Z"/><path d="M354.33,74.05l.27,3.08a6.22,6.22,0,0,1,5.62-3.22c3.4,0,6.62,2.17,6.62,7.63,0,4.58-2.27,7.89-6.85,7.89a5.62,5.62,0,0,1-5.39-3.22v8.84h-1.43v-21Zm5.78,14.19c3.65,0,5.33-2.93,5.33-6.67,0-4.91-2.58-6.47-5.39-6.47-3.11,0-5.57,2.52-5.57,6.55C354.48,85,355.67,88.24,360.11,88.24Z"/><path d="M373.33,85.42c0,2.15.9,2.76,2.32,2.76a4.81,4.81,0,0,0,2.44-.87l.63,1.1a5.69,5.69,0,0,1-3.07,1c-2.9,0-3.71-1.74-3.71-4V67.35l1.39-.26Z"/><path d="M391.89,85.45l1.1.67a6.94,6.94,0,0,1-6,3.31c-4.79,0-6.82-3.28-6.82-8,0-4.91,3-7.57,6.85-7.57,3.51,0,6.35,2.55,6,7.28l-.06.49h-11.4c0,4,1.66,6.56,5.49,6.56A5.68,5.68,0,0,0,391.89,85.45Zm-10.24-5h10c0-3.86-2-5.39-4.64-5.39C384.26,75.1,381.91,76.75,381.65,80.49Z"/><path d="M397.66,89.4c0-.58-.75-.53-.75-.53a1.12,1.12,0,0,1,0-2.23c1.45,0,2,1.34,1.82,2.73a3.29,3.29,0,0,1-3.45,2.81v-.9A2.13,2.13,0,0,0,397.66,89.4Z"/><path d="M414.6,89.43c-3.08,0-5.4-1.48-5.4-4.76s2.81-4.76,6.15-4.76a19.84,19.84,0,0,1,4.76.64V79c0-2.52-1.57-3.85-4.64-3.85a11.27,11.27,0,0,0-5,1.16l-.32-1.19a13.76,13.76,0,0,1,5.31-1.16c4.52,0,6,2.32,6,5.25v8.21c0,.43.09.81.64.87a5.49,5.49,0,0,0,1.48-.18v1.08a4.81,4.81,0,0,1-1.63.29,2,2,0,0,1-1.88-2.15A9,9,0,0,1,414.6,89.43Zm0-1.22a9.43,9.43,0,0,0,5.51-2.12V81.62a26.5,26.5,0,0,0-5-.58c-2.9,0-4.53,1.16-4.53,3.66C410.59,86.9,412,88.21,414.6,88.21Z"/><path d="M435.59,75.39h-2.52V74.2h2.58l.2-4.24,1.13-.2V74.2h4.44l-.32,1.19H437v10c0,2.15.9,2.76,2.32,2.76a7.06,7.06,0,0,0,2.93-1.07l.64,1.1a7.77,7.77,0,0,1-3.57,1.22c-2.9,0-3.71-1.74-3.71-4Z"/><path d="M448.79,89.25h-1.43v-14h-2.49V74.05h3.92Zm-1.86-20a1.12,1.12,0,0,1,1.1-1.1,1.12,1.12,0,1,1,0,2.23A1.12,1.12,0,0,1,446.93,69.21Z"/><path d="M466.86,87.6c0,5-2.18,7.45-7,7.45a15.16,15.16,0,0,1-5.6-1l.43-1.22a15.14,15.14,0,0,0,5.28,1c4.15,0,5.51-2.69,5.51-5.85V86.21a6.32,6.32,0,0,1-5.57,3.22c-4.49.14-6.73-3.4-6.73-7.69,0-5.22,3-7.83,6.65-7.83a5.83,5.83,0,0,1,5.65,3.19l.24-3h1.16Zm-6.79.64c3.77,0,5.42-3.17,5.42-6.59,0-4.64-2.67-6.55-5.54-6.55-3,0-5.39,1.77-5.39,6.55C454.56,85.05,455.63,88.24,460.07,88.24Z"/><path d="M484.75,79.33v9.92h-1.39v-10c0-2.72-1.51-4.14-4-4.14-3.65,0-5.31,2.69-5.31,5.42v8.73h-1.39V67.35l1.39-.26V77.24a5.83,5.83,0,0,1,5.4-3.33C483.27,73.79,484.75,76.34,484.75,79.33Z"/><path d="M491.1,75.39h-2.53V74.2h2.58l.21-4.24,1.13-.2V74.2h4.44l-.32,1.19h-4.12v10c0,2.15.9,2.76,2.32,2.76a7.06,7.06,0,0,0,2.93-1.07l.64,1.1a7.82,7.82,0,0,1-3.57,1.22c-2.9,0-3.71-1.74-3.71-4Z"/><path d="M510.15,75.39h-2.53V74.2h2.59l.2-4.24,1.13-.2V74.2H516l-.32,1.19h-4.12v10c0,2.15.9,2.76,2.32,2.76a7.06,7.06,0,0,0,2.93-1.07l.64,1.1a7.82,7.82,0,0,1-3.57,1.22c-2.9,0-3.71-1.74-3.71-4Z"/><path d="M531.87,89.25l-.23-3.6A6,6,0,0,1,526,89.4c-3.83.11-5.34-2.44-5.34-5.43V74.05h1.4v10c0,2.73,1.53,4.15,4,4.15,3.65,0,5.51-3.37,5.51-6V74.05H533v15.2Z"/><path d="M550.84,86A6.35,6.35,0,0,1,545,89.43c-4.64,0-6.82-3.72-6.82-7.78,0-5,3.14-7.74,7-7.74a6,6,0,0,1,5.63,3.45l-1.25.55A4.64,4.64,0,0,0,545,75.1c-3,0-5.51,2.11-5.51,6.47,0,3.48,1.53,6.61,5.45,6.61a4.68,4.68,0,0,0,4.61-2.82Z"/><path d="M560.93,81.65l5.51,7.6h-1.77l-4.93-6.9h-2.87v6.9h-1.42V67.35l1.42-.26V81.16h2.81l4.67-7.11h1.8Z"/><path d="M578.5,74.05l.26,3.08a6.22,6.22,0,0,1,5.63-3.22c3.39,0,6.61,2.17,6.61,7.63,0,4.58-2.26,7.89-6.84,7.89a5.63,5.63,0,0,1-5.4-3.22v8.84h-1.42v-21Zm5.77,14.19c3.66,0,5.34-2.93,5.34-6.67,0-4.91-2.58-6.47-5.4-6.47-3.1,0-5.56,2.52-5.56,6.55C578.65,85,579.83,88.24,584.27,88.24Z"/><path d="M601.93,89.43c-4.58,0-6.58-3.48-6.58-7.75,0-5.19,3-7.77,6.7-7.77,3.39,0,6.47,2.58,6.47,7.77C608.52,86,606.17,89.43,601.93,89.43Zm0-1.19c3.48,0,5.2-3.17,5.2-6.56,0-4.67-2.47-6.58-5.08-6.58-2.81,0-5.28,1.8-5.28,6.58C596.77,85.05,598.08,88.24,601.93,88.24Z"/><path d="M623.45,75.3l-.58,1.16a8.51,8.51,0,0,0-4.61-1.36c-2.09,0-4.06.61-4,2.75.08,3.8,9.71,1.57,9.71,7.14,0,3-2.55,4.49-5.94,4.44a8.21,8.21,0,0,1-5.6-2l.78-1A6.65,6.65,0,0,0,618,88.24c2.75,0,4.55-1,4.55-3.22,0-4.56-9.6-2.06-9.66-7.08,0-2.55,1.89-4,5.43-4A11.23,11.23,0,0,1,623.45,75.3Z"/><path d="M630.93,89.25h-1.42v-14H627V74.05h3.91Zm-1.85-20a1.12,1.12,0,0,1,1.1-1.1,1.12,1.12,0,1,1,0,2.23A1.12,1.12,0,0,1,629.08,69.21Z"/><path d="M637.57,75.39h-2.52V74.2h2.58l.2-4.24,1.13-.2V74.2h4.44l-.32,1.19H639v10c0,2.15.9,2.76,2.33,2.76a7.05,7.05,0,0,0,2.92-1.07l.64,1.1a7.76,7.76,0,0,1-3.56,1.22c-2.91,0-3.72-1.74-3.72-4Z"/><path d="M650.77,89.25h-1.42v-14h-2.5V74.05h3.92Zm-1.86-20a1.12,1.12,0,0,1,1.1-1.1,1.12,1.12,0,1,1,0,2.23A1.12,1.12,0,0,1,648.91,69.21Z"/><path d="M662.46,89.43c-4.59,0-6.59-3.48-6.59-7.75,0-5.19,3-7.77,6.7-7.77,3.39,0,6.47,2.58,6.47,7.77C669,86,666.69,89.43,662.46,89.43Zm0-1.19c3.48,0,5.19-3.17,5.19-6.56,0-4.67-2.47-6.58-5.08-6.58-2.81,0-5.28,1.8-5.28,6.58C657.29,85.05,658.6,88.24,662.46,88.24Z"/><path d="M675.27,74.05l.23,3a5.7,5.7,0,0,1,5.4-3.19c3.83-.12,5.31,2.43,5.31,5.42v9.92h-1.4v-10c0-2.72-1.5-4.14-4-4.14-3.65,0-5.31,2.69-5.31,5.42v8.73h-1.39V74.05Z"/><path class="cls-3" d="M278,407.79c.83-3.13,1.48-6.37,2.48-9.44.62-1.89,2.11-3.15,3.14-4.74,1.48-2.28,2.43-4.95,3.67-7.36,1.5-2.93,3.76-5.18,5.85-7.69,12.76-15.31,35.32-23.89,55.54-26,19.87-2.09,35.76-.82,54.48,5.19,18.91,6.06,39.15,10.83,53.58,25.46,1.69,1.72-16.06-.4-17.82,1.26a56.65,56.65,0,0,1-6.2,4.58c-7.3,5.25-14.73,10.24-23,13.79-5.3,2.26-10.33,4.95-15.7,7-3.8,1.45-7.5,3.2-11.21,4.87-4.22,1.9-8.76,3.26-12.8,5.55-2.72,1.54-5.48,3-8.18,4.59a28.75,28.75,0,0,1-3.18,1.83,16.88,16.88,0,0,0-3.06,1.1,9.37,9.37,0,0,1-4.11,1.4c-2.26.48-4.34,1.24-6.71,1.24-3.05,0-6.13.3-9.21.53-3.46.27-6.81,1-10.26.84-1.19-.06-2.39.18-3.59.21-2,0-3.9,0-5.85.07a10,10,0,0,1-3.1-.26c-1.31-.35-2.59-.27-3.9-.57-2.25-.51-4.52-.27-6.76-.88-3.05-.83-6.39-1.29-9.15-2.87-3.15-1.8-6.56-3.89-8.85-6.76-.86-1.07-1.65-2.19-2.55-3.24a20.59,20.59,0,0,1-2.33-2.71c-.92-1.62-2.3-4.17-1.41-6.11"/><path class="cls-4" d="M426.5,405.57c-22.56,14.24-12.32,35.54-21.33,51.49-13.35,23.62-19.23,34.3-27,60.69-4,13.62-5.73,27.73-7.28,41.8-1.35,12.16-4.84,25.92-3.21,38.05,1.33,9.9,6.21,15,12.85,18.73a9.24,9.24,0,0,1,.37,1.53c.75,5.21,4.31,9.29,6.86,13.65l.36.32a21.69,21.69,0,0,1,3.3,4.83q9.49,17,19,34.06c4.55,8.14,9,16.73,14.62,23.94,9,11.62,15.12,25.21,21,39.09l-1.85-.79c4.53,1.89,6.25,18.42,7.15,22.59,2,9.27,3.51,17.87,9.91,25.14,7.28,8.26,14.47,17.81,22,25.57,3.75,3.89,9,5.56,12.09,10.32,1.69,2.64,4.8,6.27,7.59,7.61,3.79,1.81,9.06.21,5.1-4.44-1-1.18-2.27-2.19-2.91-3.63-1.66-3.74,1.57-8.12,1-12.21a12.9,12.9,0,0,0-2-4.62c-2.89-4.84-6.28-9.52-9-14.41-1.5-2.67-1.67-5.45-2.74-8.23-2.06-5.38-.39-11.84.05-17.51a54.62,54.62,0,0,0,0-8.09,7,7,0,0,0-2.47-5.43,8,8,0,0,0-6.11-2.36,31.93,31.93,0,0,1-5.53.11c-1.6-.17-3.23-.31-4.85-.47-3.12-8.44-7.57-26.1-8.94-32-3.11-13.49-5.65-27-7.83-40.57-1.08-5-2.22-10-3.5-14.89-5.19-20-14.6-38.12-25.11-54.82-.91-1.44-1.85-2.75-2.82-4,10.29-17.49,21.84-34.32,31.91-51.93q13.06-22.85,24.95-46.35c6.81-13.44,19.19-38.78,21-54,1.69-14.53-5.08-17.7-12.24-28.63-4.53-6.91-10.74-12.45-18.18-14.74C462.39,397.74,436.59,399.2,426.5,405.57Z"/><path class="cls-5" d="M268.2,398.62c-1.1-.63,8.12-5.7,7.92-7.17s1.65-1.63,2.71-2.08c.88-.37,1.47-1.1,2.32-1.54a7.73,7.73,0,0,0,1.84-.92,6.47,6.47,0,0,0,2.17-4.21c0-1.85-1.57-3.21-1.8-5a5.77,5.77,0,0,1,.35-2.23,2.81,2.81,0,0,1-1.73-.2c-3.74-1.64-5.68-5.28-8.58-7.95a20.25,20.25,0,0,0-2.54,2.53,29.52,29.52,0,0,1-4.1,3.88c-1.33,1.06-2.18,2.35-3.86,2.47-1.29.09-2.49-.59-3.77-.5a22.71,22.71,0,0,1-2.59.36,32.84,32.84,0,0,1-4.09-.64c-3-.48-6.15-.69-9.21-1a25.33,25.33,0,0,0-9.81.59,20.45,20.45,0,0,0-8.56,5.12,45.45,45.45,0,0,0-5.24,5.75,78,78,0,0,0-5.81,9.72c-1.92,3.8-2.7,8.74-2.91,12.94-.15,3.12-.76,6.08-.57,9.25a26.27,26.27,0,0,0,2.66,9.11c1.12,2.48,1.33,5,1.76,7.57.22,1.31,1,2.45,1.27,3.81a31,31,0,0,0,1.2,4.76c1.16,3,3.59,4.16,6.17,5.6,1.73.95,3.63,1.26,5.35,2.25A14.69,14.69,0,0,0,231.4,452c1,.35,1.85.94,2.87,1.28.5.17,1,.1,1.49.26s.72.56,1.28.62a19.76,19.76,0,0,0,3.28-.46,27.92,27.92,0,0,1,3.86-.26,2.07,2.07,0,0,0,.42,0c0,.07.08.2.36.43a12.49,12.49,0,0,1,1.92,2.24c1.58,2,1.36,2.41,3.38,4.49a28.74,28.74,0,0,0,4.09,3.55,3.58,3.58,0,0,0,5.35-1.44,1.94,1.94,0,0,1,.9-1,5,5,0,0,1,3.53-.88,20.12,20.12,0,0,0,3,1,19.16,19.16,0,0,0,5.81-.3c1.56-.33,2.25-1.08,3.66-.37,1,.51,2,1.08,3,1.64,1.87,1,3.9,1.45,5.59-.16a15.79,15.79,0,0,0,4.13-9.77c-.37-29.39,8.64-18.54,11.76-28.38,2.13-6.73,4.65-17.56,10.61-21.43"/><path d="M238.41,442.32c.22-.3.48-.58.72-.86s.46-.49.71-.49.1,0,.1.1-.11.22-.15.29a3.18,3.18,0,0,0-.1.33c-.12.44-.18.9-.29,1.35a6.63,6.63,0,0,1-.18.77c-.51,1.57-1.57,3-1.9,4.63a7.46,7.46,0,0,0,.9,4.53c-.53.1-2.25.45-2.56-.06-.44-.73.05-2.92-.08-3.78a6.83,6.83,0,0,1,1-4.62C237.14,443.73,237.85,443.08,238.41,442.32Z"/><path d="M267.69,366c-2,1.63-3.93,3.75-6.13,5.12-7,4.36-16.16.57-24.37,1.51-6.75.77-12.81,4.86-17.15,10.09s-7.13,11.57-9.44,18c-2.13,5.92-3.92,12.09-3.87,18.39,0,4.24,2,16.55,7.57,17.28s11.31-7.89,17.48-8c3.13-.06,6.25,1.33,9.32.71a26.33,26.33,0,0,0,4.39-1.69c2.65-1.06,5.55-1.42,8.11-2.66s4.88-3.74,4.56-6.58a11.57,11.57,0,0,1-5.51-2.49c-1.47-1.4-.5-2.29.6-4,1.5-2.36,3.43-3.5,5.92-2.2s4.83,3.28,7.63,3.25c3,0,5.46-2.38,7.54-4.58,3.58-3.77,7-12.45,10.6-16.22-1.51-2.74-.6-2.17-1.95-5-1-2.13-4.88.2-3.74-1.87a19.23,19.23,0,0,0,2-12.9c-.81-4.11-3.74-8.39-7.92-8.47A8.74,8.74,0,0,0,267.69,366Z"/><path d="M214.92,437.07l-.2-.95a1.55,1.55,0,0,1-.21,0A2.77,2.77,0,0,0,214.92,437.07Z"/><path class="cls-5" d="M258.29,421.4c-5.09,2.13-8.71-5.94-6.83-9.66a6.86,6.86,0,0,1,8.79-3c3.18,1.56,4.69,5.4,7.77,7.15,1.63.92,3.7,1.28,4.79,2.8s-.61,4.42-2.09,3.27"/><path d="M265.05,379.09a7.65,7.65,0,0,0-1.83-3,12.44,12.44,0,0,1-1.89-3.7,6.41,6.41,0,0,1-.07-4.7,6.93,6.93,0,0,1,2.79-3.14,6.81,6.81,0,0,1,3.58-1.24c1.34.18,3,1.6,4.23,2.22a7,7,0,0,1,2.89,3.8c.61,1.53,1,3.33.32,4.87a20.68,20.68,0,0,1-7.52,8.14c-1.51,1-4,.68-5.69.17s-4.33-1.85-5.39-3.33c-2-2.84,0-6.66,2-8.87,1.18-1.32,2.51-2.54,4.43-2.41a10.28,10.28,0,0,1,4.31,1.61,19,19,0,0,1,4.44,2.82,7,7,0,0,1,1.84,2.05,21,21,0,0,0,1.35,2.78,8.62,8.62,0,0,1,1.2,3.26,3.37,3.37,0,0,1-.55,2.6,11.08,11.08,0,0,1-1.88,2.54c-.47.48-1.11.76-1.61,1.2-.87.76-.92.74-2.09.19"/><path d="M262.4,374.56c-1.51-.1-2.36-1.15-3.16-2.28a5.9,5.9,0,0,0-.89-1.13,1.93,1.93,0,0,1-.65-1.91c.19-1.91,1.76-3.57,2.93-4.95a6.52,6.52,0,0,1,1.64-1.59c.62-.35,1.35-.47,2-.82.36-.21.57-.54,1-.66s.88-.06,1.31-.22a2.67,2.67,0,0,1,1.17-.33,9.12,9.12,0,0,1,1.29.2,5.06,5.06,0,0,1,2.25.69,15,15,0,0,1,1.86,1.62,6.72,6.72,0,0,1,.64.91c.25.38.63.64.89,1a6.54,6.54,0,0,1,.7,3.59c.06,2.33-1.37,4.65-2.54,6.59a11.81,11.81,0,0,1-3.64,3.8,26.87,26.87,0,0,1-2.61,1.35,10.66,10.66,0,0,1-2.51,1.07,8.94,8.94,0,0,1-3,.1,20.21,20.21,0,0,1-3.19-.52,6.4,6.4,0,0,1-2.61-1.73,8.83,8.83,0,0,0-1-1.33,6.17,6.17,0,0,1-1.29-1.16,6.91,6.91,0,0,1-1.36-5.76,21.62,21.62,0,0,1,1.37-4.31c.44-.86.93-1.69,1.38-2.55a6.35,6.35,0,0,1,2.08-2.26,4.68,4.68,0,0,1,1.62-.82,5.51,5.51,0,0,1,1.7-.39c1.69.19,2.83,1.38,4.37,1.83a6.32,6.32,0,0,1,.91.22c.45.21.89.49,1.33.73a10.32,10.32,0,0,1,2.09,1.27,7.09,7.09,0,0,1,1.75,2.13,3.74,3.74,0,0,1,.23,3.1,10.31,10.31,0,0,1-1.35,3.62,13.48,13.48,0,0,1-3.69,3.57,10.44,10.44,0,0,1-4.8,2.05,11.4,11.4,0,0,1-2.73.17,11.61,11.61,0,0,1-2.31-.83c-1.63-.66-2.55-2.36-3.47-3.73-.18-.27-.74-.85-.76-1.19s.32-.64.43-.87"/><path d="M275.52,388.74c-1.51-.11-2.36-1.16-3.16-2.28a5.61,5.61,0,0,0-.89-1.13,1.93,1.93,0,0,1-.65-1.91c.19-1.91,1.76-3.58,2.92-4.95a6.56,6.56,0,0,1,1.65-1.59c.62-.36,1.35-.47,1.95-.82.35-.21.57-.54,1-.67s.88-.06,1.31-.22a2.66,2.66,0,0,1,1.17-.32,9.33,9.33,0,0,1,1.29.19,5.07,5.07,0,0,1,2.25.7,14.14,14.14,0,0,1,1.85,1.61,5.82,5.82,0,0,1,.64.92c.26.38.64.64.9,1a6.54,6.54,0,0,1,.7,3.59c.06,2.33-1.37,4.65-2.54,6.59a11.81,11.81,0,0,1-3.64,3.8,29.29,29.29,0,0,1-2.61,1.35,10.66,10.66,0,0,1-2.51,1.07,9.21,9.21,0,0,1-3,.1,20.21,20.21,0,0,1-3.19-.52,6.4,6.4,0,0,1-2.61-1.73,8.35,8.35,0,0,0-1-1.33A6,6,0,0,1,266,391a6.9,6.9,0,0,1-1.36-5.76A21.74,21.74,0,0,1,266,381c.43-.86.93-1.7,1.38-2.55a6.35,6.35,0,0,1,2.08-2.26,4.36,4.36,0,0,1,1.62-.82,5.51,5.51,0,0,1,1.7-.39c1.69.18,2.83,1.38,4.36,1.83a6.14,6.14,0,0,1,.92.22c.45.2.89.49,1.33.72a11.31,11.31,0,0,1,2.09,1.27,7.25,7.25,0,0,1,1.75,2.14,3.74,3.74,0,0,1,.23,3.1,10.38,10.38,0,0,1-1.35,3.62,13.63,13.63,0,0,1-3.69,3.57,10.32,10.32,0,0,1-4.8,2,10.91,10.91,0,0,1-2.73.17,11.57,11.57,0,0,1-2.31-.82c-1.63-.66-2.55-2.37-3.47-3.74-.18-.26-.74-.84-.76-1.18s.32-.65.43-.87"/><path class="cls-6" d="M341.76,435.42c1.54,2.41,9.16,3.26,11,5.52,1.48,1.85,2.65,3.88,4.32,5.64l1.74,1.93c.86-.62,2.08-.58,3.07-.91a25.81,25.81,0,0,1,3.23-.91c2.2-.41,4.51-.68,6.73-.94a16.19,16.19,0,0,0,3.74-.73c1.05-.36,2.2-.29,3.29-.6,2.29-.66,4.18-.16,6.49.23a58.24,58.24,0,0,1,8.44,2.48,25.69,25.69,0,0,1,4.93,2.92c1.1.7,10,3.91,11,4.83,5.92-6.43,5.76-11.18,10.51-21,.12-.33.24-.65.38-1,3.92-8.91,9.48-19.24,19.42-22.56,4.71-1.56,9.83-1.11,14.73-.31a140.26,140.26,0,0,1,27.55,7.72c3.79,1.45,7.55,2.67,10.61,5.35,1.28,1.13,10.06,7.54,10,8.76a1.35,1.35,0,0,1,0-.34c0-.07,0-.13-.07-.22-.1-.35-.19-.7-.29-1.05-.06-.12-.44-1.2-.57-1.48q-.52-1.14-1.14-2.22c-.11-.21-.24-.41-.36-.62-1.14-1.51-2.29-3-3.36-4.4-3.22-4.28-6.51-8.52-9.83-12.74-6.45-8.22-18.42-17.47-25.95-24.62-2.68-2.54-7.88-4.93-10.55-7.45-1.47-1.38-1.3-1.91-3.3-1.63a51.65,51.65,0,0,0-5.23.95c-2.1.52-4,1.16-6.18,1.49-2.4.38-4.72.72-7.15,1-11.33,1.11-22.83-.19-34.19.36-7.66.37-15.6-.23-23.32-.23-2.27,0-2.41,1.48-3.32,3.21-.51,1-1,2-1.49,2.93-2.49,5.08-3.67,11.07-6,16.34-.83,1.88-14.21,31.51-19.08,26.12C340,425.38,340.38,433.26,341.76,435.42Z"/><path class="cls-3" d="M301.15,389.82c-7.82,2.49-16.35,16.68-16.07,23.91.34,8.9,4.53,17.15,9.58,24.29,4.45,6.29,8.66,11.55,15.66,14.87a57.94,57.94,0,0,1,13.42,8.56,63.36,63.36,0,0,1,10.36,11.76,57.5,57.5,0,0,0,11.54,12.63C357.1,519,375.3,547.3,384.28,577a16.74,16.74,0,0,1,0,2.24,47.23,47.23,0,0,1-1.87,5.44c-.38.82-.79,1.64-1.19,2.46-.69,1.39-1.35,2.76-2,4.17a19.4,19.4,0,0,0-.85,1.79c-.2.57-.29,1.2-.52,1.75l0,.83c-.22.64-.53,1.28-.71,1.93a9.32,9.32,0,0,0-.33,1.86c0,.26,0,.51-.08.77-.05.42-.21.82-.24,1.24a15.82,15.82,0,0,0-.12,1.66c0,.58.46.75.8,1.06a1.51,1.51,0,0,1,.54,1.21c0,.57,0,1.12,0,1.69,0,.36,0,.69,0,1s0,.64,0,1a16.39,16.39,0,0,1-.14,2.08c0,.35-.06.7-.08,1.05s-.13.6-.19.92a3,3,0,0,0-.05.79c0,.3,0,.62,0,.91a3.83,3.83,0,0,0,.43,1.68,1.57,1.57,0,0,0,.27.43c.18.14.44.25.63.37a7.06,7.06,0,0,1,1.25.85,6.22,6.22,0,0,1,.76,1.25l.68,1.15c.17.28.23.6.37.89a3.09,3.09,0,0,1,.36.64c.05.23.16.43.2.67a1.44,1.44,0,0,0,.14.56,6.64,6.64,0,0,0,.62,1.07c.37.45.89.13,1.38-.15a2.83,2.83,0,0,0,.66-.59,13.79,13.79,0,0,0,1-1.17.68.68,0,0,0,.14-.37c0-.08-.05-.16,0-.25s.1-.18.14-.28a.78.78,0,0,0,.07-.3,10.14,10.14,0,0,0-.13-2.14c-.11-.78-.24-1.56-.39-2.32,0-.06,0-.11,0-.16.1.32.21.64.29,1a10.3,10.3,0,0,1,.34,2,15.93,15.93,0,0,0,0,2.08c0,.16.07.22.09.39s.06.6.11.89.12.36.17.55a5.25,5.25,0,0,1,0,.69,9.64,9.64,0,0,0,.08,1.43,7.84,7.84,0,0,0,.57,2.46,2,2,0,0,1,.13.65,6.26,6.26,0,0,0,.21.61,2.16,2.16,0,0,1,.18.56,5.21,5.21,0,0,1,0,.79c0,.49.12,1,.09,1.45s0,1,0,1.48a8.92,8.92,0,0,0,0,1.37c0,.21.16.35.21.54s.05.36.09.53c.09.43.21.8.27,1.23s.19,1,.3,1.43c.18.77.32,1.56.43,2.36a5.87,5.87,0,0,0,1,1.91,2.23,2.23,0,0,0,2.05,1,3.21,3.21,0,0,0,2.09-.88,2,2,0,0,0,.62-.93,5.37,5.37,0,0,0-.09.67,1.89,1.89,0,0,0,.36,1.38,2.31,2.31,0,0,0,.29.45,4.05,4.05,0,0,1,.43.57,2.33,2.33,0,0,0,.52.47c.31.23.59.15,1,0a10.69,10.69,0,0,0,1.51-.84,3.34,3.34,0,0,0,1.24-1.18,4,4,0,0,0,.25-1.93,17.88,17.88,0,0,0-.07-2.32c0-.58-.11-1.14-.12-1.72a15,15,0,0,0-.17-2c-.12-.72.11-1.58.06-2.34,0-.39-.1-.77-.14-1.16s0-.66,0-1a7.47,7.47,0,0,1,.2-2.14,6.4,6.4,0,0,0,.12-1.14,8.24,8.24,0,0,1,0-.86v10.06a.87.87,0,0,0,0,.64,1.88,1.88,0,0,1,.05.33,1.53,1.53,0,0,0,.8.84c.91.49,1.94-.42,2.65-1.21a3.76,3.76,0,0,0,.88-1.73c.17-.7.47-1.34.64-2a5.62,5.62,0,0,0,.13-1.77,10.49,10.49,0,0,1,0-1.86,24.27,24.27,0,0,0-.37-3.63l-.06-1c0-.27.07-.55.07-.83,0-.76-.08-1.5-.11-2.26a6.18,6.18,0,0,1,0-1.21c.05-.37,0-.74.09-1.11s.08-.78.12-1.18l.08,7.83c.11.17-.11.57.12.62s.28,0,.41,0,.27.12.41.09a1,1,0,0,0,.33-.21c.4-.33.85-.53,1.25-.83a3.19,3.19,0,0,0,.89-1.16,4.51,4.51,0,0,0,.55-1.9c0-.34.16-.66.2-1s0-.74.05-1.12,0-.63,0-.93a7.14,7.14,0,0,0,.08-.92c0-.36.07-.74.05-1.09a4.81,4.81,0,0,1,0-.93,7.94,7.94,0,0,0,0-1.82c-.05-.49.09-1,0-1.54s0-1.06,0-1.58,0-1.25,0-1.86c0-.23-.11-.43-.1-.68a8.5,8.5,0,0,0,.07-.87c0-.57,0-1.13,0-1.71s-.25-.93-.31-1.44a10.13,10.13,0,0,1,0-1.66c0-.47-.13-.88-.15-1.34,0-.3,0-.61,0-.91a12.59,12.59,0,0,1,.09-1.36c.06-.54.07-1.06.09-1.6a3.78,3.78,0,0,0-.32-1.4,2,2,0,0,1-.05-.84,8.77,8.77,0,0,0,0-.89,2.72,2.72,0,0,0,0-.57,3.55,3.55,0,0,1-.19-.87,6.35,6.35,0,0,0,.11-1.13,11.23,11.23,0,0,0-.73-1.81c-.09-.22-.2-.41-.29-.63a18.49,18.49,0,0,1-.69-2.37,10.67,10.67,0,0,0-.4-1.5,11.28,11.28,0,0,1-.55-1.1c-.38-1.05-1-2-1.34-3.06-.12-.33-.13-.72-.26-1-.19-.48-.48-.83-.63-1.34a22.62,22.62,0,0,0-1.2-2.59c-.43-1-.73-2-1.07-3.08l-.05-.08a15.6,15.6,0,0,0-1.21-1.44,37.31,37.31,0,0,0-.29-3.83c-1.91-16.56-3.07-33.4-6.71-49.39-2.32-10.18-2.58-26.15-6.77-35.12-3.87-8.29-7-10.12-12.27-16.36-.91-1.58-35.2-57.08-36.22-58.53m46.41,203.56a3,3,0,0,0,.24.93,3.58,3.58,0,0,1,.11.35A2.14,2.14,0,0,1,384.89,613.81Zm10.22,26.67a8.19,8.19,0,0,1-.37-2.29c0-.35,0-.71.06-1.06C394.93,638.51,395,639.67,395.11,640.48Zm-.57-6.06a5,5,0,0,0-.16-.67l-.45-1.29a5.93,5.93,0,0,1-.31-1.46,7.66,7.66,0,0,0-.27-1.38,4.71,4.71,0,0,1,.07-1.86,12.33,12.33,0,0,0,.15-1.7,29.25,29.25,0,0,1-.18-3.75C393.75,626.17,394.19,630.7,394.54,634.42Zm5.93-12.1a1.35,1.35,0,0,1,0-.28c0-.26.06-.5,0-.76a7.3,7.3,0,0,0-.45-2.45c-.19-.41.12-.77.14-1.3s.15-1.24.15-1.78c0-1.09-.2-1.79-.18-2.88a5.09,5.09,0,0,1,0-1.46,10.16,10.16,0,0,1,.2-1.21c0,.09.16-.81.14-.72Zm4.9-10.6a8,8,0,0,1,0-2.39Zm-.11-3.51a3,3,0,0,1,0-.68C405.24,607.77,405.25,608,405.26,608.21Zm-.15-2.36c-.05-.05-.08-.11-.05-.16S405.09,605.72,405.11,605.85Z"/><path class="cls-7" d="M333.56,355.88a117.65,117.65,0,0,1,21.8,12.31,64.67,64.67,0,0,1,9.6,8.5c1.37,1.45,2.85,2.78,4.33,4.1a2.07,2.07,0,0,1,.27-.45,2.9,2.9,0,0,1,1-.72,6.47,6.47,0,0,1,2.65-.53h.4c-2-1.86-4.17-3.64-6-5.68-1-1.09-2.76-3-4.21-4.26-1.82-1.58-3.74-3-5.7-4.44A128.06,128.06,0,0,0,340,354.2C337.84,354.78,335.7,355.33,333.56,355.88Z"/><path class="cls-7" d="M314.46,362.37a33.82,33.82,0,0,0-4.28,2.59l-.18.1c-1.45,2-2.87,4.05-4.19,6.15a113.82,113.82,0,0,0-9.42,19.23,20.11,20.11,0,0,1,4.76-.62,112.3,112.3,0,0,1,7.4-15.1,133.76,133.76,0,0,1,10.14-14.21l-1.58.62C316.22,361.54,315.33,361.93,314.46,362.37Z"/><path class="cls-8" d="M381.6,613.5a3.26,3.26,0,0,0-1.41.15c-.31.12-.62.28-.93.43a7.61,7.61,0,0,1-.79.31c-.44.17-.86.1-1.12.65"/><path class="cls-8" d="M381.4,615.48A7.53,7.53,0,0,1,380,616.7l-.47.37c-.19.15-.49.22-.66.39"/><path class="cls-8" d="M391.36,643.82c-.09-.27-.49-1.71-.51-2a3.5,3.5,0,0,1,.21-1.14,3.82,3.82,0,0,1,.7-1.34,3.32,3.32,0,0,1,1-.74c.87-.24,1.26.74,1.6,1.35a5.2,5.2,0,0,1,.4,1.15c0,.17,0,.35.06.53a3.83,3.83,0,0,1,.16,1.18"/><path class="cls-8" d="M396.25,645.41a12,12,0,0,1-.45-1.36,2.11,2.11,0,0,1,.11-1.43c.14-.36.36-.72.5-1.09,0-.09,0-.18.08-.28a1.91,1.91,0,0,1,.33-.42,2.48,2.48,0,0,1,1.18-.91c.34-.11.84-.25,1.1,0a5,5,0,0,1,.57,1c.13.25,1.21,2,.88,2.08a6.7,6.7,0,0,0-.35.88"/><path class="cls-8" d="M401.19,638.83a10.69,10.69,0,0,1-.22-1.28,3,3,0,0,1,0-1.3,3.45,3.45,0,0,1,.14-.78,4.18,4.18,0,0,1,.4-.68c.16-.19.33-.19.53-.3a2,2,0,0,1,.51-.23,2,2,0,0,1,.45-.16,1,1,0,0,1,.42.1,1,1,0,0,1,.55.68,5.85,5.85,0,0,1,.09,1.27c0,.2,0,.4.05.6a5.26,5.26,0,0,1-.07,1c-.11-.09-.73.89-.78.75"/><path class="cls-8" d="M395.69,624.63a4.88,4.88,0,0,1,1.09-.66,2.24,2.24,0,0,1,1.31-.32"/><path class="cls-8" d="M395.4,626.69a2.51,2.51,0,0,0,.67,0,2.92,2.92,0,0,0,1.21-.25,3.36,3.36,0,0,0,1-.54,3.7,3.7,0,0,0,.42-.37c.12-.12.18-.28.33-.36"/><path class="cls-8" d="M402.92,619.17c.28-.11.55-.24.83-.34a.55.55,0,0,1-.4.13"/><path class="cls-8" d="M402.44,618.11c.55-.19,1.1-.43,1.65-.57a1.43,1.43,0,0,1,.67-.09"/><path class="cls-8" d="M407.19,611.87a10.49,10.49,0,0,1,1.3-1c.17-.11.48-.22.55-.43"/><path class="cls-8" d="M388.85,626.57c.27-.17,1.79-.92,2.08-1,1-.42.17,0,.24-.07"/><path class="cls-8" d="M388.06,625.57a6.58,6.58,0,0,1,4-1.94c.28,0,.52-.3.81-.39"/><path class="cls-8" d="M405.26,626.17c0-.18-.06-1.4,0-1.58a2.56,2.56,0,0,1,.32-.72,7.27,7.27,0,0,1,1.3-1.18c.36-.29.73-.6,1.12-.43a1.22,1.22,0,0,1,.55,1.07c0,.49,0,.95,0,1.44a3.82,3.82,0,0,1-.16,1.48"/><path class="cls-8" d="M381.2,620.47c-.51-1.31,1.1-1.08,1.58-.81,1.09.64,3.37,1.94,2.26,3.9"/></svg>