<svg id="Layer_1" data-name="Layer 1" xmlns="http://www.w3.org/2000/svg" viewBox="0 0 780 1051.14"><defs><style>.cls-1{fill:#c6946f;stroke-width:0.27px;}.cls-1,.cls-2,.cls-3,.cls-4,.cls-5,.cls-6{stroke:#fff;stroke-miterlimit:10;}.cls-2,.cls-3,.cls-6{fill:#d4a47c;}.cls-2{stroke-width:0.41px;}.cls-3{stroke-width:0.29px;}.cls-4{fill:#005058;stroke-width:0.53px;}.cls-5{fill:#fff171;stroke-width:0.3px;}.cls-6{stroke-width:0.33px;}.cls-7,.cls-8{fill:#fff;}.cls-7{opacity:0.7;}.cls-8{font-size:38.5px;font-family:ABCSerifBold, ABCSerif;}</style></defs><path class="cls-1" d="M537.33,518.12c-3.1-10.45-18.49-31.52-29.2-36.59-23.95-11.32-35.55,9-53.43,10.12-26.47,1.62-38.35,2.48-64,10.37-13.22,4.07-25.59,10.33-37.84,16.72-10.59,5.52-23.64,10.09-32.56,18.12-10.63,9.56-8.91,20-6.18,32.16-.11.67-.21,1.33-.27,2a9.54,9.54,0,0,1,1.07,1.53c.44,2,.91,4,1.41,6l.1.09c1,4.08,3.52,7.73,5.36,11.48l.33.36a21.63,21.63,0,0,1,2.92,5q8.15,17.58,16.3,35.15c3.9,8.4,7.68,17.22,12.73,24.84,9,13.63,14.22,29.28,19.56,45,2,14.49,4.31,28.91,10.5,42.09,5,5.73,10.88,10.7,15.55,16.75.79,1,.87,2.29,1.49,3.42.83,1.49,1.25,3.09,2.06,4.56,3.41,6.25,10.81,8.83,14.24,15.19,1.48,2.74,4.32,6.6,7,8.19,3.66,2.16,9.09,1.15,5.49-3.78-.92-1.26-2.1-2.38-2.62-3.84-1.37-3.82,2.24-7.75,2-11.79a12.45,12.45,0,0,0-1.61-4.71c-2.5-5-5.53-9.93-7.87-15-1.29-2.76-1.23-5.49-2.07-8.3-1.63-5.45.58-11.57,1.49-17a51.92,51.92,0,0,0,.65-7.88,6.83,6.83,0,0,0-2-5.55,8.35,8.35,0,0,0-5.94-2.93,33.41,33.41,0,0,1-5.57-.47c-2.47-.52-5-1-7.49-1.55-2.45-8.38-5.56-26.53-6.46-32.56-2-13.46-3.46-26.83-4.53-40.32-.68-5-1.41-9.94-2.3-14.87a165.5,165.5,0,0,0-10.94-35.59c12.61-.14,25.23-.17,37.78-.87q25.68-1.43,51.25-4.22c14.63-1.6,30.72-1.82,44-8.67,12.7-6.52,22.78-17.15,27.68-29.22C538.52,534,539.58,525.68,537.33,518.12Z"/><path class="cls-2" d="M368.86,374.32c2.62-2,8.62.45,11.34-1.38,1.67-1.13,3.64-1.2,5.47-1.82a82,82,0,0,0,7.51-3.59c3-1.4,6.24-1.79,9.47-2.48,19.75-4.26,43.12,3,60.58,13.89,17.17,10.73,29.07,21.67,40.26,38.15,11.3,16.64,24.49,33.08,26.87,53.77.28,2.43-12.57-10.35-15-10.12a58.22,58.22,0,0,1-7.81-.21c-9.1-.37-18.15-1-27-3.37-5.64-1.51-11.33-2.5-16.9-4.22-3.94-1.21-8-2.12-12-3.11-4.56-1.11-9-2.86-13.69-3.56-3.13-.46-6.25-1-9.39-1.44a28.49,28.49,0,0,1-3.69-.52,16.81,16.81,0,0,0-3.12-1,9.55,9.55,0,0,1-4.16-1.44c-2.11-1-4.24-1.72-6.13-3.2-2.43-1.9-5.08-3.59-7.68-5.32-2.93-1.95-6.07-3.46-8.72-5.74-.91-.79-2-1.35-3-2.07-1.59-1.19-3.12-2.43-4.72-3.6a10.25,10.25,0,0,1-2.31-2.14c-.83-1.1-1.9-1.84-2.76-2.89-1.47-1.82-3.44-3-4.85-4.92-1.91-2.57-4.29-5-5.51-8-1.39-3.4-2.8-7.2-2.84-10.92,0-1.39,0-2.78,0-4.18a19.94,19.94,0,0,1-.17-3.61c.27-1.87.76-4.77,2.68-5.76"/><path class="cls-3" d="M363.6,369.22c-.54-1.17,10,.1,10.76-1.23s2.31-.37,3.46-.11c.93.21,1.85,0,2.81.1a7.92,7.92,0,0,0,2.06.33,6.56,6.56,0,0,0,4.28-2.19c1.08-1.52.6-3.57,1.45-5.15a5.91,5.91,0,0,1,1.6-1.64,2.8,2.8,0,0,1-1.31-1.17c-2.11-3.57-1.56-7.71-2.37-11.62a20.27,20.27,0,0,0-3.58.59,30.94,30.94,0,0,1-5.67.77c-1.72.09-3.19.65-4.64-.25-1.12-.69-1.7-2-2.81-2.64a21.91,21.91,0,0,1-2.35-1.23,33.18,33.18,0,0,1-3-2.94c-2.2-2.18-4.65-4.21-7-6.3a25.74,25.74,0,0,0-8.44-5.3,20.71,20.71,0,0,0-10.06-.84,46.42,46.42,0,0,0-7.71,1.64,78.45,78.45,0,0,0-10.53,4.57c-3.83,2-7.39,5.61-10,8.95-2,2.47-4.22,4.55-5.93,7.28a26.5,26.5,0,0,0-3.19,9.06c-.55,2.72-1.85,4.88-3,7.28-.59,1.21-.63,2.6-1.2,3.88a30.17,30.17,0,0,0-1.82,4.64c-.8,3.13.49,5.54,1.78,8.25.85,1.81,2.24,3.18,3.07,5a14.87,14.87,0,0,0,1.53,2.49c.63.88,1,1.86,1.6,2.75.32.43.74.65,1.08,1.08s.26.9.68,1.28a21.48,21.48,0,0,0,3,1.55,27.67,27.67,0,0,1,3.33,2.07,3.35,3.35,0,0,0,.34.25c0,.06-.05.21,0,.57a12.34,12.34,0,0,1,.26,3c.14,2.56-.3,2.79.13,5.69A29.56,29.56,0,0,0,313.5,415a3.62,3.62,0,0,0,5.25,2,1.92,1.92,0,0,1,1.32-.26,5,5,0,0,1,3.42,1.36,20.84,20.84,0,0,0,1.91,2.57,19.23,19.23,0,0,0,5,3.19c1.48.65,2.49.44,3.23,1.86.54,1,1,2.09,1.53,3.13.92,2,2.35,3.51,4.7,3.17a16,16,0,0,0,9.17-5.6C366,402,367.06,416.23,375.44,410c5.73-4.28,14.2-11.72,21.39-11.39"/><path d="M313.26,387.62a10.42,10.42,0,0,1,1.1-.28c.22,0,.67-.14.87,0s.09.06,0,.15-.22.1-.29.15l-.29.2c-.35.3-.68.64-1,.95-.2.17-.38.37-.6.53-1.35,1-3.08,1.56-4.3,2.69a7.59,7.59,0,0,0-1.94,4.26c-.49-.23-2.12-1-2.07-1.56.07-.86,1.77-2.37,2.17-3.16a6.92,6.92,0,0,1,3.58-3.2C311.38,388,312.35,387.91,313.26,387.62Z"/><path d="M382.43,342.07c-2.64.14-5.46.77-8.08.6-8.36-.56-13.64-9.07-21-13.15-6-3.35-13.42-3.57-20.08-1.81s-12.7,5.32-18.38,9.22c-5.26,3.62-10.37,7.64-14.05,12.86-2.48,3.51-8.13,14.8-4,18.69s14,.2,19.13,3.74c2.61,1.79,4.36,4.78,7.25,6.09a26.56,26.56,0,0,0,4.62,1.2c2.8.69,5.4,2.09,8.25,2.6s6.22-.21,7.64-2.73a11.83,11.83,0,0,1-3.07-5.3c-.39-2,.94-2.19,2.86-3,2.63-1.06,4.9-.85,6.17,1.69s2.05,5.55,4.37,7.18c2.51,1.76,5.9,1.26,8.92.68,5.17-1,14.15-7.1,19.33-8.09.37-3.14-.25-1.15.31-4.27.42-2.35-4.13-2.72-2-3.75a19.55,19.55,0,0,0,9.28-9.43c1.76-3.86,1.87-9.11-1.52-11.65A8.9,8.9,0,0,0,382.43,342.07Z"/><path d="M297,369.42l.4-.89c-.06,0-.14-.06-.2-.1A3.06,3.06,0,0,0,297,369.42Z"/><path class="cls-3" d="M342,382.14c-5.45-1.27-3.66-10,.09-12a6.94,6.94,0,0,1,9,2.75c1.71,3.16.68,7.22,2.19,10.48.79,1.72,2.29,3.24,2.29,5.13s-3.12,3.28-3.65,1.46"/><path d="M372.53,351.27a7.6,7.6,0,0,0,.3-3.58,12.54,12.54,0,0,1,.63-4.17,6.53,6.53,0,0,1,2.71-3.91,7,7,0,0,1,4.15-.94,6.75,6.75,0,0,1,3.68,1.1c1,.93,1.56,3.11,2.18,4.32a7.17,7.17,0,0,1,.14,4.84c-.41,1.61-1.12,3.35-2.62,4.2a20.94,20.94,0,0,1-11,2.26c-1.86-.05-3.7-1.8-4.79-3.22s-2.48-4.08-2.48-5.93c0-3.54,3.95-5.47,6.89-6.12,1.76-.39,3.56-.61,5.06.63a10.28,10.28,0,0,1,2.61,3.87,19.16,19.16,0,0,1,2,4.94,7,7,0,0,1,.3,2.78,22.44,22.44,0,0,0-.53,3.09,8.58,8.58,0,0,1-.93,3.39,3.47,3.47,0,0,1-2,1.82,11.39,11.39,0,0,1-3.06,1c-.67.11-1.36,0-2,0-1.17.11-1.2.06-1.84-1.08"/><path d="M373,346c-1.17-1-1.25-2.34-1.24-3.74a7.22,7.22,0,0,0-.07-1.46,1.93,1.93,0,0,1,.59-2c1.28-1.46,3.56-1.9,5.33-2.34a6.4,6.4,0,0,1,2.29-.34c.72.07,1.39.41,2.09.47a4.91,4.91,0,0,1,1.21,0c.43.14.76.47,1.21.6a2.51,2.51,0,0,1,1.15.42,9.19,9.19,0,0,1,.95.92,5.19,5.19,0,0,1,1.45,1.9,15.33,15.33,0,0,1,.57,2.43,7,7,0,0,1,0,1.12c0,.47.14.91.13,1.37a6.46,6.46,0,0,1-1.55,3.37c-1.32,2-3.87,3-6,3.94a12.36,12.36,0,0,1-5.24,1,29.56,29.56,0,0,1-2.95-.44,10.2,10.2,0,0,1-2.69-.6,9.23,9.23,0,0,1-2.54-1.69,21.09,21.09,0,0,1-2.32-2.31,6.55,6.55,0,0,1-1.13-3,8.07,8.07,0,0,0-.07-1.7,6,6,0,0,1-.37-1.73,7,7,0,0,1,2.27-5.55,22.55,22.55,0,0,1,3.67-2.73c.87-.45,1.77-.85,2.65-1.29a6.39,6.39,0,0,1,3.05-.63,4.46,4.46,0,0,1,1.81.28,5.33,5.33,0,0,1,1.64.69c1.28,1.14,1.51,2.8,2.51,4.08a5.45,5.45,0,0,1,.62.72c.26.44.45.92.67,1.38a10.86,10.86,0,0,1,1,2.28,7.28,7.28,0,0,1,.18,2.79,3.76,3.76,0,0,1-1.64,2.69,10.55,10.55,0,0,1-3.25,2.18,13.67,13.67,0,0,1-5.15.77,10.69,10.69,0,0,1-5.16-1.15,12,12,0,0,1-2.34-1.47,12.26,12.26,0,0,1-1.42-2.05c-1-1.5-.71-3.46-.65-5.13,0-.32-.11-1.13.08-1.42s.63-.34.86-.46"/><path d="M375.46,365.4c-1.18-1-1.26-2.34-1.25-3.74a6.59,6.59,0,0,0-.07-1.46,2,2,0,0,1,.59-2c1.28-1.46,3.56-1.9,5.33-2.34a6.68,6.68,0,0,1,2.3-.33c.72.07,1.39.4,2.09.47a4.4,4.4,0,0,1,1.2,0c.44.15.76.47,1.21.6a2.66,2.66,0,0,1,1.16.42,10.32,10.32,0,0,1,1,.92,5.36,5.36,0,0,1,1.44,1.9,14.31,14.31,0,0,1,.57,2.43,6.1,6.1,0,0,1,0,1.13c0,.46.14.9.13,1.37a6.6,6.6,0,0,1-1.54,3.37c-1.33,2-3.87,3-6,3.93a12.24,12.24,0,0,1-5.24,1,29.76,29.76,0,0,1-3-.44,10.28,10.28,0,0,1-2.69-.6,9,9,0,0,1-2.54-1.69,20.25,20.25,0,0,1-2.32-2.31,6.55,6.55,0,0,1-1.13-3,8.07,8.07,0,0,0-.07-1.7,5.94,5.94,0,0,1-.37-1.73,7,7,0,0,1,2.28-5.55,22.27,22.27,0,0,1,3.67-2.73c.87-.45,1.77-.85,2.64-1.29a6.31,6.31,0,0,1,3-.62,4.19,4.19,0,0,1,1.82.28,5.62,5.62,0,0,1,1.63.68c1.28,1.15,1.51,2.8,2.51,4.08a6.37,6.37,0,0,1,.63.72c.25.44.44.93.66,1.38a10.86,10.86,0,0,1,1,2.28,7.13,7.13,0,0,1,.19,2.8,3.83,3.83,0,0,1-1.65,2.69,10.49,10.49,0,0,1-3.25,2.18,13.86,13.86,0,0,1-5.15.76,10.65,10.65,0,0,1-5.15-1.15,11.33,11.33,0,0,1-2.35-1.47,12.26,12.26,0,0,1-1.42-2.05c-.95-1.5-.7-3.45-.65-5.12,0-.33-.11-1.13.08-1.42s.64-.35.86-.47"/><path class="cls-4" d="M409,445.43c-.16,2.9-.94,5.63-.78,8.56.12,2.39-.11,4.76.23,7.2l.29,2.62c1.08,0,2.06.74,3.07,1.06A24.33,24.33,0,0,1,415,466c2.05,1,4.12,2.1,6.1,3.2a16.57,16.57,0,0,0,3.51,1.6c1.08.33,2,1.06,3.07,1.45,2.27.81,3.54,2.33,5.21,4a59.41,59.41,0,0,1,5.48,7,26,26,0,0,1,2.34,5.31,21.79,21.79,0,0,1,1.09,3.92c8.68-1.81,16.49.77,26.19-4.49.3-.2.58-.4.89-.58,8.49-5,19.18-10.25,29.32-7.11,4.8,1.49,8.75,4.89,12.31,8.43a143.14,143.14,0,0,1,18.13,22.63c2.26,3.44,4.64,6.65,5.58,10.68.39,1.68,3.83,12.15,3.09,13.13a1.77,1.77,0,0,1,.22-.26c0-.07,0-.14.07-.22.13-.35.26-.7.38-1,0-.14.35-1.25.41-1.56.16-.83.28-1.66.38-2.5,0-.24,0-.48.06-.73,0-1.91-.12-3.8-.16-5.6-.13-5.43-.34-10.86-.57-16.29-.35-8-2.77-15.81-4.79-23.47s-3.83-15.52-6-23.22c-.5-1.82-.34-3.62-2.15-4.57a51.58,51.58,0,0,0-4.87-2.31c-2-.81-4-1.43-6-2.41-2.2-1.11-4.31-2.21-6.45-3.45-10-5.76-18.69-13.62-28.37-19.88-3.85-2.48-7.13-5.75-10.87-8.39-1.74-1.23-3.65-2.27-5.46-3.38a22.48,22.48,0,0,1-2.81-2c-.06-.05-1-1-1.3-1.05-.9-.13-1.28.62-1.94,1a13.46,13.46,0,0,1-1.32.53c-1,.5-2,1-3,1.53-2.35,1.27-4.16,3.32-6.37,4.81q-3.84,2.59-7.83,4.93a142.52,142.52,0,0,1-13.53,6.94c-3.85,1.72-7.57,4.39-12,4.08-1.92-.13-6-.58-6.28-3.12S409.15,442.84,409,445.43Z"/><path class="cls-2" d="M397.62,381.22c-7.91-2.56-24.49,4.29-28.52,10.41-5,7.53-6.4,16.8-6.46,25.67-.05,7.8.31,14.61,4.11,21.49a58.8,58.8,0,0,1,6,15,63.93,63.93,0,0,1,1.59,15.8c-.06,7.07.62,14.33,3.31,20.68-15.29,31.13-23,63.52-37.91,90.43a21.94,21.94,0,0,1-1.62,1.58,51.73,51.73,0,0,1-5.27,2.48c-.87.31-1.76.6-2.64.88-1.49.48-2.95,1-4.44,1.49a16.46,16.46,0,0,0-1.91.64c-.55.25-1.07.65-1.64.86l-.62.56c-.62.3-1.3.52-1.9.85a10.52,10.52,0,0,0-1.59,1.07c-.2.17-.41.33-.62.49s-.73.43-1.06.71a13.65,13.65,0,0,0-1.29,1.08c-.41.43-.22.86-.21,1.33a1.49,1.49,0,0,1-.5,1.25c-.41.39-.78.82-1.19,1.22s-.53.47-.78.74-.45.46-.67.69a16.16,16.16,0,0,1-1.6,1.36l-.82.69c-.25.2-.53.33-.8.51a3.21,3.21,0,0,0-.62.53c-.21.22-.47.4-.68.62a3.71,3.71,0,0,0-.91,1.49,1.35,1.35,0,0,0-.12.51,6.79,6.79,0,0,0,.17.72,3.53,3.53,0,0,1-.1,2.94l-.36,1.3c-.08.32-.27.59-.38.91a3.07,3.07,0,0,1-.22.71c-.12.19-.2.41-.34.61a1.59,1.59,0,0,0-.31.5,9.13,9.13,0,0,0-.34,1.21c-.06.59.54.73,1.08.89a2.48,2.48,0,0,0,.9.06,11.54,11.54,0,0,0,1.55-.11.62.62,0,0,0,.36-.15c.06-.07.08-.16.15-.21a1.11,1.11,0,0,1,.31-.09,1,1,0,0,0,.27-.17,10.46,10.46,0,0,0,1.46-1.6c.49-.64,1-1.28,1.41-1.93l.09-.14c-.17.3-.32.6-.5.89a11.23,11.23,0,0,1-1.21,1.67,14,14,0,0,0-1.48,1.5,2.46,2.46,0,0,1-.22.34c-.2.23-.39.47-.57.71s-.17.34-.28.51a3.31,3.31,0,0,1-.49.5,12.16,12.16,0,0,0-1,1.07,8,8,0,0,0-1.38,2.16c-.07.23-.25.35-.38.55a5.34,5.34,0,0,0-.3.58,2,2,0,0,1-.27.53c-.18.21-.39.37-.58.56-.36.34-.61.76-1,1.09s-.7.7-1.09,1a9.15,9.15,0,0,0-1,1c-.14.16-.14.36-.25.53s-.22.29-.32.44c-.24.36-.43.71-.7,1.06s-.57.82-.83,1.22a22.45,22.45,0,0,1-1.41,2,5.84,5.84,0,0,0-.69,2.06,2.27,2.27,0,0,0,.75,2.16,3.32,3.32,0,0,0,2.12.9,2.11,2.11,0,0,0,1.11-.21c-.19.12-.37.28-.55.41a1.94,1.94,0,0,0-.74,1.23,2.53,2.53,0,0,0-.12.53,6,6,0,0,1-.11.72,2.82,2.82,0,0,0,0,.71c.06.39.31.54.69.72a10.34,10.34,0,0,0,1.69.51,3.38,3.38,0,0,0,1.73.06,4,4,0,0,0,1.58-1.17,20.17,20.17,0,0,0,1.64-1.7c.38-.45.74-.88,1.15-1.3a15.34,15.34,0,0,0,1.36-1.56c.44-.6,1.23-1,1.74-1.6.27-.3.49-.62.74-.93s.49-.45.7-.71a7.35,7.35,0,0,1,1.69-1.37,6.55,6.55,0,0,0,.91-.72c.21-.21.43-.4.65-.58l-7.3,7.11a.85.85,0,0,0-.42.49c-.06.13-.15.17-.21.28a1.53,1.53,0,0,0-.05,1.17c.29,1,1.68,1.11,2.75,1.07a3.86,3.86,0,0,0,1.88-.59c.62-.37,1.3-.61,1.92-1a5.19,5.19,0,0,0,1.38-1.16,12.06,12.06,0,0,1,1.35-1.32,25.65,25.65,0,0,0,2.38-2.83l.7-.77c.19-.2.45-.34.65-.54.55-.54,1-1.11,1.56-1.67a6.55,6.55,0,0,1,.91-.83c.3-.23.56-.5.87-.72s.63-.49.94-.75l-5.62,5.59c-.06.2-.5.33-.37.54s.19.2.27.32.1.27.23.35a.79.79,0,0,0,.38.09c.51.06,1,.24,1.48.32a3.21,3.21,0,0,0,1.47-.17,4.46,4.46,0,0,0,1.77-1c.27-.21.59-.34.87-.56s.56-.49.85-.75.43-.47.67-.66a8.38,8.38,0,0,0,.72-.59c.26-.27.58-.48.83-.74a4.71,4.71,0,0,1,.67-.67,8.11,8.11,0,0,0,1.34-1.27c.31-.38.81-.67,1.14-1s.81-.72,1.17-1.1.9-.89,1.33-1.33c.16-.18.24-.39.42-.56s.48-.34.69-.56c.39-.42.85-.77,1.25-1.2s.5-.84.83-1.24a11,11,0,0,1,1.16-1.21,9.89,9.89,0,0,0,.88-1.06c.2-.22.47-.39.69-.61a11.45,11.45,0,0,1,1-.89c.44-.34.81-.7,1.22-1.07a3.76,3.76,0,0,0,.79-1.22,2,2,0,0,1,.58-.63,7.49,7.49,0,0,0,.63-.63,3.28,3.28,0,0,0,.43-.4,3.27,3.27,0,0,1,.5-.75,8.11,8.11,0,0,0,.9-.72,11.9,11.9,0,0,0,.79-1.82c.1-.21.16-.43.25-.65a20.49,20.49,0,0,1,1.24-2.17,9.85,9.85,0,0,0,.81-1.35,10.94,10.94,0,0,1,.4-1.18c.5-1,.77-2.11,1.28-3.14.16-.32.43-.6.58-.92.21-.47.26-.93.52-1.4a21.8,21.8,0,0,0,1-2.71c.42-1,1-2,1.49-3l0-.09a13.89,13.89,0,0,0,.19-1.9,33.88,33.88,0,0,0,2.58-2.92c10.67-13.08,22.08-25.83,31.13-39.77,5.76-8.87,17.17-20.35,20.73-29.73s2.23-12.75,3.43-22.34a56.38,56.38,0,0,0-.55-8.39h0s0-.05,0-.08c-.06-.34-.11-.66-.18-1-.14-.89-.27-1.9-.4-3,.1-12.66,4.21-53.05,2.17-65.48M313.43,607.12c-.22.15-.38.62-.5.84a3.3,3.3,0,0,0-.18.32A2.13,2.13,0,0,1,313.43,607.12Zm-12.15,26.27a8.89,8.89,0,0,1,1.4-1.89l.81-.7C302.58,631.87,301.82,632.77,301.28,633.39Zm4-4.69a5.87,5.87,0,0,0,.37-.59c.21-.42.41-.82.61-1.24a6.48,6.48,0,0,1,.85-1.26,7.56,7.56,0,0,0,.81-1.16,4.91,4.91,0,0,1,1.4-1.27,12.21,12.21,0,0,0,1.34-1.09,31,31,0,0,1,2.6-2.79Zm13-4.24.18-.23c.18-.19.41-.31.58-.52a7.71,7.71,0,0,0,1.46-2.05c.16-.44.64-.46,1-.82s1-.77,1.4-1.15c.8-.76,1.15-1.41,2-2.16.4-.37.54-.76,1.06-1a9,9,0,0,1,1-.7l.62-.41Zm11.16-3.93a8.2,8.2,0,0,1,1.72-1.71Zm2.48-2.57a4.25,4.25,0,0,1,.46-.5Zm1.61-1.77c0-.07,0-.14.08-.15S333.57,616.09,333.5,616.19Z"/><path class="cls-5" d="M443.16,369.27a135.35,135.35,0,0,1,10.43,24.86,73,73,0,0,1,2.71,13.49c.24,2.11.65,4.21,1.06,6.3a2.75,2.75,0,0,1,.5-.2,3.2,3.2,0,0,1,1.3.12,6.92,6.92,0,0,1,2.51,1.36l.33.27c-.55-2.91-1.21-5.82-1.5-8.76-.16-1.57-.45-4.33-.87-6.35-.53-2.53-1.22-5-2-7.5a146.18,146.18,0,0,0-8.18-20.64C447.35,371.26,445.25,370.27,443.16,369.27Z"/><path class="cls-5" d="M430.26,365.73c-.93-.23-1.87-.42-2.79-.63l-.8-.18c-.2,0-.45-.05-.66-.11l-.08,0-.36,0h-.76a1.09,1.09,0,0,1-.18,0c-2.91.95-5.81,1.94-8.68,3.05-8.12,3.14-21.69,9.07-29.28,13.42l.53.13a19.39,19.39,0,0,1,5.19-.93c.84,0,1.7,0,2.56,0a.44.44,0,0,1,.59-.19c.26.1.51.23.77.34A8.42,8.42,0,0,1,398,381a168.8,168.8,0,0,1,17.5-8.48,184.18,184.18,0,0,1,17.66-6C432.21,366.34,431.23,366,430.26,365.73Z"/><path class="cls-6" d="M311.33,604.52a3.34,3.34,0,0,0-1.11-.92,9.28,9.28,0,0,0-1-.37c-.28-.1-.52-.24-.78-.36-.44-.19-.68-.55-1.26-.35"/><path class="cls-6" d="M309.75,605.77a7.7,7.7,0,0,1-1.86-.13l-.6-.08a7.44,7.44,0,0,0-.74-.2"/><path class="cls-6" d="M296.2,633c.13-.26.9-1.56,1.08-1.77a3.41,3.41,0,0,1,1-.65,3.53,3.53,0,0,1,1.46-.43,3.16,3.16,0,0,1,1.25.2c.79.46.36,1.44.15,2.11a4.78,4.78,0,0,1-.55,1.11c-.1.15-.24.27-.33.42a4.48,4.48,0,0,1-.75,1"/><path class="cls-6" d="M298.5,637.71a11.29,11.29,0,0,1,.67-1.29,2.19,2.19,0,0,1,1.11-.93c.37-.16.79-.25,1.15-.4.1,0,.15-.11.26-.15a4,4,0,0,1,2,.16c.33.16.79.43.77.8a5.08,5.08,0,0,1-.32,1.12c-.08.28-.61,2.31-.89,2.11a6,6,0,0,0-.88.38"/><path class="cls-6" d="M306.77,636.64a11.08,11.08,0,0,1,.78-1.06,3.29,3.29,0,0,1,.93-.93,4.36,4.36,0,0,1,.67-.45,5.09,5.09,0,0,1,.77-.19c.25,0,.38.11.6.17a1.85,1.85,0,0,1,.52.22,1.63,1.63,0,0,1,.44.21,1.33,1.33,0,0,1,.23.38,1,1,0,0,1-.12.87,4.8,4.8,0,0,1-.85,1c-.14.15-.26.32-.4.47a5.13,5.13,0,0,1-.77.64c0-.14-1.15.1-1.09,0"/><path class="cls-6" d="M313.2,622.62a4.79,4.79,0,0,1,1.25.32,2.34,2.34,0,0,1,1.16.73"/><path class="cls-6" d="M311.5,623.86c.1.19.33.32.48.48a3.13,3.13,0,0,0,1,.7,3.4,3.4,0,0,0,1.07.31,5.25,5.25,0,0,0,.57,0,1.34,1.34,0,0,1,.49,0"/><path class="cls-6" d="M322.28,624c.27.12.56.23.82.36a.59.59,0,0,1-.37-.2"/><path class="cls-6" d="M322.7,622.91c.53.26,1.09.5,1.59.79a1.77,1.77,0,0,1,.54.43"/><path class="cls-6" d="M330.59,622a10.17,10.17,0,0,1,1.67.22c.2,0,.5.19.71.09"/><path class="cls-6" d="M307,619c.31.08,1.93.65,2.2.79,1,.4.14.1.23.12"/><path class="cls-6" d="M307.13,617.74a6.7,6.7,0,0,1,4.22,1.52c.2.2.58.17.85.31"/><path class="cls-6" d="M318.84,630.66c.15-.11,1-1,1.14-1.13a2.17,2.17,0,0,1,.75-.27,7.05,7.05,0,0,1,1.78.11c.46,0,.95.1,1.1.5a1.26,1.26,0,0,1-.38,1.16c-.34.37-.66.7-1,1.06-.2.19-.89.91-1.18.92"/><path class="cls-6" d="M306,609.15c.59-1.3,1.56,0,1.7.58.3,1.24,1,3.81-1.24,4.39"/><path d="M66,207.09v7.25H68.1l4.25-7.25h3.5l-5,8.61,5.45,8.65h-3.6L68.08,217H66v7.37H63V207.09Z"/><path d="M80.49,211.43l.47,2.29a4.74,4.74,0,0,1,4.41-2.41c3,0,4.49,1.94,4.49,4.61v8.43H86.8V216.9c0-2-.74-3-2.42-3-2.34,0-3.25,1.9-3.25,4v6.51H78.07V211.43Z"/><path d="M104.31,220.8a5.76,5.76,0,0,1-5.57,3.7c-4.34,0-6.27-2.71-6.27-6.76s2.72-6.53,6.44-6.43c3,.07,5.74,2.34,5.45,6.46l0,.39H95.58c0,2.2.94,3.7,3.18,3.7a2.89,2.89,0,0,0,2.79-2.05Zm-3.13-4.22c0-2-1-2.93-2.54-2.88a2.87,2.87,0,0,0-2.91,2.88Z"/><path d="M118.39,220.8a5.76,5.76,0,0,1-5.57,3.7c-4.34,0-6.26-2.71-6.26-6.76s2.71-6.53,6.43-6.43c3,.07,5.75,2.34,5.45,6.46l0,.39h-8.73c0,2.2.94,3.7,3.18,3.7a2.87,2.87,0,0,0,2.79-2.05Zm-3.13-4.22c0-2-1-2.93-2.54-2.88a2.87,2.87,0,0,0-2.91,2.88Z"/><path d="M121.48,220.65a6.68,6.68,0,0,0,4.19,1.43c1.48,0,2.34-.44,2.34-1.5,0-2.52-7.47-.84-7.22-5.57.1-2.32,1.8-3.7,5.23-3.7a10.49,10.49,0,0,1,4.66,1.21l-1.09,2.17a7.25,7.25,0,0,0-3.7-1.06c-1.21,0-2.22.39-2.17,1.4.15,2.05,7.33.47,7.33,5.45,0,2.66-2.4,4-5.45,4a8.83,8.83,0,0,1-5.31-1.68Z"/><path d="M141.14,211.43l.44,2.29a4.34,4.34,0,0,1,4-2.44,3.76,3.76,0,0,1,3.85,2.39,4.57,4.57,0,0,1,4.17-2.39c3,0,4.21,2,4.21,4.64v8.43h-3.05V216.9c0-2-.47-3-2.15-3-2.22,0-2.81,1.68-2.81,3.58v6.9h-3.06V216.9c0-2-.47-3-2.14-3-2.37,0-2.84,1.9-2.84,4v6.51h-3.06V211.43Z"/><path d="M163.8,211.43v7.45c0,2,.79,3,2.59,3,2.34,0,3.3-2.42,3.3-4.86v-5.62h3.06v12.92h-2.44l-.44-2.81a4.72,4.72,0,0,1-4.47,3c-3.15,0-4.66-1.95-4.66-5.2v-7.87Z"/><path d="M176.26,220.65a6.68,6.68,0,0,0,4.19,1.43c1.48,0,2.34-.44,2.34-1.5,0-2.52-7.47-.84-7.22-5.57.1-2.32,1.8-3.7,5.22-3.7a10.49,10.49,0,0,1,4.66,1.21l-1.08,2.17a7.25,7.25,0,0,0-3.7-1.06c-1.21,0-2.22.39-2.17,1.4.15,2.05,7.32.47,7.32,5.45,0,2.66-2.39,4-5.44,4a8.83,8.83,0,0,1-5.31-1.68Z"/><path d="M192.29,207.78v3.77h3.25l-.42,2.47h-2.83v5.92c0,1.4.64,1.95,1.67,1.95a5.64,5.64,0,0,0,1.95-.57l.57,2.34a8.1,8.1,0,0,1-3.28.84c-3,0-4-2-4-4.14V214h-1.8v-2.47h1.95l.37-3.42Z"/><path d="M65.84,239.43v8.21a4.4,4.4,0,0,1,4.31-2.42c2.44.07,5.06,1.73,5.06,6.49,0,3.89-1.95,6.7-5.45,6.7a4.27,4.27,0,0,1-4.07-2.36l-.42,2.21H62.78V239.82Zm-.13,12.35c0,2.22.82,4,3.26,4,2,0,3.1-1.5,3.1-4,0-3-1.5-3.94-3.13-3.94S65.71,249.19,65.71,251.78Z"/><path d="M89.24,254.71a5.76,5.76,0,0,1-5.57,3.7c-4.34,0-6.27-2.71-6.27-6.75s2.72-6.54,6.44-6.44c3,.07,5.74,2.34,5.45,6.46l-.05.39H80.51c0,2.2.94,3.7,3.18,3.7a2.88,2.88,0,0,0,2.79-2Zm-3.13-4.21c0-2-1-2.94-2.54-2.89a2.88,2.88,0,0,0-2.91,2.89Z"/><path d="M99.58,245.34l.44,2.32a4.71,4.71,0,0,1,4.41-2.44c2.45.07,5.08,1.73,5.08,6.49,0,3.89-1.94,6.7-5.47,6.7a4,4,0,0,1-3.82-2.09v6.88H97.13V245.34Zm.42,6.44c0,2.22.81,4,3.27,4,2,0,3.11-1.5,3.11-4,0-3-1.5-3.94-3.13-3.94C101.47,247.79,100,249.19,100,251.78Z"/><path d="M115.09,245.34v7.45c0,2,.79,3,2.59,3,2.34,0,3.3-2.41,3.3-4.85v-5.63H124v12.92H121.6l-.44-2.81a4.72,4.72,0,0,1-4.47,3c-3.15,0-4.66-1.94-4.66-5.2v-7.87Z"/><path d="M130.26,239.43v14.62c0,1.38.61,1.75,1.53,1.75a2.42,2.42,0,0,0,1.28-.47l.57,2.2a5.37,5.37,0,0,1-2.79.88c-2.56,0-3.65-1.72-3.65-4.07V239.8Z"/><path d="M137.24,239.43v14.62c0,1.38.61,1.75,1.53,1.75a2.42,2.42,0,0,0,1.28-.47l.57,2.2a5.37,5.37,0,0,1-2.79.88c-2.56,0-3.65-1.72-3.65-4.07V239.8Z"/><path d="M153.1,254.71a5.78,5.78,0,0,1-5.58,3.7c-4.34,0-6.26-2.71-6.26-6.75s2.71-6.54,6.44-6.44c3,.07,5.74,2.34,5.44,6.46l0,.39h-8.73c0,2.2.93,3.7,3.18,3.7a2.86,2.86,0,0,0,2.78-2ZM150,250.5c0-2-1-2.94-2.54-2.89a2.89,2.89,0,0,0-2.91,2.89Z"/><path d="M167.92,239.43v18.83h-2.57l-.34-2.21a4.53,4.53,0,0,1-4.12,2.36c-3.48,0-5.55-2.83-5.55-6.63,0-4.64,3-6.56,5.53-6.56a4.1,4.1,0,0,1,4,2.44v-7.84Zm-9.42,12.32c0,2.2.86,3.93,3.16,3.93s3.25-1.73,3.25-3.9c0-2.93-1.58-4-3.28-4S158.5,248.92,158.5,251.75Z"/><path d="M180.23,245.34v12.92h-3.08V247.88h-1.8v-2.54Zm-1.56-5a1.65,1.65,0,0,1,1.83,1.56,1.83,1.83,0,0,1-3.63,0A1.59,1.59,0,0,1,178.67,240.31Z"/><path d="M185.8,245.34l.47,2.3a4.76,4.76,0,0,1,4.41-2.42c3,0,4.49,1.95,4.49,4.61v8.43h-3.06v-7.44c0-2-.73-3-2.41-3-2.34,0-3.26,1.89-3.26,4v6.51h-3.05V245.34Z"/><path d="M202.25,241.69v3.78h3.26l-.42,2.46h-2.84v5.92c0,1.41.64,2,1.68,2a5.5,5.5,0,0,0,1.95-.57l.56,2.34a7.93,7.93,0,0,1-3.27.84c-3,0-4-2-4-4.14v-6.34h-1.8v-2.46h2l.37-3.43Z"/><path d="M213.6,245.22c3.23,0,6,2.19,6,6.61,0,3.62-2.15,6.58-6.17,6.58-4.36,0-6.16-3-6.16-6.58C207.31,247.41,210.1,245.22,213.6,245.22Zm-3.08,6.61c0,2,.69,4,3,4,2.1,0,3-1.94,3-4,0-2.86-1.41-4-3-4S210.52,248.92,210.52,251.83Z"/><path d="M66.75,275.61v3.77H70l-.42,2.47H66.75v5.91c0,1.41.64,1.95,1.67,1.95a5.69,5.69,0,0,0,2-.56l.57,2.34a8.1,8.1,0,0,1-3.28.84c-3,0-4-2-4-4.15v-6.33h-1.8v-2.47h2l.37-3.43Z"/><path d="M76,273.34v8a4.81,4.81,0,0,1,4.24-2.2c3,0,4.49,1.95,4.49,4.61v8.44H81.62v-7.45c0-2-.74-3-2.42-3-2.34,0-3.25,1.9-3.25,4v6.51H72.89V273.71Z"/><path d="M99.08,288.63a5.76,5.76,0,0,1-5.57,3.7c-4.34,0-6.27-2.72-6.27-6.76S90,279,93.68,279.13c3,.08,5.75,2.35,5.45,6.46l0,.4H90.35c0,2.19.94,3.7,3.18,3.7a2.88,2.88,0,0,0,2.79-2.05ZM96,284.41c0-2-1-2.93-2.54-2.88a2.87,2.87,0,0,0-2.91,2.88Z"/><path d="M118.22,288.55c-.84,2.64-3,3.78-5.62,3.78-4.24,0-6.07-3.16-6.07-6.61,0-4.22,2.62-6.51,6.14-6.59,3.11-.07,5,1.53,5.5,3.8l-2.84.91a2.54,2.54,0,0,0-2.61-2.12c-1.77,0-3.13,1.31-3.13,3.95,0,2.09.79,4,3.08,4a2.59,2.59,0,0,0,2.71-2Z"/><path d="M123.75,273.34v8a4.81,4.81,0,0,1,4.24-2.2c3,0,4.49,1.95,4.49,4.61v8.44h-3.06v-7.45c0-2-.74-3-2.42-3-2.34,0-3.25,1.9-3.25,4v6.51h-3.06V273.71Z"/><path d="M146.88,288.63a5.76,5.76,0,0,1-5.57,3.7c-4.34,0-6.27-2.72-6.27-6.76s2.72-6.53,6.44-6.44c3,.08,5.74,2.35,5.45,6.46l-.05.4h-8.73c0,2.19.94,3.7,3.18,3.7a2.89,2.89,0,0,0,2.79-2.05Zm-3.13-4.22c.05-2-1-2.93-2.54-2.88a2.87,2.87,0,0,0-2.91,2.88Z"/><path d="M150,288.48a6.73,6.73,0,0,0,4.2,1.43c1.48,0,2.34-.44,2.34-1.51,0-2.51-7.47-.83-7.23-5.57.1-2.32,1.8-3.7,5.23-3.7a10.49,10.49,0,0,1,4.66,1.21l-1.08,2.17a7.36,7.36,0,0,0-3.7-1.06c-1.21,0-2.22.4-2.17,1.41.15,2,7.32.47,7.32,5.45,0,2.66-2.39,4-5.45,4a8.86,8.86,0,0,1-5.3-1.68Z"/><path d="M166,275.61v3.77h3.25l-.42,2.47H166v5.91c0,1.41.64,1.95,1.67,1.95a5.76,5.76,0,0,0,2-.56l.57,2.34a8.1,8.1,0,0,1-3.28.84c-3,0-4-2-4-4.15v-6.33h-1.8v-2.47h2l.37-3.43Z"/><path d="M90.78,323.31A68.38,68.38,0,0,0,105.37,354a80.71,80.71,0,0,0,24.29,19.46A89.76,89.76,0,0,0,145,379.84c1.85.58,2.64-2.31.8-2.89-19-6-36.51-18.64-45.91-36.51a64.71,64.71,0,0,1-6.23-17.93c-.37-1.89-3.26-1.09-2.89.8Z"/><path d="M135.73,367.88c3.18,3.6,6,7.49,8.9,11.32l.53-2.05c-2.34,1-4.63,2.08-6.95,3.11-2.07.91-4.18,1.74-6.25,2.66a1.51,1.51,0,0,0-.54,2.05,1.54,1.54,0,0,0,2.05.54c2.07-.92,4.18-1.75,6.25-2.66,2.33-1,4.62-2.12,7-3.11a1.5,1.5,0,0,0,.54-2.05c-3.06-4-6-8.14-9.37-11.93-1.28-1.45-3.39.67-2.12,2.12Z"/><path class="cls-7" d="M148.79,61.4a36.73,36.73,0,0,1,8.33-23.32,34.4,34.4,0,0,0-45.48-4.38A34.43,34.43,0,0,0,131.9,96a34.33,34.33,0,0,0,25.32-11.11A36.76,36.76,0,0,1,148.79,61.4ZM138,75.49s-3.7-.27-11.47-.27a25.63,25.63,0,0,0-4.93.31l-1.35-2.46c7.78-7.9,12.4-13.63,13-18.71.47-3.66-2-4.82-4.35-4.66a9.73,9.73,0,0,0-6.73,3.92c-.2-.23-1.93-2.07-1.47-2.65A12.43,12.43,0,0,1,130,46.12c5.89,0,9.09,3,8.74,8.51-.46,7-8,13.59-12.63,17.55l8.32-.08c1.77-.15,3-2.54,3.81-4.73,0,0,1.73.5,2,1C139.58,71.53,138.81,75.49,138,75.49Z"/><path class="cls-7" d="M95.79,61.4A36.74,36.74,0,0,1,104.16,38a34.44,34.44,0,1,0,.11,46.9A36.78,36.78,0,0,1,95.79,61.4ZM87.2,75.66H70.92L71,73.39l4.46-.58c.58,0,.81-.23.81-1,.08-10.05,0-19.6,0-19.6l-5.62,1.08c-.19-.31-1.12-2.46-.46-2.73l10.35-4,1,1s-.12,20.87,0,24.37c0,.77.19,1,.73,1l5.08.54Z"/><circle cx="184" cy="61.53" r="34.44"/><text class="cls-8" transform="translate(172.45 75.26)">3</text><path d="M243.45,38.34l-.27,3.12h-5.55V59.34h-3.75V41.46h-5.76V38.34Z"/><path d="M249.6,36.42v9.72a5.86,5.86,0,0,1,5.16-2.67c3.69,0,5.46,2.37,5.46,5.61V59.34H256.5V50.28c0-2.4-.9-3.69-2.94-3.69-2.85,0-4,2.31-4,4.83v7.92h-3.72V36.87Z"/><path d="M277.74,55a7,7,0,0,1-6.78,4.5c-5.28,0-7.62-3.3-7.62-8.22s3.3-7.95,7.83-7.83c3.69.09,7,2.85,6.63,7.86l-.06.48H267.12c0,2.67,1.14,4.5,3.87,4.5a3.5,3.5,0,0,0,3.39-2.49Zm-3.81-5.13c.06-2.43-1.26-3.57-3.09-3.51a3.5,3.5,0,0,0-3.54,3.51Z"/><path d="M284,43.62l.57,2.79A5.8,5.8,0,0,1,290,43.47c3.69,0,5.46,2.37,5.46,5.61V59.34h-3.72V50.28c0-2.4-.9-3.69-2.94-3.69-2.85,0-4,2.31-4,4.83v7.92h-3.72V43.62Z"/><path d="M310.29,39.18v4.59h4l-.51,3h-3.45V54c0,1.71.78,2.37,2,2.37a6.83,6.83,0,0,0,2.37-.69l.69,2.85a9.82,9.82,0,0,1-4,1c-3.69,0-4.83-2.46-4.83-5V46.77h-2.19v-3h2.37l.45-4.17Z"/><path d="M321.48,36.42v9.72a5.86,5.86,0,0,1,5.16-2.67c3.69,0,5.46,2.37,5.46,5.61V59.34h-3.72V50.28c0-2.4-.9-3.69-2.94-3.69-2.85,0-4,2.31-4,4.83v7.92h-3.72V36.87Z"/><path d="M349.62,55a7,7,0,0,1-6.78,4.5c-5.28,0-7.62-3.3-7.62-8.22s3.3-7.95,7.83-7.83c3.69.09,7,2.85,6.63,7.86l-.06.48H339c0,2.67,1.14,4.5,3.87,4.5a3.5,3.5,0,0,0,3.39-2.49Zm-3.81-5.13c.06-2.43-1.26-3.57-3.09-3.51a3.5,3.5,0,0,0-3.54,3.51Z"/><path d="M360.15,43.77V41.64c0-3.12,1.62-5.22,5.16-5.22a6.41,6.41,0,0,1,3.6,1.08v-.72l3.72-.36V54.21c0,1.68.72,2.13,1.83,2.13a2.81,2.81,0,0,0,1.56-.57l.72,2.67a6.6,6.6,0,0,1-3.42,1.08c-3.09,0-4.41-2.1-4.41-5V40.08a6,6,0,0,0-2.7-.69c-1.47,0-2.31.6-2.31,2.85v1.53h3.18l-.48,3h-2.7V59.34h-3.75V46.77h-2.46v-3Z"/><path d="M383.37,43.62V59.34h-3.75V46.71h-2.19V43.62Zm-1.89-6.12a2,2,0,0,1,2.22,1.89,2.22,2.22,0,0,1-4.41,0A1.93,1.93,0,0,1,381.48,37.5Z"/><path d="M401.85,43.62V57c0,5.22-2,8.37-7.8,8.37A16.38,16.38,0,0,1,387.63,64l.87-2.82a13.33,13.33,0,0,0,5.13,1.17c3.39,0,4.5-1.68,4.5-4.26V56.7a5.42,5.42,0,0,1-4.83,2.49c-4.23.09-6.66-3.12-6.66-7.74,0-5.64,3.6-8,6.72-8a5.2,5.2,0,0,1,5,2.85l.39-2.7Zm-11.34,7.8c0,2.67,1.05,4.77,3.84,4.77s3.9-2.1,3.9-4.74c0-3.57-1.89-4.86-3.93-4.86S390.51,48,390.51,51.42Z"/><path d="M409.41,36.42v9.72a5.86,5.86,0,0,1,5.16-2.67c3.69,0,5.46,2.37,5.46,5.61V59.34h-3.72V50.28c0-2.4-.9-3.69-2.94-3.69-2.85,0-4,2.31-4,4.83v7.92h-3.72V36.87Z"/><path d="M428.58,39.18v4.59h4l-.51,3h-3.45V54c0,1.71.78,2.37,2,2.37a6.83,6.83,0,0,0,2.37-.69l.69,2.85a9.82,9.82,0,0,1-4,1c-3.69,0-4.83-2.46-4.83-5V46.77h-2.19v-3H425l.45-4.17Z"/><path d="M445.29,43.62l.54,2.82a5.71,5.71,0,0,1,5.37-3c3,.09,6.18,2.1,6.18,7.89,0,4.74-2.37,8.16-6.66,8.16A4.88,4.88,0,0,1,446.07,57v8.37h-3.75V43.62Zm.51,7.83c0,2.7,1,4.86,4,4.86,2.43,0,3.78-1.83,3.78-4.92,0-3.66-1.83-4.8-3.81-4.8C447.6,46.59,445.8,48.3,445.8,51.45Z"/><path d="M464.37,36.42v9.72a5.86,5.86,0,0,1,5.16-2.67c3.69,0,5.46,2.37,5.46,5.61V59.34h-3.72V50.28c0-2.4-.9-3.69-2.94-3.69-2.85,0-4,2.31-4,4.83v7.92h-3.72V36.87Z"/><path d="M478.41,44.61a18.74,18.74,0,0,1,5.94-1.14c4.74,0,6.48,2.34,6.48,6v6.36a.79.79,0,0,0,.75.9,3,3,0,0,0,1.23-.18V59a6.08,6.08,0,0,1-2.49.48,2.84,2.84,0,0,1-2.85-2.13,6.87,6.87,0,0,1-4.74,2.13c-3.06,0-5.34-1.56-5.37-4.83s2.46-5,6.39-5a24.49,24.49,0,0,1,3.39.3v-.93c0-1.71-1.08-2.64-3.24-2.61a12.68,12.68,0,0,0-4.86,1Zm8.7,7.35a16.62,16.62,0,0,0-3.06-.18c-1.8.09-2.94.93-3,2.52a2.21,2.21,0,0,0,2.55,2.31,6.17,6.17,0,0,0,3.48-1.26Z"/><path d="M495.81,54.84a8.15,8.15,0,0,0,5.1,1.74c1.8,0,2.85-.54,2.85-1.83,0-3.06-9.09-1-8.79-6.78.12-2.82,2.19-4.5,6.36-4.5A12.78,12.78,0,0,1,507,44.94l-1.32,2.64a8.9,8.9,0,0,0-4.5-1.29c-1.47,0-2.7.48-2.64,1.71.18,2.49,8.91.57,8.91,6.63,0,3.24-2.91,4.92-6.63,4.89a10.76,10.76,0,0,1-6.45-2Z"/><path d="M524.28,55a7,7,0,0,1-6.78,4.5c-5.28,0-7.62-3.3-7.62-8.22s3.3-7.95,7.83-7.83c3.69.09,7,2.85,6.63,7.86l-.06.48H513.66c0,2.67,1.14,4.5,3.87,4.5a3.5,3.5,0,0,0,3.39-2.49Zm-3.81-5.13c.06-2.43-1.26-3.57-3.09-3.51a3.5,3.5,0,0,0-3.54,3.51Z"/><path d="M238,67.38l-.26,1.1a7.49,7.49,0,0,0-1.65-.2c-2.41,0-3.57.87-3.57,4.06V74.2h4.38l-.29,1.19h-4.09V89.25h-1.39V75.39h-3.05V74.2h3.05v-2c0-3.69,1.82-5.08,4.81-5.08A9.18,9.18,0,0,1,238,67.38Z"/><path d="M245.79,89.43c-4.58,0-6.58-3.48-6.58-7.75,0-5.19,3-7.77,6.7-7.77,3.39,0,6.46,2.58,6.46,7.77C252.37,86,250,89.43,245.79,89.43Zm0-1.19c3.48,0,5.19-3.17,5.19-6.56,0-4.67-2.46-6.58-5.07-6.58-2.82,0-5.28,1.8-5.28,6.58C240.63,85.05,241.93,88.24,245.79,88.24Z"/><path d="M258.84,80.38v8.87h-1.39V74.05h1.13l.26,3.08c.64-1.95,2.35-3.22,5.07-3.22a8.65,8.65,0,0,1,1.63.14l-.2,1.28a4.73,4.73,0,0,0-1.51-.2C260.38,75.13,258.84,77.65,258.84,80.38Z"/><path d="M287.32,85.45l1.1.67a7,7,0,0,1-6,3.31c-4.79,0-6.82-3.28-6.82-8,0-4.91,3-7.57,6.84-7.57,3.51,0,6.36,2.55,6,7.28l-.06.49H277c0,4,1.65,6.56,5.48,6.56A5.68,5.68,0,0,0,287.32,85.45Zm-10.24-5h10c0-3.86-2-5.39-4.65-5.39C279.69,75.1,277.34,76.75,277.08,80.49Z"/><path d="M303.18,89.25l-4.58-6.7-4.7,6.7h-1.6l5.51-7.71-5-7.49h1.62l4.21,6.44L303,74.05h1.59l-5.16,7.43,5.34,7.77Z"/><path d="M313.65,89.43c-3.08,0-5.4-1.48-5.4-4.76s2.82-4.76,6.15-4.76a19.84,19.84,0,0,1,4.76.64V79c0-2.52-1.57-3.85-4.64-3.85a11.33,11.33,0,0,0-5,1.16l-.32-1.19a13.82,13.82,0,0,1,5.31-1.16c4.52,0,6,2.32,6,5.25v8.21c0,.43.09.81.64.87a5.49,5.49,0,0,0,1.48-.18v1.08a4.75,4.75,0,0,1-1.62.29,2,2,0,0,1-1.89-2.15A9,9,0,0,1,313.65,89.43Zm0-1.22a9.43,9.43,0,0,0,5.51-2.12V81.62a26.39,26.39,0,0,0-5-.58c-2.9,0-4.52,1.16-4.52,3.66C309.65,86.9,311.1,88.21,313.65,88.21Z"/><path d="M327.83,74.05l.23,3a5.11,5.11,0,0,1,4.67-3.19c2.7-.09,4.09,1.19,4.7,3a5.46,5.46,0,0,1,5-3c3.83-.12,5.05,2.43,5.05,5.42v9.92h-1.4v-10c0-2.72-1.24-4.14-3.74-4.14-3.48,0-4.58,2.43-4.58,5v9.14h-1.39v-10c0-2.72-1.25-4.14-3.75-4.14-3.65,0-4.58,2.69-4.58,5.42v8.73h-1.39V74.05Z"/><path d="M354.33,74.05l.27,3.08a6.22,6.22,0,0,1,5.62-3.22c3.4,0,6.62,2.17,6.62,7.63,0,4.58-2.27,7.89-6.85,7.89a5.62,5.62,0,0,1-5.39-3.22v8.84h-1.43v-21Zm5.78,14.19c3.65,0,5.33-2.93,5.33-6.67,0-4.91-2.58-6.47-5.39-6.47-3.11,0-5.57,2.52-5.57,6.55C354.48,85,355.67,88.24,360.11,88.24Z"/><path d="M373.33,85.42c0,2.15.9,2.76,2.32,2.76a4.81,4.81,0,0,0,2.44-.87l.63,1.1a5.69,5.69,0,0,1-3.07,1c-2.9,0-3.71-1.74-3.71-4V67.35l1.39-.26Z"/><path d="M391.89,85.45l1.1.67a6.94,6.94,0,0,1-6,3.31c-4.79,0-6.82-3.28-6.82-8,0-4.91,3-7.57,6.85-7.57,3.51,0,6.35,2.55,6,7.28l-.06.49h-11.4c0,4,1.66,6.56,5.49,6.56A5.68,5.68,0,0,0,391.89,85.45Zm-10.24-5h10c0-3.86-2-5.39-4.64-5.39C384.26,75.1,381.91,76.75,381.65,80.49Z"/><path d="M397.66,89.4c0-.58-.75-.53-.75-.53a1.12,1.12,0,0,1,0-2.23c1.45,0,2,1.34,1.82,2.73a3.29,3.29,0,0,1-3.45,2.81v-.9A2.13,2.13,0,0,0,397.66,89.4Z"/><path d="M414.6,89.43c-3.08,0-5.4-1.48-5.4-4.76s2.81-4.76,6.15-4.76a19.84,19.84,0,0,1,4.76.64V79c0-2.52-1.57-3.85-4.64-3.85a11.27,11.27,0,0,0-5,1.16l-.32-1.19a13.76,13.76,0,0,1,5.31-1.16c4.52,0,6,2.32,6,5.25v8.21c0,.43.09.81.64.87a5.49,5.49,0,0,0,1.48-.18v1.08a4.81,4.81,0,0,1-1.63.29,2,2,0,0,1-1.88-2.15A9,9,0,0,1,414.6,89.43Zm0-1.22a9.43,9.43,0,0,0,5.51-2.12V81.62a26.5,26.5,0,0,0-5-.58c-2.9,0-4.53,1.16-4.53,3.66C410.59,86.9,412,88.21,414.6,88.21Z"/><path d="M435.59,75.39h-2.52V74.2h2.58l.2-4.24,1.13-.2V74.2h4.44l-.32,1.19H437v10c0,2.15.9,2.76,2.32,2.76a7.06,7.06,0,0,0,2.93-1.07l.64,1.1a7.77,7.77,0,0,1-3.57,1.22c-2.9,0-3.71-1.74-3.71-4Z"/><path d="M448.79,89.25h-1.43v-14h-2.49V74.05h3.92Zm-1.86-20a1.12,1.12,0,0,1,1.1-1.1,1.12,1.12,0,1,1,0,2.23A1.12,1.12,0,0,1,446.93,69.21Z"/><path d="M466.86,87.6c0,5-2.18,7.45-7,7.45a15.16,15.16,0,0,1-5.6-1l.43-1.22a15.14,15.14,0,0,0,5.28,1c4.15,0,5.51-2.69,5.51-5.85V86.21a6.32,6.32,0,0,1-5.57,3.22c-4.49.14-6.73-3.4-6.73-7.69,0-5.22,3-7.83,6.65-7.83a5.83,5.83,0,0,1,5.65,3.19l.24-3h1.16Zm-6.79.64c3.77,0,5.42-3.17,5.42-6.59,0-4.64-2.67-6.55-5.54-6.55-3,0-5.39,1.77-5.39,6.55C454.56,85.05,455.63,88.24,460.07,88.24Z"/><path d="M484.75,79.33v9.92h-1.39v-10c0-2.72-1.51-4.14-4-4.14-3.65,0-5.31,2.69-5.31,5.42v8.73h-1.39V67.35l1.39-.26V77.24a5.83,5.83,0,0,1,5.4-3.33C483.27,73.79,484.75,76.34,484.75,79.33Z"/><path d="M491.1,75.39h-2.53V74.2h2.58l.21-4.24,1.13-.2V74.2h4.44l-.32,1.19h-4.12v10c0,2.15.9,2.76,2.32,2.76a7.06,7.06,0,0,0,2.93-1.07l.64,1.1a7.82,7.82,0,0,1-3.57,1.22c-2.9,0-3.71-1.74-3.71-4Z"/><path d="M510.15,75.39h-2.53V74.2h2.59l.2-4.24,1.13-.2V74.2H516l-.32,1.19h-4.12v10c0,2.15.9,2.76,2.32,2.76a7.06,7.06,0,0,0,2.93-1.07l.64,1.1a7.82,7.82,0,0,1-3.57,1.22c-2.9,0-3.71-1.74-3.71-4Z"/><path d="M531.87,89.25l-.23-3.6A6,6,0,0,1,526,89.4c-3.83.11-5.34-2.44-5.34-5.43V74.05h1.4v10c0,2.73,1.53,4.15,4,4.15,3.65,0,5.51-3.37,5.51-6V74.05H533v15.2Z"/><path d="M550.84,86A6.35,6.35,0,0,1,545,89.43c-4.64,0-6.82-3.72-6.82-7.78,0-5,3.14-7.74,7-7.74a6,6,0,0,1,5.63,3.45l-1.25.55A4.64,4.64,0,0,0,545,75.1c-3,0-5.51,2.11-5.51,6.47,0,3.48,1.53,6.61,5.45,6.61a4.68,4.68,0,0,0,4.61-2.82Z"/><path d="M560.93,81.65l5.51,7.6h-1.77l-4.93-6.9h-2.87v6.9h-1.42V67.35l1.42-.26V81.16h2.81l4.67-7.11h1.8Z"/><path d="M578.5,74.05l.26,3.08a6.22,6.22,0,0,1,5.63-3.22c3.39,0,6.61,2.17,6.61,7.63,0,4.58-2.26,7.89-6.84,7.89a5.63,5.63,0,0,1-5.4-3.22v8.84h-1.42v-21Zm5.77,14.19c3.66,0,5.34-2.93,5.34-6.67,0-4.91-2.58-6.47-5.4-6.47-3.1,0-5.56,2.52-5.56,6.55C578.65,85,579.83,88.24,584.27,88.24Z"/><path d="M601.93,89.43c-4.58,0-6.58-3.48-6.58-7.75,0-5.19,3-7.77,6.7-7.77,3.39,0,6.47,2.58,6.47,7.77C608.52,86,606.17,89.43,601.93,89.43Zm0-1.19c3.48,0,5.2-3.17,5.2-6.56,0-4.67-2.47-6.58-5.08-6.58-2.81,0-5.28,1.8-5.28,6.58C596.77,85.05,598.08,88.24,601.93,88.24Z"/><path d="M623.45,75.3l-.58,1.16a8.51,8.51,0,0,0-4.61-1.36c-2.09,0-4.06.61-4,2.75.08,3.8,9.71,1.57,9.71,7.14,0,3-2.55,4.49-5.94,4.44a8.21,8.21,0,0,1-5.6-2l.78-1A6.65,6.65,0,0,0,618,88.24c2.75,0,4.55-1,4.55-3.22,0-4.56-9.6-2.06-9.66-7.08,0-2.55,1.89-4,5.43-4A11.23,11.23,0,0,1,623.45,75.3Z"/><path d="M630.93,89.25h-1.42v-14H627V74.05h3.91Zm-1.85-20a1.12,1.12,0,0,1,1.1-1.1,1.12,1.12,0,1,1,0,2.23A1.12,1.12,0,0,1,629.08,69.21Z"/><path d="M637.57,75.39h-2.52V74.2h2.58l.2-4.24,1.13-.2V74.2h4.44l-.32,1.19H639v10c0,2.15.9,2.76,2.33,2.76a7.05,7.05,0,0,0,2.92-1.07l.64,1.1a7.76,7.76,0,0,1-3.56,1.22c-2.91,0-3.72-1.74-3.72-4Z"/><path d="M650.77,89.25h-1.42v-14h-2.5V74.05h3.92Zm-1.86-20a1.12,1.12,0,0,1,1.1-1.1,1.12,1.12,0,1,1,0,2.23A1.12,1.12,0,0,1,648.91,69.21Z"/><path d="M662.46,89.43c-4.59,0-6.59-3.48-6.59-7.75,0-5.19,3-7.77,6.7-7.77,3.39,0,6.47,2.58,6.47,7.77C669,86,666.69,89.43,662.46,89.43Zm0-1.19c3.48,0,5.19-3.17,5.19-6.56,0-4.67-2.47-6.58-5.08-6.58-2.81,0-5.28,1.8-5.28,6.58C657.29,85.05,658.6,88.24,662.46,88.24Z"/><path d="M675.27,74.05l.23,3a5.7,5.7,0,0,1,5.4-3.19c3.83-.12,5.31,2.43,5.31,5.42v9.92h-1.4v-10c0-2.72-1.5-4.14-4-4.14-3.65,0-5.31,2.69-5.31,5.42v8.73h-1.39V74.05Z"/></svg>