<svg id="Layer_1" data-name="Layer 1" xmlns="http://www.w3.org/2000/svg" viewBox="0 0 780 1051.14"><defs><style>.cls-1,.cls-2{fill:#fff;}.cls-1{opacity:0.7;}.cls-3,.cls-4{fill:#d4a47c;}.cls-3,.cls-4,.cls-5,.cls-6,.cls-7{stroke:#fff;stroke-miterlimit:10;}.cls-3{stroke-width:0.41px;}.cls-4{stroke-width:0.28px;}.cls-5{fill:#005058;stroke-width:0.54px;}.cls-6{fill:#fff171;stroke-width:0.3px;}.cls-7{fill:#c6946f;stroke-width:0.27px;}</style></defs><path class="cls-1" d="M148.79,61.4a36.73,36.73,0,0,1,8.33-23.32,34.4,34.4,0,0,0-45.48-4.38A34.43,34.43,0,0,0,131.9,96a34.33,34.33,0,0,0,25.32-11.11A36.76,36.76,0,0,1,148.79,61.4ZM138,75.49s-3.7-.27-11.47-.27a25.63,25.63,0,0,0-4.93.31l-1.35-2.46c7.78-7.9,12.4-13.63,13-18.71.47-3.66-2-4.82-4.35-4.66a9.73,9.73,0,0,0-6.73,3.92c-.2-.23-1.93-2.07-1.47-2.65A12.43,12.43,0,0,1,130,46.12c5.89,0,9.09,3,8.74,8.51-.46,7-8,13.59-12.63,17.55l8.32-.08c1.77-.15,3-2.54,3.81-4.73,0,0,1.73.5,2,1C139.58,71.53,138.81,75.49,138,75.49Z"/><path class="cls-1" d="M95.79,61.4A36.74,36.74,0,0,1,104.16,38a34.44,34.44,0,1,0,.11,46.9A36.78,36.78,0,0,1,95.79,61.4ZM87.2,75.66H70.92L71,73.39l4.46-.58c.58,0,.81-.23.81-1,.08-10.05,0-19.6,0-19.6l-5.62,1.08c-.19-.31-1.12-2.46-.46-2.73l10.35-4,1,1s-.12,20.87,0,24.37c0,.77.19,1,.73,1l5.08.54Z"/><path class="cls-1" d="M201.79,61.4A36.74,36.74,0,0,1,210.16,38a34.43,34.43,0,0,0-47.76-2.48A34.8,34.8,0,0,0,172,93.43a34.41,34.41,0,0,0,38.24-8.51A36.78,36.78,0,0,1,201.79,61.4ZM181.35,75.49a15.64,15.64,0,0,1-7.86-2.19l1-2.89a21.48,21.48,0,0,0,7,1.66c3.35,0,5.51-1.74,5.55-5.24,0-2.46-1.43-4.35-4.47-4.74a17.82,17.82,0,0,0-5,.24c-.5.11-.89-3-.42-3.08,3-.54,7.62-1.08,8.39-4.89.73-3.62-2-4.82-4.35-4.66A8.43,8.43,0,0,0,175,52.82c-.2-.23-1.7-2.12-1-3a10.43,10.43,0,0,1,8.16-3.69c5.89,0,9.12,3,8.74,8.51a6,6,0,0,1-4,4.5c3.47.62,5.47,2.93,5.66,6.7C192.9,71.83,188,75.49,181.35,75.49Z"/><circle cx="236" cy="61.53" r="34.44"/><path class="cls-2" d="M237.43,67,227.3,67c-.11,0-1.42.19-1.42.19S225,65,225.3,64.79c.89-.46,12.94-16.86,14-18.63l3.2.54c-.08,3.92,0,11.35,0,17.4l4.7-.08c.34,0,.07,3-.54,3h-4.12c0,2.27,0,3.47.07,4.39,0,.77.2,1,.74,1l2.34.54-.07,2.23h-11.4l.08-2.27,2.23-.58c.58-.15.81-.23.81-1C237.39,69.72,237.39,68.68,237.43,67Zm-7.12-3h7.12c0-7,0-10.05,0-10.05S230.31,64.06,230.31,64.06Z"/><path d="M296.49,50.34l-.27,3.12h-5.55V71.34h-3.75V53.46h-5.76V50.34Z"/><path d="M302.64,48.42v9.72a5.86,5.86,0,0,1,5.16-2.67c3.69,0,5.46,2.37,5.46,5.61V71.34h-3.72V62.28c0-2.4-.9-3.69-2.94-3.69-2.85,0-4,2.31-4,4.83v7.92h-3.72V48.87Z"/><path d="M330.78,67a7,7,0,0,1-6.78,4.5c-5.28,0-7.62-3.3-7.62-8.22s3.3-7.95,7.83-7.83c3.69.09,7,2.85,6.63,7.86l-.06.48H320.16c0,2.67,1.14,4.5,3.87,4.5a3.5,3.5,0,0,0,3.39-2.49ZM327,61.89c.06-2.43-1.26-3.57-3.09-3.51a3.5,3.5,0,0,0-3.54,3.51Z"/><path d="M343.32,55.62l.57,2.79a5.8,5.8,0,0,1,5.37-2.94c3.69,0,5.46,2.37,5.46,5.61V71.34H351V62.28c0-2.4-.9-3.69-2.94-3.69-2.85,0-4,2.31-4,4.83v7.92h-3.72V55.62Z"/><path d="M372.3,67a7,7,0,0,1-6.78,4.5c-5.28,0-7.62-3.3-7.62-8.22s3.3-7.95,7.83-7.83c3.69.09,7,2.85,6.63,7.86l-.06.48H361.68c0,2.67,1.14,4.5,3.87,4.5a3.5,3.5,0,0,0,3.39-2.49Zm-3.81-5.13c.06-2.43-1.26-3.57-3.09-3.51a3.5,3.5,0,0,0-3.54,3.51Z"/><path d="M378.39,55.62l3.15,6.18,3.3-6.18h4l-4.35,7.8L389,71.34h-4.26l-3.3-6.12L378,71.34h-4.14l4.83-7.86-4.29-7.86Z"/><path d="M396.81,51.18v4.59h4l-.51,3h-3.45V66c0,1.71.78,2.37,2,2.37a6.83,6.83,0,0,0,2.37-.69l.69,2.85a9.82,9.82,0,0,1-4,1c-3.69,0-4.83-2.46-4.83-5V58.77H390.9v-3h2.37l.45-4.17Z"/><path d="M424.35,67a7,7,0,0,1-6.78,4.5c-5.28,0-7.62-3.3-7.62-8.22s3.3-7.95,7.83-7.83c3.69.09,7,2.85,6.63,7.86l-.06.48H413.73c0,2.67,1.14,4.5,3.87,4.5A3.5,3.5,0,0,0,421,65.82Zm-3.81-5.13c.06-2.43-1.26-3.57-3.09-3.51a3.5,3.5,0,0,0-3.54,3.51Z"/><path d="M431.4,48.42V66.21c0,1.68.75,2.13,1.86,2.13a2.93,2.93,0,0,0,1.56-.57l.69,2.67a6.47,6.47,0,0,1-3.39,1.08c-3.12,0-4.44-2.1-4.44-5V48.87Z"/><path d="M450.69,67a7,7,0,0,1-6.78,4.5c-5.28,0-7.62-3.3-7.62-8.22s3.3-7.95,7.83-7.83c3.69.09,7,2.85,6.63,7.86l-.06.48H440.07c0,2.67,1.14,4.5,3.87,4.5a3.5,3.5,0,0,0,3.39-2.49Zm-3.81-5.13c.06-2.43-1.26-3.57-3.09-3.51a3.5,3.5,0,0,0-3.54,3.51Z"/><path d="M457,55.62l.54,2.79a5.25,5.25,0,0,1,4.86-3,4.58,4.58,0,0,1,4.68,2.91,5.53,5.53,0,0,1,5.07-2.91c3.69,0,5.13,2.4,5.13,5.64V71.34h-3.72V62.28c0-2.4-.57-3.69-2.61-3.69-2.7,0-3.42,2-3.42,4.35v8.4H463.8V62.28c0-2.4-.57-3.69-2.61-3.69-2.88,0-3.45,2.31-3.45,4.83v7.92H454V55.62Z"/><path d="M494.85,67a7,7,0,0,1-6.78,4.5c-5.28,0-7.62-3.3-7.62-8.22s3.3-7.95,7.83-7.83c3.69.09,7,2.85,6.63,7.86l-.06.48H484.23c0,2.67,1.14,4.5,3.87,4.5a3.5,3.5,0,0,0,3.39-2.49ZM491,61.89c.06-2.43-1.26-3.57-3.09-3.51a3.5,3.5,0,0,0-3.54,3.51Z"/><path d="M501.12,55.62l.57,2.79a5.8,5.8,0,0,1,5.37-2.94c3.69,0,5.46,2.37,5.46,5.61V71.34H508.8V62.28c0-2.4-.9-3.69-2.94-3.69-2.85,0-4,2.31-4,4.83v7.92h-3.72V55.62Z"/><path d="M521.13,51.18v4.59h4l-.51,3h-3.45V66c0,1.71.78,2.37,2,2.37a6.83,6.83,0,0,0,2.37-.69l.69,2.85a9.82,9.82,0,0,1-4,1c-3.69,0-4.83-2.46-4.83-5V58.77h-2.19v-3h2.37L518,51.6Z"/><path d="M539.76,55.62V71.34H536V58.71h-2.19V55.62Zm-1.89-6.12a2,2,0,0,1,2.22,1.89,2.22,2.22,0,0,1-4.41,0A1.93,1.93,0,0,1,537.87,49.5Z"/><path d="M544,66.84a8.15,8.15,0,0,0,5.1,1.74c1.8,0,2.85-.54,2.85-1.83,0-3.06-9.09-1-8.79-6.78.12-2.82,2.19-4.5,6.36-4.5a12.78,12.78,0,0,1,5.67,1.47l-1.32,2.64a8.9,8.9,0,0,0-4.5-1.29c-1.47,0-2.7.48-2.64,1.71.18,2.49,8.91.57,8.91,6.63,0,3.24-2.91,4.92-6.63,4.89a10.76,10.76,0,0,1-6.45-2Z"/><path d="M569.79,51.18v4.59h4l-.51,3h-3.45V66c0,1.71.78,2.37,2,2.37a6.83,6.83,0,0,0,2.37-.69l.69,2.85a9.82,9.82,0,0,1-4,1c-3.69,0-4.83-2.46-4.83-5V58.77h-2.19v-3h2.37l.45-4.17Z"/><path d="M581,48.42v9.72a5.86,5.86,0,0,1,5.16-2.67c3.69,0,5.46,2.37,5.46,5.61V71.34h-3.72V62.28c0-2.4-.9-3.69-2.94-3.69-2.85,0-4,2.31-4,4.83v7.92h-3.72V48.87Z"/><path d="M609.12,67a7,7,0,0,1-6.78,4.5c-5.28,0-7.62-3.3-7.62-8.22s3.3-7.95,7.83-7.83c3.69.09,7,2.85,6.63,7.86l-.06.48H598.5c0,2.67,1.14,4.5,3.87,4.5a3.5,3.5,0,0,0,3.39-2.49Zm-3.81-5.13c.06-2.43-1.26-3.57-3.09-3.51a3.5,3.5,0,0,0-3.54,3.51Z"/><path d="M632.52,67a7,7,0,0,1-6.78,4.5c-5.28,0-7.62-3.3-7.62-8.22s3.3-7.95,7.83-7.83c3.69.09,7,2.85,6.63,7.86l-.06.48H621.9c0,2.67,1.14,4.5,3.87,4.5a3.5,3.5,0,0,0,3.39-2.49Zm-3.81-5.13c.06-2.43-1.26-3.57-3.09-3.51a3.5,3.5,0,0,0-3.54,3.51Z"/><path d="M638.79,55.62l.57,2.79a5.8,5.8,0,0,1,5.37-2.94c3.69,0,5.46,2.37,5.46,5.61V71.34h-3.72V62.28c0-2.4-.9-3.69-2.94-3.69-2.85,0-4,2.31-4,4.83v7.92h-3.72V55.62Z"/><path d="M658.8,51.18v4.59h4l-.51,3H658.8V66c0,1.71.78,2.37,2,2.37a6.83,6.83,0,0,0,2.37-.69l.69,2.85a9.82,9.82,0,0,1-4,1c-3.69,0-4.83-2.46-4.83-5V58.77h-2.19v-3h2.37l.45-4.17Z"/><path d="M669,55.62l.69,3.24c.72-2.4,2.55-3.45,5.1-3.39a6.19,6.19,0,0,1,1.62.27L675.84,59a6.48,6.48,0,0,0-2.25-.3c-2.76.09-3.81,2.22-3.81,4.74v7.89h-3.72V55.62Z"/><path d="M682.32,55.62l3.87,11.1h.24L690,55.62h3.84l-5.82,16c-1.92,5.25-3.72,6.57-9.27,5.4l.66-3.15c3.54.87,4,.06,5.13-3L678.6,55.62Z"/><path d="M127.67,638.73a68.37,68.37,0,0,0,25.22,22.81,81.79,81.79,0,0,0,30,8.72,88.41,88.41,0,0,0,16.43.06c1.91-.17,1.93-3.17,0-3-19.82,1.76-40.89-3.08-56.41-16a65,65,0,0,1-12.69-14.16c-1.06-1.6-3.66-.1-2.59,1.52Z"/><path d="M186.2,662.73c4.44,2.16,8.64,4.75,12.89,7.23l-.3-2.35c-1.75,1.78-3.41,3.63-5.13,5.43s-3.26,3.28-4.85,5c-1.33,1.41.79,3.53,2.12,2.12,1.59-1.68,3.25-3.28,4.85-5s3.38-3.66,5.13-5.44a1.52,1.52,0,0,0-.3-2.36c-4.26-2.48-8.46-5.07-12.89-7.23-1.73-.85-3.25,1.74-1.52,2.59Z"/><path d="M53.76,543.75c3.48,0,5.48,1.31,5.48,4.27a4,4,0,0,1-2.34,3.87A4,4,0,0,1,59.71,556c0,3-1.9,5-5.87,5H47V543.75Zm-3.69,7h3.52c1.58,0,2.57-.76,2.57-2.31s-.87-2.08-2.45-2.08H50.07Zm0,7.67h3.79c1.68,0,2.72-.79,2.76-2.46s-1.18-2.54-3-2.54H50.07Z"/><path d="M67.87,548c3.23,0,6,2.19,6,6.6,0,3.63-2.14,6.59-6.16,6.59-4.37,0-6.17-3-6.17-6.59C61.58,550.16,64.37,548,67.87,548Zm-3.08,6.6c0,2,.69,4,3,4,2.09,0,3-2,3-4,0-2.86-1.4-4-3-4S64.79,551.66,64.79,554.57Z"/><path d="M88.71,542.17V561H86.15l-.35-2.22a4.52,4.52,0,0,1-4.12,2.37c-3.47.05-5.54-2.84-5.54-6.63,0-4.64,3-6.56,5.52-6.56a4.09,4.09,0,0,1,4,2.44v-7.84ZM79.29,554.5c0,2.2.87,3.92,3.16,3.92s3.25-1.72,3.25-3.89c0-2.94-1.57-4-3.28-4S79.29,551.66,79.29,554.5Z"/><path d="M94,548.09l3.18,9.12h.2l2.91-9.12h3.16L98.7,561.21c-1.58,4.31-3.06,5.4-7.62,4.44l.54-2.59c2.92.71,3.31.05,4.22-2.49L91,548.09Z"/><path d="M111.18,557.31a6.73,6.73,0,0,0,4.2,1.43c1.47,0,2.34-.44,2.34-1.5,0-2.52-7.47-.84-7.23-5.58.1-2.31,1.8-3.69,5.23-3.69a10.55,10.55,0,0,1,4.66,1.2l-1.08,2.17a7.41,7.41,0,0,0-3.7-1.06c-1.21,0-2.22.4-2.17,1.41.15,2,7.32.47,7.32,5.45,0,2.66-2.39,4-5.45,4a8.86,8.86,0,0,1-5.3-1.68Z"/><path d="M126.3,542.17v8a4.82,4.82,0,0,1,4.24-2.19c3,0,4.49,1.94,4.49,4.61V561H132v-7.45c0-2-.74-3-2.41-3-2.35,0-3.26,1.9-3.26,4V561h-3.06V542.54Z"/><path d="M143.91,548c3.23,0,6,2.19,6,6.6,0,3.63-2.14,6.59-6.16,6.59-4.37,0-6.17-3-6.17-6.59C137.62,550.16,140.41,548,143.91,548Zm-3.08,6.6c0,2,.69,4,3,4,2.09,0,3-2,3-4,0-2.86-1.41-4-3-4S140.83,551.66,140.83,554.57Z"/><path d="M155.55,548.09v7.45c0,2,.79,3,2.59,3,2.35,0,3.31-2.42,3.31-4.86v-5.62h3.05V561h-2.44l-.44-2.81a4.71,4.71,0,0,1-4.46,3c-3.16,0-4.66-1.95-4.66-5.2v-7.87Z"/><path d="M170.72,542.17v14.62c0,1.38.62,1.75,1.53,1.75a2.43,2.43,0,0,0,1.28-.46l.57,2.19a5.35,5.35,0,0,1-2.79.89c-2.56,0-3.65-1.73-3.65-4.07V542.54Z"/><path d="M187.17,542.17V561h-2.56l-.35-2.22a4.52,4.52,0,0,1-4.12,2.37c-3.47.05-5.55-2.84-5.55-6.63,0-4.64,3-6.56,5.53-6.56a4.1,4.1,0,0,1,4,2.44v-7.84Zm-9.42,12.33c0,2.2.86,3.92,3.16,3.92s3.25-1.72,3.25-3.89c0-2.94-1.58-4-3.28-4S177.75,551.66,177.75,554.5Z"/><path d="M49.87,576.08v8.22a4.4,4.4,0,0,1,4.31-2.42c2.44.07,5.06,1.73,5.06,6.48,0,3.9-2,6.71-5.45,6.71a4.28,4.28,0,0,1-4.07-2.37l-.42,2.22H46.81V576.48Zm-.12,12.36c0,2.22.81,4,3.25,4,2,0,3.11-1.5,3.11-4,0-3-1.51-3.95-3.13-3.95C51.2,584.44,49.75,585.85,49.75,588.44Z"/><path d="M73.27,591.37a5.76,5.76,0,0,1-5.57,3.7c-4.34,0-6.26-2.71-6.26-6.75s2.71-6.54,6.43-6.44c3,.07,5.75,2.34,5.45,6.46l0,.4H64.54c0,2.19.94,3.69,3.18,3.69a2.87,2.87,0,0,0,2.79-2Zm-3.13-4.21c0-2-1-2.94-2.54-2.89a2.88,2.88,0,0,0-2.91,2.89Z"/><path d="M87.26,591.3c-.84,2.64-3,3.77-5.63,3.77-4.24,0-6.06-3.15-6.06-6.61,0-4.21,2.61-6.51,6.14-6.58,3.11-.07,5,1.53,5.5,3.8l-2.84.91a2.54,2.54,0,0,0-2.61-2.12c-1.78,0-3.13,1.31-3.13,3.94,0,2.1.79,4,3.08,4a2.6,2.6,0,0,0,2.71-2Z"/><path d="M95.55,581.88c3.23,0,6,2.19,6,6.61,0,3.62-2.15,6.58-6.17,6.58-4.36,0-6.16-3-6.16-6.58C89.26,584.07,92,581.88,95.55,581.88Zm-3.09,6.61c0,2,.69,4,3,4,2.1,0,3-2,3-4,0-2.86-1.4-4-3-4C93.84,584.47,92.46,585.58,92.46,588.49Z"/><path d="M106.74,582l.45,2.3a4.3,4.3,0,0,1,4-2.44,3.77,3.77,0,0,1,3.85,2.39,4.52,4.52,0,0,1,4.17-2.39c3,0,4.21,2,4.21,4.63v8.43h-3v-7.44c0-2-.47-3-2.15-3-2.22,0-2.81,1.68-2.81,3.58v6.9h-3.06v-7.44c0-2-.47-3-2.14-3-2.37,0-2.84,1.9-2.84,4v6.51H104.3V582Z"/><path d="M137.87,591.37a5.77,5.77,0,0,1-5.58,3.7c-4.33,0-6.26-2.71-6.26-6.75s2.71-6.54,6.44-6.44c3,.07,5.74,2.34,5.45,6.46l0,.4h-8.73c0,2.19.94,3.69,3.18,3.69a2.89,2.89,0,0,0,2.79-2Zm-3.13-4.21c0-2-1-2.94-2.54-2.89a2.87,2.87,0,0,0-2.91,2.89Z"/><path d="M147.81,582l3.11,9.37h.19L154.2,582h3.13l-4.81,12.92h-3.08L144.75,582Z"/><path d="M170.15,591.37a5.76,5.76,0,0,1-5.57,3.7c-4.34,0-6.26-2.71-6.26-6.75s2.71-6.54,6.43-6.44c3,.07,5.75,2.34,5.45,6.46l0,.4h-8.73c0,2.19.94,3.69,3.18,3.69a2.87,2.87,0,0,0,2.79-2ZM167,587.16c0-2-1-2.94-2.54-2.89a2.88,2.88,0,0,0-2.91,2.89Z"/><path d="M175.31,582l.57,2.67c.59-2,2.09-2.84,4.19-2.79a4.85,4.85,0,0,1,1.33.22l-.47,2.69a5.48,5.48,0,0,0-1.85-.25c-2.27.08-3.13,1.83-3.13,3.9v6.48h-3.06V582Z"/><path d="M187.89,578.35v3.78h3.25l-.42,2.46h-2.83v5.92c0,1.41.64,2,1.67,2a5.43,5.43,0,0,0,1.95-.57l.57,2.34a7.94,7.94,0,0,1-3.28.84c-3,0-4-2-4-4.14v-6.34H183v-2.46H185l.37-3.43Z"/><path d="M198.05,582v12.92H195V584.54h-1.8V582Zm-1.55-5a1.66,1.66,0,0,1,1.82,1.56,1.82,1.82,0,0,1-3.62,0A1.59,1.59,0,0,1,196.5,577Z"/><path d="M212.45,591.3c-.84,2.64-3,3.77-5.62,3.77-4.24,0-6.07-3.15-6.07-6.61,0-4.21,2.62-6.51,6.14-6.58,3.11-.07,5,1.53,5.5,3.8l-2.83.91a2.55,2.55,0,0,0-2.62-2.12c-1.77,0-3.13,1.31-3.13,3.94,0,2.1.79,4,3.08,4a2.61,2.61,0,0,0,2.72-2Z"/><path d="M215.12,582.82a15.36,15.36,0,0,1,4.88-.94c3.9,0,5.33,1.92,5.33,4.93V592a.65.65,0,0,0,.61.74,2.41,2.41,0,0,0,1-.15v2a5,5,0,0,1-2,.39,2.34,2.34,0,0,1-2.35-1.75,5.62,5.62,0,0,1-3.89,1.75c-2.52,0-4.39-1.28-4.42-4s2-4.09,5.26-4.09a19.84,19.84,0,0,1,2.78.25v-.77c0-1.4-.88-2.17-2.66-2.14a10.5,10.5,0,0,0-4,.78Zm7.15,6a13.07,13.07,0,0,0-2.52-.15c-1.48.07-2.41.76-2.44,2.07a1.81,1.81,0,0,0,2.1,1.9,5.09,5.09,0,0,0,2.86-1Z"/><path d="M232.14,576.08v14.63c0,1.38.61,1.75,1.52,1.75A2.46,2.46,0,0,0,235,592l.56,2.19a5.22,5.22,0,0,1-2.78.89c-2.57,0-3.65-1.72-3.65-4.07V576.45Z"/><path class="cls-3" d="M373.43,330.31c2.93-1.37,5.84-2.94,8.84-4.14,1.85-.74,3.76-.4,5.65-.62,2.7-.33,5.35-1.31,8-1.9,3.21-.73,6.38-.43,9.65-.44,19.93,0,41,11.82,55.56,26,14.34,13.91,23.55,26.93,30.93,45.15,7.46,18.4,16.77,37,14.78,57.45-.23,2.4-10-12.59-12.39-12.87a58.69,58.69,0,0,1-7.48-1.83c-8.71-2.24-17.31-4.75-25.36-8.85-5.13-2.62-10.41-4.76-15.43-7.57-3.55-2-7.26-3.71-10.92-5.48-4.16-2-8.12-4.64-12.46-6.28-2.92-1.1-5.82-2.28-8.76-3.34a27.3,27.3,0,0,1-3.45-1.26,16.19,16.19,0,0,0-2.8-1.65,9.49,9.49,0,0,1-3.71-2.25c-1.82-1.43-3.74-2.55-5.25-4.37-1.95-2.34-4.16-4.51-6.31-6.72-2.42-2.49-5.13-4.59-7.22-7.35-.72-.95-1.67-1.71-2.46-2.62-1.29-1.47-2.5-3-3.81-4.45a10.12,10.12,0,0,1-1.78-2.54c-.57-1.23-1.45-2.16-2.06-3.36-1.05-2.06-2.69-3.64-3.66-5.75-1.31-2.87-3.1-5.73-3.66-8.87-.63-3.57-1.21-7.52-.48-11.13.28-1.34.63-2.67.86-4a19.59,19.59,0,0,1,.58-3.52c.66-1.74,1.73-4.45,3.79-5"/><path class="cls-4" d="M374.2,316.92c-.22-1.25,9.58,2.58,10.58,1.49s2.3.22,3.33.75c.85.43,1.79.42,2.67.79a8.14,8.14,0,0,0,1.88.83,6.5,6.5,0,0,0,4.63-1c1.41-1.18,1.45-3.26,2.66-4.56a5.74,5.74,0,0,1,1.94-1.17,2.72,2.72,0,0,1-1-1.45c-1.14-3.92.41-7.75.61-11.68a21.17,21.17,0,0,0-3.57-.33,30.26,30.26,0,0,1-5.61-.66c-1.67-.34-3.2-.17-4.37-1.38-.9-.94-1.14-2.29-2-3.22a21.54,21.54,0,0,1-1.94-1.76,31.76,31.76,0,0,1-2.13-3.55c-1.56-2.63-3.41-5.16-5.09-7.73a25.59,25.59,0,0,0-6.75-7.16,20.6,20.6,0,0,0-9.41-3.29,45.81,45.81,0,0,0-7.77-.34,77.3,77.3,0,0,0-11.19,1.77c-4.15,1-8.44,3.53-11.8,6.06-2.49,1.88-5.15,3.31-7.46,5.49a26.26,26.26,0,0,0-5.29,7.87c-1.19,2.46-3,4.21-4.69,6.21-.87,1-1.24,2.33-2.11,3.41a30.35,30.35,0,0,0-2.89,4c-1.53,2.79-.9,5.42-.34,8.32.37,1.94,1.35,3.59,1.7,5.55a14.79,14.79,0,0,0,.84,2.75c.39,1,.46,2,.86,3,.19.49.54.81.75,1.31s0,.92.35,1.38a20.2,20.2,0,0,0,2.46,2.22,29.21,29.21,0,0,1,2.66,2.8,3.82,3.82,0,0,0,.26.33s-.09.19-.09.55a12.57,12.57,0,0,1-.49,2.91c-.51,2.48-1,2.59-1.28,5.47a28,28,0,0,0-.1,5.42,3.57,3.57,0,0,0,4.53,3.18,1.92,1.92,0,0,1,1.32.07,5,5,0,0,1,2.93,2.15,20.23,20.23,0,0,0,1.19,2.93,19.44,19.44,0,0,0,4,4.28c1.26,1,2.27,1,2.63,2.57.26,1.11.47,2.25.68,3.37.4,2.11,1.38,3.93,3.71,4.19a15.73,15.73,0,0,0,10.14-3.08c22.33-19.12,19.77-5.25,29.32-9.16,6.54-2.67,16.47-7.68,23.26-5.59"/><path d="M321.56,322.05c.37,0,.75,0,1.12,0,.22,0,.67,0,.83.22s.07.08,0,.15-.24.05-.32.07a2.15,2.15,0,0,0-.32.13c-.41.19-.8.44-1.22.64-.24.12-.46.26-.71.36-1.53.61-3.32.74-4.77,1.51a7.49,7.49,0,0,0-2.9,3.59c-.42-.34-1.79-1.44-1.59-2,.27-.81,2.27-1.83,2.85-2.49a6.76,6.76,0,0,1,4.21-2.16C319.66,322,320.61,322.11,321.56,322.05Z"/><path d="M398.9,295.64c-2.56-.52-5.4-.61-7.86-1.42-7.85-2.6-10.79-12-16.77-17.74-4.92-4.7-11.94-6.73-18.74-6.7s-13.45,1.94-19.84,4.26c-5.92,2.16-11.8,4.74-16.61,8.81-3.23,2.74-11.42,12.13-8.41,16.88S324,303.37,328,308c2.05,2.36,3,5.65,5.42,7.6a25.06,25.06,0,0,0,4.12,2.29c2.51,1.36,4.64,3.35,7.24,4.53s6,1.34,8-.72a11.69,11.69,0,0,1-1.62-5.82c.13-2,1.44-1.86,3.46-2.12,2.78-.36,4.89.4,5.48,3.14s.58,5.81,2.4,7.94c2,2.31,5.33,2.66,8.35,2.86,5.19.33,14.05-2.59,19.24-2.26,1.14-2.91,1.28-1.85,2.58-4.69,1-2.15-3.27-3.63-1-4.07A19.26,19.26,0,0,0,402.9,310c2.64-3.25,4.05-8.24,1.43-11.5A8.73,8.73,0,0,0,398.9,295.64Z"/><path d="M310.54,300.65l.6-.76a2.09,2.09,0,0,1-.17-.14A3.11,3.11,0,0,0,310.54,300.65Z"/><path class="cls-4" d="M350.36,323.92c-4.9-2.56-1-10.5,3-11.44a6.85,6.85,0,0,1,7.9,4.85c.85,3.44-1.14,7.06-.51,10.55.34,1.84,1.39,3.66.92,5.47s-3.78,2.36-3.84.49"/><path d="M387.17,302a7.48,7.48,0,0,0,1.17-3.35,12.29,12.29,0,0,1,1.64-3.83,6.4,6.4,0,0,1,3.56-3.07,7,7,0,0,1,4.19.13,6.69,6.69,0,0,1,3.24,2c.73,1.14.72,3.36,1,4.67a6.92,6.92,0,0,1-1.06,4.65,6.23,6.23,0,0,1-3.54,3.37,20.49,20.49,0,0,1-11.06-.56c-1.76-.5-3.09-2.63-3.78-4.26s-1.35-4.51-.9-6.27c.88-3.38,5.13-4.25,8.09-4.15,1.78.06,3.56.3,4.69,1.86a10.24,10.24,0,0,1,1.54,4.34,19.26,19.26,0,0,1,.67,5.21,6.91,6.91,0,0,1-.4,2.73,21.41,21.41,0,0,0-1.27,2.82,8.48,8.48,0,0,1-1.73,3,3.34,3.34,0,0,1-2.34,1.24,10.81,10.81,0,0,1-3.16.18c-.67-.05-1.3-.35-2-.46-1.14-.18-1.15-.23-1.48-1.49"/><path d="M389,297.05c-.88-1.22-.62-2.54-.27-3.88a5.89,5.89,0,0,0,.3-1.41,2,2,0,0,1,1-1.73c1.59-1.07,3.88-.93,5.68-.92a6.72,6.72,0,0,1,2.28.25c.67.25,1.22.74,1.88,1a4.77,4.77,0,0,1,1.14.33c.38.24.61.64,1,.87s.66.27,1,.69a8.46,8.46,0,0,1,.68,1.11,5.33,5.33,0,0,1,.92,2.18,15.43,15.43,0,0,1-.06,2.45,5.74,5.74,0,0,1-.29,1.08c-.13.44-.09.9-.21,1.34a6.53,6.53,0,0,1-2.31,2.84c-1.75,1.54-4.45,1.92-6.69,2.28a12.21,12.21,0,0,1-5.25-.36c-.94-.32-1.8-.74-2.71-1.15a10.92,10.92,0,0,1-2.43-1.24,9,9,0,0,1-2-2.25,20,20,0,0,1-1.65-2.78,6.45,6.45,0,0,1-.34-3.11A9.15,9.15,0,0,0,381,293a6,6,0,0,1,.06-1.74,6.89,6.89,0,0,1,3.55-4.73,22,22,0,0,1,4.18-1.71c.95-.22,1.9-.37,2.85-.57a6.15,6.15,0,0,1,3.07.15,4.25,4.25,0,0,1,1.66.72c.46.34,1.08.58,1.39,1.05.94,1.42.76,3.06,1.39,4.52a5.17,5.17,0,0,1,.42.85c.14.48.2,1,.3,1.48a11.15,11.15,0,0,1,.36,2.42,7.29,7.29,0,0,1-.51,2.72,3.79,3.79,0,0,1-2.24,2.16,10.52,10.52,0,0,1-3.65,1.28,13.54,13.54,0,0,1-5.1-.55,10.42,10.42,0,0,1-4.65-2.37,11.35,11.35,0,0,1-1.87-2,11.78,11.78,0,0,1-.85-2.31c-.53-1.66.18-3.47.64-5,.09-.31.18-1.11.43-1.34s.7-.17.94-.22"/><path d="M386.47,316.21c-.88-1.22-.62-2.55-.27-3.88a6,6,0,0,0,.3-1.42,1.93,1.93,0,0,1,1.05-1.72c1.59-1.08,3.87-.94,5.67-.92a6.48,6.48,0,0,1,2.28.25c.67.24,1.22.73,1.88,1a5.28,5.28,0,0,1,1.14.33c.38.25.61.64,1,.88s.67.27,1,.69a8.84,8.84,0,0,1,.67,1.11,5.16,5.16,0,0,1,.92,2.17,15.56,15.56,0,0,1-.06,2.46,6,6,0,0,1-.29,1.08c-.13.44-.09.9-.21,1.34a6.45,6.45,0,0,1-2.31,2.83c-1.75,1.54-4.44,1.93-6.69,2.28a11.92,11.92,0,0,1-5.25-.36c-.94-.31-1.8-.74-2.71-1.14a10.28,10.28,0,0,1-2.42-1.25,8.78,8.78,0,0,1-2-2.24,20.55,20.55,0,0,1-1.65-2.78,6.61,6.61,0,0,1-.34-3.12,8.12,8.12,0,0,0,.36-1.64,5.65,5.65,0,0,1,.07-1.74,6.92,6.92,0,0,1,3.54-4.74,22.71,22.71,0,0,1,4.19-1.7c.94-.22,1.9-.38,2.84-.58a6.26,6.26,0,0,1,3.07.16,4.42,4.42,0,0,1,1.67.71c.45.35,1.07.59,1.39,1.06.93,1.41.75,3.06,1.39,4.52a6.58,6.58,0,0,1,.42.84c.13.48.19,1,.29,1.49a11.06,11.06,0,0,1,.36,2.42,7,7,0,0,1-.51,2.71,3.73,3.73,0,0,1-2.24,2.16,10.15,10.15,0,0,1-3.64,1.28,13.56,13.56,0,0,1-5.11-.54,10.25,10.25,0,0,1-4.64-2.38,11,11,0,0,1-1.88-2,12,12,0,0,1-.85-2.31c-.53-1.67.18-3.47.64-5.05.1-.31.18-1.11.43-1.34s.7-.18.94-.23"/><path class="cls-5" d="M393.1,397.16c-.81,2.83,3.57,9.6,3.06,12.56-.42,2.41-1.19,4.69-1.42,7.2l-.31,2.68c1,.3,1.81,1.32,2.71,1.91a26.44,26.44,0,0,1,2.81,2c1.76,1.53,3.49,3.23,5.15,4.88a17.13,17.13,0,0,0,3,2.57c1,.62,1.66,1.6,2.62,2.29,2,1.44,2.87,3.3,4.1,5.45a64.13,64.13,0,0,1,3.68,8.5,27.91,27.91,0,0,1,1,5.92c.2,1.36,10,16.68,9.93,18.09,10-9.92,5.94-8.54,16.48-11.05.33-.12.65-.24,1-.34,9.32-2.62,20.8-4.83,29.85,1.12,4.29,2.81,7.32,7.29,9.94,11.8a157,157,0,0,1,12.31,27.51c1.4,4,3,7.9,2.94,12.15,0,1.78.93,13.13,0,13.89a2,2,0,0,1,.27-.19l.13-.2.6-.92c.05-.13.62-1.15.75-1.44.34-.78.64-1.57.93-2.37.08-.24.15-.48.23-.71.39-1.91.74-3.81,1.11-5.6,1.11-5.43,2.15-10.88,3.16-16.34,2-10.63,1.07-26.43,1.52-37.24.16-3.84-1.46-9.65-1.32-13.47.08-2.1.59-2.3-.94-3.76a53.52,53.52,0,0,0-4.17-3.64c-1.77-1.38-3.53-2.54-5.19-4.06-1.87-1.71-3.65-3.39-5.44-5.22-8.3-8.5-14.9-18.73-22.79-27.63-5.33-6-10.1-12.87-15.19-19.17-1.49-1.86-2.71-1-4.61-.62-1.07.22-2.15.45-3.2.7-5.48,1.29-10.8,4.24-16.31,5.78-2,.55-33.19,9-32.32,1.5C399.51,389.13,393.83,394.62,393.1,397.16Z"/><path class="cls-6" d="M448.89,339.72a117.8,117.8,0,0,1,4.52,24.62,64.61,64.61,0,0,1-.38,12.82c-.23,2-.31,4-.38,5.95a2,2,0,0,1,.53-.08,2.85,2.85,0,0,1,1.21.34,6.29,6.29,0,0,1,2.11,1.7l.26.3c.11-2.76.12-5.54.49-8.27.19-1.48.52-4.05.57-6a69.58,69.58,0,0,0-.25-7.22,127.44,127.44,0,0,0-3.29-20.35Q451.58,341.66,448.89,339.72Z"/><path class="cls-6" d="M431.67,329.21a34.31,34.31,0,0,0-4.73-1.63,1.07,1.07,0,0,1-.19-.07c-2.48.17-4.95.39-7.42.72a114.2,114.2,0,0,0-20.78,5.09,20.89,20.89,0,0,1,3.52,3.26,112.71,112.71,0,0,1,16.33-4,133.44,133.44,0,0,1,17.41-1.32l-1.49-.81C433.44,330,432.56,329.6,431.67,329.21Z"/><path class="cls-7" d="M493.4,470.13c-5.24-6.2-12-10.93-19.64-12.43-9.07-1.78-29.11.77-40.51,6a428.55,428.55,0,0,0-17.89,40.23c-.11,4.78-.61,9.46-2.59,13.88-4.61,10.28-8.1,18.12-11,25.8q-4.38,14.49-8.16,29.19c-.37,1.82-.74,3.7-1.11,5.69-2.5,13.42-2.7,27.1-2.72,40.73,0,5.46-.44,11.3-.61,17.13a7.81,7.81,0,0,1-1.12,1.95c-3.16,4-3.65,9.32-5,14.09,0,.16,0,.32,0,.48a21.23,21.23,0,0,1-1.2,5.63L370.63,695c-2.69,8.73-5.75,17.7-7.08,26.61-2.11,14.18-7.5,27.52-13.23,40.9a4.33,4.33,0,0,0-.24-.54C339,786.14,339,787.37,335.24,798.14c-4.21,12-5.75,21-6.45,33.61a154.76,154.76,0,0,0-.26,19.38c.37,5.26-1.4,12.13.33,17.06,1.38,4,6.12,6.66,6.55.64a16.48,16.48,0,0,1,.46-4.56c1.4-3.75,6.63-4.41,9-7.63a12.43,12.43,0,0,0,1.78-4.57c1.3-5.38,2.15-11,3.58-16.3.79-2.9,2.57-4.92,3.73-7.58,2.23-5.15,7.8-8.36,12-11.91a51.28,51.28,0,0,0,5.51-5.52,6.8,6.8,0,0,0,2-5.48,8.27,8.27,0,0,0-2.62-6,32.65,32.65,0,0,1-3.9-3.9c-1.6-2-3.32-4.1-4.88-6.22,3.9-7.91,13.25-22.72,16.5-27.63,7.42-11.2,15.19-22,23.32-32.55,2.79-4.1,5.53-8.23,8.14-12.42a163.06,163.06,0,0,0,15.32-32.88c3.11-6.43,12-24.94,13.43-28.42,9.38-22.77,24.93-35.93,35.14-58.37q10.5-23.1,19.78-46.73c5.3-13.52,12.48-27.69,12.59-42.45C506.38,493.62,501.7,480,493.4,470.13Z"/><path class="cls-3" d="M387.61,334.68c-8.21,0-20.66,10.91-22.6,17.87-2.39,8.59-.91,17.72,1.72,26.07,2.31,7.34,4.72,13.63,10.37,18.93a58.08,58.08,0,0,1,10.17,12.24,63.25,63.25,0,0,1,6.29,14.36,57.55,57.55,0,0,0,7.13,15.55c.81,35.06,9.51,67.58,9,98.6a20.27,20.27,0,0,1-.68,2.13,49.13,49.13,0,0,1-3.44,4.6c-.62.67-1.26,1.33-1.89,2-1.08,1.11-2.12,2.21-3.18,3.36a16.91,16.91,0,0,0-1.37,1.44c-.36.48-.63,1.06-1,1.51l-.28.77c-.41.56-.89,1.06-1.27,1.63a10.69,10.69,0,0,0-.88,1.67c-.1.24-.2.47-.31.71s-.44.72-.61,1.11-.47,1-.62,1.54.21.85.44,1.26a1.44,1.44,0,0,1,.14,1.32c-.17.53-.3,1.07-.47,1.61-.1.35-.24.66-.33,1s-.18.61-.26.92a19.38,19.38,0,0,1-.77,1.93c-.14.32-.26.65-.4,1a6.6,6.6,0,0,1-.46.82,3.63,3.63,0,0,0-.29.75c-.08.29-.23.57-.3.85a3.81,3.81,0,0,0-.11,1.73,1.32,1.32,0,0,0,.14.49,5,5,0,0,0,.48.55,6.69,6.69,0,0,1,.93,1.19,6.56,6.56,0,0,1,.35,1.42c.09.43.19.87.29,1.3s0,.65.09,1a3.39,3.39,0,0,1,.13.72c0,.23,0,.45,0,.69a1.67,1.67,0,0,0-.05.58A7.88,7.88,0,0,0,394,583c.22.54.81.39,1.36.28a2.82,2.82,0,0,0,.81-.37,10.37,10.37,0,0,0,1.29-.82.58.58,0,0,0,.25-.29c0-.09,0-.18,0-.26s.15-.15.23-.22a.81.81,0,0,0,.15-.27,10.32,10.32,0,0,0,.53-2.07c.13-.78.25-1.56.33-2.34,0,0,0-.11,0-.16,0,.33,0,.67,0,1a10.83,10.83,0,0,1-.29,2,16.8,16.8,0,0,0-.59,2,1.84,1.84,0,0,1,0,.4c-.06.29-.12.59-.16.87a5.66,5.66,0,0,0,0,.58,3.86,3.86,0,0,1-.2.66c-.12.48-.29.92-.36,1.39a8.08,8.08,0,0,0-.2,2.52,2.12,2.12,0,0,1-.07.66,4.53,4.53,0,0,0,0,.64,1.94,1.94,0,0,1,0,.59,6.7,6.7,0,0,1-.24.76c-.15.46-.18.94-.36,1.4s-.28.94-.46,1.41a7.89,7.89,0,0,0-.4,1.31c0,.21,0,.38,0,.58s-.06.36-.08.53c0,.43,0,.82-.11,1.25s-.12,1-.16,1.45c-.06.79-.17,1.58-.31,2.39a5.61,5.61,0,0,0,.36,2.11,2.21,2.21,0,0,0,1.66,1.53,3.24,3.24,0,0,0,2.25-.2,2.14,2.14,0,0,0,.88-.69c-.11.19-.2.41-.29.6a1.93,1.93,0,0,0-.08,1.43,2.73,2.73,0,0,0,.14.51,5.49,5.49,0,0,1,.24.68,2.47,2.47,0,0,0,.35.61c.23.31.52.32.94.3a9.31,9.31,0,0,0,1.7-.34,3.3,3.3,0,0,0,1.54-.74,4,4,0,0,0,.82-1.76,18.22,18.22,0,0,0,.65-2.23c.12-.57.24-1.12.4-1.68a14.16,14.16,0,0,0,.46-2c.11-.73.59-1.48.77-2.21.09-.38.14-.76.22-1.14s.21-.63.27-1a7.61,7.61,0,0,1,.84-2,6.09,6.09,0,0,0,.46-1,6.94,6.94,0,0,1,.3-.8l-3.06,9.58a.81.81,0,0,0-.14.62,2,2,0,0,1-.06.34,1.52,1.52,0,0,0,.5,1c.72.73,2,.18,2.9-.34a3.85,3.85,0,0,0,1.36-1.39c.37-.61.85-1.14,1.23-1.74a5.38,5.38,0,0,0,.66-1.64,10.77,10.77,0,0,1,.56-1.78,24.83,24.83,0,0,0,.76-3.56c.08-.34.17-.67.25-1s.23-.51.32-.77c.23-.73.39-1.46.59-2.19a6.19,6.19,0,0,1,.4-1.14c.16-.34.25-.7.42-1s.32-.72.48-1.09l-2.31,7.48c.05.2-.28.51-.07.63s.26.09.38.16.22.19.36.2a.75.75,0,0,0,.38-.1c.48-.19,1-.24,1.44-.41a3.18,3.18,0,0,0,1.2-.82,4.35,4.35,0,0,0,1.1-1.65c.14-.32.36-.58.5-.89s.26-.69.39-1.05.16-.61.28-.89a6.91,6.91,0,0,0,.35-.85c.1-.35.29-.68.39-1a4.32,4.32,0,0,1,.27-.89,7.71,7.71,0,0,0,.57-1.72c.1-.48.4-1,.51-1.45s.38-1,.51-1.51.37-1.18.53-1.77c.07-.23,0-.45.12-.68s.26-.52.34-.8c.14-.55.38-1.08.53-1.63s0-1,.15-1.47a9.75,9.75,0,0,1,.45-1.59,12,12,0,0,0,.27-1.33c.07-.29.23-.56.32-.85a12.22,12.22,0,0,1,.5-1.26c.22-.5.39-1,.57-1.5a3.74,3.74,0,0,0,.12-1.44,2.16,2.16,0,0,1,.21-.81c.12-.3.17-.55.26-.84a2.36,2.36,0,0,0,.18-.55,3.35,3.35,0,0,1,.1-.88,7.82,7.82,0,0,0,.44-1,11.78,11.78,0,0,0-.14-2c0-.23-.07-.45-.09-.68a18.63,18.63,0,0,1,.07-2.47,10.13,10.13,0,0,0,.08-1.55,11.5,11.5,0,0,1-.2-1.22c0-1.11-.31-2.19-.34-3.32,0-.35.1-.72.07-1.07,0-.51-.2-.93-.19-1.46a24,24,0,0,0-.35-2.84,32,32,0,0,1-.08-3.26l0-.09a12.19,12.19,0,0,0-.71-1.74,35.59,35.59,0,0,0,.89-3.74c3.24-16.35,7.26-32.74,8.67-49.08.9-10.4,5.53-25.69,4.27-35.51-1.15-9.08-3.61-11.78-6.69-19.33-.4-1.78-16.12-65.09-16.66-66.78m-17.87,208a2.58,2.58,0,0,0-.05,1c0,.12,0,.25,0,.37A2.16,2.16,0,0,1,399.05,573.54Zm1.6,28.52a8.83,8.83,0,0,1,.34-2.3c.12-.32.26-.65.38-1C401.08,600.13,400.83,601.27,400.65,602.06Zm1.31-5.94a5.34,5.34,0,0,0,.05-.69c0-.46,0-.91,0-1.37a5.85,5.85,0,0,1,.15-1.49,7.31,7.31,0,0,0,.16-1.38,4.81,4.81,0,0,1,.64-1.76,11.15,11.15,0,0,0,.66-1.57,29,29,0,0,1,1-3.63C403.72,588,402.75,592.46,402,596.12Zm9.33-9.72a1.17,1.17,0,0,1,0-.27c.07-.26.21-.47.26-.72a7.62,7.62,0,0,0,.32-2.48c-.06-.45.35-.69.53-1.19s.52-1.13.69-1.65c.33-1,.35-1.76.7-2.8a4.88,4.88,0,0,1,.44-1.39,8.4,8.4,0,0,1,.56-1.09l.35-.64Zm7.9-8.6a8.1,8.1,0,0,1,.7-2.28Zm1-3.38a4.23,4.23,0,0,1,.18-.65Zm.58-2.29c0-.07,0-.13,0-.17S420.76,572,420.73,572.13Z"/></svg>