<svg id="Layer_1" data-name="Layer 1" xmlns="http://www.w3.org/2000/svg" viewBox="0 0 780 1051.14"><defs><style>.cls-1,.cls-2{fill:#fff;}.cls-1{opacity:0.7;}.cls-3{fill:#b58362;}.cls-3,.cls-4,.cls-5,.cls-6,.cls-7,.cls-8,.cls-9{stroke:#fff;stroke-miterlimit:10;}.cls-3,.cls-4,.cls-6,.cls-7{stroke-width:0.42px;}.cls-4,.cls-8,.cls-9{fill:#d4a47c;}.cls-5{fill:#fff171;stroke-width:0.3px;}.cls-6{fill:#005058;}.cls-7{fill:#c6946f;}.cls-8{stroke-width:0.44px;}.cls-9{stroke-width:0.28px;}</style></defs><path d="M53.76,543.75c3.48,0,5.48,1.31,5.48,4.27a4,4,0,0,1-2.34,3.87A4,4,0,0,1,59.71,556c0,3-1.9,5-5.87,5H47V543.75Zm-3.69,7h3.52c1.58,0,2.57-.76,2.57-2.31s-.87-2.07-2.45-2.07H50.07Zm0,7.67h3.79c1.68,0,2.72-.79,2.76-2.46s-1.18-2.54-3-2.54H50.07Z"/><path d="M67.87,548c3.23,0,6,2.19,6,6.6,0,3.63-2.14,6.59-6.16,6.59-4.37,0-6.17-3-6.17-6.59C61.58,550.16,64.37,548,67.87,548Zm-3.08,6.6c0,2,.69,4,3,4,2.09,0,3-2,3-4,0-2.85-1.4-4-3-4S64.79,551.66,64.79,554.57Z"/><path d="M88.71,542.17V561H86.15l-.35-2.22a4.52,4.52,0,0,1-4.12,2.37c-3.47.05-5.54-2.84-5.54-6.63,0-4.64,3-6.56,5.52-6.56a4.09,4.09,0,0,1,4,2.44v-7.84ZM79.29,554.5c0,2.2.87,3.92,3.16,3.92s3.25-1.72,3.25-3.89c0-2.94-1.58-4-3.28-4S79.29,551.66,79.29,554.5Z"/><path d="M94,548.09l3.18,9.12h.2l2.91-9.12h3.16L98.7,561.21c-1.58,4.31-3.06,5.4-7.62,4.44l.54-2.59c2.92.71,3.31.05,4.22-2.49L91,548.09Z"/><path d="M111.18,557.31a6.73,6.73,0,0,0,4.2,1.43c1.48,0,2.34-.44,2.34-1.5,0-2.52-7.47-.84-7.23-5.58.1-2.31,1.8-3.69,5.23-3.69a10.55,10.55,0,0,1,4.66,1.2l-1.08,2.17a7.41,7.41,0,0,0-3.7-1.06c-1.21,0-2.22.4-2.17,1.41.15,2,7.32.47,7.32,5.45,0,2.66-2.39,4-5.45,4a8.86,8.86,0,0,1-5.3-1.68Z"/><path d="M126.3,542.17v8a4.82,4.82,0,0,1,4.24-2.19c3,0,4.49,1.94,4.49,4.61V561H132v-7.45c0-2-.74-3-2.41-3-2.35,0-3.26,1.9-3.26,4V561h-3.06V542.54Z"/><path d="M143.91,548c3.23,0,6,2.19,6,6.6,0,3.63-2.14,6.59-6.16,6.59-4.37,0-6.17-3-6.17-6.59C137.62,550.16,140.41,548,143.91,548Zm-3.08,6.6c0,2,.69,4,3,4,2.09,0,3-2,3-4,0-2.85-1.41-4-3-4S140.83,551.66,140.83,554.57Z"/><path d="M155.55,548.09v7.45c0,2,.79,3,2.59,3,2.35,0,3.31-2.42,3.31-4.86v-5.62h3.05V561h-2.44l-.44-2.81a4.71,4.71,0,0,1-4.46,3c-3.16,0-4.66-1.95-4.66-5.2v-7.87Z"/><path d="M170.72,542.17v14.62c0,1.38.62,1.76,1.53,1.76a2.42,2.42,0,0,0,1.28-.47l.57,2.19a5.35,5.35,0,0,1-2.79.89c-2.56,0-3.65-1.73-3.65-4.07V542.54Z"/><path d="M187.17,542.17V561h-2.56l-.35-2.22a4.52,4.52,0,0,1-4.12,2.37c-3.47.05-5.55-2.84-5.55-6.63,0-4.64,3-6.56,5.53-6.56a4.1,4.1,0,0,1,4,2.44v-7.84Zm-9.42,12.33c0,2.2.86,3.92,3.16,3.92s3.25-1.72,3.25-3.89c0-2.94-1.58-4-3.28-4S177.75,551.66,177.75,554.5Z"/><path d="M49.87,576.09v8.21a4.4,4.4,0,0,1,4.31-2.42c2.44.07,5.06,1.73,5.06,6.49,0,3.89-2,6.7-5.45,6.7a4.28,4.28,0,0,1-4.07-2.36l-.42,2.21H46.81V576.48Zm-.12,12.35c0,2.22.81,4,3.25,4,2,0,3.11-1.5,3.11-4,0-3-1.51-3.95-3.14-3.95S49.75,585.85,49.75,588.44Z"/><path d="M73.27,591.37a5.75,5.75,0,0,1-5.57,3.7c-4.34,0-6.26-2.71-6.26-6.75s2.71-6.54,6.43-6.44c3,.07,5.75,2.34,5.45,6.46l0,.4H64.54c0,2.19.94,3.69,3.18,3.69a2.86,2.86,0,0,0,2.79-2Zm-3.13-4.21c0-2-1-2.94-2.54-2.89a2.88,2.88,0,0,0-2.91,2.89Z"/><path d="M87.26,591.3c-.84,2.64-3,3.77-5.63,3.77-4.24,0-6.06-3.15-6.06-6.61,0-4.21,2.61-6.51,6.14-6.58,3.11-.07,5,1.53,5.5,3.8l-2.84.91a2.54,2.54,0,0,0-2.61-2.12c-1.78,0-3.13,1.31-3.13,3.94,0,2.1.79,4,3.08,4a2.6,2.6,0,0,0,2.71-2Z"/><path d="M95.55,581.88c3.23,0,6,2.19,6,6.61,0,3.62-2.15,6.58-6.17,6.58-4.36,0-6.16-3-6.16-6.58C89.26,584.07,92,581.88,95.55,581.88Zm-3.09,6.61c0,2,.69,4,3,4,2.1,0,3-1.94,3-4,0-2.86-1.4-4-3-4C93.84,584.47,92.46,585.58,92.46,588.49Z"/><path d="M106.74,582l.45,2.3a4.3,4.3,0,0,1,4-2.44,3.77,3.77,0,0,1,3.85,2.39,4.52,4.52,0,0,1,4.17-2.39c3,0,4.21,2,4.21,4.63v8.43h-3v-7.44c0-2-.47-3-2.15-3-2.22,0-2.81,1.68-2.81,3.58v6.9h-3.06v-7.44c0-2-.47-3-2.14-3-2.37,0-2.84,1.9-2.84,4v6.51H104.3V582Z"/><path d="M137.87,591.37a5.75,5.75,0,0,1-5.58,3.7c-4.33,0-6.26-2.71-6.26-6.75s2.71-6.54,6.44-6.44c3,.07,5.74,2.34,5.45,6.46l0,.4h-8.73c0,2.19.94,3.69,3.18,3.69a2.88,2.88,0,0,0,2.79-2Zm-3.13-4.21c0-2-1-2.94-2.54-2.89a2.87,2.87,0,0,0-2.91,2.89Z"/><path d="M147.81,582l3.11,9.37h.19L154.2,582h3.13l-4.81,12.92h-3.08L144.75,582Z"/><path d="M170.15,591.37a5.75,5.75,0,0,1-5.57,3.7c-4.34,0-6.26-2.71-6.26-6.75s2.71-6.54,6.43-6.44c3,.07,5.75,2.34,5.45,6.46l0,.4h-8.73c0,2.19.94,3.69,3.19,3.69a2.86,2.86,0,0,0,2.78-2ZM167,587.16c0-2-1-2.94-2.54-2.89a2.88,2.88,0,0,0-2.91,2.89Z"/><path d="M175.31,582l.57,2.67c.59-2,2.09-2.84,4.19-2.79a4.85,4.85,0,0,1,1.33.22l-.47,2.69a5.48,5.48,0,0,0-1.85-.25c-2.27.08-3.13,1.83-3.13,3.9v6.48h-3.06V582Z"/><path d="M187.89,578.35v3.78h3.25l-.42,2.46h-2.83v5.92c0,1.41.64,2,1.67,2a5.43,5.43,0,0,0,1.95-.57l.57,2.34a7.94,7.94,0,0,1-3.28.84c-3,0-4-2-4-4.14v-6.34H183v-2.46H185l.37-3.43Z"/><path d="M198.05,582v12.92H195V584.54h-1.8V582Zm-1.55-5a1.66,1.66,0,0,1,1.82,1.56,1.82,1.82,0,0,1-3.62,0A1.59,1.59,0,0,1,196.5,577Z"/><path d="M212.45,591.3c-.84,2.64-3,3.77-5.62,3.77-4.24,0-6.07-3.15-6.07-6.61,0-4.21,2.62-6.51,6.14-6.58,3.11-.07,5,1.53,5.5,3.8l-2.83.91a2.55,2.55,0,0,0-2.62-2.12c-1.77,0-3.13,1.31-3.13,3.94,0,2.1.79,4,3.08,4a2.61,2.61,0,0,0,2.72-2Z"/><path d="M215.12,582.82a15.36,15.36,0,0,1,4.88-.94c3.9,0,5.33,1.92,5.33,4.93V592a.65.65,0,0,0,.61.74,2.41,2.41,0,0,0,1-.15v2a5,5,0,0,1-2,.39,2.34,2.34,0,0,1-2.35-1.75,5.62,5.62,0,0,1-3.89,1.75c-2.52,0-4.39-1.28-4.42-4s2-4.09,5.26-4.09a19.84,19.84,0,0,1,2.78.25v-.77c0-1.4-.88-2.17-2.66-2.14a10.39,10.39,0,0,0-4,.79Zm7.15,6a13.07,13.07,0,0,0-2.52-.15c-1.48.07-2.41.77-2.44,2.07a1.81,1.81,0,0,0,2.1,1.9,5.1,5.1,0,0,0,2.86-1Z"/><path d="M232.14,576.09v14.62c0,1.38.61,1.75,1.52,1.75A2.46,2.46,0,0,0,235,592l.56,2.19a5.22,5.22,0,0,1-2.78.89c-2.57,0-3.65-1.72-3.65-4.07V576.46Z"/><path class="cls-1" d="M148.79,61.4a36.73,36.73,0,0,1,8.33-23.32,34.4,34.4,0,0,0-45.48-4.38A34.43,34.43,0,0,0,131.9,96a34.33,34.33,0,0,0,25.32-11.11A36.76,36.76,0,0,1,148.79,61.4ZM138,75.49s-3.7-.27-11.47-.27a25.63,25.63,0,0,0-4.93.31l-1.35-2.46c7.78-7.9,12.4-13.63,13-18.71.47-3.66-2-4.82-4.35-4.66a9.73,9.73,0,0,0-6.73,3.92c-.2-.23-1.93-2.07-1.47-2.65A12.43,12.43,0,0,1,130,46.12c5.89,0,9.09,3,8.74,8.51-.46,7-8,13.59-12.63,17.55l8.32-.08c1.77-.15,3-2.54,3.81-4.73,0,0,1.73.5,2,1C139.58,71.53,138.81,75.49,138,75.49Z"/><path class="cls-1" d="M95.79,61.4A36.74,36.74,0,0,1,104.16,38a34.44,34.44,0,1,0,.11,46.9A36.78,36.78,0,0,1,95.79,61.4ZM87.2,75.66H70.92L71,73.39l4.46-.58c.58,0,.81-.23.81-1,.08-10.05,0-19.6,0-19.6l-5.62,1.08c-.19-.31-1.12-2.46-.46-2.73l10.35-4,1,1s-.12,20.87,0,24.37c0,.77.19,1,.73,1l5.08.54Z"/><path class="cls-1" d="M201.79,61.4A36.74,36.74,0,0,1,210.16,38a34.43,34.43,0,0,0-47.76-2.48A34.8,34.8,0,0,0,172,93.43a34.41,34.41,0,0,0,38.24-8.51A36.78,36.78,0,0,1,201.79,61.4ZM181.35,75.49a15.64,15.64,0,0,1-7.86-2.19l1-2.89a21.48,21.48,0,0,0,7,1.66c3.35,0,5.51-1.74,5.55-5.24,0-2.46-1.43-4.35-4.47-4.74a17.82,17.82,0,0,0-5,.24c-.5.11-.89-3-.42-3.08,3-.54,7.62-1.08,8.39-4.89.73-3.62-2-4.82-4.35-4.66A8.43,8.43,0,0,0,175,52.82c-.2-.23-1.7-2.12-1-3a10.43,10.43,0,0,1,8.16-3.69c5.89,0,9.12,3,8.74,8.51a6,6,0,0,1-4,4.5c3.47.62,5.47,2.93,5.66,6.7C192.9,71.83,188,75.49,181.35,75.49Z"/><circle cx="236" cy="61.53" r="34.44"/><path class="cls-2" d="M237.43,67,227.3,67c-.11,0-1.42.19-1.42.19S225,65,225.3,64.79c.89-.46,12.94-16.86,14-18.63l3.2.54c-.08,3.92,0,11.35,0,17.4l4.7-.08c.34,0,.07,3-.54,3h-4.12c0,2.27,0,3.47.07,4.39,0,.77.2,1,.74,1l2.34.54-.07,2.23h-11.4l.08-2.27,2.23-.58c.58-.15.81-.23.81-1C237.39,69.72,237.39,68.68,237.43,67Zm-7.12-3h7.12c0-7,0-10.05,0-10.05S230.31,64.06,230.31,64.06Z"/><path d="M296.49,50.34l-.27,3.12h-5.55V71.34h-3.75V53.46h-5.76V50.34Z"/><path d="M302.64,48.42v9.72a5.86,5.86,0,0,1,5.16-2.67c3.69,0,5.46,2.37,5.46,5.61V71.34h-3.72V62.28c0-2.4-.9-3.69-2.94-3.69-2.85,0-4,2.31-4,4.83v7.92h-3.72V48.87Z"/><path d="M330.78,67a7,7,0,0,1-6.78,4.5c-5.28,0-7.62-3.3-7.62-8.22s3.3-7.95,7.83-7.83c3.69.09,7,2.85,6.63,7.86l-.06.48H320.16c0,2.67,1.14,4.5,3.87,4.5a3.5,3.5,0,0,0,3.39-2.49ZM327,61.89c.06-2.43-1.26-3.57-3.09-3.51a3.5,3.5,0,0,0-3.54,3.51Z"/><path d="M343.32,55.62l.57,2.79a5.8,5.8,0,0,1,5.37-2.94c3.69,0,5.46,2.37,5.46,5.61V71.34H351V62.28c0-2.4-.9-3.69-2.94-3.69-2.85,0-4,2.31-4,4.83v7.92h-3.72V55.62Z"/><path d="M372.3,67a7,7,0,0,1-6.78,4.5c-5.28,0-7.62-3.3-7.62-8.22s3.3-7.95,7.83-7.83c3.69.09,7,2.85,6.63,7.86l-.06.48H361.68c0,2.67,1.14,4.5,3.87,4.5a3.5,3.5,0,0,0,3.39-2.49Zm-3.81-5.13c.06-2.43-1.26-3.57-3.09-3.51a3.5,3.5,0,0,0-3.54,3.51Z"/><path d="M378.39,55.62l3.15,6.18,3.3-6.18h4l-4.35,7.8L389,71.34h-4.26l-3.3-6.12L378,71.34h-4.14l4.83-7.86-4.29-7.86Z"/><path d="M396.81,51.18v4.59h4l-.51,3h-3.45V66c0,1.71.78,2.37,2,2.37a6.83,6.83,0,0,0,2.37-.69l.69,2.85a9.82,9.82,0,0,1-4,1c-3.69,0-4.83-2.46-4.83-5V58.77H390.9v-3h2.37l.45-4.17Z"/><path d="M424.35,67a7,7,0,0,1-6.78,4.5c-5.28,0-7.62-3.3-7.62-8.22s3.3-7.95,7.83-7.83c3.69.09,7,2.85,6.63,7.86l-.06.48H413.73c0,2.67,1.14,4.5,3.87,4.5A3.5,3.5,0,0,0,421,65.82Zm-3.81-5.13c.06-2.43-1.26-3.57-3.09-3.51a3.5,3.5,0,0,0-3.54,3.51Z"/><path d="M431.4,48.42V66.21c0,1.68.75,2.13,1.86,2.13a2.93,2.93,0,0,0,1.56-.57l.69,2.67a6.47,6.47,0,0,1-3.39,1.08c-3.12,0-4.44-2.1-4.44-5V48.87Z"/><path d="M450.69,67a7,7,0,0,1-6.78,4.5c-5.28,0-7.62-3.3-7.62-8.22s3.3-7.95,7.83-7.83c3.69.09,7,2.85,6.63,7.86l-.06.48H440.07c0,2.67,1.14,4.5,3.87,4.5a3.5,3.5,0,0,0,3.39-2.49Zm-3.81-5.13c.06-2.43-1.26-3.57-3.09-3.51a3.5,3.5,0,0,0-3.54,3.51Z"/><path d="M457,55.62l.54,2.79a5.25,5.25,0,0,1,4.86-3,4.58,4.58,0,0,1,4.68,2.91,5.53,5.53,0,0,1,5.07-2.91c3.69,0,5.13,2.4,5.13,5.64V71.34h-3.72V62.28c0-2.4-.57-3.69-2.61-3.69-2.7,0-3.42,2-3.42,4.35v8.4H463.8V62.28c0-2.4-.57-3.69-2.61-3.69-2.88,0-3.45,2.31-3.45,4.83v7.92H454V55.62Z"/><path d="M494.85,67a7,7,0,0,1-6.78,4.5c-5.28,0-7.62-3.3-7.62-8.22s3.3-7.95,7.83-7.83c3.69.09,7,2.85,6.63,7.86l-.06.48H484.23c0,2.67,1.14,4.5,3.87,4.5a3.5,3.5,0,0,0,3.39-2.49ZM491,61.89c.06-2.43-1.26-3.57-3.09-3.51a3.5,3.5,0,0,0-3.54,3.51Z"/><path d="M501.12,55.62l.57,2.79a5.8,5.8,0,0,1,5.37-2.94c3.69,0,5.46,2.37,5.46,5.61V71.34H508.8V62.28c0-2.4-.9-3.69-2.94-3.69-2.85,0-4,2.31-4,4.83v7.92h-3.72V55.62Z"/><path d="M521.13,51.18v4.59h4l-.51,3h-3.45V66c0,1.71.78,2.37,2,2.37a6.83,6.83,0,0,0,2.37-.69l.69,2.85a9.82,9.82,0,0,1-4,1c-3.69,0-4.83-2.46-4.83-5V58.77h-2.19v-3h2.37L518,51.6Z"/><path d="M539.76,55.62V71.34H536V58.71h-2.19V55.62Zm-1.89-6.12a2,2,0,0,1,2.22,1.89,2.22,2.22,0,0,1-4.41,0A1.93,1.93,0,0,1,537.87,49.5Z"/><path d="M544,66.84a8.15,8.15,0,0,0,5.1,1.74c1.8,0,2.85-.54,2.85-1.83,0-3.06-9.09-1-8.79-6.78.12-2.82,2.19-4.5,6.36-4.5a12.78,12.78,0,0,1,5.67,1.47l-1.32,2.64a8.9,8.9,0,0,0-4.5-1.29c-1.47,0-2.7.48-2.64,1.71.18,2.49,8.91.57,8.91,6.63,0,3.24-2.91,4.92-6.63,4.89a10.76,10.76,0,0,1-6.45-2Z"/><path d="M569.79,51.18v4.59h4l-.51,3h-3.45V66c0,1.71.78,2.37,2,2.37a6.83,6.83,0,0,0,2.37-.69l.69,2.85a9.82,9.82,0,0,1-4,1c-3.69,0-4.83-2.46-4.83-5V58.77h-2.19v-3h2.37l.45-4.17Z"/><path d="M581,48.42v9.72a5.86,5.86,0,0,1,5.16-2.67c3.69,0,5.46,2.37,5.46,5.61V71.34h-3.72V62.28c0-2.4-.9-3.69-2.94-3.69-2.85,0-4,2.31-4,4.83v7.92h-3.72V48.87Z"/><path d="M609.12,67a7,7,0,0,1-6.78,4.5c-5.28,0-7.62-3.3-7.62-8.22s3.3-7.95,7.83-7.83c3.69.09,7,2.85,6.63,7.86l-.06.48H598.5c0,2.67,1.14,4.5,3.87,4.5a3.5,3.5,0,0,0,3.39-2.49Zm-3.81-5.13c.06-2.43-1.26-3.57-3.09-3.51a3.5,3.5,0,0,0-3.54,3.51Z"/><path d="M632.52,67a7,7,0,0,1-6.78,4.5c-5.28,0-7.62-3.3-7.62-8.22s3.3-7.95,7.83-7.83c3.69.09,7,2.85,6.63,7.86l-.06.48H621.9c0,2.67,1.14,4.5,3.87,4.5a3.5,3.5,0,0,0,3.39-2.49Zm-3.81-5.13c.06-2.43-1.26-3.57-3.09-3.51a3.5,3.5,0,0,0-3.54,3.51Z"/><path d="M638.79,55.62l.57,2.79a5.8,5.8,0,0,1,5.37-2.94c3.69,0,5.46,2.37,5.46,5.61V71.34h-3.72V62.28c0-2.4-.9-3.69-2.94-3.69-2.85,0-4,2.31-4,4.83v7.92h-3.72V55.62Z"/><path d="M658.8,51.18v4.59h4l-.51,3H658.8V66c0,1.71.78,2.37,2,2.37a6.83,6.83,0,0,0,2.37-.69l.69,2.85a9.82,9.82,0,0,1-4,1c-3.69,0-4.83-2.46-4.83-5V58.77h-2.19v-3h2.37l.45-4.17Z"/><path d="M669,55.62l.69,3.24c.72-2.4,2.55-3.45,5.1-3.39a6.19,6.19,0,0,1,1.62.27L675.84,59a6.48,6.48,0,0,0-2.25-.3c-2.76.09-3.81,2.22-3.81,4.74v7.89h-3.72V55.62Z"/><path d="M682.32,55.62l3.87,11.1h.24L690,55.62h3.84l-5.82,16c-1.92,5.25-3.72,6.57-9.27,5.4l.66-3.15c3.54.87,4,.06,5.13-3L678.6,55.62Z"/><path class="cls-3" d="M200.55,675.21a22.51,22.51,0,0,1,13.8-15c13.87-5.35,27.76-7.29,42.17-9.62l10.05-1.62c2.4-.39,5.53-.17,7.79-1.22,6.15-2.86,15.39-5.88,21.57-8.7,5.84-2.65,22.26-12,27.73-15.31,2.47-1.53,5-3,7.38-4.75.65-.47,3.31-3,6.59-6.17,8.44-8.15,8.36-21.06-.19-27.95l-5.11-4.12c-5.45-4.39-13.47-4.74-19.85-.79-4.05,2.5-8.08,5.05-12.12,7.58-6.53,4.07-23.85,14.55-30.25,18.83-2.29,1.53-4.61,3-7,4.46-1.71,1-3.55,1.77-5.29,2.73-10.6,5.89-21.64,10.9-32.69,15.83-10.56,4.7-20.71,9.26-31.91,12a151.55,151.55,0,0,0-22.16,7.38c-7,2.89-12.63,7.3-19.24,10.84-2.56,1.37-5.27,2.47-7.83,3.86-4.39,2.37-11.37,6.18-14.49,10.07-1,1.2-2.21,2.29-3,3.56a33.36,33.36,0,0,0-2,4.3c-.64,1.35-1.39,2.83-.68,4.26a6.93,6.93,0,0,0,2.45,2.39c1.33.89,2.53.47,4.19,0,3.09-.86,6.12-1.88,9.14-3a20.48,20.48,0,0,1,2.27-.59c6.36-1.46,12.52-3.44,19-4.41a22.26,22.26,0,0,1,5.07-.33,22.57,22.57,0,0,1,6.11,1.65c4.86,1.84,9.72,4.4,14.83,5.65a12.25,12.25,0,0,0,5.43.28c1.92-.35,3.07-1.94,4.07-3.45A32.09,32.09,0,0,0,200.55,675.21Z"/><path class="cls-4" d="M485.2,521.63c.78-4.9,24-25.18,25.78-29.72.25-.66.16-1.45.42-2.15.58-1.53,1.5-3.26,2.19-4.76a26.18,26.18,0,0,1,4.48-6.22c3.37-3.61,5.77-8,9.16-11.51,3.67-3.77,5.75-8.75,9.59-12.2,8.61-7.77,18.53-14.11,28.07-20.81,4.69-3.3.4-11.06,5-14.53,2.77-2.1,8.2-17.17,11.11-19,1.84-1.16,19.37-21.42,21.67-21.11,1.24,1.86,3.46,2.94,3.17,4.95-.47,3.24-16.13,39.85-18,42.63-1.65,2.49-2.07,5.05-3.79,7.5-4.42,6.3-22.35,34.13-39.79,45-2.72,1.69-42.85,38.24-45.49,40.05C493.49,523.34,486.18,515.49,485.2,521.63Z"/><path class="cls-5" d="M553.5,382.92a8,8,0,0,1,.92.82c.37.45.3.36.1,1.59a6.72,6.72,0,0,1-.87,2.21c5.65-2.59,11.33-5.11,17-7.71s12.59-3.24,17.81-6.45c3.3-2,3.55-1.09,6.78-3.23-.07,0,1.39-.79,1.32-.77-2.29,1.17-9.46,1.9-11.93,2.56s-9.85,2.57-12.21,3.55S553.43,382.76,553.5,382.92Z"/><path class="cls-5" d="M547.5,446.59a.76.76,0,0,0,0,.15,18.64,18.64,0,0,1-.58,3.2c6.79,3.54,14.65,4.55,22.3,4.4a2.89,2.89,0,0,0,1.37-.26,3.1,3.1,0,0,0,.87-.86,14.49,14.49,0,0,0,1-1.73,6.36,6.36,0,0,1,1.21-1.6c.44-.41.31-1,.56-1.45-3.51,1.76-7.6,1.87-11.5,1.54a35.07,35.07,0,0,1-13.47-3.56C548.45,446,547.59,445.4,547.5,446.59Z"/><path class="cls-6" d="M536.2,379c-5.43.66-10.92,1-16.35,1.24-3.23.13-6.52.19-9.55,1.31-10,3.71-14.53,14.88-16.81,24.4a21.06,21.06,0,0,1-1.92,6c-.08.13-.18.24-.26.36-1.74,1.5-3.89,2.73-5.54,4.07q-4.83,3.92-9.3,8.26a55.34,55.34,0,0,0-6.24,7.32c-5.87,6.75-11,14-17.17,20.57q-14.85,15.83-28.9,32.38c-8.94,10.52-18.48,22.43-20.55,36.47l1,2.4c1.07-.8,1.82-2,2.84-2.93,1.2-1,1.86-2.48,3-3.55a141.42,141.42,0,0,1,18.79-14.46c6.68-4.21,14.19-8.88,22.23-9.15a16.4,16.4,0,0,1,3.18.36c3.87.6,7.38.16,11.23,1.58,10.9,4,17.87,14.68,19.25,25.92a65.23,65.23,0,0,1-.14,14.78c-.31,3-14.63,23.28-15.15,26.44,1-1.22,6.74-1.76,7.77-3,6.32-2.62,13.61-18.5,15.32-21.66,14.72-27.13,22.3-57.27,44.58-80.07,1.72-1.75,5.42-4.2,7.4-6.68,1.23-1,2.2-1.82,2.43-2a22.37,22.37,0,0,0,0-3.92s-3-4-2.72-7.52q.47-6.75,1.43-13.45a142.38,142.38,0,0,1,6.3-26.23q1.71-4.9,3.82-9.67c.54-1.21,4.45-4.93,4.45-4.93a16.82,16.82,0,0,0-2.22-3.26c-7-5.46,3.56-2.41,2.36-4.91-.79-1.64-15.94,2.13-17.78,2.45C540.76,378.41,538.48,378.75,536.2,379Z"/><path class="cls-5" d="M558.44,380.47a7.26,7.26,0,0,1,.92.83c.37.44.3.36.1,1.58a6.85,6.85,0,0,1-.87,2.21c5.65-2.59,11.33-5.11,17-7.7s12.59-3.25,17.8-6.46c3.3-2,3.56-1.08,6.78-3.23-.06,0,1.4-.78,1.33-.76-2.29,1.16-9.46,1.9-11.93,2.55s-9.85,2.57-12.21,3.55S558.37,380.31,558.44,380.47Z"/><path class="cls-7" d="M410.48,503.92c-20.3,11.72-27.31,22.53-47.47,35.4-17.64,11.25-30.15,19.19-42.28,36.42a18.13,18.13,0,0,0-8.6,3.17c-3.92,2.71-11.87,11.6-15.78,14.33-6.3,4.41-23.06,15.77-29.22,20.38-2.21,1.65-4.45,3.28-6.74,4.82-1.66,1.11-3.45,1.95-5.14,3-10.28,6.43-21.05,12-31.83,17.5-10.29,5.25-20.2,10.33-31.24,13.66a152.18,152.18,0,0,0-21.74,8.52c-6.81,3.25-12.24,7.94-18.65,11.82-2.49,1.51-5.14,2.75-7.62,4.27-4.26,2.59-11,6.76-13.95,10.81-.9,1.24-2.09,2.41-2.85,3.72a34.66,34.66,0,0,0-1.76,4.39c-.57,1.38-1.23,2.9-.45,4.29a7,7,0,0,0,2.57,2.26c1.38.82,2.55.34,4.19-.2,3-1,6-2.19,9-3.43a20.58,20.58,0,0,1,2.23-.71c6.28-1.78,12.33-4.08,18.78-5.39a23.44,23.44,0,0,1,5-.6,22.45,22.45,0,0,1,6.19,1.34c5,1.58,9.94,3.89,15.11,4.87a12,12,0,0,0,5.44,0c1.9-.45,2.95-2.09,3.87-3.65a31.92,31.92,0,0,0,3.69-8.87,22.48,22.48,0,0,1,13-15.74c13.57-6.07,27.34-8.72,41.61-11.8,24.17-5.2,45.3-16.26,65.65-30.31,2.39-1.65,4.88-3.3,7.13-5.12.41-.33,1.62-1.58,3.27-3.33l.25-.08c20.68-7.74,42.45-12.39,63.4-19.35q21.57-7.17,42.77-15.51C450.44,580,464.1,576.13,474,567c9.44-8.69,15.76-20.41,17.38-32.2,1-7.45.17-15-3.35-21.2C483.15,505.1,465.57,490,455.37,488,432.57,483.46,425.94,495,410.48,503.92Z"/><path class="cls-8" d="M599.25,385.28c-3.57-8.14-25.81-17.76-33-15.8-8.91,2.41-16.64,9-23.14,16.22-5.73,6.39-10.45,12.27-12.85,20.83a75.93,75.93,0,0,1-6.79,16.91A78.61,78.61,0,0,1,513,437.67a71.68,71.68,0,0,0-11.15,15.73c-31.79,20.34-57.82,47.08-86.47,63.86a18.21,18.21,0,0,1-2.25.51,42.66,42.66,0,0,1-5.72-.85c-.88-.23-1.77-.5-2.64-.76-1.5-.45-3-.87-4.47-1.28a15.24,15.24,0,0,0-1.91-.55c-.6-.09-1.25,0-1.84-.17l-.83.14c-.68-.09-1.36-.29-2-.35a9.47,9.47,0,0,0-1.92.06l-.78.09c-.43,0-.85,0-1.28,0a13.48,13.48,0,0,0-1.69.24c-.58.16-.68.68-.95,1.13a1.66,1.66,0,0,1-1.15.88c-.57.12-1.12.3-1.69.44-.36.08-.71.12-1.06.22s-.64.16-1,.25a16.26,16.26,0,0,1-2.11.32l-1.07.14a6,6,0,0,1-.95,0,3.7,3.7,0,0,0-.81.13c-.3.09-.62.09-.91.18a3.88,3.88,0,0,0-1.63.86,1.9,1.9,0,0,0-.4.4c-.11.23-.19.54-.29.79a8.19,8.19,0,0,1-.68,1.58,7.23,7.23,0,0,1-1.15,1.13l-1.07,1c-.26.25-.58.39-.85.62a2.8,2.8,0,0,1-.6.54c-.22.11-.4.28-.64.38a1.9,1.9,0,0,0-.55.28,9.8,9.8,0,0,0-1,.94c-.4.52,0,1,.34,1.5a2.49,2.49,0,0,0,.69.6,9.35,9.35,0,0,0,1.31.83.59.59,0,0,0,.38.08c.09,0,.15-.1.25-.11a.71.71,0,0,1,.3.1.65.65,0,0,0,.31,0,9.52,9.52,0,0,0,2.13-.63c.78-.3,1.54-.63,2.29-1l.15-.08c-.31.19-.61.38-.93.55a11.12,11.12,0,0,1-2,.84,14.85,14.85,0,0,0-2.09.52,1.69,1.69,0,0,1-.38.19c-.29.1-.59.21-.87.33a5.79,5.79,0,0,0-.54.31,5,5,0,0,1-.69.18,11.05,11.05,0,0,0-1.42.41,8.52,8.52,0,0,0-2.41,1.21c-.19.18-.4.18-.63.29a5.72,5.72,0,0,0-.58.37,2,2,0,0,1-.54.33,5.75,5.75,0,0,1-.8.18c-.49.11-.94.35-1.44.43s-1,.24-1.49.32a8.69,8.69,0,0,0-1.38.33c-.21.08-.34.26-.52.36s-.35.14-.52.22c-.41.19-.77.42-1.2.58s-.94.43-1.39.66c-.76.38-1.53.71-2.33,1a6.76,6.76,0,0,0-1.78,1.52,2.85,2.85,0,0,0-.68,2.5,3.41,3.41,0,0,0,1.16,2.13,1.79,1.79,0,0,0,1,.48c-.22,0-.46,0-.68.05a2,2,0,0,0-1.34.72,3.32,3.32,0,0,0-.41.43,7.49,7.49,0,0,1-.51.61,2.8,2.8,0,0,0-.41.68,1.17,1.17,0,0,0,.12,1.11,9.61,9.61,0,0,0,1.06,1.49,3,3,0,0,0,1.35,1.11,3.68,3.68,0,0,0,2-.15,20.44,20.44,0,0,0,2.33-.61c.58-.2,1.12-.39,1.71-.54a14.4,14.4,0,0,0,2-.65c.71-.29,1.61-.23,2.36-.46.39-.12.76-.29,1.14-.42s.67-.14,1-.26a6.91,6.91,0,0,1,2.18-.27,5.57,5.57,0,0,0,1.16-.13,8.79,8.79,0,0,1,.87-.15L357.05,549a.82.82,0,0,0-.63.2,2.26,2.26,0,0,1-.33.13,1.91,1.91,0,0,0-.74,1.08c-.36,1.12.69,2.07,1.58,2.68a3.38,3.38,0,0,0,1.86.58c.72,0,1.41.21,2.12.25a4.94,4.94,0,0,0,1.8-.26,10.71,10.71,0,0,1,1.88-.44,23,23,0,0,0,3.59-1.23l1-.31c.27-.08.56-.05.84-.11.77-.18,1.51-.42,2.26-.64a7,7,0,0,1,1.23-.23c.38,0,.74-.14,1.12-.16a12.1,12.1,0,0,0,1.21-.13L368,552.33c-.16.16-.59,0-.61.28s0,.31,0,.46a1.3,1.3,0,0,0,0,.48.88.88,0,0,0,.26.32c.38.36.64.82,1,1.2a3,3,0,0,0,1.28.73,4.11,4.11,0,0,0,2,.17c.35,0,.68,0,1,0s.75-.12,1.13-.19.63-.18.94-.22a7.16,7.16,0,0,0,.93-.12c.37-.1.75-.1,1.11-.2A4.2,4.2,0,0,1,378,555a8.35,8.35,0,0,0,1.84-.39c.48-.17,1.05-.15,1.55-.31s1.08-.18,1.6-.33,1.25-.3,1.86-.46a6.66,6.66,0,0,1,.67-.26c.29-.06.59,0,.88-.12.57-.16,1.15-.21,1.73-.37s.9-.5,1.41-.67a9.33,9.33,0,0,1,1.65-.44,11.82,11.82,0,0,0,1.34-.48c.3-.08.62-.08.92-.15a10.43,10.43,0,0,1,1.38-.21c.55-.06,1.07-.17,1.62-.27a3.71,3.71,0,0,0,1.36-.68,2.26,2.26,0,0,1,.85-.25,6.27,6.27,0,0,0,.88-.21,2.22,2.22,0,0,0,.58-.12,3.49,3.49,0,0,1,.85-.4,6.23,6.23,0,0,0,1.15-.14,13.33,13.33,0,0,0,1.73-1.23c.2-.15.38-.32.58-.47a21.59,21.59,0,0,1,2.3-1.3,10.66,10.66,0,0,0,1.45-.79,12.44,12.44,0,0,1,1-.87c1-.66,1.88-1.53,2.9-2.19.32-.2.71-.31,1-.52.46-.32.77-.73,1.26-1a24.27,24.27,0,0,0,2.45-1.94c.93-.7,1.94-1.26,2.95-1.88l.08-.08a16.94,16.94,0,0,0,1.28-1.68,34.49,34.49,0,0,0,3.82-1.2c16.39-5.9,33.17-11,48.77-18.74,9.92-4.9,25.95-8.84,34.41-15.55,7.82-6.2,9.23-10.14,14.8-17.4,1.47-1.39,52.67-52.25,54-53.72M378.43,526.34c-.26,0-.68.35-.9.48a3.79,3.79,0,0,0-.34.2A2.22,2.22,0,0,1,378.43,526.34ZM353,543.81a8.37,8.37,0,0,1,2.26-.94c.35-.07.71-.11,1.07-.17Zm6-2a4.41,4.41,0,0,0,.65-.33l1.24-.8a6.7,6.7,0,0,1,1.43-.68,6.49,6.49,0,0,0,1.34-.61,4.57,4.57,0,0,1,1.89-.34,12.07,12.07,0,0,0,1.72-.22,27.27,27.27,0,0,1,3.76-1.06Zm13,3.85a2,2,0,0,1,.28-.11c.27-.07.52,0,.78-.14a7.62,7.62,0,0,0,2.4-1.06c.39-.31.79-.05,1.32-.14s1.27-.12,1.82-.24c1.09-.24,1.77-.63,2.87-.86a4.78,4.78,0,0,1,1.47-.34,7.85,7.85,0,0,1,1.24,0h.74Zm11.33,3a7.74,7.74,0,0,1,2.4-.58Zm3.52-.93a3.69,3.69,0,0,1,.67-.19Zm2.35-.7c0-.07.1-.11.16-.1S389.29,547,389.16,547.05Z"/><path class="cls-9" d="M623.73,366.4c1-.84,2.72,9.53,4.17,9.83s1,2.09,1.08,3.24c.06.95.55,1.75.69,2.69a7.54,7.54,0,0,0,.26,2,6.46,6.46,0,0,0,3.27,3.43c1.74.61,3.54-.43,5.28-.07a6.06,6.06,0,0,1,2,1.06,2.72,2.72,0,0,1,.74-1.56c2.78-3,6.86-3.64,10.33-5.49a19.3,19.3,0,0,0-1.55-3.23,29.74,29.74,0,0,1-2.32-5.15c-.57-1.61-1.5-2.84-1.06-4.46.34-1.25,1.37-2.16,1.71-3.4a22.72,22.72,0,0,1,.51-2.56,32.09,32.09,0,0,1,1.95-3.66c1.45-2.69,2.67-5.58,4-8.34a25.57,25.57,0,0,0,2.66-9.47,20.48,20.48,0,0,0-2-9.77,45.57,45.57,0,0,0-3.7-6.83,77.2,77.2,0,0,0-7.28-8.69c-3-3.06-7.36-5.42-11.26-7-2.9-1.17-5.49-2.72-8.55-3.58a26.24,26.24,0,0,0-9.47-.48c-2.72.24-5.14-.38-7.74-.83-1.31-.22-2.63.14-4-.05a29.84,29.84,0,0,0-4.9-.43c-3.18.12-5.1,2-7.31,4-1.47,1.32-2.38,3-3.88,4.31a14.46,14.46,0,0,0-1.92,2.14c-.66.85-1.5,1.44-2.16,2.29-.32.42-.41.88-.73,1.32s-.77.5-1,1a21,21,0,0,0-.63,3.25,29.36,29.36,0,0,1-1,3.73,2.42,2.42,0,0,0-.14.39c-.07,0-.22,0-.53.2a12.1,12.1,0,0,1-2.75,1.08c-2.38.84-2.72.49-5.35,1.72a28.82,28.82,0,0,0-4.69,2.7,3.57,3.57,0,0,0-.4,5.52,2,2,0,0,1,.62,1.17,5,5,0,0,1-.33,3.62,20.43,20.43,0,0,0-1.91,2.53,19.38,19.38,0,0,0-1.63,5.59c-.19,1.59.29,2.48-.85,3.58-.82.8-1.69,1.56-2.54,2.32-1.6,1.43-2.66,3.21-1.68,5.34,1.3,2.85,5,6,7.86,7.11,9,3.42,19,6.63,27,12.21a6,6,0,0,1,2.73,3.78,10,10,0,0,1-.72,4.11c-.66,2.3-.87,4.71-1.51,7A19.6,19.6,0,0,1,584.61,407"/><path d="M592.24,323.9c.21.3.39.64.57,1s.32.6.23.83,0,.1-.13.06-.16-.17-.22-.23a2.78,2.78,0,0,0-.27-.21c-.39-.25-.8-.46-1.18-.71s-.46-.26-.68-.42c-1.31-1-2.34-2.48-3.75-3.32a7.46,7.46,0,0,0-4.57-.64c.08-.53.32-2.27.9-2.4.83-.17,2.74,1,3.6,1.17a6.83,6.83,0,0,1,4,2.49C591.33,322.24,591.71,323.12,592.24,323.9Z"/><path d="M654.69,376.62c-.87-2.46-2.26-4.94-2.83-7.48-1.81-8.06,4.77-15.44,6.58-23.51,1.49-6.63-.37-13.69-3.9-19.51s-8.58-10.53-13.86-14.81c-4.9-4-10.14-7.68-16.1-9.71-4-1.36-16.28-3.55-18.8,1.48s3.72,13.27,1.81,19.14c-1,3-3.31,5.47-3.73,8.57a26.45,26.45,0,0,0,.15,4.7c.13,2.85-.47,5.71-.15,8.54s1.94,5.83,4.72,6.46a11.53,11.53,0,0,1,4.16-4.38c1.81-.93,2.33.28,3.6,1.88,1.73,2.2,2.17,4.39.12,6.31s-4.68,3.49-5.57,6.15c-1,2.87.46,5.93,1.85,8.62,2.39,4.62,9.45,10.72,11.84,15.34,3.08-.53,2.24.14,5.35-.2,2.34-.26,1.42-4.67,3-2.92a19.31,19.31,0,0,0,11.53,6.15c4.14.58,9.14-.78,10.59-4.7A8.76,8.76,0,0,0,654.69,376.62Z"/><path d="M604.92,303.43l1,.13a1.92,1.92,0,0,1,0-.22A3.27,3.27,0,0,0,604.92,303.43Z"/><path class="cls-9" d="M605.46,349.55c-.33-5.51,8.48-6.27,11.37-3.28a6.86,6.86,0,0,1-.09,9.27c-2.51,2.5-6.64,2.66-9.3,5-1.41,1.23-2.43,3.07-4.22,3.6s-4-2-2.4-3"/><path d="M643.21,369.83a7.54,7.54,0,0,0,3.48-.72,12.23,12.23,0,0,1,4.12-.57,6.42,6.42,0,0,1,4.46,1.47,7,7,0,0,1,2.05,3.67,6.78,6.78,0,0,1,0,3.79c-.6,1.21-2.51,2.34-3.48,3.26a7,7,0,0,1-4.54,1.49,6.29,6.29,0,0,1-4.71-1.3,20.59,20.59,0,0,1-5.21-9.77c-.47-1.77.67-4,1.71-5.44s3.17-3.48,4.91-4c3.35-1,6.28,2.21,7.72,4.8.86,1.56,1.57,3.21.82,5A10.23,10.23,0,0,1,651.6,375a18.79,18.79,0,0,1-4.13,3.26,6.81,6.81,0,0,1-2.54,1.06,21.83,21.83,0,0,0-3.07.37,8.62,8.62,0,0,1-3.47.06,3.37,3.37,0,0,1-2.27-1.37,11.1,11.1,0,0,1-1.79-2.61c-.29-.61-.35-1.3-.6-1.92-.44-1.07-.4-1.11.51-2"/><path d="M648.36,368.81c.59-1.38,1.86-1.84,3.19-2.22a6.3,6.3,0,0,0,1.36-.48,2,2,0,0,1,2,0c1.74.81,2.8,2.84,3.71,4.39a6.56,6.56,0,0,1,1,2.08c.13.7,0,1.43.14,2.11a4.53,4.53,0,0,1,.3,1.15c0,.45-.23.85-.23,1.32a2.49,2.49,0,0,1-.07,1.21,10.56,10.56,0,0,1-.61,1.15,5.26,5.26,0,0,1-1.39,1.9,15.12,15.12,0,0,1-2.14,1.22,5.67,5.67,0,0,1-1.07.3c-.44.12-.82.39-1.26.51a6.45,6.45,0,0,1-3.62-.52c-2.22-.7-3.94-2.82-5.4-4.56a12.18,12.18,0,0,1-2.39-4.68,28.88,28.88,0,0,1-.41-2.92,10.37,10.37,0,0,1-.19-2.72,8.81,8.81,0,0,1,.9-2.87,19.36,19.36,0,0,1,1.53-2.84,6.39,6.39,0,0,1,2.5-1.9,8.52,8.52,0,0,0,1.59-.54,5.69,5.69,0,0,1,1.53-.84,6.9,6.9,0,0,1,5.88.6,21.91,21.91,0,0,1,3.62,2.71c.67.7,1.3,1.44,2,2.14a6.25,6.25,0,0,1,1.44,2.71,4.44,4.44,0,0,1,.25,1.8,5.54,5.54,0,0,1-.19,1.74c-.73,1.53-2.24,2.22-3.16,3.52a6.22,6.22,0,0,1-.51.79c-.34.36-.75.68-1.12,1a10.76,10.76,0,0,1-1.89,1.55,7.24,7.24,0,0,1-2.59,1,3.76,3.76,0,0,1-3-.81,10.31,10.31,0,0,1-3-2.46,13.49,13.49,0,0,1-2.16-4.66,10.33,10.33,0,0,1-.35-5.2,11.14,11.14,0,0,1,.73-2.63,11.28,11.28,0,0,1,1.54-1.92c1.16-1.32,3.07-1.63,4.67-2.05.31-.08,1-.42,1.37-.32s.5.5.67.69"/><path d="M630.66,376.55c.59-1.39,1.86-1.84,3.19-2.23a6.27,6.27,0,0,0,1.36-.47,1.91,1.91,0,0,1,2,0c1.74.81,2.8,2.83,3.71,4.39a6.56,6.56,0,0,1,1,2.08c.13.7,0,1.43.14,2.11a4.43,4.43,0,0,1,.3,1.15c0,.45-.23.85-.23,1.31a2.49,2.49,0,0,1-.08,1.21,8.49,8.49,0,0,1-.6,1.16,5.26,5.26,0,0,1-1.39,1.9,15.06,15.06,0,0,1-2.14,1.21,6.56,6.56,0,0,1-1.07.31c-.45.12-.82.39-1.26.51a6.45,6.45,0,0,1-3.62-.52c-2.22-.71-3.94-2.82-5.4-4.56a12.3,12.3,0,0,1-2.39-4.69,28.69,28.69,0,0,1-.41-2.91,10.4,10.4,0,0,1-.19-2.72,8.87,8.87,0,0,1,.9-2.88,19.88,19.88,0,0,1,1.53-2.84,6.49,6.49,0,0,1,2.5-1.9,8.52,8.52,0,0,0,1.59-.54,5.69,5.69,0,0,1,1.53-.84,6.9,6.9,0,0,1,5.88.61,21.36,21.36,0,0,1,3.62,2.71c.67.69,1.3,1.43,2,2.14a6.25,6.25,0,0,1,1.44,2.71,4.4,4.4,0,0,1,.25,1.8,5.48,5.48,0,0,1-.19,1.73c-.73,1.54-2.24,2.22-3.16,3.52a5.59,5.59,0,0,1-.51.79c-.35.36-.75.68-1.12,1a10.81,10.81,0,0,1-1.89,1.56,7,7,0,0,1-2.59.95,3.79,3.79,0,0,1-3-.8,10.5,10.5,0,0,1-3-2.47,13.41,13.41,0,0,1-2.16-4.66,10.45,10.45,0,0,1-.36-5.2,6.51,6.51,0,0,1,2.28-4.55c1.16-1.31,3.07-1.63,4.67-2.05.31-.08,1-.41,1.37-.32s.5.51.67.69"/></svg>