<svg id="Layer_1" data-name="Layer 1" xmlns="http://www.w3.org/2000/svg" viewBox="0 0 780 1051.14"><defs><style>.cls-1,.cls-2{fill:#fff;}.cls-1{opacity:0.7;}.cls-2{font-size:38.5px;font-family:ABCSerifBold, ABCSerif;}.cls-3,.cls-5,.cls-6{fill:#d4a47c;}.cls-3,.cls-4,.cls-5,.cls-6,.cls-7,.cls-8{stroke:#fff;stroke-miterlimit:10;}.cls-3{stroke-width:0.3px;}.cls-4{fill:#005058;stroke-width:0.5px;}.cls-5{stroke-width:0.28px;}.cls-6{stroke-width:0.29px;}.cls-7{fill:#c6946f;stroke-width:0.27px;}.cls-8{fill:#fff171;stroke-width:0.3px;}</style></defs><path class="cls-1" d="M148.79,61.4a36.73,36.73,0,0,1,8.33-23.32,34.4,34.4,0,0,0-45.48-4.38A34.43,34.43,0,0,0,131.9,96a34.33,34.33,0,0,0,25.32-11.11A36.76,36.76,0,0,1,148.79,61.4ZM138,75.49s-3.7-.27-11.47-.27a25.63,25.63,0,0,0-4.93.31l-1.35-2.46c7.78-7.9,12.4-13.63,13-18.71.47-3.66-2-4.82-4.35-4.66a9.73,9.73,0,0,0-6.73,3.92c-.2-.23-1.93-2.07-1.47-2.65A12.43,12.43,0,0,1,130,46.12c5.89,0,9.09,3,8.74,8.51-.46,7-8,13.59-12.63,17.55l8.32-.08c1.77-.15,3-2.54,3.81-4.73,0,0,1.73.5,2,1C139.58,71.53,138.81,75.49,138,75.49Z"/><path class="cls-1" d="M95.79,61.4A36.74,36.74,0,0,1,104.16,38a34.44,34.44,0,1,0,.11,46.9A36.78,36.78,0,0,1,95.79,61.4ZM87.2,75.66H70.92L71,73.39l4.46-.58c.58,0,.81-.23.81-1,.08-10.05,0-19.6,0-19.6l-5.62,1.08c-.19-.31-1.12-2.46-.46-2.73l10.35-4,1,1s-.12,20.87,0,24.37c0,.77.19,1,.73,1l5.08.54Z"/><path class="cls-1" d="M201.79,61.4A36.74,36.74,0,0,1,210.16,38a34.43,34.43,0,0,0-47.76-2.48A34.8,34.8,0,0,0,172,93.43a34.41,34.41,0,0,0,38.24-8.51A36.78,36.78,0,0,1,201.79,61.4ZM181.35,75.49a15.64,15.64,0,0,1-7.86-2.19l1-2.89a21.48,21.48,0,0,0,7,1.66c3.35,0,5.51-1.74,5.55-5.24,0-2.46-1.43-4.35-4.47-4.74a17.82,17.82,0,0,0-5,.24c-.5.11-.89-3-.42-3.08,3-.54,7.62-1.08,8.39-4.89.73-3.62-2-4.82-4.35-4.66A8.43,8.43,0,0,0,175,52.82c-.2-.23-1.7-2.12-1-3a10.43,10.43,0,0,1,8.16-3.69c5.89,0,9.12,3,8.74,8.51a6,6,0,0,1-4,4.5c3.47.62,5.47,2.93,5.66,6.7C192.9,71.83,188,75.49,181.35,75.49Z"/><circle cx="236" cy="61.53" r="34.44"/><text class="cls-2" transform="translate(224.45 75.26)">4</text><path class="cls-3" d="M562,424.81a172.34,172.34,0,0,0-1.67-34.71c-1.28-9-10.71-20.55-12.79-29.35-.73-3.08-.75-18.64.18-20.19-.32.54-.6,1.08-.82,1.52-1.13,2.23-1.91,3.39-2.27,5.92-.57,3.94-1.92,7.72-2.13,11.73-.24,4.37-.06,8.69-.43,13.06-.17,1.95-.31,3.83-.61,5.77a13,13,0,0,1-1.12,3.72l-.32,0a7.62,7.62,0,0,1-4.11-.28l-.76-.35-2.46-.34c-4.77-.7-6.82-4.56-6.69-8.55-.64-.21-1.27-.44-1.91-.66a10.8,10.8,0,0,1-1.21.73l-.07.11a8.9,8.9,0,0,1-2.3,2.32c.4,13.95-3.66,29-15.47,37.55a12.62,12.62,0,0,1-9,2.56c-6.17,14-5.89,40.14-4.65,54,1.74,19.48,3.72,48.72,21,60,12.57-28.24,41.34-56.39,47.43-87.45A127.38,127.38,0,0,0,562,424.81Z"/><path class="cls-4" d="M518.85,472.81c.73-2.28,1.57-4.45,2.25-6.76a33,33,0,0,1,2.16-6.4c2.23-4,3.89-8.35,6.44-12.18,2.1-3.15,2.11-4.52-.74-7.12A62.91,62.91,0,0,1,516.11,423c-.76-1.45-1.31-3-2.16-4.42a16.64,16.64,0,0,1-1.85-.06,38.5,38.5,0,0,0-19.66,3.06,80.71,80.71,0,0,0-7.93,4.4,48.07,48.07,0,0,1-4.22,2.44c-1.25.57-2,1.83-1,0a13.11,13.11,0,0,1-8.36,6.9c-1.36,3.55-2.31,7.31-3.37,10.88-2.23,7.47-4.85,21.62-10.78,27-2.83,2.55-7,3.15-9.88,5.64-5.25,4.52-4,12.57-8.28,18-2.82,3.6-7.34,9.31-5.8,14.38,2,.48,4.16-.19,6.12-.66a52.26,52.26,0,0,1,7.54-1.35c3.45-.32,6.58-1.48,10.08-1.54a29.19,29.19,0,0,1,8.32,1c2.69.76,4.64,2.78,7,4.19a42.32,42.32,0,0,1,6.73,5.5c3.7,3.36,6.25,7.85,8.8,12.1,2.46,4.09,3.23,9.34,3.56,14a24.44,24.44,0,0,1-.31,3.91c-.1,1.28-.33,2.53-.48,3.83a28.81,28.81,0,0,1-1.67,7c-1.88,5.07-4.86,9.78-7.86,14.34-1.29,2-2.5,3.88-3.66,5.93-.87,1.54-1.6,2.75-1.47,4.48,8.35-2.3,16-13,20.53-20,7.47-11.39,12.72-24.19,18.11-36.64,3-6.85,1.05-11.3.33-18.23-.15-1.44-.07-2.86-.24-4.27s-.89-2.78-1.08-4.2a21,21,0,0,1,.2-6.28c.62-3.05,1-6.24,1.79-9.25.32-1.3,1-2.37,1.3-3.67a17.48,17.48,0,0,1,.39-2.14C517.62,477.19,518.16,475,518.85,472.81Z"/><path class="cls-5" d="M543.61,386.17c.83-1,.9-28.56,2.38-28.48s1.29,1.92,1.54,3.06c.19.93.8,1.65,1.07,2.56a7.4,7.4,0,0,0,.55,2,6.44,6.44,0,0,0,3.73,2.93c1.81.35,3.44-.93,5.21-.83a6,6,0,0,1,2.14.77,2.68,2.68,0,0,1,.51-1.66c2.32-3.37,6.26-4.59,9.43-6.92a20.16,20.16,0,0,0-2-3,29.51,29.51,0,0,1-3-4.76c-.79-1.5-1.9-2.59-1.69-4.26.15-1.28,1-2.33,1.2-3.6a25.53,25.53,0,0,1,.13-2.62,33.43,33.43,0,0,1,1.41-3.89c1-2.88,1.84-5.91,2.76-8.84a25.47,25.47,0,0,0,1.27-9.76,20.38,20.38,0,0,0-3.41-9.36,44.65,44.65,0,0,0-4.65-6.23,76.79,76.79,0,0,0-8.45-7.55c-3.36-2.61-8.07-4.31-12.15-5.3-3-.73-5.83-1.9-9-2.31a26.4,26.4,0,0,0-9.44.89c-2.66.63-5.14.36-7.77.3-1.33,0-2.59.51-4,.52a30.9,30.9,0,0,0-4.91.28c-3.13.58-4.76,2.74-6.66,5-1.26,1.52-1.92,3.33-3.22,4.83a14.6,14.6,0,0,0-1.59,2.39c-.53.94-1.27,1.64-1.81,2.58-.25.46-.28.93-.53,1.41s-.69.6-.85,1.14a19,19,0,0,0-.16,3.31,27.24,27.24,0,0,1-.49,3.84,3.06,3.06,0,0,0-.08.41c-.07,0-.21.05-.49.27a13,13,0,0,1-2.56,1.47c-2.24,1.17-2.63.87-5,2.46a29.45,29.45,0,0,0-4.26,3.36,3.57,3.57,0,0,0,.4,5.52,1.93,1.93,0,0,1,.78,1.06,5,5,0,0,1,.2,3.64,18.88,18.88,0,0,0-1.52,2.77,19.25,19.25,0,0,0-.81,5.77c0,1.6.64,2.41-.33,3.67-.69.9-1.44,1.78-2.18,2.66-1.38,1.64-2.16,3.55-.89,5.52a15.76,15.76,0,0,0,8.8,5.9c28.94,5.19,16.58,12,25.65,16.91,6.21,3.37-4.18,33.51-1.51,40.1"/><path d="M503.17,311c.25.28.48.58.7.88s.4.54.35.78,0,.1-.12.08-.19-.15-.25-.19a2.28,2.28,0,0,0-.3-.17c-.42-.2-.86-.35-1.27-.54-.25-.11-.5-.19-.73-.32-1.44-.8-2.67-2.11-4.19-2.74a7.44,7.44,0,0,0-4.62,0c0-.54,0-2.29.55-2.5.8-.29,2.85.61,3.73.64a6.83,6.83,0,0,1,4.34,1.89C502,309.53,502.53,310.35,503.17,311Z"/><path d="M572.56,354.22c-1.22-2.31-2.95-4.57-3.87-7-3-7.72,2.49-16,3.12-24.21.52-6.78-2.34-13.51-6.67-18.75s-10-9.19-15.86-12.66c-5.41-3.23-11.13-6.15-17.32-7.29-4.17-.77-16.63-1.17-18.4,4.17s5.6,12.6,4.56,18.68c-.53,3.09-2.49,5.89-2.46,9a25.42,25.42,0,0,0,.83,4.63c.54,2.8.35,5.71,1.08,8.47s2.75,5.49,5.59,5.72a11.74,11.74,0,0,1,3.49-4.94c1.66-1.19,2.35-.06,3.83,1.34,2,1.92,2.79,4,1,6.23s-4.14,4.13-4.64,6.88c-.54,3,1.32,5.81,3.08,8.27,3,4.23,10.9,9.25,13.93,13.48,3-1,2.24-.19,5.26-1,2.28-.59.73-4.82,2.54-3.31A19.35,19.35,0,0,0,564,366.4c4.19,0,8.94-2.09,9.81-6.18A8.75,8.75,0,0,0,572.56,354.22Z"/><path d="M512.76,289h1a1.77,1.77,0,0,0,0-.23A3.36,3.36,0,0,0,512.76,289Z"/><path class="cls-5" d="M520,334.52c-1.12-5.4,7.48-7.43,10.78-4.88a6.86,6.86,0,0,1,1.24,9.19c-2.12,2.83-6.18,3.58-8.49,6.28-1.21,1.42-2,3.39-3.65,4.18s-4.23-1.44-2.81-2.67"/><path d="M560.22,349.15a7.5,7.5,0,0,0,3.34-1.21,12.18,12.18,0,0,1,4-1.16,6.39,6.39,0,0,1,4.62.82,6.93,6.93,0,0,1,2.56,3.33,6.81,6.81,0,0,1,.54,3.75c-.43,1.28-2.15,2.68-3,3.73a7,7,0,0,1-4.28,2.13,6.31,6.31,0,0,1-4.84-.61,20.57,20.57,0,0,1-6.57-8.92c-.72-1.68.08-4.06.91-5.63s2.63-3.9,4.29-4.66c3.17-1.46,6.53,1.28,8.32,3.64,1.08,1.42,2,2.94,1.53,4.8a10.08,10.08,0,0,1-2.39,3.94,19,19,0,0,1-3.61,3.82,6.77,6.77,0,0,1-2.36,1.42,22.25,22.25,0,0,0-3,.8,8.29,8.29,0,0,1-3.42.56,3.38,3.38,0,0,1-2.45-1,11.28,11.28,0,0,1-2.14-2.33c-.38-.56-.54-1.23-.88-1.81-.58-1-.55-1,.22-2.09"/><path d="M565.17,347.41c.39-1.46,1.58-2.1,2.84-2.67a6.48,6.48,0,0,0,1.28-.66,1.94,1.94,0,0,1,2-.28c1.83.55,3.17,2.4,4.3,3.81a6.55,6.55,0,0,1,1.25,1.92c.23.67.2,1.41.44,2.07a4.43,4.43,0,0,1,.47,1.09c0,.45-.11.87,0,1.33a2.61,2.61,0,0,1,.1,1.21,8.55,8.55,0,0,1-.44,1.23,5.1,5.1,0,0,1-1.1,2.08,13.46,13.46,0,0,1-1.94,1.51,5.88,5.88,0,0,1-1,.46c-.42.18-.75.5-1.17.69a6.51,6.51,0,0,1-3.66,0c-2.3-.38-4.3-2.22-6-3.73a12.09,12.09,0,0,1-3-4.3,27.56,27.56,0,0,1-.82-2.82,10.2,10.2,0,0,1-.58-2.67,8.87,8.87,0,0,1,.47-3,19.94,19.94,0,0,1,1.11-3,6.38,6.38,0,0,1,2.2-2.24,8.81,8.81,0,0,0,1.5-.76,5.59,5.59,0,0,1,1.39-1.05,6.89,6.89,0,0,1,5.91-.25,21.5,21.5,0,0,1,4,2.16c.76.59,1.49,1.23,2.24,1.83a6.14,6.14,0,0,1,1.82,2.48,4.15,4.15,0,0,1,.5,1.74,5.45,5.45,0,0,1,.07,1.75c-.5,1.62-1.89,2.51-2.63,3.93a4.69,4.69,0,0,1-.38.86c-.29.41-.65.78-1,1.17a10.48,10.48,0,0,1-1.64,1.81,7.18,7.18,0,0,1-2.43,1.32,3.76,3.76,0,0,1-3.09-.36,10.37,10.37,0,0,1-3.29-2,13.29,13.29,0,0,1-2.81-4.29,10.29,10.29,0,0,1-1.1-5.1,10.71,10.71,0,0,1,.35-2.71,11.68,11.68,0,0,1,1.25-2.12c.95-1.47,2.8-2.06,4.32-2.7.29-.12,1-.56,1.3-.52s.58.43.78.59"/><path d="M548.77,357.61c.39-1.46,1.58-2.09,2.84-2.66a7.13,7.13,0,0,0,1.28-.67,1.92,1.92,0,0,1,2-.28c1.84.55,3.18,2.4,4.31,3.81a6.9,6.9,0,0,1,1.25,1.92c.23.67.2,1.41.44,2.07.13.39.42.66.46,1.09s-.1.88,0,1.34a2.44,2.44,0,0,1,.09,1.2,7.46,7.46,0,0,1-.43,1.23,5.14,5.14,0,0,1-1.1,2.09,15,15,0,0,1-1.94,1.51,6.2,6.2,0,0,1-1,.45c-.42.18-.75.51-1.17.69a6.42,6.42,0,0,1-3.66,0c-2.3-.37-4.3-2.22-6-3.73a12.05,12.05,0,0,1-3.05-4.29c-.35-.93-.57-1.87-.83-2.83a10.62,10.62,0,0,1-.57-2.66,8.84,8.84,0,0,1,.47-3,20.06,20.06,0,0,1,1.11-3,6.55,6.55,0,0,1,2.2-2.24,7.75,7.75,0,0,0,1.49-.76,6,6,0,0,1,1.39-1.05,6.91,6.91,0,0,1,5.92-.25,21.68,21.68,0,0,1,4,2.16c.77.59,1.5,1.23,2.25,1.84a6.2,6.2,0,0,1,1.82,2.47,4.46,4.46,0,0,1,.5,1.75,5.12,5.12,0,0,1,.06,1.74c-.5,1.62-1.89,2.52-2.62,3.94a4.92,4.92,0,0,1-.38.85c-.29.41-.65.78-1,1.17a10.93,10.93,0,0,1-1.64,1.82,7.16,7.16,0,0,1-2.43,1.31,3.76,3.76,0,0,1-3.09-.36,10.16,10.16,0,0,1-3.29-2,13.45,13.45,0,0,1-2.81-4.3,10.29,10.29,0,0,1-1.1-5.1,11.18,11.18,0,0,1,.34-2.71,11.73,11.73,0,0,1,1.26-2.12c.95-1.46,2.8-2,4.32-2.7.29-.12,1-.56,1.3-.51s.58.43.77.58"/><path class="cls-6" d="M319.75,449.82c-.54-.43-1-.89-1.56-1.4s-.9-1.06-1.45-1.54a12.77,12.77,0,0,0-1.17-.88,2,2,0,0,0-1.55-.22,8.89,8.89,0,0,1-2.52-.2c-.89-.12-1.78.1-2.68.05-1.47-.08-3.06-1.3-4.4-1.88a.86.86,0,0,1-.48-1l0-.06a.85.85,0,0,1,1.06-.57l31.33,9.53a.86.86,0,0,1,0,1.64h0a25.06,25.06,0,0,1-4.14,1.19,10.64,10.64,0,0,1-4.41-.54,38.61,38.61,0,0,1-7.1-3.48A7.23,7.23,0,0,1,319.75,449.82Z"/><path class="cls-6" d="M549.25,400.88c2.55-4.72,2.81-9.78,3-14.56.35-8.75-11.45-12.56-18.52-12.71-8.72-.19-18.17,3.89-26.86,9-7.64,4.49-14.2,8.78-19.88,16.27a95.28,95.28,0,0,1-13,14.21,93.59,93.59,0,0,1-15,10.64c-7.65,4.48-15.29,9.92-21,17-4.05.3-8.1.63-12.12,1.17-8,1.07-16.12,2.16-24.19,3.14-5.69.69-11.16,2.37-16.73,3.65-4.51.41-9,.69-13.4.81-1.64-.17-4.92-.74-5.3-.83-1.92-.46-3.79-1.15-5.67-1.66-4.28-1.17-8.73-1.9-13.05-2.89l-6.82-1.6a44.55,44.55,0,0,1-6.22-1.66c-1.56-.63-3.1-1.41-4.66-2.09-1-.45-2-1.1-3-1.52a24.65,24.65,0,0,0-3.27-1c-2.23-.53-5.17-2.45-7.4-2.94-4.18-.92-6.68-2.1-11-3.23-.47-.12-3.47-1.25-3.91-1.45a53.49,53.49,0,0,0-6-2.31L290,424.44l-1.46-.52a2.48,2.48,0,0,1-.56-.29,4.61,4.61,0,0,0-1-.37l-.67-.15a1.2,1.2,0,0,0-.5,0,3.8,3.8,0,0,0-.53.11c-.25.11-.31.4-.39.65-.21.61.12.88.51,1.19a6.74,6.74,0,0,1-1.15-.62,12.75,12.75,0,0,0-2.84-1.13,5.42,5.42,0,0,0-2.61-.38,1.39,1.39,0,0,0-1,.8,1.27,1.27,0,0,0,0,1.17c.21.48.37.94.85,1.1s.89.49,1.52.33a1,1,0,0,0-.36.34c-.18.31,0,.76.08,1.09a1.22,1.22,0,0,1,0,.63,1.15,1.15,0,0,0,.25.92,10.28,10.28,0,0,0,2.56,1.87c.91.58,1.72,1.36,2.66,1.9.34.2.69.39,1,.61s.49.22.72.36c.64.38,1.3.66,1.95,1a17.64,17.64,0,0,0,2.05,1c.41.16.8.34,1.2.51.39,1.21-.08,1.53.59,2.57.18.27,1.64,1.23,1.88,1.45a3.37,3.37,0,0,0,.65.47c5.08,3.16,11,4.6,16.4,7.05,1.77.8,2.27,2.24,4.16,2.8s4.61,2.21,6.44,3c3.15,1.29,5.48,1.6,8.72,2.51,2.79.79,3.77-1.15,9.88,1.22,2.65,1,5,2.72,7.64,3.63s5.76,1.11,8.53,2.09c2.07.74,5.17,3,7.52,2.82,4.94,1.1,8.54,2.93,14.08,3.46,17.69,1.69,35.36,3.69,53.07,5.21,3.95-.46,8.15-2.13,12.24-4.13a55.46,55.46,0,0,0,10.31-5l7.59-4.46c3.13-1.77,6.31-3.7,9.56-5.74,2.8-1.73,5.59-3.49,8.35-5.31l.55-.35h0c4.26-2.83,8.44-5.77,12.43-8.91"/><path class="cls-6" d="M287.86,428.26h0Z"/><path class="cls-6" d="M302,434.31c-.11.31-.2.65-.34.95a.69.69,0,0,1-.27.29,2.42,2.42,0,0,1-.48.06"/><path class="cls-6" d="M300.62,434.84l.21-.6c.06-.16.16-.27.21-.43"/><path class="cls-6" d="M300,434.79l.22-.59c0-.1.07-.2.1-.3a2.69,2.69,0,0,1,.16-.29"/><path class="cls-6" d="M299,435a1.46,1.46,0,0,0,.11-.41c0-.19,0-.39,0-.58a2.34,2.34,0,0,1,.07-.45,3.06,3.06,0,0,1,.13-.43"/><path class="cls-6" d="M299.83,431.43c.07-.21,0-.42.11-.63l.09-.24c0-.09.15-.2.17-.3"/><path class="cls-6" d="M301.23,430.52c-.06.18-.17.31-.23.49l-.18.49"/><path class="cls-6" d="M301.64,430.78l-.23.65"/><path class="cls-6" d="M302.92,431.47l-.3.82a1.79,1.79,0,0,1-.41.67"/><path class="cls-6" d="M285.34,425.06c1.26.46,6.54,2.3,7.8,2.76l1.9.68,1,.35c.35.13.71.17,1.06.28.93.3,1.88.49,2.8.83l1.12.4c.67.24,1.29.58,1.94.88.48.21.94.44,1.44.62l1.34.48,5.46,2a16.26,16.26,0,0,0,2.5.6,15.77,15.77,0,0,1,2.47.44"/><path class="cls-6" d="M285.27,427.85c-.28.47-.52,1-1,1.15a2.2,2.2,0,0,1-1.61.19,5,5,0,0,1-2.48-1.47,2,2,0,0,1-.36-1.15.31.31,0,0,1,.41-.24,213.09,213.09,0,0,1,21.08,7.53c1.14.41,2.17,1.1,3.28,1.57a1.93,1.93,0,0,1,.47.29c.23.09,4.57,1.75,4.8,1.85"/><path class="cls-6" d="M283.2,424c.3.45-.22.84-.37.91s-.34.19-.51.27a2.08,2.08,0,0,1-.87.2,4.41,4.41,0,0,1-1.55-.47,3.64,3.64,0,0,1-.87-.33c0-.07-.11-.13-.17-.2l-.21-.1a2.46,2.46,0,0,1-.38-.41,2,2,0,0,1-.48-.87c0-.26.26-.74,1.65-.44Z"/><path class="cls-6" d="M292.44,436.86c0-.13.18-.23.28-.31a.83.83,0,0,1,.48-.2,3.72,3.72,0,0,1,1.78.41L298.3,438c.31.11.58.28.88.4l.68.25L301,439c1,.37,2.06.76,3.1,1.12.85.28,1.76.38,2.62.62.33.09.65.25,1,.36a6.86,6.86,0,0,0,1.19.19,10.61,10.61,0,0,1,1.15.18c.34.08.65.28,1,.34s.41,0,.61.08.23.09.35.13.4.07.6.13.2.12.31.06a.54.54,0,0,0-.29-.12s0-.05,0-.09"/><path class="cls-6" d="M304.3,440.19c0,.2.07,1.82-.16,1.75"/><path class="cls-6" d="M303.81,440.49a7.26,7.26,0,0,0-.19.95"/><path class="cls-6" d="M303,440c-.18.11-.16.65-.17.81s0,.37,0,.56a.69.69,0,0,0,0,.35"/><path class="cls-6" d="M297.45,437.71c-.06.09-.2.42-.32.45s-.28.09-.43.12a2.46,2.46,0,0,1-1,0c-.49-.11-1-.37-1.46-.52a3,3,0,0,1-.39-.14,1.13,1.13,0,0,1-.21-.12,8.1,8.1,0,0,1-1.05-.63c-.21-.18-.09-.26-.17-.47s.15-.45,1.42-.12Z"/><path class="cls-6" d="M290.69,424.63c-.07.09-.22.45-.36.48l-.46.14a2.5,2.5,0,0,1-1.06,0,16.57,16.57,0,0,1-1.58-.56,3.52,3.52,0,0,1-.42-.15,1.67,1.67,0,0,1-.23-.12,8.69,8.69,0,0,1-1.13-.69c-.23-.2-.1-.28-.18-.52s.16-.49,1.54-.13Z"/><path class="cls-7" d="M483,512.4c-18.94-18-36.1-2.55-53.19-7.07-25.31-6.68-36.71-9.54-63.16-10.09C353,495,339.5,497,326.05,499.19c-7.83,1.28-16.58,1.81-24.76,3.47-2.72-.36-5.53-.4-8.22-.71-.16,0-.31.07-.47.09a21,21,0,0,1-5.74-.27L249,496.62c-9.05-1.23-18.4-2.79-27.41-2.65-15.37.24-30.4-3.39-45.57-7.16a4.54,4.54,0,0,0,.53-.37c-25.85-6.23-27-5.93-38.34-7.54-12.59-1.8-21.73-1.56-34.22.2a154.44,154.44,0,0,0-19.07,3.5c-5.08,1.39-12.16,1-16.67,3.64-3.62,2.13-5.34,7.3.64,6.55,1.53-.19,3.06-.68,4.57-.43,3.95.64,5.62,5.64,9.23,7.35a12.36,12.36,0,0,0,4.84.86c5.52.24,11.21,0,16.68.35,3,.21,5.33,1.57,8.16,2.18,5.49,1.2,9.71,6,14,9.44a52.33,52.33,0,0,0,6.49,4.33,6.8,6.8,0,0,0,5.77.89A8.34,8.34,0,0,0,144,514a32.21,32.21,0,0,1,3.07-4.59c1.86-2.16,3.7-4.43,5.68-6.53,7.59,1.93,26.08,9.73,31.91,12.35,12.26,5.49,24.14,11.4,35.92,17.7,4.5,2.08,9,4.12,13.58,6,18.49,7.66,38.25,11,57.56,12.57h.05c3.13.88,5.62,1.56,6.7,1.81,24,5.54,39.5,18.74,63.31,25.15q24.5,6.62,49.33,11.92c14.2,3,29.34,7.81,43.92,5.51,13.93-2.18,26.66-9,35-18.81,5.27-6.18,8.83-13.62,9.07-21.4C499.39,545,491.5,520.46,483,512.4Z"/><path class="cls-8" d="M553.09,386.94c-.4-.43-.82-.83-1.24-1.24a2.55,2.55,0,0,1,.15.86c0,1.72-.12,3.43-.26,5.14l.07.08a62.75,62.75,0,0,1,8.58,12.87c.47,1,.9,1.91,1.32,2.87.16-2.82.34-5.64.39-8.45A66.05,66.05,0,0,0,553.09,386.94Z"/><path class="cls-8" d="M557.8,445.41a2.92,2.92,0,0,0,.51-.78c.16-.33.31-.67.44-1,.3-.74.52-1.48.86-2.36.07-.18.14-.35.22-.52l-.77.19a98.26,98.26,0,0,1-10.84,2.1c-3.46.37-6.91.62-10.38.71a39.38,39.38,0,0,1-5-.33l-.88-.14a5.32,5.32,0,0,1-.06.78,4.46,4.46,0,0,1-.68,1.66,12,12,0,0,1-1.23,1.63c-.13.15-.27.28-.41.43a2.34,2.34,0,0,0,.65-.15,20.5,20.5,0,0,1,3.41.41,36.92,36.92,0,0,0,4.93.24c3.5-.11,7-.35,10.45-.75a80.24,80.24,0,0,0,8.43-1.59A2.09,2.09,0,0,1,557.8,445.41Z"/><path d="M296.49,50.34l-.27,3.12h-5.55V71.34h-3.75V53.46h-5.76V50.34Z"/><path d="M302.64,48.42v9.72a5.86,5.86,0,0,1,5.16-2.67c3.69,0,5.46,2.37,5.46,5.61V71.34h-3.72V62.28c0-2.4-.9-3.69-2.94-3.69-2.85,0-4,2.31-4,4.83v7.92h-3.72V48.87Z"/><path d="M330.78,67a7,7,0,0,1-6.78,4.5c-5.28,0-7.62-3.3-7.62-8.22s3.3-7.95,7.83-7.83c3.69.09,7,2.85,6.63,7.86l-.06.48H320.16c0,2.67,1.14,4.5,3.87,4.5a3.5,3.5,0,0,0,3.39-2.49ZM327,61.89c.06-2.43-1.26-3.57-3.09-3.51a3.5,3.5,0,0,0-3.54,3.51Z"/><path d="M343.32,55.62l.57,2.79a5.8,5.8,0,0,1,5.37-2.94c3.69,0,5.46,2.37,5.46,5.61V71.34H351V62.28c0-2.4-.9-3.69-2.94-3.69-2.85,0-4,2.31-4,4.83v7.92h-3.72V55.62Z"/><path d="M372.3,67a7,7,0,0,1-6.78,4.5c-5.28,0-7.62-3.3-7.62-8.22s3.3-7.95,7.83-7.83c3.69.09,7,2.85,6.63,7.86l-.06.48H361.68c0,2.67,1.14,4.5,3.87,4.5a3.5,3.5,0,0,0,3.39-2.49Zm-3.81-5.13c.06-2.43-1.26-3.57-3.09-3.51a3.5,3.5,0,0,0-3.54,3.51Z"/><path d="M378.39,55.62l3.15,6.18,3.3-6.18h4l-4.35,7.8L389,71.34h-4.26l-3.3-6.12L378,71.34h-4.14l4.83-7.86-4.29-7.86Z"/><path d="M396.81,51.18v4.59h4l-.51,3h-3.45V66c0,1.71.78,2.37,2,2.37a6.83,6.83,0,0,0,2.37-.69l.69,2.85a9.82,9.82,0,0,1-4,1c-3.69,0-4.83-2.46-4.83-5V58.77H390.9v-3h2.37l.45-4.17Z"/><path d="M424.35,67a7,7,0,0,1-6.78,4.5c-5.28,0-7.62-3.3-7.62-8.22s3.3-7.95,7.83-7.83c3.69.09,7,2.85,6.63,7.86l-.06.48H413.73c0,2.67,1.14,4.5,3.87,4.5A3.5,3.5,0,0,0,421,65.82Zm-3.81-5.13c.06-2.43-1.26-3.57-3.09-3.51a3.5,3.5,0,0,0-3.54,3.51Z"/><path d="M431.4,48.42V66.21c0,1.68.75,2.13,1.86,2.13a2.93,2.93,0,0,0,1.56-.57l.69,2.67a6.47,6.47,0,0,1-3.39,1.08c-3.12,0-4.44-2.1-4.44-5V48.87Z"/><path d="M450.69,67a7,7,0,0,1-6.78,4.5c-5.28,0-7.62-3.3-7.62-8.22s3.3-7.95,7.83-7.83c3.69.09,7,2.85,6.63,7.86l-.06.48H440.07c0,2.67,1.14,4.5,3.87,4.5a3.5,3.5,0,0,0,3.39-2.49Zm-3.81-5.13c.06-2.43-1.26-3.57-3.09-3.51a3.5,3.5,0,0,0-3.54,3.51Z"/><path d="M457,55.62l.54,2.79a5.25,5.25,0,0,1,4.86-3,4.58,4.58,0,0,1,4.68,2.91,5.53,5.53,0,0,1,5.07-2.91c3.69,0,5.13,2.4,5.13,5.64V71.34h-3.72V62.28c0-2.4-.57-3.69-2.61-3.69-2.7,0-3.42,2-3.42,4.35v8.4H463.8V62.28c0-2.4-.57-3.69-2.61-3.69-2.88,0-3.45,2.31-3.45,4.83v7.92H454V55.62Z"/><path d="M494.85,67a7,7,0,0,1-6.78,4.5c-5.28,0-7.62-3.3-7.62-8.22s3.3-7.95,7.83-7.83c3.69.09,7,2.85,6.63,7.86l-.06.48H484.23c0,2.67,1.14,4.5,3.87,4.5a3.5,3.5,0,0,0,3.39-2.49ZM491,61.89c.06-2.43-1.26-3.57-3.09-3.51a3.5,3.5,0,0,0-3.54,3.51Z"/><path d="M501.12,55.62l.57,2.79a5.8,5.8,0,0,1,5.37-2.94c3.69,0,5.46,2.37,5.46,5.61V71.34H508.8V62.28c0-2.4-.9-3.69-2.94-3.69-2.85,0-4,2.31-4,4.83v7.92h-3.72V55.62Z"/><path d="M521.13,51.18v4.59h4l-.51,3h-3.45V66c0,1.71.78,2.37,2,2.37a6.83,6.83,0,0,0,2.37-.69l.69,2.85a9.82,9.82,0,0,1-4,1c-3.69,0-4.83-2.46-4.83-5V58.77h-2.19v-3h2.37L518,51.6Z"/><path d="M539.76,55.62V71.34H536V58.71h-2.19V55.62Zm-1.89-6.12a2,2,0,0,1,2.22,1.89,2.22,2.22,0,0,1-4.41,0A1.93,1.93,0,0,1,537.87,49.5Z"/><path d="M544,66.84a8.15,8.15,0,0,0,5.1,1.74c1.8,0,2.85-.54,2.85-1.83,0-3.06-9.09-1-8.79-6.78.12-2.82,2.19-4.5,6.36-4.5a12.78,12.78,0,0,1,5.67,1.47l-1.32,2.64a8.9,8.9,0,0,0-4.5-1.29c-1.47,0-2.7.48-2.64,1.71.18,2.49,8.91.57,8.91,6.63,0,3.24-2.91,4.92-6.63,4.89a10.76,10.76,0,0,1-6.45-2Z"/><path d="M569.79,51.18v4.59h4l-.51,3h-3.45V66c0,1.71.78,2.37,2,2.37a6.83,6.83,0,0,0,2.37-.69l.69,2.85a9.82,9.82,0,0,1-4,1c-3.69,0-4.83-2.46-4.83-5V58.77h-2.19v-3h2.37l.45-4.17Z"/><path d="M581,48.42v9.72a5.86,5.86,0,0,1,5.16-2.67c3.69,0,5.46,2.37,5.46,5.61V71.34h-3.72V62.28c0-2.4-.9-3.69-2.94-3.69-2.85,0-4,2.31-4,4.83v7.92h-3.72V48.87Z"/><path d="M609.12,67a7,7,0,0,1-6.78,4.5c-5.28,0-7.62-3.3-7.62-8.22s3.3-7.95,7.83-7.83c3.69.09,7,2.85,6.63,7.86l-.06.48H598.5c0,2.67,1.14,4.5,3.87,4.5a3.5,3.5,0,0,0,3.39-2.49Zm-3.81-5.13c.06-2.43-1.26-3.57-3.09-3.51a3.5,3.5,0,0,0-3.54,3.51Z"/><path d="M632.52,67a7,7,0,0,1-6.78,4.5c-5.28,0-7.62-3.3-7.62-8.22s3.3-7.95,7.83-7.83c3.69.09,7,2.85,6.63,7.86l-.06.48H621.9c0,2.67,1.14,4.5,3.87,4.5a3.5,3.5,0,0,0,3.39-2.49Zm-3.81-5.13c.06-2.43-1.26-3.57-3.09-3.51a3.5,3.5,0,0,0-3.54,3.51Z"/><path d="M638.79,55.62l.57,2.79a5.8,5.8,0,0,1,5.37-2.94c3.69,0,5.46,2.37,5.46,5.61V71.34h-3.72V62.28c0-2.4-.9-3.69-2.94-3.69-2.85,0-4,2.31-4,4.83v7.92h-3.72V55.62Z"/><path d="M658.8,51.18v4.59h4l-.51,3H658.8V66c0,1.71.78,2.37,2,2.37a6.83,6.83,0,0,0,2.37-.69l.69,2.85a9.82,9.82,0,0,1-4,1c-3.69,0-4.83-2.46-4.83-5V58.77h-2.19v-3h2.37l.45-4.17Z"/><path d="M669,55.62l.69,3.24c.72-2.4,2.55-3.45,5.1-3.39a6.19,6.19,0,0,1,1.62.27L675.84,59a6.48,6.48,0,0,0-2.25-.3c-2.76.09-3.81,2.22-3.81,4.74v7.89h-3.72V55.62Z"/><path d="M682.32,55.62l3.87,11.1h.24L690,55.62h3.84l-5.82,16c-1.92,5.25-3.72,6.57-9.27,5.4l.66-3.15c3.54.87,4,.06,5.13-3L678.6,55.62Z"/><path d="M127.67,678.73a68.37,68.37,0,0,0,25.22,22.81,81.79,81.79,0,0,0,30,8.72,88.41,88.41,0,0,0,16.43.06c1.91-.17,1.93-3.17,0-3-19.82,1.76-40.89-3.08-56.41-16a65,65,0,0,1-12.69-14.16c-1.06-1.6-3.66-.1-2.59,1.52Z"/><path d="M186.2,702.73c4.44,2.16,8.64,4.75,12.89,7.23l-.3-2.35c-1.75,1.78-3.41,3.63-5.13,5.43s-3.26,3.28-4.85,5c-1.33,1.41.79,3.53,2.12,2.12,1.59-1.68,3.25-3.28,4.85-5s3.38-3.66,5.13-5.44a1.52,1.52,0,0,0-.3-2.36c-4.26-2.48-8.46-5.07-12.89-7.23-1.73-.85-3.25,1.74-1.52,2.59Z"/><path d="M53.76,583.75c3.48,0,5.48,1.31,5.48,4.26a4,4,0,0,1-2.34,3.88A4,4,0,0,1,59.71,596c0,3-1.9,5-5.87,5H47V583.75Zm-3.69,7h3.52c1.58,0,2.57-.76,2.57-2.31s-.87-2.08-2.45-2.08H50.07Zm0,7.67h3.79c1.68,0,2.72-.79,2.76-2.46s-1.18-2.54-3-2.54H50.07Z"/><path d="M67.87,588c3.23,0,6,2.19,6,6.61,0,3.62-2.14,6.58-6.16,6.58-4.37,0-6.17-3-6.17-6.58C61.58,590.16,64.37,588,67.87,588Zm-3.08,6.61c0,2,.69,4,3,4,2.09,0,3-2,3-4,0-2.87-1.4-4-3-4S64.79,591.67,64.79,594.58Z"/><path d="M88.71,582.17V601H86.15l-.35-2.22a4.52,4.52,0,0,1-4.12,2.37c-3.47.05-5.54-2.84-5.54-6.64,0-4.63,3-6.55,5.52-6.55a4.09,4.09,0,0,1,4,2.44v-7.84ZM79.29,594.5c0,2.19.87,3.92,3.16,3.92s3.25-1.73,3.25-3.9c0-2.93-1.58-4-3.28-4S79.29,591.67,79.29,594.5Z"/><path d="M94,588.09l3.18,9.12h.2l2.91-9.12h3.16L98.7,601.21c-1.58,4.31-3.06,5.4-7.62,4.44l.54-2.59c2.92.71,3.31.05,4.22-2.49L91,588.09Z"/><path d="M111.18,597.31a6.73,6.73,0,0,0,4.2,1.43c1.48,0,2.34-.44,2.34-1.5,0-2.52-7.47-.84-7.23-5.57.1-2.32,1.8-3.7,5.23-3.7a10.49,10.49,0,0,1,4.66,1.21l-1.08,2.17a7.36,7.36,0,0,0-3.7-1.07c-1.21,0-2.22.4-2.17,1.41.15,2,7.32.47,7.32,5.45,0,2.66-2.39,4-5.45,4a8.86,8.86,0,0,1-5.3-1.68Z"/><path d="M126.3,582.17v8a4.82,4.82,0,0,1,4.24-2.19c3,0,4.49,1.94,4.49,4.61V601H132v-7.45c0-2-.74-3-2.41-3-2.35,0-3.26,1.9-3.26,4V601h-3.06V582.54Z"/><path d="M143.91,588c3.23,0,6,2.19,6,6.61,0,3.62-2.14,6.58-6.16,6.58-4.37,0-6.17-3-6.17-6.58C137.62,590.16,140.41,588,143.91,588Zm-3.08,6.61c0,2,.69,4,3,4,2.09,0,3-2,3-4,0-2.87-1.41-4-3-4S140.83,591.67,140.83,594.58Z"/><path d="M155.55,588.09v7.45c0,2,.79,3,2.59,3,2.35,0,3.31-2.42,3.31-4.86v-5.62h3.05V601h-2.44l-.44-2.81a4.71,4.71,0,0,1-4.46,3c-3.16,0-4.66-1.95-4.66-5.2v-7.87Z"/><path d="M170.72,582.17v14.62c0,1.39.62,1.75,1.53,1.75a2.43,2.43,0,0,0,1.28-.46l.57,2.19a5.35,5.35,0,0,1-2.79.89c-2.56,0-3.65-1.73-3.65-4.07V582.54Z"/><path d="M187.17,582.17V601h-2.56l-.35-2.22a4.52,4.52,0,0,1-4.12,2.37c-3.47.05-5.55-2.84-5.55-6.64,0-4.63,3-6.55,5.53-6.55a4.1,4.1,0,0,1,4,2.44v-7.84Zm-9.42,12.33c0,2.19.86,3.92,3.16,3.92s3.25-1.73,3.25-3.9c0-2.93-1.58-4-3.28-4S177.75,591.67,177.75,594.5Z"/><path d="M49.87,616.09v8.21a4.4,4.4,0,0,1,4.31-2.42c2.44.07,5.06,1.73,5.06,6.48,0,3.9-2,6.71-5.45,6.71a4.28,4.28,0,0,1-4.07-2.37l-.42,2.22H46.81V616.48Zm-.12,12.35c0,2.22.81,4,3.25,4,2,0,3.11-1.5,3.11-4,0-3-1.51-3.95-3.14-3.95S49.75,625.85,49.75,628.44Z"/><path d="M73.27,631.37a5.76,5.76,0,0,1-5.57,3.7c-4.34,0-6.26-2.71-6.26-6.75s2.71-6.54,6.43-6.44c3,.07,5.75,2.34,5.45,6.46l0,.4H64.54c0,2.19.94,3.69,3.18,3.69a2.87,2.87,0,0,0,2.79-2Zm-3.13-4.21c0-2-1-2.94-2.54-2.89a2.88,2.88,0,0,0-2.91,2.89Z"/><path d="M87.26,631.3c-.84,2.64-3,3.77-5.63,3.77-4.24,0-6.06-3.15-6.06-6.61,0-4.21,2.61-6.51,6.14-6.58,3.11-.07,5,1.53,5.5,3.8l-2.84.91a2.54,2.54,0,0,0-2.61-2.12c-1.78,0-3.13,1.31-3.13,3.94,0,2.1.79,4,3.08,4a2.6,2.6,0,0,0,2.71-2Z"/><path d="M95.55,621.88c3.23,0,6,2.19,6,6.61,0,3.62-2.15,6.58-6.17,6.58-4.36,0-6.16-3-6.16-6.58C89.26,624.07,92,621.88,95.55,621.88Zm-3.09,6.61c0,2,.69,4,3,4,2.1,0,3-2,3-4,0-2.86-1.4-4-3-4C93.84,624.47,92.46,625.58,92.46,628.49Z"/><path d="M106.74,622l.45,2.3a4.33,4.33,0,0,1,4-2.45,3.77,3.77,0,0,1,3.85,2.4,4.55,4.55,0,0,1,4.17-2.4c3,0,4.21,2,4.21,4.64v8.43h-3v-7.44c0-2-.47-3-2.15-3-2.22,0-2.81,1.68-2.81,3.58v6.9h-3.06v-7.44c0-2-.47-3-2.14-3-2.37,0-2.84,1.9-2.84,4v6.51H104.3V622Z"/><path d="M137.87,631.37a5.77,5.77,0,0,1-5.58,3.7c-4.33,0-6.26-2.71-6.26-6.75s2.71-6.54,6.44-6.44c3,.07,5.74,2.34,5.45,6.46l0,.4h-8.73c0,2.19.94,3.69,3.18,3.69a2.89,2.89,0,0,0,2.79-2Zm-3.13-4.21c0-2-1-2.94-2.54-2.89a2.87,2.87,0,0,0-2.91,2.89Z"/><path d="M147.81,622l3.11,9.37h.19L154.2,622h3.13l-4.81,12.92h-3.08L144.75,622Z"/><path d="M170.15,631.37a5.76,5.76,0,0,1-5.57,3.7c-4.34,0-6.26-2.71-6.26-6.75s2.71-6.54,6.43-6.44c3,.07,5.75,2.34,5.45,6.46l0,.4h-8.73c0,2.19.94,3.69,3.19,3.69a2.87,2.87,0,0,0,2.78-2ZM167,627.16c0-2-1-2.94-2.54-2.89a2.88,2.88,0,0,0-2.91,2.89Z"/><path d="M175.31,622l.57,2.67c.59-2,2.09-2.84,4.19-2.79a4.85,4.85,0,0,1,1.33.22l-.47,2.69a5.48,5.48,0,0,0-1.85-.25c-2.27.08-3.13,1.83-3.13,3.9v6.48h-3.06V622Z"/><path d="M187.89,618.35v3.78h3.25l-.42,2.46h-2.83v5.92c0,1.41.64,2,1.67,2a5.43,5.43,0,0,0,1.95-.57l.57,2.34a7.94,7.94,0,0,1-3.28.84c-3,0-4-2-4-4.14v-6.34H183v-2.46H185l.37-3.43Z"/><path d="M198.05,622v12.92H195V624.54h-1.8V622Zm-1.55-5a1.65,1.65,0,0,1,1.82,1.56,1.82,1.82,0,0,1-3.62,0A1.59,1.59,0,0,1,196.5,617Z"/><path d="M212.45,631.3c-.84,2.64-3,3.77-5.62,3.77-4.24,0-6.07-3.15-6.07-6.61,0-4.21,2.62-6.51,6.14-6.58,3.11-.07,5,1.53,5.5,3.8l-2.83.91a2.55,2.55,0,0,0-2.62-2.12c-1.77,0-3.13,1.31-3.13,3.94,0,2.1.79,4,3.08,4a2.61,2.61,0,0,0,2.72-2Z"/><path d="M215.12,622.82a15.36,15.36,0,0,1,4.88-.94c3.9,0,5.33,1.92,5.33,4.93V632a.65.65,0,0,0,.61.74,2.41,2.41,0,0,0,1-.15v2a5,5,0,0,1-2,.39,2.34,2.34,0,0,1-2.35-1.75,5.62,5.62,0,0,1-3.89,1.75c-2.52,0-4.39-1.28-4.42-4s2-4.09,5.26-4.09a19.84,19.84,0,0,1,2.78.25v-.77c0-1.4-.88-2.17-2.66-2.14a10.5,10.5,0,0,0-4,.78Zm7.15,6a13.07,13.07,0,0,0-2.52-.15c-1.48.07-2.41.76-2.44,2.07a1.81,1.81,0,0,0,2.1,1.9,5,5,0,0,0,2.86-1Z"/><path d="M232.14,616.09v14.62c0,1.38.61,1.75,1.52,1.75A2.46,2.46,0,0,0,235,632l.56,2.19a5.22,5.22,0,0,1-2.78.89c-2.57,0-3.65-1.72-3.65-4.07V616.45Z"/></svg>