<svg id="Layer_1" data-name="Layer 1" xmlns="http://www.w3.org/2000/svg" viewBox="0 0 780 1051.14"><defs><style>.cls-1,.cls-2{fill:#fff;}.cls-1{opacity:0.7;}.cls-3{fill:#b58362;}.cls-3,.cls-4,.cls-5,.cls-6,.cls-7,.cls-8,.cls-9{stroke:#fff;stroke-miterlimit:10;}.cls-3,.cls-4,.cls-6,.cls-7{stroke-width:0.42px;}.cls-4,.cls-8,.cls-9{fill:#d4a47c;}.cls-5{fill:#fff171;stroke-width:0.3px;}.cls-6{fill:#005058;}.cls-7{fill:#c6946f;}.cls-8{stroke-width:0.44px;}.cls-9{stroke-width:0.28px;}</style></defs><path d="M53.76,543.75c3.48,0,5.48,1.31,5.48,4.27a4,4,0,0,1-2.34,3.87A4,4,0,0,1,59.71,556c0,3-1.9,5-5.87,5H47V543.75Zm-3.69,7h3.52c1.58,0,2.57-.76,2.57-2.31s-.87-2.07-2.45-2.07H50.07Zm0,7.67h3.79c1.68,0,2.72-.79,2.76-2.46s-1.18-2.54-3-2.54H50.07Z"/><path d="M67.87,548c3.23,0,6,2.19,6,6.6,0,3.63-2.14,6.59-6.16,6.59-4.37,0-6.17-3-6.17-6.59C61.58,550.16,64.37,548,67.87,548Zm-3.08,6.6c0,2,.69,4,3,4,2.09,0,3-2,3-4,0-2.85-1.4-4-3-4S64.79,551.66,64.79,554.57Z"/><path d="M88.71,542.17V561H86.15l-.35-2.22a4.51,4.51,0,0,1-4.12,2.37c-3.47.05-5.54-2.84-5.54-6.63,0-4.64,3-6.56,5.52-6.56a4.09,4.09,0,0,1,4,2.44v-7.84ZM79.29,554.5c0,2.2.87,3.92,3.16,3.92s3.25-1.72,3.25-3.89c0-2.94-1.57-4-3.28-4S79.29,551.66,79.29,554.5Z"/><path d="M94,548.09l3.18,9.12h.2l2.91-9.12h3.16L98.7,561.21c-1.58,4.31-3.06,5.4-7.62,4.44l.55-2.59c2.9.71,3.3.05,4.21-2.49L91,548.09Z"/><path d="M111.18,557.31a6.73,6.73,0,0,0,4.2,1.43c1.48,0,2.34-.44,2.34-1.5,0-2.52-7.47-.84-7.23-5.58.1-2.31,1.8-3.69,5.23-3.69a10.55,10.55,0,0,1,4.66,1.2l-1.08,2.17a7.41,7.41,0,0,0-3.7-1.06c-1.21,0-2.22.4-2.17,1.41.15,2,7.32.47,7.32,5.45,0,2.66-2.39,4-5.45,4a8.86,8.86,0,0,1-5.3-1.68Z"/><path d="M126.3,542.17v8a4.82,4.82,0,0,1,4.24-2.19c3,0,4.49,1.94,4.49,4.61V561H132v-7.45c0-2-.74-3-2.41-3-2.35,0-3.26,1.9-3.26,4V561h-3.06V542.54Z"/><path d="M143.91,548c3.23,0,6,2.19,6,6.6,0,3.63-2.14,6.59-6.16,6.59-4.37,0-6.17-3-6.17-6.59C137.62,550.16,140.41,548,143.91,548Zm-3.08,6.6c0,2,.69,4,3,4,2.09,0,3-2,3-4,0-2.85-1.41-4-3-4S140.83,551.66,140.83,554.57Z"/><path d="M155.55,548.09v7.45c0,2,.79,3,2.59,3,2.34,0,3.31-2.42,3.31-4.86v-5.62h3.05V561h-2.44l-.44-2.81a4.71,4.71,0,0,1-4.46,3c-3.16,0-4.66-1.95-4.66-5.2v-7.87Z"/><path d="M170.72,542.17v14.62c0,1.38.62,1.76,1.53,1.76a2.42,2.42,0,0,0,1.28-.47l.57,2.19a5.35,5.35,0,0,1-2.79.89c-2.56,0-3.65-1.73-3.65-4.07V542.54Z"/><path d="M187.17,542.17V561h-2.56l-.35-2.22a4.52,4.52,0,0,1-4.12,2.37c-3.47.05-5.54-2.84-5.54-6.63,0-4.64,3-6.56,5.52-6.56a4.1,4.1,0,0,1,4,2.44v-7.84Zm-9.42,12.33c0,2.2.86,3.92,3.16,3.92s3.25-1.72,3.25-3.89c0-2.94-1.58-4-3.28-4S177.75,551.66,177.75,554.5Z"/><path d="M49.87,576.09v8.21a4.4,4.4,0,0,1,4.31-2.42c2.44.07,5.06,1.73,5.06,6.49,0,3.89-2,6.7-5.45,6.7a4.28,4.28,0,0,1-4.07-2.36l-.42,2.21H46.81V576.48Zm-.13,12.35c0,2.22.82,4,3.26,4,2,0,3.11-1.5,3.11-4,0-3-1.51-3.95-3.13-3.95C51.2,584.44,49.74,585.85,49.74,588.44Z"/><path d="M73.27,591.37a5.75,5.75,0,0,1-5.57,3.7c-4.34,0-6.26-2.71-6.26-6.75s2.71-6.54,6.43-6.44c3,.07,5.75,2.34,5.45,6.46l0,.4H64.54c0,2.19.94,3.69,3.18,3.69a2.86,2.86,0,0,0,2.79-2Zm-3.13-4.21c0-2-1-2.94-2.54-2.89a2.88,2.88,0,0,0-2.91,2.89Z"/><path d="M87.26,591.3c-.84,2.64-3,3.77-5.62,3.77-4.25,0-6.07-3.15-6.07-6.61,0-4.21,2.61-6.51,6.14-6.58,3.11-.07,5,1.53,5.5,3.8l-2.84.91a2.54,2.54,0,0,0-2.61-2.12c-1.78,0-3.13,1.31-3.13,3.94,0,2.1.79,4,3.08,4a2.6,2.6,0,0,0,2.71-2Z"/><path d="M95.55,581.88c3.23,0,6,2.19,6,6.61,0,3.62-2.15,6.58-6.17,6.58-4.36,0-6.16-3-6.16-6.58C89.26,584.07,92,581.88,95.55,581.88Zm-3.09,6.61c0,2,.69,4,3,4,2.1,0,3-1.94,3-4,0-2.86-1.4-4-3-4C93.84,584.47,92.46,585.58,92.46,588.49Z"/><path d="M106.74,582l.45,2.3a4.3,4.3,0,0,1,4-2.44,3.77,3.77,0,0,1,3.85,2.39,4.52,4.52,0,0,1,4.17-2.39c3,0,4.21,2,4.21,4.63v8.43h-3v-7.44c0-2-.47-3-2.15-3-2.22,0-2.81,1.68-2.81,3.58v6.9h-3.06v-7.44c0-2-.47-3-2.14-3-2.37,0-2.84,1.9-2.84,4v6.51H104.3V582Z"/><path d="M137.87,591.37a5.75,5.75,0,0,1-5.58,3.7c-4.34,0-6.26-2.71-6.26-6.75s2.71-6.54,6.44-6.44c3,.07,5.74,2.34,5.45,6.46l0,.4h-8.73c0,2.19.94,3.69,3.18,3.69a2.88,2.88,0,0,0,2.79-2Zm-3.13-4.21c0-2-1-2.94-2.54-2.89a2.88,2.88,0,0,0-2.91,2.89Z"/><path d="M147.81,582l3.11,9.37h.19L154.2,582h3.13l-4.81,12.92h-3.08L144.75,582Z"/><path d="M170.15,591.37a5.75,5.75,0,0,1-5.57,3.7c-4.34,0-6.26-2.71-6.26-6.75s2.71-6.54,6.43-6.44c3,.07,5.75,2.34,5.45,6.46l0,.4h-8.73c0,2.19.94,3.69,3.19,3.69a2.86,2.86,0,0,0,2.78-2ZM167,587.16c0-2-1-2.94-2.54-2.89a2.88,2.88,0,0,0-2.91,2.89Z"/><path d="M175.31,582l.57,2.67c.59-2,2.09-2.84,4.19-2.79a4.78,4.78,0,0,1,1.33.22l-.47,2.69a5.48,5.48,0,0,0-1.85-.25c-2.27.08-3.13,1.83-3.13,3.9v6.48h-3.06V582Z"/><path d="M187.89,578.35v3.78h3.25l-.42,2.46h-2.83v5.92c0,1.41.64,2,1.68,2a5.43,5.43,0,0,0,1.94-.57l.57,2.34a7.94,7.94,0,0,1-3.28.84c-3,0-4-2-4-4.14v-6.34H183v-2.46H185l.37-3.43Z"/><path d="M198.05,582v12.92H195V584.54h-1.8V582Zm-1.55-5a1.66,1.66,0,0,1,1.82,1.56,1.82,1.82,0,0,1-3.62,0A1.59,1.59,0,0,1,196.5,577Z"/><path d="M212.45,591.3c-.84,2.64-3,3.77-5.62,3.77-4.24,0-6.07-3.15-6.07-6.61,0-4.21,2.62-6.51,6.14-6.58,3.11-.07,5,1.53,5.5,3.8l-2.83.91a2.55,2.55,0,0,0-2.62-2.12c-1.77,0-3.13,1.31-3.13,3.94,0,2.1.79,4,3.08,4a2.61,2.61,0,0,0,2.72-2Z"/><path d="M215.12,582.82a15.36,15.36,0,0,1,4.88-.94c3.9,0,5.33,1.92,5.33,4.93V592a.65.65,0,0,0,.61.74,2.41,2.41,0,0,0,1-.15v2a5,5,0,0,1-2,.39,2.32,2.32,0,0,1-2.34-1.75,5.67,5.67,0,0,1-3.9,1.75c-2.52,0-4.39-1.28-4.41-4s2-4.09,5.25-4.09a19.84,19.84,0,0,1,2.78.25v-.77c0-1.4-.88-2.17-2.66-2.14a10.39,10.39,0,0,0-4,.79Zm7.15,6a13.13,13.13,0,0,0-2.52-.15c-1.48.07-2.41.77-2.44,2.07a1.81,1.81,0,0,0,2.1,1.9,5.07,5.07,0,0,0,2.86-1Z"/><path d="M232.14,576.09v14.62c0,1.38.61,1.75,1.52,1.75A2.46,2.46,0,0,0,235,592l.56,2.19a5.22,5.22,0,0,1-2.78.89c-2.57,0-3.65-1.72-3.65-4.07V576.46Z"/><path class="cls-1" d="M148.79,61.4a36.73,36.73,0,0,1,8.33-23.32,34.4,34.4,0,0,0-45.48-4.38A34.43,34.43,0,0,0,131.9,96a34.33,34.33,0,0,0,25.32-11.11A36.76,36.76,0,0,1,148.79,61.4ZM138,75.49s-3.7-.27-11.47-.27a25.63,25.63,0,0,0-4.93.31l-1.35-2.46c7.78-7.9,12.4-13.63,13-18.71.47-3.66-2-4.82-4.35-4.66a9.73,9.73,0,0,0-6.73,3.92c-.2-.23-1.93-2.07-1.47-2.65A12.43,12.43,0,0,1,130,46.12c5.89,0,9.09,3,8.74,8.51-.46,7-8,13.59-12.63,17.55l8.32-.08c1.77-.15,3-2.54,3.81-4.73,0,0,1.73.5,2,1C139.58,71.53,138.81,75.49,138,75.49Z"/><path class="cls-1" d="M95.79,61.4A36.74,36.74,0,0,1,104.16,38a34.44,34.44,0,1,0,.11,46.9A36.78,36.78,0,0,1,95.79,61.4ZM87.2,75.66H70.92L71,73.39l4.46-.58c.58,0,.81-.23.81-1,.08-10.05,0-19.6,0-19.6l-5.62,1.08c-.19-.31-1.12-2.46-.46-2.73l10.35-4,1,1s-.12,20.87,0,24.37c0,.77.19,1,.73,1l5.08.54Z"/><path class="cls-1" d="M201.79,61.4A36.74,36.74,0,0,1,210.16,38a34.43,34.43,0,0,0-47.76-2.48A34.8,34.8,0,0,0,172,93.43a34.41,34.41,0,0,0,38.24-8.51A36.78,36.78,0,0,1,201.79,61.4ZM181.35,75.49a15.64,15.64,0,0,1-7.86-2.19l1-2.89a21.48,21.48,0,0,0,7,1.66c3.35,0,5.51-1.74,5.55-5.24,0-2.46-1.43-4.35-4.47-4.74a17.82,17.82,0,0,0-5,.24c-.5.11-.89-3-.42-3.08,3-.54,7.62-1.08,8.39-4.89.73-3.62-2-4.82-4.35-4.66A8.43,8.43,0,0,0,175,52.82c-.2-.23-1.7-2.12-1-3a10.43,10.43,0,0,1,8.16-3.69c5.89,0,9.12,3,8.74,8.51a6,6,0,0,1-4,4.5c3.47.62,5.47,2.93,5.66,6.7C192.9,71.83,188,75.49,181.35,75.49Z"/><circle cx="236" cy="61.53" r="34.44"/><path class="cls-2" d="M237.43,67,227.3,67c-.11,0-1.42.19-1.42.19S225,65,225.3,64.79c.89-.46,12.94-16.86,14-18.63l3.2.54c-.08,3.92,0,11.35,0,17.4l4.69-.08c.35,0,.08,3-.53,3h-4.12c0,2.27,0,3.47.07,4.39,0,.77.2,1,.74,1l2.34.54-.07,2.23h-11.4l.08-2.27,2.23-.58c.58-.15.81-.23.81-1C237.39,69.72,237.39,68.68,237.43,67Zm-7.12-3h7.12c0-7,0-10.05,0-10.05S230.31,64.06,230.31,64.06Z"/><path d="M296.49,50.34l-.27,3.12h-5.55V71.34h-3.75V53.46h-5.76V50.34Z"/><path d="M302.64,48.42v9.72a5.86,5.86,0,0,1,5.16-2.67c3.69,0,5.46,2.37,5.46,5.61V71.34h-3.72V62.28c0-2.4-.9-3.69-2.94-3.69-2.85,0-4,2.31-4,4.83v7.92h-3.72V48.87Z"/><path d="M330.78,67a7,7,0,0,1-6.78,4.5c-5.28,0-7.62-3.3-7.62-8.22s3.3-7.95,7.83-7.83c3.69.09,7,2.85,6.63,7.86l-.06.48H320.16c0,2.67,1.14,4.5,3.87,4.5a3.5,3.5,0,0,0,3.39-2.49ZM327,61.89c.06-2.43-1.26-3.57-3.09-3.51a3.5,3.5,0,0,0-3.54,3.51Z"/><path d="M343.32,55.62l.57,2.79a5.8,5.8,0,0,1,5.37-2.94c3.69,0,5.46,2.37,5.46,5.61V71.34H351V62.28c0-2.4-.9-3.69-2.94-3.69-2.85,0-4,2.31-4,4.83v7.92h-3.72V55.62Z"/><path d="M372.3,67a7,7,0,0,1-6.78,4.5c-5.28,0-7.62-3.3-7.62-8.22s3.3-7.95,7.83-7.83c3.69.09,7,2.85,6.63,7.86l-.06.48H361.68c0,2.67,1.14,4.5,3.87,4.5a3.5,3.5,0,0,0,3.39-2.49Zm-3.81-5.13c.06-2.43-1.26-3.57-3.09-3.51a3.5,3.5,0,0,0-3.54,3.51Z"/><path d="M378.39,55.62l3.15,6.18,3.3-6.18h4l-4.35,7.8L389,71.34h-4.26l-3.3-6.12L378,71.34h-4.14l4.83-7.86-4.29-7.86Z"/><path d="M396.81,51.18v4.59h4l-.51,3h-3.45V66c0,1.71.78,2.37,2,2.37a6.83,6.83,0,0,0,2.37-.69l.69,2.85a9.82,9.82,0,0,1-4,1c-3.69,0-4.83-2.46-4.83-5V58.77H390.9v-3h2.37l.45-4.17Z"/><path d="M424.35,67a7,7,0,0,1-6.78,4.5c-5.28,0-7.62-3.3-7.62-8.22s3.3-7.95,7.83-7.83c3.69.09,7,2.85,6.63,7.86l-.06.48H413.73c0,2.67,1.14,4.5,3.87,4.5A3.5,3.5,0,0,0,421,65.82Zm-3.81-5.13c.06-2.43-1.26-3.57-3.09-3.51a3.5,3.5,0,0,0-3.54,3.51Z"/><path d="M431.4,48.42V66.21c0,1.68.75,2.13,1.86,2.13a2.93,2.93,0,0,0,1.56-.57l.69,2.67a6.47,6.47,0,0,1-3.39,1.08c-3.12,0-4.44-2.1-4.44-5V48.87Z"/><path d="M450.69,67a7,7,0,0,1-6.78,4.5c-5.28,0-7.62-3.3-7.62-8.22s3.3-7.95,7.83-7.83c3.69.09,7,2.85,6.63,7.86l-.06.48H440.07c0,2.67,1.14,4.5,3.87,4.5a3.5,3.5,0,0,0,3.39-2.49Zm-3.81-5.13c.06-2.43-1.26-3.57-3.09-3.51a3.5,3.5,0,0,0-3.54,3.51Z"/><path d="M457,55.62l.54,2.79a5.25,5.25,0,0,1,4.86-3,4.58,4.58,0,0,1,4.68,2.91,5.53,5.53,0,0,1,5.07-2.91c3.69,0,5.13,2.4,5.13,5.64V71.34h-3.72V62.28c0-2.4-.57-3.69-2.61-3.69-2.7,0-3.42,2-3.42,4.35v8.4H463.8V62.28c0-2.4-.57-3.69-2.61-3.69-2.88,0-3.45,2.31-3.45,4.83v7.92H454V55.62Z"/><path d="M494.85,67a7,7,0,0,1-6.78,4.5c-5.28,0-7.62-3.3-7.62-8.22s3.3-7.95,7.83-7.83c3.69.09,7,2.85,6.63,7.86l-.06.48H484.23c0,2.67,1.14,4.5,3.87,4.5a3.5,3.5,0,0,0,3.39-2.49ZM491,61.89c.06-2.43-1.26-3.57-3.09-3.51a3.5,3.5,0,0,0-3.54,3.51Z"/><path d="M501.12,55.62l.57,2.79a5.8,5.8,0,0,1,5.37-2.94c3.69,0,5.46,2.37,5.46,5.61V71.34H508.8V62.28c0-2.4-.9-3.69-2.94-3.69-2.85,0-4,2.31-4,4.83v7.92h-3.72V55.62Z"/><path d="M521.13,51.18v4.59h4l-.51,3h-3.45V66c0,1.71.78,2.37,2,2.37a6.83,6.83,0,0,0,2.37-.69l.69,2.85a9.82,9.82,0,0,1-4,1c-3.69,0-4.83-2.46-4.83-5V58.77h-2.19v-3h2.37L518,51.6Z"/><path d="M539.76,55.62V71.34H536V58.71h-2.19V55.62Zm-1.89-6.12a2,2,0,0,1,2.22,1.89,2.22,2.22,0,0,1-4.41,0A1.93,1.93,0,0,1,537.87,49.5Z"/><path d="M544,66.84a8.15,8.15,0,0,0,5.1,1.74c1.8,0,2.85-.54,2.85-1.83,0-3.06-9.09-1-8.79-6.78.12-2.82,2.19-4.5,6.36-4.5a12.78,12.78,0,0,1,5.67,1.47l-1.32,2.64a8.9,8.9,0,0,0-4.5-1.29c-1.47,0-2.7.48-2.64,1.71.18,2.49,8.91.57,8.91,6.63,0,3.24-2.91,4.92-6.63,4.89a10.76,10.76,0,0,1-6.45-2Z"/><path d="M569.79,51.18v4.59h4l-.51,3h-3.45V66c0,1.71.78,2.37,2,2.37a6.83,6.83,0,0,0,2.37-.69l.69,2.85a9.82,9.82,0,0,1-4,1c-3.69,0-4.83-2.46-4.83-5V58.77h-2.19v-3h2.37l.45-4.17Z"/><path d="M581,48.42v9.72a5.86,5.86,0,0,1,5.16-2.67c3.69,0,5.46,2.37,5.46,5.61V71.34h-3.72V62.28c0-2.4-.9-3.69-2.94-3.69-2.85,0-4,2.31-4,4.83v7.92h-3.72V48.87Z"/><path d="M609.12,67a7,7,0,0,1-6.78,4.5c-5.28,0-7.62-3.3-7.62-8.22s3.3-7.95,7.83-7.83c3.69.09,7,2.85,6.63,7.86l-.06.48H598.5c0,2.67,1.14,4.5,3.87,4.5a3.5,3.5,0,0,0,3.39-2.49Zm-3.81-5.13c.06-2.43-1.26-3.57-3.09-3.51a3.5,3.5,0,0,0-3.54,3.51Z"/><path d="M632.52,67a7,7,0,0,1-6.78,4.5c-5.28,0-7.62-3.3-7.62-8.22s3.3-7.95,7.83-7.83c3.69.09,7,2.85,6.63,7.86l-.06.48H621.9c0,2.67,1.14,4.5,3.87,4.5a3.5,3.5,0,0,0,3.39-2.49Zm-3.81-5.13c.06-2.43-1.26-3.57-3.09-3.51a3.5,3.5,0,0,0-3.54,3.51Z"/><path d="M638.79,55.62l.57,2.79a5.8,5.8,0,0,1,5.37-2.94c3.69,0,5.46,2.37,5.46,5.61V71.34h-3.72V62.28c0-2.4-.9-3.69-2.94-3.69-2.85,0-4,2.31-4,4.83v7.92h-3.72V55.62Z"/><path d="M658.8,51.18v4.59h4l-.51,3H658.8V66c0,1.71.78,2.37,2,2.37a6.83,6.83,0,0,0,2.37-.69l.69,2.85a9.82,9.82,0,0,1-4,1c-3.69,0-4.83-2.46-4.83-5V58.77h-2.19v-3h2.37l.45-4.17Z"/><path d="M669,55.62l.69,3.24c.72-2.4,2.55-3.45,5.1-3.39a6.19,6.19,0,0,1,1.62.27L675.84,59a6.48,6.48,0,0,0-2.25-.3c-2.76.09-3.81,2.22-3.81,4.74v7.89h-3.72V55.62Z"/><path d="M682.32,55.62l3.87,11.1h.24L690,55.62h3.84l-5.82,16c-1.92,5.25-3.72,6.57-9.27,5.4l.66-3.15c3.54.87,4,.06,5.13-3L678.6,55.62Z"/><path class="cls-3" d="M133.79,505.28a22.52,22.52,0,0,1,20.3-2.22c13.95,5.12,25.67,12.82,38,20.57l8.64,5.4c2,1.29,4.26,3.52,6.65,4.22,6.52,1.9,15.45,5.72,22,7.68,6.14,1.85,24.61,5.69,30.95,6.76,2.86.48,5.79,1,8.68,1.3.8.07,4.47-.09,9-.3,11.72-.57,20.17-10.33,18.28-21.15l-1.13-6.46c-1.2-6.89-7-12.44-14.4-13.68-4.7-.79-9.41-1.53-14.11-2.29-7.6-1.24-27.53-4.78-35.16-5.78-2.74-.36-5.48-.75-8.19-1.24-2-.36-3.84-1-5.78-1.43-11.85-2.57-23.46-6.08-35-9.66-11-3.42-21.68-6.68-31.91-12A152.41,152.41,0,0,0,129.08,466c-7.14-2.43-14.3-2.84-21.61-4.53-2.84-.66-5.59-1.61-8.43-2.26-4.86-1.12-12.63-2.85-17.54-2-1.51.26-3.17.27-4.63.68a34.14,34.14,0,0,0-4.33,1.92c-1.37.59-2.91,1.22-3.32,2.75a6.93,6.93,0,0,0,.27,3.41c.42,1.56,1.59,2,3.14,2.78,2.89,1.39,5.84,2.63,8.83,3.81a21.4,21.4,0,0,1,2.09,1c5.74,3.1,11.68,5.67,17.22,9.24a22.21,22.21,0,0,1,4,3.09,22.22,22.22,0,0,1,3.5,5.26c2.45,4.6,4.41,9.73,7.43,14a12.22,12.22,0,0,0,3.91,3.79c1.67,1,3.57.56,5.32.08A31.79,31.79,0,0,0,133.79,505.28Z"/><path class="cls-4" d="M449.08,577.42c3.82-3.17,34.66-3.11,39-5.36.63-.33,1.08-1,1.73-1.34,1.45-.77,3.28-1.46,4.79-2.13a25.61,25.61,0,0,1,7.47-1.72c4.91-.5,9.63-2.24,14.48-2.63,5.24-.41,10.09-2.78,15.25-2.85,11.59-.17,23.24,1.6,34.82,2.85,5.7.61,7.6-8,13.32-7.64,3.47.25,17.49-7.51,20.89-7C603,550,629.5,546.28,631,548c-.29,2.21.66,4.49-.89,5.81-2.48,2.13-38.39,19.34-41.6,20.22-2.88.79-4.88,2.44-7.79,3.14-7.48,1.82-39.31,10.94-59.56,7.59-3.16-.53-57.43.5-60.61.13C454.19,584.17,453.87,573.45,449.08,577.42Z"/><path class="cls-5" d="M591.88,518.13a8.43,8.43,0,0,1,.15,1.23c0,.57,0,.46-1,1.25A6.73,6.73,0,0,1,589,521.7c6,1.78,11.89,3.63,17.85,5.4S618.4,533,624.44,534c3.82.65,3.39,1.53,7.23,2-.07,0,1.56.33,1.5.3-2.49-.63-8.37-4.81-10.66-5.94s-9.1-4.56-11.52-5.38S591.93,518,591.88,518.13Z"/><path class="cls-5" d="M545.4,562.05l-.11.11a19,19,0,0,1-2.54,2c2.77,7.13,8,13.07,13.87,18a3,3,0,0,0,1.2.71,2.81,2.81,0,0,0,1.22-.08,14.84,14.84,0,0,0,1.93-.6,6.07,6.07,0,0,1,2-.4c.59,0,.86-.52,1.36-.73-3.79-1-6.94-3.6-9.65-6.42a35,35,0,0,1-7.78-11.55C546.52,562.21,546.25,561.22,545.4,562.05Z"/><path class="cls-6" d="M581.43,503.79c-4.52-3.07-8.88-6.42-13.11-9.84-2.51-2-5-4.15-8-5.31-10-3.81-20.73,1.62-28.72,7.27a21.09,21.09,0,0,1-5.44,3.28c-.14.05-.29.07-.44.11-2.29,0-4.72-.52-6.84-.6q-6.23-.24-12.44.09a56.1,56.1,0,0,0-9.52,1.38c-8.86,1.22-17.55,3.29-26.47,4.16q-21.6,2.12-43.08,5.3c-13.65,2-28.67,4.68-39.49,13.88L387,526c1.33.1,2.71-.33,4.07-.33,1.59,0,3-.64,4.63-.66a140.49,140.49,0,0,1,23.66,1.51c7.8,1.23,16.52,2.67,22.75,7.76a17.44,17.44,0,0,1,2.15,2.38c2.52,3,5.44,5,7.41,8.58,5.56,10.2,3.75,22.83-2.62,32.19a65.59,65.59,0,0,1-9.84,11c-2.19,2-26.35,7.87-28.83,9.89,1.59-.23,6.24,3.12,7.83,2.86,6.48,2.2,22.43-4.94,25.8-6.19,29-10.69,54.52-28.36,86.31-30.82,2.44-.19,6.84.41,10-.15,1.59,0,2.85.09,3.13.12a23.27,23.27,0,0,0,2.56-3s.41-5,2.91-7.45q4.8-4.77,9.94-9.17a142.19,142.19,0,0,1,22-15.57q4.53-2.57,9.25-4.76c1.2-.55,6.6-.77,6.6-.77a16.2,16.2,0,0,0,.47-3.92c-1.63-8.69,4.28.54,5-2.13.49-1.76-13.39-8.91-15-9.88Q584.29,505.75,581.43,503.79Z"/><path class="cls-5" d="M597.2,519.54a7.54,7.54,0,0,1,.16,1.23c0,.58,0,.47-1,1.26a7.23,7.23,0,0,1-2.12,1.09c6,1.78,11.9,3.62,17.85,5.4s11.61,5.85,17.65,6.88c3.82.65,3.38,1.52,7.22,2-.06,0,1.57.33,1.51.3-2.49-.63-8.37-4.81-10.66-5.94s-9.1-4.56-11.52-5.39S597.26,519.38,597.2,519.54Z"/><path class="cls-7" d="M404.57,514.85c-23-4.57-35.39-1.06-59-4.67-20.68-3.16-35.33-5.45-55.8-.49a18.29,18.29,0,0,0-8.56-3.29c-4.73-.54-16.57.91-21.31.39-7.65-.84-27.74-3.34-35.41-3.94-2.75-.22-5.51-.47-8.24-.82-2-.26-3.89-.81-5.85-1.13-12-1.94-23.74-4.84-35.47-7.82-11.2-2.84-22-5.55-32.5-10.32a152.6,152.6,0,0,0-22-7.93c-7.25-2-14.43-2.09-21.81-3.4-2.87-.51-5.67-1.32-8.54-1.82-4.91-.85-12.76-2.18-17.62-1.06a46.59,46.59,0,0,0-4.59.92,34.8,34.8,0,0,0-4.22,2.14c-1.33.67-2.84,1.37-3.17,2.93a6.91,6.91,0,0,0,.45,3.39c.49,1.53,1.69,1.94,3.28,2.61,3,1.24,6,2.32,9,3.34a20.4,20.4,0,0,1,2.14.94c5.9,2.79,12,5.05,17.68,8.32A22.63,22.63,0,0,1,97.22,496,22.19,22.19,0,0,1,101,501.1c2.69,4.46,4.92,9.48,8.15,13.62a12.23,12.23,0,0,0,4.1,3.58c1.72.92,3.6.38,5.32-.19a32.05,32.05,0,0,0,8.62-4.24,22.51,22.51,0,0,1,20.16-3.27c14.2,4.38,26.3,11.47,39.06,18.56,21.6,12,44.79,17.63,69.35,20.48,2.89.33,5.84.73,8.74.84.52,0,2.26-.11,4.65-.34l.24.1c20.65,7.82,40.08,18.67,60.43,27.24q21,8.84,42.39,16.53c12.26,4.41,25.09,10.49,38.52,10.15,12.83-.31,25.31-5,34.3-12.75,5.68-4.93,10-11.2,11.46-18.16,2-9.61-1.3-32.56-7.64-40.8C434.66,514,422.08,518.32,404.57,514.85Z"/><path class="cls-8" d="M624.73,550.06c2.68-8.47-7.7-30.37-14.43-33.66-8.29-4.06-18.42-4.23-28.1-3.06-8.51,1-15.94,2.35-23.39,7.2a75.93,75.93,0,0,1-16.26,8.24,78.59,78.59,0,0,1-17.21,3.82,71.55,71.55,0,0,0-18.76,4.49c-37.31-5.67-74.51-2.72-107.12-9a18.82,18.82,0,0,1-2-1.09,42.7,42.7,0,0,1-3.74-4.41c-.51-.76-1-1.54-1.49-2.31-.82-1.32-1.64-2.61-2.51-3.91a14.58,14.58,0,0,0-1.08-1.68c-.38-.46-.91-.85-1.26-1.34l-.72-.43c-.45-.52-.83-1.12-1.31-1.61a9.06,9.06,0,0,0-1.48-1.22l-.65-.45c-.35-.26-.61-.59-1-.83a12.94,12.94,0,0,0-1.43-.93c-.54-.27-1,.06-1.46.22a1.65,1.65,0,0,1-1.45-.1c-.51-.28-1-.51-1.55-.78-.33-.18-.61-.38-.95-.53l-.88-.44a13.67,13.67,0,0,1-1.79-1.16l-.9-.59a7.12,7.12,0,0,1-.72-.62,3.11,3.11,0,0,0-.69-.44c-.28-.13-.53-.34-.81-.47a4,4,0,0,0-1.79-.43,2.09,2.09,0,0,0-.56,0c-.24.1-.5.28-.74.4a8.51,8.51,0,0,1-1.55.75,7.93,7.93,0,0,1-1.62.09l-1.47.06c-.36,0-.69-.09-1.05-.09a3.57,3.57,0,0,1-.8,0c-.24-.06-.49-.06-.73-.14a1.71,1.71,0,0,0-.6-.15,8.75,8.75,0,0,0-1.36.05c-.65.12-.68.76-.74,1.35a2.33,2.33,0,0,0,.12.91,9.66,9.66,0,0,0,.44,1.48.51.51,0,0,0,.24.31c.08,0,.18,0,.25.08s.11.19.16.28a.81.81,0,0,0,.24.21,9.47,9.47,0,0,0,2,.93c.78.28,1.56.54,2.36.77l.16.05c-.35-.07-.71-.12-1.06-.21a10.47,10.47,0,0,1-2-.66,13.36,13.36,0,0,0-1.92-1,3.11,3.11,0,0,1-.41-.11c-.29-.12-.58-.24-.87-.33s-.41-.07-.61-.12a3.82,3.82,0,0,1-.64-.32,10.3,10.3,0,0,0-1.35-.63,8,8,0,0,0-2.59-.68,2,2,0,0,1-.68-.2,5.16,5.16,0,0,0-.67-.1,2.19,2.19,0,0,1-.63-.11,7.18,7.18,0,0,1-.72-.39c-.44-.24-.93-.36-1.37-.63s-.9-.47-1.33-.74a9.47,9.47,0,0,0-1.26-.66,4.36,4.36,0,0,0-.62-.07c-.17,0-.36-.13-.54-.18-.43-.13-.85-.2-1.28-.35s-1-.3-1.48-.43c-.82-.21-1.62-.47-2.42-.76a6.62,6.62,0,0,0-2.35,0,2.87,2.87,0,0,0-2.16,1.43,3.48,3.48,0,0,0-.53,2.37,1.89,1.89,0,0,0,.45,1c-.16-.14-.37-.28-.54-.41a2,2,0,0,0-1.48-.34,2.88,2.88,0,0,0-.59.05,7.18,7.18,0,0,1-.79.12,3.36,3.36,0,0,0-.76.24c-.41.18-.51.48-.63.92a10,10,0,0,0-.2,1.82,3.18,3.18,0,0,0,.29,1.72,3.55,3.55,0,0,0,1.58,1.18,18.13,18.13,0,0,0,2.16,1.08c.56.23,1.1.45,1.64.73a13.86,13.86,0,0,0,1.94.84c.73.25,1.37.88,2.08,1.2.38.17.76.29,1.14.44s.59.34.91.46a6.75,6.75,0,0,1,1.82,1.24,6.9,6.9,0,0,0,1,.67,6.2,6.2,0,0,1,.75.45l-9.13-4.93a.79.79,0,0,0-.6-.27c-.15,0-.21-.09-.34-.12a1.92,1.92,0,0,0-1.27.33c-1,.6-.84,2-.58,3a3.41,3.41,0,0,0,1,1.67c.52.49.92,1.09,1.43,1.58a4.9,4.9,0,0,0,1.53,1,10.21,10.21,0,0,1,1.69.91,24.57,24.57,0,0,0,3.52,1.45l1,.44c.26.12.46.33.71.47.7.37,1.41.67,2.12,1a7.15,7.15,0,0,1,1.07.63c.31.23.66.39.95.63s.67.46,1,.69l-7.15-3.77c-.23,0-.45-.38-.64-.19s-.18.26-.29.37-.27.18-.34.33a1,1,0,0,0,0,.41c.05.53-.05,1,0,1.57a2.9,2.9,0,0,0,.48,1.39,4.06,4.06,0,0,0,1.38,1.44c.29.2.49.48.78.68s.65.4,1,.59.59.28.85.46a6.61,6.61,0,0,0,.78.52c.34.17.63.42,1,.59a4.29,4.29,0,0,1,.85.44,7.51,7.51,0,0,0,1.63.91c.47.2.89.59,1.37.8s.93.57,1.42.8,1.13.61,1.7.88c.22.11.46.12.68.25s.47.36.74.5c.53.25,1,.59,1.54.85s1,.22,1.51.42a9.53,9.53,0,0,1,1.53.77c.42.25.88.31,1.32.52.28.13.52.34.8.49a10.4,10.4,0,0,1,1.16.75c.46.32.92.58,1.4.87a3.86,3.86,0,0,0,1.48.38,2.29,2.29,0,0,1,.79.37,7,7,0,0,0,.81.43,2.9,2.9,0,0,0,.51.29,3.76,3.76,0,0,1,.91.26c.31.17.62.55,1,.65a12,12,0,0,0,2.1.21c.25,0,.5,0,.75,0a20.86,20.86,0,0,1,2.59.53,10.13,10.13,0,0,0,1.61.37,12.2,12.2,0,0,1,1.35,0c1.19.17,2.42.09,3.62.27.38,0,.74.23,1.11.27.55.06,1.05,0,1.61.07a25.08,25.08,0,0,0,3.12.16c1.16.09,2.29.33,3.46.53l.11,0a13.91,13.91,0,0,0,2.06-.41,36.21,36.21,0,0,0,3.67,1.62c16.22,6.37,32.23,13.56,49,18,10.7,2.86,25.34,10.46,36.13,11,10,.49,13.63-1.54,22.6-3.33,2-.07,74-4.57,76-4.81m-214-57c-.2-.17-.74-.18-1-.23l-.39-.08A2.26,2.26,0,0,1,365.69,510.58ZM335,507a8.16,8.16,0,0,1,2.31.77c.31.18.61.39.92.58Zm5.85,2.44a4.1,4.1,0,0,0,.71.18l1.46.21a6.29,6.29,0,0,1,1.52.44,7.9,7.9,0,0,0,1.41.43,4.44,4.44,0,0,1,1.65,1,11.35,11.35,0,0,0,1.44,1,27.78,27.78,0,0,1,3.53,1.68Zm7.22,11.44.28.1c.24.12.42.31.67.41a7.81,7.81,0,0,0,2.51.79c.49,0,.62.48,1.09.76s1,.75,1.52,1c1,.54,1.75.69,2.72,1.24.48.27.92.29,1.33.71.14.14,1,.68,1,.78s.63.54.56.49Zm6.51,9.75a7.73,7.73,0,0,1,2.18,1.15Zm3.25,1.62a3.42,3.42,0,0,1,.64.31Zm2.24,1c.08,0,.15,0,.18,0S360.23,533.28,360.11,533.23Z"/><path class="cls-9" d="M655.58,552c1.27,0-4.24,9-3.34,10.14s-.63,2.23-1.33,3.15c-.58.75-.74,1.68-1.26,2.48a7.76,7.76,0,0,0-1.15,1.71,6.48,6.48,0,0,0,.2,4.73c.91,1.61,2.95,2,4,3.43a5.86,5.86,0,0,1,.81,2.12,2.71,2.71,0,0,1,1.59-.69c4.07-.42,7.56,1.79,11.39,2.68a21,21,0,0,0,1-3.45,30.63,30.63,0,0,1,1.65-5.4c.63-1.58.74-3.12,2.14-4,1.08-.72,2.46-.72,3.53-1.43a23.25,23.25,0,0,1,2.07-1.6,33.41,33.41,0,0,1,3.87-1.46c2.87-1.07,5.7-2.43,8.52-3.63a25.67,25.67,0,0,0,8.25-5.37,20.44,20.44,0,0,0,4.91-8.67,45.47,45.47,0,0,0,1.72-7.58,76.62,76.62,0,0,0,.25-11.34c-.2-4.24-2-8.93-3.86-12.68-1.41-2.78-2.33-5.66-4.07-8.32a26.27,26.27,0,0,0-6.81-6.61c-2.2-1.61-3.61-3.67-5.27-5.72-.83-1-2.07-1.64-3-2.68a29.28,29.28,0,0,0-3.4-3.55c-2.47-2-5.17-1.85-8.13-1.82-2,0-3.77.69-5.76.68a15.2,15.2,0,0,0-2.85.34c-1.06.2-2.07.1-3.13.3-.52.11-.89.39-1.42.52s-.91-.14-1.43.09a20.39,20.39,0,0,0-2.62,2,28.13,28.13,0,0,1-3.23,2.13,2,2,0,0,0-.36.2c0-.06-.18-.13-.53-.2a12.84,12.84,0,0,1-2.78-1c-2.35-.94-2.37-1.43-5.15-2.23a28.84,28.84,0,0,0-5.32-1.07,3.57,3.57,0,0,0-3.93,3.89,2,2,0,0,1-.31,1.29,5,5,0,0,1-2.64,2.51,20.59,20.59,0,0,0-3.1.64,19.81,19.81,0,0,0-4.91,3.13c-1.19,1.07-1.42,2.05-3,2.13-1.14.06-2.3.06-3.44.07-2.14,0-4.11.66-4.78,2.91-.9,3-.19,7.87,1.23,10.53,4.54,8.53,9.94,17.53,12.28,27a5.9,5.9,0,0,1-.44,4.63,9.72,9.72,0,0,1-3.25,2.62c-2,1.29-3.76,3-5.76,4.28a19.59,19.59,0,0,1-13.82,2.93"/><path d="M659.92,499.28c0,.37-.13.74-.21,1.11,0,.21-.15.65-.37.77s-.09,0-.14,0,0-.24,0-.32,0-.23-.07-.34c-.12-.44-.29-.87-.42-1.31-.07-.26-.18-.5-.23-.76-.32-1.62-.13-3.41-.63-5a7.48,7.48,0,0,0-3-3.5c.42-.34,1.74-1.5,2.26-1.21.74.42,1.39,2.57,1.93,3.25a6.84,6.84,0,0,1,1.39,4.53C660.32,497.43,660,498.34,659.92,499.28Z"/><path d="M672.13,580.09c1-2.42,1.56-5.2,2.8-7.48,4-7.26,13.76-8.48,20.44-13.34,5.5-4,8.75-10.55,9.93-17.25s.49-13.58-.66-20.28c-1.07-6.21-2.56-12.46-5.71-17.91-2.12-3.67-9.9-13.4-15.11-11.28s-6,12.44-11.25,15.59c-2.69,1.6-6.09,1.93-8.46,4a26.26,26.26,0,0,0-3,3.64c-1.78,2.23-4.12,4-5.74,6.32s-2.39,5.66-.72,8a11.61,11.61,0,0,1,6-.55c2,.49,1.57,1.74,1.47,3.78-.14,2.8-1.27,4.74-4.07,4.83s-5.82-.46-8.24.95c-2.62,1.52-3.57,4.77-4.3,7.7-1.25,5,.05,14.3-1.2,19.34,2.66,1.64,1.59,1.59,4.15,3.38,1.94,1.35,4.15-2.58,4.18-.22a19.26,19.26,0,0,0,4.62,12.22c2.72,3.17,7.38,5.44,11.06,3.45A8.78,8.78,0,0,0,672.13,580.09Z"/><path d="M682.94,492.25l.63.73c.06,0,.11-.1.17-.15A2.88,2.88,0,0,0,682.94,492.25Z"/><path class="cls-9" d="M653,527.29c3.39-4.36,10.51.86,10.71,5a6.86,6.86,0,0,1-6.18,6.91c-3.53.22-6.74-2.38-10.29-2.38-1.87,0-3.84.71-5.54-.07s-1.65-4.15.2-3.87"/><path d="M668,567.42a7.54,7.54,0,0,0,3.09,1.75,12.37,12.37,0,0,1,3.47,2.29,6.39,6.39,0,0,1,2.39,4,7,7,0,0,1-.87,4.11,6.8,6.8,0,0,1-2.51,2.84c-1.25.51-3.43.1-4.77.16a7,7,0,0,1-4.4-1.87c-1.28-1-2.54-2.39-2.68-4.09a20.65,20.65,0,0,1,2.52-10.78c.81-1.64,3.14-2.57,4.87-3s4.68-.52,6.33.24c3.17,1.46,3.27,5.8,2.64,8.7-.38,1.74-.93,3.45-2.66,4.28a10.34,10.34,0,0,1-4.55.74,19.22,19.22,0,0,1-5.25-.27,6.84,6.84,0,0,1-2.61-.88,21.37,21.37,0,0,0-2.55-1.75,8.5,8.5,0,0,1-2.65-2.24,3.37,3.37,0,0,1-.81-2.52,10.84,10.84,0,0,1,.39-3.15c.17-.64.58-1.21.8-1.84.38-1.09.44-1.09,1.73-1.19"/><path d="M672.51,570.05c1.36-.65,2.62-.16,3.87.43a6.5,6.5,0,0,0,1.33.54,2,2,0,0,1,1.52,1.34c.77,1.75.23,4-.11,5.75a6.68,6.68,0,0,1-.65,2.19c-.36.62-.94,1.08-1.29,1.68-.2.35-.22.74-.52,1.06s-.74.49-1,.84-.39.61-.86.86a10.44,10.44,0,0,1-1.21.47,5.16,5.16,0,0,1-2.31.51,15.25,15.25,0,0,1-2.4-.49,6.23,6.23,0,0,1-1-.48c-.41-.2-.87-.25-1.28-.45a6.44,6.44,0,0,1-2.38-2.78c-1.21-2-1.11-4.71-1-7a11.88,11.88,0,0,1,1.29-5.1A28.23,28.23,0,0,1,666,567a10.22,10.22,0,0,1,1.65-2.16,8.71,8.71,0,0,1,2.57-1.57,19.64,19.64,0,0,1,3-1.13,6.39,6.39,0,0,1,3.13.22A8.24,8.24,0,0,0,678,563a6,6,0,0,1,1.7.38,6.89,6.89,0,0,1,4,4.33,22.44,22.44,0,0,1,.93,4.42c0,1,0,1.94.06,2.9a6.21,6.21,0,0,1-.7,3,4.42,4.42,0,0,1-1,1.52c-.42.39-.77,1-1.29,1.18-1.56.67-3.14.19-4.69.56a5.58,5.58,0,0,1-.91.26c-.5,0-1,0-1.51,0a11.13,11.13,0,0,1-2.45-.08,7,7,0,0,1-2.58-1,3.76,3.76,0,0,1-1.73-2.58,10.3,10.3,0,0,1-.6-3.82,13.44,13.44,0,0,1,1.44-4.92,10.38,10.38,0,0,1,3.16-4.15,11.24,11.24,0,0,1,2.29-1.49,11.58,11.58,0,0,1,2.42-.43c1.74-.23,3.39.8,4.86,1.54.29.14,1.06.37,1.24.65s0,.72.06,1"/><path d="M654.1,564.2c1.36-.65,2.62-.16,3.87.43a6.36,6.36,0,0,0,1.34.54,1.93,1.93,0,0,1,1.51,1.34c.77,1.75.23,4-.11,5.74a6.43,6.43,0,0,1-.65,2.2c-.36.61-.94,1.07-1.28,1.68-.21.35-.23.74-.53,1.06s-.74.49-1,.84-.38.61-.86.86a10.44,10.44,0,0,1-1.21.47,5.14,5.14,0,0,1-2.3.51,14.13,14.13,0,0,1-2.41-.5,5.45,5.45,0,0,1-1-.47c-.41-.21-.87-.25-1.28-.45a6.5,6.5,0,0,1-2.38-2.78c-1.21-2-1.11-4.71-1-7a12,12,0,0,1,1.29-5.1,29.06,29.06,0,0,1,1.61-2.47,10.22,10.22,0,0,1,1.65-2.16,8.71,8.71,0,0,1,2.57-1.57,18.42,18.42,0,0,1,3-1.13,6.4,6.4,0,0,1,3.13.22,8.43,8.43,0,0,0,1.55.64,6,6,0,0,1,1.7.38,6.89,6.89,0,0,1,4,4.33,22.29,22.29,0,0,1,.93,4.42c0,1,0,1.94.06,2.9a6.1,6.1,0,0,1-.7,3,4.42,4.42,0,0,1-1,1.52c-.42.38-.77,1-1.29,1.18-1.56.67-3.14.19-4.69.56a5.31,5.31,0,0,1-.91.26c-.49,0-1,0-1.51,0a10.55,10.55,0,0,1-2.45-.07,7,7,0,0,1-2.58-1,3.75,3.75,0,0,1-1.72-2.58,10.11,10.11,0,0,1-.61-3.82,13.54,13.54,0,0,1,1.44-4.93,10.51,10.51,0,0,1,3.16-4.14,11.73,11.73,0,0,1,2.29-1.5,12.23,12.23,0,0,1,2.43-.42c1.73-.23,3.38.8,4.85,1.53.29.15,1.06.38,1.25.66s0,.72,0,1"/><path d="M127.67,638.73a68.37,68.37,0,0,0,25.22,22.81,81.79,81.79,0,0,0,30,8.72,88.41,88.41,0,0,0,16.43.06c1.91-.17,1.93-3.17,0-3-19.82,1.76-40.89-3.08-56.41-16a65,65,0,0,1-12.69-14.16c-1.06-1.6-3.66-.1-2.59,1.52Z"/><path d="M186.2,662.73c4.44,2.16,8.64,4.75,12.89,7.23l-.3-2.35c-1.75,1.78-3.41,3.63-5.13,5.43s-3.26,3.28-4.85,5c-1.33,1.41.79,3.53,2.12,2.12,1.59-1.68,3.25-3.28,4.85-5s3.38-3.66,5.13-5.44a1.52,1.52,0,0,0-.3-2.36c-4.26-2.48-8.46-5.07-12.89-7.23-1.73-.85-3.25,1.74-1.52,2.59Z"/></svg>