<svg id="Layer_1" data-name="Layer 1" xmlns="http://www.w3.org/2000/svg" viewBox="0 0 780 1051.14"><defs><style>.cls-1,.cls-2,.cls-7,.cls-9{fill:#d4a47c;}.cls-1,.cls-2,.cls-3,.cls-5,.cls-6,.cls-7,.cls-8,.cls-9{stroke:#fff;stroke-miterlimit:10;}.cls-1{stroke-width:0.28px;}.cls-2,.cls-3,.cls-6,.cls-8{stroke-width:0.42px;}.cls-10,.cls-3{fill:#b58362;}.cls-4{fill:#221913;}.cls-5{fill:#fff171;stroke-width:0.3px;}.cls-6{fill:#005058;}.cls-7{stroke-width:0.43px;}.cls-8{fill:#c6946f;}.cls-9{stroke-width:0.33px;}.cls-11,.cls-12{fill:#fff;}.cls-11{opacity:0.7;}</style></defs><path class="cls-1" d="M649.52,652.08q.15-1.44.21-2.88c0-.63,0-1.26,0-1.89a33.92,33.92,0,0,1-1.07-4.42,15.16,15.16,0,0,0-.65-2.8c-.32-1-.33-2-.65-3.07-.16-.5-.49-.84-.67-1.36s0-.92-.24-1.4a19.82,19.82,0,0,0-2.3-2.38,27.68,27.68,0,0,1-2.47-3,1.94,1.94,0,0,0-.24-.34c.05,0,.11-.19.13-.55a13.05,13.05,0,0,1,.69-2.87c.68-2.44,1.16-2.52,1.66-5.37a28.78,28.78,0,0,0,.47-5.4,3.57,3.57,0,0,0-4.3-3.48,1.94,1.94,0,0,1-1.31-.17,4.94,4.94,0,0,1-2.79-2.34,19.54,19.54,0,0,0-1-3,18.87,18.87,0,0,0-3.65-4.53c-1.19-1.07-2.19-1.19-2.45-2.76-.18-1.12-.31-2.27-.44-3.4-.26-2.13-1.11-4-3.42-4.44a15.77,15.77,0,0,0-10.32,2.37c-5.69,1.55-9,7.7-15,11l-2.34,1.3c-2.16-3.74-7.35-5.33-11.36-7.38-11.84-6-22.11-12.75-30.33-23a.3.3,0,0,0-.53.27c1.07,3.53.29,7.6,1.24,11.15,1.49,5.6-10.18-2.18-6.28,2,3.44,3.72,22.13,20.43,25.82,23.82-2.63.7-4.45,1.29-4.44,1.61.4,10.11,5.06,12.77,7.15,22.75.42,2-1.63,5.93-.75,7.84s9.47,10,10.26,11.8,14.61-1.13,16.1.31a53.19,53.19,0,0,0,4.55,3.95c4.19,3.21,9.69,4.33,14.68,5.26s10.51,2.26,15.41.32c2.45-1,3.31-2.94,4.42-5.26l1.37,1,.4.24a8.46,8.46,0,0,1,.77-1,29.09,29.09,0,0,0,3.16-3.77c.1-.16.17-.32.26-.47C649.29,654.92,649.37,653.49,649.52,652.08Z"/><path d="M636,640.09c-.37,0-.75-.05-1.12-.08s-.67-.08-.81-.29-.06-.08,0-.14.24,0,.32-.05a2.13,2.13,0,0,0,.33-.11c.43-.16.83-.38,1.26-.56.25-.1.48-.23.73-.31,1.57-.5,3.37-.5,4.87-1.17a7.54,7.54,0,0,0,3.14-3.38c.39.37,1.68,1.56,1.45,2.11-.33.78-2.39,1.66-3,2.28a6.83,6.83,0,0,1-4.34,1.87C637.9,640.29,637,640.1,636,640.09Z"/><path class="cls-2" d="M586.12,617.77c-12.2-8.31-27-20.85-31.45-22.76-2.85-1.22-7,.12-9.91.53a16.86,16.86,0,0,0-2.64.51,18.43,18.43,0,0,0-3.84,1.87A200.6,200.6,0,0,1,514,609.5c-4.83,2-14,5.31-14.91,11.42a8.16,8.16,0,0,0,0,1.74c-3.92-1.47-7.88-2.82-11.9-3.93-5-1.36-10.29-.44-15.44-1.5-4.76-1-9.78-.61-14.64-1.51a26.19,26.19,0,0,0-7.65-.42c-1.64.23-3.59.38-5.19.72-.73.15-1.35.66-2,.8-4.5.9-31-6.71-37.89-5.94.34.88-14.2,11.75-9,14a19.45,19.45,0,0,0,2.71.76c14.17,3.79,28.57,6.79,42.84,10.13,7.34,1.72,14.81,3.24,22.09,5.11,12.6,3.25,24.36,8.08,37.45,9.72,3.64.45,7.28.78,10.93,1,12.75,4.51,22.24-.05,33.94,4.69,8.45,3.42,19.76-3.27,29.4-2.92.83-1.21,1.69-2.39,2.64-3.52a93.71,93.71,0,0,0,5.69-7.66,119.4,119.4,0,0,0,5.19-12.43c0-.08,0-.16,0-.24C587.65,625.59,586.84,621.7,586.12,617.77Z"/><path class="cls-2" d="M403.28,611.12a3.63,3.63,0,0,1,1-.24C404.27,610.76,404,610.82,403.28,611.12Z"/><path class="cls-3" d="M120.51,454.1a22.49,22.49,0,0,1,20.11,3.52c12,8.8,21.1,19.45,30.83,30.34l6.79,7.59c1.61,1.81,3.11,4.57,5.21,5.9,5.73,3.64,13.25,9.8,19,13.49,5.38,3.48,22.06,12.31,27.84,15.1,2.62,1.26,5.28,2.61,8,3.66.75.3,4.32,1.17,8.75,2.23,11.42,2.72,22.25-4.3,23.44-15.22l.72-6.53c.76-6.95-3.27-13.9-10-17.15-4.3-2.06-8.61-4.08-12.92-6.12-6.95-3.3-25.11-12.25-32.16-15.33-2.53-1.11-5.05-2.24-7.52-3.48-1.79-.89-3.4-2-5.15-3-10.68-5.76-20.85-12.36-31-19-9.65-6.35-19-12.45-27.32-20.4A152,152,0,0,0,126.93,415c-6.18-4.31-12.94-6.71-19.49-10.37-2.54-1.42-4.93-3.1-7.47-4.51-4.36-2.42-11.34-6.25-16.3-6.78a46.37,46.37,0,0,0-4.63-.64,34.8,34.8,0,0,0-4.69.64c-1.48.19-3.14.36-4,1.72a6.93,6.93,0,0,0-.69,3.36c0,1.6,1,2.39,2.24,3.54,2.39,2.14,4.88,4.15,7.42,6.11a21.62,21.62,0,0,1,1.72,1.58c4.65,4.58,9.64,8.7,14,13.67A17.31,17.31,0,0,1,100,433.45c1.07,5.09,1.53,10.56,3.23,15.54a12.16,12.16,0,0,0,2.7,4.72c1.33,1.44,3.28,1.54,5.09,1.57A32,32,0,0,0,120.51,454.1Z"/><path class="cls-4" d="M646.41,654.16c-7.83,3.52-13.46,1.1-22,.65-13.87-.72-27.09-.1-40.11-4.12a15.57,15.57,0,0,0-4.22-.89c-4.07-.09-7.83,3.23-8.94,7s0,7.85,2.18,11.07c4.1,6.17,12,11.09,19.13,13.54,1.8.62,3.58,1.42,5.41,1.94a22.65,22.65,0,0,0,5.94.46c3.66.07,7.29.25,10.94-.58a44.05,44.05,0,0,0,8.78-3c2.72-1.23,5.57-1.72,8.26-3s5.55-2.34,8-4.32c1.82-1.5,3.68-2.82,5.44-4.47a22.36,22.36,0,0,0,2.78-3.9c1.23-1.73,1.35-3,1.52-5.05.2-2.44,1.13-8-3-5.36"/><path class="cls-4" d="M558.67,633.38c-2.11.94-5.32,1.62-7,3.15-1.87,1.68-2.76,11.32-3.15,14-.64,4.3,2,9.14,6,11.56,4.42,2.62,12.29,3.28,16.92,1.87,2.64-.8,11-4.43,8-8.74-3.53-1-5.14,4.79-5.64,7.59-.47,2.58,1.89,7.7,4.11,9.2,3.1,2.09,5.83.64,8.59-.62,2.49-1.13,5.53-1.9,7.41-4,1.69-1.86,4-5.41,4.32-8.09.18-1.73-1.73-8.82-3.32-10.22-1.37-1.2-1.79-.41-3.12.11a5.9,5.9,0,0,1-3.67.6c-1.06-.1-2.47.12-3.23-.63a6.51,6.51,0,0,0-.42-3.25,3.76,3.76,0,0,0-2.18-2.31"/><path class="cls-5" d="M559.75,595.22a8.28,8.28,0,0,1-.18,1.23c-.17.55-.13.44-1.26.95a7,7,0,0,1-2.33.5c5.29,3.28,10.53,6.61,15.82,9.88s10.31,6.69,15.87,9.26c3.52,1.63,5.12,2.32,8.7,3.82-.06-.05.35-.51.3-.56a30.19,30.19,0,0,1-5.63-4.15,60.78,60.78,0,0,0-6.33-4.43C582.61,610.31,559.84,595.07,559.75,595.22Z"/><path class="cls-5" d="M498.65,622.72a6.3,6.3,0,0,1-1.1.78c-.64.35-3.23.11-3.95,0,.62,5.1,3.46,15.37,5.93,19.92a45.46,45.46,0,0,0,4.92,7.62l3.31.36,1.73.08h.12l.09,0,1.47,0c-1.65-1-2.84-4.5-4-6-1.52-2-2.34-7.13-3.5-9.31A36.21,36.21,0,0,1,499.45,622,10.69,10.69,0,0,1,498.65,622.72Z"/><path class="cls-6" d="M564.51,582.73c-1.94-3.51-14.81-16.68-18-18.79-12.23-8-26.88-13.15-41.28-8.16a20.86,20.86,0,0,1-6.14,1.64c-3.15.09-6.52-1.89-9.48-2.81q-5.94-1.86-12-3.17c-11.07-2.4-22.35-2.51-33.44-4.58q-21.33-4-42.84-6.91c-13.68-1.85-28.85-3.47-41.8,2.35L358,544.46c1.25.47,2.7.43,4,.82,1.52.45,3.09.22,4.63.65a140.91,140.91,0,0,1,22.31,8c7.14,3.35,15.12,7.16,19.68,13.79a17.13,17.13,0,0,1,1.42,2.88c1.57,3.59,3.83,6.3,4.72,10.3,2.5,11.34-2.75,23-11.47,30.19A65.48,65.48,0,0,1,390.76,619c-2.67,1.33-27.5.22-30.44,1.48,1.59.22,5.12,4.73,6.72,4.93,5.61,3.91,22.92,1.49,26.51,1.23,30.78-2.22,60.25-12.08,91.47-5.59,3.15.65,9.15,3.56,12.24,2.43,3.4-1.24,3.88-6.13,6.94-7.86,3.92-2.23,7.91-4.33,12-6.25a142.85,142.85,0,0,1,25.33-9.28q5-1.29,10.17-2.16c2.22-.38,6,.24,7.66-1.28C560.05,587.79,563.1,585.11,564.51,582.73Z"/><path class="cls-7" d="M526.5,652.09c1.88,2.34,24.08,5.7,27.08,5.64,1.56,0,8.15-.31,15.83-1q1.47-.48,2.91-1c7.23-2.58,14.75-6.09,19.92-11.95,4.67-5.29,7.8-11.79,11.52-17.75,4.86-21.37,9.94-43.07,11.78-64.45.83-9.55-2.62-35.56-3.87-45.06h0c-4.58-21.58-26.57-39.9-36-46.71l-3-3.48-.81-1a1.52,1.52,0,0,1-.28-.43,4.1,4.1,0,0,0-.58-.67l-.41-.38a1.27,1.27,0,0,0-.36-.2,3.84,3.84,0,0,0-.41-.13c-.23,0-.39.16-.54.3-.39.35-.22.72-.07,1.11a3.76,3.76,0,0,1-.62-1,9.88,9.88,0,0,0-1.54-1.94,4.38,4.38,0,0,0-1.7-1.32,1.13,1.13,0,0,0-1,.15,1,1,0,0,0-.44.84,1.36,1.36,0,0,0,.16,1.13c.28.31.54.38.94.84a.76.76,0,0,0-.39.09c-.25.15-.3.54-.38.8a1,1,0,0,1-.26.45,1,1,0,0,0-.18.75,7.88,7.88,0,0,0,1.05,2.35c.41.78.67,1.65,1.12,2.41.16.28.33.56.48.84s.25.36.36.55c.29.53.65,1,1,1.49a15.83,15.83,0,0,0,1,1.53c.23.28.43.56.64.84-.2,1-.67,1.05-.61,2.06,0,.26.67,1.52.74,1.78a4,4,0,0,0,.27.59,44.72,44.72,0,0,0,5.26,7.2,102.27,102.27,0,0,1,6,8.85,52.76,52.76,0,0,0,7,8.34A13.16,13.16,0,0,0,591.7,507c3.09,1.58-1.58,13.78-.08,16.77h0c-.5,3.75-1.22,9.51-2.26,15.64-4.17,24.57-11,47.8-22.56,70"/><path class="cls-8" d="M419.32,567.52C411,545.81,397.71,546.33,381.93,538c-20.73-11-33.62-11.13-55.23-21.34-18.92-8.95-39.66-15.49-60.7-16.59a18.2,18.2,0,0,0-7.26-5.6c-4.38-1.87-8.78-3.7-13.17-5.55-7.09-3-25.63-11.13-32.81-13.9-2.57-1-5.14-2-7.67-3.13-1.82-.82-3.48-1.89-5.27-2.76-10.92-5.28-21.37-11.42-31.76-17.63-9.92-5.92-19.5-11.6-28.19-19.18a153,153,0,0,0-18.79-13.87c-6.37-4-13.23-6.13-19.93-9.5-2.61-1.31-5.06-2.88-7.67-4.18-4.46-2.23-11.6-5.74-16.58-6-1.53-.1-3.14-.49-4.66-.44a34.59,34.59,0,0,0-4.65.85c-1.47.26-3.12.5-3.88,1.9a7.07,7.07,0,0,0-.54,3.38c0,1.6,1.07,2.34,2.4,3.44,2.47,2,5.05,3.92,7.68,5.77A21.49,21.49,0,0,1,75,415.13c4.85,4.37,10,8.26,14.56,13a22.54,22.54,0,0,1,3.19,3.95,22.48,22.48,0,0,1,2.16,5.95c1.3,5,2,10.49,3.92,15.38a12.22,12.22,0,0,0,2.9,4.6c1.39,1.37,3.35,1.4,5.16,1.34a31.66,31.66,0,0,0,9.47-1.6,22.53,22.53,0,0,1,20.25,2.63c12.35,8.26,21.93,18.51,32.13,28.95A148.85,148.85,0,0,0,200.89,515c5.53,3.24,22.58,11.32,28.48,13.86,2.67,1.14,5.39,2.37,8.13,3.31.5.16,2.2.53,4.56,1l.2.17c17.55,13.39,33.08,29.34,50.13,43.38q17.55,14.45,35.89,28c10.49,7.72,21.05,17.22,34,20.74,12.37,3.36,25.66,2.48,36.51-2.42,6.85-3.1,12.81-7.86,16.17-14.12C419.61,600.15,423,577.23,419.32,567.52Z"/><path class="cls-9" d="M577.29,478.21a8,8,0,0,1-.62.54.53.53,0,0,1-.3.09,1.92,1.92,0,0,1-.37-.15"/><path class="cls-9" d="M576.08,478l.39-.34c.11-.09.22-.13.33-.22"/><path class="cls-9" d="M575.67,477.74l.38-.34.2-.16c.08-.07.15-.09.23-.15"/><path class="cls-9" d="M574.85,477.48a1.09,1.09,0,0,0,.24-.24c.08-.13.13-.29.21-.43a2,2,0,0,1,.23-.28,2.23,2.23,0,0,1,.27-.26"/><path class="cls-9" d="M576.9,475.29c.13-.12.2-.28.33-.4l.15-.13c.07-.06.2-.09.24-.15"/><path class="cls-9" d="M578.25,475.21c-.11.1-.24.15-.36.25l-.32.28"/><path class="cls-9" d="M578.44,475.56l-.43.37"/><path class="cls-9" d="M579.06,476.56l-.54.46a1.47,1.47,0,0,1-.56.31"/><path class="cls-9" d="M569.21,465c.71.82,3.7,4.25,4.41,5.08.35.42.71.83,1.07,1.25l.53.63c.2.23.43.4.64.62.53.58,1.13,1.11,1.65,1.71l.63.74c.38.44.67.93,1,1.39a10.9,10.9,0,0,0,.77,1l.75.88,3.07,3.59a14.87,14.87,0,0,0,1.53,1.43,13,13,0,0,1,1.56,1.3"/><path class="cls-9" d="M568,466.91a1.87,1.87,0,0,1-1.2.4,1.82,1.82,0,0,1-1.21-.51,4.17,4.17,0,0,1-1.17-2,1.58,1.58,0,0,1,.22-1,.24.24,0,0,1,.38,0,173.27,173.27,0,0,1,11.88,13.79c.64.74,1.09,1.65,1.69,2.42a1.9,1.9,0,0,1,.21.4c.13.15,2.53,3.07,2.65,3.23"/><path class="cls-9" d="M569.49,476.16a.51.51,0,0,1,.32-.1.68.68,0,0,1,.42.05,2.9,2.9,0,0,1,1.09,1c.63.73,1.24,1.46,1.87,2.18.18.2.3.43.46.64l.39.44.66.77c.58.68,1.14,1.37,1.74,2s1.09,1,1.6,1.49c.19.2.35.44.54.65a6.53,6.53,0,0,0,.77.62c.25.19.52.38.75.59s.34.45.55.64.29.18.41.29.12.16.19.24.25.21.37.33.09.17.2.17a.51.51,0,0,0-.16-.2,0,0,0,0,0,0-.06"/><path class="cls-9" d="M576.53,483.28c0,.15-.68,1.32-.81,1.17"/><path class="cls-9" d="M576.07,483.29a7.45,7.45,0,0,0-.52.6"/><path class="cls-9" d="M575.65,482.62c-.17,0-.37.39-.45.5l-.25.38a.51.51,0,0,0-.15.24"/><path class="cls-9" d="M568.26,463.54c-.12.08-.47.4-.61.39l-.47,0a1.73,1.73,0,0,1-.89-.26,8,8,0,0,1-.95-1,2.06,2.06,0,0,1-.26-.25l-.11-.19a6.13,6.13,0,0,1-.5-1c-.06-.26.1-.3.19-.56s.45-.45,1.36.27Z"/><path class="cls-9" d="M572.13,465.6c-.12.08-.47.41-.59.42s-.27.07-.41.08a1.14,1.14,0,0,1-.73-.1c-.28-.16-.44-.48-.68-.69a1.14,1.14,0,0,1-.19-.19l-.06-.14a2.8,2.8,0,0,1-.3-.77c0-.21.14-.28.24-.51s.46-.44,1.14,0Z"/><path class="cls-9" d="M572.18,478.15a3.15,3.15,0,0,1-.58.42l-.41.08a1.21,1.21,0,0,1-.73-.1c-.28-.16-.44-.48-.68-.69a1.14,1.14,0,0,1-.19-.19.61.61,0,0,1-.07-.14,3.28,3.28,0,0,1-.29-.77c0-.22.13-.28.24-.51s.46-.45,1.14,0Z"/><path class="cls-10" d="M587.63,588l-.12,1c0,.31-.25.64.28,1a14.68,14.68,0,0,0,5.49,1.43,17.47,17.47,0,0,0,2.28,0c.75,0,1.45,0,2.17,0s1.46-.1,2.14-.2c.37,0,1-.09,1.09-.24s.07-.65.11-.93-.21-.56-.54-.86a4.74,4.74,0,0,0-1.51.18c-.57.07-1.12.21-1.72.23s-1.13,0-1.63,0c-.28,0-.59-.1-.87-.12s-.45,0-.7,0a12.46,12.46,0,0,1-1.51-.2c-.22-.06-.39-.14-.58-.21s-.47-.14-.75-.22c-.59-.17-1.06-.36-1.57-.56a9.79,9.79,0,0,0-1.61-.53"/><path d="M127.67,638.73a68.37,68.37,0,0,0,25.22,22.81,81.79,81.79,0,0,0,30,8.72,88.41,88.41,0,0,0,16.43.06c1.91-.17,1.93-3.17,0-3-19.82,1.76-40.89-3.08-56.41-16a65,65,0,0,1-12.69-14.16c-1.06-1.6-3.66-.1-2.59,1.52Z"/><path d="M186.2,662.73c4.44,2.16,8.64,4.75,12.89,7.23l-.3-2.35c-1.75,1.78-3.41,3.63-5.13,5.43s-3.26,3.28-4.85,5c-1.33,1.41.79,3.53,2.12,2.12,1.59-1.68,3.25-3.28,4.85-5s3.38-3.66,5.13-5.44a1.52,1.52,0,0,0-.3-2.36c-4.26-2.48-8.46-5.07-12.89-7.23-1.73-.85-3.25,1.74-1.52,2.59Z"/><path d="M53.77,543.75c3.47,0,5.47,1.31,5.47,4.27a4,4,0,0,1-2.34,3.87A4,4,0,0,1,59.71,556c0,3-1.9,5-5.87,5H47V543.75Zm-3.7,7h3.52c1.58,0,2.57-.76,2.57-2.31s-.87-2.07-2.44-2.07H50.07Zm0,7.67h3.79c1.68,0,2.72-.79,2.77-2.46s-1.19-2.54-3-2.54H50.07Z"/><path d="M67.87,548c3.24,0,6,2.19,6,6.61,0,3.62-2.15,6.58-6.17,6.58-4.36,0-6.16-3-6.16-6.58C61.59,550.16,64.37,548,67.87,548Zm-3.08,6.61c0,2,.69,4,3,4,2.1,0,3-2,3-4,0-2.86-1.4-4-3-4S64.79,551.67,64.79,554.58Z"/><path d="M88.71,542.17V561H86.15l-.35-2.22a4.51,4.51,0,0,1-4.11,2.37c-3.48.05-5.55-2.84-5.55-6.63,0-4.64,3-6.56,5.52-6.56a4.09,4.09,0,0,1,4,2.44v-7.84ZM79.29,554.5c0,2.2.87,3.92,3.16,3.92s3.26-1.72,3.26-3.89c0-2.94-1.58-4-3.28-4S79.29,551.67,79.29,554.5Z"/><path d="M94,548.09l3.18,9.12h.2l2.91-9.12h3.16L98.7,561.21c-1.57,4.31-3,5.4-7.62,4.44l.55-2.59c2.91.71,3.3.05,4.21-2.49L91,548.09Z"/><path d="M111.19,557.31a6.68,6.68,0,0,0,4.19,1.43c1.48,0,2.34-.44,2.34-1.5,0-2.52-7.47-.84-7.22-5.57.09-2.32,1.8-3.7,5.22-3.7a10.49,10.49,0,0,1,4.66,1.21l-1.08,2.17a7.32,7.32,0,0,0-3.7-1.07c-1.21,0-2.22.4-2.17,1.41.15,2,7.32.47,7.32,5.45,0,2.66-2.39,4-5.45,4a8.86,8.86,0,0,1-5.3-1.68Z"/><path d="M126.3,542.17v8a4.83,4.83,0,0,1,4.25-2.19c3,0,4.48,1.94,4.48,4.61V561H132v-7.44c0-2-.74-3-2.42-3-2.34,0-3.26,1.9-3.26,4V561h-3V542.54Z"/><path d="M143.91,548c3.23,0,6,2.19,6,6.61,0,3.62-2.14,6.58-6.16,6.58-4.36,0-6.16-3-6.16-6.58C137.63,550.16,140.41,548,143.91,548Zm-3.08,6.61c0,2,.69,4,3,4,2.1,0,3-2,3-4,0-2.86-1.4-4-3-4S140.83,551.67,140.83,554.58Z"/><path d="M155.56,548.09v7.45c0,2,.78,3,2.58,3,2.35,0,3.31-2.42,3.31-4.86v-5.62h3.06V561h-2.44l-.45-2.81a4.71,4.71,0,0,1-4.46,3c-3.16,0-4.66-1.95-4.66-5.2v-7.87Z"/><path d="M170.72,542.17v14.62c0,1.39.62,1.76,1.53,1.76a2.42,2.42,0,0,0,1.28-.47l.57,2.19a5.31,5.31,0,0,1-2.78.89c-2.57,0-3.65-1.73-3.65-4.07V542.54Z"/><path d="M187.17,542.17V561h-2.56l-.35-2.22a4.51,4.51,0,0,1-4.11,2.37c-3.48.05-5.55-2.84-5.55-6.63,0-4.64,3-6.56,5.52-6.56a4.09,4.09,0,0,1,4,2.44v-7.84Zm-9.42,12.33c0,2.2.87,3.92,3.16,3.92s3.25-1.72,3.25-3.89c0-2.94-1.57-4-3.28-4S177.75,551.67,177.75,554.5Z"/><path d="M49.87,576.09v8.21a4.42,4.42,0,0,1,4.32-2.42c2.44.07,5.05,1.73,5.05,6.49,0,3.89-2,6.7-5.45,6.7a4.28,4.28,0,0,1-4.07-2.36l-.42,2.21H46.81V576.48Zm-.12,12.35c0,2.22.81,4,3.25,4,2,0,3.11-1.5,3.11-4,0-3-1.5-3.94-3.13-3.94S49.75,585.85,49.75,588.44Z"/><path d="M73.28,591.37a5.77,5.77,0,0,1-5.58,3.7c-4.34,0-6.26-2.71-6.26-6.75s2.71-6.54,6.43-6.44c3,.07,5.75,2.34,5.45,6.46l0,.4H64.55c0,2.19.93,3.69,3.18,3.69a2.86,2.86,0,0,0,2.78-2Zm-3.14-4.21c0-2-1-2.94-2.54-2.89a2.89,2.89,0,0,0-2.91,2.89Z"/><path d="M87.26,591.3c-.84,2.64-3,3.77-5.62,3.77-4.24,0-6.07-3.15-6.07-6.61,0-4.21,2.62-6.51,6.14-6.58,3.11-.07,5,1.53,5.5,3.8l-2.84.91a2.54,2.54,0,0,0-2.61-2.12c-1.78,0-3.13,1.31-3.13,3.94,0,2.1.79,4,3.08,4a2.59,2.59,0,0,0,2.71-2Z"/><path d="M95.55,581.88c3.23,0,6,2.19,6,6.61,0,3.62-2.15,6.58-6.17,6.58-4.36,0-6.16-3-6.16-6.58C89.26,584.07,92.05,581.88,95.55,581.88Zm-3.08,6.61c0,2,.69,4,3,4,2.1,0,3-1.94,3-4,0-2.86-1.41-4-3-4C93.85,584.47,92.47,585.58,92.47,588.49Z"/><path d="M106.75,582l.44,2.3a4.3,4.3,0,0,1,4-2.44,3.76,3.76,0,0,1,3.85,2.39,4.54,4.54,0,0,1,4.17-2.39c3,0,4.21,2,4.21,4.63v8.43h-3v-7.44c0-2-.47-3-2.15-3-2.22,0-2.81,1.67-2.81,3.57v6.9h-3.06v-7.44c0-2-.47-3-2.14-3-2.37,0-2.84,1.89-2.84,4v6.51H104.3V582Z"/><path d="M137.87,591.37a5.75,5.75,0,0,1-5.57,3.7c-4.34,0-6.27-2.71-6.27-6.75s2.72-6.54,6.44-6.44c3,.07,5.74,2.34,5.45,6.46l0,.4h-8.73c0,2.19.94,3.69,3.18,3.69a2.88,2.88,0,0,0,2.79-2Zm-3.13-4.21c0-2-1-2.94-2.54-2.89a2.88,2.88,0,0,0-2.91,2.89Z"/><path d="M147.81,582l3.11,9.37h.2L154.2,582h3.13l-4.81,12.92h-3.08L144.75,582Z"/><path d="M170.15,591.37a5.75,5.75,0,0,1-5.57,3.7c-4.34,0-6.26-2.71-6.26-6.75s2.71-6.54,6.44-6.44c3,.07,5.74,2.34,5.44,6.46l0,.4h-8.72c0,2.19.93,3.69,3.18,3.69a2.86,2.86,0,0,0,2.78-2ZM167,587.16c0-2-1-2.94-2.54-2.89a2.89,2.89,0,0,0-2.91,2.89Z"/><path d="M175.31,582l.57,2.67c.59-2,2.1-2.84,4.19-2.79a4.78,4.78,0,0,1,1.33.22l-.47,2.69a5.48,5.48,0,0,0-1.85-.25c-2.26.08-3.13,1.83-3.13,3.9v6.48h-3V582Z"/><path d="M187.89,578.35v3.78h3.26l-.42,2.46h-2.84v5.92c0,1.41.64,2,1.68,2a5.5,5.5,0,0,0,2-.57l.56,2.35a8.15,8.15,0,0,1-3.28.83c-3,0-4-2-4-4.14v-6.34H183v-2.46H185l.37-3.43Z"/><path d="M198.05,582v12.92H195V584.54h-1.8V582Zm-1.55-5a1.66,1.66,0,0,1,1.82,1.56,1.82,1.82,0,0,1-3.62,0A1.59,1.59,0,0,1,196.5,577Z"/><path d="M212.45,591.3c-.84,2.64-3,3.77-5.62,3.77-4.24,0-6.06-3.15-6.06-6.61,0-4.21,2.61-6.51,6.14-6.58,3.1-.07,5,1.53,5.49,3.8l-2.83.91a2.55,2.55,0,0,0-2.62-2.12c-1.77,0-3.13,1.31-3.13,3.94,0,2.1.79,4,3.09,4a2.59,2.59,0,0,0,2.71-2Z"/><path d="M215.12,582.82a15.36,15.36,0,0,1,4.88-.94c3.9,0,5.33,1.92,5.33,4.93V592a.65.65,0,0,0,.61.74,2.48,2.48,0,0,0,1-.15v2a5.09,5.09,0,0,1-2.05.39,2.33,2.33,0,0,1-2.34-1.75,5.67,5.67,0,0,1-3.9,1.75c-2.51,0-4.39-1.28-4.41-4s2-4.09,5.25-4.09a20,20,0,0,1,2.79.25v-.77c0-1.4-.89-2.17-2.67-2.14a10.39,10.39,0,0,0-4,.79Zm7.15,6a13,13,0,0,0-2.51-.15c-1.48.07-2.42.77-2.45,2.07a1.81,1.81,0,0,0,2.1,1.9,5.07,5.07,0,0,0,2.86-1Z"/><path d="M232.14,576.09v14.62c0,1.38.61,1.75,1.53,1.75A2.37,2.37,0,0,0,235,592l.57,2.2a5.37,5.37,0,0,1-2.79.88c-2.57,0-3.65-1.72-3.65-4.07V576.46Z"/><path class="cls-11" d="M148.79,61.4a36.73,36.73,0,0,1,8.33-23.32,34.4,34.4,0,0,0-45.48-4.38A34.43,34.43,0,0,0,131.9,96a34.33,34.33,0,0,0,25.32-11.11A36.76,36.76,0,0,1,148.79,61.4ZM138,75.49s-3.7-.27-11.47-.27a25.63,25.63,0,0,0-4.93.31l-1.35-2.46c7.78-7.9,12.4-13.63,13-18.71.47-3.66-2-4.82-4.35-4.66a9.73,9.73,0,0,0-6.73,3.92c-.2-.23-1.93-2.07-1.47-2.65A12.43,12.43,0,0,1,130,46.12c5.89,0,9.09,3,8.74,8.51-.46,7-8,13.59-12.63,17.55l8.32-.08c1.77-.15,3-2.54,3.81-4.73,0,0,1.73.5,2,1C139.58,71.53,138.81,75.49,138,75.49Z"/><path class="cls-11" d="M95.79,61.4A36.74,36.74,0,0,1,104.16,38a34.44,34.44,0,1,0,.11,46.9A36.78,36.78,0,0,1,95.79,61.4ZM87.2,75.66H70.92L71,73.39l4.46-.58c.58,0,.81-.23.81-1,.08-10.05,0-19.6,0-19.6l-5.62,1.08c-.19-.31-1.12-2.46-.46-2.73l10.35-4,1,1s-.12,20.87,0,24.37c0,.77.19,1,.73,1l5.08.54Z"/><path class="cls-11" d="M201.79,61.4A36.74,36.74,0,0,1,210.16,38a34.43,34.43,0,0,0-47.76-2.48A34.8,34.8,0,0,0,172,93.43a34.41,34.41,0,0,0,38.24-8.51A36.78,36.78,0,0,1,201.79,61.4ZM181.35,75.49a15.64,15.64,0,0,1-7.86-2.19l1-2.89a21.48,21.48,0,0,0,7,1.66c3.35,0,5.51-1.74,5.55-5.24,0-2.46-1.43-4.35-4.47-4.74a17.82,17.82,0,0,0-5,.24c-.5.11-.89-3-.42-3.08,3-.54,7.62-1.08,8.39-4.89.73-3.62-2-4.82-4.35-4.66A8.43,8.43,0,0,0,175,52.82c-.2-.23-1.7-2.12-1-3a10.43,10.43,0,0,1,8.16-3.69c5.89,0,9.12,3,8.74,8.51a6,6,0,0,1-4,4.5c3.47.62,5.47,2.93,5.66,6.7C192.9,71.83,188,75.49,181.35,75.49Z"/><circle cx="236" cy="61.53" r="34.44"/><path class="cls-12" d="M237.43,67,227.3,67c-.11,0-1.42.19-1.42.19S225,65,225.3,64.79c.89-.46,12.94-16.86,14-18.63l3.2.54c-.08,3.92,0,11.35,0,17.4l4.69-.08c.35,0,.08,3-.53,3h-4.12c0,2.27,0,3.47.07,4.39,0,.77.2,1,.74,1l2.34.54-.07,2.23h-11.4l.08-2.27,2.23-.58c.58-.15.81-.23.81-1C237.39,69.72,237.39,68.68,237.43,67Zm-7.12-3h7.12c0-7,0-10.05,0-10.05S230.31,64.06,230.31,64.06Z"/><path d="M296.49,50.34l-.27,3.12h-5.55V71.34h-3.75V53.46h-5.76V50.34Z"/><path d="M302.64,48.42v9.72a5.86,5.86,0,0,1,5.16-2.67c3.69,0,5.46,2.37,5.46,5.61V71.34h-3.72V62.28c0-2.4-.9-3.69-2.94-3.69-2.85,0-4,2.31-4,4.83v7.92h-3.72V48.87Z"/><path d="M330.78,67a7,7,0,0,1-6.78,4.5c-5.28,0-7.62-3.3-7.62-8.22s3.3-7.95,7.83-7.83c3.69.09,7,2.85,6.63,7.86l-.06.48H320.16c0,2.67,1.14,4.5,3.87,4.5a3.5,3.5,0,0,0,3.39-2.49ZM327,61.89c.06-2.43-1.26-3.57-3.09-3.51a3.5,3.5,0,0,0-3.54,3.51Z"/><path d="M343.32,55.62l.57,2.79a5.8,5.8,0,0,1,5.37-2.94c3.69,0,5.46,2.37,5.46,5.61V71.34H351V62.28c0-2.4-.9-3.69-2.94-3.69-2.85,0-4,2.31-4,4.83v7.92h-3.72V55.62Z"/><path d="M372.3,67a7,7,0,0,1-6.78,4.5c-5.28,0-7.62-3.3-7.62-8.22s3.3-7.95,7.83-7.83c3.69.09,7,2.85,6.63,7.86l-.06.48H361.68c0,2.67,1.14,4.5,3.87,4.5a3.5,3.5,0,0,0,3.39-2.49Zm-3.81-5.13c.06-2.43-1.26-3.57-3.09-3.51a3.5,3.5,0,0,0-3.54,3.51Z"/><path d="M378.39,55.62l3.15,6.18,3.3-6.18h4l-4.35,7.8L389,71.34h-4.26l-3.3-6.12L378,71.34h-4.14l4.83-7.86-4.29-7.86Z"/><path d="M396.81,51.18v4.59h4l-.51,3h-3.45V66c0,1.71.78,2.37,2,2.37a6.83,6.83,0,0,0,2.37-.69l.69,2.85a9.82,9.82,0,0,1-4,1c-3.69,0-4.83-2.46-4.83-5V58.77H390.9v-3h2.37l.45-4.17Z"/><path d="M424.35,67a7,7,0,0,1-6.78,4.5c-5.28,0-7.62-3.3-7.62-8.22s3.3-7.95,7.83-7.83c3.69.09,7,2.85,6.63,7.86l-.06.48H413.73c0,2.67,1.14,4.5,3.87,4.5A3.5,3.5,0,0,0,421,65.82Zm-3.81-5.13c.06-2.43-1.26-3.57-3.09-3.51a3.5,3.5,0,0,0-3.54,3.51Z"/><path d="M431.4,48.42V66.21c0,1.68.75,2.13,1.86,2.13a2.93,2.93,0,0,0,1.56-.57l.69,2.67a6.47,6.47,0,0,1-3.39,1.08c-3.12,0-4.44-2.1-4.44-5V48.87Z"/><path d="M450.69,67a7,7,0,0,1-6.78,4.5c-5.28,0-7.62-3.3-7.62-8.22s3.3-7.95,7.83-7.83c3.69.09,7,2.85,6.63,7.86l-.06.48H440.07c0,2.67,1.14,4.5,3.87,4.5a3.5,3.5,0,0,0,3.39-2.49Zm-3.81-5.13c.06-2.43-1.26-3.57-3.09-3.51a3.5,3.5,0,0,0-3.54,3.51Z"/><path d="M457,55.62l.54,2.79a5.25,5.25,0,0,1,4.86-3,4.58,4.58,0,0,1,4.68,2.91,5.53,5.53,0,0,1,5.07-2.91c3.69,0,5.13,2.4,5.13,5.64V71.34h-3.72V62.28c0-2.4-.57-3.69-2.61-3.69-2.7,0-3.42,2-3.42,4.35v8.4H463.8V62.28c0-2.4-.57-3.69-2.61-3.69-2.88,0-3.45,2.31-3.45,4.83v7.92H454V55.62Z"/><path d="M494.85,67a7,7,0,0,1-6.78,4.5c-5.28,0-7.62-3.3-7.62-8.22s3.3-7.95,7.83-7.83c3.69.09,7,2.85,6.63,7.86l-.06.48H484.23c0,2.67,1.14,4.5,3.87,4.5a3.5,3.5,0,0,0,3.39-2.49ZM491,61.89c.06-2.43-1.26-3.57-3.09-3.51a3.5,3.5,0,0,0-3.54,3.51Z"/><path d="M501.12,55.62l.57,2.79a5.8,5.8,0,0,1,5.37-2.94c3.69,0,5.46,2.37,5.46,5.61V71.34H508.8V62.28c0-2.4-.9-3.69-2.94-3.69-2.85,0-4,2.31-4,4.83v7.92h-3.72V55.62Z"/><path d="M521.13,51.18v4.59h4l-.51,3h-3.45V66c0,1.71.78,2.37,2,2.37a6.83,6.83,0,0,0,2.37-.69l.69,2.85a9.82,9.82,0,0,1-4,1c-3.69,0-4.83-2.46-4.83-5V58.77h-2.19v-3h2.37L518,51.6Z"/><path d="M539.76,55.62V71.34H536V58.71h-2.19V55.62Zm-1.89-6.12a2,2,0,0,1,2.22,1.89,2.22,2.22,0,0,1-4.41,0A1.93,1.93,0,0,1,537.87,49.5Z"/><path d="M544,66.84a8.15,8.15,0,0,0,5.1,1.74c1.8,0,2.85-.54,2.85-1.83,0-3.06-9.09-1-8.79-6.78.12-2.82,2.19-4.5,6.36-4.5a12.78,12.78,0,0,1,5.67,1.47l-1.32,2.64a8.9,8.9,0,0,0-4.5-1.29c-1.47,0-2.7.48-2.64,1.71.18,2.49,8.91.57,8.91,6.63,0,3.24-2.91,4.92-6.63,4.89a10.76,10.76,0,0,1-6.45-2Z"/><path d="M569.79,51.18v4.59h4l-.51,3h-3.45V66c0,1.71.78,2.37,2,2.37a6.83,6.83,0,0,0,2.37-.69l.69,2.85a9.82,9.82,0,0,1-4,1c-3.69,0-4.83-2.46-4.83-5V58.77h-2.19v-3h2.37l.45-4.17Z"/><path d="M581,48.42v9.72a5.86,5.86,0,0,1,5.16-2.67c3.69,0,5.46,2.37,5.46,5.61V71.34h-3.72V62.28c0-2.4-.9-3.69-2.94-3.69-2.85,0-4,2.31-4,4.83v7.92h-3.72V48.87Z"/><path d="M609.12,67a7,7,0,0,1-6.78,4.5c-5.28,0-7.62-3.3-7.62-8.22s3.3-7.95,7.83-7.83c3.69.09,7,2.85,6.63,7.86l-.06.48H598.5c0,2.67,1.14,4.5,3.87,4.5a3.5,3.5,0,0,0,3.39-2.49Zm-3.81-5.13c.06-2.43-1.26-3.57-3.09-3.51a3.5,3.5,0,0,0-3.54,3.51Z"/><path d="M632.52,67a7,7,0,0,1-6.78,4.5c-5.28,0-7.62-3.3-7.62-8.22s3.3-7.95,7.83-7.83c3.69.09,7,2.85,6.63,7.86l-.06.48H621.9c0,2.67,1.14,4.5,3.87,4.5a3.5,3.5,0,0,0,3.39-2.49Zm-3.81-5.13c.06-2.43-1.26-3.57-3.09-3.51a3.5,3.5,0,0,0-3.54,3.51Z"/><path d="M638.79,55.62l.57,2.79a5.8,5.8,0,0,1,5.37-2.94c3.69,0,5.46,2.37,5.46,5.61V71.34h-3.72V62.28c0-2.4-.9-3.69-2.94-3.69-2.85,0-4,2.31-4,4.83v7.92h-3.72V55.62Z"/><path d="M658.8,51.18v4.59h4l-.51,3H658.8V66c0,1.71.78,2.37,2,2.37a6.83,6.83,0,0,0,2.37-.69l.69,2.85a9.82,9.82,0,0,1-4,1c-3.69,0-4.83-2.46-4.83-5V58.77h-2.19v-3h2.37l.45-4.17Z"/><path d="M669,55.62l.69,3.24c.72-2.4,2.55-3.45,5.1-3.39a6.19,6.19,0,0,1,1.62.27L675.84,59a6.48,6.48,0,0,0-2.25-.3c-2.76.09-3.81,2.22-3.81,4.74v7.89h-3.72V55.62Z"/><path d="M682.32,55.62l3.87,11.1h.24L690,55.62h3.84l-5.82,16c-1.92,5.25-3.72,6.57-9.27,5.4l.66-3.15c3.54.87,4,.06,5.13-3L678.6,55.62Z"/></svg>