<svg id="Layer_1" data-name="Layer 1" xmlns="http://www.w3.org/2000/svg" viewBox="0 0 780 1051.14"><defs><style>.cls-1{fill:#c6946f;}.cls-1,.cls-2,.cls-3,.cls-5,.cls-6{stroke:#fff;stroke-miterlimit:10;}.cls-1,.cls-2,.cls-3,.cls-5{stroke-width:0.42px;}.cls-2{fill:#b58362;}.cls-3{fill:#d4a47c;}.cls-4{fill:#221913;}.cls-5{fill:#005058;}.cls-6{fill:#fff171;stroke-width:0.3px;}.cls-7,.cls-8{fill:#fff;}.cls-7{opacity:0.7;}</style></defs><path class="cls-1" d="M549.73,669.52c.23.66-3.71.94-4.17.9-6.68-.6-15-2-20.33-5.73-6.23-4.32-24.42-10.42-30.68-14.7-11.23-7.67-16.26-10-28.19-16.51-6-3.29-12.42-7.37-16.44-12.06s-6.6-10.51-10.76-14.95a9.48,9.48,0,0,1-.87-1l26.62-23.08c4,3.71,8.29,7,12.64,10.4,6,4.62,12.78,8,19,12.45,6.43,4.58,12.59,9.5,19,14.07a126.94,126.94,0,0,0,32.36,16.36l1.26.75c24.1,4.57,28.16,4.57,50.61,7,10.62,1.15,21,4.41,31.67,4.71s21.73-1.6,30.7-7.4c3-2,5.91-4.38,9.46-4.82s7.76,2.37,7,5.87a88.77,88.77,0,0,1,36.85,2.75c.53.15,1.16,1.79.71,2.11-7.31,5-17.05,5.59-25.89,6.86-11.75,1.67-23.51,3.26-35.27,4.86l-53.9,7.29c-18.17,2.46-36.44,4.87-54.82,4.9"/><path class="cls-1" d="M678,641a2.52,2.52,0,0,0-.73.54c-.45.4-.95.75-1.41,1.13a12.14,12.14,0,0,1-1.1.78c-.44.28-.85.56-1.31.8s-.67.33-1,.48a5.84,5.84,0,0,1-1,.29c-.75.2-1.5.36-2.26.52a5,5,0,0,0-1.68.64c-.68.44-1.3,1-2,1.4-.46.28-.93.5-1.4.75a8.56,8.56,0,0,1-1,.43c-.39.16-.78.36-1.18.51a6.5,6.5,0,0,1-.61.25c-.14,0-.28.05-.42.09a3.86,3.86,0,0,1-.49.1,4.19,4.19,0,0,0-1,.17c-.12,0-.53,0-.53.2"/><path class="cls-1" d="M672.24,637.91l.36-.2,2.13-1.07a3.3,3.3,0,0,1,2.41-.5,2.74,2.74,0,0,1,1.46,1.61,2,2,0,0,1,.21,1.33,2,2,0,0,1-.81,1,14.3,14.3,0,0,1-4.11,2.11,1.42,1.42,0,0,1-1.88-.45,3.69,3.69,0,0,1-.82-1.64,2,2,0,0,1,.46-1.72A2.29,2.29,0,0,1,672.24,637.91Z"/><path class="cls-1" d="M689.6,648.34c0-.32-.12-.66-.14-1a.58.58,0,0,1,.11-.38,1.84,1.84,0,0,1,.38-.27"/><path class="cls-1" d="M691.32,647l.09.62c0,.17,0,.31,0,.48"/><path class="cls-1" d="M691.88,646.86l.08.61c0,.1,0,.2,0,.31a1.82,1.82,0,0,1,0,.33"/><path class="cls-1" d="M693.06,646.26a1.12,1.12,0,0,0,.1.41c.08.17.2.32.29.49a2.07,2.07,0,0,1,.14.42,2.29,2.29,0,0,1,.09.44"/><path class="cls-1" d="M693.56,649.36c0,.22.15.39.19.6l0,.25c0,.1,0,.25,0,.34"/><path class="cls-1" d="M692.76,650.8c0-.18,0-.35,0-.53s0-.34-.07-.51"/><path class="cls-1" d="M692.28,650.76l-.1-.67"/><path class="cls-1" d="M690.85,650.76l-.12-.86a1.82,1.82,0,0,1,0-.77"/><path class="cls-1" d="M712.25,645.38c-4.55,1-16.15,2.6-20.77,3.17-4.32.53-8.37,0-12.1,2.35"/><path class="cls-1" d="M705.41,648.52c-7.07,1.14-14.07,2.29-21.16,3.3"/><path class="cls-1" d="M714.28,644.65c-.54-2.66-3.55-2.07-4.48-2-1.61.17-1.59.27-2,1.71-.07.24.16,1.29.14,1.55"/><path class="cls-1" d="M710.64,648.11a4.06,4.06,0,0,1,0-1.16c.13-.2.22-.42.35-.62a2.37,2.37,0,0,1,.74-.74,5.65,5.65,0,0,1,2.25-.45,2.91,2.91,0,0,1,2.61,1.09c.18.27.15,1-1.36,1.48Z"/><path class="cls-1" d="M704.31,651.06a5.57,5.57,0,0,1,.06-.66,4.27,4.27,0,0,1,.53-1.2,1.58,1.58,0,0,1,.74-.79,2.27,2.27,0,0,1,.94-.09c1.2,0,2.62-.28,3.58.64a1.11,1.11,0,0,1,.3.45c.23.74-.89,1.19-1.4,1.36Z"/><path class="cls-2" d="M106.63,334.53a22.51,22.51,0,0,1,18.46,8.73c9.22,11.67,15.18,24.36,21.67,37.43q2.27,4.56,4.54,9.13c1.08,2.17,1.79,5.23,3.46,7.07,4.56,5,10.18,13,14.7,18,4.26,4.79,18,17.72,22.84,21.95,2.19,1.91,4.39,3.91,6.72,5.65.64.48,3.85,2.27,7.85,4.46,10.28,5.65,22.59,1.75,26.64-8.46l2.41-6.1c2.58-6.5.54-14.26-5.12-19.19-3.59-3.13-7.22-6.22-10.83-9.34-5.82-5-21-18.47-26.94-23.31-2.14-1.74-4.27-3.5-6.33-5.34-1.48-1.34-2.74-2.87-4.17-4.25-8.77-8.38-16.82-17.44-24.8-26.54-7.62-8.69-15-17-20.92-26.92a153.42,153.42,0,0,0-13.61-19c-4.82-5.8-10.71-9.9-16-15.16-2.07-2.05-3.93-4.3-6-6.34-3.56-3.49-9.27-9-13.91-10.86-1.43-.57-2.85-1.43-4.3-1.85a33.84,33.84,0,0,0-4.69-.62c-1.48-.21-3.12-.48-4.27.61a7,7,0,0,0-1.56,3.05c-.46,1.54.29,2.56,1.23,4,1.72,2.69,3.6,5.29,5.52,7.86a18.68,18.68,0,0,1,1.24,2c3.27,5.65,7,10.95,9.85,16.88a23.17,23.17,0,0,1,1.82,4.74,22.74,22.74,0,0,1,.23,6.32c-.32,5.2-1.33,10.6-1,15.84a12.23,12.23,0,0,0,1.35,5.28c.9,1.73,2.75,2.35,4.49,2.86A31.53,31.53,0,0,0,106.63,334.53Z"/><path class="cls-3" d="M549.24,658.32c-1.9-8-3.28-18-10.76-24-8.21-6.62-14.83.67-23.81,1.55l-2.66.26c-.5-4.29-4.62-7.82-7.49-11.29-8.45-10.26-15.2-20.51-18.63-33.22a.3.3,0,0,0-.59,0c-.44,3.66-2.77,7.08-3.32,10.72-.86,5.73-8.46-6.06-6.56-.64,1.67,4.79,12.15,27.56,14.18,32.14-2.68-.4-4.59-.59-4.71-.29-3.66,9.43,14.33,24.84,12.27,34.84-.42,2-1,3.44-1,5.54s.08,4,.07,6a15.11,15.11,0,0,0,1.65,5.87,53.06,53.06,0,0,0,2.6,5.43c2.56,4.61,7.16,7.84,11.37,10.68s8.74,6.25,14,6.43c3.31.11,4.93-2.21,7.7-4.35,1.43-1.11,3.83-.28,4.65-1.82.31-.6.91-1.18,1.16-1.78s.24-1.68.5-2.45a17.06,17.06,0,0,0,1.28-4.37c.1-1.61.44-3.15.49-4.75a24.54,24.54,0,0,1,.52-4.66c.32-1.49.59-3.22,1-4.7,1.54-4.85,6.39-8.79,9.33-12.83C556.36,661.42,550.19,662.33,549.24,658.32Z"/><path class="cls-4" d="M536.55,700.7c-8.58.11-12.78-4.36-20.47-8.18-12.44-6.2-24.81-10.89-35.15-19.77a15.57,15.57,0,0,0-3.52-2.49c-3.69-1.7-8.46-.16-11,2.88s-3.1,7.22-2.42,11c1.3,7.29,6.55,14.93,12.16,20,1.4,1.28,2.71,2.73,4.19,3.94a23.18,23.18,0,0,0,5.26,2.78c3.33,1.52,6.59,3.13,10.27,3.83a44.13,44.13,0,0,0,9.25.71c3,0,5.8.64,8.77.57s6,.06,9-.79c2.28-.66,4.51-1.13,6.78-1.94,1.64-.59,2.66-1.6,4.1-2.47,1.82-1.09,2.44-2.22,3.41-4,1.15-2.16,4.25-6.93-.64-6.11"/><path class="cls-4" d="M464.36,646.68c-2.31,0-5.53-.63-7.7.09-2.39.8-4.53,5-5.94,7.27-2.3,3.69-4.37,13.44-1.6,17.28,3,4.16,10,7.91,14.77,8.46,2.75.32,11.85.31,10.86-4.82-2.84-2.3-6.62,2.35-8.2,4.72-1.46,2.18-1.33,7.82.11,10.08,2,3.15,5.09,2.9,8.12,2.85,2.73,0,5.83.46,8.37-.68,2.3-1,5.86-3.36,7.19-5.7.86-1.52,1.93-8.78,1-10.7-.77-1.64-1.47-1.08-2.9-1.14a5.88,5.88,0,0,1-3.6-.91c-.93-.51-2.31-.88-2.72-1.87a6.44,6.44,0,0,0,.91-3.14,3.77,3.77,0,0,0-1.07-3"/><path class="cls-3" d="M330.7,564.36c5,0,28.67,19.71,33.44,20.74.68.14,1.45-.07,2.18.07,1.61.33,3.46,1,5.05,1.41a25.9,25.9,0,0,1,6.85,3.44c4.1,2.76,8.85,4.42,12.82,7.22,4.31,3,9.55,4.29,13.57,7.52,9,7.28,16.87,16.06,25,24.42,4,4.1,7.07,9.17,11.22,13.13,2.51,2.41,4.47,5,6.75,7.54,1.45,1.63,5.57,3.75,5.64,6.07-1.64,1.52-4.19,1.1-6.23,1.13-3.26.06-3.71-4.95-6.74-6.32-2.73-1.23-5.32-1.24-8-2.55-6.92-3.36-37.25-16.65-50.71-32.15-2.1-2.42-44.56-36.24-46.76-38.55C330.33,572.82,336.92,564.35,330.7,564.36Z"/><path class="cls-5" d="M489.89,602.55c-.39-4-6.94-21.19-9.07-24.42-8.05-12.17-19.41-22.78-34.61-23.93a21,21,0,0,1-6.29-.94c-2.92-1.17-5.22-4.33-7.57-6.36q-4.71-4.06-9.77-7.7c-9.19-6.61-19.49-11.2-28.84-17.52q-18-12.15-36.55-23.4c-11.8-7.15-25.07-14.68-39.27-14.5l-2.21,1.39c1,.93,2.31,1.48,3.34,2.35,1.22,1,2.75,1.44,4,2.44a140.06,140.06,0,0,1,17.26,16.25c5.22,5.93,11,12.6,12.57,20.49a18,18,0,0,1,.15,3.21c0,3.92,1,7.31.22,11.33-2.22,11.4-11.66,20-22.54,23.12a65.6,65.6,0,0,1-14.61,2.21c-3,.16-25.31-10.75-28.51-10.77,1.36.84,2.81,6.38,4.2,7.2,3.59,5.82,20.43,10.5,23.82,11.69,29.12,10.23,60.07,12.93,86.13,31.31,2.62,1.86,7,6.92,10.25,7.11,3.61.22,6-4.07,9.5-4.45,4.48-.48,9-.81,13.49-.95a141.94,141.94,0,0,1,26.93,1.58q5.13.83,10.19,2.07c2.19.53,5.4,2.61,7.54,1.87C483.78,605.42,487.65,604.17,489.89,602.55Z"/><path class="cls-1" d="M360.93,522.49c-2.44-23.12-15.41-26-28.52-38.16-17.21-15.92-29.61-19.41-47.86-34.85-16-13.52-34.33-25.19-54.37-31.67a18.27,18.27,0,0,0-5.58-7.28c-3.75-2.94-7.53-5.84-11.3-8.76-6.08-4.72-21.89-17.36-28.11-21.88-2.24-1.62-4.46-3.27-6.6-5-1.56-1.25-2.89-2.72-4.4-4-9.18-7.91-17.7-16.54-26.14-25.22-8.05-8.28-15.84-16.23-22.29-25.8a153.56,153.56,0,0,0-14.58-18.24c-5.12-5.54-11.21-9.33-16.81-14.31-2.18-1.93-4.15-4.09-6.33-6-3.74-3.3-9.73-8.53-14.47-10.12-1.45-.49-2.91-1.28-4.38-1.62a35.61,35.61,0,0,0-4.72-.38c-1.49-.13-3.14-.32-4.23.84a6.87,6.87,0,0,0-1.4,3.12c-.38,1.57.43,2.54,1.43,3.94,1.87,2.6,3.87,5.1,5.93,7.56a18.92,18.92,0,0,1,1.34,1.92c3.56,5.47,7.55,10.57,10.71,16.35a17.18,17.18,0,0,1,2.62,10.94c-.05,5.2-.77,10.65-.18,15.87a12.17,12.17,0,0,0,1.62,5.19c1,1.69,2.87,2.21,4.64,2.63a32.15,32.15,0,0,0,9.56.89,22.5,22.5,0,0,1,18.89,7.76c9.81,11.16,16.42,23.53,23.58,36.25a149.36,149.36,0,0,0,24.45,33c4.5,4.56,18.9,16.76,23.95,20.73,2.28,1.79,4.59,3.68,7,5.29.44.29,2,1.08,4.14,2.14l.16.21c13.51,17.46,24.4,36.88,37.25,54.83q13.24,18.48,27.48,36.26c8.15,10.16,15.91,22.06,27.53,28.8,11.09,6.44,24.16,9,35.9,7.07,7.42-1.23,14.41-4.29,19.26-9.48C352.81,554.09,362,532.83,360.93,522.49Z"/><path class="cls-3" d="M569.43,663.9c5.39-.47,10.79-.81,16.15-1.2,11.13-.82,22.28-1.53,33.43-2.26,4.16-.28,8.34-.67,12.51-.9,6-.33,12.62-.33,17.45-4.59a16.7,16.7,0,0,1,4.47-3.1,66.42,66.42,0,0,1,13.31-4.49c4.54-1,9-1.59,13.46-3.08a57.86,57.86,0,0,1,11.11-2.9,4,4,0,0,1,.84,0c.34,0,2.16-.16,2.49-.05,1.23.4,1.06,1,2.17,1.7.44-.12.88-.23,1.32-.37a20.49,20.49,0,0,1,2.32-.53c.76-.15,1.48-.36,2.25-.47.28,0,.54-.14.83-.18s.82-.11,1.23-.18c1.12-.17,2.29-.07,3.42-.2a10.58,10.58,0,0,1,3.32-.15,1.2,1.2,0,0,1,.81.57,1.28,1.28,0,0,0,.41.52c.28.22.73.46.78.84a1,1,0,0,1-.07.51c.75-.26.95-.55,1.46-.73s.93.08,1.42.33a1.35,1.35,0,0,1,.8.93,1.44,1.44,0,0,1-.31,1.33,5.66,5.66,0,0,1-2.38,1.41,14.07,14.07,0,0,1-3.06.95,5,5,0,0,0-1.44.28c.53,0,1.06,0,1.3.61.1.25.24.53.1.78a4.49,4.49,0,0,1-.35.44,1.45,1.45,0,0,1-.41.33l-.65.32a4.45,4.45,0,0,1-1.08.37,2,2,0,0,0-.64.14l-1.53.53-5.6,1.94c-21.18,13.55-88.87,22.42-132.92,34.15l-12.87.75c-3.18.43-6.4.6-9.51.76a57.82,57.82,0,0,1-9.1-.53c-4.57-.47-9.17-.74-13.72-1.45-5.18-.81-10.53-.81-15.77-1.44-1.44-.17-2.94-.58-4.4-.7-11.09-.91-16.18-9.49-26.24-14.57-9.7-4.91-23.07-6.1-31.19-13.09-9.62-8.27-26.34-10.43-32.87-21.91-2.64-4.65-1.85-15.86.62-20.65,2.83-5.48,10.17-6.91,15.39-7.28,12.91-.92,21.72-.62,34.42,1.64,17.63,3.13,17.18,9,21.48,15.37,5.22,7.7,10.38,15.95,17.08,22.48l24.07,12.79Z"/><path class="cls-3" d="M690.33,651.26c-.11-.33-.26-.66-.35-1a.65.65,0,0,1,0-.41c.06-.14.24-.24.34-.36"/><path class="cls-3" d="M691.13,649.9c.08.21.15.42.22.63s.06.32.11.49"/><path class="cls-3" d="M691.67,649.54l.21.62c0,.1.07.21.11.31a1.35,1.35,0,0,1,.06.35"/><path class="cls-3" d="M692.36,648.67a1.65,1.65,0,0,0,.18.41c.12.16.28.29.41.45a2.71,2.71,0,0,1,.23.41,2.39,2.39,0,0,1,.18.44"/><path class="cls-3" d="M694,652.16c.08.22.25.38.32.59l.09.25c0,.1,0,.27.06.35"/><path class="cls-3" d="M693.48,653.82c-.07-.18-.07-.36-.13-.55l-.18-.52"/><path class="cls-3" d="M693,653.88l-.24-.68"/><path class="cls-3" d="M691.48,654.16l-.3-.86a1.92,1.92,0,0,1-.11-.82"/><path class="cls-3" d="M710,647.81c-1.32.46-6.84,2.43-8.17,2.89l-2,.69-1,.35c-.36.12-.68.33-1,.47-1,.37-1.86.84-2.83,1.17l-1.18.41c-.71.25-1.43.37-2.16.56-.54.14-1.06.26-1.58.44l-1.42.49-5.74,2a18.64,18.64,0,0,0-2.43,1.16,17.19,17.19,0,0,1-2.3,1.27"/><path class="cls-3" d="M708.24,645.49a2.42,2.42,0,0,1,.1-1.62,2.31,2.31,0,0,1,1.18-1.22,5.35,5.35,0,0,1,3-.43,2,2,0,0,1,1,.7.31.31,0,0,1-.17.46,222.37,222.37,0,0,1-22.14,7.75c-1.2.41-2.5.53-3.71.88a1.6,1.6,0,0,1-.58.07l-5.12,1.66"/><path class="cls-3" d="M696.47,642.87a.71.71,0,0,1,0,.43.82.82,0,0,1-.26.48,3.82,3.82,0,0,1-1.71.84c-1.17.41-2.34.8-3.5,1.22-.32.11-.65.15-1,.25s-.47.17-.71.25l-1.23.43c-1.09.37-2.19.73-3.27,1.13-.88.32-1.68.84-2.54,1.21-.33.14-.69.22-1,.35a7.56,7.56,0,0,0-1.11.63c-.34.21-.69.44-1.05.62s-.71.19-1,.37-.35.25-.55.34-.25.08-.37.12a6.1,6.1,0,0,0-.57.29c-.11,0-.25,0-.3.16a.71.71,0,0,0,.31-.1.07.07,0,0,0,.06.07"/><path class="cls-3" d="M684.61,648c-.16-.13-1.26-1.44-1-1.52"/><path class="cls-3" d="M684.82,647.4a9.67,9.67,0,0,0-.48-.9"/><path class="cls-3" d="M685.82,647.21c.08-.2-.3-.63-.39-.77l-.33-.49c-.06-.09-.12-.24-.23-.29"/><path class="cls-3" d="M712.19,647.34c0-.18-.26-.75-.19-.91s.13-.39.21-.58a2.17,2.17,0,0,1,.73-.94,11.42,11.42,0,0,1,1.61-.68A2.17,2.17,0,0,1,715,644l.27,0a6.31,6.31,0,0,1,1.42-.13c.34,0,.32.26.59.48s.32.76-1,1.51Z"/><path class="cls-3" d="M707.89,651a4.11,4.11,0,0,1-.23-.9c0-.17.05-.36.1-.53a1.52,1.52,0,0,1,.46-.83,6.62,6.62,0,0,1,1.16-.49,1.14,1.14,0,0,1,.3-.13.75.75,0,0,1,.21,0,3.76,3.76,0,0,1,1.06,0c.27.08.27.28.5.52s.32.76-.58,1.35Z"/><path class="cls-3" d="M692.82,645.17a4.32,4.32,0,0,1-.24-.9c0-.18.06-.36.1-.53a1.55,1.55,0,0,1,.46-.83,5.39,5.39,0,0,1,1.16-.49,1.73,1.73,0,0,1,.31-.14h.2a3.83,3.83,0,0,1,1.07,0c.26.08.27.29.49.53s.32.75-.58,1.35Z"/><path class="cls-6" d="M499.49,645.5c.94.58,1.86,1.19,2.77,1.8a5.56,5.56,0,0,1,.48.34l.3.17a37.76,37.76,0,0,1-2.13-4,60.26,60.26,0,0,0-4-6.59c-1.37-2.13-16.18-25.18-16.33-25.08a7.17,7.17,0,0,1-.65,1.06c-.37.43-.3.35-1.53.37a6.87,6.87,0,0,1-2.34-.47c3.55,5.11,7,10.26,10.57,15.37s6.8,10.24,10.88,14.81C498.24,644.12,498.89,644.84,499.49,645.5Z"/><path class="cls-6" d="M413.55,613a6.22,6.22,0,0,1-1.32.28,3.3,3.3,0,0,1-2.09-.45,40.94,40.94,0,0,0-1.52,15.23,46.82,46.82,0,0,0,1.48,9l2.9,1.65,1.55.76.12,0s0,0,.07,0l1.33.62a15.82,15.82,0,0,1-2.15-5.37,44.33,44.33,0,0,1-1.13-7.33,36.19,36.19,0,0,1,1.77-14.76A9.16,9.16,0,0,1,413.55,613Z"/><path d="M127.67,638.73a68.37,68.37,0,0,0,25.22,22.81,81.79,81.79,0,0,0,30,8.72,88.41,88.41,0,0,0,16.43.06c1.91-.17,1.93-3.17,0-3-19.82,1.76-40.89-3.08-56.41-16a65,65,0,0,1-12.69-14.16c-1.06-1.6-3.66-.1-2.59,1.52Z"/><path d="M186.2,662.73c4.44,2.16,8.64,4.75,12.89,7.23l-.3-2.35c-1.75,1.78-3.41,3.63-5.13,5.43s-3.26,3.28-4.85,5c-1.33,1.41.79,3.53,2.12,2.12,1.59-1.68,3.25-3.28,4.85-5s3.38-3.66,5.13-5.44a1.52,1.52,0,0,0-.3-2.36c-4.26-2.48-8.46-5.07-12.89-7.23-1.73-.85-3.25,1.74-1.52,2.59Z"/><path d="M53.77,543.75c3.47,0,5.47,1.31,5.47,4.26a4,4,0,0,1-2.34,3.88A4,4,0,0,1,59.71,556c0,3-1.9,5-5.87,5H47V543.75Zm-3.7,7h3.52c1.58,0,2.57-.76,2.57-2.31s-.87-2.08-2.44-2.08H50.07Zm0,7.67h3.79c1.68,0,2.72-.79,2.76-2.47s-1.18-2.53-3-2.53H50.07Z"/><path d="M67.87,548c3.23,0,6,2.19,6,6.6,0,3.63-2.14,6.59-6.16,6.59-4.36,0-6.16-3-6.16-6.59C61.59,550.16,64.37,548,67.87,548Zm-3.08,6.6c0,2,.69,4,3,4,2.1,0,3-2,3-4,0-2.86-1.4-4-3-4S64.79,551.66,64.79,554.57Z"/><path d="M88.71,542.17V561H86.15l-.35-2.22a4.51,4.51,0,0,1-4.11,2.37c-3.48.05-5.55-2.84-5.55-6.64,0-4.63,3-6.55,5.52-6.55a4.09,4.09,0,0,1,4,2.44v-7.84ZM79.29,554.5c0,2.19.87,3.92,3.16,3.92s3.25-1.73,3.25-3.9c0-2.93-1.57-4-3.28-4S79.29,551.66,79.29,554.5Z"/><path d="M94,548.09l3.18,9.12h.2l2.91-9.12h3.16L98.7,561.21c-1.58,4.31-3,5.4-7.62,4.44l.55-2.59c2.91.71,3.3.05,4.21-2.49L91,548.09Z"/><path d="M111.18,557.31a6.73,6.73,0,0,0,4.2,1.43c1.48,0,2.34-.44,2.34-1.5,0-2.52-7.47-.84-7.23-5.58.1-2.31,1.8-3.69,5.23-3.69a10.55,10.55,0,0,1,4.66,1.2l-1.08,2.17a7.41,7.41,0,0,0-3.7-1.06c-1.21,0-2.22.4-2.17,1.41.15,2,7.32.47,7.32,5.45,0,2.66-2.39,4-5.45,4a8.86,8.86,0,0,1-5.3-1.68Z"/><path d="M126.3,542.17v8a4.82,4.82,0,0,1,4.24-2.19c3,0,4.49,1.94,4.49,4.61V561H132v-7.45c0-2-.74-3-2.41-3-2.35,0-3.26,1.9-3.26,4V561h-3.06V542.54Z"/><path d="M143.91,548c3.23,0,6,2.19,6,6.6,0,3.63-2.14,6.59-6.16,6.59-4.37,0-6.17-3-6.17-6.59C137.62,550.16,140.41,548,143.91,548Zm-3.08,6.6c0,2,.69,4,3,4,2.09,0,3-2,3-4,0-2.86-1.4-4-3-4S140.83,551.66,140.83,554.57Z"/><path d="M155.55,548.09v7.45c0,2,.79,3,2.59,3,2.35,0,3.31-2.42,3.31-4.86v-5.62h3.06V561h-2.45l-.44-2.81a4.71,4.71,0,0,1-4.46,3c-3.16,0-4.66-1.95-4.66-5.2v-7.87Z"/><path d="M170.72,542.17v14.62c0,1.38.62,1.75,1.53,1.75a2.33,2.33,0,0,0,1.28-.47l.57,2.2a5.31,5.31,0,0,1-2.79.89c-2.56,0-3.65-1.73-3.65-4.07V542.54Z"/><path d="M187.17,542.17V561h-2.56l-.35-2.22a4.52,4.52,0,0,1-4.12,2.37c-3.47.05-5.54-2.84-5.54-6.64,0-4.63,3-6.55,5.52-6.55a4.1,4.1,0,0,1,4,2.44v-7.84Zm-9.42,12.33c0,2.19.86,3.92,3.16,3.92s3.25-1.73,3.25-3.9c0-2.93-1.58-4-3.28-4S177.75,551.66,177.75,554.5Z"/><path d="M49.87,576.08v8.22a4.4,4.4,0,0,1,4.31-2.42c2.44.07,5.06,1.73,5.06,6.48,0,3.9-2,6.71-5.45,6.71a4.28,4.28,0,0,1-4.07-2.37l-.42,2.22H46.81V576.48Zm-.12,12.36c0,2.22.81,4,3.25,4,2,0,3.11-1.5,3.11-4,0-3-1.51-3.95-3.13-3.95C51.2,584.44,49.75,585.85,49.75,588.44Z"/><path d="M73.27,591.37a5.76,5.76,0,0,1-5.57,3.7c-4.34,0-6.26-2.71-6.26-6.75s2.71-6.54,6.43-6.44c3,.07,5.75,2.34,5.45,6.46l0,.4H64.54c0,2.19.94,3.69,3.19,3.69a2.87,2.87,0,0,0,2.78-2Zm-3.13-4.21c0-2-1-2.94-2.54-2.89a2.88,2.88,0,0,0-2.91,2.89Z"/><path d="M87.26,591.3c-.84,2.64-3,3.77-5.62,3.77-4.25,0-6.07-3.16-6.07-6.61,0-4.21,2.61-6.51,6.14-6.58,3.11-.07,5,1.53,5.5,3.8l-2.84.91a2.54,2.54,0,0,0-2.61-2.12c-1.78,0-3.13,1.31-3.13,3.94,0,2.1.79,4,3.08,4a2.6,2.6,0,0,0,2.71-2Z"/><path d="M95.55,581.88c3.23,0,6,2.19,6,6.61,0,3.62-2.15,6.58-6.17,6.58-4.36,0-6.16-3-6.16-6.58C89.26,584.07,92,581.88,95.55,581.88Zm-3.09,6.61c0,2,.69,4,3,4,2.1,0,3-2,3-4,0-2.86-1.41-4-3-4C93.85,584.47,92.46,585.58,92.46,588.49Z"/><path d="M106.74,582l.45,2.3a4.33,4.33,0,0,1,4-2.45,3.77,3.77,0,0,1,3.85,2.4,4.55,4.55,0,0,1,4.17-2.4c3,0,4.21,2,4.21,4.64v8.43h-3v-7.44c0-2-.47-3-2.15-3-2.22,0-2.81,1.68-2.81,3.58v6.9h-3.06v-7.44c0-2-.47-3-2.14-3-2.37,0-2.84,1.9-2.84,4v6.51H104.3V582Z"/><path d="M137.87,591.37a5.76,5.76,0,0,1-5.57,3.7c-4.34,0-6.27-2.71-6.27-6.75s2.71-6.54,6.44-6.44c3,.07,5.74,2.34,5.45,6.46l0,.4h-8.73c0,2.19.94,3.69,3.18,3.69a2.89,2.89,0,0,0,2.79-2Zm-3.13-4.21c0-2-1-2.94-2.54-2.89a2.88,2.88,0,0,0-2.91,2.89Z"/><path d="M147.81,582l3.11,9.37h.19L154.2,582h3.13l-4.81,12.92h-3.08L144.75,582Z"/><path d="M170.15,591.37a5.76,5.76,0,0,1-5.57,3.7c-4.34,0-6.26-2.71-6.26-6.75s2.71-6.54,6.43-6.44c3,.07,5.75,2.34,5.45,6.46l0,.4h-8.73c0,2.19.94,3.69,3.19,3.69a2.87,2.87,0,0,0,2.78-2ZM167,587.16c0-2-1-2.94-2.54-2.89a2.89,2.89,0,0,0-2.91,2.89Z"/><path d="M175.31,582l.57,2.67c.59-2,2.09-2.84,4.19-2.79a4.78,4.78,0,0,1,1.33.22l-.47,2.69a5.48,5.48,0,0,0-1.85-.25c-2.27.08-3.13,1.83-3.13,3.9v6.48h-3.06V582Z"/><path d="M187.89,578.35v3.78h3.25l-.42,2.46h-2.83v5.92c0,1.4.64,2,1.68,2a5.57,5.57,0,0,0,1.94-.57l.57,2.34a7.94,7.94,0,0,1-3.28.84c-3,0-4-2-4-4.14v-6.34H183v-2.46H185l.37-3.43Z"/><path d="M198.05,582v12.92H195V584.54h-1.8V582Zm-1.55-5a1.65,1.65,0,0,1,1.82,1.56,1.82,1.82,0,0,1-3.62,0A1.59,1.59,0,0,1,196.5,577Z"/><path d="M212.45,591.3c-.84,2.64-3,3.77-5.62,3.77-4.24,0-6.07-3.16-6.07-6.61,0-4.21,2.62-6.51,6.14-6.58,3.11-.07,5,1.53,5.5,3.8l-2.83.91a2.55,2.55,0,0,0-2.62-2.12c-1.77,0-3.13,1.31-3.13,3.94,0,2.1.79,4,3.08,4a2.61,2.61,0,0,0,2.72-2Z"/><path d="M215.12,582.82a15.36,15.36,0,0,1,4.88-.94c3.9,0,5.33,1.92,5.33,4.93V592a.65.65,0,0,0,.61.74,2.41,2.41,0,0,0,1-.15v2a5,5,0,0,1-2,.39,2.35,2.35,0,0,1-2.35-1.75,5.62,5.62,0,0,1-3.89,1.75c-2.52,0-4.39-1.28-4.41-4s2-4.09,5.25-4.09a21.68,21.68,0,0,1,2.78.24v-.76c0-1.41-.88-2.17-2.66-2.15a10.39,10.39,0,0,0-4,.79Zm7.15,6a13.07,13.07,0,0,0-2.52-.15c-1.48.07-2.41.76-2.44,2.07a1.82,1.82,0,0,0,2.1,1.9,5.06,5.06,0,0,0,2.86-1Z"/><path d="M232.14,576.08v14.63c0,1.38.61,1.75,1.52,1.75A2.46,2.46,0,0,0,235,592l.56,2.19a5.31,5.31,0,0,1-2.78.89c-2.57,0-3.65-1.72-3.65-4.07V576.45Z"/><path class="cls-7" d="M148.79,61.4a36.73,36.73,0,0,1,8.33-23.32,34.4,34.4,0,0,0-45.48-4.38A34.43,34.43,0,0,0,131.9,96a34.33,34.33,0,0,0,25.32-11.11A36.76,36.76,0,0,1,148.79,61.4ZM138,75.49s-3.7-.27-11.47-.27a25.63,25.63,0,0,0-4.93.31l-1.35-2.46c7.78-7.9,12.4-13.63,13-18.71.47-3.66-2-4.82-4.35-4.66a9.73,9.73,0,0,0-6.73,3.92c-.2-.23-1.93-2.07-1.47-2.65A12.43,12.43,0,0,1,130,46.12c5.89,0,9.09,3,8.74,8.51-.46,7-8,13.59-12.63,17.55l8.32-.08c1.77-.15,3-2.54,3.81-4.73,0,0,1.73.5,2,1C139.58,71.53,138.81,75.49,138,75.49Z"/><path class="cls-7" d="M95.79,61.4A36.74,36.74,0,0,1,104.16,38a34.44,34.44,0,1,0,.11,46.9A36.78,36.78,0,0,1,95.79,61.4ZM87.2,75.66H70.92L71,73.39l4.46-.58c.58,0,.81-.23.81-1,.08-10.05,0-19.6,0-19.6l-5.62,1.08c-.19-.31-1.12-2.46-.46-2.73l10.35-4,1,1s-.12,20.87,0,24.37c0,.77.19,1,.73,1l5.08.54Z"/><path class="cls-7" d="M201.79,61.4A36.74,36.74,0,0,1,210.16,38a34.43,34.43,0,0,0-47.76-2.48A34.8,34.8,0,0,0,172,93.43a34.41,34.41,0,0,0,38.24-8.51A36.78,36.78,0,0,1,201.79,61.4ZM181.35,75.49a15.64,15.64,0,0,1-7.86-2.19l1-2.89a21.48,21.48,0,0,0,7,1.66c3.35,0,5.51-1.74,5.55-5.24,0-2.46-1.43-4.35-4.47-4.74a17.82,17.82,0,0,0-5,.24c-.5.11-.89-3-.42-3.08,3-.54,7.62-1.08,8.39-4.89.73-3.62-2-4.82-4.35-4.66A8.43,8.43,0,0,0,175,52.82c-.2-.23-1.7-2.12-1-3a10.43,10.43,0,0,1,8.16-3.69c5.89,0,9.12,3,8.74,8.51a6,6,0,0,1-4,4.5c3.47.62,5.47,2.93,5.66,6.7C192.9,71.83,188,75.49,181.35,75.49Z"/><circle cx="236" cy="61.53" r="34.44"/><path class="cls-8" d="M237.43,67,227.3,67c-.11,0-1.42.19-1.42.19S225,65,225.3,64.79c.89-.46,12.94-16.86,14-18.63l3.2.54c-.08,3.92,0,11.35,0,17.4l4.7-.08c.34,0,.07,3-.54,3h-4.12c0,2.27,0,3.47.07,4.39,0,.77.2,1,.74,1l2.34.54-.07,2.23h-11.4l.08-2.27,2.23-.58c.58-.15.81-.23.81-1C237.39,69.72,237.39,68.68,237.43,67Zm-7.12-3h7.12c0-7,0-10.05,0-10.05S230.31,64.06,230.31,64.06Z"/><path d="M296.49,50.34l-.27,3.12h-5.55V71.34h-3.75V53.46h-5.76V50.34Z"/><path d="M302.64,48.42v9.72a5.86,5.86,0,0,1,5.16-2.67c3.69,0,5.46,2.37,5.46,5.61V71.34h-3.72V62.28c0-2.4-.9-3.69-2.94-3.69-2.85,0-4,2.31-4,4.83v7.92h-3.72V48.87Z"/><path d="M330.78,67a7,7,0,0,1-6.78,4.5c-5.28,0-7.62-3.3-7.62-8.22s3.3-7.95,7.83-7.83c3.69.09,7,2.85,6.63,7.86l-.06.48H320.16c0,2.67,1.14,4.5,3.87,4.5a3.5,3.5,0,0,0,3.39-2.49ZM327,61.89c.06-2.43-1.26-3.57-3.09-3.51a3.5,3.5,0,0,0-3.54,3.51Z"/><path d="M343.32,55.62l.57,2.79a5.8,5.8,0,0,1,5.37-2.94c3.69,0,5.46,2.37,5.46,5.61V71.34H351V62.28c0-2.4-.9-3.69-2.94-3.69-2.85,0-4,2.31-4,4.83v7.92h-3.72V55.62Z"/><path d="M372.3,67a7,7,0,0,1-6.78,4.5c-5.28,0-7.62-3.3-7.62-8.22s3.3-7.95,7.83-7.83c3.69.09,7,2.85,6.63,7.86l-.06.48H361.68c0,2.67,1.14,4.5,3.87,4.5a3.5,3.5,0,0,0,3.39-2.49Zm-3.81-5.13c.06-2.43-1.26-3.57-3.09-3.51a3.5,3.5,0,0,0-3.54,3.51Z"/><path d="M378.39,55.62l3.15,6.18,3.3-6.18h4l-4.35,7.8L389,71.34h-4.26l-3.3-6.12L378,71.34h-4.14l4.83-7.86-4.29-7.86Z"/><path d="M396.81,51.18v4.59h4l-.51,3h-3.45V66c0,1.71.78,2.37,2,2.37a6.83,6.83,0,0,0,2.37-.69l.69,2.85a9.82,9.82,0,0,1-4,1c-3.69,0-4.83-2.46-4.83-5V58.77H390.9v-3h2.37l.45-4.17Z"/><path d="M424.35,67a7,7,0,0,1-6.78,4.5c-5.28,0-7.62-3.3-7.62-8.22s3.3-7.95,7.83-7.83c3.69.09,7,2.85,6.63,7.86l-.06.48H413.73c0,2.67,1.14,4.5,3.87,4.5A3.5,3.5,0,0,0,421,65.82Zm-3.81-5.13c.06-2.43-1.26-3.57-3.09-3.51a3.5,3.5,0,0,0-3.54,3.51Z"/><path d="M431.4,48.42V66.21c0,1.68.75,2.13,1.86,2.13a2.93,2.93,0,0,0,1.56-.57l.69,2.67a6.47,6.47,0,0,1-3.39,1.08c-3.12,0-4.44-2.1-4.44-5V48.87Z"/><path d="M450.69,67a7,7,0,0,1-6.78,4.5c-5.28,0-7.62-3.3-7.62-8.22s3.3-7.95,7.83-7.83c3.69.09,7,2.85,6.63,7.86l-.06.48H440.07c0,2.67,1.14,4.5,3.87,4.5a3.5,3.5,0,0,0,3.39-2.49Zm-3.81-5.13c.06-2.43-1.26-3.57-3.09-3.51a3.5,3.5,0,0,0-3.54,3.51Z"/><path d="M457,55.62l.54,2.79a5.25,5.25,0,0,1,4.86-3,4.58,4.58,0,0,1,4.68,2.91,5.53,5.53,0,0,1,5.07-2.91c3.69,0,5.13,2.4,5.13,5.64V71.34h-3.72V62.28c0-2.4-.57-3.69-2.61-3.69-2.7,0-3.42,2-3.42,4.35v8.4H463.8V62.28c0-2.4-.57-3.69-2.61-3.69-2.88,0-3.45,2.31-3.45,4.83v7.92H454V55.62Z"/><path d="M494.85,67a7,7,0,0,1-6.78,4.5c-5.28,0-7.62-3.3-7.62-8.22s3.3-7.95,7.83-7.83c3.69.09,7,2.85,6.63,7.86l-.06.48H484.23c0,2.67,1.14,4.5,3.87,4.5a3.5,3.5,0,0,0,3.39-2.49ZM491,61.89c.06-2.43-1.26-3.57-3.09-3.51a3.5,3.5,0,0,0-3.54,3.51Z"/><path d="M501.12,55.62l.57,2.79a5.8,5.8,0,0,1,5.37-2.94c3.69,0,5.46,2.37,5.46,5.61V71.34H508.8V62.28c0-2.4-.9-3.69-2.94-3.69-2.85,0-4,2.31-4,4.83v7.92h-3.72V55.62Z"/><path d="M521.13,51.18v4.59h4l-.51,3h-3.45V66c0,1.71.78,2.37,2,2.37a6.83,6.83,0,0,0,2.37-.69l.69,2.85a9.82,9.82,0,0,1-4,1c-3.69,0-4.83-2.46-4.83-5V58.77h-2.19v-3h2.37L518,51.6Z"/><path d="M539.76,55.62V71.34H536V58.71h-2.19V55.62Zm-1.89-6.12a2,2,0,0,1,2.22,1.89,2.22,2.22,0,0,1-4.41,0A1.93,1.93,0,0,1,537.87,49.5Z"/><path d="M544,66.84a8.15,8.15,0,0,0,5.1,1.74c1.8,0,2.85-.54,2.85-1.83,0-3.06-9.09-1-8.79-6.78.12-2.82,2.19-4.5,6.36-4.5a12.78,12.78,0,0,1,5.67,1.47l-1.32,2.64a8.9,8.9,0,0,0-4.5-1.29c-1.47,0-2.7.48-2.64,1.71.18,2.49,8.91.57,8.91,6.63,0,3.24-2.91,4.92-6.63,4.89a10.76,10.76,0,0,1-6.45-2Z"/><path d="M569.79,51.18v4.59h4l-.51,3h-3.45V66c0,1.71.78,2.37,2,2.37a6.83,6.83,0,0,0,2.37-.69l.69,2.85a9.82,9.82,0,0,1-4,1c-3.69,0-4.83-2.46-4.83-5V58.77h-2.19v-3h2.37l.45-4.17Z"/><path d="M581,48.42v9.72a5.86,5.86,0,0,1,5.16-2.67c3.69,0,5.46,2.37,5.46,5.61V71.34h-3.72V62.28c0-2.4-.9-3.69-2.94-3.69-2.85,0-4,2.31-4,4.83v7.92h-3.72V48.87Z"/><path d="M609.12,67a7,7,0,0,1-6.78,4.5c-5.28,0-7.62-3.3-7.62-8.22s3.3-7.95,7.83-7.83c3.69.09,7,2.85,6.63,7.86l-.06.48H598.5c0,2.67,1.14,4.5,3.87,4.5a3.5,3.5,0,0,0,3.39-2.49Zm-3.81-5.13c.06-2.43-1.26-3.57-3.09-3.51a3.5,3.5,0,0,0-3.54,3.51Z"/><path d="M632.52,67a7,7,0,0,1-6.78,4.5c-5.28,0-7.62-3.3-7.62-8.22s3.3-7.95,7.83-7.83c3.69.09,7,2.85,6.63,7.86l-.06.48H621.9c0,2.67,1.14,4.5,3.87,4.5a3.5,3.5,0,0,0,3.39-2.49Zm-3.81-5.13c.06-2.43-1.26-3.57-3.09-3.51a3.5,3.5,0,0,0-3.54,3.51Z"/><path d="M638.79,55.62l.57,2.79a5.8,5.8,0,0,1,5.37-2.94c3.69,0,5.46,2.37,5.46,5.61V71.34h-3.72V62.28c0-2.4-.9-3.69-2.94-3.69-2.85,0-4,2.31-4,4.83v7.92h-3.72V55.62Z"/><path d="M658.8,51.18v4.59h4l-.51,3H658.8V66c0,1.71.78,2.37,2,2.37a6.83,6.83,0,0,0,2.37-.69l.69,2.85a9.82,9.82,0,0,1-4,1c-3.69,0-4.83-2.46-4.83-5V58.77h-2.19v-3h2.37l.45-4.17Z"/><path d="M669,55.62l.69,3.24c.72-2.4,2.55-3.45,5.1-3.39a6.19,6.19,0,0,1,1.62.27L675.84,59a6.48,6.48,0,0,0-2.25-.3c-2.76.09-3.81,2.22-3.81,4.74v7.89h-3.72V55.62Z"/><path d="M682.32,55.62l3.87,11.1h.24L690,55.62h3.84l-5.82,16c-1.92,5.25-3.72,6.57-9.27,5.4l.66-3.15c3.54.87,4,.06,5.13-3L678.6,55.62Z"/></svg>