<svg id="Layer_1" data-name="Layer 1" xmlns="http://www.w3.org/2000/svg" viewBox="0 0 780 1051.14"><defs><style>.cls-1{fill:#c6946f;}.cls-1,.cls-2,.cls-3,.cls-5,.cls-6{stroke:#fff;stroke-miterlimit:10;}.cls-1,.cls-2,.cls-3,.cls-5{stroke-width:0.42px;}.cls-2{fill:#b58362;}.cls-3{fill:#d4a47c;}.cls-4{fill:#221913;}.cls-5{fill:#005058;}.cls-6{fill:#fff171;stroke-width:0.3px;}.cls-7,.cls-8{fill:#fff;}.cls-7{opacity:0.7;}.cls-8{font-size:38.5px;font-family:ABCSerifBold, ABCSerif;}</style></defs><path class="cls-1" d="M576.63,659c.34.6-3.48,1.59-3.94,1.64-6.68.62-15.12.72-21-1.93-6.91-3.12-25.91-5.8-32.84-8.86-12.44-5.51-17.81-6.88-30.73-11.1-6.53-2.14-13.55-5-18.36-8.88s-8.4-9.13-13.3-12.73a9.6,9.6,0,0,1-1.05-.86l22-27.54c4.65,2.91,9.44,5.42,14.32,7.93,6.73,3.45,14,5.58,20.92,8.79,7.15,3.33,14.11,7,21.26,10.37A126.85,126.85,0,0,0,568.65,626l1.38.51c24.52.11,28.52-.63,51-2.33,10.66-.81,21.44.51,32-1.14s21.07-5.52,28.84-12.87c2.59-2.46,5-5.38,8.42-6.46s8.07.92,8,4.49a88.84,88.84,0,0,1,36.74-4c.55,0,1.47,1.55,1.08,1.94-6.27,6.29-15.74,8.61-24.21,11.46-11.24,3.79-22.52,7.5-33.79,11.21l-51.67,17c-17.42,5.73-35,11.42-53,14.8"/><path class="cls-1" d="M697.59,607.6a2.65,2.65,0,0,0-.62.67c-.37.47-.8.9-1.18,1.37a10.65,10.65,0,0,1-.94,1c-.38.36-.74.71-1.15,1s-.59.45-.9.65a5.5,5.5,0,0,1-.94.47c-.7.33-1.41.63-2.12.93a4.84,4.84,0,0,0-1.54.93c-.59.56-1.11,1.19-1.71,1.74-.39.36-.81.66-1.23,1s-.59.41-.89.61-.7.49-1.06.7a6,6,0,0,1-.56.37c-.13.06-.27.09-.39.16a4,4,0,0,1-.48.19,5.38,5.38,0,0,0-1,.34c-.11.07-.5.14-.47.3"/><path class="cls-1" d="M691.33,605.61l.32-.26,1.9-1.44a3.24,3.24,0,0,1,2.27-.93,2.72,2.72,0,0,1,1.74,1.31,2,2,0,0,1,.45,1.27,2.09,2.09,0,0,1-.63,1.1,14.41,14.41,0,0,1-3.65,2.81,1.73,1.73,0,0,1-1.33.27,1.79,1.79,0,0,1-.61-.36,3.63,3.63,0,0,1-1.09-1.46,2,2,0,0,1,.13-1.78A2.1,2.1,0,0,1,691.33,605.61Z"/><path class="cls-1" d="M710.31,612.71c-.11-.32-.24-.63-.32-1a.62.62,0,0,1,0-.38c.07-.13.23-.23.33-.35"/><path class="cls-1" d="M711.76,611.11c.06.2.13.4.2.6s0,.3.1.46"/><path class="cls-1" d="M712.27,610.83l.2.58c0,.1.06.2.1.3a1.75,1.75,0,0,1,0,.33"/><path class="cls-1" d="M713.32,610a1.71,1.71,0,0,0,.17.39c.11.15.26.27.38.42a1.87,1.87,0,0,1,.22.39,1.94,1.94,0,0,1,.17.42"/><path class="cls-1" d="M714.38,613c.07.2.22.35.3.55a2.25,2.25,0,0,0,.08.24c0,.09,0,.25,0,.33"/><path class="cls-1" d="M713.85,614.55c-.06-.18-.06-.35-.12-.52l-.16-.49"/><path class="cls-1" d="M713.37,614.6l-.21-.65"/><path class="cls-1" d="M712,614.85c-.09-.27-.19-.54-.28-.82a1.82,1.82,0,0,1-.09-.77"/><path class="cls-1" d="M732,605.67c-4.29,1.81-15.4,5.49-19.84,6.89-4.15,1.31-8.24,1.52-11.47,4.53"/><path class="cls-1" d="M725.88,610c-6.75,2.41-13.42,4.81-20.21,7.1"/><path class="cls-1" d="M733.9,604.58c-1-2.52-3.87-1.39-4.77-1.13-1.56.46-1.52.55-1.62,2a13.92,13.92,0,0,0,.43,1.49"/><path class="cls-1" d="M730.94,608.64a4.29,4.29,0,0,1-.18-1.14c.09-.22.14-.45.23-.67a2.32,2.32,0,0,1,.59-.87c.5-.51,1.48-.61,2.13-.85a2.92,2.92,0,0,1,2.76.6c.23.23.33,1-1.07,1.7Z"/><path class="cls-1" d="M725.26,612.69a5.57,5.57,0,0,1-.06-.65,4.42,4.42,0,0,1,.3-1.28,1.64,1.64,0,0,1,.58-.91,2.39,2.39,0,0,1,.91-.26c1.19-.21,2.53-.75,3.64,0a1,1,0,0,1,.38.39c.36.68-.66,1.33-1.14,1.58Z"/><path class="cls-2" d="M101.84,379a22.54,22.54,0,0,1,18.81,8c9.7,11.27,16.19,23.7,23.22,36.49l4.91,8.93c1.17,2.12,2,5.15,3.76,6.92,4.76,4.83,10.71,12.52,15.43,17.4,4.47,4.6,18.74,17,23.75,21,2.26,1.82,4.55,3.73,6.95,5.36.66.46,3.94,2.11,8,4.13,10.52,5.22,22.65.81,26.27-9.56l2.16-6.2c2.3-6.6-.06-14.28-5.92-19-3.72-3-7.48-5.91-11.21-8.87-6-4.78-21.72-17.58-27.9-22.17-2.21-1.64-4.42-3.32-6.55-5.07-1.54-1.27-2.85-2.75-4.35-4.07-9.1-8-17.53-16.72-25.88-25.48-8-8.36-15.68-16.39-22-26a152.58,152.58,0,0,0-14.4-18.39c-5-5.6-11.11-9.45-16.66-14.48-2.16-2-4.11-4.13-6.27-6.08-3.71-3.34-9.64-8.63-14.36-10.27-1.45-.5-2.9-1.31-4.37-1.66a34.07,34.07,0,0,0-4.71-.43c-1.49-.15-3.14-.35-4.25.79a7,7,0,0,0-1.42,3.11c-.4,1.56.4,2.54,1.39,4,1.84,2.61,3.82,5.13,5.85,7.61a20.72,20.72,0,0,1,1.32,1.94c3.51,5.5,7.44,10.64,10.54,16.45a22.82,22.82,0,0,1,2,4.66,22.28,22.28,0,0,1,.49,6.3c-.1,5.21-.88,10.64-.34,15.87a12.22,12.22,0,0,0,1.57,5.21c1,1.7,2.85,2.24,4.61,2.67A31.87,31.87,0,0,0,101.84,379Z"/><path class="cls-3" d="M574.1,648.09c-3.32-7.5-6.5-17.13-15-21.69-9.28-5-14.46,3.37-23.13,5.87l-2.57.73c-1.27-4.13-6-6.84-9.42-9.73-10.18-8.55-18.68-17.4-24.37-29.27a.3.3,0,0,0-.58.14c.25,3.68-1.43,7.47-1.3,11.15.2,5.79-9.43-4.42-6.58.57,2.52,4.4,17,24.88,19.81,29-2.72.09-4.63.25-4.69.57-1.88,9.94,18.62,21.81,18.41,32,0,2.06-.34,3.57.08,5.62s.8,3.9,1.15,5.86a15.08,15.08,0,0,0,2.69,5.46,53.67,53.67,0,0,0,3.55,4.87c3.36,4.07,8.47,6.4,13.12,8.43s9.74,4.56,14.95,3.77c3.26-.49,4.44-3.06,6.77-5.67,1.21-1.36,3.71-1,4.24-2.64.2-.65.68-1.32.82-2s-.07-1.68,0-2.5a16.62,16.62,0,0,0,.46-4.52c-.19-1.6-.14-3.18-.37-4.76a24,24,0,0,1-.34-4.67c0-1.53,0-3.28.18-4.82.62-5,4.68-9.81,6.83-14.32C581.67,649.83,575.77,651.85,574.1,648.09Z"/><path class="cls-4" d="M569.35,692.06c-8.42,1.67-13.36-1.95-21.62-4.32-13.36-3.82-26.37-6.18-38.16-13a15.65,15.65,0,0,0-3.91-1.82c-4-1-8.36,1.39-10.29,4.84S493.64,685.4,495,689c2.61,6.93,9.16,13.49,15.6,17.49,1.62,1,3.17,2.19,4.84,3.11a22.56,22.56,0,0,0,5.69,1.78c3.54.89,7,1.88,10.78,1.89a43.56,43.56,0,0,0,9.24-1c2.93-.59,5.82-.43,8.72-1s5.93-1,8.71-2.43c2.12-1.05,4.23-1.92,6.31-3.14a21.66,21.66,0,0,0,3.58-3.17c1.59-1.41,2-2.63,2.62-4.58.74-2.34,2.91-7.59-1.74-5.9"/><path class="cls-4" d="M488.53,652.1c-2.27.45-5.56.38-7.56,1.49-2.2,1.22-3.54,5.74-4.52,8.22-1.59,4.06-1.84,14,1.58,17.29,3.71,3.55,11.24,6,16.07,5.63,2.75-.19,11.7-1.85,9.8-6.72-3.22-1.75-6.09,3.51-7.21,6.13-1,2.41.11,7.94,1.94,9.89,2.55,2.74,5.54,1.93,8.51,1.33,2.68-.54,5.81-.61,8.11-2.2,2.06-1.43,5.14-4.36,6-6.91.57-1.64.3-9-.94-10.7-1.05-1.48-1.64-.8-3.05-.6a5.86,5.86,0,0,1-3.72-.24c-1-.33-2.43-.44-3-1.34a6.3,6.3,0,0,0,.32-3.26,3.76,3.76,0,0,0-1.6-2.74"/><path class="cls-3" d="M342.11,595.5c4.87-.91,31.78,14.16,36.65,14.3.71,0,1.42-.34,2.16-.32,1.65,0,3.58.32,5.23.46a26.33,26.33,0,0,1,7.36,2.13c4.53,2,9.5,2.74,13.92,4.76,4.78,2.19,10.17,2.48,14.71,4.93,10.21,5.51,19.52,12.72,29,19.45,4.68,3.31,8.62,7.73,13.42,10.88,2.91,1.91,5.31,4,8,6.18,1.72,1.34,6.16,2.67,6.64,4.94-1.33,1.8-3.91,1.84-5.91,2.25-3.2.65-4.55-4.19-7.79-5-2.9-.71-5.45-.25-8.33-1-7.42-2.06-39.66-9.59-55.72-22.38-2.51-2-50.41-27.53-53-29.4C343.28,603.88,348.22,594.36,342.11,595.5Z"/><path class="cls-5" d="M505.59,604.06c-1.1-3.86-10.68-19.58-13.37-22.36-10.13-10.5-23.23-18.87-38.39-17.23a21.18,21.18,0,0,1-6.35.22c-3.08-.62-5.92-3.31-8.61-4.88-3.57-2.09-7.25-4-11-5.79-10.24-4.82-21.21-7.46-31.55-12q-19.89-8.67-40.2-16.35c-12.91-4.88-27.33-9.87-41.25-7.11L313,520.37c1.11.73,2.53,1,3.71,1.69,1.38.78,3,.92,4.37,1.67A140.28,140.28,0,0,1,341,536.58c6.21,4.87,13.13,10.37,16.09,17.85a18,18,0,0,1,.73,3.13c.73,3.85,2.32,7,2.28,11.1-.1,11.61-7.83,21.76-17.95,26.84a65.63,65.63,0,0,1-14,4.83c-2.89.7-26.84-6-30-5.39,1.5.57,3.92,5.76,5.44,6.31,4.59,5.07,22,6.6,25.55,7.16,30.5,4.75,61.43,1.76,90.39,15.1,2.92,1.34,8.12,5.52,11.38,5.12,3.59-.45,5.16-5.1,8.53-6.11,4.32-1.29,8.68-2.43,13.09-3.39a142.78,142.78,0,0,1,26.77-3.35c3.46-.08,6.93,0,10.39.18,2.25.13,5.79,1.58,7.76.47C500.11,608,503.68,606.06,505.59,604.06Z"/><path class="cls-1" d="M363.79,556.1c-3.41-23-16.49-25.37-30.1-36.93C315.83,504,303.3,501,284.41,486.35c-16.53-12.83-35.35-23.72-55.65-29.36a18.26,18.26,0,0,0-5.87-7c-3.87-2.78-7.77-5.52-11.66-8.28-6.27-4.45-22.6-16.42-29-20.68-2.29-1.53-4.58-3.08-6.8-4.73-1.6-1.18-3-2.6-4.55-3.83-9.51-7.52-18.39-15.79-27.18-24.1-8.4-7.94-16.51-15.56-23.36-24.85A151.59,151.59,0,0,0,105,345.87c-5.34-5.32-11.58-8.85-17.39-13.59-2.26-1.85-4.32-3.92-6.58-5.75C77.16,323.39,71,318.41,66.16,317c-1.47-.43-3-1.16-4.45-1.43a32.59,32.59,0,0,0-4.73-.18c-1.49-.08-3.15-.19-4.2,1a6.82,6.82,0,0,0-1.26,3.18c-.32,1.57.53,2.52,1.59,3.87,2,2.52,4.08,4.94,6.25,7.31a22.73,22.73,0,0,1,1.41,1.86c3.79,5.31,8,10.24,11.39,15.88a22.39,22.39,0,0,1,2.25,4.55,21.87,21.87,0,0,1,.82,6.27c.18,5.2-.32,10.67.49,15.87a12.25,12.25,0,0,0,1.83,5.12c1.06,1.64,3,2.08,4.75,2.43a32.06,32.06,0,0,0,9.59.49,22.48,22.48,0,0,1,19.19,7c10.27,10.74,17.4,22.82,25.09,35.23A148.79,148.79,0,0,0,162,457.39c4.7,4.36,19.59,15.95,24.8,19.71,2.36,1.69,4.74,3.48,7.22,5,.45.27,2,1,4.23,2l.16.21c14.23,16.88,25.92,35.82,39.52,53.22q14,17.91,29,35.08c8.57,9.81,16.82,21.37,28.71,27.62,11.35,6,24.51,8,36.16,5.56,7.37-1.54,14.22-4.89,18.85-10.28C357,588,365.31,566.39,363.79,556.1Z"/><path class="cls-3" d="M595,649.89c5.22-1.44,10.46-2.76,15.66-4.12,10.8-2.84,21.64-5.56,32.46-8.31,4-1,8.08-2.18,12.14-3.16,5.87-1.43,12.36-2.63,16.32-7.7a16.7,16.7,0,0,1,3.83-3.86,67.06,67.06,0,0,1,12.28-6.84c4.27-1.83,8.58-3.21,12.67-5.48a58,58,0,0,1,10.4-4.88,4.34,4.34,0,0,1,.81-.19c.35,0,2.1-.55,2.44-.51,1.28.17,1.22.77,2.45,1.28.4-.2.82-.38,1.22-.61a21.22,21.22,0,0,1,2.19-.94c.72-.29,1.39-.63,2.12-.88.28-.09.51-.23.79-.32s.79-.26,1.18-.4c1.07-.38,2.24-.49,3.32-.82a10.7,10.7,0,0,1,3.24-.76,1.22,1.22,0,0,1,.9.42,1.34,1.34,0,0,0,.5.44c.31.17.8.32.92.68a.9.9,0,0,1,0,.51c.69-.39.84-.71,1.3-1s.93-.09,1.46.07a1.36,1.36,0,0,1,1,.76,1.45,1.45,0,0,1-.07,1.37,5.62,5.62,0,0,1-2.08,1.82,13.94,13.94,0,0,1-2.83,1.49,4.78,4.78,0,0,0-1.37.54c.52-.1,1-.22,1.39.36.14.23.33.48.24.75a4.81,4.81,0,0,1-.26.5,1.65,1.65,0,0,1-.35.4l-.57.43a4.92,4.92,0,0,1-1,.56,2.45,2.45,0,0,0-.61.25l-1.41.8-5.14,2.93c-18.36,17.18-83.31,38.23-124.48,57.79l-12.52,3.08c-3,1-6.19,1.76-9.21,2.48a59.71,59.71,0,0,1-9,1.14c-4.58.37-9.15.94-13.75,1.07-5.24.15-10.5,1.13-15.77,1.46-1.45.09-3,0-4.46.11-11.07,1.12-17.63-6.38-28.45-9.55-10.43-3.05-23.8-1.8-33.06-7.18-11-6.38-27.8-5.46-36.3-15.56-3.45-4.1-4.71-15.26-3.15-20.42,1.78-5.91,8.73-8.65,13.8-10,12.53-3.25,21.24-4.56,34.14-4.66,17.91-.13,18.54,5.74,23.92,11.2,6.54,6.62,13.12,13.79,20.89,19l26,8.2Z"/><path class="cls-3" d="M711.55,615.44c-.17-.3-.37-.6-.52-.92a.64.64,0,0,1,0-.41,2.47,2.47,0,0,1,.27-.42"/><path class="cls-3" d="M712.09,614l.33.59c.09.15.11.3.2.46"/><path class="cls-3" d="M712.55,613.5l.33.57.16.29a1.46,1.46,0,0,1,.12.33"/><path class="cls-3" d="M713.07,612.53a1.32,1.32,0,0,0,.26.36c.14.14.32.24.48.37a3.37,3.37,0,0,1,.3.36,2.19,2.19,0,0,1,.26.41"/><path class="cls-3" d="M715.35,615.66c.11.2.3.32.42.51a1.71,1.71,0,0,0,.13.23c.05.1.06.27.13.34"/><path class="cls-3" d="M715.11,617.39c-.1-.17-.13-.35-.23-.52l-.27-.48"/><path class="cls-3" d="M714.62,617.54l-.35-.63"/><path class="cls-3" d="M713.21,618.09c-.15-.27-.3-.54-.46-.8a2.16,2.16,0,0,1-.25-.78"/><path class="cls-3" d="M730.29,608.46c-1.22.7-6.29,3.64-7.51,4.33l-1.84,1.05-.93.52c-.34.19-.62.45-.94.65-.87.54-1.68,1.17-2.57,1.67l-1.09.62c-.65.37-1.34.63-2,1-.5.23-1,.44-1.47.72s-.87.49-1.3.74l-5.29,3a17.5,17.5,0,0,0-2.18,1.58,17,17,0,0,1-2,1.67"/><path class="cls-3" d="M728.11,606.51a2.48,2.48,0,0,1-.2-1.62,2.36,2.36,0,0,1,.94-1.41,5.31,5.31,0,0,1,2.87-1,2.07,2.07,0,0,1,1.16.5.32.32,0,0,1-.09.49,225.23,225.23,0,0,1-20.36,11.65c-1.1.62-2.36,1-3.49,1.54a2,2,0,0,1-.55.17c-.22.13-4.5,2.45-4.74,2.57"/><path class="cls-3" d="M716.06,606.07c.09.11.06.3.05.43a.83.83,0,0,1-.17.52,3.85,3.85,0,0,1-1.53,1.14c-1.07.61-2.15,1.21-3.21,1.83-.3.17-.62.27-.92.43s-.44.25-.66.38c-.38.21-.76.42-1.13.64-1,.57-2,1.12-3,1.7-.8.48-1.5,1.14-2.27,1.66-.31.2-.65.35-1,.54a7.52,7.52,0,0,0-1,.82c-.3.26-.6.55-.92.79s-.66.32-1,.55-.3.31-.47.44-.24.12-.35.19-.33.26-.51.38-.23.08-.26.22a.69.69,0,0,0,.29-.16.07.07,0,0,0,.07.06"/><path class="cls-3" d="M705.32,613.24c-.18-.1-1.5-1.18-1.28-1.31"/><path class="cls-3" d="M705.43,612.65a8.21,8.21,0,0,0-.63-.8"/><path class="cls-3" d="M706.38,612.28c0-.22-.41-.56-.53-.68l-.41-.42c-.08-.09-.16-.22-.28-.25"/><path class="cls-3" d="M732.33,607.61c-.07-.17-.39-.7-.35-.87s0-.4.09-.6a2.19,2.19,0,0,1,.56-1.06,9.68,9.68,0,0,1,1.46-1,1.89,1.89,0,0,1,.39-.26,1.17,1.17,0,0,1,.26-.1,7.25,7.25,0,0,1,1.37-.39c.35,0,.36.21.67.37s.46.68-.67,1.67Z"/><path class="cls-3" d="M728.78,612a4,4,0,0,1-.4-.84c0-.18,0-.37,0-.54a1.48,1.48,0,0,1,.31-.9,5.74,5.74,0,0,1,1-.7,2.75,2.75,0,0,1,.28-.19l.2-.05a3.79,3.79,0,0,1,1-.18c.27,0,.31.24.58.43s.45.68-.32,1.43Z"/><path class="cls-3" d="M712.89,609a4,4,0,0,1-.4-.84c0-.18,0-.37,0-.55a1.48,1.48,0,0,1,.31-.89,5.74,5.74,0,0,1,1-.7,1.73,1.73,0,0,1,.28-.19l.2-.05a3.79,3.79,0,0,1,1-.18c.27,0,.32.24.58.43s.46.68-.32,1.43Z"/><path class="cls-6" d="M522.85,644.54c1,.39,2,.83,3,1.26a5.75,5.75,0,0,1,.54.25l.33.11a36.38,36.38,0,0,1-2.84-3.58,57.14,57.14,0,0,0-5.17-5.73C517,635,498.27,615,498.14,615.16a7.58,7.58,0,0,1-.44,1.15c-.29.5-.23.41-1.45.65a7,7,0,0,1-2.38,0c4.42,4.37,8.78,8.8,13.2,13.18s8.54,8.83,13.38,12.58C521.37,643.41,522.14,644,522.85,644.54Z"/><path class="cls-6" d="M432.43,628.23a6.7,6.7,0,0,1-1.25.51,3.34,3.34,0,0,1-2.14-.06,41,41,0,0,0,1.29,15.25,46.57,46.57,0,0,0,3.08,8.53l3.15,1.1,1.67.46.12,0,.07,0,1.43.36a15.92,15.92,0,0,1-3.1-4.89,43.94,43.94,0,0,1-2.44-7,36.08,36.08,0,0,1-.94-14.83C433.06,627.9,432.75,628.07,432.43,628.23Z"/><path d="M127.67,678.73a68.37,68.37,0,0,0,25.22,22.81,81.79,81.79,0,0,0,30,8.72,88.41,88.41,0,0,0,16.43.06c1.91-.17,1.93-3.17,0-3-19.82,1.76-40.89-3.08-56.41-16a65,65,0,0,1-12.69-14.16c-1.06-1.6-3.66-.1-2.59,1.52Z"/><path d="M186.2,702.73c4.44,2.16,8.64,4.75,12.89,7.23l-.3-2.35c-1.75,1.78-3.41,3.63-5.13,5.43s-3.26,3.28-4.85,5c-1.33,1.41.79,3.53,2.12,2.12,1.59-1.68,3.25-3.28,4.85-5s3.38-3.66,5.13-5.44a1.52,1.52,0,0,0-.3-2.36c-4.26-2.48-8.46-5.07-12.89-7.23-1.73-.85-3.25,1.74-1.52,2.59Z"/><path d="M53.76,583.75c3.48,0,5.48,1.31,5.48,4.27a4,4,0,0,1-2.34,3.87A4,4,0,0,1,59.71,596c0,3-1.9,5-5.87,5H47V583.75Zm-3.69,7h3.52c1.58,0,2.57-.76,2.57-2.31s-.87-2.08-2.45-2.08H50.07Zm0,7.67h3.79c1.68,0,2.72-.79,2.76-2.46s-1.18-2.54-3-2.54H50.07Z"/><path d="M67.87,588c3.23,0,6,2.19,6,6.6,0,3.63-2.14,6.59-6.16,6.59-4.37,0-6.17-3-6.17-6.59C61.58,590.16,64.37,588,67.87,588Zm-3.08,6.6c0,2,.69,4,3,4,2.09,0,3-2,3-4,0-2.86-1.4-4-3-4S64.79,591.66,64.79,594.57Z"/><path d="M88.71,582.17V601H86.15l-.35-2.22a4.52,4.52,0,0,1-4.12,2.37c-3.47.05-5.54-2.84-5.54-6.63,0-4.64,3-6.56,5.52-6.56a4.09,4.09,0,0,1,4,2.44v-7.84ZM79.29,594.5c0,2.2.87,3.92,3.16,3.92s3.25-1.72,3.25-3.89c0-2.94-1.58-4-3.28-4S79.29,591.66,79.29,594.5Z"/><path d="M94,588.09l3.18,9.12h.2l2.91-9.12h3.16L98.7,601.21c-1.58,4.31-3.06,5.4-7.62,4.44l.54-2.59c2.92.71,3.31.05,4.22-2.49L91,588.09Z"/><path d="M111.18,597.31a6.73,6.73,0,0,0,4.2,1.43c1.48,0,2.34-.44,2.34-1.5,0-2.52-7.47-.84-7.23-5.58.1-2.31,1.8-3.69,5.23-3.69a10.55,10.55,0,0,1,4.66,1.2l-1.08,2.17a7.41,7.41,0,0,0-3.7-1.06c-1.21,0-2.22.4-2.17,1.41.15,2,7.32.47,7.32,5.45,0,2.66-2.39,4-5.45,4a8.86,8.86,0,0,1-5.3-1.68Z"/><path d="M126.3,582.17v8a4.82,4.82,0,0,1,4.24-2.19c3,0,4.49,1.94,4.49,4.61V601H132v-7.45c0-2-.74-3-2.41-3-2.35,0-3.26,1.9-3.26,4V601h-3.06V582.54Z"/><path d="M143.91,588c3.23,0,6,2.19,6,6.6,0,3.63-2.14,6.59-6.16,6.59-4.37,0-6.17-3-6.17-6.59C137.62,590.16,140.41,588,143.91,588Zm-3.08,6.6c0,2,.69,4,3,4,2.09,0,3-2,3-4,0-2.86-1.41-4-3-4S140.83,591.66,140.83,594.57Z"/><path d="M155.55,588.09v7.45c0,2,.79,3,2.59,3,2.35,0,3.31-2.42,3.31-4.86v-5.62h3.05V601h-2.44l-.44-2.81a4.71,4.71,0,0,1-4.46,3c-3.16,0-4.66-1.95-4.66-5.2v-7.87Z"/><path d="M170.72,582.17v14.62c0,1.38.62,1.75,1.53,1.75a2.43,2.43,0,0,0,1.28-.46l.57,2.19a5.35,5.35,0,0,1-2.79.89c-2.56,0-3.65-1.73-3.65-4.07V582.54Z"/><path d="M187.17,582.17V601h-2.56l-.35-2.22a4.52,4.52,0,0,1-4.12,2.37c-3.47.05-5.55-2.84-5.55-6.63,0-4.64,3-6.56,5.53-6.56a4.1,4.1,0,0,1,4,2.44v-7.84Zm-9.42,12.33c0,2.2.86,3.92,3.16,3.92s3.25-1.72,3.25-3.89c0-2.94-1.58-4-3.28-4S177.75,591.66,177.75,594.5Z"/><path d="M49.87,616.08v8.22a4.4,4.4,0,0,1,4.31-2.42c2.44.07,5.06,1.73,5.06,6.48,0,3.9-2,6.71-5.45,6.71a4.28,4.28,0,0,1-4.07-2.37l-.42,2.22H46.81V616.48Zm-.12,12.36c0,2.22.81,4,3.25,4,2,0,3.11-1.5,3.11-4,0-3-1.51-3.95-3.14-3.95S49.75,625.85,49.75,628.44Z"/><path d="M73.27,631.37a5.76,5.76,0,0,1-5.57,3.7c-4.34,0-6.26-2.71-6.26-6.75s2.71-6.54,6.43-6.44c3,.07,5.75,2.34,5.45,6.46l0,.4H64.54c0,2.19.94,3.69,3.18,3.69a2.87,2.87,0,0,0,2.79-2Zm-3.13-4.21c0-2-1-2.94-2.54-2.89a2.88,2.88,0,0,0-2.91,2.89Z"/><path d="M87.26,631.3c-.84,2.64-3,3.77-5.63,3.77-4.24,0-6.06-3.15-6.06-6.61,0-4.21,2.61-6.51,6.14-6.58,3.11-.07,5,1.53,5.5,3.8l-2.84.91a2.54,2.54,0,0,0-2.61-2.12c-1.78,0-3.13,1.31-3.13,3.94,0,2.1.79,4,3.08,4a2.6,2.6,0,0,0,2.71-2Z"/><path d="M95.55,621.88c3.23,0,6,2.19,6,6.61,0,3.62-2.15,6.58-6.17,6.58-4.36,0-6.16-3-6.16-6.58C89.26,624.07,92,621.88,95.55,621.88Zm-3.09,6.61c0,2,.69,4,3,4,2.1,0,3-2,3-4,0-2.86-1.4-4-3-4C93.84,624.47,92.46,625.58,92.46,628.49Z"/><path d="M106.74,622l.45,2.3a4.3,4.3,0,0,1,4-2.44,3.77,3.77,0,0,1,3.85,2.39,4.52,4.52,0,0,1,4.17-2.39c3,0,4.21,2,4.21,4.63v8.43h-3v-7.44c0-2-.47-3-2.15-3-2.22,0-2.81,1.68-2.81,3.58v6.9h-3.06v-7.44c0-2-.47-3-2.14-3-2.37,0-2.84,1.9-2.84,4v6.51H104.3V622Z"/><path d="M137.87,631.37a5.77,5.77,0,0,1-5.58,3.7c-4.33,0-6.26-2.71-6.26-6.75s2.71-6.54,6.44-6.44c3,.07,5.74,2.34,5.45,6.46l0,.4h-8.73c0,2.19.94,3.69,3.18,3.69a2.89,2.89,0,0,0,2.79-2Zm-3.13-4.21c0-2-1-2.94-2.54-2.89a2.87,2.87,0,0,0-2.91,2.89Z"/><path d="M147.81,622l3.11,9.37h.19L154.2,622h3.13l-4.81,12.92h-3.08L144.75,622Z"/><path d="M170.15,631.37a5.76,5.76,0,0,1-5.57,3.7c-4.34,0-6.26-2.71-6.26-6.75s2.71-6.54,6.43-6.44c3,.07,5.75,2.34,5.45,6.46l0,.4h-8.73c0,2.19.94,3.69,3.19,3.69a2.87,2.87,0,0,0,2.78-2ZM167,627.16c0-2-1-2.94-2.54-2.89a2.88,2.88,0,0,0-2.91,2.89Z"/><path d="M175.31,622l.57,2.67c.59-2,2.09-2.84,4.19-2.79a4.85,4.85,0,0,1,1.33.22l-.47,2.69a5.48,5.48,0,0,0-1.85-.25c-2.27.08-3.13,1.83-3.13,3.9v6.48h-3.06V622Z"/><path d="M187.89,618.35v3.78h3.25l-.42,2.46h-2.83v5.92c0,1.41.64,2,1.67,2a5.43,5.43,0,0,0,1.95-.57l.57,2.34a7.94,7.94,0,0,1-3.28.84c-3,0-4-2-4-4.14v-6.34H183v-2.46H185l.37-3.43Z"/><path d="M198.05,622v12.92H195V624.54h-1.8V622Zm-1.55-5a1.66,1.66,0,0,1,1.82,1.56,1.82,1.82,0,0,1-3.62,0A1.59,1.59,0,0,1,196.5,617Z"/><path d="M212.45,631.3c-.84,2.64-3,3.77-5.62,3.77-4.24,0-6.07-3.15-6.07-6.61,0-4.21,2.62-6.51,6.14-6.58,3.11-.07,5,1.53,5.5,3.8l-2.83.91a2.55,2.55,0,0,0-2.62-2.12c-1.77,0-3.13,1.31-3.13,3.94,0,2.1.79,4,3.08,4a2.61,2.61,0,0,0,2.72-2Z"/><path d="M215.12,622.82a15.36,15.36,0,0,1,4.88-.94c3.9,0,5.33,1.92,5.33,4.93V632a.65.65,0,0,0,.61.74,2.41,2.41,0,0,0,1-.15v2a5,5,0,0,1-2,.39,2.34,2.34,0,0,1-2.35-1.75,5.62,5.62,0,0,1-3.89,1.75c-2.52,0-4.39-1.28-4.42-4s2-4.09,5.26-4.09a19.84,19.84,0,0,1,2.78.25v-.77c0-1.4-.88-2.17-2.66-2.14a10.5,10.5,0,0,0-4,.78Zm7.15,6a13.07,13.07,0,0,0-2.52-.15c-1.48.07-2.41.76-2.44,2.07a1.81,1.81,0,0,0,2.1,1.9,5.09,5.09,0,0,0,2.86-1Z"/><path d="M232.14,616.08v14.63c0,1.38.61,1.75,1.52,1.75A2.46,2.46,0,0,0,235,632l.56,2.19a5.22,5.22,0,0,1-2.78.89c-2.57,0-3.65-1.72-3.65-4.07V616.45Z"/><path class="cls-7" d="M148.79,61.4a36.73,36.73,0,0,1,8.33-23.32,34.4,34.4,0,0,0-45.48-4.38A34.43,34.43,0,0,0,131.9,96a34.33,34.33,0,0,0,25.32-11.11A36.76,36.76,0,0,1,148.79,61.4ZM138,75.49s-3.7-.27-11.47-.27a25.63,25.63,0,0,0-4.93.31l-1.35-2.46c7.78-7.9,12.4-13.63,13-18.71.47-3.66-2-4.82-4.35-4.66a9.73,9.73,0,0,0-6.73,3.92c-.2-.23-1.93-2.07-1.47-2.65A12.43,12.43,0,0,1,130,46.12c5.89,0,9.09,3,8.74,8.51-.46,7-8,13.59-12.63,17.55l8.32-.08c1.77-.15,3-2.54,3.81-4.73,0,0,1.73.5,2,1C139.58,71.53,138.81,75.49,138,75.49Z"/><path class="cls-7" d="M95.79,61.4A36.74,36.74,0,0,1,104.16,38a34.44,34.44,0,1,0,.11,46.9A36.78,36.78,0,0,1,95.79,61.4ZM87.2,75.66H70.92L71,73.39l4.46-.58c.58,0,.81-.23.81-1,.08-10.05,0-19.6,0-19.6l-5.62,1.08c-.19-.31-1.12-2.46-.46-2.73l10.35-4,1,1s-.12,20.87,0,24.37c0,.77.19,1,.73,1l5.08.54Z"/><path class="cls-7" d="M201.79,61.4A36.74,36.74,0,0,1,210.16,38a34.43,34.43,0,0,0-47.76-2.48A34.8,34.8,0,0,0,172,93.43a34.41,34.41,0,0,0,38.24-8.51A36.78,36.78,0,0,1,201.79,61.4ZM181.35,75.49a15.64,15.64,0,0,1-7.86-2.19l1-2.89a21.48,21.48,0,0,0,7,1.66c3.35,0,5.51-1.74,5.55-5.24,0-2.46-1.43-4.35-4.47-4.74a17.82,17.82,0,0,0-5,.24c-.5.11-.89-3-.42-3.08,3-.54,7.62-1.08,8.39-4.89.73-3.62-2-4.82-4.35-4.66A8.43,8.43,0,0,0,175,52.82c-.2-.23-1.7-2.12-1-3a10.43,10.43,0,0,1,8.16-3.69c5.89,0,9.12,3,8.74,8.51a6,6,0,0,1-4,4.5c3.47.62,5.47,2.93,5.66,6.7C192.9,71.83,188,75.49,181.35,75.49Z"/><circle cx="236" cy="61.53" r="34.44"/><text class="cls-8" transform="translate(224.45 75.26)">4</text><path d="M296.49,50.34l-.27,3.12h-5.55V71.34h-3.75V53.46h-5.76V50.34Z"/><path d="M302.64,48.42v9.72a5.86,5.86,0,0,1,5.16-2.67c3.69,0,5.46,2.37,5.46,5.61V71.34h-3.72V62.28c0-2.4-.9-3.69-2.94-3.69-2.85,0-4,2.31-4,4.83v7.92h-3.72V48.87Z"/><path d="M330.78,67a7,7,0,0,1-6.78,4.5c-5.28,0-7.62-3.3-7.62-8.22s3.3-7.95,7.83-7.83c3.69.09,7,2.85,6.63,7.86l-.06.48H320.16c0,2.67,1.14,4.5,3.87,4.5a3.5,3.5,0,0,0,3.39-2.49ZM327,61.89c.06-2.43-1.26-3.57-3.09-3.51a3.5,3.5,0,0,0-3.54,3.51Z"/><path d="M343.32,55.62l.57,2.79a5.8,5.8,0,0,1,5.37-2.94c3.69,0,5.46,2.37,5.46,5.61V71.34H351V62.28c0-2.4-.9-3.69-2.94-3.69-2.85,0-4,2.31-4,4.83v7.92h-3.72V55.62Z"/><path d="M372.3,67a7,7,0,0,1-6.78,4.5c-5.28,0-7.62-3.3-7.62-8.22s3.3-7.95,7.83-7.83c3.69.09,7,2.85,6.63,7.86l-.06.48H361.68c0,2.67,1.14,4.5,3.87,4.5a3.5,3.5,0,0,0,3.39-2.49Zm-3.81-5.13c.06-2.43-1.26-3.57-3.09-3.51a3.5,3.5,0,0,0-3.54,3.51Z"/><path d="M378.39,55.62l3.15,6.18,3.3-6.18h4l-4.35,7.8L389,71.34h-4.26l-3.3-6.12L378,71.34h-4.14l4.83-7.86-4.29-7.86Z"/><path d="M396.81,51.18v4.59h4l-.51,3h-3.45V66c0,1.71.78,2.37,2,2.37a6.83,6.83,0,0,0,2.37-.69l.69,2.85a9.82,9.82,0,0,1-4,1c-3.69,0-4.83-2.46-4.83-5V58.77H390.9v-3h2.37l.45-4.17Z"/><path d="M424.35,67a7,7,0,0,1-6.78,4.5c-5.28,0-7.62-3.3-7.62-8.22s3.3-7.95,7.83-7.83c3.69.09,7,2.85,6.63,7.86l-.06.48H413.73c0,2.67,1.14,4.5,3.87,4.5A3.5,3.5,0,0,0,421,65.82Zm-3.81-5.13c.06-2.43-1.26-3.57-3.09-3.51a3.5,3.5,0,0,0-3.54,3.51Z"/><path d="M431.4,48.42V66.21c0,1.68.75,2.13,1.86,2.13a2.93,2.93,0,0,0,1.56-.57l.69,2.67a6.47,6.47,0,0,1-3.39,1.08c-3.12,0-4.44-2.1-4.44-5V48.87Z"/><path d="M450.69,67a7,7,0,0,1-6.78,4.5c-5.28,0-7.62-3.3-7.62-8.22s3.3-7.95,7.83-7.83c3.69.09,7,2.85,6.63,7.86l-.06.48H440.07c0,2.67,1.14,4.5,3.87,4.5a3.5,3.5,0,0,0,3.39-2.49Zm-3.81-5.13c.06-2.43-1.26-3.57-3.09-3.51a3.5,3.5,0,0,0-3.54,3.51Z"/><path d="M457,55.62l.54,2.79a5.25,5.25,0,0,1,4.86-3,4.58,4.58,0,0,1,4.68,2.91,5.53,5.53,0,0,1,5.07-2.91c3.69,0,5.13,2.4,5.13,5.64V71.34h-3.72V62.28c0-2.4-.57-3.69-2.61-3.69-2.7,0-3.42,2-3.42,4.35v8.4H463.8V62.28c0-2.4-.57-3.69-2.61-3.69-2.88,0-3.45,2.31-3.45,4.83v7.92H454V55.62Z"/><path d="M494.85,67a7,7,0,0,1-6.78,4.5c-5.28,0-7.62-3.3-7.62-8.22s3.3-7.95,7.83-7.83c3.69.09,7,2.85,6.63,7.86l-.06.48H484.23c0,2.67,1.14,4.5,3.87,4.5a3.5,3.5,0,0,0,3.39-2.49ZM491,61.89c.06-2.43-1.26-3.57-3.09-3.51a3.5,3.5,0,0,0-3.54,3.51Z"/><path d="M501.12,55.62l.57,2.79a5.8,5.8,0,0,1,5.37-2.94c3.69,0,5.46,2.37,5.46,5.61V71.34H508.8V62.28c0-2.4-.9-3.69-2.94-3.69-2.85,0-4,2.31-4,4.83v7.92h-3.72V55.62Z"/><path d="M521.13,51.18v4.59h4l-.51,3h-3.45V66c0,1.71.78,2.37,2,2.37a6.83,6.83,0,0,0,2.37-.69l.69,2.85a9.82,9.82,0,0,1-4,1c-3.69,0-4.83-2.46-4.83-5V58.77h-2.19v-3h2.37L518,51.6Z"/><path d="M539.76,55.62V71.34H536V58.71h-2.19V55.62Zm-1.89-6.12a2,2,0,0,1,2.22,1.89,2.22,2.22,0,0,1-4.41,0A1.93,1.93,0,0,1,537.87,49.5Z"/><path d="M544,66.84a8.15,8.15,0,0,0,5.1,1.74c1.8,0,2.85-.54,2.85-1.83,0-3.06-9.09-1-8.79-6.78.12-2.82,2.19-4.5,6.36-4.5a12.78,12.78,0,0,1,5.67,1.47l-1.32,2.64a8.9,8.9,0,0,0-4.5-1.29c-1.47,0-2.7.48-2.64,1.71.18,2.49,8.91.57,8.91,6.63,0,3.24-2.91,4.92-6.63,4.89a10.76,10.76,0,0,1-6.45-2Z"/><path d="M569.79,51.18v4.59h4l-.51,3h-3.45V66c0,1.71.78,2.37,2,2.37a6.83,6.83,0,0,0,2.37-.69l.69,2.85a9.82,9.82,0,0,1-4,1c-3.69,0-4.83-2.46-4.83-5V58.77h-2.19v-3h2.37l.45-4.17Z"/><path d="M581,48.42v9.72a5.86,5.86,0,0,1,5.16-2.67c3.69,0,5.46,2.37,5.46,5.61V71.34h-3.72V62.28c0-2.4-.9-3.69-2.94-3.69-2.85,0-4,2.31-4,4.83v7.92h-3.72V48.87Z"/><path d="M609.12,67a7,7,0,0,1-6.78,4.5c-5.28,0-7.62-3.3-7.62-8.22s3.3-7.95,7.83-7.83c3.69.09,7,2.85,6.63,7.86l-.06.48H598.5c0,2.67,1.14,4.5,3.87,4.5a3.5,3.5,0,0,0,3.39-2.49Zm-3.81-5.13c.06-2.43-1.26-3.57-3.09-3.51a3.5,3.5,0,0,0-3.54,3.51Z"/><path d="M632.52,67a7,7,0,0,1-6.78,4.5c-5.28,0-7.62-3.3-7.62-8.22s3.3-7.95,7.83-7.83c3.69.09,7,2.85,6.63,7.86l-.06.48H621.9c0,2.67,1.14,4.5,3.87,4.5a3.5,3.5,0,0,0,3.39-2.49Zm-3.81-5.13c.06-2.43-1.26-3.57-3.09-3.51a3.5,3.5,0,0,0-3.54,3.51Z"/><path d="M638.79,55.62l.57,2.79a5.8,5.8,0,0,1,5.37-2.94c3.69,0,5.46,2.37,5.46,5.61V71.34h-3.72V62.28c0-2.4-.9-3.69-2.94-3.69-2.85,0-4,2.31-4,4.83v7.92h-3.72V55.62Z"/><path d="M658.8,51.18v4.59h4l-.51,3H658.8V66c0,1.71.78,2.37,2,2.37a6.83,6.83,0,0,0,2.37-.69l.69,2.85a9.82,9.82,0,0,1-4,1c-3.69,0-4.83-2.46-4.83-5V58.77h-2.19v-3h2.37l.45-4.17Z"/><path d="M669,55.62l.69,3.24c.72-2.4,2.55-3.45,5.1-3.39a6.19,6.19,0,0,1,1.62.27L675.84,59a6.48,6.48,0,0,0-2.25-.3c-2.76.09-3.81,2.22-3.81,4.74v7.89h-3.72V55.62Z"/><path d="M682.32,55.62l3.87,11.1h.24L690,55.62h3.84l-5.82,16c-1.92,5.25-3.72,6.57-9.27,5.4l.66-3.15c3.54.87,4,.06,5.13-3L678.6,55.62Z"/></svg>