<svg id="Layer_1" data-name="Layer 1" xmlns="http://www.w3.org/2000/svg" viewBox="0 0 780 1051.14"><defs><style>.cls-1{fill:#c6946f;}.cls-1,.cls-2,.cls-4,.cls-5,.cls-6,.cls-7{stroke:#fff;stroke-miterlimit:10;}.cls-1,.cls-2,.cls-4,.cls-7{stroke-width:0.42px;}.cls-2{fill:#b58362;}.cls-3{fill:#221913;}.cls-4,.cls-5{fill:#d4a47c;}.cls-5{stroke-width:0.28px;}.cls-6{fill:#fff171;stroke-width:0.3px;}.cls-7{fill:#005058;}.cls-8,.cls-9{fill:#fff;}.cls-8{opacity:0.7;}</style></defs><path class="cls-1" d="M478.92,650.9q-7-7.65-14.51-14.77c-7.31-6.89-17.12-46.72-23.39-54.48l3.7,33.12c-.36,1.16.13,2.62.06,3.83a17.57,17.57,0,0,1-.5,3.89,15.81,15.81,0,0,0-.81,3.79c0,1.44.31,2.87.41,4.31.38,5.77,2.41,11.39,4.54,16.78a71.65,71.65,0,0,0,3,7.57c1.69,3.17,3.82,6,5.78,9,1.74,2.66,3.8,5.13,5.75,7.64a39.21,39.21,0,0,0,9.1,8l.49.36c-1.78-.75-4.1-1.89-7.37-3.67a12.23,12.23,0,0,1-5.85-6.39,15,15,0,0,0,0,2.22c.1,1.92,1.09,3.55,1.83,5.49.58,1.5.32,3.22,1.67,4.38,21.89,18.77,21.07,43.84,46.64,68.25l13.42,11.34c9,8.56,24.32,25.85,31.72,32.71,4.6,4.91,8.24,12.68,14.85,18.6,6.28,5.61,15.6,9.46,16.83,10.76,6.39,6.77,12.49,14.08,19.19,20.52l1.78,1.73,2.22,2.15c.36.36.72.72,1.09,1.07a2.17,2.17,0,0,1,.38.48,4.2,4.2,0,0,0,.77.75l.54.41a1.32,1.32,0,0,0,.45.21c.14,0,.39.1.52.11s.45-.23.62-.42c.43-.47.25-.84,0-1.28a7.12,7.12,0,0,1,.79,1,12.6,12.6,0,0,0,2.08,2.18,5.38,5.38,0,0,0,2.19,1.4,1.32,1.32,0,0,0,1.25-.3,1.25,1.25,0,0,0,.45-1.06,1.4,1.4,0,0,0-.55-1.13c-.37-.34-.62-.78-1-1.13l0,0c-1.44-.16.35,0,.5-.12s.31-.68.38-1a1.24,1.24,0,0,1,.26-.57,1.1,1.1,0,0,0,.14-.92,10,10,0,0,0-1.52-2.73c-.59-.89-1-1.92-1.62-2.79-.23-.31-.46-.63-.67-1s-.34-.4-.5-.62c-.42-.6-.9-1.12-1.35-1.69a19.79,19.79,0,0,0-1.42-1.73c-.49-.49-.9-1-1.4-1.5s-.79-1-1.2-1.48a13.55,13.55,0,0,1-1.14-1.66c-.21-.34-.42-.64-.6-1a4.7,4.7,0,0,0-.89-1,17.07,17.07,0,0,1-1.7-1.91c-.71-.93-1.57-1.67-2.2-2.67-.95-1.51-1.95-3-2.92-4.48-.1-.16-.2-.36-.3-.54a2.49,2.49,0,0,1-.3-.52c.11-.17.27-.1.44-.14s.3-.14.46-.18a2.63,2.63,0,0,0,.72-.28,3.86,3.86,0,0,0,1.21-1.07,3.53,3.53,0,0,0,.31-.78,1.34,1.34,0,0,0,.11-.62c0-.14-.1-.28-.11-.43a6.57,6.57,0,0,0-.49-2.45,6.35,6.35,0,0,0-1.27-1.32,5.09,5.09,0,0,0-1.49-.89c-.47-.23-1-.36-1.43-.63s-1.07-.51-1.58-.8a7.72,7.72,0,0,0-1.84-.86,7.83,7.83,0,0,1-1.84-.78c-3.12-1.82-6.27-4.83-9.69-6.59-4.16-2.15-7.69-1.57-11.07-4.68-6.9-6.34-20.85-38.28-25.88-46.07l-.36-1.09c-8.65-13.39-17.83-30.76-27-45.35a401.44,401.44,0,0,0-34.65-47.7Q482,654.31,478.92,650.9Z"/><path class="cls-1" d="M600.63,820.47a2.62,2.62,0,0,0-.88-.25c-.59-.12-1.16-.29-1.75-.42a11.34,11.34,0,0,1-1.29-.4,14.54,14.54,0,0,1-1.43-.55c-.34-.16-.68-.33-1-.51a6.36,6.36,0,0,1-.85-.62c-.61-.47-1.2-1-1.79-1.46a5,5,0,0,0-1.53-1c-.77-.27-1.56-.44-2.33-.72-.5-.19-1-.43-1.44-.65a10.62,10.62,0,0,1-.94-.51c-.37-.22-.76-.4-1.12-.63a5.39,5.39,0,0,1-.58-.32c-.11-.09-.2-.2-.32-.29a3,3,0,0,1-.38-.33,5.43,5.43,0,0,0-.75-.69c-.11-.06-.35-.39-.48-.28"/><path class="cls-1" d="M599.55,814l.37.17,2.16,1a3.33,3.33,0,0,1,1.86,1.6,2.69,2.69,0,0,1-.38,2.14,1.94,1.94,0,0,1-.93,1,2,2,0,0,1-1.25-.06,14.28,14.28,0,0,1-4.18-2,1.76,1.76,0,0,1-.84-1.06,1.55,1.55,0,0,1,0-.71,3.56,3.56,0,0,1,.8-1.64,2,2,0,0,1,1.64-.69A2.23,2.23,0,0,1,599.55,814Z"/><path class="cls-1" d="M601.89,834.11c.23-.23.45-.49.69-.71a.61.61,0,0,1,.36-.15,2,2,0,0,1,.46.14"/><path class="cls-1" d="M604,834.68l-.44.45c-.11.12-.25.18-.37.3"/><path class="cls-1" d="M604.45,835l-.43.45c-.07.07-.14.15-.22.22a2.56,2.56,0,0,1-.26.2"/><path class="cls-1" d="M605.65,835.58a1.44,1.44,0,0,0-.27.33,4.15,4.15,0,0,0-.2.53c-.07.15-.17.23-.25.37a2.43,2.43,0,0,1-.3.34"/><path class="cls-1" d="M603.49,837.87c-.15.15-.21.36-.35.51l-.18.18c-.07.08-.22.13-.27.21"/><path class="cls-1" d="M601.87,838.11c.13-.13.28-.21.4-.34l.37-.37"/><path class="cls-1" d="M601.6,837.71l.48-.49"/><path class="cls-1" d="M600.74,836.57l.6-.62a2,2,0,0,1,.64-.43"/><path class="cls-1" d="M618.06,850.24c-3.57-3-11.91-11.2-15.19-14.52-3.06-3.09-5.1-6.64-9.25-8.14"/><path class="cls-1" d="M611.4,846.74c-5.22-4.9-10.4-9.75-15.54-14.74"/><path class="cls-1" d="M619.74,849.81c1.32-2.38-1.35-3.88-2.13-4.42-1.33-.92-1.38-.83-2.6,0-.2.15-.71,1.09-.89,1.27"/><path class="cls-1" d="M614.92,850.63c.18-.14.73-.67.93-.69s.47-.08.7-.1a2.37,2.37,0,0,1,1,.13c.69.21,1.22,1,1.73,1.51a2.88,2.88,0,0,1,.73,2.72c-.1.31-.7.74-2-.17Z"/><path class="cls-1" d="M608.72,847.42a6.13,6.13,0,0,1,.56-.36,4.15,4.15,0,0,1,1.27-.31,1.57,1.57,0,0,1,1.07.1,2.38,2.38,0,0,1,.65.69c.73,1,1.82,1.91,1.68,3.23a1.07,1.07,0,0,1-.17.52c-.45.63-1.49,0-1.93-.29Z"/><path class="cls-2" d="M149.15,251.41a22.48,22.48,0,0,1,14.66,14.21c5,14,6.54,27.94,8.48,42.41l1.35,10.1c.33,2.4,0,5.53,1,7.81,2.7,6.23,5.47,15.54,8.12,21.8,2.49,5.9,11.34,22.57,14.56,28.13,1.46,2.51,2.9,5.12,4.54,7.51.46.66,2.92,3.39,6,6.75,7.92,8.66,20.82,8.93,27.94.57l4.25-5c4.54-5.32,5.1-13.33,1.33-19.82-2.39-4.12-4.83-8.21-7.24-12.32-3.9-6.64-13.91-24.24-18-30.75-1.47-2.33-2.92-4.69-4.27-7.09-1-1.74-1.67-3.6-2.59-5.36-5.6-10.76-10.31-21.93-14.94-33.12-4.41-10.67-8.7-20.95-11.14-32.22a153,153,0,0,0-6.78-22.35c-2.7-7-6.95-12.82-10.31-19.52-1.31-2.6-2.34-5.34-3.65-7.94-2.25-4.45-5.88-11.52-9.68-14.76-1.17-1-2.23-2.26-3.48-3.12a32.75,32.75,0,0,0-4.24-2.1c-1.33-.68-2.79-1.47-4.24-.8a6.84,6.84,0,0,0-2.45,2.39c-.93,1.31-.55,2.51-.13,4.19.77,3.1,1.7,6.17,2.7,9.22a20.68,20.68,0,0,1,.53,2.27c1.29,6.4,3.1,12.61,3.89,19.15a17.31,17.31,0,0,1-1.62,11.14c-2,4.81-4.66,9.6-6,14.67a12.21,12.21,0,0,0-.42,5.42c.3,1.93,1.85,3.12,3.34,4.16A31.74,31.74,0,0,0,149.15,251.41Z"/><path class="cls-3" d="M472,712.23c-8.45-1.48-11.75-6.65-18.59-11.83C442.33,692,431,685.1,422.52,674.47a15.73,15.73,0,0,0-3-3.11c-3.31-2.35-8.29-1.72-11.34.8s-4.38,6.52-4.42,10.39c-.07,7.4,3.67,15.88,8.23,21.94,1.15,1.52,2.17,3.19,3.39,4.65a23.4,23.4,0,0,0,4.66,3.71c3,2.11,5.9,4.3,9.38,5.66a44,44,0,0,0,9,2.42c2.95.51,5.58,1.7,8.51,2.19s5.9,1.17,9,.88c2.35-.22,4.63-.27,7-.65a21.76,21.76,0,0,0,4.49-1.66c2-.74,2.81-1.73,4.09-3.33,1.54-1.91,5.47-6,.51-6.13"/><path class="cls-3" d="M411.07,645.77c-2.28-.39-5.32-1.64-7.59-1.33-2.49.34-5.37,4.07-7.18,6-2.94,3.2-6.78,12.4-4.77,16.69,2.18,4.64,8.33,9.62,13,11.05,2.64.81,11.59,2.5,11.56-2.72-2.37-2.8-6.94,1.07-8.93,3.1s-2.76,7.45-1.76,9.93c1.38,3.47,4.47,3.8,7.45,4.31,2.69.46,5.64,1.53,8.35.88,2.45-.59,6.38-2.21,8.12-4.27,1.13-1.33,3.52-8.27,3-10.32-.45-1.76-1.24-1.34-2.64-1.66a5.84,5.84,0,0,1-3.37-1.57c-.82-.67-2.11-1.28-2.32-2.33a6.48,6.48,0,0,0,1.47-2.92,3.75,3.75,0,0,0-.5-3.13"/><path class="cls-4" d="M295,540.11c4.88.92,24.53,24.69,29,26.57.65.28,1.44.21,2.13.49,1.52.62,3.22,1.59,4.7,2.32a26,26,0,0,1,6.09,4.64c3.52,3.47,7.88,6,11.27,9.47,3.67,3.77,8.58,6,11.93,9.91,7.54,8.82,13.61,18.91,20.05,28.62,3.16,4.78,5.25,10.33,8.59,15,2,2.83,3.48,5.7,5.24,8.66,1.12,1.87,4.78,4.72,4.41,7-1.89,1.19-4.31.3-6.32,0-3.23-.55-2.74-5.55-5.47-7.46-2.45-1.72-5-2.2-7.39-4-6.18-4.59-33.52-23.27-43.87-41-1.62-2.77-37.07-43.88-38.81-46.56C293.05,548.35,301.09,541.26,295,540.11Z"/><path class="cls-4" d="M479.25,741.86c20.31,17.17,105.25,98.8,126,115.34l4.63,3.7,1.26,1a2.27,2.27,0,0,1,.46.47,4.76,4.76,0,0,0,.89.72l.61.37a1.35,1.35,0,0,0,.5.17,3.89,3.89,0,0,0,.56.07c.29,0,.45-.29.61-.51.41-.54.1-1-.18-1.42a4.88,4.88,0,0,1,1,1.07,13.49,13.49,0,0,0,2.43,2.08,5.7,5.7,0,0,0,2.47,1.26,1.46,1.46,0,0,0,1.29-.45,1.34,1.34,0,0,0,.35-1.17c-.05-.55-.05-1.06-.47-1.38s-.78-.35-1.4-.85a.91.91,0,0,0,.47-.2c.29-.25.25-.76.3-1.11a1.16,1.16,0,0,1,.21-.63,1.18,1.18,0,0,0,0-1,10.67,10.67,0,0,0-1.89-2.73c-.72-.88-1.26-1.92-2-2.78-.28-.31-.55-.62-.81-.94s-.41-.4-.59-.61c-.5-.59-1.07-1.09-1.6-1.65a19.13,19.13,0,0,0-1.69-1.68c-.36-.3-.68-.61-1-.92,0-1.32.6-1.49.28-2.74a24.83,24.83,0,0,0-1.37-2.08,4.72,4.72,0,0,0-.48-.69,58.21,58.21,0,0,0-8.39-7.84c-3.62-3-6.51-6.45-9.79-9.74a67.24,67.24,0,0,0-10.9-8.86,16.46,16.46,0,0,0-5-2.13c-6.18-1.8-9.7-7.38-13.2-12.31-2.42-3.4-5-6.72-7.43-10.1-6.57-9-13.11-18.08-19.75-27.06-6.51-8.8-12.91-17.86-20.25-26"/><path class="cls-4" d="M601.51,840.31c.18-.29.36-.58.51-.88"/><path class="cls-4" d="M616.17,863.43c.13-.13.5-.63.67-.65s.4-.11.6-.14a2.12,2.12,0,0,1,1.18.12,11.59,11.59,0,0,1,1.44,1,3.39,3.39,0,0,1,.39.27,1.18,1.18,0,0,1,.18.21,6.1,6.1,0,0,1,.87,1.13c.14.31,0,.41-.09.76s-.47.67-1.8,0Z"/><path class="cls-4" d="M610.77,861.75c.13-.13.49-.63.64-.68s.33-.14.5-.2a1.55,1.55,0,0,1,1,0,5.61,5.61,0,0,1,1,.72.87.87,0,0,1,.28.19.67.67,0,0,1,.12.16,4.05,4.05,0,0,1,.56.91c.07.26-.1.38-.18.7s-.47.67-1.46.23Z"/><path class="cls-5" d="M429.48,609.67c1,5,7.24,24.66,8.64,29.47-2.6-.77-4.47-1.21-4.62-.92-4.9,8.85-2.29,13.54-5.67,23.16-.69,2-4.47,4.23-4.7,6.32s2.94,13.43,2.67,15.4,13.08,6.6,13.61,8.61a51.7,51.7,0,0,0,1.85,5.73c1.91,4.92,6,8.73,9.83,12.11s7.82,7.37,13,8.25c2.61.44,4.36-.8,6.51-2.21.22.53.42,1,.65,1.57l.22.41a7.51,7.51,0,0,1,1.2-.48,30.35,30.35,0,0,0,4.65-1.59l.47-.27c.75-1.22,1.56-2.4,2.41-3.53.59-.77,1.14-1.55,1.68-2.35l.94-1.64a34.6,34.6,0,0,1,1.37-4.34,14.52,14.52,0,0,0,.89-2.73c.26-1,.78-1.92,1-3,.13-.5,0-1,.13-1.5s.51-.77.52-1.33a21.38,21.38,0,0,0-.73-3.23,27.73,27.73,0,0,1-.57-3.82,3.05,3.05,0,0,0,0-.42c.07,0,.19-.1.4-.4a12.79,12.79,0,0,1,2.07-2.09c1.84-1.74,2.3-1.56,4.2-3.74a29.09,29.09,0,0,0,3.2-4.37,3.57,3.57,0,0,0-1.88-5.21,1.94,1.94,0,0,1-1-.82,5,5,0,0,1-1.17-3.45,20.05,20.05,0,0,0,.72-3.08,19.28,19.28,0,0,0-.78-5.77c-.46-1.53-1.26-2.15-.67-3.62.43-1.06.92-2.11,1.39-3.15.88-1.95,1.13-4-.63-5.56a15.74,15.74,0,0,0-10.06-3.32c-5.66-1.62-11.66,1.94-18.51,1.69l-2.67-.11c.08-4.32-3.54-8.36-5.91-12.19-7-11.3-7.23-9.45-8.93-22.51"/><path d="M474.88,694.45a9.58,9.58,0,0,1-.92-.65c-.18-.13-.53-.41-.54-.66s0-.1.09-.11.22.09.3.12a2,2,0,0,0,.33.08c.45.08.91.1,1.37.17a7.18,7.18,0,0,1,.79.12c1.6.38,3.14,1.31,4.77,1.51a7.45,7.45,0,0,0,4.44-1.26c.14.52.63,2.2.15,2.55-.69.5-2.91.19-3.77.39a6.8,6.8,0,0,1-4.68-.65C476.38,695.6,475.68,695,474.88,694.45Z"/><path class="cls-4" d="M515.36,738.55c-8.93-6.92-16.48-15-24-23.38a301.75,301.75,0,0,0-21.73-21.34c-9.61-8.76-18.7-21.07-23.15-33.3-6.74-11.93-11.76-34.83-12-48,0-.34,0-.68,0-1a5.61,5.61,0,0,0-.31-1.58l-32.44-11.65c-6.35-1.23-27.84-.65-32.95,4.72-3.71,3.9-10.68,23.72-6,26.28,8.67,4.75,13.08,8.88,20.16,16.36,7.68,8.13,13,21.42,19.94,30.15,10.76,13.48,24,20.07,36.72,31.53,1.09,1,2,2.22,3.09,3.23,3.77,3.69,8,6.93,11.65,10.72,3.18,3.32,6.68,6.34,10,9.48a58.3,58.3,0,0,0,6.91,6c2.57,1.76,5.24,3.58,8,5.17"/><path class="cls-4" d="M601.19,847c.21-.27.42-.57.66-.83a.78.78,0,0,1,.36-.19,2.84,2.84,0,0,1,.49.1"/><path class="cls-4" d="M602.77,847l-.42.52c-.11.14-.24.22-.35.36"/><path class="cls-4" d="M603.36,847.24l-.41.51-.21.27a2.85,2.85,0,0,1-.26.23"/><path class="cls-4" d="M604.46,847.36a1.51,1.51,0,0,0-.25.37c-.07.19-.1.4-.16.59a2.38,2.38,0,0,1-.23.41,2.16,2.16,0,0,1-.27.4"/><path class="cls-4" d="M602.39,850.63c-.14.19-.18.41-.32.59l-.16.2c-.07.09-.23.16-.27.25"/><path class="cls-4" d="M600.7,851.06c.12-.16.27-.25.39-.4l.35-.43"/><path class="cls-4" d="M600.38,850.66l.45-.56"/><path class="cls-4" d="M599.34,849.55l.58-.72a1.87,1.87,0,0,1,.63-.52"/><path class="cls-4" d="M614.62,861.84c-1.1-.87-5.72-4.49-6.81-5.37l-1.65-1.32-.83-.66c-.31-.25-.65-.41-1-.64-.82-.61-1.7-1.13-2.5-1.76-.32-.26-.65-.53-1-.78-.58-.47-1.08-1-1.62-1.53s-.79-.76-1.22-1.1l-1.17-.94L592.13,844a16.84,16.84,0,0,0-2.28-1.44,17.71,17.71,0,0,1-2.3-1.27"/><path class="cls-4" d="M615.63,859.1a2.45,2.45,0,0,1,1.42-.79,2.36,2.36,0,0,1,1.66.35,5.47,5.47,0,0,1,2,2.3,2.13,2.13,0,0,1,0,1.27.32.32,0,0,1-.49.1,224.16,224.16,0,0,1-18.36-14.59c-1-.79-1.78-1.83-2.73-2.67a1.59,1.59,0,0,1-.36-.45c-.2-.16-3.94-3.27-4.14-3.45"/><path class="cls-4" d="M611.57,847.74a.75.75,0,0,1-.39.21.86.86,0,0,1-.55,0,4,4,0,0,1-1.62-1c-1-.77-1.92-1.55-2.89-2.31-.27-.21-.48-.48-.74-.7l-.59-.47-1-.81c-.9-.72-1.79-1.46-2.7-2.16-.74-.57-1.61-1-2.38-1.5-.3-.2-.56-.47-.85-.68a7.11,7.11,0,0,0-1.12-.6c-.36-.18-.74-.35-1.09-.56s-.54-.5-.86-.68-.4-.16-.58-.28-.2-.17-.3-.25-.37-.2-.55-.33-.16-.19-.29-.16a.65.65,0,0,0,.25.21.08.08,0,0,0,0,.09"/><path class="cls-4" d="M600.92,840.43c0-.2.55-1.83.75-1.68"/><path class="cls-4" d="M602.2,841.05c.22,0,.38-.58.45-.74s.15-.36.23-.53a.79.79,0,0,0,.13-.35"/><path class="cls-4" d="M607.67,845.88c.12-.13.49-.63.63-.68s.34-.14.51-.2a1.52,1.52,0,0,1,.94,0,6,6,0,0,1,1,.72,1.31,1.31,0,0,1,.27.19,1,1,0,0,1,.13.16,3.68,3.68,0,0,1,.55.91c.07.26-.1.38-.18.7s-.46.67-1.45.23Z"/><path class="cls-6" d="M431.79,612.14a7.24,7.24,0,0,1-.85.9c-.45.35-.36.29-1.58.05a6.84,6.84,0,0,1-2.19-.92c2.44,5.72,4.81,11.46,7.25,17.18s2.9,12.67,6,18c1.94,3.35,1,3.58,3,6.86,0-.06.75,1.42.73,1.35-1.1-2.32-1.64-9.51-2.23-12s-2.3-9.92-3.22-12.31S432,612.07,431.79,612.14Z"/><path class="cls-6" d="M368.31,604.42h-.15a19.88,19.88,0,0,1-3.19-.67c-3.72,6.69-4.94,14.52-5,22.17a2.93,2.93,0,0,0,.21,1.38,3,3,0,0,0,.85.89,14.43,14.43,0,0,0,1.7,1.09,6.39,6.39,0,0,1,1.56,1.27c.4.44.95.33,1.43.59-1.66-3.55-1.65-7.65-1.22-11.54a35.11,35.11,0,0,1,3.92-13.36C368.9,605.38,369.5,604.54,368.31,604.42Z"/><path class="cls-7" d="M441.25,583.92a72,72,0,0,0-6.61-12.83c-5.63-9.12-13.46-16.66-24.27-19.56a21.06,21.06,0,0,1-6-2.09l-.36-.27c-1.44-1.78-2.62-4-3.91-5.65-2.52-3.29-5.2-6.46-8-9.51a56.06,56.06,0,0,0-7.15-6.44c-6.59-6-13.74-11.41-20.11-17.72q-15.42-15.27-31.58-29.77c-10.27-9.21-21.92-19.07-35.9-21.52l-2.44,1c.78,1.09,2,1.88,2.86,2.92,1,1.23,2.43,1.93,3.47,3.14a140.36,140.36,0,0,1,13.94,19.17c4,6.79,8.5,14.42,8.55,22.47a17.27,17.27,0,0,1-.44,3.17c-.71,3.86-.37,7.37-1.88,11.18-4.3,10.79-15.17,17.46-26.44,18.54a65.2,65.2,0,0,1-14.77-.54c-2.95-.39-22.88-15.25-26-15.86,1.19,1.08,1.58,6.79,2.8,7.85,2.45,6.39,18.13,14.11,21.24,15.9,26.72,15.45,56.64,23.84,78.83,46.74,1.71,1.76,4.05,5.52,6.48,7.57,1,1.26,1.76,2.25,1.91,2.49a23.43,23.43,0,0,0,3.93.07s4.08-2.86,7.58-2.52c4.49.44,9,1,13.41,1.8a142.35,142.35,0,0,1,26.05,7q4.86,1.85,9.56,4.08c1.19.57,4.81,4.59,4.81,4.59a16.72,16.72,0,0,0,3.32-2.14c5.64-6.81,8.56-6.34,11.08-7.47C445.62,605.68,442.69,587.51,441.25,583.92Z"/><path class="cls-6" d="M434.11,617.14a8.07,8.07,0,0,1-.85.9c-.46.35-.37.29-1.59.06a7.2,7.2,0,0,1-2.19-.93c2.44,5.72,4.81,11.47,7.25,17.18s2.9,12.67,6,18c1.94,3.36,1,3.58,3,6.87,0-.07.75,1.41.73,1.34-1.1-2.31-1.64-9.51-2.23-12s-2.3-9.92-3.22-12.3S434.27,617.07,434.11,617.14Z"/><path class="cls-1" d="M314.7,465.9c-11.17-20.61-21.78-27.91-34.1-48.4-10.77-17.94-18.37-30.67-35.26-43.26a18.24,18.24,0,0,0-2.93-8.68c-2.61-4-11.28-12.18-13.91-16.16-4.23-6.42-15.14-23.48-19.58-29.77-1.59-2.25-3.16-4.53-4.63-6.86-1.07-1.69-1.86-3.51-2.87-5.22-6.15-10.45-11.43-21.36-16.63-32.29-5-10.43-9.78-20.47-12.81-31.6a152,152,0,0,0-7.93-22c-3.06-6.89-7.61-12.44-11.31-19-1.44-2.53-2.61-5.2-4.06-7.73-2.48-4.33-6.47-11.21-10.43-14.24-1.22-.93-2.35-2.15-3.64-2.94a33.26,33.26,0,0,0-4.34-1.88c-1.37-.6-2.87-1.31-4.28-.57a6.94,6.94,0,0,0-2.33,2.51c-.86,1.35-.41,2.54.09,4.19.93,3.06,2,6.07,3.18,9.06a20.5,20.5,0,0,1,.65,2.25c1.62,6.33,3.75,12.43,4.88,18.92a17.38,17.38,0,0,1-1,11.21c-1.72,4.91-4.16,9.83-5.28,15a12.17,12.17,0,0,0-.13,5.44c.39,1.92,2,3,3.54,4a31.94,31.94,0,0,0,8.77,3.92,22.5,22.5,0,0,1,15.38,13.43c5.7,13.73,8,27.56,10.67,41.91,4.55,24.29,15,45.72,28.53,66.45,1.58,2.43,3.16,5,4.93,7.26.31.42,1.53,1.66,3.23,3.36l.07.25c7.18,20.88,11.24,42.76,17.63,63.9q6.59,21.76,14.35,43.17c4.44,12.25,8,26,16.8,36.13,8.42,9.67,20,16.31,31.71,18.25,7.42,1.22,15,.57,21.29-2.78,8.65-4.63,24.22-21.79,26.52-31.93C334.56,488.53,323.21,481.59,314.7,465.9Z"/><path d="M127.67,678.73a68.37,68.37,0,0,0,25.22,22.81,81.79,81.79,0,0,0,30,8.72,88.41,88.41,0,0,0,16.43.06c1.91-.17,1.93-3.17,0-3-19.82,1.76-40.89-3.08-56.41-16a65,65,0,0,1-12.69-14.16c-1.06-1.6-3.66-.1-2.59,1.52Z"/><path d="M186.2,702.73c4.44,2.16,8.64,4.75,12.89,7.23l-.3-2.35c-1.75,1.78-3.41,3.63-5.13,5.43s-3.26,3.28-4.85,5c-1.33,1.41.79,3.53,2.12,2.12,1.59-1.68,3.25-3.28,4.85-5s3.38-3.66,5.13-5.44a1.52,1.52,0,0,0-.3-2.36c-4.26-2.48-8.46-5.07-12.89-7.23-1.73-.85-3.25,1.74-1.52,2.59Z"/><path d="M53.77,583.75c3.47,0,5.47,1.31,5.47,4.26a4,4,0,0,1-2.34,3.88A4,4,0,0,1,59.71,596c0,3-1.9,5-5.87,5H47V583.75Zm-3.7,7h3.52c1.58,0,2.57-.76,2.57-2.32s-.87-2.07-2.44-2.07H50.07Zm0,7.67h3.79c1.68,0,2.72-.79,2.76-2.47s-1.18-2.53-3-2.53H50.07Z"/><path d="M67.87,588c3.23,0,6,2.19,6,6.6,0,3.63-2.14,6.59-6.16,6.59-4.36,0-6.16-3-6.16-6.59C61.59,590.16,64.37,588,67.87,588Zm-3.08,6.6c0,2,.69,4,3,4,2.1,0,3-2,3-4,0-2.86-1.4-4-3-4S64.79,591.66,64.79,594.57Z"/><path d="M88.71,582.17V601H86.15l-.35-2.22a4.51,4.51,0,0,1-4.11,2.37c-3.48.05-5.55-2.84-5.55-6.64,0-4.63,3-6.55,5.52-6.55a4.09,4.09,0,0,1,4,2.44v-7.84ZM79.29,594.5c0,2.19.87,3.92,3.16,3.92s3.25-1.73,3.25-3.9c0-2.93-1.57-4-3.28-4S79.29,591.66,79.29,594.5Z"/><path d="M94,588.09l3.18,9.12h.2l2.91-9.12h3.16L98.7,601.21c-1.58,4.31-3,5.4-7.62,4.44l.55-2.59c2.91.71,3.3.05,4.21-2.49L91,588.09Z"/><path d="M111.18,597.31a6.73,6.73,0,0,0,4.2,1.43c1.48,0,2.34-.44,2.34-1.5,0-2.52-7.47-.84-7.23-5.58.1-2.31,1.8-3.69,5.23-3.69a10.55,10.55,0,0,1,4.66,1.2l-1.08,2.17a7.41,7.41,0,0,0-3.7-1.06c-1.21,0-2.22.4-2.17,1.41.15,2,7.32.47,7.32,5.45,0,2.66-2.39,4-5.45,4a8.86,8.86,0,0,1-5.3-1.68Z"/><path d="M126.3,582.17v8a4.82,4.82,0,0,1,4.24-2.19c3,0,4.49,1.94,4.49,4.61V601H132v-7.45c0-2-.74-3-2.41-3-2.35,0-3.26,1.9-3.26,4V601h-3.06V582.54Z"/><path d="M143.91,588c3.23,0,6,2.19,6,6.6,0,3.63-2.14,6.59-6.16,6.59-4.37,0-6.17-3-6.17-6.59C137.62,590.16,140.41,588,143.91,588Zm-3.08,6.6c0,2,.69,4,3,4,2.09,0,3-2,3-4,0-2.86-1.4-4-3-4S140.83,591.66,140.83,594.57Z"/><path d="M155.55,588.09v7.45c0,2,.79,3,2.59,3,2.35,0,3.31-2.42,3.31-4.86v-5.62h3.06V601h-2.45l-.44-2.81a4.71,4.71,0,0,1-4.46,3c-3.16,0-4.66-1.95-4.66-5.21v-7.86Z"/><path d="M170.72,582.17v14.62c0,1.38.62,1.75,1.53,1.75a2.33,2.33,0,0,0,1.28-.47l.57,2.2a5.31,5.31,0,0,1-2.79.89c-2.56,0-3.65-1.73-3.65-4.07V582.54Z"/><path d="M187.17,582.17V601h-2.56l-.35-2.22a4.52,4.52,0,0,1-4.12,2.37c-3.47.05-5.54-2.84-5.54-6.64,0-4.63,3-6.55,5.52-6.55a4.1,4.1,0,0,1,4,2.44v-7.84Zm-9.42,12.33c0,2.19.86,3.92,3.16,3.92s3.25-1.73,3.25-3.9c0-2.93-1.58-4-3.28-4S177.75,591.66,177.75,594.5Z"/><path d="M49.87,616.08v8.22a4.4,4.4,0,0,1,4.31-2.42c2.44.07,5.06,1.73,5.06,6.48,0,3.9-2,6.71-5.45,6.71a4.28,4.28,0,0,1-4.07-2.37l-.42,2.22H46.81V616.48Zm-.12,12.36c0,2.22.81,4,3.25,4,2,0,3.11-1.5,3.11-4,0-3-1.51-3.95-3.13-3.95C51.2,624.44,49.75,625.85,49.75,628.44Z"/><path d="M73.27,631.37a5.76,5.76,0,0,1-5.57,3.7c-4.34,0-6.26-2.71-6.26-6.75s2.71-6.54,6.43-6.44c3,.07,5.75,2.34,5.45,6.46l0,.39H64.54c0,2.2.94,3.7,3.19,3.7a2.87,2.87,0,0,0,2.78-2Zm-3.13-4.21c0-2-1-2.94-2.54-2.89a2.88,2.88,0,0,0-2.91,2.89Z"/><path d="M87.26,631.3c-.84,2.64-3,3.77-5.62,3.77-4.25,0-6.07-3.16-6.07-6.61,0-4.21,2.61-6.51,6.14-6.58,3.11-.07,5,1.53,5.5,3.8l-2.84.91a2.54,2.54,0,0,0-2.61-2.12c-1.78,0-3.13,1.31-3.13,3.94,0,2.1.79,4,3.08,4a2.6,2.6,0,0,0,2.71-2Z"/><path d="M95.55,621.88c3.23,0,6,2.19,6,6.61,0,3.62-2.15,6.58-6.17,6.58-4.36,0-6.16-3-6.16-6.58C89.26,624.07,92,621.88,95.55,621.88Zm-3.09,6.61c0,2,.69,4,3,4,2.1,0,3-2,3-4,0-2.86-1.41-4-3-4C93.85,624.47,92.46,625.58,92.46,628.49Z"/><path d="M106.74,622l.45,2.3a4.33,4.33,0,0,1,4-2.45,3.77,3.77,0,0,1,3.85,2.4,4.55,4.55,0,0,1,4.17-2.4c3,0,4.21,2,4.21,4.64v8.43h-3v-7.44c0-2-.47-3-2.15-3-2.22,0-2.81,1.68-2.81,3.58v6.9h-3.06v-7.44c0-2-.47-3-2.14-3-2.37,0-2.84,1.9-2.84,4v6.51H104.3V622Z"/><path d="M137.87,631.37a5.76,5.76,0,0,1-5.57,3.7c-4.34,0-6.27-2.71-6.27-6.75s2.71-6.54,6.44-6.44c3,.07,5.74,2.34,5.45,6.46l0,.39h-8.73c0,2.2.94,3.7,3.18,3.7a2.89,2.89,0,0,0,2.79-2Zm-3.13-4.21c0-2-1-2.94-2.54-2.89a2.88,2.88,0,0,0-2.91,2.89Z"/><path d="M147.81,622l3.11,9.37h.19L154.2,622h3.13l-4.81,12.92h-3.08L144.75,622Z"/><path d="M170.15,631.37a5.76,5.76,0,0,1-5.57,3.7c-4.34,0-6.26-2.71-6.26-6.75s2.71-6.54,6.43-6.44c3,.07,5.75,2.34,5.45,6.46l0,.39h-8.73c0,2.2.94,3.7,3.19,3.7a2.87,2.87,0,0,0,2.78-2ZM167,627.16c0-2-1-2.94-2.54-2.89a2.89,2.89,0,0,0-2.91,2.89Z"/><path d="M175.31,622l.57,2.66c.59-2,2.09-2.83,4.19-2.78a4.78,4.78,0,0,1,1.33.22l-.47,2.69a5.23,5.23,0,0,0-1.85-.25c-2.26.08-3.13,1.83-3.13,3.9v6.48h-3.06V622Z"/><path d="M187.89,618.35v3.78h3.25l-.42,2.46h-2.83v5.92c0,1.4.64,2,1.68,2a5.57,5.57,0,0,0,1.94-.57l.57,2.34a7.94,7.94,0,0,1-3.28.84c-3,0-4-2-4-4.14v-6.34H183v-2.46H185l.37-3.43Z"/><path d="M198.05,622v12.92H195V624.54h-1.8V622Zm-1.55-5a1.65,1.65,0,0,1,1.82,1.56,1.82,1.82,0,0,1-3.62,0A1.59,1.59,0,0,1,196.5,617Z"/><path d="M212.45,631.3c-.84,2.64-3,3.77-5.62,3.77-4.24,0-6.07-3.16-6.07-6.61,0-4.21,2.62-6.51,6.14-6.58,3.11-.07,5,1.53,5.5,3.8l-2.83.91a2.55,2.55,0,0,0-2.62-2.12c-1.77,0-3.13,1.31-3.13,3.94,0,2.1.79,4,3.08,4a2.61,2.61,0,0,0,2.72-2Z"/><path d="M215.12,622.82a15.36,15.36,0,0,1,4.88-.94c3.9,0,5.33,1.92,5.33,4.93V632a.65.65,0,0,0,.61.74,2.41,2.41,0,0,0,1-.15v2a5,5,0,0,1-2,.39,2.33,2.33,0,0,1-2.34-1.75,5.67,5.67,0,0,1-3.9,1.75c-2.52,0-4.39-1.28-4.41-4s2-4.09,5.25-4.09a21.68,21.68,0,0,1,2.78.24v-.76c0-1.41-.88-2.17-2.66-2.15a10.39,10.39,0,0,0-4,.79Zm7.15,6a13.07,13.07,0,0,0-2.52-.15c-1.47.07-2.41.76-2.44,2.07a1.82,1.82,0,0,0,2.1,1.9,5.06,5.06,0,0,0,2.86-1Z"/><path d="M232.14,616.08v14.63c0,1.38.61,1.75,1.52,1.75A2.46,2.46,0,0,0,235,632l.56,2.19a5.31,5.31,0,0,1-2.78.89c-2.57,0-3.65-1.73-3.65-4.07V616.45Z"/><path class="cls-8" d="M148.79,61.4a36.73,36.73,0,0,1,8.33-23.32,34.4,34.4,0,0,0-45.48-4.38A34.43,34.43,0,0,0,131.9,96a34.33,34.33,0,0,0,25.32-11.11A36.76,36.76,0,0,1,148.79,61.4ZM138,75.49s-3.7-.27-11.47-.27a25.63,25.63,0,0,0-4.93.31l-1.35-2.46c7.78-7.9,12.4-13.63,13-18.71.47-3.66-2-4.82-4.35-4.66a9.73,9.73,0,0,0-6.73,3.92c-.2-.23-1.93-2.07-1.47-2.65A12.43,12.43,0,0,1,130,46.12c5.89,0,9.09,3,8.74,8.51-.46,7-8,13.59-12.63,17.55l8.32-.08c1.77-.15,3-2.54,3.81-4.73,0,0,1.73.5,2,1C139.58,71.53,138.81,75.49,138,75.49Z"/><path class="cls-8" d="M95.79,61.4A36.74,36.74,0,0,1,104.16,38a34.44,34.44,0,1,0,.11,46.9A36.78,36.78,0,0,1,95.79,61.4ZM87.2,75.66H70.92L71,73.39l4.46-.58c.58,0,.81-.23.81-1,.08-10.05,0-19.6,0-19.6l-5.62,1.08c-.19-.31-1.12-2.46-.46-2.73l10.35-4,1,1s-.12,20.87,0,24.37c0,.77.19,1,.73,1l5.08.54Z"/><path class="cls-8" d="M201.79,61.4A36.74,36.74,0,0,1,210.16,38a34.43,34.43,0,0,0-47.76-2.48A34.8,34.8,0,0,0,172,93.43a34.41,34.41,0,0,0,38.24-8.51A36.78,36.78,0,0,1,201.79,61.4ZM181.35,75.49a15.64,15.64,0,0,1-7.86-2.19l1-2.89a21.48,21.48,0,0,0,7,1.66c3.35,0,5.51-1.74,5.55-5.24,0-2.46-1.43-4.35-4.47-4.74a17.82,17.82,0,0,0-5,.24c-.5.11-.89-3-.42-3.08,3-.54,7.62-1.08,8.39-4.89.73-3.62-2-4.82-4.35-4.66A8.43,8.43,0,0,0,175,52.82c-.2-.23-1.7-2.12-1-3a10.43,10.43,0,0,1,8.16-3.69c5.89,0,9.12,3,8.74,8.51a6,6,0,0,1-4,4.5c3.47.62,5.47,2.93,5.66,6.7C192.9,71.83,188,75.49,181.35,75.49Z"/><circle cx="236" cy="61.53" r="34.44"/><path class="cls-9" d="M237.43,67,227.3,67c-.11,0-1.42.19-1.42.19S225,65,225.3,64.79c.88-.46,12.93-16.86,14-18.63l3.2.54c-.08,3.92,0,11.35,0,17.4l4.69-.08c.35,0,.08,3-.54,3h-4.12c0,2.27,0,3.47.08,4.39,0,.77.19,1,.73,1l2.35.54-.08,2.23H234.27l.08-2.27,2.23-.58c.58-.15.81-.23.81-1C237.39,69.72,237.39,68.68,237.43,67Zm-7.13-3h7.13c0-7,0-10.05,0-10.05S230.3,64.06,230.3,64.06Z"/><path d="M296.49,50.34l-.27,3.12h-5.55V71.34h-3.75V53.46h-5.76V50.34Z"/><path d="M302.64,48.42v9.72a5.86,5.86,0,0,1,5.16-2.67c3.69,0,5.46,2.37,5.46,5.61V71.34h-3.72V62.28c0-2.4-.9-3.69-2.94-3.69-2.85,0-4,2.31-4,4.83v7.92h-3.72V48.87Z"/><path d="M330.78,67a7,7,0,0,1-6.78,4.5c-5.28,0-7.62-3.3-7.62-8.22s3.3-7.95,7.83-7.83c3.69.09,7,2.85,6.63,7.86l-.06.48H320.16c0,2.67,1.14,4.5,3.87,4.5a3.5,3.5,0,0,0,3.39-2.49ZM327,61.89c.06-2.43-1.26-3.57-3.09-3.51a3.5,3.5,0,0,0-3.54,3.51Z"/><path d="M343.32,55.62l.57,2.79a5.8,5.8,0,0,1,5.37-2.94c3.69,0,5.46,2.37,5.46,5.61V71.34H351V62.28c0-2.4-.9-3.69-2.94-3.69-2.85,0-4,2.31-4,4.83v7.92h-3.72V55.62Z"/><path d="M372.3,67a7,7,0,0,1-6.78,4.5c-5.28,0-7.62-3.3-7.62-8.22s3.3-7.95,7.83-7.83c3.69.09,7,2.85,6.63,7.86l-.06.48H361.68c0,2.67,1.14,4.5,3.87,4.5a3.5,3.5,0,0,0,3.39-2.49Zm-3.81-5.13c.06-2.43-1.26-3.57-3.09-3.51a3.5,3.5,0,0,0-3.54,3.51Z"/><path d="M378.39,55.62l3.15,6.18,3.3-6.18h4l-4.35,7.8L389,71.34h-4.26l-3.3-6.12L378,71.34h-4.14l4.83-7.86-4.29-7.86Z"/><path d="M396.81,51.18v4.59h4l-.51,3h-3.45V66c0,1.71.78,2.37,2,2.37a6.83,6.83,0,0,0,2.37-.69l.69,2.85a9.82,9.82,0,0,1-4,1c-3.69,0-4.83-2.46-4.83-5V58.77H390.9v-3h2.37l.45-4.17Z"/><path d="M424.35,67a7,7,0,0,1-6.78,4.5c-5.28,0-7.62-3.3-7.62-8.22s3.3-7.95,7.83-7.83c3.69.09,7,2.85,6.63,7.86l-.06.48H413.73c0,2.67,1.14,4.5,3.87,4.5A3.5,3.5,0,0,0,421,65.82Zm-3.81-5.13c.06-2.43-1.26-3.57-3.09-3.51a3.5,3.5,0,0,0-3.54,3.51Z"/><path d="M431.4,48.42V66.21c0,1.68.75,2.13,1.86,2.13a2.93,2.93,0,0,0,1.56-.57l.69,2.67a6.47,6.47,0,0,1-3.39,1.08c-3.12,0-4.44-2.1-4.44-5V48.87Z"/><path d="M450.69,67a7,7,0,0,1-6.78,4.5c-5.28,0-7.62-3.3-7.62-8.22s3.3-7.95,7.83-7.83c3.69.09,7,2.85,6.63,7.86l-.06.48H440.07c0,2.67,1.14,4.5,3.87,4.5a3.5,3.5,0,0,0,3.39-2.49Zm-3.81-5.13c.06-2.43-1.26-3.57-3.09-3.51a3.5,3.5,0,0,0-3.54,3.51Z"/><path d="M457,55.62l.54,2.79a5.25,5.25,0,0,1,4.86-3,4.58,4.58,0,0,1,4.68,2.91,5.53,5.53,0,0,1,5.07-2.91c3.69,0,5.13,2.4,5.13,5.64V71.34h-3.72V62.28c0-2.4-.57-3.69-2.61-3.69-2.7,0-3.42,2-3.42,4.35v8.4H463.8V62.28c0-2.4-.57-3.69-2.61-3.69-2.88,0-3.45,2.31-3.45,4.83v7.92H454V55.62Z"/><path d="M494.85,67a7,7,0,0,1-6.78,4.5c-5.28,0-7.62-3.3-7.62-8.22s3.3-7.95,7.83-7.83c3.69.09,7,2.85,6.63,7.86l-.06.48H484.23c0,2.67,1.14,4.5,3.87,4.5a3.5,3.5,0,0,0,3.39-2.49ZM491,61.89c.06-2.43-1.26-3.57-3.09-3.51a3.5,3.5,0,0,0-3.54,3.51Z"/><path d="M501.12,55.62l.57,2.79a5.8,5.8,0,0,1,5.37-2.94c3.69,0,5.46,2.37,5.46,5.61V71.34H508.8V62.28c0-2.4-.9-3.69-2.94-3.69-2.85,0-4,2.31-4,4.83v7.92h-3.72V55.62Z"/><path d="M521.13,51.18v4.59h4l-.51,3h-3.45V66c0,1.71.78,2.37,2,2.37a6.83,6.83,0,0,0,2.37-.69l.69,2.85a9.82,9.82,0,0,1-4,1c-3.69,0-4.83-2.46-4.83-5V58.77h-2.19v-3h2.37L518,51.6Z"/><path d="M539.76,55.62V71.34H536V58.71h-2.19V55.62Zm-1.89-6.12a2,2,0,0,1,2.22,1.89,2.22,2.22,0,0,1-4.41,0A1.93,1.93,0,0,1,537.87,49.5Z"/><path d="M544,66.84a8.15,8.15,0,0,0,5.1,1.74c1.8,0,2.85-.54,2.85-1.83,0-3.06-9.09-1-8.79-6.78.12-2.82,2.19-4.5,6.36-4.5a12.78,12.78,0,0,1,5.67,1.47l-1.32,2.64a8.9,8.9,0,0,0-4.5-1.29c-1.47,0-2.7.48-2.64,1.71.18,2.49,8.91.57,8.91,6.63,0,3.24-2.91,4.92-6.63,4.89a10.76,10.76,0,0,1-6.45-2Z"/><path d="M569.79,51.18v4.59h4l-.51,3h-3.45V66c0,1.71.78,2.37,2,2.37a6.83,6.83,0,0,0,2.37-.69l.69,2.85a9.82,9.82,0,0,1-4,1c-3.69,0-4.83-2.46-4.83-5V58.77h-2.19v-3h2.37l.45-4.17Z"/><path d="M581,48.42v9.72a5.86,5.86,0,0,1,5.16-2.67c3.69,0,5.46,2.37,5.46,5.61V71.34h-3.72V62.28c0-2.4-.9-3.69-2.94-3.69-2.85,0-4,2.31-4,4.83v7.92h-3.72V48.87Z"/><path d="M609.12,67a7,7,0,0,1-6.78,4.5c-5.28,0-7.62-3.3-7.62-8.22s3.3-7.95,7.83-7.83c3.69.09,7,2.85,6.63,7.86l-.06.48H598.5c0,2.67,1.14,4.5,3.87,4.5a3.5,3.5,0,0,0,3.39-2.49Zm-3.81-5.13c.06-2.43-1.26-3.57-3.09-3.51a3.5,3.5,0,0,0-3.54,3.51Z"/><path d="M632.52,67a7,7,0,0,1-6.78,4.5c-5.28,0-7.62-3.3-7.62-8.22s3.3-7.95,7.83-7.83c3.69.09,7,2.85,6.63,7.86l-.06.48H621.9c0,2.67,1.14,4.5,3.87,4.5a3.5,3.5,0,0,0,3.39-2.49Zm-3.81-5.13c.06-2.43-1.26-3.57-3.09-3.51a3.5,3.5,0,0,0-3.54,3.51Z"/><path d="M638.79,55.62l.57,2.79a5.8,5.8,0,0,1,5.37-2.94c3.69,0,5.46,2.37,5.46,5.61V71.34h-3.72V62.28c0-2.4-.9-3.69-2.94-3.69-2.85,0-4,2.31-4,4.83v7.92h-3.72V55.62Z"/><path d="M658.8,51.18v4.59h4l-.51,3H658.8V66c0,1.71.78,2.37,2,2.37a6.83,6.83,0,0,0,2.37-.69l.69,2.85a9.82,9.82,0,0,1-4,1c-3.69,0-4.83-2.46-4.83-5V58.77h-2.19v-3h2.37l.45-4.17Z"/><path d="M669,55.62l.69,3.24c.72-2.4,2.55-3.45,5.1-3.39a6.19,6.19,0,0,1,1.62.27L675.84,59a6.48,6.48,0,0,0-2.25-.3c-2.76.09-3.81,2.22-3.81,4.74v7.89h-3.72V55.62Z"/><path d="M682.32,55.62l3.87,11.1h.24L690,55.62h3.84l-5.82,16c-1.92,5.25-3.72,6.57-9.27,5.4l.66-3.15c3.54.87,4,.06,5.13-3L678.6,55.62Z"/></svg>