<svg id="Layer_1" data-name="Layer 1" xmlns="http://www.w3.org/2000/svg" viewBox="0 0 780 1051.14"><defs><style>.cls-1{fill:#c6946f;}.cls-1,.cls-2,.cls-4,.cls-5,.cls-6,.cls-7{stroke:#fff;stroke-miterlimit:10;}.cls-1,.cls-2,.cls-4,.cls-7{stroke-width:0.42px;}.cls-2{fill:#b58362;}.cls-3{fill:#221913;}.cls-4,.cls-5{fill:#d4a47c;}.cls-5{stroke-width:0.28px;}.cls-6{fill:#fff171;stroke-width:0.3px;}.cls-7{fill:#005058;}.cls-8,.cls-9{fill:#fff;}.cls-8{opacity:0.7;}.cls-9{font-size:38.5px;font-family:ABCSerifBold, ABCSerif;}.cls-10{font-size:30px;font-family:ABCSansBold, ABCSans;}.cls-11{letter-spacing:-0.02em;}.cls-12{letter-spacing:0em;}.cls-13{letter-spacing:-0.01em;}.cls-14{letter-spacing:-0.01em;}.cls-15{letter-spacing:0.03em;}</style></defs><path class="cls-1" d="M482.3,670.2q-7-7.65-14.51-14.76c-7.31-6.89-17.13-46.73-23.39-54.49l3.69,33.13c-.36,1.15.13,2.62.07,3.83a18.26,18.26,0,0,1-.5,3.89,14.92,14.92,0,0,0-.81,3.78c0,1.45.31,2.88.4,4.31.38,5.77,2.42,11.39,4.54,16.79a72.51,72.51,0,0,0,3,7.57c1.69,3.16,3.83,6,5.78,9,1.74,2.66,3.81,5.13,5.75,7.64a39.41,39.41,0,0,0,9.1,8l.5.35c-1.79-.75-4.11-1.89-7.38-3.67a12.19,12.19,0,0,1-5.84-6.38,13.74,13.74,0,0,0,0,2.22c.11,1.91,1.09,3.55,1.83,5.48.58,1.51.33,3.22,1.67,4.38,21.89,18.78,21.08,43.85,46.65,68.25l13.42,11.34c9,8.57,24.31,25.85,31.71,32.71,4.6,4.92,8.24,12.68,14.86,18.6,6.27,5.62,15.59,9.46,16.82,10.76,6.39,6.77,12.49,14.09,19.2,20.52l1.77,1.73,2.22,2.16,1.09,1.06a2.27,2.27,0,0,1,.39.49,4.56,4.56,0,0,0,.77.75l.53.41a1.46,1.46,0,0,0,.46.2,3.34,3.34,0,0,0,.51.11c.27,0,.45-.23.62-.41.43-.47.25-.84,0-1.28a7.23,7.23,0,0,1,.78,1,13,13,0,0,0,2.08,2.18,5.45,5.45,0,0,0,2.2,1.4,1.38,1.38,0,0,0,1.25-.3,1.25,1.25,0,0,0,.44-1.06,1.34,1.34,0,0,0-.55-1.13c-.37-.35-.62-.79-1-1.13l0,0c-1.43-.17.35,0,.51-.12s.3-.69.38-1a1.07,1.07,0,0,1,.26-.57,1.16,1.16,0,0,0,.14-.93,10.28,10.28,0,0,0-1.53-2.72c-.59-.89-1-1.92-1.62-2.79-.22-.32-.46-.64-.67-1s-.34-.4-.49-.63c-.42-.6-.9-1.11-1.35-1.69a21.52,21.52,0,0,0-1.43-1.73c-.49-.49-.89-1-1.4-1.5s-.78-1-1.2-1.47a14,14,0,0,1-1.14-1.67c-.21-.33-.41-.64-.6-1a4,4,0,0,0-.89-.95,19.43,19.43,0,0,1-1.7-1.92c-.71-.92-1.57-1.67-2.19-2.66-.95-1.52-2-3-2.92-4.48-.11-.17-.2-.37-.3-.54a2.37,2.37,0,0,1-.31-.53c.11-.16.28-.09.44-.14s.31-.13.47-.17a4,4,0,0,0,.72-.28,3.87,3.87,0,0,0,1.2-1.08,3.1,3.1,0,0,0,.31-.78,1.44,1.44,0,0,0,.12-.61c0-.15-.1-.28-.12-.43a6.28,6.28,0,0,0-.49-2.46,6.5,6.5,0,0,0-1.26-1.31,5.13,5.13,0,0,0-1.49-.89c-.48-.23-1-.36-1.44-.63s-1.07-.51-1.57-.81a7.76,7.76,0,0,0-1.85-.85,7.76,7.76,0,0,1-1.83-.78c-3.12-1.82-6.27-4.83-9.69-6.59-4.16-2.15-7.7-1.57-11.08-4.68-6.9-6.34-20.84-38.29-25.88-46.08l-.35-1.09c-8.65-13.39-17.84-30.76-27-45.34a400.32,400.32,0,0,0-34.65-47.7Q485.42,673.62,482.3,670.2Z"/><path class="cls-1" d="M604,839.78a2.36,2.36,0,0,0-.87-.25c-.59-.12-1.17-.3-1.76-.43a12,12,0,0,1-1.29-.4,14.54,14.54,0,0,1-1.43-.55c-.34-.15-.68-.32-1-.5a7.28,7.28,0,0,1-.84-.62c-.61-.47-1.21-1-1.8-1.47a4.83,4.83,0,0,0-1.53-.94c-.76-.28-1.56-.44-2.32-.73-.51-.18-1-.42-1.45-.64-.32-.15-.63-.34-.94-.51s-.76-.41-1.12-.63c-.18-.12-.41-.2-.58-.33s-.2-.19-.32-.28a3,3,0,0,1-.38-.33,5.36,5.36,0,0,0-.74-.69c-.11-.07-.35-.39-.49-.29"/><path class="cls-1" d="M602.92,833.29l.38.18,2.15,1a3.22,3.22,0,0,1,1.86,1.6,2.7,2.7,0,0,1-.38,2.14,2,2,0,0,1-.92,1,2.09,2.09,0,0,1-1.26-.06,14.13,14.13,0,0,1-4.17-2,1.72,1.72,0,0,1-.85-1.06,1.85,1.85,0,0,1,0-.7,3.64,3.64,0,0,1,.8-1.65,2,2,0,0,1,1.64-.68A2.34,2.34,0,0,1,602.92,833.29Z"/><path class="cls-1" d="M605.26,853.42c.23-.24.45-.5.7-.72a.64.64,0,0,1,.36-.14,2.11,2.11,0,0,1,.45.14"/><path class="cls-1" d="M607.34,854l-.44.45c-.11.12-.25.19-.36.31"/><path class="cls-1" d="M607.83,854.31l-.43.44-.22.23a2.61,2.61,0,0,1-.27.19"/><path class="cls-1" d="M609,854.89a1.39,1.39,0,0,0-.27.32c-.08.17-.12.36-.2.53a1.85,1.85,0,0,1-.25.37,2.37,2.37,0,0,1-.29.34"/><path class="cls-1" d="M606.87,857.17c-.15.16-.21.37-.36.52l-.17.18c-.07.07-.22.12-.27.2"/><path class="cls-1" d="M605.24,857.42c.13-.14.28-.21.41-.34l.36-.38"/><path class="cls-1" d="M605,857l.47-.48"/><path class="cls-1" d="M604.11,855.88l.6-.62a1.76,1.76,0,0,1,.65-.43"/><path class="cls-1" d="M621.44,869.54c-3.57-3-11.92-11.2-15.19-14.51-3.06-3.1-5.11-6.64-9.26-8.14"/><path class="cls-1" d="M614.78,866c-5.23-4.9-10.41-9.74-15.54-14.74"/><path class="cls-1" d="M623.11,869.11c1.32-2.37-1.35-3.88-2.12-4.41-1.34-.92-1.38-.84-2.6,0-.21.14-.72,1.09-.9,1.27"/><path class="cls-1" d="M618.29,869.93c.18-.13.73-.67.93-.68s.47-.09.7-.11a2.6,2.6,0,0,1,1.05.13c.68.22,1.22,1,1.73,1.51a3,3,0,0,1,.73,2.73c-.11.31-.71.73-2-.17Z"/><path class="cls-1" d="M612.09,866.72a6.21,6.21,0,0,1,.56-.35,4.47,4.47,0,0,1,1.27-.32,1.66,1.66,0,0,1,1.08.11,2.48,2.48,0,0,1,.65.68c.73,1,1.82,1.91,1.67,3.24a1,1,0,0,1-.17.51c-.44.63-1.49,0-1.93-.29Z"/><path class="cls-2" d="M152.52,270.72a22.52,22.52,0,0,1,14.67,14.2c5,14,6.53,27.95,8.47,42.42.45,3.36.9,6.73,1.36,10.09.32,2.4,0,5.53,1,7.81,2.7,6.23,5.46,15.55,8.11,21.8,2.5,5.91,11.34,22.58,14.56,28.14,1.46,2.51,2.9,5.12,4.55,7.51.45.66,2.92,3.39,6,6.75,7.92,8.66,20.83,8.93,28,.56l4.25-5c4.53-5.33,5.1-13.34,1.33-19.82-2.4-4.12-4.84-8.22-7.25-12.33-3.9-6.63-13.9-24.23-18-30.74-1.47-2.33-2.92-4.69-4.27-7.1-1-1.74-1.67-3.59-2.59-5.36-5.6-10.75-10.31-21.93-14.93-33.11-4.42-10.68-8.7-20.95-11.15-32.22A151.38,151.38,0,0,0,179.78,242c-2.69-7-6.95-12.82-10.31-19.52-1.3-2.61-2.33-5.34-3.65-7.94-2.25-4.45-5.87-11.53-9.68-14.76-1.16-1-2.23-2.27-3.47-3.13a36.31,36.31,0,0,0-4.24-2.1c-1.34-.67-2.8-1.46-4.24-.79a6.92,6.92,0,0,0-2.46,2.38c-.93,1.31-.54,2.52-.13,4.19.77,3.11,1.71,6.17,2.71,9.22a20.33,20.33,0,0,1,.53,2.28c1.28,6.4,3.1,12.61,3.89,19.15a23.33,23.33,0,0,1,.2,5.07,22.58,22.58,0,0,1-1.82,6.06c-2,4.82-4.67,9.61-6.05,14.68a12,12,0,0,0-.42,5.42c.29,1.93,1.85,3.11,3.33,4.16A32.18,32.18,0,0,0,152.52,270.72Z"/><path class="cls-3" d="M475.38,731.54c-8.46-1.48-11.76-6.65-18.6-11.83-11.08-8.4-22.36-15.3-30.89-25.94a15.37,15.37,0,0,0-3-3.1c-3.32-2.36-8.29-1.73-11.35.8s-4.38,6.52-4.42,10.38c-.06,7.41,3.67,15.89,8.24,21.95,1.14,1.52,2.16,3.18,3.39,4.64a22.76,22.76,0,0,0,4.65,3.72c3,2.11,5.9,4.29,9.38,5.66a44,44,0,0,0,9,2.42c2.94.5,5.58,1.7,8.5,2.18,3.07.51,5.91,1.18,9,.89,2.36-.22,4.64-.27,7-.65a22.66,22.66,0,0,0,4.5-1.66c2-.74,2.8-1.74,4.09-3.33,1.54-1.91,5.46-6,.51-6.13"/><path class="cls-3" d="M414.45,665.08c-2.28-.4-5.33-1.65-7.59-1.34-2.5.34-5.38,4.08-7.18,6-2.95,3.2-6.79,12.4-4.77,16.69,2.17,4.65,8.32,9.62,12.94,11,2.64.82,11.59,2.5,11.57-2.72-2.37-2.8-6.94,1.08-8.94,3.11-1.83,1.88-2.76,7.44-1.76,9.93,1.39,3.47,4.47,3.8,7.46,4.31,2.69.46,5.64,1.53,8.35.88,2.45-.6,6.37-2.22,8.11-4.27,1.13-1.33,3.53-8.27,3-10.32-.46-1.76-1.25-1.34-2.64-1.66a5.87,5.87,0,0,1-3.38-1.57c-.82-.67-2.1-1.28-2.32-2.33a6.43,6.43,0,0,0,1.48-2.93,3.72,3.72,0,0,0-.51-3.13"/><path class="cls-4" d="M298.35,559.42c4.88.91,24.53,24.68,29,26.57.65.27,1.44.2,2.13.48,1.52.62,3.22,1.59,4.71,2.32a25.76,25.76,0,0,1,6.09,4.65c3.51,3.47,7.87,6,11.26,9.47,3.67,3.77,8.59,6,11.94,9.91,7.53,8.82,13.6,18.91,20,28.62,3.17,4.78,5.25,10.32,8.59,15,2,2.83,3.48,5.7,5.24,8.65,1.12,1.88,4.78,4.73,4.41,7-1.89,1.19-4.31.3-6.32,0-3.22-.56-2.74-5.56-5.46-7.47-2.45-1.71-5-2.2-7.4-4-6.17-4.6-33.52-23.27-43.87-41-1.62-2.76-37.07-43.87-38.81-46.55C296.42,567.66,304.46,560.56,298.35,559.42Z"/><path class="cls-4" d="M482.62,761.16c20.32,17.18,105.25,98.81,126,115.35l4.63,3.69,1.27,1a2.22,2.22,0,0,1,.45.47,4.69,4.69,0,0,0,.9.71l.6.38a1.54,1.54,0,0,0,.51.17,3.68,3.68,0,0,0,.56.06c.28,0,.45-.29.61-.5.4-.54.1-1-.19-1.42a4.62,4.62,0,0,1,1,1.06,13.89,13.89,0,0,0,2.43,2.09,5.74,5.74,0,0,0,2.47,1.25,1.44,1.44,0,0,0,1.29-.44,1.36,1.36,0,0,0,.36-1.17c-.05-.56-.06-1.06-.48-1.39s-.77-.35-1.39-.84a1,1,0,0,0,.46-.21c.29-.25.25-.75.3-1.1a1.35,1.35,0,0,1,.21-.64,1.18,1.18,0,0,0,.06-1,10.91,10.91,0,0,0-1.9-2.72c-.71-.88-1.25-1.93-2-2.78-.27-.31-.55-.63-.81-1s-.4-.39-.59-.61c-.5-.59-1.07-1.09-1.6-1.65a22.32,22.32,0,0,0-1.69-1.68c-.35-.29-.68-.61-1-.91,0-1.33.59-1.49.28-2.75-.09-.33-1.22-1.77-1.38-2.07a4.06,4.06,0,0,0-.48-.69,57.76,57.76,0,0,0-8.39-7.85c-3.62-2.95-6.5-6.44-9.78-9.73a66.43,66.43,0,0,0-10.91-8.87,16.63,16.63,0,0,0-5-2.12c-6.18-1.81-9.7-7.38-13.2-12.31-2.42-3.4-5-6.72-7.44-10.1-6.57-9-13.11-18.09-19.75-27.07-6.5-8.79-12.91-17.86-20.25-26"/><path class="cls-4" d="M604.89,859.61a9.5,9.5,0,0,0,.5-.88"/><path class="cls-4" d="M619.54,882.73c.13-.13.5-.62.67-.65s.4-.1.6-.13a2.15,2.15,0,0,1,1.19.12,10.79,10.79,0,0,1,1.43,1,2.21,2.21,0,0,1,.39.26l.19.21a7,7,0,0,1,.87,1.13c.14.32-.06.41-.1.76s-.46.68-1.79,0Z"/><path class="cls-4" d="M614.15,881.06a3.78,3.78,0,0,1,.63-.68c.17-.06.34-.15.5-.2a1.55,1.55,0,0,1,1,0c.4.13.68.5,1,.71a1.38,1.38,0,0,1,.28.19.66.66,0,0,1,.12.17,3.66,3.66,0,0,1,.56.9c.07.27-.1.38-.18.7s-.47.68-1.45.23Z"/><path class="cls-5" d="M432.86,629c1,5,7.24,24.65,8.64,29.46-2.61-.76-4.47-1.2-4.63-.92-4.89,8.86-2.28,13.54-5.67,23.17-.68,1.95-4.46,4.23-4.7,6.31s2.95,13.44,2.67,15.41,13.08,6.6,13.61,8.6a56.45,56.45,0,0,0,1.85,5.74c1.92,4.91,6,8.72,9.84,12.1s7.82,7.38,13,8.26c2.6.44,4.36-.8,6.5-2.21.22.52.43,1.05.65,1.57.08.13.15.27.22.41a7.33,7.33,0,0,1,1.2-.48,29.67,29.67,0,0,0,4.65-1.6c.17-.08.31-.18.47-.27.75-1.21,1.56-2.39,2.42-3.52.58-.77,1.14-1.56,1.67-2.35l.94-1.64a35.77,35.77,0,0,1,1.37-4.34,15.32,15.32,0,0,0,.9-2.73c.25-1,.78-1.92,1-3,.12-.51,0-1,.13-1.5s.5-.77.52-1.33a21.16,21.16,0,0,0-.74-3.23,28,28,0,0,1-.57-3.82,1.92,1.92,0,0,0,0-.42c.07,0,.19-.11.4-.4a12.52,12.52,0,0,1,2.08-2.1c1.84-1.73,2.29-1.55,4.19-3.73a28.07,28.07,0,0,0,3.2-4.38,3.58,3.58,0,0,0-1.87-5.21,1.87,1.87,0,0,1-1-.82,5,5,0,0,1-1.17-3.44,19.07,19.07,0,0,0,.72-3.09,19.36,19.36,0,0,0-.77-5.77c-.47-1.53-1.27-2.15-.67-3.62.42-1,.91-2.11,1.38-3.14.89-2,1.13-4-.62-5.56a15.72,15.72,0,0,0-10.06-3.32c-5.67-1.62-11.67,1.94-18.51,1.68l-2.68-.1c.09-4.32-3.53-8.37-5.9-12.19-7-11.31-7.24-9.45-8.93-22.51"/><path d="M478.25,713.76c-.32-.2-.62-.43-.92-.65s-.53-.42-.54-.66,0-.11.09-.12.22.1.3.13l.33.08c.46.07.92.1,1.37.17.27,0,.53,0,.79.11,1.6.39,3.14,1.32,4.77,1.52a7.46,7.46,0,0,0,4.44-1.27c.14.52.63,2.21.15,2.56-.69.5-2.91.18-3.76.39a6.87,6.87,0,0,1-4.69-.65C479.76,714.9,479.05,714.26,478.25,713.76Z"/><path class="cls-4" d="M518.73,757.86c-8.92-6.92-16.48-15-24-23.38A304,304,0,0,0,473,713.13c-9.62-8.75-18.7-21.07-23.15-33.29-6.74-11.93-11.77-34.84-12-48,0-.34,0-.69,0-1a5.4,5.4,0,0,0-.31-1.59l-32.43-11.65c-6.35-1.22-27.85-.65-32.95,4.73-3.72,3.9-10.69,23.71-6,26.28,8.67,4.74,13.09,8.87,20.16,16.36,7.68,8.13,13,21.41,19.94,30.14,10.77,13.49,24,20.08,36.72,31.53,1.09,1,2,2.22,3.09,3.24,3.78,3.68,8,6.93,11.66,10.72,3.18,3.32,6.67,6.33,10,9.48a59.12,59.12,0,0,0,6.92,5.94c2.56,1.76,5.23,3.59,8,5.17"/><path class="cls-4" d="M604.56,866.34c.22-.27.42-.57.66-.83a.63.63,0,0,1,.36-.19,1.78,1.78,0,0,1,.5.1"/><path class="cls-4" d="M606.14,866.29l-.41.52c-.11.14-.25.22-.36.36"/><path class="cls-4" d="M606.73,866.55l-.41.51c-.07.09-.14.17-.2.26s-.18.15-.26.24"/><path class="cls-4" d="M607.83,866.67a1.31,1.31,0,0,0-.24.37c-.08.19-.1.39-.16.58a2.82,2.82,0,0,1-.23.42,1.75,1.75,0,0,1-.28.39"/><path class="cls-4" d="M605.77,869.94c-.14.18-.19.4-.32.58l-.17.21c-.07.09-.22.15-.27.24"/><path class="cls-4" d="M604.07,870.37c.13-.16.28-.25.4-.41s.23-.28.34-.43"/><path class="cls-4" d="M603.75,870l.45-.57"/><path class="cls-4" d="M602.72,868.86l.57-.72a2.19,2.19,0,0,1,.64-.53"/><path class="cls-4" d="M618,881.15c-1.1-.87-5.71-4.49-6.81-5.37l-1.65-1.32c-.28-.22-.56-.44-.83-.67s-.65-.4-1-.63c-.83-.61-1.71-1.13-2.51-1.77l-1-.78c-.59-.46-1.08-1-1.63-1.52s-.78-.76-1.22-1.11l-1.17-.93-4.74-3.79a17.49,17.49,0,0,0-2.28-1.44,17.71,17.71,0,0,1-2.3-1.27"/><path class="cls-4" d="M619,878.41a2.42,2.42,0,0,1,1.43-.79,2.29,2.29,0,0,1,1.65.35,5.29,5.29,0,0,1,2,2.3,2,2,0,0,1,0,1.26.31.31,0,0,1-.48.1A222.19,222.19,0,0,1,605.16,867c-1-.79-1.78-1.82-2.72-2.66a1.87,1.87,0,0,1-.37-.46c-.2-.15-3.94-3.27-4.14-3.44"/><path class="cls-4" d="M614.94,867.05c-.07.12-.26.16-.38.21a.94.94,0,0,1-.55,0,3.93,3.93,0,0,1-1.63-1L609.49,864c-.27-.21-.47-.47-.74-.69l-.59-.47-1-.81c-.9-.72-1.78-1.46-2.69-2.16-.75-.57-1.62-1-2.39-1.5-.3-.21-.56-.47-.85-.69a7.51,7.51,0,0,0-1.12-.6c-.36-.18-.74-.35-1.08-.56s-.55-.49-.86-.67-.4-.17-.58-.28-.2-.17-.31-.25-.37-.21-.54-.33-.16-.19-.3-.17c0,.09.17.16.25.22s0,0,0,.08"/><path class="cls-4" d="M604.3,859.73c0-.2.54-1.82.74-1.67"/><path class="cls-4" d="M605.57,860.36c.23,0,.38-.58.45-.74s.15-.36.24-.54a.64.64,0,0,0,.12-.35"/><path class="cls-4" d="M611,865.19c.13-.14.5-.63.64-.68s.33-.15.5-.2a1.55,1.55,0,0,1,1,0c.4.13.68.5,1,.71a1.38,1.38,0,0,1,.28.19,1,1,0,0,1,.12.17,4.22,4.22,0,0,1,.56.9c.07.27-.1.38-.18.71s-.47.67-1.46.23Z"/><path class="cls-6" d="M435.17,631.44a8.17,8.17,0,0,1-.85.91c-.46.35-.37.28-1.59,0a7,7,0,0,1-2.18-.93c2.43,5.72,4.8,11.47,7.24,17.19s2.9,12.66,6,18c1.94,3.35,1,3.58,3.05,6.86,0-.07.74,1.42.73,1.35-1.11-2.32-1.65-9.51-2.24-12s-2.3-9.91-3.21-12.3S435.33,631.38,435.17,631.44Z"/><path class="cls-6" d="M371.69,623.72h-.16a18.78,18.78,0,0,1-3.18-.66c-3.73,6.69-5,14.51-5,22.17a2.93,2.93,0,0,0,.22,1.38,3.09,3.09,0,0,0,.84.89,15.84,15.84,0,0,0,1.7,1.09,6.39,6.39,0,0,1,1.56,1.26c.4.44.95.33,1.44.59-1.66-3.55-1.66-7.64-1.23-11.53a35.16,35.16,0,0,1,3.92-13.37C372.28,624.69,372.87,623.85,371.69,623.72Z"/><path class="cls-7" d="M444.62,603.23a72.08,72.08,0,0,0-6.6-12.84c-5.64-9.12-13.46-16.65-24.28-19.55a21.16,21.16,0,0,1-6-2.09l-.36-.27c-1.44-1.78-2.61-4-3.91-5.65q-3.78-4.94-8-9.51a56.15,56.15,0,0,0-7.15-6.45c-6.59-6-13.74-11.4-20.11-17.71q-15.42-15.27-31.58-29.77c-10.27-9.21-21.92-19.07-35.9-21.53l-2.43,1c.77,1.09,2,1.87,2.85,2.92,1,1.22,2.44,1.92,3.47,3.13a142,142,0,0,1,13.95,19.18c4,6.79,8.49,14.42,8.55,22.46a17.28,17.28,0,0,1-.45,3.18c-.71,3.85-.36,7.37-1.88,11.18-4.29,10.79-15.16,17.46-26.44,18.54a65.12,65.12,0,0,1-14.76-.54c-3-.39-22.88-15.25-26-15.86,1.19,1.07,1.58,6.79,2.8,7.85,2.45,6.39,18.13,14.1,21.24,15.9,26.72,15.45,56.64,23.84,78.84,46.73,1.7,1.76,4.05,5.53,6.47,7.58,1,1.25,1.76,2.25,1.92,2.48a22.87,22.87,0,0,0,3.92.08s4.09-2.86,7.58-2.52c4.49.43,9,1,13.41,1.79a142.16,142.16,0,0,1,26.05,7c3.24,1.22,6.43,2.59,9.56,4.08,1.2.57,4.81,4.58,4.81,4.58a16.53,16.53,0,0,0,3.32-2.13c5.65-6.82,8.56-6.34,11.09-7.47C449,625,446.06,606.82,444.62,603.23Z"/><path class="cls-6" d="M437.48,636.45a8.07,8.07,0,0,1-.85.9c-.45.35-.37.29-1.58,0a6.56,6.56,0,0,1-2.19-.93c2.43,5.72,4.8,11.47,7.24,17.19s2.9,12.67,6,18c1.95,3.35,1,3.58,3.05,6.86,0-.07.74,1.42.73,1.35-1.1-2.32-1.65-9.51-2.24-12s-2.3-9.91-3.21-12.3S437.64,636.38,437.48,636.45Z"/><path class="cls-1" d="M318.08,485.2c-11.17-20.61-21.79-27.9-34.1-48.4-10.78-17.94-18.37-30.66-35.26-43.25a18.4,18.4,0,0,0-2.94-8.69c-2.61-4-11.28-12.18-13.9-16.15-4.24-6.43-15.15-23.48-19.58-29.77-1.59-2.25-3.16-4.53-4.64-6.86-1.07-1.69-1.86-3.51-2.86-5.22-6.15-10.45-11.44-21.37-16.64-32.3-5-10.43-9.78-20.47-12.81-31.6a151.91,151.91,0,0,0-7.93-22c-3.06-6.89-7.61-12.44-11.31-19-1.44-2.53-2.61-5.21-4.06-7.74-2.47-4.32-6.46-11.2-10.43-14.23-1.22-.93-2.35-2.15-3.64-2.95a34,34,0,0,0-4.34-1.87c-1.36-.61-2.87-1.32-4.27-.58a7,7,0,0,0-2.33,2.51c-.86,1.36-.42,2.55.09,4.2.93,3.06,2,6.07,3.18,9.06a20.44,20.44,0,0,1,.64,2.25c1.62,6.32,3.76,12.43,4.88,18.92a22.24,22.24,0,0,1,.47,5.06,22.62,22.62,0,0,1-1.5,6.14c-1.72,4.91-4.16,9.83-5.28,15a12.16,12.16,0,0,0-.14,5.44c.39,1.91,2,3,3.55,4a31.88,31.88,0,0,0,8.76,3.92,22.53,22.53,0,0,1,15.39,13.42c5.69,13.73,8,27.57,10.66,41.92,4.55,24.29,15,45.72,28.53,66.44,1.59,2.44,3.16,5,4.93,7.27.32.41,1.53,1.66,3.23,3.35,0,.09,0,.17.08.25,7.17,20.88,11.23,42.77,17.63,63.91q6.57,21.75,14.34,43.17c4.45,12.25,8,26,16.8,36.13,8.43,9.66,20,16.3,31.71,18.24,7.43,1.23,15,.58,21.29-2.77,8.66-4.63,24.23-21.8,26.52-31.94C337.93,507.84,326.59,500.9,318.08,485.2Z"/><path d="M127.67,678.73a68.37,68.37,0,0,0,25.22,22.81,81.79,81.79,0,0,0,30,8.72,88.41,88.41,0,0,0,16.43.06c1.91-.17,1.93-3.17,0-3-19.82,1.76-40.89-3.08-56.41-16a65,65,0,0,1-12.69-14.16c-1.06-1.6-3.66-.1-2.59,1.52Z"/><path d="M186.2,702.73c4.44,2.16,8.64,4.75,12.89,7.23l-.3-2.35c-1.75,1.78-3.41,3.63-5.13,5.43s-3.26,3.28-4.85,5c-1.33,1.41.79,3.53,2.12,2.12,1.59-1.68,3.25-3.28,4.85-5s3.38-3.66,5.13-5.44a1.52,1.52,0,0,0-.3-2.36c-4.26-2.48-8.46-5.07-12.89-7.23-1.73-.85-3.25,1.74-1.52,2.59Z"/><path d="M53.76,583.75c3.48,0,5.48,1.31,5.48,4.27a4,4,0,0,1-2.34,3.87A4,4,0,0,1,59.71,596c0,3-1.9,5-5.87,5H47V583.75Zm-3.69,7h3.52c1.58,0,2.57-.76,2.57-2.31s-.87-2.08-2.45-2.08H50.07Zm0,7.67h3.79c1.68,0,2.72-.79,2.76-2.46s-1.18-2.54-3-2.54H50.07Z"/><path d="M67.87,588c3.23,0,6,2.19,6,6.6,0,3.63-2.14,6.59-6.16,6.59-4.37,0-6.17-3-6.17-6.59C61.58,590.16,64.37,588,67.87,588Zm-3.08,6.6c0,2,.69,4,3,4,2.09,0,3-2,3-4,0-2.86-1.4-4-3-4S64.79,591.66,64.79,594.57Z"/><path d="M88.71,582.17V601H86.15l-.35-2.22a4.52,4.52,0,0,1-4.12,2.37c-3.47.05-5.54-2.84-5.54-6.63,0-4.64,3-6.56,5.52-6.56a4.09,4.09,0,0,1,4,2.44v-7.84ZM79.29,594.5c0,2.2.87,3.92,3.16,3.92s3.25-1.72,3.25-3.89c0-2.94-1.58-4-3.28-4S79.29,591.66,79.29,594.5Z"/><path d="M94,588.09l3.18,9.12h.2l2.91-9.12h3.16L98.7,601.21c-1.58,4.31-3.06,5.4-7.62,4.44l.54-2.59c2.92.71,3.31.05,4.22-2.49L91,588.09Z"/><path d="M111.18,597.31a6.73,6.73,0,0,0,4.2,1.43c1.48,0,2.34-.44,2.34-1.5,0-2.52-7.47-.84-7.23-5.58.1-2.31,1.8-3.69,5.23-3.69a10.55,10.55,0,0,1,4.66,1.2l-1.08,2.17a7.41,7.41,0,0,0-3.7-1.06c-1.21,0-2.22.4-2.17,1.41.15,2,7.32.47,7.32,5.45,0,2.66-2.39,4-5.45,4a8.86,8.86,0,0,1-5.3-1.68Z"/><path d="M126.3,582.17v8a4.82,4.82,0,0,1,4.24-2.19c3,0,4.49,1.94,4.49,4.61V601H132v-7.45c0-2-.74-3-2.41-3-2.35,0-3.26,1.9-3.26,4V601h-3.06V582.54Z"/><path d="M143.91,588c3.23,0,6,2.19,6,6.6,0,3.63-2.14,6.59-6.16,6.59-4.37,0-6.17-3-6.17-6.59C137.62,590.16,140.41,588,143.91,588Zm-3.08,6.6c0,2,.69,4,3,4,2.09,0,3-2,3-4,0-2.86-1.41-4-3-4S140.83,591.66,140.83,594.57Z"/><path d="M155.55,588.09v7.45c0,2,.79,3,2.59,3,2.35,0,3.31-2.42,3.31-4.86v-5.62h3.05V601h-2.44l-.44-2.81a4.71,4.71,0,0,1-4.46,3c-3.16,0-4.66-1.95-4.66-5.2v-7.87Z"/><path d="M170.72,582.17v14.62c0,1.38.62,1.75,1.53,1.75a2.43,2.43,0,0,0,1.28-.46l.57,2.19a5.35,5.35,0,0,1-2.79.89c-2.56,0-3.65-1.73-3.65-4.07V582.54Z"/><path d="M187.17,582.17V601h-2.56l-.35-2.22a4.52,4.52,0,0,1-4.12,2.37c-3.47.05-5.55-2.84-5.55-6.63,0-4.64,3-6.56,5.53-6.56a4.1,4.1,0,0,1,4,2.44v-7.84Zm-9.42,12.33c0,2.2.86,3.92,3.16,3.92s3.25-1.72,3.25-3.89c0-2.94-1.58-4-3.28-4S177.75,591.66,177.75,594.5Z"/><path d="M49.87,616.08v8.22a4.4,4.4,0,0,1,4.31-2.42c2.44.07,5.06,1.73,5.06,6.48,0,3.9-2,6.71-5.45,6.71a4.28,4.28,0,0,1-4.07-2.37l-.42,2.22H46.81V616.48Zm-.12,12.36c0,2.22.81,4,3.25,4,2,0,3.11-1.5,3.11-4,0-3-1.51-3.95-3.14-3.95S49.75,625.85,49.75,628.44Z"/><path d="M73.27,631.37a5.76,5.76,0,0,1-5.57,3.7c-4.34,0-6.26-2.71-6.26-6.75s2.71-6.54,6.43-6.44c3,.07,5.75,2.34,5.45,6.46l0,.4H64.54c0,2.19.94,3.69,3.18,3.69a2.87,2.87,0,0,0,2.79-2Zm-3.13-4.21c0-2-1-2.94-2.54-2.89a2.88,2.88,0,0,0-2.91,2.89Z"/><path d="M87.26,631.3c-.84,2.64-3,3.77-5.63,3.77-4.24,0-6.06-3.15-6.06-6.61,0-4.21,2.61-6.51,6.14-6.58,3.11-.07,5,1.53,5.5,3.8l-2.84.91a2.54,2.54,0,0,0-2.61-2.12c-1.78,0-3.13,1.31-3.13,3.94,0,2.1.79,4,3.08,4a2.6,2.6,0,0,0,2.71-2Z"/><path d="M95.55,621.88c3.23,0,6,2.19,6,6.61,0,3.62-2.15,6.58-6.17,6.58-4.36,0-6.16-3-6.16-6.58C89.26,624.07,92,621.88,95.55,621.88Zm-3.09,6.61c0,2,.69,4,3,4,2.1,0,3-2,3-4,0-2.86-1.4-4-3-4C93.84,624.47,92.46,625.58,92.46,628.49Z"/><path d="M106.74,622l.45,2.3a4.3,4.3,0,0,1,4-2.44,3.77,3.77,0,0,1,3.85,2.39,4.52,4.52,0,0,1,4.17-2.39c3,0,4.21,2,4.21,4.63v8.43h-3v-7.44c0-2-.47-3-2.15-3-2.22,0-2.81,1.68-2.81,3.58v6.9h-3.06v-7.44c0-2-.47-3-2.14-3-2.37,0-2.84,1.9-2.84,4v6.51H104.3V622Z"/><path d="M137.87,631.37a5.77,5.77,0,0,1-5.58,3.7c-4.33,0-6.26-2.71-6.26-6.75s2.71-6.54,6.44-6.44c3,.07,5.74,2.34,5.45,6.46l0,.4h-8.73c0,2.19.94,3.69,3.18,3.69a2.89,2.89,0,0,0,2.79-2Zm-3.13-4.21c0-2-1-2.94-2.54-2.89a2.87,2.87,0,0,0-2.91,2.89Z"/><path d="M147.81,622l3.11,9.37h.19L154.2,622h3.13l-4.81,12.92h-3.08L144.75,622Z"/><path d="M170.15,631.37a5.76,5.76,0,0,1-5.57,3.7c-4.34,0-6.26-2.71-6.26-6.75s2.71-6.54,6.43-6.44c3,.07,5.75,2.34,5.45,6.46l0,.4h-8.73c0,2.19.94,3.69,3.19,3.69a2.87,2.87,0,0,0,2.78-2ZM167,627.16c0-2-1-2.94-2.54-2.89a2.88,2.88,0,0,0-2.91,2.89Z"/><path d="M175.31,622l.57,2.67c.59-2,2.09-2.84,4.19-2.79a4.85,4.85,0,0,1,1.33.22l-.47,2.69a5.48,5.48,0,0,0-1.85-.25c-2.27.08-3.13,1.83-3.13,3.9v6.48h-3.06V622Z"/><path d="M187.89,618.35v3.78h3.25l-.42,2.46h-2.83v5.92c0,1.41.64,2,1.67,2a5.43,5.43,0,0,0,1.95-.57l.57,2.34a7.94,7.94,0,0,1-3.28.84c-3,0-4-2-4-4.14v-6.34H183v-2.46H185l.37-3.43Z"/><path d="M198.05,622v12.92H195V624.54h-1.8V622Zm-1.55-5a1.66,1.66,0,0,1,1.82,1.56,1.82,1.82,0,0,1-3.62,0A1.59,1.59,0,0,1,196.5,617Z"/><path d="M212.45,631.3c-.84,2.64-3,3.77-5.62,3.77-4.24,0-6.07-3.15-6.07-6.61,0-4.21,2.62-6.51,6.14-6.58,3.11-.07,5,1.53,5.5,3.8l-2.83.91a2.55,2.55,0,0,0-2.62-2.12c-1.77,0-3.13,1.31-3.13,3.94,0,2.1.79,4,3.08,4a2.61,2.61,0,0,0,2.72-2Z"/><path d="M215.12,622.82a15.36,15.36,0,0,1,4.88-.94c3.9,0,5.33,1.92,5.33,4.93V632a.65.65,0,0,0,.61.74,2.41,2.41,0,0,0,1-.15v2a5,5,0,0,1-2,.39,2.34,2.34,0,0,1-2.35-1.75,5.62,5.62,0,0,1-3.89,1.75c-2.52,0-4.39-1.28-4.42-4s2-4.09,5.26-4.09a19.84,19.84,0,0,1,2.78.25v-.77c0-1.4-.88-2.17-2.66-2.14a10.5,10.5,0,0,0-4,.78Zm7.15,6a13.07,13.07,0,0,0-2.52-.15c-1.48.07-2.41.76-2.44,2.07a1.81,1.81,0,0,0,2.1,1.9,5.09,5.09,0,0,0,2.86-1Z"/><path d="M232.14,616.08v14.63c0,1.38.61,1.75,1.52,1.75A2.46,2.46,0,0,0,235,632l.56,2.19a5.22,5.22,0,0,1-2.78.89c-2.57,0-3.65-1.72-3.65-4.07V616.45Z"/><path class="cls-8" d="M148.79,61.4a36.73,36.73,0,0,1,8.33-23.32,34.4,34.4,0,0,0-45.48-4.38A34.43,34.43,0,0,0,131.9,96a34.33,34.33,0,0,0,25.32-11.11A36.76,36.76,0,0,1,148.79,61.4ZM138,75.49s-3.7-.27-11.47-.27a25.63,25.63,0,0,0-4.93.31l-1.35-2.46c7.78-7.9,12.4-13.63,13-18.71.47-3.66-2-4.82-4.35-4.66a9.73,9.73,0,0,0-6.73,3.92c-.2-.23-1.93-2.07-1.47-2.65A12.43,12.43,0,0,1,130,46.12c5.89,0,9.09,3,8.74,8.51-.46,7-8,13.59-12.63,17.55l8.32-.08c1.77-.15,3-2.54,3.81-4.73,0,0,1.73.5,2,1C139.58,71.53,138.81,75.49,138,75.49Z"/><path class="cls-8" d="M95.79,61.4A36.74,36.74,0,0,1,104.16,38a34.44,34.44,0,1,0,.11,46.9A36.78,36.78,0,0,1,95.79,61.4ZM87.2,75.66H70.92L71,73.39l4.46-.58c.58,0,.81-.23.81-1,.08-10.05,0-19.6,0-19.6l-5.62,1.08c-.19-.31-1.12-2.46-.46-2.73l10.35-4,1,1s-.12,20.87,0,24.37c0,.77.19,1,.73,1l5.08.54Z"/><path class="cls-8" d="M201.79,61.4A36.74,36.74,0,0,1,210.16,38a34.43,34.43,0,0,0-47.76-2.48A34.8,34.8,0,0,0,172,93.43a34.41,34.41,0,0,0,38.24-8.51A36.78,36.78,0,0,1,201.79,61.4ZM181.35,75.49a15.64,15.64,0,0,1-7.86-2.19l1-2.89a21.48,21.48,0,0,0,7,1.66c3.35,0,5.51-1.74,5.55-5.24,0-2.46-1.43-4.35-4.47-4.74a17.82,17.82,0,0,0-5,.24c-.5.11-.89-3-.42-3.08,3-.54,7.62-1.08,8.39-4.89.73-3.62-2-4.82-4.35-4.66A8.43,8.43,0,0,0,175,52.82c-.2-.23-1.7-2.12-1-3a10.43,10.43,0,0,1,8.16-3.69c5.89,0,9.12,3,8.74,8.51a6,6,0,0,1-4,4.5c3.47.62,5.47,2.93,5.66,6.7C192.9,71.83,188,75.49,181.35,75.49Z"/><circle cx="236" cy="61.53" r="34.44"/><text class="cls-9" transform="translate(224.45 75.26)">4</text><text class="cls-10" transform="translate(280.41 71.34)">The n<tspan class="cls-11" x="76.17" y="0">e</tspan><tspan class="cls-12" x="92.55" y="0">xt e</tspan><tspan class="cls-13" x="145.35" y="0">l</tspan><tspan x="154.56" y="0">ement is the en</tspan><tspan class="cls-14" x="371.64" y="0">t</tspan><tspan class="cls-15" x="383.73" y="0">r</tspan><tspan x="397.32" y="0">y</tspan></text></svg>