<svg id="Layer_1" data-name="Layer 1" xmlns="http://www.w3.org/2000/svg" viewBox="0 0 780 1051.14"><defs><style>.cls-1{fill:#c6946f;}.cls-1,.cls-2,.cls-3,.cls-5,.cls-6{stroke:#fff;stroke-miterlimit:10;}.cls-1,.cls-2,.cls-3,.cls-6{stroke-width:0.42px;}.cls-2{fill:#b58362;}.cls-3{fill:#d4a47c;}.cls-4{fill:#221913;}.cls-5{fill:#fff171;stroke-width:0.3px;}.cls-6{fill:#005058;}.cls-7,.cls-8{fill:#fff;}.cls-7{opacity:0.7;}</style></defs><path class="cls-1" d="M451.48,688.07q-3.63-9.71-8-19.11c-4.21-9.12,1.54-49.74-1.38-59.28l-8.93,32.12c-.77.93-.86,2.47-1.37,3.57a17.38,17.38,0,0,1-1.91,3.42,15,15,0,0,0-2.16,3.22c-.57,1.33-.79,2.78-1.24,4.15-1.8,5.49-2,11.46-2,17.26a71.32,71.32,0,0,0-.05,8.14c.38,3.56,1.29,7,2,10.53.63,3.12,1.62,6.18,2.49,9.23a39.07,39.07,0,0,0,5.45,10.85l.32.51c-1.37-1.36-3.1-3.28-5.47-6.15a12.16,12.16,0,0,1-3-8.11,14.65,14.65,0,0,0-.87,2.05c-.61,1.81-.31,3.7-.34,5.77,0,1.61-.9,3.11-.08,4.69,13.31,25.58,3.2,48.54,17.82,80.72l8.23,15.53c5.13,11.29,12.92,33.05,17.22,42.17,2.44,6.28,2.92,14.84,6.85,22.8,3.73,7.55,10.94,14.6,11.6,16.26,3.41,8.67,6.34,17.73,10.16,26.2.33.76.67,1.51,1,2.27.42.94.84,1.88,1.25,2.82.21.47.41.94.62,1.4a1.81,1.81,0,0,1,.17.59,5.15,5.15,0,0,0,.44,1l.34.57a1.54,1.54,0,0,0,.35.37c.12.07.32.24.44.29s.5,0,.73-.15c.57-.28.54-.69.5-1.19a6.59,6.59,0,0,1,.34,1.25,12.66,12.66,0,0,0,1.13,2.79,5.26,5.26,0,0,0,1.51,2.12,1.35,1.35,0,0,0,1.27.19,1.27,1.27,0,0,0,.81-.82,1.38,1.38,0,0,0-.09-1.25c-.22-.46-.28-1-.51-1.42l0,0c-1.27-.69.32.12.51.08.35-.09.54-.52.73-.8a1.23,1.23,0,0,1,.45-.43,1.16,1.16,0,0,0,.48-.81,10.24,10.24,0,0,0-.4-3.1c-.22-1-.21-2.14-.46-3.19-.1-.37-.19-.76-.27-1.14s-.16-.5-.23-.76c-.16-.71-.41-1.37-.62-2.07a19.66,19.66,0,0,0-.67-2.14c-.27-.64-.45-1.28-.74-1.91s-.36-1.22-.57-1.82a14.39,14.39,0,0,1-.43-2c-.07-.39-.15-.75-.19-1.14a4.6,4.6,0,0,0-.47-1.21,17.28,17.28,0,0,1-.86-2.41c-.32-1.13-.84-2.14-1.05-3.29-.31-1.76-.7-3.51-1-5.25,0-.19-.05-.41-.08-.61a2.47,2.47,0,0,1-.08-.6c.16-.12.29,0,.46,0s.33,0,.5,0a2.83,2.83,0,0,0,.77,0,3.87,3.87,0,0,0,1.52-.55,3.37,3.37,0,0,0,.58-.61,1.36,1.36,0,0,0,.33-.52c0-.15,0-.3.05-.45a6.25,6.25,0,0,0,.47-2.45,6.9,6.9,0,0,0-.69-1.7,5,5,0,0,0-1-1.38c-.35-.39-.77-.69-1.09-1.11s-.81-.88-1.17-1.34a7.23,7.23,0,0,0-1.39-1.48,7.84,7.84,0,0,1-1.41-1.41c-2.22-2.85-4-6.82-6.53-9.73-3.06-3.54-6.56-4.33-8.53-8.47-4-8.46-5.07-43.3-6.84-52.41l.08-1.14c-3-15.65-5.07-35.19-8.16-52.15a401.29,401.29,0,0,0-14.36-57.18C453.59,693.86,452.56,691,451.48,688.07Z"/><path class="cls-1" d="M501.16,890.8a2.49,2.49,0,0,0-.72-.56c-.5-.33-1-.71-1.47-1s-.7-.55-1.05-.85-.76-.67-1.12-1.05-.5-.55-.74-.84a6.17,6.17,0,0,1-.55-.88c-.39-.67-.75-1.36-1.12-2a5,5,0,0,0-1.07-1.45c-.6-.53-1.28-1-1.88-1.53-.4-.36-.74-.76-1.1-1.14s-.47-.55-.69-.83-.55-.65-.8-1c-.13-.17-.31-.33-.42-.51s-.11-.26-.19-.39a3.17,3.17,0,0,1-.23-.45,4.75,4.75,0,0,0-.43-.91c-.08-.11-.18-.5-.34-.45"/><path class="cls-1" d="M502.58,884.38l.28.3,1.61,1.76a3.3,3.3,0,0,1,1.14,2.18,2.76,2.76,0,0,1-1.15,1.84,1.94,1.94,0,0,1-1.23.56,2,2,0,0,1-1.14-.52,14,14,0,0,1-3.14-3.38,1.7,1.7,0,0,1-.39-1.3,1.55,1.55,0,0,1,.31-.63,3.47,3.47,0,0,1,1.35-1.23,2.06,2.06,0,0,1,1.78,0A2.82,2.82,0,0,1,502.58,884.38Z"/><path class="cls-1" d="M497.24,903.93c.3-.14.6-.3.91-.41a.65.65,0,0,1,.39,0c.14.05.25.21.37.3"/><path class="cls-1" d="M499,905.22l-.57.26c-.15.07-.3.07-.45.14"/><path class="cls-1" d="M499.29,905.71l-.56.25-.29.13c-.11,0-.21,0-.32.08"/><path class="cls-1" d="M500.18,906.69a1.48,1.48,0,0,0-.37.2c-.14.12-.25.29-.38.42a3,3,0,0,1-.37.25,2.14,2.14,0,0,1-.4.2"/><path class="cls-1" d="M497.33,908c-.2.09-.33.25-.52.34l-.23.1c-.09,0-.25,0-.33.09"/><path class="cls-1" d="M495.73,907.63c.17-.08.34-.09.51-.17l.47-.21"/><path class="cls-1" d="M495.64,907.15l.62-.27"/><path class="cls-1" d="M495.26,905.78l.79-.35a1.79,1.79,0,0,1,.75-.17"/><path class="cls-1" d="M506.24,924.92c-2.2-4.11-6.88-14.84-8.68-19.13-1.69-4-2.26-8.07-5.56-11"/><path class="cls-1" d="M501.36,919.19c-3-6.5-6-12.92-8.92-19.48"/><path class="cls-1" d="M508,925.14c2.11-1.71.2-4.1-.32-4.89-.9-1.35-1-1.28-2.43-.94-.24.05-1.06.74-1.3.84"/><path class="cls-1" d="M503.17,924.11a4.12,4.12,0,0,1,1.12-.29c.23.07.47.09.69.16a2.43,2.43,0,0,1,.92.51c.56.46.75,1.42,1,2a2.9,2.9,0,0,1-.34,2.8c-.21.25-.92.42-1.79-.91Z"/><path class="cls-1" d="M498.62,918.82a3.77,3.77,0,0,1,.65-.12,4.17,4.17,0,0,1,1.3.18,1.55,1.55,0,0,1,.95.5,2.22,2.22,0,0,1,.35.87c.32,1.17,1,2.45.35,3.63a.93.93,0,0,1-.35.41c-.65.42-1.39-.53-1.68-1C500.19,923.31,498.63,918.86,498.62,918.82Z"/><path class="cls-2" d="M231.28,215.21a22.53,22.53,0,0,1,13.52,15.3c3.87,14.35,4.34,28.37,5.15,42.94.19,3.39.37,6.78.56,10.17.14,2.42-.41,5.52.4,7.87,2.2,6.42,4.24,15.92,6.39,22.36,2,6.09,9.55,23.39,12.33,29.18,1.26,2.62,2.5,5.33,3.95,7.85.4.69,2.64,3.6,5.45,7.19,7.22,9.25,20.07,10.53,27.82,2.74l4.62-4.65c4.94-5,6.12-12.9,2.87-19.66-2.07-4.29-4.18-8.56-6.27-12.85-3.37-6.92-12-25.24-15.56-32-1.29-2.44-2.55-4.9-3.71-7.41-.84-1.81-1.39-3.71-2.16-5.54-4.75-11.16-8.58-22.67-12.32-34.18-3.57-11-7-21.56-8.61-33a152.06,152.06,0,0,0-5-22.81c-2.14-7.23-5.93-13.32-8.76-20.26-1.1-2.7-1.91-5.5-3-8.2-1.9-4.61-5-12-8.5-15.46-1.09-1.08-2-2.44-3.23-3.39a34,34,0,0,0-4.06-2.43c-1.28-.77-2.68-1.67-4.17-1.12a7,7,0,0,0-2.63,2.19c-1,1.23-.74,2.47-.46,4.17.53,3.15,1.22,6.28,2,9.4a20.13,20.13,0,0,1,.35,2.31c.78,6.48,2.11,12.81,2.39,19.39a17.4,17.4,0,0,1-2.48,11c-2.34,4.65-5.4,9.21-7.18,14.16a12.31,12.31,0,0,0-.84,5.37c.15,1.95,1.6,3.25,3,4.4A31.4,31.4,0,0,0,231.28,215.21Z"/><path class="cls-3" d="M448.21,723.47c3.44-7.45,8.57-16.2,6.42-25.55-2.37-10.28-12.09-8.64-19.69-13.49L432.69,683c2.27-3.68,1.2-9,1.09-13.5-.3-13.29.73-25.52,5.89-37.63a.3.3,0,0,0-.49-.34c-2.6,2.61-6.56,3.86-9.23,6.38-4.22,4-2.91-10-4.77-4.56-1.65,4.8-7.48,29.18-8.71,34-1.86-2-3.25-3.31-3.53-3.14-8.7,5.15-4.09,28.38-11.88,35-1.58,1.34-2.91,2.1-4.18,3.78s-2.4,3.17-3.64,4.73-1.76,3.63-2.32,5.63a52.41,52.41,0,0,0-1.31,5.88c-.84,5.21.78,10.58,2.34,15.42s3,10.32,7,13.71c2.53,2.13,5.23,1.31,8.74,1.34,1.81,0,3.17,2.15,4.77,1.44.62-.27,1.45-.36,2-.68s1.22-1.17,1.91-1.62a17,17,0,0,0,3.7-2.64c1.08-1.2,2.3-2.21,3.32-3.43a24.77,24.77,0,0,1,3.29-3.34c1.18-1,2.45-2.17,3.74-3,4.2-2.86,10.45-3,15.26-4.32C451.9,730.3,446.49,727.21,448.21,723.47Z"/><path class="cls-4" d="M408.41,746.15c-6.38-4.89-6.72-10.83-10-18.3-5.33-12.08-11.54-22.94-13.67-35.92a14.75,14.75,0,0,0-1.05-4c-1.66-3.48-6.13-5-9.87-4.11s-6.74,3.88-8.59,7.27c-3.54,6.49-4.4,15.54-3.42,22.82.24,1.82.31,3.72.65,5.52a21.35,21.35,0,0,0,2.15,5.24c1.51,3.13,2.92,6.29,5.2,9a38.5,38.5,0,0,0,6.37,5.93c2.23,1.7,3.87,3.87,6.09,5.53s4.4,3.54,7.12,4.6c2.08.8,4,1.73,6.19,2.4a21,21,0,0,0,4.54.44c2,.19,3.16-.34,5-1.2,2.19-1,7.41-3,3.31-5.18"/><path class="cls-4" d="M371.85,663.11c-1.26-1-2.75-2.66-4.2-3.22s-4.39.54-6,1.06c-2.68.84-7.58,4.78-7.58,7.85,0,3.32,2.32,8.12,4.7,10.43,1.37,1.32,6.29,5.18,7.75,2.24-.64-2.35-4.49-1.66-6.27-1.16-1.63.46-3.76,3.29-3.86,5-.14,2.41,1.63,3.6,3.29,4.86,1.49,1.14,3,2.7,4.79,3.21,1.64.47,4.47.83,6.1.24,1.05-.38,4.46-3.51,4.71-4.84.23-1.13-.37-1.16-1.12-1.79a4.42,4.42,0,0,1-1.6-2c-.3-.65-.91-1.41-.74-2.07a3.84,3.84,0,0,0,1.72-1.17,2.21,2.21,0,0,0,.57-1.92"/><path class="cls-3" d="M334.49,514.53c3.91,3.06,10.36,33.22,13.47,37,.45.54,1.19.84,1.67,1.41,1.06,1.25,2.12,2.9,3.1,4.23a25.55,25.55,0,0,1,3.26,6.93c1.52,4.7,4.22,8.95,5.62,13.6,1.52,5,4.86,9.28,6,14.3,2.6,11.31,3.33,23.06,4.56,34.65.6,5.7-.11,11.58.7,17.26.49,3.44.46,6.66.65,10.1.13,2.18,2.06,6.39.68,8.25-2.23.19-4-1.72-5.59-3-2.61-2,.13-6.19-1.4-9.14-1.39-2.66-3.42-4.26-4.72-6.95-3.36-6.93-19-36.12-20-56.62-.16-3.2-12.63-56-12.93-59.21C329,521,339.38,518.37,334.49,514.53Z"/><path class="cls-3" d="M452.59,783c-5.7-9.75-9.69-20.07-13.55-30.65a303,303,0,0,0-12.2-27.91c-5.66-11.71-9.5-26.52-9.07-39.52-1.8-13.59,2.08-36.71,6.75-49,.13-.32.25-.64.35-1a5.75,5.75,0,0,0,.31-1.59c0-1.28.23,8.79-.42,7.68-6.66-11.39-21.23-19.75-32.05-26.72-5.44-3.51-18.88-14.85-25.62-11.77-4.9,2.24-11.33,13-12.13,18.3-1.63,10.81,5.61,17,9.38,26.55,4.09,10.41,4.05,24.71,7.26,35.41,5,16.52,14.79,27.58,22.31,43,.65,1.32,1.07,2.82,1.66,4.15,2.13,4.83,4.87,9.43,6.82,14.29,1.71,4.28,3.83,8.37,5.76,12.54a57.94,57.94,0,0,0,4.2,8.09c1.72,2.59,3.51,5.28,5.51,7.79"/><path class="cls-5" d="M422.78,644.68a7.78,7.78,0,0,1-1.16.43c-.57.11-.46.09-1.45-.66a7,7,0,0,1-1.54-1.8c-.37,6.2-.82,12.4-1.19,18.61s-1,12.25-.61,18.36c.24,3.87.4,5.61.77,9.47,0-.07.62.07.63,0a30.57,30.57,0,0,1,1-6.93,59.45,59.45,0,0,0,.9-7.67C420.35,672,423,644.69,422.78,644.68Z"/><path class="cls-5" d="M369.57,604a7.27,7.27,0,0,1-1.22-.6,3.51,3.51,0,0,1-1-1,2.65,2.65,0,0,1-.33-.65,41.12,41.12,0,0,0-10.6,11,45.94,45.94,0,0,0-4.37,8l1.26,3.09q.36.78.75,1.56l.06.1a.12.12,0,0,1,0,.08l.67,1.32a16,16,0,0,1,1.63-5.56,43.66,43.66,0,0,1,3.64-6.46,36.17,36.17,0,0,1,10.52-10.5C370.23,604.23,369.89,604.11,369.57,604Z"/><path class="cls-3" d="M417.86,772.59c12.44,23.51,60.8,130.92,73.85,154l2.91,5.16.8,1.41a2.28,2.28,0,0,1,.24.61,5.1,5.1,0,0,0,.57,1l.42.58a1.65,1.65,0,0,0,.4.35,4.81,4.81,0,0,0,.5.26c.27.1.52-.1.75-.24.58-.35.46-.86.36-1.38a4.72,4.72,0,0,1,.54,1.36,13.71,13.71,0,0,0,1.48,2.84,5.71,5.71,0,0,0,1.82,2.08,1.48,1.48,0,0,0,1.37.08,1.36,1.36,0,0,0,.76-1c.16-.53.35-1,.08-1.46s-.59-.62-1-1.3a1.12,1.12,0,0,0,.51,0c.36-.13.51-.61.68-.92a1.34,1.34,0,0,1,.44-.5,1.19,1.19,0,0,0,.42-.9,10.69,10.69,0,0,0-.75-3.24c-.33-1.08-.44-2.25-.81-3.33-.14-.39-.28-.78-.4-1.18s-.23-.51-.32-.78c-.25-.74-.59-1.41-.87-2.13a22.2,22.2,0,0,0-.94-2.19c-.22-.4-.41-.81-.6-1.22.5-1.23,1.1-1.16,1.28-2.45,0-.34-.47-2.09-.5-2.43a4.64,4.64,0,0,0-.19-.82,58,58,0,0,0-4.86-10.41c-2.26-4.1-3.63-8.41-5.45-12.68a67.41,67.41,0,0,0-6.81-12.3,16.85,16.85,0,0,0-3.85-3.83c-5.06-4-6.25-10.47-7.66-16.35-1-4.06-2.11-8.09-3.13-12.14-2.73-10.83-5.42-21.67-8.23-32.48-2.76-10.59-5.32-21.39-9.1-31.67"/><path class="cls-3" d="M491.77,915.65c.31-.17.61-.37.92-.52a.64.64,0,0,1,.41,0,2.2,2.2,0,0,1,.43.27"/><path class="cls-3" d="M493.26,916.2l-.58.32c-.15.09-.31.11-.46.2"/><path class="cls-3" d="M493.71,916.66l-.57.32-.29.16a1.31,1.31,0,0,1-.33.12"/><path class="cls-3" d="M494.69,917.18a1.34,1.34,0,0,0-.37.25c-.14.14-.24.33-.37.48a3.37,3.37,0,0,1-.36.3,2.19,2.19,0,0,1-.41.26"/><path class="cls-3" d="M491.55,919.44c-.2.12-.32.31-.51.42l-.24.13c-.09.06-.26.06-.34.13"/><path class="cls-3" d="M489.82,919.21c.17-.1.35-.13.52-.23l.48-.27"/><path class="cls-3" d="M489.67,918.72l.63-.36"/><path class="cls-3" d="M489.13,917.3l.8-.45a1.75,1.75,0,0,1,.78-.25"/><path class="cls-3" d="M498.71,934.4c-.69-1.22-3.62-6.3-4.31-7.52l-1-1.84-.53-.93c-.18-.34-.44-.62-.64-1-.54-.87-1.16-1.68-1.67-2.57-.2-.36-.4-.72-.61-1.08-.37-.65-.63-1.35-.94-2-.24-.51-.45-1-.72-1.48l-.74-1.3c-1-1.77-2-3.53-3-5.3a17.5,17.5,0,0,0-1.58-2.18,18,18,0,0,1-1.66-2"/><path class="cls-3" d="M500.67,932.23a2.48,2.48,0,0,1,1.62-.2,2.34,2.34,0,0,1,1.41,1,5.38,5.38,0,0,1,1,2.87,2.09,2.09,0,0,1-.5,1.15.32.32,0,0,1-.49-.08,222.88,222.88,0,0,1-11.6-20.39c-.62-1.1-1-2.36-1.54-3.49a2,2,0,0,1-.17-.56c-.12-.22-2.43-4.5-2.55-4.74"/><path class="cls-3" d="M501.14,920.18c-.11.09-.31.06-.44.05a.92.92,0,0,1-.52-.17,3.79,3.79,0,0,1-1.13-1.54c-.61-1.07-1.21-2.15-1.82-3.21-.17-.3-.27-.62-.43-.92s-.25-.44-.37-.66l-.65-1.14c-.56-1-1.11-2-1.69-3-.48-.81-1.14-1.5-1.65-2.28-.2-.31-.35-.65-.54-1a6.9,6.9,0,0,0-.82-1c-.26-.3-.55-.6-.79-.93s-.32-.66-.55-.94-.31-.31-.43-.48a2.89,2.89,0,0,1-.19-.35c-.11-.18-.27-.32-.38-.5s-.08-.24-.22-.27a.8.8,0,0,0,.15.29.07.07,0,0,0-.05.07"/><path class="cls-3" d="M494,909.42c.1-.17,1.19-1.49,1.32-1.27"/><path class="cls-3" d="M494.58,909.53a8.21,8.21,0,0,0,.8-.63"/><path class="cls-3" d="M494.94,910.48c.22,0,.57-.4.69-.52l.42-.41c.09-.08.22-.16.25-.28"/><path class="cls-3" d="M499.56,936.45c.17-.07.7-.39.87-.35s.4,0,.6.09a2.28,2.28,0,0,1,1.06.56,13.13,13.13,0,0,1,1,1.46,3.3,3.3,0,0,1,.26.39c0,.09.06.18.09.27a7,7,0,0,1,.39,1.37c0,.34-.21.36-.37.67s-.69.45-1.67-.68Z"/><path class="cls-3" d="M495.18,932.88a3.91,3.91,0,0,1,.84-.39h.54a1.51,1.51,0,0,1,.9.31c.32.27.44.71.69,1a1.54,1.54,0,0,1,.19.28.84.84,0,0,1,.05.2,3.79,3.79,0,0,1,.18,1c0,.28-.24.32-.43.59s-.68.45-1.43-.33Z"/><path class="cls-3" d="M498.22,917a3.7,3.7,0,0,1,.84-.39h.54a1.51,1.51,0,0,1,.9.31c.32.27.44.71.69,1a1.73,1.73,0,0,1,.19.28,1.46,1.46,0,0,1,.05.2,3.79,3.79,0,0,1,.18,1c0,.27-.24.32-.43.58s-.69.45-1.44-.32Z"/><path class="cls-6" d="M436,643c2.17-3.38,7.65-21,8-24.81,1.2-14.54-1.18-29.9-12.41-40.2a21,21,0,0,1-4.36-4.63c-1.57-2.72-1.43-6.63-2-9.68-.8-4.07-1.77-8.11-2.92-12.09-3.15-10.87-8.4-20.85-11.85-31.6q-6.62-20.66-14.27-41c-4.86-12.92-10.63-27-21.9-35.67l-2.61-.27c.19,1.32.91,2.58,1.18,3.91.33,1.55,1.28,2.83,1.63,4.38A140.12,140.12,0,0,1,378,474.76c.45,7.88.88,16.71-2.78,23.87a16.84,16.84,0,0,1-1.87,2.61c-2.41,3.09-3.72,6.37-6.83,9.05-8.79,7.59-21.51,8.49-32,4.24a65.28,65.28,0,0,1-12.85-7.3c-2.44-1.71-13.25-24.08-15.76-26.08.56,1.5-1.73,6.75-1.14,8.25-.78,6.8,9.57,20.89,11.5,23.92,16.57,26,39.24,47.29,48.35,77.85.61,2,2.4,10.55,2.5,11.35a22.84,22.84,0,0,0,3.48,1.82s4.93-.74,7.91,1.13q5.73,3.59,11.19,7.58A141.9,141.9,0,0,1,409.86,631c2.36,2.54,4.6,5.19,6.74,7.92.81,1,2.26,6.24,2.26,6.24a16.39,16.39,0,0,0,3.92-.43C430.87,641.11,433.27,642.83,436,643Z"/><path class="cls-1" d="M379.66,441.91c-9.53-21.41-19.55-29.51-30.23-50.9-9.36-18.74-18.31-30.39-33.34-44.92a4.09,4.09,0,0,1-1-1.23,4.7,4.7,0,0,1-.27-1.59c-.47-6.92-8.81-18.32-12.07-24.2-3.73-6.73-13.27-24.59-17.21-31.2-1.41-2.37-2.8-4.76-4.09-7.2-.93-1.77-1.58-3.64-2.45-5.43-5.32-10.9-9.74-22.19-14.07-33.49-4.14-10.78-8.16-21.17-10.31-32.5a152.28,152.28,0,0,0-6.21-22.51c-2.51-7.11-6.61-13-9.8-19.78-1.24-2.64-2.2-5.4-3.44-8-2.13-4.51-5.58-11.68-9.3-15-1.14-1-2.17-2.32-3.39-3.21a33.5,33.5,0,0,0-4.19-2.21c-1.31-.71-2.75-1.54-4.22-.91a7.06,7.06,0,0,0-2.51,2.32c-1,1.29-.61,2.51-.24,4.19.69,3.13,1.55,6.21,2.47,9.29a20.22,20.22,0,0,1,.47,2.29c1.12,6.43,2.77,12.68,3.39,19.24a22.74,22.74,0,0,1,.07,5.08,22.43,22.43,0,0,1-2,6c-2.1,4.76-4.91,9.48-6.43,14.51a12.18,12.18,0,0,0-.56,5.41c.25,1.94,1.77,3.16,3.23,4.24a31.82,31.82,0,0,0,8.43,4.59,22.53,22.53,0,0,1,14.3,14.58c4.61,14.13,5.81,28.11,7.37,42.62.81,7.47,1.11,14.82,3.29,22.07,4.88,16.19,11.9,31.57,20,46.39,1.39,2.55,2.77,5.2,4.35,7.63.28.44,1.4,1.78,3,3.6a2.27,2.27,0,0,0,.06.25c5.53,21.38,7.87,43.51,12.61,65.08q4.86,22.22,10.94,44.16c3.48,12.55,5.92,26.55,13.94,37.32,7.65,10.3,18.64,17.81,30.2,20.66,7.3,1.8,14.93,1.74,21.44-1.11,9-3.94,25.84-19.85,28.92-29.78C397.7,466,386.93,458.22,379.66,441.91Z"/><path d="M127.67,678.73a68.37,68.37,0,0,0,25.22,22.81,81.79,81.79,0,0,0,30,8.72,88.41,88.41,0,0,0,16.43.06c1.91-.17,1.93-3.17,0-3-19.82,1.76-40.89-3.08-56.41-16a65,65,0,0,1-12.69-14.16c-1.06-1.6-3.66-.1-2.59,1.52Z"/><path d="M186.2,702.73c4.44,2.16,8.64,4.75,12.89,7.23l-.3-2.35c-1.75,1.78-3.41,3.63-5.13,5.43s-3.26,3.28-4.85,5c-1.33,1.41.79,3.53,2.12,2.12,1.59-1.68,3.25-3.28,4.85-5s3.38-3.66,5.13-5.44a1.52,1.52,0,0,0-.3-2.36c-4.26-2.48-8.46-5.07-12.89-7.23-1.73-.85-3.25,1.74-1.52,2.59Z"/><path d="M53.76,583.75c3.48,0,5.48,1.31,5.48,4.26a4,4,0,0,1-2.34,3.88A4,4,0,0,1,59.71,596c0,3-1.9,5-5.87,5H47V583.75Zm-3.69,7h3.52c1.58,0,2.57-.76,2.57-2.32s-.87-2.07-2.45-2.07H50.07Zm0,7.67h3.79c1.68,0,2.71-.79,2.76-2.46s-1.18-2.54-3-2.54H50.07Z"/><path d="M67.87,588c3.23,0,6,2.19,6,6.6,0,3.63-2.14,6.59-6.16,6.59-4.37,0-6.17-3-6.17-6.59C61.58,590.16,64.37,588,67.87,588Zm-3.08,6.6c0,2,.69,4,3,4,2.09,0,3-2,3-4,0-2.86-1.4-4-3-4S64.79,591.66,64.79,594.57Z"/><path d="M88.71,582.17V601H86.15l-.35-2.22a4.52,4.52,0,0,1-4.12,2.37c-3.47.05-5.54-2.84-5.54-6.64,0-4.63,3-6.55,5.52-6.55a4.09,4.09,0,0,1,4,2.44v-7.84ZM79.29,594.5c0,2.19.87,3.92,3.16,3.92s3.25-1.73,3.25-3.9c0-2.93-1.58-4-3.28-4S79.29,591.66,79.29,594.5Z"/><path d="M94,588.09l3.18,9.12h.2l2.91-9.12h3.16L98.7,601.21c-1.58,4.31-3.06,5.4-7.62,4.44l.54-2.59c2.91.71,3.31.05,4.22-2.49L91,588.09Z"/><path d="M111.18,597.31a6.72,6.72,0,0,0,4.19,1.43c1.49,0,2.35-.44,2.35-1.5,0-2.52-7.47-.84-7.23-5.58.1-2.31,1.8-3.69,5.23-3.69a10.55,10.55,0,0,1,4.66,1.2l-1.08,2.17a7.41,7.41,0,0,0-3.7-1.06c-1.21,0-2.22.4-2.17,1.41.14,2,7.32.47,7.32,5.45,0,2.66-2.39,4-5.45,4a8.86,8.86,0,0,1-5.3-1.68Z"/><path d="M126.3,582.17v8a4.82,4.82,0,0,1,4.24-2.19c3,0,4.49,1.94,4.49,4.61V601H132v-7.45c0-2-.74-3-2.41-3-2.35,0-3.26,1.9-3.26,4V601h-3.06V582.54Z"/><path d="M143.91,588c3.23,0,6,2.19,6,6.6,0,3.63-2.14,6.59-6.16,6.59-4.37,0-6.17-3-6.17-6.59C137.62,590.16,140.41,588,143.91,588Zm-3.08,6.6c0,2,.69,4,3,4,2.09,0,3-2,3-4,0-2.86-1.41-4-3-4S140.83,591.66,140.83,594.57Z"/><path d="M155.55,588.09v7.45c0,2,.79,3,2.59,3,2.35,0,3.31-2.42,3.31-4.86v-5.62h3.05V601h-2.44l-.44-2.81a4.71,4.71,0,0,1-4.46,3c-3.16,0-4.66-1.95-4.66-5.2v-7.87Z"/><path d="M170.72,582.17v14.62c0,1.38.62,1.75,1.53,1.75a2.43,2.43,0,0,0,1.28-.46l.57,2.19a5.35,5.35,0,0,1-2.79.89c-2.56,0-3.65-1.73-3.65-4.07V582.54Z"/><path d="M187.17,582.17V601h-2.56l-.35-2.22a4.52,4.52,0,0,1-4.12,2.37c-3.47.05-5.55-2.84-5.55-6.64,0-4.63,3-6.55,5.53-6.55a4.1,4.1,0,0,1,4,2.44v-7.84Zm-9.42,12.33c0,2.19.86,3.92,3.16,3.92s3.25-1.73,3.25-3.9c0-2.93-1.58-4-3.28-4S177.75,591.66,177.75,594.5Z"/><path d="M49.87,616.09v8.21a4.4,4.4,0,0,1,4.31-2.42c2.44.07,5.06,1.73,5.06,6.48,0,3.9-2,6.71-5.45,6.71a4.28,4.28,0,0,1-4.07-2.37l-.42,2.22H46.81V616.48Zm-.13,12.35c0,2.22.82,4,3.26,4,2,0,3.11-1.5,3.11-4,0-3-1.51-3.95-3.14-3.95S49.74,625.85,49.74,628.44Z"/><path d="M73.27,631.37a5.76,5.76,0,0,1-5.57,3.7c-4.34,0-6.26-2.71-6.26-6.75s2.71-6.54,6.43-6.44c3,.07,5.75,2.34,5.45,6.46l0,.39H64.54c0,2.2.94,3.7,3.18,3.7a2.87,2.87,0,0,0,2.79-2Zm-3.13-4.21c0-2-1-2.94-2.54-2.89a2.88,2.88,0,0,0-2.91,2.89Z"/><path d="M87.26,631.3c-.84,2.64-3,3.77-5.63,3.77-4.24,0-6.06-3.15-6.06-6.61,0-4.21,2.61-6.51,6.14-6.58,3.11-.07,5,1.53,5.5,3.8l-2.84.91a2.54,2.54,0,0,0-2.61-2.12c-1.78,0-3.13,1.31-3.13,3.94,0,2.1.79,4,3.08,4a2.6,2.6,0,0,0,2.71-2Z"/><path d="M95.55,621.88c3.23,0,6,2.19,6,6.61,0,3.62-2.15,6.58-6.17,6.58-4.36,0-6.16-3-6.16-6.58C89.26,624.07,92,621.88,95.55,621.88Zm-3.09,6.61c0,2,.69,4,3,4,2.1,0,3-2,3-4,0-2.86-1.4-4-3-4C93.84,624.47,92.46,625.58,92.46,628.49Z"/><path d="M106.74,622l.45,2.3a4.33,4.33,0,0,1,4-2.45,3.77,3.77,0,0,1,3.85,2.4,4.55,4.55,0,0,1,4.17-2.4c3,0,4.21,2,4.21,4.64v8.43h-3v-7.44c0-2-.47-3-2.15-3-2.22,0-2.81,1.68-2.81,3.58v6.9h-3.06v-7.44c0-2-.47-3-2.14-3-2.37,0-2.84,1.9-2.84,4v6.51H104.3V622Z"/><path d="M137.87,631.37a5.77,5.77,0,0,1-5.58,3.7c-4.34,0-6.26-2.71-6.26-6.75s2.71-6.54,6.44-6.44c3,.07,5.74,2.34,5.45,6.46l0,.39h-8.73c0,2.2.94,3.7,3.18,3.7a2.89,2.89,0,0,0,2.79-2Zm-3.13-4.21c0-2-1-2.94-2.54-2.89a2.87,2.87,0,0,0-2.91,2.89Z"/><path d="M147.81,622l3.11,9.37h.19L154.2,622h3.13l-4.81,12.92h-3.08L144.75,622Z"/><path d="M170.15,631.37a5.76,5.76,0,0,1-5.57,3.7c-4.34,0-6.26-2.71-6.26-6.75s2.71-6.54,6.43-6.44c3,.07,5.75,2.34,5.45,6.46l0,.39h-8.73c0,2.2.94,3.7,3.19,3.7a2.87,2.87,0,0,0,2.78-2ZM167,627.16c0-2-1-2.94-2.54-2.89a2.88,2.88,0,0,0-2.91,2.89Z"/><path d="M175.31,622l.57,2.67c.59-2,2.09-2.84,4.19-2.79a4.85,4.85,0,0,1,1.33.22l-.47,2.69a5.48,5.48,0,0,0-1.85-.25c-2.27.08-3.13,1.83-3.13,3.9v6.48h-3.06V622Z"/><path d="M187.89,618.35v3.78h3.25l-.42,2.46h-2.83v5.92c0,1.41.64,2,1.67,2a5.64,5.64,0,0,0,1.95-.57l.57,2.34a7.94,7.94,0,0,1-3.28.84c-3,0-4-2-4-4.14v-6.34H183v-2.46H185l.37-3.43Z"/><path d="M198.05,622v12.92H195V624.54h-1.8V622Zm-1.55-5a1.65,1.65,0,0,1,1.82,1.56,1.82,1.82,0,0,1-3.62,0A1.59,1.59,0,0,1,196.5,617Z"/><path d="M212.45,631.3c-.84,2.64-3,3.77-5.62,3.77-4.24,0-6.07-3.15-6.07-6.61,0-4.21,2.62-6.51,6.14-6.58,3.11-.07,5,1.53,5.5,3.8l-2.83.91a2.55,2.55,0,0,0-2.62-2.12c-1.77,0-3.13,1.31-3.13,3.94,0,2.1.79,4,3.08,4a2.61,2.61,0,0,0,2.72-2Z"/><path d="M215.12,622.82a15.36,15.36,0,0,1,4.88-.94c3.9,0,5.33,1.92,5.33,4.93V632a.65.65,0,0,0,.61.74,2.41,2.41,0,0,0,1-.15v2a5,5,0,0,1-2,.39,2.34,2.34,0,0,1-2.35-1.75,5.62,5.62,0,0,1-3.89,1.75c-2.52,0-4.39-1.28-4.42-4s2-4.09,5.26-4.09a19.84,19.84,0,0,1,2.78.25v-.77c0-1.4-.88-2.17-2.66-2.15a10.39,10.39,0,0,0-4,.79Zm7.15,6a13.13,13.13,0,0,0-2.52-.15c-1.48.07-2.41.76-2.44,2.07a1.82,1.82,0,0,0,2.1,1.9,5,5,0,0,0,2.86-1Z"/><path d="M232.14,616.09v14.62c0,1.38.61,1.75,1.52,1.75A2.46,2.46,0,0,0,235,632l.56,2.19a5.22,5.22,0,0,1-2.78.89c-2.57,0-3.65-1.73-3.65-4.07V616.45Z"/><path class="cls-7" d="M148.79,61.4a36.73,36.73,0,0,1,8.33-23.32,34.4,34.4,0,0,0-45.48-4.38A34.43,34.43,0,0,0,131.9,96a34.33,34.33,0,0,0,25.32-11.11A36.76,36.76,0,0,1,148.79,61.4ZM138,75.49s-3.7-.27-11.47-.27a25.63,25.63,0,0,0-4.93.31l-1.35-2.46c7.78-7.9,12.4-13.63,13-18.71.47-3.66-2-4.82-4.35-4.66a9.73,9.73,0,0,0-6.73,3.92c-.2-.23-1.93-2.07-1.47-2.65A12.43,12.43,0,0,1,130,46.12c5.89,0,9.09,3,8.74,8.51-.46,7-8,13.59-12.63,17.55l8.32-.08c1.77-.15,3-2.54,3.81-4.73,0,0,1.73.5,2,1C139.58,71.53,138.81,75.49,138,75.49Z"/><path class="cls-7" d="M95.79,61.4A36.74,36.74,0,0,1,104.16,38a34.44,34.44,0,1,0,.11,46.9A36.78,36.78,0,0,1,95.79,61.4ZM87.2,75.66H70.92L71,73.39l4.46-.58c.58,0,.81-.23.81-1,.08-10.05,0-19.6,0-19.6l-5.62,1.08c-.19-.31-1.12-2.46-.46-2.73l10.35-4,1,1s-.12,20.87,0,24.37c0,.77.19,1,.73,1l5.08.54Z"/><path class="cls-7" d="M201.79,61.4A36.74,36.74,0,0,1,210.16,38a34.43,34.43,0,0,0-47.76-2.48A34.8,34.8,0,0,0,172,93.43a34.41,34.41,0,0,0,38.24-8.51A36.78,36.78,0,0,1,201.79,61.4ZM181.35,75.49a15.64,15.64,0,0,1-7.86-2.19l1-2.89a21.48,21.48,0,0,0,7,1.66c3.35,0,5.51-1.74,5.55-5.24,0-2.46-1.43-4.35-4.47-4.74a17.82,17.82,0,0,0-5,.24c-.5.11-.89-3-.42-3.08,3-.54,7.62-1.08,8.39-4.89.73-3.62-2-4.82-4.35-4.66A8.43,8.43,0,0,0,175,52.82c-.2-.23-1.7-2.12-1-3a10.43,10.43,0,0,1,8.16-3.69c5.89,0,9.12,3,8.74,8.51a6,6,0,0,1-4,4.5c3.47.62,5.47,2.93,5.66,6.7C192.9,71.83,188,75.49,181.35,75.49Z"/><circle cx="236" cy="61.53" r="34.44"/><path class="cls-8" d="M237.43,67l-10.13-.08c-.11,0-1.42.2-1.42.2S225,65,225.3,64.79c.89-.46,12.94-16.86,14-18.63l3.2.53c-.08,3.93,0,11.36,0,17.41l4.69-.08c.35,0,.08,3-.53,3h-4.12c0,2.27,0,3.46.07,4.39,0,.77.2,1,.74,1l2.34.54-.07,2.23h-11.4l.08-2.27,2.23-.58c.58-.15.81-.23.81-1C237.39,69.72,237.39,68.68,237.43,67Zm-7.12-3h7.12c0-7,0-10.05,0-10.05S230.31,64.06,230.31,64.06Z"/><path d="M296.49,50.34l-.27,3.12h-5.55V71.34h-3.75V53.46h-5.76V50.34Z"/><path d="M302.64,48.42v9.72a5.86,5.86,0,0,1,5.16-2.67c3.69,0,5.46,2.37,5.46,5.61V71.34h-3.72V62.28c0-2.4-.9-3.69-2.94-3.69-2.85,0-4,2.31-4,4.83v7.92h-3.72V48.87Z"/><path d="M330.78,67a7,7,0,0,1-6.78,4.5c-5.28,0-7.62-3.3-7.62-8.22s3.3-7.95,7.83-7.83c3.69.09,7,2.85,6.63,7.86l-.06.48H320.16c0,2.67,1.14,4.5,3.87,4.5a3.5,3.5,0,0,0,3.39-2.49ZM327,61.89c.06-2.43-1.26-3.57-3.09-3.51a3.5,3.5,0,0,0-3.54,3.51Z"/><path d="M343.32,55.62l.57,2.79a5.8,5.8,0,0,1,5.37-2.94c3.69,0,5.46,2.37,5.46,5.61V71.34H351V62.28c0-2.4-.9-3.69-2.94-3.69-2.85,0-4,2.31-4,4.83v7.92h-3.72V55.62Z"/><path d="M372.3,67a7,7,0,0,1-6.78,4.5c-5.28,0-7.62-3.3-7.62-8.22s3.3-7.95,7.83-7.83c3.69.09,7,2.85,6.63,7.86l-.06.48H361.68c0,2.67,1.14,4.5,3.87,4.5a3.5,3.5,0,0,0,3.39-2.49Zm-3.81-5.13c.06-2.43-1.26-3.57-3.09-3.51a3.5,3.5,0,0,0-3.54,3.51Z"/><path d="M378.39,55.62l3.15,6.18,3.3-6.18h4l-4.35,7.8L389,71.34h-4.26l-3.3-6.12L378,71.34h-4.14l4.83-7.86-4.29-7.86Z"/><path d="M396.81,51.18v4.59h4l-.51,3h-3.45V66c0,1.71.78,2.37,2,2.37a6.83,6.83,0,0,0,2.37-.69l.69,2.85a9.82,9.82,0,0,1-4,1c-3.69,0-4.83-2.46-4.83-5V58.77H390.9v-3h2.37l.45-4.17Z"/><path d="M424.35,67a7,7,0,0,1-6.78,4.5c-5.28,0-7.62-3.3-7.62-8.22s3.3-7.95,7.83-7.83c3.69.09,7,2.85,6.63,7.86l-.06.48H413.73c0,2.67,1.14,4.5,3.87,4.5A3.5,3.5,0,0,0,421,65.82Zm-3.81-5.13c.06-2.43-1.26-3.57-3.09-3.51a3.5,3.5,0,0,0-3.54,3.51Z"/><path d="M431.4,48.42V66.21c0,1.68.75,2.13,1.86,2.13a2.93,2.93,0,0,0,1.56-.57l.69,2.67a6.47,6.47,0,0,1-3.39,1.08c-3.12,0-4.44-2.1-4.44-5V48.87Z"/><path d="M450.69,67a7,7,0,0,1-6.78,4.5c-5.28,0-7.62-3.3-7.62-8.22s3.3-7.95,7.83-7.83c3.69.09,7,2.85,6.63,7.86l-.06.48H440.07c0,2.67,1.14,4.5,3.87,4.5a3.5,3.5,0,0,0,3.39-2.49Zm-3.81-5.13c.06-2.43-1.26-3.57-3.09-3.51a3.5,3.5,0,0,0-3.54,3.51Z"/><path d="M457,55.62l.54,2.79a5.25,5.25,0,0,1,4.86-3,4.58,4.58,0,0,1,4.68,2.91,5.53,5.53,0,0,1,5.07-2.91c3.69,0,5.13,2.4,5.13,5.64V71.34h-3.72V62.28c0-2.4-.57-3.69-2.61-3.69-2.7,0-3.42,2-3.42,4.35v8.4H463.8V62.28c0-2.4-.57-3.69-2.61-3.69-2.88,0-3.45,2.31-3.45,4.83v7.92H454V55.62Z"/><path d="M494.85,67a7,7,0,0,1-6.78,4.5c-5.28,0-7.62-3.3-7.62-8.22s3.3-7.95,7.83-7.83c3.69.09,7,2.85,6.63,7.86l-.06.48H484.23c0,2.67,1.14,4.5,3.87,4.5a3.5,3.5,0,0,0,3.39-2.49ZM491,61.89c.06-2.43-1.26-3.57-3.09-3.51a3.5,3.5,0,0,0-3.54,3.51Z"/><path d="M501.12,55.62l.57,2.79a5.8,5.8,0,0,1,5.37-2.94c3.69,0,5.46,2.37,5.46,5.61V71.34H508.8V62.28c0-2.4-.9-3.69-2.94-3.69-2.85,0-4,2.31-4,4.83v7.92h-3.72V55.62Z"/><path d="M521.13,51.18v4.59h4l-.51,3h-3.45V66c0,1.71.78,2.37,2,2.37a6.83,6.83,0,0,0,2.37-.69l.69,2.85a9.82,9.82,0,0,1-4,1c-3.69,0-4.83-2.46-4.83-5V58.77h-2.19v-3h2.37L518,51.6Z"/><path d="M539.76,55.62V71.34H536V58.71h-2.19V55.62Zm-1.89-6.12a2,2,0,0,1,2.22,1.89,2.22,2.22,0,0,1-4.41,0A1.93,1.93,0,0,1,537.87,49.5Z"/><path d="M544,66.84a8.15,8.15,0,0,0,5.1,1.74c1.8,0,2.85-.54,2.85-1.83,0-3.06-9.09-1-8.79-6.78.12-2.82,2.19-4.5,6.36-4.5a12.78,12.78,0,0,1,5.67,1.47l-1.32,2.64a8.9,8.9,0,0,0-4.5-1.29c-1.47,0-2.7.48-2.64,1.71.18,2.49,8.91.57,8.91,6.63,0,3.24-2.91,4.92-6.63,4.89a10.76,10.76,0,0,1-6.45-2Z"/><path d="M569.79,51.18v4.59h4l-.51,3h-3.45V66c0,1.71.78,2.37,2,2.37a6.83,6.83,0,0,0,2.37-.69l.69,2.85a9.82,9.82,0,0,1-4,1c-3.69,0-4.83-2.46-4.83-5V58.77h-2.19v-3h2.37l.45-4.17Z"/><path d="M581,48.42v9.72a5.86,5.86,0,0,1,5.16-2.67c3.69,0,5.46,2.37,5.46,5.61V71.34h-3.72V62.28c0-2.4-.9-3.69-2.94-3.69-2.85,0-4,2.31-4,4.83v7.92h-3.72V48.87Z"/><path d="M609.12,67a7,7,0,0,1-6.78,4.5c-5.28,0-7.62-3.3-7.62-8.22s3.3-7.95,7.83-7.83c3.69.09,7,2.85,6.63,7.86l-.06.48H598.5c0,2.67,1.14,4.5,3.87,4.5a3.5,3.5,0,0,0,3.39-2.49Zm-3.81-5.13c.06-2.43-1.26-3.57-3.09-3.51a3.5,3.5,0,0,0-3.54,3.51Z"/><path d="M632.52,67a7,7,0,0,1-6.78,4.5c-5.28,0-7.62-3.3-7.62-8.22s3.3-7.95,7.83-7.83c3.69.09,7,2.85,6.63,7.86l-.06.48H621.9c0,2.67,1.14,4.5,3.87,4.5a3.5,3.5,0,0,0,3.39-2.49Zm-3.81-5.13c.06-2.43-1.26-3.57-3.09-3.51a3.5,3.5,0,0,0-3.54,3.51Z"/><path d="M638.79,55.62l.57,2.79a5.8,5.8,0,0,1,5.37-2.94c3.69,0,5.46,2.37,5.46,5.61V71.34h-3.72V62.28c0-2.4-.9-3.69-2.94-3.69-2.85,0-4,2.31-4,4.83v7.92h-3.72V55.62Z"/><path d="M658.8,51.18v4.59h4l-.51,3H658.8V66c0,1.71.78,2.37,2,2.37a6.83,6.83,0,0,0,2.37-.69l.69,2.85a9.82,9.82,0,0,1-4,1c-3.69,0-4.83-2.46-4.83-5V58.77h-2.19v-3h2.37l.45-4.17Z"/><path d="M669,55.62l.69,3.24c.72-2.4,2.55-3.45,5.1-3.39a6.19,6.19,0,0,1,1.62.27L675.84,59a6.48,6.48,0,0,0-2.25-.3c-2.76.09-3.81,2.22-3.81,4.74v7.89h-3.72V55.62Z"/><path d="M682.32,55.62l3.87,11.1h.24L690,55.62h3.84l-5.82,16c-1.92,5.25-3.72,6.57-9.27,5.4l.66-3.15c3.54.87,4,.06,5.13-3L678.6,55.62Z"/></svg>