<svg id="Layer_1" data-name="Layer 1" xmlns="http://www.w3.org/2000/svg" viewBox="0 0 780 1051.14"><defs><style>.cls-1{fill:#c6946f;}.cls-1,.cls-2,.cls-3,.cls-5,.cls-6{stroke:#fff;stroke-miterlimit:10;}.cls-1,.cls-2,.cls-3,.cls-6{stroke-width:0.42px;}.cls-2{fill:#b58362;}.cls-3{fill:#d4a47c;}.cls-4{fill:#221913;}.cls-5{fill:#fff171;stroke-width:0.3px;}.cls-6{fill:#005058;}.cls-7,.cls-8{fill:#fff;}.cls-7{opacity:0.7;}.cls-8{font-size:38.5px;font-family:ABCSerifBold, ABCSerif;}</style></defs><path class="cls-1" d="M449.14,729.45q-3.61-9.69-7.95-19.11c-4.22-9.12,1.53-49.74-1.39-59.27l-8.93,32.11c-.76.94-.85,2.48-1.36,3.58a18.46,18.46,0,0,1-1.91,3.42,15.1,15.1,0,0,0-2.17,3.21c-.56,1.33-.78,2.78-1.23,4.15-1.8,5.5-2,11.47-2.05,17.27a71.16,71.16,0,0,0,0,8.13c.38,3.57,1.29,7,2,10.54.62,3.12,1.62,6.18,2.49,9.23A39.07,39.07,0,0,0,432,753.56l.32.51c-1.38-1.36-3.1-3.29-5.47-6.16a12.2,12.2,0,0,1-3.05-8.1,15.32,15.32,0,0,0-.86,2.05c-.61,1.81-.31,3.69-.34,5.77,0,1.61-.9,3.11-.08,4.68,13.3,25.59,3.2,48.55,17.82,80.73l8.22,15.52c5.13,11.3,12.93,33.05,17.23,42.18,2.44,6.28,2.92,14.84,6.85,22.8,3.73,7.55,10.94,14.59,11.6,16.26,3.4,8.66,6.34,17.72,10.15,26.2.34.75.67,1.51,1,2.26.42,1,.83,1.89,1.25,2.83.21.46.41.93.62,1.4a2.36,2.36,0,0,1,.17.59,4.53,4.53,0,0,0,.44,1l.34.58a1.33,1.33,0,0,0,.35.36c.12.08.32.24.44.3s.5,0,.72-.16c.58-.28.55-.69.51-1.18a7.32,7.32,0,0,1,.34,1.24,13.21,13.21,0,0,0,1.12,2.8,5.45,5.45,0,0,0,1.52,2.12,1.37,1.37,0,0,0,1.27.19,1.24,1.24,0,0,0,.8-.82,1.32,1.32,0,0,0-.09-1.25c-.21-.46-.28-1-.5-1.43l0,0c-1.28-.69.32.12.51.07.35-.08.54-.52.73-.79a1.19,1.19,0,0,1,.45-.44,1.14,1.14,0,0,0,.48-.8,10.52,10.52,0,0,0-.4-3.1c-.22-1-.21-2.15-.47-3.19-.09-.38-.19-.76-.26-1.14s-.17-.5-.23-.76c-.16-.72-.42-1.38-.62-2.07a17.19,17.19,0,0,0-.68-2.14c-.27-.64-.45-1.28-.73-1.92s-.36-1.22-.57-1.81a13.31,13.31,0,0,1-.43-2c-.07-.39-.15-.75-.2-1.14a4.2,4.2,0,0,0-.46-1.22,16.88,16.88,0,0,1-.87-2.41c-.31-1.12-.83-2.13-1-3.29-.32-1.76-.7-3.5-1-5.24,0-.2-.05-.41-.08-.61a2.61,2.61,0,0,1-.08-.6c.16-.12.29,0,.45,0s.34,0,.5,0a2.84,2.84,0,0,0,.77,0,3.86,3.86,0,0,0,1.53-.55,3,3,0,0,0,.57-.61,1.34,1.34,0,0,0,.34-.53c0-.14,0-.29.05-.44a6.32,6.32,0,0,0,.46-2.46,6.44,6.44,0,0,0-.68-1.69,5,5,0,0,0-1.05-1.38c-.36-.4-.77-.7-1.1-1.12s-.8-.87-1.16-1.34a7.78,7.78,0,0,0-1.39-1.48,7.53,7.53,0,0,1-1.41-1.41c-2.22-2.85-4-6.81-6.54-9.72-3.05-3.55-6.55-4.33-8.53-8.47-4-8.46-5.06-43.3-6.83-52.41l.08-1.14c-3-15.65-5.08-35.19-8.16-52.15a401.76,401.76,0,0,0-14.36-57.19Q450.77,733.78,449.14,729.45Z"/><path class="cls-1" d="M498.83,932.19a2.36,2.36,0,0,0-.72-.57c-.5-.32-1-.7-1.47-1a12.56,12.56,0,0,1-1.05-.85,13.91,13.91,0,0,1-1.12-1.05c-.26-.27-.51-.55-.74-.84a6.27,6.27,0,0,1-.55-.89c-.39-.67-.76-1.35-1.12-2a4.92,4.92,0,0,0-1.07-1.45c-.61-.54-1.28-1-1.89-1.54-.39-.36-.73-.75-1.1-1.13s-.46-.55-.68-.83-.55-.66-.8-1c-.13-.18-.31-.34-.42-.52s-.11-.26-.19-.38a2.38,2.38,0,0,1-.23-.45,5.14,5.14,0,0,0-.43-.92c-.08-.1-.18-.49-.35-.44"/><path class="cls-1" d="M500.24,925.76l.29.3,1.61,1.77a3.22,3.22,0,0,1,1.13,2.17,2.71,2.71,0,0,1-1.15,1.85,2,2,0,0,1-1.22.56,2.05,2.05,0,0,1-1.15-.52,14.41,14.41,0,0,1-3.14-3.38,1.79,1.79,0,0,1-.39-1.3,1.9,1.9,0,0,1,.31-.64,3.62,3.62,0,0,1,1.36-1.22,2,2,0,0,1,1.78,0A2.23,2.23,0,0,1,500.24,925.76Z"/><path class="cls-1" d="M494.91,945.31c.3-.13.6-.29.91-.4a.58.58,0,0,1,.39,0,2,2,0,0,1,.37.29"/><path class="cls-1" d="M496.63,946.61l-.57.25c-.16.07-.31.08-.46.15"/><path class="cls-1" d="M497,947.09l-.57.26-.28.12c-.11,0-.21,0-.32.09"/><path class="cls-1" d="M497.85,948.07a1.36,1.36,0,0,0-.37.21c-.14.12-.25.28-.39.42a2.35,2.35,0,0,1-.37.24,1.69,1.69,0,0,1-.4.21"/><path class="cls-1" d="M495,949.39c-.2.09-.33.26-.52.35l-.23.1c-.09,0-.25,0-.33.09"/><path class="cls-1" d="M493.4,949c.17-.08.34-.09.5-.16l.48-.21"/><path class="cls-1" d="M493.31,948.54l.62-.27"/><path class="cls-1" d="M492.92,947.16l.8-.35a1.9,1.9,0,0,1,.75-.16"/><path class="cls-1" d="M503.91,966.3c-2.2-4.1-6.89-14.83-8.69-19.13-1.68-4-2.26-8.06-5.55-11"/><path class="cls-1" d="M499,960.57c-3-6.49-6-12.92-8.92-19.47"/><path class="cls-1" d="M505.62,966.53c2.11-1.71.19-4.1-.33-4.89-.89-1.35-1-1.29-2.42-.95-.24.06-1.07.74-1.3.85"/><path class="cls-1" d="M500.84,965.49a4.12,4.12,0,0,1,1.12-.29c.23.07.47.1.69.17a2.43,2.43,0,0,1,.92.51c.55.45.74,1.42,1,2a2.92,2.92,0,0,1-.34,2.81c-.21.24-.92.42-1.79-.91Z"/><path class="cls-1" d="M496.29,960.2a6.43,6.43,0,0,1,.65-.12,4.37,4.37,0,0,1,1.29.18,1.69,1.69,0,0,1,1,.5,2.26,2.26,0,0,1,.35.88c.32,1.16,1,2.45.35,3.63a1.16,1.16,0,0,1-.35.41c-.65.42-1.39-.54-1.69-1C497.85,964.69,496.3,960.24,496.29,960.2Z"/><path class="cls-2" d="M229,256.59a22.52,22.52,0,0,1,13.52,15.31c3.87,14.35,4.34,28.37,5.14,42.94l.57,10.17c.14,2.42-.42,5.51.39,7.87,2.21,6.42,4.25,15.92,6.4,22.36,2,6.08,9.55,23.39,12.33,29.18,1.26,2.62,2.49,5.33,3.95,7.84.4.7,2.64,3.61,5.45,7.2,7.22,9.25,20.06,10.52,27.81,2.73l4.63-4.65c4.93-5,6.12-12.9,2.87-19.66-2.07-4.29-4.18-8.56-6.27-12.84-3.37-6.92-12-25.24-15.56-32.05-1.29-2.45-2.55-4.91-3.71-7.41-.84-1.81-1.39-3.72-2.17-5.55-4.74-11.16-8.57-22.66-12.31-34.17-3.57-11-7.05-21.56-8.61-33a151.52,151.52,0,0,0-5-22.81c-2.14-7.23-5.93-13.32-8.76-20.26-1.1-2.7-1.92-5.51-3-8.2-1.9-4.61-5-11.95-8.51-15.47-1.08-1.07-2-2.43-3.22-3.39a34.77,34.77,0,0,0-4.06-2.42c-1.28-.78-2.68-1.67-4.17-1.12a6.93,6.93,0,0,0-2.63,2.18c-1,1.24-.74,2.47-.46,4.17.53,3.16,1.22,6.29,2,9.4a18.58,18.58,0,0,1,.35,2.32c.79,6.48,2.11,12.81,2.39,19.39a22,22,0,0,1-.19,5.07,22.38,22.38,0,0,1-2.29,5.9c-2.34,4.65-5.39,9.22-7.17,14.16a12.21,12.21,0,0,0-.84,5.38c.14,2,1.6,3.25,3,4.4A31.85,31.85,0,0,0,229,256.59Z"/><path class="cls-3" d="M445.88,764.86c3.44-7.45,8.56-16.2,6.41-25.55-2.36-10.29-12.08-8.64-19.68-13.5l-2.25-1.44c2.26-3.68,1.19-9,1.09-13.5-.3-13.3.73-25.52,5.89-37.64a.3.3,0,0,0-.5-.33c-2.6,2.61-6.55,3.85-9.23,6.38-4.21,4-2.9-10-4.77-4.56-1.64,4.79-7.48,29.18-8.71,34-1.86-2-3.24-3.3-3.52-3.14-8.71,5.15-4.09,28.39-11.89,35-1.57,1.33-2.9,2.1-4.17,3.78s-2.4,3.17-3.64,4.73a15.24,15.24,0,0,0-2.33,5.62,56.84,56.84,0,0,0-1.31,5.89c-.84,5.2.79,10.58,2.34,15.42s3,10.32,7,13.71c2.52,2.13,5.23,1.31,8.73,1.34,1.82,0,3.18,2.14,4.78,1.44.62-.28,1.44-.36,2-.68s1.22-1.17,1.91-1.62a16.72,16.72,0,0,0,3.7-2.65c1.08-1.19,2.29-2.2,3.32-3.42a23.64,23.64,0,0,1,3.29-3.34c1.17-1,2.45-2.17,3.73-3,4.21-2.87,10.46-3,15.27-4.32C449.57,771.69,444.16,768.59,445.88,764.86Z"/><path class="cls-4" d="M406.08,787.54c-6.39-4.89-6.72-10.84-10-18.3-5.33-12.09-11.54-23-13.68-35.93a14.47,14.47,0,0,0-1-4c-1.67-3.48-6.13-5-9.88-4.1s-6.73,3.88-8.58,7.27c-3.54,6.49-4.4,15.54-3.43,22.81.25,1.83.32,3.72.66,5.53a21,21,0,0,0,2.15,5.24c1.51,3.13,2.92,6.28,5.19,9a39.31,39.31,0,0,0,6.37,5.93c2.23,1.7,3.88,3.86,6.1,5.53s4.39,3.53,7.12,4.59c2.08.81,4,1.73,6.18,2.4a20.48,20.48,0,0,0,4.55.45c2,.19,3.16-.34,5-1.2,2.19-1,7.41-3,3.31-5.18"/><path class="cls-4" d="M369.52,704.5c-1.26-1-2.75-2.66-4.2-3.23s-4.4.55-6,1.07c-2.68.84-7.59,4.77-7.58,7.84,0,3.33,2.32,8.13,4.7,10.44,1.36,1.32,6.29,5.18,7.75,2.23-.65-2.34-4.5-1.65-6.27-1.16s-3.76,3.3-3.86,5c-.14,2.41,1.63,3.59,3.29,4.86,1.49,1.13,3,2.69,4.79,3.21,1.64.46,4.47.83,6.1.24,1.05-.38,4.45-3.51,4.71-4.84.22-1.14-.37-1.16-1.12-1.79a4.33,4.33,0,0,1-1.6-2c-.3-.64-.91-1.4-.74-2.06a3.81,3.81,0,0,0,1.71-1.17,2.23,2.23,0,0,0,.58-1.93"/><path class="cls-3" d="M332.16,555.92c3.9,3.06,10.36,33.22,13.47,37,.45.55,1.19.85,1.67,1.42,1.06,1.25,2.12,2.89,3.1,4.23a26.16,26.16,0,0,1,3.26,6.93c1.52,4.7,4.22,8.94,5.62,13.6,1.51,5,4.85,9.27,6,14.3,2.61,11.3,3.34,23.06,4.57,34.65.6,5.69-.11,11.57.7,17.26.48,3.44.45,6.66.65,10.09.13,2.18,2.06,6.4.67,8.26-2.22.18-4-1.72-5.59-3-2.6-2,.14-6.18-1.4-9.14-1.38-2.65-3.41-4.26-4.72-6.95-3.35-6.92-19-36.11-20-56.62-.15-3.2-12.62-56-12.92-59.21C326.64,562.33,337.05,559.75,332.16,555.92Z"/><path class="cls-3" d="M450.26,824.38c-5.7-9.75-9.7-20.07-13.55-30.65a301.84,301.84,0,0,0-12.21-27.91c-5.65-11.71-9.49-26.52-9.06-39.52-1.8-13.59,2.08-36.71,6.75-49,.12-.32.25-.64.35-1a5.45,5.45,0,0,0,.3-1.59c0-1.28.23,8.78-.41,7.68-6.66-11.4-21.23-19.75-32.05-26.73-5.44-3.5-18.88-14.85-25.62-11.76-4.9,2.24-11.34,13-12.14,18.3-1.63,10.81,5.62,17,9.39,26.55,4.09,10.4,4.05,24.71,7.26,35.41,5,16.52,14.78,27.57,22.31,42.94.65,1.32,1.07,2.82,1.66,4.16,2.13,4.83,4.87,9.42,6.82,14.29,1.71,4.27,3.83,8.37,5.76,12.54a58.44,58.44,0,0,0,4.19,8.09c1.73,2.59,3.52,5.28,5.52,7.78"/><path class="cls-5" d="M420.45,686.07a8.68,8.68,0,0,1-1.17.43c-.56.11-.45.09-1.44-.66A6.83,6.83,0,0,1,416.3,684c-.37,6.21-.82,12.41-1.19,18.61s-1,12.25-.61,18.37c.24,3.87.39,5.61.77,9.46,0-.07.61.08.63,0a30.49,30.49,0,0,1,1-6.93,59.66,59.66,0,0,0,.9-7.67C418,713.36,420.62,686.08,420.45,686.07Z"/><path class="cls-5" d="M367.23,645.35a6.77,6.77,0,0,1-1.21-.59,3.58,3.58,0,0,1-1-1,3,3,0,0,1-.32-.64,40.82,40.82,0,0,0-10.6,11,46,46,0,0,0-4.38,8c.43,1,.85,2.06,1.26,3.08l.75,1.57a.36.36,0,0,1,.07.1s0,0,0,.08c.22.44.44.88.67,1.31a16,16,0,0,1,1.62-5.56,43.62,43.62,0,0,1,3.65-6.45,36.17,36.17,0,0,1,10.51-10.51A8.09,8.09,0,0,1,367.23,645.35Z"/><path class="cls-3" d="M415.53,814c12.44,23.52,60.8,130.93,73.84,154l2.92,5.16c.26.47.52.94.79,1.41a1.92,1.92,0,0,1,.25.61,4.84,4.84,0,0,0,.56,1l.43.58a1.32,1.32,0,0,0,.4.34,4.86,4.86,0,0,0,.49.27c.28.09.53-.1.76-.24.58-.35.46-.87.36-1.39a4.78,4.78,0,0,1,.54,1.37,13.71,13.71,0,0,0,1.48,2.84,5.62,5.62,0,0,0,1.82,2.08,1.43,1.43,0,0,0,1.36.07,1.35,1.35,0,0,0,.77-.95c.16-.54.34-1,.07-1.46s-.59-.62-1-1.31a.94.94,0,0,0,.52,0c.36-.12.51-.6.68-.91a1.22,1.22,0,0,1,.44-.51,1.19,1.19,0,0,0,.42-.9,10.63,10.63,0,0,0-.75-3.23c-.33-1.09-.44-2.26-.82-3.33-.13-.39-.28-.78-.4-1.18s-.22-.51-.31-.78c-.25-.74-.59-1.41-.88-2.13a18.45,18.45,0,0,0-.93-2.19c-.23-.41-.41-.82-.61-1.23.51-1.22,1.11-1.16,1.29-2.44,0-.34-.47-2.1-.5-2.44a3.93,3.93,0,0,0-.2-.82,57.58,57.58,0,0,0-4.85-10.41c-2.26-4.09-3.63-8.4-5.45-12.68a67,67,0,0,0-6.81-12.29,16.74,16.74,0,0,0-3.86-3.84c-5.06-4-6.24-10.46-7.65-16.34-1-4.06-2.11-8.09-3.13-12.14-2.73-10.84-5.43-21.68-8.24-32.49-2.75-10.58-5.31-21.38-9.09-31.66"/><path class="cls-3" d="M489.44,957c.3-.17.6-.38.92-.53a.72.72,0,0,1,.41,0,2.36,2.36,0,0,1,.42.28"/><path class="cls-3" d="M490.93,957.58l-.58.33c-.16.09-.31.11-.47.2"/><path class="cls-3" d="M491.38,958l-.57.32-.29.17c-.11.06-.22.07-.33.12"/><path class="cls-3" d="M492.36,958.56a1.23,1.23,0,0,0-.37.26c-.14.14-.24.32-.37.48a2.69,2.69,0,0,1-.37.3,1.84,1.84,0,0,1-.4.26"/><path class="cls-3" d="M489.22,960.83c-.2.11-.32.31-.52.42l-.23.13c-.09.06-.26.06-.34.13"/><path class="cls-3" d="M487.49,960.59c.17-.1.34-.13.51-.22l.48-.28"/><path class="cls-3" d="M487.34,960.1l.63-.35"/><path class="cls-3" d="M486.79,958.69l.8-.46a2.15,2.15,0,0,1,.79-.25"/><path class="cls-3" d="M496.38,975.79c-.69-1.22-3.63-6.3-4.32-7.52-.34-.62-.69-1.23-1-1.85l-.52-.92c-.19-.34-.45-.62-.65-1-.53-.87-1.16-1.68-1.66-2.57l-.61-1.09c-.38-.65-.63-1.34-.95-2-.23-.5-.44-1-.71-1.48l-.74-1.3-3-5.29a17.61,17.61,0,0,0-1.58-2.19,17.92,17.92,0,0,1-1.66-2"/><path class="cls-3" d="M498.34,973.62a2.42,2.42,0,0,1,1.62-.2,2.31,2.31,0,0,1,1.4.94,5.37,5.37,0,0,1,1,2.87,2,2,0,0,1-.51,1.16.31.31,0,0,1-.48-.09,221.55,221.55,0,0,1-11.6-20.39c-.63-1.1-1-2.35-1.54-3.48a2.14,2.14,0,0,1-.17-.56l-2.55-4.74"/><path class="cls-3" d="M498.81,961.57a.83.83,0,0,1-.44,0,.9.9,0,0,1-.52-.17,3.86,3.86,0,0,1-1.13-1.54c-.61-1.07-1.21-2.15-1.83-3.22-.17-.29-.26-.62-.42-.92s-.25-.44-.38-.66l-.64-1.13c-.56-1-1.11-2-1.69-3-.48-.8-1.14-1.5-1.66-2.28-.2-.3-.34-.64-.53-1a7.61,7.61,0,0,0-.82-1c-.27-.3-.55-.6-.79-.92s-.32-.66-.55-1-.31-.3-.43-.47a3,3,0,0,1-.19-.35c-.11-.19-.27-.33-.39-.51s-.08-.23-.21-.26a.89.89,0,0,0,.15.29s0,0,0,.07"/><path class="cls-3" d="M491.66,950.81c.1-.18,1.19-1.49,1.32-1.28"/><path class="cls-3" d="M492.25,950.92a8.21,8.21,0,0,0,.8-.63"/><path class="cls-3" d="M492.61,951.87c.22,0,.57-.4.69-.52l.42-.41c.08-.08.22-.16.25-.28"/><path class="cls-3" d="M497.23,977.83c.17-.07.69-.38.86-.35s.41.06.61.1a2.19,2.19,0,0,1,1.05.55,10.32,10.32,0,0,1,1,1.47,2.48,2.48,0,0,1,.27.39c0,.09.06.18.09.26a6.46,6.46,0,0,1,.38,1.38c0,.34-.2.36-.37.66s-.68.46-1.66-.67Z"/><path class="cls-3" d="M492.85,974.27a3.7,3.7,0,0,1,.84-.39c.18,0,.36,0,.54,0a1.5,1.5,0,0,1,.9.3,6.14,6.14,0,0,1,.69,1.05,1.73,1.73,0,0,1,.19.28,1.17,1.17,0,0,1,.05.2,4.2,4.2,0,0,1,.18,1c0,.27-.24.31-.43.58s-.69.45-1.44-.33Z"/><path class="cls-3" d="M495.89,958.39a4.26,4.26,0,0,1,.84-.4h.54a1.6,1.6,0,0,1,.9.31,6.14,6.14,0,0,1,.69,1.05,1.67,1.67,0,0,1,.18.28,1.17,1.17,0,0,1,.06.2,4.19,4.19,0,0,1,.17,1c0,.27-.23.31-.42.58s-.69.45-1.44-.33Z"/><path class="cls-6" d="M433.7,684.33c2.16-3.38,7.65-21,8-24.8,1.2-14.54-1.18-29.91-12.42-40.21a20.91,20.91,0,0,1-4.35-4.62c-1.58-2.73-1.43-6.64-2-9.69q-1.19-6.1-2.92-12.08c-3.14-10.88-8.4-20.86-11.84-31.6q-6.63-20.67-14.27-41c-4.86-12.91-10.64-27-21.91-35.67l-2.6-.27c.18,1.33.9,2.59,1.18,3.91.33,1.55,1.27,2.83,1.63,4.39a140,140,0,0,1,3.52,23.44c.44,7.89.88,16.72-2.79,23.88a17.26,17.26,0,0,1-1.86,2.61c-2.41,3.09-3.72,6.36-6.83,9-8.79,7.58-21.51,8.49-32,4.24a65.28,65.28,0,0,1-12.85-7.3c-2.44-1.71-13.25-24.09-15.76-26.08.56,1.5-1.73,6.75-1.14,8.25-.78,6.8,9.57,20.88,11.5,23.91,16.57,26,39.23,47.3,48.35,77.85.61,2,2.4,10.56,2.5,11.36a23.42,23.42,0,0,0,3.47,1.81s4.93-.73,7.92,1.13q5.73,3.58,11.19,7.59a143,143,0,0,1,20.19,17.89q3.53,3.82,6.74,7.92c.81,1,2.25,6.25,2.25,6.25a16.5,16.5,0,0,0,3.93-.43C428.54,682.49,430.94,684.22,433.7,684.33Z"/><path class="cls-1" d="M377.33,483.3c-9.54-21.42-19.55-29.52-30.23-50.91-9.36-18.73-18.31-30.38-33.34-44.92a4,4,0,0,1-1-1.22,4.5,4.5,0,0,1-.26-1.59c-.47-6.92-8.82-18.32-12.07-24.21-3.73-6.73-13.28-24.58-17.21-31.19-1.41-2.38-2.8-4.77-4.09-7.21-.93-1.76-1.58-3.64-2.45-5.42-5.32-10.9-9.74-22.19-14.08-33.49-4.13-10.79-8.15-21.17-10.31-32.5a151.48,151.48,0,0,0-6.2-22.52c-2.51-7.11-6.62-13-9.8-19.78-1.24-2.63-2.2-5.39-3.45-8-2.13-4.5-5.57-11.67-9.29-15-1.14-1-2.17-2.32-3.4-3.22a34.75,34.75,0,0,0-4.18-2.21c-1.31-.71-2.76-1.53-4.22-.9a6.9,6.9,0,0,0-2.51,2.32c-1,1.29-.61,2.5-.24,4.19.69,3.12,1.54,6.21,2.46,9.28a16.93,16.93,0,0,1,.47,2.29c1.12,6.43,2.78,12.69,3.4,19.25a22.65,22.65,0,0,1,.07,5.07,22.1,22.1,0,0,1-2,6c-2.09,4.77-4.91,9.48-6.42,14.52a12.16,12.16,0,0,0-.56,5.41c.24,1.94,1.77,3.16,3.23,4.24a31.67,31.67,0,0,0,8.43,4.59,22.55,22.55,0,0,1,14.3,14.58c4.61,14.13,5.81,28.1,7.37,42.62.81,7.47,1.11,14.82,3.29,22.07,4.88,16.19,11.9,31.56,20,46.39,1.39,2.55,2.76,5.19,4.35,7.63.28.43,1.4,1.77,3,3.59,0,.09,0,.17.05.26,5.53,21.37,7.88,43.51,12.61,65.08q4.88,22.2,10.95,44.15c3.48,12.56,5.91,26.55,13.94,37.33,7.65,10.29,18.64,17.81,30.2,20.66,7.3,1.79,14.93,1.74,21.43-1.12,9-3.94,25.85-19.84,28.93-29.77C395.36,507.41,384.59,499.61,377.33,483.3Z"/><path d="M127.67,678.73a68.37,68.37,0,0,0,25.22,22.81,81.79,81.79,0,0,0,30,8.72,88.41,88.41,0,0,0,16.43.06c1.91-.17,1.93-3.17,0-3-19.82,1.76-40.89-3.08-56.41-16a65,65,0,0,1-12.69-14.16c-1.06-1.6-3.66-.1-2.59,1.52Z"/><path d="M186.2,702.73c4.44,2.16,8.64,4.75,12.89,7.23l-.3-2.35c-1.75,1.78-3.41,3.63-5.13,5.43s-3.26,3.28-4.85,5c-1.33,1.41.79,3.53,2.12,2.12,1.59-1.68,3.25-3.28,4.85-5s3.38-3.66,5.13-5.44a1.52,1.52,0,0,0-.3-2.36c-4.26-2.48-8.46-5.07-12.89-7.23-1.73-.85-3.25,1.74-1.52,2.59Z"/><path d="M53.76,583.75c3.48,0,5.48,1.31,5.48,4.27a4,4,0,0,1-2.34,3.87A4,4,0,0,1,59.71,596c0,3-1.9,5-5.87,5H47V583.75Zm-3.69,7h3.52c1.58,0,2.57-.76,2.57-2.31s-.87-2.08-2.45-2.08H50.07Zm0,7.67h3.79c1.68,0,2.72-.79,2.76-2.46s-1.18-2.54-3-2.54H50.07Z"/><path d="M67.87,588c3.23,0,6,2.19,6,6.6,0,3.63-2.14,6.59-6.16,6.59-4.37,0-6.17-3-6.17-6.59C61.58,590.16,64.37,588,67.87,588Zm-3.08,6.6c0,2,.69,4,3,4,2.09,0,3-2,3-4,0-2.86-1.4-4-3-4S64.79,591.66,64.79,594.57Z"/><path d="M88.71,582.17V601H86.15l-.35-2.22a4.52,4.52,0,0,1-4.12,2.37c-3.47.05-5.54-2.84-5.54-6.64,0-4.63,3-6.55,5.52-6.55a4.09,4.09,0,0,1,4,2.44v-7.84ZM79.29,594.5c0,2.19.87,3.92,3.16,3.92s3.25-1.73,3.25-3.9c0-2.93-1.57-4-3.28-4S79.29,591.66,79.29,594.5Z"/><path d="M94,588.09l3.18,9.12h.2l2.91-9.12h3.16L98.7,601.21c-1.58,4.31-3.06,5.4-7.62,4.44l.55-2.59c2.9.71,3.3.05,4.21-2.49L91,588.09Z"/><path d="M111.18,597.31a6.73,6.73,0,0,0,4.2,1.43c1.47,0,2.34-.44,2.34-1.5,0-2.52-7.47-.84-7.23-5.58.1-2.31,1.8-3.69,5.23-3.69a10.55,10.55,0,0,1,4.66,1.2l-1.08,2.17a7.41,7.41,0,0,0-3.7-1.06c-1.21,0-2.22.4-2.17,1.41.15,2,7.32.47,7.32,5.45,0,2.66-2.39,4-5.45,4a8.86,8.86,0,0,1-5.3-1.68Z"/><path d="M126.3,582.17v8a4.82,4.82,0,0,1,4.24-2.19c3,0,4.49,1.94,4.49,4.61V601H132v-7.45c0-2-.74-3-2.41-3-2.35,0-3.26,1.9-3.26,4V601h-3.06V582.54Z"/><path d="M143.91,588c3.23,0,6,2.19,6,6.6,0,3.63-2.14,6.59-6.16,6.59-4.37,0-6.17-3-6.17-6.59C137.62,590.16,140.41,588,143.91,588Zm-3.08,6.6c0,2,.69,4,3,4,2.09,0,3-2,3-4,0-2.86-1.41-4-3-4S140.83,591.66,140.83,594.57Z"/><path d="M155.55,588.09v7.45c0,2,.79,3,2.59,3,2.35,0,3.31-2.42,3.31-4.86v-5.62h3.05V601h-2.44l-.44-2.81a4.71,4.71,0,0,1-4.46,3c-3.16,0-4.66-1.95-4.66-5.2v-7.87Z"/><path d="M170.72,582.17v14.62c0,1.38.62,1.75,1.53,1.75a2.43,2.43,0,0,0,1.28-.46l.57,2.19a5.35,5.35,0,0,1-2.79.89c-2.56,0-3.65-1.73-3.65-4.07V582.54Z"/><path d="M187.17,582.17V601h-2.56l-.35-2.22a4.52,4.52,0,0,1-4.12,2.37c-3.47.05-5.55-2.84-5.55-6.64,0-4.63,3-6.55,5.53-6.55a4.1,4.1,0,0,1,4,2.44v-7.84Zm-9.42,12.33c0,2.19.86,3.92,3.16,3.92s3.25-1.73,3.25-3.9c0-2.93-1.58-4-3.28-4S177.75,591.66,177.75,594.5Z"/><path d="M49.87,616.08v8.22a4.4,4.4,0,0,1,4.31-2.42c2.44.07,5.06,1.73,5.06,6.48,0,3.9-2,6.71-5.45,6.71a4.28,4.28,0,0,1-4.07-2.37l-.42,2.22H46.81V616.48Zm-.13,12.36c0,2.22.82,4,3.26,4,2,0,3.11-1.5,3.11-4,0-3-1.51-3.95-3.13-3.95C51.2,624.44,49.74,625.85,49.74,628.44Z"/><path d="M73.27,631.37a5.76,5.76,0,0,1-5.57,3.7c-4.34,0-6.26-2.71-6.26-6.76s2.71-6.53,6.43-6.43c3,.07,5.75,2.34,5.45,6.46l0,.39H64.54c0,2.2.94,3.7,3.18,3.7a2.87,2.87,0,0,0,2.79-2Zm-3.13-4.21c0-2-1-2.94-2.54-2.89a2.88,2.88,0,0,0-2.91,2.89Z"/><path d="M87.26,631.3c-.84,2.64-3,3.77-5.62,3.77-4.25,0-6.07-3.15-6.07-6.61,0-4.21,2.61-6.51,6.14-6.58,3.11-.07,5,1.53,5.5,3.8l-2.84.91a2.54,2.54,0,0,0-2.61-2.12c-1.78,0-3.13,1.31-3.13,3.94,0,2.1.79,4,3.08,4a2.6,2.6,0,0,0,2.71-2Z"/><path d="M95.55,621.88c3.23,0,6,2.19,6,6.61,0,3.62-2.15,6.58-6.17,6.58-4.36,0-6.16-3-6.16-6.58C89.26,624.07,92,621.88,95.55,621.88Zm-3.09,6.61c0,2,.69,4,3,4,2.1,0,3-2,3-4,0-2.86-1.4-4-3-4C93.84,624.47,92.46,625.58,92.46,628.49Z"/><path d="M106.74,622l.45,2.3a4.33,4.33,0,0,1,4-2.45,3.77,3.77,0,0,1,3.85,2.4,4.55,4.55,0,0,1,4.17-2.4c3,0,4.21,2,4.21,4.64v8.43h-3v-7.44c0-2-.47-3-2.15-3-2.22,0-2.81,1.68-2.81,3.58v6.9h-3.06v-7.44c0-2-.47-3-2.14-3-2.37,0-2.84,1.9-2.84,4v6.51H104.3V622Z"/><path d="M137.87,631.37a5.77,5.77,0,0,1-5.58,3.7c-4.33,0-6.26-2.71-6.26-6.76s2.71-6.53,6.44-6.43c3,.07,5.74,2.34,5.45,6.46l0,.39h-8.73c0,2.2.94,3.7,3.18,3.7a2.89,2.89,0,0,0,2.79-2Zm-3.13-4.21c0-2-1-2.94-2.54-2.89a2.87,2.87,0,0,0-2.91,2.89Z"/><path d="M147.81,622l3.11,9.37h.19L154.2,622h3.13l-4.81,12.92h-3.08L144.75,622Z"/><path d="M170.15,631.37a5.76,5.76,0,0,1-5.57,3.7c-4.34,0-6.26-2.71-6.26-6.76s2.71-6.53,6.43-6.43c3,.07,5.75,2.34,5.45,6.46l0,.39h-8.73c0,2.2.94,3.7,3.18,3.7a2.87,2.87,0,0,0,2.79-2ZM167,627.16c0-2-1-2.94-2.54-2.89a2.88,2.88,0,0,0-2.91,2.89Z"/><path d="M175.31,622l.57,2.67c.59-2,2.09-2.84,4.19-2.79a4.85,4.85,0,0,1,1.33.22l-.47,2.69a5.48,5.48,0,0,0-1.85-.25c-2.27.08-3.13,1.83-3.13,3.9v6.48h-3.06V622Z"/><path d="M187.89,618.35v3.78h3.25l-.42,2.46h-2.83v5.92c0,1.41.64,2,1.67,2a5.43,5.43,0,0,0,1.95-.57l.57,2.34a7.94,7.94,0,0,1-3.28.84c-3,0-4-2-4-4.14v-6.34H183v-2.46H185l.37-3.43Z"/><path d="M198.05,622v12.92H195V624.54h-1.8V622Zm-1.55-5a1.65,1.65,0,0,1,1.82,1.56,1.82,1.82,0,0,1-3.62,0A1.59,1.59,0,0,1,196.5,617Z"/><path d="M212.45,631.3c-.84,2.64-3,3.77-5.62,3.77-4.24,0-6.07-3.15-6.07-6.61,0-4.21,2.62-6.51,6.14-6.58,3.11-.07,5,1.53,5.5,3.8l-2.83.91a2.55,2.55,0,0,0-2.62-2.12c-1.77,0-3.13,1.31-3.13,3.94,0,2.1.79,4,3.08,4a2.61,2.61,0,0,0,2.72-2Z"/><path d="M215.12,622.82a15.36,15.36,0,0,1,4.88-.94c3.9,0,5.33,1.92,5.33,4.93V632a.65.65,0,0,0,.61.74,2.41,2.41,0,0,0,1-.15v2a5,5,0,0,1-2,.39,2.34,2.34,0,0,1-2.35-1.75,5.62,5.62,0,0,1-3.89,1.75c-2.52,0-4.39-1.28-4.42-4s2-4.09,5.26-4.09a19.84,19.84,0,0,1,2.78.25v-.77c0-1.4-.88-2.17-2.66-2.14a10.5,10.5,0,0,0-4,.78Zm7.15,6a13.13,13.13,0,0,0-2.52-.15c-1.48.07-2.41.76-2.44,2.07a1.81,1.81,0,0,0,2.1,1.9,5.09,5.09,0,0,0,2.86-1Z"/><path d="M232.14,616.08v14.63c0,1.38.61,1.75,1.52,1.75A2.46,2.46,0,0,0,235,632l.56,2.19a5.22,5.22,0,0,1-2.78.89c-2.57,0-3.65-1.72-3.65-4.07V616.45Z"/><path class="cls-7" d="M148.79,61.4a36.73,36.73,0,0,1,8.33-23.32,34.4,34.4,0,0,0-45.48-4.38A34.43,34.43,0,0,0,131.9,96a34.33,34.33,0,0,0,25.32-11.11A36.76,36.76,0,0,1,148.79,61.4ZM138,75.49s-3.7-.27-11.47-.27a25.63,25.63,0,0,0-4.93.31l-1.35-2.46c7.78-7.9,12.4-13.63,13-18.71.47-3.66-2-4.82-4.35-4.66a9.73,9.73,0,0,0-6.73,3.92c-.2-.23-1.93-2.07-1.47-2.65A12.43,12.43,0,0,1,130,46.12c5.89,0,9.09,3,8.74,8.51-.46,7-8,13.59-12.63,17.55l8.32-.08c1.77-.15,3-2.54,3.81-4.73,0,0,1.73.5,2,1C139.58,71.53,138.81,75.49,138,75.49Z"/><path class="cls-7" d="M95.79,61.4A36.74,36.74,0,0,1,104.16,38a34.44,34.44,0,1,0,.11,46.9A36.78,36.78,0,0,1,95.79,61.4ZM87.2,75.66H70.92L71,73.39l4.46-.58c.58,0,.81-.23.81-1,.08-10.05,0-19.6,0-19.6l-5.62,1.08c-.19-.31-1.12-2.46-.46-2.73l10.35-4,1,1s-.12,20.87,0,24.37c0,.77.19,1,.73,1l5.08.54Z"/><path class="cls-7" d="M201.79,61.4A36.74,36.74,0,0,1,210.16,38a34.43,34.43,0,0,0-47.76-2.48A34.8,34.8,0,0,0,172,93.43a34.41,34.41,0,0,0,38.24-8.51A36.78,36.78,0,0,1,201.79,61.4ZM181.35,75.49a15.64,15.64,0,0,1-7.86-2.19l1-2.89a21.48,21.48,0,0,0,7,1.66c3.35,0,5.51-1.74,5.55-5.24,0-2.46-1.43-4.35-4.47-4.74a17.82,17.82,0,0,0-5,.24c-.5.11-.89-3-.42-3.08,3-.54,7.62-1.08,8.39-4.89.73-3.62-2-4.82-4.35-4.66A8.43,8.43,0,0,0,175,52.82c-.2-.23-1.7-2.12-1-3a10.43,10.43,0,0,1,8.16-3.69c5.89,0,9.12,3,8.74,8.51a6,6,0,0,1-4,4.5c3.47.62,5.47,2.93,5.66,6.7C192.9,71.83,188,75.49,181.35,75.49Z"/><circle cx="236" cy="61.53" r="34.44"/><text class="cls-8" transform="translate(224.45 75.26)">4</text><path d="M296.49,50.34l-.27,3.12h-5.55V71.34h-3.75V53.46h-5.76V50.34Z"/><path d="M302.64,48.42v9.72a5.86,5.86,0,0,1,5.16-2.67c3.69,0,5.46,2.37,5.46,5.61V71.34h-3.72V62.28c0-2.4-.9-3.69-2.94-3.69-2.85,0-4,2.31-4,4.83v7.92h-3.72V48.87Z"/><path d="M330.78,67a7,7,0,0,1-6.78,4.5c-5.28,0-7.62-3.3-7.62-8.22s3.3-7.95,7.83-7.83c3.69.09,7,2.85,6.63,7.86l-.06.48H320.16c0,2.67,1.14,4.5,3.87,4.5a3.5,3.5,0,0,0,3.39-2.49ZM327,61.89c.06-2.43-1.26-3.57-3.09-3.51a3.5,3.5,0,0,0-3.54,3.51Z"/><path d="M343.32,55.62l.57,2.79a5.8,5.8,0,0,1,5.37-2.94c3.69,0,5.46,2.37,5.46,5.61V71.34H351V62.28c0-2.4-.9-3.69-2.94-3.69-2.85,0-4,2.31-4,4.83v7.92h-3.72V55.62Z"/><path d="M372.3,67a7,7,0,0,1-6.78,4.5c-5.28,0-7.62-3.3-7.62-8.22s3.3-7.95,7.83-7.83c3.69.09,7,2.85,6.63,7.86l-.06.48H361.68c0,2.67,1.14,4.5,3.87,4.5a3.5,3.5,0,0,0,3.39-2.49Zm-3.81-5.13c.06-2.43-1.26-3.57-3.09-3.51a3.5,3.5,0,0,0-3.54,3.51Z"/><path d="M378.39,55.62l3.15,6.18,3.3-6.18h4l-4.35,7.8L389,71.34h-4.26l-3.3-6.12L378,71.34h-4.14l4.83-7.86-4.29-7.86Z"/><path d="M396.81,51.18v4.59h4l-.51,3h-3.45V66c0,1.71.78,2.37,2,2.37a6.83,6.83,0,0,0,2.37-.69l.69,2.85a9.82,9.82,0,0,1-4,1c-3.69,0-4.83-2.46-4.83-5V58.77H390.9v-3h2.37l.45-4.17Z"/><path d="M424.35,67a7,7,0,0,1-6.78,4.5c-5.28,0-7.62-3.3-7.62-8.22s3.3-7.95,7.83-7.83c3.69.09,7,2.85,6.63,7.86l-.06.48H413.73c0,2.67,1.14,4.5,3.87,4.5A3.5,3.5,0,0,0,421,65.82Zm-3.81-5.13c.06-2.43-1.26-3.57-3.09-3.51a3.5,3.5,0,0,0-3.54,3.51Z"/><path d="M431.4,48.42V66.21c0,1.68.75,2.13,1.86,2.13a2.93,2.93,0,0,0,1.56-.57l.69,2.67a6.47,6.47,0,0,1-3.39,1.08c-3.12,0-4.44-2.1-4.44-5V48.87Z"/><path d="M450.69,67a7,7,0,0,1-6.78,4.5c-5.28,0-7.62-3.3-7.62-8.22s3.3-7.95,7.83-7.83c3.69.09,7,2.85,6.63,7.86l-.06.48H440.07c0,2.67,1.14,4.5,3.87,4.5a3.5,3.5,0,0,0,3.39-2.49Zm-3.81-5.13c.06-2.43-1.26-3.57-3.09-3.51a3.5,3.5,0,0,0-3.54,3.51Z"/><path d="M457,55.62l.54,2.79a5.25,5.25,0,0,1,4.86-3,4.58,4.58,0,0,1,4.68,2.91,5.53,5.53,0,0,1,5.07-2.91c3.69,0,5.13,2.4,5.13,5.64V71.34h-3.72V62.28c0-2.4-.57-3.69-2.61-3.69-2.7,0-3.42,2-3.42,4.35v8.4H463.8V62.28c0-2.4-.57-3.69-2.61-3.69-2.88,0-3.45,2.31-3.45,4.83v7.92H454V55.62Z"/><path d="M494.85,67a7,7,0,0,1-6.78,4.5c-5.28,0-7.62-3.3-7.62-8.22s3.3-7.95,7.83-7.83c3.69.09,7,2.85,6.63,7.86l-.06.48H484.23c0,2.67,1.14,4.5,3.87,4.5a3.5,3.5,0,0,0,3.39-2.49ZM491,61.89c.06-2.43-1.26-3.57-3.09-3.51a3.5,3.5,0,0,0-3.54,3.51Z"/><path d="M501.12,55.62l.57,2.79a5.8,5.8,0,0,1,5.37-2.94c3.69,0,5.46,2.37,5.46,5.61V71.34H508.8V62.28c0-2.4-.9-3.69-2.94-3.69-2.85,0-4,2.31-4,4.83v7.92h-3.72V55.62Z"/><path d="M521.13,51.18v4.59h4l-.51,3h-3.45V66c0,1.71.78,2.37,2,2.37a6.83,6.83,0,0,0,2.37-.69l.69,2.85a9.82,9.82,0,0,1-4,1c-3.69,0-4.83-2.46-4.83-5V58.77h-2.19v-3h2.37L518,51.6Z"/><path d="M539.76,55.62V71.34H536V58.71h-2.19V55.62Zm-1.89-6.12a2,2,0,0,1,2.22,1.89,2.22,2.22,0,0,1-4.41,0A1.93,1.93,0,0,1,537.87,49.5Z"/><path d="M544,66.84a8.15,8.15,0,0,0,5.1,1.74c1.8,0,2.85-.54,2.85-1.83,0-3.06-9.09-1-8.79-6.78.12-2.82,2.19-4.5,6.36-4.5a12.78,12.78,0,0,1,5.67,1.47l-1.32,2.64a8.9,8.9,0,0,0-4.5-1.29c-1.47,0-2.7.48-2.64,1.71.18,2.49,8.91.57,8.91,6.63,0,3.24-2.91,4.92-6.63,4.89a10.76,10.76,0,0,1-6.45-2Z"/><path d="M569.79,51.18v4.59h4l-.51,3h-3.45V66c0,1.71.78,2.37,2,2.37a6.83,6.83,0,0,0,2.37-.69l.69,2.85a9.82,9.82,0,0,1-4,1c-3.69,0-4.83-2.46-4.83-5V58.77h-2.19v-3h2.37l.45-4.17Z"/><path d="M581,48.42v9.72a5.86,5.86,0,0,1,5.16-2.67c3.69,0,5.46,2.37,5.46,5.61V71.34h-3.72V62.28c0-2.4-.9-3.69-2.94-3.69-2.85,0-4,2.31-4,4.83v7.92h-3.72V48.87Z"/><path d="M609.12,67a7,7,0,0,1-6.78,4.5c-5.28,0-7.62-3.3-7.62-8.22s3.3-7.95,7.83-7.83c3.69.09,7,2.85,6.63,7.86l-.06.48H598.5c0,2.67,1.14,4.5,3.87,4.5a3.5,3.5,0,0,0,3.39-2.49Zm-3.81-5.13c.06-2.43-1.26-3.57-3.09-3.51a3.5,3.5,0,0,0-3.54,3.51Z"/><path d="M632.52,67a7,7,0,0,1-6.78,4.5c-5.28,0-7.62-3.3-7.62-8.22s3.3-7.95,7.83-7.83c3.69.09,7,2.85,6.63,7.86l-.06.48H621.9c0,2.67,1.14,4.5,3.87,4.5a3.5,3.5,0,0,0,3.39-2.49Zm-3.81-5.13c.06-2.43-1.26-3.57-3.09-3.51a3.5,3.5,0,0,0-3.54,3.51Z"/><path d="M638.79,55.62l.57,2.79a5.8,5.8,0,0,1,5.37-2.94c3.69,0,5.46,2.37,5.46,5.61V71.34h-3.72V62.28c0-2.4-.9-3.69-2.94-3.69-2.85,0-4,2.31-4,4.83v7.92h-3.72V55.62Z"/><path d="M658.8,51.18v4.59h4l-.51,3H658.8V66c0,1.71.78,2.37,2,2.37a6.83,6.83,0,0,0,2.37-.69l.69,2.85a9.82,9.82,0,0,1-4,1c-3.69,0-4.83-2.46-4.83-5V58.77h-2.19v-3h2.37l.45-4.17Z"/><path d="M669,55.62l.69,3.24c.72-2.4,2.55-3.45,5.1-3.39a6.19,6.19,0,0,1,1.62.27L675.84,59a6.48,6.48,0,0,0-2.25-.3c-2.76.09-3.81,2.22-3.81,4.74v7.89h-3.72V55.62Z"/><path d="M682.32,55.62l3.87,11.1h.24L690,55.62h3.84l-5.82,16c-1.92,5.25-3.72,6.57-9.27,5.4l.66-3.15c3.54.87,4,.06,5.13-3L678.6,55.62Z"/></svg>