<svg id="Layer_1" data-name="Layer 1" xmlns="http://www.w3.org/2000/svg" viewBox="0 0 780 1051.14"><defs><style>.cls-1,.cls-2{fill:#fff;}.cls-1{opacity:0.7;}.cls-3{fill:#c6946f;}.cls-3,.cls-4,.cls-5,.cls-7,.cls-8{stroke:#fff;stroke-miterlimit:10;}.cls-3,.cls-4,.cls-5,.cls-8{stroke-width:0.42px;}.cls-4{fill:#b58362;}.cls-5{fill:#d4a47c;}.cls-6{fill:#221913;}.cls-7{fill:#fff171;stroke-width:0.3px;}.cls-8{fill:#005058;}</style></defs><path d="M127.67,678.73a68.37,68.37,0,0,0,25.22,22.81,81.79,81.79,0,0,0,30,8.72,88.41,88.41,0,0,0,16.43.06c1.91-.17,1.93-3.17,0-3-19.82,1.76-40.89-3.08-56.41-16a65,65,0,0,1-12.69-14.16c-1.06-1.6-3.66-.1-2.59,1.52Z"/><path d="M186.2,702.73c4.44,2.16,8.64,4.75,12.89,7.23l-.3-2.35c-1.75,1.78-3.41,3.63-5.13,5.43s-3.26,3.28-4.85,5c-1.33,1.41.79,3.53,2.12,2.12,1.59-1.68,3.25-3.28,4.85-5s3.38-3.66,5.13-5.44a1.52,1.52,0,0,0-.3-2.36c-4.26-2.48-8.46-5.07-12.89-7.23-1.73-.85-3.25,1.74-1.52,2.59Z"/><path d="M53.76,583.75c3.48,0,5.48,1.31,5.48,4.26a4,4,0,0,1-2.34,3.88A4,4,0,0,1,59.71,596c0,3-1.9,5-5.87,5H47V583.75Zm-3.69,7h3.52c1.58,0,2.57-.76,2.57-2.31s-.87-2.08-2.45-2.08H50.07Zm0,7.67h3.79c1.68,0,2.72-.79,2.76-2.47s-1.18-2.53-3-2.53H50.07Z"/><path d="M67.87,588c3.23,0,6,2.19,6,6.6,0,3.63-2.14,6.59-6.16,6.59-4.37,0-6.17-3-6.17-6.59C61.58,590.16,64.37,588,67.87,588Zm-3.08,6.6c0,2,.69,4,3,4,2.09,0,3-2,3-4,0-2.86-1.4-4-3-4S64.79,591.66,64.79,594.57Z"/><path d="M88.71,582.17V601H86.15l-.35-2.22a4.51,4.51,0,0,1-4.12,2.37c-3.47.05-5.54-2.84-5.54-6.64,0-4.63,3-6.55,5.52-6.55a4.09,4.09,0,0,1,4,2.44v-7.85ZM79.29,594.5c0,2.19.87,3.92,3.16,3.92s3.25-1.73,3.25-3.9c0-2.93-1.57-4-3.28-4S79.29,591.66,79.29,594.5Z"/><path d="M94,588.09l3.18,9.12h.2l2.91-9.12h3.16L98.7,601.21c-1.58,4.31-3.06,5.4-7.62,4.43l.55-2.58c2.91.71,3.3.05,4.21-2.49L91,588.09Z"/><path d="M111.18,597.31a6.73,6.73,0,0,0,4.2,1.43c1.48,0,2.34-.44,2.34-1.5,0-2.52-7.47-.84-7.23-5.58.1-2.31,1.8-3.69,5.23-3.69a10.55,10.55,0,0,1,4.66,1.2l-1.08,2.17a7.41,7.41,0,0,0-3.7-1.06c-1.21,0-2.22.4-2.17,1.41.15,2,7.32.47,7.32,5.45,0,2.66-2.39,4-5.45,4a8.86,8.86,0,0,1-5.3-1.68Z"/><path d="M126.3,582.17v8a4.82,4.82,0,0,1,4.24-2.19c3,0,4.49,1.94,4.49,4.61V601H132v-7.45c0-2-.74-3-2.41-3-2.35,0-3.26,1.9-3.26,4V601h-3.06V582.54Z"/><path d="M143.91,588c3.23,0,6,2.19,6,6.6,0,3.63-2.14,6.59-6.16,6.59-4.37,0-6.17-3-6.17-6.59C137.62,590.16,140.41,588,143.91,588Zm-3.08,6.6c0,2,.69,4,3,4,2.09,0,3-2,3-4,0-2.86-1.41-4-3-4S140.83,591.66,140.83,594.57Z"/><path d="M155.55,588.09v7.45c0,2,.79,3,2.59,3,2.35,0,3.31-2.42,3.31-4.86v-5.62h3.05V601h-2.44l-.44-2.81a4.71,4.71,0,0,1-4.46,3c-3.16,0-4.66-1.95-4.66-5.2v-7.87Z"/><path d="M170.72,582.17v14.62c0,1.38.62,1.75,1.53,1.75a2.33,2.33,0,0,0,1.28-.47l.57,2.2a5.35,5.35,0,0,1-2.79.89c-2.56,0-3.65-1.73-3.65-4.07V582.54Z"/><path d="M187.17,582.17V601h-2.56l-.35-2.22a4.52,4.52,0,0,1-4.12,2.37c-3.47.05-5.55-2.84-5.55-6.64,0-4.63,3-6.55,5.53-6.55a4.1,4.1,0,0,1,4,2.44v-7.85Zm-9.42,12.33c0,2.19.86,3.92,3.16,3.92s3.25-1.73,3.25-3.9c0-2.93-1.58-4-3.28-4S177.75,591.66,177.75,594.5Z"/><path d="M49.87,616.08v8.22a4.4,4.4,0,0,1,4.31-2.42c2.44.07,5.06,1.73,5.06,6.48,0,3.9-2,6.71-5.45,6.71a4.28,4.28,0,0,1-4.07-2.37l-.42,2.22H46.81V616.48Zm-.13,12.36c0,2.22.82,4,3.26,4,2,0,3.11-1.5,3.11-4,0-3-1.51-3.95-3.13-3.95C51.2,624.44,49.74,625.85,49.74,628.44Z"/><path d="M73.27,631.37a5.76,5.76,0,0,1-5.57,3.7c-4.34,0-6.26-2.71-6.26-6.76s2.71-6.53,6.43-6.43c3,.07,5.75,2.34,5.45,6.46l0,.39H64.54c0,2.2.94,3.7,3.18,3.7a2.87,2.87,0,0,0,2.79-2Zm-3.13-4.21c0-2-1-2.94-2.54-2.89a2.88,2.88,0,0,0-2.91,2.89Z"/><path d="M87.26,631.3c-.84,2.64-3,3.77-5.62,3.77-4.25,0-6.07-3.16-6.07-6.61,0-4.21,2.61-6.51,6.14-6.58,3.11-.07,5,1.53,5.5,3.8l-2.84.91a2.54,2.54,0,0,0-2.61-2.12c-1.78,0-3.13,1.31-3.13,3.94,0,2.1.79,4,3.08,4a2.6,2.6,0,0,0,2.71-2Z"/><path d="M95.55,621.88c3.23,0,6,2.19,6,6.61,0,3.62-2.15,6.58-6.17,6.58-4.36,0-6.16-3-6.16-6.58C89.26,624.07,92,621.88,95.55,621.88Zm-3.09,6.61c0,2,.69,4,3,4,2.1,0,3-2,3-4,0-2.86-1.4-4-3-4C93.84,624.47,92.46,625.58,92.46,628.49Z"/><path d="M106.74,622l.45,2.3a4.33,4.33,0,0,1,4-2.45,3.77,3.77,0,0,1,3.85,2.4,4.55,4.55,0,0,1,4.17-2.4c3,0,4.21,2,4.21,4.64v8.43h-3v-7.44c0-2-.47-3-2.15-3-2.22,0-2.81,1.68-2.81,3.58v6.9h-3.06v-7.44c0-2-.47-3-2.14-3-2.37,0-2.84,1.9-2.84,4v6.51H104.3V622Z"/><path d="M137.87,631.37a5.76,5.76,0,0,1-5.57,3.7c-4.34,0-6.27-2.71-6.27-6.76s2.71-6.53,6.44-6.43c3,.07,5.74,2.34,5.45,6.46l0,.39h-8.73c0,2.2.94,3.7,3.18,3.7a2.89,2.89,0,0,0,2.79-2Zm-3.13-4.21c0-2-1-2.94-2.54-2.89a2.87,2.87,0,0,0-2.91,2.89Z"/><path d="M147.81,622l3.11,9.37h.19L154.2,622h3.13l-4.81,12.92h-3.08L144.75,622Z"/><path d="M170.15,631.37a5.76,5.76,0,0,1-5.57,3.7c-4.34,0-6.26-2.71-6.26-6.76s2.71-6.53,6.43-6.43c3,.07,5.75,2.34,5.45,6.46l0,.39h-8.73c0,2.2.94,3.7,3.19,3.7a2.87,2.87,0,0,0,2.78-2ZM167,627.16c0-2-1-2.94-2.54-2.89a2.88,2.88,0,0,0-2.91,2.89Z"/><path d="M175.31,622l.57,2.67c.59-2,2.09-2.84,4.19-2.79a4.85,4.85,0,0,1,1.33.22l-.47,2.69a5.48,5.48,0,0,0-1.85-.25c-2.27.08-3.13,1.83-3.13,3.9v6.48h-3.06V622Z"/><path d="M187.89,618.35v3.78h3.25l-.42,2.46h-2.83v5.92c0,1.4.64,2,1.68,2a5.64,5.64,0,0,0,1.94-.57l.57,2.34a7.94,7.94,0,0,1-3.28.84c-3,0-4-2-4-4.14v-6.34H183v-2.46H185l.37-3.43Z"/><path d="M198.05,622v12.92H195V624.54h-1.8V622Zm-1.55-5a1.65,1.65,0,0,1,1.82,1.56,1.82,1.82,0,0,1-3.62,0A1.59,1.59,0,0,1,196.5,617Z"/><path d="M212.45,631.3c-.84,2.64-3,3.77-5.62,3.77-4.24,0-6.07-3.16-6.07-6.61,0-4.21,2.62-6.51,6.14-6.58,3.11-.07,5,1.53,5.5,3.8l-2.83.91a2.55,2.55,0,0,0-2.62-2.12c-1.77,0-3.13,1.31-3.13,3.94,0,2.1.79,4,3.08,4a2.61,2.61,0,0,0,2.72-2Z"/><path d="M215.12,622.82a15.36,15.36,0,0,1,4.88-.94c3.9,0,5.33,1.92,5.33,4.93V632a.65.65,0,0,0,.61.74,2.41,2.41,0,0,0,1-.15v2a5,5,0,0,1-2,.39,2.34,2.34,0,0,1-2.35-1.75,5.62,5.62,0,0,1-3.89,1.75c-2.52,0-4.39-1.28-4.41-4s2-4.09,5.25-4.09a21.68,21.68,0,0,1,2.78.24v-.76c0-1.41-.88-2.17-2.66-2.15a10.39,10.39,0,0,0-4,.79Zm7.15,6a13.07,13.07,0,0,0-2.52-.15c-1.48.07-2.41.76-2.44,2.07a1.82,1.82,0,0,0,2.1,1.9,5.09,5.09,0,0,0,2.86-1Z"/><path d="M232.14,616.08v14.63c0,1.38.61,1.75,1.52,1.75A2.46,2.46,0,0,0,235,632l.56,2.19a5.31,5.31,0,0,1-2.78.89c-2.57,0-3.65-1.72-3.65-4.07V616.45Z"/><path class="cls-1" d="M148.79,61.4a36.73,36.73,0,0,1,8.33-23.32,34.4,34.4,0,0,0-45.48-4.38A34.43,34.43,0,0,0,131.9,96a34.33,34.33,0,0,0,25.32-11.11A36.76,36.76,0,0,1,148.79,61.4ZM138,75.49s-3.7-.27-11.47-.27a25.63,25.63,0,0,0-4.93.31l-1.35-2.46c7.78-7.9,12.4-13.63,13-18.71.47-3.66-2-4.82-4.35-4.66a9.73,9.73,0,0,0-6.73,3.92c-.2-.23-1.93-2.07-1.47-2.65A12.43,12.43,0,0,1,130,46.12c5.89,0,9.09,3,8.74,8.51-.46,7-8,13.59-12.63,17.55l8.32-.08c1.77-.15,3-2.54,3.81-4.73,0,0,1.73.5,2,1C139.58,71.53,138.81,75.49,138,75.49Z"/><path class="cls-1" d="M95.79,61.4A36.74,36.74,0,0,1,104.16,38a34.44,34.44,0,1,0,.11,46.9A36.78,36.78,0,0,1,95.79,61.4ZM87.2,75.66H70.92L71,73.39l4.46-.58c.58,0,.81-.23.81-1,.08-10.05,0-19.6,0-19.6l-5.62,1.08c-.19-.31-1.12-2.46-.46-2.73l10.35-4,1,1s-.12,20.87,0,24.37c0,.77.19,1,.73,1l5.08.54Z"/><path class="cls-1" d="M201.79,61.4A36.74,36.74,0,0,1,210.16,38a34.43,34.43,0,0,0-47.76-2.48A34.8,34.8,0,0,0,172,93.43a34.41,34.41,0,0,0,38.24-8.51A36.78,36.78,0,0,1,201.79,61.4ZM181.35,75.49a15.64,15.64,0,0,1-7.86-2.19l1-2.89a21.48,21.48,0,0,0,7,1.66c3.35,0,5.51-1.74,5.55-5.24,0-2.46-1.43-4.35-4.47-4.74a17.82,17.82,0,0,0-5,.24c-.5.11-.89-3-.42-3.08,3-.54,7.62-1.08,8.39-4.89.73-3.62-2-4.82-4.35-4.66A8.43,8.43,0,0,0,175,52.82c-.2-.23-1.7-2.12-1-3a10.43,10.43,0,0,1,8.16-3.69c5.89,0,9.12,3,8.74,8.51a6,6,0,0,1-4,4.5c3.47.62,5.47,2.93,5.66,6.7C192.9,71.83,188,75.49,181.35,75.49Z"/><circle cx="236" cy="61.53" r="34.44"/><path class="cls-2" d="M237.43,67l-10.13-.08c-.11,0-1.42.2-1.42.2S225,65,225.3,64.79c.89-.46,12.94-16.86,14-18.63l3.19.53c-.08,3.93,0,11.36,0,17.41l4.7-.08c.34,0,.07,3-.54,3h-4.12c0,2.27,0,3.46.08,4.39,0,.77.19,1,.73,1l2.34.54-.07,2.23h-11.4l.08-2.27,2.23-.58c.58-.15.81-.23.81-1C237.39,69.72,237.39,68.68,237.43,67Zm-7.12-3h7.12c0-7,0-10.05,0-10.05S230.31,64.06,230.31,64.06Z"/><path d="M296.49,50.34l-.27,3.12h-5.55V71.34h-3.75V53.46h-5.76V50.34Z"/><path d="M302.64,48.42v9.72a5.86,5.86,0,0,1,5.16-2.67c3.69,0,5.46,2.37,5.46,5.61V71.34h-3.72V62.28c0-2.4-.9-3.69-2.94-3.69-2.85,0-4,2.31-4,4.83v7.92h-3.72V48.87Z"/><path d="M330.78,67a7,7,0,0,1-6.78,4.5c-5.28,0-7.62-3.3-7.62-8.22s3.3-7.95,7.83-7.83c3.69.09,7,2.85,6.63,7.86l-.06.48H320.16c0,2.67,1.14,4.5,3.87,4.5a3.5,3.5,0,0,0,3.39-2.49ZM327,61.89c.06-2.43-1.26-3.57-3.09-3.51a3.5,3.5,0,0,0-3.54,3.51Z"/><path d="M343.32,55.62l.57,2.79a5.8,5.8,0,0,1,5.37-2.94c3.69,0,5.46,2.37,5.46,5.61V71.34H351V62.28c0-2.4-.9-3.69-2.94-3.69-2.85,0-4,2.31-4,4.83v7.92h-3.72V55.62Z"/><path d="M372.3,67a7,7,0,0,1-6.78,4.5c-5.28,0-7.62-3.3-7.62-8.22s3.3-7.95,7.83-7.83c3.69.09,7,2.85,6.63,7.86l-.06.48H361.68c0,2.67,1.14,4.5,3.87,4.5a3.5,3.5,0,0,0,3.39-2.49Zm-3.81-5.13c.06-2.43-1.26-3.57-3.09-3.51a3.5,3.5,0,0,0-3.54,3.51Z"/><path d="M378.39,55.62l3.15,6.18,3.3-6.18h4l-4.35,7.8L389,71.34h-4.26l-3.3-6.12L378,71.34h-4.14l4.83-7.86-4.29-7.86Z"/><path d="M396.81,51.18v4.59h4l-.51,3h-3.45V66c0,1.71.78,2.37,2,2.37a6.83,6.83,0,0,0,2.37-.69l.69,2.85a9.82,9.82,0,0,1-4,1c-3.69,0-4.83-2.46-4.83-5V58.77H390.9v-3h2.37l.45-4.17Z"/><path d="M424.35,67a7,7,0,0,1-6.78,4.5c-5.28,0-7.62-3.3-7.62-8.22s3.3-7.95,7.83-7.83c3.69.09,7,2.85,6.63,7.86l-.06.48H413.73c0,2.67,1.14,4.5,3.87,4.5A3.5,3.5,0,0,0,421,65.82Zm-3.81-5.13c.06-2.43-1.26-3.57-3.09-3.51a3.5,3.5,0,0,0-3.54,3.51Z"/><path d="M431.4,48.42V66.21c0,1.68.75,2.13,1.86,2.13a2.93,2.93,0,0,0,1.56-.57l.69,2.67a6.47,6.47,0,0,1-3.39,1.08c-3.12,0-4.44-2.1-4.44-5V48.87Z"/><path d="M450.69,67a7,7,0,0,1-6.78,4.5c-5.28,0-7.62-3.3-7.62-8.22s3.3-7.95,7.83-7.83c3.69.09,7,2.85,6.63,7.86l-.06.48H440.07c0,2.67,1.14,4.5,3.87,4.5a3.5,3.5,0,0,0,3.39-2.49Zm-3.81-5.13c.06-2.43-1.26-3.57-3.09-3.51a3.5,3.5,0,0,0-3.54,3.51Z"/><path d="M457,55.62l.54,2.79a5.25,5.25,0,0,1,4.86-3,4.58,4.58,0,0,1,4.68,2.91,5.53,5.53,0,0,1,5.07-2.91c3.69,0,5.13,2.4,5.13,5.64V71.34h-3.72V62.28c0-2.4-.57-3.69-2.61-3.69-2.7,0-3.42,2-3.42,4.35v8.4H463.8V62.28c0-2.4-.57-3.69-2.61-3.69-2.88,0-3.45,2.31-3.45,4.83v7.92H454V55.62Z"/><path d="M494.85,67a7,7,0,0,1-6.78,4.5c-5.28,0-7.62-3.3-7.62-8.22s3.3-7.95,7.83-7.83c3.69.09,7,2.85,6.63,7.86l-.06.48H484.23c0,2.67,1.14,4.5,3.87,4.5a3.5,3.5,0,0,0,3.39-2.49ZM491,61.89c.06-2.43-1.26-3.57-3.09-3.51a3.5,3.5,0,0,0-3.54,3.51Z"/><path d="M501.12,55.62l.57,2.79a5.8,5.8,0,0,1,5.37-2.94c3.69,0,5.46,2.37,5.46,5.61V71.34H508.8V62.28c0-2.4-.9-3.69-2.94-3.69-2.85,0-4,2.31-4,4.83v7.92h-3.72V55.62Z"/><path d="M521.13,51.18v4.59h4l-.51,3h-3.45V66c0,1.71.78,2.37,2,2.37a6.83,6.83,0,0,0,2.37-.69l.69,2.85a9.82,9.82,0,0,1-4,1c-3.69,0-4.83-2.46-4.83-5V58.77h-2.19v-3h2.37L518,51.6Z"/><path d="M539.76,55.62V71.34H536V58.71h-2.19V55.62Zm-1.89-6.12a2,2,0,0,1,2.22,1.89,2.22,2.22,0,0,1-4.41,0A1.93,1.93,0,0,1,537.87,49.5Z"/><path d="M544,66.84a8.15,8.15,0,0,0,5.1,1.74c1.8,0,2.85-.54,2.85-1.83,0-3.06-9.09-1-8.79-6.78.12-2.82,2.19-4.5,6.36-4.5a12.78,12.78,0,0,1,5.67,1.47l-1.32,2.64a8.9,8.9,0,0,0-4.5-1.29c-1.47,0-2.7.48-2.64,1.71.18,2.49,8.91.57,8.91,6.63,0,3.24-2.91,4.92-6.63,4.89a10.76,10.76,0,0,1-6.45-2Z"/><path d="M569.79,51.18v4.59h4l-.51,3h-3.45V66c0,1.71.78,2.37,2,2.37a6.83,6.83,0,0,0,2.37-.69l.69,2.85a9.82,9.82,0,0,1-4,1c-3.69,0-4.83-2.46-4.83-5V58.77h-2.19v-3h2.37l.45-4.17Z"/><path d="M581,48.42v9.72a5.86,5.86,0,0,1,5.16-2.67c3.69,0,5.46,2.37,5.46,5.61V71.34h-3.72V62.28c0-2.4-.9-3.69-2.94-3.69-2.85,0-4,2.31-4,4.83v7.92h-3.72V48.87Z"/><path d="M609.12,67a7,7,0,0,1-6.78,4.5c-5.28,0-7.62-3.3-7.62-8.22s3.3-7.95,7.83-7.83c3.69.09,7,2.85,6.63,7.86l-.06.48H598.5c0,2.67,1.14,4.5,3.87,4.5a3.5,3.5,0,0,0,3.39-2.49Zm-3.81-5.13c.06-2.43-1.26-3.57-3.09-3.51a3.5,3.5,0,0,0-3.54,3.51Z"/><path d="M632.52,67a7,7,0,0,1-6.78,4.5c-5.28,0-7.62-3.3-7.62-8.22s3.3-7.95,7.83-7.83c3.69.09,7,2.85,6.63,7.86l-.06.48H621.9c0,2.67,1.14,4.5,3.87,4.5a3.5,3.5,0,0,0,3.39-2.49Zm-3.81-5.13c.06-2.43-1.26-3.57-3.09-3.51a3.5,3.5,0,0,0-3.54,3.51Z"/><path d="M638.79,55.62l.57,2.79a5.8,5.8,0,0,1,5.37-2.94c3.69,0,5.46,2.37,5.46,5.61V71.34h-3.72V62.28c0-2.4-.9-3.69-2.94-3.69-2.85,0-4,2.31-4,4.83v7.92h-3.72V55.62Z"/><path d="M658.8,51.18v4.59h4l-.51,3H658.8V66c0,1.71.78,2.37,2,2.37a6.83,6.83,0,0,0,2.37-.69l.69,2.85a9.82,9.82,0,0,1-4,1c-3.69,0-4.83-2.46-4.83-5V58.77h-2.19v-3h2.37l.45-4.17Z"/><path d="M669,55.62l.69,3.24c.72-2.4,2.55-3.45,5.1-3.39a6.19,6.19,0,0,1,1.62.27L675.84,59a6.48,6.48,0,0,0-2.25-.3c-2.76.09-3.81,2.22-3.81,4.74v7.89h-3.72V55.62Z"/><path d="M682.32,55.62l3.87,11.1h.24L690,55.62h3.84l-5.82,16c-1.92,5.25-3.72,6.57-9.27,5.4l.66-3.15c3.54.87,4,.06,5.13-3L678.6,55.62Z"/><path class="cls-3" d="M409.45,739.73c-.22-6.9-.67-13.79-1.41-20.65-1.06-10,17.42-46.62,17.72-56.58L407,690c-1,.65-1.6,2.08-2.43,3a18.12,18.12,0,0,1-2.91,2.63,15.1,15.1,0,0,0-3.09,2.35c-.95,1.08-1.63,2.38-2.5,3.53-3.46,4.63-5.58,10.22-7.48,15.7a73.4,73.4,0,0,0-2.66,7.68c-.78,3.51-1,7.07-1.49,10.62-.41,3.16-.46,6.37-.61,9.55a39.14,39.14,0,0,0,1.68,12l.14.59c-.87-1.73-1.88-4.1-3.21-7.58a12.2,12.2,0,0,1-.28-8.65,13.54,13.54,0,0,0-1.47,1.66c-1.17,1.52-1.48,3.4-2.18,5.36-.54,1.51-1.85,2.65-1.58,4.41,4.39,28.5-12.55,47-9,82.17l2.8,17.34c1.24,12.34,1.63,35.45,2.78,45.48.3,6.73-2,15-.83,23.79,1.11,8.34,5.68,17.33,5.77,19.12.44,9.3.31,18.82,1.21,28.07.07.82.15,1.65.22,2.47.09,1,.19,2.05.28,3.08.05.51.09,1,.14,1.52a2.15,2.15,0,0,1,0,.62,4.85,4.85,0,0,0,.1,1.07l.14.66a1.24,1.24,0,0,0,.21.45,4.63,4.63,0,0,0,.32.42c.2.19.49.12.74.09.64-.08.74-.48.85-1a6.24,6.24,0,0,1-.07,1.29,12.72,12.72,0,0,0,.17,3,5.32,5.32,0,0,0,.75,2.49,1.4,1.4,0,0,0,1.14.59,1.28,1.28,0,0,0,1-.52,1.39,1.39,0,0,0,.32-1.22c-.06-.5,0-1,0-1.51,0,0,0,0,0,0-1-1.06.27.22.46.24.36,0,.68-.32.94-.52a1.2,1.2,0,0,1,.57-.27,1.08,1.08,0,0,0,.71-.61,10.29,10.29,0,0,0,.62-3.06c.13-1.06.49-2.1.58-3.17,0-.39.07-.78.12-1.17s0-.52,0-.79c.07-.73,0-1.44.08-2.16a21,21,0,0,0,0-2.24c-.05-.7,0-1.36-.08-2.06a17.29,17.29,0,0,1,.05-1.9,12.49,12.49,0,0,1,.22-2c0-.39.1-.76.18-1.14a4.37,4.37,0,0,0-.06-1.3,19.89,19.89,0,0,1,0-2.56c.06-1.17-.1-2.29.07-3.45.26-1.77.46-3.54.7-5.3,0-.2.08-.41.12-.61a2.8,2.8,0,0,1,.11-.59c.19-.06.27.1.43.17s.32.1.47.17a2.94,2.94,0,0,0,.72.26,4,4,0,0,0,1.62,0,3.75,3.75,0,0,0,.74-.39,1.57,1.57,0,0,0,.49-.39A3.75,3.75,0,0,1,396,947a6.37,6.37,0,0,0,1.23-2.18,6.59,6.59,0,0,0-.11-1.82,5.18,5.18,0,0,0-.55-1.65c-.21-.48-.51-.9-.68-1.4s-.48-1.09-.67-1.64a7.73,7.73,0,0,0-.84-1.85,8.08,8.08,0,0,1-.89-1.79c-1.18-3.41-1.62-7.75-3.06-11.31-1.76-4.34-4.82-6.2-5.36-10.76-1.11-9.31,9.1-42.63,10.35-51.83l.44-1.06c2.15-15.79,6.49-35,9-52A402.89,402.89,0,0,0,409.59,749C409.59,745.9,409.54,742.81,409.45,739.73Z"/><path class="cls-3" d="M391.43,947.69a2.43,2.43,0,0,0-.5-.77c-.37-.47-.69-1-1.06-1.46a11.35,11.35,0,0,1-.71-1.14,14.69,14.69,0,0,1-.73-1.35c-.16-.34-.3-.69-.43-1a7.19,7.19,0,0,1-.24-1c-.16-.75-.28-1.52-.41-2.28a4.88,4.88,0,0,0-.54-1.71c-.41-.71-.9-1.36-1.3-2.07-.26-.47-.45-.94-.67-1.43-.15-.32-.27-.66-.39-1s-.31-.8-.44-1.2c-.06-.21-.18-.42-.22-.63s0-.28-.07-.42a4.29,4.29,0,0,1-.07-.5,4.88,4.88,0,0,0-.11-1c0-.12,0-.52-.18-.53"/><path class="cls-3" d="M394.83,942.06l.18.37,1,2.19a3.27,3.27,0,0,1,.37,2.42,2.73,2.73,0,0,1-1.68,1.39,2,2,0,0,1-1.34.13,2,2,0,0,1-.92-.86,14.63,14.63,0,0,1-1.89-4.21,1.78,1.78,0,0,1,.05-1.36,1.83,1.83,0,0,1,.5-.5,3.61,3.61,0,0,1,1.68-.72,2,2,0,0,1,1.69.54A2.22,2.22,0,0,1,394.83,942.06Z"/><path class="cls-3" d="M383.51,958.86c.32,0,.66-.09,1-.09a.71.71,0,0,1,.37.12,2.06,2.06,0,0,1,.25.4"/><path class="cls-3" d="M384.72,960.64l-.63.06c-.16,0-.31,0-.47,0"/><path class="cls-3" d="M384.87,961.21l-.61,0-.31,0c-.12,0-.21,0-.33,0"/><path class="cls-3" d="M385.4,962.42a1.47,1.47,0,0,0-.41.07c-.17.07-.33.19-.5.27a1.73,1.73,0,0,1-.43.12,2.22,2.22,0,0,1-.45.07"/><path class="cls-3" d="M382.28,962.75c-.21,0-.39.14-.6.16l-.25,0c-.11,0-.25-.05-.34,0"/><path class="cls-3" d="M380.89,961.88c.18,0,.35,0,.53,0l.52,0"/><path class="cls-3" d="M381,961.4l.68-.06"/><path class="cls-3" d="M381,960l.86-.08a1.67,1.67,0,0,1,.77.09"/><path class="cls-3" d="M385.29,981.63c-.77-4.59-1.76-16.26-2.08-20.91-.31-4.34.45-8.36-1.73-12.21"/><path class="cls-3" d="M382.51,974.64c-.77-7.13-1.55-14.17-2.2-21.31"/><path class="cls-3" d="M386.84,982.39c2.55-.94,1.5-3.82,1.26-4.74-.41-1.56-.5-1.53-2-1.67-.25,0-1.25.36-1.5.38"/><path class="cls-3" d="M382.65,979.88a3.88,3.88,0,0,1,1.15.08c.19.14.41.24.6.38a2.5,2.5,0,0,1,.71.78,5.74,5.74,0,0,1,.33,2.27,2.91,2.91,0,0,1-1.22,2.54c-.29.17-1,.1-1.41-1.43Z"/><path class="cls-3" d="M380,973.4s.6.09.66.1a4.29,4.29,0,0,1,1.17.59,1.56,1.56,0,0,1,.74.78,2.27,2.27,0,0,1,0,.94c-.07,1.2.14,2.63-.83,3.55a1.25,1.25,0,0,1-.47.28c-.75.18-1.14-1-1.27-1.48C380.08,978.16,380,973.45,380,973.4Z"/><path class="cls-4" d="M352.67,221.22a22.5,22.5,0,0,1,7.9,18.83c-.95,14.83-5,28.26-8.91,42.32l-2.73,9.82c-.65,2.33-2.16,5.08-2.15,7.57,0,6.79-1.09,16.44-1.13,23.23,0,6.42,1.55,25.22,2.32,31.6.35,2.88.65,5.85,1.22,8.69.16.79,1.35,4.27,2.85,8.57,3.87,11.08,15.63,16.4,25.47,11.52l5.87-2.92c6.27-3.11,9.94-10.25,9-17.7-.58-4.73-1.21-9.45-1.81-14.18-1-7.63-3.24-27.75-4.46-35.35-.43-2.73-.84-5.46-1.13-8.21-.21-2-.12-4-.27-5.94-.91-12.1-.85-24.22-.69-36.32.14-11.55.24-22.69,2.43-34a152.91,152.91,0,0,0,2.57-23.21c.29-7.54-1.35-14.52-1.8-22-.17-2.91,0-5.82-.23-8.73-.31-5-.86-12.91-3.09-17.38-.68-1.37-1.16-3-2-4.24a34.1,34.1,0,0,0-3.07-3.6c-1-1.15-2-2.45-3.59-2.4a6.9,6.9,0,0,0-3.19,1.22c-1.38.84-1.5,2.1-1.77,3.8-.52,3.16-.86,6.35-1.14,9.54a21.85,21.85,0,0,1-.41,2.31c-1.34,6.39-2.12,12.81-4,19.13a22.57,22.57,0,0,1-1.82,4.74,22.09,22.09,0,0,1-4.06,4.86c-3.7,3.65-8.06,7-11.33,11.11a12.14,12.14,0,0,0-2.53,4.82c-.48,1.89.48,3.59,1.44,5.13A32,32,0,0,0,352.67,221.22Z"/><path class="cls-5" d="M395,772.21c5.65-5.94,13.31-12.59,14.28-22.14C410.33,739.58,400.6,738,395,731l-1.67-2.09c3.32-2.76,4-8.14,5.37-12.44,4-12.69,8.88-23.93,17.65-33.75a.3.3,0,0,0-.36-.48c-3.3,1.64-7.44,1.55-10.79,3.08-5.27,2.41.45-10.4-3.05-5.85-3.1,4-16.45,25.24-19.18,29.44-1.12-2.47-2-4.17-2.33-4.11-9.89,2.09-13,25.58-22.48,29.31a22.68,22.68,0,0,0-5.16,2.23c-1.64,1.12-3.3,2.24-5,3.32a15.11,15.11,0,0,0-4,4.58,56.53,56.53,0,0,0-3.13,5.15c-2.46,4.66-2.65,10.27-2.73,15.35s-.47,10.74,2.26,15.25c1.71,2.82,4.54,2.92,7.85,4.07,1.71.59,2.32,3.05,4.06,2.9.67-.06,1.48.12,2.13,0s1.53-.72,2.32-.92a17,17,0,0,0,4.36-1.32c1.4-.79,2.88-1.35,4.25-2.17a23.42,23.42,0,0,1,4.18-2.11c1.43-.55,3-1.27,4.52-1.69,4.9-1.37,10.85.55,15.84.81C396.29,779.87,392.16,775.2,395,772.21Z"/><path class="cls-6" d="M350,780.92c-4.48-6.68-2.89-12.42-3.61-20.54-1.17-13.16-3.56-25.44-1.42-38.42a15.05,15.05,0,0,0,.3-4.12c-.47-3.83-4.2-6.73-8-7.06s-7.63,1.52-10.46,4.13c-5.44,5-9.16,13.31-10.57,20.51-.36,1.8-.9,3.62-1.16,5.44a21.53,21.53,0,0,0,.36,5.66c.43,3.44.75,6.89,2,10.15a39,39,0,0,0,4.13,7.66c1.57,2.32,2.43,4.9,4,7.19s3,4.76,5.27,6.64c1.71,1.43,3.25,2.93,5.09,4.26a21,21,0,0,0,4.16,1.88c1.84.82,3.1.69,5.11.46,2.4-.27,8-.45,4.8-3.84"/><path class="cls-6" d="M342,690.54c-.88-1.32-1.74-3.4-2.94-4.4s-4.34-.9-6.06-.93c-2.81-.06-8.72,2.08-9.7,5-1.06,3.16-.41,8.44,1.11,11.4.86,1.69,4.29,6.92,6.62,4.6.14-2.43-3.73-3-5.57-3.11s-4.62,1.91-5.26,3.51c-.91,2.24.38,3.93,1.55,5.66,1,1.55,1.95,3.51,3.51,4.58,1.41,1,4,2.22,5.7,2.18,1.12,0,5.34-1.89,6-3.07.57-1,0-1.22-.5-2.06a4.36,4.36,0,0,1-.87-2.39c-.08-.71-.41-1.62,0-2.19a3.85,3.85,0,0,0,2-.56,2.22,2.22,0,0,0,1.16-1.64"/><path class="cls-5" d="M354.35,537.83c2.72,4.15-.85,34.79.89,39.33.26.66.86,1.18,1.13,1.88.61,1.52,1.08,3.42,1.58,5a25.69,25.69,0,0,1,.86,7.61c-.07,4.94,1.13,9.83,1,14.69-.18,5.25,1.62,10.34,1.11,15.47-1.16,11.54-4.24,22.91-6.8,34.28-1.26,5.59-3.82,10.93-4.88,16.57-.64,3.42-1.71,6.45-2.62,9.77-.58,2.11-.11,6.72-2,8-2.17-.55-3.21-2.91-4.35-4.6-1.83-2.7,2.12-5.81,1.61-9.1-.46-3-1.87-5.13-2.24-8.1-1-7.64-6.39-40.3-.76-60,.88-3.08,6-57.12,6.76-60.23C347.07,542.14,357.75,543,354.35,537.83Z"/><path class="cls-5" d="M380,830c-2.27-11.06-2.75-22.12-3-33.38a302.75,302.75,0,0,0-2.6-30.35c-1.6-12.9-.48-28.16,4.1-40.34,2.65-13.44,13.75-34.1,22.13-44.25.22-.27.43-.53.64-.81a6,6,0,0,0,.8-1.41c.44-1.2-2.61,8.39-2.86,7.14-2.65-12.93-13.77-25.52-21.78-35.6-4-5.06-13.11-20.12-20.49-19.36-5.36.54-14.91,8.68-17.36,13.44-5,9.71-.13,17.87.36,28.15.54,11.17-4.09,24.71-4.48,35.87-.61,17.24,5.15,30.86,7.34,47.83.19,1.46.11,3,.24,4.47.47,5.26,1.58,10.49,1.87,15.73.25,4.59.94,9.15,1.43,13.72a57,57,0,0,0,1.38,9c.8,3,1.63,6.13,2.72,9.14"/><path class="cls-7" d="M396.19,689.43a6.43,6.43,0,0,1-1.24,0c-.57-.07-.46-.05-1.15-1.08a6.69,6.69,0,0,1-.88-2.21c-2.35,5.76-4.76,11.49-7.1,17.25s-4.87,11.28-6.47,17.19c-1,3.74-1.43,5.44-2.31,9.21,0-.06.56.27.59.21a30.57,30.57,0,0,1,3.16-6.25,60.09,60.09,0,0,0,3.31-7C385.14,714.5,396.35,689.5,396.19,689.43Z"/><path class="cls-7" d="M358.86,633.79a6.56,6.56,0,0,1-.95-.95,3.37,3.37,0,0,1-.66-1.29,2.44,2.44,0,0,1-.1-.71,40.9,40.9,0,0,0-13.59,7,45.59,45.59,0,0,0-6.69,6.13c.07,1.11.13,2.22.2,3.32.06.58.14,1.15.21,1.72l0,.12v.08c.06.49.13,1,.2,1.46a16,16,0,0,1,3.33-4.74,43.87,43.87,0,0,1,5.52-4.94,36.19,36.19,0,0,1,13.33-6.58C359.41,634.25,359.13,634,358.86,633.79Z"/><path class="cls-5" d="M350.48,809C354.72,835.25,366,952.51,371,978.54l1.11,5.82c.1.53.19,1.06.3,1.59a2.44,2.44,0,0,1,0,.66,4.71,4.71,0,0,0,.21,1.12l.22.68a1.33,1.33,0,0,0,.27.46,3.76,3.76,0,0,0,.38.41c.23.18.53.07.79,0,.67-.15.71-.68.79-1.2a4.77,4.77,0,0,1,.07,1.46,13.24,13.24,0,0,0,.49,3.17,5.67,5.67,0,0,0,1,2.56,1.47,1.47,0,0,0,1.27.5,1.34,1.34,0,0,0,1-.66c.33-.45.65-.84.55-1.36s-.36-.77-.52-1.55a1.05,1.05,0,0,0,.5.15c.38,0,.68-.41.94-.65a1.24,1.24,0,0,1,.57-.34,1.16,1.16,0,0,0,.69-.71,10.54,10.54,0,0,0,.33-3.31c0-1.13.31-2.27.3-3.41,0-.41,0-.83,0-1.25s-.05-.55-.05-.84c0-.78-.1-1.52-.14-2.29a23.61,23.61,0,0,0-.19-2.38c-.08-.46-.12-.91-.18-1.36.88-1,1.43-.74,2-1.9.15-.31.23-2.13.31-2.47a4.58,4.58,0,0,0,.08-.83,57,57,0,0,0-1.26-11.42c-.82-4.6-.74-9.13-1.08-13.76a67.73,67.73,0,0,0-2.51-13.83,16.56,16.56,0,0,0-2.42-4.87c-3.52-5.39-2.56-11.92-2-17.94.38-4.15.6-8.34.94-12.5.89-11.14,1.82-22.27,2.62-33.41.79-10.91,1.83-22,1.56-32.91"/><path class="cls-5" d="M374.56,968.21c.35-.07.7-.16,1-.2a.7.7,0,0,1,.4.09c.13.09.21.28.32.4"/><path class="cls-5" d="M375.8,969.2l-.66.13c-.17,0-.33,0-.5,0"/><path class="cls-5" d="M376.08,969.78l-.65.12-.33.07c-.12,0-.22,0-.34,0"/><path class="cls-5" d="M376.83,970.59a1.62,1.62,0,0,0-.43.12c-.17.09-.33.23-.5.34a3.34,3.34,0,0,1-.44.17,2.31,2.31,0,0,1-.47.11"/><path class="cls-5" d="M373.14,971.73c-.23,0-.41.19-.63.23l-.26,0c-.11,0-.27,0-.36,0"/><path class="cls-5" d="M371.57,971c.2,0,.37,0,.56-.05l.55-.1"/><path class="cls-5" d="M371.59,970.44l.71-.14"/><path class="cls-5" d="M371.53,968.92l.9-.17a1.89,1.89,0,0,1,.82,0"/><path class="cls-5" d="M375.12,988.19l-1.68-8.5-.39-2.08c-.07-.35-.13-.7-.2-1.05s-.22-.73-.31-1.1c-.22-1-.56-2-.75-3-.07-.41-.15-.82-.23-1.23-.14-.73-.16-1.47-.24-2.21-.06-.56-.11-1.09-.21-1.64s-.18-1-.28-1.46c-.38-2-.75-4-1.13-6a17,17,0,0,0-.8-2.57,17.35,17.35,0,0,1-.91-2.46"/><path class="cls-5" d="M377.67,986.77a2.4,2.4,0,0,1,1.59.33,2.33,2.33,0,0,1,1,1.35,5.26,5.26,0,0,1,0,3,2.14,2.14,0,0,1-.85.94.33.33,0,0,1-.44-.24,225.1,225.1,0,0,1-4.44-23c-.23-1.24-.16-2.54-.33-3.79a1.68,1.68,0,0,1,0-.59c-.05-.24-.86-5-.9-5.31"/><path class="cls-5" d="M382,975.51a.74.74,0,0,1-.43-.1.84.84,0,0,1-.44-.33,4,4,0,0,1-.58-1.81c-.23-1.22-.45-2.43-.69-3.64-.07-.33,0-.67-.11-1s-.1-.49-.14-.74c-.08-.43-.17-.85-.25-1.28-.21-1.13-.4-2.27-.64-3.39-.19-.92-.59-1.79-.83-2.69-.09-.35-.12-.72-.2-1.08a7.39,7.39,0,0,0-.46-1.18c-.16-.37-.33-.75-.46-1.13s-.09-.73-.21-1.08c-.07-.2-.2-.38-.26-.59s0-.26-.07-.38a6.21,6.21,0,0,0-.2-.61c0-.12,0-.25-.11-.32a.64.64,0,0,0,.05.33s-.06,0-.08,0"/><path class="cls-5" d="M378.66,963c.16-.13,1.61-1,1.66-.78"/><path class="cls-5" d="M379.19,963.32c.32-.11.65-.21,1-.34"/><path class="cls-5" d="M379.23,964.33c.19.11.66-.2.82-.27l.53-.25c.1,0,.25-.09.32-.19"/><path class="cls-5" d="M375.26,990.4c.19,0,.79-.14.94,0s.36.18.54.29a2.2,2.2,0,0,1,.82.86,11.77,11.77,0,0,1,.44,1.7,2.3,2.3,0,0,1,.12.45,1.31,1.31,0,0,1,0,.28,6,6,0,0,1-.07,1.42c-.1.33-.31.28-.57.52s-.79.2-1.35-1.18Z"/><path class="cls-5" d="M372.26,985.62a3.8,3.8,0,0,1,.92-.1c.17.07.35.11.51.17a1.53,1.53,0,0,1,.76.58,5.6,5.6,0,0,1,.31,1.22.9.9,0,0,1,.09.32.74.74,0,0,1,0,.21,4.11,4.11,0,0,1-.17,1.05c-.12.25-.32.22-.59.41s-.8.21-1.26-.77Z"/><path class="cls-5" d="M380.23,971.56a4.6,4.6,0,0,1,.93-.11c.16.07.35.11.51.18a1.55,1.55,0,0,1,.75.58,5.53,5.53,0,0,1,.32,1.21,1.78,1.78,0,0,1,.09.33,1.5,1.5,0,0,1,0,.2,3.39,3.39,0,0,1-.17,1c-.12.25-.32.22-.59.42s-.79.2-1.25-.78Z"/><path class="cls-8" d="M409.3,692c3.14-2.5,14-17.39,15.5-20.94,5.8-13.38,8.49-28.7,1.15-42.06a20.53,20.53,0,0,1-2.64-5.78c-.62-3.08.77-6.74,1.19-9.82.55-4.11.93-8.24,1.11-12.38.51-11.31-1.26-22.45-1.07-33.73q.36-21.71-.36-43.4c-.46-13.79-1.4-29-9.3-40.81L412.5,482c-.25,1.31,0,2.73-.13,4.08-.19,1.57.29,3.09.13,4.67a140.78,140.78,0,0,1-4.19,23.34c-2.11,7.61-4.54,16.11-10.3,21.71a17.48,17.48,0,0,1-2.61,1.88c-3.27,2.15-5.57,4.83-9.37,6.38-10.76,4.36-23.1,1.13-31.68-6.26a65.37,65.37,0,0,1-9.83-11c-1.76-2.4-4.82-27.06-6.55-29.76,0,1.61-3.81,5.84-3.73,7.45-2.92,6.19,2.36,22.85,3.21,26.34,7.34,30,22,57.39,20.81,89.25-.08,2.13-1.11,10.77-1.28,11.56a23.46,23.46,0,0,0,2.71,2.83s4.91.89,7.13,3.61q4.29,5.23,8.17,10.78a142.5,142.5,0,0,1,13.38,23.43c1.41,3.16,2.69,6.39,3.84,9.66.43,1.25.13,6.64.13,6.64a16.61,16.61,0,0,0,3.85.85C405,688.64,406.72,691.05,409.3,692Z"/><path class="cls-3" d="M420.44,483.55c-2.16-23.34-9-34.23-12.29-57.91C405.3,404.89,400.56,391,391,372.39a4.13,4.13,0,0,1-.53-1.47,4.57,4.57,0,0,1,.26-1.59c1.78-6.7-2.47-20.18-3.67-26.8-1.36-7.57-4.68-27.54-6.28-35.07-.57-2.7-1.12-5.41-1.56-8.14-.32-2-.33-3.95-.58-5.92-1.54-12-2.1-24.14-2.58-36.24-.46-11.54-.93-22.66.67-34.09a153.66,153.66,0,0,0,1.35-23.31c-.1-7.54-2.1-14.43-2.94-21.88-.32-2.9-.35-5.81-.68-8.71-.57-4.95-1.53-12.85-4-17.19-.75-1.33-1.31-2.9-2.18-4.14a34,34,0,0,0-3.25-3.43c-1-1.1-2.12-2.34-3.71-2.21a7,7,0,0,0-3.13,1.39c-1.33.9-1.38,2.17-1.57,3.88-.35,3.19-.53,6.38-.64,9.59a21.94,21.94,0,0,1-.29,2.32c-1,6.45-1.45,12.91-3,19.32a17.31,17.31,0,0,1-5.37,9.88c-3.51,3.84-7.69,7.41-10.74,11.69a12.15,12.15,0,0,0-2.27,4.94c-.39,1.92.66,3.56,1.7,5.06a31.79,31.79,0,0,0,6.51,7,22.49,22.49,0,0,1,8.86,18.4c-.17,14.86-3.52,28.48-6.69,42.73-1.64,7.33-3.71,14.39-4,22-.58,16.89,1.14,33.71,4,50.35.5,2.86.95,5.8,1.67,8.62.13.5.76,2.13,1.65,4.35l0,.26c-1.62,22-6.5,43.74-8.95,65.69q-2.5,22.59-3.8,45.33c-.74,13-2.92,27,1.22,39.82,3.94,12.21,11.94,22.85,22,29.26,6.34,4,13.59,6.44,20.66,5.83,9.78-.85,30.85-10.5,36.95-18.92C429.78,512.17,422.08,501.33,420.44,483.55Z"/></svg>