<svg id="Layer_1" data-name="Layer 1" xmlns="http://www.w3.org/2000/svg" viewBox="0 0 780 1051.14"><defs><style>.cls-1{fill:#c6946f;}.cls-1,.cls-2,.cls-3,.cls-5,.cls-6{stroke:#fff;stroke-miterlimit:10;}.cls-1,.cls-2,.cls-3,.cls-6{stroke-width:0.42px;}.cls-2{fill:#b58362;}.cls-3{fill:#d4a47c;}.cls-4{fill:#221913;}.cls-5{fill:#fff171;stroke-width:0.3px;}.cls-6{fill:#005058;}.cls-7{opacity:0.37;}.cls-8,.cls-9{fill:#fff;}.cls-8{opacity:0.7;}.cls-9{font-size:38.5px;font-family:ABCSerifBold, ABCSerif;}.cls-10{fill:#abd6ee;}.cls-11{fill:#66b7e4;}</style></defs><path class="cls-1" d="M363.53,885.87l2.53,17.38c1,12.36,1.05,35.47,2,45.52.18,6.73-2.24,15-1.22,23.77,1,8.36,5.4,17.42,5.46,19.21.07,2.28.1,4.57.13,6.87q6.28,0,12.55-.55,2.89-.75,5.81-1.27a4.29,4.29,0,0,0,.23-.63,6.65,6.65,0,0,0-.08-1.83,5.12,5.12,0,0,0-.52-1.65c-.2-.49-.5-.91-.66-1.42s-.46-1.09-.64-1.65a7.53,7.53,0,0,0-.82-1.86,8,8,0,0,1-.85-1.8c-1.13-3.43-1.5-7.78-2.88-11.36-1.69-4.37-4.72-6.28-5.19-10.85-1-9.32,9.79-42.48,11.19-51.65l.46-1.05c2.4-15.76,7.05-34.85,9.84-51.86a402.34,402.34,0,0,0,5.71-58.68q.08-4.62,0-9.25c-.11-6.9-.45-13.79-1.07-20.67-.9-10,18.17-46.33,18.63-56.29L405,741.54c-1,.63-1.64,2.05-2.49,2.91a17.67,17.67,0,0,1-2.95,2.58,14.71,14.71,0,0,0-3.12,2.3c-1,1.06-1.67,2.35-2.56,3.49-3.54,4.57-5.74,10.13-7.73,15.57a70.75,70.75,0,0,0-2.79,7.65c-.83,3.49-1.14,7.05-1.66,10.59-.46,3.15-.56,6.36-.76,9.53a39.34,39.34,0,0,0,1.48,12.05c0,.16.09.37.13.59-.84-1.75-1.81-4.14-3.08-7.64a12.18,12.18,0,0,1-.14-8.65,13.54,13.54,0,0,0-1.5,1.63c-1.19,1.51-1.54,3.38-2.27,5.33-.56,1.5-1.89,2.62-1.65,4.38C377.82,832.42,360.58,850.64,363.53,885.87Z"/><path class="cls-1" d="M377.76,980.76a4.26,4.26,0,0,0,.06.5c0,.14,0,.28.06.42s.16.42.22.63c.12.41.28.81.42,1.21s.22.69.36,1c.22.49.4,1,.66,1.44.38.72.86,1.37,1.26,2.09a5.12,5.12,0,0,1,.52,1.72c.11.76.22,1.53.36,2.29a7.16,7.16,0,0,0,.23,1c.12.35.26.7.41,1a13.49,13.49,0,0,0,.71,1.36,10.5,10.5,0,0,0,.7,1.16c.34.47.65,1,1,1.44h.18l-7.28-18.48c0,.06,0,.12,0,.15A4.87,4.87,0,0,1,377.76,980.76Z"/><path class="cls-1" d="M385.63,997.93q2.28-.58,4.56-1a7,7,0,0,0-.36-1c-.31-.74-.62-1.47-.92-2.21-.06-.12-.11-.25-.17-.37a2.82,2.82,0,0,0-.39-.62,2.05,2.05,0,0,0-1.69-.57,3.55,3.55,0,0,0-1.69.7,1.8,1.8,0,0,0-.5.49,1.69,1.69,0,0,0-.07,1.36A14.85,14.85,0,0,0,385.63,997.93Z"/><path class="cls-2" d="M358.25,271.9a22.51,22.51,0,0,1,7.59,19c-1.18,14.82-5.45,28.18-9.59,42.18q-1.44,4.88-2.89,9.77c-.68,2.32-2.24,5.05-2.27,7.54-.09,6.78-1.36,16.42-1.5,23.21-.14,6.41,1.13,25.24,1.8,31.63.3,2.88.56,5.85,1.08,8.71.15.79,1.28,4.28,2.71,8.61,3.69,11.14,15.36,16.66,25.28,11.93l5.92-2.83c6.31-3,10.1-10.09,9.31-17.55-.5-4.73-1.06-9.47-1.58-14.2-.85-7.65-2.79-27.8-3.88-35.42-.39-2.73-.75-5.47-1-8.22-.18-2-.06-4-.18-5.95-.71-12.11-.45-24.23-.1-36.33.33-11.55.62-22.68,3-34a153.75,153.75,0,0,0,2.94-23.16c.41-7.53-1.11-14.54-1.44-22-.13-2.91,0-5.83-.09-8.74-.24-5-.65-12.92-2.81-17.42-.66-1.38-1.11-3-1.89-4.28a34,34,0,0,0-3-3.65c-.94-1.16-1.95-2.47-3.54-2.46a7,7,0,0,0-3.22,1.18c-1.38.81-1.52,2.07-1.83,3.77-.56,3.15-1,6.33-1.29,9.52a21.56,21.56,0,0,1-.45,2.29c-1.44,6.37-2.32,12.78-4.27,19.07a23.15,23.15,0,0,1-1.89,4.72,22.29,22.29,0,0,1-4.14,4.78c-3.76,3.59-8.18,6.87-11.51,10.93a12.17,12.17,0,0,0-2.6,4.78c-.52,1.88.41,3.59,1.35,5.15A31.77,31.77,0,0,0,358.25,271.9Z"/><path class="cls-3" d="M391.65,823.51c5.74-5.86,13.51-12.38,14.63-21.91,1.23-10.48-8.48-12.2-14-19.32-.55-.71-1.09-1.42-1.64-2.12,3.38-2.71,4.16-8.08,5.57-12.35,4.19-12.62,9.27-23.79,18.2-33.46a.3.3,0,0,0-.35-.48c-3.33,1.58-7.47,1.42-10.84,2.9-5.31,2.32.62-10.39-3-5.9-3.16,4-16.85,25-19.65,29.12-1.08-2.48-1.94-4.2-2.26-4.14-9.93,1.93-13.39,25.36-23,28.94a22.91,22.91,0,0,0-5.2,2.15c-1.66,1.09-3.33,2.18-5,3.23s-2.88,2.83-4.08,4.52a53.17,53.17,0,0,0-3.21,5.1c-2.55,4.62-2.82,10.23-3,15.31s-.64,10.73,2,15.28c1.66,2.85,4.49,3,7.78,4.19,1.7.63,2.27,3.1,4,3,.68,0,1.48.14,2.13,0s1.54-.7,2.34-.89a17.06,17.06,0,0,0,4.38-1.24c1.41-.77,2.9-1.31,4.28-2.11a23.71,23.71,0,0,1,4.22-2c1.43-.53,3-1.22,4.54-1.62,4.92-1.28,10.84.73,15.83,1.07C392.82,831.18,388.77,826.45,391.65,823.51Z"/><path class="cls-4" d="M346.54,831.48c-4.37-6.75-2.69-12.46-3.28-20.6-1-13.17-3.15-25.48-.8-38.42a14.76,14.76,0,0,0,.37-4.12c-.4-3.84-4.08-6.81-7.92-7.19s-7.65,1.39-10.53,4c-5.52,4.92-9.37,13.16-10.9,20.33-.39,1.8-1,3.61-1.24,5.43a21.1,21.1,0,0,0,.26,5.66c.37,3.45.64,6.89,1.88,10.18a39.32,39.32,0,0,0,4,7.73c1.54,2.34,2.35,4.94,3.89,7.25s3,4.81,5.16,6.72c1.68,1.46,3.19,3,5,4.35a21.3,21.3,0,0,0,4.13,1.94c1.83.85,3.1.75,5.11.55,2.4-.23,8-.32,4.86-3.77"/><path class="cls-4" d="M340,741c-.87-1.34-1.7-3.43-2.88-4.45s-4.32-1-6-1c-2.8-.11-8.75,1.94-9.77,4.84-1.12,3.13-.56,8.43.91,11.41.84,1.7,4.18,7,6.55,4.71.18-2.43-3.68-3.07-5.52-3.2-1.69-.12-4.64,1.83-5.32,3.42-.94,2.22.33,3.94,1.46,5.68,1,1.57,1.9,3.54,3.44,4.64,1.39,1,3.93,2.28,5.66,2.28,1.12,0,5.38-1.81,6.07-3,.59-1,0-1.21-.46-2.06a4.3,4.3,0,0,1-.83-2.41c-.08-.71-.39-1.63,0-2.19a3.88,3.88,0,0,0,2-.53,2.25,2.25,0,0,0,1.19-1.62"/><path class="cls-3" d="M354.81,588.49c2.64,4.2-1.42,34.77.25,39.35.24.66.84,1.19,1.1,1.89.58,1.54,1,3.44,1.5,5a25.74,25.74,0,0,1,.73,7.62c-.15,4.94,1,9.84.73,14.7-.27,5.25,1.45,10.37.85,15.49-1.35,11.52-4.61,22.83-7.35,34.16-1.35,5.57-4,10.87-5.15,16.49-.7,3.41-1.81,6.43-2.78,9.73-.61,2.1-.21,6.72-2.14,8-2.16-.58-3.16-3-4.27-4.67-1.79-2.74,2.21-5.78,1.76-9.08-.41-3-1.79-5.16-2.11-8.13-.83-7.65-5.74-40.4.21-60.05.93-3.06,6.95-57,7.73-60.1C347.45,592.68,358.12,593.75,354.81,588.49Z"/><path class="cls-3" d="M375.76,881c-2.09-11.11-2.39-22.16-2.46-33.43a302.76,302.76,0,0,0-2.11-30.38c-1.39-12.94,0-28.17,4.76-40.27,2.87-13.41,14.3-33.88,22.84-43.9.22-.26.44-.52.65-.79a5.47,5.47,0,0,0,.82-1.4c.46-1.19-2.74,8.35-3,7.09-2.44-13-13.35-25.73-21.2-35.94-3.94-5.13-12.79-20.33-20.17-19.7-5.37.46-15.05,8.44-17.58,13.16-5.17,9.63-.42,17.86-.09,28.16.35,11.17-4.49,24.63-5.07,35.79-.89,17.22,4.65,30.94,6.57,47.94.17,1.46.06,3,.16,4.48.39,5.26,1.42,10.51,1.62,15.75.18,4.6.79,9.17,1.21,13.74a59.25,59.25,0,0,0,1.23,9c.75,3,1.54,6.16,2.57,9.19"/><path class="cls-5" d="M394.19,740.76a10.28,10.28,0,0,1-1.24,0c-.57-.09-.46-.07-1.14-1.11a6.9,6.9,0,0,1-.85-2.22c-2.43,5.72-4.94,11.41-7.37,17.13s-5,11.2-6.75,17.09c-1.07,3.72-1.52,5.41-2.46,9.17,0-.06.56.28.59.22a30.32,30.32,0,0,1,3.26-6.2,60.09,60.09,0,0,0,3.42-6.92C382.73,765.64,394.35,740.82,394.19,740.76Z"/><path class="cls-5" d="M357.76,684.52a7.82,7.82,0,0,1-.94-1,3.8,3.8,0,0,1-.64-1.29,3.55,3.55,0,0,1-.09-.72,40.84,40.84,0,0,0-13.69,6.83,46.44,46.44,0,0,0-6.79,6c.05,1.11.1,2.22.14,3.33.06.57.12,1.14.19,1.72a.5.5,0,0,0,0,.12.22.22,0,0,1,0,.08c.05.49.12,1,.18,1.46a16,16,0,0,1,3.4-4.69,45.3,45.3,0,0,1,5.6-4.85,36.11,36.11,0,0,1,13.44-6.36A10.56,10.56,0,0,1,357.76,684.52Z"/><path class="cls-3" d="M366.09,997.08c1.49.59,3,1.09,4.5,1.54,1.74,0,3.48,0,5.21,0q0-1-.09-2.07a67.85,67.85,0,0,0-2.28-13.87,16.49,16.49,0,0,0-2.35-4.91c-3.42-5.45-2.36-12-1.71-18,.45-4.15.73-8.33,1.13-12.49,1.08-11.11,2.19-22.23,3.17-33.35,1-10.9,2.19-21.93,2.09-32.88l-29.22-21.48c2.86,19.74,8.88,90.7,13.62,136C362.13,996,364.11,996.46,366.09,997.08Z"/><path class="cls-6" d="M407.25,743.58c3.18-2.46,14.25-17.16,15.84-20.69,6-13.29,9-28.56,1.83-42a20.63,20.63,0,0,1-2.55-5.82c-.57-3.09.88-6.73,1.35-9.8q.93-6.15,1.31-12.36c.7-11.3-.9-22.46-.53-33.74q.72-21.69.35-43.4c-.23-13.8-.93-29-8.64-41l-2.36-1.13c-.27,1.31,0,2.74-.2,4.08-.21,1.57.24,3.09.06,4.68a141.49,141.49,0,0,1-4.57,23.26c-2.23,7.57-4.8,16-10.65,21.55a17.47,17.47,0,0,1-2.64,1.83c-3.3,2.1-5.64,4.74-9.47,6.22-10.83,4.2-23.12.77-31.57-6.77a65.23,65.23,0,0,1-9.65-11.19c-1.72-2.43-4.38-27.14-6.07-29.86,0,1.6-3.9,5.77-3.85,7.39-3,6.14,2,22.88,2.78,26.38,6.85,30.1,21.05,57.74,19.36,89.58-.11,2.13-1.29,10.75-1.46,11.53a22.55,22.55,0,0,0,2.66,2.88s4.89,1,7.07,3.73q4.2,5.3,8,10.91a141.13,141.13,0,0,1,13,23.64c1.36,3.18,2.59,6.43,3.68,9.72.42,1.25,0,6.64,0,6.64a16.56,16.56,0,0,0,3.84.92C403,740.11,404.69,742.54,407.25,743.58Z"/><path class="cls-1" d="M421.77,535.3c-1.78-23.38-8.49-34.38-11.36-58.11-2.51-20.79-7-34.77-16.29-53.52a4.14,4.14,0,0,1-.51-1.48,4.84,4.84,0,0,1,.28-1.59c1.89-6.67-2.14-20.21-3.22-26.85-1.25-7.59-4.24-27.62-5.72-35.17-.53-2.71-1-5.42-1.43-8.16-.28-2-.26-3.95-.48-5.93-1.35-12.05-1.71-24.17-2-36.27-.27-11.55-.56-22.68,1.22-34.08A152.15,152.15,0,0,0,384,250.86c0-7.54-1.86-14.47-2.58-21.93-.28-2.9-.25-5.82-.54-8.72-.5-5-1.33-12.87-3.71-17.26-.73-1.34-1.27-2.91-2.12-4.17a33.92,33.92,0,0,0-3.19-3.48c-1-1.11-2.09-2.38-3.67-2.27a6.81,6.81,0,0,0-3.15,1.34c-1.34.88-1.42,2.15-1.64,3.86-.4,3.17-.63,6.37-.79,9.57a19.63,19.63,0,0,1-.33,2.32c-1.11,6.43-1.65,12.88-3.27,19.26a22.58,22.58,0,0,1-1.65,4.81,21.93,21.93,0,0,1-3.88,5c-3.57,3.79-7.81,7.28-10.93,11.51a12.24,12.24,0,0,0-2.35,4.91c-.42,1.91.61,3.57,1.62,5.08a31.86,31.86,0,0,0,6.4,7.16,22.53,22.53,0,0,1,8.56,18.53c-.41,14.86-4,28.43-7.39,42.62-1.75,7.31-3.94,14.33-4.32,21.89-.85,16.89.59,33.73,3.22,50.41.45,2.87.86,5.82,1.53,8.65.12.51.73,2.14,1.58,4.38l0,.26c-2,22-7.21,43.63-10,65.53q-2.88,22.54-4.54,45.27c-.95,13-3.36,27,.58,39.83,3.74,12.27,11.56,23,21.49,29.61,6.28,4.15,13.48,6.66,20.57,6.17,9.79-.69,31-10,37.25-18.32C430.64,564.06,423.12,553.1,421.77,535.3Z"/><g class="cls-7"><path class="cls-1" d="M389.66,996.3c-5.6,1.91-11.33,2.14-17.09,2,.1,7.5,0,15.06.64,22.46l.18,2.48c.08,1,.15,2,.23,3.08,0,.51.07,1,.11,1.52a2.14,2.14,0,0,1,0,.62,4.26,4.26,0,0,0,.08,1.07l.13.66a1.46,1.46,0,0,0,.2.46c.09.11.22.34.31.43s.49.12.74.09c.64-.06.75-.46.87-.94a7.06,7.06,0,0,1-.09,1.29,12.17,12.17,0,0,0,.12,3,5.24,5.24,0,0,0,.71,2.5,1.35,1.35,0,0,0,1.13.61,1.27,1.27,0,0,0,1-.51,1.32,1.32,0,0,0,.33-1.2c0-.51.06-1,0-1.51,0,0,0,0,0-.06-1-1.07.26.23.46.25.36,0,.68-.31.95-.51a1.17,1.17,0,0,1,.57-.25,1.13,1.13,0,0,0,.72-.6,10.29,10.29,0,0,0,.67-3c.15-1.06.52-2.1.63-3.16.05-.39.08-.78.14-1.17s0-.52,0-.79c.09-.73.07-1.44.11-2.16a16.84,16.84,0,0,0,.08-2.24c0-.69,0-1.36-.05-2.05s.08-1.27.08-1.9a15.33,15.33,0,0,1,.25-2c.07-.38.12-.75.21-1.13a4.36,4.36,0,0,0,0-1.3,18.23,18.23,0,0,1,0-2.56,33.05,33.05,0,0,1,.13-3.45c.29-1.77.52-3.54.78-5.29,0-.2.09-.41.13-.6a2.77,2.77,0,0,1,.12-.6c.2,0,.27.11.42.18s.32.11.47.18a3.13,3.13,0,0,0,.72.27,4,4,0,0,0,1.62,0,3.53,3.53,0,0,0,.75-.38,1.44,1.44,0,0,0,.49-.39c.08-.12.11-.27.2-.4a6.11,6.11,0,0,0,1.26-2.16,4.28,4.28,0,0,0,0-1.38C390.66,995.93,390.16,996.13,389.66,996.3Z"/><path class="cls-1" d="M389.71,996.28l0,0a33.74,33.74,0,0,1-4.54,1.19,12.71,12.71,0,0,0,1.21,2.38,2.09,2.09,0,0,0,.91.88,2,2,0,0,0,1.34-.12,2.71,2.71,0,0,0,1.7-1.35,3.28,3.28,0,0,0-.33-2.43Z"/><path class="cls-1" d="M377.26,1010.89c.33,0,.66-.08,1-.08a.62.62,0,0,1,.37.13,2.7,2.7,0,0,1,.25.4"/><path class="cls-1" d="M378.44,1012.69l-.63,0c-.16,0-.3,0-.47,0"/><path class="cls-1" d="M378.59,1013.25l-.62,0-.31,0c-.12,0-.21,0-.33,0"/><path class="cls-1" d="M379.1,1014.48a1.47,1.47,0,0,0-.42.06c-.17.07-.33.19-.5.27a3.15,3.15,0,0,1-.44.11,2.12,2.12,0,0,1-.44.06"/><path class="cls-1" d="M376,1014.76c-.22,0-.4.13-.61.15l-.25,0c-.1,0-.25,0-.34,0"/><path class="cls-1" d="M374.59,1013.87c.19,0,.35,0,.53,0l.52,0"/><path class="cls-1" d="M374.66,1013.39l.68,0"/><path class="cls-1" d="M374.77,1012l.86-.06a1.84,1.84,0,0,1,.77.1"/><path class="cls-1" d="M378.67,1033.68c-.69-4.6-1.49-16.29-1.74-20.93-.24-4.35.58-8.36-1.53-12.24"/><path class="cls-1" d="M376,1026.65c-.66-7.14-1.33-14.2-1.86-21.35"/><path class="cls-1" d="M380.21,1034.47c2.56-.9,1.56-3.8,1.34-4.72-.39-1.57-.48-1.53-2-1.7-.25,0-1.26.34-1.51.36"/><path class="cls-1" d="M376.06,1031.89a4.22,4.22,0,0,1,1.15.1c.19.14.41.25.59.39a2.29,2.29,0,0,1,.7.79,5.73,5.73,0,0,1,.29,2.27,2.91,2.91,0,0,1-1.26,2.53c-.29.16-1,.08-1.39-1.46Z"/><path class="cls-1" d="M373.55,1025.37s.6.1.65.11a4.41,4.41,0,0,1,1.16.6,1.62,1.62,0,0,1,.73.8,2.28,2.28,0,0,1,0,.94c-.09,1.2.09,2.64-.89,3.53a1.14,1.14,0,0,1-.47.28c-.76.17-1.13-1-1.26-1.5C373.51,1030.13,373.55,1025.41,373.55,1025.37Z"/><path class="cls-3" d="M375.8,997.34c-4.41,0-9.24-.77-13.66-.82a19.45,19.45,0,0,1-2.18-.15c1.52,14.46,3.37,27.67,4.46,34l1,5.84.27,1.6a2,2,0,0,1,0,.65,5.34,5.34,0,0,0,.19,1.13l.21.68a1.66,1.66,0,0,0,.26.47,5.11,5.11,0,0,0,.38.41c.23.18.53.08.79,0,.67-.14.72-.66.81-1.18a5.1,5.1,0,0,1,.05,1.46,13.67,13.67,0,0,0,.43,3.17,5.7,5.7,0,0,0,1,2.58,1.42,1.42,0,0,0,1.26.52,1.32,1.32,0,0,0,1-.64c.33-.45.66-.83.56-1.35s-.35-.78-.48-1.56a.86.86,0,0,0,.49.16c.38,0,.68-.4.95-.63a1.22,1.22,0,0,1,.58-.33,1.22,1.22,0,0,0,.7-.71,10.77,10.77,0,0,0,.38-3.3c.05-1.13.34-2.27.35-3.41,0-.41,0-.83,0-1.24s0-.56,0-.85c0-.77-.08-1.52-.11-2.29a21,21,0,0,0-.15-2.38c-.07-.46-.1-.91-.15-1.36.89-1,1.43-.72,2-1.87a24.68,24.68,0,0,0,.35-2.46,3.93,3.93,0,0,0,.09-.84,57.77,57.77,0,0,0-1.07-11.43C376,1006.91,376,1001.66,375.8,997.34Z"/><path class="cls-3" d="M368.16,1020.09c.35-.06.7-.15,1-.18a.65.65,0,0,1,.4.1,2.46,2.46,0,0,1,.3.4"/><path class="cls-3" d="M369.38,1021.1l-.66.12c-.17,0-.32,0-.5,0"/><path class="cls-3" d="M369.65,1021.69l-.64.11-.33.06c-.13,0-.23,0-.35,0"/><path class="cls-3" d="M370.4,1022.51a1.36,1.36,0,0,0-.44.11c-.17.09-.33.23-.5.33a2.41,2.41,0,0,1-.45.16,2.31,2.31,0,0,1-.47.11"/><path class="cls-3" d="M366.68,1023.59c-.23,0-.41.18-.63.22l-.26,0c-.11,0-.27,0-.36,0"/><path class="cls-3" d="M365.13,1022.78c.19,0,.37,0,.56,0l.55-.09"/><path class="cls-3" d="M365.15,1022.27l.72-.12"/><path class="cls-3" d="M365.12,1020.75l.9-.15a1.88,1.88,0,0,1,.82,0"/><path class="cls-3" d="M368.39,1040.08c-.24-1.38-1.29-7.15-1.53-8.53l-.36-2.09-.18-1c-.06-.38-.21-.73-.29-1.11-.21-1-.53-2-.7-3-.08-.41-.14-.83-.22-1.24-.13-.73-.14-1.47-.21-2.22,0-.55-.08-1.08-.17-1.63s-.17-1-.26-1.47c-.35-2-.69-4-1-6a17,17,0,0,0-.75-2.59,17,17,0,0,1-.88-2.48"/><path class="cls-3" d="M371,1038.7a2.47,2.47,0,0,1,1.59.35,2.37,2.37,0,0,1,1,1.37,5.35,5.35,0,0,1-.06,3,2,2,0,0,1-.86.92.31.31,0,0,1-.43-.24,223.73,223.73,0,0,1-4.07-23.1c-.22-1.25-.12-2.55-.28-3.81a1.92,1.92,0,0,1,0-.58c0-.25-.78-5.06-.81-5.32"/><path class="cls-3" d="M375.46,1027.51c-.13,0-.31-.06-.43-.1a.89.89,0,0,1-.43-.34,3.88,3.88,0,0,1-.55-1.83c-.21-1.21-.41-2.43-.63-3.64-.06-.34-.05-.67-.09-1s-.09-.5-.14-.75c-.07-.42-.15-.85-.22-1.28-.2-1.13-.37-2.27-.59-3.4-.17-.92-.56-1.8-.79-2.71-.08-.35-.1-.72-.18-1.08a6.56,6.56,0,0,0-.44-1.19c-.15-.37-.32-.75-.44-1.13s-.08-.74-.19-1.08-.2-.39-.25-.59a2.85,2.85,0,0,1-.06-.39c0-.22-.14-.4-.19-.61s0-.25-.12-.32a.72.72,0,0,0,0,.32s-.06,0-.08,0"/><path class="cls-3" d="M372.35,1015c.15-.13,1.62-1,1.67-.76"/><path class="cls-3" d="M372.87,1015.27c.32-.1.65-.19,1-.32"/><path class="cls-3" d="M372.89,1016.29c.19.11.67-.19.82-.26l.54-.25a.68.68,0,0,0,.32-.18"/><path class="cls-3" d="M368.5,1042.29c.19,0,.79-.13.94,0s.36.18.53.29a2.17,2.17,0,0,1,.81.88,10.83,10.83,0,0,1,.42,1.7,3.43,3.43,0,0,1,.11.46,2.43,2.43,0,0,1,0,.27,6.7,6.7,0,0,1-.1,1.43c-.1.32-.31.27-.57.5s-.8.2-1.34-1.2Z"/><path class="cls-3" d="M365.58,1037.46a4.3,4.3,0,0,1,.92-.08c.17.07.35.11.51.18a1.5,1.5,0,0,1,.74.59,5.58,5.58,0,0,1,.3,1.22,1.24,1.24,0,0,1,.09.33,1.5,1.5,0,0,1,0,.2,3.74,3.74,0,0,1-.19,1c-.12.24-.32.22-.6.4s-.79.2-1.24-.79Z"/><path class="cls-3" d="M373.78,1023.53a3.82,3.82,0,0,1,.92-.09c.17.07.35.11.51.18a1.63,1.63,0,0,1,.75.59,6.37,6.37,0,0,1,.29,1.22,1.35,1.35,0,0,1,.09.33,1.49,1.49,0,0,1,0,.21,3.67,3.67,0,0,1-.19,1c-.12.25-.32.22-.59.41s-.8.19-1.25-.79Z"/></g><path d="M127.67,678.73a68.37,68.37,0,0,0,25.22,22.81,81.79,81.79,0,0,0,30,8.72,88.41,88.41,0,0,0,16.43.06c1.91-.17,1.93-3.17,0-3-19.82,1.76-40.89-3.08-56.41-16a65,65,0,0,1-12.69-14.16c-1.06-1.6-3.66-.1-2.59,1.52Z"/><path d="M186.2,702.73c4.44,2.16,8.64,4.75,12.89,7.23l-.3-2.35c-1.75,1.78-3.41,3.63-5.13,5.43s-3.26,3.28-4.85,5c-1.33,1.41.79,3.53,2.12,2.12,1.59-1.68,3.25-3.28,4.85-5s3.38-3.66,5.13-5.44a1.52,1.52,0,0,0-.3-2.36c-4.26-2.48-8.46-5.07-12.89-7.23-1.73-.85-3.25,1.74-1.52,2.59Z"/><path d="M53.76,583.75c3.48,0,5.48,1.31,5.48,4.27a4,4,0,0,1-2.34,3.87A4,4,0,0,1,59.71,596c0,3-1.9,5-5.87,5H47V583.75Zm-3.69,7h3.52c1.58,0,2.57-.76,2.57-2.31s-.87-2.08-2.45-2.08H50.07Zm0,7.67h3.79c1.68,0,2.72-.79,2.76-2.46s-1.18-2.54-3-2.54H50.07Z"/><path d="M67.87,588c3.23,0,6,2.19,6,6.6,0,3.63-2.14,6.59-6.16,6.59-4.37,0-6.17-3-6.17-6.59C61.58,590.16,64.37,588,67.87,588Zm-3.08,6.6c0,2,.69,4,3,4,2.09,0,3-2,3-4,0-2.86-1.4-4-3-4S64.79,591.66,64.79,594.57Z"/><path d="M88.71,582.17V601H86.15l-.35-2.22a4.51,4.51,0,0,1-4.12,2.37c-3.47.05-5.54-2.84-5.54-6.64,0-4.63,3-6.55,5.52-6.55a4.09,4.09,0,0,1,4,2.44v-7.84ZM79.29,594.5c0,2.19.87,3.92,3.16,3.92s3.25-1.73,3.25-3.9c0-2.93-1.57-4-3.28-4S79.29,591.66,79.29,594.5Z"/><path d="M94,588.09l3.18,9.12h.2l2.91-9.12h3.16L98.7,601.21c-1.58,4.31-3.06,5.4-7.62,4.44l.55-2.59c2.91.71,3.3.05,4.21-2.49L91,588.09Z"/><path d="M111.18,597.31a6.73,6.73,0,0,0,4.2,1.43c1.47,0,2.34-.44,2.34-1.5,0-2.52-7.47-.84-7.23-5.58.1-2.31,1.8-3.69,5.23-3.69a10.55,10.55,0,0,1,4.66,1.2l-1.08,2.17a7.41,7.41,0,0,0-3.7-1.06c-1.21,0-2.22.4-2.17,1.41.15,2,7.32.47,7.32,5.45,0,2.66-2.39,4-5.45,4a8.86,8.86,0,0,1-5.3-1.68Z"/><path d="M126.3,582.17v8a4.82,4.82,0,0,1,4.24-2.19c3,0,4.49,1.94,4.49,4.61V601H132v-7.45c0-2-.74-3-2.41-3-2.35,0-3.26,1.9-3.26,4V601h-3.06V582.54Z"/><path d="M143.91,588c3.23,0,6,2.19,6,6.6,0,3.63-2.14,6.59-6.16,6.59-4.37,0-6.17-3-6.17-6.59C137.62,590.16,140.41,588,143.91,588Zm-3.08,6.6c0,2,.69,4,3,4,2.09,0,3-2,3-4,0-2.86-1.41-4-3-4S140.83,591.66,140.83,594.57Z"/><path d="M155.55,588.09v7.45c0,2,.79,3,2.59,3,2.35,0,3.31-2.42,3.31-4.86v-5.62h3.05V601h-2.44l-.44-2.81a4.71,4.71,0,0,1-4.46,3c-3.16,0-4.66-1.95-4.66-5.2v-7.87Z"/><path d="M170.72,582.17v14.62c0,1.38.62,1.75,1.53,1.75a2.43,2.43,0,0,0,1.28-.46l.57,2.19a5.35,5.35,0,0,1-2.79.89c-2.56,0-3.65-1.73-3.65-4.07V582.54Z"/><path d="M187.17,582.17V601h-2.56l-.35-2.22a4.52,4.52,0,0,1-4.12,2.37c-3.47.05-5.55-2.84-5.55-6.64,0-4.63,3-6.55,5.53-6.55a4.1,4.1,0,0,1,4,2.44v-7.84Zm-9.42,12.33c0,2.19.86,3.92,3.16,3.92s3.25-1.73,3.25-3.9c0-2.93-1.58-4-3.28-4S177.75,591.66,177.75,594.5Z"/><path d="M49.87,616.08v8.22a4.4,4.4,0,0,1,4.31-2.42c2.44.07,5.06,1.73,5.06,6.48,0,3.9-2,6.71-5.45,6.71a4.28,4.28,0,0,1-4.07-2.37l-.42,2.22H46.81V616.48Zm-.12,12.36c0,2.22.81,4,3.25,4,2,0,3.11-1.5,3.11-4,0-3-1.51-3.95-3.13-3.95C51.2,624.44,49.75,625.85,49.75,628.44Z"/><path d="M73.27,631.37a5.76,5.76,0,0,1-5.57,3.7c-4.34,0-6.26-2.71-6.26-6.76s2.71-6.53,6.43-6.43c3,.07,5.75,2.34,5.45,6.46l0,.39H64.54c0,2.2.94,3.7,3.18,3.7a2.87,2.87,0,0,0,2.79-2Zm-3.13-4.21c0-2-1-2.94-2.54-2.89a2.88,2.88,0,0,0-2.91,2.89Z"/><path d="M87.26,631.3c-.84,2.64-3,3.77-5.62,3.77-4.25,0-6.07-3.15-6.07-6.61,0-4.21,2.61-6.51,6.14-6.58,3.11-.07,5,1.53,5.5,3.8l-2.84.91a2.54,2.54,0,0,0-2.61-2.12c-1.78,0-3.13,1.31-3.13,3.94,0,2.1.79,4,3.08,4a2.6,2.6,0,0,0,2.71-2Z"/><path d="M95.55,621.88c3.23,0,6,2.19,6,6.61,0,3.62-2.15,6.58-6.17,6.58-4.36,0-6.16-3-6.16-6.58C89.26,624.07,92,621.88,95.55,621.88Zm-3.09,6.61c0,2,.69,4,3,4,2.1,0,3-2,3-4,0-2.86-1.4-4-3-4C93.84,624.47,92.46,625.58,92.46,628.49Z"/><path d="M106.74,622l.45,2.3a4.33,4.33,0,0,1,4-2.45,3.77,3.77,0,0,1,3.85,2.4,4.55,4.55,0,0,1,4.17-2.4c3,0,4.21,2,4.21,4.64v8.43h-3v-7.44c0-2-.47-3-2.15-3-2.22,0-2.81,1.68-2.81,3.58v6.9h-3.06v-7.44c0-2-.47-3-2.14-3-2.37,0-2.84,1.9-2.84,4v6.51H104.3V622Z"/><path d="M137.87,631.37a5.77,5.77,0,0,1-5.58,3.7c-4.33,0-6.26-2.71-6.26-6.76s2.71-6.53,6.44-6.43c3,.07,5.74,2.34,5.45,6.46l0,.39h-8.73c0,2.2.94,3.7,3.18,3.7a2.89,2.89,0,0,0,2.79-2Zm-3.13-4.21c0-2-1-2.94-2.54-2.89a2.87,2.87,0,0,0-2.91,2.89Z"/><path d="M147.81,622l3.11,9.37h.19L154.2,622h3.13l-4.81,12.92h-3.08L144.75,622Z"/><path d="M170.15,631.37a5.76,5.76,0,0,1-5.57,3.7c-4.34,0-6.26-2.71-6.26-6.76s2.71-6.53,6.43-6.43c3,.07,5.75,2.34,5.45,6.46l0,.39h-8.73c0,2.2.94,3.7,3.18,3.7a2.87,2.87,0,0,0,2.79-2ZM167,627.16c0-2-1-2.94-2.54-2.89a2.88,2.88,0,0,0-2.91,2.89Z"/><path d="M175.31,622l.57,2.67c.59-2,2.09-2.84,4.19-2.79a4.85,4.85,0,0,1,1.33.22l-.47,2.69a5.48,5.48,0,0,0-1.85-.25c-2.27.08-3.13,1.83-3.13,3.9v6.48h-3.06V622Z"/><path d="M187.89,618.35v3.78h3.25l-.42,2.46h-2.83v5.92c0,1.41.64,2,1.67,2a5.43,5.43,0,0,0,1.95-.57l.57,2.34a7.94,7.94,0,0,1-3.28.84c-3,0-4-2-4-4.14v-6.34H183v-2.46H185l.37-3.43Z"/><path d="M198.05,622v12.92H195V624.54h-1.8V622Zm-1.55-5a1.65,1.65,0,0,1,1.82,1.56,1.82,1.82,0,0,1-3.62,0A1.59,1.59,0,0,1,196.5,617Z"/><path d="M212.45,631.3c-.84,2.64-3,3.77-5.62,3.77-4.24,0-6.07-3.15-6.07-6.61,0-4.21,2.62-6.51,6.14-6.58,3.11-.07,5,1.53,5.5,3.8l-2.83.91a2.55,2.55,0,0,0-2.62-2.12c-1.77,0-3.13,1.31-3.13,3.94,0,2.1.79,4,3.08,4a2.61,2.61,0,0,0,2.72-2Z"/><path d="M215.12,622.82a15.36,15.36,0,0,1,4.88-.94c3.9,0,5.33,1.92,5.33,4.93V632a.65.65,0,0,0,.61.74,2.41,2.41,0,0,0,1-.15v2a5,5,0,0,1-2,.39,2.34,2.34,0,0,1-2.35-1.75,5.62,5.62,0,0,1-3.89,1.75c-2.52,0-4.39-1.28-4.42-4s2-4.09,5.26-4.09a19.84,19.84,0,0,1,2.78.25v-.77c0-1.4-.88-2.17-2.66-2.14a10.5,10.5,0,0,0-4,.78Zm7.15,6a13.07,13.07,0,0,0-2.52-.15c-1.48.07-2.41.76-2.44,2.07a1.81,1.81,0,0,0,2.1,1.9,5.09,5.09,0,0,0,2.86-1Z"/><path d="M232.14,616.08v14.63c0,1.38.61,1.75,1.52,1.75A2.46,2.46,0,0,0,235,632l.56,2.19a5.22,5.22,0,0,1-2.78.89c-2.57,0-3.65-1.72-3.65-4.07V616.45Z"/><path class="cls-8" d="M148.79,61.4a36.73,36.73,0,0,1,8.33-23.32,34.4,34.4,0,0,0-45.48-4.38A34.43,34.43,0,0,0,131.9,96a34.33,34.33,0,0,0,25.32-11.11A36.76,36.76,0,0,1,148.79,61.4ZM138,75.49s-3.7-.27-11.47-.27a25.63,25.63,0,0,0-4.93.31l-1.35-2.46c7.78-7.9,12.4-13.63,13-18.71.47-3.66-2-4.82-4.35-4.66a9.73,9.73,0,0,0-6.73,3.92c-.2-.23-1.93-2.07-1.47-2.65A12.43,12.43,0,0,1,130,46.12c5.89,0,9.09,3,8.74,8.51-.46,7-8,13.59-12.63,17.55l8.32-.08c1.77-.15,3-2.54,3.81-4.73,0,0,1.73.5,2,1C139.58,71.53,138.81,75.49,138,75.49Z"/><path class="cls-8" d="M95.79,61.4A36.74,36.74,0,0,1,104.16,38a34.44,34.44,0,1,0,.11,46.9A36.78,36.78,0,0,1,95.79,61.4ZM87.2,75.66H70.92L71,73.39l4.46-.58c.58,0,.81-.23.81-1,.08-10.05,0-19.6,0-19.6l-5.62,1.08c-.19-.31-1.12-2.46-.46-2.73l10.35-4,1,1s-.12,20.87,0,24.37c0,.77.19,1,.73,1l5.08.54Z"/><path class="cls-8" d="M201.79,61.4A36.74,36.74,0,0,1,210.16,38a34.43,34.43,0,0,0-47.76-2.48A34.8,34.8,0,0,0,172,93.43a34.41,34.41,0,0,0,38.24-8.51A36.78,36.78,0,0,1,201.79,61.4ZM181.35,75.49a15.64,15.64,0,0,1-7.86-2.19l1-2.89a21.48,21.48,0,0,0,7,1.66c3.35,0,5.51-1.74,5.55-5.24,0-2.46-1.43-4.35-4.47-4.74a17.82,17.82,0,0,0-5,.24c-.5.11-.89-3-.42-3.08,3-.54,7.62-1.08,8.39-4.89.73-3.62-2-4.82-4.35-4.66A8.43,8.43,0,0,0,175,52.82c-.2-.23-1.7-2.12-1-3a10.43,10.43,0,0,1,8.16-3.69c5.89,0,9.12,3,8.74,8.51a6,6,0,0,1-4,4.5c3.47.62,5.47,2.93,5.66,6.7C192.9,71.83,188,75.49,181.35,75.49Z"/><circle cx="236" cy="61.53" r="34.44"/><text class="cls-9" transform="translate(224.45 75.26)">4</text><path d="M296.49,50.34l-.27,3.12h-5.55V71.34h-3.75V53.46h-5.76V50.34Z"/><path d="M302.64,48.42v9.72a5.86,5.86,0,0,1,5.16-2.67c3.69,0,5.46,2.37,5.46,5.61V71.34h-3.72V62.28c0-2.4-.9-3.69-2.94-3.69-2.85,0-4,2.31-4,4.83v7.92h-3.72V48.87Z"/><path d="M330.78,67a7,7,0,0,1-6.78,4.5c-5.28,0-7.62-3.3-7.62-8.22s3.3-7.95,7.83-7.83c3.69.09,7,2.85,6.63,7.86l-.06.48H320.16c0,2.67,1.14,4.5,3.87,4.5a3.5,3.5,0,0,0,3.39-2.49ZM327,61.89c.06-2.43-1.26-3.57-3.09-3.51a3.5,3.5,0,0,0-3.54,3.51Z"/><path d="M343.32,55.62l.57,2.79a5.8,5.8,0,0,1,5.37-2.94c3.69,0,5.46,2.37,5.46,5.61V71.34H351V62.28c0-2.4-.9-3.69-2.94-3.69-2.85,0-4,2.31-4,4.83v7.92h-3.72V55.62Z"/><path d="M372.3,67a7,7,0,0,1-6.78,4.5c-5.28,0-7.62-3.3-7.62-8.22s3.3-7.95,7.83-7.83c3.69.09,7,2.85,6.63,7.86l-.06.48H361.68c0,2.67,1.14,4.5,3.87,4.5a3.5,3.5,0,0,0,3.39-2.49Zm-3.81-5.13c.06-2.43-1.26-3.57-3.09-3.51a3.5,3.5,0,0,0-3.54,3.51Z"/><path d="M378.39,55.62l3.15,6.18,3.3-6.18h4l-4.35,7.8L389,71.34h-4.26l-3.3-6.12L378,71.34h-4.14l4.83-7.86-4.29-7.86Z"/><path d="M396.81,51.18v4.59h4l-.51,3h-3.45V66c0,1.71.78,2.37,2,2.37a6.83,6.83,0,0,0,2.37-.69l.69,2.85a9.82,9.82,0,0,1-4,1c-3.69,0-4.83-2.46-4.83-5V58.77H390.9v-3h2.37l.45-4.17Z"/><path d="M424.35,67a7,7,0,0,1-6.78,4.5c-5.28,0-7.62-3.3-7.62-8.22s3.3-7.95,7.83-7.83c3.69.09,7,2.85,6.63,7.86l-.06.48H413.73c0,2.67,1.14,4.5,3.87,4.5A3.5,3.5,0,0,0,421,65.82Zm-3.81-5.13c.06-2.43-1.26-3.57-3.09-3.51a3.5,3.5,0,0,0-3.54,3.51Z"/><path d="M431.4,48.42V66.21c0,1.68.75,2.13,1.86,2.13a2.93,2.93,0,0,0,1.56-.57l.69,2.67a6.47,6.47,0,0,1-3.39,1.08c-3.12,0-4.44-2.1-4.44-5V48.87Z"/><path d="M450.69,67a7,7,0,0,1-6.78,4.5c-5.28,0-7.62-3.3-7.62-8.22s3.3-7.95,7.83-7.83c3.69.09,7,2.85,6.63,7.86l-.06.48H440.07c0,2.67,1.14,4.5,3.87,4.5a3.5,3.5,0,0,0,3.39-2.49Zm-3.81-5.13c.06-2.43-1.26-3.57-3.09-3.51a3.5,3.5,0,0,0-3.54,3.51Z"/><path d="M457,55.62l.54,2.79a5.25,5.25,0,0,1,4.86-3,4.58,4.58,0,0,1,4.68,2.91,5.53,5.53,0,0,1,5.07-2.91c3.69,0,5.13,2.4,5.13,5.64V71.34h-3.72V62.28c0-2.4-.57-3.69-2.61-3.69-2.7,0-3.42,2-3.42,4.35v8.4H463.8V62.28c0-2.4-.57-3.69-2.61-3.69-2.88,0-3.45,2.31-3.45,4.83v7.92H454V55.62Z"/><path d="M494.85,67a7,7,0,0,1-6.78,4.5c-5.28,0-7.62-3.3-7.62-8.22s3.3-7.95,7.83-7.83c3.69.09,7,2.85,6.63,7.86l-.06.48H484.23c0,2.67,1.14,4.5,3.87,4.5a3.5,3.5,0,0,0,3.39-2.49ZM491,61.89c.06-2.43-1.26-3.57-3.09-3.51a3.5,3.5,0,0,0-3.54,3.51Z"/><path d="M501.12,55.62l.57,2.79a5.8,5.8,0,0,1,5.37-2.94c3.69,0,5.46,2.37,5.46,5.61V71.34H508.8V62.28c0-2.4-.9-3.69-2.94-3.69-2.85,0-4,2.31-4,4.83v7.92h-3.72V55.62Z"/><path d="M521.13,51.18v4.59h4l-.51,3h-3.45V66c0,1.71.78,2.37,2,2.37a6.83,6.83,0,0,0,2.37-.69l.69,2.85a9.82,9.82,0,0,1-4,1c-3.69,0-4.83-2.46-4.83-5V58.77h-2.19v-3h2.37L518,51.6Z"/><path d="M539.76,55.62V71.34H536V58.71h-2.19V55.62Zm-1.89-6.12a2,2,0,0,1,2.22,1.89,2.22,2.22,0,0,1-4.41,0A1.93,1.93,0,0,1,537.87,49.5Z"/><path d="M544,66.84a8.15,8.15,0,0,0,5.1,1.74c1.8,0,2.85-.54,2.85-1.83,0-3.06-9.09-1-8.79-6.78.12-2.82,2.19-4.5,6.36-4.5a12.78,12.78,0,0,1,5.67,1.47l-1.32,2.64a8.9,8.9,0,0,0-4.5-1.29c-1.47,0-2.7.48-2.64,1.71.18,2.49,8.91.57,8.91,6.63,0,3.24-2.91,4.92-6.63,4.89a10.76,10.76,0,0,1-6.45-2Z"/><path d="M569.79,51.18v4.59h4l-.51,3h-3.45V66c0,1.71.78,2.37,2,2.37a6.83,6.83,0,0,0,2.37-.69l.69,2.85a9.82,9.82,0,0,1-4,1c-3.69,0-4.83-2.46-4.83-5V58.77h-2.19v-3h2.37l.45-4.17Z"/><path d="M581,48.42v9.72a5.86,5.86,0,0,1,5.16-2.67c3.69,0,5.46,2.37,5.46,5.61V71.34h-3.72V62.28c0-2.4-.9-3.69-2.94-3.69-2.85,0-4,2.31-4,4.83v7.92h-3.72V48.87Z"/><path d="M609.12,67a7,7,0,0,1-6.78,4.5c-5.28,0-7.62-3.3-7.62-8.22s3.3-7.95,7.83-7.83c3.69.09,7,2.85,6.63,7.86l-.06.48H598.5c0,2.67,1.14,4.5,3.87,4.5a3.5,3.5,0,0,0,3.39-2.49Zm-3.81-5.13c.06-2.43-1.26-3.57-3.09-3.51a3.5,3.5,0,0,0-3.54,3.51Z"/><path d="M632.52,67a7,7,0,0,1-6.78,4.5c-5.28,0-7.62-3.3-7.62-8.22s3.3-7.95,7.83-7.83c3.69.09,7,2.85,6.63,7.86l-.06.48H621.9c0,2.67,1.14,4.5,3.87,4.5a3.5,3.5,0,0,0,3.39-2.49Zm-3.81-5.13c.06-2.43-1.26-3.57-3.09-3.51a3.5,3.5,0,0,0-3.54,3.51Z"/><path d="M638.79,55.62l.57,2.79a5.8,5.8,0,0,1,5.37-2.94c3.69,0,5.46,2.37,5.46,5.61V71.34h-3.72V62.28c0-2.4-.9-3.69-2.94-3.69-2.85,0-4,2.31-4,4.83v7.92h-3.72V55.62Z"/><path d="M658.8,51.18v4.59h4l-.51,3H658.8V66c0,1.71.78,2.37,2,2.37a6.83,6.83,0,0,0,2.37-.69l.69,2.85a9.82,9.82,0,0,1-4,1c-3.69,0-4.83-2.46-4.83-5V58.77h-2.19v-3h2.37l.45-4.17Z"/><path d="M669,55.62l.69,3.24c.72-2.4,2.55-3.45,5.1-3.39a6.19,6.19,0,0,1,1.62.27L675.84,59a6.48,6.48,0,0,0-2.25-.3c-2.76.09-3.81,2.22-3.81,4.74v7.89h-3.72V55.62Z"/><path d="M682.32,55.62l3.87,11.1h.24L690,55.62h3.84l-5.82,16c-1.92,5.25-3.72,6.57-9.27,5.4l.66-3.15c3.54.87,4,.06,5.13-3L678.6,55.62Z"/><path class="cls-10" d="M419,1005.26c3-1.15,5.91-2.29,8.78-3.51a72.29,72.29,0,0,0,8.28-4.07,27.65,27.65,0,0,0,3.65-2.51,11.71,11.71,0,0,0,2.69-3,6.82,6.82,0,0,0,.67-1.6,8.41,8.41,0,0,0,.3-1.67,12,12,0,0,0,0-2.06c-.07-.77-.2-1.59-.28-2.56l.41-.33a6.34,6.34,0,0,1,2.21,1.68,7,7,0,0,1,1.39,2.68,7.3,7.3,0,0,1,.13,3.29,9.34,9.34,0,0,1-1.18,3,14.79,14.79,0,0,1-3.83,4.12,26,26,0,0,1-4.39,2.65,43.62,43.62,0,0,1-9.23,3.16,48.25,48.25,0,0,1-9.48,1.28Z"/><path class="cls-10" d="M331.09,1007.2a50.25,50.25,0,0,1-9.86-.83,41.7,41.7,0,0,1-9.68-2.93,22.67,22.67,0,0,1-4.61-2.74,12.7,12.7,0,0,1-3.82-4.62,9.09,9.09,0,0,1-.85-3.28,8,8,0,0,1,.55-3.26,7.65,7.65,0,0,1,3.87-4.19l.41.34c-.1,1-.29,1.83-.41,2.65a19.65,19.65,0,0,0-.26,2.23,10.13,10.13,0,0,0,.07,1.86,5.94,5.94,0,0,0,.46,1.67,9.18,9.18,0,0,0,2.5,3.1,23.48,23.48,0,0,0,3.75,2.54,64.22,64.22,0,0,0,8.69,3.83c3,1.11,6.12,2.1,9.25,3.08Z"/><path class="cls-10" d="M398.63,1010.48a86.47,86.47,0,0,1-25.61,3A115.16,115.16,0,0,1,349.3,1011l-2.75-.24-.18.37a53.81,53.81,0,0,0,13,3.77c1.14.17,2.28.38,3.43.51s2.3.25,3.46.36,2.32.13,3.48.2c.58,0,1.17,0,1.75,0H375l1.75-.08c1.16-.08,2.33-.11,3.48-.23,2.31-.27,4.63-.49,6.88-1a56.81,56.81,0,0,0,12.91-4l-.17-.38Z"/><path class="cls-11" d="M344.66,1002.33c-2.51-.67-5-1.39-7.44-2.2a67.44,67.44,0,0,1-7.18-2.77,37.15,37.15,0,0,1-6.45-3.71,11.76,11.76,0,0,1-2.38-2.26,4.34,4.34,0,0,1-.66-1.13,2.8,2.8,0,0,1-.21-1c-.06-3.15,3.09-6.72,5.31-8.41,1.17-.89,2.47-1.58,3.62-2.49a10.3,10.3,0,0,0-4.15.9,19.09,19.09,0,0,0-3.73,1.86A14.52,14.52,0,0,0,318,984a9.53,9.53,0,0,0-1.36,2.17,7.75,7.75,0,0,0-.7,2.82,7.53,7.53,0,0,0,.46,3,9,9,0,0,0,1.35,2.38,14.49,14.49,0,0,0,3.5,3.09,33.92,33.92,0,0,0,7.59,3.34,119.69,119.69,0,0,0,15.4,3.63c5.15.88,10.33,1.51,15.5,2l.07-.54C354.73,1004.83,349.66,1003.67,344.66,1002.33Z"/><path class="cls-11" d="M433,987a8.18,8.18,0,0,0-.84-2.41,11.35,11.35,0,0,0-2.8-3.43A15.51,15.51,0,0,0,426,979a14,14,0,0,0-3.67-1.22l-.22.5.08.08a23.9,23.9,0,0,1,4.57,3.16,7.43,7.43,0,0,1,2.38,5.25,6.7,6.7,0,0,1-2.44,5.16,14.88,14.88,0,0,1-1.51,1.3,36.21,36.21,0,0,1-5.94,3.63,59,59,0,0,1-6.65,2.78c-2.27.81-4.58,1.54-6.91,2.22-4.65,1.36-9.38,2.53-14.12,3.64l.08.54c4.84-.51,9.68-1.15,14.49-2.06a106.81,106.81,0,0,0,14.38-3.67,33.21,33.21,0,0,0,7.06-3.27,15.83,15.83,0,0,0,3.25-2.8,10.69,10.69,0,0,0,1.35-2,8.5,8.5,0,0,0,.84-2.52A7.82,7.82,0,0,0,433,987Z"/><path class="cls-11" d="M373.94,996.18A93.5,93.5,0,0,1,338,989.09l-2.08-.76-.23.39A43.14,43.14,0,0,0,340,991.2c1.47.76,3,1.44,4.51,2.09s3.09,1.21,4.67,1.77c.79.25,1.58.53,2.38.77s1.6.49,2.41.7a79.71,79.71,0,0,0,20,2.77,72.52,72.52,0,0,0,8.72-.4c2.4-.34,6.92-1.15,9.27-1.68a67.34,67.34,0,0,0,11.34-3.67c3.22-1.36,6.79-2.8,8.92-5.41a6.08,6.08,0,0,1-1.78.83c-.71.32-1.42.63-2.14.93-1.39.57-2.79,1.11-4.21,1.61a85.52,85.52,0,0,1-8.72,2.53,84.32,84.32,0,0,1-18.36,2.18C375.94,996.22,374.94,996.21,373.94,996.18Z"/></svg>