<svg id="Layer_1" data-name="Layer 1" xmlns="http://www.w3.org/2000/svg" viewBox="0 0 780 1051.14"><defs><style>.cls-1{fill:none;}.cls-2{fill:#c6946f;}.cls-2,.cls-3,.cls-4,.cls-6,.cls-7{stroke:#fff;stroke-miterlimit:10;}.cls-2,.cls-3,.cls-4,.cls-7{stroke-width:0.42px;}.cls-3{fill:#b58362;}.cls-4{fill:#d4a47c;}.cls-5{fill:#221913;}.cls-6{fill:#fff171;stroke-width:0.3px;}.cls-7{fill:#005058;}.cls-8{opacity:0.37;}.cls-10,.cls-9{fill:#fff;}.cls-9{opacity:0.7;}.cls-10{font-size:38.5px;font-family:ABCSerifBold, ABCSerif;}.cls-11{font-size:30px;font-family:ABCSansBold, ABCSans;}.cls-12{letter-spacing:-0.02em;}.cls-13{letter-spacing:0em;}.cls-14{letter-spacing:-0.01em;}.cls-15{letter-spacing:-0.01em;}.cls-16{letter-spacing:0.03em;}.cls-17{fill:#abd6ee;}.cls-18{fill:#66b7e4;}</style></defs><path class="cls-1" d="M704.54,106.85S665.23,127.37,740.88,136"/><path class="cls-2" d="M405.56,856.42c-.9-10,18.17-46.33,18.63-56.29L405,827.37c-1,.63-1.64,2-2.49,2.91a17.67,17.67,0,0,1-2.95,2.58,14.71,14.71,0,0,0-3.12,2.3c-1,1.06-1.67,2.35-2.56,3.49-3.54,4.57-5.74,10.13-7.73,15.57a70.75,70.75,0,0,0-2.79,7.65c-.83,3.49-1.14,7-1.66,10.59-.46,3.14-.56,6.36-.76,9.53a39.34,39.34,0,0,0,1.48,12c0,.16.09.37.13.59-.84-1.75-1.81-4.14-3.08-7.64a12.21,12.21,0,0,1-.14-8.66,14.43,14.43,0,0,0-1.5,1.64c-1.19,1.5-1.54,3.38-2.27,5.32-.56,1.51-1.89,2.63-1.65,4.39,3.93,28.57-13.31,46.79-10.36,82l2.53,17.38c.12,1.49.23,3.13.33,4.89,8.27.86,16.59,1.28,24.93,1.34,2.46-15.45,6.89-33.84,9.59-50.29a402.48,402.48,0,0,0,5.71-58.68c.05-3.08.05-6.17,0-9.25C406.52,870.19,406.18,863.29,405.56,856.42Z"/><path class="cls-3" d="M358.25,357.73a22.5,22.5,0,0,1,7.59,18.95c-1.18,14.82-5.45,28.18-9.59,42.18l-2.89,9.76c-.68,2.33-2.24,5.06-2.27,7.54-.09,6.79-1.36,16.43-1.5,23.22-.14,6.41,1.13,25.24,1.8,31.62.3,2.89.56,5.86,1.08,8.72.15.79,1.28,4.28,2.71,8.61,3.69,11.14,15.36,16.65,25.28,11.93l5.92-2.83c6.31-3,10.1-10.09,9.31-17.55-.5-4.73-1.06-9.47-1.58-14.2-.85-7.65-2.79-27.8-3.88-35.42-.39-2.73-.75-5.48-1-8.23-.18-2-.06-4-.18-5.95-.71-12.1-.45-24.22-.1-36.32.33-11.55.62-22.68,3-34a153.75,153.75,0,0,0,2.94-23.16c.41-7.53-1.11-14.54-1.44-22-.13-2.91,0-5.83-.09-8.74-.24-5-.65-12.92-2.81-17.42-.66-1.38-1.11-3-1.89-4.28a34,34,0,0,0-3-3.65c-.94-1.16-1.95-2.48-3.54-2.46a7,7,0,0,0-3.22,1.18c-1.38.81-1.52,2.07-1.83,3.77-.56,3.15-1,6.33-1.29,9.52a21.56,21.56,0,0,1-.45,2.29c-1.44,6.37-2.32,12.78-4.27,19.07a23.39,23.39,0,0,1-1.89,4.72,22.53,22.53,0,0,1-4.14,4.78c-3.76,3.59-8.18,6.86-11.51,10.93a12.17,12.17,0,0,0-2.6,4.78c-.52,1.88.41,3.59,1.35,5.15A31.77,31.77,0,0,0,358.25,357.73Z"/><path class="cls-4" d="M391.65,909.34c5.74-5.86,13.51-12.38,14.63-21.91,1.23-10.48-8.48-12.2-14-19.33L390.64,866c3.38-2.71,4.16-8.08,5.57-12.35,4.19-12.62,9.27-23.79,18.2-33.46a.31.31,0,0,0-.35-.49c-3.33,1.59-7.47,1.43-10.84,2.91-5.31,2.32.62-10.39-3-5.9-3.16,4-16.85,25-19.65,29.12-1.08-2.49-1.94-4.2-2.26-4.14-9.93,1.93-13.39,25.36-23,28.94-1.93.72-3.44,1-5.2,2.15s-3.33,2.18-5,3.23-2.88,2.83-4.08,4.52a53.17,53.17,0,0,0-3.21,5.1c-2.55,4.62-2.82,10.23-3,15.31s-.64,10.73,2,15.27c1.66,2.86,4.49,3,7.78,4.2,1.7.63,2.27,3.09,4,3,.68,0,1.48.14,2.13,0s1.54-.69,2.34-.88a17.06,17.06,0,0,0,4.38-1.24c1.41-.77,2.9-1.31,4.28-2.11a24.47,24.47,0,0,1,4.22-2c1.43-.52,3-1.21,4.54-1.61,4.92-1.28,10.84.73,15.83,1.07C392.82,917,388.77,912.28,391.65,909.34Z"/><path class="cls-5" d="M346.54,917.31c-4.37-6.75-2.69-12.46-3.28-20.6-1-13.17-3.15-25.48-.8-38.43a14.65,14.65,0,0,0,.37-4.11c-.4-3.84-4.08-6.81-7.92-7.19s-7.65,1.39-10.53,4c-5.52,4.92-9.37,13.15-10.9,20.33-.39,1.8-1,3.61-1.24,5.42a21.16,21.16,0,0,0,.26,5.67c.37,3.45.64,6.89,1.88,10.18a39.32,39.32,0,0,0,4,7.73c1.54,2.34,2.35,4.94,3.89,7.25s3,4.81,5.16,6.72c1.68,1.46,3.19,3,5,4.35a21.3,21.3,0,0,0,4.13,1.94c1.83.85,3.1.74,5.11.55,2.4-.23,8-.33,4.86-3.77"/><path class="cls-5" d="M340,826.81c-.87-1.33-1.7-3.42-2.88-4.44s-4.32-1-6-1c-2.8-.11-8.75,1.94-9.77,4.84-1.12,3.13-.56,8.43.91,11.41.84,1.7,4.18,7,6.55,4.71.18-2.43-3.68-3.07-5.52-3.2-1.69-.12-4.64,1.83-5.32,3.42-.94,2.22.33,3.94,1.46,5.68,1,1.57,1.9,3.54,3.44,4.64,1.39,1,3.93,2.28,5.66,2.27,1.12,0,5.38-1.8,6.07-3,.59-1,0-1.22-.46-2.06a4.35,4.35,0,0,1-.83-2.41c-.08-.71-.39-1.63,0-2.2a3.78,3.78,0,0,0,2-.52,2.25,2.25,0,0,0,1.19-1.62"/><path class="cls-4" d="M354.81,674.32c2.64,4.2-1.42,34.77.25,39.35.24.66.84,1.19,1.1,1.89.58,1.54,1,3.44,1.5,5a25.7,25.7,0,0,1,.73,7.62c-.15,4.94,1,9.84.73,14.7-.27,5.25,1.45,10.37.85,15.49-1.35,11.52-4.61,22.83-7.35,34.16-1.35,5.57-4,10.87-5.15,16.49-.7,3.41-1.81,6.43-2.78,9.73-.61,2.1-.21,6.72-2.14,8-2.16-.57-3.16-2.95-4.27-4.66-1.79-2.74,2.21-5.78,1.76-9.08-.41-3-1.79-5.16-2.11-8.13-.83-7.65-5.74-40.4.21-60,.93-3.06,6.95-57,7.73-60.11C347.45,678.51,358.12,679.58,354.81,674.32Z"/><path class="cls-4" d="M375.76,966.86c-2.09-11.1-2.39-22.15-2.46-33.42a303,303,0,0,0-2.11-30.39c-1.39-12.93,0-28.16,4.76-40.26,2.87-13.41,14.3-33.88,22.84-43.9.22-.26.44-.52.65-.79a5.65,5.65,0,0,0,.82-1.4c.46-1.19-2.74,8.35-3,7.09-2.44-13-13.35-25.73-21.2-35.94-3.94-5.13-12.79-20.33-20.17-19.7-5.37.46-15.05,8.44-17.58,13.16-5.17,9.63-.42,17.86-.09,28.16.35,11.17-4.49,24.63-5.07,35.79-.89,17.22,4.65,30.94,6.57,47.94.17,1.46.06,3,.16,4.48.39,5.26,1.42,10.51,1.62,15.75.18,4.59.79,9.17,1.21,13.74a59.59,59.59,0,0,0,1.23,9c.75,3,1.54,6.16,2.57,9.19"/><path class="cls-6" d="M394.19,826.58a8.58,8.58,0,0,1-1.24,0c-.57-.09-.46-.07-1.14-1.11a6.9,6.9,0,0,1-.85-2.22c-2.43,5.72-4.94,11.41-7.37,17.13s-5,11.2-6.75,17.09c-1.07,3.72-1.52,5.41-2.46,9.17,0-.06.56.28.59.22a30.32,30.32,0,0,1,3.26-6.2,60.09,60.09,0,0,0,3.42-6.92C382.73,851.47,394.35,826.65,394.19,826.58Z"/><path class="cls-6" d="M357.76,770.35a7.82,7.82,0,0,1-.94-1,3.76,3.76,0,0,1-.64-1.3,3.37,3.37,0,0,1-.09-.71,40.84,40.84,0,0,0-13.69,6.83,45.86,45.86,0,0,0-6.79,6c.05,1.11.1,2.22.14,3.33.06.57.12,1.14.19,1.72a.5.5,0,0,0,0,.12s0,.05,0,.08c.05.49.12,1,.18,1.46a16,16,0,0,1,3.4-4.69,45.3,45.3,0,0,1,5.6-4.85A36.11,36.11,0,0,1,358.58,771,10.56,10.56,0,0,1,357.76,770.35Z"/><path class="cls-4" d="M366,996.18c2.74.29,5.38-1.73,8.14-1.53a278.22,278.22,0,0,0,1.62-27.79l-29.22-21.47c1.2,8.27,4.14,28.93,6.12,49.54C357.48,995.58,361.21,995.3,366,996.18Z"/><path class="cls-7" d="M407.25,829.41c3.18-2.46,14.25-17.16,15.84-20.69,6-13.29,9-28.56,1.83-42a20.76,20.76,0,0,1-2.55-5.82c-.57-3.09.88-6.73,1.35-9.8q.93-6.15,1.31-12.36c.7-11.3-.9-22.47-.53-33.74q.72-21.69.35-43.4c-.23-13.8-.93-29-8.64-41l-2.36-1.13c-.27,1.31,0,2.74-.2,4.08-.21,1.57.24,3.09.06,4.67a141.61,141.61,0,0,1-4.57,23.27c-2.23,7.57-4.8,16-10.65,21.55a17.47,17.47,0,0,1-2.64,1.83c-3.3,2.1-5.64,4.74-9.47,6.22-10.83,4.2-23.12.76-31.57-6.77a65.23,65.23,0,0,1-9.65-11.19c-1.72-2.43-4.38-27.14-6.07-29.86,0,1.6-3.9,5.77-3.85,7.38-3,6.15,2,22.89,2.78,26.39,6.85,30.1,21.05,57.74,19.36,89.58-.11,2.12-1.29,10.75-1.46,11.53a22.55,22.55,0,0,0,2.66,2.88s4.89,1,7.07,3.72q4.2,5.31,8,10.92a141.43,141.43,0,0,1,13,23.63q2,4.79,3.68,9.73c.42,1.25,0,6.64,0,6.64a16.17,16.17,0,0,0,3.84.91C403,825.94,404.69,828.37,407.25,829.41Z"/><path class="cls-2" d="M421.77,621.13c-1.78-23.38-8.49-34.38-11.36-58.11-2.51-20.79-7-34.78-16.29-53.52a4.21,4.21,0,0,1-.51-1.48,4.84,4.84,0,0,1,.28-1.59c1.89-6.67-2.14-20.21-3.22-26.85C389.42,472,386.43,452,385,444.41c-.53-2.71-1-5.43-1.43-8.16-.28-2-.26-4-.48-5.93-1.35-12.05-1.71-24.17-2-36.27-.27-11.55-.56-22.68,1.22-34.08A152.19,152.19,0,0,0,384,336.68c0-7.54-1.86-14.46-2.58-21.92-.28-2.9-.25-5.82-.54-8.72-.5-5-1.33-12.87-3.71-17.26-.73-1.34-1.27-2.92-2.12-4.17a34,34,0,0,0-3.19-3.49c-1-1.11-2.09-2.37-3.67-2.26A6.81,6.81,0,0,0,365,280.2c-1.34.88-1.42,2.15-1.64,3.86-.4,3.17-.63,6.37-.79,9.57a19.63,19.63,0,0,1-.33,2.32c-1.11,6.43-1.65,12.88-3.27,19.26a22.77,22.77,0,0,1-1.65,4.81,21.93,21.93,0,0,1-3.88,5c-3.57,3.78-7.81,7.28-10.93,11.51a12.24,12.24,0,0,0-2.35,4.91c-.42,1.9.61,3.57,1.62,5.08a31.86,31.86,0,0,0,6.4,7.16,22.53,22.53,0,0,1,8.56,18.53c-.41,14.86-4,28.43-7.39,42.62-1.75,7.31-3.94,14.33-4.32,21.89-.85,16.89.59,33.73,3.22,50.41.45,2.87.86,5.82,1.53,8.65.12.5.73,2.14,1.58,4.38l0,.26c-2,22-7.21,43.63-10,65.53q-2.88,22.54-4.54,45.27c-.95,13-3.36,27,.58,39.83,3.74,12.27,11.56,23.05,21.49,29.61,6.28,4.15,13.48,6.66,20.57,6.16,9.79-.69,31-10,37.25-18.31C430.64,649.89,423.12,638.93,421.77,621.13Z"/><g class="cls-8"><path class="cls-2" d="M390.33,1075.63c-.2-.49-.49-.92-.66-1.42s-.46-1.1-.64-1.65a8,8,0,0,0-.81-1.87,7.45,7.45,0,0,1-.86-1.8c-1.13-3.43-1.49-7.77-2.88-11.36-1.69-4.36-4.72-6.28-5.19-10.84-1-9.33,9.79-42.48,11.19-51.65l.46-1.06,0-.2a60.58,60.58,0,0,1-17.05,2.55,58.8,58.8,0,0,1-7.43-.49c.53,12.4.72,28.07,1.48,35.86.19,6.73-2.24,15-1.22,23.77,1,8.37,5.4,17.43,5.46,19.22.29,9.31,0,18.82.76,28.08l.18,2.48c.08,1,.15,2,.23,3.08,0,.51.07,1,.11,1.52a2.14,2.14,0,0,1,0,.62,5.45,5.45,0,0,0,.08,1.07l.13.66a1.28,1.28,0,0,0,.21.46,4.73,4.73,0,0,0,.31.43c.2.18.49.12.74.09.64-.06.74-.46.87-.94a8,8,0,0,1-.09,1.29,12.67,12.67,0,0,0,.11,3,5.36,5.36,0,0,0,.72,2.5,1.35,1.35,0,0,0,1.13.61,1.23,1.23,0,0,0,1-.5,1.35,1.35,0,0,0,.34-1.21c0-.51.06-1,0-1.51,0,0,0,0,0-.06-1-1.07.26.23.46.25s.68-.31.95-.51a1.17,1.17,0,0,1,.57-.25,1.13,1.13,0,0,0,.72-.6,10,10,0,0,0,.66-3c.15-1.06.53-2.1.64-3.16,0-.39.08-.78.14-1.17s0-.52,0-.79c.09-.73.07-1.44.11-2.16a18.64,18.64,0,0,0,.08-2.24c0-.69,0-1.36-.05-2s.07-1.27.08-1.9a13.5,13.5,0,0,1,.25-2c.07-.39.11-.76.21-1.14a4.72,4.72,0,0,0,0-1.3,18.23,18.23,0,0,1,0-2.56c.08-1.17-.07-2.29.12-3.45.3-1.77.52-3.54.79-5.29,0-.2.09-.41.13-.6a2.77,2.77,0,0,1,.12-.6c.19,0,.27.11.42.18s.32.11.47.18a2.61,2.61,0,0,0,.72.27,4,4,0,0,0,1.62,0,3.78,3.78,0,0,0,.75-.38,1.44,1.44,0,0,0,.49-.39c.08-.12.11-.27.2-.4a6.26,6.26,0,0,0,1.26-2.16,6.57,6.57,0,0,0-.07-1.82A5.14,5.14,0,0,0,390.33,1075.63Z"/><path class="cls-4" d="M375.58,1079.44a67.08,67.08,0,0,0-2.28-13.86,16.6,16.6,0,0,0-2.34-4.91c-3.43-5.45-2.36-12-1.72-18,.45-4.15.74-8.33,1.14-12.49,1.07-11.12,2.18-22.23,3.17-33.36,0-.18,0-.35.05-.53a59.52,59.52,0,0,1-22.2-4.44c4.32,44.81,9.69,102.64,12.78,120.47l1,5.84c.1.53.18,1.06.28,1.6a2.37,2.37,0,0,1,0,.65,4.77,4.77,0,0,0,.19,1.13l.21.68a1.66,1.66,0,0,0,.26.47,3.76,3.76,0,0,0,.38.41c.22.18.52.08.79,0,.66-.14.72-.66.8-1.18a4.76,4.76,0,0,1,.06,1.46,13.09,13.09,0,0,0,.43,3.17,5.8,5.8,0,0,0,1,2.58,1.44,1.44,0,0,0,1.27.52,1.32,1.32,0,0,0,1-.64c.33-.45.66-.83.56-1.35s-.35-.78-.49-1.56a.92.92,0,0,0,.49.16c.38,0,.69-.4,1-.63a1.13,1.13,0,0,1,.58-.33,1.22,1.22,0,0,0,.7-.71,10.77,10.77,0,0,0,.38-3.3c.05-1.13.34-2.27.35-3.41,0-.41,0-.83,0-1.24s0-.56,0-.85c0-.77-.07-1.52-.1-2.29a21,21,0,0,0-.15-2.38c-.07-.46-.1-.91-.15-1.36.89-1,1.43-.72,2-1.87.15-.3.26-2.13.35-2.46a4.69,4.69,0,0,0,.09-.84,57.77,57.77,0,0,0-1.07-11.43C375.7,1088.6,375.85,1084.08,375.58,1079.44Z"/></g><path d="M127.67,678.73a68.37,68.37,0,0,0,25.22,22.81,81.79,81.79,0,0,0,30,8.72,88.41,88.41,0,0,0,16.43.06c1.91-.17,1.93-3.17,0-3-19.82,1.76-40.89-3.08-56.41-16a65,65,0,0,1-12.69-14.16c-1.06-1.6-3.66-.1-2.59,1.52Z"/><path d="M186.2,702.73c4.44,2.16,8.64,4.75,12.89,7.23l-.3-2.35c-1.75,1.78-3.41,3.63-5.13,5.43s-3.26,3.28-4.85,5c-1.33,1.41.79,3.53,2.12,2.12,1.59-1.68,3.25-3.28,4.85-5s3.38-3.66,5.13-5.44a1.52,1.52,0,0,0-.3-2.36c-4.26-2.48-8.46-5.07-12.89-7.23-1.73-.85-3.25,1.74-1.52,2.59Z"/><path d="M53.76,583.75c3.48,0,5.48,1.31,5.48,4.27a4,4,0,0,1-2.34,3.87A4,4,0,0,1,59.71,596c0,3-1.9,5-5.87,5H47V583.75Zm-3.69,7h3.52c1.58,0,2.57-.76,2.57-2.31s-.87-2.08-2.45-2.08H50.07Zm0,7.67h3.79c1.68,0,2.72-.79,2.76-2.46s-1.18-2.54-3-2.54H50.07Z"/><path d="M67.87,588c3.23,0,6,2.19,6,6.6,0,3.63-2.14,6.59-6.16,6.59-4.37,0-6.17-3-6.17-6.59C61.58,590.16,64.37,588,67.87,588Zm-3.08,6.6c0,2,.69,4,3,4,2.09,0,3-2,3-4,0-2.86-1.4-4-3-4S64.79,591.66,64.79,594.57Z"/><path d="M88.71,582.17V601H86.15l-.35-2.22a4.52,4.52,0,0,1-4.12,2.37c-3.47.05-5.54-2.84-5.54-6.64,0-4.63,3-6.55,5.52-6.55a4.09,4.09,0,0,1,4,2.44v-7.84ZM79.29,594.5c0,2.19.87,3.92,3.16,3.92s3.25-1.73,3.25-3.9c0-2.93-1.57-4-3.28-4S79.29,591.66,79.29,594.5Z"/><path d="M94,588.09l3.18,9.12h.2l2.91-9.12h3.16L98.7,601.21c-1.58,4.31-3.06,5.4-7.62,4.44l.54-2.59c2.92.71,3.31.05,4.22-2.49L91,588.09Z"/><path d="M111.18,597.31a6.73,6.73,0,0,0,4.2,1.43c1.47,0,2.34-.44,2.34-1.5,0-2.52-7.47-.84-7.23-5.58.1-2.31,1.8-3.69,5.23-3.69a10.55,10.55,0,0,1,4.66,1.2l-1.08,2.17a7.41,7.41,0,0,0-3.7-1.06c-1.21,0-2.22.4-2.17,1.41.15,2,7.32.47,7.32,5.45,0,2.66-2.39,4-5.45,4a8.86,8.86,0,0,1-5.3-1.68Z"/><path d="M126.3,582.17v8a4.82,4.82,0,0,1,4.24-2.19c3,0,4.49,1.94,4.49,4.61V601H132v-7.45c0-2-.74-3-2.41-3-2.35,0-3.26,1.9-3.26,4V601h-3.06V582.54Z"/><path d="M143.91,588c3.23,0,6,2.19,6,6.6,0,3.63-2.14,6.59-6.16,6.59-4.37,0-6.17-3-6.17-6.59C137.62,590.16,140.41,588,143.91,588Zm-3.08,6.6c0,2,.69,4,3,4,2.09,0,3-2,3-4,0-2.86-1.41-4-3-4S140.83,591.66,140.83,594.57Z"/><path d="M155.55,588.09v7.45c0,2,.79,3,2.59,3,2.35,0,3.31-2.42,3.31-4.86v-5.62h3.05V601h-2.44l-.44-2.81a4.71,4.71,0,0,1-4.46,3c-3.16,0-4.66-1.95-4.66-5.2v-7.87Z"/><path d="M170.72,582.17v14.62c0,1.38.62,1.75,1.53,1.75a2.43,2.43,0,0,0,1.28-.46l.57,2.19a5.35,5.35,0,0,1-2.79.89c-2.56,0-3.65-1.73-3.65-4.07V582.54Z"/><path d="M187.17,582.17V601h-2.56l-.35-2.22a4.52,4.52,0,0,1-4.12,2.37c-3.47.05-5.55-2.84-5.55-6.64,0-4.63,3-6.55,5.53-6.55a4.1,4.1,0,0,1,4,2.44v-7.84Zm-9.42,12.33c0,2.19.86,3.92,3.16,3.92s3.25-1.73,3.25-3.9c0-2.93-1.58-4-3.28-4S177.75,591.66,177.75,594.5Z"/><path d="M49.87,616.08v8.22a4.4,4.4,0,0,1,4.31-2.42c2.44.07,5.06,1.73,5.06,6.48,0,3.9-2,6.71-5.45,6.71a4.28,4.28,0,0,1-4.07-2.37l-.42,2.22H46.81V616.48Zm-.12,12.36c0,2.22.81,4,3.25,4,2,0,3.11-1.5,3.11-4,0-3-1.51-3.95-3.13-3.95C51.2,624.44,49.75,625.85,49.75,628.44Z"/><path d="M73.27,631.37a5.76,5.76,0,0,1-5.57,3.7c-4.34,0-6.26-2.71-6.26-6.76s2.71-6.53,6.43-6.43c3,.07,5.75,2.34,5.45,6.46l0,.39H64.54c0,2.2.94,3.7,3.18,3.7a2.87,2.87,0,0,0,2.79-2Zm-3.13-4.21c0-2-1-2.94-2.54-2.89a2.88,2.88,0,0,0-2.91,2.89Z"/><path d="M87.26,631.3c-.84,2.64-3,3.77-5.63,3.77-4.24,0-6.06-3.15-6.06-6.61,0-4.21,2.61-6.51,6.14-6.58,3.11-.07,5,1.53,5.5,3.8l-2.84.91a2.54,2.54,0,0,0-2.61-2.12c-1.78,0-3.13,1.31-3.13,3.94,0,2.1.79,4,3.08,4a2.6,2.6,0,0,0,2.71-2Z"/><path d="M95.55,621.88c3.23,0,6,2.19,6,6.61,0,3.62-2.15,6.58-6.17,6.58-4.36,0-6.16-3-6.16-6.58C89.26,624.07,92,621.88,95.55,621.88Zm-3.09,6.61c0,2,.69,4,3,4,2.1,0,3-2,3-4,0-2.86-1.4-4-3-4C93.84,624.47,92.46,625.58,92.46,628.49Z"/><path d="M106.74,622l.45,2.3a4.33,4.33,0,0,1,4-2.45,3.77,3.77,0,0,1,3.85,2.4,4.55,4.55,0,0,1,4.17-2.4c3,0,4.21,2,4.21,4.64v8.43h-3v-7.44c0-2-.47-3-2.15-3-2.22,0-2.81,1.68-2.81,3.58v6.9h-3.06v-7.44c0-2-.47-3-2.14-3-2.37,0-2.84,1.9-2.84,4v6.51H104.3V622Z"/><path d="M137.87,631.37a5.77,5.77,0,0,1-5.58,3.7c-4.33,0-6.26-2.71-6.26-6.76s2.71-6.53,6.44-6.43c3,.07,5.74,2.34,5.45,6.46l0,.39h-8.73c0,2.2.94,3.7,3.18,3.7a2.89,2.89,0,0,0,2.79-2Zm-3.13-4.21c0-2-1-2.94-2.54-2.89a2.87,2.87,0,0,0-2.91,2.89Z"/><path d="M147.81,622l3.11,9.37h.19L154.2,622h3.13l-4.81,12.92h-3.08L144.75,622Z"/><path d="M170.15,631.37a5.76,5.76,0,0,1-5.57,3.7c-4.34,0-6.26-2.71-6.26-6.76s2.71-6.53,6.43-6.43c3,.07,5.75,2.34,5.45,6.46l0,.39h-8.73c0,2.2.94,3.7,3.18,3.7a2.87,2.87,0,0,0,2.79-2ZM167,627.16c0-2-1-2.94-2.54-2.89a2.88,2.88,0,0,0-2.91,2.89Z"/><path d="M175.31,622l.57,2.67c.59-2,2.09-2.84,4.19-2.79a4.85,4.85,0,0,1,1.33.22l-.47,2.69a5.48,5.48,0,0,0-1.85-.25c-2.27.08-3.13,1.83-3.13,3.9v6.48h-3.06V622Z"/><path d="M187.89,618.35v3.78h3.25l-.42,2.46h-2.83v5.92c0,1.41.64,2,1.67,2a5.43,5.43,0,0,0,1.95-.57l.57,2.34a7.94,7.94,0,0,1-3.28.84c-3,0-4-2-4-4.14v-6.34H183v-2.46H185l.37-3.43Z"/><path d="M198.05,622v12.92H195V624.54h-1.8V622Zm-1.55-5a1.65,1.65,0,0,1,1.82,1.56,1.82,1.82,0,0,1-3.62,0A1.59,1.59,0,0,1,196.5,617Z"/><path d="M212.45,631.3c-.84,2.64-3,3.77-5.62,3.77-4.24,0-6.07-3.15-6.07-6.61,0-4.21,2.62-6.51,6.14-6.58,3.11-.07,5,1.53,5.5,3.8l-2.83.91a2.55,2.55,0,0,0-2.62-2.12c-1.77,0-3.13,1.31-3.13,3.94,0,2.1.79,4,3.08,4a2.61,2.61,0,0,0,2.72-2Z"/><path d="M215.12,622.82a15.36,15.36,0,0,1,4.88-.94c3.9,0,5.33,1.92,5.33,4.93V632a.65.65,0,0,0,.61.74,2.41,2.41,0,0,0,1-.15v2a5,5,0,0,1-2,.39,2.34,2.34,0,0,1-2.35-1.75,5.62,5.62,0,0,1-3.89,1.75c-2.52,0-4.39-1.28-4.42-4s2-4.09,5.26-4.09a19.84,19.84,0,0,1,2.78.25v-.77c0-1.4-.88-2.17-2.66-2.14a10.5,10.5,0,0,0-4,.78Zm7.15,6a13.07,13.07,0,0,0-2.52-.15c-1.48.07-2.41.76-2.44,2.07a1.81,1.81,0,0,0,2.1,1.9,5.09,5.09,0,0,0,2.86-1Z"/><path d="M232.14,616.08v14.63c0,1.38.61,1.75,1.52,1.75A2.46,2.46,0,0,0,235,632l.56,2.19a5.22,5.22,0,0,1-2.78.89c-2.57,0-3.65-1.72-3.65-4.07V616.45Z"/><path class="cls-9" d="M148.79,61.4a36.73,36.73,0,0,1,8.33-23.32,34.4,34.4,0,0,0-45.48-4.38A34.43,34.43,0,0,0,131.9,96a34.33,34.33,0,0,0,25.32-11.11A36.76,36.76,0,0,1,148.79,61.4ZM138,75.49s-3.7-.27-11.47-.27a25.63,25.63,0,0,0-4.93.31l-1.35-2.46c7.78-7.9,12.4-13.63,13-18.71.47-3.66-2-4.82-4.35-4.66a9.73,9.73,0,0,0-6.73,3.92c-.2-.23-1.93-2.07-1.47-2.65A12.43,12.43,0,0,1,130,46.12c5.89,0,9.09,3,8.74,8.51-.46,7-8,13.59-12.63,17.55l8.32-.08c1.77-.15,3-2.54,3.81-4.73,0,0,1.73.5,2,1C139.58,71.53,138.81,75.49,138,75.49Z"/><path class="cls-9" d="M95.79,61.4A36.74,36.74,0,0,1,104.16,38a34.44,34.44,0,1,0,.11,46.9A36.78,36.78,0,0,1,95.79,61.4ZM87.2,75.66H70.92L71,73.39l4.46-.58c.58,0,.81-.23.81-1,.08-10.05,0-19.6,0-19.6l-5.62,1.08c-.19-.31-1.12-2.46-.46-2.73l10.35-4,1,1s-.12,20.87,0,24.37c0,.77.19,1,.73,1l5.08.54Z"/><path class="cls-9" d="M201.79,61.4A36.74,36.74,0,0,1,210.16,38a34.43,34.43,0,0,0-47.76-2.48A34.8,34.8,0,0,0,172,93.43a34.41,34.41,0,0,0,38.24-8.51A36.78,36.78,0,0,1,201.79,61.4ZM181.35,75.49a15.64,15.64,0,0,1-7.86-2.19l1-2.89a21.48,21.48,0,0,0,7,1.66c3.35,0,5.51-1.74,5.55-5.24,0-2.46-1.43-4.35-4.47-4.74a17.82,17.82,0,0,0-5,.24c-.5.11-.89-3-.42-3.08,3-.54,7.62-1.08,8.39-4.89.73-3.62-2-4.82-4.35-4.66A8.43,8.43,0,0,0,175,52.82c-.2-.23-1.7-2.12-1-3a10.43,10.43,0,0,1,8.16-3.69c5.89,0,9.12,3,8.74,8.51a6,6,0,0,1-4,4.5c3.47.62,5.47,2.93,5.66,6.7C192.9,71.83,188,75.49,181.35,75.49Z"/><circle cx="236" cy="61.53" r="34.44"/><text class="cls-10" transform="translate(224.45 75.26)">4</text><text class="cls-11" transform="translate(280.41 71.34)">The n<tspan class="cls-12" x="76.17" y="0">e</tspan><tspan class="cls-13" x="92.55" y="0">xt e</tspan><tspan class="cls-14" x="145.35" y="0">l</tspan><tspan x="154.56" y="0">ement is the en</tspan><tspan class="cls-15" x="371.64" y="0">t</tspan><tspan class="cls-16" x="383.73" y="0">r</tspan><tspan x="397.32" y="0">y</tspan></text><path class="cls-17" d="M428.75,1003.81c3.62-1.21,7.2-2.41,10.71-3.7a96.75,96.75,0,0,0,10.11-4.28,36.44,36.44,0,0,0,4.46-2.65,13.25,13.25,0,0,0,3.28-3.16,7,7,0,0,0,.81-1.68,7.42,7.42,0,0,0,.37-1.76,10.77,10.77,0,0,0,0-2.18c-.08-.81-.24-1.67-.34-2.69l.5-.34a7.34,7.34,0,0,1,2.69,1.77A7,7,0,0,1,463,986a6.75,6.75,0,0,1,.15,3.46,8.92,8.92,0,0,1-1.44,3.14,16.65,16.65,0,0,1-4.67,4.34,33.37,33.37,0,0,1-5.36,2.79,60,60,0,0,1-11.26,3.33,68.16,68.16,0,0,1-11.57,1.35Z"/><path class="cls-17" d="M321.46,1005.85a70.23,70.23,0,0,1-12-.87,57,57,0,0,1-11.81-3.09A29.36,29.36,0,0,1,292,999a14.16,14.16,0,0,1-4.66-4.87,8.19,8.19,0,0,1-1-3.46,7.19,7.19,0,0,1,.66-3.43,8.66,8.66,0,0,1,4.73-4.41l.5.35c-.13,1-.36,1.93-.51,2.79a20.61,20.61,0,0,0-.31,2.35,8.27,8.27,0,0,0,.09,2,5.58,5.58,0,0,0,.55,1.77,10.35,10.35,0,0,0,3.06,3.26,29.32,29.32,0,0,0,4.57,2.67,83.51,83.51,0,0,0,10.61,4c3.69,1.18,7.47,2.22,11.28,3.26Z"/><path class="cls-17" d="M403.88,1009.31a121.15,121.15,0,0,1-31.25,3.12,161.61,161.61,0,0,1-28.95-2.6l-3.35-.25-.23.39a73.86,73.86,0,0,0,15.88,4c1.39.18,2.78.4,4.18.53s2.82.27,4.23.39,2.83.14,4.25.21c.71,0,1.42,0,2.13,0H375l2.14-.08c1.42-.08,2.84-.12,4.25-.24,2.82-.28,5.64-.52,8.39-1a77.06,77.06,0,0,0,15.76-4.16l-.21-.39C404.87,1009.23,404.37,1009.27,403.88,1009.31Z"/><path class="cls-18" d="M338,1000.72c-3.06-.7-6.09-1.46-9.08-2.31a91.76,91.76,0,0,1-8.76-2.92,48.1,48.1,0,0,1-7.87-3.91,13.8,13.8,0,0,1-2.91-2.38,4.93,4.93,0,0,1-.81-1.19,2.78,2.78,0,0,1-.25-1.1c-.07-3.32,3.77-7.08,6.49-8.85,1.42-.94,3-1.67,4.41-2.63a14.16,14.16,0,0,0-5.07,1,25.29,25.29,0,0,0-4.55,2,17,17,0,0,0-4.13,3.11,9.69,9.69,0,0,0-1.66,2.28,7.37,7.37,0,0,0-.86,3,7,7,0,0,0,.56,3.15,9,9,0,0,0,1.65,2.51,16.61,16.61,0,0,0,4.28,3.25,45.37,45.37,0,0,0,9.26,3.53,165,165,0,0,0,18.79,3.81c6.29.94,12.6,1.6,18.91,2.12l.09-.57C350.31,1003.36,344.12,1002.14,338,1000.72Z"/><path class="cls-18" d="M445.87,984.56a8.27,8.27,0,0,0-1-2.54,12.46,12.46,0,0,0-3.42-3.61,20.79,20.79,0,0,0-8.58-3.56l-.27.52.09.09a30.57,30.57,0,0,1,5.59,3.33,7.43,7.43,0,0,1,2.9,5.54,6.73,6.73,0,0,1-3,5.43,19.12,19.12,0,0,1-1.84,1.37,46.88,46.88,0,0,1-7.26,3.82,79.39,79.39,0,0,1-8.1,2.93c-2.77.86-5.59,1.62-8.43,2.33-5.68,1.44-11.45,2.67-17.24,3.84l.1.57c5.91-.54,11.81-1.21,17.68-2.17a145,145,0,0,0,17.55-3.87,43.58,43.58,0,0,0,8.61-3.44,18.25,18.25,0,0,0,4-2.95,10.78,10.78,0,0,0,1.65-2.1,8.45,8.45,0,0,0,1-2.64A7.39,7.39,0,0,0,445.87,984.56Z"/><path class="cls-18" d="M373.76,994.24a129.93,129.93,0,0,1-43.88-7.46c-.85-.26-1.69-.53-2.53-.81l-.29.41a51.92,51.92,0,0,0,5.22,2.62c1.79.8,3.63,1.52,5.5,2.2s3.77,1.28,5.69,1.86c1,.27,1.93.57,2.91.82s1.95.51,2.94.73a111.81,111.81,0,0,0,24.37,2.92,104.91,104.91,0,0,0,10.64-.42c2.93-.36,8.44-1.21,11.31-1.77a91.19,91.19,0,0,0,13.84-3.87c3.93-1.43,8.28-2.94,10.89-5.69a8.41,8.41,0,0,1-2.18.87c-.86.34-1.73.66-2.61,1-1.69.6-3.4,1.17-5.14,1.69q-5.2,1.57-10.63,2.67a117.89,117.89,0,0,1-22.41,2.29C376.18,994.29,375,994.28,373.76,994.24Z"/></svg>