<svg id="Layer_1" data-name="Layer 1" xmlns="http://www.w3.org/2000/svg" viewBox="0 0 780 1051.14"><defs><style>.cls-1{fill:#c6946f;}.cls-1,.cls-2,.cls-3,.cls-5,.cls-6{stroke:#fff;stroke-miterlimit:10;}.cls-1,.cls-2,.cls-3,.cls-6{stroke-width:0.42px;}.cls-2{fill:#b58362;}.cls-3{fill:#d4a47c;}.cls-4{fill:#221913;}.cls-5{fill:#fff171;stroke-width:0.3px;}.cls-6{fill:#005058;}.cls-7{opacity:0.37;}.cls-8,.cls-9{fill:#fff;}.cls-8{opacity:0.7;}.cls-10{fill:#abd6ee;}.cls-11{fill:#66b7e4;}</style></defs><path d="M127.67,678.73a68.37,68.37,0,0,0,25.22,22.81,81.79,81.79,0,0,0,30,8.72,88.41,88.41,0,0,0,16.43.06c1.91-.17,1.93-3.17,0-3-19.82,1.76-40.89-3.08-56.41-16a65,65,0,0,1-12.69-14.16c-1.06-1.6-3.66-.1-2.59,1.52Z"/><path d="M186.2,702.73c4.44,2.16,8.64,4.75,12.89,7.23l-.3-2.35c-1.75,1.78-3.41,3.63-5.13,5.43s-3.26,3.28-4.85,5c-1.33,1.41.79,3.53,2.12,2.12,1.59-1.68,3.25-3.28,4.85-5s3.38-3.66,5.13-5.44a1.52,1.52,0,0,0-.3-2.36c-4.26-2.48-8.46-5.07-12.89-7.23-1.73-.85-3.25,1.74-1.52,2.59Z"/><path d="M53.76,583.75c3.48,0,5.48,1.31,5.48,4.26a4,4,0,0,1-2.34,3.88A4,4,0,0,1,59.71,596c0,3-1.9,5-5.87,5H47V583.75Zm-3.69,7h3.52c1.58,0,2.57-.76,2.57-2.31s-.87-2.08-2.45-2.08H50.07Zm0,7.67h3.79c1.68,0,2.72-.79,2.76-2.47s-1.18-2.53-3-2.53H50.07Z"/><path d="M67.87,588c3.23,0,6,2.19,6,6.6,0,3.63-2.14,6.59-6.16,6.59-4.37,0-6.17-3-6.17-6.59C61.58,590.16,64.37,588,67.87,588Zm-3.08,6.6c0,2,.69,4,3,4,2.09,0,3-2,3-4,0-2.86-1.4-4-3-4S64.79,591.66,64.79,594.57Z"/><path d="M88.71,582.17V601H86.15l-.35-2.22a4.52,4.52,0,0,1-4.12,2.37c-3.47.05-5.54-2.84-5.54-6.64,0-4.63,3-6.55,5.52-6.55a4.09,4.09,0,0,1,4,2.44v-7.85ZM79.29,594.5c0,2.19.87,3.92,3.16,3.92s3.25-1.73,3.25-3.9c0-2.93-1.57-4-3.28-4S79.29,591.66,79.29,594.5Z"/><path d="M94,588.09l3.18,9.12h.2l2.91-9.12h3.16L98.7,601.21c-1.58,4.31-3.06,5.4-7.62,4.43l.54-2.58c2.92.71,3.31.05,4.22-2.49L91,588.09Z"/><path d="M111.18,597.31a6.73,6.73,0,0,0,4.2,1.43c1.47,0,2.34-.44,2.34-1.5,0-2.52-7.47-.84-7.23-5.58.1-2.31,1.8-3.69,5.23-3.69a10.55,10.55,0,0,1,4.66,1.2l-1.08,2.17a7.41,7.41,0,0,0-3.7-1.06c-1.21,0-2.22.4-2.17,1.41.15,2,7.32.47,7.32,5.45,0,2.66-2.39,4-5.45,4a8.86,8.86,0,0,1-5.3-1.68Z"/><path d="M126.3,582.17v8a4.82,4.82,0,0,1,4.24-2.19c3,0,4.49,1.94,4.49,4.61V601H132v-7.45c0-2-.74-3-2.41-3-2.35,0-3.26,1.9-3.26,4V601h-3.06V582.54Z"/><path d="M143.91,588c3.23,0,6,2.19,6,6.6,0,3.63-2.14,6.59-6.16,6.59-4.37,0-6.17-3-6.17-6.59C137.62,590.16,140.41,588,143.91,588Zm-3.08,6.6c0,2,.69,4,3,4,2.09,0,3-2,3-4,0-2.86-1.41-4-3-4S140.83,591.66,140.83,594.57Z"/><path d="M155.55,588.09v7.45c0,2,.79,3,2.59,3,2.35,0,3.31-2.42,3.31-4.86v-5.62h3.05V601h-2.44l-.44-2.81a4.71,4.71,0,0,1-4.46,3c-3.16,0-4.66-1.95-4.66-5.2v-7.87Z"/><path d="M170.72,582.17v14.62c0,1.38.62,1.75,1.53,1.75a2.33,2.33,0,0,0,1.28-.47l.57,2.2a5.35,5.35,0,0,1-2.79.89c-2.56,0-3.65-1.73-3.65-4.07V582.54Z"/><path d="M187.17,582.17V601h-2.56l-.35-2.22a4.52,4.52,0,0,1-4.12,2.37c-3.47.05-5.55-2.84-5.55-6.64,0-4.63,3-6.55,5.53-6.55a4.1,4.1,0,0,1,4,2.44v-7.85Zm-9.42,12.33c0,2.19.86,3.92,3.16,3.92s3.25-1.73,3.25-3.9c0-2.93-1.58-4-3.28-4S177.75,591.66,177.75,594.5Z"/><path d="M49.87,616.08v8.22a4.4,4.4,0,0,1,4.31-2.42c2.44.07,5.06,1.73,5.06,6.48,0,3.9-2,6.71-5.45,6.71a4.28,4.28,0,0,1-4.07-2.37l-.42,2.22H46.81V616.48Zm-.12,12.36c0,2.22.81,4,3.25,4,2,0,3.11-1.5,3.11-4,0-3-1.51-3.95-3.13-3.95C51.2,624.44,49.75,625.85,49.75,628.44Z"/><path d="M73.27,631.37a5.76,5.76,0,0,1-5.57,3.7c-4.34,0-6.26-2.71-6.26-6.76s2.71-6.53,6.43-6.43c3,.07,5.75,2.34,5.45,6.46l0,.39H64.54c0,2.2.94,3.7,3.18,3.7a2.87,2.87,0,0,0,2.79-2Zm-3.13-4.21c0-2-1-2.94-2.54-2.89a2.88,2.88,0,0,0-2.91,2.89Z"/><path d="M87.26,631.3c-.84,2.64-3,3.77-5.63,3.77-4.24,0-6.06-3.16-6.06-6.61,0-4.21,2.61-6.51,6.14-6.58,3.11-.07,5,1.53,5.5,3.8l-2.84.91a2.54,2.54,0,0,0-2.61-2.12c-1.78,0-3.13,1.31-3.13,3.94,0,2.1.79,4,3.08,4a2.6,2.6,0,0,0,2.71-2Z"/><path d="M95.55,621.88c3.23,0,6,2.19,6,6.61,0,3.62-2.15,6.58-6.17,6.58-4.36,0-6.16-3-6.16-6.58C89.26,624.07,92,621.88,95.55,621.88Zm-3.09,6.61c0,2,.69,4,3,4,2.1,0,3-2,3-4,0-2.86-1.4-4-3-4C93.84,624.47,92.46,625.58,92.46,628.49Z"/><path d="M106.74,622l.45,2.3a4.33,4.33,0,0,1,4-2.45,3.77,3.77,0,0,1,3.85,2.4,4.55,4.55,0,0,1,4.17-2.4c3,0,4.21,2,4.21,4.64v8.43h-3v-7.44c0-2-.47-3-2.15-3-2.22,0-2.81,1.68-2.81,3.58v6.9h-3.06v-7.44c0-2-.47-3-2.14-3-2.37,0-2.84,1.9-2.84,4v6.51H104.3V622Z"/><path d="M137.87,631.37a5.77,5.77,0,0,1-5.58,3.7c-4.33,0-6.26-2.71-6.26-6.76s2.71-6.53,6.44-6.43c3,.07,5.74,2.34,5.45,6.46l0,.39h-8.73c0,2.2.94,3.7,3.18,3.7a2.89,2.89,0,0,0,2.79-2Zm-3.13-4.21c0-2-1-2.94-2.54-2.89a2.87,2.87,0,0,0-2.91,2.89Z"/><path d="M147.81,622l3.11,9.37h.19L154.2,622h3.13l-4.81,12.92h-3.08L144.75,622Z"/><path d="M170.15,631.37a5.76,5.76,0,0,1-5.57,3.7c-4.34,0-6.26-2.71-6.26-6.76s2.71-6.53,6.43-6.43c3,.07,5.75,2.34,5.45,6.46l0,.39h-8.73c0,2.2.94,3.7,3.18,3.7a2.87,2.87,0,0,0,2.79-2ZM167,627.16c0-2-1-2.94-2.54-2.89a2.88,2.88,0,0,0-2.91,2.89Z"/><path d="M175.31,622l.57,2.67c.59-2,2.09-2.84,4.19-2.79a4.85,4.85,0,0,1,1.33.22l-.47,2.69a5.48,5.48,0,0,0-1.85-.25c-2.27.08-3.13,1.83-3.13,3.9v6.48h-3.06V622Z"/><path d="M187.89,618.35v3.78h3.25l-.42,2.46h-2.83v5.92c0,1.4.64,2,1.67,2a5.64,5.64,0,0,0,1.95-.57l.57,2.34a7.94,7.94,0,0,1-3.28.84c-3,0-4-2-4-4.14v-6.34H183v-2.46H185l.37-3.43Z"/><path d="M198.05,622v12.92H195V624.54h-1.8V622Zm-1.55-5a1.65,1.65,0,0,1,1.82,1.56,1.82,1.82,0,0,1-3.62,0A1.59,1.59,0,0,1,196.5,617Z"/><path d="M212.45,631.3c-.84,2.64-3,3.77-5.62,3.77-4.24,0-6.07-3.16-6.07-6.61,0-4.21,2.62-6.51,6.14-6.58,3.11-.07,5,1.53,5.5,3.8l-2.83.91a2.55,2.55,0,0,0-2.62-2.12c-1.77,0-3.13,1.31-3.13,3.94,0,2.1.79,4,3.08,4a2.61,2.61,0,0,0,2.72-2Z"/><path d="M215.12,622.82a15.36,15.36,0,0,1,4.88-.94c3.9,0,5.33,1.92,5.33,4.93V632a.65.65,0,0,0,.61.74,2.41,2.41,0,0,0,1-.15v2a5,5,0,0,1-2,.39,2.34,2.34,0,0,1-2.35-1.75,5.62,5.62,0,0,1-3.89,1.75c-2.52,0-4.39-1.28-4.42-4s2-4.09,5.26-4.09a21.68,21.68,0,0,1,2.78.24v-.76c0-1.41-.88-2.17-2.66-2.15a10.39,10.39,0,0,0-4,.79Zm7.15,6a13.07,13.07,0,0,0-2.52-.15c-1.48.07-2.41.76-2.44,2.07a1.82,1.82,0,0,0,2.1,1.9,5.09,5.09,0,0,0,2.86-1Z"/><path d="M232.14,616.08v14.63c0,1.38.61,1.75,1.52,1.75A2.46,2.46,0,0,0,235,632l.56,2.19a5.31,5.31,0,0,1-2.78.89c-2.57,0-3.65-1.72-3.65-4.07V616.45Z"/><path class="cls-1" d="M386.79,990.94c3.94,0,7.87-.26,11.8-.27,2.34,0,4.67.06,7,.19,0-.19,0-.38,0-.58-.9-10,18.17-46.32,18.63-56.28L405,961.24c-1,.62-1.64,2-2.49,2.9a17.22,17.22,0,0,1-2.95,2.58,15.43,15.43,0,0,0-3.12,2.3c-1,1.07-1.67,2.36-2.56,3.5-3.54,4.57-5.74,10.12-7.73,15.57-.35.95-.74,1.89-1.12,2.83C385.6,990.93,386.2,991,386.79,990.94Z"/><path class="cls-2" d="M358.25,491.59a22.52,22.52,0,0,1,7.59,19c-1.18,14.81-5.45,28.17-9.59,42.17q-1.44,4.89-2.89,9.77c-.68,2.32-2.24,5-2.27,7.54-.09,6.79-1.36,16.42-1.5,23.21-.14,6.41,1.13,25.24,1.8,31.63.3,2.89.56,5.86,1.08,8.71.15.79,1.28,4.29,2.71,8.61,3.69,11.14,15.36,16.66,25.28,11.93l5.92-2.82c6.31-3,10.1-10.09,9.31-17.55-.5-4.74-1.06-9.47-1.58-14.21-.85-7.65-2.79-27.8-3.88-35.42-.39-2.73-.75-5.47-1-8.22-.18-2-.06-4-.18-5.95-.71-12.11-.45-24.23-.1-36.33.33-11.54.62-22.67,3-34a153.88,153.88,0,0,0,2.94-23.17c.41-7.53-1.11-14.54-1.44-22-.13-2.91,0-5.82-.09-8.73-.24-5-.65-12.93-2.81-17.43-.66-1.38-1.11-3-1.89-4.28a33,33,0,0,0-3-3.64c-.94-1.17-1.95-2.48-3.54-2.46a7,7,0,0,0-3.22,1.17c-1.38.82-1.52,2.08-1.83,3.77-.56,3.15-1,6.33-1.29,9.52a21.26,21.26,0,0,1-.45,2.3C373.86,441,373,447.46,371,453.75a23.07,23.07,0,0,1-1.89,4.71,22.34,22.34,0,0,1-4.14,4.79c-3.76,3.59-8.18,6.86-11.51,10.92a12.17,12.17,0,0,0-2.6,4.78c-.52,1.88.41,3.6,1.35,5.16A31.92,31.92,0,0,0,358.25,491.59Z"/><path class="cls-3" d="M386.79,990.94c2.82,0,5.64-.13,8.47-.21.31-1.11.61-2.2.95-3.23,4.19-12.62,9.27-23.78,18.2-33.46a.3.3,0,0,0-.35-.48c-3.33,1.58-7.47,1.43-10.84,2.9-5.31,2.33.62-10.38-3-5.89-3.16,4-16.85,25-19.65,29.12-1.08-2.49-1.94-4.21-2.26-4.14-5.15,1-8.56,7.78-12,14.58C373.16,990.61,380,991,386.79,990.94Z"/><path class="cls-4" d="M342.83,988.2V988c-.4-3.84-4.08-6.8-7.92-7.19s-7.65,1.39-10.53,4a24.68,24.68,0,0,0-2,2.05C329.18,987.14,336,987.64,342.83,988.2Z"/><path class="cls-4" d="M322.86,986.7l.26.18c3.2.14,6.4.33,9.6.55a5.42,5.42,0,0,0,1.87-1.42c.59-1,0-1.22-.46-2.07a4.29,4.29,0,0,1-.83-2.4c-.08-.71-.39-1.64,0-2.2a3.87,3.87,0,0,0,2-.52,2.25,2.25,0,0,0,1.19-1.62L340,960.68c-.87-1.34-1.69-3.43-2.88-4.45s-4.32-1-6-1c-2.8-.1-8.75,1.95-9.77,4.84-1.12,3.14-.56,8.43.91,11.41.19.37.5.92.88,1.52a7.19,7.19,0,0,0-5.17,3.42c-.94,2.22.33,3.93,1.46,5.68C320.45,983.64,321.32,985.61,322.86,986.7Z"/><path class="cls-3" d="M354.81,808.19c2.64,4.19-1.42,34.77.25,39.34.24.67.84,1.2,1.1,1.89.58,1.54,1,3.45,1.5,5a25.77,25.77,0,0,1,.73,7.63c-.15,4.93,1,9.84.73,14.69-.27,5.26,1.45,10.37.85,15.49-1.35,11.53-4.61,22.84-7.35,34.17-1.35,5.56-4,10.86-5.15,16.49-.7,3.4-1.81,6.42-2.78,9.73-.61,2.09-.21,6.71-2.14,8-2.16-.58-3.16-3-4.27-4.67-1.79-2.73,2.21-5.78,1.76-9.07-.41-3-1.79-5.16-2.11-8.14-.83-7.65-5.74-40.39.21-60,.93-3.07,6.95-57,7.73-60.11C347.45,812.38,358.12,813.45,354.81,808.19Z"/><path class="cls-3" d="M400.26,950.57a5.59,5.59,0,0,1-.82,1.39c-.21.27-.43.54-.65.8-.67.78-1.35,1.63-2,2.52.21.79.39,1.59.54,2.38C397.52,958.91,400.72,949.37,400.26,950.57Z"/><path class="cls-3" d="M362.32,989.84c5.08.39,10.18.72,15.27.91,3.93-11.78,12.16-26.41,19.16-35.47-3.23-12.14-13.29-24-20.66-33.57-3.94-5.13-12.79-20.33-20.17-19.69-5.37.46-15.05,8.44-17.58,13.15-5.17,9.63-.42,17.87-.09,28.16.35,11.18-4.49,24.64-5.07,35.79a72.42,72.42,0,0,0,.06,8.35C342.94,988.15,352.62,989.09,362.32,989.84Z"/><path class="cls-5" d="M380.18,990.85c.5-1.08,1-2.17,1.47-3.23,1.08-2.29,12.7-27.1,12.54-27.17a7.34,7.34,0,0,1-1.24,0c-.57-.08-.46-.06-1.14-1.1a7.08,7.08,0,0,1-.85-2.22c-2.43,5.71-4.94,11.4-7.37,17.12-2.31,5.43-4.86,10.81-6.56,16.47Z"/><path class="cls-5" d="M357.76,904.21a7.18,7.18,0,0,1-.94-1,3.63,3.63,0,0,1-.64-1.29,3.46,3.46,0,0,1-.09-.72,41,41,0,0,0-13.69,6.83,46.44,46.44,0,0,0-6.79,6c.05,1.11.1,2.22.14,3.33.06.57.12,1.15.19,1.72a.5.5,0,0,0,0,.12.21.21,0,0,1,0,.08c.05.49.12,1,.18,1.47a16,16,0,0,1,3.4-4.69,45.38,45.38,0,0,1,5.6-4.86,36.42,36.42,0,0,1,13.44-6.36A10.56,10.56,0,0,1,357.76,904.21Z"/><path class="cls-6" d="M407.25,963.27c3.18-2.45,14.25-17.16,15.84-20.68,6-13.29,9-28.56,1.83-42a20.76,20.76,0,0,1-2.55-5.82c-.57-3.1.88-6.73,1.35-9.8q.93-6.15,1.31-12.37c.7-11.3-.9-22.46-.53-33.74q.72-21.69.35-43.4c-.23-13.79-.93-29-8.64-40.95l-2.36-1.14c-.27,1.31,0,2.74-.2,4.08-.21,1.58.24,3.1.06,4.68a141.81,141.81,0,0,1-4.57,23.27c-2.23,7.57-4.8,16-10.65,21.54a17.47,17.47,0,0,1-2.64,1.83c-3.3,2.1-5.64,4.75-9.47,6.23-10.83,4.19-23.12.76-31.57-6.77A65.61,65.61,0,0,1,345.16,797c-1.72-2.43-4.38-27.15-6.07-29.87,0,1.61-3.9,5.78-3.85,7.39-3,6.14,2,22.89,2.78,26.39,6.85,30.1,21.05,57.73,19.36,89.57-.11,2.13-1.29,10.75-1.46,11.54a22.76,22.76,0,0,0,2.66,2.87s4.89,1,7.07,3.73q4.2,5.31,8,10.91a141.52,141.52,0,0,1,13,23.64q2,4.79,3.68,9.72c.42,1.26,0,6.64,0,6.64a16.56,16.56,0,0,0,3.84.92C403,959.8,404.69,962.24,407.25,963.27Z"/><path class="cls-1" d="M421.77,755c-1.78-23.38-8.49-34.37-11.36-58.11-2.51-20.79-7-34.77-16.29-53.51a4.19,4.19,0,0,1-.51-1.49,4.83,4.83,0,0,1,.28-1.58c1.89-6.67-2.14-20.22-3.22-26.86-1.25-7.59-4.24-27.61-5.72-35.16-.53-2.71-1-5.43-1.43-8.16-.28-2-.26-4-.48-5.94-1.35-12-1.71-24.17-2-36.27-.27-11.55-.56-22.67,1.22-34.07A152.38,152.38,0,0,0,384,470.55c0-7.54-1.86-14.46-2.58-21.93-.28-2.9-.25-5.82-.54-8.72-.5-5-1.33-12.87-3.71-17.25-.73-1.35-1.27-2.92-2.12-4.17a33,33,0,0,0-3.19-3.49c-1-1.11-2.09-2.37-3.67-2.27a6.91,6.91,0,0,0-3.15,1.34c-1.34.89-1.42,2.15-1.64,3.86-.4,3.18-.63,6.37-.79,9.58a19.76,19.76,0,0,1-.33,2.31c-1.11,6.43-1.65,12.88-3.27,19.27a22.49,22.49,0,0,1-1.65,4.8,22.21,22.21,0,0,1-3.88,5c-3.57,3.78-7.81,7.27-10.93,11.51a12.13,12.13,0,0,0-2.35,4.9c-.42,1.91.61,3.57,1.62,5.08a31.43,31.43,0,0,0,6.4,7.16,22.53,22.53,0,0,1,8.56,18.54c-.41,14.86-4,28.42-7.39,42.61-1.75,7.31-3.94,14.34-4.32,21.9-.85,16.88.59,33.73,3.22,50.41.45,2.87.86,5.82,1.53,8.64.12.51.73,2.15,1.58,4.39l0,.25c-2,22-7.21,43.63-10,65.54q-2.88,22.55-4.54,45.26c-.95,13-3.36,27,.58,39.84,3.74,12.26,11.56,23,21.49,29.61,6.28,4.15,13.48,6.66,20.57,6.16,9.79-.69,31-10,37.25-18.32C430.64,783.76,423.12,772.79,421.77,755Z"/><g class="cls-7"><path class="cls-1" d="M405.56,990.28a8.59,8.59,0,0,1,0-1,101.43,101.43,0,0,1-20.43,1.44,35,35,0,0,0-1.77,5c-.83,3.49-1.14,7-1.66,10.59-.46,3.15-.56,6.37-.76,9.53a39.3,39.3,0,0,0,1.48,12.05c0,.17.09.37.13.59-.84-1.74-1.81-4.13-3.08-7.64a12.18,12.18,0,0,1-.14-8.65,13.63,13.63,0,0,0-1.5,1.64c-1.19,1.5-1.54,3.38-2.27,5.32-.56,1.51-1.89,2.62-1.65,4.38,3.93,28.57-13.31,46.79-10.36,82l2.53,17.39c.12,1.48.23,3.13.33,4.88,8.27.87,16.59,1.29,24.93,1.34,2.46-15.44,6.89-33.83,9.59-50.28a402.61,402.61,0,0,0,5.71-58.69q.08-4.62,0-9.24C406.52,1004.06,406.18,997.16,405.56,990.28Z"/><path class="cls-3" d="M392.28,1002l-1.64-2.12c2.62-2.1,3.68-5.81,4.68-9.36a104,104,0,0,1-11.19.17,133.84,133.84,0,0,1-17.44-1.17c-3.29,6.52-6.53,13.21-11.29,15a22.91,22.91,0,0,0-5.2,2.15c-1.66,1.1-3.33,2.19-5,3.24s-2.88,2.82-4.08,4.51a56.69,56.69,0,0,0-3.22,5.1c-2.54,4.62-2.81,10.23-3,15.31s-.64,10.73,2,15.28c1.66,2.85,4.49,3,7.78,4.2,1.7.62,2.27,3.09,4,3,.68,0,1.48.15,2.13,0s1.54-.69,2.34-.88a17.08,17.08,0,0,0,4.38-1.25c1.41-.77,2.9-1.3,4.28-2.11a23.71,23.71,0,0,1,4.22-2c1.43-.52,3-1.22,4.54-1.61,4.92-1.29,10.84.72,15.83,1.06,6.39.44,2.34-4.3,5.22-7.24,5.74-5.86,13.51-12.37,14.63-21.9C407.51,1010.82,397.8,1009.1,392.28,1002Z"/><path class="cls-4" d="M343.26,1030.58c-1-13.18-3.15-25.49-.8-38.43a15.65,15.65,0,0,0,.38-3.73,130.49,130.49,0,0,1-19.24-2.88c-5.1,5-8.67,12.76-10.12,19.59-.39,1.81-1,3.62-1.24,5.43a21.08,21.08,0,0,0,.26,5.66c.37,3.45.64,6.9,1.88,10.18a39.32,39.32,0,0,0,4,7.73c1.54,2.35,2.35,4.94,3.89,7.26s3,4.81,5.16,6.72c1.68,1.46,3.19,3,5,4.34a20.73,20.73,0,0,0,4.13,1.94c1.83.86,3.1.75,5.11.55,2.4-.23,8-.32,4.86-3.76C342.17,1044.43,343.85,1038.71,343.26,1030.58Z"/><path class="cls-4" d="M321.22,985a6.94,6.94,0,0,0,1.64,1.73c1.39,1,3.93,2.29,5.66,2.28a13.56,13.56,0,0,0,4.42-1.68Q327,986.4,321.22,985Z"/><path class="cls-3" d="M352.62,988.81a134.66,134.66,0,0,1-19.38-1.46c.8,13.58,4.91,25.51,6.51,39.72.17,1.46.06,3,.16,4.47.39,5.26,1.42,10.51,1.62,15.75.18,4.6.79,9.17,1.21,13.74a59.55,59.55,0,0,0,1.23,9c.75,3,1.54,6.15,2.57,9.18l29.22,21.48c-2.09-11.1-2.39-22.16-2.46-33.42a302.75,302.75,0,0,0-2.11-30.39c-1.39-12.93,0-28.17,4.76-40.27a55.76,55.76,0,0,1,1.74-6.17,134.37,134.37,0,0,1-15.77-1.73C358.85,988.9,355.75,988.93,352.62,988.81Z"/><path class="cls-5" d="M377.12,990.45c-.1.3-.19.6-.28.9-1.07,3.73-1.52,5.42-2.46,9.18,0-.07.56.27.59.21a30,30,0,0,1,3.26-6.19,31,31,0,0,0,2.07-4C379.24,990.56,378.18,990.51,377.12,990.45Z"/></g><path class="cls-8" d="M148.79,61.4a36.73,36.73,0,0,1,8.33-23.32,34.4,34.4,0,0,0-45.48-4.38A34.43,34.43,0,0,0,131.9,96a34.33,34.33,0,0,0,25.32-11.11A36.76,36.76,0,0,1,148.79,61.4ZM138,75.49s-3.7-.27-11.47-.27a25.63,25.63,0,0,0-4.93.31l-1.35-2.46c7.78-7.9,12.4-13.63,13-18.71.47-3.66-2-4.82-4.35-4.66a9.73,9.73,0,0,0-6.73,3.92c-.2-.23-1.93-2.07-1.47-2.65A12.43,12.43,0,0,1,130,46.12c5.89,0,9.09,3,8.74,8.51-.46,7-8,13.59-12.63,17.55l8.32-.08c1.77-.15,3-2.54,3.81-4.73,0,0,1.73.5,2,1C139.58,71.53,138.81,75.49,138,75.49Z"/><path class="cls-8" d="M95.79,61.4A36.74,36.74,0,0,1,104.16,38a34.44,34.44,0,1,0,.11,46.9A36.78,36.78,0,0,1,95.79,61.4ZM87.2,75.66H70.92L71,73.39l4.46-.58c.58,0,.81-.23.81-1,.08-10.05,0-19.6,0-19.6l-5.62,1.08c-.19-.31-1.12-2.46-.46-2.73l10.35-4,1,1s-.12,20.87,0,24.37c0,.77.19,1,.73,1l5.08.54Z"/><path class="cls-8" d="M201.79,61.4A36.74,36.74,0,0,1,210.16,38a34.43,34.43,0,0,0-47.76-2.48A34.8,34.8,0,0,0,172,93.43a34.41,34.41,0,0,0,38.24-8.51A36.78,36.78,0,0,1,201.79,61.4ZM181.35,75.49a15.64,15.64,0,0,1-7.86-2.19l1-2.89a21.48,21.48,0,0,0,7,1.66c3.35,0,5.51-1.74,5.55-5.24,0-2.46-1.43-4.35-4.47-4.74a17.82,17.82,0,0,0-5,.24c-.5.11-.89-3-.42-3.08,3-.54,7.62-1.08,8.39-4.89.73-3.62-2-4.82-4.35-4.66A8.43,8.43,0,0,0,175,52.82c-.2-.23-1.7-2.12-1-3a10.43,10.43,0,0,1,8.16-3.69c5.89,0,9.12,3,8.74,8.51a6,6,0,0,1-4,4.5c3.47.62,5.47,2.93,5.66,6.7C192.9,71.83,188,75.49,181.35,75.49Z"/><circle cx="236" cy="61.53" r="34.44"/><path class="cls-9" d="M237.43,67l-10.13-.08c-.11,0-1.42.2-1.42.2S225,65,225.3,64.79c.89-.46,12.94-16.86,14-18.63l3.2.53c-.08,3.93,0,11.36,0,17.41l4.7-.08c.34,0,.07,3-.54,3h-4.12c0,2.27,0,3.46.07,4.39,0,.77.2,1,.74,1l2.34.54-.07,2.23h-11.4l.08-2.27,2.23-.58c.58-.15.81-.23.81-1C237.39,69.72,237.39,68.68,237.43,67Zm-7.12-3h7.12c0-7,0-10.05,0-10.05S230.31,64.06,230.31,64.06Z"/><path d="M296.49,50.34l-.27,3.12h-5.55V71.34h-3.75V53.46h-5.76V50.34Z"/><path d="M302.64,48.42v9.72a5.86,5.86,0,0,1,5.16-2.67c3.69,0,5.46,2.37,5.46,5.61V71.34h-3.72V62.28c0-2.4-.9-3.69-2.94-3.69-2.85,0-4,2.31-4,4.83v7.92h-3.72V48.87Z"/><path d="M330.78,67a7,7,0,0,1-6.78,4.5c-5.28,0-7.62-3.3-7.62-8.22s3.3-7.95,7.83-7.83c3.69.09,7,2.85,6.63,7.86l-.06.48H320.16c0,2.67,1.14,4.5,3.87,4.5a3.5,3.5,0,0,0,3.39-2.49ZM327,61.89c.06-2.43-1.26-3.57-3.09-3.51a3.5,3.5,0,0,0-3.54,3.51Z"/><path d="M343.32,55.62l.57,2.79a5.8,5.8,0,0,1,5.37-2.94c3.69,0,5.46,2.37,5.46,5.61V71.34H351V62.28c0-2.4-.9-3.69-2.94-3.69-2.85,0-4,2.31-4,4.83v7.92h-3.72V55.62Z"/><path d="M372.3,67a7,7,0,0,1-6.78,4.5c-5.28,0-7.62-3.3-7.62-8.22s3.3-7.95,7.83-7.83c3.69.09,7,2.85,6.63,7.86l-.06.48H361.68c0,2.67,1.14,4.5,3.87,4.5a3.5,3.5,0,0,0,3.39-2.49Zm-3.81-5.13c.06-2.43-1.26-3.57-3.09-3.51a3.5,3.5,0,0,0-3.54,3.51Z"/><path d="M378.39,55.62l3.15,6.18,3.3-6.18h4l-4.35,7.8L389,71.34h-4.26l-3.3-6.12L378,71.34h-4.14l4.83-7.86-4.29-7.86Z"/><path d="M396.81,51.18v4.59h4l-.51,3h-3.45V66c0,1.71.78,2.37,2,2.37a6.83,6.83,0,0,0,2.37-.69l.69,2.85a9.82,9.82,0,0,1-4,1c-3.69,0-4.83-2.46-4.83-5V58.77H390.9v-3h2.37l.45-4.17Z"/><path d="M424.35,67a7,7,0,0,1-6.78,4.5c-5.28,0-7.62-3.3-7.62-8.22s3.3-7.95,7.83-7.83c3.69.09,7,2.85,6.63,7.86l-.06.48H413.73c0,2.67,1.14,4.5,3.87,4.5A3.5,3.5,0,0,0,421,65.82Zm-3.81-5.13c.06-2.43-1.26-3.57-3.09-3.51a3.5,3.5,0,0,0-3.54,3.51Z"/><path d="M431.4,48.42V66.21c0,1.68.75,2.13,1.86,2.13a2.93,2.93,0,0,0,1.56-.57l.69,2.67a6.47,6.47,0,0,1-3.39,1.08c-3.12,0-4.44-2.1-4.44-5V48.87Z"/><path d="M450.69,67a7,7,0,0,1-6.78,4.5c-5.28,0-7.62-3.3-7.62-8.22s3.3-7.95,7.83-7.83c3.69.09,7,2.85,6.63,7.86l-.06.48H440.07c0,2.67,1.14,4.5,3.87,4.5a3.5,3.5,0,0,0,3.39-2.49Zm-3.81-5.13c.06-2.43-1.26-3.57-3.09-3.51a3.5,3.5,0,0,0-3.54,3.51Z"/><path d="M457,55.62l.54,2.79a5.25,5.25,0,0,1,4.86-3,4.58,4.58,0,0,1,4.68,2.91,5.53,5.53,0,0,1,5.07-2.91c3.69,0,5.13,2.4,5.13,5.64V71.34h-3.72V62.28c0-2.4-.57-3.69-2.61-3.69-2.7,0-3.42,2-3.42,4.35v8.4H463.8V62.28c0-2.4-.57-3.69-2.61-3.69-2.88,0-3.45,2.31-3.45,4.83v7.92H454V55.62Z"/><path d="M494.85,67a7,7,0,0,1-6.78,4.5c-5.28,0-7.62-3.3-7.62-8.22s3.3-7.95,7.83-7.83c3.69.09,7,2.85,6.63,7.86l-.06.48H484.23c0,2.67,1.14,4.5,3.87,4.5a3.5,3.5,0,0,0,3.39-2.49ZM491,61.89c.06-2.43-1.26-3.57-3.09-3.51a3.5,3.5,0,0,0-3.54,3.51Z"/><path d="M501.12,55.62l.57,2.79a5.8,5.8,0,0,1,5.37-2.94c3.69,0,5.46,2.37,5.46,5.61V71.34H508.8V62.28c0-2.4-.9-3.69-2.94-3.69-2.85,0-4,2.31-4,4.83v7.92h-3.72V55.62Z"/><path d="M521.13,51.18v4.59h4l-.51,3h-3.45V66c0,1.71.78,2.37,2,2.37a6.83,6.83,0,0,0,2.37-.69l.69,2.85a9.82,9.82,0,0,1-4,1c-3.69,0-4.83-2.46-4.83-5V58.77h-2.19v-3h2.37L518,51.6Z"/><path d="M539.76,55.62V71.34H536V58.71h-2.19V55.62Zm-1.89-6.12a2,2,0,0,1,2.22,1.89,2.22,2.22,0,0,1-4.41,0A1.93,1.93,0,0,1,537.87,49.5Z"/><path d="M544,66.84a8.15,8.15,0,0,0,5.1,1.74c1.8,0,2.85-.54,2.85-1.83,0-3.06-9.09-1-8.79-6.78.12-2.82,2.19-4.5,6.36-4.5a12.78,12.78,0,0,1,5.67,1.47l-1.32,2.64a8.9,8.9,0,0,0-4.5-1.29c-1.47,0-2.7.48-2.64,1.71.18,2.49,8.91.57,8.91,6.63,0,3.24-2.91,4.92-6.63,4.89a10.76,10.76,0,0,1-6.45-2Z"/><path d="M569.79,51.18v4.59h4l-.51,3h-3.45V66c0,1.71.78,2.37,2,2.37a6.83,6.83,0,0,0,2.37-.69l.69,2.85a9.82,9.82,0,0,1-4,1c-3.69,0-4.83-2.46-4.83-5V58.77h-2.19v-3h2.37l.45-4.17Z"/><path d="M581,48.42v9.72a5.86,5.86,0,0,1,5.16-2.67c3.69,0,5.46,2.37,5.46,5.61V71.34h-3.72V62.28c0-2.4-.9-3.69-2.94-3.69-2.85,0-4,2.31-4,4.83v7.92h-3.72V48.87Z"/><path d="M609.12,67a7,7,0,0,1-6.78,4.5c-5.28,0-7.62-3.3-7.62-8.22s3.3-7.95,7.83-7.83c3.69.09,7,2.85,6.63,7.86l-.06.48H598.5c0,2.67,1.14,4.5,3.87,4.5a3.5,3.5,0,0,0,3.39-2.49Zm-3.81-5.13c.06-2.43-1.26-3.57-3.09-3.51a3.5,3.5,0,0,0-3.54,3.51Z"/><path d="M632.52,67a7,7,0,0,1-6.78,4.5c-5.28,0-7.62-3.3-7.62-8.22s3.3-7.95,7.83-7.83c3.69.09,7,2.85,6.63,7.86l-.06.48H621.9c0,2.67,1.14,4.5,3.87,4.5a3.5,3.5,0,0,0,3.39-2.49Zm-3.81-5.13c.06-2.43-1.26-3.57-3.09-3.51a3.5,3.5,0,0,0-3.54,3.51Z"/><path d="M638.79,55.62l.57,2.79a5.8,5.8,0,0,1,5.37-2.94c3.69,0,5.46,2.37,5.46,5.61V71.34h-3.72V62.28c0-2.4-.9-3.69-2.94-3.69-2.85,0-4,2.31-4,4.83v7.92h-3.72V55.62Z"/><path d="M658.8,51.18v4.59h4l-.51,3H658.8V66c0,1.71.78,2.37,2,2.37a6.83,6.83,0,0,0,2.37-.69l.69,2.85a9.82,9.82,0,0,1-4,1c-3.69,0-4.83-2.46-4.83-5V58.77h-2.19v-3h2.37l.45-4.17Z"/><path d="M669,55.62l.69,3.24c.72-2.4,2.55-3.45,5.1-3.39a6.19,6.19,0,0,1,1.62.27L675.84,59a6.48,6.48,0,0,0-2.25-.3c-2.76.09-3.81,2.22-3.81,4.74v7.89h-3.72V55.62Z"/><path d="M682.32,55.62l3.87,11.1h.24L690,55.62h3.84l-5.82,16c-1.92,5.25-3.72,6.57-9.27,5.4l.66-3.15c3.54.87,4,.06,5.13-3L678.6,55.62Z"/><path class="cls-10" d="M480.72,1002.16c6.43-1.51,12.79-3,19-4.65s12.31-3.36,17.95-5.4a70.71,70.71,0,0,0,7.91-3.34,22.33,22.33,0,0,0,5.83-4,8.38,8.38,0,0,0,1.44-2.12,7.41,7.41,0,0,0,.65-2.22,9.81,9.81,0,0,0-.06-2.74c-.15-1-.44-2.11-.61-3.39l.89-.44a14.56,14.56,0,0,1,4.78,2.23,9,9,0,0,1,3,3.55,6.22,6.22,0,0,1,.28,4.37,10.2,10.2,0,0,1-2.56,4,28.14,28.14,0,0,1-8.3,5.48,70.29,70.29,0,0,1-9.51,3.51,141.65,141.65,0,0,1-20,4.2,170.84,170.84,0,0,1-20.54,1.7Z"/><path class="cls-10" d="M290.25,1004.74a174.68,174.68,0,0,1-21.35-1.1,136.43,136.43,0,0,1-21-3.88,62.41,62.41,0,0,1-10-3.64c-3.16-1.53-6.26-3.46-8.29-6.14a8.46,8.46,0,0,1-1.82-4.35A7,7,0,0,1,229,981.3a14.52,14.52,0,0,1,8.4-5.55l.88.44c-.22,1.32-.63,2.44-.89,3.52a18.33,18.33,0,0,0-.56,3,7.63,7.63,0,0,0,.16,2.47,5.72,5.72,0,0,0,1,2.22,16.19,16.19,0,0,0,5.43,4.12,59.75,59.75,0,0,0,8.11,3.36,191.88,191.88,0,0,0,18.84,5.08c6.54,1.48,13.25,2.79,20,4.1Z"/><path class="cls-10" d="M436.57,1009.09a300.5,300.5,0,0,1-55.48,3.95,403.17,403.17,0,0,1-51.39-3.28l-5.95-.32-.39.49a175.34,175.34,0,0,0,28.18,5c2.47.23,4.93.51,7.42.68s5,.33,7.5.48,5,.18,7.56.27c1.25,0,2.52,0,3.78,0l3.79,0,3.79,0,3.79-.1c2.52-.11,5-.15,7.55-.31,5-.35,10-.65,14.9-1.29a184,184,0,0,0,28-5.24l-.37-.5Z"/><path class="cls-11" d="M319.65,998.28c-5.42-.89-10.81-1.85-16.11-2.92S293,993.09,288,991.68a101.49,101.49,0,0,1-14-4.92,24.68,24.68,0,0,1-5.17-3,6.14,6.14,0,0,1-1.43-1.5,2.65,2.65,0,0,1-.45-1.38c-.12-4.19,6.7-8.92,11.51-11.16,2.54-1.18,5.34-2.1,7.84-3.31a34.88,34.88,0,0,0-9,1.19,57.71,57.71,0,0,0-8.08,2.48A31.92,31.92,0,0,0,261.9,974a13.85,13.85,0,0,0-2.94,2.88,7.36,7.36,0,0,0-1.52,3.75,6.66,6.66,0,0,0,1,4,11.9,11.9,0,0,0,2.93,3.16,31.19,31.19,0,0,0,7.59,4.1,102,102,0,0,0,16.44,4.44c11.1,2.13,22.19,3.64,33.36,4.81s22.36,2,33.58,2.67l.16-.72C341.47,1001.6,330.49,1000.06,319.65,998.28Z"/><path class="cls-11" d="M511.11,977.92a9,9,0,0,0-1.82-3.2,19.92,19.92,0,0,0-6.07-4.55,40.93,40.93,0,0,0-7.29-2.87,46.27,46.27,0,0,0-7.95-1.62l-.48.66.17.11a61.17,61.17,0,0,1,9.91,4.19c3,1.75,5.13,4.31,5.15,7s-2.06,5.22-5.28,6.84a33.25,33.25,0,0,1-3.27,1.73A98,98,0,0,1,481.29,991c-4.61,1.42-9.46,2.61-14.38,3.69s-9.93,2-15,2.94c-10.09,1.81-20.32,3.36-30.6,4.84l.17.71c10.49-.68,21-1.53,31.4-2.73s20.8-2.74,31.14-4.88a97.73,97.73,0,0,0,15.29-4.33,34.94,34.94,0,0,0,7.05-3.72,16.45,16.45,0,0,0,2.93-2.65,8.86,8.86,0,0,0,1.82-3.33A6.49,6.49,0,0,0,511.11,977.92Z"/><path class="cls-11" d="M383.09,990.11a316.56,316.56,0,0,1-77.89-9.4l-4.49-1-.51.51c3,1.23,6.08,2.29,9.26,3.29s6.45,1.92,9.76,2.78,6.71,1.61,10.11,2.34c1.72.35,3.43.72,5.16,1s3.47.64,5.23.92A276.11,276.11,0,0,0,383,994.26c6.31.06,12.63-.14,18.9-.53,5.2-.46,15-1.53,20.08-2.23a217.94,217.94,0,0,0,24.57-4.87c7-1.81,14.7-3.72,19.32-7.18-.61.46-2.92.84-3.87,1.1-1.53.43-3.08.83-4.63,1.23q-4.5,1.14-9.12,2.14c-6.16,1.32-12.47,2.44-18.88,3.35a292,292,0,0,1-39.78,2.89C387.41,990.17,385.25,990.16,383.09,990.11Z"/></svg>