<svg id="Layer_1" data-name="Layer 1" xmlns="http://www.w3.org/2000/svg" viewBox="0 0 780 1051.14"><defs><style>.cls-1,.cls-5{opacity:0.37;}.cls-2{fill:#b58362;}.cls-2,.cls-3{stroke:#fff;stroke-miterlimit:10;stroke-width:0.42px;}.cls-3{fill:#c6946f;}.cls-4,.cls-5,.cls-6{fill:#fff;}.cls-4{opacity:0.7;}.cls-6{font-size:38.5px;font-family:ABCSerifBold, ABCSerif;}.cls-7{fill:#abd6ee;}.cls-8{fill:#66b7e4;}</style></defs><g class="cls-1"><path class="cls-2" d="M373.81,983.35l-3.86.24a17.35,17.35,0,0,0,12.35,1A68.21,68.21,0,0,1,373.81,983.35Z"/><path class="cls-3" d="M403.63,983.72c-9.86,1.41-19.7,1.81-29.82-.37-4.51.3-9,.56-13.56.59a55.09,55.09,0,0,1-6.95-.39c-2.4,15.26-5.53,30.43-7.49,45.74-.71,5.53-1.34,21.08-1.94,26.63.32.06.64.14.95.21a68.61,68.61,0,0,1,15.07,3c2.26.49,4.49,1.07,6.69,1.78a248.18,248.18,0,0,0,41.6-1.08,75.55,75.55,0,0,1,10.79-2c-1.59-6.32-3.09-23.13-4.1-31.53C412.87,1009.77,409.58,997.52,403.63,983.72Z"/></g><path class="cls-2" d="M356.93,963.06c.15.79,1.28,4.28,2.71,8.61a20.56,20.56,0,0,0,5.84,9c7.65.17,15.28.73,22.91,1.32l2.45-1.16c6.31-3,10.1-10.09,9.31-17.56-.5-4.73-1.06-9.46-1.58-14.2-.85-7.65-2.79-27.8-3.88-35.42-.39-2.73-.75-5.47-1-8.22-.18-2-.06-4-.18-6-.71-12.11-.45-24.23-.1-36.33.33-11.55.61-22.67,3-34A152.59,152.59,0,0,0,399.33,806c.42-7.53-1.1-14.54-1.43-22-.13-2.91,0-5.83-.09-8.74-.24-5-.65-12.92-2.81-17.42-.66-1.38-1.11-3-1.89-4.28a34,34,0,0,0-3-3.65c-.94-1.16-1.95-2.47-3.54-2.45a7,7,0,0,0-3.22,1.17c-1.38.82-1.52,2.08-1.83,3.77-.56,3.15-1,6.33-1.29,9.52a21.26,21.26,0,0,1-.45,2.3c-1.44,6.36-2.32,12.77-4.27,19.07a23.3,23.3,0,0,1-1.89,4.71,22.59,22.59,0,0,1-4.14,4.79c-3.76,3.59-8.18,6.86-11.51,10.92a12.17,12.17,0,0,0-2.6,4.78c-.52,1.88.41,3.6,1.35,5.16a31.92,31.92,0,0,0,6,7.48A22.51,22.51,0,0,1,370.3,840c-1.18,14.82-5.45,28.18-9.59,42.18q-1.44,4.88-2.89,9.77c-.68,2.32-2.24,5-2.27,7.54-.09,6.78-1.36,16.42-1.5,23.21-.14,6.41,1.13,25.24,1.8,31.63C356.15,957.24,356.41,960.2,356.93,963.06Z"/><path class="cls-3" d="M352.67,817a22.53,22.53,0,0,1,8.56,18.54c-.41,14.86-4,28.42-7.39,42.61-1.75,7.31-3.94,14.33-4.32,21.9-.85,16.88.59,33.72,3.22,50.41.45,2.86.86,5.81,1.53,8.64.12.51.73,2.14,1.58,4.38l0,.26c-.51,5.68-1.24,11.34-2.09,17,16.58-.73,33.08,1.26,49.62,2.31-1.44-3.28-3-6.66-4.77-10.2a4.26,4.26,0,0,1-.51-1.49,4.78,4.78,0,0,1,.28-1.58c1.89-6.68-2.14-20.22-3.22-26.86-1.25-7.59-4.24-27.61-5.72-35.17-.53-2.7-1-5.42-1.43-8.16-.28-2-.26-4-.48-5.93-1.35-12-1.71-24.17-2-36.27-.27-11.55-.56-22.68,1.22-34.07A152.38,152.38,0,0,0,388.45,800c0-7.54-1.86-14.47-2.58-21.93-.28-2.9-.25-5.82-.54-8.72-.5-5-1.33-12.87-3.71-17.25A45.28,45.28,0,0,0,379.5,748a33,33,0,0,0-3.19-3.49c-1-1.11-2.09-2.37-3.67-2.27a6.81,6.81,0,0,0-3.15,1.34c-1.34.88-1.42,2.15-1.64,3.86-.4,3.18-.63,6.37-.79,9.57a19.63,19.63,0,0,1-.33,2.32c-1.11,6.43-1.65,12.88-3.27,19.26a17.4,17.4,0,0,1-5.53,9.81c-3.57,3.78-7.81,7.27-10.93,11.5a12.24,12.24,0,0,0-2.35,4.91c-.42,1.91.61,3.57,1.62,5.08A31.65,31.65,0,0,0,352.67,817Z"/><path d="M256.14,225.66l-.22,2.56h-4.57v14.7h-3.08v-14.7h-4.73v-2.56Z"/><path d="M261.2,224.08v8a4.81,4.81,0,0,1,4.24-2.2c3,0,4.48,1.95,4.48,4.61v8.44h-3.05v-7.45c0-2-.74-3-2.42-3-2.34,0-3.25,1.9-3.25,4v6.51h-3.06V224.45Z"/><path d="M284.33,239.37a5.75,5.75,0,0,1-5.57,3.69c-4.34,0-6.27-2.71-6.27-6.75s2.72-6.54,6.44-6.44c3,.08,5.74,2.35,5.45,6.46l-.05.4H275.6c0,2.19.94,3.7,3.18,3.7a2.89,2.89,0,0,0,2.79-2.05Zm-3.13-4.22c.05-2-1-2.93-2.54-2.88a2.87,2.87,0,0,0-2.91,2.88Z"/><path d="M292.42,230.81a15.42,15.42,0,0,1,4.88-.94c3.9,0,5.33,1.93,5.33,4.94V240a.65.65,0,0,0,.62.74,2.45,2.45,0,0,0,1-.15v2a5.09,5.09,0,0,1-2.05.39,2.32,2.32,0,0,1-2.34-1.75,5.63,5.63,0,0,1-3.9,1.75c-2.51,0-4.39-1.28-4.41-4s2-4.1,5.25-4.1a19.85,19.85,0,0,1,2.79.25v-.77c0-1.4-.89-2.17-2.67-2.14a10.39,10.39,0,0,0-4,.79Zm7.15,6a13.88,13.88,0,0,0-2.51-.15c-1.48.08-2.42.77-2.44,2.07a1.81,1.81,0,0,0,2.09,1.9,5.07,5.07,0,0,0,2.86-1Z"/><path d="M310.4,230v12.92h-3.08V232.54h-1.8V230Zm-1.55-5a1.65,1.65,0,0,1,1.82,1.55,1.82,1.82,0,0,1-3.62,0A1.59,1.59,0,0,1,308.85,225Z"/><path d="M316,230l.44,2.29a4.31,4.31,0,0,1,4-2.44,3.77,3.77,0,0,1,3.85,2.39,4.52,4.52,0,0,1,4.16-2.39c3,0,4.22,2,4.22,4.63v8.44h-3.06v-7.45c0-2-.47-3-2.14-3-2.22,0-2.82,1.67-2.82,3.57v6.91h-3v-7.45c0-2-.47-3-2.15-3-2.37,0-2.83,1.9-2.83,4v6.51h-3.06V230Z"/><path d="M345,230v12.92h-3.09V232.54h-1.8V230Zm-1.56-5a1.65,1.65,0,0,1,1.83,1.55,1.83,1.83,0,0,1-3.63,0A1.59,1.59,0,0,1,343.4,225Z"/><path d="M348.46,239.22a6.68,6.68,0,0,0,4.19,1.43c1.48,0,2.34-.44,2.34-1.51,0-2.51-7.47-.83-7.22-5.57.1-2.32,1.8-3.7,5.23-3.7a10.49,10.49,0,0,1,4.66,1.21l-1.09,2.17a7.36,7.36,0,0,0-3.7-1.06c-1.21,0-2.22.4-2.17,1.41.15,2,7.33.46,7.33,5.45,0,2.66-2.4,4-5.45,4a8.87,8.87,0,0,1-5.31-1.67Z"/><path d="M365.87,230.81a15.36,15.36,0,0,1,4.88-.94c3.9,0,5.33,1.93,5.33,4.94V240a.65.65,0,0,0,.62.74,2.45,2.45,0,0,0,1-.15v2a5.09,5.09,0,0,1-2,.39,2.32,2.32,0,0,1-2.34-1.75,5.63,5.63,0,0,1-3.9,1.75c-2.51,0-4.39-1.28-4.41-4s2-4.1,5.25-4.1a19.85,19.85,0,0,1,2.79.25v-.77c0-1.4-.89-2.17-2.67-2.14a10.39,10.39,0,0,0-4,.79Zm7.15,6a13.88,13.88,0,0,0-2.51-.15c-1.48.08-2.42.77-2.44,2.07a1.8,1.8,0,0,0,2.09,1.9,5.07,5.07,0,0,0,2.86-1Z"/><path d="M388.24,225.31c-1.16,0-2,.62-2,1.36,0,.22.27.44.27.44a1.42,1.42,0,0,1,1.66,1.55,1.65,1.65,0,0,1-1.75,1.56c-1.71,0-2.35-1.36-2.22-2.91.19-2.37,2-3.31,4-3.33Z"/><path d="M393.05,230l.57,2.66c.59-2,2.09-2.84,4.19-2.79a5.2,5.2,0,0,1,1.33.23l-.47,2.68a5.29,5.29,0,0,0-1.85-.24c-2.27.07-3.13,1.82-3.13,3.89v6.49h-3.06V230Z"/><path d="M405.06,230v12.92H402V232.54h-1.8V230Zm-1.55-5a1.65,1.65,0,0,1,1.82,1.55,1.82,1.82,0,0,1-3.62,0A1.59,1.59,0,0,1,403.51,225Z"/><path d="M410.66,230l.44,2.31a4.71,4.71,0,0,1,4.42-2.44c2.44.08,5.08,1.73,5.08,6.49,0,3.89-2,6.7-5.48,6.7A4,4,0,0,1,411.3,241v6.88h-3.08V230Zm.42,6.43c0,2.22.81,4,3.28,4,2,0,3.1-1.51,3.1-4.05,0-3-1.5-3.94-3.13-3.94S411.08,233.84,411.08,236.43Z"/><path d="M439.79,239.37a5.77,5.77,0,0,1-5.58,3.69c-4.34,0-6.26-2.71-6.26-6.75s2.71-6.54,6.44-6.44c3,.08,5.74,2.35,5.44,6.46l0,.4h-8.73c0,2.19.93,3.7,3.18,3.7a2.87,2.87,0,0,0,2.78-2.05Zm-3.14-4.22c.05-2-1-2.93-2.54-2.88a2.86,2.86,0,0,0-2.9,2.88Z"/><path d="M444.94,230l.47,2.29a4.8,4.8,0,0,1,4.42-2.42c3,0,4.48,1.95,4.48,4.61v8.44h-3.05v-7.45c0-2-.74-3-2.42-3-2.34,0-3.26,1.9-3.26,4v6.51h-3.05V230Z"/><path d="M461.39,226.35v3.77h3.26l-.42,2.47h-2.84v5.91c0,1.41.64,1.95,1.68,1.95a5.76,5.76,0,0,0,1.95-.56l.56,2.34a8.14,8.14,0,0,1-3.27.83c-3,0-4-2-4-4.14v-6.33h-1.8v-2.47h1.94l.37-3.43Z"/><path d="M469.78,230l.57,2.66c.59-2,2.09-2.84,4.19-2.79a5.2,5.2,0,0,1,1.33.23l-.47,2.68a5.29,5.29,0,0,0-1.85-.24c-2.27.07-3.13,1.82-3.13,3.89v6.49h-3.06V230Z"/><path d="M480.73,230l3.18,9.12h.2L487,230h3.15l-4.78,13.11c-1.58,4.32-3.06,5.4-7.62,4.44l.54-2.59c2.91.72,3.31,0,4.22-2.49L477.67,230Z"/><path d="M493.43,227.11a1.45,1.45,0,0,1-1.65-1.58,1.64,1.64,0,0,1,1.75-1.55c1.7,0,2.34,1.36,2.22,2.91-.17,2.37-2,3.3-4,3.33v-1.33c1.18,0,2-.62,2-1.36C493.7,227.31,493.43,227.11,493.43,227.11Z"/><path d="M499,242.57A1.41,1.41,0,0,1,497.4,241a1.6,1.6,0,0,1,1.73-1.52c1.7,0,2.37,1.33,2.24,2.91-.19,2.34-2,3.27-4,3.3v-1.33c1.16,0,2-.62,2-1.36C499.33,242.79,499,242.57,499,242.57Z"/><path d="M259.41,263.91l2.51,9h.2l2.52-9h3.15l2.54,9h.17l2.57-9h3.18l-4.34,12.92h-3l-2.64-8.73H266l-2.54,8.73h-3l-4.24-12.92Z"/><path d="M282.25,263.91v12.92h-3.09V266.45h-1.8v-2.54Zm-1.56-5a1.6,1.6,0,1,1,0,3.16,1.63,1.63,0,0,1-1.8-1.63A1.59,1.59,0,0,1,280.69,258.88Z"/><path d="M289.38,260.26V264h3.25l-.42,2.47h-2.83v5.92c0,1.4.64,1.95,1.67,1.95a5.72,5.72,0,0,0,1.95-.57l.57,2.34a8.16,8.16,0,0,1-3.28.84c-3,0-4-2-4-4.14V266.5h-1.8V264h1.94l.37-3.42Z"/><path d="M298.57,258v8a4.83,4.83,0,0,1,4.25-2.19c3,0,4.48,1.94,4.48,4.61v8.43h-3.05v-7.45c0-2-.74-3-2.42-3-2.34,0-3.26,1.9-3.26,4v6.51h-3.05V258.36Z"/><path d="M317.94,263.91l.46,2.29a4.77,4.77,0,0,1,4.42-2.41c3,0,4.49,1.94,4.49,4.61v8.43h-3.06v-7.45c0-2-.74-3-2.42-3-2.34,0-3.25,1.9-3.25,4v6.51h-3.06V263.91Z"/><path d="M336.24,263.79c3.23,0,6,2.19,6,6.6,0,3.63-2.15,6.59-6.17,6.59-4.36,0-6.16-3-6.16-6.59C330,266,332.73,263.79,336.24,263.79Zm-3.09,6.6c0,2.05.69,4,3,4,2.1,0,3-1.95,3-4,0-2.85-1.4-4-2.95-4C334.53,266.38,333.15,267.48,333.15,270.39Z"/><path d="M350.49,273.13a6.72,6.72,0,0,0,4.19,1.43c1.48,0,2.35-.44,2.35-1.5,0-2.52-7.47-.84-7.23-5.58.1-2.31,1.8-3.69,5.23-3.69a10.55,10.55,0,0,1,4.66,1.2l-1.08,2.17a7.41,7.41,0,0,0-3.7-1.06c-1.21,0-2.22.4-2.17,1.41.14,2.05,7.32.47,7.32,5.45,0,2.66-2.39,4-5.45,4a8.86,8.86,0,0,1-5.3-1.68Z"/><path d="M365,263.91l.45,2.32a4.67,4.67,0,0,1,4.41-2.44c2.44.07,5.08,1.72,5.08,6.48,0,3.9-1.95,6.71-5.47,6.71a4,4,0,0,1-3.82-2.1v6.88h-3.09V263.91Zm.42,6.44c0,2.21.82,4,3.28,4,2,0,3.11-1.5,3.11-4,0-3-1.5-3.95-3.13-3.95C366.89,266.35,365.41,267.76,365.41,270.35Z"/><path d="M380.68,258v14.62c0,1.38.62,1.76,1.53,1.76a2.42,2.42,0,0,0,1.28-.47l.57,2.19a5.35,5.35,0,0,1-2.79.89c-2.56,0-3.65-1.73-3.65-4.07V258.36Z"/><path d="M386.16,264.72a15.39,15.39,0,0,1,4.88-.93c3.89,0,5.33,1.92,5.33,4.93V274a.65.65,0,0,0,.61.74,2.61,2.61,0,0,0,1-.15v2a4.83,4.83,0,0,1-2,.4,2.34,2.34,0,0,1-2.35-1.75,5.62,5.62,0,0,1-3.89,1.75c-2.52,0-4.39-1.28-4.42-4s2-4.09,5.25-4.09a20,20,0,0,1,2.79.24v-.76c0-1.41-.89-2.17-2.66-2.15a10.47,10.47,0,0,0-4,.79Zm7.15,6a13.13,13.13,0,0,0-2.52-.15c-1.48.07-2.41.76-2.44,2.07a1.82,1.82,0,0,0,2.1,1.9,5.09,5.09,0,0,0,2.86-1Z"/><path d="M400.46,273.13a6.68,6.68,0,0,0,4.19,1.43c1.48,0,2.35-.44,2.35-1.5,0-2.52-7.48-.84-7.23-5.58.1-2.31,1.8-3.69,5.23-3.69a10.55,10.55,0,0,1,4.66,1.2l-1.09,2.17a7.35,7.35,0,0,0-3.69-1.06c-1.21,0-2.22.4-2.17,1.41.14,2.05,7.32.47,7.32,5.45,0,2.66-2.39,4-5.45,4a8.86,8.86,0,0,1-5.3-1.68Z"/><path d="M415.58,258v8a4.81,4.81,0,0,1,4.24-2.19c3,0,4.49,1.94,4.49,4.61v8.43h-3.06v-7.45c0-2-.74-3-2.42-3-2.34,0-3.25,1.9-3.25,4v6.51h-3.06V258.36Z"/><path d="M432.72,264.72a15.45,15.45,0,0,1,4.88-.93c3.9,0,5.33,1.92,5.33,4.93V274a.65.65,0,0,0,.62.74,2.66,2.66,0,0,0,1-.15v2a4.89,4.89,0,0,1-2.05.4,2.33,2.33,0,0,1-2.34-1.75,5.67,5.67,0,0,1-3.9,1.75c-2.51,0-4.39-1.28-4.41-4s2-4.09,5.25-4.09a20,20,0,0,1,2.79.24v-.76c0-1.41-.89-2.17-2.67-2.15a10.39,10.39,0,0,0-4,.79Zm7.15,6a13,13,0,0,0-2.51-.15c-1.48.07-2.42.76-2.44,2.07a1.82,1.82,0,0,0,2.09,1.9,5.06,5.06,0,0,0,2.86-1Z"/><path d="M450.65,260.26V264h3.26l-.42,2.47h-2.84v5.92c0,1.4.64,1.95,1.68,1.95a5.72,5.72,0,0,0,1.95-.57l.56,2.34a8.1,8.1,0,0,1-3.28.84c-3,0-4-2-4-4.14V266.5h-1.8V264h1.95l.37-3.42Z"/><path d="M462.15,264.72a15.39,15.39,0,0,1,4.88-.93c3.89,0,5.32,1.92,5.32,4.93V274a.65.65,0,0,0,.62.74,2.61,2.61,0,0,0,1-.15v2a4.83,4.83,0,0,1-2,.4,2.34,2.34,0,0,1-2.35-1.75A5.62,5.62,0,0,1,465.7,277c-2.52,0-4.39-1.28-4.42-4s2-4.09,5.26-4.09a20,20,0,0,1,2.78.24v-.76c0-1.41-.89-2.17-2.66-2.15a10.47,10.47,0,0,0-4,.79Zm7.15,6a13.13,13.13,0,0,0-2.52-.15c-1.48.07-2.41.76-2.44,2.07a1.82,1.82,0,0,0,2.1,1.9,5.09,5.09,0,0,0,2.86-1Z"/><path d="M479.16,258v14.62c0,1.38.62,1.76,1.53,1.76a2.42,2.42,0,0,0,1.28-.47l.57,2.19a5.31,5.31,0,0,1-2.78.89c-2.57,0-3.65-1.73-3.65-4.07V258.36Z"/><path d="M486.14,258v14.62c0,1.38.62,1.76,1.53,1.76a2.5,2.5,0,0,0,1.29-.47l.56,2.19a5.31,5.31,0,0,1-2.78.89c-2.57,0-3.65-1.73-3.65-4.07V258.36Z"/><path d="M370.85,345.79c0,7.29,0,14.58,0,21.86,0,10.58,0,21.15-.19,31.73a78.57,78.57,0,0,1-.29,8.95c-.24,1.91,2.76,1.9,3,0a65.82,65.82,0,0,0,.27-7.43c.08-4.8.12-9.6.15-14.4q.09-15.86.07-31.73c0-3,0-6,0-9a1.5,1.5,0,0,0-3,0Z"/><path d="M364.05,402.39c2.23,3.23,4.77,6.24,7.23,9.29.67.83,1.84.38,2.36-.3,1.1-1.47,2.27-2.88,3.38-4.32s2.09-2.82,3.16-4.19a1.56,1.56,0,0,0,0-2.12,1.51,1.51,0,0,0-2.12,0c-1.13,1.44-2.19,2.93-3.3,4.37s-2.51,3.14-3.71,4.74l2.35-.3c-2.3-2.86-4.67-5.66-6.76-8.69a1.53,1.53,0,0,0-2.05-.53,1.51,1.51,0,0,0-.54,2.05Z"/><path d="M349.33,51.34l-.42,3.12h-8.75v5.88h8.39l-.06,3.21h-8.33v8.79h-3.72v-21Z"/><path d="M357.16,56.62V72.34h-3.74V59.71h-2.2V56.62Zm-1.89-6.12a2,2,0,0,1,2.22,1.89,2.22,2.22,0,0,1-4.41,0A1.94,1.94,0,0,1,355.27,50.5Z"/><path d="M363.94,56.62l.57,2.79a5.8,5.8,0,0,1,5.37-2.94c3.69,0,5.46,2.37,5.46,5.61V72.34h-3.72V63.28c0-2.4-.9-3.69-2.94-3.69-2.85,0-4,2.31-4,4.83v7.92H361V56.62Z"/><path d="M378.82,57.61a18.74,18.74,0,0,1,5.94-1.14c4.74,0,6.48,2.34,6.48,6v6.36a.79.79,0,0,0,.75.9,3,3,0,0,0,1.23-.18V72a6.08,6.08,0,0,1-2.49.48,2.84,2.84,0,0,1-2.85-2.13,6.87,6.87,0,0,1-4.74,2.13c-3.06,0-5.34-1.56-5.37-4.83s2.46-5,6.39-5a24.49,24.49,0,0,1,3.39.3v-.93c0-1.71-1.08-2.64-3.24-2.61a12.68,12.68,0,0,0-4.86,1Zm8.7,7.35a16.62,16.62,0,0,0-3.06-.18c-1.8.09-2.94.93-3,2.52A2.21,2.21,0,0,0,384,69.61a6.17,6.17,0,0,0,3.48-1.26Z"/><path d="M399.52,49.42V67.21c0,1.68.75,2.13,1.86,2.13a2.93,2.93,0,0,0,1.56-.57l.69,2.67a6.47,6.47,0,0,1-3.39,1.08c-3.12,0-4.44-2.1-4.44-5V49.87Z"/><path d="M408,49.42V67.21c0,1.68.75,2.13,1.86,2.13a2.93,2.93,0,0,0,1.56-.57l.69,2.67a6.47,6.47,0,0,1-3.39,1.08c-3.12,0-4.44-2.1-4.44-5V49.87Z"/><path d="M415.81,56.62l3.87,11.1h.24l3.54-11.1h3.84l-5.82,16c-1.92,5.25-3.72,6.57-9.27,5.4l.66-3.15c3.54.87,4,.06,5.13-3l-5.91-15.18Z"/><path d="M441.07,52.18v4.59h4l-.51,3h-3.45V67c0,1.71.78,2.37,2,2.37a6.83,6.83,0,0,0,2.37-.69l.69,2.85a9.82,9.82,0,0,1-4,1c-3.69,0-4.83-2.46-4.83-5V59.77h-2.19v-3h2.37L438,52.6Z"/><path d="M454.87,56.47c3.93,0,7.35,2.67,7.35,8,0,4.41-2.61,8-7.5,8-5.31,0-7.5-3.6-7.5-8C447.22,59.14,450.61,56.47,454.87,56.47Zm-3.75,8c0,2.49.84,4.86,3.66,4.86,2.55,0,3.69-2.37,3.69-4.86,0-3.48-1.71-4.89-3.6-4.89C452.8,59.62,451.12,61,451.12,64.51Z"/><path d="M472.84,56.77V54.64c0-3.21,1.68-5.22,5.16-5.22a8.57,8.57,0,0,1,2.58.39L480,52.48c-.12,0-.6-.09-1.08-.09-1.65,0-2.34.69-2.34,2.85v1.53h8.79V72.34h-3.72V59.77h-5.07V72.34h-3.75V59.77h-2.46v-3Zm10.71-6.27a2,2,0,0,1,2.19,1.89,2,2,0,0,1-2.19,2,2,2,0,0,1-2.22-2C481.33,51.34,482.11,50.5,483.55,50.5Z"/><path d="M492.16,56.62l.57,2.79a5.8,5.8,0,0,1,5.37-2.94c3.69,0,5.46,2.37,5.46,5.61V72.34h-3.72V63.28c0-2.4-.9-3.69-2.94-3.69-2.85,0-4,2.31-4,4.83v7.92h-3.72V56.62Z"/><path d="M512.23,56.62V72.34h-3.75V59.71h-2.19V56.62Zm-1.89-6.12a2,2,0,0,1,2.22,1.89,2.22,2.22,0,0,1-4.41,0A1.93,1.93,0,0,1,510.34,50.5Z"/><path d="M516.49,67.84a8.15,8.15,0,0,0,5.1,1.74c1.8,0,2.85-.54,2.85-1.83,0-3.06-9.09-1-8.79-6.78.12-2.82,2.19-4.5,6.36-4.5a12.78,12.78,0,0,1,5.67,1.47l-1.32,2.64a8.9,8.9,0,0,0-4.5-1.29c-1.47,0-2.7.48-2.64,1.71.18,2.49,8.91.57,8.91,6.63,0,3.24-2.91,4.92-6.63,4.89a10.76,10.76,0,0,1-6.45-2Z"/><path d="M534.88,49.42v9.72A5.86,5.86,0,0,1,540,56.47c3.69,0,5.46,2.37,5.46,5.61V72.34h-3.72V63.28c0-2.4-.9-3.69-2.94-3.69-2.85,0-4,2.31-4,4.83v7.92h-3.72V49.87Z"/><path d="M550.42,71.92a1.72,1.72,0,0,1-2-1.92,2,2,0,0,1,2.1-1.86c2.07,0,2.88,1.62,2.73,3.54-.24,2.85-2.43,4-4.92,4V74.08c1.41,0,2.43-.75,2.43-1.65C550.78,72.19,550.42,71.92,550.42,71.92Z"/><path d="M567.49,52.18v4.59h4l-.51,3h-3.45V67c0,1.71.78,2.37,2,2.37a6.83,6.83,0,0,0,2.37-.69l.69,2.85a9.82,9.82,0,0,1-4,1c-3.69,0-4.83-2.46-4.83-5V59.77h-2.19v-3H564l.45-4.17Z"/><path d="M578.68,49.42v9.72a5.86,5.86,0,0,1,5.16-2.67c3.69,0,5.46,2.37,5.46,5.61V72.34h-3.72V63.28c0-2.4-.9-3.69-2.94-3.69-2.85,0-4,2.31-4,4.83v7.92H575V49.87Z"/><path d="M606.82,68a7,7,0,0,1-6.78,4.5c-5.28,0-7.62-3.3-7.62-8.22s3.3-7.95,7.83-7.83c3.69.09,7,2.85,6.63,7.86l-.06.48H596.2c0,2.67,1.14,4.5,3.87,4.5a3.5,3.5,0,0,0,3.39-2.49ZM603,62.89c.06-2.43-1.26-3.57-3.09-3.51a3.5,3.5,0,0,0-3.54,3.51Z"/><path d="M616.84,67.84a8.15,8.15,0,0,0,5.1,1.74c1.8,0,2.85-.54,2.85-1.83,0-3.06-9.09-1-8.79-6.78.12-2.82,2.19-4.5,6.36-4.5A12.78,12.78,0,0,1,628,57.94l-1.32,2.64a8.9,8.9,0,0,0-4.5-1.29c-1.47,0-2.7.48-2.64,1.71.18,2.49,8.91.57,8.91,6.63,0,3.24-2.91,4.92-6.63,4.89a10.76,10.76,0,0,1-6.45-2Z"/><path d="M634.48,56.62l.54,2.82a5.71,5.71,0,0,1,5.37-3c3,.09,6.18,2.1,6.18,7.89,0,4.74-2.37,8.16-6.66,8.16A4.88,4.88,0,0,1,635.26,70v8.37h-3.75V56.62Zm.51,7.83c0,2.7,1,4.86,4,4.86,2.43,0,3.78-1.83,3.78-4.92,0-3.66-1.83-4.8-3.81-4.8C636.79,59.59,635,61.3,635,64.45Z"/><path d="M653.56,49.42V67.21c0,1.68.75,2.13,1.86,2.13a2.93,2.93,0,0,0,1.56-.57l.69,2.67a6.47,6.47,0,0,1-3.39,1.08c-3.12,0-4.44-2.1-4.44-5V49.87Z"/><path d="M660.22,57.61a18.74,18.74,0,0,1,5.94-1.14c4.74,0,6.48,2.34,6.48,6v6.36a.79.79,0,0,0,.75.9,3,3,0,0,0,1.23-.18V72a6.08,6.08,0,0,1-2.49.48,2.84,2.84,0,0,1-2.85-2.13,6.87,6.87,0,0,1-4.74,2.13c-3.06,0-5.34-1.56-5.37-4.83s2.46-5,6.39-5A24.49,24.49,0,0,1,669,63v-.93c0-1.71-1.08-2.64-3.24-2.61a12.68,12.68,0,0,0-4.86,1Zm8.7,7.35a16.62,16.62,0,0,0-3.06-.18c-1.8.09-2.94.93-3,2.52a2.21,2.21,0,0,0,2.55,2.31,6.17,6.17,0,0,0,3.48-1.26Z"/><path d="M677.62,67.84a8.15,8.15,0,0,0,5.1,1.74c1.8,0,2.85-.54,2.85-1.83,0-3.06-9.09-1-8.79-6.78.12-2.82,2.19-4.5,6.36-4.5a12.78,12.78,0,0,1,5.67,1.47l-1.32,2.64a8.9,8.9,0,0,0-4.5-1.29c-1.47,0-2.7.48-2.64,1.71.18,2.49,8.91.57,8.91,6.63,0,3.24-2.91,4.92-6.63,4.89a10.76,10.76,0,0,1-6.45-2Z"/><path d="M696,49.42v9.72a5.86,5.86,0,0,1,5.16-2.67c3.69,0,5.46,2.37,5.46,5.61V72.34h-3.72V63.28c0-2.4-.9-3.69-2.94-3.69-2.85,0-4,2.31-4,4.83v7.92h-3.72V49.87Z"/><path class="cls-4" d="M148.79,61.4a36.73,36.73,0,0,1,8.33-23.32,34.4,34.4,0,0,0-45.48-4.38A34.43,34.43,0,0,0,131.9,96a34.33,34.33,0,0,0,25.32-11.11A36.76,36.76,0,0,1,148.79,61.4ZM138,75.49s-3.7-.27-11.47-.27a25.63,25.63,0,0,0-4.93.31l-1.35-2.46c7.78-7.9,12.4-13.63,13-18.71.47-3.66-2-4.82-4.35-4.66a9.73,9.73,0,0,0-6.73,3.92c-.2-.23-1.93-2.07-1.47-2.65A12.43,12.43,0,0,1,130,46.12c5.89,0,9.09,3,8.74,8.51-.46,7-8,13.59-12.63,17.55l8.32-.08c1.77-.15,3-2.54,3.81-4.73,0,0,1.73.5,2,1C139.58,71.53,138.81,75.49,138,75.49Z"/><path class="cls-4" d="M238,27.09a34.28,34.28,0,0,0-22.6,8.46l0,0-.19.16A34.8,34.8,0,0,0,225,93.43a34.44,34.44,0,1,0,13-66.34Zm8.71,40h-4.12c0,2.27,0,3.46.07,4.39,0,.77.2,1,.74,1l2.34.54-.07,2.23h-11.4l.08-2.27,2.23-.58c.58-.15.81-.23.81-1,0-1.69,0-2.73,0-4.39l-10.13-.08c-.11,0-1.42.2-1.42.2S225,65,225.3,64.79c.89-.46,12.94-16.86,14-18.63l3.2.53c-.08,3.93,0,11.36,0,17.41l4.7-.08C247.59,64,247.32,67.06,246.71,67.06Z"/><path class="cls-5" d="M237.43,64.06c0-7,0-10.05,0-10.05s-7.16,10.05-7.16,10.05Z"/><path class="cls-4" d="M95.79,61.4A36.74,36.74,0,0,1,104.16,38a34.44,34.44,0,1,0,.11,46.9A36.78,36.78,0,0,1,95.79,61.4ZM87.2,75.66H70.92L71,73.39l4.46-.58c.58,0,.81-.23.81-1,.08-10.05,0-19.6,0-19.6l-5.62,1.08c-.19-.31-1.12-2.46-.46-2.73l10.35-4,1,1s-.12,20.87,0,24.37c0,.77.19,1,.73,1l5.08.54Z"/><path class="cls-4" d="M201.79,61.4A36.74,36.74,0,0,1,210.16,38a34.43,34.43,0,0,0-47.76-2.48A34.8,34.8,0,0,0,172,93.43a34.41,34.41,0,0,0,38.24-8.51A36.78,36.78,0,0,1,201.79,61.4ZM181.35,75.49a15.64,15.64,0,0,1-7.86-2.19l1-2.89a21.48,21.48,0,0,0,7,1.66c3.35,0,5.51-1.74,5.55-5.24,0-2.46-1.43-4.35-4.47-4.74a17.82,17.82,0,0,0-5,.24c-.5.11-.89-3-.42-3.08,3-.54,7.62-1.08,8.39-4.89.73-3.62-2-4.82-4.35-4.66A8.43,8.43,0,0,0,175,52.82c-.2-.23-1.7-2.12-1-3a10.43,10.43,0,0,1,8.16-3.69c5.89,0,9.12,3,8.74,8.51a6,6,0,0,1-4,4.5c3.47.62,5.47,2.93,5.66,6.7C192.9,71.83,188,75.49,181.35,75.49Z"/><circle cx="291" cy="61.53" r="34.44"/><text class="cls-6" transform="translate(279.45 75.26)">5</text><path class="cls-7" d="M563.89,998.89c11.6-2.41,23.1-4.82,34.33-7.41s22.23-5.35,32.42-8.59a137,137,0,0,0,14.28-5.31,40.61,40.61,0,0,0,10.53-6.33,12.68,12.68,0,0,0,2.6-3.38,10.68,10.68,0,0,0,1.19-3.53,13.53,13.53,0,0,0-.13-4.36c-.26-1.63-.78-3.36-1.08-5.4l1.6-.7a28,28,0,0,1,8.63,3.56,14.9,14.9,0,0,1,5.45,5.65,8.69,8.69,0,0,1,.5,6.95,16.11,16.11,0,0,1-4.61,6.29c-4.13,3.73-9.5,6.46-15,8.72a135.69,135.69,0,0,1-17.18,5.58,282.9,282.9,0,0,1-36.1,6.7,348,348,0,0,1-37.09,2.7Z"/><path class="cls-7" d="M219.89,1003a353.84,353.84,0,0,1-38.57-1.76,273.88,273.88,0,0,1-37.86-6.18,122.35,122.35,0,0,1-18-5.78c-5.7-2.44-11.31-5.51-15-9.78a12.7,12.7,0,0,1-3.3-6.92,10.18,10.18,0,0,1,2.13-6.89c3.14-4.15,8.42-7.19,15.16-8.85l1.59.71c-.39,2.09-1.14,3.87-1.61,5.6a26.78,26.78,0,0,0-1,4.71,10.51,10.51,0,0,0,.28,3.93,8.64,8.64,0,0,0,1.78,3.54c1.93,2.31,5.49,4.57,9.81,6.55a114.81,114.81,0,0,0,14.64,5.35c10.62,3.18,22.23,5.74,34,8.09s23.94,4.45,36.17,6.53Z"/><path class="cls-7" d="M484.14,1009.92a613,613,0,0,1-100.2,6.28,823.58,823.58,0,0,1-92.81-5.21l-10.75-.52-.71.78c15.75,3.9,33.19,6.28,50.91,8,4.45.37,8.9.8,13.4,1.07s9,.53,13.55.78,9.09.28,13.64.42c2.27.09,4.55.08,6.83.09l6.85,0,6.84,0,6.84-.17c4.55-.17,9.12-.24,13.64-.49,9-.56,18.09-1,26.91-2.06a370.15,370.15,0,0,0,50.51-8.34l-.66-.79C487.32,1009.78,485.73,1009.85,484.14,1009.92Z"/><path class="cls-8" d="M273,992.7c-9.79-1.4-19.51-2.93-29.1-4.64s-19-3.6-28.09-5.85a202.54,202.54,0,0,1-25.22-7.84,45.72,45.72,0,0,1-9.33-4.77,10.57,10.57,0,0,1-2.59-2.39,3.81,3.81,0,0,1-.81-2.2c-.22-6.66,12.1-14.2,20.79-17.76,4.58-1.88,9.64-3.35,14.15-5.27a70,70,0,0,0-16.24,1.9,113.35,113.35,0,0,0-14.59,3.94A60.77,60.77,0,0,0,168.68,954a23.64,23.64,0,0,0-5.32,4.59,11,11,0,0,0-2.74,6,9.57,9.57,0,0,0,1.8,6.32,20,20,0,0,0,5.28,5,59.35,59.35,0,0,0,13.71,6.53c9.68,3.27,19.71,5.29,29.7,7.07,20,3.38,40.07,5.79,60.24,7.66s40.39,3.19,60.64,4.23l.29-1.14C312.38,998,292.55,995.55,273,992.7Z"/><path class="cls-8" d="M618.76,960.3a13.69,13.69,0,0,0-3.27-5.1,35.94,35.94,0,0,0-11-7.24,79.88,79.88,0,0,0-13.17-4.56A92,92,0,0,0,577,940.82l-.87,1,.31.17c6.28,2,12.4,3.88,17.89,6.68s9.28,6.86,9.3,11.1-3.71,8.31-9.53,10.9c-1.8.95-3.78,1.88-5.91,2.75a193,193,0,0,1-23.27,7.67c-8.34,2.25-17.1,4.15-26,5.87s-17.93,3.25-27,4.68c-18.21,2.89-36.7,5.36-55.26,7.7l.31,1.14c18.95-1.08,37.87-2.43,56.71-4.36s37.56-4.35,56.24-7.76a194,194,0,0,0,27.62-6.9,64.69,64.69,0,0,0,12.72-5.92,28.58,28.58,0,0,0,5.3-4.2,13.85,13.85,0,0,0,3.29-5.31A9.14,9.14,0,0,0,618.76,960.3Z"/><path class="cls-8" d="M387.56,979.71q-74.61-.11-140.68-15-4.08-.78-8.11-1.61l-.93.82c5.36,1.95,11,3.64,16.74,5.24s11.64,3,17.63,4.41,12.1,2.57,18.26,3.74c3.1.55,6.18,1.13,9.31,1.65s6.27,1,9.44,1.46a564.45,564.45,0,0,0,78.12,5.86c11.4.1,22.81-.22,34.14-.85,9.38-.72,27.06-2.43,36.25-3.55a434.79,434.79,0,0,0,44.38-7.75c12.61-2.87,26.55-5.91,34.9-11.42-1.11.73-5.27,1.34-7,1.75-2.77.67-5.56,1.33-8.38,2q-8.11,1.81-16.46,3.39c-11.12,2.11-22.52,3.89-34.1,5.35a596.87,596.87,0,0,1-71.84,4.6C395.35,979.81,391.46,979.78,387.56,979.71Z"/></svg>