<svg id="Layer_1" data-name="Layer 1" xmlns="http://www.w3.org/2000/svg" viewBox="0 0 780 1051.14"><defs><style>.cls-1{font-size:30px;font-family:ABCSansBold, ABCSans;}.cls-2{letter-spacing:-0.02em;}.cls-3{letter-spacing:-0.04em;}.cls-4{letter-spacing:-0.02em;}.cls-5{letter-spacing:-0.02em;}.cls-6{letter-spacing:0.02em;}.cls-7,.cls-8,.cls-9{fill:#fff;}.cls-7{opacity:0.7;}.cls-8{opacity:0.37;}.cls-9{font-size:38.5px;font-family:ABCSerifBold, ABCSerif;}.cls-10{fill:#abd6ee;}.cls-11{fill:#66b7e4;}</style></defs><path d="M256.14,225.66l-.22,2.56h-4.56v14.7h-3.09v-14.7h-4.73v-2.56Z"/><path d="M261.2,224.08v8a4.81,4.81,0,0,1,4.24-2.2c3,0,4.49,1.95,4.49,4.61v8.44h-3.06v-7.45c0-2-.74-3-2.42-3-2.34,0-3.25,1.9-3.25,4v6.51h-3.06V224.45Z"/><path d="M284.33,239.37a5.75,5.75,0,0,1-5.57,3.69c-4.34,0-6.27-2.71-6.27-6.75s2.72-6.54,6.44-6.44c3,.08,5.74,2.35,5.45,6.46l-.05.4H275.6c0,2.19.94,3.7,3.18,3.7a2.89,2.89,0,0,0,2.79-2.05Zm-3.13-4.22c.05-2-1-2.93-2.54-2.88a2.87,2.87,0,0,0-2.91,2.88Z"/><path d="M292.42,230.81a15.42,15.42,0,0,1,4.88-.94c3.9,0,5.33,1.93,5.33,4.94V240a.65.65,0,0,0,.62.74,2.45,2.45,0,0,0,1-.15v2a5.09,5.09,0,0,1-2.05.39,2.33,2.33,0,0,1-2.34-1.75,5.63,5.63,0,0,1-3.9,1.75c-2.51,0-4.39-1.28-4.41-4s2-4.1,5.25-4.1a19.85,19.85,0,0,1,2.79.25v-.77c0-1.4-.89-2.17-2.67-2.14a10.39,10.39,0,0,0-4,.79Zm7.15,6a13.81,13.81,0,0,0-2.51-.15c-1.48.08-2.42.77-2.44,2.07a1.81,1.81,0,0,0,2.09,1.9,5.07,5.07,0,0,0,2.86-1Z"/><path d="M310.4,230v12.92h-3.08V232.54h-1.8V230Zm-1.55-5a1.65,1.65,0,0,1,1.82,1.55,1.82,1.82,0,0,1-3.62,0A1.59,1.59,0,0,1,308.85,225Z"/><path d="M316,230l.44,2.29a4.31,4.31,0,0,1,4-2.44,3.77,3.77,0,0,1,3.85,2.39,4.52,4.52,0,0,1,4.16-2.39c3,0,4.22,2,4.22,4.63v8.44h-3.06v-7.45c0-2-.47-3-2.14-3-2.22,0-2.81,1.67-2.81,3.57v6.91H321.6v-7.45c0-2-.47-3-2.15-3-2.37,0-2.83,1.9-2.83,4v6.51h-3.06V230Z"/><path d="M345,230v12.92h-3.09V232.54h-1.8V230Zm-1.56-5a1.65,1.65,0,0,1,1.83,1.55,1.83,1.83,0,0,1-3.63,0A1.59,1.59,0,0,1,343.4,225Z"/><path d="M348.46,239.22a6.68,6.68,0,0,0,4.19,1.43c1.48,0,2.34-.44,2.34-1.51,0-2.51-7.47-.83-7.22-5.57.1-2.32,1.8-3.7,5.23-3.7a10.49,10.49,0,0,1,4.66,1.21l-1.09,2.17a7.36,7.36,0,0,0-3.7-1.06c-1.21,0-2.22.4-2.17,1.41.15,2,7.33.46,7.33,5.45,0,2.66-2.4,4-5.45,4a8.87,8.87,0,0,1-5.31-1.67Z"/><path d="M365.87,230.81a15.42,15.42,0,0,1,4.88-.94c3.9,0,5.33,1.93,5.33,4.94V240a.65.65,0,0,0,.62.74,2.45,2.45,0,0,0,1-.15v2a5.09,5.09,0,0,1-2,.39,2.32,2.32,0,0,1-2.34-1.75,5.63,5.63,0,0,1-3.9,1.75c-2.51,0-4.39-1.28-4.41-4s2-4.1,5.25-4.1a19.85,19.85,0,0,1,2.79.25v-.77c0-1.4-.89-2.17-2.67-2.14a10.39,10.39,0,0,0-4,.79Zm7.15,6a13.88,13.88,0,0,0-2.51-.15c-1.48.08-2.42.77-2.44,2.07a1.81,1.81,0,0,0,2.09,1.9,5.07,5.07,0,0,0,2.86-1Z"/><path d="M388.24,225.31c-1.16,0-2,.62-2,1.36,0,.22.27.44.27.44a1.42,1.42,0,0,1,1.66,1.55,1.65,1.65,0,0,1-1.75,1.56c-1.71,0-2.35-1.36-2.22-2.91.19-2.37,2-3.31,4-3.33Z"/><path d="M393.05,230l.57,2.66c.59-2,2.09-2.84,4.19-2.79a5.2,5.2,0,0,1,1.33.23l-.47,2.68a5.29,5.29,0,0,0-1.85-.24c-2.27.07-3.13,1.82-3.13,3.89v6.49h-3.06V230Z"/><path d="M405.06,230v12.92H402V232.54h-1.8V230Zm-1.55-5a1.65,1.65,0,0,1,1.82,1.55,1.82,1.82,0,0,1-3.62,0A1.59,1.59,0,0,1,403.51,225Z"/><path d="M410.66,230l.44,2.31a4.71,4.71,0,0,1,4.42-2.44c2.44.08,5.08,1.73,5.08,6.49,0,3.89-2,6.7-5.48,6.7A4,4,0,0,1,411.3,241v6.88h-3.08V230Zm.42,6.43c0,2.22.81,4,3.28,4,2,0,3.11-1.51,3.11-4.05,0-3-1.51-3.94-3.14-3.94S411.08,233.84,411.08,236.43Z"/><path d="M439.79,239.37a5.77,5.77,0,0,1-5.58,3.69c-4.34,0-6.26-2.71-6.26-6.75s2.71-6.54,6.44-6.44c3,.08,5.74,2.35,5.45,6.46l0,.4h-8.73c0,2.19.93,3.7,3.18,3.7a2.87,2.87,0,0,0,2.78-2.05Zm-3.14-4.22c.05-2-1-2.93-2.53-2.88a2.87,2.87,0,0,0-2.91,2.88Z"/><path d="M444.94,230l.47,2.29a4.8,4.8,0,0,1,4.42-2.42c3,0,4.48,1.95,4.48,4.61v8.44h-3.05v-7.45c0-2-.74-3-2.42-3-2.34,0-3.26,1.9-3.26,4v6.51h-3.05V230Z"/><path d="M461.39,226.35v3.77h3.26l-.42,2.47h-2.84v5.91c0,1.41.65,1.95,1.68,1.95a5.76,5.76,0,0,0,1.95-.56l.57,2.34a8.26,8.26,0,0,1-3.28.83c-3,0-4-2-4-4.14v-6.33h-1.8v-2.47h1.94l.37-3.43Z"/><path d="M469.78,230l.57,2.66c.59-2,2.09-2.84,4.19-2.79a5.2,5.2,0,0,1,1.33.23l-.47,2.68a5.29,5.29,0,0,0-1.85-.24c-2.27.07-3.13,1.82-3.13,3.89v6.49h-3.06V230Z"/><path d="M480.73,230l3.18,9.12h.2L487,230h3.15l-4.78,13.11c-1.58,4.32-3.06,5.4-7.62,4.44l.54-2.59c2.91.72,3.31,0,4.22-2.49L477.67,230Z"/><path d="M493.43,227.11a1.45,1.45,0,0,1-1.65-1.58,1.64,1.64,0,0,1,1.75-1.55c1.7,0,2.34,1.36,2.22,2.91-.17,2.37-2,3.3-4,3.33v-1.33c1.18,0,2-.62,2-1.36C493.7,227.31,493.43,227.11,493.43,227.11Z"/><path d="M499,242.57A1.41,1.41,0,0,1,497.4,241a1.6,1.6,0,0,1,1.73-1.52c1.7,0,2.37,1.33,2.24,2.91-.19,2.34-2,3.27-4,3.3v-1.33c1.16,0,2-.62,2-1.36C499.33,242.79,499,242.57,499,242.57Z"/><path d="M259.41,263.91l2.51,9h.2l2.52-9h3.15l2.54,9h.18l2.56-9h3.18l-4.34,12.92h-3l-2.64-8.73H266l-2.54,8.73h-3l-4.24-12.92Z"/><path d="M282.25,263.91v12.92h-3.08V266.45h-1.8v-2.54Zm-1.56-5a1.6,1.6,0,1,1,0,3.16,1.64,1.64,0,0,1-1.8-1.63A1.59,1.59,0,0,1,280.69,258.88Z"/><path d="M289.38,260.26V264h3.25l-.42,2.47h-2.83v5.92c0,1.4.64,1.95,1.67,1.95a5.72,5.72,0,0,0,1.95-.57l.57,2.34a8.1,8.1,0,0,1-3.28.84c-3,0-4-2-4-4.14V266.5h-1.8V264h2l.37-3.42Z"/><path d="M298.58,258v8a4.81,4.81,0,0,1,4.24-2.19c3,0,4.48,1.94,4.48,4.61v8.43h-3.05v-7.45c0-2-.74-3-2.42-3-2.34,0-3.25,1.9-3.25,4v6.51h-3.06V258.36Z"/><path d="M317.94,263.91l.47,2.29a4.74,4.74,0,0,1,4.41-2.41c3,0,4.49,1.94,4.49,4.61v8.43h-3.06v-7.45c0-2-.74-3-2.42-3-2.34,0-3.25,1.9-3.25,4v6.51h-3.06V263.91Z"/><path d="M336.24,263.79c3.23,0,6,2.19,6,6.6,0,3.63-2.15,6.59-6.17,6.59-4.36,0-6.16-3-6.16-6.59C330,266,332.73,263.79,336.24,263.79Zm-3.09,6.6c0,2.05.69,4,3,4,2.1,0,3-1.95,3-4,0-2.85-1.41-4-3-4S333.15,267.48,333.15,270.39Z"/><path d="M350.49,273.13a6.73,6.73,0,0,0,4.2,1.43c1.48,0,2.34-.44,2.34-1.5,0-2.52-7.47-.84-7.23-5.58.1-2.31,1.8-3.69,5.23-3.69a10.55,10.55,0,0,1,4.66,1.2l-1.08,2.17a7.41,7.41,0,0,0-3.7-1.06c-1.21,0-2.22.4-2.17,1.41.14,2.05,7.32.47,7.32,5.45,0,2.66-2.39,4-5.45,4a8.86,8.86,0,0,1-5.3-1.68Z"/><path d="M365,263.91l.44,2.32a4.68,4.68,0,0,1,4.41-2.44c2.44.07,5.08,1.72,5.08,6.48,0,3.9-1.95,6.71-5.47,6.71a4,4,0,0,1-3.82-2.1v6.88h-3.09V263.91Zm.41,6.44c0,2.21.82,4,3.28,4,2,0,3.11-1.5,3.11-4,0-3-1.5-3.95-3.13-3.95C366.89,266.35,365.41,267.76,365.41,270.35Z"/><path d="M380.68,258v14.62c0,1.38.62,1.76,1.53,1.76a2.42,2.42,0,0,0,1.28-.47l.57,2.19a5.35,5.35,0,0,1-2.79.89c-2.56,0-3.65-1.73-3.65-4.07V258.36Z"/><path d="M386.16,264.72a15.39,15.39,0,0,1,4.88-.93c3.9,0,5.33,1.92,5.33,4.93V274a.65.65,0,0,0,.61.74,2.61,2.61,0,0,0,1-.15v2a4.83,4.83,0,0,1-2,.4,2.34,2.34,0,0,1-2.35-1.75,5.62,5.62,0,0,1-3.89,1.75c-2.52,0-4.39-1.28-4.42-4s2-4.09,5.26-4.09a20,20,0,0,1,2.78.24v-.76c0-1.41-.88-2.17-2.66-2.15a10.47,10.47,0,0,0-4,.79Zm7.15,6a13.13,13.13,0,0,0-2.52-.15c-1.48.07-2.41.76-2.44,2.07a1.82,1.82,0,0,0,2.1,1.9,5.09,5.09,0,0,0,2.86-1Z"/><path d="M400.46,273.13a6.72,6.72,0,0,0,4.19,1.43c1.48,0,2.35-.44,2.35-1.5,0-2.52-7.47-.84-7.23-5.58.1-2.31,1.8-3.69,5.23-3.69a10.55,10.55,0,0,1,4.66,1.2l-1.08,2.17a7.41,7.41,0,0,0-3.7-1.06c-1.21,0-2.22.4-2.17,1.41.14,2.05,7.32.47,7.32,5.45,0,2.66-2.39,4-5.45,4a8.86,8.86,0,0,1-5.3-1.68Z"/><path d="M415.58,258v8a4.82,4.82,0,0,1,4.24-2.19c3,0,4.49,1.94,4.49,4.61v8.43h-3.06v-7.45c0-2-.74-3-2.41-3-2.35,0-3.26,1.9-3.26,4v6.51h-3.06V258.36Z"/><path d="M432.72,264.72a15.46,15.46,0,0,1,4.89-.93c3.89,0,5.32,1.92,5.32,4.93V274a.65.65,0,0,0,.62.74,2.61,2.61,0,0,0,1-.15v2a4.89,4.89,0,0,1-2.05.4,2.34,2.34,0,0,1-2.34-1.75,5.65,5.65,0,0,1-3.9,1.75c-2.51,0-4.39-1.28-4.41-4s2-4.09,5.25-4.09a20,20,0,0,1,2.79.24v-.76c0-1.41-.89-2.17-2.66-2.15a10.41,10.41,0,0,0-4,.79Zm7.15,6a13,13,0,0,0-2.51-.15c-1.48.07-2.42.76-2.44,2.07a1.82,1.82,0,0,0,2.09,1.9,5,5,0,0,0,2.86-1Z"/><path d="M450.65,260.26V264h3.26l-.42,2.47h-2.84v5.92c0,1.4.64,1.95,1.68,1.95a5.72,5.72,0,0,0,1.95-.57l.56,2.34a8.09,8.09,0,0,1-3.27.84c-3,0-4-2-4-4.14V266.5h-1.81V264h1.95l.37-3.42Z"/><path d="M462.15,264.72a15.39,15.39,0,0,1,4.88-.93c3.9,0,5.33,1.92,5.33,4.93V274a.65.65,0,0,0,.61.74,2.61,2.61,0,0,0,1-.15v2a4.83,4.83,0,0,1-2,.4,2.34,2.34,0,0,1-2.35-1.75A5.62,5.62,0,0,1,465.7,277c-2.52,0-4.39-1.28-4.42-4s2-4.09,5.26-4.09a20,20,0,0,1,2.78.24v-.76c0-1.41-.89-2.17-2.66-2.15a10.39,10.39,0,0,0-4,.79Zm7.15,6a13.13,13.13,0,0,0-2.52-.15c-1.48.07-2.41.76-2.44,2.07a1.82,1.82,0,0,0,2.1,1.9,5.09,5.09,0,0,0,2.86-1Z"/><path d="M479.16,258v14.62c0,1.38.62,1.76,1.53,1.76a2.46,2.46,0,0,0,1.29-.47l.56,2.19a5.31,5.31,0,0,1-2.78.89c-2.57,0-3.65-1.73-3.65-4.07V258.36Z"/><path d="M486.14,258v14.62c0,1.38.62,1.76,1.53,1.76a2.46,2.46,0,0,0,1.29-.47l.56,2.19a5.31,5.31,0,0,1-2.78.89c-2.57,0-3.65-1.73-3.65-4.07V258.36Z"/><path d="M370.85,345.79c0,7.29,0,14.58,0,21.86,0,10.58,0,21.15-.19,31.73a78.57,78.57,0,0,1-.29,8.95c-.24,1.91,2.76,1.9,3,0a65.82,65.82,0,0,0,.27-7.43c.08-4.8.12-9.6.15-14.4q.09-15.86.07-31.73c0-3,0-6,0-9a1.5,1.5,0,0,0-3,0Z"/><path d="M364.05,402.39c2.23,3.23,4.77,6.24,7.23,9.29.67.83,1.84.38,2.36-.3,1.1-1.47,2.27-2.88,3.38-4.32s2.09-2.82,3.16-4.19a1.56,1.56,0,0,0,0-2.12,1.51,1.51,0,0,0-2.12,0c-1.13,1.44-2.19,2.93-3.3,4.37s-2.51,3.14-3.71,4.74l2.35-.3c-2.3-2.86-4.67-5.66-6.76-8.69a1.53,1.53,0,0,0-2.05-.53,1.51,1.51,0,0,0-.54,2.05Z"/><text class="cls-1" transform="translate(334.31 72.34)">Fi<tspan class="cls-2" x="24.78" y="0">n</tspan><tspan x="42.36" y="0">a</tspan><tspan class="cls-3" x="59.58" y="0">l</tspan><tspan class="cls-4" x="68.07" y="0">l</tspan><tspan x="76.92" y="0">y </tspan><tspan class="cls-5" x="100.02" y="0">t</tspan><tspan x="111.57" y="0">o finish, the sp</tspan><tspan class="cls-6" x="313.62" y="0">l</tspan><tspan x="323.75" y="0">ash</tspan></text><path class="cls-7" d="M148.79,61.4a36.73,36.73,0,0,1,8.33-23.32,34.4,34.4,0,0,0-45.48-4.38A34.43,34.43,0,0,0,131.9,96a34.33,34.33,0,0,0,25.32-11.11A36.76,36.76,0,0,1,148.79,61.4ZM138,75.49s-3.7-.27-11.47-.27a25.63,25.63,0,0,0-4.93.31l-1.35-2.46c7.78-7.9,12.4-13.63,13-18.71.47-3.66-2-4.82-4.35-4.66a9.73,9.73,0,0,0-6.73,3.92c-.2-.23-1.93-2.07-1.47-2.65A12.43,12.43,0,0,1,130,46.12c5.89,0,9.09,3,8.74,8.51-.46,7-8,13.59-12.63,17.55l8.32-.08c1.77-.15,3-2.54,3.81-4.73,0,0,1.73.5,2,1C139.58,71.53,138.81,75.49,138,75.49Z"/><path class="cls-7" d="M238,27.09a34.28,34.28,0,0,0-22.6,8.46l0,0-.19.16A34.8,34.8,0,0,0,225,93.43a34.44,34.44,0,1,0,13-66.34Zm8.71,40h-4.12c0,2.27,0,3.46.07,4.39,0,.77.2,1,.74,1l2.34.54-.07,2.23h-11.4l.08-2.27,2.23-.58c.58-.15.81-.23.81-1,0-1.69,0-2.73,0-4.39l-10.13-.08c-.11,0-1.42.2-1.42.2S225,65,225.3,64.79c.89-.46,12.94-16.86,14-18.63l3.2.53c-.08,3.93,0,11.36,0,17.41l4.7-.08C247.59,64,247.32,67.06,246.71,67.06Z"/><path class="cls-8" d="M237.43,64.06c0-7,0-10.05,0-10.05s-7.16,10.05-7.16,10.05Z"/><path class="cls-7" d="M95.79,61.4A36.74,36.74,0,0,1,104.16,38a34.44,34.44,0,1,0,.11,46.9A36.78,36.78,0,0,1,95.79,61.4ZM87.2,75.66H70.92L71,73.39l4.46-.58c.58,0,.81-.23.81-1,.08-10.05,0-19.6,0-19.6l-5.62,1.08c-.19-.31-1.12-2.46-.46-2.73l10.35-4,1,1s-.12,20.87,0,24.37c0,.77.19,1,.73,1l5.08.54Z"/><path class="cls-7" d="M201.79,61.4A36.74,36.74,0,0,1,210.16,38a34.43,34.43,0,0,0-47.76-2.48A34.8,34.8,0,0,0,172,93.43a34.41,34.41,0,0,0,38.24-8.51A36.78,36.78,0,0,1,201.79,61.4ZM181.35,75.49a15.64,15.64,0,0,1-7.86-2.19l1-2.89a21.48,21.48,0,0,0,7,1.66c3.35,0,5.51-1.74,5.55-5.24,0-2.46-1.43-4.35-4.47-4.74a17.82,17.82,0,0,0-5,.24c-.5.11-.89-3-.42-3.08,3-.54,7.62-1.08,8.39-4.89.73-3.62-2-4.82-4.35-4.66A8.43,8.43,0,0,0,175,52.82c-.2-.23-1.7-2.12-1-3a10.43,10.43,0,0,1,8.16-3.69c5.89,0,9.12,3,8.74,8.51a6,6,0,0,1-4,4.5c3.47.62,5.47,2.93,5.66,6.7C192.9,71.83,188,75.49,181.35,75.49Z"/><circle cx="291" cy="61.53" r="34.44"/><text class="cls-9" transform="translate(279.45 75.26)">5</text><path class="cls-10" d="M613.76,996.89c15-2.41,29.75-4.82,44.23-7.41s28.63-5.35,41.77-8.59c6.55-1.62,12.81-3.37,18.4-5.31s10.41-4.1,13.56-6.33a13.79,13.79,0,0,0,3.35-3.38,9.25,9.25,0,0,0,1.53-3.53,10.69,10.69,0,0,0-.16-4.36c-.34-1.63-1-3.36-1.4-5.4l2.07-.7a42.42,42.42,0,0,1,11.11,3.56,17.52,17.52,0,0,1,7,5.65,7,7,0,0,1,.64,6.95c-1,2.33-3.32,4.44-5.94,6.29-5.33,3.73-12.24,6.46-19.31,8.72a213.25,213.25,0,0,1-22.14,5.58,459.71,459.71,0,0,1-46.5,6.7c-15.78,1.5-31.68,2.51-47.79,2.7Z"/><path class="cls-10" d="M170.58,1001c-16.67.18-33.21-.54-49.7-1.76a447.31,447.31,0,0,1-48.76-6.18,191.55,191.55,0,0,1-23.24-5.78c-7.35-2.44-14.58-5.51-19.29-9.78-2.32-2.1-4-4.49-4.25-6.92a8.71,8.71,0,0,1,2.74-6.89c4.05-4.15,10.85-7.19,19.53-8.85l2,.71a54.31,54.31,0,0,1-2.07,5.6,21.82,21.82,0,0,0-1.3,4.71,8.49,8.49,0,0,0,.36,3.93,8.24,8.24,0,0,0,2.3,3.54c2.49,2.31,7.07,4.57,12.64,6.55a177.64,177.64,0,0,0,18.86,5.35c13.69,3.18,28.64,5.74,43.83,8.09s30.84,4.45,46.6,6.53Z"/><path class="cls-10" d="M511,1007.92a1014.44,1014.44,0,0,1-129.09,6.28q-61.93-.06-119.56-5.21l-13.85-.52-.92.78c20.29,3.9,42.76,6.28,65.58,8,5.74.37,11.47.8,17.27,1.07s11.62.53,17.45.78,11.71.28,17.57.42c2.93.09,5.87.08,8.81.09l8.82,0,8.82,0,8.81-.17c5.86-.17,11.74-.24,17.57-.49,11.65-.56,23.31-1,34.67-2.06a604.9,604.9,0,0,0,65.07-8.34l-.86-.79C515.11,1007.78,513.07,1007.85,511,1007.92Z"/><path class="cls-11" d="M239,990.7q-18.93-2.1-37.49-4.64c-12.35-1.7-24.52-3.6-36.19-5.85a317.58,317.58,0,0,1-32.49-7.84,66.34,66.34,0,0,1-12-4.77,13,13,0,0,1-3.34-2.39,3.3,3.3,0,0,1-1-2.2c-.29-6.66,15.58-14.2,26.79-17.76,5.89-1.88,12.41-3.35,18.22-5.27a115.12,115.12,0,0,0-20.92,1.9,180.67,180.67,0,0,0-18.8,3.94A89.64,89.64,0,0,0,104.61,952a29.65,29.65,0,0,0-6.86,4.59,10.14,10.14,0,0,0-3.53,6,8.08,8.08,0,0,0,2.32,6.32,24.16,24.16,0,0,0,6.8,5A87.47,87.47,0,0,0,121,980.48c12.46,3.27,25.39,5.29,38.26,7.07,25.81,3.38,51.62,5.79,77.61,7.66s52,3.19,78.13,4.23l.37-1.14C289.74,996,264.19,993.55,239,990.7Z"/><path class="cls-11" d="M684.46,958.3a14,14,0,0,0-4.22-5.1c-3.78-3-8.82-5.35-14.13-7.24a124.65,124.65,0,0,0-17-4.56,149.73,149.73,0,0,0-18.49-2.58l-1.12,1,.4.17c8.09,2,16,3.88,23,6.68s12,6.86,12,11.1-4.79,8.31-12.28,10.9c-2.31.95-4.87,1.88-7.61,2.75a301.9,301.9,0,0,1-30,7.67c-10.75,2.25-22,4.15-33.48,5.87s-23.1,3.25-34.83,4.68c-23.46,2.89-47.28,5.36-71.19,7.7l.4,1.14c24.41-1.08,48.79-2.43,73.06-4.36s48.39-4.35,72.45-7.76a310.16,310.16,0,0,0,35.58-6.9,96.21,96.21,0,0,0,16.4-5.92,36.88,36.88,0,0,0,6.82-4.2,13.8,13.8,0,0,0,4.24-5.31A7.3,7.3,0,0,0,684.46,958.3Z"/><path class="cls-11" d="M386.6,977.71q-96.14-.11-181.25-15-5.25-.78-10.45-1.61l-1.19.82c6.9,1.95,14.15,3.64,21.56,5.24s15,3,22.71,4.41,15.6,2.57,23.53,3.74c4,.55,8,1.13,12,1.65s8.07,1,12.15,1.46a933.39,933.39,0,0,0,100.65,5.86c14.68.1,29.38-.22,44-.85,12.08-.72,34.86-2.43,46.71-3.55,19.7-1.85,38.86-4.51,57.17-7.75,16.24-2.87,34.21-5.91,45-11.42-1.43.73-6.78,1.34-9,1.75q-5.35,1-10.8,2-10.46,1.81-21.2,3.39c-14.33,2.11-29,3.89-43.93,5.35-30.15,2.93-61.35,4.52-92.56,4.6Q394.12,977.82,386.6,977.71Z"/></svg>