<svg id="Layer_1" data-name="Layer 1" xmlns="http://www.w3.org/2000/svg" viewBox="0 0 780 1051.14"><defs><style>.cls-1{fill:#fff171;stroke-width:0.3px;}.cls-1,.cls-2,.cls-3,.cls-4,.cls-5,.cls-7{stroke:#fff;stroke-miterlimit:10;}.cls-2,.cls-5,.cls-7{fill:#d4a47c;}.cls-2{stroke-width:0.28px;}.cls-3{fill:#005058;stroke-width:0.42px;}.cls-4{fill:#c6946f;}.cls-4,.cls-5{stroke-width:0.27px;}.cls-6{fill:#b78662;opacity:0.5;}.cls-7{stroke-width:0.36px;}.cls-8{fill:#fff;}</style></defs><path class="cls-1" d="M479.48,454.83a104.73,104.73,0,0,1-3.54-10.15,95.69,95.69,0,0,1,.18,24.56c-1.11,9.89-3.41,19.85-7.6,28.27a38.88,38.88,0,0,1-3.49,5.81,31.11,31.11,0,0,1-2.1,2.56c-1.15,1.24-.67,3.13-1.15,4.85-.59,2.17,2,3.11,2.63.95a13.84,13.84,0,0,0,.43-3.27c5.41-5.9,8.87-14.51,11.13-23.12a111.39,111.39,0,0,0,3.52-30.07C479.49,455.09,479.49,455,479.48,454.83Z"/><path class="cls-1" d="M475.7,443l-.05,0a82.06,82.06,0,0,0-14.72-9.54c-2.4-1.28-4.81-2.7-7.53-3.14-10.22-1.66-20,3-27.65,9.34-2.51,2.07-3.6,5.4-5,8.39-.61,1.3-3.55,6.18-.25,6.21.44,0,2.86-5.47,3.63-6.37,5.53-6.54,12.73-12.74,21.69-13.31,2.65-.17,5.54-.63,8.12.18a36.85,36.85,0,0,1,6.76,3.32c2.35,1.32,4.58,2.83,6.91,4.18a46.6,46.6,0,0,1,6.62,5c1.22,1,2.41,2.08,3.63,3.1C477,447.89,476.34,445.39,475.7,443Z"/><path class="cls-2" d="M487.06,495.47c.33-15.61-3-29.09-8.43-43.51-.33-.89-.71-1.71-1.09-2.58-.53-1.19-.63-2.51-1.15-3.69-1-2.23-1.33-4.73-2.6-6.89-5.68-9.68-13.8-18.85-20.3-27.65-1-1.41-2.54-2.72-3.2-4.36a4.63,4.63,0,0,1-.4-2.68,48.09,48.09,0,0,0,1.61-9c.07-1.33.07-2.16.1-3.5s-.09-3.91,1.06-4.74,2.12.64,3,1.33,1.59.74,2.34,1.25a7.68,7.68,0,0,0,1.61,1.14,6.21,6.21,0,0,0,4.53-.09c1.55-.84,2-2.77,3.36-3.76a5.33,5.33,0,0,1,2-.73,2.6,2.6,0,0,1-.62-1.54c-.31-3.89,1.87-7.17,2.8-10.82a19.41,19.41,0,0,0-3.28-1,27.92,27.92,0,0,1-5.12-1.69c-1.5-.63-3-.76-3.83-2.12-.66-1.05-.63-2.36-1.29-3.4a22.76,22.76,0,0,1-1.48-2,30.58,30.58,0,0,1-1.32-3.73c-1-2.75-2.2-5.48-3.29-8.21a24.12,24.12,0,0,0-5-8,19.5,19.5,0,0,0-8.18-4.88,42.94,42.94,0,0,0-7.21-1.79,73.57,73.57,0,0,0-10.81-.49c-4.07.11-8.58,1.7-12.2,3.43-2.69,1.29-5.46,2.11-8,3.72a25.16,25.16,0,0,0-6.45,6.36c-1.58,2.07-3.58,3.37-5.57,4.91-1,.78-1.61,2-2.63,2.8a28.91,28.91,0,0,0-3.46,3.17c-2,2.32-1.87,4.9-1.9,7.73,0,1.88.58,3.62.53,5.52a14,14,0,0,0,.26,2.73c.18,1,.05,2,.23,3,.08.49.35.85.46,1.36s-.15.87.05,1.36a21.43,21.43,0,0,0,1.88,2.55,26.92,26.92,0,0,1,2,3.13,3.34,3.34,0,0,0,.18.35c-.05,0-.12.17-.19.5a11.85,11.85,0,0,1-1,2.63c-.95,2.23-1.41,2.24-2.24,4.88a27,27,0,0,0-1.13,5.06,3.42,3.42,0,0,0,3.64,3.84,1.75,1.75,0,0,1,1.22.32,4.75,4.75,0,0,1,2.34,2.57,11.93,11.93,0,0,0,3.44,7.73c1,1.16,1.93,1.4,2,2.91,0,1.09,0,2.2,0,3.28,0,2.05.54,3.94,2.67,4.63,2.85.92,7.25-.5,10.08-.95,5-.78,12.26-5.07,14.95,1.59,1.56,3.88,1,9.64,0,13.53-.23.89-1.1,6.33-1.44,7.23,1.15,0,2.68-5,3.69-5.65,1.34-.83,2.85-1.34,4.25-2.05l.84,1c-5.26,2.52-9.73,5.68-9.76,8.52a3.74,3.74,0,0,1-1.43,2.32l.71-.22a6.59,6.59,0,0,1-.51,2.21c-.49,1.61-1.58,3-2,4.62-.4,1.41-1,2.74-1.29,4.18a19.89,19.89,0,0,1-1.61,3.78,32.43,32.43,0,0,0-1.41,4.35c-.46,1.57-1.13,3.05-1.55,4.63a29.31,29.31,0,0,0-.65,4.94c-.37,4.13-.65,8.29-.66,12.44a11.86,11.86,0,0,0,.56,4.22,36.47,36.47,0,0,0,1.8,4.05,38.16,38.16,0,0,0,3,4.58,37.27,37.27,0,0,0,4.47,5.12,36,36,0,0,0,6.05,4.2,14.38,14.38,0,0,0,5.15,2,12.91,12.91,0,0,0,3.72.28,6.69,6.69,0,0,0,3.07-1.46,20.44,20.44,0,0,0,6.35-8.68,31.12,31.12,0,0,0,2.54-9.26,38.73,38.73,0,0,0-.59-9.85,30,30,0,0,0-1.18-5.13c-.32-.92.93-2.42,2.89-4.19.81,5.06,1.48,10.14,2.66,15.11,1.13,4.78,1.77,9.5,3.43,14.15s2.06,8.76,3,13.48c1.22,6.21-3.31,15.82-1.78,22,1.12,4.54,2.29,7.27,2.55,11.95s5.27,7.17,7.45,11.48c1.4,2.76,4.2,4,6.66,5.59s4.84,2.26,7.25,3.54c.78.41,2.13,1.52,3,1.15s.5-1.4.49-2.12c0-1,0-2,0-2.91s.46-2.07.51-3.17a22.67,22.67,0,0,1,.09-2.74,17.57,17.57,0,0,0,.37-2.81c0-2.74.78-5.5.95-8.24.08-1.29.51-2.46.53-3.76a16.34,16.34,0,0,1,.47-5C489.24,531.58,486.73,511.42,487.06,495.47Z"/><path class="cls-3" d="M418.1,451.36c-9.67,21-12.36,27.88-17.75,44.39-.92,2.81-1.94,9.94-2.29,12.88a24.15,24.15,0,0,0,1.29,10.76c1.38,3.6,3.93,6.72,5.63,10.18,3.48,7.1,4,15.31,4,23.09A139.14,139.14,0,0,0,410.05,569c.53,4.47,1.32,8.89.69,13.4-.68,4.77-2.37,9.33-3.38,14a50.08,50.08,0,0,0-1,12.75c.39,7.91,2.09,15.57,3.26,23.37.37,2.44.26,7.81,2.32,9.23,2.9-2.21,3.86-9,4.9-12.48,1.35-4.51,2.72-9.07,5.17-13.14,6.52-10.79,19.93-16.3,32.5-15.31,13.09,1,22.14,9.26,30.95,18.82,3.3,3.58,9.1,8.34,11.19,12.71a35.91,35.91,0,0,0-.36-4.16,80.89,80.89,0,0,0-3.32-12.83c-3.14-9.9-7.12-19.83-9.82-29.8-.56-2.05-.9-4.25-1.33-6.29s-1.06-1.77-2.76-2.62c-1.13-.56-2.06-1.19-3.22-1.67-4.36-1.81-7.57-6-9.74-10-1-1.93-1.32-4.07-2.3-6a27.29,27.29,0,0,1-1.42-3.75,28.52,28.52,0,0,1-1-3.48c-.32-1.5-.16-3.17-.53-4.64-.17-.69-.63-1.42-.85-2.11-.64-2-1.1-4.13-1.71-6.17-.84-2.76-1.4-5.67-2.1-8.48-1.05-4.2-1.85-8.48-3.29-12.58-1.53-4.34-4.32-7.89-6.9-11.69a2.65,2.65,0,0,0-2.54-1.41c-5.64-.63-2.4,2-7.74,0a21.67,21.67,0,0,1-9.47-6.5,11,11,0,0,1-2.14-4.2c-.78-3-2.48-5.56-3.24-8.6A58.46,58.46,0,0,1,419.17,475a74.32,74.32,0,0,1,2.43-22.2c.18-.75,0-1.38.15-2.14a8.5,8.5,0,0,0,.19-2.84c-.1-.4-.13-.47-.42-.16a7.94,7.94,0,0,0-1,2.82C420.19,450.29,417.89,451.82,418.1,451.36Z"/><path class="cls-4" d="M494.31,625.5c3.12,9.43,5.21,20,2,29.65-1.4,4.18-4.16,7.49-6.94,11.67s-2.88,11.13-4.28,15.3c-1.39,19.48,1.48,35.64,4.26,53.73,1.39,16.7,0,33.4.17,50.56l3.14,14.73a2.2,2.2,0,0,1,.22.78c.18.71.44,1.4.61,2.11,3.3,13.8,7.94,21.9,8,36.16,0,12.59-4.46,30.94-5.37,43.36-.51,6.91-2.53,13.34-2.05,21,.49,7.87-1.19,14.89-.06,22.59.21,1.39.56,2.76.77,4.15.4,2.73-.15,5.54.38,8.23.27,1.35.68,2.64,1,4,.07.26.25.49.31.74s.12.83.19,1.22.25,1,.36,1.48a7.48,7.48,0,0,1-.05,3.49,4.74,4.74,0,0,1-.89,1.62,4.1,4.1,0,0,1-1.81.73,53.57,53.57,0,0,1-7.58,1,38.24,38.24,0,0,1-3.86.4c-.87,0-1.64.15-2.5.21s-1.84,0-2.75,0H466.78c-2.17,0-4.28.2-6.45.2-2.95,0-5.93.26-8.88.45-.93.06-1.83-.06-2.76,0s-1.64.18-2.47.17c-1,0-2,.17-3,.21-2.21.07-4.42.41-6.65.39-1.2,0-2.35.17-3.54.2-.61,0-1.22,0-1.82,0a14.21,14.21,0,0,0-2.07.36c-.75.13-1.45.38-2.19.5-1.55.24-3.08.91-4.66.95-.51,0-.93.17-1.43.2-.76,0-1.43-.19-2.17-.22a17.32,17.32,0,0,1-5.83-1.34,9.5,9.5,0,0,1-3.65-2.29c-.15-.17-.22-.39-.38-.56s-.49-.39-.71-.61a3.57,3.57,0,0,1-.9-1.62,2.44,2.44,0,0,1,.4-2.38,1.82,1.82,0,0,1,1.17-.37c1.09-.09,2.15-.32,3.21-.4a14.75,14.75,0,0,0,4.46-1,15.85,15.85,0,0,0,1.7-1c.52-.3,1.11-.42,1.62-.73a16,16,0,0,1,3.92-1.74c.75-.2,1.33-.77,2.1-.92.26-.05.54,0,.8-.07a8.41,8.41,0,0,0,.81-.37c1.08-.39,2.33-.5,3.39-.94,1.24-.52,2.56-.81,3.84-1.25,2.21-.75,4.5-1.3,6.73-2,.68-.23,1.26-.67,1.95-.91s1.19-.61,1.8-.81a4.7,4.7,0,0,0,1.39-.63,10,10,0,0,1,1.65-1c.35-.15.72-.2,1.05-.38,6.62-3.59,14.92-6.7,15.63-14.82.34-3.82,2.66-7.1,3.37-10.82,2.82-14.86-2.57-29.2-3.91-43.85-1.1-12.09-5.16-25-7.65-36.41-.36-1.63,0-3.25-.23-4.88-1.14-8.06-4-16.29-6.37-24.06-1.6-5.16-8.34-8.24-10.66-13.12-2.14-4.5-.92-11-.69-16.2.08-2,.72-3.9.8-5.87.19-5-3.2-9.51-5.45-13.74-2.63-4.95-5-10.06-7.7-15-.83-1.56-1.5-3.27-2.42-4.76-2-3.17-3.15-6.92-4.58-10.36a29.94,29.94,0,0,1-1.62-5.75c-.3-1.63-.92-3.31-1.09-4.94a18.91,18.91,0,0,0-.74-3.14,30.67,30.67,0,0,1-.47-3.85,45,45,0,0,0-1.22-5.94,38.53,38.53,0,0,1-1-6.68c-.21-2.39-1.41-4.66-1.5-7.06-.07-1.69-.39-3.3-.46-5a53.37,53.37,0,0,0-.72-7.68c-.72-3.7-.24-7.86-.24-11.62,0-2.95,0-5.9,0-8.85,0-3.21,1-6.26,1-9.47l.36-3.16c.14-1.28.63-2.55.86-3.84a18.24,18.24,0,0,1,1.32-4.51c.81-1.73,2-3.24,2.78-5s1.1-3.62,1.86-5.34a22.83,22.83,0,0,1,2.43-4c1.35-1.9,2.6-4.18,4.3-5.75a26.55,26.55,0,0,1,9.33-5.95,72.89,72.89,0,0,1,9.19-2.6,58.68,58.68,0,0,1,10.17-.78,32,32,0,0,1,7.11.6c4.19.93,7.95,3.24,11.44,5.74,2.2,1.58,4.32,3.25,6.54,4.78,1.14.79,2.35,1.46,3.51,2.22s1.89,1.59,2.93,2.29a32.51,32.51,0,0,1,4.87,4.37,10.11,10.11,0,0,1,1.94,2.74c.44.93,1.47,1.7,1.73,2.61Z"/><path d="M392.43,379.3c.35.05.7.14,1.05.22.2.05.62.16.73.37s.05.09,0,.14a1.07,1.07,0,0,1-.31,0,1.8,1.8,0,0,0-.32.06c-.43.11-.84.26-1.26.37-.25.07-.48.16-.74.21-1.55.27-3.25.05-4.75.5a6.22,6.22,0,0,0-2.91,2.91c-.32-.4-1.94-1.53-1.65-2,.42-.7,2.52-1.54,3.19-2.05a6.5,6.5,0,0,1,4.35-1.22C390.67,378.88,391.53,379.18,392.43,379.3Z"/><path d="M470.12,371.46c-2.26-1.06-4.87-1.79-7-3.11-6.69-4.19-7.28-13.62-11.53-20.27-3.5-5.48-9.55-9-15.87-10.48s-12.92-1.26-19.38-.55c-6,.65-12,1.71-17.41,4.4-3.63,1.81-13.36,8.66-11.65,13.75s11.52,6.4,14.22,11.64c1.36,2.66,1.48,5.92,3.3,8.29a23.38,23.38,0,0,0,3.3,3.06c2,1.83,3.55,4.16,5.69,5.85s5.26,2.61,7.56,1.15a11,11,0,0,1-.18-5.78c.58-1.85,2.35-3.48,4.29-3.26,2.66.3,3.85,3.57,3.77,6.24s-.78,5.53.42,7.92c1.3,2.59,4.34,3.68,7.1,4.55L451,399.31c1.71-2.44-.56-6.3,1.29-8.63,1.4-1.77,4.1-1.42,6.35-1.31a18.43,18.43,0,0,0,11.92-3.68c3.19-2.42,5.63-6.73,3.94-10.35A8.37,8.37,0,0,0,470.12,371.46Z"/><path d="M387.7,356.16l.71-.59c0-.06-.1-.11-.14-.16A2.81,2.81,0,0,0,387.7,356.16Z"/><path class="cls-5" d="M420.54,385.53c-4.09-3.32,1-10,5-10.12a6.54,6.54,0,0,1,6.47,6c.14,3.39-2.41,6.4-2.48,9.78,0,1.79.6,3.69-.18,5.3s-4,1.49-3.7-.27"/><path d="M459.19,372a7.24,7.24,0,0,0,1.73-2.91,11.83,11.83,0,0,1,2.26-3.27,6.14,6.14,0,0,1,3.92-2.2,6.78,6.78,0,0,1,3.91.92,6.51,6.51,0,0,1,2.66,2.45c.46,1.21,0,3.29.05,4.57a6.65,6.65,0,0,1-1.88,4.15,6,6,0,0,1-3.95,2.48,19.67,19.67,0,0,1-10.25-2.63c-1.55-.81-2.39-3.05-2.73-4.71s-.41-4.48.36-6.05c1.46-3,5.6-3,8.36-2.33,1.65.39,3.27.95,4,2.63a9.74,9.74,0,0,1,.61,4.36,18.17,18.17,0,0,1-.36,5A6.52,6.52,0,0,1,467,377a21.68,21.68,0,0,0-1.73,2.4,8.15,8.15,0,0,1-2.19,2.49,3.3,3.3,0,0,1-2.43.72,10.52,10.52,0,0,1-3-.44c-.61-.18-1.14-.58-1.74-.8-1-.39-1-.44-1.1-1.68"/><path d="M458.63,371.19c-.6-1.32-.1-2.51.49-3.69a5.91,5.91,0,0,0,.54-1.26,1.86,1.86,0,0,1,1.31-1.42c1.69-.7,3.8-.14,5.49.22a6.34,6.34,0,0,1,2.08.67c.58.35,1,.92,1.58,1.26.33.2.71.23,1,.53s.45.71.78,1,.58.38.81.83a9.58,9.58,0,0,1,.42,1.17,5,5,0,0,1,.44,2.21,14,14,0,0,1-.52,2.29,5.64,5.64,0,0,1-.48.95c-.2.39-.25.83-.45,1.22a6.11,6.11,0,0,1-2.71,2.21c-1.93,1.11-4.52,1-6.69.86a11.59,11.59,0,0,1-4.85-1.33c-.82-.48-1.55-1-2.32-1.59a10,10,0,0,1-2-1.63,8.59,8.59,0,0,1-1.45-2.48,18,18,0,0,1-1-2.92,6.15,6.15,0,0,1,.27-3,8,8,0,0,0,.65-1.47,5.33,5.33,0,0,1,.39-1.62,6.61,6.61,0,0,1,4.23-3.76,21.15,21.15,0,0,1,4.24-.8c.92,0,1.85,0,2.77,0a5.78,5.78,0,0,1,2.84.73,4.29,4.29,0,0,1,1.43,1c.36.41.9.76,1.1,1.26.61,1.5.12,3,.44,4.49a6.17,6.17,0,0,1,.23.87c0,.48,0,1,0,1.45a10.16,10.16,0,0,1-.12,2.34,6.92,6.92,0,0,1-1,2.44,3.59,3.59,0,0,1-2.5,1.6,10,10,0,0,1-3.66.5,13.07,13.07,0,0,1-4.68-1.48,10,10,0,0,1-3.89-3.11,10.68,10.68,0,0,1-1.38-2.22,11.93,11.93,0,0,1-.36-2.32c-.18-1.66.84-3.22,1.57-4.61.14-.27.38-1,.66-1.17s.68,0,.92,0"/><path d="M455.82,385.2c-.59-1.31-.09-2.5.49-3.68a6.58,6.58,0,0,0,.55-1.27,1.83,1.83,0,0,1,1.31-1.41c1.69-.71,3.8-.14,5.49.21a6.34,6.34,0,0,1,2.08.67c.58.36,1,.92,1.58,1.27.33.2.7.23,1,.52s.45.72.78,1,.57.38.8.84a8.2,8.2,0,0,1,.43,1.17,5,5,0,0,1,.44,2.21,15.19,15.19,0,0,1-.53,2.29,6,6,0,0,1-.47,1c-.21.39-.26.83-.45,1.21a6.2,6.2,0,0,1-2.71,2.22c-1.93,1.11-4.53,1-6.69.86a11.52,11.52,0,0,1-4.85-1.34,28,28,0,0,1-2.32-1.59,10,10,0,0,1-2-1.62,8.3,8.3,0,0,1-1.45-2.49,19.33,19.33,0,0,1-1-2.91,6.2,6.2,0,0,1,.28-3,8.07,8.07,0,0,0,.64-1.47,5.68,5.68,0,0,1,.4-1.61,6.6,6.6,0,0,1,4.22-3.76,21.28,21.28,0,0,1,4.24-.8c.93,0,1.85,0,2.78,0a6,6,0,0,1,2.84.73,4,4,0,0,1,1.42,1c.37.41.9.75,1.11,1.25.61,1.51.12,3,.43,4.5a5.84,5.84,0,0,1,.24.87c0,.47,0,1,0,1.45a10.65,10.65,0,0,1-.12,2.33,6.78,6.78,0,0,1-1,2.44,3.58,3.58,0,0,1-2.51,1.6,9.78,9.78,0,0,1-3.65.5,12.82,12.82,0,0,1-4.68-1.48,9.89,9.89,0,0,1-3.9-3.11,11,11,0,0,1-1.37-2.21,11.21,11.21,0,0,1-.36-2.33c-.18-1.66.83-3.21,1.57-4.61.14-.27.38-1,.65-1.17s.69,0,.93,0"/><path class="cls-1" d="M464.84,508.41c5.41-5.9,8.87-14.51,11.13-23.12a111.39,111.39,0,0,0,3.52-30.07c0-.13,0-.26,0-.39a104.73,104.73,0,0,1-3.54-10.15,95.69,95.69,0,0,1,.18,24.56c-1.11,9.89-3.41,19.85-7.6,28.27a38.88,38.88,0,0,1-3.49,5.81,31.11,31.11,0,0,1-2.1,2.56c-1.15,1.24-.67,3.13-1.15,4.85Z"/><path class="cls-6" d="M476.64,920.58c.83,2.6,5.5,5,7.86,3.88,1.35-.68,2.24-3.07,2.87-4.31.17-.32.3-.65.45-1a9.66,9.66,0,0,0,.66-2.83c0-.38,0-.77-.06-1.15a1.35,1.35,0,0,0-2.47-.62,5.11,5.11,0,0,0-.52,1c-.67,1.89-1.58,4.47-3.66,4.68s-2.92-2.22-3.32-3.82c-.18-.67-.21-1.2-.44-1.83a9.94,9.94,0,0,0-.78,1.3c.14-.2-.41,1.28-.44,1.52A29.17,29.17,0,0,0,476.64,920.58Z"/><path class="cls-1" d="M475.7,443l-.05,0a82.06,82.06,0,0,0-14.72-9.54c-2.4-1.28-4.81-2.69-7.53-3.14-7.34-1.19-14.7,1-21,4.66a46,46,0,0,0-4.31,2.86,20.18,20.18,0,0,0-3.16,2.59,21.22,21.22,0,0,0-2.58,3.52c-1,1.73-2,3.54-2.92,5.34-.27.51-.77,1.31-1.28,2.27.26.3.87,1,1.1,1.21a2.7,2.7,0,0,0,1.25.66c.24.07.78.18.88.19a7.91,7.91,0,0,1,.77-1.87c.33-.65.63-1.32.95-2a17.09,17.09,0,0,1,2.9-4,43.77,43.77,0,0,1,7.76-6.82,24.58,24.58,0,0,1,12.06-4.37c2.65-.17,5.54-.63,8.12.18a36.85,36.85,0,0,1,6.76,3.32c2.35,1.32,4.58,2.83,6.91,4.18a46.6,46.6,0,0,1,6.62,5c1.22,1,2.41,2.08,3.63,3.1C477,447.89,476.34,445.39,475.7,443Z"/><path class="cls-7" d="M433.9,444.71c-.79.69-1.56,1.37-2.28,2.12-3.82,4-5.44,8.19-6.2,13.64-.66,4.74-1.26,9.5-1.51,14.27-.12,2.25-.16,4.51-.1,6.77.28,10.24.28,20.45.66,30.7s-.25,21.39.45,32.17c.05,2.52.2,5,.07,6.13a69.39,69.39,0,0,1-2.72,11.65c-6.21,21.77-7.2,44.9-12.82,66.89a30.11,30.11,0,0,0-.69,3.77,9.08,9.08,0,0,1-.8,2.24,8.63,8.63,0,0,0-.82,2.45c-.08.8-.37,1.5-.48,2.27a14.57,14.57,0,0,1-.85,3.27c-.24.62-.42,1.29-.7,1.89l-.41,1-.17.21c-.24.63-.42,1.3-.7,1.91a16.64,16.64,0,0,1-.75,1.85,7.22,7.22,0,0,1-1.32,1.72c-.59.48-1.19.95-1.78,1.41-1,.79-2,1.57-3,2.39a12.94,12.94,0,0,0-1.29,1c-.35.36-.62.84-1,1.17l-.3.65c-.39.42-.85.78-1.21,1.22a7.24,7.24,0,0,0-.89,1.36c-.1.2-.21.39-.32.59s-.44.56-.6.89a13.13,13.13,0,0,0-.65,1.3c-.18.48.12.84.3,1.27a1.52,1.52,0,0,1,0,1.27c-.19.46-.34.93-.52,1.4-.12.3-.26.55-.36.86s-.2.52-.29.79a14.32,14.32,0,0,1-.8,1.62c-.15.27-.28.55-.42.82a4.24,4.24,0,0,1-.46.65,3,3,0,0,0-.3.63c-.09.25-.24.48-.32.73a3.61,3.61,0,0,0-.21,1.59,1.57,1.57,0,0,0,.08.49c.1.21.27.43.39.63a8.16,8.16,0,0,1,.73,1.33,7.38,7.38,0,0,1,.21,1.41c.05.43.1.86.16,1.28s0,.61,0,.93a4.15,4.15,0,0,1,.07.7c0,.21,0,.43-.06.65a1.41,1.41,0,0,0-.07.53,7.9,7.9,0,0,0,.15,1.19c.15.56.68.56,1.17.58a1.71,1.71,0,0,0,.73-.15,8.55,8.55,0,0,0,1.19-.45c.09-.06.2-.12.23-.23s0-.16,0-.22.14-.11.21-.16a.6.6,0,0,0,.16-.22,8.74,8.74,0,0,0,.6-1.81c.17-.69.32-1.4.45-2.1,0,0,0-.1,0-.15,0,.31,0,.63-.08.94a10.25,10.25,0,0,1-.39,1.81,12.49,12.49,0,0,0-.65,1.73,2.08,2.08,0,0,1-.06.36c-.07.26-.14.53-.2.79s0,.35,0,.53a4,4,0,0,1-.21.58,10.13,10.13,0,0,0-.41,1.21,7.32,7.32,0,0,0-.35,2.31,1.77,1.77,0,0,1-.11.6,4,4,0,0,0,0,.6,2,2,0,0,1,0,.55,5.18,5.18,0,0,1-.26.65c-.16.39-.22.83-.41,1.22s-.31.82-.5,1.21a7.13,7.13,0,0,0-.44,1.13,2.54,2.54,0,0,0,0,.55c0,.16-.08.32-.11.48-.06.39-.09.76-.18,1.14s-.17.88-.24,1.32a20.12,20.12,0,0,1-.43,2.16,6.24,6.24,0,0,0,.17,2,2.63,2.63,0,0,0,1.34,1.83,2.83,2.83,0,0,0,2,.35,1.42,1.42,0,0,0,.82-.45c-.11.16-.21.34-.3.5a1.81,1.81,0,0,0-.16,1.31,2.27,2.27,0,0,0,.09.52c.08.24.1.44.16.69a3.27,3.27,0,0,0,.26.65c.18.35.43.42.8.51a7.61,7.61,0,0,0,1.51.08,2.43,2.43,0,0,0,1.4-.33,3,3,0,0,0,.84-1.45,16.07,16.07,0,0,0,.72-1.94c.14-.5.28-1,.46-1.47a13.45,13.45,0,0,0,.54-1.74c.14-.65.61-1.24.82-1.88.11-.34.17-.68.27-1s.23-.54.3-.82a5.83,5.83,0,0,1,.88-1.65,6.21,6.21,0,0,0,.47-.88,7,7,0,0,1,.31-.68l-3.32,8.23a.72.72,0,0,0-.17.55c0,.13-.06.19-.07.3a1.76,1.76,0,0,0,.37,1.1c.57.85,1.72.64,2.55.36a2.61,2.61,0,0,0,1.29-1c.36-.48.82-.85,1.19-1.33a4.07,4.07,0,0,0,.69-1.38,8.71,8.71,0,0,1,.61-1.53,22.32,22.32,0,0,0,.91-3.15c.09-.29.19-.58.29-.87s.23-.42.32-.65c.26-.63.44-1.26.67-1.9a4.94,4.94,0,0,1,.43-1c.16-.28.27-.59.44-.86s.33-.61.49-.91L406.53,698c0,.2-.28.42-.1.58s.22.14.32.23.17.23.3.28a.78.78,0,0,0,.34,0c.43-.07.86,0,1.29-.05a2.14,2.14,0,0,0,1.11-.49,3.33,3.33,0,0,0,1.07-1.28c.14-.26.35-.45.49-.71s.28-.59.42-.89.18-.53.3-.76a6.85,6.85,0,0,0,.37-.71c.11-.31.3-.57.4-.88a4.14,4.14,0,0,1,.3-.76,7,7,0,0,0,.62-1.48c.12-.42.41-.8.54-1.23s.4-.85.55-1.29.4-1,.59-1.53c.07-.2.06-.41.14-.61a6.11,6.11,0,0,0,.35-.67c.17-.48.41-.91.58-1.39s.11-.9.23-1.34a9.9,9.9,0,0,1,.5-1.38,12.15,12.15,0,0,0,.33-1.18c.08-.25.24-.47.34-.72a8.66,8.66,0,0,1,.52-1.06c.23-.42.41-.84.6-1.27a3.45,3.45,0,0,0,.2-1.31,2,2,0,0,1,.24-.72,6.37,6.37,0,0,0,.29-.72,2.46,2.46,0,0,0,.2-.47,2.8,2.8,0,0,1,.14-.8c.11-.28.4-.57.46-.88a12.69,12.69,0,0,0,0-1.85c0-.22,0-.44,0-.66a19.73,19.73,0,0,1,.23-2.29,10,10,0,0,0,.18-1.43,11.49,11.49,0,0,1-.09-1.18c0-1.05-.13-2.12-.08-3.19,0-.33.14-.65.14-1,0-.49-.12-.92-.07-1.42,1-10.72,2.32-20.54,6.39-30.63,4-9.88,9.57-19.42,13.95-28.83a109.25,109.25,0,0,0,4.69-11.9,51.73,51.73,0,0,0,2.58-10.65,22.77,22.77,0,0,1,.86-3.58c.44-1.69.36-3.58.68-5.24a26.47,26.47,0,0,0,.35-3.33l.8-3.62c-.05-.48-.1-1-.13-1.42.92-3,1.62-6.13,2.43-9.17q2.7-10.1,5.39-20.19L464.41,510c1.07-4,2.15-8,3.21-12a120.92,120.92,0,0,0,2.46-13.37,90.14,90.14,0,0,0,.76-11.15,51.63,51.63,0,0,0,.05-6.58c-.2-2-.54-3.83-.93-5.76a21.53,21.53,0,0,0-2-5.33m-74.71,249,0,0,0-.1Zm.86-28.11a2.8,2.8,0,0,0-.12.88c0,.11,0,.23,0,.34A1.94,1.94,0,0,1,394.12,676.72Zm-.54,27a7.39,7.39,0,0,1,.46-2.07c.12-.27.26-.55.4-.83C394.08,702.05,393.79,703.05,393.58,703.75Zm1.55-5.25a4.17,4.17,0,0,0,.08-.63c0-.43,0-.85.06-1.29a6.27,6.27,0,0,1,.24-1.35,7.78,7.78,0,0,0,.24-1.26,4,4,0,0,1,.67-1.49,9.64,9.64,0,0,0,.69-1.31A26.32,26.32,0,0,1,398.2,688Zm8.82-6.87a1.53,1.53,0,0,1,.06-.25c.08-.22.22-.38.28-.61a7.14,7.14,0,0,0,.45-2.23c0-.44.35-.58.54-1s.53-.93.71-1.38c.37-.88.43-1.56.81-2.44.18-.43.16-.82.47-1.2.1-.13.48-.89.57-.88s.39-.59.35-.52Zm7.49-6.18a7,7,0,0,1,.77-2Zm1.74-4.93c0-.07,0-.13,0-.16S413.21,680.41,413.18,680.52Z"/><path class="cls-7" d="M391.54,674.79a3.19,3.19,0,0,0-1.19-.6c-.29-.05-.6-.09-.9-.12s-.49-.1-.74-.15c-.42-.08-.73-.36-1.13,0"/><path class="cls-7" d="M390.73,676.31a5.69,5.69,0,0,1-1.52.3l-.51.06a4.9,4.9,0,0,0-.66,0"/><path class="cls-7" d="M389.43,704.57a16.08,16.08,0,0,1,.24-1.88,2.46,2.46,0,0,1,.55-.82,2.18,2.18,0,0,1,2.07-.84c.79.25.79,1.25.85,1.92a4.93,4.93,0,0,1-.05,1.15c0,.16-.09.3-.12.46a3.46,3.46,0,0,1-.27,1.05"/><path class="cls-7" d="M392.87,708.36A10.17,10.17,0,0,1,393,707a1.66,1.66,0,0,1,.56-1.11c.24-.23.53-.41.77-.63.06-.06.08-.14.15-.2a1.89,1.89,0,0,1,.41-.18,1.83,1.83,0,0,1,1.26-.13c.31.07.77.22.89.57a6.48,6.48,0,0,1,.14,1.1c0,.27.31,2.27,0,2.15,0,0-.58.47-.58.55"/><path class="cls-7" d="M399.06,705.5a11.4,11.4,0,0,1,.25-1.16,2.79,2.79,0,0,1,.42-1.07,2.7,2.7,0,0,1,.38-.57,3.84,3.84,0,0,1,.54-.35c.2-.07.34,0,.54,0a2.18,2.18,0,0,1,.49.08,1.45,1.45,0,0,1,.41.1,1.47,1.47,0,0,1,.32.29,1.13,1.13,0,0,1,.21.84,4.52,4.52,0,0,1-.34,1.08c-.07.17-.1.35-.16.53a4.19,4.19,0,0,1-.39.76c-.05-.13-.88.35-.88.21"/><path class="cls-7" d="M399.3,691.08a4.13,4.13,0,0,1,1.11,0,2.17,2.17,0,0,1,1.17.41"/><path class="cls-7" d="M398.39,692.62a2.69,2.69,0,0,0,.54.33,2.9,2.9,0,0,0,1.07.41,2.47,2.47,0,0,0,.94,0,2.31,2.31,0,0,0,.47-.08c.14,0,.24-.14.39-.13"/><path class="cls-7" d="M407,690.3c.26.05.52.08.78.14a.5.5,0,0,1-.37-.09"/><path class="cls-7" d="M407,689.19c.5.12,1,.21,1.53.37a1.37,1.37,0,0,1,.57.27"/><path class="cls-7" d="M412.87,686.51a6.71,6.71,0,0,1,1.4-.18c.17,0,.46.06.59-.08"/><path class="cls-7" d="M393.11,689.18a19.79,19.79,0,0,1,2,.22c.91.15.14.07.22.07"/><path class="cls-7" d="M392.79,688a5.38,5.38,0,0,1,3.88.44c.23.14.52,0,.78.09"/><path class="cls-7" d="M406.57,697.22c.08-.13.41-1.18.51-1.3a1.56,1.56,0,0,1,.5-.42,5.15,5.15,0,0,1,1.45-.31c.38-.05.79-.12,1.05.22a1.3,1.3,0,0,1,.09,1.15c-.13.42-.28.81-.44,1.21-.09.23-.38,1.05-.61,1.13"/><path class="cls-7" d="M388.91,680.28c0-1.33,1.26-.32,1.55.15.67,1.07,2.09,3.3.55,4.34"/><path d="M180,222.9V230h6.9V222.9H190v17.26h-3.11v-7.35H180v7.35H176.9V222.9Z"/><path d="M204.32,236.61a5.76,5.76,0,0,1-5.57,3.7c-4.34,0-6.26-2.71-6.26-6.76s2.71-6.53,6.43-6.43c3,.07,5.75,2.34,5.45,6.46l-.05.39h-8.73c0,2.2.94,3.7,3.18,3.7a2.87,2.87,0,0,0,2.79-2Zm-3.13-4.21c.05-2-1-2.94-2.54-2.89a2.88,2.88,0,0,0-2.91,2.89Z"/><path d="M207.26,228.06a15.36,15.36,0,0,1,4.88-.94c3.9,0,5.33,1.92,5.33,4.93v5.23a.65.65,0,0,0,.61.74,2.48,2.48,0,0,0,1-.15v2a5.09,5.09,0,0,1-2,.39,2.33,2.33,0,0,1-2.34-1.75,5.67,5.67,0,0,1-3.9,1.75c-2.51,0-4.39-1.28-4.41-4s2-4.09,5.25-4.09a21.85,21.85,0,0,1,2.79.24v-.76c0-1.41-.89-2.17-2.67-2.15a10.39,10.39,0,0,0-4,.79Zm7.15,6a13,13,0,0,0-2.51-.15c-1.48.07-2.42.76-2.44,2.07a1.81,1.81,0,0,0,2.09,1.9,5.06,5.06,0,0,0,2.86-1Z"/><path d="M233.3,221.32v18.84h-2.56l-.35-2.22a4.49,4.49,0,0,1-4.11,2.37c-3.48.05-5.55-2.83-5.55-6.63,0-4.64,3-6.56,5.52-6.56a4.09,4.09,0,0,1,4,2.44v-7.84Zm-9.42,12.33c0,2.2.87,3.92,3.16,3.92s3.25-1.72,3.25-3.89c0-2.94-1.57-4-3.28-4S223.88,230.82,223.88,233.65Z"/><path d="M244,227.24l.45,2.3a4.33,4.33,0,0,1,4-2.45,3.77,3.77,0,0,1,3.85,2.4,4.55,4.55,0,0,1,4.17-2.4c3,0,4.21,2,4.21,4.64v8.43h-3.06v-7.44c0-2-.46-3-2.14-3-2.22,0-2.81,1.68-2.81,3.58v6.9h-3.06v-7.44c0-2-.47-3-2.14-3-2.37,0-2.84,1.9-2.84,4v6.51h-3.06V227.24Z"/><path d="M266.7,227.24v7.45c0,2,.79,3,2.59,3,2.34,0,3.3-2.41,3.3-4.86v-5.62h3.06v12.92h-2.44l-.44-2.81a4.72,4.72,0,0,1-4.47,3c-3.15,0-4.66-1.95-4.66-5.2v-7.87Z"/><path d="M279.16,236.46a6.68,6.68,0,0,0,4.19,1.43c1.48,0,2.34-.44,2.34-1.5,0-2.51-7.47-.84-7.23-5.57.1-2.32,1.81-3.7,5.23-3.7a10.49,10.49,0,0,1,4.66,1.21l-1.08,2.17a7.25,7.25,0,0,0-3.7-1.06c-1.21,0-2.22.39-2.17,1.4.15,2,7.32.47,7.32,5.45,0,2.66-2.39,4.05-5.45,4a8.78,8.78,0,0,1-5.3-1.68Z"/><path d="M295.19,223.59v3.78h3.25l-.42,2.46h-2.83v5.92c0,1.4.64,1.95,1.67,1.95a5.72,5.72,0,0,0,1.95-.57l.57,2.34a7.94,7.94,0,0,1-3.28.84c-3,0-4-2-4-4.14v-6.34h-1.8v-2.46h1.95l.37-3.43Z"/><path d="M309.54,221.32v8.22a4.4,4.4,0,0,1,4.32-2.42c2.44.07,5.05,1.73,5.05,6.48,0,3.9-2,6.71-5.45,6.71a4.28,4.28,0,0,1-4.07-2.37l-.42,2.22h-2.49V221.72Zm-.12,12.36c0,2.22.81,4,3.25,4,2,0,3.11-1.5,3.11-4,0-3-1.5-3.95-3.13-3.95S309.42,231.09,309.42,233.68Z"/><path d="M333,236.61a5.78,5.78,0,0,1-5.58,3.7c-4.34,0-6.26-2.71-6.26-6.76s2.71-6.53,6.43-6.43c3,.07,5.75,2.34,5.45,6.46l0,.39h-8.73c0,2.2.93,3.7,3.18,3.7a2.87,2.87,0,0,0,2.78-2Zm-3.14-4.21c.05-2-1-2.94-2.54-2.89a2.89,2.89,0,0,0-2.91,2.89Z"/><path d="M173.46,261.16v12.92h-3.08V263.7h-1.81v-2.54Zm-1.56-5a1.65,1.65,0,0,1,1.83,1.55,1.83,1.83,0,0,1-3.63,0A1.59,1.59,0,0,1,171.9,256.13Z"/><path d="M179,261.16l.47,2.29a4.78,4.78,0,0,1,4.41-2.42c3,0,4.49,2,4.49,4.61v8.44h-3.06v-7.45c0-2-.74-3-2.41-3-2.35,0-3.26,1.9-3.26,4v6.51h-3V261.16Z"/><path d="M199.72,255.24v14.62c0,1.38.62,1.75,1.53,1.75a2.42,2.42,0,0,0,1.29-.47l.56,2.2a5.32,5.32,0,0,1-2.78.88c-2.57,0-3.65-1.72-3.65-4.06V255.61Z"/><path d="M208.58,261.16v12.92H205.5V263.7h-1.8v-2.54Zm-1.56-5a1.65,1.65,0,0,1,1.83,1.55,1.83,1.83,0,0,1-3.63,0A1.59,1.59,0,0,1,207,256.13Z"/><path d="M214.15,261.16l.47,2.29A4.8,4.8,0,0,1,219,261c3,0,4.48,2,4.48,4.61v8.44h-3.06v-7.45c0-2-.73-3-2.41-3-2.34,0-3.26,1.9-3.26,4v6.51h-3V261.16Z"/><path d="M238,270.53a5.77,5.77,0,0,1-5.58,3.69c-4.34,0-6.26-2.71-6.26-6.75s2.71-6.54,6.44-6.44c3,.08,5.74,2.35,5.45,6.46l-.05.4h-8.73c0,2.19.93,3.7,3.18,3.7a2.87,2.87,0,0,0,2.78-2Zm-3.14-4.22c0-2-1-2.93-2.54-2.89a2.89,2.89,0,0,0-2.91,2.89Z"/><path d="M247.82,261.16l2.51,9h.2l2.52-9h3.15l2.54,9h.18l2.56-9h3.18l-4.34,12.92h-3l-2.64-8.73h-.2l-2.54,8.73h-3l-4.24-12.92Z"/><path d="M270.66,261.16v12.92h-3.08V263.7h-1.8v-2.54Zm-1.56-5a1.65,1.65,0,0,1,1.83,1.55,1.83,1.83,0,0,1-3.63,0A1.59,1.59,0,0,1,269.1,256.13Z"/><path d="M277.79,257.51v3.77H281l-.42,2.46h-2.83v5.92c0,1.41.64,1.95,1.67,1.95a5.5,5.5,0,0,0,2-.57l.57,2.35a8.15,8.15,0,0,1-3.28.83c-3,0-4-2-4-4.14v-6.34h-1.8v-2.46h1.95l.37-3.43Z"/><path d="M287,255.24v8a4.81,4.81,0,0,1,4.24-2.2c3,0,4.48,2,4.48,4.61v8.44h-3v-7.45c0-2-.74-3-2.42-3-2.34,0-3.25,1.9-3.25,4v6.51h-3.06V255.61Z"/><path d="M307.9,257.51v3.77h3.26l-.42,2.46H307.9v5.92c0,1.41.64,1.95,1.68,1.95a5.5,5.5,0,0,0,1.95-.57l.56,2.35a8.15,8.15,0,0,1-3.28.83c-3,0-4-2-4-4.14v-6.34H303v-2.46H305l.37-3.43Z"/><path d="M317.1,255.24v8a4.83,4.83,0,0,1,4.24-2.2c3,0,4.49,2,4.49,4.61v8.44h-3.06v-7.45c0-2-.74-3-2.41-3-2.35,0-3.26,1.9-3.26,4v6.51H314V255.61Z"/><path d="M340.23,270.53a5.75,5.75,0,0,1-5.57,3.69c-4.34,0-6.26-2.71-6.26-6.75s2.71-6.54,6.43-6.44c3,.08,5.75,2.35,5.45,6.46l0,.4H331.5c0,2.19.94,3.7,3.18,3.7a2.87,2.87,0,0,0,2.79-2Zm-3.13-4.22c0-2-1-2.93-2.54-2.89a2.88,2.88,0,0,0-2.91,2.89Z"/><path d="M229.89,289.15v8.21A4.39,4.39,0,0,1,234.2,295c2.44.07,5.06,1.72,5.06,6.48,0,3.9-1.95,6.71-5.45,6.71a4.28,4.28,0,0,1-4.07-2.37l-.42,2.22h-2.49V289.55Zm-.12,12.36c0,2.21.81,4,3.25,4,2,0,3.11-1.5,3.11-4,0-3-1.51-3.95-3.13-3.95C231.22,297.51,229.77,298.92,229.77,301.51Z"/><path d="M247.77,295c3.23,0,6,2.19,6,6.6,0,3.63-2.14,6.59-6.16,6.59-4.37,0-6.17-3-6.17-6.59C241.48,297.14,244.27,295,247.77,295Zm-3.08,6.6c0,2.05.69,4,3,4,2.09,0,3-1.95,3-4,0-2.86-1.41-4-3-4C246.07,297.54,244.69,298.65,244.69,301.55Z"/><path d="M268.61,289.15V308H266l-.34-2.22a4.53,4.53,0,0,1-4.12,2.37c-3.48.05-5.55-2.84-5.55-6.63,0-4.64,3-6.56,5.53-6.56a4.1,4.1,0,0,1,4,2.44v-7.84Zm-9.42,12.33c0,2.2.86,3.92,3.16,3.92s3.25-1.72,3.25-3.89c0-2.94-1.58-4-3.28-4S259.19,298.65,259.19,301.48Z"/><path d="M273.94,295.07l3.18,9.12h.2l2.91-9.12h3.15l-4.78,13.12c-1.58,4.31-3.06,5.4-7.62,4.44l.54-2.59c2.91.71,3.31,0,4.22-2.49l-4.86-12.48Z"/><path d="M346.07,248.59a53.16,53.16,0,0,1,31.42,21.71,91.22,91.22,0,0,1,6.76,12.2c.85,1.8,3.53.23,2.68-1.57-3.31-7-7.24-13.84-12.59-19.53a54,54,0,0,0-16.28-11.83,62.37,62.37,0,0,0-11.17-4c-1.93-.49-2.76,2.5-.82,3Z"/><path d="M375.13,280.45c3.84,1.72,7.81,3.09,11.75,4.53,1,.38,1.88-.58,2-1.5.19-2.05.44-3.76.67-5.83.19-1.75.3-3.5.49-5.24a1.55,1.55,0,0,0-1.55-1.55,1.59,1.59,0,0,0-1.55,1.55c-.2,1.74-.31,3.49-.5,5.24-.21,1.94-.49,3.88-.67,5.83l2-1.49c-3.69-1.35-7.43-2.61-11-4.22a1.6,1.6,0,0,0-2.12.56,1.56,1.56,0,0,0,.56,2.12Z"/><path d="M604.85,416.25a12.61,12.61,0,0,0-4.91-1.43c-1.72,0-2.86.52-2.86,1.92,0,3.31,9.23,1.8,9.23,7.65,0,3.55-2.74,5.35-6.34,5.35a10.66,10.66,0,0,1-6.63-2.12l1.52-2.32a8.5,8.5,0,0,0,5,1.82c2.1,0,3.35-.91,3.35-2.39,0-3.43-9.17-2.19-9.17-7.84,0-3.16,2.44-4.68,5.89-4.68a13.68,13.68,0,0,1,6.12,1.67Z"/><path d="M613,413v3.77h3.25l-.42,2.47H613v5.92c0,1.4.64,1.94,1.67,1.94a5.76,5.76,0,0,0,2-.56l.57,2.34a8.1,8.1,0,0,1-3.28.84c-3,0-4-2-4-4.15v-6.33h-1.8v-2.47h1.95l.37-3.43Z"/><path d="M621.35,416.67l.57,2.66c.59-2,2.1-2.83,4.19-2.78a4.78,4.78,0,0,1,1.33.22l-.46,2.68a5.33,5.33,0,0,0-1.85-.24c-2.27.07-3.14,1.82-3.14,3.89v6.49h-3V416.67Z"/><path d="M629.07,417.48a15.46,15.46,0,0,1,4.89-.93c3.89,0,5.32,1.92,5.32,4.93v5.22a.65.65,0,0,0,.62.74,2.5,2.5,0,0,0,1-.14v2a5.05,5.05,0,0,1-2,.4,2.34,2.34,0,0,1-2.34-1.75,5.65,5.65,0,0,1-3.9,1.75c-2.51,0-4.38-1.29-4.41-4s2-4.1,5.25-4.1a19.85,19.85,0,0,1,2.79.25v-.76c0-1.41-.89-2.17-2.66-2.15a10.41,10.41,0,0,0-4,.79Zm7.15,6a14,14,0,0,0-2.51-.14c-1.48.07-2.42.76-2.44,2.07a1.8,1.8,0,0,0,2.09,1.89,5,5,0,0,0,2.86-1Z"/><path d="M647.05,416.67v12.92H644V419.21h-1.8v-2.54Zm-1.55-5a1.64,1.64,0,0,1,1.82,1.55,1.82,1.82,0,0,1-3.62,0A1.59,1.59,0,0,1,645.5,411.64Z"/><path d="M662.24,416.67v11c0,4.29-1.67,6.88-6.41,6.88a13.48,13.48,0,0,1-5.27-1.11l.71-2.32a11,11,0,0,0,4.22,1c2.78,0,3.7-1.38,3.7-3.5v-1.13a4.47,4.47,0,0,1-4,2.05c-3.48.07-5.48-2.57-5.48-6.37,0-4.63,3-6.55,5.53-6.55a4.27,4.27,0,0,1,4.09,2.34l.32-2.22Zm-9.32,6.41c0,2.19.87,3.92,3.16,3.92s3.21-1.73,3.21-3.9c0-2.93-1.56-4-3.24-4S652.92,420.24,652.92,423.08Z"/><path d="M668.46,410.75v8a4.82,4.82,0,0,1,4.24-2.19c3,0,4.49,1.94,4.49,4.61v8.43h-3.06v-7.45c0-2-.74-3-2.41-3-2.35,0-3.26,1.9-3.26,4v6.51H665.4V411.12Z"/><path d="M684.22,413v3.77h3.26l-.42,2.47h-2.84v5.92c0,1.4.64,1.94,1.68,1.94a5.76,5.76,0,0,0,2-.56l.56,2.34a8.1,8.1,0,0,1-3.28.84c-3,0-4-2-4-4.15v-6.33h-1.8v-2.47h1.95l.37-3.43Z"/><path d="M618,460a5.77,5.77,0,0,1-5.58,3.7c-4.34,0-6.26-2.71-6.26-6.76s2.71-6.53,6.44-6.43c3,.07,5.74,2.34,5.45,6.46l0,.39h-8.73c0,2.2.94,3.7,3.18,3.7a2.89,2.89,0,0,0,2.79-2Zm-3.13-4.21c0-2-1-2.94-2.54-2.89a2.87,2.87,0,0,0-2.91,2.89Z"/><path d="M623.75,444.66v14.63c0,1.38.61,1.75,1.52,1.75a2.46,2.46,0,0,0,1.29-.47l.56,2.19a5.31,5.31,0,0,1-2.78.89c-2.57,0-3.65-1.73-3.65-4.07V445Z"/><path d="M631.64,444.66v8.22a4.39,4.39,0,0,1,4.31-2.42c2.44.07,5.06,1.72,5.06,6.48,0,3.9-2,6.71-5.45,6.71a4.27,4.27,0,0,1-4.07-2.37l-.42,2.22h-2.49V445.06ZM631.51,457c0,2.22.82,4,3.26,4,2,0,3.11-1.5,3.11-4,0-3-1.51-4-3.14-4S631.51,454.43,631.51,457Z"/><path d="M649.52,450.46c3.23,0,6,2.19,6,6.61,0,3.62-2.15,6.58-6.17,6.58-4.36,0-6.16-3-6.16-6.58C643.23,452.65,646,450.46,649.52,450.46Zm-3.08,6.61c0,2,.69,4,3,4,2.1,0,3-1.95,3-4,0-2.86-1.41-4-3-4S646.44,454.16,646.44,457.07Z"/><path d="M659.61,450.58l2.51,9h.2l2.51-9H668l2.54,9h.17l2.57-9h3.18l-4.34,12.92h-3l-2.64-8.73h-.2l-2.54,8.73h-3l-4.24-12.92Z"/><path d="M678.3,459.8a6.73,6.73,0,0,0,4.2,1.43c1.47,0,2.34-.44,2.34-1.5,0-2.51-7.47-.84-7.23-5.57.1-2.32,1.8-3.7,5.23-3.7a10.49,10.49,0,0,1,4.66,1.21l-1.08,2.17a7.3,7.3,0,0,0-3.7-1.06c-1.21,0-2.22.39-2.17,1.4.15,2.05,7.32.47,7.32,5.45,0,2.66-2.39,4.05-5.45,4a8.78,8.78,0,0,1-5.3-1.68Z"/><path d="M586.88,442.37c-9.62,5.72-19.3,11.39-29.1,16.81a59.28,59.28,0,0,1-5.47,2.87,1.51,1.51,0,0,0-.54,2.05,1.54,1.54,0,0,0,2.05.54c4.3-1.83,8.37-4.47,12.41-6.78q8.44-4.83,16.83-9.76c1.78-1,3.56-2.08,5.34-3.14a1.5,1.5,0,0,0-1.52-2.59Z"/><path d="M554.26,453.55c-1.67,3.57-3,7.27-4.38,10.94-.38,1,.58,1.8,1.45,1.9,1.87.22,3.73.52,5.59.76.94.12,1.87.23,2.81.31l.54.05.32,0h.06l1.3.18a1.54,1.54,0,0,0,1.84-1.05,1.5,1.5,0,0,0-1-1.84c-1.87-.26-3.75-.43-5.62-.67s-3.86-.57-5.8-.79l1.44,1.9c1.3-3.43,2.52-6.9,4.08-10.22a1.54,1.54,0,0,0-.54-2.05,1.51,1.51,0,0,0-2,.53Z"/><circle cx="79" cy="61.53" r="34.44"/><path class="cls-8" d="M82.51,47.08s-.12,20.87,0,24.37c0,.77.19,1,.73,1l5.08.54-.08,2.23H71.92L72,73l4.46-.58c.58,0,.81-.23.81-1,.08-10,0-19.6,0-19.6l-5.62,1.08c-.19-.31-1.12-2.46-.46-2.73l10.35-4Z"/><path d="M146.19,54.39l-.27,3.12h-5.55V75.39h-3.75V57.51h-5.76V54.39Z"/><path d="M152.34,52.47v9.72a5.86,5.86,0,0,1,5.16-2.67c3.69,0,5.46,2.37,5.46,5.61V75.39h-3.72V66.33c0-2.4-.9-3.69-2.94-3.69-2.85,0-4,2.31-4,4.83v7.92h-3.72V52.92Z"/><path d="M180.48,71.07a7,7,0,0,1-6.78,4.5c-5.28,0-7.62-3.3-7.62-8.22s3.3-7.95,7.83-7.83c3.69.09,7,2.85,6.63,7.86l-.06.48H169.86c0,2.67,1.14,4.5,3.87,4.5a3.5,3.5,0,0,0,3.39-2.49Zm-3.81-5.13c.06-2.43-1.26-3.57-3.09-3.51A3.5,3.5,0,0,0,170,65.94Z"/><path d="M190.5,70.89a8.15,8.15,0,0,0,5.1,1.74c1.8,0,2.85-.54,2.85-1.83,0-3.06-9.09-1-8.79-6.78.12-2.82,2.19-4.5,6.36-4.5A12.78,12.78,0,0,1,201.69,61l-1.32,2.64a8.9,8.9,0,0,0-4.5-1.29c-1.47,0-2.7.48-2.64,1.71.18,2.49,8.91.57,8.91,6.63,0,3.24-2.91,4.92-6.63,4.89a10.76,10.76,0,0,1-6.45-2Z"/><path d="M210,55.23v4.59h4l-.51,3H210V70c0,1.71.78,2.37,2,2.37a6.83,6.83,0,0,0,2.37-.69l.69,2.85a9.82,9.82,0,0,1-4,1c-3.69,0-4.83-2.46-4.83-5V62.82h-2.19v-3h2.37l.45-4.17Z"/><path d="M217.32,60.66a18.74,18.74,0,0,1,5.94-1.14c4.74,0,6.48,2.34,6.48,6v6.36a.79.79,0,0,0,.75.9,3,3,0,0,0,1.23-.18v2.49a6.08,6.08,0,0,1-2.49.48,2.84,2.84,0,0,1-2.85-2.13,6.87,6.87,0,0,1-4.74,2.13c-3.06,0-5.34-1.56-5.37-4.83s2.46-5,6.39-5a24.49,24.49,0,0,1,3.39.3v-.93c0-1.71-1.08-2.64-3.24-2.61a12.68,12.68,0,0,0-4.86,1ZM226,68a16.62,16.62,0,0,0-3.06-.18c-1.8.09-2.94.93-3,2.52a2.21,2.21,0,0,0,2.55,2.31A6.17,6.17,0,0,0,226,71.4Z"/><path d="M237.24,59.67l.69,3.24c.72-2.4,2.55-3.45,5.1-3.39a6.19,6.19,0,0,1,1.62.27l-.57,3.27a6.48,6.48,0,0,0-2.25-.3C239.07,62.85,238,65,238,67.5v7.89H234.3V59.67Z"/><path d="M252.54,55.23v4.59h4l-.51,3h-3.45V70c0,1.71.78,2.37,2,2.37A6.83,6.83,0,0,0,257,71.7l.69,2.85a9.82,9.82,0,0,1-4,1c-3.69,0-4.83-2.46-4.83-5V62.82h-2.19v-3H249l.45-4.17Z"/><path d="M269.25,59.67l.54,2.82a5.71,5.71,0,0,1,5.37-3c3,.09,6.18,2.1,6.18,7.89,0,4.74-2.37,8.16-6.66,8.16A4.88,4.88,0,0,1,270,73v8.37h-3.75V59.67Zm.51,7.83c0,2.7,1,4.86,4,4.86,2.43,0,3.78-1.83,3.78-4.92,0-3.66-1.83-4.8-3.81-4.8C271.56,62.64,269.76,64.35,269.76,67.5Z"/><path d="M291.69,59.52c3.93,0,7.35,2.67,7.35,8,0,4.41-2.61,8-7.5,8-5.31,0-7.5-3.6-7.5-8C284,62.19,287.43,59.52,291.69,59.52Zm-3.75,8c0,2.49.84,4.86,3.66,4.86,2.55,0,3.69-2.37,3.69-4.86,0-3.48-1.71-4.89-3.6-4.89C289.62,62.67,287.94,64,287.94,67.56Z"/><path d="M302.76,70.89a8.15,8.15,0,0,0,5.1,1.74c1.8,0,2.85-.54,2.85-1.83,0-3.06-9.09-1-8.79-6.78.12-2.82,2.19-4.5,6.36-4.5A12.78,12.78,0,0,1,314,61l-1.32,2.64a8.9,8.9,0,0,0-4.5-1.29c-1.47,0-2.7.48-2.64,1.71.18,2.49,8.91.57,8.91,6.63,0,3.24-2.91,4.92-6.63,4.89a10.76,10.76,0,0,1-6.45-2Z"/><path d="M322.32,59.67V75.39h-3.75V62.76h-2.19V59.67Zm-1.89-6.12a2,2,0,0,1,2.22,1.89,2.22,2.22,0,0,1-4.41,0A1.93,1.93,0,0,1,320.43,53.55Z"/><path d="M331,55.23v4.59h4l-.51,3H331V70c0,1.71.78,2.37,2,2.37a6.83,6.83,0,0,0,2.37-.69l.69,2.85a9.82,9.82,0,0,1-4,1c-3.69,0-4.83-2.46-4.83-5V62.82h-2.19v-3h2.37l.45-4.17Z"/><path d="M343.35,59.67V75.39H339.6V62.76h-2.19V59.67Zm-1.89-6.12a2,2,0,0,1,2.22,1.89,2.22,2.22,0,0,1-4.41,0A1.93,1.93,0,0,1,341.46,53.55Z"/><path d="M354.27,59.52c3.93,0,7.35,2.67,7.35,8,0,4.41-2.61,8-7.5,8-5.31,0-7.5-3.6-7.5-8C346.62,62.19,350,59.52,354.27,59.52Zm-3.75,8c0,2.49.84,4.86,3.66,4.86,2.55,0,3.69-2.37,3.69-4.86,0-3.48-1.71-4.89-3.6-4.89C352.2,62.67,350.52,64,350.52,67.56Z"/><path d="M367.86,59.67l.57,2.79a5.8,5.8,0,0,1,5.37-2.94c3.69,0,5.46,2.37,5.46,5.61V75.39h-3.72V66.33c0-2.4-.9-3.69-2.94-3.69-2.85,0-4,2.31-4,4.83v7.92h-3.72V59.67Z"/><path d="M394.2,59.67V75.39h-3.75V62.76h-2.19V59.67Zm-1.89-6.12a2,2,0,0,1,2.22,1.89,2.22,2.22,0,0,1-4.41,0A1.93,1.93,0,0,1,392.31,53.55Z"/><path d="M398.46,70.89a8.15,8.15,0,0,0,5.1,1.74c1.8,0,2.85-.54,2.85-1.83,0-3.06-9.09-1-8.79-6.78.12-2.82,2.19-4.5,6.36-4.5A12.78,12.78,0,0,1,409.65,61l-1.32,2.64a8.9,8.9,0,0,0-4.5-1.29c-1.47,0-2.7.48-2.64,1.71.18,2.49,8.91.57,8.91,6.63,0,3.24-2.91,4.92-6.63,4.89a10.76,10.76,0,0,1-6.45-2Z"/><path d="M419.64,60.66a18.74,18.74,0,0,1,5.94-1.14c4.74,0,6.48,2.34,6.48,6v6.36a.79.79,0,0,0,.75.9A3,3,0,0,0,434,72.6v2.49a6.1,6.1,0,0,1-2.5.48,2.84,2.84,0,0,1-2.84-2.13A6.87,6.87,0,0,1,424,75.57c-3.06,0-5.34-1.56-5.37-4.83s2.46-5,6.39-5a24.49,24.49,0,0,1,3.39.3v-.93c0-1.71-1.08-2.64-3.24-2.61a12.68,12.68,0,0,0-4.86,1Zm8.7,7.35a16.62,16.62,0,0,0-3.06-.18c-1.8.09-2.94.93-3,2.52a2.21,2.21,0,0,0,2.55,2.31,6.17,6.17,0,0,0,3.48-1.26Z"/><path d="M440.34,52.47V70.26c0,1.68.75,2.13,1.86,2.13a2.93,2.93,0,0,0,1.56-.57l.69,2.67a6.47,6.47,0,0,1-3.39,1.08c-3.12,0-4.44-2.1-4.44-4.95V52.92Z"/><path d="M448.83,52.47V70.26c0,1.68.75,2.13,1.86,2.13a2.93,2.93,0,0,0,1.56-.57l.69,2.67a6.47,6.47,0,0,1-3.39,1.08c-3.12,0-4.44-2.1-4.44-4.95V52.92Z"/><path d="M461.22,60.66a18.74,18.74,0,0,1,5.94-1.14c4.74,0,6.47,2.34,6.47,6v6.36a.8.8,0,0,0,.75.9,3,3,0,0,0,1.24-.18v2.49a6.1,6.1,0,0,1-2.5.48,2.83,2.83,0,0,1-2.84-2.13,6.89,6.89,0,0,1-4.74,2.13c-3.06,0-5.34-1.56-5.37-4.83s2.46-5,6.39-5a24.49,24.49,0,0,1,3.39.3v-.93c0-1.71-1.08-2.64-3.24-2.61a12.68,12.68,0,0,0-4.86,1Zm8.7,7.35a16.62,16.62,0,0,0-3.06-.18c-1.8.09-2.94.93-3,2.52a2.21,2.21,0,0,0,2.55,2.31,6.17,6.17,0,0,0,3.48-1.26Z"/><path d="M481.92,52.47v10a5.37,5.37,0,0,1,5.25-2.94c3,.09,6.14,2.1,6.14,7.89,0,4.74-2.36,8.16-6.62,8.16a5.2,5.2,0,0,1-4.95-2.88l-.51,2.7h-3V53Zm-.15,15c0,2.7,1,4.86,4,4.86,2.46,0,3.77-1.83,3.77-4.92,0-3.66-1.82-4.8-3.8-4.8C483.54,62.64,481.77,64.35,481.77,67.5Z"/><path d="M503.67,59.52c3.92,0,7.34,2.67,7.34,8,0,4.41-2.61,8-7.5,8-5.3,0-7.49-3.6-7.49-8C496,62.19,499.41,59.52,503.67,59.52Zm-3.75,8c0,2.49.83,4.86,3.66,4.86,2.54,0,3.68-2.37,3.68-4.86,0-3.48-1.71-4.89-3.59-4.89C501.59,62.67,499.92,64,499.92,67.56Z"/><path d="M517.82,59.67v9.06c0,2.4,1,3.69,3.15,3.69,2.85,0,4-2.94,4-5.91V59.67h3.72V75.39h-3L525.21,72a5.75,5.75,0,0,1-5.44,3.6c-3.84,0-5.66-2.37-5.66-6.33V59.67Z"/><path d="M537.38,55.23v4.59h4l-.51,3h-3.45V70c0,1.71.78,2.37,2,2.37a6.83,6.83,0,0,0,2.37-.69l.69,2.85a9.82,9.82,0,0,1-4,1c-3.69,0-4.83-2.46-4.83-5V62.82h-2.19v-3h2.37l.45-4.17Z"/><path d="M554.09,59.67l.54,2.82a5.71,5.71,0,0,1,5.37-3c3,.09,6.18,2.1,6.18,7.89,0,4.74-2.37,8.16-6.66,8.16A4.88,4.88,0,0,1,554.87,73v8.37h-3.75V59.67Zm.51,7.83c0,2.7,1,4.86,4,4.86,2.43,0,3.78-1.83,3.78-4.92,0-3.66-1.83-4.8-3.81-4.8C556.4,62.64,554.6,64.35,554.6,67.5Z"/><path d="M576.53,59.52c3.93,0,7.35,2.67,7.35,8,0,4.41-2.61,8-7.5,8-5.31,0-7.5-3.6-7.5-8C568.88,62.19,572.27,59.52,576.53,59.52Zm-3.75,8c0,2.49.84,4.86,3.66,4.86,2.55,0,3.69-2.37,3.69-4.86,0-3.48-1.71-4.89-3.6-4.89C574.46,62.67,572.78,64,572.78,67.56Z"/><path d="M587.6,70.89a8.15,8.15,0,0,0,5.1,1.74c1.8,0,2.85-.54,2.85-1.83,0-3.06-9.09-1-8.79-6.78.12-2.82,2.19-4.5,6.36-4.5A12.78,12.78,0,0,1,598.79,61l-1.32,2.64a8.9,8.9,0,0,0-4.5-1.29c-1.47,0-2.7.48-2.64,1.71.18,2.49,8.91.57,8.91,6.63,0,3.24-2.91,4.92-6.63,4.89a10.76,10.76,0,0,1-6.45-2Z"/><path d="M607.1,55.23v4.59h4l-.51,3H607.1V70c0,1.71.78,2.37,2,2.37a6.83,6.83,0,0,0,2.37-.69l.69,2.85a9.82,9.82,0,0,1-4,1c-3.69,0-4.83-2.46-4.83-5V62.82h-2.19v-3h2.37l.45-4.17Z"/><path d="M617.69,59.67v9.06c0,2.4,1,3.69,3.15,3.69,2.85,0,4-2.94,4-5.91V59.67h3.72V75.39h-3L625.07,72a5.73,5.73,0,0,1-5.43,3.6c-3.84,0-5.67-2.37-5.67-6.33V59.67Z"/><path d="M635.36,59.67l.69,3.24c.72-2.4,2.55-3.45,5.1-3.39a6.19,6.19,0,0,1,1.62.27l-.57,3.27a6.48,6.48,0,0,0-2.25-.3c-2.76.09-3.81,2.22-3.81,4.74v7.89h-3.72V59.67Z"/><path d="M658.34,71.07a7,7,0,0,1-6.78,4.5c-5.28,0-7.62-3.3-7.62-8.22s3.3-7.95,7.83-7.83c3.69.09,7,2.85,6.63,7.86l-.06.48H647.72c0,2.67,1.14,4.5,3.87,4.5A3.5,3.5,0,0,0,655,69.87Zm-3.81-5.13c.06-2.43-1.26-3.57-3.09-3.51a3.5,3.5,0,0,0-3.54,3.51Z"/></svg>