<svg id="Layer_1" data-name="Layer 1" xmlns="http://www.w3.org/2000/svg" viewBox="0 0 780 1051.14"><defs><style>.cls-1{font-size:30px;font-family:ABCSansBold, ABCSans;}.cls-2{letter-spacing:-0.02em;}.cls-3{letter-spacing:-0.04em;}.cls-4{letter-spacing:-0.02em;}.cls-5{letter-spacing:-0.02em;}.cls-6{letter-spacing:0.02em;}.cls-7,.cls-8,.cls-9{fill:#fff;}.cls-7{opacity:0.7;}.cls-8{opacity:0.37;}.cls-9{font-size:38.5px;font-family:ABCSerifBold, ABCSerif;}.cls-10{opacity:0.22;}.cls-11{fill:#abd6ee;}.cls-12{fill:#66b7e4;}</style></defs><path d="M256.14,225.66l-.22,2.56h-4.57v14.7h-3.08v-14.7h-4.73v-2.56Z"/><path d="M261.2,224.08v8a4.81,4.81,0,0,1,4.24-2.2c3,0,4.48,1.95,4.48,4.61v8.44h-3.05v-7.45c0-2-.74-3-2.42-3-2.34,0-3.25,1.9-3.25,4v6.51h-3.06V224.45Z"/><path d="M284.33,239.37a5.76,5.76,0,0,1-5.57,3.7c-4.34,0-6.27-2.72-6.27-6.76s2.71-6.54,6.44-6.44c3,.08,5.74,2.35,5.45,6.46l-.05.4H275.6c0,2.19.94,3.7,3.18,3.7a2.89,2.89,0,0,0,2.79-2.05Zm-3.13-4.22c.05-2-1-2.93-2.54-2.88a2.86,2.86,0,0,0-2.91,2.88Z"/><path d="M292.42,230.81a15.42,15.42,0,0,1,4.88-.94c3.9,0,5.33,1.93,5.33,4.93V240a.65.65,0,0,0,.62.74,2.45,2.45,0,0,0,1-.15v2a5.05,5.05,0,0,1-2.05.4,2.33,2.33,0,0,1-2.34-1.76,5.67,5.67,0,0,1-3.9,1.76c-2.51,0-4.39-1.29-4.41-4s2-4.1,5.25-4.1a19.85,19.85,0,0,1,2.79.25v-.77c0-1.4-.89-2.17-2.67-2.14a10.39,10.39,0,0,0-4,.79Zm7.15,6a13.88,13.88,0,0,0-2.51-.15c-1.48.08-2.42.77-2.44,2.08a1.8,1.8,0,0,0,2.09,1.89,5.07,5.07,0,0,0,2.86-1Z"/><path d="M310.4,230v12.92h-3.08V232.54h-1.8V230Zm-1.55-5a1.65,1.65,0,0,1,1.82,1.55,1.82,1.82,0,0,1-3.62,0A1.59,1.59,0,0,1,308.85,225Z"/><path d="M316,230l.44,2.29a4.31,4.31,0,0,1,4-2.44,3.75,3.75,0,0,1,3.84,2.39,4.54,4.54,0,0,1,4.17-2.39c3,0,4.22,2,4.22,4.63v8.44h-3.06v-7.45c0-2-.47-3-2.14-3-2.22,0-2.82,1.67-2.82,3.57v6.91h-3v-7.45c0-2-.47-3-2.15-3-2.37,0-2.83,1.9-2.83,4v6.51h-3.06V230Z"/><path d="M345,230v12.92h-3.08V232.54h-1.8V230Zm-1.55-5a1.64,1.64,0,0,1,1.82,1.55,1.82,1.82,0,0,1-3.62,0A1.59,1.59,0,0,1,343.4,225Z"/><path d="M348.46,239.22a6.68,6.68,0,0,0,4.19,1.43c1.48,0,2.34-.45,2.34-1.51,0-2.51-7.47-.83-7.22-5.57.09-2.32,1.8-3.7,5.22-3.7a10.49,10.49,0,0,1,4.66,1.21l-1.08,2.17a7.36,7.36,0,0,0-3.7-1.06c-1.21,0-2.22.4-2.17,1.41.15,2,7.32.47,7.32,5.45,0,2.66-2.39,4-5.45,4a8.9,8.9,0,0,1-5.3-1.68Z"/><path d="M365.87,230.81a15.36,15.36,0,0,1,4.88-.94c3.9,0,5.33,1.93,5.33,4.93V240a.65.65,0,0,0,.61.74,2.48,2.48,0,0,0,1-.15v2a5.05,5.05,0,0,1-2,.4,2.33,2.33,0,0,1-2.34-1.76,5.67,5.67,0,0,1-3.9,1.76c-2.52,0-4.39-1.29-4.41-4s2-4.1,5.25-4.1a20.14,20.14,0,0,1,2.79.25v-.77c0-1.4-.89-2.17-2.67-2.14a10.39,10.39,0,0,0-4,.79Zm7.15,6a13.88,13.88,0,0,0-2.51-.15c-1.48.08-2.42.77-2.45,2.08a1.81,1.81,0,0,0,2.1,1.89,5.07,5.07,0,0,0,2.86-1Z"/><path d="M388.24,225.31c-1.16,0-2,.62-2,1.36,0,.22.27.44.27.44a1.42,1.42,0,0,1,1.66,1.55,1.66,1.66,0,0,1-1.76,1.56c-1.7,0-2.34-1.36-2.21-2.91.19-2.37,2-3.31,4-3.33Z"/><path d="M393.05,230l.57,2.66c.59-2,2.09-2.84,4.19-2.79a5.2,5.2,0,0,1,1.33.23l-.47,2.68a5.33,5.33,0,0,0-1.85-.24c-2.27.07-3.13,1.82-3.13,3.89v6.49h-3.06V230Z"/><path d="M405.06,230v12.92H402V232.54h-1.8V230Zm-1.55-5a1.65,1.65,0,0,1,1.82,1.55,1.82,1.82,0,0,1-3.62,0A1.59,1.59,0,0,1,403.51,225Z"/><path d="M410.66,230l.44,2.31a4.71,4.71,0,0,1,4.42-2.44c2.44.08,5.08,1.73,5.08,6.49,0,3.89-2,6.71-5.48,6.71a4,4,0,0,1-3.82-2.1v6.88h-3.08V230Zm.42,6.43c0,2.22.81,4,3.28,4,2,0,3.1-1.51,3.1-4.05,0-3-1.5-3.94-3.13-3.94S411.08,233.84,411.08,236.43Z"/><path d="M439.78,239.37a5.76,5.76,0,0,1-5.57,3.7c-4.34,0-6.26-2.72-6.26-6.76s2.71-6.54,6.44-6.44c3,.08,5.74,2.35,5.44,6.46l-.05.4h-8.72c0,2.19.93,3.7,3.18,3.7a2.87,2.87,0,0,0,2.78-2.05Zm-3.13-4.22c.05-2-1-2.93-2.54-2.88a2.87,2.87,0,0,0-2.91,2.88Z"/><path d="M444.94,230l.47,2.29a4.78,4.78,0,0,1,4.41-2.42c3,0,4.49,1.95,4.49,4.61v8.44h-3.06v-7.45c0-2-.74-3-2.41-3-2.34,0-3.26,1.9-3.26,4v6.51h-3.05V230Z"/><path d="M461.39,226.35v3.77h3.26l-.42,2.47h-2.84v5.91c0,1.41.64,1.95,1.68,1.95a5.5,5.5,0,0,0,1.95-.57l.56,2.35a8.09,8.09,0,0,1-3.27.84c-3,0-4-2-4-4.15v-6.33h-1.8v-2.47h2l.37-3.43Z"/><path d="M469.78,230l.57,2.66c.59-2,2.09-2.84,4.19-2.79a5.28,5.28,0,0,1,1.33.23l-.47,2.68a5.33,5.33,0,0,0-1.85-.24c-2.27.07-3.13,1.82-3.13,3.89v6.49h-3.06V230Z"/><path d="M480.73,230l3.18,9.12h.2L487,230h3.15l-4.78,13.12c-1.58,4.31-3.06,5.39-7.62,4.43l.54-2.59c2.91.72,3.31,0,4.22-2.49L477.67,230Z"/><path d="M493.43,227.11a1.45,1.45,0,0,1-1.65-1.58,1.64,1.64,0,0,1,1.75-1.55c1.7,0,2.34,1.36,2.22,2.91-.17,2.37-2,3.3-4,3.33v-1.33c1.18,0,2-.62,2-1.36C493.7,227.31,493.43,227.11,493.43,227.11Z"/><path d="M499,242.57A1.41,1.41,0,0,1,497.4,241a1.61,1.61,0,0,1,1.73-1.53c1.7,0,2.37,1.34,2.24,2.91-.19,2.35-2,3.28-4,3.31v-1.33c1.16,0,2-.62,2-1.36C499.33,242.79,499,242.57,499,242.57Z"/><path d="M259.41,263.91l2.51,9h.2l2.52-9h3.15l2.54,9h.17l2.57-9h3.18l-4.34,12.92h-3l-2.64-8.73H266l-2.54,8.73h-3l-4.24-12.92Z"/><path d="M282.25,263.91v12.92h-3.09V266.45h-1.8v-2.54Zm-1.56-5a1.6,1.6,0,1,1,0,3.16,1.63,1.63,0,0,1-1.8-1.63A1.59,1.59,0,0,1,280.69,258.88Z"/><path d="M289.37,260.26V264h3.26l-.42,2.47h-2.84v5.92c0,1.4.65,1.95,1.68,1.95a5.72,5.72,0,0,0,1.95-.57l.57,2.34a8.21,8.21,0,0,1-3.28.84c-3,0-4-2-4-4.14V266.5h-1.8V264h1.94l.37-3.42Z"/><path d="M298.57,258v8a4.83,4.83,0,0,1,4.24-2.19c3,0,4.49,1.94,4.49,4.61v8.43h-3.06v-7.45c0-2-.73-3-2.41-3-2.34,0-3.26,1.9-3.26,4v6.51h-3.05V258.36Z"/><path d="M317.93,263.91l.47,2.29a4.77,4.77,0,0,1,4.42-2.41c3,0,4.49,1.94,4.49,4.61v8.43h-3.06v-7.45c0-2-.74-3-2.42-3-2.34,0-3.25,1.9-3.25,4v6.51h-3.06V263.91Z"/><path d="M336.23,263.79c3.24,0,6,2.19,6,6.61,0,3.62-2.15,6.58-6.17,6.58-4.36,0-6.16-3-6.16-6.58C330,266,332.73,263.79,336.23,263.79Zm-3.08,6.61c0,2,.69,4,3,4,2.1,0,3-1.95,3-4,0-2.87-1.4-4-3-4S333.15,267.49,333.15,270.4Z"/><path d="M350.49,273.13a6.68,6.68,0,0,0,4.19,1.43c1.48,0,2.35-.44,2.35-1.5,0-2.52-7.47-.84-7.23-5.57.1-2.32,1.8-3.7,5.23-3.7a10.55,10.55,0,0,1,4.66,1.2l-1.09,2.17a7.35,7.35,0,0,0-3.69-1.06c-1.21,0-2.22.4-2.17,1.41.14,2.05,7.32.47,7.32,5.45,0,2.66-2.39,4-5.45,4a8.86,8.86,0,0,1-5.3-1.68Z"/><path d="M365,263.91l.45,2.32a4.67,4.67,0,0,1,4.41-2.44c2.44.07,5.08,1.72,5.08,6.48,0,3.9-1.95,6.71-5.47,6.71a4,4,0,0,1-3.82-2.1v6.88h-3.09V263.91Zm.42,6.44c0,2.22.82,4,3.28,4,2,0,3.11-1.5,3.11-4,0-3-1.5-3.95-3.13-3.95C366.89,266.35,365.41,267.76,365.41,270.35Z"/><path d="M380.68,258v14.62c0,1.38.62,1.76,1.53,1.76a2.42,2.42,0,0,0,1.28-.47l.57,2.19a5.35,5.35,0,0,1-2.79.89c-2.56,0-3.65-1.73-3.65-4.07V258.36Z"/><path d="M386.16,264.72a15.39,15.39,0,0,1,4.88-.93c3.89,0,5.32,1.92,5.32,4.93V274a.65.65,0,0,0,.62.74,2.41,2.41,0,0,0,1-.15v2a4.85,4.85,0,0,1-2.05.4,2.34,2.34,0,0,1-2.34-1.75,5.62,5.62,0,0,1-3.89,1.75c-2.52,0-4.39-1.28-4.42-4s2-4.09,5.26-4.09a20,20,0,0,1,2.78.24v-.76c0-1.41-.89-2.17-2.66-2.15a10.47,10.47,0,0,0-4,.79Zm7.15,6a13.13,13.13,0,0,0-2.52-.15c-1.48.07-2.41.76-2.44,2.07a1.82,1.82,0,0,0,2.1,1.9,5.09,5.09,0,0,0,2.86-1Z"/><path d="M400.46,273.13a6.68,6.68,0,0,0,4.19,1.43c1.48,0,2.35-.44,2.35-1.5,0-2.52-7.48-.84-7.23-5.57.1-2.32,1.8-3.7,5.23-3.7a10.55,10.55,0,0,1,4.66,1.2l-1.09,2.17a7.36,7.36,0,0,0-3.7-1.06c-1.2,0-2.21.4-2.17,1.41.15,2.05,7.33.47,7.33,5.45,0,2.66-2.39,4-5.45,4a8.86,8.86,0,0,1-5.3-1.68Z"/><path d="M415.58,258v8a4.81,4.81,0,0,1,4.24-2.19c3,0,4.49,1.94,4.49,4.61v8.43h-3.06v-7.45c0-2-.74-3-2.42-3-2.34,0-3.25,1.9-3.25,4v6.51h-3.06V258.36Z"/><path d="M432.72,264.72a15.45,15.45,0,0,1,4.88-.93c3.9,0,5.33,1.92,5.33,4.93V274a.65.65,0,0,0,.62.74,2.45,2.45,0,0,0,1-.15v2a4.89,4.89,0,0,1-2.05.4,2.33,2.33,0,0,1-2.34-1.75,5.67,5.67,0,0,1-3.9,1.75c-2.51,0-4.39-1.28-4.41-4s2-4.09,5.25-4.09a20,20,0,0,1,2.79.24v-.76c0-1.41-.89-2.17-2.67-2.15a10.39,10.39,0,0,0-4,.79Zm7.15,6a13,13,0,0,0-2.51-.15c-1.48.07-2.42.76-2.44,2.07a1.82,1.82,0,0,0,2.09,1.9,5.06,5.06,0,0,0,2.86-1Z"/><path d="M450.65,260.26V264h3.26l-.42,2.47h-2.84v5.92c0,1.4.64,1.95,1.68,1.95a5.72,5.72,0,0,0,1.95-.57l.56,2.34a8.1,8.1,0,0,1-3.28.84c-3,0-4-2-4-4.14V266.5h-1.8V264h1.95l.37-3.42Z"/><path d="M462.14,264.72a15.52,15.52,0,0,1,4.89-.93c3.89,0,5.32,1.92,5.32,4.93V274a.65.65,0,0,0,.62.74,2.41,2.41,0,0,0,1-.15v2a4.85,4.85,0,0,1-2.05.4,2.34,2.34,0,0,1-2.34-1.75A5.62,5.62,0,0,1,465.7,277c-2.52,0-4.39-1.28-4.42-4s2-4.09,5.25-4.09a20,20,0,0,1,2.79.24v-.76c0-1.41-.89-2.17-2.66-2.15a10.41,10.41,0,0,0-4,.79Zm7.16,6a13.13,13.13,0,0,0-2.52-.15c-1.48.07-2.42.76-2.44,2.07a1.82,1.82,0,0,0,2.1,1.9,5.09,5.09,0,0,0,2.86-1Z"/><path d="M479.16,258v14.62c0,1.38.62,1.76,1.53,1.76a2.42,2.42,0,0,0,1.28-.47l.57,2.19a5.31,5.31,0,0,1-2.79.89c-2.56,0-3.64-1.73-3.64-4.07V258.36Z"/><path d="M486.14,258v14.62c0,1.38.62,1.76,1.53,1.76a2.42,2.42,0,0,0,1.28-.47l.57,2.19a5.31,5.31,0,0,1-2.79.89c-2.56,0-3.64-1.73-3.64-4.07V258.36Z"/><path d="M370.85,345.79c0,7.29,0,14.58,0,21.86,0,10.58,0,21.15-.19,31.73a78.57,78.57,0,0,1-.29,8.95c-.24,1.91,2.76,1.9,3,0a65.82,65.82,0,0,0,.27-7.43c.08-4.8.12-9.6.15-14.4q.09-15.86.07-31.73c0-3,0-6,0-9a1.5,1.5,0,0,0-3,0Z"/><path d="M364.05,402.39c2.23,3.23,4.77,6.24,7.23,9.29.67.83,1.84.38,2.36-.3,1.1-1.47,2.27-2.88,3.38-4.32s2.09-2.82,3.16-4.19a1.56,1.56,0,0,0,0-2.12,1.51,1.51,0,0,0-2.12,0c-1.13,1.44-2.19,2.93-3.3,4.37s-2.51,3.14-3.71,4.74l2.35-.3c-2.3-2.86-4.67-5.66-6.76-8.69a1.53,1.53,0,0,0-2.05-.53,1.51,1.51,0,0,0-.54,2.05Z"/><text class="cls-1" transform="translate(334.3 72.34)">Fi<tspan class="cls-2" x="24.78" y="0">n</tspan><tspan x="42.36" y="0">a</tspan><tspan class="cls-3" x="59.58" y="0">l</tspan><tspan class="cls-4" x="68.07" y="0">l</tspan><tspan x="76.92" y="0">y </tspan><tspan class="cls-5" x="100.02" y="0">t</tspan><tspan x="111.57" y="0">o finish, the sp</tspan><tspan class="cls-6" x="313.62" y="0">l</tspan><tspan x="323.75" y="0">ash</tspan></text><path class="cls-7" d="M148.79,61.4a36.73,36.73,0,0,1,8.33-23.32,34.4,34.4,0,0,0-45.48-4.38A34.43,34.43,0,0,0,131.9,96a34.33,34.33,0,0,0,25.32-11.11A36.76,36.76,0,0,1,148.79,61.4ZM138,75.49s-3.7-.27-11.47-.27a25.63,25.63,0,0,0-4.93.31l-1.35-2.46c7.78-7.9,12.4-13.63,13-18.71.47-3.66-2-4.82-4.35-4.66a9.73,9.73,0,0,0-6.73,3.92c-.2-.23-1.93-2.07-1.47-2.65A12.43,12.43,0,0,1,130,46.12c5.89,0,9.09,3,8.74,8.51-.46,7-8,13.59-12.63,17.55l8.32-.08c1.77-.15,3-2.54,3.81-4.73,0,0,1.73.5,2,1C139.58,71.53,138.81,75.49,138,75.49Z"/><path class="cls-7" d="M238,27.09a34.28,34.28,0,0,0-22.6,8.46l0,0-.19.16A34.8,34.8,0,0,0,225,93.43a34.44,34.44,0,1,0,13-66.34Zm8.71,40h-4.12c0,2.27,0,3.46.07,4.39,0,.77.2,1,.74,1l2.34.54-.07,2.23h-11.4l.08-2.27,2.23-.58c.58-.15.81-.23.81-1,0-1.69,0-2.73,0-4.39l-10.13-.08c-.11,0-1.42.2-1.42.2S225,65,225.3,64.79c.89-.46,12.94-16.86,14-18.63l3.2.53c-.08,3.93,0,11.36,0,17.41l4.7-.08C247.59,64,247.32,67.06,246.71,67.06Z"/><path class="cls-8" d="M237.43,64.06c0-7,0-10.05,0-10.05s-7.16,10.05-7.16,10.05Z"/><path class="cls-7" d="M95.79,61.4A36.74,36.74,0,0,1,104.16,38a34.44,34.44,0,1,0,.11,46.9A36.78,36.78,0,0,1,95.79,61.4ZM87.2,75.66H70.92L71,73.39l4.46-.58c.58,0,.81-.23.81-1,.08-10.05,0-19.6,0-19.6l-5.62,1.08c-.19-.31-1.12-2.46-.46-2.73l10.35-4,1,1s-.12,20.87,0,24.37c0,.77.19,1,.73,1l5.08.54Z"/><path class="cls-7" d="M201.79,61.4A36.74,36.74,0,0,1,210.16,38a34.43,34.43,0,0,0-47.76-2.48A34.8,34.8,0,0,0,172,93.43a34.41,34.41,0,0,0,38.24-8.51A36.78,36.78,0,0,1,201.79,61.4ZM181.35,75.49a15.64,15.64,0,0,1-7.86-2.19l1-2.89a21.48,21.48,0,0,0,7,1.66c3.35,0,5.51-1.74,5.55-5.24,0-2.46-1.43-4.35-4.47-4.74a17.82,17.82,0,0,0-5,.24c-.5.11-.89-3-.42-3.08,3-.54,7.62-1.08,8.39-4.89.73-3.62-2-4.82-4.35-4.66A8.43,8.43,0,0,0,175,52.82c-.2-.23-1.7-2.12-1-3a10.43,10.43,0,0,1,8.16-3.69c5.89,0,9.12,3,8.74,8.51a6,6,0,0,1-4,4.5c3.47.62,5.47,2.93,5.66,6.7C192.9,71.83,188,75.49,181.35,75.49Z"/><circle cx="291" cy="61.53" r="34.44"/><text class="cls-9" transform="translate(279.45 75.26)">5</text><g class="cls-10"><path class="cls-11" d="M506.33,990.05c7.75-1.48,15.42-3,22.91-4.54s14.83-3.28,21.64-5.27A96.08,96.08,0,0,0,560.4,977a27.45,27.45,0,0,0,7-3.88,7.89,7.89,0,0,0,1.73-2.07,6.12,6.12,0,0,0,.8-2.16,7.93,7.93,0,0,0-.09-2.68c-.17-1-.52-2.06-.72-3.3l1.07-.43a19.75,19.75,0,0,1,5.76,2.17,9.69,9.69,0,0,1,3.64,3.47,5,5,0,0,1,.33,4.26,10,10,0,0,1-3.08,3.86,35.38,35.38,0,0,1-10,5.34A97.53,97.53,0,0,1,555.4,985a203,203,0,0,1-24.08,4.1c-8.17.92-16.41,1.55-24.75,1.66Z"/><path class="cls-11" d="M276.79,992.57a256.19,256.19,0,0,1-25.73-1.08,196.47,196.47,0,0,1-25.26-3.79,87.05,87.05,0,0,1-12-3.54c-3.8-1.5-7.55-3.38-10-6a7.54,7.54,0,0,1-2.2-4.24,5.93,5.93,0,0,1,1.42-4.23c2.1-2.54,5.62-4.41,10.12-5.42l1.06.43c-.26,1.29-.76,2.38-1.07,3.43a14.23,14.23,0,0,0-.67,2.9,6,6,0,0,0,.18,2.41,5.19,5.19,0,0,0,1.19,2.16,19.29,19.29,0,0,0,6.55,4,79.72,79.72,0,0,0,9.77,3.28c7.09,2,14.83,3.52,22.7,5s16,2.73,24.13,4Z"/><path class="cls-11" d="M453.12,996.82a445.62,445.62,0,0,1-66.86,3.84,595.17,595.17,0,0,1-61.92-3.19l-7.18-.32-.47.48a256.41,256.41,0,0,0,34,4.88c3,.23,6,.5,9,.66s6,.33,9,.48,6.06.17,9.1.26c1.52.05,3,.05,4.56.05h9.14l4.56-.1c3-.1,6.08-.15,9.1-.3,6-.35,12.07-.64,18-1.27a267,267,0,0,0,33.7-5.11l-.45-.48C455.24,996.73,454.18,996.77,453.12,996.82Z"/><path class="cls-12" d="M312.22,986.26q-9.81-1.29-19.42-2.85c-6.39-1-12.7-2.21-18.75-3.59a143.87,143.87,0,0,1-16.82-4.8,31.48,31.48,0,0,1-6.23-2.93,6.86,6.86,0,0,1-1.73-1.47,2.14,2.14,0,0,1-.53-1.34c-.16-4.09,8.06-8.71,13.87-10.89,3.05-1.15,6.43-2,9.44-3.24a51.36,51.36,0,0,0-10.84,1.17,80.12,80.12,0,0,0-9.74,2.42,41.46,41.46,0,0,0-8.84,3.81,15.38,15.38,0,0,0-3.55,2.82,6.47,6.47,0,0,0-1.83,3.65,5.5,5.5,0,0,0,1.2,3.88A13,13,0,0,0,242,976a41.41,41.41,0,0,0,9.15,4,145.57,145.57,0,0,0,19.82,4.33c13.37,2.07,26.74,3.55,40.2,4.7s26.95,2,40.46,2.6l.19-.7C338.51,989.5,325.28,988,312.22,986.26Z"/><path class="cls-12" d="M543,966.39a8.31,8.31,0,0,0-2.19-3.12,23.83,23.83,0,0,0-7.31-4.44,55.68,55.68,0,0,0-8.79-2.8,67.19,67.19,0,0,0-9.58-1.58l-.58.64.21.1a84.79,84.79,0,0,1,11.93,4.1c3.65,1.7,6.2,4.21,6.21,6.81s-2.48,5.09-6.36,6.68c-1.2.58-2.52,1.15-3.94,1.68A135.83,135.83,0,0,1,507,979.17c-5.56,1.38-11.41,2.54-17.34,3.59s-12,2-18,2.88c-12.15,1.77-24.48,3.28-36.87,4.72l.21.7c12.64-.67,25.27-1.49,37.84-2.67s25.06-2.67,37.52-4.76a141.51,141.51,0,0,0,18.43-4.23,45.59,45.59,0,0,0,8.49-3.63,19.17,19.17,0,0,0,3.54-2.58,8.5,8.5,0,0,0,2.19-3.26A5.19,5.19,0,0,0,543,966.39Z"/><path class="cls-12" d="M388.68,978.29a466.24,466.24,0,0,1-93.87-9.18c-1.82-.32-3.62-.65-5.42-1l-.61.51c3.57,1.19,7.32,2.23,11.16,3.21s7.77,1.87,11.77,2.71,8.07,1.57,12.18,2.29c2.07.33,4.13.69,6.22,1s4.18.62,6.29.89a408.67,408.67,0,0,0,52.13,3.6c7.61.06,15.22-.14,22.78-.52,6.26-.44,18.06-1.49,24.19-2.18,10.21-1.14,20.13-2.77,29.61-4.75,8.41-1.76,17.72-3.63,23.29-7-.74.44-3.52.81-4.66,1.07q-2.78.62-5.59,1.2-5.41,1.11-11,2.08c-7.42,1.29-15,2.39-22.76,3.28a432.22,432.22,0,0,1-47.94,2.82Q392.59,978.36,388.68,978.29Z"/></g></svg>