<svg id="Layer_1" data-name="Layer 1" xmlns="http://www.w3.org/2000/svg" viewBox="0 0 780 1051.14"><defs><style>.cls-1{font-size:30px;font-family:ABCSansBold, ABCSans;}.cls-2{letter-spacing:-0.02em;}.cls-3{letter-spacing:-0.04em;}.cls-4{letter-spacing:-0.02em;}.cls-5{letter-spacing:-0.02em;}.cls-6{letter-spacing:0.02em;}.cls-7{fill:#005058;opacity:0.27;}.cls-8,.cls-9{fill:#fff;}.cls-8{opacity:0.37;}.cls-9{font-size:38.5px;font-family:ABCSerifBold, ABCSerif;}.cls-10{opacity:0.8;}.cls-11{fill:#abd6ee;}.cls-12{fill:#66b7e4;}</style></defs><path d="M256.14,225.66l-.22,2.56h-4.56v14.7h-3.09v-14.7h-4.73v-2.56Z"/><path d="M261.2,224.08v8a4.81,4.81,0,0,1,4.24-2.2c3,0,4.49,1.95,4.49,4.61v8.44h-3.06v-7.45c0-2-.74-3-2.42-3-2.34,0-3.25,1.9-3.25,4v6.51h-3.06V224.45Z"/><path d="M284.33,239.37a5.76,5.76,0,0,1-5.57,3.7c-4.34,0-6.27-2.72-6.27-6.76s2.72-6.53,6.44-6.44c3,.08,5.75,2.35,5.45,6.46l-.05.4H275.6c0,2.19.94,3.7,3.18,3.7a2.89,2.89,0,0,0,2.79-2.05Zm-3.13-4.22c.05-2-1-2.93-2.54-2.88a2.87,2.87,0,0,0-2.91,2.88Z"/><path d="M292.42,230.81a15.43,15.43,0,0,1,4.89-.94c3.89,0,5.32,1.93,5.32,4.94V240a.65.65,0,0,0,.62.74,2.5,2.5,0,0,0,1-.14v2a5.05,5.05,0,0,1-2.05.4,2.34,2.34,0,0,1-2.34-1.76,5.6,5.6,0,0,1-3.9,1.76c-2.51,0-4.39-1.29-4.41-4s2-4.1,5.25-4.1a19.85,19.85,0,0,1,2.79.25v-.77c0-1.4-.89-2.17-2.66-2.14a10.41,10.41,0,0,0-4,.79Zm7.15,6a13.81,13.81,0,0,0-2.51-.15c-1.48.08-2.42.77-2.44,2.08a1.8,1.8,0,0,0,2.09,1.89,5,5,0,0,0,2.86-1Z"/><path d="M310.4,230v12.92h-3.08V232.54h-1.8V230Zm-1.55-5a1.65,1.65,0,0,1,1.82,1.55,1.82,1.82,0,0,1-3.62,0A1.59,1.59,0,0,1,308.85,225Z"/><path d="M316,230l.45,2.29a4.28,4.28,0,0,1,4-2.44,3.77,3.77,0,0,1,3.85,2.39,4.52,4.52,0,0,1,4.16-2.39c3,0,4.22,2,4.22,4.63v8.44h-3.06v-7.45c0-2-.47-3-2.14-3-2.22,0-2.81,1.68-2.81,3.57v6.91H321.6v-7.45c0-2-.47-3-2.15-3-2.36,0-2.83,1.9-2.83,4v6.51h-3.06V230Z"/><path d="M345,230v12.92h-3.09V232.54h-1.8V230Zm-1.56-5a1.65,1.65,0,0,1,1.83,1.55,1.83,1.83,0,0,1-3.63,0A1.59,1.59,0,0,1,343.4,225Z"/><path d="M348.46,239.22a6.68,6.68,0,0,0,4.19,1.43c1.48,0,2.34-.44,2.34-1.51,0-2.51-7.47-.83-7.22-5.57.1-2.32,1.8-3.7,5.23-3.7a10.49,10.49,0,0,1,4.66,1.21l-1.09,2.17a7.36,7.36,0,0,0-3.7-1.06c-1.2,0-2.22.4-2.17,1.41.15,2,7.33.47,7.33,5.45,0,2.66-2.4,4-5.45,4a8.86,8.86,0,0,1-5.3-1.68Z"/><path d="M365.87,230.81a15.42,15.42,0,0,1,4.88-.94c3.9,0,5.33,1.93,5.33,4.94V240a.65.65,0,0,0,.62.74,2.54,2.54,0,0,0,1-.14v2a5.05,5.05,0,0,1-2,.4,2.34,2.34,0,0,1-2.34-1.76,5.63,5.63,0,0,1-3.9,1.76c-2.51,0-4.39-1.29-4.41-4s2-4.1,5.25-4.1a19.85,19.85,0,0,1,2.79.25v-.77c0-1.4-.89-2.17-2.67-2.14a10.39,10.39,0,0,0-4,.79Zm7.15,6a13.81,13.81,0,0,0-2.51-.15c-1.48.08-2.42.77-2.44,2.08a1.8,1.8,0,0,0,2.09,1.89,5.07,5.07,0,0,0,2.86-1Z"/><path d="M388.24,225.31c-1.16,0-2,.62-2,1.36,0,.22.28.44.28.44a1.42,1.42,0,0,1,1.65,1.56,1.65,1.65,0,0,1-1.75,1.55c-1.7,0-2.35-1.36-2.22-2.91.19-2.37,2-3.3,4-3.33Z"/><path d="M393.05,230l.57,2.66c.59-2,2.09-2.84,4.19-2.79a5.12,5.12,0,0,1,1.33.23l-.47,2.68a5.29,5.29,0,0,0-1.85-.24c-2.26.07-3.13,1.82-3.13,3.89v6.49h-3.06V230Z"/><path d="M405.06,230v12.92H402V232.54h-1.8V230Zm-1.55-5a1.64,1.64,0,0,1,1.82,1.55,1.82,1.82,0,0,1-3.62,0A1.59,1.59,0,0,1,403.51,225Z"/><path d="M410.66,230l.45,2.31a4.7,4.7,0,0,1,4.41-2.44c2.44.08,5.08,1.73,5.08,6.49,0,3.9-2,6.71-5.48,6.71a4,4,0,0,1-3.82-2.1v6.88h-3.08V230Zm.42,6.43c0,2.22.81,4,3.28,4,2,0,3.11-1.51,3.11-4.05,0-3-1.51-3.94-3.14-3.94S411.08,233.84,411.08,236.43Z"/><path d="M439.79,239.37a5.77,5.77,0,0,1-5.58,3.7c-4.33,0-6.26-2.72-6.26-6.76s2.71-6.53,6.44-6.44c3,.08,5.74,2.35,5.45,6.46l0,.4h-8.73c0,2.19.94,3.7,3.18,3.7a2.89,2.89,0,0,0,2.79-2.05Zm-3.13-4.22c0-2-1-2.93-2.54-2.88a2.87,2.87,0,0,0-2.91,2.88Z"/><path d="M444.94,230l.47,2.29a4.8,4.8,0,0,1,4.42-2.42c3,0,4.48,1.95,4.48,4.61v8.44h-3.05v-7.45c0-2-.74-3-2.42-3-2.34,0-3.25,1.9-3.25,4v6.51h-3.06V230Z"/><path d="M461.39,226.35v3.77h3.26l-.42,2.47h-2.84v5.91c0,1.41.65,1.95,1.68,1.95a5.76,5.76,0,0,0,1.95-.56l.57,2.34a8.16,8.16,0,0,1-3.28.84c-3,0-4-2-4-4.15v-6.33h-1.8v-2.47h1.95l.37-3.43Z"/><path d="M469.78,230l.57,2.66c.59-2,2.09-2.84,4.19-2.79a5.12,5.12,0,0,1,1.33.23l-.47,2.68a5.29,5.29,0,0,0-1.85-.24c-2.26.07-3.13,1.82-3.13,3.89v6.49h-3.06V230Z"/><path d="M480.73,230l3.18,9.12h.2L487,230h3.16l-4.79,13.12c-1.58,4.31-3.06,5.4-7.62,4.43l.55-2.58c2.9.71,3.3,0,4.21-2.49L477.67,230Z"/><path d="M493.43,227.11a1.45,1.45,0,0,1-1.65-1.58,1.65,1.65,0,0,1,1.75-1.55c1.7,0,2.35,1.36,2.22,2.91-.17,2.37-2,3.3-4,3.33v-1.33c1.18,0,2-.62,2-1.36C493.71,227.31,493.43,227.11,493.43,227.11Z"/><path d="M499,242.57a1.4,1.4,0,0,1-1.62-1.58,1.59,1.59,0,0,1,1.72-1.52c1.7,0,2.37,1.33,2.25,2.91-.2,2.34-2,3.27-4.05,3.3v-1.33c1.16,0,2-.62,2-1.36C499.33,242.8,499,242.57,499,242.57Z"/><path d="M259.41,263.91l2.52,9h.19l2.52-9h3.15l2.54,9h.18l2.56-9h3.18l-4.34,12.92h-3l-2.64-8.73H266l-2.54,8.73h-3l-4.24-12.92Z"/><path d="M282.25,263.91v12.92h-3.08V266.45h-1.8v-2.54Zm-1.55-5a1.6,1.6,0,1,1,0,3.16,1.63,1.63,0,0,1-1.8-1.63A1.59,1.59,0,0,1,280.7,258.88Z"/><path d="M289.38,260.26V264h3.25l-.42,2.47h-2.83v5.92c0,1.4.64,1.95,1.67,1.95a5.72,5.72,0,0,0,1.95-.57l.57,2.34a8.1,8.1,0,0,1-3.28.84c-3,0-4-2-4-4.14V266.5h-1.8V264h2l.37-3.42Z"/><path d="M298.58,258v8a4.81,4.81,0,0,1,4.24-2.19c3,0,4.48,1.95,4.48,4.61v8.43h-3.05v-7.44c0-2-.74-3-2.42-3-2.34,0-3.25,1.9-3.25,4v6.51h-3.06V258.36Z"/><path d="M317.94,263.91l.47,2.29a4.74,4.74,0,0,1,4.41-2.41c3,0,4.49,1.95,4.49,4.61v8.43h-3.06v-7.44c0-2-.74-3-2.42-3-2.34,0-3.25,1.9-3.25,4v6.51h-3.06V263.91Z"/><path d="M336.24,263.79c3.23,0,6,2.19,6,6.61,0,3.62-2.15,6.58-6.17,6.58-4.36,0-6.16-3-6.16-6.58C330,266,332.74,263.79,336.24,263.79Zm-3.08,6.61c0,2,.69,4,3,4,2.1,0,3-1.95,3-4,0-2.86-1.41-4-3-4S333.16,267.49,333.16,270.4Z"/><path d="M350.49,273.13a6.73,6.73,0,0,0,4.2,1.43c1.48,0,2.34-.44,2.34-1.5,0-2.52-7.47-.84-7.23-5.57.1-2.32,1.8-3.7,5.23-3.7a10.49,10.49,0,0,1,4.66,1.21l-1.08,2.17a7.25,7.25,0,0,0-3.7-1.06c-1.21,0-2.22.39-2.17,1.4.15,2.05,7.32.47,7.32,5.45,0,2.66-2.39,4-5.45,4a8.78,8.78,0,0,1-5.3-1.68Z"/><path d="M365,263.91l.44,2.32a4.69,4.69,0,0,1,4.41-2.44c2.44.07,5.08,1.72,5.08,6.48,0,3.9-1.94,6.71-5.47,6.71a4,4,0,0,1-3.82-2.1v6.88h-3.09V263.91Zm.42,6.44c0,2.22.81,4,3.28,4,2,0,3.1-1.5,3.1-4,0-3-1.5-3.95-3.13-3.95C366.89,266.35,365.42,267.76,365.42,270.35Z"/><path d="M380.68,258v14.63c0,1.38.62,1.75,1.53,1.75a2.42,2.42,0,0,0,1.28-.47l.57,2.19a5.31,5.31,0,0,1-2.79.89c-2.56,0-3.65-1.73-3.65-4.07V258.36Z"/><path d="M386.16,264.73a15.09,15.09,0,0,1,4.88-.94c3.9,0,5.33,1.92,5.33,4.93V274a.65.65,0,0,0,.61.74,2.41,2.41,0,0,0,1-.15v2a5,5,0,0,1-2,.39,2.32,2.32,0,0,1-2.34-1.75,5.67,5.67,0,0,1-3.9,1.75c-2.52,0-4.39-1.28-4.42-4s2-4.09,5.26-4.09a20,20,0,0,1,2.78.24v-.76c0-1.41-.88-2.17-2.66-2.15a10.39,10.39,0,0,0-4,.79Zm7.15,6a13.07,13.07,0,0,0-2.52-.15c-1.48.07-2.41.76-2.44,2.07a1.82,1.82,0,0,0,2.1,1.9,5.09,5.09,0,0,0,2.86-1Z"/><path d="M400.46,273.13a6.73,6.73,0,0,0,4.2,1.43c1.47,0,2.34-.44,2.34-1.5,0-2.52-7.47-.84-7.23-5.57.1-2.32,1.8-3.7,5.23-3.7a10.49,10.49,0,0,1,4.66,1.21l-1.08,2.17a7.3,7.3,0,0,0-3.7-1.06c-1.21,0-2.22.39-2.17,1.4.15,2.05,7.32.47,7.32,5.45,0,2.66-2.39,4-5.45,4a8.78,8.78,0,0,1-5.3-1.68Z"/><path d="M415.58,258v8a4.82,4.82,0,0,1,4.24-2.19c3,0,4.49,1.95,4.49,4.61v8.43h-3.06v-7.44c0-2-.74-3-2.41-3-2.35,0-3.26,1.9-3.26,4v6.51h-3.06V258.36Z"/><path d="M432.72,264.73a15.15,15.15,0,0,1,4.89-.94c3.89,0,5.32,1.92,5.32,4.93V274a.65.65,0,0,0,.62.74,2.41,2.41,0,0,0,1-.15v2a5.09,5.09,0,0,1-2.05.39,2.34,2.34,0,0,1-2.34-1.75,5.65,5.65,0,0,1-3.9,1.75c-2.51,0-4.38-1.28-4.41-4s2-4.09,5.25-4.09a20,20,0,0,1,2.79.24v-.76c0-1.41-.89-2.17-2.66-2.15a10.41,10.41,0,0,0-4,.79Zm7.16,6a13.13,13.13,0,0,0-2.52-.15c-1.48.07-2.42.76-2.44,2.07a1.82,1.82,0,0,0,2.09,1.9,5.1,5.1,0,0,0,2.87-1Z"/><path d="M450.65,260.26V264h3.26l-.42,2.47h-2.84v5.92c0,1.4.64,1.95,1.68,1.95a5.72,5.72,0,0,0,1.95-.57l.57,2.34a8.21,8.21,0,0,1-3.28.84c-3,0-4-2-4-4.14V266.5h-1.8V264h1.94l.37-3.42Z"/><path d="M462.15,264.73a15.09,15.09,0,0,1,4.88-.94c3.9,0,5.33,1.92,5.33,4.93V274a.65.65,0,0,0,.61.74,2.41,2.41,0,0,0,1-.15v2a5,5,0,0,1-2,.39,2.34,2.34,0,0,1-2.35-1.75A5.62,5.62,0,0,1,465.7,277c-2.52,0-4.39-1.28-4.41-4s2-4.09,5.25-4.09a20,20,0,0,1,2.78.24v-.76c0-1.41-.88-2.17-2.66-2.15a10.39,10.39,0,0,0-4,.79Zm7.15,6a13.07,13.07,0,0,0-2.52-.15c-1.48.07-2.41.76-2.44,2.07a1.82,1.82,0,0,0,2.1,1.9,5.09,5.09,0,0,0,2.86-1Z"/><path d="M479.17,258v14.63c0,1.38.61,1.75,1.52,1.75a2.46,2.46,0,0,0,1.29-.47l.56,2.19a5.31,5.31,0,0,1-2.78.89c-2.57,0-3.65-1.73-3.65-4.07V258.36Z"/><path d="M486.15,258v14.63c0,1.38.61,1.75,1.52,1.75a2.46,2.46,0,0,0,1.29-.47l.56,2.19a5.31,5.31,0,0,1-2.78.89c-2.57,0-3.65-1.73-3.65-4.07V258.36Z"/><path d="M370.85,345.79c0,7.29,0,14.58,0,21.86,0,10.58,0,21.15-.19,31.73a78.57,78.57,0,0,1-.29,8.95c-.24,1.91,2.76,1.9,3,0a65.82,65.82,0,0,0,.27-7.43c.08-4.8.12-9.6.15-14.4q.09-15.86.07-31.73c0-3,0-6,0-9a1.5,1.5,0,0,0-3,0Z"/><path d="M364.05,402.39c2.23,3.23,4.77,6.24,7.23,9.29.67.83,1.84.38,2.36-.3,1.1-1.47,2.27-2.88,3.38-4.32s2.09-2.82,3.16-4.19a1.56,1.56,0,0,0,0-2.12,1.51,1.51,0,0,0-2.12,0c-1.13,1.44-2.19,2.93-3.3,4.37s-2.51,3.14-3.71,4.74l2.35-.3c-2.3-2.86-4.67-5.66-6.76-8.69a1.53,1.53,0,0,0-2.05-.53,1.51,1.51,0,0,0-.54,2.05Z"/><text class="cls-1" transform="translate(334.31 72.34)">Fi<tspan class="cls-2" x="24.78" y="0">n</tspan><tspan x="42.36" y="0">a</tspan><tspan class="cls-3" x="59.58" y="0">l</tspan><tspan class="cls-4" x="68.07" y="0">l</tspan><tspan x="76.92" y="0">y </tspan><tspan class="cls-5" x="100.02" y="0">t</tspan><tspan x="111.57" y="0">o finish, the sp</tspan><tspan class="cls-6" x="313.62" y="0">l</tspan><tspan x="323.75" y="0">ash</tspan></text><path class="cls-7" d="M148.79,61.4a36.73,36.73,0,0,1,8.33-23.32,34.4,34.4,0,0,0-45.48-4.38A34.43,34.43,0,0,0,131.9,96a34.33,34.33,0,0,0,25.32-11.11A36.76,36.76,0,0,1,148.79,61.4ZM138,75.49s-3.7-.27-11.47-.27a25.63,25.63,0,0,0-4.93.31l-1.35-2.46c7.78-7.9,12.4-13.63,13-18.71.47-3.66-2-4.82-4.35-4.66a9.73,9.73,0,0,0-6.73,3.92c-.2-.23-1.93-2.07-1.47-2.65A12.43,12.43,0,0,1,130,46.12c5.89,0,9.09,3,8.74,8.51-.46,7-8,13.59-12.63,17.55l8.32-.08c1.77-.15,3-2.54,3.81-4.73,0,0,1.73.5,2,1C139.58,71.53,138.81,75.49,138,75.49Z"/><path class="cls-7" d="M238,27.09a34.28,34.28,0,0,0-22.6,8.46l0,0-.19.16A34.8,34.8,0,0,0,225,93.43a34.44,34.44,0,1,0,13-66.34Zm8.71,40h-4.12c0,2.27,0,3.46.07,4.39,0,.77.2,1,.74,1l2.34.54-.07,2.23h-11.4l.08-2.27,2.23-.58c.58-.15.81-.23.81-1,0-1.69,0-2.73,0-4.39l-10.13-.08c-.11,0-1.42.2-1.42.2S225,65,225.3,64.79c.89-.46,12.94-16.86,14-18.63l3.2.53c-.08,3.93,0,11.36,0,17.41l4.7-.08C247.59,64,247.32,67.06,246.71,67.06Z"/><path class="cls-8" d="M237.43,64.06c0-7,0-10.05,0-10.05s-7.16,10.05-7.16,10.05Z"/><path class="cls-7" d="M95.79,61.4A36.74,36.74,0,0,1,104.16,38a34.44,34.44,0,1,0,.11,46.9A36.78,36.78,0,0,1,95.79,61.4ZM87.2,75.66H70.92L71,73.39l4.46-.58c.58,0,.81-.23.81-1,.08-10.05,0-19.6,0-19.6l-5.62,1.08c-.19-.31-1.12-2.46-.46-2.73l10.35-4,1,1s-.12,20.87,0,24.37c0,.77.19,1,.73,1l5.08.54Z"/><path class="cls-7" d="M201.79,61.4A36.74,36.74,0,0,1,210.16,38a34.43,34.43,0,0,0-47.76-2.48A34.8,34.8,0,0,0,172,93.43a34.41,34.41,0,0,0,38.24-8.51A36.78,36.78,0,0,1,201.79,61.4ZM181.35,75.49a15.64,15.64,0,0,1-7.86-2.19l1-2.89a21.48,21.48,0,0,0,7,1.66c3.35,0,5.51-1.74,5.55-5.24,0-2.46-1.43-4.35-4.47-4.74a17.82,17.82,0,0,0-5,.24c-.5.11-.89-3-.42-3.08,3-.54,7.62-1.08,8.39-4.89.73-3.62-2-4.82-4.35-4.66A8.43,8.43,0,0,0,175,52.82c-.2-.23-1.7-2.12-1-3a10.43,10.43,0,0,1,8.16-3.69c5.89,0,9.12,3,8.74,8.51a6,6,0,0,1-4,4.5c3.47.62,5.47,2.93,5.66,6.7C192.9,71.83,188,75.49,181.35,75.49Z"/><circle cx="291" cy="61.53" r="34.44"/><text class="cls-9" transform="translate(279.45 75.26)">5</text><g class="cls-10"><path class="cls-11" d="M566.37,993.13c11.77-1.9,23.43-3.8,34.82-5.83s22.55-4.21,32.89-6.76c5.16-1.28,10.09-2.66,14.49-4.19a44.38,44.38,0,0,0,10.67-5,10.61,10.61,0,0,0,2.64-2.65,7.16,7.16,0,0,0,1.2-2.78,8.28,8.28,0,0,0-.12-3.44c-.27-1.28-.8-2.64-1.1-4.24l1.62-.55a33.41,33.41,0,0,1,8.76,2.79,13.73,13.73,0,0,1,5.53,4.46,5.5,5.5,0,0,1,.51,5.47,13.64,13.64,0,0,1-4.68,5c-4.2,2.93-9.64,5.08-15.21,6.86a168.86,168.86,0,0,1-17.43,4.4,363.25,363.25,0,0,1-36.61,5.27c-12.42,1.18-24.94,2-37.63,2.13Z"/><path class="cls-11" d="M217.43,996.36c-13.12.14-26.14-.42-39.12-1.38a354.09,354.09,0,0,1-38.39-4.86,150.74,150.74,0,0,1-18.31-4.56c-5.78-1.91-11.47-4.34-15.18-7.69-1.83-1.66-3.14-3.54-3.35-5.46a6.87,6.87,0,0,1,2.16-5.42c3.19-3.26,8.54-5.66,15.38-7l1.61.56A41.94,41.94,0,0,1,120.6,965a17.51,17.51,0,0,0-1,3.71,6.55,6.55,0,0,0,.28,3.09,6.45,6.45,0,0,0,1.81,2.79c2,1.82,5.57,3.6,10,5.16A139.27,139.27,0,0,0,146.47,984c10.78,2.5,22.55,4.52,34.51,6.37s24.28,3.5,36.69,5.14Z"/><path class="cls-11" d="M485.48,1001.82a800.08,800.08,0,0,1-101.64,4.94q-48.76,0-94.14-4.11l-10.9-.4-.72.62c16,3.07,33.66,4.94,51.63,6.27,4.52.29,9,.63,13.6.84s9.15.42,13.74.61,9.22.22,13.83.33c2.31.07,4.62.07,6.94.07l6.94,0,6.95,0,6.93-.13c4.62-.13,9.25-.19,13.84-.38,9.17-.45,18.35-.83,27.29-1.63a474.71,474.71,0,0,0,51.24-6.57l-.68-.62Z"/><path class="cls-12" d="M271.28,988.26c-9.93-1.11-19.79-2.31-29.52-3.65s-19.3-2.84-28.49-4.62a249.5,249.5,0,0,1-25.58-6.16,52.87,52.87,0,0,1-9.47-3.76,10.08,10.08,0,0,1-2.62-1.89,2.53,2.53,0,0,1-.82-1.73c-.23-5.24,12.26-11.17,21.09-14,4.64-1.48,9.77-2.63,14.35-4.15a91.33,91.33,0,0,0-16.48,1.5,143,143,0,0,0-14.8,3.1,70.21,70.21,0,0,0-13.45,4.9,23.09,23.09,0,0,0-5.39,3.62,7.94,7.94,0,0,0-2.78,4.69,6.34,6.34,0,0,0,1.82,5,19.3,19.3,0,0,0,5.36,4,69.17,69.17,0,0,0,13.91,5.14,256.86,256.86,0,0,0,30.12,5.56c20.32,2.67,40.65,4.56,61.11,6s41,2.52,61.51,3.34l.29-.9C311.26,992.42,291.14,990.5,271.28,988.26Z"/><path class="cls-12" d="M622,962.75a11,11,0,0,0-3.32-4,38.86,38.86,0,0,0-11.13-5.7,97.77,97.77,0,0,0-13.36-3.59,117.5,117.5,0,0,0-14.55-2l-.88.82.31.14a143.22,143.22,0,0,1,18.14,5.26c5.54,2.19,9.42,5.4,9.44,8.74s-3.77,6.54-9.66,8.58c-1.83.75-3.84,1.48-6,2.16a234.28,234.28,0,0,1-23.6,6c-8.46,1.78-17.35,3.27-26.36,4.62s-18.19,2.57-27.43,3.69c-18.47,2.28-37.22,4.22-56.05,6.06l.32.9c19.21-.85,38.41-1.91,57.52-3.43s38.1-3.43,57.05-6.11a245.27,245.27,0,0,0,28-5.43,75.89,75.89,0,0,0,12.91-4.66,29.53,29.53,0,0,0,5.37-3.31,11,11,0,0,0,3.34-4.18A5.71,5.71,0,0,0,622,962.75Z"/><path class="cls-12" d="M387.52,978q-75.7-.09-142.71-11.79c-2.75-.41-5.5-.83-8.22-1.27l-.94.65c5.43,1.54,11.14,2.87,17,4.13s11.82,2.4,17.89,3.47,12.28,2,18.52,2.94c3.14.43,6.27.9,9.44,1.3s6.36.8,9.58,1.15a733.46,733.46,0,0,0,79.24,4.62c11.56.08,23.13-.18,34.63-.67,9.51-.57,27.45-1.92,36.77-2.8,15.52-1.46,30.6-3.55,45-6.1,12.78-2.26,26.93-4.65,35.39-9-1.12.57-5.34,1.05-7.08,1.38q-4.21.8-8.49,1.54-8.24,1.42-16.7,2.67c-11.28,1.66-22.84,3.06-34.59,4.21-23.74,2.31-48.3,3.56-72.87,3.62C395.42,978.1,391.46,978.08,387.52,978Z"/></g></svg>