<svg id="Layer_1" data-name="Layer 1" xmlns="http://www.w3.org/2000/svg" viewBox="0 0 780 1051.14"><defs><style>.cls-1,.cls-2,.cls-3{fill:#fff;}.cls-1{opacity:0.7;}.cls-2{opacity:0.37;}.cls-4{opacity:0.6;}.cls-5{fill:#abd6ee;}.cls-6{fill:#66b7e4;}</style></defs><path d="M256.14,225.66l-.22,2.56h-4.56v14.7h-3.09v-14.7h-4.73v-2.56Z"/><path d="M261.2,224.08v8a4.81,4.81,0,0,1,4.24-2.2c3,0,4.49,1.95,4.49,4.61v8.44h-3.06v-7.45c0-2-.74-3-2.42-3-2.34,0-3.25,1.9-3.25,4v6.51h-3.06V224.45Z"/><path d="M284.33,239.37a5.76,5.76,0,0,1-5.57,3.7c-4.34,0-6.26-2.72-6.26-6.76s2.71-6.53,6.43-6.44c3,.08,5.75,2.35,5.45,6.46l-.05.4H275.6c0,2.19.94,3.7,3.18,3.7a2.87,2.87,0,0,0,2.79-2.05Zm-3.13-4.22c.05-2-1-2.93-2.54-2.88a2.87,2.87,0,0,0-2.91,2.88Z"/><path d="M292.42,230.81a15.43,15.43,0,0,1,4.89-.94c3.89,0,5.32,1.93,5.32,4.94V240a.65.65,0,0,0,.62.74,2.5,2.5,0,0,0,1-.14v2a5.05,5.05,0,0,1-2.05.4,2.34,2.34,0,0,1-2.34-1.76,5.6,5.6,0,0,1-3.9,1.76c-2.51,0-4.38-1.29-4.41-4s2-4.1,5.25-4.1a19.85,19.85,0,0,1,2.79.25v-.77c0-1.4-.89-2.17-2.66-2.14a10.41,10.41,0,0,0-4,.79Zm7.16,6a14,14,0,0,0-2.52-.15c-1.48.08-2.42.77-2.44,2.08a1.8,1.8,0,0,0,2.09,1.89,5.1,5.1,0,0,0,2.87-1Z"/><path d="M310.4,230v12.92h-3.08V232.54h-1.8V230Zm-1.55-5a1.64,1.64,0,0,1,1.82,1.55,1.82,1.82,0,0,1-3.62,0A1.59,1.59,0,0,1,308.85,225Z"/><path d="M316,230l.45,2.29a4.29,4.29,0,0,1,4-2.44,3.77,3.77,0,0,1,3.85,2.39,4.52,4.52,0,0,1,4.17-2.39c3,0,4.21,2,4.21,4.63v8.44h-3.06v-7.45c0-2-.47-3-2.14-3-2.22,0-2.81,1.68-2.81,3.57v6.91H321.6v-7.45c0-2-.47-3-2.15-3-2.36,0-2.83,1.9-2.83,4v6.51h-3.06V230Z"/><path d="M345,230v12.92h-3.09V232.54h-1.79V230Zm-1.56-5a1.65,1.65,0,0,1,1.83,1.55,1.83,1.83,0,0,1-3.63,0A1.59,1.59,0,0,1,343.4,225Z"/><path d="M348.46,239.22a6.68,6.68,0,0,0,4.19,1.43c1.48,0,2.34-.44,2.34-1.51,0-2.51-7.47-.83-7.22-5.57.1-2.32,1.8-3.7,5.23-3.7a10.49,10.49,0,0,1,4.66,1.21l-1.09,2.17a7.36,7.36,0,0,0-3.7-1.06c-1.2,0-2.22.4-2.17,1.41.15,2,7.33.47,7.33,5.45,0,2.66-2.39,4-5.45,4a8.86,8.86,0,0,1-5.3-1.68Z"/><path d="M365.87,230.81a15.43,15.43,0,0,1,4.89-.94c3.89,0,5.32,1.93,5.32,4.94V240a.65.65,0,0,0,.62.74,2.5,2.5,0,0,0,1-.14v2a5.05,5.05,0,0,1-2,.4,2.34,2.34,0,0,1-2.34-1.76,5.6,5.6,0,0,1-3.9,1.76c-2.51,0-4.38-1.29-4.41-4s2-4.1,5.25-4.1a19.85,19.85,0,0,1,2.79.25v-.77c0-1.4-.89-2.17-2.66-2.14a10.41,10.41,0,0,0-4,.79Zm7.15,6a13.81,13.81,0,0,0-2.51-.15c-1.48.08-2.42.77-2.44,2.08a1.8,1.8,0,0,0,2.09,1.89,5,5,0,0,0,2.86-1Z"/><path d="M388.24,225.31c-1.16,0-2,.62-2,1.36,0,.22.27.44.27.44a1.42,1.42,0,0,1,1.65,1.56,1.65,1.65,0,0,1-1.75,1.55c-1.7,0-2.34-1.36-2.22-2.91.2-2.37,2-3.3,4-3.33Z"/><path d="M393.05,230l.57,2.66c.59-2,2.09-2.84,4.19-2.79a5.12,5.12,0,0,1,1.33.23l-.47,2.68a5.26,5.26,0,0,0-1.84-.24c-2.27.07-3.14,1.82-3.14,3.89v6.49h-3.05V230Z"/><path d="M405.06,230v12.92H402V232.54h-1.8V230Zm-1.55-5a1.64,1.64,0,0,1,1.82,1.55,1.82,1.82,0,0,1-3.62,0A1.59,1.59,0,0,1,403.51,225Z"/><path d="M410.66,230l.45,2.31a4.7,4.7,0,0,1,4.41-2.44c2.44.08,5.08,1.73,5.08,6.49,0,3.9-2,6.71-5.48,6.71a4,4,0,0,1-3.82-2.1v6.88h-3.08V230Zm.42,6.43c0,2.22.81,4,3.28,4,2,0,3.11-1.51,3.11-4.05,0-3-1.51-3.94-3.13-3.94C412.56,232.44,411.08,233.84,411.08,236.43Z"/><path d="M439.79,239.37a5.76,5.76,0,0,1-5.57,3.7c-4.34,0-6.27-2.72-6.27-6.76s2.72-6.53,6.44-6.44c3,.08,5.74,2.35,5.45,6.46l0,.4h-8.73c0,2.19.94,3.7,3.18,3.7a2.89,2.89,0,0,0,2.79-2.05Zm-3.13-4.22c0-2-1-2.93-2.54-2.88a2.87,2.87,0,0,0-2.91,2.88Z"/><path d="M445,230l.46,2.29a4.8,4.8,0,0,1,4.42-2.42c3,0,4.49,1.95,4.49,4.61v8.44h-3.06v-7.45c0-2-.74-3-2.42-3-2.34,0-3.25,1.9-3.25,4v6.51h-3.06V230Z"/><path d="M461.4,226.35v3.77h3.25l-.42,2.47H461.4v5.91c0,1.41.64,1.95,1.67,1.95a5.76,5.76,0,0,0,1.95-.56l.57,2.34a8.1,8.1,0,0,1-3.28.84c-3,0-4-2-4-4.15v-6.33h-1.8v-2.47h1.95l.37-3.43Z"/><path d="M469.78,230l.57,2.66c.59-2,2.1-2.84,4.19-2.79a5.12,5.12,0,0,1,1.33.23l-.47,2.68a5.29,5.29,0,0,0-1.85-.24c-2.26.07-3.13,1.82-3.13,3.89v6.49h-3.05V230Z"/><path d="M480.73,230l3.18,9.12h.2L487,230h3.16l-4.79,13.12c-1.58,4.31-3.05,5.4-7.62,4.43l.55-2.58c2.91.71,3.3,0,4.21-2.49L477.67,230Z"/><path d="M493.43,227.11a1.45,1.45,0,0,1-1.65-1.58,1.65,1.65,0,0,1,1.75-1.55c1.7,0,2.35,1.36,2.22,2.91-.17,2.37-2,3.3-4,3.33v-1.33c1.18,0,2-.62,2-1.36C493.71,227.31,493.43,227.11,493.43,227.11Z"/><path d="M499,242.57a1.4,1.4,0,0,1-1.62-1.58,1.6,1.6,0,0,1,1.72-1.52c1.7,0,2.37,1.33,2.25,2.91-.2,2.34-2,3.27-4.05,3.3v-1.33c1.16,0,2-.62,2-1.36C499.33,242.8,499,242.57,499,242.57Z"/><path d="M259.41,263.91l2.52,9h.19l2.52-9h3.15l2.54,9h.18l2.56-9h3.18l-4.34,12.92h-3l-2.64-8.73H266l-2.54,8.73h-3l-4.24-12.92Z"/><path d="M282.25,263.91v12.92h-3.08V266.45h-1.8v-2.54Zm-1.55-5a1.6,1.6,0,1,1,0,3.16,1.63,1.63,0,0,1-1.8-1.63A1.59,1.59,0,0,1,280.7,258.88Z"/><path d="M289.38,260.26V264h3.25l-.42,2.47h-2.83v5.92c0,1.4.64,1.95,1.67,1.95a5.72,5.72,0,0,0,1.95-.57l.57,2.34a8.1,8.1,0,0,1-3.28.84c-3,0-4-2-4-4.14V266.5h-1.8V264h2l.37-3.42Z"/><path d="M298.58,258v8a4.81,4.81,0,0,1,4.24-2.19c3,0,4.49,1.95,4.49,4.61v8.43h-3.06v-7.44c0-2-.74-3-2.42-3-2.34,0-3.25,1.9-3.25,4v6.51h-3.06V258.36Z"/><path d="M317.94,263.91l.47,2.29a4.76,4.76,0,0,1,4.41-2.41c3,0,4.49,1.95,4.49,4.61v8.43h-3.06v-7.44c0-2-.74-3-2.42-3-2.34,0-3.25,1.9-3.25,4v6.51h-3.06V263.91Z"/><path d="M336.24,263.79c3.23,0,6,2.19,6,6.61,0,3.62-2.15,6.58-6.16,6.58-4.37,0-6.17-3-6.17-6.58C330,266,332.74,263.79,336.24,263.79Zm-3.08,6.61c0,2,.69,4,3,4,2.1,0,3-1.95,3-4,0-2.86-1.41-4-3-4S333.16,267.49,333.16,270.4Z"/><path d="M350.5,273.13a6.68,6.68,0,0,0,4.19,1.43c1.48,0,2.34-.44,2.34-1.5,0-2.52-7.47-.84-7.23-5.57.1-2.32,1.81-3.7,5.23-3.7a10.49,10.49,0,0,1,4.66,1.21l-1.08,2.17a7.25,7.25,0,0,0-3.7-1.06c-1.21,0-2.22.39-2.17,1.4.15,2.05,7.32.47,7.32,5.45,0,2.66-2.39,4-5.45,4a8.78,8.78,0,0,1-5.3-1.68Z"/><path d="M365,263.91l.44,2.32a4.69,4.69,0,0,1,4.42-2.44c2.44.07,5.07,1.72,5.07,6.48,0,3.9-1.94,6.71-5.47,6.71a4,4,0,0,1-3.82-2.1v6.88h-3.08V263.91Zm.42,6.44c0,2.22.81,4,3.28,4,2,0,3.1-1.5,3.1-4,0-3-1.5-3.95-3.13-3.95S365.42,267.76,365.42,270.35Z"/><path d="M380.68,258v14.63c0,1.38.62,1.75,1.53,1.75a2.42,2.42,0,0,0,1.28-.47l.57,2.19a5.31,5.31,0,0,1-2.78.89c-2.57,0-3.65-1.73-3.65-4.07V258.36Z"/><path d="M386.16,264.73a15.09,15.09,0,0,1,4.88-.94c3.9,0,5.33,1.92,5.33,4.93V274a.65.65,0,0,0,.61.74,2.48,2.48,0,0,0,1-.15v2A5.09,5.09,0,0,1,396,277a2.33,2.33,0,0,1-2.34-1.75,5.67,5.67,0,0,1-3.9,1.75c-2.51,0-4.39-1.28-4.41-4s2-4.09,5.25-4.09a19.86,19.86,0,0,1,2.78.24v-.76c0-1.41-.88-2.17-2.66-2.15a10.39,10.39,0,0,0-4,.79Zm7.15,6a13.07,13.07,0,0,0-2.52-.15c-1.47.07-2.41.76-2.44,2.07a1.82,1.82,0,0,0,2.1,1.9,5.06,5.06,0,0,0,2.86-1Z"/><path d="M400.46,273.13a6.73,6.73,0,0,0,4.2,1.43c1.48,0,2.34-.44,2.34-1.5,0-2.52-7.47-.84-7.23-5.57.1-2.32,1.8-3.7,5.23-3.7a10.49,10.49,0,0,1,4.66,1.21l-1.08,2.17a7.3,7.3,0,0,0-3.7-1.06c-1.21,0-2.22.39-2.17,1.4.15,2.05,7.32.47,7.32,5.45,0,2.66-2.39,4-5.45,4a8.78,8.78,0,0,1-5.3-1.68Z"/><path d="M415.58,258v8a4.83,4.83,0,0,1,4.24-2.19c3,0,4.49,1.95,4.49,4.61v8.43h-3.06v-7.44c0-2-.74-3-2.41-3-2.34,0-3.26,1.9-3.26,4v6.51h-3.05V258.36Z"/><path d="M432.72,264.73a15.15,15.15,0,0,1,4.89-.94c3.89,0,5.32,1.92,5.32,4.93V274a.65.65,0,0,0,.62.74,2.41,2.41,0,0,0,1-.15v2a5,5,0,0,1-2.05.39,2.34,2.34,0,0,1-2.34-1.75,5.62,5.62,0,0,1-3.89,1.75c-2.52,0-4.39-1.28-4.42-4s2-4.09,5.25-4.09a20,20,0,0,1,2.79.24v-.76c0-1.41-.89-2.17-2.66-2.15a10.41,10.41,0,0,0-4,.79Zm7.16,6a13.13,13.13,0,0,0-2.52-.15c-1.48.07-2.42.76-2.44,2.07a1.82,1.82,0,0,0,2.1,1.9,5.09,5.09,0,0,0,2.86-1Z"/><path d="M450.65,260.26V264h3.26l-.42,2.47h-2.84v5.92c0,1.4.65,1.95,1.68,1.95a5.72,5.72,0,0,0,1.95-.57l.57,2.34a8.1,8.1,0,0,1-3.28.84c-3,0-4-2-4-4.14V266.5h-1.8V264h1.95l.37-3.42Z"/><path d="M462.15,264.73a15.09,15.09,0,0,1,4.88-.94c3.9,0,5.33,1.92,5.33,4.93V274a.65.65,0,0,0,.61.74,2.41,2.41,0,0,0,1-.15v2a5,5,0,0,1-2,.39,2.33,2.33,0,0,1-2.34-1.75,5.67,5.67,0,0,1-3.9,1.75c-2.52,0-4.39-1.28-4.41-4s2-4.09,5.25-4.09a20,20,0,0,1,2.78.24v-.76c0-1.41-.88-2.17-2.66-2.15a10.39,10.39,0,0,0-4,.79Zm7.15,6a13,13,0,0,0-2.51-.15c-1.49.07-2.42.76-2.45,2.07a1.82,1.82,0,0,0,2.1,1.9,5.06,5.06,0,0,0,2.86-1Z"/><path d="M479.17,258v14.63c0,1.38.61,1.75,1.53,1.75a2.46,2.46,0,0,0,1.28-.47l.56,2.19a5.31,5.31,0,0,1-2.78.89c-2.57,0-3.65-1.73-3.65-4.07V258.36Z"/><path d="M486.15,258v14.63c0,1.38.61,1.75,1.53,1.75a2.46,2.46,0,0,0,1.28-.47l.57,2.19a5.39,5.39,0,0,1-2.79.89c-2.57,0-3.65-1.73-3.65-4.07V258.36Z"/><path d="M370.85,345.79c0,7.29,0,14.58,0,21.86,0,10.58,0,21.15-.19,31.73a78.57,78.57,0,0,1-.29,8.95c-.24,1.91,2.76,1.9,3,0a65.82,65.82,0,0,0,.27-7.43c.08-4.8.12-9.6.15-14.4q.09-15.86.07-31.73c0-3,0-6,0-9a1.5,1.5,0,0,0-3,0Z"/><path d="M364.05,402.39c2.23,3.23,4.77,6.24,7.23,9.29.67.83,1.84.38,2.36-.3,1.1-1.47,2.27-2.88,3.38-4.32s2.09-2.82,3.16-4.19a1.56,1.56,0,0,0,0-2.12,1.51,1.51,0,0,0-2.12,0c-1.13,1.44-2.19,2.93-3.3,4.37s-2.51,3.14-3.71,4.74l2.35-.3c-2.3-2.86-4.67-5.66-6.76-8.69a1.53,1.53,0,0,0-2.05-.53,1.51,1.51,0,0,0-.54,2.05Z"/><path d="M349.34,51.34l-.42,3.12h-8.76v5.88h8.4l-.06,3.21h-8.34v8.79h-3.72v-21Z"/><path d="M357.17,56.62V72.34h-3.75V59.71h-2.19V56.62Zm-1.89-6.12a2,2,0,0,1,2.22,1.89,2.22,2.22,0,0,1-4.41,0A1.93,1.93,0,0,1,355.28,50.5Z"/><path d="M364,56.62l.57,2.79a5.8,5.8,0,0,1,5.37-2.94c3.69,0,5.46,2.37,5.46,5.61V72.34h-3.72V63.28c0-2.4-.9-3.69-2.94-3.69-2.85,0-4,2.31-4,4.83v7.92H361V56.62Z"/><path d="M378.83,57.61a18.74,18.74,0,0,1,5.94-1.14c4.74,0,6.48,2.34,6.48,6v6.36a.79.79,0,0,0,.75.9,3,3,0,0,0,1.23-.18V72a6.08,6.08,0,0,1-2.49.48,2.84,2.84,0,0,1-2.85-2.13,6.87,6.87,0,0,1-4.74,2.13c-3.06,0-5.34-1.56-5.37-4.83s2.46-5,6.39-5a24.49,24.49,0,0,1,3.39.3v-.93c0-1.71-1.08-2.64-3.24-2.61a12.68,12.68,0,0,0-4.86,1Zm8.7,7.35a16.62,16.62,0,0,0-3.06-.18c-1.8.09-2.94.93-3,2.52a2.21,2.21,0,0,0,2.55,2.31,6.17,6.17,0,0,0,3.48-1.26Z"/><path d="M399.53,49.42V67.21c0,1.68.75,2.13,1.86,2.13a2.93,2.93,0,0,0,1.56-.57l.69,2.67a6.47,6.47,0,0,1-3.39,1.08c-3.12,0-4.44-2.1-4.44-5V49.87Z"/><path d="M408,49.42V67.21c0,1.68.75,2.13,1.86,2.13a2.93,2.93,0,0,0,1.56-.57l.69,2.67a6.47,6.47,0,0,1-3.39,1.08c-3.12,0-4.44-2.1-4.44-5V49.87Z"/><path d="M415.82,56.62l3.87,11.1h.24l3.54-11.1h3.84l-5.82,16c-1.92,5.25-3.72,6.57-9.27,5.4l.66-3.15c3.54.87,4,.06,5.13-3L412.1,56.62Z"/><path d="M441.08,52.18v4.59h4l-.51,3h-3.45V67c0,1.71.78,2.37,2,2.37a6.83,6.83,0,0,0,2.37-.69l.69,2.85a9.82,9.82,0,0,1-4,1c-3.69,0-4.83-2.46-4.83-5V59.77h-2.19v-3h2.37L438,52.6Z"/><path d="M454.88,56.47c3.93,0,7.35,2.67,7.35,8,0,4.41-2.61,8-7.5,8-5.31,0-7.5-3.6-7.5-8C447.23,59.14,450.62,56.47,454.88,56.47Zm-3.75,8c0,2.49.84,4.86,3.66,4.86,2.55,0,3.69-2.37,3.69-4.86,0-3.48-1.71-4.89-3.6-4.89C452.81,59.62,451.13,61,451.13,64.51Z"/><path d="M472.85,56.77V54.64c0-3.21,1.68-5.22,5.16-5.22a8.57,8.57,0,0,1,2.58.39L480,52.48c-.12,0-.6-.09-1.08-.09-1.65,0-2.34.69-2.34,2.85v1.53h8.79V72.34h-3.72V59.77H476.6V72.34h-3.75V59.77h-2.46v-3Zm10.71-6.27a2,2,0,0,1,2.19,1.89,2,2,0,0,1-2.19,2,2,2,0,0,1-2.22-2C481.34,51.34,482.12,50.5,483.56,50.5Z"/><path d="M492.17,56.62l.57,2.79a5.8,5.8,0,0,1,5.37-2.94c3.69,0,5.46,2.37,5.46,5.61V72.34h-3.72V63.28c0-2.4-.9-3.69-2.94-3.69-2.85,0-4,2.31-4,4.83v7.92h-3.72V56.62Z"/><path d="M512.24,56.62V72.34h-3.75V59.71H506.3V56.62Zm-1.89-6.12a2,2,0,0,1,2.22,1.89,2.22,2.22,0,0,1-4.41,0A1.93,1.93,0,0,1,510.35,50.5Z"/><path d="M516.5,67.84a8.13,8.13,0,0,0,5.09,1.74c1.8,0,2.86-.54,2.86-1.83,0-3.06-9.09-1-8.79-6.78.12-2.82,2.18-4.5,6.35-4.5a12.78,12.78,0,0,1,5.67,1.47l-1.31,2.64a9,9,0,0,0-4.5-1.29c-1.48,0-2.7.48-2.65,1.71.19,2.49,8.91.57,8.91,6.63,0,3.24-2.91,4.92-6.63,4.89a10.79,10.79,0,0,1-6.45-2Z"/><path d="M534.88,49.42v9.72A5.88,5.88,0,0,1,540,56.47c3.69,0,5.46,2.37,5.46,5.61V72.34h-3.72V63.28c0-2.4-.9-3.69-2.94-3.69-2.84,0-4,2.31-4,4.83v7.92h-3.71V49.87Z"/><path d="M550.42,71.92a1.72,1.72,0,0,1-2-1.92,2,2,0,0,1,2.1-1.86c2.07,0,2.88,1.62,2.73,3.54-.24,2.85-2.43,4-4.92,4V74.08c1.41,0,2.43-.75,2.43-1.65C550.78,72.19,550.42,71.92,550.42,71.92Z"/><path d="M567.49,52.18v4.59h4l-.51,3h-3.45V67c0,1.71.78,2.37,2,2.37a6.83,6.83,0,0,0,2.37-.69l.69,2.85a9.82,9.82,0,0,1-4,1c-3.69,0-4.83-2.46-4.83-5V59.77h-2.19v-3H564l.45-4.17Z"/><path d="M578.68,49.42v9.72a5.86,5.86,0,0,1,5.16-2.67c3.69,0,5.46,2.37,5.46,5.61V72.34h-3.72V63.28c0-2.4-.9-3.69-2.94-3.69-2.85,0-4,2.31-4,4.83v7.92H575V49.87Z"/><path d="M606.82,68a7,7,0,0,1-6.78,4.5c-5.28,0-7.62-3.3-7.62-8.22s3.3-7.95,7.83-7.83c3.69.09,7,2.85,6.63,7.86l-.06.48H596.2c0,2.67,1.14,4.5,3.87,4.5a3.5,3.5,0,0,0,3.39-2.49ZM603,62.89c.06-2.43-1.26-3.57-3.09-3.51a3.5,3.5,0,0,0-3.54,3.51Z"/><path d="M616.84,67.84a8.15,8.15,0,0,0,5.1,1.74c1.8,0,2.85-.54,2.85-1.83,0-3.06-9.09-1-8.79-6.78.12-2.82,2.19-4.5,6.36-4.5A12.78,12.78,0,0,1,628,57.94l-1.32,2.64a8.9,8.9,0,0,0-4.5-1.29c-1.47,0-2.7.48-2.64,1.71.18,2.49,8.91.57,8.91,6.63,0,3.24-2.91,4.92-6.63,4.89a10.76,10.76,0,0,1-6.45-2Z"/><path d="M634.48,56.62l.54,2.82a5.71,5.71,0,0,1,5.37-3c3,.09,6.18,2.1,6.18,7.89,0,4.74-2.37,8.16-6.66,8.16A4.88,4.88,0,0,1,635.26,70v8.37h-3.75V56.62Zm.51,7.83c0,2.7,1,4.86,4,4.86,2.43,0,3.78-1.83,3.78-4.92,0-3.66-1.83-4.8-3.81-4.8C636.79,59.59,635,61.3,635,64.45Z"/><path d="M653.56,49.42V67.21c0,1.68.75,2.13,1.86,2.13a2.93,2.93,0,0,0,1.56-.57l.69,2.67a6.47,6.47,0,0,1-3.39,1.08c-3.12,0-4.44-2.1-4.44-5V49.87Z"/><path d="M660.22,57.61a18.74,18.74,0,0,1,5.94-1.14c4.74,0,6.48,2.34,6.48,6v6.36a.79.79,0,0,0,.75.9,3,3,0,0,0,1.23-.18V72a6.08,6.08,0,0,1-2.49.48,2.84,2.84,0,0,1-2.85-2.13,6.87,6.87,0,0,1-4.74,2.13c-3.06,0-5.34-1.56-5.37-4.83s2.46-5,6.39-5A24.49,24.49,0,0,1,669,63v-.93c0-1.71-1.08-2.64-3.24-2.61a12.68,12.68,0,0,0-4.86,1Zm8.7,7.35a16.62,16.62,0,0,0-3.06-.18c-1.8.09-2.94.93-3,2.52a2.21,2.21,0,0,0,2.55,2.31,6.17,6.17,0,0,0,3.48-1.26Z"/><path d="M677.62,67.84a8.15,8.15,0,0,0,5.1,1.74c1.8,0,2.85-.54,2.85-1.83,0-3.06-9.09-1-8.79-6.78.12-2.82,2.19-4.5,6.36-4.5a12.78,12.78,0,0,1,5.67,1.47l-1.32,2.64a8.9,8.9,0,0,0-4.5-1.29c-1.47,0-2.7.48-2.64,1.71.18,2.49,8.91.57,8.91,6.63,0,3.24-2.91,4.92-6.63,4.89a10.76,10.76,0,0,1-6.45-2Z"/><path d="M696,49.42v9.72a5.86,5.86,0,0,1,5.16-2.67c3.69,0,5.46,2.37,5.46,5.61V72.34h-3.72V63.28c0-2.4-.9-3.69-2.94-3.69-2.85,0-4,2.31-4,4.83v7.92h-3.72V49.87Z"/><path class="cls-1" d="M148.79,61.4a36.73,36.73,0,0,1,8.33-23.32,34.4,34.4,0,0,0-45.48-4.38A34.43,34.43,0,0,0,131.9,96a34.33,34.33,0,0,0,25.32-11.11A36.76,36.76,0,0,1,148.79,61.4ZM138,75.49s-3.7-.27-11.47-.27a25.63,25.63,0,0,0-4.93.31l-1.35-2.46c7.78-7.9,12.4-13.63,13-18.71.47-3.66-2-4.82-4.35-4.66a9.73,9.73,0,0,0-6.73,3.92c-.2-.23-1.93-2.07-1.47-2.65A12.43,12.43,0,0,1,130,46.12c5.89,0,9.09,3,8.74,8.51-.46,7-8,13.59-12.63,17.55l8.32-.08c1.77-.15,3-2.54,3.81-4.73,0,0,1.73.5,2,1C139.58,71.53,138.81,75.49,138,75.49Z"/><path class="cls-1" d="M238,27.09a34.28,34.28,0,0,0-22.6,8.46l0,0-.19.16A34.8,34.8,0,0,0,225,93.43a34.44,34.44,0,1,0,13-66.34Zm8.71,40h-4.12c0,2.27,0,3.46.07,4.39,0,.77.2,1,.74,1l2.34.54-.07,2.23h-11.4l.08-2.27,2.23-.58c.58-.15.81-.23.81-1,0-1.69,0-2.73,0-4.39l-10.13-.08c-.11,0-1.42.2-1.42.2S225,65,225.3,64.79c.89-.46,12.94-16.86,14-18.63l3.2.53c-.08,3.93,0,11.36,0,17.41l4.7-.08C247.59,64,247.32,67.06,246.71,67.06Z"/><path class="cls-2" d="M237.43,64.06c0-7,0-10.05,0-10.05s-7.16,10.05-7.16,10.05Z"/><path class="cls-1" d="M95.79,61.4A36.74,36.74,0,0,1,104.16,38a34.44,34.44,0,1,0,.11,46.9A36.78,36.78,0,0,1,95.79,61.4ZM87.2,75.66H70.92L71,73.39l4.46-.58c.58,0,.81-.23.81-1,.08-10.05,0-19.6,0-19.6l-5.62,1.08c-.19-.31-1.12-2.46-.46-2.73l10.35-4,1,1s-.12,20.87,0,24.37c0,.77.19,1,.73,1l5.08.54Z"/><path class="cls-1" d="M201.79,61.4A36.74,36.74,0,0,1,210.16,38a34.43,34.43,0,0,0-47.76-2.48A34.8,34.8,0,0,0,172,93.43a34.41,34.41,0,0,0,38.24-8.51A36.78,36.78,0,0,1,201.79,61.4ZM181.35,75.49a15.64,15.64,0,0,1-7.86-2.19l1-2.89a21.48,21.48,0,0,0,7,1.66c3.35,0,5.51-1.74,5.55-5.24,0-2.46-1.43-4.35-4.47-4.74a17.82,17.82,0,0,0-5,.24c-.5.11-.89-3-.42-3.08,3-.54,7.62-1.08,8.39-4.89.73-3.62-2-4.82-4.35-4.66A8.43,8.43,0,0,0,175,52.82c-.2-.23-1.7-2.12-1-3a10.43,10.43,0,0,1,8.16-3.69c5.89,0,9.12,3,8.74,8.51a6,6,0,0,1-4,4.5c3.47.62,5.47,2.93,5.66,6.7C192.9,71.83,188,75.49,181.35,75.49Z"/><circle cx="291" cy="61.53" r="34.44"/><path class="cls-3" d="M284.07,59.9l-.3-.31,1-13.2h14.7c.31.3-.23,3.31-.65,3.31L289,49.47l-.5,7.2c6-.27,11.09,1.54,11.4,9.16.23,6-4.58,9.66-11.24,9.66a13.34,13.34,0,0,1-7.2-1.81l1-2.89a19.8,19.8,0,0,0,6.35,1.27c3.35,0,5.39-1.73,5.54-5.23C294.54,61.86,290.93,59.55,284.07,59.9Z"/><g class="cls-4"><path class="cls-5" d="M514.8,989c8.31-1.34,16.54-2.68,24.58-4.12s15.92-3,23.23-4.77c3.64-.91,7.12-1.88,10.22-3a31.06,31.06,0,0,0,7.54-3.52,7.66,7.66,0,0,0,1.87-1.87,5.23,5.23,0,0,0,.85-2,6.09,6.09,0,0,0-.09-2.42c-.19-.91-.56-1.87-.78-3l1.15-.39a23.88,23.88,0,0,1,6.18,2,9.73,9.73,0,0,1,3.9,3.15,3.86,3.86,0,0,1,.36,3.86,9.54,9.54,0,0,1-3.3,3.5,40.53,40.53,0,0,1-10.74,4.84,119.55,119.55,0,0,1-12.3,3.11,258.75,258.75,0,0,1-25.86,3.72c-8.77.83-17.61,1.4-26.56,1.5Z"/><path class="cls-5" d="M268.43,991.32c-9.27.1-18.47-.3-27.63-1a252.23,252.23,0,0,1-27.11-3.44,104.7,104.7,0,0,1-12.92-3.22c-4.08-1.35-8.1-3.06-10.72-5.43a6.49,6.49,0,0,1-2.36-3.85,4.8,4.8,0,0,1,1.52-3.83c2.25-2.3,6-4,10.86-4.92l1.14.4a31.5,31.5,0,0,1-1.15,3.11,11.66,11.66,0,0,0-.72,2.62,4.76,4.76,0,0,0,1.47,4.15,21.66,21.66,0,0,0,7,3.64,98.75,98.75,0,0,0,10.48,3c7.61,1.76,15.92,3.19,24.37,4.49s17.14,2.48,25.91,3.63Z"/><path class="cls-5" d="M457.69,995.17a563.23,563.23,0,0,1-71.77,3.49q-34.44,0-66.47-2.9l-7.7-.28-.51.43a323.86,323.86,0,0,0,36.46,4.43c3.19.21,6.38.44,9.6.6s6.46.29,9.7.43,6.51.15,9.77.23c1.63,0,3.26,0,4.9,0h9.8l4.9-.09c3.26-.09,6.53-.14,9.77-.27,6.47-.32,13-.58,19.27-1.15a336.24,336.24,0,0,0,36.18-4.64l-.48-.44Z"/><path class="cls-6" d="M306.45,985.6q-10.53-1.17-20.85-2.58c-6.86-.94-13.62-2-20.12-3.26a174.52,174.52,0,0,1-18.06-4.35,37.35,37.35,0,0,1-6.68-2.65,7.25,7.25,0,0,1-1.85-1.33,1.86,1.86,0,0,1-.58-1.23c-.16-3.7,8.66-7.89,14.89-9.87,3.28-1,6.9-1.86,10.13-2.93a64.82,64.82,0,0,0-11.63,1.06,97.56,97.56,0,0,0-10.45,2.19,49.46,49.46,0,0,0-9.5,3.46,16.56,16.56,0,0,0-3.81,2.55,5.63,5.63,0,0,0-2,3.32,4.49,4.49,0,0,0,1.29,3.51,13.68,13.68,0,0,0,3.78,2.8,49.27,49.27,0,0,0,9.82,3.63,184.43,184.43,0,0,0,21.27,3.93c14.35,1.87,28.7,3.21,43.14,4.25s28.93,1.78,43.44,2.36l.2-.64C334.67,988.54,320.47,987.18,306.45,985.6Z"/><path class="cls-6" d="M554.1,967.59a7.77,7.77,0,0,0-2.35-2.84,27.23,27.23,0,0,0-7.85-4,67.79,67.79,0,0,0-9.43-2.54,84.57,84.57,0,0,0-10.28-1.43l-.63.58.22.1a100.09,100.09,0,0,1,12.82,3.71c3.91,1.54,6.65,3.81,6.66,6.17s-2.66,4.62-6.82,6.06c-1.29.53-2.71,1-4.24,1.53a167.83,167.83,0,0,1-16.66,4.26c-6,1.25-12.25,2.31-18.61,3.26s-12.84,1.81-19.37,2.61c-13,1.6-26.28,3-39.57,4.28l.22.63c13.57-.6,27.12-1.35,40.61-2.42s26.91-2.42,40.28-4.32a172.76,172.76,0,0,0,19.78-3.83,53.52,53.52,0,0,0,9.12-3.29,21.11,21.11,0,0,0,3.79-2.34,7.55,7.55,0,0,0,2.35-3A4,4,0,0,0,554.1,967.59Z"/><path class="cls-6" d="M388.52,978.38a591.45,591.45,0,0,1-100.76-8.32c-1.95-.3-3.89-.59-5.81-.9l-.66.45c3.83,1.09,7.86,2,12,2.92s8.34,1.69,12.63,2.45,8.67,1.43,13.08,2.08c2.22.3,4.42.63,6.67.91s4.48.57,6.75.82a520,520,0,0,0,56,3.26c8.16.05,16.33-.13,24.45-.48,6.71-.4,19.38-1.35,26-2,11-1,21.61-2.51,31.79-4.31,9-1.59,19-3.28,25-6.35a33.31,33.31,0,0,1-5,1q-3,.55-6,1.08-5.82,1-11.79,1.89c-8,1.17-16.13,2.16-24.42,3-16.76,1.63-34.11,2.52-51.46,2.56C394.09,978.43,391.3,978.41,388.52,978.38Z"/></g></svg>