<svg id="Layer_1" data-name="Layer 1" xmlns="http://www.w3.org/2000/svg" viewBox="0 0 780 1051.14"><defs><style>.cls-1{fill:#fff171;stroke-width:0.3px;}.cls-1,.cls-2,.cls-3,.cls-4,.cls-5,.cls-7{stroke:#fff;stroke-miterlimit:10;}.cls-2,.cls-5,.cls-7{fill:#d4a47c;}.cls-2{stroke-width:0.28px;}.cls-3{fill:#005058;stroke-width:0.42px;}.cls-4{fill:#c6946f;}.cls-4,.cls-5{stroke-width:0.27px;}.cls-6{fill:#b78662;opacity:0.5;}.cls-7{stroke-width:0.36px;}.cls-8{font-size:24.66px;}.cls-12,.cls-8{font-family:ABCSansBold, ABCSans;}.cls-9{letter-spacing:-0.01em;}.cls-10{letter-spacing:-0.02em;}.cls-11{letter-spacing:-0.02em;}.cls-12{font-size:30px;}.cls-13{letter-spacing:-0.01em;}.cls-14{letter-spacing:0.03em;}.cls-15{letter-spacing:-0.04em;}.cls-16{letter-spacing:-0.02em;}.cls-17{font-size:38.5px;fill:#fff;font-family:ABCSerifBold, ABCSerif;}</style></defs><path class="cls-1" d="M479.48,454.83a104.73,104.73,0,0,1-3.54-10.15,95.69,95.69,0,0,1,.18,24.56c-1.11,9.89-3.41,19.85-7.6,28.27a38.88,38.88,0,0,1-3.49,5.81,31.11,31.11,0,0,1-2.1,2.56c-1.15,1.24-.67,3.13-1.15,4.85-.59,2.17,2,3.11,2.63.95a13.84,13.84,0,0,0,.43-3.27c5.41-5.9,8.87-14.51,11.13-23.12a111.39,111.39,0,0,0,3.52-30.07C479.49,455.09,479.49,455,479.48,454.83Z"/><path class="cls-1" d="M475.7,443l-.05,0a82.06,82.06,0,0,0-14.72-9.54c-2.4-1.28-4.81-2.7-7.53-3.14-10.22-1.66-20,3-27.65,9.34-2.51,2.07-3.6,5.4-5,8.39-.61,1.3-3.55,6.18-.25,6.21.44,0,2.86-5.47,3.63-6.37,5.53-6.54,12.73-12.74,21.69-13.31,2.65-.17,5.54-.63,8.12.18a36.85,36.85,0,0,1,6.76,3.32c2.35,1.32,4.58,2.83,6.91,4.18a46.6,46.6,0,0,1,6.62,5c1.22,1,2.41,2.08,3.63,3.1C477,447.89,476.34,445.39,475.7,443Z"/><path class="cls-2" d="M487.06,495.47c.33-15.61-3-29.09-8.43-43.51-.33-.89-.71-1.71-1.09-2.58-.53-1.19-.63-2.51-1.15-3.69-1-2.23-1.33-4.73-2.6-6.89-5.68-9.68-13.8-18.85-20.3-27.65-1-1.41-2.54-2.72-3.2-4.36a4.63,4.63,0,0,1-.4-2.68,48.09,48.09,0,0,0,1.61-9c.07-1.33.07-2.16.1-3.5s-.09-3.91,1.06-4.74,2.12.64,3,1.33,1.59.74,2.34,1.25a7.68,7.68,0,0,0,1.61,1.14,6.21,6.21,0,0,0,4.53-.09c1.55-.84,2-2.77,3.36-3.76a5.33,5.33,0,0,1,2-.73,2.6,2.6,0,0,1-.62-1.54c-.31-3.89,1.87-7.17,2.8-10.82a19.41,19.41,0,0,0-3.28-1,27.92,27.92,0,0,1-5.12-1.69c-1.5-.63-3-.76-3.83-2.12-.66-1.05-.63-2.36-1.29-3.4a22.76,22.76,0,0,1-1.48-2,30.58,30.58,0,0,1-1.32-3.73c-1-2.75-2.2-5.48-3.29-8.21a24.12,24.12,0,0,0-5-8,19.5,19.5,0,0,0-8.18-4.88,42.94,42.94,0,0,0-7.21-1.79,73.57,73.57,0,0,0-10.81-.49c-4.07.11-8.58,1.7-12.2,3.43-2.69,1.29-5.46,2.11-8,3.72a25.16,25.16,0,0,0-6.45,6.36c-1.58,2.07-3.58,3.37-5.57,4.91-1,.78-1.61,2-2.63,2.8a28.91,28.91,0,0,0-3.46,3.17c-2,2.32-1.87,4.9-1.9,7.73,0,1.88.58,3.62.53,5.52a14,14,0,0,0,.26,2.73c.18,1,.05,2,.23,3,.08.49.35.85.46,1.36s-.15.87.05,1.36a21.43,21.43,0,0,0,1.88,2.55,26.92,26.92,0,0,1,2,3.13,3.34,3.34,0,0,0,.18.35c-.05,0-.12.17-.19.5a11.85,11.85,0,0,1-1,2.63c-.95,2.23-1.41,2.24-2.24,4.88a27,27,0,0,0-1.13,5.06,3.42,3.42,0,0,0,3.64,3.84,1.75,1.75,0,0,1,1.22.32,4.75,4.75,0,0,1,2.34,2.57,11.93,11.93,0,0,0,3.44,7.73c1,1.16,1.93,1.4,2,2.91,0,1.09,0,2.2,0,3.28,0,2.05.54,3.94,2.67,4.63,2.85.92,7.25-.5,10.08-.95,5-.78,12.26-5.07,14.95,1.59,1.56,3.88,1,9.64,0,13.53-.23.89-1.1,6.33-1.44,7.23,1.15,0,2.68-5,3.69-5.65,1.34-.83,2.85-1.34,4.25-2.05l.84,1c-5.26,2.52-9.73,5.68-9.76,8.52a3.74,3.74,0,0,1-1.43,2.32l.71-.22a6.59,6.59,0,0,1-.51,2.21c-.49,1.61-1.58,3-2,4.62-.4,1.41-1,2.74-1.29,4.18a19.89,19.89,0,0,1-1.61,3.78,32.43,32.43,0,0,0-1.41,4.35c-.46,1.57-1.13,3.05-1.55,4.63a29.31,29.31,0,0,0-.65,4.94c-.37,4.13-.65,8.29-.66,12.44a11.86,11.86,0,0,0,.56,4.22,36.47,36.47,0,0,0,1.8,4.05,38.16,38.16,0,0,0,3,4.58,37.27,37.27,0,0,0,4.47,5.12,36,36,0,0,0,6.05,4.2,14.38,14.38,0,0,0,5.15,2,12.91,12.91,0,0,0,3.72.28,6.69,6.69,0,0,0,3.07-1.46,20.44,20.44,0,0,0,6.35-8.68,31.12,31.12,0,0,0,2.54-9.26,38.73,38.73,0,0,0-.59-9.85,30,30,0,0,0-1.18-5.13c-.32-.92.93-2.42,2.89-4.19.81,5.06,1.48,10.14,2.66,15.11,1.13,4.78,1.77,9.5,3.43,14.15s-10.09,11.3-9.16,16c1.23,6.21,8.85,13.28,10.38,19.42,1.12,4.54,2.29,7.27,2.55,11.95s5.27,7.17,7.45,11.48c1.4,2.76,4.2,4,6.66,5.59s4.84,2.26,7.25,3.54c.78.41,2.13,1.52,3,1.15s.5-1.4.49-2.12c0-1,0-2,0-2.91s.46-2.07.51-3.17a22.67,22.67,0,0,1,.09-2.74,17.57,17.57,0,0,0,.37-2.81c0-2.74.78-5.5.95-8.24.08-1.29.51-2.46.53-3.76a16.34,16.34,0,0,1,.47-5C489.24,531.58,486.73,511.42,487.06,495.47Z"/><path class="cls-3" d="M418.1,451.36c-9.67,21-12.36,27.88-17.75,44.39-.92,2.81-1.94,9.94-2.29,12.88a24.15,24.15,0,0,0,1.29,10.76c1.38,3.6,3.93,6.72,5.63,10.18,3.48,7.1,4,15.31,4,23.09A139.14,139.14,0,0,0,410.05,569c.53,4.47,1.32,8.89.69,13.4-.68,4.77-2.37,9.33-3.38,14a50.08,50.08,0,0,0-1,12.75c.39,7.91,2.09,15.57,3.26,23.37.37,2.44.26,7.81,2.32,9.23,2.9-2.21,3.86-9,4.9-12.48,1.35-4.51,2.72-9.07,5.17-13.14,6.52-10.79,19.93-16.3,32.5-15.31,13.09,1,22.14,9.26,30.95,18.82,3.3,3.58,9.1,8.34,11.19,12.71a35.91,35.91,0,0,0-.36-4.16,80.89,80.89,0,0,0-3.32-12.83c-3.14-9.9-7.12-19.83-9.82-29.8-.56-2.05-.9-4.25-1.33-6.29s-1.06-1.77-2.76-2.62c-1.13-.56-2.06-1.19-3.22-1.67-4.36-1.81-7.57-6-9.74-10-1-1.93-1.32-4.07-2.3-6a27.29,27.29,0,0,1-1.42-3.75,28.52,28.52,0,0,1-1-3.48c-.32-1.5-.16-3.17-.53-4.64-.17-.69-.63-1.42-.85-2.11-.64-2-1.1-4.13-1.71-6.17-.84-2.76-1.4-5.67-2.1-8.48-1.05-4.2-1.85-8.48-3.29-12.58-1.53-4.34-4.32-7.89-6.9-11.69a2.65,2.65,0,0,0-2.54-1.41c-5.64-.63-2.4,2-7.74,0a21.67,21.67,0,0,1-9.47-6.5,11,11,0,0,1-2.14-4.2c-.78-3-2.48-5.56-3.24-8.6A58.46,58.46,0,0,1,419.17,475a74.32,74.32,0,0,1,2.43-22.2c.18-.75,0-1.38.15-2.14a8.5,8.5,0,0,0,.19-2.84c-.1-.4-.13-.47-.42-.16a7.94,7.94,0,0,0-1,2.82C420.19,450.29,417.89,451.82,418.1,451.36Z"/><path class="cls-4" d="M494.31,625.5c3.12,9.43,5.21,20,2,29.65-1.4,4.18-4.16,7.49-6.94,11.67s-2.88,11.13-4.28,15.3c-1.39,19.48,1.48,35.64,4.26,53.73,1.39,16.7,0,33.4.17,50.56l3.14,14.73a2.2,2.2,0,0,1,.22.78c.18.71.44,1.4.61,2.11,3.3,13.8,7.94,21.9,8,36.16,0,12.59-4.46,30.94-5.37,43.36-.51,6.91-2.53,13.34-2.05,21,.49,7.87-1.19,14.89-.06,22.59.21,1.39.56,2.76.77,4.15.4,2.73-.15,5.54.38,8.23.27,1.35.68,2.64,1,4,.07.26.25.49.31.74s.12.83.19,1.22.25,1,.36,1.48a7.48,7.48,0,0,1-.05,3.49,4.74,4.74,0,0,1-.89,1.62,4.1,4.1,0,0,1-1.81.73,53.57,53.57,0,0,1-7.58,1,38.24,38.24,0,0,1-3.86.4c-.87,0-1.64.15-2.5.21s-1.84,0-2.75,0H466.78c-2.17,0-4.28.2-6.45.2-2.95,0-5.93.26-8.88.45-.93.06-1.83-.06-2.76,0s-1.64.18-2.47.17c-1,0-2,.17-3,.21-2.21.07-4.42.41-6.65.39-1.2,0-2.35.17-3.54.2-.61,0-1.22,0-1.82,0a14.21,14.21,0,0,0-2.07.36c-.75.13-1.45.38-2.19.5-1.55.24-3.08.91-4.66.95-.51,0-.93.17-1.43.2-.76,0-1.43-.19-2.17-.22a17.32,17.32,0,0,1-5.83-1.34,9.5,9.5,0,0,1-3.65-2.29c-.15-.17-.22-.39-.38-.56s-.49-.39-.71-.61a3.57,3.57,0,0,1-.9-1.62,2.44,2.44,0,0,1,.4-2.38,1.82,1.82,0,0,1,1.17-.37c1.09-.09,2.15-.32,3.21-.4a14.75,14.75,0,0,0,4.46-1,15.85,15.85,0,0,0,1.7-1c.52-.3,1.11-.42,1.62-.73a16,16,0,0,1,3.92-1.74c.75-.2,1.33-.77,2.1-.92.26-.05.54,0,.8-.07a8.41,8.41,0,0,0,.81-.37c1.08-.39,2.33-.5,3.39-.94,1.24-.52,2.56-.81,3.84-1.25,2.21-.75,4.5-1.3,6.73-2,.68-.23,1.26-.67,1.95-.91s1.19-.61,1.8-.81a4.7,4.7,0,0,0,1.39-.63,10,10,0,0,1,1.65-1c.35-.15.72-.2,1.05-.38,6.62-3.59,14.92-6.7,15.63-14.82.34-3.82,2.66-7.1,3.37-10.82,2.82-14.86-2.57-29.2-3.91-43.85-1.1-12.09-5.16-25-7.65-36.41-.36-1.63,0-3.25-.23-4.88-1.14-8.06-4-16.29-6.37-24.06-1.6-5.16-8.34-8.24-10.66-13.12-2.14-4.5-.92-11-.69-16.2.08-2,.72-3.9.8-5.87.19-5-3.2-9.51-5.45-13.74-2.63-4.95-5-10.06-7.7-15-.83-1.56-1.5-3.27-2.42-4.76-2-3.17-3.15-6.92-4.58-10.36a29.94,29.94,0,0,1-1.62-5.75c-.3-1.63-.92-3.31-1.09-4.94a18.91,18.91,0,0,0-.74-3.14,30.67,30.67,0,0,1-.47-3.85,45,45,0,0,0-1.22-5.94,38.53,38.53,0,0,1-1-6.68c-.21-2.39-1.41-4.66-1.5-7.06-.07-1.69-.39-3.3-.46-5a53.37,53.37,0,0,0-.72-7.68c-.72-3.7-.24-7.86-.24-11.62,0-2.95,0-5.9,0-8.85,0-3.21,1-6.26,1-9.47l.36-3.16c.14-1.28.63-2.55.86-3.84a18.24,18.24,0,0,1,1.32-4.51c.81-1.73,2-3.24,2.78-5s1.1-3.62,1.86-5.34a22.83,22.83,0,0,1,2.43-4c1.35-1.9,2.6-4.18,4.3-5.75a26.55,26.55,0,0,1,9.33-5.95,72.89,72.89,0,0,1,9.19-2.6,58.68,58.68,0,0,1,10.17-.78,32,32,0,0,1,7.11.6c4.19.93,7.95,3.24,11.44,5.74,2.2,1.58,4.32,3.25,6.54,4.78,1.14.79,2.35,1.46,3.51,2.22s1.89,1.59,2.93,2.29a32.51,32.51,0,0,1,4.87,4.37,10.11,10.11,0,0,1,1.94,2.74c.44.93,1.47,1.7,1.73,2.61Z"/><path d="M392.43,379.3c.35.05.7.14,1.05.22.2.05.62.16.73.37s.05.09,0,.14a1.07,1.07,0,0,1-.31,0,1.8,1.8,0,0,0-.32.06c-.43.11-.84.26-1.26.37-.25.07-.48.16-.74.21-1.55.27-3.25.05-4.75.5a6.22,6.22,0,0,0-2.91,2.91c-.32-.4-1.94-1.53-1.65-2,.42-.7,2.52-1.54,3.19-2.05a6.5,6.5,0,0,1,4.35-1.22C390.67,378.88,391.53,379.18,392.43,379.3Z"/><path d="M470.12,371.46c-2.26-1.06-4.87-1.79-7-3.11-6.69-4.19-7.28-13.62-11.53-20.27-3.5-5.48-9.55-9-15.87-10.48s-12.92-1.26-19.38-.55c-6,.65-12,1.71-17.41,4.4-3.63,1.81-13.36,8.66-11.65,13.75s11.52,6.4,14.22,11.64c1.36,2.66,1.48,5.92,3.3,8.29a23.38,23.38,0,0,0,3.3,3.06c2,1.83,3.55,4.16,5.69,5.85s5.26,2.61,7.56,1.15a11,11,0,0,1-.18-5.78c.58-1.85,2.35-3.48,4.29-3.26,2.66.3,3.85,3.57,3.77,6.24s-.78,5.53.42,7.92c1.3,2.59,4.34,3.68,7.1,4.55L451,399.31c1.71-2.44-.56-6.3,1.29-8.63,1.4-1.77,4.1-1.42,6.35-1.31a18.43,18.43,0,0,0,11.92-3.68c3.19-2.42,5.63-6.73,3.94-10.35A8.37,8.37,0,0,0,470.12,371.46Z"/><path d="M387.7,356.16l.71-.59c0-.06-.1-.11-.14-.16A2.81,2.81,0,0,0,387.7,356.16Z"/><path class="cls-5" d="M420.54,385.53c-4.09-3.32,1-10,5-10.12a6.54,6.54,0,0,1,6.47,6c.14,3.39-2.41,6.4-2.48,9.78,0,1.79.6,3.69-.18,5.3s-4,1.49-3.7-.27"/><path d="M459.19,372a7.24,7.24,0,0,0,1.73-2.91,11.83,11.83,0,0,1,2.26-3.27,6.14,6.14,0,0,1,3.92-2.2,6.78,6.78,0,0,1,3.91.92,6.51,6.51,0,0,1,2.66,2.45c.46,1.21,0,3.29.05,4.57a6.65,6.65,0,0,1-1.88,4.15,6,6,0,0,1-3.95,2.48,19.67,19.67,0,0,1-10.25-2.63c-1.55-.81-2.39-3.05-2.73-4.71s-.41-4.48.36-6.05c1.46-3,5.6-3,8.36-2.33,1.65.39,3.27.95,4,2.63a9.74,9.74,0,0,1,.61,4.36,18.17,18.17,0,0,1-.36,5A6.52,6.52,0,0,1,467,377a21.68,21.68,0,0,0-1.73,2.4,8.15,8.15,0,0,1-2.19,2.49,3.3,3.3,0,0,1-2.43.72,10.52,10.52,0,0,1-3-.44c-.61-.18-1.14-.58-1.74-.8-1-.39-1-.44-1.1-1.68"/><path d="M458.63,371.19c-.6-1.32-.1-2.51.49-3.69a5.91,5.91,0,0,0,.54-1.26,1.86,1.86,0,0,1,1.31-1.42c1.69-.7,3.8-.14,5.49.22a6.34,6.34,0,0,1,2.08.67c.58.35,1,.92,1.58,1.26.33.2.71.23,1,.53s.45.71.78,1,.58.38.81.83a9.58,9.58,0,0,1,.42,1.17,5,5,0,0,1,.44,2.21,14,14,0,0,1-.52,2.29,5.64,5.64,0,0,1-.48.95c-.2.39-.25.83-.45,1.22a6.11,6.11,0,0,1-2.71,2.21c-1.93,1.11-4.52,1-6.69.86a11.59,11.59,0,0,1-4.85-1.33c-.82-.48-1.55-1-2.32-1.59a10,10,0,0,1-2-1.63,8.59,8.59,0,0,1-1.45-2.48,18,18,0,0,1-1-2.92,6.15,6.15,0,0,1,.27-3,8,8,0,0,0,.65-1.47,5.33,5.33,0,0,1,.39-1.62,6.61,6.61,0,0,1,4.23-3.76,21.15,21.15,0,0,1,4.24-.8c.92,0,1.85,0,2.77,0a5.78,5.78,0,0,1,2.84.73,4.29,4.29,0,0,1,1.43,1c.36.41.9.76,1.1,1.26.61,1.5.12,3,.44,4.49a6.17,6.17,0,0,1,.23.87c0,.48,0,1,0,1.45a10.16,10.16,0,0,1-.12,2.34,6.92,6.92,0,0,1-1,2.44,3.59,3.59,0,0,1-2.5,1.6,10,10,0,0,1-3.66.5,13.07,13.07,0,0,1-4.68-1.48,10,10,0,0,1-3.89-3.11,10.68,10.68,0,0,1-1.38-2.22,11.93,11.93,0,0,1-.36-2.32c-.18-1.66.84-3.22,1.57-4.61.14-.27.38-1,.66-1.17s.68,0,.92,0"/><path d="M455.82,385.2c-.59-1.31-.09-2.5.49-3.68a6.58,6.58,0,0,0,.55-1.27,1.83,1.83,0,0,1,1.31-1.41c1.69-.71,3.8-.14,5.49.21a6.34,6.34,0,0,1,2.08.67c.58.36,1,.92,1.58,1.27.33.2.7.23,1,.52s.45.72.78,1,.57.38.8.84a8.2,8.2,0,0,1,.43,1.17,5,5,0,0,1,.44,2.21,15.19,15.19,0,0,1-.53,2.29,6,6,0,0,1-.47,1c-.21.39-.26.83-.45,1.21a6.2,6.2,0,0,1-2.71,2.22c-1.93,1.11-4.53,1-6.69.86a11.52,11.52,0,0,1-4.85-1.34,28,28,0,0,1-2.32-1.59,10,10,0,0,1-2-1.62,8.3,8.3,0,0,1-1.45-2.49,19.33,19.33,0,0,1-1-2.91,6.2,6.2,0,0,1,.28-3,8.07,8.07,0,0,0,.64-1.47,5.68,5.68,0,0,1,.4-1.61,6.6,6.6,0,0,1,4.22-3.76,21.28,21.28,0,0,1,4.24-.8c.93,0,1.85,0,2.78,0a6,6,0,0,1,2.84.73,4,4,0,0,1,1.42,1c.37.41.9.75,1.11,1.25.61,1.51.12,3,.43,4.5a5.84,5.84,0,0,1,.24.87c0,.47,0,1,0,1.45a10.65,10.65,0,0,1-.12,2.33,6.78,6.78,0,0,1-1,2.44,3.58,3.58,0,0,1-2.51,1.6,9.78,9.78,0,0,1-3.65.5,12.82,12.82,0,0,1-4.68-1.48,9.89,9.89,0,0,1-3.9-3.11,11,11,0,0,1-1.37-2.21,11.21,11.21,0,0,1-.36-2.33c-.18-1.66.83-3.21,1.57-4.61.14-.27.38-1,.65-1.17s.69,0,.93,0"/><path class="cls-1" d="M462.32,510.22a22.22,22.22,0,0,0,5.26-5.25c3.88-5.56,6.53-12.62,8.39-19.68a111.67,111.67,0,0,0,3.52-30.44v0a104.73,104.73,0,0,1-3.54-10.15,95.69,95.69,0,0,1,.18,24.56c-1.11,9.89-3.41,19.85-7.6,28.27a38.88,38.88,0,0,1-3.49,5.81c-.67.9-2.55,3.85-8.56,7.17-1.14,1.25-1.69,3.78-2.17,5.5Z"/><path class="cls-6" d="M476.64,920.58c.83,2.6,5.5,5,7.86,3.88,1.35-.68,2.24-3.07,2.87-4.31.17-.32.3-.65.45-1a9.66,9.66,0,0,0,.66-2.83c0-.38,0-.77-.06-1.15a1.35,1.35,0,0,0-2.47-.62,5.11,5.11,0,0,0-.52,1c-.67,1.89-1.58,4.47-3.66,4.68s-2.92-2.22-3.32-3.82c-.18-.67-.21-1.2-.44-1.83a9.94,9.94,0,0,0-.78,1.3c.14-.2-.41,1.28-.44,1.52A29.17,29.17,0,0,0,476.64,920.58Z"/><path class="cls-1" d="M475.7,443l-.05,0a82.06,82.06,0,0,0-14.72-9.54c-2.4-1.28-4.81-2.69-7.53-3.14-7.34-1.19-14.7,1-21,4.66a46,46,0,0,0-4.31,2.86,20.18,20.18,0,0,0-3.16,2.59,21.22,21.22,0,0,0-2.58,3.52c-1,1.73-2,3.54-2.92,5.34-.27.51-.77,1.31-1.28,2.27.26.3.87,1,1.1,1.21a2.7,2.7,0,0,0,1.25.66c.24.07.78.18.88.19a7.91,7.91,0,0,1,.77-1.87c.33-.65.63-1.32.95-2a17.09,17.09,0,0,1,2.9-4,43.77,43.77,0,0,1,7.76-6.82,24.58,24.58,0,0,1,12.06-4.37c2.65-.17,5.54-.63,8.12.18a36.85,36.85,0,0,1,6.76,3.32c2.35,1.32,4.58,2.83,6.91,4.18a46.6,46.6,0,0,1,6.62,5c1.22,1,2.41,2.08,3.63,3.1C477,447.89,476.34,445.39,475.7,443Z"/><path class="cls-6" d="M477.11,921.13c.83,2.6,5.51,5,7.86,3.88,1.35-.68,2.24-3.07,2.87-4.31.17-.32.3-.65.45-1a9.66,9.66,0,0,0,.66-2.83c0-.38,0-.77-.06-1.15a1.34,1.34,0,0,0-2.46-.62,5.18,5.18,0,0,0-.53,1c-.67,1.89-1.58,4.47-3.65,4.68s-2.92-2.23-3.33-3.82a15.27,15.27,0,0,0-.44-1.83,9.94,9.94,0,0,0-.78,1.3,15.69,15.69,0,0,1-.44,1.52C477.11,919,477.16,920.06,477.11,921.13Z"/><path class="cls-6" d="M477.11,921.13c.83,2.6,5.51,5,7.86,3.88,1.35-.68,2.24-3.07,2.87-4.31.17-.32.3-.65.45-1a9.66,9.66,0,0,0,.66-2.83c0-.38,0-.77-.06-1.15a1.34,1.34,0,0,0-2.46-.62,5.18,5.18,0,0,0-.53,1c-.67,1.89-1.58,4.47-3.65,4.68s-2.92-2.23-3.33-3.82a15.27,15.27,0,0,0-.44-1.83,9.94,9.94,0,0,0-.78,1.3,15.69,15.69,0,0,1-.44,1.52C477.11,919,477.16,920.06,477.11,921.13Z"/><path class="cls-7" d="M444.93,440.64a9.45,9.45,0,0,0-2.69.48,15.92,15.92,0,0,0-5.8,2.42c-.87.58-1.73,1.14-2.55,1.79-4.32,3.46-6.49,7.38-8,12.68-1.29,4.61-2.52,9.24-3.41,13.94-.42,2.22-.77,4.44-1,6.69-1.11,10.19-2.48,20.3-3.48,30.52s-3.13,21.15-3.89,31.93c-.28,2.5-.48,5-.76,6.09a69.83,69.83,0,0,1-4.26,11.17c-9.08,20.74-13.18,43.52-21.71,64.55a33.79,33.79,0,0,0-1.19,3.65,9.25,9.25,0,0,1-1.09,2.12A8.43,8.43,0,0,0,384,631c-.19.78-.58,1.43-.78,2.19a15.2,15.2,0,0,1-1.29,3.12c-.32.58-.59,1.22-.94,1.78l-.54.92-.2.18c-.32.59-.59,1.23-1,1.8a17.23,17.23,0,0,1-1,1.73,7.44,7.44,0,0,1-1.54,1.53l-2,1.16c-1.12.64-2.2,1.28-3.31,2a13.11,13.11,0,0,0-1.41.84c-.4.31-.74.75-1.15,1l-.39.6c-.44.37-.95.66-1.37,1a8.21,8.21,0,0,0-1.06,1.22l-.39.55c-.22.29-.51.5-.72.8a11,11,0,0,0-.82,1.2c-.24.45,0,.85.13,1.3a1.55,1.55,0,0,1-.14,1.26c-.25.43-.46.88-.7,1.32-.16.28-.34.51-.48.8s-.27.49-.39.74a12.39,12.39,0,0,1-1,1.5c-.18.25-.34.51-.52.76a7.55,7.55,0,0,1-.54.59,2.24,2.24,0,0,0-.38.58c-.13.23-.31.44-.42.68a3.48,3.48,0,0,0-.42,1.54,1.67,1.67,0,0,0,0,.5c.07.22.21.46.3.68a7.78,7.78,0,0,1,.55,1.41,7.49,7.49,0,0,1,0,1.42c0,.44,0,.87,0,1.3s-.09.6-.11.92a3.37,3.37,0,0,1,0,.71c-.06.2-.07.42-.14.63a1.41,1.41,0,0,0-.15.52,8,8,0,0,0,0,1.2c.07.57.6.64,1.08.73a1.91,1.91,0,0,0,.75-.05,8.78,8.78,0,0,0,1.23-.29.45.45,0,0,0,.27-.19,1.42,1.42,0,0,1,.07-.22c.06-.07.16-.08.23-.13a.58.58,0,0,0,.19-.19,9,9,0,0,0,.84-1.71c.26-.67.5-1.35.73-2a.74.74,0,0,1,0-.14c-.07.3-.13.61-.21.91a9.87,9.87,0,0,1-.63,1.75,13.53,13.53,0,0,0-.88,1.63,2.3,2.3,0,0,1-.1.35c-.11.24-.22.5-.31.75s-.07.35-.12.52a2.54,2.54,0,0,1-.29.54,11.06,11.06,0,0,0-.56,1.15,7.4,7.4,0,0,0-.66,2.24,1.72,1.72,0,0,1-.19.58,5.59,5.59,0,0,0-.11.59,2.35,2.35,0,0,1-.11.54,6,6,0,0,1-.35.61c-.22.37-.33.8-.57,1.16s-.42.76-.66,1.13a6.49,6.49,0,0,0-.59,1.06,2.43,2.43,0,0,0-.08.54c-.05.15-.12.31-.17.46-.12.38-.2.74-.34,1.11s-.29.85-.41,1.27c-.2.71-.45,1.39-.72,2.08a6.42,6.42,0,0,0-.11,2.06,2.62,2.62,0,0,0,1.09,2,2.77,2.77,0,0,0,1.92.61,1.38,1.38,0,0,0,.87-.33,5.19,5.19,0,0,0-.36.46,1.82,1.82,0,0,0-.34,1.28,3,3,0,0,0,0,.52,5.53,5.53,0,0,1,.07.7,3.08,3.08,0,0,0,.17.68c.13.37.37.48.72.61a7.69,7.69,0,0,0,1.49.29,2.33,2.33,0,0,0,1.43-.14,3.07,3.07,0,0,0,1-1.32,16.79,16.79,0,0,0,1-1.83c.21-.48.41-.93.66-1.39a12.45,12.45,0,0,0,.76-1.66c.23-.62.78-1.14,1.07-1.75.16-.32.27-.65.41-1s.3-.5.41-.78a6,6,0,0,1,1.08-1.51,4.66,4.66,0,0,0,.59-.81,6.73,6.73,0,0,1,.4-.63l-4.4,7.71a.72.72,0,0,0-.24.52,2,2,0,0,1-.11.29,1.77,1.77,0,0,0,.22,1.14c.45.92,1.61.86,2.48.7a2.58,2.58,0,0,0,1.4-.8c.43-.42.94-.73,1.36-1.15A4.27,4.27,0,0,0,373,695a10.1,10.1,0,0,1,.81-1.43,21.72,21.72,0,0,0,1.33-3c.13-.28.27-.56.4-.83s.29-.38.41-.6c.34-.58.61-1.19.92-1.8a5,5,0,0,1,.56-.9c.19-.25.34-.55.55-.79s.4-.55.6-.83l-3.37,6c0,.2-.33.37-.18.56s.2.17.29.27.14.25.26.32a.76.76,0,0,0,.34,0c.43,0,.85.12,1.28.13a2.09,2.09,0,0,0,1.16-.34,3.11,3.11,0,0,0,1.24-1.12c.17-.24.41-.4.58-.64a9,9,0,0,0,.53-.83c.15-.23.25-.5.41-.71a6,6,0,0,0,.46-.66c.15-.28.37-.52.52-.81a4.19,4.19,0,0,1,.39-.72,6.44,6.44,0,0,0,.82-1.38c.17-.4.51-.74.7-1.15s.51-.78.72-1.2.53-1,.79-1.43c.09-.19.11-.4.22-.59s.32-.39.44-.62c.23-.45.53-.84.76-1.3s.22-.87.41-1.29a8,8,0,0,1,.68-1.3,9.34,9.34,0,0,0,.48-1.13c.12-.24.3-.43.43-.67a8.08,8.08,0,0,1,.67-1c.28-.38.51-.77.76-1.17a3.58,3.58,0,0,0,.38-1.28,1.91,1.91,0,0,1,.33-.67,6.52,6.52,0,0,0,.38-.68,2,2,0,0,0,.26-.44,3.15,3.15,0,0,1,.25-.77c.15-.27.48-.52.57-.81a11.86,11.86,0,0,0,.26-1.83c0-.22,0-.44.06-.66a17.35,17.35,0,0,1,.53-2.24,9.83,9.83,0,0,0,.37-1.39,9.5,9.5,0,0,1,.07-1.19c.18-1,.16-2.12.36-3.17.05-.32.21-.63.26-1,.07-.48,0-.93.12-1.41,2.45-10.49,5.06-20,10.46-29.5,5.27-9.25,12.1-18,17.7-26.69A107.94,107.94,0,0,0,429,587.27a51.75,51.75,0,0,0,4-10.21,23.08,23.08,0,0,1,1.33-3.44c.66-1.61.85-3.5,1.38-5.1a25.69,25.69,0,0,0,.8-3.25l1.28-3.48c0-.48,0-.95.06-1.42,1.32-2.87,2.44-5.86,3.65-8.76q4-9.65,8.06-19.28l8.34-20,4.8-11.47A124,124,0,0,0,466.91,488a94.24,94.24,0,0,0,2.26-11,51.27,51.27,0,0,0,.93-6.51c.07-2,0-3.86-.15-5.83M361.15,695.82l0,0,.07-.09Zm.47-1a7.54,7.54,0,0,1,.72-2c.16-.25.34-.51.51-.76C362.34,693.17,361.92,694.13,361.62,694.79Zm4.16-26.71a2.94,2.94,0,0,0-.23.86c0,.11-.05.22-.07.33A2,2,0,0,1,365.78,668.08Zm-1.93,21.72a3.25,3.25,0,0,0,.17-.61l.24-1.27a5.53,5.53,0,0,1,.41-1.31,7.29,7.29,0,0,0,.41-1.22A3.8,3.8,0,0,1,366,684a10.12,10.12,0,0,0,.85-1.21,24.68,24.68,0,0,1,1.52-3C366.89,683,365.22,686.73,363.85,689.8Zm9.67-5.62q0-.13.09-.24c.11-.21.27-.35.36-.57a6.88,6.88,0,0,0,.75-2.15c0-.44.42-.52.67-.91s.65-.86.89-1.27c.48-.83.63-1.5,1.13-2.32.24-.4.27-.78.63-1.13.12-.1.59-.81.68-.79l.42-.47Zm8.26-5.11a6.59,6.59,0,0,1,1-1.85Zm2.38-4.66c0-.07,0-.13,0-.15S384.21,674.3,384.16,674.41Z"/><path class="cls-7" d="M363.49,665.82a3.5,3.5,0,0,0-1.1-.76c-.28-.09-.58-.16-.87-.23s-.48-.17-.72-.25c-.4-.14-.67-.46-1.11-.19"/><path class="cls-7" d="M362.48,667.22a5.73,5.73,0,0,1-1.55.09h-.5c-.21,0-.46-.13-.66-.1"/><path class="cls-7" d="M357.39,695c.05-.26.39-1.61.49-1.83a2.79,2.79,0,0,1,.65-.74,2.49,2.49,0,0,1,1.11-.59,2.36,2.36,0,0,1,1.06,0c.75.35.61,1.34.59,2a4.89,4.89,0,0,1-.21,1.13c-.05.16-.13.29-.18.44a4,4,0,0,1-.4,1"/><path class="cls-7" d="M360.29,699.27c0-.34.22-1,.26-1.32a1.74,1.74,0,0,1,.71-1c.27-.19.58-.33.85-.52.07,0,.1-.12.18-.17a1.52,1.52,0,0,1,.43-.12,1.85,1.85,0,0,1,1.27,0c.29.12.73.32.8.68a5.26,5.26,0,0,1,0,1.12c0,.27,0,2.29-.26,2.13,0,0-.64.39-.64.47"/><path class="cls-7" d="M366.81,697.26c0-.26.33-.86.4-1.12a2.81,2.81,0,0,1,.56-1,3.65,3.65,0,0,1,.45-.51,2.84,2.84,0,0,1,.59-.27c.2-.05.33,0,.52.09a1.9,1.9,0,0,1,.48.14c.15.07.27.06.4.16a1.44,1.44,0,0,1,.27.33,1.08,1.08,0,0,1,.1.86,4,4,0,0,1-.49,1c-.08.17-.14.34-.22.5a4.68,4.68,0,0,1-.49.71c0-.14-.92.23-.9.09"/><path class="cls-7" d="M369,683a3.69,3.69,0,0,1,1.09.16,2.14,2.14,0,0,1,1.11.56"/><path class="cls-7" d="M367.88,684.41a3.17,3.17,0,0,0,.49.4,2.81,2.81,0,0,0,1,.55,2.47,2.47,0,0,0,.93.17,2.54,2.54,0,0,0,.48,0c.14,0,.25-.1.4-.08"/><path class="cls-7" d="M376.71,683.27c.25.08.51.15.75.25a.57.57,0,0,1-.35-.15"/><path class="cls-7" d="M376.82,682.16c.49.19,1,.35,1.47.58a1.42,1.42,0,0,1,.53.34"/><path class="cls-7" d="M383.05,680.3a7.37,7.37,0,0,1,1.41,0c.17,0,.45.12.6,0"/><path class="cls-7" d="M363.11,680.29a18.89,18.89,0,0,1,2,.49c.89.27.13.09.21.1"/><path class="cls-7" d="M363,679a5.35,5.35,0,0,1,3.78,1c.21.16.52.09.76.19"/><path class="cls-7" d="M375.36,690.07c.1-.12.57-1.11.69-1.22a1.57,1.57,0,0,1,.55-.35,5.23,5.23,0,0,1,1.48-.11c.38,0,.79,0,1,.36a1.25,1.25,0,0,1-.06,1.16c-.19.39-.38.75-.6,1.13-.12.22-.52,1-.76,1"/><path class="cls-7" d="M360.15,670.91c.2-1.32,1.28-.15,1.51.36.52,1.15,1.63,3.55,0,4.37"/><path d="M180,222.9V230h6.9V222.9H190v17.26h-3.11v-7.35H180v7.35H176.9V222.9Z"/><path d="M204.32,236.61a5.76,5.76,0,0,1-5.57,3.7c-4.34,0-6.26-2.71-6.26-6.76s2.71-6.53,6.43-6.43c3,.07,5.75,2.34,5.45,6.46l-.05.39h-8.73c0,2.2.94,3.7,3.18,3.7a2.87,2.87,0,0,0,2.79-2Zm-3.13-4.21c.05-2-1-2.94-2.54-2.89a2.88,2.88,0,0,0-2.91,2.89Z"/><path d="M207.26,228.06a15.36,15.36,0,0,1,4.88-.94c3.9,0,5.33,1.92,5.33,4.93v5.23a.65.65,0,0,0,.61.74,2.48,2.48,0,0,0,1-.15v2a5.09,5.09,0,0,1-2,.39,2.33,2.33,0,0,1-2.34-1.75,5.67,5.67,0,0,1-3.9,1.75c-2.52,0-4.39-1.28-4.41-4s2-4.09,5.25-4.09a22,22,0,0,1,2.79.24v-.76c0-1.41-.89-2.17-2.67-2.15a10.39,10.39,0,0,0-4,.79Zm7.15,6a13,13,0,0,0-2.51-.15c-1.48.07-2.42.76-2.45,2.07a1.82,1.82,0,0,0,2.1,1.9,5.06,5.06,0,0,0,2.86-1Z"/><path d="M233.3,221.32v18.84h-2.56l-.35-2.22a4.5,4.5,0,0,1-4.12,2.37c-3.47.05-5.54-2.83-5.54-6.63,0-4.64,3-6.56,5.52-6.56a4.09,4.09,0,0,1,4,2.44v-7.84Zm-9.42,12.33c0,2.2.87,3.92,3.16,3.92s3.25-1.72,3.25-3.89c0-2.94-1.57-4-3.28-4S223.88,230.82,223.88,233.65Z"/><path d="M244,227.24l.45,2.3a4.33,4.33,0,0,1,4-2.45,3.77,3.77,0,0,1,3.85,2.4,4.55,4.55,0,0,1,4.17-2.4c3,0,4.21,2,4.21,4.64v8.43h-3.06v-7.44c0-2-.46-3-2.14-3-2.22,0-2.81,1.68-2.81,3.58v6.9h-3.06v-7.44c0-2-.47-3-2.14-3-2.37,0-2.84,1.9-2.84,4v6.51h-3.06V227.24Z"/><path d="M266.7,227.24v7.45c0,2,.79,3,2.59,3,2.34,0,3.3-2.41,3.3-4.86v-5.62h3.06v12.92h-2.44l-.44-2.81a4.72,4.72,0,0,1-4.47,3c-3.15,0-4.66-1.95-4.66-5.2v-7.87Z"/><path d="M279.16,236.46a6.68,6.68,0,0,0,4.19,1.43c1.48,0,2.34-.44,2.34-1.5,0-2.51-7.47-.84-7.23-5.57.1-2.32,1.8-3.7,5.23-3.7a10.49,10.49,0,0,1,4.66,1.21l-1.08,2.17a7.25,7.25,0,0,0-3.7-1.06c-1.21,0-2.22.39-2.17,1.4.15,2,7.32.47,7.32,5.45,0,2.66-2.39,4.05-5.45,4a8.78,8.78,0,0,1-5.3-1.68Z"/><path d="M295.19,223.59v3.78h3.25l-.42,2.46h-2.83v5.92c0,1.4.64,1.95,1.67,1.95a5.72,5.72,0,0,0,1.95-.57l.57,2.34a7.94,7.94,0,0,1-3.28.84c-3,0-4-2-4-4.14v-6.34h-1.8v-2.46h1.95l.37-3.43Z"/><path d="M309.54,221.32v8.22a4.4,4.4,0,0,1,4.32-2.42c2.44.07,5.05,1.73,5.05,6.48,0,3.9-2,6.71-5.45,6.71a4.28,4.28,0,0,1-4.07-2.37l-.42,2.22h-2.49V221.72Zm-.12,12.36c0,2.22.81,4,3.25,4,2,0,3.11-1.5,3.11-4,0-3-1.5-3.95-3.13-3.95S309.42,231.09,309.42,233.68Z"/><path d="M333,236.61a5.78,5.78,0,0,1-5.58,3.7c-4.34,0-6.26-2.71-6.26-6.76s2.71-6.53,6.43-6.43c3,.07,5.75,2.34,5.45,6.46l0,.39h-8.73c0,2.2.93,3.7,3.18,3.7a2.87,2.87,0,0,0,2.78-2Zm-3.14-4.21c.05-2-1-2.94-2.54-2.89a2.89,2.89,0,0,0-2.91,2.89Z"/><path d="M176,261.16v12.92H173V263.7h-1.8v-2.54Zm-1.55-5a1.64,1.64,0,0,1,1.82,1.55,1.82,1.82,0,0,1-3.62,0A1.59,1.59,0,0,1,174.48,256.13Z"/><path d="M181.61,261.16l.47,2.29a4.78,4.78,0,0,1,4.41-2.42c3,0,4.49,2,4.49,4.61v8.44h-3.06v-7.45c0-2-.74-3-2.42-3-2.34,0-3.25,1.9-3.25,4v6.51h-3.06V261.16Z"/><path d="M197.15,255.24v14.62c0,1.38.61,1.75,1.52,1.75a2.38,2.38,0,0,0,1.29-.47l.56,2.2a5.32,5.32,0,0,1-2.78.88c-2.57,0-3.65-1.72-3.65-4.06V255.61Z"/><path d="M206,261.16v12.92h-3.08V263.7h-1.8v-2.54Zm-1.55-5a1.65,1.65,0,0,1,1.82,1.55,1.82,1.82,0,0,1-3.62,0A1.59,1.59,0,0,1,204.45,256.13Z"/><path d="M211.57,261.16l.47,2.29a4.8,4.8,0,0,1,4.42-2.42c3,0,4.48,2,4.48,4.61v8.44h-3.05v-7.45c0-2-.74-3-2.42-3-2.34,0-3.25,1.9-3.25,4v6.51h-3.06V261.16Z"/><path d="M235.4,270.53a5.75,5.75,0,0,1-5.57,3.69c-4.34,0-6.27-2.71-6.27-6.75s2.71-6.54,6.44-6.44c3,.08,5.74,2.35,5.45,6.46l0,.4h-8.73c0,2.19.94,3.7,3.18,3.7a2.89,2.89,0,0,0,2.79-2Zm-3.13-4.22c0-2-1-2.93-2.54-2.89a2.87,2.87,0,0,0-2.91,2.89Z"/><path d="M245.24,261.16l2.52,9H248l2.52-9h3.15l2.55,9h.17l2.56-9h3.18l-4.34,12.92h-3l-2.64-8.73h-.19l-2.55,8.73h-3l-4.24-12.92Z"/><path d="M268.08,261.16v12.92H265V263.7h-1.8v-2.54Zm-1.55-5a1.65,1.65,0,0,1,1.82,1.55,1.82,1.82,0,0,1-3.62,0A1.59,1.59,0,0,1,266.53,256.13Z"/><path d="M275.21,257.51v3.77h3.25l-.42,2.46h-2.83v5.92c0,1.41.64,1.95,1.67,1.95a5.5,5.5,0,0,0,1.95-.57l.57,2.35a8.15,8.15,0,0,1-3.28.83c-3,0-4-2-4-4.14v-6.34h-1.8v-2.46h1.95l.37-3.43Z"/><path d="M284.41,255.24v8a4.81,4.81,0,0,1,4.24-2.2c3,0,4.49,2,4.49,4.61v8.44h-3.06v-7.45c0-2-.74-3-2.42-3-2.34,0-3.25,1.9-3.25,4v6.51h-3.06V255.61Z"/><path d="M305.32,257.51v3.77h3.26l-.42,2.46h-2.84v5.92c0,1.41.64,1.95,1.68,1.95A5.5,5.5,0,0,0,309,271l.56,2.35a8.15,8.15,0,0,1-3.28.83c-3,0-4-2-4-4.14v-6.34h-1.8v-2.46h2l.37-3.43Z"/><path d="M314.52,255.24v8a4.83,4.83,0,0,1,4.24-2.2c3,0,4.49,2,4.49,4.61v8.44h-3.06v-7.45c0-2-.74-3-2.41-3-2.35,0-3.26,1.9-3.26,4v6.51h-3.06V255.61Z"/><path d="M337.66,270.53a5.77,5.77,0,0,1-5.58,3.69c-4.34,0-6.26-2.71-6.26-6.75s2.71-6.54,6.43-6.44c3,.08,5.75,2.35,5.45,6.46l0,.4h-8.73c0,2.19.93,3.7,3.18,3.7a2.87,2.87,0,0,0,2.78-2Zm-3.14-4.22c.05-2-1-2.93-2.54-2.89a2.89,2.89,0,0,0-2.91,2.89Z"/><path d="M229.89,289.15v8.21A4.39,4.39,0,0,1,234.2,295c2.44.07,5.06,1.72,5.06,6.48,0,3.9-1.95,6.71-5.45,6.71a4.27,4.27,0,0,1-4.07-2.37l-.42,2.22h-2.49V289.55Zm-.13,12.36c0,2.21.82,4,3.26,4,2,0,3.11-1.5,3.11-4,0-3-1.51-3.95-3.13-3.95C231.22,297.51,229.76,298.92,229.76,301.51Z"/><path d="M247.77,295c3.23,0,6,2.19,6,6.6,0,3.63-2.14,6.59-6.16,6.59-4.37,0-6.17-3-6.17-6.59C241.48,297.14,244.27,295,247.77,295Zm-3.08,6.6c0,2.05.69,4,3,4,2.09,0,3-1.95,3-4,0-2.86-1.41-4-3-4C246.07,297.54,244.69,298.65,244.69,301.55Z"/><path d="M268.61,289.15V308H266l-.34-2.22a4.53,4.53,0,0,1-4.12,2.37c-3.48.05-5.55-2.84-5.55-6.63,0-4.64,3-6.56,5.53-6.56a4.11,4.11,0,0,1,4,2.44v-7.84Zm-9.42,12.33c0,2.2.86,3.92,3.16,3.92s3.25-1.72,3.25-3.89c0-2.94-1.58-4-3.28-4S259.19,298.65,259.19,301.48Z"/><path d="M273.94,295.07l3.18,9.12h.2l2.91-9.12h3.15l-4.78,13.12c-1.58,4.31-3.06,5.4-7.62,4.44l.54-2.59c2.91.71,3.31,0,4.22-2.49l-4.86-12.48Z"/><text class="cls-8" transform="translate(592.47 429.59)">S<tspan class="cls-9" x="14.95" y="0">t</tspan><tspan class="cls-10" x="24.89" y="0">r</tspan><tspan x="34.83" y="0">aight </tspan><tspan x="12.55" y="33.91">elb</tspan><tspan class="cls-11" x="49.65" y="33.91">o</tspan><tspan class="cls-10" x="63.61" y="33.91">w</tspan><tspan x="83.91" y="33.91">s</tspan></text><path d="M586.88,442.37c-9.62,5.72-19.3,11.39-29.1,16.81a59.28,59.28,0,0,1-5.47,2.87,1.51,1.51,0,0,0-.54,2.05,1.54,1.54,0,0,0,2.05.54c4.3-1.83,8.37-4.47,12.41-6.78q8.44-4.83,16.83-9.76c1.78-1,3.56-2.08,5.34-3.14a1.5,1.5,0,0,0-1.52-2.59Z"/><path d="M554.26,453.55c-1.67,3.57-3,7.27-4.38,10.94-.38,1,.58,1.8,1.45,1.9,1.87.22,3.73.52,5.59.76.94.12,1.87.23,2.81.31l.54.05.32,0h.06l1.3.18a1.54,1.54,0,0,0,1.84-1.05,1.5,1.5,0,0,0-1-1.84c-1.87-.26-3.75-.43-5.62-.67s-3.86-.57-5.8-.79l1.44,1.9c1.3-3.43,2.52-6.9,4.08-10.22a1.54,1.54,0,0,0-.54-2.05,1.51,1.51,0,0,0-2,.53Z"/><path d="M346.07,248.59a53.16,53.16,0,0,1,31.42,21.71,91.22,91.22,0,0,1,6.76,12.2c.85,1.8,3.53.23,2.68-1.57-3.31-7-7.24-13.84-12.59-19.53a54,54,0,0,0-16.28-11.83,62.37,62.37,0,0,0-11.17-4c-1.93-.49-2.76,2.5-.82,3Z"/><path d="M375.13,280.45c3.84,1.72,7.81,3.09,11.75,4.53,1,.38,1.88-.58,2-1.5.19-2.05.44-3.76.67-5.83.19-1.75.3-3.5.49-5.24a1.55,1.55,0,0,0-1.55-1.55,1.59,1.59,0,0,0-1.55,1.55c-.2,1.74-.31,3.49-.5,5.24-.21,1.94-.49,3.88-.67,5.83l2-1.49c-3.69-1.35-7.43-2.61-11-4.22a1.6,1.6,0,0,0-2.12.56,1.56,1.56,0,0,0,.56,2.12Z"/><text class="cls-12" transform="translate(123.84 75.39)">The s<tspan class="cls-13" x="73.14" y="0">t</tspan><tspan x="85.05" y="0">a</tspan><tspan class="cls-14" x="102.27" y="0">r</tspan><tspan x="115.68" y="0" xml:space="preserve">t position  is a</tspan><tspan class="cls-15" x="310.85" y="0">l</tspan><tspan x="319.34" y="0" xml:space="preserve">l about  pos</tspan><tspan class="cls-13" x="482.78" y="0">t</tspan><tspan x="494.69" y="0">u</tspan><tspan class="cls-16" x="512.93" y="0">r</tspan><tspan x="525.05" y="0">e</tspan></text><circle cx="79" cy="61.53" r="34.44"/><text class="cls-17" transform="translate(67.45 75.26)">1</text></svg>